<svg width="32" height="32" xmlns="http://www.w3.org/2000/svg" xmlns:xlink="http://www.w3.org/1999/xlink" xml:space="preserve" overflow="hidden"><defs><clipPath id="clip0"><rect x="537" y="579" width="32" height="32"/></clipPath></defs><g clip-path="url(#clip0)" transform="translate(-537 -579)"><path d="M562.6 600.2C561.133 599 559.267 598.2 557.4 597.667 556.067 597.267 554.6 597 553 597 551.533 597 550.067 597.267 548.6 597.667 546.733 598.2 544.867 599.133 543.4 600.2 542.733 600.733 542.333 601.533 542.333 602.333L542.333 607.667 563.667 607.667 563.667 602.333C563.667 601.533 563.267 600.733 562.6 600.2Z" fill="#FFFFFF"/><path d="M547.8 585.8C548 585.8 548.167 585.733 548.267 585.6L548.267 585.6C549.5 584.4 551.167 583.667 553 583.667 556.667 583.667 559.667 586.667 559.667 590.333L559.667 591.867 555.833 593.133C555.667 593.067 555.5 593 555.333 593 554.767 593 554.333 593.433 554.333 594 554.333 594.567 554.767 595 555.333 595 555.733 595 556.1 594.767 556.267 594.4L561.567 592.633C561.833 592.533 562.033 592.3 562.033 592L562.033 589C562.033 588.633 561.733 588.333 561.367 588.333L560.767 588.333C559.867 584.9 556.733 582.333 553 582.333 550.833 582.333 548.867 583.2 547.4 584.6 547.233 584.733 547.133 584.9 547.133 585.133 547.133 585.5 547.433 585.8 547.8 585.8Z" fill="#FFFFFF"/><path d="M558.3 590.9C558.333 590.7 558.333 590.533 558.333 590.333 558.333 587.4 555.933 585 553 585 550.067 585 547.667 587.4 547.667 590.333 547.667 593.267 550.067 595.667 553 595.667 553.1 595.667 553.233 595.667 553.333 595.633L553.333 594 553.333 594C553.333 593.7 553.4 593.4 553.533 593.1 553.767 592.633 554.167 592.267 554.7 592.1L558.3 590.9Z" fill="#FFFFFF"/></g></svg>