<svg width="39" height="38" xmlns="http://www.w3.org/2000/svg" xmlns:xlink="http://www.w3.org/1999/xlink" xml:space="preserve" overflow="hidden"><defs><clipPath id="clip0"><rect x="661" y="588" width="39" height="38"/></clipPath></defs><g clip-path="url(#clip0)" transform="translate(-661 -588)"><path d="M17.7729 28.6583C17.575 28.6583 17.3375 28.6188 17.1792 28.4604 16.8625 28.1833 16.8229 27.6688 17.1 27.3521L18.6437 25.5708C18.9208 25.2542 19.4354 25.2146 19.7521 25.4917 20.0688 25.7687 20.1083 26.2833 19.8312 26.6L18.2875 28.3813C18.1688 28.5396 17.9708 28.6188 17.7729 28.6583Z" fill="#FFFFFF" transform="matrix(1.02632 0 0 1 661 588)"/><path d="M15.3583 27.7479C15.0813 27.7875 14.8438 27.7083 14.6063 27.5104 14.2104 27.1542 14.1708 26.5208 14.5271 26.125L16.3479 24.0271C16.7042 23.6313 17.3375 23.5917 17.7333 23.9479 18.1292 24.3042 18.1688 24.9375 17.8125 25.3333L15.9917 27.4313C15.8333 27.6292 15.5958 27.7479 15.3583 27.7479Z" fill="#FFFFFF" transform="matrix(1.02632 0 0 1 661 588)"/><path d="M12.8646 26.2833C12.5479 26.3229 12.2312 26.2042 11.9937 26.0063 11.5188 25.5708 11.4396 24.8188 11.875 24.3438L13.6958 22.2458C14.1313 21.7708 14.8833 21.6917 15.3583 22.1271 15.8333 22.5625 15.9125 23.3146 15.4771 23.7896L13.6562 25.8875C13.4583 26.125 13.1417 26.2833 12.8646 26.2833Z" fill="#FFFFFF" transform="matrix(1.02632 0 0 1 661 588)"/><path d="M9.975 24.8188C9.65833 24.8583 9.34167 24.7396 9.10417 24.5417 8.62917 24.1063 8.55 23.3542 8.98542 22.8792L11.0833 20.5042C11.5188 20.0292 12.2708 19.95 12.7458 20.3854 13.2208 20.8208 13.3 21.5729 12.8646 22.0479L10.7667 24.4229C10.5292 24.6604 10.2521 24.7792 9.975 24.8188Z" fill="#FFFFFF" transform="matrix(1.02632 0 0 1 661 588)"/><path d="M1.82083 16.1104 4.86875 17.9708C5.225 18.2083 5.73958 18.0896 5.9375 17.6938L9.61875 11.5979C9.85625 11.2417 9.7375 10.7271 9.34167 10.5292L6.33333 8.66875 1.82083 16.1104Z" fill="#FFFFFF" transform="matrix(1.02632 0 0 1 661 588)"/><path d="M27.4708 21.2958 21.0979 15.8333 20.6625 15.4375 17.9312 18.5646C17.5354 19.0396 16.9813 19.3167 16.3479 19.3563 16.2687 19.3563 16.1896 19.3563 16.15 19.3563 15.5562 19.3563 15.0021 19.1583 14.6063 18.7625 13.6167 17.8917 13.5375 16.3875 14.3687 15.3979L16.7042 12.7063C14.8833 12.4688 12.5479 13.4188 10.1333 12.2312L6.68958 17.9312 9.38125 21.0583 10.4104 19.8708C10.7667 19.4354 11.3208 19.1979 11.9146 19.1979L11.9146 19.1979C12.3896 19.1979 12.8646 19.3563 13.2208 19.6729 13.6562 20.0292 13.8542 20.5438 13.8938 21.0979 14.0917 21.0187 14.3292 20.9792 14.5667 20.9792 15.0417 20.9792 15.5167 21.1375 15.8729 21.4542 16.3083 21.85 16.5458 22.3646 16.5458 22.9188 16.7042 22.8792 16.9021 22.8396 17.0604 22.8396L17.0604 22.8396C17.4958 22.8396 17.8917 22.9979 18.2479 23.275 18.6042 23.5917 18.8021 24.0271 18.8417 24.5021 18.9604 24.4625 19.1187 24.4229 19.2771 24.4229L19.2771 24.4229C19.6729 24.4229 20.0292 24.5417 20.3062 24.8188 20.6229 25.0958 20.8208 25.4917 20.8604 25.8875 20.9 26.3229 20.7417 26.7188 20.4646 27.0354L19.1187 28.5792 19.6729 29.0146C19.95 29.1729 20.2667 29.2917 20.6229 29.2521 21.4937 29.1729 22.1271 28.4208 22.0479 27.55 22.0479 27.55 22.0479 27.5104 22.0479 27.5104 22.1667 27.55 22.325 27.55 22.4438 27.55 23.3146 27.4708 23.9479 26.7188 23.8687 25.8479 23.8687 25.8479 23.8687 25.8083 23.8687 25.8083 23.9875 25.8479 24.1458 25.8479 24.2646 25.8479 25.1354 25.7687 25.7687 25.0167 25.6896 24.1458 25.6896 24.0667 25.65 23.9875 25.65 23.9083 25.8875 24.0271 26.1646 24.1063 26.4813 24.0667 27.3521 23.9875 27.9854 23.2354 27.9062 22.3646 27.9458 21.9292 27.7479 21.5729 27.4708 21.2958Z" fill="#FFFFFF" transform="matrix(1.02632 0 0 1 661 588)"/><path d="M36.1792 16.1104 33.1312 17.9708C32.775 18.2083 32.2604 18.0896 32.0625 17.6938L28.3813 11.5979C28.1437 11.2417 28.2625 10.7271 28.6583 10.5292L31.7063 8.66875 36.1792 16.1104Z" fill="#FFFFFF" transform="matrix(1.02632 0 0 1 661 588)"/><path d="M27.9062 12.3896C24.6208 13.5771 22.2458 12.4292 19.5938 11.9146 19.5542 11.9146 19.3958 11.875 19.3958 11.875 18.9208 11.8354 18.4062 11.9937 18.05 12.3896L14.9229 15.9521C14.3292 16.625 14.4083 17.6146 15.0813 18.1688 15.4375 18.4458 15.8333 18.6042 16.2687 18.5646 16.6646 18.525 17.0604 18.3667 17.3375 18.0104 17.3375 18.0104 20.5833 14.2896 20.5833 14.2896L27.9854 20.6625 27.9854 20.6625 27.9854 20.6625C28.1833 20.8604 28.2625 20.9396 28.4208 21.1771L31.2708 17.8917 27.9062 12.3896Z" fill="#FFFFFF" transform="matrix(1.02632 0 0 1 661 588)"/></g></svg>