<svg width="40" height="40" xmlns="http://www.w3.org/2000/svg" xmlns:xlink="http://www.w3.org/1999/xlink" xml:space="preserve" overflow="hidden"><defs><clipPath id="clip0"><rect x="826" y="179" width="40" height="40"/></clipPath></defs><g clip-path="url(#clip0)" transform="translate(-826 -179)"><path d="M845.167 188.167C845.167 189.547 844.047 190.667 842.667 190.667 841.286 190.667 840.167 189.547 840.167 188.167 840.167 186.786 841.286 185.667 842.667 185.667 844.047 185.667 845.167 186.786 845.167 188.167Z" fill="#FFFFFF"/><path d="M842.667 181.917C842.667 182.607 842.107 183.167 841.417 183.167 840.726 183.167 840.167 182.607 840.167 181.917 840.167 181.226 840.726 180.667 841.417 180.667 842.107 180.667 842.667 181.226 842.667 181.917Z" fill="#FFFFFF"/><path d="M849.75 189.417C849.75 190.107 849.19 190.667 848.5 190.667 847.81 190.667 847.25 190.107 847.25 189.417 847.25 188.726 847.81 188.167 848.5 188.167 849.19 188.167 849.75 188.726 849.75 189.417Z" fill="#FFFFFF"/><path d="M851 184C851 184.92 850.254 185.667 849.333 185.667 848.413 185.667 847.667 184.92 847.667 184 847.667 183.08 848.413 182.333 849.333 182.333 850.254 182.333 851 183.08 851 184Z" fill="#FFFFFF"/><path d="M857.625 192.542C857.542 192.167 857.208 191.917 856.833 191.917L835.167 191.917C834.792 191.917 834.458 192.167 834.375 192.542 834.292 192.917 834.458 193.292 834.792 193.458 834.792 193.458 836.042 194.167 836.042 195.667L836.042 214.833C836.042 216.208 837.167 217.333 838.542 217.333L853.542 217.333C854.917 217.333 856.042 216.208 856.042 214.833L856.042 195.667C856.042 194.167 857.208 193.5 857.25 193.5 857.542 193.292 857.75 192.917 857.625 192.542ZM851.833 214 846.833 214 846.833 212.333 851.833 212.333 851.833 214ZM851.833 210.667 846.833 210.667 846.833 209 851.833 209 851.833 210.667ZM851.833 207.333 846.833 207.333 846.833 205.667 851.833 205.667 851.833 207.333ZM851.833 204 846.833 204 846.833 202.333 851.833 202.333 851.833 204ZM851.833 200.667 846.833 200.667 846.833 199 851.833 199 851.833 200.667ZM854.333 195.667 854.333 196.458C853.042 195.958 850.958 195.25 848.917 195.25 846.667 195.25 845.292 195.625 843.875 196 842.333 196.417 840.708 196.833 837.667 196.917L837.667 195.667C837.667 194.833 837.417 194.125 837.125 193.583L854.875 193.583C854.583 194.125 854.333 194.833 854.333 195.667Z" fill="#FFFFFF"/></g></svg>