<svg width="42" height="41" xmlns="http://www.w3.org/2000/svg" xmlns:xlink="http://www.w3.org/1999/xlink" xml:space="preserve" overflow="hidden"><defs><clipPath id="clip0"><rect x="644" y="94" width="42" height="41"/></clipPath></defs><g clip-path="url(#clip0)" transform="translate(-644 -94)"><path d="M23.9167 24.7708 3.41667 24.7708 3.41667 11.1042 23.9167 11.1042 23.9167 24.7708ZM24.7708 8.54167 2.5625 8.54167C1.62292 8.54167 0.854167 9.31042 0.854167 10.25L0.854167 25.625C0.854167 26.5646 1.62292 27.3333 2.5625 27.3333L11.1042 27.3333 11.1042 29.8958 7.26042 29.8958 7.26042 32.4583 20.0729 32.4583 20.0729 29.8958 16.2292 29.8958 16.2292 27.3333 24.7708 27.3333C25.7104 27.3333 26.4792 26.5646 26.4792 25.625L26.4792 10.25C26.4792 9.31042 25.7104 8.54167 24.7708 8.54167Z" fill="#FFFFFF" transform="matrix(1.02439 0 0 1 644 94)"/><path d="M38.4375 12.8125 29.8958 12.8125 29.8958 10.25 38.4375 10.25 38.4375 12.8125ZM38.4375 17.0833 29.8958 17.0833 29.8958 14.5208 38.4375 14.5208 38.4375 17.0833ZM34.1667 29.8958C33.4406 29.8958 32.8854 29.3406 32.8854 28.6146 32.8854 27.8885 33.4406 27.3333 34.1667 27.3333 34.8927 27.3333 35.4479 27.8885 35.4479 28.6146 35.4479 29.3406 34.8927 29.8958 34.1667 29.8958ZM38.4375 8.54167 29.8958 8.54167C28.9563 8.54167 28.1875 9.31042 28.1875 10.25L28.1875 30.75C28.1875 31.6896 28.9563 32.4583 29.8958 32.4583L38.4375 32.4583C39.3771 32.4583 40.1458 31.6896 40.1458 30.75L40.1458 10.25C40.1458 9.31042 39.3771 8.54167 38.4375 8.54167Z" fill="#FFFFFF" transform="matrix(1.02439 0 0 1 644 94)"/></g></svg>