<svg width="36" height="37" xmlns="http://www.w3.org/2000/svg" xmlns:xlink="http://www.w3.org/1999/xlink" xml:space="preserve" overflow="hidden"><defs><clipPath id="clip0"><rect x="730" y="567" width="36" height="37"/></clipPath></defs><g clip-path="url(#clip0)" transform="translate(-730 -567)"><path d="M32.25 26.625 31.125 27.75 5.25 27.75 3.75 26.25 3.75 18.75 5.25 17.25 31.125 17.25 32.25 18.375 32.25 26.625ZM1.5 15 1.5 30 34.5 30 34.5 15 1.5 15Z" fill="#FFFFFF" transform="matrix(1 0 0 1.02778 730 567)"/><path d="M21 22.5C21 24.5711 19.6569 26.25 18 26.25 16.3431 26.25 15 24.5711 15 22.5 15 20.4289 16.3431 18.75 18 18.75 19.6569 18.75 21 20.4289 21 22.5Z" fill="#FFFFFF" transform="matrix(1 0 0 1.02778 730 567)"/><path d="M9.75 22.5C9.75 23.1213 9.24632 23.625 8.625 23.625 8.00368 23.625 7.5 23.1213 7.5 22.5 7.5 21.8787 8.00368 21.375 8.625 21.375 9.24632 21.375 9.75 21.8787 9.75 22.5Z" fill="#FFFFFF" transform="matrix(1 0 0 1.02778 730 567)"/><path d="M28.5 22.5C28.5 23.1213 27.9963 23.625 27.375 23.625 26.7537 23.625 26.25 23.1213 26.25 22.5 26.25 21.8787 26.7537 21.375 27.375 21.375 27.9963 21.375 28.5 21.8787 28.5 22.5Z" fill="#FFFFFF" transform="matrix(1 0 0 1.02778 730 567)"/><path d="M24.7125 7.7625 25.275 9.1875 27.525 8.7375 25.95 4.8 5.775 13.05 17.325 10.7625Z" fill="#FFFFFF" transform="matrix(1 0 0 1.02778 730 567)"/><path d="M22.7625 13.5 28.6875 12.3375 28.95 13.5 31.2375 13.5 30.4875 9.675 11.25 13.5Z" fill="#FFFFFF" transform="matrix(1 0 0 1.02778 730 567)"/></g></svg>