<svg width="41" height="41" xmlns="http://www.w3.org/2000/svg" xmlns:xlink="http://www.w3.org/1999/xlink" xml:space="preserve" overflow="hidden"><defs><clipPath id="clip0"><rect x="864" y="302" width="41" height="41"/></clipPath></defs><g clip-path="url(#clip0)" transform="translate(-864 -302)"><path d="M886.934 322.5C886.934 323.915 885.787 325.062 884.372 325.062 882.957 325.062 881.809 323.915 881.809 322.5 881.809 321.085 882.957 319.938 884.372 319.938 885.787 319.938 886.934 321.085 886.934 322.5Z" fill="#FFFFFF"/><path d="M899.405 313.958C898.679 312.72 897.056 312.122 894.835 312.122 893.426 312.122 891.803 312.378 890.009 312.848 888.771 308.364 886.721 305.417 884.372 305.417 882.066 305.417 879.973 308.321 878.777 312.763 877.069 312.335 875.531 312.079 874.165 312.079 871.944 312.079 870.321 312.677 869.595 313.916 868.399 315.966 869.979 319.254 873.268 322.585 870.107 325.831 868.655 328.992 869.808 330.999 870.534 332.237 872.157 332.835 874.378 332.835 875.659 332.835 877.154 332.622 878.777 332.237 880.016 336.679 882.066 339.583 884.372 339.583 886.678 339.583 888.771 336.679 889.967 332.237 891.675 332.665 893.213 332.921 894.579 332.921 896.8 332.921 898.423 332.323 899.149 331.084 900.302 329.077 898.85 325.917 895.69 322.671 899.064 319.297 900.601 316.008 899.405 313.958ZM894.835 313.83C896.416 313.83 897.569 314.215 897.91 314.812 898.551 315.923 897.398 318.528 894.494 321.432 893.469 320.493 892.316 319.553 891.034 318.656 890.906 317.204 890.693 315.795 890.394 314.471 892.017 314.044 893.554 313.83 894.835 313.83ZM887.191 326.942C886.294 327.454 885.397 327.924 884.5 328.351 883.603 327.924 882.706 327.454 881.809 326.942 880.955 326.429 880.101 325.917 879.332 325.404 879.247 324.465 879.247 323.525 879.247 322.5 879.247 321.56 879.29 320.664 879.332 319.767 880.186 319.169 881.083 318.614 882.066 318.058 882.877 317.589 883.689 317.161 884.5 316.777 885.311 317.161 886.123 317.589 886.934 318.058 887.789 318.571 888.643 319.083 889.411 319.596 889.497 320.535 889.497 321.475 889.497 322.5 889.497 323.568 889.454 324.593 889.369 325.575 888.685 326.045 887.959 326.472 887.191 326.942ZM889.155 327.753C889.027 328.565 888.899 329.376 888.771 330.102 888.045 329.846 887.276 329.59 886.507 329.248 887.02 328.992 887.532 328.693 888.045 328.394 888.429 328.18 888.814 327.967 889.155 327.753ZM882.493 329.248C881.639 329.59 880.827 329.889 880.016 330.145 879.845 329.333 879.717 328.479 879.589 327.582 880.058 327.881 880.485 328.138 880.998 328.436 881.468 328.693 881.98 328.992 882.493 329.248ZM877.581 324.123C876.898 323.61 876.3 323.098 875.745 322.585 876.3 322.073 876.941 321.56 877.581 321.048 877.581 321.518 877.539 321.987 877.539 322.5 877.539 323.055 877.539 323.61 877.581 324.123ZM879.546 317.589C879.674 316.649 879.802 315.752 879.973 314.898 880.784 315.154 881.639 315.496 882.493 315.837 882.066 316.051 881.596 316.307 881.169 316.564 880.656 316.905 880.101 317.247 879.546 317.589ZM886.465 315.837C887.233 315.496 888.002 315.24 888.771 314.983 888.942 315.752 889.07 316.564 889.198 317.418 888.728 317.119 888.301 316.862 887.789 316.564 887.361 316.35 886.934 316.094 886.465 315.837ZM891.162 320.877C891.931 321.475 892.615 322.03 893.255 322.628 892.615 323.183 891.931 323.781 891.162 324.336 891.205 323.739 891.205 323.141 891.205 322.543 891.205 321.945 891.205 321.39 891.162 320.877ZM884.372 307.125C885.653 307.125 887.319 309.389 888.386 313.318 887.148 313.745 885.824 314.257 884.5 314.855 883.091 314.215 881.724 313.659 880.4 313.232 881.468 309.346 883.091 307.125 884.372 307.125ZM871.047 314.812C871.431 314.172 872.542 313.83 874.122 313.83 875.36 313.83 876.77 314.044 878.307 314.428 878.008 315.795 877.795 317.29 877.667 318.827 876.471 319.681 875.403 320.535 874.464 321.432 871.602 318.528 870.406 315.923 871.047 314.812ZM874.378 331.17C872.798 331.17 871.645 330.785 871.303 330.188 870.662 329.077 871.773 326.6 874.506 323.781 875.489 324.635 876.556 325.49 877.709 326.344 877.838 327.839 878.051 329.291 878.35 330.615 876.941 330.999 875.574 331.17 874.378 331.17ZM884.372 337.875C883.091 337.875 881.468 335.654 880.4 331.81 881.724 331.383 883.091 330.871 884.5 330.23 885.824 330.828 887.105 331.341 888.344 331.725 887.276 335.654 885.653 337.875 884.372 337.875ZM897.697 330.188C897.312 330.828 896.202 331.17 894.622 331.17 893.383 331.17 891.931 330.956 890.436 330.572 890.693 329.291 890.906 327.967 891.034 326.515 892.316 325.618 893.469 324.721 894.494 323.781 897.227 326.6 898.338 329.077 897.697 330.188Z" fill="#FFFFFF"/></g></svg>