<svg width="44" height="44" xmlns="http://www.w3.org/2000/svg" xmlns:xlink="http://www.w3.org/1999/xlink" xml:space="preserve" overflow="hidden"><defs><clipPath id="clip0"><rect x="786" y="527" width="44" height="44"/></clipPath></defs><g clip-path="url(#clip0)" transform="translate(-786 -527)"><path d="M809.054 555.508 794.021 555.508C793.15 555.508 792.417 556.242 792.417 557.112 792.417 557.983 793.15 558.717 794.021 558.717L801.446 558.717 803.737 560.871 806.075 558.717 809.054 558.717C809.925 558.717 810.658 557.983 810.658 557.112 810.658 556.242 809.925 555.508 809.054 555.508Z" fill="#FFFFFF"/><path d="M803.646 563.346 800.483 560.412 792.325 560.412 792.325 562.567C792.325 563.758 793.287 564.721 794.479 564.721L808.458 564.721C809.65 564.721 810.612 563.758 810.612 562.567L810.612 560.412 806.854 560.412 803.646 563.346Z" fill="#FFFFFF"/><path d="M801.446 546.708C796.404 546.708 792.325 548.633 792.325 553.675L810.567 553.675C810.567 548.679 806.487 546.708 801.446 546.708Z" fill="#FFFFFF"/><path d="M823.4 534.883C823.767 534.517 823.767 533.967 823.4 533.6 823.033 533.233 822.483 533.233 822.117 533.6L817.533 538.321 817.35 540.017 804.7 540.017 804.7 541.392 805.021 545.287C809.742 546.25 812.446 549.275 812.446 553.767L812.446 562.612C812.446 563.392 812.217 564.125 811.804 564.767L819.412 564.767 821.246 541.392 821.246 540.017 819.321 540.017 819.412 539.1 823.4 534.883Z" fill="#FFFFFF"/></g></svg>