<svg width="40" height="40" xmlns="http://www.w3.org/2000/svg" xmlns:xlink="http://www.w3.org/1999/xlink" xml:space="preserve" overflow="hidden"><defs><clipPath id="clip0"><rect x="354" y="278" width="40" height="40"/></clipPath></defs><g clip-path="url(#clip0)" transform="translate(-354 -278)"><path d="M386.917 309.25 386.917 308.417 385.25 308.417 385.25 294.25 386.917 294.25 386.917 293.417 388.167 293.417 388.167 290.917 386.917 290.917 374 283 361.083 290.917 359.833 290.917 359.833 293.417 361.083 293.417 361.083 294.25 362.75 294.25 362.75 308.417 361.083 308.417 361.083 309.25 358.167 311.333 358.167 313 374 313 389.833 313 389.833 311.333 386.917 309.25ZM367.75 308.417 365.25 308.417 365.25 294.25 367.75 294.25 367.75 308.417ZM372.75 308.417 370.25 308.417 370.25 294.25 372.75 294.25 372.75 308.417ZM373.583 290.083C372.667 290.083 371.917 289.333 371.917 288.417 371.917 287.5 372.667 286.75 373.583 286.75 374.5 286.75 375.25 287.5 375.25 288.417 375.25 289.333 374.5 290.083 373.583 290.083ZM377.75 308.417 375.25 308.417 375.25 294.25 377.75 294.25 377.75 308.417ZM382.75 308.417 380.25 308.417 380.25 294.25 382.75 294.25 382.75 308.417Z" fill="#FFFFFF"/></g></svg>