<svg width="42" height="43" xmlns="http://www.w3.org/2000/svg" xmlns:xlink="http://www.w3.org/1999/xlink" xml:space="preserve" overflow="hidden"><defs><clipPath id="clip0"><rect x="458" y="127" width="42" height="43"/></clipPath></defs><g clip-path="url(#clip0)" transform="translate(-458 -127)"><path d="M14 27.125C14 29.058 12.433 30.625 10.5 30.625 8.567 30.625 7 29.058 7 27.125 7 25.192 8.567 23.625 10.5 23.625 12.433 23.625 14 25.192 14 27.125Z" fill="#FFFFFF" transform="matrix(1 0 0 1.02381 458 127)"/><path d="M35 27.125C35 29.058 33.433 30.625 31.5 30.625 29.567 30.625 28 29.058 28 27.125 28 25.192 29.567 23.625 31.5 23.625 33.433 23.625 35 25.192 35 27.125Z" fill="#FFFFFF" transform="matrix(1 0 0 1.02381 458 127)"/><path d="M17.0625 18.375 17.0625 13.125 23.0562 13.125C23.5375 13.125 23.975 13.3 24.2812 13.65L29.0063 18.375 17.0625 18.375ZM15.3125 18.375 4.24375 18.375 8.96875 13.65C9.31875 13.3 9.75625 13.125 10.1937 13.125L15.3125 13.125 15.3125 18.375ZM35.875 18.375 32.2437 18.375C31.7625 18.375 31.325 18.2 31.0188 17.85L25.5063 12.3812C24.85 11.725 23.975 11.375 23.0125 11.375L10.1937 11.375C9.275 11.375 8.35625 11.725 7.7 12.3812L2.275 17.85C1.925 18.2 1.75 18.6375 1.75 19.1187L1.75 23.625C1.75 25.55 3.325 27.125 5.25 27.125L5.6875 27.125C5.6875 24.4563 7.83125 22.3125 10.5 22.3125 13.1687 22.3125 15.3125 24.4563 15.3125 27.125L26.6875 27.125C26.6875 24.4563 28.8313 22.3125 31.5 22.3125 34.1688 22.3125 36.3125 24.4563 36.3125 27.125L38.5 27.125C39.4625 27.125 40.25 26.3375 40.25 25.375L40.25 22.75C40.25 20.3438 38.2812 18.375 35.875 18.375Z" fill="#FFFFFF" transform="matrix(1 0 0 1.02381 458 127)"/></g></svg>