<svg width="33" height="33" xmlns="http://www.w3.org/2000/svg" xmlns:xlink="http://www.w3.org/1999/xlink" xml:space="preserve" overflow="hidden"><defs><clipPath id="clip0"><rect x="474" y="548" width="33" height="33"/></clipPath></defs><g clip-path="url(#clip0)" transform="translate(-474 -548)"><path d="M500.469 559.963C497.375 556.594 494.041 558.897 491.497 559.481 491.428 558.656 491.222 557.9 490.981 557.178 492.047 557.075 493.628 556.731 494.728 555.597 496.516 553.809 496.344 550.784 496.344 550.784 496.344 550.784 493.284 550.612 491.531 552.4 490.706 553.225 490.294 554.325 490.087 555.287 488.575 552.744 486.375 551.403 486.237 551.3L485.172 553.053C485.206 553.088 488.919 555.391 489.434 559.447 486.925 558.828 483.556 556.594 480.531 559.928 477.197 563.606 480.05 582.444 490.534 577.253 500.984 582.478 503.803 563.641 500.469 559.963Z" fill="#FFFFFF"/></g></svg>