<svg xmlns="http://www.w3.org/2000/svg" fill="none" viewBox="0 0 51.84 51.519999999999996" style="max-height: 500px" width="51.84" height="51.519999999999996">
<path fill="white" d="M44.4514 0H6.91967C3.09804 0 0 3.09804 0 6.91967V44.4514C0 48.273 3.09804 51.371 6.91967 51.371H44.4514C48.273 51.371 51.371 48.273 51.371 44.4514V6.91967C51.371 3.09804 48.273 0 44.4514 0ZM13.2079 20.7868C14.2797 20.7868 15.154 19.9125 15.154 18.8407C15.154 17.7689 14.2797 16.8945 13.2079 16.8945C12.1361 16.8945 11.2617 17.7689 11.2617 18.8407C11.2617 19.9125 12.1361 20.7868 13.2079 20.7868ZM11.2617 32.3407C11.2617 31.2689 12.1361 30.3945 13.2079 30.3945C14.2797 30.3945 15.154 31.2689 15.154 32.3407C15.154 33.4125 14.2797 34.2868 13.2079 34.2868C12.1361 34.2868 11.2617 33.4125 11.2617 32.3407ZM39.3349 22.3197C38.9777 22.3197 38.6392 22.3761 38.3102 22.4889C36.1666 23.1941 33.8443 22.0282 33.1392 19.8752C33.064 19.6496 32.9606 19.4334 32.829 19.2265C32.2084 18.2393 32.7537 16.9325 33.8913 16.6881C35.2076 16.406 36.1948 15.2402 36.1948 13.8393C36.1948 12.2316 34.8879 10.9248 33.2802 10.9248C31.6725 10.9248 30.3657 12.2316 30.3657 13.8393C30.3657 14.4128 30.5349 14.9487 30.817 15.4C31.4375 16.3872 30.8922 17.694 29.7546 17.9385C28.4384 18.2205 27.4512 19.3864 27.4512 20.7872C27.4512 22.3949 28.758 23.7017 30.3657 23.7017C30.6384 23.7017 30.8922 23.6641 31.146 23.5983C33.0076 23.0906 34.9255 23.9556 35.8187 25.5821C34.9255 27.1898 33.017 28.0359 31.1649 27.5189C30.911 27.453 30.6478 27.406 30.3657 27.406C28.758 27.406 27.4512 28.7129 27.4512 30.3206C27.4512 31.7214 28.4384 32.8872 29.7546 33.1693C30.8922 33.4137 31.4469 34.7206 30.817 35.7078C30.5349 36.159 30.3657 36.6855 30.3657 37.259C30.3657 38.8667 31.6725 40.1736 33.2802 40.1736C34.8879 40.1736 36.1948 38.8667 36.1948 37.259C36.1948 35.8582 35.2076 34.6924 33.8913 34.4103C32.7537 34.1659 32.199 32.859 32.829 31.8719C32.9512 31.6744 33.0546 31.4676 33.1298 31.2419C33.8443 29.1171 36.1572 27.9701 38.282 28.6847C38.611 28.7881 38.9589 28.8539 39.3256 28.8539C41.1307 28.8539 42.5974 27.3872 42.5974 25.5821C42.5974 23.777 41.1307 22.3103 39.3256 22.3103L39.3349 22.3197ZM20.9918 27.4058C22.5995 27.4058 23.9063 28.7126 23.9063 30.3203C23.9063 31.7212 22.9191 32.887 21.6029 33.169C20.4653 33.4135 19.92 34.7203 20.5405 35.7075C20.8225 36.1588 20.9918 36.6947 20.9918 37.2682C20.9918 38.8759 19.6849 40.1827 18.0772 40.1827C16.4695 40.1827 15.1627 38.8759 15.1627 37.2682C15.1627 35.8673 16.1499 34.7015 17.4661 34.4195C18.6037 34.175 19.149 32.8682 18.5285 31.881C18.3969 31.6836 18.2935 31.4673 18.2183 31.2323C17.4567 28.8912 14.9277 27.6126 12.5866 28.3742C12.3046 28.4588 12.0037 28.5152 11.6841 28.5152C10.0764 28.5152 8.76953 27.2083 8.76953 25.6006C8.76953 23.9929 10.0764 22.6861 11.6841 22.6861C11.9943 22.6861 12.2858 22.7425 12.5678 22.8271C14.9277 23.5793 17.4567 22.2724 18.2089 19.9126C18.2935 19.6776 18.3969 19.4519 18.5285 19.2451C19.1584 18.2579 18.6037 16.9511 17.4661 16.7066C16.1499 16.4246 15.1627 15.2587 15.1627 13.8579C15.1627 12.2502 16.4695 10.9433 18.0772 10.9433C19.6849 10.9433 20.9918 12.2502 20.9918 13.8579C20.9918 14.422 20.8225 14.9579 20.5405 15.4092C19.9106 16.3964 20.4653 17.7032 21.6029 17.9476C22.9191 18.2297 23.9063 19.3955 23.9063 20.7964C23.9063 22.4041 22.5995 23.7109 20.9918 23.7109C20.6815 23.7109 20.3901 23.6545 20.108 23.5699C18.0584 22.9117 15.896 23.8049 14.8618 25.5818C15.9054 27.34 18.0678 28.2049 20.0892 27.5468C20.3713 27.4622 20.6721 27.4058 20.9918 27.4058ZM38.0067 30.3945C36.9349 30.3945 36.0605 31.2689 36.0605 32.3407C36.0605 33.4125 36.9349 34.2868 38.0067 34.2868C39.0785 34.2868 39.9529 33.4125 39.9529 32.3407C39.9529 31.2689 39.0785 30.3945 38.0067 30.3945ZM39.9529 18.8407C39.9529 19.9125 39.0785 20.7868 38.0067 20.7868C36.9349 20.7868 36.0605 19.9125 36.0605 18.8407C36.0605 17.7689 36.9349 16.8945 38.0067 16.8945C39.0785 16.8945 39.9529 17.7689 39.9529 18.8407ZM25.6883 12.5232C26.7601 12.5232 27.6345 11.6488 27.6345 10.577C27.6345 9.50522 26.7601 8.63086 25.6883 8.63086C24.6165 8.63086 23.7422 9.50522 23.7422 10.577C23.7422 11.6488 24.6165 12.5232 25.6883 12.5232ZM23.7422 40.7938C23.7422 39.722 24.6165 38.8477 25.6883 38.8477C26.7601 38.8477 27.6345 39.722 27.6345 40.7938C27.6345 41.8656 26.7601 42.74 25.6883 42.74C24.6165 42.74 23.7422 41.8656 23.7422 40.7938Z" clip-rule="evenodd" fill-rule="evenodd"/>
<path fill="white" d="M66.7402 24.2128L73.6598 5.1582H78.4574L85.2616 24.2128H80.5102L79.7259 21.8505H72.3912L71.607 24.2128H66.7402ZM78.5266 18.2202L76.0586 10.6934L73.5906 18.2202H78.5266Z"/>
<path fill="white" d="M86.4844 5.18066H91.1435V24.2121H86.4844V5.18066Z"/>
<path fill="white" d="M66.7402 30.0547H71.6301L75.0668 41.9124L78.5496 30.0547H82.4476L85.9997 41.9124L89.3672 30.0547H94.2109L88.5599 49.1093H83.8777L80.5102 37.5758L77.2118 49.1093H72.4835L66.7402 30.0547Z"/>
<path fill="white" d="M103.94 49.4558C98.197 49.4558 94.0684 44.847 94.0684 39.5435C94.0684 34.2399 98.197 29.6543 103.94 29.6543C109.683 29.6543 113.789 34.2631 113.789 39.5435C113.789 44.8239 109.66 49.4558 103.94 49.4558ZM103.94 44.7833C106.939 44.7833 109.13 42.3979 109.13 39.5492C109.13 36.7006 106.939 34.3383 103.94 34.3383C100.942 34.3383 98.7275 36.7006 98.7275 39.5492C98.7275 42.3979 100.919 44.7833 103.94 44.7833Z"/>
<path fill="white" d="M115.961 30.0312H120.712C126.986 30.0312 129.316 33.7136 129.316 37.6739C129.316 39.9204 128.555 42.0743 126.894 43.5102L129.777 49.1148H124.403L122.811 45.2471C122.373 45.3166 121.889 45.3398 121.381 45.3398H120.597V49.1379H115.961V30.037V30.0312ZM121.52 40.8005C123.665 40.8005 124.772 39.4572 124.772 37.6739C124.772 35.8906 123.642 34.5705 121.52 34.5705H120.597V40.8005H121.52Z"/>
<path fill="white" d="M132.787 30.0078H137.423V44.691H143.005V49.1145H132.787V30.0136V30.0078Z"/>
<path fill="white" d="M145.191 30.0078H149.643C156.909 30.0078 159.999 34.3155 159.999 39.5033C159.999 44.691 156.909 49.1145 149.643 49.1145H145.191V30.0136V30.0078ZM150.22 44.4131C153.795 44.4131 155.34 42.1898 155.34 39.5033C155.34 36.8167 153.795 34.6861 150.22 34.6861H149.828V44.4131H150.22Z"/>
</svg>