<?xml version="1.0" encoding="utf-8" standalone="yes"?>
<!DOCTYPE svg PUBLIC "-//W3C//DTD SVG 1.1//EN" "http://www.w3.org/Graphics/SVG/1.1/DTD/svg11.dtd">
<svg width="890" height="446" viewBox="0 0 890 446" style="fill:none;stroke:none;fill-rule:evenodd;clip-rule:evenodd;stroke-linecap:round;stroke-linejoin:round;stroke-miterlimit:1.5;" version="1.1" xmlns="http://www.w3.org/2000/svg" xmlns:xlink="http://www.w3.org/1999/xlink"><style id="fontImports">@import url("https://fonts.googleapis.com/css2?family=Roboto:wght@400;700&amp;display=block");</style><rect id="" x="0" y="0" width="890" height="446" style="fill: #ffffff;"></rect><g id="items" style="isolation: isolate"><g id="blend" style="mix-blend-mode: normal"><g id="g-root-tf_dg2bla8371u4-fill" data-item-order="-394272" transform="translate(-9, -9)"><g id="tf_dg2bla8371u4-fill" stroke="none" fill="#ffffff"><g><path d="M 10 10L 898 10L 898 454L 10 454Z"></path></g></g></g><g id="g-root-ro_1usesdq7t622s-fill" data-item-order="-19800" transform="translate(351, 63)"><g id="ro_1usesdq7t622s-fill" stroke="none" fill="#f5f5f5"><g><path d="M 34 10L 118 10C 118 10 142 10 142 34L 142 136C 142 136 142 160 118 160L 34 160C 34 160 10 160 10 136L 10 34C 10 34 10 10 34 10"></path></g></g></g><g id="g-root-ro_1cw4g8e835nut-fill" data-item-order="-15552" transform="translate(15, 39)"><g id="ro_1cw4g8e835nut-fill" stroke="none" fill="#edf4ff"><g><path d="M 22 10L 286 10C 286 10 298 10 298 22L 298 52C 298 52 298 64 286 64L 22 64C 22 64 10 64 10 52L 10 22C 10 22 10 10 22 10"></path></g></g></g><g id="g-root-ro_qvxgz27t8v7y-fill" data-item-order="-10368" transform="translate(531, 51)"><g id="ro_qvxgz27t8v7y-fill" stroke="none" fill="#fffbda"><g><path d="M 22 10L 190 10C 190 10 202 10 202 22L 202 52C 202 52 202 64 190 64L 22 64C 22 64 10 64 10 52L 10 22C 10 22 10 10 22 10"></path></g></g></g><g id="g-root-ro_4mbvou7t375z-fill" data-item-order="-10368" transform="translate(321, 261)"><g id="ro_4mbvou7t375z-fill" stroke="none" fill="#faf0ff"><g><path d="M 22 10L 190 10C 190 10 202 10 202 22L 202 52C 202 52 202 64 190 64L 22 64C 22 64 10 64 10 52L 10 22C 10 22 10 10 22 10"></path></g></g></g><g id="g-root-cu_8x4g1a8371fv-fill" data-item-order="0" transform="translate(345, 315)"></g><g id="g-root-cu_1lt0eni835oge-fill" data-item-order="0" transform="translate(303, 66)"></g><g id="g-root-cu_1lpw17y837280-fill" data-item-order="0" transform="translate(345, 315)"></g><g id="g-root-tx_realtime_6ijvy7ta87f-fill" data-item-order="0" transform="translate(369, 327)"><g id="tx_realtime_6ijvy7ta87f-fill" stroke="none" fill="#484848"><g><text style="font: 20px &quot;Roboto&quot;, sans-serif; white-space: pre;" font-size="20px" font-family="'Roboto', sans-serif"><tspan x="14.96" y="34.33" dominant-baseline="ideographic">Real-time Analytics</tspan></text></g></g></g><g id="g-root-cu_dg2bla835nnt-fill" data-item-order="0" transform="translate(417, 213)"></g><g id="g-root-cu_v8la9a835ngv-fill" data-item-order="0" transform="translate(261, 93)"></g><g id="g-root-cu_1hgxr1q835n9e-fill" data-item-order="0" transform="translate(261, 93)"></g><g id="g-root-cu_qun7e6835n9g-fill" data-item-order="0" transform="translate(261, 93)"></g><g id="g-root-cu_1qdtpgu835nv2-fill" data-item-order="0" transform="translate(261, 93)"></g><g id="g-root-tx_complian_1hf3n727ta87e-fill" data-item-order="0" transform="translate(135, 213)"><g id="tx_complian_1hf3n727ta87e-fill" stroke="none" fill="#484848"><g><text style="font: 20px &quot;Roboto&quot;, sans-serif; white-space: pre;" font-size="20px" font-family="'Roboto', sans-serif"><tspan x="17.07" y="34.33" dominant-baseline="ideographic">Compliance</tspan></text></g></g></g><g id="g-root-tx_regulato_18fpsfi7tbp5b-fill" data-item-order="0" transform="translate(579, 189)"><g id="tx_regulato_18fpsfi7tbp5b-fill" stroke="none" fill="#484848"><g><text style="font: 20px &quot;Roboto&quot;, sans-serif; white-space: pre;" font-size="20px" font-family="'Roboto', sans-serif"><tspan x="15.07" y="34.33" dominant-baseline="ideographic">Regulatory Compliance</tspan></text></g></g></g><g id="g-root-cu_1uqiu5q835mo4-fill" data-item-order="0" transform="translate(483, 78)"></g><g id="g-root-tx_predicti_4nl06m7ta9l8-fill" data-item-order="0" transform="translate(369, 363)"><g id="tx_predicti_4nl06m7ta9l8-fill" stroke="none" fill="#484848"><g><text style="font: 20px &quot;Roboto&quot;, sans-serif; white-space: pre;" font-size="20px" font-family="'Roboto', sans-serif"><tspan x="12.2" y="34.33" dominant-baseline="ideographic">Predictive Modeling</tspan></text></g></g></g><g id="g-root-tx_portfoli_v3msz27ta80f-fill" data-item-order="0" transform="translate(51, 105)"><g id="tx_portfoli_v3msz27ta80f-fill" stroke="none" fill="#484848"><g><text style="font: 20px &quot;Roboto&quot;, sans-serif; white-space: pre;" font-size="20px" font-family="'Roboto', sans-serif"><tspan x="12.07" y="34.33" dominant-baseline="ideographic">Portfolio Management</tspan></text></g></g></g><g id="g-root-tx_operatio_18hl7ou7taarl-fill" data-item-order="0" transform="translate(147, 177)"><g id="tx_operatio_18hl7ou7taarl-fill" stroke="none" fill="#484848"><g><text style="font: 20px &quot;Roboto&quot;, sans-serif; white-space: pre;" font-size="20px" font-family="'Roboto', sans-serif"><tspan x="15.52" y="34.33" dominant-baseline="ideographic">Operations</tspan></text></g></g></g><g id="g-root-tx_assetall_qn6tri7tbpce-fill" data-item-order="0" transform="translate(579, 153)"><g id="tx_assetall_qn6tri7tbpce-fill" stroke="none" fill="#484848"><g><text style="font: 20px &quot;Roboto&quot;, sans-serif; white-space: pre;" font-size="20px" font-family="'Roboto', sans-serif"><tspan x="16.31" y="34.33" dominant-baseline="ideographic">Asset Allocation Optimization</tspan></text></g></g></g><g id="g-root-tx_trading_v4vr5a7taa6g-fill" data-item-order="0" transform="translate(183, 141)"><g id="tx_trading_v4vr5a7taa6g-fill" stroke="none" fill="#484848"><g><text style="font: 20px &quot;Roboto&quot;, sans-serif; white-space: pre;" font-size="20px" font-family="'Roboto', sans-serif"><tspan x="12.57" y="34.33" dominant-baseline="ideographic">Trading</tspan></text></g></g></g><g id="g-root-tx_automate_i0agq67taa6d-fill" data-item-order="0" transform="translate(579, 117)"><g id="tx_automate_i0agq67taa6d-fill" stroke="none" fill="#484848"><g><text style="font: 20px &quot;Roboto&quot;, sans-serif; white-space: pre;" font-size="20px" font-family="'Roboto', sans-serif"><tspan x="13.34" y="34.33" dominant-baseline="ideographic">Automated Workflows</tspan></text></g></g></g><g id="g-root-cu_1hbxycu83718t-fill" data-item-order="0" transform="translate(555, 105)"></g><g id="g-root-cu_hu0ege8372tc-fill" data-item-order="0" transform="translate(555, 105)"></g><g id="g-root-cu_1hdtdm6837096-fill" data-item-order="0" transform="translate(555, 105)"></g><g id="g-root-tx_aladdinp_v63wvi7t60ay-fill" data-item-order="1000000000" transform="translate(375, 141)"><g id="tx_aladdinp_v63wvi7t60ay-fill" stroke="none" fill="#484848"><g><text style="font: 20px &quot;Roboto&quot;, sans-serif; white-space: pre;" font-size="20px" font-family="'Roboto', sans-serif"><tspan x="18.38" y="34.33" dominant-baseline="ideographic">Aladdin </tspan><tspan x="13.23" y="58.33" dominant-baseline="ideographic">Platform</tspan></text></g></g></g><g id="g-root-adve_90vtim7t61or-fill" data-item-order="1000000000" transform="translate(393, 87)"></g><g id="g-root-tx_aicapabi_mbqn8u7t8tfo-fill" data-item-order="1000000000" transform="translate(579, 66)"><g id="tx_aicapabi_mbqn8u7t8tfo-fill" stroke="none" fill="#e0cb15"><g><text style="font: 20px &quot;Roboto&quot;, sans-serif; white-space: pre;" font-size="20px" font-family="'Roboto', sans-serif"><tspan x="12.25" y="34.33" dominant-baseline="ideographic">AI Capabilities</tspan></text></g></g></g><g id="g-root-line_18jggmm7t38qu-fill" data-item-order="1000000000" transform="translate(333, 273)"></g><g id="g-root-tx_riskanal_i0wrhq7t1slp-fill" data-item-order="1000000000" transform="translate(369, 276)"><g id="tx_riskanal_i0wrhq7t1slp-fill" stroke="none" fill="#ba5de5"><g><text style="font: 20px &quot;Roboto&quot;, sans-serif; white-space: pre;" font-size="20px" font-family="'Roboto', sans-serif"><tspan x="13.99" y="34.33" dominant-baseline="ideographic">Risk Analytics</tspan></text></g></g></g><g id="g-root-codi_hz1ijy7t8umd-fill" data-item-order="1000000000" transform="translate(543, 63)"></g><g id="g-root-2_v3lhke835o1w-fill" data-item-order="1000000000" transform="translate(261, 51)"></g><g id="g-root-tx_investme_1utn7la8349oj-fill" data-item-order="1000000000" transform="translate(27, 54)"><g id="tx_investme_1utn7la8349oj-fill" stroke="none" fill="#4e88e7"><g><text style="font: 20px &quot;Roboto&quot;, sans-serif; white-space: pre;" font-size="20px" font-family="'Roboto', sans-serif"><tspan x="13.04" y="34.33" dominant-baseline="ideographic">Investment Management</tspan></text></g></g></g><g id="g-root-tf_dg2bla8371u4-stroke" data-item-order="-394272" transform="translate(-9, -9)"></g><g id="g-root-ro_1usesdq7t622s-stroke" data-item-order="-19800" transform="translate(351, 63)"><g id="ro_1usesdq7t622s-stroke" fill="none" stroke-linecap="round" stroke-linejoin="round" stroke-miterlimit="4" stroke="#484848" stroke-width="2"><g><path d="M 34 10L 118 10C 118 10 142 10 142 34L 142 136C 142 136 142 160 118 160L 34 160C 34 160 10 160 10 136L 10 34C 10 34 10 10 34 10"></path></g></g></g><g id="g-root-ro_1cw4g8e835nut-stroke" data-item-order="-15552" transform="translate(15, 39)"><g id="ro_1cw4g8e835nut-stroke" fill="none" stroke-linecap="round" stroke-linejoin="round" stroke-miterlimit="4" stroke="#4e88e7" stroke-width="2"><g><path d="M 22 10L 286 10C 286 10 298 10 298 22L 298 52C 298 52 298 64 286 64L 22 64C 22 64 10 64 10 52L 10 22C 10 22 10 10 22 10"></path></g></g></g><g id="g-root-ro_qvxgz27t8v7y-stroke" data-item-order="-10368" transform="translate(531, 51)"><g id="ro_qvxgz27t8v7y-stroke" fill="none" stroke-linecap="round" stroke-linejoin="round" stroke-miterlimit="4" stroke="#e0cb15" stroke-width="2"><g><path d="M 22 10L 190 10C 190 10 202 10 202 22L 202 52C 202 52 202 64 190 64L 22 64C 22 64 10 64 10 52L 10 22C 10 22 10 10 22 10"></path></g></g></g><g id="g-root-ro_4mbvou7t375z-stroke" data-item-order="-10368" transform="translate(321, 261)"><g id="ro_4mbvou7t375z-stroke" fill="none" stroke-linecap="round" stroke-linejoin="round" stroke-miterlimit="4" stroke="#ba5de5" stroke-width="2"><g><path d="M 22 10L 190 10C 190 10 202 10 202 22L 202 52C 202 52 202 64 190 64L 22 64C 22 64 10 64 10 52L 10 22C 10 22 10 10 22 10"></path></g></g></g><g id="g-root-cu_8x4g1a8371fv-stroke" data-item-order="0" transform="translate(345, 315)"><g id="cu_8x4g1a8371fv-stroke" fill="none" stroke-linecap="round" stroke-linejoin="round" stroke-miterlimit="4" stroke="#969696" stroke-width="2" stroke-dasharray="5.0, 7.0"><g><path d="M 10 10L 10 17.5L 10 58C 10.000002 64.627417 15.372585 70 22.000002 69.999999L 22.1 70L 28 70"></path></g></g></g><g id="g-root-cu_1lt0eni835oge-stroke" data-item-order="0" transform="translate(303, 66)"><g id="cu_1lt0eni835oge-stroke" fill="none" stroke-linecap="round" stroke-linejoin="round" stroke-miterlimit="4" stroke="#969696" stroke-width="2" stroke-dasharray="5.0, 7.0"><g><path d="M 58 57L 55 57L 54.9 57C 43.357246 56.999996 33.999999 47.642748 33.999998 36.099998L 34 36L 34 30.9C 33.999998 19.357248 24.64275 10 13.1 10L 13 10L 10 10"></path></g></g></g><g id="g-root-cu_1lpw17y837280-stroke" data-item-order="0" transform="translate(345, 315)"><g id="cu_1lpw17y837280-stroke" fill="none" stroke-linecap="round" stroke-linejoin="round" stroke-miterlimit="4" stroke="#969696" stroke-width="2" stroke-dasharray="5.0, 7.0"><g><path d="M 10 10L 10 22L 10 34L 19 34L 28 34"></path></g></g></g><g id="g-root-tx_realtime_6ijvy7ta87f-stroke" data-item-order="0" transform="translate(369, 327)"></g><g id="g-root-cu_dg2bla835nnt-stroke" data-item-order="0" transform="translate(417, 213)"><g id="cu_dg2bla835nnt-stroke" fill="none" stroke-linecap="round" stroke-linejoin="round" stroke-miterlimit="4" stroke="#969696" stroke-width="2" stroke-dasharray="5.0, 7.0"><g><path d="M 10 10L 10 34L 10 58"></path></g></g></g><g id="g-root-cu_v8la9a835ngv-stroke" data-item-order="0" transform="translate(261, 93)"><g id="cu_v8la9a835ngv-stroke" fill="none" stroke-linecap="round" stroke-linejoin="round" stroke-miterlimit="4" stroke="#969696" stroke-width="2" stroke-dasharray="5.0, 7.0"><g><path d="M 28 10L 28 22L 28 34L 19 34L 10 34"></path></g></g></g><g id="g-root-cu_1hgxr1q835n9e-stroke" data-item-order="0" transform="translate(261, 93)"><g id="cu_1hgxr1q835n9e-stroke" fill="none" stroke-linecap="round" stroke-linejoin="round" stroke-miterlimit="4" stroke="#969696" stroke-width="2" stroke-dasharray="5.0, 7.0"><g><path d="M 28 10L 28 40L 28 70L 19 70L 10 70"></path></g></g></g><g id="g-root-cu_qun7e6835n9g-stroke" data-item-order="0" transform="translate(261, 93)"><g id="cu_qun7e6835n9g-stroke" fill="none" stroke-linecap="round" stroke-linejoin="round" stroke-miterlimit="4" stroke="#969696" stroke-width="2" stroke-dasharray="5.0, 7.0"><g><path d="M 28 10L 28 58L 28 106L 19 106L 10 106"></path></g></g></g><g id="g-root-cu_1qdtpgu835nv2-stroke" data-item-order="0" transform="translate(261, 93)"><g id="cu_1qdtpgu835nv2-stroke" fill="none" stroke-linecap="round" stroke-linejoin="round" stroke-miterlimit="4" stroke="#969696" stroke-width="2" stroke-dasharray="5.0, 7.0"><g><path d="M 28 10L 28 26.5L 28 130C 28.000005 136.627421 22.627422 142.000005 16.000005 142.000005L 15.9 142L 10 142"></path></g></g></g><g id="g-root-tx_complian_1hf3n727ta87e-stroke" data-item-order="0" transform="translate(135, 213)"></g><g id="g-root-tx_regulato_18fpsfi7tbp5b-stroke" data-item-order="0" transform="translate(579, 189)"></g><g id="g-root-cu_1uqiu5q835mo4-stroke" data-item-order="0" transform="translate(483, 78)"><g id="cu_1uqiu5q835mo4-stroke" fill="none" stroke-linecap="round" stroke-linejoin="round" stroke-miterlimit="4" stroke="#969696" stroke-width="2" stroke-dasharray="5.0, 7.0"><g><path d="M 10 45L 13 45L 13.1 45C 17.577866 44.972592 22.360217 43.214375 26.699999 40C 29.320119 38.118536 31.98143 33.561497 33.999999 27.499999C 36.018569 21.438502 38.67988 16.881462 41.299999 15C 45.63978 11.785625 50.422131 10.027407 54.899998 9.999999L 55 10L 58 10"></path></g></g></g><g id="g-root-tx_predicti_4nl06m7ta9l8-stroke" data-item-order="0" transform="translate(369, 363)"></g><g id="g-root-tx_portfoli_v3msz27ta80f-stroke" data-item-order="0" transform="translate(51, 105)"></g><g id="g-root-tx_operatio_18hl7ou7taarl-stroke" data-item-order="0" transform="translate(147, 177)"></g><g id="g-root-tx_assetall_qn6tri7tbpce-stroke" data-item-order="0" transform="translate(579, 153)"></g><g id="g-root-tx_trading_v4vr5a7taa6g-stroke" data-item-order="0" transform="translate(183, 141)"></g><g id="g-root-tx_automate_i0agq67taa6d-stroke" data-item-order="0" transform="translate(579, 117)"></g><g id="g-root-cu_1hbxycu83718t-stroke" data-item-order="0" transform="translate(555, 105)"><g id="cu_1hbxycu83718t-stroke" fill="none" stroke-linecap="round" stroke-linejoin="round" stroke-miterlimit="4" stroke="#969696" stroke-width="2" stroke-dasharray="5.0, 7.0"><g><path d="M 10 10L 10 22L 10 34L 19 34L 28 34"></path></g></g></g><g id="g-root-cu_hu0ege8372tc-stroke" data-item-order="0" transform="translate(555, 105)"><g id="cu_hu0ege8372tc-stroke" fill="none" stroke-linecap="round" stroke-linejoin="round" stroke-miterlimit="4" stroke="#969696" stroke-width="2" stroke-dasharray="5.0, 7.0"><g><path d="M 10 10L 10 40L 10 70L 19 70L 28 70"></path></g></g></g><g id="g-root-cu_1hdtdm6837096-stroke" data-item-order="0" transform="translate(555, 105)"><g id="cu_1hdtdm6837096-stroke" fill="none" stroke-linecap="round" stroke-linejoin="round" stroke-miterlimit="4" stroke="#969696" stroke-width="2" stroke-dasharray="5.0, 7.0"><g><path d="M 10 10L 10 22L 10 94C 10.000004 100.627423 15.372587 106.000006 22.000005 106.000005L 22.1 106L 28 106"></path></g></g></g><g id="g-root-tx_aladdinp_v63wvi7t60ay-stroke" data-item-order="1000000000" transform="translate(375, 141)"></g><g id="g-root-adve_90vtim7t61or-stroke" data-item-order="1000000000" transform="translate(393, 87)"><g id="adve_90vtim7t61or-stroke" fill="none" stroke-linecap="round" stroke-linejoin="round" stroke-miterlimit="4" stroke="#484848" stroke-width="2"><g><path d="M 39 54.442001C 38.998894 55.847336 37.859337 56.986 36.454002 56.986L 13.546 56.986C 12.140663 56.986 11.001104 55.847336 11 54.442001L 11 45.532001C 11.000001 37.800014 17.268013 31.532001 25 31.532001C 32.731987 31.532001 39 37.800014 39 45.532001ZM 18.4 42.757999C 18.399887 43.181126 18.74287 43.5242 19.166 43.5242C 19.589128 43.5242 19.93211 43.181126 19.931999 42.757999C 19.93211 42.334869 19.589128 41.991798 19.166 41.991798C 18.74287 41.991798 18.399887 42.334869 18.4 42.757999M 30.025999 42.757999C 30.025887 43.181126 30.36887 43.5242 30.791998 43.5242C 31.215128 43.5242 31.558109 43.181126 31.557999 42.757999C 31.558109 42.334869 31.215128 41.991798 30.791998 41.991798C 30.36887 41.991798 30.025887 42.334869 30.025999 42.757999M 24.98 31.506001L 24.98 26.604M 21.304001 22.928001C 21.304001 24.958199 22.949802 26.604 24.98 26.604C 27.010199 26.604 28.656 24.958199 28.656 22.928001C 28.656 20.8978 27.010199 19.252001 24.98 19.252001C 22.949802 19.252001 21.304001 20.8978 21.304001 22.928001M 41.295998 29.49L 39.035999 30.558001C 36.961861 31.507433 34.509815 30.613144 33.533913 28.551323C 32.55801 26.489504 33.420841 24.026215 35.470001 23.024002L 37.73 21.954ZM 41.295998 29.49C 45.716484 27.397758 50.657368 26.660801 55.495998 27.372L 56.993999 27.591999L 49.153999 11.014L 48.374001 12.312C 45.855305 16.50601 42.151806 19.860872 37.73 21.953999ZM 41.295998 29.49C 42.240303 31.482212 43.959999 33.000229 46.054001 33.690002M 11 50.014L 39 50.014"></path></g></g></g><g id="g-root-tx_aicapabi_mbqn8u7t8tfo-stroke" data-item-order="1000000000" transform="translate(579, 66)"></g><g id="g-root-line_18jggmm7t38qu-stroke" data-item-order="1000000000" transform="translate(333, 273)"><g id="line_18jggmm7t38qu-stroke" fill="none" stroke-linecap="round" stroke-linejoin="round" stroke-miterlimit="4" stroke="#ba5de5" stroke-width="2"><g><path d="M 10.625 24.64875L 19.686251 19.64875C 21.106949 18.962666 22.727718 18.813063 24.25 19.227501L 28.8825 20.772499C 30.319134 21.170187 31.858158 20.74836 32.891251 19.67375L 39.375 12.1875L 39.375 38.4375C 39.375 38.782677 39.095177 39.0625 38.75 39.0625L 11.25 39.0625C 10.904822 39.0625 10.625 38.782677 10.625 38.4375L 10.625 10.9375M 10.625 32.1875L 18.446251 27.78875C 19.899149 27.047363 21.495232 26.629045 23.125 26.5625L 26.25 26.5625C 27.895042 26.509186 29.520269 26.187012 31.061249 25.608749L 39.375 22.1775M 10.625 38.47625L 18.56875 32.983749C 19.934513 32.136574 21.518381 31.707689 23.125 31.75L 26.264999 31.9925C 27.916353 32.077995 29.571863 31.951973 31.19125 31.617498L 39.375 29.6875"></path></g></g></g><g id="g-root-tx_riskanal_i0wrhq7t1slp-stroke" data-item-order="1000000000" transform="translate(369, 276)"></g><g id="g-root-codi_hz1ijy7t8umd-stroke" data-item-order="1000000000" transform="translate(543, 63)"><g id="codi_hz1ijy7t8umd-stroke" fill="none" stroke-linecap="round" stroke-linejoin="round" stroke-miterlimit="4" stroke="#e0cb15" stroke-width="2"><g><path d="M 29.391249 18.48L 30.0425 18.48C 30.402176 18.48 30.69375 18.771576 30.69375 19.13125L 30.69375 23.689999M 29.391249 23.689999L 31.99625 23.689999M 36.348751 10.61125L 37 10.61125C 37.359676 10.61125 37.651249 10.902824 37.651249 11.2625L 37.651249 15.82125M 36.348751 15.82125L 38.953751 15.82125M 36.348751 26.3475L 37 26.3475C 37.359676 26.347502 37.651249 26.639076 37.651249 26.998751L 37.651249 31.557501M 36.348751 31.557501L 38.953751 31.557501M 39.279999 22.061251C 39.280067 22.960487 38.551113 23.689501 37.651875 23.689501C 36.752636 23.689501 36.023682 22.960487 36.02375 22.061251L 36.02375 20.1075C 36.023819 19.208361 36.752735 18.479502 37.651875 18.479502C 38.551014 18.479502 39.27993 19.208361 39.279999 20.1075ZM 32.321251 29.93C 32.321251 30.827463 31.593712 31.555 30.696249 31.555C 29.798786 31.555 29.071251 30.827463 29.071251 29.929998L 29.071251 27.97625C 29.071251 27.078787 29.798786 26.35125 30.696249 26.35125C 31.593712 26.35125 32.321251 27.078787 32.321251 27.97625ZM 36.348751 34.151249L 37 34.151249C 37.359676 34.151253 37.651249 34.442825 37.651249 34.802502L 37.651249 39.361252M 36.348751 39.361252L 38.953751 39.361252M 32.321251 37.733749C 32.321251 38.631214 31.593712 39.358749 30.696249 39.358749C 29.798786 39.358749 29.071251 38.631214 29.071251 37.733749L 29.071251 35.779999C 29.071251 34.882538 29.798786 34.154999 30.696249 34.154999C 31.593712 34.154999 32.321251 34.882538 32.321251 35.779999ZM 32.321251 14.31375C 32.321251 15.211212 31.593712 15.93875 30.696249 15.93875C 29.798786 15.93875 29.071251 15.211212 29.071251 14.31375L 29.071251 12.35875C 29.071251 11.461287 29.798786 10.73375 30.696249 10.73375C 31.593712 10.73375 32.321251 11.461287 32.321251 12.35875ZM 21.94125 31.57625C 21.94125 29.332594 20.122408 27.51375 17.87875 27.51375C 17.813749 27.51375 17.75375 27.530001 17.6875 27.532499M 21.518749 15.5C 22.728825 15.09199 23.436888 13.837584 23.160908 12.590754C 22.88493 11.343922 21.713631 10.505504 20.444403 10.646275C 19.175175 10.787045 18.216061 11.861747 18.220001 13.13875C 18.223526 13.364385 18.257586 13.588504 18.321251 13.805C 18.182501 13.7925 18.04875 13.76375 17.907501 13.76375C 16.12203 13.755033 14.488207 14.766202 13.699514 16.368057C 12.910823 17.969913 13.10563 19.88143 14.20125 21.29125C 12.244255 21.42551 10.725382 23.052155 10.725382 25.01375C 10.725382 26.975344 12.244255 28.601992 14.20125 28.73625C 13.10563 30.146069 12.910823 32.057587 13.699514 33.659443C 14.488207 35.261299 16.12203 36.272465 17.907499 36.263748C 18.04875 36.263748 18.182501 36.233749 18.321251 36.221249C 17.949144 37.535206 18.700275 38.904629 20.008314 39.297024C 21.316353 39.689415 22.697237 38.959568 23.109825 37.657757C 23.522413 36.355946 22.81402 34.963936 21.518749 34.53125M 17.6875 22.5C 17.752501 22.5 17.8125 22.518751 17.87875 22.518751C 20.122408 22.518751 21.94125 20.699907 21.94125 18.456251M 23.217501 13.0175C 23.787304 12.687995 24.434286 12.515466 25.092501 12.5175M 23.106249 37.634998C 23.717001 37.965157 24.400726 38.137051 25.094999 38.134998M 25.095001 18.76375L 25.095001 31.88875"></path></g></g></g><g id="g-root-2_v3lhke835o1w-stroke" data-item-order="1000000000" transform="translate(261, 51)"><g id="2_v3lhke835o1w-stroke" fill="none" stroke-linecap="round" stroke-linejoin="round" stroke-miterlimit="4" stroke="#4e88e7" stroke-width="2"><g><path d="M 10.625 31.397499C 10.625 33.249725 12.126525 34.751251 13.97875 34.751251C 15.830976 34.751251 17.3325 33.249725 17.3325 31.397499C 17.3325 29.545277 15.830976 28.043751 13.97875 28.043751C 12.126525 28.043751 10.625 29.545277 10.625 31.397499M 19.268749 39.201248C 18.583487 37.59642 17.206522 36.38961 15.525685 35.920723C 13.84485 35.451843 12.042029 35.771622 10.625 36.790001M 32.6675 31.397499C 32.6675 33.249725 34.169025 34.751251 36.021252 34.751251C 37.873474 34.751251 39.375004 33.249725 39.375004 31.397499C 39.375004 29.545277 37.873474 28.043751 36.021252 28.043751C 34.169025 28.043751 32.6675 29.545277 32.6675 31.397499M 30.731249 39.201248C 31.416512 37.59642 32.793476 36.38961 34.474312 35.920723C 36.155151 35.451843 37.95797 35.771622 39.374996 36.790001M 20.6875 30.438749C 20.68689 32.820908 22.61784 34.752354 25 34.752354C 27.38216 34.752354 29.31311 32.820908 29.3125 30.438749C 29.31311 28.056591 27.38216 26.125145 25 26.125145C 22.61784 26.125145 20.68689 28.056591 20.6875 30.438749M 30.731249 39.201248C 29.262579 37.587753 27.181822 36.668076 24.999998 36.668076C 22.818176 36.668076 20.737419 37.587753 19.268749 39.201248M 23.08375 19.42375C 23.08375 20.482065 23.941685 21.34 25 21.34C 26.058315 21.34 26.91625 20.482065 26.91625 19.42375C 26.91625 18.365435 26.058315 17.5075 25 17.5075C 23.941685 17.5075 23.08375 18.365435 23.08375 19.42375M 21.307499 24.11125L 19.424999 24.547499C 18.693716 24.711058 17.941133 24.379435 17.568363 23.72938C 17.195593 23.079327 17.289486 22.262299 17.800001 21.713751L 19.11375 20.293749C 19.568741 19.8025 19.568741 19.043749 19.11375 18.5525L 17.797501 17.133749C 17.287766 16.584837 17.19429 15.768196 17.566805 15.118299C 17.939322 14.468402 18.691231 14.136329 19.422499 14.29875L 21.305 14.735001C 21.957451 14.88414 22.613667 14.501347 22.805 13.86L 23.375 12.00875C 23.590919 11.289978 24.252623 10.79784 25.003124 10.79784C 25.753628 10.79784 26.415331 11.289978 26.63125 12.00875L 27.196251 13.865C 27.387583 14.506347 28.0438 14.88914 28.696251 14.74L 30.571251 14.30375C 31.302517 14.141329 32.054428 14.473402 32.426945 15.123299C 32.799458 15.773195 32.705986 16.589838 32.196247 17.13875L 30.885 18.5525C 30.431215 19.044222 30.431215 19.802027 30.884998 20.293749L 32.202499 21.713751C 32.713017 22.262299 32.806908 23.079327 32.434135 23.72938C 32.061367 24.379435 31.308786 24.711058 30.577499 24.547501L 28.702499 24.11125M 21.625 27.75C 23.741421 29.608793 26.49777 30.571655 29.311251 30.435001M 11.345 29.327499C 13.000301 30.762785 15.145448 31.50425 17.33375 31.397499M 33.38625 29.327499C 35.04155 30.762785 37.186699 31.50425 39.375004 31.397499"></path></g></g></g><g id="g-root-tx_investme_1utn7la8349oj-stroke" data-item-order="1000000000" transform="translate(27, 54)"></g></g></g></svg>