<?xml version="1.0" encoding="utf-8" standalone="yes"?>
<!DOCTYPE svg PUBLIC "-//W3C//DTD SVG 1.1//EN" "http://www.w3.org/Graphics/SVG/1.1/DTD/svg11.dtd">
<svg width="662" height="342" viewBox="0 0 662 342" style="fill:none;stroke:none;fill-rule:evenodd;clip-rule:evenodd;stroke-linecap:round;stroke-linejoin:round;stroke-miterlimit:1.5;" version="1.1" xmlns="http://www.w3.org/2000/svg" xmlns:xlink="http://www.w3.org/1999/xlink"><style id="fontImports">@import url("https://fonts.googleapis.com/css2?family=Roboto:wght@400;700&amp;display=block");</style><rect id="" x="0" y="0" width="662" height="341.004" style="fill: #ffffff;"></rect><g id="items" style="isolation: isolate"><g id="blend" style="mix-blend-mode: normal"><g id="g-root-tf_1lu9j5c9qw5q8-fill" data-item-order="-223742" transform="translate(-9, -9)"><g id="tf_1lu9j5c9qw5q8-fill" stroke="none" fill="#ffffff"><g><path d="M 10 10.00354L 670 10.00354L 670 349.00354L 10 349.00354Z"></path></g></g></g><g id="g-root-0.cu_sy_zmjga89rft37-fill" data-item-order="-47226" transform="translate(267, 36.0035400390625)"><g id="0.cu_sy_zmjga89rft37-fill" stroke="none" fill="#f5f5f5"><g><path d="M 76 12C 76 10.8954 76.8954 10 78 10L 82 10L 82 40L 78 40C 76.8954 40 76 39.1046 76 38L 76 37.7561C 65.6486 40.4204 58 49.817 58 61L 58 91.4215C 63.4193 88.2867 69.5084 86.1809 76 85.3714L 76 84C 76 82.8954 76.8954 82 78 82L 82 82L 82 112L 78 112C 76.8954 112 76 111.105 76 110L 76 109.7561C 71.2827 110.97 67.1266 113.583 64 117.125C 67.7342 121.356 70 126.913 70 133C 70 139.087 67.7342 144.644 64 148.875C 67.1266 152.417 71.2827 155.03 76 156.244L 76 156C 76 154.895 76.8954 154 78 154L 82 154L 82 184L 78 184C 76.8954 184 76 183.105 76 182L 76 180.629C 69.5084 179.819 63.4193 177.713 58 174.578L 58 205C 58 216.183 65.6486 225.58 76 228.244L 76 228C 76 226.895 76.8954 226 78 226L 82 226L 82 256L 78 256C 76.8954 256 76 255.105 76 254L 76 252.629C 52.3221 249.676 34 229.478 34 205L 34 153.789C 30.3565 151.682 27.3184 148.644 25.2108 145L 16 145L 16 146C 16 147.105 15.1046 148 14 148L 10 148L 10 118L 14 118C 15.1046 118 16 118.895 16 120L 16 121L 25.2108 121C 27.3184 117.356 30.3565 114.318 34 112.211L 34 61C 34 36.5223 52.3221 16.324 76 13.3714L 76 12Z"></path></g></g></g><g id="g-root-0.cu_1_sy_1lu9fzk9rfv9o-fill" data-item-order="-47224" transform="translate(207, 144.0035400390625)"><g id="0.cu_1_sy_1lu9fzk9rfv9o-fill" stroke="none" fill="#f5f5f5"><g><path d="M 64 12C 64 10.8954 64.8954 10 66 10L 70 10L 70 40L 66 40C 64.8954 40 64 39.1046 64 38L 64 37L 16 37L 16 38C 16 39.1046 15.1046 40 14 40L 10 40L 10 10L 14 10C 15.1046 10 16 10.8954 16 12L 16 13L 64 13L 64 12Z"></path></g></g></g><g id="g-root-4.cu_sy_1qbyddc9rfthp-fill" data-item-order="-47220" transform="translate(339, 252.0035400390625)"><g id="4.cu_sy_1qbyddc9rfthp-fill" stroke="none" fill="#fffbda"><g><path d="M 70 40L 66 40C 64.8954 40 64 39.1046 64 38L 64 37L 16 37L 16 38C 16 39.1046 15.1046 40 14 40L 10 40L 10 10L 14 10C 15.1046 10 16 10.8954 16 12L 16 13L 64 13L 64 12C 64 10.8954 64.8954 10 66 10L 70 10L 70 40Z"></path></g></g></g><g id="g-root-3.cu_sy_93da289rfthq-fill" data-item-order="-47216" transform="translate(339, 180.0035400390625)"><g id="3.cu_sy_93da289rfthq-fill" stroke="none" fill="#f4ffdc"><g><path d="M 70 40L 66 40C 64.8954 40 64 39.1046 64 38L 64 37L 16 37L 16 38C 16 39.1046 15.1046 40 14 40L 10 40L 10 10L 14 10C 15.1046 10 16 10.8954 16 12L 16 13L 64 13L 64 12C 64 10.8954 64.8954 10 66 10L 70 10L 70 40Z"></path></g></g></g><g id="g-root-2.cu_sy_1lz98og9rfuof-fill" data-item-order="-47212" transform="translate(339, 108.0035400390625)"><g id="2.cu_sy_1lz98og9rfuof-fill" stroke="none" fill="#e3fff2"><g><path d="M 70 40L 66 40C 64.8954 40 64 39.1046 64 38L 64 37L 16 37L 16 38C 16 39.1046 15.1046 40 14 40L 10 40L 10 10L 14 10C 15.1046 10 16 10.8954 16 12L 16 13L 64 13L 64 12C 64 10.8954 64.8954 10 66 10L 70 10L 70 40Z"></path></g></g></g><g id="g-root-1.cu_sy_1lr55ps9qur60-fill" data-item-order="-47208" transform="translate(339, 36.0035400390625)"><g id="1.cu_sy_1lr55ps9qur60-fill" stroke="none" fill="#e8f9ff"><g><path d="M 70 40L 66 40C 64.8954 40 64 39.1046 64 38L 64 37L 16 37L 16 38C 16 39.1046 15.1046 40 14 40L 10 40L 10 10L 14 10C 15.1046 10 16 10.8954 16 12L 16 13L 64 13L 64 12C 64 10.8954 64.8954 10 66 10L 70 10L 70 40Z"></path></g></g></g><g id="g-root--1.cu_sy_hte3ow9qusqx-fill" data-item-order="-47205" transform="translate(285, 141.0035400390625)"></g><g id="g-root-tx_informat_1lxdwkw9qusqt-fill" data-item-order="0" transform="translate(423, 39.0035400390625)"><g id="tx_informat_1lxdwkw9qusqt-fill" stroke="none" fill="#484848"><g><text style="font: 20px &quot;Roboto&quot;, sans-serif; white-space: pre;" font-size="20px" font-family="'Roboto', sans-serif"><tspan x="12" y="34.33" dominant-baseline="ideographic">Information Access</tspan></text></g></g></g><g id="g-root-tx_servicer_1hgbga89qurd0-fill" data-item-order="0" transform="translate(423, 111.0035400390625)"><g id="tx_servicer_1hgbga89qurd0-fill" stroke="none" fill="#484848"><g><text style="font: 20px &quot;Roboto&quot;, sans-serif; white-space: pre;" font-size="20px" font-family="'Roboto', sans-serif"><tspan x="12" y="34.33" dominant-baseline="ideographic">Service Requests</tspan></text></g></g></g><g id="g-root-tx_botisaip_1uu9v009qutce-fill" data-item-order="0" transform="translate(15, 135.0035400390625)"><g id="tx_botisaip_1uu9v009qutce-fill" stroke="none" fill="#484848"><g><text style="font: 20px &quot;Roboto&quot;, sans-serif; white-space: pre;" font-size="20px" font-family="'Roboto', sans-serif"><tspan x="20.82" y="34.33" dominant-baseline="ideographic">Boti's AI-Powered </tspan><tspan x="100.67" y="58.33" dominant-baseline="ideographic">Services</tspan></text></g></g></g><g id="g-root-tx_appointm_143lzqo9quqrv-fill" data-item-order="0" transform="translate(423, 183.0035400390625)"><g id="tx_appointm_143lzqo9quqrv-fill" stroke="none" fill="#484848"><g><text style="font: 20px &quot;Roboto&quot;, sans-serif; white-space: pre;" font-size="20px" font-family="'Roboto', sans-serif"><tspan x="12" y="34.33" dominant-baseline="ideographic">Appointment Booking</tspan></text></g></g></g><g id="g-root-tx_queryres_zlx2cw9qusju-fill" data-item-order="0" transform="translate(423, 255.0035400390625)"><g id="tx_queryres_zlx2cw9qusju-fill" stroke="none" fill="#484848"><g><text style="font: 20px &quot;Roboto&quot;, sans-serif; white-space: pre;" font-size="20px" font-family="'Roboto', sans-serif"><tspan x="12" y="34.33" dominant-baseline="ideographic">Query Resolution</tspan></text></g></g></g><g id="g-root-tf_1lu9j5c9qw5q8-stroke" data-item-order="-223742" transform="translate(-9, -9)"></g><g id="g-root-0.cu_sy_zmjga89rft37-stroke" data-item-order="-47226" transform="translate(267, 36.0035400390625)"><g id="0.cu_sy_zmjga89rft37-stroke" fill="none" stroke-linecap="round" stroke-linejoin="round" stroke-miterlimit="4" stroke="#969696" stroke-width="2"><g><path d="M 76 12C 76 10.8954 76.8954 10 78 10L 82 10L 82 40L 78 40C 76.8954 40 76 39.1046 76 38L 76 37.7561C 65.6486 40.4204 58 49.817 58 61L 58 91.4215C 63.4193 88.2867 69.5084 86.1809 76 85.3714L 76 84C 76 82.8954 76.8954 82 78 82L 82 82L 82 112L 78 112C 76.8954 112 76 111.1046 76 110L 76 109.7561C 71.2827 110.9703 67.1266 113.5826 64 117.1251C 67.7342 121.3559 70 126.9133 70 133C 70 139.0867 67.7342 144.6441 64 148.8749C 67.1266 152.4174 71.2827 155.0297 76 156.2439L 76 156C 76 154.8954 76.8954 154 78 154L 82 154L 82 184L 78 184C 76.8954 184 76 183.1046 76 182L 76 180.6286C 69.5084 179.8191 63.4193 177.7133 58 174.5785L 58 205C 58 216.183 65.6486 225.5796 76 228.2439L 76 228C 76 226.8954 76.8954 226 78 226L 82 226L 82 256L 78 256C 76.8954 256 76 255.1046 76 254L 76 252.6286C 52.3221 249.6761 34 229.4777 34 205L 34 153.7892C 30.3565 151.6816 27.3184 148.6435 25.2108 145L 16 145L 16 146C 16 147.1046 15.1046 148 14 148L 10 148L 10 118L 14 118C 15.1046 118 16 118.8954 16 120L 16 121L 25.2108 121C 27.3184 117.3565 30.3565 114.3185 34 112.2108L 34 61C 34 36.5223 52.3221 16.324 76 13.3714L 76 12ZM 22 133C 22.000001 146.254835 32.745167 157.000001 46.000001 157.000001C 59.254835 157.000001 70.000001 146.254835 70.000001 133.000001C 70.000001 119.745167 59.254835 109.000001 46.000001 109.000001C 32.745167 109.000001 22.000001 119.745167 22.000001 133.000001M 76 85L 76 109M 76 13L 76 37M 76 229L 76 253M 16 121L 16 145M 76 157L 76 181"></path></g></g></g><g id="g-root-0.cu_1_sy_1lu9fzk9rfv9o-stroke" data-item-order="-47224" transform="translate(207, 144.0035400390625)"><g id="0.cu_1_sy_1lu9fzk9rfv9o-stroke" fill="none" stroke-linecap="round" stroke-linejoin="round" stroke-miterlimit="4" stroke="#969696" stroke-width="2"><g><path d="M 64 12C 64 10.8954 64.8954 10 66 10L 70 10L 70 40L 66 40C 64.8954 40 64 39.1046 64 38L 64 37L 16 37L 16 38C 16 39.1046 15.1046 40 14 40L 10 40L 10 10L 14 10C 15.1046 10 16 10.8954 16 12L 16 13L 64 13L 64 12ZM 64 13L 64 37M 16 13L 16 37"></path></g></g></g><g id="g-root-4.cu_sy_1qbyddc9rfthp-stroke" data-item-order="-47220" transform="translate(339, 252.0035400390625)"><g id="4.cu_sy_1qbyddc9rfthp-stroke" fill="none" stroke-linecap="round" stroke-linejoin="round" stroke-miterlimit="4" stroke="#e0cb15" stroke-width="2"><g><path d="M 70 40L 66 40C 64.8954 40 64 39.1046 64 38L 64 37L 16 37L 16 38C 16 39.1046 15.1046 40 14 40L 10 40L 10 10L 14 10C 15.1046 10 16 10.8954 16 12L 16 13L 64 13L 64 12C 64 10.8954 64.8954 10 66 10L 70 10L 70 40ZM 16 13L 16 37M 64 13L 64 37"></path></g></g></g><g id="g-root-3.cu_sy_93da289rfthq-stroke" data-item-order="-47216" transform="translate(339, 180.0035400390625)"><g id="3.cu_sy_93da289rfthq-stroke" fill="none" stroke-linecap="round" stroke-linejoin="round" stroke-miterlimit="4" stroke="#92bd39" stroke-width="2"><g><path d="M 70 40L 66 40C 64.8954 40 64 39.1046 64 38L 64 37L 16 37L 16 38C 16 39.1046 15.1046 40 14 40L 10 40L 10 10L 14 10C 15.1046 10 16 10.8954 16 12L 16 13L 64 13L 64 12C 64 10.8954 64.8954 10 66 10L 70 10L 70 40ZM 16 13L 16 37M 64 13L 64 37"></path></g></g></g><g id="g-root-2.cu_sy_1lz98og9rfuof-stroke" data-item-order="-47212" transform="translate(339, 108.0035400390625)"><g id="2.cu_sy_1lz98og9rfuof-stroke" fill="none" stroke-linecap="round" stroke-linejoin="round" stroke-miterlimit="4" stroke="#3cc583" stroke-width="2"><g><path d="M 70 40L 66 40C 64.8954 40 64 39.1046 64 38L 64 37L 16 37L 16 38C 16 39.1046 15.1046 40 14 40L 10 40L 10 10L 14 10C 15.1046 10 16 10.8954 16 12L 16 13L 64 13L 64 12C 64 10.8954 64.8954 10 66 10L 70 10L 70 40ZM 16 13L 16 37M 64 13L 64 37"></path></g></g></g><g id="g-root-1.cu_sy_1lr55ps9qur60-stroke" data-item-order="-47208" transform="translate(339, 36.0035400390625)"><g id="1.cu_sy_1lr55ps9qur60-stroke" fill="none" stroke-linecap="round" stroke-linejoin="round" stroke-miterlimit="4" stroke="#1eabda" stroke-width="2"><g><path d="M 70 40L 66 40C 64.8954 40 64 39.1046 64 38L 64 37L 16 37L 16 38C 16 39.1046 15.1046 40 14 40L 10 40L 10 10L 14 10C 15.1046 10 16 10.8954 16 12L 16 13L 64 13L 64 12C 64 10.8954 64.8954 10 66 10L 70 10L 70 40ZM 16 13L 16 37M 64 13L 64 37"></path></g></g></g><g id="g-root--1.cu_sy_hte3ow9qusqx-stroke" data-item-order="-47205" transform="translate(285, 141.0035400390625)"><g id="-1.cu_sy_hte3ow9qusqx-stroke" fill="none" stroke-linecap="round" stroke-linejoin="round" stroke-miterlimit="4" stroke="#969696" stroke-width="2"><g><path d="M 46 28C 46 37.9411 37.9411 46 28 46C 18.0589 46 10 37.9411 10 28C 10 18.0589 18.0589 10 28 10C 37.9411 10 46 18.0589 46 28ZM 34 28C 34 31.3137 31.3137 34 28 34C 24.6863 34 22 31.3137 22 28C 22 24.6863 24.6863 22 28 22C 31.3137 22 34 24.6863 34 28ZM 28 46L 28 34M 46 28L 34 28M 10 28L 22 28M 28 10L 28 22"></path></g></g></g><g id="g-root-tx_informat_1lxdwkw9qusqt-stroke" data-item-order="0" transform="translate(423, 39.0035400390625)"></g><g id="g-root-tx_servicer_1hgbga89qurd0-stroke" data-item-order="0" transform="translate(423, 111.0035400390625)"></g><g id="g-root-tx_botisaip_1uu9v009qutce-stroke" data-item-order="0" transform="translate(15, 135.0035400390625)"></g><g id="g-root-tx_appointm_143lzqo9quqrv-stroke" data-item-order="0" transform="translate(423, 183.0035400390625)"></g><g id="g-root-tx_queryres_zlx2cw9qusju-stroke" data-item-order="0" transform="translate(423, 255.0035400390625)"></g></g></g></svg>