<?xml version="1.0" encoding="utf-8" standalone="yes"?>
<!DOCTYPE svg PUBLIC "-//W3C//DTD SVG 1.1//EN" "http://www.w3.org/Graphics/SVG/1.1/DTD/svg11.dtd">
<svg width="770" height="489" viewBox="0 0 770 489" style="fill:none;stroke:none;fill-rule:evenodd;clip-rule:evenodd;stroke-linecap:round;stroke-linejoin:round;stroke-miterlimit:1.5;" version="1.1" xmlns="http://www.w3.org/2000/svg" xmlns:xlink="http://www.w3.org/1999/xlink"><style id="fontImports">@import url("https://fonts.googleapis.com/css2?family=Roboto:wght@400;700&amp;display=block");</style><rect id="" x="0" y="0" width="770" height="488.632" style="fill: #ffffff;"></rect><g id="items" style="isolation: isolate"><g id="blend" style="mix-blend-mode: normal"><g id="g-root-tf_zpntvh5vljws-fill" data-item-order="-373733" transform="translate(-9, -9)"><g id="tf_zpntvh5vljws-fill" stroke="none" fill="#ffffff"><g><path d="M 10 10.004745L 778 10.004745L 778 496.634745L 10 496.634745Z"></path></g></g></g><g id="g-root--1.cu_sy_1lw5u655l99fy-fill" data-item-order="-147450" transform="translate(327, 45.631591796875)"><g id="-1.cu_sy_1lw5u655l99fy-fill" stroke="none" fill="#f5f5f5"><g><path d="M 65.766602 394C 80.754802 394 106.000002 308.039 106.000002 202C 106.000002 95.9613 80.754802 10 65.766602 10C 80.775202 10.01 92.941702 96.2224 92.941702 202C 92.941702 307.778 80.775202 393.99 65.766602 394ZM 65.765897 394C 80.774597 393.99 92.941097 307.778 92.941097 202C 92.941097 96.2224 80.774597 10.01 65.765897 10L 51.957397 10C 66.060697 16.8878 77.199297 100.4719 77.199297 202C 77.199297 303.528 65.382597 387.112 51.279297 394L 65.765897 394ZM 77.2 202C 77.2 303.528 65.3833 387.112 51.28 394L 50.0615 394C 35.0734 394 10 308.039 10 202C 10 95.9613 35.0734 10 50.0615 10C 50.6991 10 51.9581 10 51.9581 10C 66.0614 16.8878 77.2 100.4719 77.2 202Z"></path></g></g></g><g id="g-root-0.cr-medium_cr_hyes595l9b0v-fill" data-item-order="-147446" transform="translate(495, 201.63156127929688)"><g id="0.cr-medium_cr_hyes595l9b0v-fill" stroke="none" fill="#f5f5f5"><g><path d="M 10 46C 10 65.882251 26.117749 82 46 82C 65.882251 82 82 65.882251 82 46C 82 26.117749 65.882251 10 46 10C 26.117749 10 10 26.117749 10 46"></path></g></g></g><g id="g-root-4.line_sy_1ut1sl95l9atc-fill" data-item-order="-147439" transform="translate(243, 272.6315612792969)"></g><g id="g-root-4.cr-small_cr_vb48ot5l9bm1-fill" data-item-order="-147438" transform="translate(183, 334.6315612792969)"><g id="4.cr-small_cr_vb48ot5l9bm1-fill" stroke="none" fill="#fffbda"><g><path d="M 10 40C 10.000002 56.568544 23.431459 70.000002 40.000002 70.000002C 56.568544 70.000002 70.000002 56.568544 70.000002 40.000002C 70.000002 23.431459 56.568544 10.000002 40.000002 10.000002C 23.431459 10.000002 10.000002 23.431459 10.000002 40.000002"></path></g></g></g><g id="g-root-3.line_sy_1qf3pq55l99u2-fill" data-item-order="-147431" transform="translate(243.10940551757812, 249.63156127929688)"></g><g id="g-root-3.cr-small_cr_zitkot5laoej-fill" data-item-order="-147430" transform="translate(183, 250.63156127929688)"><g id="3.cr-small_cr_zitkot5laoej-fill" stroke="none" fill="#f4ffdc"><g><path d="M 10 40C 10.000002 56.568544 23.431459 70.000002 40.000002 70.000002C 56.568544 70.000002 70.000002 56.568544 70.000002 40.000002C 70.000002 23.431459 56.568544 10.000002 40.000002 10.000002C 23.431459 10.000002 10.000002 23.431459 10.000002 40.000002"></path></g></g></g><g id="g-root-2.line_sy_8wj1195laoek-fill" data-item-order="-147423" transform="translate(243, 195.63156127929688)"></g><g id="g-root-2.cr-small_cr_1cvj18d5laozp-fill" data-item-order="-147422" transform="translate(183, 166.63156127929688)"><g id="2.cr-small_cr_1cvj18d5laozp-fill" stroke="none" fill="#e3fff2"><g><path d="M 10 40C 10.000002 56.568544 23.431459 70.000002 40.000002 70.000002C 56.568544 70.000002 70.000002 56.568544 70.000002 40.000002C 70.000002 23.431459 56.568544 10.000002 40.000002 10.000002C 23.431459 10.000002 10.000002 23.431459 10.000002 40.000002"></path></g></g></g><g id="g-root-1.line_sy_ddlhbx5lapse-fill" data-item-order="-147415" transform="translate(243, 111.631591796875)"></g><g id="g-root-1.cr-small_cr_1hclhj15laqdj-fill" data-item-order="-147414" transform="translate(183, 82.631591796875)"><g id="1.cr-small_cr_1hclhj15laqdj-fill" stroke="none" fill="#e8f9ff"><g><path d="M 10 40C 10.000002 56.568544 23.431459 70.000002 40.000002 70.000002C 56.568544 70.000002 70.000002 56.568544 70.000002 40.000002C 70.000002 23.431459 56.568544 10.000002 40.000002 10.000002C 23.431459 10.000002 10.000002 23.431459 10.000002 40.000002"></path></g></g></g><g id="g-root-tx_realtime_13z8l4t5vlibm-fill" data-item-order="0" transform="translate(27, 99.631591796875)"><g id="tx_realtime_13z8l4t5vlibm-fill" stroke="none" fill="#484848"><g><text style="font: 20px &quot;Roboto&quot;, sans-serif; white-space: pre;" font-size="20px" font-family="'Roboto', sans-serif"><tspan x="16.55" y="34.33" dominant-baseline="ideographic">Real-Time Data</tspan></text></g></g></g><g id="g-root-live_4hb18d5vk5qd-fill" data-item-order="0" transform="translate(195, 93.631591796875)"></g><g id="g-root-tx_trafficc_qwipz15vk361-fill" data-item-order="0" transform="translate(15, 183.63156127929688)"><g id="tx_trafficc_qwipz15vk361-fill" stroke="none" fill="#484848"><g><text style="font: 20px &quot;Roboto&quot;, sans-serif; white-space: pre;" font-size="20px" font-family="'Roboto', sans-serif"><tspan x="23.43" y="34.33" dominant-baseline="ideographic">Traffic Cameras</tspan></text></g></g></g><g id="g-root-targ_dg3jzx5ldhql-fill" data-item-order="0" transform="translate(195, 177.63156127929688)"></g><g id="g-root-buil_8wj1195lkjd2-fill" data-item-order="0" transform="translate(507, 213.63156127929688)"></g><g id="g-root-tx_optimize_qpni0t5vk4r2-fill" data-item-order="0" transform="translate(579, 213.63156127929688)"><g id="tx_optimize_qpni0t5vk4r2-fill" stroke="none" fill="#484848"><g><text style="font: 20px &quot;Roboto&quot;, sans-serif; white-space: pre;" font-size="20px" font-family="'Roboto', sans-serif"><tspan x="12" y="34.33" dominant-baseline="ideographic">Optimized Urban </tspan><tspan x="12" y="58.33" dominant-baseline="ideographic">Management</tspan></text></g></g></g><g id="g-root-tx_iotdevic_vagsu55vk45c-fill" data-item-order="0" transform="translate(63, 267.6315612792969)"><g id="tx_iotdevic_vagsu55vk45c-fill" stroke="none" fill="#484848"><g><text style="font: 20px &quot;Roboto&quot;, sans-serif; white-space: pre;" font-size="20px" font-family="'Roboto', sans-serif"><tspan x="12.78" y="34.33" dominant-baseline="ideographic">IoT Devices</tspan></text></g></g></g><g id="g-root-home_92rv255l9bf1-fill" data-item-order="0" transform="translate(195, 261.6315612792969)"></g><g id="g-root-tx_sensors_v8ldkt5vk553-fill" data-item-order="0" transform="translate(87, 351.6315612792969)"><g id="tx_sensors_v8ldkt5vk553-fill" stroke="none" fill="#484848"><g><text style="font: 20px &quot;Roboto&quot;, sans-serif; white-space: pre;" font-size="20px" font-family="'Roboto', sans-serif"><tspan x="19.7" y="34.33" dominant-baseline="ideographic">Sensors</tspan></text></g></g></g><g id="g-root-cryi_mdlwcd5l29l4-fill" data-item-order="0" transform="translate(195, 345.6315612792969)"></g><g id="g-root-tf_zpntvh5vljws-stroke" data-item-order="-373733" transform="translate(-9, -9)"></g><g id="g-root--1.cu_sy_1lw5u655l99fy-stroke" data-item-order="-147450" transform="translate(327, 45.631591796875)"><g id="-1.cu_sy_1lw5u655l99fy-stroke" fill="none" stroke-linecap="round" stroke-linejoin="round" stroke-miterlimit="4" stroke="#969696" stroke-width="2"><g><path d="M 65.766602 394C 80.754802 394 106.000002 308.0387 106.000002 202C 106.000002 95.9613 80.754802 10 65.766602 10C 80.775202 10.01 92.941702 96.2224 92.941702 202C 92.941702 307.7776 80.775202 393.99 65.766602 394ZM 65.765897 394C 80.774597 393.99 92.941097 307.7776 92.941097 202C 92.941097 96.2224 80.774597 10.01 65.765897 10L 51.957397 10C 66.060697 16.8878 77.199297 100.4719 77.199297 202C 77.199297 303.5282 65.382597 387.1122 51.279297 394L 65.765897 394ZM 77.2 202C 77.2 303.5282 65.3833 387.1122 51.28 394L 50.0615 394C 35.0734 394 10 308.0387 10 202C 10 95.9613 35.0734 10 50.0615 10C 50.6991 10 51.9581 10 51.9581 10C 66.0614 16.8878 77.2 100.4719 77.2 202Z"></path></g></g></g><g id="g-root-0.cr-medium_cr_hyes595l9b0v-stroke" data-item-order="-147446" transform="translate(495, 201.63156127929688)"><g id="0.cr-medium_cr_hyes595l9b0v-stroke" fill="none" stroke-linecap="round" stroke-linejoin="round" stroke-miterlimit="4" stroke="#969696" stroke-width="2"><g><path d="M 10 46C 10 65.882251 26.117749 82 46 82C 65.882251 82 82 65.882251 82 46C 82 26.117749 65.882251 10 46 10C 26.117749 10 10 26.117749 10 46"></path></g></g></g><g id="g-root-4.line_sy_1ut1sl95l9atc-stroke" data-item-order="-147439" transform="translate(243, 272.6315612792969)"><g id="4.line_sy_1ut1sl95l9atc-stroke" fill="none" stroke-linecap="round" stroke-linejoin="round" stroke-miterlimit="4" stroke="#e0cb15" stroke-width="2"><g><path d="M 260.35 11.140015L 130 101.000015L 10 101.000015"></path><path d="M 259.1 19.940015L 260.8 10.840015L 251.7 9.140015" stroke-dasharray="none"></path></g></g></g><g id="g-root-4.cr-small_cr_vb48ot5l9bm1-stroke" data-item-order="-147438" transform="translate(183, 334.6315612792969)"><g id="4.cr-small_cr_vb48ot5l9bm1-stroke" fill="none" stroke-linecap="round" stroke-linejoin="round" stroke-miterlimit="4" stroke="#e0cb15" stroke-width="2"><g><path d="M 10 40C 10.000002 56.568544 23.431459 70.000002 40.000002 70.000002C 56.568544 70.000002 70.000002 56.568544 70.000002 40.000002C 70.000002 23.431459 56.568544 10.000002 40.000002 10.000002C 23.431459 10.000002 10.000002 23.431459 10.000002 40.000002"></path></g></g></g><g id="g-root-3.line_sy_1qf3pq55l99u2-stroke" data-item-order="-147431" transform="translate(243.10940551757812, 249.63156127929688)"><g id="3.line_sy_1qf3pq55l99u2-stroke" fill="none" stroke-linecap="round" stroke-linejoin="round" stroke-miterlimit="4" stroke="#92bd39" stroke-width="2"><g><path d="M 249.95058 10.480042L 129.89058 40.000042L 10.00058 40.000042"></path><path d="M 245.70058 18.180042L 250.40058 10.380042L 242.60058 5.580042" stroke-dasharray="none"></path></g></g></g><g id="g-root-3.cr-small_cr_zitkot5laoej-stroke" data-item-order="-147430" transform="translate(183, 250.63156127929688)"><g id="3.cr-small_cr_zitkot5laoej-stroke" fill="none" stroke-linecap="round" stroke-linejoin="round" stroke-miterlimit="4" stroke="#92bd39" stroke-width="2"><g><path d="M 10 40C 10.000002 56.568544 23.431459 70.000002 40.000002 70.000002C 56.568544 70.000002 70.000002 56.568544 70.000002 40.000002C 70.000002 23.431459 56.568544 10.000002 40.000002 10.000002C 23.431459 10.000002 10.000002 23.431459 10.000002 40.000002"></path></g></g></g><g id="g-root-2.line_sy_8wj1195laoek-stroke" data-item-order="-147423" transform="translate(243, 195.63156127929688)"><g id="2.line_sy_8wj1195laoek-stroke" fill="none" stroke-linecap="round" stroke-linejoin="round" stroke-miterlimit="4" stroke="#3cc583" stroke-width="2"><g><path d="M 250.06 39.52L 130 10L 10 10"></path><path d="M 242.7 44.4L 250.5 39.6L 245.8 31.8" stroke-dasharray="none"></path></g></g></g><g id="g-root-2.cr-small_cr_1cvj18d5laozp-stroke" data-item-order="-147422" transform="translate(183, 166.63156127929688)"><g id="2.cr-small_cr_1cvj18d5laozp-stroke" fill="none" stroke-linecap="round" stroke-linejoin="round" stroke-miterlimit="4" stroke="#3cc583" stroke-width="2"><g><path d="M 10 40C 10.000002 56.568544 23.431459 70.000002 40.000002 70.000002C 56.568544 70.000002 70.000002 56.568544 70.000002 40.000002C 70.000002 23.431459 56.568544 10.000002 40.000002 10.000002C 23.431459 10.000002 10.000002 23.431459 10.000002 40.000002"></path></g></g></g><g id="g-root-1.line_sy_ddlhbx5lapse-stroke" data-item-order="-147415" transform="translate(243, 111.631591796875)"><g id="1.line_sy_ddlhbx5lapse-stroke" fill="none" stroke-linecap="round" stroke-linejoin="round" stroke-miterlimit="4" stroke="#1eabda" stroke-width="2"><g><path d="M 260.35 99.86L 130 10L 10 10"></path><path d="M 251.7 101.8L 260.8 100.1L 259.1 91.1" stroke-dasharray="none"></path></g></g></g><g id="g-root-1.cr-small_cr_1hclhj15laqdj-stroke" data-item-order="-147414" transform="translate(183, 82.631591796875)"><g id="1.cr-small_cr_1hclhj15laqdj-stroke" fill="none" stroke-linecap="round" stroke-linejoin="round" stroke-miterlimit="4" stroke="#1eabda" stroke-width="2"><g><path d="M 10 40C 10.000002 56.568544 23.431459 70.000002 40.000002 70.000002C 56.568544 70.000002 70.000002 56.568544 70.000002 40.000002C 70.000002 23.431459 56.568544 10.000002 40.000002 10.000002C 23.431459 10.000002 10.000002 23.431459 10.000002 40.000002"></path></g></g></g><g id="g-root-tx_realtime_13z8l4t5vlibm-stroke" data-item-order="0" transform="translate(27, 99.631591796875)"></g><g id="g-root-live_4hb18d5vk5qd-stroke" data-item-order="0" transform="translate(195, 93.631591796875)"><g id="live_4hb18d5vk5qd-stroke" fill="none" stroke-linecap="round" stroke-linejoin="round" stroke-miterlimit="4" stroke="#1eabda" stroke-width="2"><g><path d="M 45.25 28C 45.247963 36.69173 38.775879 44.022606 30.15143 45.102009C 21.526985 46.181412 13.447819 40.671722 11.303749 32.248589C 9.159678 23.825459 13.621348 15.123556 21.712265 11.948141C 29.803181 8.772726 38.992588 12.117037 43.150002 19.75C 44.530949 22.28031 45.253113 25.117384 45.25 28ZM 35.525501 19.75C 34.124416 15.975128 31.46719 12.797261 28 10.75C 24.53281 12.797261 21.875584 15.975128 20.474499 19.75M 20.473 36.25C 21.875216 40.024666 24.53281 43.202339 28 45.25C 31.631096 43.36869 34.378242 40.136749 35.650002 36.25M 14.923 16.75L 41.077 16.75M 14.923 39.25L 41.077 39.25M 24.25 31.75L 24.25 24.25M 27.25 24.25L 27.25 26.799999C 27.250807 28.561834 27.772696 30.284073 28.75 31.749998C 29.727303 30.284073 30.249191 28.561834 30.25 26.799999L 30.25 24.25M 18.25 24.25L 18.25 30.25C 18.25 31.078428 18.921574 31.75 19.75 31.75L 21.25 31.75M 36.25 31.75L 34.75 31.75C 33.921574 31.75 33.25 31.078428 33.25 30.25L 33.25 25.75C 33.25 24.921572 33.921574 24.25 34.75 24.25L 36.25 24.25M 33.25 28.75L 36.25 28.75"></path></g></g></g><g id="g-root-tx_trafficc_qwipz15vk361-stroke" data-item-order="0" transform="translate(15, 183.63156127929688)"></g><g id="g-root-targ_dg3jzx5ldhql-stroke" data-item-order="0" transform="translate(195, 177.63156127929688)"><g id="targ_dg3jzx5ldhql-stroke" fill="none" stroke-linecap="round" stroke-linejoin="round" stroke-miterlimit="4" stroke="#3cc583" stroke-width="2"><g><path d="M 10.75 28C 10.75 37.526913 18.473087 45.25 28 45.25C 37.526913 45.25 45.25 37.526913 45.25 28C 45.25 18.473087 37.526913 10.75 28 10.75C 18.473087 10.75 10.75 18.473087 10.75 28M 32.5 16.885C 33.978596 17.493303 35.323872 18.385057 36.459999 19.51M 16.09 29.5C 16.02968 29.002281 15.999624 28.501362 16 28.000002C 15.996551 22.116781 20.25877 17.098667 26.065001 16.15M 38.860001 33.130001C 37.112915 36.832157 33.599075 39.388275 29.538845 39.91061C 25.478619 40.432941 21.43223 38.849419 18.805 35.709999M 38.395 22C 39.186516 23.38656 39.696274 24.915844 39.895 26.5M 27.264999 21.295C 27.50976 21.279633 27.755241 21.279633 28 21.295C 29.79093 21.289921 31.509121 22.003132 32.77 23.275M 24.25 33.610001C 21.398113 31.703146 20.430162 27.960403 22 24.91M 34.584999 26.5C 34.693394 26.992676 34.748711 27.495543 34.75 28C 34.735836 30.548401 33.284492 32.870552 30.999998 34M 28 28L 38.470001 17.530001M 27.625 34C 27.832108 34 28 34.167892 28 34.375M 27.25 34.375C 27.25 34.167892 27.417892 34 27.625 34M 27.625 34.75C 27.417892 34.75 27.25 34.582108 27.25 34.375M 28 34.375C 28 34.582108 27.832108 34.75 27.625 34.75M 39.625 29.5C 39.832108 29.5 40 29.667892 40 29.875M 39.25 29.875C 39.25 29.667892 39.417892 29.5 39.625 29.5M 39.625 30.25C 39.417892 30.25 39.25 30.082108 39.25 29.875M 40 29.875C 40 30.082108 39.832108 30.25 39.625 30.25M 17.125 32.5C 17.332108 32.5 17.5 32.667892 17.5 32.875M 16.75 32.875C 16.75 32.667892 16.917892 32.5 17.125 32.5M 17.125 33.25C 16.917892 33.25 16.75 33.082108 16.75 32.875M 17.5 32.875C 17.5 33.082108 17.332108 33.25 17.125 33.25M 29.365 15.625C 29.572105 15.625 29.74 15.792893 29.74 16M 28.99 16C 28.99 15.792893 29.157894 15.625 29.365 15.625M 29.365 16.375C 29.157894 16.375 28.99 16.207108 28.99 16M 29.74 16C 29.74 16.207108 29.572105 16.375 29.365 16.375M 24.219999 21.880001C 24.427107 21.880001 24.594999 22.047894 24.594999 22.255001M 23.844999 22.255001C 23.844999 22.047894 24.012894 21.880001 24.219999 21.880001M 24.219999 22.630001C 24.012894 22.630001 23.844999 22.462107 23.844999 22.255001M 24.594999 22.255001C 24.594999 22.462107 24.427107 22.630001 24.219999 22.630001"></path></g></g></g><g id="g-root-buil_8wj1195lkjd2-stroke" data-item-order="0" transform="translate(507, 213.63156127929688)"><g id="buil_8wj1195lkjd2-stroke" fill="none" stroke-linecap="round" stroke-linejoin="round" stroke-miterlimit="4" stroke="#969696" stroke-width="2"><g><path d="M 11 57L 57 57M 21 57L 21 37C 21.000408 23.029976 32.040314 11.557308 46 11.02C 46.271782 11.002278 46.539032 11.096177 46.740002 11.28C 46.910076 11.481131 47.002335 11.736611 47 12L 47 57M 23.92 25L 41 25M 21.700001 31L 36 31M 21 37L 36 37M 21 43L 32 43"></path></g></g></g><g id="g-root-tx_optimize_qpni0t5vk4r2-stroke" data-item-order="0" transform="translate(579, 213.63156127929688)"></g><g id="g-root-tx_iotdevic_vagsu55vk45c-stroke" data-item-order="0" transform="translate(63, 267.6315612792969)"></g><g id="g-root-home_92rv255l9bf1-stroke" data-item-order="0" transform="translate(195, 261.6315612792969)"><g id="home_92rv255l9bf1-stroke" fill="none" stroke-linecap="round" stroke-linejoin="round" stroke-miterlimit="4" stroke="#92bd39" stroke-width="2"><g><path d="M 15.25 28.320999L 15.25 43.75C 15.25 44.578426 15.921573 45.25 16.75 45.25L 36.25 45.25C 37.078426 45.25 37.75 44.578426 37.75 43.75L 37.75 28.320999M 10.75 32.5L 26.5 17.875L 42.25 32.5M 24.25 35.5L 28.75 35.5C 29.578428 35.5 30.25 36.171574 30.25 37L 30.25 45.25L 30.25 45.25L 22.75 45.25L 22.75 45.25L 22.75 37C 22.75 36.171574 23.421572 35.5 24.25 35.5ZM 36.550003 21.678999C 36.516243 20.466358 35.541145 19.491259 34.328499 19.4575M 40.900002 21.7645C 40.798725 18.129057 37.875443 15.205771 34.239998 15.1045M 40.900002 21.7645C 40.798725 18.129057 37.875443 15.205771 34.239998 15.1045M 45.25 21.85C 45.079727 15.791571 40.208427 10.920274 34.150002 10.75M 45.25 21.85C 45.079727 15.791571 40.208427 10.920274 34.150002 10.75"></path></g></g></g><g id="g-root-tx_sensors_v8ldkt5vk553-stroke" data-item-order="0" transform="translate(87, 351.6315612792969)"></g><g id="g-root-cryi_mdlwcd5l29l4-stroke" data-item-order="0" transform="translate(195, 345.6315612792969)"><g id="cryi_mdlwcd5l29l4-stroke" fill="none" stroke-linecap="round" stroke-linejoin="round" stroke-miterlimit="4" stroke="#e0cb15" stroke-width="2"><g><path d="M 10.75 28C 10.75 37.526913 18.473087 45.25 28 45.25C 37.526913 45.25 45.25 37.526913 45.25 28C 45.25 18.473087 37.526913 10.75 28 10.75C 18.473087 10.75 10.75 18.473087 10.75 28ZM 22.75 21.625C 22.957108 21.625 23.125 21.792892 23.125 22C 23.125 22.207108 22.957108 22.375 22.75 22.375C 22.542892 22.375 22.375 22.207108 22.375 22C 22.375 21.792892 22.542892 21.625 22.75 21.625M 33.25 21.625C 33.042892 21.625 32.875 21.792892 32.875 22C 32.875 22.207108 33.042892 22.375 33.25 22.375C 33.457108 22.375 33.625 22.207108 33.625 22C 33.625 21.792892 33.457108 21.625 33.25 21.625M 38.5 28.75C 38.5 29.992641 37.492641 31 36.25 31C 35.007362 31 34 29.992641 34 28.75C 34 27.507999 36.25 24.25 36.25 24.25C 36.25 24.25 38.5 27.507999 38.5 28.75ZM 21.25 38.5C 21.25 34.772079 24.272079 31.75 28 31.75C 31.727921 31.75 34.75 34.772079 34.75 38.5"></path></g></g></g></g></g></svg>