<?xml version="1.0" encoding="utf-8" standalone="yes"?>
<!DOCTYPE svg PUBLIC "-//W3C//DTD SVG 1.1//EN" "http://www.w3.org/Graphics/SVG/1.1/DTD/svg11.dtd">
<svg width="675" height="554" viewBox="0 0 675 554" style="fill:none;stroke:none;fill-rule:evenodd;clip-rule:evenodd;stroke-linecap:round;stroke-linejoin:round;stroke-miterlimit:1.5;" version="1.1" xmlns="http://www.w3.org/2000/svg" xmlns:xlink="http://www.w3.org/1999/xlink"><style id="fontImports">@import url("https://fonts.googleapis.com/css2?family=Roboto:wght@400;700&amp;display=block");</style><rect id="" x="0" y="0" width="674" height="554" style="fill: none;"></rect><g id="items" style="isolation: isolate"><g id="blend" style="mix-blend-mode: normal"><g id="g-root-tf_8ye6oe518oi4-fill" data-item-order="-370944" transform="translate(-9, -9)"></g><g id="g-root--1.line_sy_142e6oe4rhj4d-fill" data-item-order="-80554" transform="translate(165.130126953125, 272.31689453125)"></g><g id="g-root--1.line_1_sy_4n4ni4rhkpa-fill" data-item-order="-80550" transform="translate(269.4599914550781, 405.526611328125)"></g><g id="g-root--1.line_2_sy_v8mlou4rhixb-fill" data-item-order="-80546" transform="translate(428.2607421875, 270.5068359375)"></g><g id="g-root--1.line_3_sy_6ijwu4rhjpk-fill" data-item-order="-80542" transform="translate(356.900390625, 131.64697265625)"></g><g id="g-root--1.line_4_sy_vai0y64rhhxl-fill" data-item-order="-80538" transform="translate(194.900390625, 131.996826171875)"></g><g id="g-root-tx_collectc_mb466m4riyvi-fill" data-item-order="0" transform="translate(237, 38.999969482421875)"><g id="tx_collectc_mb466m4riyvi-fill" stroke="none" fill="#484848"><g><text style="font: 20px &quot;Roboto&quot;, sans-serif; white-space: pre;" font-size="20px" font-family="'Roboto', sans-serif"><tspan x="13.27" y="34.33" dominant-baseline="ideographic">Collect Climate </tspan><tspan x="60.02" y="58.33" dominant-baseline="ideographic">Data</tspan></text></g></g></g><g id="g-root-cels_4ikojy517bwi-fill" data-item-order="0" transform="translate(285, 99)"></g><g id="g-root-tx_implemen_18n7hhq4rhiiq-fill" data-item-order="0" transform="translate(27, 201)"><g id="tx_implemen_18n7hhq4rhiiq-fill" stroke="none" fill="#484848"><g><text style="font: 20px &quot;Roboto&quot;, sans-serif; white-space: pre;" font-size="20px" font-family="'Roboto', sans-serif"><tspan x="20.67" y="34.33" dominant-baseline="ideographic">Implement </tspan><tspan x="26.22" y="58.33" dominant-baseline="ideographic">Strategies</tspan></text></g></g></g><g id="g-root-juic_1cz8tou51h4p1-fill" data-item-order="0" transform="translate(147, 201)"></g><g id="g-root-codi_zko7da51mrk7-fill" data-item-order="0" transform="translate(423, 202)"></g><g id="g-root-tx_analyzew_3e6ha4riwp1-fill" data-item-order="0" transform="translate(483, 213)"><g id="tx_analyzew_3e6ha4riwp1-fill" stroke="none" fill="#484848"><g><text style="font: 20px &quot;Roboto&quot;, sans-serif; white-space: pre;" font-size="20px" font-family="'Roboto', sans-serif"><tspan x="12" y="34.33" dominant-baseline="ideographic">Analyze with AI</tspan></text></g></g></g><g id="g-root-plan_qrix5a51cwek-fill" data-item-order="0" transform="translate(201, 363)"></g><g id="g-root-fahr_1uo145q51h43s-fill" data-item-order="0" transform="translate(369, 363)"></g><g id="g-root-tx_supportd_1cuacem4riygz-fill" data-item-order="0" transform="translate(129, 423)"><g id="tx_supportd_1cuacem4riygz-fill" stroke="none" fill="#484848"><g><text style="font: 20px &quot;Roboto&quot;, sans-serif; white-space: pre;" font-size="20px" font-family="'Roboto', sans-serif"><tspan x="33.48" y="34.33" dominant-baseline="ideographic">Support </tspan><tspan x="21.85" y="58.33" dominant-baseline="ideographic">Decision-</tspan><tspan x="38.42" y="82.33" dominant-baseline="ideographic">Making</tspan></text></g></g></g><g id="g-root-tx_generate_1umtb2m4riy9w-fill" data-item-order="0" transform="translate(393, 423)"><g id="tx_generate_1umtb2m4riy9w-fill" stroke="none" fill="#484848"><g><text style="font: 20px &quot;Roboto&quot;, sans-serif; white-space: pre;" font-size="20px" font-family="'Roboto', sans-serif"><tspan x="12" y="34.33" dominant-baseline="ideographic">Generate </tspan><tspan x="12" y="58.33" dominant-baseline="ideographic">Forecasts</tspan></text></g></g></g><g id="g-root-tf_8ye6oe518oi4-stroke" data-item-order="-370944" transform="translate(-9, -9)"></g><g id="g-root--1.line_sy_142e6oe4rhj4d-stroke" data-item-order="-80554" transform="translate(165.130126953125, 272.31689453125)"><g id="-1.line_sy_142e6oe4rhj4d-stroke" fill="none" stroke-linecap="round" stroke-linejoin="round" stroke-miterlimit="4" stroke="#484848" stroke-width="2"><g><path d="M 10.079895 11.933105C 11.359895 39.913105 20.639895 65.793105 35.669895 87.383105"></path><path d="M 17.079895 17.533105L 10.079895 11.533105L 4.079895 18.433105" stroke-dasharray="none"></path></g></g></g><g id="g-root--1.line_1_sy_4n4ni4rhkpa-stroke" data-item-order="-80550" transform="translate(269.4599914550781, 405.526611328125)"><g id="-1.line_1_sy_4n4ni4rhkpa-stroke" fill="none" stroke-linecap="round" stroke-linejoin="round" stroke-miterlimit="4" stroke="#484848" stroke-width="2"><g><path d="M 12 11.003357C 23.98 14.233357 36.58 15.973357 49.59 15.973357C 63.32 15.973357 77.68 13.883357 90.71 10.003357"></path><path d="M 19.3 6.003357L 11.5 10.803357L 16.3 18.603357" stroke-dasharray="none"></path></g></g></g><g id="g-root--1.line_2_sy_v8mlou4rhixb-stroke" data-item-order="-80546" transform="translate(428.2607421875, 270.5068359375)"><g id="-1.line_2_sy_v8mlou4rhixb-stroke" fill="none" stroke-linecap="round" stroke-linejoin="round" stroke-miterlimit="4" stroke="#484848" stroke-width="2"><g><path d="M 11.099243 86.133174C 25.549243 64.203174 34.169243 38.083174 34.739243 10.003174"></path><path d="M 8.699243 77.503174L 10.799243 86.503174L 19.699243 84.403174" stroke-dasharray="none"></path></g></g></g><g id="g-root--1.line_3_sy_6ijwu4rhjpk-stroke" data-item-order="-80542" transform="translate(356.900390625, 131.64697265625)"><g id="-1.line_3_sy_6ijwu4rhjpk-stroke" fill="none" stroke-linecap="round" stroke-linejoin="round" stroke-miterlimit="4" stroke="#484848" stroke-width="2"><g><path d="M 74.299634 55.542991C 57.679634 34.912991 35.479634 18.972991 9.999634 10.002991"></path><path d="M 65.399634 55.202991L 74.599634 56.002991L 75.299634 46.802991" stroke-dasharray="none"></path></g></g></g><g id="g-root--1.line_4_sy_vai0y64rhhxl-stroke" data-item-order="-80538" transform="translate(194.900390625, 131.996826171875)"><g id="-1.line_4_sy_vai0y64rhhxl-stroke" fill="none" stroke-linecap="round" stroke-linejoin="round" stroke-miterlimit="4" stroke="#484848" stroke-width="2"><g><path d="M 73.399603 10.703125C 48.109603 20.233125 26.209603 36.663125 9.999603 57.713125"></path><path d="M 70.399603 19.003125L 73.899603 10.603125L 65.399603 7.003125" stroke-dasharray="none"></path></g></g></g><g id="g-root-tx_collectc_mb466m4riyvi-stroke" data-item-order="0" transform="translate(237, 38.999969482421875)"></g><g id="g-root-cels_4ikojy517bwi-stroke" data-item-order="0" transform="translate(285, 99)"><g id="cels_4ikojy517bwi-stroke" fill="none" stroke-linecap="round" stroke-linejoin="round" stroke-miterlimit="4" stroke="#1eabda" stroke-width="2"><g><path d="M 11.714286 16.857143C 11.714286 19.697464 14.016822 22 16.857143 22C 19.697464 22 22 19.697464 22 16.857143C 22 14.016822 19.697464 11.714286 16.857143 11.714286C 14.016822 11.714286 11.714286 14.016822 11.714286 16.857143M 56.285713 16.308571C 48.56834 13.593777 39.975796 15.709905 34.401733 21.698048C 28.827671 27.68619 27.331633 36.4081 30.591534 43.911503C 33.851437 51.414902 41.247627 56.273525 49.428574 56.285713C 51.763885 56.289181 54.082737 55.894974 56.285713 55.120003"></path></g></g></g><g id="g-root-tx_implemen_18n7hhq4rhiiq-stroke" data-item-order="0" transform="translate(27, 201)"></g><g id="g-root-juic_1cz8tou51h4p1-stroke" data-item-order="0" transform="translate(147, 201)"><g id="juic_1cz8tou51h4p1-stroke" fill="none" stroke-linecap="round" stroke-linejoin="round" stroke-miterlimit="4" stroke="#de8431" stroke-width="2"><g><path d="M 43.560001 56.25L 35.327999 56.25L 35.327999 43.616001L 39.444 37.598L 43.560001 43.616001L 43.560001 56.25ZM 55.591999 43.616001L 55.591999 56.25L 43.560001 56.25L 43.560001 43.616001M 39.444 32.722L 51.478001 32.722L 51.478001 37.599998L 39.444 37.599998ZM 51.476002 37.598L 55.591999 43.616001M 12.406 22.486C 12.405342 25.800116 15.475965 28.487041 19.264 28.487041C 23.052032 28.487041 26.122658 25.800116 26.122 22.486C 26.122658 19.171885 23.052032 16.484959 19.264 16.484959C 15.475965 16.484959 12.405342 19.171885 12.406 22.486M 28.024 51.453999C 19.916851 49.667809 14.030174 42.644531 13.688 34.349998M 32.681999 15.902C 38.862015 16.244291 44.432693 19.73777 47.431999 25.152M 36.312 19.748001L 32.206001 15.854L 36.099998 11.75M 22.804001 53.632L 28.024 51.453999L 25.846001 46.234001M 19.264 16.486L 19.264 12.674M 23.346001 13.422C 24.743267 12.847573 26.310734 12.847573 27.708 13.422C 27.708 13.422 26.341999 17.764 22.799999 17.125999"></path></g></g></g><g id="g-root-codi_zko7da51mrk7-stroke" data-item-order="0" transform="translate(423, 202)"><g id="codi_zko7da51mrk7-stroke" fill="none" stroke-linecap="round" stroke-linejoin="round" stroke-miterlimit="4" stroke="#3cc583" stroke-width="2"><g><path d="M 41.026001 23.568001L 42.068001 23.568001C 42.643482 23.568001 43.110001 24.034519 43.110001 24.610001L 43.110001 31.903999M 41.026001 31.903999L 45.194 31.903999M 52.158001 10.978L 53.200001 10.978C 53.775482 10.978 54.242001 11.444519 54.242001 12.02L 54.242001 19.313999M 52.158001 19.313999L 56.326 19.313999M 52.158001 36.155998L 53.200001 36.155998C 53.775482 36.156002 54.242001 36.62252 54.242001 37.198002L 54.242001 44.492001M 52.158001 44.492001L 56.326 44.492001M 56.848 29.298C 56.84811 30.73678 55.681782 31.903202 54.243 31.903202C 52.804218 31.903202 51.63789 30.73678 51.638 29.298L 51.638 26.172001C 51.638111 24.733376 52.804379 23.567202 54.243 23.567202C 55.681622 23.567202 56.847889 24.733376 56.848 26.172001ZM 45.714001 41.888C 45.714001 43.32394 44.549938 44.487999 43.113998 44.487999C 41.678059 44.487999 40.514 43.32394 40.514 41.888L 40.514 38.762001C 40.514 37.326057 41.678059 36.161999 43.113998 36.161999C 44.549938 36.161999 45.714001 37.326057 45.714001 38.762001ZM 52.158001 48.641998L 53.200001 48.641998C 53.775482 48.642002 54.242001 49.108521 54.242001 49.684002L 54.242001 56.978001M 52.158001 56.978001L 56.326 56.978001M 45.714001 54.374001C 45.714001 55.80994 44.549938 56.973999 43.113998 56.973999C 41.678059 56.973999 40.514 55.80994 40.514 54.374001L 40.514 51.248001C 40.514 49.812057 41.678059 48.647999 43.113998 48.647999C 44.549938 48.647999 45.714001 49.812057 45.714001 51.248001ZM 45.714001 16.902C 45.714001 18.33794 44.549938 19.501999 43.113998 19.501999C 41.678059 19.501999 40.514 18.33794 40.514 16.902L 40.514 13.774C 40.514 12.338059 41.678059 11.174 43.113998 11.174C 44.549938 11.174 45.714001 12.338059 45.714001 13.774ZM 29.106001 44.521999C 29.106001 40.932152 26.195852 38.022003 22.606001 38.022003C 22.501999 38.021999 22.406 38.048 22.299999 38.052002M 28.43 18.799999C 30.366119 18.147182 31.499022 16.140135 31.057453 14.145205C 30.615887 12.150274 28.741808 10.808806 26.711044 11.034039C 24.680281 11.259271 23.145699 12.978794 23.152 15.021999C 23.157642 15.383017 23.212135 15.741607 23.313999 16.087999C 23.091999 16.068001 22.878 16.021999 22.652 16.021999C 19.79525 16.008055 17.181129 17.625923 15.919224 20.188892C 14.657316 22.751862 14.969008 25.810287 16.722 28.066C 13.590808 28.280815 11.16061 30.883448 11.16061 34.021999C 11.16061 37.160553 13.590808 39.763184 16.722 39.977997C 14.969008 42.233711 14.657316 45.292137 15.919224 47.855106C 17.181129 50.418076 19.79525 52.035946 22.652 52.021999C 22.878 52.021999 23.091999 51.973999 23.313999 51.953999C 22.718632 54.056328 23.920441 56.247406 26.013304 56.875237C 28.106165 57.503067 30.31558 56.335308 30.975721 54.252411C 31.635862 52.169514 30.502432 49.942295 28.43 49.25M 22.299999 30C 22.403999 30 22.5 30.030001 22.605999 30.030001C 26.195852 30.030001 29.106001 27.119852 29.106001 23.530001M 31.148001 14.828C 32.059685 14.300792 33.094856 14.024745 34.148003 14.028M 30.969999 54.216C 31.947201 54.744247 33.041161 55.019283 34.152 55.015999M 34.152 24.021999L 34.152 45.021999"></path></g></g></g><g id="g-root-tx_analyzew_3e6ha4riwp1-stroke" data-item-order="0" transform="translate(483, 213)"></g><g id="g-root-plan_qrix5a51cwek-stroke" data-item-order="0" transform="translate(201, 363)"><g id="plan_qrix5a51cwek-stroke" fill="none" stroke-linecap="round" stroke-linejoin="round" stroke-miterlimit="4" stroke="#e0cb15" stroke-width="2"><g><path d="M 12.842 16.454L 32.134003 16.454C 32.134003 16.454 33.487999 16.454 33.487999 17.808001L 33.487999 29.6C 33.487999 29.6 33.487999 30.954 32.134003 30.954L 12.842 30.954C 12.842 30.954 11.488 30.954 11.488 29.6L 11.488 17.808001C 11.488 17.808001 11.488 16.454 12.842 16.454M 16.813999 16.454L 18.836 13.654C 19.489794 12.695973 20.616394 12.173759 21.77 12.294L 23.726 12.294C 24.880138 12.173891 26.007263 12.695993 26.662001 13.654L 28.684 16.454M 11.488 22.454L 20.035999 22.454M 24.987999 22.454L 33.535999 22.454M 21.035999 21.424L 23.938 21.424C 23.938 21.424 24.938 21.424 24.938 22.424L 24.938 24.986C 24.938 24.986 24.938 25.986 23.938 25.986L 21.035999 25.986C 21.035999 25.986 20.035999 25.986 20.035999 24.986L 20.035999 22.424C 20.035999 22.424 20.035999 21.424 21.035999 21.424M 35.818001 41.214001L 55.110001 41.214001C 55.110001 41.214001 56.464001 41.214001 56.464001 42.568001L 56.464001 54.360001C 56.464001 54.360001 56.464001 55.714001 55.110001 55.714001L 35.818001 55.714001C 35.818001 55.714001 34.464001 55.714001 34.464001 54.360001L 34.464001 42.568001C 34.464001 42.568001 34.464001 41.214001 35.818001 41.214001M 39.788002 41.214001L 41.809998 38.414001C 42.465809 37.457443 43.592411 36.936352 44.746002 37.056L 46.702 37.056C 47.855133 36.935776 48.981426 37.457077 49.636002 38.414001L 51.658001 41.214001M 34.464001 47.214001L 43.012001 47.214001M 47.964001 47.214001L 56.512001 47.214001M 44.012001 46.181999L 46.914001 46.181999C 46.914001 46.181999 47.914001 46.181999 47.914001 47.181999L 47.914001 49.743999C 47.914001 49.743999 47.914001 50.743999 46.914001 50.743999L 44.012001 50.743999C 44.012001 50.743999 43.012001 50.743999 43.012001 49.743999L 43.012001 47.181999C 43.012001 47.181999 43.012001 46.181999 44.012001 46.181999M 53.487999 26.6C 53.487999 21.905579 49.682419 18.1 44.987999 18.1L 40.987999 18.1M 44.987999 14.096001L 40.987999 18.096001L 44.987999 22.096001M 14.488 39.599998C 14.488 44.294422 18.293579 48.099998 22.987999 48.099998L 26.988001 48.099998M 22.987999 52.096001L 26.988001 48.096001L 22.987999 44.096001"></path></g></g></g><g id="g-root-fahr_1uo145q51h43s-stroke" data-item-order="0" transform="translate(369, 363)"><g id="fahr_1uo145q51h43s-stroke" fill="none" stroke-linecap="round" stroke-linejoin="round" stroke-miterlimit="4" stroke="#92bd39" stroke-width="2"><g><path d="M 13.428572 16.857143C 13.428572 19.697464 15.731107 22 18.571428 22C 21.411751 22 23.714287 19.697464 23.714287 16.857143C 23.714287 14.016822 21.411751 11.714286 18.571428 11.714286C 15.731107 11.714286 13.428572 14.016822 13.428572 16.857143M 34 56.285713L 34 15.142858L 54.57143 15.142858M 34 34L 47.714287 34"></path></g></g></g><g id="g-root-tx_supportd_1cuacem4riygz-stroke" data-item-order="0" transform="translate(129, 423)"></g><g id="g-root-tx_generate_1umtb2m4riy9w-stroke" data-item-order="0" transform="translate(393, 423)"></g></g></g></svg>