<?xml version="1.0" encoding="utf-8" standalone="yes"?>
<!DOCTYPE svg PUBLIC "-//W3C//DTD SVG 1.1//EN" "http://www.w3.org/Graphics/SVG/1.1/DTD/svg11.dtd">
<svg width="711" height="482" viewBox="0 0 711 482" style="fill:none;stroke:none;fill-rule:evenodd;clip-rule:evenodd;stroke-linecap:round;stroke-linejoin:round;stroke-miterlimit:1.5;" version="1.1" xmlns="http://www.w3.org/2000/svg" xmlns:xlink="http://www.w3.org/1999/xlink"><style id="fontImports">@import url("https://fonts.googleapis.com/css2?family=Roboto:wght@400;700&amp;display=block");</style><rect id="" x="0" y="0" width="711" height="481.991" style="fill: #ffffff;"></rect><g id="items" style="isolation: isolate"><g id="blend" style="mix-blend-mode: normal"><g id="g-root-tf_zk1wlca11eyu-fill" data-item-order="-340314" transform="translate(-9, -9)"><g id="tf_zk1wlca11eyu-fill" stroke="none" fill="#ffffff"><g><path d="M 10 10.001241L 719 10.001241L 719 489.991241L 10 489.991241Z"></path></g></g></g><g id="g-root-4.cu_sy_1cz99hca0yjup-fill" data-item-order="-89116" transform="translate(202.00003051757812, 87.99127197265625)"><g id="4.cu_sy_1cz99hca0yjup-fill" stroke="none" fill="#fffbda"><g><path d="M 29.793169 125.362969C 3.402269 98.972269 3.402269 56.184169 29.793169 29.793169C 56.184069 3.402269 98.972269 3.402269 125.362969 29.793169L 145.842969 50.272469L 111.709969 84.404669L 91.231069 63.925369C 83.690769 56.385069 71.465569 56.385069 63.925369 63.925369C 56.385069 71.465669 56.385069 83.690769 63.925369 91.231069L 145.842969 173.147969L 111.709969 207.279969L 29.793169 125.362969Z"></path></g></g></g><g id="g-root-3.cu_sy_91i7gga0ylfm-fill" data-item-order="-89112" transform="translate(202.00054931640625, 237.48681640625)"><g id="3.cu_sy_91i7gga0ylfm-fill" stroke="none" fill="#f4ffdc"><g><path d="M 125.36297 126.049C 98.97227 152.44 56.18417 152.44 29.79317 126.049C 3.40227 99.6584 3.40227 56.8703 29.79317 30.4793L 50.27247 10.00002L 84.40467 44.1322L 63.92537 64.6115C 56.38507 72.1518 56.38507 84.3769 63.92537 91.9172C 71.46567 99.4575 83.69077 99.4575 91.23107 91.9172L 173.14797 10L 207.27997 44.1322L 125.36297 126.049Z"></path></g></g></g><g id="g-root-2.cu_sy_145hohsa0yjnn-fill" data-item-order="-89108" transform="translate(351.49560546875, 176.0489501953125)"><g id="2.cu_sy_145hohsa0yjnn-fill" stroke="none" fill="#e3fff2"><g><path d="M 126.049 91.9172C 152.44 118.308 152.44 161.096 126.049 187.487C 99.6584 213.878 56.8703 213.878 30.4793 187.487L 10 167.008L 44.1322 132.876L 64.6115 153.355C 72.1517 160.895 84.3769 160.895 91.9172 153.355C 99.4575 145.815 99.4575 133.59 91.9172 126.049L 10.000003 44.1322L 44.1322 10L 126.049 91.9172Z"></path></g></g></g><g id="g-root-1.cu_sy_4nk4lca0ykgc-fill" data-item-order="-89104" transform="translate(290.05780029296875, 87.99127197265625)"><g id="1.cu_sy_4nk4lca0ykgc-fill" stroke="none" fill="#e8f9ff"><g><path d="M 91.9172 29.793169C 118.308 3.402269 161.096 3.402269 187.487 29.793169C 213.878 56.184169 213.878 98.972269 187.487 125.362969L 167.008 145.842969L 132.876 111.709969L 153.355 91.231069C 160.895 83.690769 160.895 71.465569 153.355 63.925369C 145.815 56.385069 133.59 56.385069 126.049 63.925369L 44.1322 145.842969L 10 111.709969L 91.9172 29.793169Z"></path></g></g></g><g id="g-root-tx_accuracy_18ita9sa1016q-fill" data-item-order="0" transform="translate(74, 74.99124145507812)"><g id="tx_accuracy_18ita9sa1016q-fill" stroke="none" fill="#e0cb15"><g><text style="font: bold 20px &quot;Roboto&quot;, sans-serif; white-space: pre;" font-weight="bold" font-size="20px" font-family="'Roboto', sans-serif"><tspan x="20.32" y="34.33" dominant-baseline="ideographic">Accuracy</tspan></text></g></g></g><g id="g-root-tx_machinel_vb3mf4a1000d-fill" data-item-order="0" transform="translate(508, 62.991241455078125)"><g id="tx_machinel_vb3mf4a1000d-fill" stroke="none" fill="#1eabda"><g><text style="font: bold 20px &quot;Roboto&quot;, sans-serif; white-space: pre;" font-weight="bold" font-size="20px" font-family="'Roboto', sans-serif"><tspan x="12" y="34.33" dominant-baseline="ideographic">Machine Learning</tspan></text></g></g></g><g id="g-root-tx_usesalgo_v63tq8a100ll-fill" data-item-order="0" transform="translate(507, 98.9912109375)"><g id="tx_usesalgo_v63tq8a100ll-fill" stroke="none" fill="#484848"><g><text style="font: 20px &quot;Roboto&quot;, sans-serif; white-space: pre;" font-size="20px" font-family="'Roboto', sans-serif"><tspan x="12" y="34.33" dominant-baseline="ideographic">Uses algorithms </tspan><tspan x="12" y="58.33" dominant-baseline="ideographic">to improve </tspan><tspan x="12" y="82.33" dominant-baseline="ideographic">document </tspan><tspan x="12" y="106.33" dominant-baseline="ideographic">processing</tspan></text></g></g></g><g id="g-root-tx_ensuresp_1d3ml34a0ymfa-fill" data-item-order="0" transform="translate(15, 122.9912109375)"><g id="tx_ensuresp_1d3ml34a0ymfa-fill" stroke="none" fill="#484848"><g><text style="font: 20px &quot;Roboto&quot;, sans-serif; white-space: pre;" font-size="20px" font-family="'Roboto', sans-serif"><tspan x="23.17" y="34.33" dominant-baseline="ideographic">Ensures precise </tspan><tspan x="83.48" y="58.33" dominant-baseline="ideographic">review of </tspan><tspan x="63.8" y="82.33" dominant-baseline="ideographic">documents</tspan></text></g></g></g><g id="g-root-tx_naturall_me7o00a0zzes-fill" data-item-order="0" transform="translate(507, 278.9912109375)"><g id="tx_naturall_me7o00a0zzes-fill" stroke="none" fill="#3cc583"><g><text style="font: bold 20px &quot;Roboto&quot;, sans-serif; white-space: pre;" font-weight="bold" font-size="20px" font-family="'Roboto', sans-serif"><tspan x="12" y="34.33" dominant-baseline="ideographic">Natural Language </tspan><tspan x="12" y="58.33" dominant-baseline="ideographic">Processing</tspan></text></g></g></g><g id="g-root-tx_efficien_4lopc0a0zzlv-fill" data-item-order="0" transform="translate(75, 302.9912109375)"><g id="tx_efficien_4lopc0a0zzlv-fill" stroke="none" fill="#92bd39"><g><text style="font: bold 20px &quot;Roboto&quot;, sans-serif; white-space: pre;" font-weight="bold" font-size="20px" font-family="'Roboto', sans-serif"><tspan x="15.97" y="34.33" dominant-baseline="ideographic">Efficiency</tspan></text></g></g></g><g id="g-root-tx_speedsup_1um5ydca100sn-fill" data-item-order="0" transform="translate(15, 350.9912109375)"><g id="tx_speedsup_1um5ydca100sn-fill" stroke="none" fill="#484848"><g><text style="font: 20px &quot;Roboto&quot;, sans-serif; white-space: pre;" font-size="20px" font-family="'Roboto', sans-serif"><tspan x="37.82" y="34.33" dominant-baseline="ideographic">Speeds up the </tspan><tspan x="12.75" y="58.33" dominant-baseline="ideographic">contract analysis </tspan><tspan x="93.12" y="82.33" dominant-baseline="ideographic">process</tspan></text></g></g></g><g id="g-root-tx_interpre_ddkv28a100so-fill" data-item-order="0" transform="translate(506.923828125, 350.9912109375)"><g id="tx_interpre_ddkv28a100so-fill" stroke="none" fill="#484848"><g><text style="font: 20px &quot;Roboto&quot;, sans-serif; white-space: pre;" font-size="20px" font-family="'Roboto', sans-serif"><tspan x="12" y="34.33" dominant-baseline="ideographic">Interprets and </tspan><tspan x="12" y="58.33" dominant-baseline="ideographic">understands legal </tspan><tspan x="12" y="82.33" dominant-baseline="ideographic">language</tspan></text></g></g></g><g id="g-root-tf_zk1wlca11eyu-stroke" data-item-order="-340314" transform="translate(-9, -9)"></g><g id="g-root-4.cu_sy_1cz99hca0yjup-stroke" data-item-order="-89116" transform="translate(202.00003051757812, 87.99127197265625)"><g id="4.cu_sy_1cz99hca0yjup-stroke" fill="none" stroke-linecap="round" stroke-linejoin="round" stroke-miterlimit="4" stroke="#e0cb15" stroke-width="2"><g><path d="M 29.793169 125.363269C 3.402269 98.972269 3.402269 56.184169 29.793169 29.793169C 56.184069 3.402269 98.972269 3.402269 125.363269 29.793169L 145.842569 50.272469L 111.710369 84.404669L 91.231069 63.925369C 83.690769 56.385069 71.465569 56.385069 63.925369 63.925369C 56.385069 71.465669 56.385069 83.690769 63.925369 91.231069L 145.842569 173.148269L 111.710369 207.280469L 29.793169 125.363269Z"></path></g></g></g><g id="g-root-3.cu_sy_91i7gga0ylfm-stroke" data-item-order="-89112" transform="translate(202.00054931640625, 237.48681640625)"><g id="3.cu_sy_91i7gga0ylfm-stroke" fill="none" stroke-linecap="round" stroke-linejoin="round" stroke-miterlimit="4" stroke="#92bd39" stroke-width="2"><g><path d="M 125.36327 126.0494C 98.97227 152.4403 56.18417 152.4403 29.79317 126.0494C 3.40227 99.6584 3.40227 56.8703 29.79317 30.4793L 50.27247 10L 84.40467 44.1322L 63.92537 64.6115C 56.38507 72.1517 56.38507 84.3769 63.92537 91.9172C 71.46567 99.4575 83.69077 99.4575 91.23107 91.9172L 173.14827 10L 207.28047 44.1322L 125.36327 126.0494Z"></path></g></g></g><g id="g-root-2.cu_sy_145hohsa0yjnn-stroke" data-item-order="-89108" transform="translate(351.49560546875, 176.0489501953125)"><g id="2.cu_sy_145hohsa0yjnn-stroke" fill="none" stroke-linecap="round" stroke-linejoin="round" stroke-miterlimit="4" stroke="#3cc583" stroke-width="2"><g><path d="M 126.0494 91.9172C 152.4403 118.3081 152.4403 161.0963 126.0494 187.4873C 99.6584 213.8782 56.8702 213.8782 30.4793 187.4873L 10 167.008L 44.1322 132.8758L 64.6115 153.3551C 72.1517 160.8954 84.3769 160.8954 91.9172 153.3551C 99.4575 145.8148 99.4575 133.5896 91.9172 126.0494L 10 44.1322L 44.1322 10L 126.0494 91.9172Z"></path></g></g></g><g id="g-root-1.cu_sy_4nk4lca0ykgc-stroke" data-item-order="-89104" transform="translate(290.05780029296875, 87.99127197265625)"><g id="1.cu_sy_4nk4lca0ykgc-stroke" fill="none" stroke-linecap="round" stroke-linejoin="round" stroke-miterlimit="4" stroke="#1eabda" stroke-width="2"><g><path d="M 91.9172 29.793169C 118.3081 3.402269 161.0963 3.402269 187.4873 29.793169C 213.8782 56.184169 213.8782 98.972269 187.4873 125.363269L 167.008 145.842569L 132.8758 111.710369L 153.3551 91.231069C 160.8954 83.690769 160.8954 71.465569 153.3551 63.925369C 145.8148 56.385069 133.5896 56.385069 126.0494 63.925369L 44.1322 145.842569L 10 111.710369L 91.9172 29.793169Z"></path></g></g></g><g id="g-root-tx_accuracy_18ita9sa1016q-stroke" data-item-order="0" transform="translate(74, 74.99124145507812)"></g><g id="g-root-tx_machinel_vb3mf4a1000d-stroke" data-item-order="0" transform="translate(508, 62.991241455078125)"></g><g id="g-root-tx_usesalgo_v63tq8a100ll-stroke" data-item-order="0" transform="translate(507, 98.9912109375)"></g><g id="g-root-tx_ensuresp_1d3ml34a0ymfa-stroke" data-item-order="0" transform="translate(15, 122.9912109375)"></g><g id="g-root-tx_naturall_me7o00a0zzes-stroke" data-item-order="0" transform="translate(507, 278.9912109375)"></g><g id="g-root-tx_efficien_4lopc0a0zzlv-stroke" data-item-order="0" transform="translate(75, 302.9912109375)"></g><g id="g-root-tx_speedsup_1um5ydca100sn-stroke" data-item-order="0" transform="translate(15, 350.9912109375)"></g><g id="g-root-tx_interpre_ddkv28a100so-stroke" data-item-order="0" transform="translate(506.923828125, 350.9912109375)"></g></g></g></svg>