<?xml version="1.0" encoding="utf-8" standalone="yes"?>
<!DOCTYPE svg PUBLIC "-//W3C//DTD SVG 1.1//EN" "http://www.w3.org/Graphics/SVG/1.1/DTD/svg11.dtd">
<svg width="866" height="230" viewBox="0 0 866 230" style="fill:none;stroke:none;fill-rule:evenodd;clip-rule:evenodd;stroke-linecap:round;stroke-linejoin:round;stroke-miterlimit:1.5;" version="1.1" xmlns="http://www.w3.org/2000/svg" xmlns:xlink="http://www.w3.org/1999/xlink"><style id="fontImports">@import url("https://fonts.googleapis.com/css2?family=Roboto:wght@400;700&amp;display=block");</style><rect id="" x="0" y="0" width="866" height="230" style="fill: none;"></rect><g id="items" style="isolation: isolate"><g id="blend" style="mix-blend-mode: normal"><g id="g-root-tf_1q8u32m6z31u6-fill" data-item-order="-196992" transform="translate(-9, -9)"></g><g id="g-root--1.line_sy_1q7lu6m6p69sa-fill" data-item-order="-5077" transform="translate(762, 170.9951171875)"></g><g id="g-root--1.vector_sy_1uooaha6p6b63-fill" data-item-order="-5073" transform="translate(15, 170.9873046875)"></g><g id="g-root-5.cu-smallCircle_sy_595vy6p69l8-fill" data-item-order="-5069" transform="translate(756, 167.9951171875)"></g><g id="g-root-4.cu-smallCircle_sy_hxs4jy6p69e5-fill" data-item-order="-5065" transform="translate(588, 167.9912109375)"></g><g id="g-root-3.cu-smallCircle_sy_zqb37y6p6972-fill" data-item-order="-5061" transform="translate(420, 167.9912109375)"></g><g id="g-root-2.cu-smallCircle_sy_1d30jri6p69s7-fill" data-item-order="-5057" transform="translate(252, 167.8759765625)"></g><g id="g-root-1.cu-smallCircle_sy_1uljx1q6p7o5k-fill" data-item-order="-5053" transform="translate(84, 167.9912109375)"></g><g id="g-root-tx_recruitp_1ursnwu6p7pqb-fill" data-item-order="0" transform="translate(363, 26.991241455078125)"><g id="tx_recruitp_1ursnwu6p7pqb-fill" stroke="none" fill="#484848"><g><text style="font: 20px &quot;Roboto&quot;, sans-serif; white-space: pre;" font-size="20px" font-family="'Roboto', sans-serif"><tspan x="36.24" y="34.33" dominant-baseline="ideographic">Recruit </tspan><tspan x="13.86" y="58.33" dominant-baseline="ideographic">Participants </tspan><tspan x="39.61" y="82.33" dominant-baseline="ideographic">Faster</tspan></text></g></g></g><g id="g-root-tx_accelera_v5hsem6p7nyh-fill" data-item-order="0" transform="translate(699, 26.991241455078125)"><g id="tx_accelera_v5hsem6p7nyh-fill" stroke="none" fill="#484848"><g><text style="font: 20px &quot;Roboto&quot;, sans-serif; white-space: pre;" font-size="20px" font-family="'Roboto', sans-serif"><tspan x="20.31" y="34.33" dominant-baseline="ideographic">Accelerate </tspan><tspan x="13.38" y="58.33" dominant-baseline="ideographic">Clinical Trial </tspan><tspan x="31.38" y="82.33" dominant-baseline="ideographic">Process</tspan></text></g></g></g><g id="g-root-tx_identify_vbqj9q6p7pj8-fill" data-item-order="0" transform="translate(183, 50.991241455078125)"><g id="tx_identify_vbqj9q6p7pj8-fill" stroke="none" fill="#484848"><g><text style="font: 20px &quot;Roboto&quot;, sans-serif; white-space: pre;" font-size="20px" font-family="'Roboto', sans-serif"><tspan x="13.28" y="34.33" dominant-baseline="ideographic">Identify Eligible </tspan><tspan x="27.06" y="58.33" dominant-baseline="ideographic">Participants</tspan></text></g></g></g><g id="g-root-tx_analyzee_8x5bm66p92bp-fill" data-item-order="0" transform="translate(21, 74.99124145507812)"><g id="tx_analyzee_8x5bm66p92bp-fill" stroke="none" fill="#484848"><g><text style="font: 20px &quot;Roboto&quot;, sans-serif; white-space: pre;" font-size="20px" font-family="'Roboto', sans-serif"><tspan x="12.97" y="34.33" dominant-baseline="ideographic">Analyze EMRs</tspan></text></g></g></g><g id="g-root-tx_reduceco_4l2o0e6p7myq-fill" data-item-order="0" transform="translate(526, 74.99124145507812)"><g id="tx_reduceco_4l2o0e6p7myq-fill" stroke="none" fill="#484848"><g><text style="font: 20px &quot;Roboto&quot;, sans-serif; white-space: pre;" font-size="20px" font-family="'Roboto', sans-serif"><tspan x="14.58" y="34.33" dominant-baseline="ideographic">Reduce Costs</tspan></text></g></g></g><g id="g-root-fold_1ly0dn26z1on9-fill" data-item-order="0" transform="translate(63, 110.9912109375)"></g><g id="g-root-pick_dl27f26zcwlc-fill" data-item-order="0" transform="translate(231, 110.9912109375)"></g><g id="g-root-sele_1um5lou6yytqn-fill" data-item-order="0" transform="translate(399, 110.9912109375)"></g><g id="g-root-5_qte9726za498-fill" data-item-order="0" transform="translate(567, 110.9912109375)"></g><g id="g-root-runn_1hfq49a6pdblt-fill" data-item-order="0" transform="translate(735, 110.9912109375)"></g><g id="g-root-tf_1q8u32m6z31u6-stroke" data-item-order="-196992" transform="translate(-9, -9)"></g><g id="g-root--1.line_sy_1q7lu6m6p69sa-stroke" data-item-order="-5077" transform="translate(762, 170.9951171875)"><g id="-1.line_sy_1q7lu6m6p69sa-stroke" fill="none" stroke-linecap="round" stroke-linejoin="round" stroke-miterlimit="4" stroke="#484848" stroke-width="2"><g><path d="M 77 9.996094L 10 9.996094"></path><path d="M 71 16.496094L 77.5 9.996094L 71 3.496094" stroke-dasharray="none"></path></g></g></g><g id="g-root--1.vector_sy_1uooaha6p6b63-stroke" data-item-order="-5073" transform="translate(15, 170.9873046875)"><g id="-1.vector_sy_1uooaha6p6b63-stroke" fill="none" stroke-linecap="round" stroke-linejoin="round" stroke-miterlimit="4" stroke="#484848" stroke-width="2"><g><path d="M 751 10.0039L 589 10.0039M 583 10.0042L 421 10.0009M 247 10.0039L 85 10.0039M 78.9976 10L 10 10M 415 10.0038L 253 10.0038"></path></g></g></g><g id="g-root-5.cu-smallCircle_sy_595vy6p69l8-stroke" data-item-order="-5069" transform="translate(756, 167.9951171875)"><g id="5.cu-smallCircle_sy_595vy6p69l8-stroke" fill="none" stroke-linecap="round" stroke-linejoin="round" stroke-miterlimit="4" stroke="#484848" stroke-width="2"><g><path d="M 16 13C 16 14.6569 14.6569 16 13 16C 11.3431 16 10 14.6569 10 13C 10 11.3431 11.3431 10 13 10C 14.6569 10 16 11.3431 16 13Z"></path></g></g></g><g id="g-root-4.cu-smallCircle_sy_hxs4jy6p69e5-stroke" data-item-order="-5065" transform="translate(588, 167.9912109375)"><g id="4.cu-smallCircle_sy_hxs4jy6p69e5-stroke" fill="none" stroke-linecap="round" stroke-linejoin="round" stroke-miterlimit="4" stroke="#484848" stroke-width="2"><g><path d="M 16 13C 16 14.6569 14.6569 16 13 16C 11.3431 16 10 14.6569 10 13C 10 11.3431 11.3431 10 13 10C 14.6569 10 16 11.3431 16 13Z"></path></g></g></g><g id="g-root-3.cu-smallCircle_sy_zqb37y6p6972-stroke" data-item-order="-5061" transform="translate(420, 167.9912109375)"><g id="3.cu-smallCircle_sy_zqb37y6p6972-stroke" fill="none" stroke-linecap="round" stroke-linejoin="round" stroke-miterlimit="4" stroke="#484848" stroke-width="2"><g><path d="M 16 13C 16 14.6569 14.6569 16 13 16C 11.3431 16 10 14.6569 10 13C 10 11.3431 11.3431 10 13 10C 14.6569 10 16 11.3431 16 13Z"></path></g></g></g><g id="g-root-2.cu-smallCircle_sy_1d30jri6p69s7-stroke" data-item-order="-5057" transform="translate(252, 167.8759765625)"><g id="2.cu-smallCircle_sy_1d30jri6p69s7-stroke" fill="none" stroke-linecap="round" stroke-linejoin="round" stroke-miterlimit="4" stroke="#484848" stroke-width="2"><g><path d="M 16 13.1154C 16 14.836 14.6569 16.2308 13 16.2308C 11.3431 16.2308 10 14.836 10 13.1154C 10 11.3948 11.3431 10 13 10C 14.6569 10 16 11.3948 16 13.1154Z"></path></g></g></g><g id="g-root-1.cu-smallCircle_sy_1uljx1q6p7o5k-stroke" data-item-order="-5053" transform="translate(84, 167.9912109375)"><g id="1.cu-smallCircle_sy_1uljx1q6p7o5k-stroke" fill="none" stroke-linecap="round" stroke-linejoin="round" stroke-miterlimit="4" stroke="#484848" stroke-width="2"><g><path d="M 16 13C 16 14.6569 14.6569 16 13 16C 11.3431 16 10 14.6569 10 13C 10 11.3431 11.3431 10 13 10C 14.6569 10 16 11.3431 16 13Z"></path></g></g></g><g id="g-root-tx_recruitp_1ursnwu6p7pqb-stroke" data-item-order="0" transform="translate(363, 26.991241455078125)"></g><g id="g-root-tx_accelera_v5hsem6p7nyh-stroke" data-item-order="0" transform="translate(699, 26.991241455078125)"></g><g id="g-root-tx_identify_vbqj9q6p7pj8-stroke" data-item-order="0" transform="translate(183, 50.991241455078125)"></g><g id="g-root-tx_analyzee_8x5bm66p92bp-stroke" data-item-order="0" transform="translate(21, 74.99124145507812)"></g><g id="g-root-tx_reduceco_4l2o0e6p7myq-stroke" data-item-order="0" transform="translate(526, 74.99124145507812)"></g><g id="g-root-fold_1ly0dn26z1on9-stroke" data-item-order="0" transform="translate(63, 110.9912109375)"><g id="fold_1ly0dn26z1on9-stroke" fill="none" stroke-linecap="round" stroke-linejoin="round" stroke-miterlimit="4" stroke="#4e88e7" stroke-width="2"><g><path d="M 47 38C 47 37.447716 46.552284 37 46 37L 41 37L 41 32C 41 31.447716 40.552284 31 40 31L 36 31C 35.447716 31 35 31.447716 35 32L 35 37L 30 37C 29.447716 37 29 37.447716 29 38L 29 42C 29 42.552284 29.447716 43 30 43L 35 43L 35 48C 35 48.552284 35.447716 49 36 49L 40 49C 40.552284 49 41 48.552284 41 48L 41 43L 46 43C 46.552284 43 47 42.552284 47 42ZM 16 55L 51 55C 54.313709 55 57 52.313709 57 49L 57 26C 57 25.447716 56.552284 25 56 25L 22 25C 21.447716 25 21 25.447716 21 26L 21 50C 21 52.761425 18.761425 55 16 55C 13.238577 55 11 52.761425 11 50L 11 14C 11 13.447716 11.447716 13 12 13L 24 13C 24.552284 13 25 13.447716 25 14L 25 18C 25 18.552284 25.447716 19 26 19L 51 19"></path></g></g></g><g id="g-root-pick_dl27f26zcwlc-stroke" data-item-order="0" transform="translate(231, 110.9912109375)"><g id="pick_dl27f26zcwlc-stroke" fill="none" stroke-linecap="round" stroke-linejoin="round" stroke-miterlimit="4" stroke="#3cc583" stroke-width="2"><g><path d="M 27.271999 41.580002C 27.271402 45.330437 30.311563 48.371078 34.062 48.371078C 37.812435 48.371078 40.852596 45.330437 40.851997 41.580002C 40.852596 37.829563 37.812435 34.788918 34.062 34.788918C 30.311563 34.788918 27.271402 37.829563 27.271999 41.580002M 23.652 57C 25.222328 52.683071 29.293978 49.783154 33.88707 49.710361C 38.48016 49.637566 42.641663 52.407001 44.348 56.672001M 15.796 43.993999C 15.796 46.410797 17.755203 48.369999 20.172001 48.369999C 22.588799 48.369999 24.548 46.410797 24.548 43.993999C 24.548 41.577202 22.588799 39.618 20.172001 39.618C 17.755203 39.618 15.796 41.577202 15.796 43.993999M 25.445999 53.838001C 23.941299 52.658298 22.084021 52.018078 20.172001 52.02C 16.930964 52.028675 13.967644 53.851307 12.498 56.739998M 43.452 43.993999C 43.452 46.410797 45.411201 48.369999 47.827999 48.369999C 50.244797 48.369999 52.203999 46.410797 52.203999 43.993999C 52.203999 41.577202 50.244797 39.618 47.827999 39.618C 45.411201 39.618 43.452 41.577202 43.452 43.993999M 55.501999 56.740002C 54.032352 53.851307 51.069035 52.028675 47.827999 52.019997C 45.948448 52.015881 44.120258 52.633244 42.628002 53.776001M 47 11L 39.711998 11.2C 38.377304 11.2377 37.086403 11.684522 36.014 12.48L 29.040001 17.653999C 27.575289 18.743141 26.518806 20.29265 26.040001 22.054001L 24.84 26.483999C 24.363297 27.842503 24.357662 29.321907 24.824001 30.684C 25.552889 32.108547 27.222017 32.775688 28.732 32.246002C 29.620253 31.963127 30.30036 31.242968 30.532001 30.34L 32.028 24.084C 32.273464 23.503872 32.686401 23.010155 33.214001 22.666L 38.223999 19.4C 39.157883 18.789135 40.343842 18.713209 41.348 19.200001C 42.147999 19.6 43.560001 20.372 43.872002 21.172001C 44.48856 22.440083 44.269863 23.955914 43.32 24.997999L 39.57 28.656C 38.420204 29.705395 38.228401 31.445349 39.122002 32.720001C 40.271999 34.09 41.888 33.284 43.380001 32.251999L 50.119999 27.587999C 50.709465 27.17837 51.144085 26.582441 51.354 25.896L 52.754002 21.318001"></path></g></g></g><g id="g-root-sele_1um5lou6yytqn-stroke" data-item-order="0" transform="translate(399, 110.9912109375)"><g id="sele_1um5lou6yytqn-stroke" fill="none" stroke-linecap="round" stroke-linejoin="round" stroke-miterlimit="4" stroke="#92bd39" stroke-width="2"><g><path d="M 47.436001 15.243999L 48.436001 15.243999M 53.284 16.955999C 54.698021 18.285069 55.423061 20.190077 55.250538 22.122978C 55.078014 24.055882 54.02705 25.802368 52.400002 26.860001M 49.956001 27.799999C 49.625328 27.853231 49.290932 27.879984 48.956001 27.879999M 44.84 48.528L 44.924 49.523998M 45.43 55.599998L 45.514 56.596001L 46.514 56.596001M 51.405998 56.596001L 52.405998 56.596001L 52.487999 55.599998M 52.827999 51.529999L 53.110001 48.139999M 53.279999 46.105999L 53.363998 45.110001L 54.363998 45.110001M 56 45.110001L 57 45.110001L 57 44.110001M 57 38.959999L 57 38.218002C 56.99942 34.611294 54.598804 31.445621 51.125999 30.472M 48.574001 30.186001C 48.242088 30.201553 47.911457 30.237623 47.584 30.293999M 27.204 18.282C 27.204 22.080614 30.283386 25.16 34.082001 25.16C 37.880615 25.16 40.959999 22.080614 40.959999 18.282C 40.959999 14.483385 37.880615 11.404 34.082001 11.404C 30.283386 11.404 27.204 14.483385 27.204 18.282M 25.327999 36.412003C 25.400293 31.629436 29.297892 27.79031 34.081001 27.79031C 38.864105 27.79031 42.761703 31.629436 42.834 36.411999L 42.834 43.916L 38.875999 43.916L 37.832001 56.419998L 30.33 56.419998L 29.288 43.916L 25.327999 43.916ZM 20.563999 15.243999L 19.563999 15.243999M 14.716 16.955999C 13.30198 18.285069 12.576939 20.190077 12.749464 22.122978C 12.921988 24.055882 13.97295 25.802368 15.6 26.860001M 18.043999 27.799999C 18.374674 27.853231 18.709068 27.879984 19.043999 27.879999M 23.16 48.528L 23.076 49.523998M 22.57 55.599998L 22.486 56.596001L 21.486 56.596001M 16.594 56.596001L 15.594 56.596001L 15.512 55.599998M 15.172 51.529999L 14.889999 48.139999M 14.719999 46.105999L 14.636 45.110001L 13.636 45.110001M 12 45.110001L 11 45.110001L 11 44.110001M 11 38.959999L 11 38.218002C 11.000579 34.611294 13.401194 31.445621 16.874001 30.472M 19.425999 30.186001C 19.761257 30.201139 20.095242 30.237211 20.425999 30.293999M 29.148001 13.493999C 32.223961 16.691753 36.513527 18.432301 40.947998 18.282"></path></g></g></g><g id="g-root-5_qte9726za498-stroke" data-item-order="0" transform="translate(567, 110.9912109375)"><g id="5_qte9726za498-stroke" fill="none" stroke-linecap="round" stroke-linejoin="round" stroke-miterlimit="4" stroke="#e0cb15" stroke-width="2"><g><path d="M 11.714286 30.571428L 11.714286 15.142858C 11.714286 13.24931 13.24931 11.714286 15.142858 11.714286L 52.857143 11.714286C 54.750694 11.714286 56.285713 13.24931 56.285713 15.142858L 56.285713 52.857143C 56.285713 54.750694 54.750694 56.285713 52.857143 56.285713L 37.428574 56.285713M 23.714287 56.285713L 11.714286 56.285713L 11.714286 44.285713M 11.714286 56.285713L 34 34"></path></g></g></g><g id="g-root-runn_1hfq49a6pdblt-stroke" data-item-order="0" transform="translate(735, 110.9912109375)"><g id="runn_1hfq49a6pdblt-stroke" fill="none" stroke-linecap="round" stroke-linejoin="round" stroke-miterlimit="4" stroke="#de8431" stroke-width="2"><g><path d="M 28 53L 23 53M 51 36.5C 51.276142 36.5 51.5 36.723858 51.5 37M 50.5 37C 50.5 36.723858 50.723858 36.5 51 36.5M 51 37.5C 50.723858 37.5 50.5 37.276142 50.5 37M 51.5 37C 51.5 37.276142 51.276142 37.5 51 37.5M 22.998001 49L 25 49M 23 53C 21.895432 53 21 52.104568 21 51C 21 49.895432 21.895432 49 23 49M 25 31C 29 31 32.688 34 35 41C 36 44 39 53 39 53L 47 53C 48.104568 53 49 53.895432 49 55C 49 56.104568 48.104568 57 47 57L 35 57C 35 57 31.954 52.029999 30.084 49C 27 44 21.25 41.082001 17.25 38.332001C 13.25 35.582001 10.546 29.452 14 25C 18.498001 19.200001 27.166 21.5 29.934 24.700001L 37.632 32.400002C 38.385223 33.179871 39.500633 33.492634 40.549522 33.218086C 41.598408 32.943542 42.417542 32.124405 42.692089 31.075521C 42.966637 30.026634 42.65387 28.911224 41.874001 28.158001L 29.874001 16.124001C 28.702053 14.9515 28.702499 13.050948 29.875 11.879C 31.047501 10.707052 32.948051 10.7075 34.120003 11.88L 54.624001 32.384003L 54.624001 32.384003C 56.246632 33.784367 57.124908 35.860287 56.999996 38C 57 41 55 43 51 43L 46 43L 40.987999 46.512001M 13.375999 25.936001C 11.895309 25.621548 10.880834 24.253269 11.010182 22.745092C 11.139531 21.236916 12.372178 20.061363 13.884789 20.003628C 15.397401 19.945896 16.716068 21.024071 16.959999 22.518002"></path></g></g></g></g></g></svg>