<?xml version="1.0" encoding="utf-8" standalone="yes"?>
<!DOCTYPE svg PUBLIC "-//W3C//DTD SVG 1.1//EN" "http://www.w3.org/Graphics/SVG/1.1/DTD/svg11.dtd">
<svg width="603" height="470" viewBox="0 0 603 470" style="fill:none;stroke:none;fill-rule:evenodd;clip-rule:evenodd;stroke-linecap:round;stroke-linejoin:round;stroke-miterlimit:1.5;" version="1.1" xmlns="http://www.w3.org/2000/svg" xmlns:xlink="http://www.w3.org/1999/xlink"><style id="fontImports">@import url("https://fonts.googleapis.com/css2?family=Roboto:wght@400;700&amp;display=block");</style><rect id="" x="0" y="0" width="602.112" height="470" style="fill: none;"></rect><g id="items" style="isolation: isolate"><g id="blend" style="mix-blend-mode: normal"><g id="g-root-tf_mgpttb51ij2g-fill" data-item-order="-280852" transform="translate(-9, -9)"></g><g id="g-root-4.cu_sy_24pbj4r6arp-fill" data-item-order="-108858" transform="translate(124.10736083984375, 302.2830810546875)"></g><g id="g-root-4.line_sy_hunnzj4r6akm-fill" data-item-order="-108853" transform="translate(211, 345.0096435546875)"></g><g id="g-root-3.cu_sy_14304rz4r69lb-fill" data-item-order="-108850" transform="translate(105.70059204101562, 228.9354248046875)"></g><g id="g-root-3.line_sy_1uqjmlr4r6brc-fill" data-item-order="-108845" transform="translate(226, 267.0096435546875)"></g><g id="g-root-2.cu_sy_dhyjan4r6brd-fill" data-item-order="-108842" transform="translate(74.96014404296875, 156.0291748046875)"></g><g id="g-root-2.line_sy_1464i7j4r6arm-fill" data-item-order="-108837" transform="translate(249, 195.0096435546875)"></g><g id="g-root-1.cu_sy_1lyngvj4r6akj-fill" data-item-order="-108834" transform="translate(15, 63.0096435546875)"></g><g id="g-root-1.line_sy_8vwab34r7ocs-fill" data-item-order="-108829" transform="translate(289, 123.0096435546875)"></g><g id="g-root-tx_equipmen_1d30dgv51h5om-fill" data-item-order="0" transform="translate(51, 15.0096435546875)"><g id="tx_equipmen_1d30dgv51h5om-fill" stroke="none" fill="#484848"><g><text style="font: 20px &quot;Roboto&quot;, sans-serif; white-space: pre;" font-size="20px" font-family="'Roboto', sans-serif"><tspan x="12.17" y="34.33" dominant-baseline="ideographic">Equipment Data Collection</tspan></text></g></g></g><g id="g-root-acti_zs6c6n51fqps-fill" data-item-order="0" transform="translate(147.224365234375, 111.1209716796875)"></g><g id="g-root-tx_datamoni_1d1rfan51h3il-fill" data-item-order="0" transform="translate(375, 111.0096435546875)"><g id="tx_datamoni_1d1rfan51h3il-fill" stroke="none" fill="#484848"><g><text style="font: 20px &quot;Roboto&quot;, sans-serif; white-space: pre;" font-size="20px" font-family="'Roboto', sans-serif"><tspan x="12" y="34.33" dominant-baseline="ideographic">Data Monitoring</tspan></text></g></g></g><g id="g-root-id_mdl0kv51ik24-fill" data-item-order="0" transform="translate(147.224365234375, 183.1209716796875)"></g><g id="g-root-tx_patternd_1hfpi5r51h4hw-fill" data-item-order="0" transform="translate(375.112060546875, 183.0096435546875)"><g id="tx_patternd_1hfpi5r51h4hw-fill" stroke="none" fill="#484848"><g><text style="font: 20px &quot;Roboto&quot;, sans-serif; white-space: pre;" font-size="20px" font-family="'Roboto', sans-serif"><tspan x="12" y="34.33" dominant-baseline="ideographic">Pattern Detection</tspan></text></g></g></g><g id="g-root-line_hrii3z515wjt-fill" data-item-order="0" transform="translate(147.224365234375, 255.1209716796875)"></g><g id="g-root-tx_predicti_1q9h35b51h4oz-fill" data-item-order="0" transform="translate(375.112060546875, 255.0096435546875)"><g id="tx_predicti_1q9h35b51h4oz-fill" stroke="none" fill="#484848"><g><text style="font: 20px &quot;Roboto&quot;, sans-serif; white-space: pre;" font-size="20px" font-family="'Roboto', sans-serif"><tspan x="12" y="34.33" dominant-baseline="ideographic">Predictive Analytics</tspan></text></g></g></g><g id="g-root-wren_mahir34rlrlv-fill" data-item-order="0" transform="translate(147.224365234375, 327.1209716796875)"></g><g id="g-root-tx_maintena_24m5r51h536-fill" data-item-order="0" transform="translate(375.112060546875, 327.0096435546875)"><g id="tx_maintena_24m5r51h536-fill" stroke="none" fill="#484848"><g><text style="font: 20px &quot;Roboto&quot;, sans-serif; white-space: pre;" font-size="20px" font-family="'Roboto', sans-serif"><tspan x="12" y="34.33" dominant-baseline="ideographic">Maintenance Action</tspan></text></g></g></g><g id="g-root-tx_reducedd_1um67u751h3i9-fill" data-item-order="0" transform="translate(81, 411.0096435546875)"><g id="tx_reducedd_1um67u751h3i9-fill" stroke="none" fill="#484848"><g><text style="font: 20px &quot;Roboto&quot;, sans-serif; white-space: pre;" font-size="20px" font-family="'Roboto', sans-serif"><tspan x="13.68" y="34.33" dominant-baseline="ideographic">Reduced Downtime</tspan></text></g></g></g><g id="g-root-tf_mgpttb51ij2g-stroke" data-item-order="-280852" transform="translate(-9, -9)"></g><g id="g-root-4.cu_sy_24pbj4r6arp-stroke" data-item-order="-108858" transform="translate(124.10736083984375, 302.2830810546875)"><g id="4.cu_sy_24pbj4r6arp-stroke" fill="none" stroke-linecap="round" stroke-linejoin="round" stroke-miterlimit="4" stroke="#e0cb15" stroke-width="2"><g><path d="M 10 10C 14.464699 33.297303 17.991699 57.615509 20.668594 82.726318C 20.668594 89.353699 36.886688 94.726318 56.8927 94.726318C 76.898804 94.726318 93.116897 89.353699 93.116897 82.726318C 95.789795 57.653504 99.310104 33.37091 103.765198 10.105804L 103.505295 10.919403C 100.607101 17.575988 80.845703 22.726197 56.898895 22.726197C 32.866699 22.726197 13.049797 17.539307 10.2621 10.848115L 10 10Z"></path></g></g></g><g id="g-root-4.line_sy_hunnzj4r6akm-stroke" data-item-order="-108853" transform="translate(211, 345.0096435546875)"><g id="4.line_sy_hunnzj4r6akm-stroke" fill="none" stroke-linecap="round" stroke-linejoin="round" stroke-miterlimit="4" stroke="#484848" stroke-width="2"><g><path d="M 150 10L 12 10"></path><path d="M 18 3.5L 11.5 10L 18 16.5" stroke-dasharray="none"></path></g></g></g><g id="g-root-3.cu_sy_14304rz4r69lb-stroke" data-item-order="-108850" transform="translate(105.70059204101562, 228.9354248046875)"><g id="3.cu_sy_14304rz4r69lb-stroke" fill="none" stroke-linecap="round" stroke-linejoin="round" stroke-miterlimit="4" stroke="#92bd39" stroke-width="2"><g><path d="M 10.000488 10C 17.365791 32.989807 23.461594 57.542389 28.406891 83.347504L 28.668892 84.195801C 31.456497 90.886902 51.273392 96.073914 75.305603 96.073914C 99.252396 96.073914 119.013886 90.923706 121.911987 84.266999L 122.172089 83.453308C 127.104492 57.695709 133.182587 33.185303 140.524994 10.2305L 140.297897 10.927704C 136.362793 18.346192 108.741287 24.073487 75.421997 24.073487C 41.887787 24.073487 13.931595 18.34729 10.27739 10.859406L 10.000488 10Z"></path></g></g></g><g id="g-root-3.line_sy_1uqjmlr4r6brc-stroke" data-item-order="-108845" transform="translate(226, 267.0096435546875)"><g id="3.line_sy_1uqjmlr4r6brc-stroke" fill="none" stroke-linecap="round" stroke-linejoin="round" stroke-miterlimit="4" stroke="#484848" stroke-width="2"><g><path d="M 135 10L 12 10"></path><path d="M 18 3.5L 11.5 10L 18 16.5" stroke-dasharray="none"></path></g></g></g><g id="g-root-2.cu_sy_dhyjan4r6brd-stroke" data-item-order="-108842" transform="translate(74.96014404296875, 156.0291748046875)"><g id="2.cu_sy_dhyjan4r6brd-stroke" fill="none" stroke-linecap="round" stroke-linejoin="round" stroke-miterlimit="4" stroke="#3cc583" stroke-width="2"><g><path d="M 10 10.060807C 22.058304 31.945297 32.244202 56.385803 40.740692 82.905884L 41.017899 83.765595C 44.672104 91.25351 72.628204 96.979798 106.162399 96.979798C 139.481689 96.979798 167.103195 91.252503 171.038391 83.833985L 171.265198 83.136414C 179.784302 56.502808 190.005203 31.963394 202.113098 10L 201.764313 10.612702C 195.717102 18.729492 155.154602 24.979706 106.107697 24.979706C 56.941193 24.979706 16.210297 18.774094 10.316696 10.628495L 10 10.060807Z"></path></g></g></g><g id="g-root-2.line_sy_1464i7j4r6arm-stroke" data-item-order="-108837" transform="translate(249, 195.0096435546875)"><g id="2.line_sy_1464i7j4r6arm-stroke" fill="none" stroke-linecap="round" stroke-linejoin="round" stroke-miterlimit="4" stroke="#484848" stroke-width="2"><g><path d="M 112 10L 12 10"></path><path d="M 18 3.5L 11.5 10L 18 16.5" stroke-dasharray="none"></path></g></g></g><g id="g-root-1.cu_sy_1lyngvj4r6akj-stroke" data-item-order="-108834" transform="translate(15, 63.0096435546875)"><g id="1.cu_sy_1lyngvj4r6akj-stroke" fill="none" stroke-linecap="round" stroke-linejoin="round" stroke-miterlimit="4" stroke="#1eabda" stroke-width="2"><g><path d="M 166 10C 79.843582 10 10 18.058868 10 28C 10 37.941132 79.843582 46 166 46C 252.156418 46 322 37.941132 322 28C 322 18.058868 252.156418 10 166 10M 11.027405 30.074219C 30.834991 46.413513 52.862 71.289215 70.10379 103.506119C 75.617584 110.763321 108.929688 118.000519 165.989792 118.000519C 223.248993 118.000519 258.314087 110.388123 262.259491 102.96933C 280.650879 68.386719 304.786194 43.199326 320.95459 30.09642"></path></g></g></g><g id="g-root-1.line_sy_8vwab34r7ocs-stroke" data-item-order="-108829" transform="translate(289, 123.0096435546875)"><g id="1.line_sy_8vwab34r7ocs-stroke" fill="none" stroke-linecap="round" stroke-linejoin="round" stroke-miterlimit="4" stroke="#484848" stroke-width="2"><g><path d="M 72 10L 12 10"></path><path d="M 18 3.5L 11.5 10L 18 16.5" stroke-dasharray="none"></path></g></g></g><g id="g-root-tx_equipmen_1d30dgv51h5om-stroke" data-item-order="0" transform="translate(51, 15.0096435546875)"></g><g id="g-root-acti_zs6c6n51fqps-stroke" data-item-order="0" transform="translate(147.224365234375, 111.1209716796875)"><g id="acti_zs6c6n51fqps-stroke" fill="none" stroke-linecap="round" stroke-linejoin="round" stroke-miterlimit="4" stroke="#1eabda" stroke-width="2"><g><path d="M 20.285715 11.714286L 47.714287 11.714286C 47.714287 11.714286 51.142857 11.714286 51.142857 15.142858L 51.142857 42.57143C 51.142857 42.57143 51.142857 46 47.714287 46L 20.285715 46C 20.285715 46 16.857143 46 16.857143 42.57143L 16.857143 15.142858C 16.857143 15.142858 16.857143 11.714286 20.285715 11.714286M 25.428572 28.857143C 25.428572 33.591011 29.266132 37.428574 34 37.428574C 38.733868 37.428574 42.57143 33.591011 42.57143 28.857143C 42.57143 24.123276 38.733868 20.285715 34 20.285715C 29.266132 20.285715 25.428572 24.123276 25.428572 28.857143M 39.142857 46L 39.142857 56.285713M 28.857143 46L 28.857143 56.285713M 23.714287 56.285713L 44.285713 56.285713"></path></g></g></g><g id="g-root-tx_datamoni_1d1rfan51h3il-stroke" data-item-order="0" transform="translate(375, 111.0096435546875)"></g><g id="g-root-id_mdl0kv51ik24-stroke" data-item-order="0" transform="translate(147.224365234375, 183.1209716796875)"><g id="id_mdl0kv51ik24-stroke" fill="none" stroke-linecap="round" stroke-linejoin="round" stroke-miterlimit="4" stroke="#3cc583" stroke-width="2"><g><path d="M 27 57L 13 57C 11.895431 57 11 56.104568 11 55L 11 41M 27 11L 13 11C 11.895431 11 11 11.895431 11 13L 11 27M 41 57L 55 57C 56.104568 57 57 56.104568 57 55L 57 41M 41 11L 55 11C 56.104568 11 57 11.895431 57 13L 57 27M 19 30L 19 38M 24 28L 24 40M 29 26L 29 42M 49 30L 49 38M 44 28L 44 40M 39 26L 39 42M 34 20L 34 48"></path></g></g></g><g id="g-root-tx_patternd_1hfpi5r51h4hw-stroke" data-item-order="0" transform="translate(375.112060546875, 183.0096435546875)"></g><g id="g-root-line_hrii3z515wjt-stroke" data-item-order="0" transform="translate(147.224365234375, 255.1209716796875)"><g id="line_hrii3z515wjt-stroke" fill="none" stroke-linecap="round" stroke-linejoin="round" stroke-miterlimit="4" stroke="#92bd39" stroke-width="2"><g><path d="M 11.008 34C 11.008 46.702549 21.30545 57 34.008003 57C 46.710548 57 57.007999 46.702549 57.007999 34C 57.007999 21.297451 46.710548 11 34.008003 11C 21.30545 11 11.008 21.297451 11.008 34ZM 47.007999 45L 21.007999 45L 21.007999 25M 21 35L 26.378 31.926001C 27.291264 31.403624 28.453098 31.678127 29.035999 32.554001L 32.860001 38.290001C 33.044575 38.730682 33.483971 39.00988 33.961323 38.989807C 34.438675 38.96973 34.853073 38.654621 35 38.199997L 39.528 29.879999C 39.830055 29.326275 40.375626 28.947491 41 28.858L 47 28"></path></g></g></g><g id="g-root-tx_predicti_1q9h35b51h4oz-stroke" data-item-order="0" transform="translate(375.112060546875, 255.0096435546875)"></g><g id="g-root-wren_mahir34rlrlv-stroke" data-item-order="0" transform="translate(147.224365234375, 327.1209716796875)"><g id="wren_mahir34rlrlv-stroke" fill="none" stroke-linecap="round" stroke-linejoin="round" stroke-miterlimit="4" stroke="#e0cb15" stroke-width="2"><g><path d="M 17 35.650002L 17 54.650002C 17 55.202286 17.447716 55.650002 18 55.650002L 50 55.650002C 50.552284 55.650002 51 55.202286 51 54.650002L 51 36.650002M 11 34.650002L 32.799999 12.85C 33.459297 12.190256 34.528702 12.190256 35.188 12.85L 56.987999 34.650002M 37 51.650002L 37 40.975998C 40.168713 39.473503 41.73661 35.858109 40.667999 32.518002L 38.267998 34.896C 37.287621 35.868149 35.704849 35.861679 34.732452 34.88155C 33.760056 33.901421 33.766121 32.318649 34.746002 31.346001L 37.517998 28.6C 35.295456 27.306601 32.542686 27.335936 30.348207 28.676407C 28.153728 30.016878 26.870899 32.452644 27.006979 35.020538C 27.143061 37.588432 28.67614 39.874969 31 40.976002L 31 51.650002"></path></g></g></g><g id="g-root-tx_maintena_24m5r51h536-stroke" data-item-order="0" transform="translate(375.112060546875, 327.0096435546875)"></g><g id="g-root-tx_reducedd_1um67u751h3i9-stroke" data-item-order="0" transform="translate(81, 411.0096435546875)"></g></g></g></svg>