<?xml version="1.0" encoding="utf-8" standalone="yes"?>
<!DOCTYPE svg PUBLIC "-//W3C//DTD SVG 1.1//EN" "http://www.w3.org/Graphics/SVG/1.1/DTD/svg11.dtd">
<svg width="602" height="507" viewBox="0 0 602 507" style="fill:none;stroke:none;fill-rule:evenodd;clip-rule:evenodd;stroke-linecap:round;stroke-linejoin:round;stroke-miterlimit:1.5;" version="1.1" xmlns="http://www.w3.org/2000/svg" xmlns:xlink="http://www.w3.org/1999/xlink"><style id="fontImports">@import url("https://fonts.googleapis.com/css2?family=Roboto:wght@400;700&amp;display=block");</style><rect id="" x="0" y="0" width="602" height="506.01" style="fill: none;"></rect><g id="items" style="isolation: isolate"><g id="blend" style="mix-blend-mode: normal"><g id="g-root-tf_qrk2by65ib66-fill" data-item-order="-302406" transform="translate(-9, -9)"></g><g id="g-root-4.cu_sy_me7xla65b95a-fill" data-item-order="-109012" transform="translate(362.2734375, 208.36212158203125)"></g><g id="g-root-4.line_sy_qvadvy65baj3-fill" data-item-order="-109007" transform="translate(399, 296.063232421875)"></g><g id="g-root-3.cu_sy_1d3muoe65babk-fill" data-item-order="-109004" transform="translate(288.92578125, 190.00909423828125)"></g><g id="g-root-3.line_sy_vo3y65co3t-fill" data-item-order="-108999" transform="translate(327, 147.01055908203125)"></g><g id="g-root-2.cu_sy_htemry65cnwq-fill" data-item-order="-108996" transform="translate(216.01953125, 159.16143798828125)"></g><g id="g-root-2.line_sy_18gy4lq65cq2r-fill" data-item-order="-108991" transform="translate(255, 333.010986328125)"></g><g id="g-root-1.cu_sy_1upale665cp3g-fill" data-item-order="-108988" transform="translate(123, 99.23468017578125)"></g><g id="g-root-1.line_sy_mcciby65coat-fill" data-item-order="-108983" transform="translate(183, 74.76055908203125)"></g><g id="g-root-tx_contente_hxshce65gxl7-fill" data-item-order="0" transform="translate(135, 15.01055908203125)"><g id="tx_contente_hxshce65gxl7-fill" stroke="none" fill="#484848"><g><text style="font: 20px &quot;Roboto&quot;, sans-serif; white-space: pre;" font-size="20px" font-family="'Roboto', sans-serif"><tspan x="22.92" y="34.33" dominant-baseline="ideographic">Content </tspan><tspan x="13.32" y="58.33" dominant-baseline="ideographic">Extraction</tspan></text></g></g></g><g id="g-root-tx_datareda_1upb4cu65gw7d-fill" data-item-order="0" transform="translate(225, 87.23468017578125)"><g id="tx_datareda_1upb4cu65gw7d-fill" stroke="none" fill="#484848"><g><text style="font: 20px &quot;Roboto&quot;, sans-serif; white-space: pre;" font-size="20px" font-family="'Roboto', sans-serif"><tspan x="13.32" y="34.33" dominant-baseline="ideographic">Redaction of personal </tspan><tspan x="89.96" y="58.33" dominant-baseline="ideographic">Data</tspan></text></g></g></g><g id="g-root-tx_document_vahxvy65gy6c-fill" data-item-order="0" transform="translate(15, 231.010498046875)"><g id="tx_document_vahxvy65gy6c-fill" stroke="none" fill="#484848"><g><text style="font: 20px &quot;Roboto&quot;, sans-serif; white-space: pre;" font-size="20px" font-family="'Roboto', sans-serif"><tspan x="12.28" y="34.33" dominant-baseline="ideographic">Document </tspan><tspan x="21.58" y="58.33" dominant-baseline="ideographic">Ingestion</tspan></text></g></g></g><g id="g-root-sear_18ntvim65fhfy-fill" data-item-order="0" transform="translate(171, 231.010498046875)"></g><g id="g-root-1_hrjk5q65gydi-fill" data-item-order="0" transform="translate(243, 231.010498046875)"></g><g id="g-root-1_1lpx03y65cqo1-fill" data-item-order="0" transform="translate(315, 231.010498046875)"></g><g id="g-root-chec_1d2e2tq65gxdx-fill" data-item-order="0" transform="translate(387, 231.010498046875)"></g><g id="g-root-tx_complian_1lqjqoe65gwlj-fill" data-item-order="0" transform="translate(459, 219.010498046875)"><g id="tx_complian_1lqjqoe65gwlj-fill" stroke="none" fill="#484848"><g><text style="font: 20px &quot;Roboto&quot;, sans-serif; white-space: pre;" font-size="20px" font-family="'Roboto', sans-serif"><tspan x="12" y="34.33" dominant-baseline="ideographic">Efficient </tspan><tspan x="12" y="58.33" dominant-baseline="ideographic">Document </tspan><tspan x="12" y="82.33" dominant-baseline="ideographic">Processing</tspan></text></g></g></g><g id="g-root-tx_complian_1q7m6z265gxzc-fill" data-item-order="0" transform="translate(339, 339.010498046875)"><g id="tx_complian_1q7m6z265gxzc-fill" stroke="none" fill="#484848"><g><text style="font: 20px &quot;Roboto&quot;, sans-serif; white-space: pre;" font-size="20px" font-family="'Roboto', sans-serif"><tspan x="14.6" y="34.33" dominant-baseline="ideographic">Compliance </tspan><tspan x="17.15" y="58.33" dominant-baseline="ideographic">Verification</tspan></text></g></g></g><g id="g-root-tx_sensitiv_dgq11q65gw7e-fill" data-item-order="0" transform="translate(183, 399.010498046875)"><g id="tx_sensitiv_dgq11q65gw7e-fill" stroke="none" fill="#484848"><g><text style="font: 20px &quot;Roboto&quot;, sans-serif; white-space: pre;" font-size="20px" font-family="'Roboto', sans-serif"><tspan x="16.23" y="34.33" dominant-baseline="ideographic">Sensitive Data </tspan><tspan x="36.97" y="58.33" dominant-baseline="ideographic">Detection</tspan></text></g></g></g><g id="g-root-tf_qrk2by65ib66-stroke" data-item-order="-302406" transform="translate(-9, -9)"></g><g id="g-root-4.cu_sy_me7xla65b95a-stroke" data-item-order="-109012" transform="translate(362.2734375, 208.36212158203125)"><g id="4.cu_sy_me7xla65b95a-stroke" fill="none" stroke-linecap="round" stroke-linejoin="round" stroke-miterlimit="4" stroke="#e0cb15" stroke-width="2"><g><path d="M 10 103.7652C 33.297301 99.300501 57.6155 95.773501 82.7263 93.0966C 89.353701 93.0966 94.7263 76.8785 94.7263 56.872501C 94.7263 36.866401 89.353701 20.648301 82.7263 20.648301C 57.653501 17.9754 33.370901 14.455101 10.1058 10L 10.9194 10.259901C 17.576001 13.1581 22.726201 32.919501 22.726201 56.866301C 22.726201 80.898501 17.539301 100.7154 10.8481 103.503101L 10 103.7652Z"></path></g></g></g><g id="g-root-4.line_sy_qvadvy65baj3-stroke" data-item-order="-109007" transform="translate(399, 296.063232421875)"><g id="4.line_sy_qvadvy65baj3-stroke" fill="none" stroke-linecap="round" stroke-linejoin="round" stroke-miterlimit="4" stroke="#484848" stroke-width="2"><g><path d="M 10 11.997314L 10 40.947314"></path><path d="M 16.5 17.997314L 10 11.497314L 3.5 17.997314" stroke-dasharray="none"></path></g></g></g><g id="g-root-3.cu_sy_1d3muoe65babk-stroke" data-item-order="-109004" transform="translate(288.92578125, 190.00909423828125)"><g id="3.cu_sy_1d3muoe65babk-stroke" fill="none" stroke-linecap="round" stroke-linejoin="round" stroke-miterlimit="4" stroke="#92bd39" stroke-width="2"><g><path d="M 10 140.5245C 32.9898 133.1592 57.5424 127.0634 83.3475 122.1181L 84.1958 121.8561C 90.8869 119.0685 96.0739 99.2516 96.0739 75.2194C 96.0739 51.2726 90.9237 31.5111 84.267 28.613L 83.4533 28.3529C 57.6957 23.4205 33.1853 17.3424 10.2305 10L 10.9277 10.2271C 18.3462 14.1622 24.0735 41.7837 24.0735 75.103C 24.0735 108.6372 18.3473 136.5934 10.8594 140.2476L 10 140.5245Z"></path></g></g></g><g id="g-root-3.line_sy_vo3y65co3t-stroke" data-item-order="-108999" transform="translate(327, 147.01055908203125)"><g id="3.line_sy_vo3y65co3t-stroke" fill="none" stroke-linecap="round" stroke-linejoin="round" stroke-miterlimit="4" stroke="#484848" stroke-width="2"><g><path d="M 10 10L 10 61.6"></path><path d="M 3.5 55.6L 10 62.1L 16.5 55.6" stroke-dasharray="none"></path></g></g></g><g id="g-root-2.cu_sy_htemry65cnwq-stroke" data-item-order="-108996" transform="translate(216.01953125, 159.16143798828125)"><g id="2.cu_sy_htemry65cnwq-stroke" fill="none" stroke-linecap="round" stroke-linejoin="round" stroke-miterlimit="4" stroke="#3cc583" stroke-width="2"><g><path d="M 10.0608 202.1131C 31.9453 190.0548 56.3858 179.8689 82.9059 171.3724L 83.7656 171.0952C 91.2535 167.441 96.9798 139.4849 96.9798 105.9507C 96.9798 72.6314 91.2525 45.0099 83.834 41.0747L 83.1364 40.8479C 56.5028 32.3288 31.9634 22.1079 10 10L 10.6127 10.3488C 18.7295 16.396 24.9797 56.9585 24.9797 106.0054C 24.9797 155.1719 18.7741 195.9028 10.6285 201.7964L 10.0608 202.1131Z"></path></g></g></g><g id="g-root-2.line_sy_18gy4lq65cq2r-stroke" data-item-order="-108991" transform="translate(255, 333.010986328125)"><g id="2.line_sy_18gy4lq65cq2r-stroke" fill="none" stroke-linecap="round" stroke-linejoin="round" stroke-miterlimit="4" stroke="#484848" stroke-width="2"><g><path d="M 10 11.999512L 10 64.159512"></path><path d="M 16.5 17.999512L 10 11.499512L 3.5 17.999512" stroke-dasharray="none"></path></g></g></g><g id="g-root-1.cu_sy_1upale665cp3g-stroke" data-item-order="-108988" transform="translate(123, 99.23468017578125)"><g id="1.cu_sy_1upale665cp3g-stroke" fill="none" stroke-linecap="round" stroke-linejoin="round" stroke-miterlimit="4" stroke="#1eabda" stroke-width="2"><g><path d="M 10 166C 10 252.156423 18.058875 322.000002 28 322.000002C 37.941126 322.000002 46 252.156423 46 166.000002C 46 79.843581 37.941126 10.000002 28 10.000002C 18.058875 10.000002 10 79.843581 10 166.000002M 30.074219 320.97261C 46.413519 301.16501 71.289219 279.13801 103.506119 261.89621C 110.763319 256.38241 118.000519 223.07031 118.000519 166.01021C 118.000519 108.75101 110.388119 73.68591 102.969319 69.74051C 68.386719 51.34911 43.199319 27.21381 30.096419 11.04541"></path></g></g></g><g id="g-root-1.line_sy_mcciby65coat-stroke" data-item-order="-108983" transform="translate(183, 74.76055908203125)"><g id="1.line_sy_mcciby65coat-stroke" fill="none" stroke-linecap="round" stroke-linejoin="round" stroke-miterlimit="4" stroke="#484848" stroke-width="2"><g><path d="M 10 10L 10 71.23"></path><path d="M 3.5 65.2L 10 71.7L 16.5 65.2" stroke-dasharray="none"></path></g></g></g><g id="g-root-tx_contente_hxshce65gxl7-stroke" data-item-order="0" transform="translate(135, 15.01055908203125)"></g><g id="g-root-tx_datareda_1upb4cu65gw7d-stroke" data-item-order="0" transform="translate(225, 87.23468017578125)"></g><g id="g-root-tx_document_vahxvy65gy6c-stroke" data-item-order="0" transform="translate(15, 231.010498046875)"></g><g id="g-root-sear_18ntvim65fhfy-stroke" data-item-order="0" transform="translate(171, 231.010498046875)"><g id="sear_18ntvim65fhfy-stroke" fill="none" stroke-linecap="round" stroke-linejoin="round" stroke-miterlimit="4" stroke="#1eabda" stroke-width="2"><g><path d="M 35 44.057999C 35 49.060593 39.055405 53.115997 44.057999 53.115997C 49.060593 53.115997 53.115997 49.060593 53.115997 44.057999C 53.115997 39.055405 49.060593 35 44.057999 35C 39.055405 35 35 39.055405 35 44.057999ZM 57 57L 50.504002 50.504002M 19 27L 38 27M 19 33L 31 33M 19 21L 33 21M 19 39L 27 39M 19 45L 27 45M 35 57L 13 57C 11.895431 57 11 56.104568 11 55L 11 13C 11 11.895431 11.895431 11 13 11L 39.585999 11C 40.11639 11.000113 40.625015 11.210901 41 11.586L 48.414001 19C 48.789101 19.374985 48.999886 19.88361 49 20.414L 49 29"></path></g></g></g><g id="g-root-1_hrjk5q65gydi-stroke" data-item-order="0" transform="translate(243, 231.010498046875)"><g id="1_hrjk5q65gydi-stroke" fill="none" stroke-linecap="round" stroke-linejoin="round" stroke-miterlimit="4" stroke="#3cc583" stroke-width="2"><g><path d="M 29.084 57L 13.084 57C 11.97943 57 11.084 56.104568 11.084 55L 11.084 13C 11.084 11.895431 11.97943 11 13.084 11L 39.669998 11C 40.202408 11.003817 40.711319 11.219762 41.084 11.6L 48.498001 19C 48.8731 19.374985 49.083885 19.88361 49.084 20.414L 49.084 27M 23.084 24.007999L 17.084 30.007999L 23.084 36.007999M 29.084 24.007999L 35.084 30.007999L 29.084 36.007999M 33.084 45.007999C 33.084 51.635418 38.456585 57.007999 45.084 57.007999C 51.711418 57.007999 57.084 51.635418 57.084 45.007999C 57.084 38.380585 51.711418 33.008003 45.084 33.008003C 38.456585 33.008003 33.084 38.380585 33.084 45.007999ZM 36.598 53.492001L 53.57 36.521999"></path></g></g></g><g id="g-root-1_1lpx03y65cqo1-stroke" data-item-order="0" transform="translate(315, 231.010498046875)"><g id="1_1lpx03y65cqo1-stroke" fill="none" stroke-linecap="round" stroke-linejoin="round" stroke-miterlimit="4" stroke="#92bd39" stroke-width="2"><g><path d="M 49 33L 49 55C 49 56.104568 48.104568 57 47 57L 13 57C 11.895431 57 11 56.104568 11 55L 11 17C 11 15.895431 11.895431 15 13 15L 39 15M 35.648003 38.014L 25.75 42.254002L 29.992001 32.354L 51.348 11L 57.004002 16.656L 35.648003 38.014ZM 53.334 20.327999L 47.675999 14.67M 35.648003 38.014L 29.992001 32.354"></path></g></g></g><g id="g-root-chec_1d2e2tq65gxdx-stroke" data-item-order="0" transform="translate(387, 231.010498046875)"><g id="chec_1d2e2tq65gxdx-stroke" fill="none" stroke-linecap="round" stroke-linejoin="round" stroke-miterlimit="4" stroke="#e0cb15" stroke-width="2"><g><path d="M 19 27L 38 27M 19 33L 31 33M 19 21L 33 21M 19 39L 27 39M 19 45L 27 45M 31 57L 13 57C 11.895431 57 11 56.104568 11 55L 11 13C 11 11.895431 11.895431 11 13 11L 39.585999 11C 40.11639 11.000113 40.625015 11.210901 41 11.586L 48.414001 19C 48.789101 19.374985 48.999886 19.88361 49 20.414L 49 27M 33 45C 33 51.627419 38.372581 57 45 57C 51.627419 57 57 51.627419 57 45C 57 38.372581 51.627419 33 45 33C 38.372581 33 33 38.372581 33 45ZM 50.348 41.512001L 44.537998 49.257999C 44.276516 49.605347 43.877514 49.822548 43.443855 49.853607C 43.010197 49.884663 42.584312 49.72654 42.276001 49.419998L 39.276001 46.419998"></path></g></g></g><g id="g-root-tx_complian_1lqjqoe65gwlj-stroke" data-item-order="0" transform="translate(459, 219.010498046875)"></g><g id="g-root-tx_complian_1q7m6z265gxzc-stroke" data-item-order="0" transform="translate(339, 339.010498046875)"></g><g id="g-root-tx_sensitiv_dgq11q65gw7e-stroke" data-item-order="0" transform="translate(183, 399.010498046875)"></g></g></g></svg>