<?xml version="1.0" encoding="utf-8" standalone="yes"?>
<!DOCTYPE svg PUBLIC "-//W3C//DTD SVG 1.1//EN" "http://www.w3.org/Graphics/SVG/1.1/DTD/svg11.dtd">
<svg width="782" height="519" viewBox="0 0 782 519" style="fill:none;stroke:none;fill-rule:evenodd;clip-rule:evenodd;stroke-linecap:round;stroke-linejoin:round;stroke-miterlimit:1.5;" version="1.1" xmlns="http://www.w3.org/2000/svg" xmlns:xlink="http://www.w3.org/1999/xlink"><style id="fontImports">@import url("https://fonts.googleapis.com/css2?family=Roboto:wght@400;700&amp;display=block");</style><rect id="" x="0" y="0" width="782" height="518.001" style="fill: none;"></rect><g id="items" style="isolation: isolate"><g id="blend" style="mix-blend-mode: normal"><g id="g-root-tf_1ltnhy651bh1d-fill" data-item-order="-402481" transform="translate(-9, -9)"></g><g id="g-root--1.cu_sy_qwj8v2518pon-fill" data-item-order="-172794" transform="translate(257.40411376953125, 3.0008544921875)"></g><g id="g-root--1.cu_1_sy_1hapme651a39c-fill" data-item-order="-172791" transform="translate(257.40411376953125, 3.0008544921875)"></g><g id="g-root--1.cu_2_sy_4hy17i51a2h5-fill" data-item-order="-172790" transform="translate(243, 171.0008544921875)"></g><g id="g-root--1.cu_3_sy_1uoo13y51a58q-fill" data-item-order="-172788" transform="translate(243, 153.0008544921875)"></g><g id="g-root--1.cu_4_sy_mbpy1q51a4g3-fill" data-item-order="-172786" transform="translate(207, 227.0008544921875)"></g><g id="g-root--1.cu_5_sy_18k2eu651a3gs-fill" data-item-order="-172784" transform="translate(495, 227.0008544921875)"></g><g id="g-root-tx_highcarb_hznafy51a2h2-fill" data-item-order="0" transform="translate(15, 219.0008544921875)"><g id="tx_highcarb_hznafy51a2h2-fill" stroke="none" fill="#484848"><g><text style="font: 20px &quot;Roboto&quot;, sans-serif; white-space: pre;" font-size="20px" font-family="'Roboto', sans-serif"><tspan x="39.97" y="34.33" dominant-baseline="ideographic">High carbon </tspan><tspan x="15.1" y="58.33" dominant-baseline="ideographic">footprint from IoT</tspan></text></g></g></g><g id="g-root-tx_implemen_4mbcta51a51p-fill" data-item-order="0" transform="translate(291, 219.0008544921875)"><g id="tx_implemen_4mbcta51a51p-fill" stroke="none" fill="#969696"><g><text style="font: 20px &quot;Roboto&quot;, sans-serif; white-space: pre;" font-size="20px" font-family="'Roboto', sans-serif"><tspan x="12.39" y="34.33" dominant-baseline="ideographic">Implement Green IoT </tspan><tspan x="52.67" y="58.33" dominant-baseline="ideographic">and Edge AI</tspan></text></g></g></g><g id="g-root-tx_reducede_qwj8v251a32n-fill" data-item-order="0" transform="translate(603, 207.0008544921875)"><g id="tx_reducede_qwj8v251a32n-fill" stroke="none" fill="#484848"><g><text style="font: 20px &quot;Roboto&quot;, sans-serif; white-space: pre;" font-size="20px" font-family="'Roboto', sans-serif"><tspan x="40.72" y="34.33" dominant-baseline="ideographic">Reduced </tspan><tspan x="16.22" y="58.33" dominant-baseline="ideographic">environmental </tspan><tspan x="20.28" y="82.33" dominant-baseline="ideographic">impact of IoT</tspan></text></g></g></g><g id="g-root-tf_1ltnhy651bh1d-stroke" data-item-order="-402481" transform="translate(-9, -9)"></g><g id="g-root--1.cu_sy_qwj8v2518pon-stroke" data-item-order="-172794" transform="translate(257.40411376953125, 3.0008544921875)"></g><g id="g-root--1.cu_1_sy_1hapme651a39c-stroke" data-item-order="-172791" transform="translate(257.40411376953125, 3.0008544921875)"><g id="-1.cu_1_sy_1hapme651a39c-stroke" fill="none" stroke-linecap="round" stroke-linejoin="round" stroke-miterlimit="4" stroke="#1eabda" stroke-width="2"><g><path d="M 265.555815 10C 269.515615 21.5 264.528215 34.2795 259.596015 42.5C 257.196115 46.4998 251.130515 67 257.763015 83.5C 263.683115 98.2276 263.977715 101.6678 265.102415 114.8008C 265.237815 116.3813 265.385115 118.1022 265.555815 120C 266.359215 128.935 263.948615 136.6056 261.390715 144.745C 259.350215 151.2383 257.215815 158.03 256.544715 166M 23.685015 166C 21.289115 151 22.919715 139.6479 24.096015 135.5C 26.545415 126.8625 30.450415 112.5 27.400315 100.5C 26.155615 95.603 23.769515 91.6974 21.289115 87.6374C 17.691315 81.7484 13.895215 75.5348 13.096015 65.5C 12.137615 53.4668 13.810915 46.5908 15.391015 40.0979C 16.037015 37.4433 16.667415 34.8528 17.096015 32C 19.104515 18.6317 19.595915 10 19.595915 10M 24.903715 334C 23.624615 342.697 21.892715 350.335 19.596015 356.5C 18.776615 358.6994 17.933715 360.8423 17.103715 362.9525C 11.548315 377.0758 6.570915 389.7299 13.096015 408C 13.467215 409.0393 13.851315 410.0753 14.237915 411.1175C 17.823315 420.7854 21.609515 430.9949 17.096015 449.5C 12.095915 470 13.095915 490.0001 13.095915 490.0001M 259.596015 490.0001C 259.596015 480.6483 258.649115 473.3812 257.797115 466.8423C 256.326015 455.5514 255.137715 446.4318 259.596015 432.5C 266.042815 412.3539 262.519115 399.6075 260.197615 391.2101L 260.197215 391.2088C 259.983715 390.4365 259.780415 389.701 259.596015 389C 254.728515 370.5 256.967515 350.5763 259.450515 342.5C 260.235215 339.9476 260.894215 337.1006 261.442015 334M 247.596015 42.5C 252.528315 34.2795 257.515615 21.5 253.555815 10M 249.390815 144.745C 251.948615 136.6056 254.359215 128.935 253.555815 120M 36.096015 135.5C 34.919715 139.6479 33.289115 152 35.685015 166M 33.289115 87.6374C 29.691315 81.7484 25.895215 75.5348 25.096015 65.5C 24.137615 53.4668 25.810915 46.5908 27.391015 40.0979M 29.096015 449.5C 24.095915 470 25.095915 490.0001 25.095915 490.0001M 247.596015 490.0001C 247.596015 480.6483 246.649115 473.3812 245.797115 466.8423M 247.596015 389C 242.728515 370.5 244.967515 350.5763 247.450515 342.5C 248.235215 339.9476 248.894315 337.1006 249.442015 334M 30.008515 25.5C 29.746315 27.5111 29.443915 29.6845 29.096015 32M 252.904315 112.5C 252.652815 109.6118 252.426515 107.2086 252.135915 105M 250.895915 404C 250.555315 401.0014 250.019215 398.3257 249.442015 395.9307M 31.596015 356.5C 25.292415 373.4202 17.596115 387.0002 25.096015 408M 28.330415 417C 29.100715 419.3567 29.791515 421.8247 30.297515 424.5"></path></g></g></g><g id="g-root--1.cu_2_sy_4hy17i51a2h5-stroke" data-item-order="-172790" transform="translate(243, 171.0008544921875)"><g id="-1.cu_2_sy_4hy17i51a2h5-stroke" fill="none" stroke-linecap="round" stroke-linejoin="round" stroke-miterlimit="4" stroke="#484848" stroke-width="2"><g><path d="M 298 75.5L 298 10M 298 154L 298 87.5M 10 87.5L 10 154M 10 10L 10 75.5"></path></g></g></g><g id="g-root--1.cu_3_sy_1uoo13y51a58q-stroke" data-item-order="-172788" transform="translate(243, 153.0008544921875)"><g id="-1.cu_3_sy_1uoo13y51a58q-stroke" fill="none" stroke-linecap="round" stroke-linejoin="round" stroke-miterlimit="4" stroke="#484848" stroke-width="2"><g><path d="M 28 16L 100 16L 100 28L 28 28L 28 16ZM 28 172L 100 172L 100 184L 28 184L 28 172ZM 118 16L 190 16L 190 28L 118 28L 118 16ZM 118 172L 190 172L 190 184L 118 184L 118 172ZM 208 16L 280 16L 280 28L 208 28L 208 16ZM 208 172L 280 172L 280 184L 208 184L 208 172ZM 10 172L 28 172L 28 190L 10 190L 10 172ZM 10 10L 28 10L 28 28L 10 28L 10 10ZM 280 172L 298 172L 298 190L 280 190L 280 172ZM 280 10L 298 10L 298 28L 280 28L 280 10ZM 190 172L 208 172L 208 190L 190 190L 190 172ZM 190 10L 208 10L 208 28L 190 28L 190 10ZM 100 172L 118 172L 118 190L 100 190L 100 172ZM 100 10L 118 10L 118 28L 100 28L 100 10Z"></path></g></g></g><g id="g-root--1.cu_4_sy_mbpy1q51a4g3-stroke" data-item-order="-172786" transform="translate(207, 227.0008544921875)"><g id="-1.cu_4_sy_mbpy1q51a4g3-stroke" fill="none" stroke-linecap="round" stroke-linejoin="round" stroke-miterlimit="4" stroke="#92bd39" stroke-width="2"><g><path d="M 10 19.5L 64 19.5L 64 10L 82 25.5L 64 41L 64 31.5L 10 31.5L 10 19.5Z"></path></g></g></g><g id="g-root--1.cu_5_sy_18k2eu651a3gs-stroke" data-item-order="-172784" transform="translate(495, 227.0008544921875)"><g id="-1.cu_5_sy_18k2eu651a3gs-stroke" fill="none" stroke-linecap="round" stroke-linejoin="round" stroke-miterlimit="4" stroke="#92bd39" stroke-width="2"><g><path d="M 10 19.5L 64 19.5L 64 10L 82 25.5L 64 41L 64 31.5L 10 31.5L 10 19.5Z"></path></g></g></g><g id="g-root-tx_highcarb_hznafy51a2h2-stroke" data-item-order="0" transform="translate(15, 219.0008544921875)"></g><g id="g-root-tx_implemen_4mbcta51a51p-stroke" data-item-order="0" transform="translate(291, 219.0008544921875)"></g><g id="g-root-tx_reducede_qwj8v251a32n-stroke" data-item-order="0" transform="translate(603, 207.0008544921875)"></g></g></g></svg>