<?xml version="1.0" encoding="utf-8" standalone="yes"?>
<!DOCTYPE svg PUBLIC "-//W3C//DTD SVG 1.1//EN" "http://www.w3.org/Graphics/SVG/1.1/DTD/svg11.dtd">
<svg width="746" height="410" viewBox="0 0 746 410" style="fill:none;stroke:none;fill-rule:evenodd;clip-rule:evenodd;stroke-linecap:round;stroke-linejoin:round;stroke-miterlimit:1.5;" version="1.1" xmlns="http://www.w3.org/2000/svg" xmlns:xlink="http://www.w3.org/1999/xlink"><style id="fontImports">@import url("https://fonts.googleapis.com/css2?family=Roboto:wght@400;700&amp;display=block");</style><rect id="" x="0" y="0" width="746" height="410" style="fill: none;"></rect><g id="items" style="isolation: isolate"><g id="blend" style="mix-blend-mode: normal"><g id="g-root-tf_9jj35veh3b-fill" data-item-order="-303552" transform="translate(-9, -9)"></g><g id="g-root-0.cu_sy_18egnxb5lhr0n-fill" data-item-order="-102605" transform="translate(244.00006103515625, 86.99969482421875)"></g><g id="g-root-4.cu_sy_8yeja75lhqtk-fill" data-item-order="-102601" transform="translate(207.51995849609375, 51.51995849609375)"></g><g id="g-root-3.cu_sy_dg3gnz5lhp1l-fill" data-item-order="-102597" transform="translate(207.51995849609375, 266.47991943359375)"></g><g id="g-root-2.cu_sy_hx5wyn5lhqfe-fill" data-item-order="-102593" transform="translate(422.48052978515625, 266.48016357421875)"></g><g id="g-root-1.cu_sy_hz1c7z5lhpfn-fill" data-item-order="-102589" transform="translate(422.47979736328125, 51.52020263671875)"></g><g id="g-root-tx_familiar_4my9lr5vbnyc-fill" data-item-order="0" transform="translate(51, 27)"><g id="tx_familiar_4my9lr5vbnyc-fill" stroke="none" fill="#e0cb15"><g><text style="font: bold 20px &quot;Roboto&quot;, sans-serif; white-space: pre;" font-weight="bold" font-size="20px" font-family="'Roboto', sans-serif"><tspan x="19.83" y="34.33" dominant-baseline="ideographic">Familiar Face </tspan><tspan x="20.95" y="58.33" dominant-baseline="ideographic">Identification</tspan></text></g></g></g><g id="g-root-tx_peoplede_1unfin35vd2j2-fill" data-item-order="0" transform="translate(543, 51)"><g id="tx_peoplede_1unfin35vd2j2-fill" stroke="none" fill="#1eabda"><g><text style="font: bold 20px &quot;Roboto&quot;, sans-serif; white-space: pre;" font-weight="bold" font-size="20px" font-family="'Roboto', sans-serif"><tspan x="12" y="34.33" dominant-baseline="ideographic">People Detection</tspan></text></g></g></g><g id="g-root-tx_recallin_4l2ucf5vabk7-fill" data-item-order="0" transform="translate(27, 87)"><g id="tx_recallin_4l2ucf5vabk7-fill" stroke="none" fill="#484848"><g><text style="font: 15px &quot;Roboto&quot;, sans-serif; white-space: pre;" font-size="15px" font-family="'Roboto', sans-serif"><tspan x="14.88" y="31" dominant-baseline="ideographic">Recalling known faces</tspan></text></g></g></g><g id="g-root-face_v9urdr5v63gt-fill" data-item-order="0" transform="translate(231, 75)"></g><g id="g-root-9_zjfva75v7hfn-fill" data-item-order="0" transform="translate(447, 75)"></g><g id="g-root-tx_identify_4hygwv5vbojm-fill" data-item-order="0" transform="translate(543, 87)"><g id="tx_identify_4hygwv5vbojm-fill" stroke="none" fill="#484848"><g><text style="font: 15px &quot;Roboto&quot;, sans-serif; white-space: pre;" font-size="15px" font-family="'Roboto', sans-serif"><tspan x="12" y="28" dominant-baseline="ideographic">Identifying individuals in </tspan><tspan x="12" y="46" dominant-baseline="ideographic">visual data</tspan></text></g></g></g><g id="g-root-micr_deufbz5vabra-fill" data-item-order="0" transform="translate(315, 159)"></g><g id="g-root-tx_animalde_8dpnj5vbq4t-fill" data-item-order="0" transform="translate(15, 267)"><g id="tx_animalde_8dpnj5vbq4t-fill" stroke="none" fill="#92bd39"><g><text style="font: bold 20px &quot;Roboto&quot;, sans-serif; white-space: pre;" font-weight="bold" font-size="20px" font-family="'Roboto', sans-serif"><tspan x="21.82" y="34.33" dominant-baseline="ideographic">Animal Detection</tspan></text></g></g></g><g id="g-root-tx_vehicled_hvwvmn5vbqiz-fill" data-item-order="0" transform="translate(543, 267)"><g id="tx_vehicled_hvwvmn5vbqiz-fill" stroke="none" fill="#3cc583"><g><text style="font: bold 20px &quot;Roboto&quot;, sans-serif; white-space: pre;" font-weight="bold" font-size="20px" font-family="'Roboto', sans-serif"><tspan x="12" y="34.33" dominant-baseline="ideographic">Vehicle Detection</tspan></text></g></g></g><g id="g-root-tx_spotting_1hhla1r5va9l4-fill" data-item-order="0" transform="translate(63, 303)"><g id="tx_spotting_1hhla1r5va9l4-fill" stroke="none" fill="#484848"><g><text style="font: 15px &quot;Roboto&quot;, sans-serif; white-space: pre;" font-size="15px" font-family="'Roboto', sans-serif"><tspan x="15.52" y="28" dominant-baseline="ideographic">Spotting animals </tspan><tspan x="14.88" y="46" dominant-baseline="ideographic">through cameras</tspan></text></g></g></g><g id="g-root-paw_143miov5v1wck-fill" data-item-order="0" transform="translate(231, 291)"></g><g id="g-root-pin_8x58gv5v0f7s-fill" data-item-order="0" transform="translate(447, 291)"></g><g id="g-root-tx_recogniz_18ntp275va9e1-fill" data-item-order="0" transform="translate(543, 303)"><g id="tx_recogniz_18ntp275va9e1-fill" stroke="none" fill="#484848"><g><text style="font: 15px &quot;Roboto&quot;, sans-serif; white-space: pre;" font-size="15px" font-family="'Roboto', sans-serif"><tspan x="12" y="28" dominant-baseline="ideographic">Recognizing vehicles in </tspan><tspan x="12" y="46" dominant-baseline="ideographic">images</tspan></text></g></g></g><g id="g-root-tf_9jj35veh3b-stroke" data-item-order="-303552" transform="translate(-9, -9)"></g><g id="g-root-0.cu_sy_18egnxb5lhr0n-stroke" data-item-order="-102605" transform="translate(244.00006103515625, 86.99969482421875)"><g id="0.cu_sy_18egnxb5lhr0n-stroke" fill="none" stroke-linecap="round" stroke-linejoin="round" stroke-miterlimit="4" stroke="#808080" stroke-width="2"><g><path d="M 69.52 26.333C 87.2784 15.9502 107.9443 10 130 10C 151.2327 10 171.1774 15.5145 188.4801 25.1894M 234.2453 70.5201C 244.2704 88.0525 250 108.3571 250 130C 250 151.6431 244.2703 171.948 234.2449 189.4805M 188.4805 234.8104C 171.1778 244.4854 151.2329 250 130 250C 107.9443 250 87.2784 244.0497 69.5199 233.6669M 25.7551 189.4805C 15.7297 171.948 10 151.6431 10 130C 10 108.3571 15.7296 88.0524 25.7548 70.52"></path></g></g></g><g id="g-root-4.cu_sy_8yeja75lhqtk-stroke" data-item-order="-102601" transform="translate(207.51995849609375, 51.51995849609375)"><g id="4.cu_sy_8yeja75lhqtk-stroke" fill="none" stroke-linecap="round" stroke-linejoin="round" stroke-miterlimit="4" stroke="#e0cb15" stroke-width="2"><g><path d="M 58.0004 106C 45.716 106.0001 33.4316 101.3138 24.0589 91.9411C 5.3137 73.196 5.3137 42.804 24.0589 24.0589C 42.804 5.3137 73.196 5.3137 91.9411 24.0589C 101.3137 33.4315 106 45.7157 106 58L 106.0004 106L 58.0114 106C 58.0077 106 58.0041 106 58.0004 106Z"></path></g></g></g><g id="g-root-3.cu_sy_dg3gnz5lhp1l-stroke" data-item-order="-102597" transform="translate(207.51995849609375, 266.47991943359375)"><g id="3.cu_sy_dg3gnz5lhp1l-stroke" fill="none" stroke-linecap="round" stroke-linejoin="round" stroke-miterlimit="4" stroke="#92bd39" stroke-width="2"><g><path d="M 106 58C 106.0001 70.2844 101.3138 82.5688 91.9411 91.9415C 73.196 110.6867 42.804 110.6867 24.0589 91.9415C 5.3137 73.1964 5.3137 42.8044 24.0589 24.0593C 33.4315 14.6867 45.7157 10.0004 58 10.0004L 106 10L 106 57.989C 106 57.9927 106 57.9963 106 58Z"></path></g></g></g><g id="g-root-2.cu_sy_hx5wyn5lhqfe-stroke" data-item-order="-102593" transform="translate(422.48052978515625, 266.48016357421875)"><g id="2.cu_sy_hx5wyn5lhqfe-stroke" fill="none" stroke-linecap="round" stroke-linejoin="round" stroke-miterlimit="4" stroke="#3cc583" stroke-width="2"><g><path d="M 10 58C 9.9999 70.2844 14.6862 82.5688 24.0589 91.9415C 42.804 110.6867 73.1959 110.6867 91.9411 91.9415C 110.6863 73.1964 110.6863 42.8044 91.9411 24.0593C 82.5685 14.6867 70.2843 10.0004 58 10.0004L 10 10L 10 57.989C 10 57.9927 10 57.9963 10 58Z"></path></g></g></g><g id="g-root-1.cu_sy_hz1c7z5lhpfn-stroke" data-item-order="-102589" transform="translate(422.47979736328125, 51.52020263671875)"><g id="1.cu_sy_hz1c7z5lhpfn-stroke" fill="none" stroke-linecap="round" stroke-linejoin="round" stroke-miterlimit="4" stroke="#1eabda" stroke-width="2"><g><path d="M 58 106C 70.2844 106.0001 82.5688 101.3138 91.9415 91.9411C 110.6867 73.196 110.6867 42.804 91.9415 24.0589C 73.1964 5.3137 42.8044 5.3137 24.0593 24.0589C 14.6867 33.4315 10.0004 45.7157 10.0004 58L 10 106L 57.989 106C 57.9927 106 57.9963 106 58 106Z"></path></g></g></g><g id="g-root-tx_familiar_4my9lr5vbnyc-stroke" data-item-order="0" transform="translate(51, 27)"></g><g id="g-root-tx_peoplede_1unfin35vd2j2-stroke" data-item-order="0" transform="translate(543, 51)"></g><g id="g-root-tx_recallin_4l2ucf5vabk7-stroke" data-item-order="0" transform="translate(27, 87)"></g><g id="g-root-face_v9urdr5v63gt-stroke" data-item-order="0" transform="translate(231, 75)"><g id="face_v9urdr5v63gt-stroke" fill="none" stroke-linecap="round" stroke-linejoin="round" stroke-miterlimit="4" stroke="#e0cb15" stroke-width="2"><g><path d="M 11.714286 34C 11.714287 46.308064 21.69194 56.285713 34 56.285713C 46.308064 56.285713 56.285713 46.308064 56.285713 34C 56.285713 21.69194 46.308064 11.714287 34 11.714287C 21.69194 11.714287 11.714287 21.69194 11.714287 34M 22.685715 37.428574C 24.4 43.600002 31.257143 47.371429 37.428574 45.657143C 41.200001 44.285713 44.285713 41.200001 45.314285 37.428574M 25.771429 27.828571C 25.771429 28.207283 26.078434 28.514286 26.457144 28.514286C 26.835854 28.514286 27.142857 28.207283 27.142857 27.828573C 27.142857 27.449863 26.835854 27.142857 26.457144 27.142857C 26.078434 27.142857 25.771429 27.449863 25.771429 27.828573M 40.857143 27.828571C 40.857143 28.207283 41.16415 28.514286 41.542858 28.514286C 41.92157 28.514286 42.228573 28.207283 42.228573 27.828573C 42.228573 27.449863 41.92157 27.142857 41.542858 27.142857C 41.16415 27.142857 40.857143 27.449863 40.857143 27.828573"></path></g></g></g><g id="g-root-9_zjfva75v7hfn-stroke" data-item-order="0" transform="translate(447, 75)"><g id="9_zjfva75v7hfn-stroke" fill="none" stroke-linecap="round" stroke-linejoin="round" stroke-miterlimit="4" stroke="#1eabda" stroke-width="2"><g><path d="M 42.551998 46.326L 38 44.375999L 38 40.375999C 38 40.375999 39.732002 39.676003 39.732002 35.375999C 41.099998 35.375999 41.620003 31.375999 39.718002 31.375999C 40.539703 30.216316 40.857128 28.773466 40.598 27.376001C 39.615997 23.375999 29.936001 23.375999 28.954 27.375999C 24.821999 26.516001 28.110001 30.798 28.110001 31.375999C 26.148001 31.375999 26.148001 35.375999 28.110001 35.375999C 28.110001 39.676003 30 40.375999 30 40.375999L 30 44.375999L 25.368 46.360001M 19 34C 19 42.284271 25.715729 49 34 49C 42.284271 49 49 42.284271 49 34C 49 25.715729 42.284271 19 34 19C 25.715729 19 19 25.715729 19 34ZM 34 11L 34 13M 42.801998 12.75L 42.035999 14.598M 50.264 17.736L 48.849998 19.15M 55.25 25.198L 53.402 25.964001M 57 34L 55 34M 55.25 42.801998L 53.402 42.035999M 50.264 50.264L 48.849998 48.849998M 42.801998 55.25L 42.035999 53.402M 34 57L 34 55M 25.198 55.25L 25.964001 53.402M 17.736 50.264L 19.15 48.849998M 12.75 42.801998L 14.598 42.035999M 11 34L 13 34M 12.75 25.198L 14.598 25.964001M 17.736 17.736L 19.15 19.15M 25.198 12.75L 25.964001 14.598"></path></g></g></g><g id="g-root-tx_identify_4hygwv5vbojm-stroke" data-item-order="0" transform="translate(543, 87)"></g><g id="g-root-micr_deufbz5vabra-stroke" data-item-order="0" transform="translate(315, 159)"><g id="micr_deufbz5vabra-stroke" fill="none" stroke-linecap="round" stroke-linejoin="round" stroke-miterlimit="4" stroke="#4e88e7" stroke-width="2"><g><path d="M 80.800003 41.143997C 80.709984 37.910286 78.109718 35.310024 74.875999 35.220001M 92.400002 41.372002C 92.129936 31.677486 84.334511 23.882057 74.639999 23.612M 92.400002 41.372002C 92.129936 31.677486 84.334511 23.882057 74.639999 23.612M 104 41.599998C 103.545937 25.444187 90.555809 12.454063 74.400002 12M 104 41.599998C 103.545937 25.444187 90.555809 12.454063 74.400002 12M 28 44L 68 44C 68 44 72 44 72 48L 72 88C 72 88 72 92 68 92L 28 92C 28 92 24 92 24 88L 24 48C 24 48 24 44 28 44M 48 92L 48 104M 64 92L 64 104M 64 32L 64 44M 48 32L 48 44M 32 92L 32 104M 32 32L 32 44M 72 84L 84 84M 24 68L 12 68M 84 68L 72 68M 24 52L 12 52M 24 84L 12 84M 40 52L 56 52C 56 52 64 52 64 60L 64 76C 64 76 64 84 56 84L 40 84C 40 84 32 84 32 76L 32 60C 32 60 32 52 40 52"></path></g></g></g><g id="g-root-tx_animalde_8dpnj5vbq4t-stroke" data-item-order="0" transform="translate(15, 267)"></g><g id="g-root-tx_vehicled_hvwvmn5vbqiz-stroke" data-item-order="0" transform="translate(543, 267)"></g><g id="g-root-tx_spotting_1hhla1r5va9l4-stroke" data-item-order="0" transform="translate(63, 303)"></g><g id="g-root-paw_143miov5v1wck-stroke" data-item-order="0" transform="translate(231, 291)"><g id="paw_143miov5v1wck-stroke" fill="none" stroke-linecap="round" stroke-linejoin="round" stroke-miterlimit="4" stroke="#92bd39" stroke-width="2"><g><path d="M 34 52.666C 38.334 52.666 39.778 57 44.112 57C 45.686131 57.152744 47.246037 56.593178 48.364151 55.474678C 49.482262 54.356178 50.04129 52.796078 49.888 51.222C 49.888 45.444 43.580002 45.296001 42.666 42.556C 41.222 38.222 39.778 33.888 34 33.888C 28.222 33.888 26.778 38.222 25.334 42.556C 24.42 45.296001 18.112 45.444 18.112 51.222C 17.958712 52.796078 18.517738 54.356178 19.635851 55.474678C 20.753963 56.593178 22.313869 57.152744 23.888 57C 28.222 57 29.666 52.666 34 52.666ZM 22.444 23.778C 22.444 26.969101 24.384399 29.556 26.778 29.556C 29.171602 29.556 31.112001 26.969101 31.112001 23.778C 31.112001 20.586899 29.171602 18 26.778 18C 24.384399 18 22.444 20.586899 22.444 23.778ZM 10.888 36.778C 10.888 39.969101 12.828398 42.556 15.222 42.556C 17.615602 42.556 19.556 39.969101 19.556 36.778C 19.556 33.586899 17.615602 31 15.222 31C 12.828398 31 10.888 33.586899 10.888 36.778ZM 36.888 23.778C 36.888 26.969101 38.8284 29.556 41.222 29.556C 43.615604 29.556 45.556 26.969101 45.556 23.778C 45.556 20.586899 43.615604 18 41.222 18C 38.8284 18 36.888 20.586899 36.888 23.778ZM 48.444 36.778C 48.444 39.969101 50.384399 42.556 52.778004 42.556C 55.171604 42.556 57.112003 39.969101 57.112003 36.778C 57.112003 33.586899 55.171604 31 52.778004 31C 50.384399 31 48.444 33.586899 48.444 36.778ZM 13.888 28C 13.309953 26.729319 13.309953 25.270683 13.888 24M 25.888 15C 25.309952 13.729318 25.309952 12.270682 25.888 11M 54.888 28C 55.466049 26.729319 55.466049 25.270683 54.888 24M 42.888 15C 43.466049 13.729318 43.466049 12.270682 42.888 11"></path></g></g></g><g id="g-root-pin_8x58gv5v0f7s-stroke" data-item-order="0" transform="translate(447, 291)"><g id="pin_8x58gv5v0f7s-stroke" fill="none" stroke-linecap="round" stroke-linejoin="round" stroke-miterlimit="4" stroke="#3cc583" stroke-width="2"><g><path d="M 24 53C 24 55.209141 25.790861 57 28 57C 30.209139 57 32 55.209141 32 53C 32 50.790859 30.209139 49 28 49C 25.790861 49 24 50.790859 24 53M 24 53L 11 53M 49 53L 32 53M 47 53L 47 47C 47 43.686291 44.313709 41 41 41L 36 41L 28.559999 32.099998C 28.217869 31.420992 27.520313 30.994709 26.76 31L 11 31M 24.880001 31C 24.880001 31.1 23.98 28.76 23.52 27.620001C 23.363857 27.239792 22.990974 26.993849 22.58 27L 15 27C 14.380773 27.052334 13.837928 27.43462 13.58 28L 12.16 31M 36 41L 11 41M 17 31L 17 41M 40.34 37C 37.639999 31.82 35 26 35 22.74C 34.797882 16.461361 39.721504 11.206512 46 11C 52.278496 11.206512 57.202118 16.461361 57 22.74C 57 26.58 53.139999 34.379997 50 40.099998M 41 23C 41 25.761425 43.238575 28 46 28C 48.761425 28 51 25.761425 51 23C 51 20.238577 48.761425 18 46 18C 43.238575 18 41 20.238577 41 23M 46.66 45L 40 45C 40 47.209141 41.790863 49 44 49L 47 49"></path></g></g></g><g id="g-root-tx_recogniz_18ntp275va9e1-stroke" data-item-order="0" transform="translate(543, 303)"></g></g></g></svg>