<?xml version="1.0" encoding="utf-8" standalone="yes"?>
<!DOCTYPE svg PUBLIC "-//W3C//DTD SVG 1.1//EN" "http://www.w3.org/Graphics/SVG/1.1/DTD/svg11.dtd">
<svg width="842" height="579" viewBox="0 0 842 579" style="fill:none;stroke:none;fill-rule:evenodd;clip-rule:evenodd;stroke-linecap:round;stroke-linejoin:round;stroke-miterlimit:1.5;" version="1.1" xmlns="http://www.w3.org/2000/svg" xmlns:xlink="http://www.w3.org/1999/xlink"><style id="fontImports">@import url("https://fonts.googleapis.com/css2?family=Roboto:wght@400;700&amp;display=block");</style><rect id="" x="0" y="0" width="842" height="578.007" style="fill: none;"></rect><g id="items" style="isolation: isolate"><g id="blend" style="mix-blend-mode: normal"><g id="g-root-tf_dhz2am7sz11p-fill" data-item-order="-483846" transform="translate(-9, -9)"></g><g id="g-root-0.cu_sy_hs5bvi7td1jg-fill" data-item-order="-380154" transform="translate(15, 159.00701904296875)"></g><g id="g-root-5.cu_sy_v4usf27td24l-fill" data-item-order="-380150" transform="translate(214.37451171875, 333.00701904296875)"></g><g id="g-root-4.cu_sy_qqwpjy7td15a-fill" data-item-order="-380146" transform="translate(242.1923828125, 297.00701904296875)"></g><g id="g-root-3.cu_sy_v7z5um7td2j3-fill" data-item-order="-380142" transform="translate(253.65869140625, 231.00701904296875)"></g><g id="g-root-2.cu_sy_hye2qm7td348-fill" data-item-order="-380138" transform="translate(242.1923828125, 135.00701904296875)"></g><g id="g-root-1.cu_sy_i09hzy7td24h-fill" data-item-order="-380134" transform="translate(214.37451171875, 39.00701904296875)"></g><g id="g-root-boat_1d2dq3i7t8u13-fill" data-item-order="0" transform="translate(423, 63.00701904296875)"></g><g id="g-root-tx_passenge_1upa8ny7teia4-fill" data-item-order="0" transform="translate(483, 75.00701904296875)"><g id="tx_passenge_1upa8ny7teia4-fill" stroke="none" fill="#1eabda"><g><text style="font: 20px &quot;Roboto&quot;, sans-serif; white-space: pre;" font-size="20px" font-family="'Roboto', sans-serif"><tspan x="12" y="34.33" dominant-baseline="ideographic">Passenger Transport</tspan></text></g></g></g><g id="g-root-truc_142dhem7tfuh1-fill" data-item-order="0" transform="translate(423, 159.00701904296875)"></g><g id="g-root-tx_goodsdel_1ur5nxa7tehad-fill" data-item-order="0" transform="translate(483, 171.00701904296875)"><g id="tx_goodsdel_1ur5nxa7tehad-fill" stroke="none" fill="#3cc583"><g><text style="font: 20px &quot;Roboto&quot;, sans-serif; white-space: pre;" font-size="20px" font-family="'Roboto', sans-serif"><tspan x="12" y="34.33" dominant-baseline="ideographic">Goods Delivery</tspan></text></g></g></g><g id="g-root-tx_roboatpr_2qqn27tegar-fill" data-item-order="0" transform="translate(63, 267.00701904296875)"><g id="tx_roboatpr_2qqn27tegar-fill" stroke="none" fill="#969696"><g><text style="font: bold 20px &quot;Roboto&quot;, sans-serif; white-space: pre;" font-weight="bold" font-size="20px" font-family="'Roboto', sans-serif"><tspan x="15.26" y="34.33" dominant-baseline="ideographic">Roboat Project</tspan></text></g></g></g><g id="g-root-wate_1qbcify7thb0p-fill" data-item-order="0" transform="translate(423, 255.00701904296875)"></g><g id="g-root-tx_wastecol_1lxe2xq7teh3a-fill" data-item-order="0" transform="translate(483, 267.00701904296875)"><g id="tx_wastecol_1lxe2xq7teh3a-fill" stroke="none" fill="#92bd39"><g><text style="font: 20px &quot;Roboto&quot;, sans-serif; white-space: pre;" font-size="20px" font-family="'Roboto', sans-serif"><tspan x="12" y="34.33" dominant-baseline="ideographic">Waste Collection</tspan></text></g></g></g><g id="g-root-righ_mah65a7tha82-fill" data-item-order="0" transform="translate(423, 351.00701904296875)"></g><g id="g-root-tx_trafficr_1d3mhy67tegw7-fill" data-item-order="0" transform="translate(483, 363.007080078125)"><g id="tx_trafficr_1d3mhy67tegw7-fill" stroke="none" fill="#e0cb15"><g><text style="font: 20px &quot;Roboto&quot;, sans-serif; white-space: pre;" font-size="20px" font-family="'Roboto', sans-serif"><tspan x="12" y="34.33" dominant-baseline="ideographic">Traffic Reduction</tspan></text></g></g></g><g id="g-root-smar_qtfkny7sxm30-fill" data-item-order="0" transform="translate(423, 447.007080078125)"></g><g id="g-root-tx_sustaina_13zvbku7tfv9k-fill" data-item-order="0" transform="translate(483, 459.007080078125)"><g id="tx_sustaina_13zvbku7tfv9k-fill" stroke="none" fill="#de8431"><g><text style="font: 20px &quot;Roboto&quot;, sans-serif; white-space: pre;" font-size="20px" font-family="'Roboto', sans-serif"><tspan x="12" y="34.33" dominant-baseline="ideographic">Sustainable Transport</tspan></text></g></g></g><g id="g-root-tf_dhz2am7sz11p-stroke" data-item-order="-483846" transform="translate(-9, -9)"></g><g id="g-root-0.cu_sy_hs5bvi7td1jg-stroke" data-item-order="-380154" transform="translate(15, 159.00701904296875)"><g id="0.cu_sy_hs5bvi7td1jg-stroke" fill="none" stroke-linecap="round" stroke-linejoin="round" stroke-miterlimit="4" stroke="#808080" stroke-width="2"><g><path d="M 250 130C 250 196.2742 196.2742 250 130 250C 63.7258 250 10 196.2742 10 130C 10 63.7258 63.7258 10 130 10C 196.2742 10 250 63.7258 250 130Z"></path></g></g></g><g id="g-root-5.cu_sy_v4usf27td24l-stroke" data-item-order="-380150" transform="translate(214.37451171875, 333.00701904296875)"><g id="5.cu_sy_v4usf27td24l-stroke" fill="none" stroke-linecap="round" stroke-linejoin="round" stroke-miterlimit="4" stroke="#de8431" stroke-width="2"><g><path d="M 602.6252 100L 182.6253 100L 37.8178 10C 30.8929 23.7192 21.4116 35.9279 10 46L 182.6253 196L 602.6252 196L 602.6252 100Z"></path></g></g></g><g id="g-root-4.cu_sy_qqwpjy7td15a-stroke" data-item-order="-380146" transform="translate(242.1923828125, 297.00701904296875)"><g id="4.cu_sy_qqwpjy7td15a-stroke" fill="none" stroke-linecap="round" stroke-linejoin="round" stroke-miterlimit="4" stroke="#e0cb15" stroke-width="2"><g><path d="M 574.8075 40L 154.8075 40L 21.4665 10C 19.5456 22.7701 15.6123 34.8811 10 46L 154.8075 136L 574.8075 136L 574.8075 40Z"></path></g></g></g><g id="g-root-3.cu_sy_v7z5um7td2j3-stroke" data-item-order="-380142" transform="translate(253.65869140625, 231.00701904296875)"><g id="3.cu_sy_v7z5um7td2j3-stroke" fill="none" stroke-linecap="round" stroke-linejoin="round" stroke-miterlimit="4" stroke="#92bd39" stroke-width="2"><g><path d="M 563.3409 10L 143.341 10L 10 40C 10.8832 45.8715 11.341 51.8823 11.341 58C 11.341 64.1177 10.8832 70.1285 10 76L 143.341 106L 563.3409 106L 563.3409 10Z"></path></g></g></g><g id="g-root-2.cu_sy_hye2qm7td348-stroke" data-item-order="-380138" transform="translate(242.1923828125, 135.00701904296875)"><g id="2.cu_sy_hye2qm7td348-stroke" fill="none" stroke-linecap="round" stroke-linejoin="round" stroke-miterlimit="4" stroke="#3cc583" stroke-width="2"><g><path d="M 574.8075 10L 154.8075 10L 10 100C 15.6123 111.1189 19.5456 123.2299 21.4665 136L 154.8075 106L 574.8075 106L 574.8075 10Z"></path></g></g></g><g id="g-root-1.cu_sy_i09hzy7td24h-stroke" data-item-order="-380134" transform="translate(214.37451171875, 39.00701904296875)"><g id="1.cu_sy_i09hzy7td24h-stroke" fill="none" stroke-linecap="round" stroke-linejoin="round" stroke-miterlimit="4" stroke="#1eabda" stroke-width="2"><g><path d="M 182.6253 10L 602.6252 10L 602.6252 106L 182.6253 106L 37.8178 196C 30.8929 182.2808 21.4116 170.0721 10 160L 182.6253 10Z"></path></g></g></g><g id="g-root-boat_1d2dq3i7t8u13-stroke" data-item-order="0" transform="translate(423, 63.00701904296875)"><g id="boat_1d2dq3i7t8u13-stroke" fill="none" stroke-linecap="round" stroke-linejoin="round" stroke-miterlimit="4" stroke="#1eabda" stroke-width="2"><g><path d="M 51.540001 47.290001L 57 36.5L 17.719999 36.5C 17.289761 36.500328 16.907955 36.775806 16.771999 37.183998L 13 48.5M 53 36.5L 43.200001 24.026001C 42.442657 23.062561 41.285469 22.499443 40.059998 22.498001L 18.77 22.466C 18.478008 22.465481 18.200378 22.592606 18.01 22.813999L 14.544001 26.848C 14.289213 27.144295 14.23036 27.561859 14.393328 27.917034C 14.556295 28.272209 14.911222 28.499914 15.302 28.5L 21.718 28.5C 22.025791 28.500086 22.316393 28.641903 22.505844 28.88448C 22.695295 29.127054 22.762486 29.443359 22.688 29.742001L 21 36.5M 45.141998 26.5L 31.414 26.5C 31.008982 26.499275 30.643522 26.742926 30.488432 27.117073C 30.33334 27.49122 30.419247 27.921972 30.705999 28.208L 33.827999 31.327999C 34.577972 32.078197 35.595222 32.499771 36.655998 32.5L 49.855999 32.5M 35.989998 22.492001L 27.997999 14.5M 11 53.358002C 15.902 54.400002 20 49.358002 20 49.358002C 21.527586 51.754868 24.144814 53.237686 26.986 53.316002C 29.854031 53.309273 32.511612 51.809601 34 49.357998C 35.473003 51.811596 38.124207 53.313667 40.986 53.316002C 43.833725 53.234337 46.457962 51.753479 47.999996 49.357998C 48 49.358002 52.098 54.400002 57 53.358002"></path></g></g></g><g id="g-root-tx_passenge_1upa8ny7teia4-stroke" data-item-order="0" transform="translate(483, 75.00701904296875)"></g><g id="g-root-truc_142dhem7tfuh1-stroke" data-item-order="0" transform="translate(423, 159.00701904296875)"><g id="truc_142dhem7tfuh1-stroke" fill="none" stroke-linecap="round" stroke-linejoin="round" stroke-miterlimit="4" stroke="#3cc583" stroke-width="2"><g><path d="M 47 46L 47 38C 47 36.895432 46.104568 36 45 36L 27 36C 25.895432 36 25 36.895432 25 38L 25 52L 29 52M 47 50L 47 39L 51 39C 54.313709 39 57 41.686295 57 45L 57 50C 57 51.104568 56.104568 52 55 52L 50 52M 57 46L 53 46C 51.895432 46 51 45.104568 51 44L 51 39M 44 53C 44 54.656857 45.343147 56 47 56C 48.656857 56 50 54.656857 50 53C 50 51.343147 48.656857 50 47 50C 45.343147 50 44 51.343147 44 53M 29 53C 29 54.656857 30.343147 56 32 56C 33.656853 56 35 54.656857 35 53C 35 51.343147 33.656853 50 32 50C 30.343147 50 29 51.343147 29 53M 44 52L 35 52M 21 42L 13 42C 11.895431 42 11 41.104568 11 40L 11 20.82C 11.002209 20.295321 11.210512 19.792522 11.58 19.42L 18.42 12.58C 18.792522 12.210512 19.295321 12.002209 19.82 12L 30.18 12C 30.704679 12.002209 31.207479 12.210512 31.58 12.58L 38.419998 19.42C 38.78949 19.792522 38.997791 20.295321 39 20.82L 39 32M 25 12L 25 20M 38.82 20L 11.18 20"></path></g></g></g><g id="g-root-tx_goodsdel_1ur5nxa7tehad-stroke" data-item-order="0" transform="translate(483, 171.00701904296875)"></g><g id="g-root-tx_roboatpr_2qqn27tegar-stroke" data-item-order="0" transform="translate(63, 267.00701904296875)"></g><g id="g-root-wate_1qbcify7thb0p-stroke" data-item-order="0" transform="translate(423, 255.00701904296875)"><g id="wate_1qbcify7thb0p-stroke" fill="none" stroke-linecap="round" stroke-linejoin="round" stroke-miterlimit="4" stroke="#92bd39" stroke-width="2"><g><path d="M 43 45C 43 45.552284 43.447716 46 44 46C 44.552284 46 45 45.552284 45 45C 45 44.447716 44.552284 44 44 44C 43.447716 44 43 44.447716 43 45M 11 46.5C 11 46.776142 11.223858 47 11.5 47C 11.776142 47 12 46.776142 12 46.5C 12 46.223858 11.776142 46 11.5 46C 11.223858 46 11 46.223858 11 46.5M 11 24.248001C 30.864 15.884 40.271999 34.704002 57 25.293999M 57 37.248001C 37.136002 28.884001 27.728001 47.703999 11 38.293999M 11 53.332001C 30.422001 45.153999 40.643997 63.554001 57 54.354M 17.780001 40.760002L 15.518 33.211998L 24.018 28.212L 34.438 37.587997M 34.638 24.970001L 39.503998 18.653999C 40.511513 17.346825 42.105457 16.629398 43.751999 16.742001L 45.551998 16.866001L 50.077999 11L 54.966 14.768L 50.444 20.633999L 51.023998 22.346001C 51.555111 23.910858 51.267555 25.637695 50.257999 26.945999L 49.57 27.860001"></path></g></g></g><g id="g-root-tx_wastecol_1lxe2xq7teh3a-stroke" data-item-order="0" transform="translate(483, 267.00701904296875)"></g><g id="g-root-righ_mah65a7tha82-stroke" data-item-order="0" transform="translate(423, 351.00701904296875)"><g id="righ_mah65a7tha82-stroke" fill="none" stroke-linecap="round" stroke-linejoin="round" stroke-miterlimit="4" stroke="#e0cb15" stroke-width="2"><g><path d="M 13.413832 32.585785L 32.584911 13.414708C 32.584911 13.414708 33.999123 12.000494 35.413338 13.414708L 54.584415 32.585785C 54.584415 32.585785 55.998631 34 54.584415 35.414215L 35.413338 54.585293C 35.413338 54.585293 33.999123 55.999504 32.584911 54.585293L 13.413832 35.414215C 13.413832 35.414215 11.99962 34 13.413832 32.585785M 40 42L 40 35.414001C 39.999947 35.149296 39.894936 34.895409 39.708 34.708L 34.292 29.292C 34.105064 29.104589 34.000053 28.850704 34 28.586L 34 23M 30 42L 30 23"></path></g></g></g><g id="g-root-tx_trafficr_1d3mhy67tegw7-stroke" data-item-order="0" transform="translate(483, 363.007080078125)"></g><g id="g-root-smar_qtfkny7sxm30-stroke" data-item-order="0" transform="translate(423, 447.007080078125)"><g id="smar_qtfkny7sxm30-stroke" fill="none" stroke-linecap="round" stroke-linejoin="round" stroke-miterlimit="4" stroke="#de8431" stroke-width="2"><g><path d="M 13 39L 13 33C 13.00039 31.690901 13.3564 30.4065 14.030001 29.284L 19 21L 31 21C 33.546387 20.999733 35.97311 22.08078 37.675999 23.973999L 44 31L 51 31C 53.351082 31.000549 55.400124 32.601028 55.970001 34.882L 57 39C 57 41.209137 55.209141 43 53 43L 51 43M 43 43L 25 43M 47 39L 57 39M 43 43C 43 45.209141 44.790859 47 47 47C 49.209141 47 51 45.209141 51 43C 51 40.790863 49.209141 39 47 39C 44.790859 39 43 40.790863 43 43ZM 19 21L 15 21M 44 31L 13.282 31M 25 21L 25 31M 21 39L 13 39C 11.895431 39 11 39.895432 11 41C 11 42.104568 11.895431 43 13 43L 17 43M 17 43C 17 45.209141 18.790861 47 21 47C 23.209139 47 25 45.209141 25 43C 25 40.790863 23.209139 39 21 39C 18.790861 39 17 40.790863 17 43ZM 31 35L 29 35M 16 35L 13 35M 56 35L 53 35C 50.790859 35 49 33.209137 49 31"></path></g></g></g><g id="g-root-tx_sustaina_13zvbku7tfv9k-stroke" data-item-order="0" transform="translate(483, 459.007080078125)"></g></g></g></svg>