<?xml version="1.0" encoding="utf-8" standalone="yes"?>
<!DOCTYPE svg PUBLIC "-//W3C//DTD SVG 1.1//EN" "http://www.w3.org/Graphics/SVG/1.1/DTD/svg11.dtd">
<svg width="878" height="317" viewBox="0 0 878 317" style="fill:none;stroke:none;fill-rule:evenodd;clip-rule:evenodd;stroke-linecap:round;stroke-linejoin:round;stroke-miterlimit:1.5;" version="1.1" xmlns="http://www.w3.org/2000/svg" xmlns:xlink="http://www.w3.org/1999/xlink"><style id="fontImports">@import url("https://fonts.googleapis.com/css2?family=Roboto:wght@400;700&amp;display=block");</style><rect id="" x="0" y="0" width="878" height="316.947" style="fill: #ffffff;"></rect><g id="items" style="isolation: isolate"><g id="blend" style="mix-blend-mode: normal"><g id="g-root-tf_me7ehsauyrd7-fill" data-item-order="-275894" transform="translate(-9, -9)"><g id="tf_me7ehsauyrd7-fill" stroke="none" fill="#ffffff"><g><path d="M 10 9.997388L 886 9.997388L 886 324.947388L 10 324.947388Z"></path></g></g></g><g id="g-root--1.cu_sy_1cw4mjkal7myq-fill" data-item-order="-109434" transform="translate(266, 41.947357177734375)"><g id="-1.cu_sy_1cw4mjkal7myq-fill" stroke="none" fill="#f5f5f5"><g><path d="M 125 34L 101 10L 10 166L 34 190L 125 34ZM 125 34L 34 190L 216 190L 125 34Z"></path></g></g></g><g id="g-root-0.line-start_sy_3d1cwal7m6j-fill" data-item-order="-109429" transform="translate(243, 143.94735717773438)"></g><g id="g-root-0.cr-small_cr_v7cie8al7kek-fill" data-item-order="-109428" transform="translate(171, 107.94735717773438)"><g id="0.cr-small_cr_v7cie8al7kek-fill" stroke="none" fill="#f5f5f5"><g><path d="M 10 46C 10 65.882251 26.117749 82 46 82C 65.882251 82 82 65.882251 82 46C 82 26.117749 65.882251 10 46 10C 26.117749 10 10 26.117749 10 46"></path></g></g></g><g id="g-root-3.line_sy_1luw080al7mkl-fill" data-item-order="-109421" transform="translate(336, 143.94735717773438)"></g><g id="g-root-3.cr-small_cr_924f1cal7lse-fill" data-item-order="-109420" transform="translate(591, 197.94735717773438)"><g id="3.cr-small_cr_924f1cal7lse-fill" stroke="none" fill="#f4ffdc"><g><path d="M 10 40C 10.000002 56.568544 23.431459 70.000002 40.000002 70.000002C 56.568544 70.000002 70.000002 56.568544 70.000002 40.000002C 70.000002 23.431459 56.568544 10.000002 40.000002 10.000002C 23.431459 10.000002 10.000002 23.431459 10.000002 40.000002"></path></g></g></g><g id="g-root-2.line_sy_zqady8al7ksn-fill" data-item-order="-109413" transform="translate(335.5, 143.94735717773438)"></g><g id="g-root-2.cr-small_cr_1utndwgal7m6g-fill" data-item-order="-109412" transform="translate(591, 113.94735717773438)"><g id="2.cr-small_cr_1utndwgal7m6g-fill" stroke="none" fill="#e3fff2"><g><path d="M 10 40C 10.000002 56.568544 23.431459 70.000002 40.000002 70.000002C 56.568544 70.000002 70.000002 56.568544 70.000002 40.000002C 70.000002 23.431459 56.568544 10.000002 40.000002 10.000002C 23.431459 10.000002 10.000002 23.431459 10.000002 40.000002"></path></g></g></g><g id="g-root-1.line_sy_mgpau8al7ldt-fill" data-item-order="-109405" transform="translate(335.5, 59.947418212890625)"></g><g id="g-root-1.cr-small_cr_1ulj7s0al8zr6-fill" data-item-order="-109404" transform="translate(591, 29.94744873046875)"><g id="1.cr-small_cr_1ulj7s0al8zr6-fill" stroke="none" fill="#e8f9ff"><g><path d="M 10 40C 10.000002 56.568544 23.431459 70.000002 40.000002 70.000002C 56.568544 70.000002 70.000002 56.568544 70.000002 40.000002C 70.000002 23.431459 56.568544 10.000002 40.000002 10.000002C 23.431459 10.000002 10.000002 23.431459 10.000002 40.000002"></path></g></g></g><g id="g-root-grap_m7ynmoauxcel-fill" data-item-order="0" transform="translate(603, 41.947357177734375)"></g><g id="g-root-tx_personal_1ut0wtcauxds9-fill" data-item-order="0" transform="translate(663, 35.947357177734375)"><g id="tx_personal_1ut0wtcauxds9-fill" stroke="none" fill="#484848"><g><text style="font: 20px &quot;Roboto&quot;, sans-serif; white-space: pre;" font-size="20px" font-family="'Roboto', sans-serif"><tspan x="12" y="34.33" dominant-baseline="ideographic">Personalized </tspan><tspan x="12" y="58.33" dominant-baseline="ideographic">Career Guidance</tspan></text></g></g></g><g id="g-root-tx_watsonca_m97lswauxekm-fill" data-item-order="0" transform="translate(15, 119.94735717773438)"><g id="tx_watsonca_m97lswauxekm-fill" stroke="none" fill="#484848"><g><text style="font: 20px &quot;Roboto&quot;, sans-serif; white-space: pre;" font-size="20px" font-family="'Roboto', sans-serif"><tspan x="21.02" y="34.33" dominant-baseline="ideographic">Watson Career </tspan><tspan x="95.22" y="58.33" dominant-baseline="ideographic">Coach</tspan></text></g></g></g><g id="g-root-targ_18jfo68akv020-fill" data-item-order="0" transform="translate(183, 119.94735717773438)"></g><g id="g-root-1_8cqw0auvym8-fill" data-item-order="0" transform="translate(603, 125.94735717773438)"></g><g id="g-root-tx_skillass_1lw4ye8auxd6o-fill" data-item-order="0" transform="translate(663, 119.94735717773438)"><g id="tx_skillass_1lw4ye8auxd6o-fill" stroke="none" fill="#484848"><g><text style="font: 20px &quot;Roboto&quot;, sans-serif; white-space: pre;" font-size="20px" font-family="'Roboto', sans-serif"><tspan x="12" y="34.33" dominant-baseline="ideographic">Skill </tspan><tspan x="12" y="58.33" dominant-baseline="ideographic">Assessments</tspan></text></g></g></g><g id="g-root-asce_qvwuu8akuzgr-fill" data-item-order="0" transform="translate(603, 209.94735717773438)"></g><g id="g-root-tx_careerpa_hv9ixsauxdlb-fill" data-item-order="0" transform="translate(663, 203.94735717773438)"><g id="tx_careerpa_hv9ixsauxdlb-fill" stroke="none" fill="#484848"><g><text style="font: 20px &quot;Roboto&quot;, sans-serif; white-space: pre;" font-size="20px" font-family="'Roboto', sans-serif"><tspan x="12" y="34.33" dominant-baseline="ideographic">Career Path </tspan><tspan x="12" y="58.33" dominant-baseline="ideographic">Recommendations</tspan></text></g></g></g><g id="g-root-tf_me7ehsauyrd7-stroke" data-item-order="-275894" transform="translate(-9, -9)"></g><g id="g-root--1.cu_sy_1cw4mjkal7myq-stroke" data-item-order="-109434" transform="translate(266, 41.947357177734375)"><g id="-1.cu_sy_1cw4mjkal7myq-stroke" fill="none" stroke-linecap="round" stroke-linejoin="round" stroke-miterlimit="4" stroke="#969696" stroke-width="2"><g><path d="M 125 34L 101 10L 10 166L 34 190L 125 34ZM 125 34L 34 190L 216 190L 125 34Z"></path></g></g></g><g id="g-root-0.line-start_sy_3d1cwal7m6j-stroke" data-item-order="-109429" transform="translate(243, 143.94735717773438)"><g id="0.line-start_sy_3d1cwal7m6j-stroke" fill="none" stroke-linecap="round" stroke-linejoin="round" stroke-miterlimit="4" stroke="#969696" stroke-width="2"><g><path d="M 10 10L 102.5 10"></path></g></g></g><g id="g-root-0.cr-small_cr_v7cie8al7kek-stroke" data-item-order="-109428" transform="translate(171, 107.94735717773438)"><g id="0.cr-small_cr_v7cie8al7kek-stroke" fill="none" stroke-linecap="round" stroke-linejoin="round" stroke-miterlimit="4" stroke="#969696" stroke-width="2"><g><path d="M 10 46C 10 65.882251 26.117749 82 46 82C 65.882251 82 82 65.882251 82 46C 82 26.117749 65.882251 10 46 10C 26.117749 10 10 26.117749 10 46"></path></g></g></g><g id="g-root-3.line_sy_1luw080al7mkl-stroke" data-item-order="-109421" transform="translate(336, 143.94735717773438)"><g id="3.line_sy_1luw080al7mkl-stroke" fill="none" stroke-linecap="round" stroke-linejoin="round" stroke-miterlimit="4" stroke="#92bd39" stroke-width="2"><g><path d="M 257.19 93.14L 107.5 22L 10 10"></path><path d="M 249 96.4L 257.6 93.4L 254.6 84.7" stroke-dasharray="none"></path></g></g></g><g id="g-root-3.cr-small_cr_924f1cal7lse-stroke" data-item-order="-109420" transform="translate(591, 197.94735717773438)"><g id="3.cr-small_cr_924f1cal7lse-stroke" fill="none" stroke-linecap="round" stroke-linejoin="round" stroke-miterlimit="4" stroke="#92bd39" stroke-width="2"><g><path d="M 10 40C 10.000002 56.568544 23.431459 70.000002 40.000002 70.000002C 56.568544 70.000002 70.000002 56.568544 70.000002 40.000002C 70.000002 23.431459 56.568544 10.000002 40.000002 10.000002C 23.431459 10.000002 10.000002 23.431459 10.000002 40.000002"></path></g></g></g><g id="g-root-2.line_sy_zqady8al7ksn-stroke" data-item-order="-109413" transform="translate(335.5, 143.94735717773438)"><g id="2.line_sy_zqady8al7ksn-stroke" fill="none" stroke-linecap="round" stroke-linejoin="round" stroke-miterlimit="4" stroke="#3cc583" stroke-width="2"><g><path d="M 257.5 10.49L 101 10L 10 10"></path><path d="M 251.5 17L 258 10.5L 251.5 4" stroke-dasharray="none"></path></g></g></g><g id="g-root-2.cr-small_cr_1utndwgal7m6g-stroke" data-item-order="-109412" transform="translate(591, 113.94735717773438)"><g id="2.cr-small_cr_1utndwgal7m6g-stroke" fill="none" stroke-linecap="round" stroke-linejoin="round" stroke-miterlimit="4" stroke="#3cc583" stroke-width="2"><g><path d="M 10 40C 10.000002 56.568544 23.431459 70.000002 40.000002 70.000002C 56.568544 70.000002 70.000002 56.568544 70.000002 40.000002C 70.000002 23.431459 56.568544 10.000002 40.000002 10.000002C 23.431459 10.000002 10.000002 23.431459 10.000002 40.000002"></path></g></g></g><g id="g-root-1.line_sy_mgpau8al7ldt-stroke" data-item-order="-109405" transform="translate(335.5, 59.947418212890625)"><g id="1.line_sy_mgpau8al7ldt-stroke" fill="none" stroke-linecap="round" stroke-linejoin="round" stroke-miterlimit="4" stroke="#1eabda" stroke-width="2"><g><path d="M 10 93.999988L 94 81.999988L 257.67 10.799988"></path><path d="M 254.8 19.199988L 258.1 10.599988L 249.6 7.199988" stroke-dasharray="none"></path></g></g></g><g id="g-root-1.cr-small_cr_1ulj7s0al8zr6-stroke" data-item-order="-109404" transform="translate(591, 29.94744873046875)"><g id="1.cr-small_cr_1ulj7s0al8zr6-stroke" fill="none" stroke-linecap="round" stroke-linejoin="round" stroke-miterlimit="4" stroke="#1eabda" stroke-width="2"><g><path d="M 10 40C 10.000002 56.568544 23.431459 70.000002 40.000002 70.000002C 56.568544 70.000002 70.000002 56.568544 70.000002 40.000002C 70.000002 23.431459 56.568544 10.000002 40.000002 10.000002C 23.431459 10.000002 10.000002 23.431459 10.000002 40.000002"></path></g></g></g><g id="g-root-grap_m7ynmoauxcel-stroke" data-item-order="0" transform="translate(603, 41.947357177734375)"><g id="grap_m7ynmoauxcel-stroke" fill="none" stroke-linecap="round" stroke-linejoin="round" stroke-miterlimit="4" stroke="#1eabda" stroke-width="2"><g><path d="M 17.5 28L 17.5 32.5M 20.5 45.25L 21.25 37.75L 24.25 37.75L 24.25 31.75C 24.25 28.022079 21.227922 25 17.5 25C 13.772079 25 10.75 28.022079 10.75 31.75L 10.75 37.75L 13.75 37.75L 14.5 45.25M 13.645 16C 15.055329 17.438824 16.985245 18.249712 19 18.25C 20.031654 18.253513 21.05294 18.044149 22 17.635M 13.03 18.25C 13.029743 20.735464 15.037822 22.750465 17.514999 22.750465C 19.992178 22.750465 22.000256 20.735464 22 18.25C 22.000256 15.764537 19.992178 13.749534 17.514999 13.749534C 15.037822 13.749534 13.029743 15.764537 13.03 18.25M 22 10.75L 43.75 10.75C 44.578426 10.75 45.25 11.421573 45.25 12.25L 45.25 27.25C 45.25 28.078428 44.578426 28.75 43.75 28.75L 28 28.75M 31.75 28.75L 31.75 37.75M 28.75 37.75L 34.75 37.75M 26.5 21.25L 31 16.75L 33.25 19L 38.5 13.75M 34.75 13.75L 38.5 13.75L 38.5 17.5M 36.25 22.75L 39.25 22.75M 36.25 25.75L 40.75 25.75"></path></g></g></g><g id="g-root-tx_personal_1ut0wtcauxds9-stroke" data-item-order="0" transform="translate(663, 35.947357177734375)"></g><g id="g-root-tx_watsonca_m97lswauxekm-stroke" data-item-order="0" transform="translate(15, 119.94735717773438)"></g><g id="g-root-targ_18jfo68akv020-stroke" data-item-order="0" transform="translate(183, 119.94735717773438)"><g id="targ_18jfo68akv020-stroke" fill="none" stroke-linecap="round" stroke-linejoin="round" stroke-miterlimit="4" stroke="#969696" stroke-width="2"><g><path d="M 34 11L 34 18.046M 11 34L 18.046 34M 34 57L 34 49.953999M 57 34L 49.953999 34M 15 34C 15 44.493412 23.50659 53 34 53C 44.493412 53 53 44.493412 53 34C 53 23.50659 44.493412 15 34 15C 23.50659 15 15 23.50659 15 34M 44.467999 28.23L 38 34.702C 39.298607 38.014671 38.095718 41.784019 35.118286 43.732109C 32.140854 45.680202 28.205244 45.272892 25.689873 42.756336C 23.1745 40.23978 22.769043 36.303978 24.718533 33.327461C 26.668024 30.350946 30.437941 29.149836 33.75 30.450001L 40.218002 23.98L 44.515999 23.98ZM 30.125999 37.442001C 30.125933 37.928055 30.519941 38.322121 31.006001 38.322121C 31.492058 38.322121 31.886066 37.928055 31.886 37.442001C 31.886066 36.95594 31.492058 36.561878 31.006001 36.561878C 30.519941 36.561878 30.125933 36.95594 30.125999 37.442001"></path></g></g></g><g id="g-root-1_8cqw0auvym8-stroke" data-item-order="0" transform="translate(603, 125.94735717773438)"><g id="1_8cqw0auvym8-stroke" fill="none" stroke-linecap="round" stroke-linejoin="round" stroke-miterlimit="4" stroke="#3cc583" stroke-width="2"><g><path d="M 36.25 45.25L 36.25 41.2495C 36.249172 38.488697 34.011307 36.250832 31.250502 36.250004L 28.75 36.25L 28.75 29.5C 28.75 28.25736 27.742641 27.25 26.5 27.25C 25.25736 27.25 24.25 28.25736 24.25 29.5L 24.25 40L 22.316502 38.380001C 21.653759 37.583881 20.471119 37.475758 19.674999 38.138496C 18.878881 38.801239 18.770758 39.983879 19.4335 40.779999L 23.152 45.25M 37.375 20.873501C 37.375 22.323248 38.550255 23.498501 40 23.498501C 41.449749 23.498501 42.625 22.323248 42.625 20.873501C 42.625 19.423754 41.449749 18.248501 40 18.248501C 38.550255 18.248501 37.375 19.423754 37.375 20.873501ZM 45.25 28.75C 44.638042 26.350136 42.476658 24.670738 40 24.670738C 37.523342 24.670738 35.361961 26.350136 34.75 28.75ZM 13.375 20.873501C 13.375 22.323248 14.550253 23.498501 16 23.498501C 17.449747 23.498501 18.625 22.323248 18.625 20.873501C 18.625 19.423754 17.449747 18.248501 16 18.248501C 14.550253 18.248501 13.375 19.423754 13.375 20.873501ZM 21.25 28.75C 20.638041 26.350136 18.476658 24.670738 16 24.670738C 13.523341 24.670738 11.36196 26.350136 10.75 28.75ZM 25.375 16.373501C 25.375002 17.823248 26.550255 18.998501 28.000002 18.998501C 29.449747 18.998501 30.625002 17.823248 30.625002 16.373501C 30.625002 14.923753 29.449747 13.7485 28.000002 13.7485C 26.550255 13.7485 25.375002 14.923753 25.375002 16.373501ZM 33.25 24.25C 32.638039 21.850138 30.476658 20.17074 28 20.17074C 25.523342 20.17074 23.361959 21.850138 22.75 24.25ZM 19.75 15.2485L 22.75 15.2485M 21.592001 10.7485L 24.074501 12.4315M 34.407997 10.7485L 31.925499 12.4315M 33.25 15.2485L 36.25 15.2485"></path></g></g></g><g id="g-root-tx_skillass_1lw4ye8auxd6o-stroke" data-item-order="0" transform="translate(663, 119.94735717773438)"></g><g id="g-root-asce_qvwuu8akuzgr-stroke" data-item-order="0" transform="translate(603, 209.94735717773438)"><g id="asce_qvwuu8akuzgr-stroke" fill="none" stroke-linecap="round" stroke-linejoin="round" stroke-miterlimit="4" stroke="#92bd39" stroke-width="2"><g><path d="M 27.25 45.25L 27.25 40C 27.25 39.585785 27.585787 39.25 28 39.25L 33.25 39.25L 33.25 34C 33.25 33.585785 33.585785 33.25 34 33.25L 39.25 33.25L 39.25 28C 39.25 27.585787 39.585785 27.25 40 27.25L 45.25 27.25M 36.25 45.25L 45.25 36.25M 40.75 36.25L 45.25 36.25L 45.25 40.75M 27.25 37L 27.25 35.935001C 27.247368 34.669586 26.871708 33.433037 26.17 32.380001L 24.25 29.5L 24.25 26.125C 26.292997 27.366808 28.843397 27.423992 30.940001 26.275C 31.372862 26.043434 31.694534 25.647665 31.832748 25.176613C 31.970959 24.705563 31.914122 24.198734 31.674999 23.77C 31.287848 23.19017 30.532053 22.985209 29.905001 23.290001C 24.565001 24.549999 25.585001 20.290001 20.125 19.75C 14.665 19.209999 10.75 24.400002 10.75 28.75C 10.75 29.578428 11.421573 30.25 12.25 30.25C 13.078427 30.25 13.75 29.578428 13.75 28.75C 13.75 27.924999 15.25 24.25 16.75 24.25L 16.75 29.200001L 14.665 40.224998C 14.564651 40.725281 14.697105 41.244057 15.025 41.635002C 15.352662 42.024776 15.835795 42.24987 16.344999 42.249996C 17.116201 42.250122 17.792053 41.734016 17.994999 40.989998L 20.5 31.75L 22.09 33.744999C 23.00276 34.880264 23.500237 36.293312 23.5 37.75M 17.5 13.75C 17.5 15.406855 18.843145 16.75 20.5 16.75C 22.156855 16.75 23.5 15.406855 23.5 13.75C 23.5 12.093145 22.156855 10.75 20.5 10.75C 18.843145 10.75 17.5 12.093145 17.5 13.75"></path></g></g></g><g id="g-root-tx_careerpa_hv9ixsauxdlb-stroke" data-item-order="0" transform="translate(663, 203.94735717773438)"></g></g></g></svg>