<?xml version="1.0" encoding="utf-8" standalone="yes"?>
<!DOCTYPE svg PUBLIC "-//W3C//DTD SVG 1.1//EN" "http://www.w3.org/Graphics/SVG/1.1/DTD/svg11.dtd">
<svg width="794" height="626" viewBox="0 0 794 626" style="fill:none;stroke:none;fill-rule:evenodd;clip-rule:evenodd;stroke-linecap:round;stroke-linejoin:round;stroke-miterlimit:1.5;" version="1.1" xmlns="http://www.w3.org/2000/svg" xmlns:xlink="http://www.w3.org/1999/xlink"><style id="fontImports">@import url("https://fonts.googleapis.com/css2?family=Roboto:wght@400;700&amp;display=block");</style><rect id="" x="0" y="0" width="794" height="626" style="fill: #ffffff;"></rect><g id="items" style="isolation: isolate"><g id="blend" style="mix-blend-mode: normal"><g id="g-root-tf_qn6aswcj8zra-fill" data-item-order="-494208" transform="translate(-9, -9)"><g id="tf_qn6aswcj8zra-fill" stroke="none" fill="#ffffff"><g><path d="M 10 10L 802 10L 802 634L 10 634Z"></path></g></g></g><g id="g-root-0.cu_sy_94mkvkcitiio-fill" data-item-order="-146156" transform="translate(257, 147.3612060546875)"><g id="0.cu_sy_94mkvkcitiio-fill" stroke="none" fill="#f5f5f5"><g><path d="M 166.699 244.285C 165.529 242.803 164.274 241.391 162.941 240.058L 129 206.117L 95.0589 240.059C 93.8827 241.235 92.7673 242.472 91.7178 243.764C 66.0029 235.114 44.1819 217.99 29.5746 195.712L 50.0436 155.539L 10.1103 135.192C 10.037 133.471 10 131.74 10 130C 10 101.9785 19.6045 76.2003 35.7012 55.7778L 79.9467 62.7859L 87.0537 17.9135C 100.3881 12.8012 114.867 10 130 10C 144.245 10 157.91 12.4821 170.587 17.0375L 177.833 62.7859L 224.052 55.4652C 240.297 75.937 250 101.8354 250 130C 250 132.063 249.948 134.114 249.845 136.152L 209.833 156.539L 230.068 196.253C 215.162 218.722 192.891 235.88 166.699 244.285Z"></path></g></g></g><g id="g-root-5.cu_sy_qn5y5sciuww1-fill" data-item-order="-146152" transform="translate(238.0430908203125, 97.2257080078125)"><g id="5.cu_sy_qn5y5sciuww1-fill" stroke="none" fill="#fff2e5"><g><path d="M 105.4124 65.512615C 107.3342 53.379515 104.6273 40.513215 96.8362 29.789715C 81.2542 8.342915 51.2365 3.588615 29.7897 19.170615C 8.3429 34.752615 3.5886 64.770315 19.1706 86.217115C 26.9616 96.940515 38.3615 103.490815 50.4946 105.412415L 97.9035 112.922015L 105.4107 65.523515C 105.4112 65.519915 105.4118 65.516315 105.4124 65.512615Z"></path></g></g></g><g id="g-root-4.cu_sy_18fowtsciuwoy-fill" data-item-order="-146148" transform="translate(183.47055053710938, 265.8643798828125)"><g id="4.cu_sy_18fowtsciuwoy-fill" stroke="none" fill="#fffbda"><g><path d="M 100.78153 79.8041C 95.20453 90.7497 85.45203 99.5677 72.84583 103.6637C 47.63363 111.856 20.55423 98.058 12.36233 72.8458C 4.17033 47.6336 17.96803 20.5542 43.18013 12.3623C 55.78623 8.2663 68.85913 9.6677 79.80453 15.2447L 122.57303 37.0358L 100.78653 79.7943C 100.78483 79.7976 100.78313 79.8009 100.78153 79.8041Z"></path></g></g></g><g id="g-root-3.cu_sy_4hxuswciuy9v-fill" data-item-order="-146144" transform="translate(327, 343.4783935546875)"><g id="3.cu_sy_4hxuswciuy9v-fill" stroke="none" fill="#f4ffdc"><g><path d="M 91.9408 43.9411C 100.6273 52.6274 106 64.6276 106 77.8825C 106 104.3922 84.5097 125.883 58 125.883C 31.4903 125.883 10 104.3922 10 77.8825C 10 64.6277 15.3726 52.6277 24.0589 43.9414L 57.9997 10L 91.9331 43.9333C 91.9356 43.9359 91.9382 43.9385 91.9408 43.9411Z"></path></g></g></g><g id="g-root-2.cu_sy_dett80ciuyvg-fill" data-item-order="-146140" transform="translate(455.832763671875, 266.8646240234375)"><g id="2.cu_sy_dett80ciuyvg-fill" stroke="none" fill="#e3fff2"><g><path d="M 52.7683 15.244831C 63.7138 9.667731 76.7868 8.266231 89.393 12.362331C 114.605 20.554231 128.403 47.633631 120.211 72.845831C 112.019 98.058031 84.9396 111.856031 59.7274 103.663731C 47.1213 99.567731 37.3688 90.749931 31.7919 79.804531L 10 37.036431L 52.7585 15.249831C 52.7618 15.248231 52.765 15.246531 52.7683 15.244831Z"></path></g></g></g><g id="g-root-1.cu_sy_142zs4wciuxvp-fill" data-item-order="-146136" transform="translate(415.729736328125, 97.2257080078125)"><g id="1.cu_sy_142zs4wciuxvp-fill" stroke="none" fill="#e8f9ff"><g><path d="M 10.59443 65.512615C 8.67263 53.379515 11.37953 40.513215 19.17063 29.789715C 34.75263 8.342915 64.77033 3.588615 86.21713 19.170615C 107.66393 34.752615 112.41803 64.770315 96.83623 86.217115C 89.04523 96.940515 77.64533 103.490815 65.51233 105.412415L 18.10333 112.922015L 10.59613 65.523515C 10.59563 65.519915 10.59503 65.516315 10.59443 65.512615Z"></path></g></g></g><g id="g-root-whee_i09l4gcj3bwm-fill" data-item-order="0" transform="translate(261, 123.0035400390625)"></g><g id="g-root-1_1ltno6ociqps5-fill" data-item-order="0" transform="translate(442, 123.0035400390625)"></g><g id="g-root-tx_utilizes_1lz9xyocj670o-fill" data-item-order="0" transform="translate(531, 99.0035400390625)"><g id="tx_utilizes_1lz9xyocj670o-fill" stroke="none" fill="#484848"><g><text style="font: 15px &quot;Roboto&quot;, sans-serif; white-space: pre;" font-size="15px" font-family="'Roboto', sans-serif"><tspan x="12" y="31" dominant-baseline="ideographic">Utilizes neural networks </tspan><tspan x="12" y="49" dominant-baseline="ideographic">to process and learn </tspan><tspan x="12" y="67" dominant-baseline="ideographic">from data</tspan></text></g></g></g><g id="g-root-3_2r6eocj677v-fill" data-item-order="0" transform="translate(328, 219.0035400390625)"></g><g id="g-root-tx_language_v4v86ocj7kle-fill" data-item-order="0" transform="translate(63, 267.0035400390625)"><g id="tx_language_v4v86ocj7kle-fill" stroke="none" fill="#e0cb15"><g><text style="font: bold 20px &quot;Roboto&quot;, sans-serif; white-space: pre;" font-weight="bold" font-size="20px" font-family="'Roboto', sans-serif"><tspan x="15.7" y="34.33" dominant-baseline="ideographic">Language</tspan></text></g></g></g><g id="g-root-tx_executes_qqx5bkcj6684-fill" data-item-order="0" transform="translate(75, 99.0035400390625)"><g id="tx_executes_qqx5bkcj6684-fill" stroke="none" fill="#484848"><g><text style="font: 15px &quot;Roboto&quot;, sans-serif; white-space: pre;" font-size="15px" font-family="'Roboto', sans-serif"><tspan x="43.03" y="31" dominant-baseline="ideographic">Executes driving </tspan><tspan x="13.25" y="49" dominant-baseline="ideographic">maneuvers based on </tspan><tspan x="39.6" y="67" dominant-baseline="ideographic">integrated inputs</tspan></text></g></g></g><g id="g-root-tx_lingo2mo_4gp99scj7ll5-fill" data-item-order="0" transform="translate(591, 267.0035400390625)"><g id="tx_lingo2mo_4gp99scj7ll5-fill" stroke="none" fill="#3cc583"><g><text style="font: bold 20px &quot;Roboto&quot;, sans-serif; white-space: pre;" font-weight="bold" font-size="20px" font-family="'Roboto', sans-serif"><tspan x="12" y="34.33" dominant-baseline="ideographic">LINGO-2 Model</tspan></text></g></g></g><g id="g-root-tx_offersli_znt3qocj66tp-fill" data-item-order="0" transform="translate(15, 303.0035400390625)"><g id="tx_offersli_znt3qocj66tp-fill" stroke="none" fill="#484848"><g><text style="font: 15px &quot;Roboto&quot;, sans-serif; white-space: pre;" font-size="15px" font-family="'Roboto', sans-serif"><tspan x="46.98" y="31" dominant-baseline="ideographic">Offers linguistic </tspan><tspan x="15.68" y="49" dominant-baseline="ideographic">instructions to guide </tspan><tspan x="54.38" y="67" dominant-baseline="ideographic">driving actions</tspan></text></g></g></g><g id="g-root-bubb_1hegdo0cj1yj3-fill" data-item-order="0" transform="translate(207, 291.0035400390625)"></g><g id="g-root-sett_de7iggcj7ldt-fill" data-item-order="0" transform="translate(495, 291.0035400390625)"></g><g id="g-root-tx_provides_1d0ika8cj67eu-fill" data-item-order="0" transform="translate(292, 519.0035400390625)"><g id="tx_provides_1d0ika8cj67eu-fill" stroke="none" fill="#484848"><g><text style="font: 15px &quot;Roboto&quot;, sans-serif; white-space: pre;" font-size="15px" font-family="'Roboto', sans-serif"><tspan x="15.33" y="31" dominant-baseline="ideographic">Provides visual data for </tspan><tspan x="12.53" y="49" dominant-baseline="ideographic">environment recognition </tspan><tspan x="44.56" y="67" dominant-baseline="ideographic">and navigation</tspan></text></g></g></g><g id="g-root-tx_action_1hd7oz4cj7jm3-fill" data-item-order="0" transform="translate(147, 63.0035400390625)"><g id="tx_action_1hd7oz4cj7jm3-fill" stroke="none" fill="#de8431"><g><text style="font: bold 20px &quot;Roboto&quot;, sans-serif; white-space: pre;" font-weight="bold" font-size="20px" font-family="'Roboto', sans-serif"><tspan x="21.55" y="34.33" dominant-baseline="ideographic">Action</tspan></text></g></g></g><g id="g-root-eye_74bowciuw3n-fill" data-item-order="0" transform="translate(351, 387.0035400390625)"></g><g id="g-root-tx_vision_8zn4tscj7lz8-fill" data-item-order="0" transform="translate(346, 483.0035400390625)"><g id="tx_vision_8zn4tscj7lz8-fill" stroke="none" fill="#92bd39"><g><text style="font: bold 20px &quot;Roboto&quot;, sans-serif; white-space: pre;" font-weight="bold" font-size="20px" font-family="'Roboto', sans-serif"><tspan x="11.76" y="34.33" dominant-baseline="ideographic">Vision</tspan></text></g></g></g><g id="g-root-tx_endtoend_v7zlm8cj7kzx-fill" data-item-order="0" transform="translate(531, 39.0035400390625)"><g id="tx_endtoend_v7zlm8cj7kzx-fill" stroke="none" fill="#1eabda"><g><text style="font: bold 20px &quot;Roboto&quot;, sans-serif; white-space: pre;" font-weight="bold" font-size="20px" font-family="'Roboto', sans-serif"><tspan x="12" y="34.33" dominant-baseline="ideographic">End-to-End Deep </tspan><tspan x="12" y="58.33" dominant-baseline="ideographic">Learning</tspan></text></g></g></g><g id="g-root-tx_integrat_1hi7ho0cj65mv-fill" data-item-order="0" transform="translate(591, 303.0035400390625)"><g id="tx_integrat_1hi7ho0cj65mv-fill" stroke="none" fill="#484848"><g><text style="font: 15px &quot;Roboto&quot;, sans-serif; white-space: pre;" font-size="15px" font-family="'Roboto', sans-serif"><tspan x="12" y="31" dominant-baseline="ideographic">Integrates language and </tspan><tspan x="12" y="49" dominant-baseline="ideographic">vision for real-time </tspan><tspan x="12" y="67" dominant-baseline="ideographic">driving commentary</tspan></text></g></g></g><g id="g-root-tf_qn6aswcj8zra-stroke" data-item-order="-494208" transform="translate(-9, -9)"></g><g id="g-root-0.cu_sy_94mkvkcitiio-stroke" data-item-order="-146156" transform="translate(257, 147.3612060546875)"><g id="0.cu_sy_94mkvkcitiio-stroke" fill="none" stroke-linecap="round" stroke-linejoin="round" stroke-miterlimit="4" stroke="#969696" stroke-width="2"><g><path d="M 91.7178 243.7642C 66.0029 235.1144 44.1819 217.9903 29.5746 195.7116M 10.1103 135.1924C 10.037 133.4707 10 131.7397 10 130C 10 101.9785 19.6045 76.2003 35.7012 55.7778M 87.0537 17.9135C 100.3881 12.8012 114.8669 10 130 10C 144.2451 10 157.9105 12.4821 170.5872 17.0375M 224.0516 55.4652C 240.2971 75.937 250 101.8354 250 130C 250 132.0633 249.9479 134.1144 249.845 136.1522M 230.0683 196.2531C 215.1623 218.7219 192.8911 235.8804 166.6988 244.2845"></path></g></g></g><g id="g-root-5.cu_sy_qn5y5sciuww1-stroke" data-item-order="-146152" transform="translate(238.0430908203125, 97.2257080078125)"><g id="5.cu_sy_qn5y5sciuww1-stroke" fill="none" stroke-linecap="round" stroke-linejoin="round" stroke-miterlimit="4" stroke="#de8431" stroke-width="2"><g><path d="M 105.4124 65.512615C 107.3342 53.379515 104.6273 40.513215 96.8362 29.789715C 81.2542 8.342915 51.2365 3.588615 29.7897 19.170615C 8.3429 34.752615 3.5886 64.770315 19.1706 86.217115C 26.9616 96.940515 38.3615 103.490815 50.4946 105.412415L 97.9035 112.921715L 105.4107 65.523515C 105.4112 65.519915 105.4118 65.516315 105.4124 65.512615Z"></path></g></g></g><g id="g-root-4.cu_sy_18fowtsciuwoy-stroke" data-item-order="-146148" transform="translate(183.47055053710938, 265.8643798828125)"><g id="4.cu_sy_18fowtsciuwoy-stroke" fill="none" stroke-linecap="round" stroke-linejoin="round" stroke-miterlimit="4" stroke="#e0cb15" stroke-width="2"><g><path d="M 100.78153 79.8041C 95.20453 90.7497 85.45203 99.5677 72.84583 103.6637C 47.63363 111.8556 20.55423 98.058 12.36223 72.8458C 4.17033 47.6336 17.96793 20.5542 43.18013 12.3622C 55.78623 8.2663 68.85913 9.6677 79.80453 15.2446L 122.57303 37.0358L 100.78653 79.7943C 100.78483 79.7976 100.78313 79.8009 100.78153 79.8041Z"></path></g></g></g><g id="g-root-3.cu_sy_4hxuswciuy9v-stroke" data-item-order="-146144" transform="translate(327, 343.4783935546875)"><g id="3.cu_sy_4hxuswciuy9v-stroke" fill="none" stroke-linecap="round" stroke-linejoin="round" stroke-miterlimit="4" stroke="#92bd39" stroke-width="2"><g><path d="M 91.9408 43.9411C 100.6273 52.6274 106 64.6276 106 77.8825C 106 104.3922 84.5097 125.8825 58 125.8825C 31.4903 125.8825 10 104.3922 10 77.8825C 10 64.6277 15.3726 52.6277 24.0589 43.9414L 57.9997 10L 91.9331 43.9333C 91.9356 43.9359 91.9382 43.9385 91.9408 43.9411Z"></path></g></g></g><g id="g-root-2.cu_sy_dett80ciuyvg-stroke" data-item-order="-146140" transform="translate(455.832763671875, 266.8646240234375)"><g id="2.cu_sy_dett80ciuyvg-stroke" fill="none" stroke-linecap="round" stroke-linejoin="round" stroke-miterlimit="4" stroke="#3cc583" stroke-width="2"><g><path d="M 52.7683 15.244831C 63.7138 9.667731 76.7868 8.266231 89.393 12.362231C 114.6052 20.554231 128.4029 47.633631 120.2109 72.845831C 112.019 98.058031 84.9396 111.855631 59.7274 103.663731C 47.1213 99.567731 37.3688 90.749931 31.7919 79.804531L 10 37.036431L 52.7585 15.249831C 52.7618 15.248231 52.765 15.246531 52.7683 15.244831Z"></path></g></g></g><g id="g-root-1.cu_sy_142zs4wciuxvp-stroke" data-item-order="-146136" transform="translate(415.729736328125, 97.2257080078125)"><g id="1.cu_sy_142zs4wciuxvp-stroke" fill="none" stroke-linecap="round" stroke-linejoin="round" stroke-miterlimit="4" stroke="#1eabda" stroke-width="2"><g><path d="M 10.59443 65.512615C 8.67263 53.379515 11.37953 40.513215 19.17063 29.789715C 34.75263 8.342915 64.77033 3.588615 86.21713 19.170615C 107.66393 34.752615 112.41823 64.770315 96.83623 86.217115C 89.04523 96.940515 77.64533 103.490815 65.51233 105.412415L 18.10333 112.921715L 10.59613 65.523515C 10.59563 65.519915 10.59503 65.516315 10.59443 65.512615Z"></path></g></g></g><g id="g-root-whee_i09l4gcj3bwm-stroke" data-item-order="0" transform="translate(261, 123.0035400390625)"><g id="whee_i09l4gcj3bwm-stroke" fill="none" stroke-linecap="round" stroke-linejoin="round" stroke-miterlimit="4" stroke="#de8431" stroke-width="2"><g><path d="M 11 34C 11 46.702549 21.297451 57 34 57C 46.702549 57 57 46.702549 57 34C 57 21.297451 46.702549 11 34 11C 21.297451 11 11 21.297451 11 34ZM 19 34C 19 42.284271 25.715729 49 34 49C 42.284271 49 49 42.284271 49 34C 49 25.715729 42.284271 19 34 19C 25.715729 19 19 25.715729 19 34ZM 28 34C 28 37.313709 30.686293 40 34 40C 37.313709 40 40 37.313709 40 34C 40 30.686293 37.313709 28 34 28C 30.686293 28 28 30.686293 28 34ZM 31 28.802L 31 19.299999M 37 19.299999L 37 28.802M 38.038002 29.562L 46.548 25.776001M 48.773998 31.386L 39.856003 35.304001M 39.751999 35.714001L 46.23 42.686001M 41.891998 46.757999L 35.389999 39.837997M 29.962 29.562L 21.452 25.776001M 19.228001 31.386L 28.143999 35.304001M 28.247999 35.714001L 21.77 42.686001M 26.108 46.757999L 32.610001 39.837997"></path></g></g></g><g id="g-root-1_1ltno6ociqps5-stroke" data-item-order="0" transform="translate(442, 123.0035400390625)"><g id="1_1ltno6ociqps5-stroke" fill="none" stroke-linecap="round" stroke-linejoin="round" stroke-miterlimit="4" stroke="#1eabda" stroke-width="2"><g><path d="M 21.9 50.722C 24.020437 50.369061 25.810703 48.951202 26.639999 46.967999M 14.842 27.091999C 18.933346 27.809448 22.448338 30.41087 24.33 34.113998M 21.566 30.458L 25.152 27.768M 30 11.346C 29.961555 13.350931 29.599562 15.336494 28.928001 17.226M 26 19C 26 20.104568 26.89543 21 28 21C 29.10457 21 30 20.104568 30 19C 30 17.895432 29.10457 17 28 17C 26.89543 17 26 17.895432 26 19ZM 38 23C 38 24.104568 38.895432 25 40 25C 41.104568 25 42 24.104568 42 23C 42 21.895432 41.104568 21 40 21C 38.895432 21 38 21.895432 38 23ZM 45 31C 45 32.104568 45.895432 33 47 33C 48.104568 33 49 32.104568 49 31C 49 29.89543 48.104568 29 47 29C 45.895432 29 45 29.89543 45 31ZM 38 38C 38 39.104568 38.895432 40 40 40C 41.104568 40 42 39.104568 42 38C 42 36.895432 41.104568 36 40 36C 38.895432 36 38 36.895432 38 38ZM 25 27C 25 28.10457 25.895432 29 27 29C 28.10457 29 29 28.10457 29 27C 29 25.895432 28.10457 25 27 25C 25.895432 25 25 25.895432 25 27ZM 23 36C 23 37.104568 23.895432 38 25 38C 26.10457 38 27 37.104568 27 36C 27 34.895432 26.10457 34 25 34C 23.895432 34 23 34.895432 23 36ZM 57 34C 57.008011 31.185829 55.553005 28.569696 53.158001 27.092001C 53.293533 26.501471 53.363956 25.897869 53.368 25.292C 53.408073 21.133251 50.242878 17.643175 46.099998 17.278C 46.141312 15.640398 45.524818 14.054508 44.388306 12.874773C 43.251789 11.695037 41.690002 11.019809 40.052002 11C 37.462227 11.148269 35.151451 12.67555 34 15C 32.848549 12.67555 30.537773 11.148269 27.948 11C 26.309998 11.019809 24.748211 11.695037 23.611694 12.874773C 22.47518 14.054508 21.858686 15.640398 21.9 17.278C 17.755573 17.643291 14.589825 21.135719 14.632 25.296C 14.632763 25.901501 14.699829 26.505098 14.832 27.095999C 12.44329 28.57963 10.990566 31.192043 10.990566 34.003998C 10.990566 36.815956 12.44329 39.428368 14.832 40.911999C 14.699829 41.502899 14.632763 42.106499 14.632 42.711998C 14.594027 46.869217 17.758669 50.356941 21.9 50.722C 21.858686 52.3596 22.47518 53.945492 23.611694 55.125225C 24.748211 56.304962 26.309998 56.98019 27.948 57C 30.33633 57.057899 32.59996 55.93581 34 53.999996C 35.40004 55.93581 37.663666 57.057899 40.051998 56.999996C 41.690002 56.98019 43.251789 56.304962 44.388306 55.125225C 45.524818 53.945492 46.141312 52.3596 46.099998 50.722C 50.244423 50.356709 53.410175 46.864277 53.368 42.703999C 53.363956 42.098129 53.293533 41.49453 53.157997 40.903999C 55.551788 39.427048 57.006618 36.812752 57 34ZM 34 15L 34 38M 34 45.916L 34 54M 52.346001 21.326L 46.799999 24.102001C 45.179813 24.913155 43.276203 24.932337 41.639999 24.153999M 40 36C 40.593044 33.525269 42.525269 31.593044 45.000004 31.000002M 46.099998 50.722C 45.548 48.799999 44.605999 47.321999 43 47M 25 45C 25 46.104568 25.895432 47 27 47C 28.10457 47 29 46.104568 29 45C 29 43.895432 28.10457 43 27 43C 25.895432 43 25 43.895432 25 45ZM 39 47C 39 48.104568 39.895432 49 41 49C 42.104568 49 43 48.104568 43 47C 43 45.895432 42.104568 45 41 45C 39.895432 45 39 45.895432 39 47Z"></path></g></g></g><g id="g-root-tx_utilizes_1lz9xyocj670o-stroke" data-item-order="0" transform="translate(531, 99.0035400390625)"></g><g id="g-root-3_2r6eocj677v-stroke" data-item-order="0" transform="translate(328, 219.0035400390625)"><g id="3_2r6eocj677v-stroke" fill="none" stroke-linecap="round" stroke-linejoin="round" stroke-miterlimit="4" stroke="#969696" stroke-width="2"><g><path d="M 31.728001 46.652C 34.852455 43.526279 39.919544 43.526279 43.043999 46.652M 26.556 37.484001C 32.53817 31.505001 42.233826 31.505001 48.216 37.484001M 29 78.400002L 23 78.400002C 18.581722 78.400002 15 74.818275 15 70.400002L 15 22.4C 15 17.981722 18.581722 14.4 23 14.4L 51 14.4C 55.418278 14.4 59 17.981722 59 22.4L 59 48.400002M 15 64.683998L 41 64.683998M 94.335999 94.236L 95.711998 94.236C 98.632484 94.236008 101.000008 91.868484 101.000008 88.948006L 101 83.491997C 101.000648 81.922867 100.302826 80.434868 99.096001 79.431999L 93.068001 74.400002L 90.695999 65.703995C 89.756134 62.254272 86.623466 59.860535 83.047997 59.860001L 63.807999 59.860001C 60.706131 59.86993 57.894058 61.68528 56.608002 64.507996L 52.096001 74.400002L 42.916 79.508003C 41.238937 80.44059 40.19928 82.209076 40.200001 84.127998L 40.200001 88.928001C 40.197792 91.847839 42.564163 94.216003 45.484001 94.216003L 48.183998 94.216003M 61.292 94.236L 81.227997 94.236M 48.127998 94.980003C 48.127998 98.629494 51.086502 101.587997 54.736 101.587997C 58.385498 101.587997 61.343998 98.629494 61.343998 94.979996C 61.343998 91.330505 58.385498 88.372002 54.736 88.372002C 51.086502 88.372002 48.127998 91.330505 48.127998 94.979996M 81.176003 94.980003C 81.176003 98.629494 84.134499 101.587997 87.783997 101.587997C 91.433495 101.587997 94.391998 98.629494 94.391998 94.979996C 94.391998 91.330505 91.433495 88.372002 87.783997 88.372002C 84.134499 88.372002 81.176003 91.330505 81.176003 94.979996M 52.096001 74.407997L 93.068001 74.407997M 72.580002 59.868L 72.580002 74.407997"></path></g></g></g><g id="g-root-tx_language_v4v86ocj7kle-stroke" data-item-order="0" transform="translate(63, 267.0035400390625)"></g><g id="g-root-tx_executes_qqx5bkcj6684-stroke" data-item-order="0" transform="translate(75, 99.0035400390625)"></g><g id="g-root-tx_lingo2mo_4gp99scj7ll5-stroke" data-item-order="0" transform="translate(591, 267.0035400390625)"></g><g id="g-root-tx_offersli_znt3qocj66tp-stroke" data-item-order="0" transform="translate(15, 303.0035400390625)"></g><g id="g-root-bubb_1hegdo0cj1yj3-stroke" data-item-order="0" transform="translate(207, 291.0035400390625)"><g id="bubb_1hegdo0cj1yj3-stroke" fill="none" stroke-linecap="round" stroke-linejoin="round" stroke-miterlimit="4" stroke="#e0cb15" stroke-width="2"><g><path d="M 53.933998 11L 41.709999 11L 45.243999 20.9L 40.43 22.618L 44.556 34.172001L 31.356001 21.518L 37.400002 17.186001L 32.284 11L 14.066 11C 12.372695 11 11 12.372695 11 14.066L 11 44.734001C 11 46.427307 12.372695 47.799999 14.066 47.799999L 20.200001 47.799999L 20.200001 57L 32.466 47.799999L 53.933998 47.799999C 55.627304 47.799999 57 46.427307 57 44.734001L 57 14.066C 57 12.372695 55.627304 11 53.934002 11Z"></path></g></g></g><g id="g-root-sett_de7iggcj7ldt-stroke" data-item-order="0" transform="translate(495, 291.0035400390625)"><g id="sett_de7iggcj7ldt-stroke" fill="none" stroke-linecap="round" stroke-linejoin="round" stroke-miterlimit="4" stroke="#3cc583" stroke-width="2"><g><path d="M 20 36.062L 20 39.062C 20 39.614285 19.552284 40.062 19 40.062L 15 40.062C 14.447716 40.062 14 39.614285 14 39.062L 14 36.062M 50 28.062L 46 24.062L 16 24.062L 12.292 27.77C 12.105062 27.957411 12.000056 28.211294 12 28.476L 12 35.062C 12 35.614285 12.447716 36.062 13 36.062L 26.91 36.062M 46 24.062L 42.251999 14.691999C 42.100372 14.311279 41.731804 14.061604 41.321999 14.062L 20.678001 14.062C 20.268196 14.061604 19.899628 14.311279 19.748001 14.691999L 16 24.062M 12 32.062L 21 32.062M 39.629997 41.125999C 39.630001 42.713268 40.916733 44 42.504002 44C 44.091267 44 45.378002 42.713268 45.378002 41.125999C 45.378002 39.538734 44.091267 38.251999 42.504002 38.251999C 40.916733 38.251999 39.630001 39.538734 39.630001 41.125999ZM 44.945999 30L 45.792 32.784C 46.082951 33.742275 47.065891 34.311943 48.042 34.088001L 50.863998 33.433998C 51.961876 33.186539 53.092869 33.683346 53.653358 34.659264C 54.213844 35.635185 54.073002 36.862427 53.306 37.686001L 51.332001 39.816002C 50.655918 40.550812 50.655918 41.681183 51.331997 42.415997L 53.306 44.546001C 54.073002 45.369572 54.213844 46.596817 53.653358 47.572735C 53.092869 48.548656 51.961876 49.04546 50.863998 48.798L 48.042 48.144001C 47.065891 47.920059 46.082951 48.489727 45.792 49.448002L 44.945999 52.231998C 44.620659 53.309162 43.628223 54.046127 42.502998 54.046127C 41.377777 54.046127 40.385342 53.309162 40.059998 52.231998L 39.214001 49.448002C 38.92305 48.489727 37.940109 47.920059 36.964001 48.144001L 34.141998 48.798C 33.049866 49.036736 31.928848 48.540928 31.37071 47.5723C 30.812572 46.603676 30.945774 45.385166 31.700001 44.560001L 33.674 42.43C 34.350079 41.695183 34.350079 40.564812 33.673996 39.829998L 31.700001 37.700001C 30.932997 36.876427 30.792154 35.649185 31.352642 34.673264C 31.91313 33.697346 33.044128 33.200539 34.141998 33.447998L 36.964001 34.101997C 37.940109 34.325943 38.92305 33.756275 39.214001 32.798L 40.059998 30C 40.385342 28.922836 41.377777 28.185871 42.502998 28.185871C 43.628223 28.185871 44.620659 28.922836 44.945999 30Z"></path></g></g></g><g id="g-root-tx_provides_1d0ika8cj67eu-stroke" data-item-order="0" transform="translate(292, 519.0035400390625)"></g><g id="g-root-tx_action_1hd7oz4cj7jm3-stroke" data-item-order="0" transform="translate(147, 63.0035400390625)"></g><g id="g-root-eye_74bowciuw3n-stroke" data-item-order="0" transform="translate(351, 387.0035400390625)"><g id="eye_74bowciuw3n-stroke" fill="none" stroke-linecap="round" stroke-linejoin="round" stroke-miterlimit="4" stroke="#92bd39" stroke-width="2"><g><path d="M 14 16L 54 16C 54 16 56 16 56 18L 56 50C 56 50 56 52 54 52L 14 52C 14 52 12 52 12 50L 12 18C 12 18 12 16 14 16M 18 28L 18 24C 18 22.895432 18.895432 22 20 22L 24 22M 50 28L 50 24C 50 22.895432 49.104568 22 48 22L 44 22M 18 40L 18 44C 18 45.104568 18.895432 46 20 46L 24 46M 50 40L 50 44C 50 45.104568 49.104568 46 48 46L 44 46M 29 34C 29 36.761425 31.238577 39 34 39C 36.761425 39 39 36.761425 39 34C 39 31.238577 36.761425 29 34 29C 31.238577 29 29 31.238577 29 34M 45.650002 33.104C 44.355999 31.691999 39.629997 27 34 27C 28.370001 27 23.644001 31.691999 22.35 33.104C 21.878456 33.611351 21.878456 34.396648 22.35 34.903999C 23.644001 36.307999 28.370001 41 34 41C 39.629997 41 44.355999 36.307999 45.650002 34.896C 46.121548 34.388649 46.121548 33.603355 45.650002 33.096001Z"></path></g></g></g><g id="g-root-tx_vision_8zn4tscj7lz8-stroke" data-item-order="0" transform="translate(346, 483.0035400390625)"></g><g id="g-root-tx_endtoend_v7zlm8cj7kzx-stroke" data-item-order="0" transform="translate(531, 39.0035400390625)"></g><g id="g-root-tx_integrat_1hi7ho0cj65mv-stroke" data-item-order="0" transform="translate(591, 303.0035400390625)"></g></g></g></svg>