<?xml version="1.0" encoding="utf-8" standalone="yes"?>
<!DOCTYPE svg PUBLIC "-//W3C//DTD SVG 1.1//EN" "http://www.w3.org/Graphics/SVG/1.1/DTD/svg11.dtd">
<svg width="516" height="374" viewBox="0 0 516 374" style="fill:none;stroke:none;fill-rule:evenodd;clip-rule:evenodd;stroke-linecap:round;stroke-linejoin:round;stroke-miterlimit:1.5;" version="1.1" xmlns="http://www.w3.org/2000/svg" xmlns:xlink="http://www.w3.org/1999/xlink"><style id="fontImports">@import url("https://fonts.googleapis.com/css2?family=Roboto:wght@400;700&amp;display=block");</style><rect id="" x="0" y="0" width="516" height="374" style="fill: #ffffff;"></rect><g id="items" style="isolation: isolate"><g id="blend" style="mix-blend-mode:multiply"><g id="g-root-5.cu_sy_1d2e4ci1sf52bn-fill" data-item-order="-34555" data-item-id="5.cu_sy_1d2e4ci1sf52bn" data-item-class="ScenePart Part Indexed Stroke ColorFillGray ColorStrokeGray" data-item-index="5" data-renderer-id="0" transform="translate(158, 226)"></g><g id="g-root-4.cu_sy_1d2e4ci1sf52bm-fill" data-item-order="-34554" data-item-id="4.cu_sy_1d2e4ci1sf52bm" data-item-class="ScenePart Part Indexed Fill Stroke ColorFillGray ColorStrokeGray" data-item-index="4" data-renderer-id="0" transform="translate(230, 249.33599853515625)"><g id="4.cu_sy_1d2e4ci1sf52bm-fill" stroke="none" fill="#f6f6f6"><g><path d="M 34.086 22.000001C 34.086 28.627001 28.695 34.000001 22.043 34.000001C 15.392 34.000001 10 28.627001 10 22.000001C 10 15.373001 15.392 10.000001 22.043 10.000001C 28.695 10.000001 34.086 15.373001 34.086 22.000001ZM 28 22.000001C 28 25.314001 25.314 28.000001 22 28.000001C 18.686 28.000001 16 25.314001 16 22.000001C 16 18.686001 18.686 16.000001 22 16.000001C 25.314 16.000001 28 18.686001 28 22.000001Z"></path></g></g></g><g id="g-root-3.cu_sy_1hi7mgy1sf51jd-fill" data-item-order="-34552" data-item-id="3.cu_sy_1hi7mgy1sf51jd" data-item-class="ScenePart Part Indexed Fill Stroke ColorFillGray ColorStrokeGray" data-item-index="3" data-renderer-id="0" transform="translate(194, 270.32598876953125)"><g id="3.cu_sy_1hi7mgy1sf51jd-fill" stroke="none" fill="#f6f6f6"><g><path d="M 22 78.674011L 94 78.674011C 94 78.674011 73.992 28.166011 65.959 10.058011C 63.725 11.952011 61.073 12.997011 58.043 12.997011C 54.986 12.997011 52.288 11.933011 50.072 10.000011C 42.047 28.114011 22 78.674011 22 78.674011ZM 18 78.674011C 13.582 78.674011 10 82.256011 10 86.674011L 10 88.674011C 10 89.779011 10.895 90.674011 12 90.674011L 104 90.674011C 105.105 90.674011 106 89.779011 106 88.674011L 106 86.674011C 106 82.256011 102.418 78.674011 98 78.674011L 18 78.674011Z"></path></g></g></g><g id="g-root-2.right-bucket_sy_1hi7mgy1sf51jc-fill" data-item-order="-34550" data-item-id="2.right-bucket_sy_1hi7mgy1sf51jc" data-item-class="ScenePart Part Indexed Fill Stroke" data-item-index="2" data-renderer-id="0" transform="translate(290, 207)"><g id="2.right-bucket_sy_1hi7mgy1sf51jc-fill" stroke="none" fill="#fef2e6"><g><path d="M 10 11.8C 10 10.806 10.806 10 11.8 10L 80.2 10C 81.194 10 82 10.806 82 11.8C 82 20.747 74.747 28 65.8 28L 26.2 28C 17.253 28 10 20.747 10 11.8Z"></path></g></g></g><g id="g-root-1.left-bucket_sy_1hi7mgy1sf51jb-fill" data-item-order="-34548" data-item-id="1.left-bucket_sy_1hi7mgy1sf51jb" data-item-class="ScenePart Part Indexed Indexed_1 Fill Stroke" data-item-index="1" data-renderer-id="0" transform="translate(122, 231)"><g id="1.left-bucket_sy_1hi7mgy1sf51jb-fill" stroke="none" fill="#e6f9ff"><g><path d="M 10 11.8C 10 10.806 10.806 10 11.8 10L 80.2 10C 81.194 10 82 10.806 82 11.8C 82 20.747 74.747 28 65.8 28L 26.2 28C 17.253 28 10 20.747 10 11.8Z"></path></g></g></g><g id="g-root-narr_1d3n5oi1settkw-fill" data-item-order="0" data-item-id="narr_1d3n5oi1settkw" data-item-class="Icon Stroke SceneTarget Indexed" data-item-index="4" data-renderer-id="0" transform="translate(302, 3)"></g><g id="g-root-1_detldu1t8wtts-fill" data-item-order="0" data-item-id="1_detldu1t8wtts" data-item-class="Icon Stroke SceneTarget Indexed Indexed_1" data-item-index="1" data-renderer-id="0" transform="translate(134, 27)"></g><g id="g-root-tx_limiteds_1id1e1sf6f49-fill" data-item-order="0" data-item-id="tx_limiteds_1id1e1sf6f49" data-item-class="Label Stroke SceneTarget Indexed" data-item-index="4" data-renderer-id="0" transform="translate(362, 15)"><g id="tx_limiteds_1id1e1sf6f49-fill" stroke="none" fill="#484848"><g><text style="font: 20px Roboto, sans-serif; white-space: pre;"><tspan x="12" y="33.75" dominant-baseline="ideographic">Limited scope</tspan></text></g></g></g><g id="g-root-tx_broadsco_hs5wg21sf6fwu-fill" data-item-order="0" data-item-id="tx_broadsco_hs5wg21sf6fwu" data-item-class="Label Stroke SceneTarget Indexed Indexed_1" data-item-index="1" data-renderer-id="0" transform="translate(2, 39.000091552734375)"><g id="tx_broadsco_hs5wg21sf6fwu-fill" stroke="none" fill="#484848"><g><text style="font: 20px Roboto, sans-serif; white-space: pre;"><tspan x="16.46" y="33.75" dominant-baseline="ideographic">Broad scope</tspan></text></g></g></g><g id="g-root-boxe_1hjgnsy1setssn-fill" data-item-order="0" data-item-id="boxe_1hjgnsy1setssn" data-item-class="Icon Stroke SceneTarget Indexed" data-item-index="5" data-renderer-id="0" transform="translate(302, 75)"></g><g id="g-root-tx_requires_8wiw761sf6hhc-fill" data-item-order="0" data-item-id="tx_requires_8wiw761sf6hhc" data-item-class="Label Stroke SceneTarget Indexed" data-item-index="5" data-renderer-id="0" transform="translate(362, 75)"><g id="tx_requires_8wiw761sf6hhc-fill" stroke="none" fill="#484848"><g><text style="font: 20px Roboto, sans-serif; white-space: pre;"><tspan x="12" y="33.75" dominant-baseline="ideographic">Requires </tspan><tspan x="12" y="57.75" dominant-baseline="ideographic">retraining</tspan></text></g></g></g><g id="g-root-tx_noretrai_13ymxz61sf6gp1-fill" data-item-order="0" data-item-id="tx_noretrai_13ymxz61sf6gp1" data-item-class="Label Stroke SceneTarget Indexed" data-item-index="2" data-renderer-id="0" transform="translate(2, 99)"><g id="tx_noretrai_13ymxz61sf6gp1-fill" stroke="none" fill="#484848"><g><text style="font: 20px Roboto, sans-serif; white-space: pre;"><tspan x="13.41" y="33.75" dominant-baseline="ideographic">No retraining </tspan><tspan x="62.61" y="57.75" dominant-baseline="ideographic">needed</tspan></text></g></g></g><g id="g-root-mult_9058i1settsc-fill" data-item-order="0" data-item-id="mult_9058i1settsc" data-item-class="Icon Stroke SceneTarget Indexed" data-item-index="2" data-renderer-id="0" transform="translate(134, 99)"></g><g id="g-root-focu_1lza5xe1sets0e-fill" data-item-order="0" data-item-id="focu_1lza5xe1sets0e" data-item-class="Icon Stroke SceneTarget Indexed" data-item-index="6" data-renderer-id="0" transform="translate(302, 147)"></g><g id="g-root-tx_generali_mg3koy1sf52bo-fill" data-item-order="0" data-item-id="tx_generali_mg3koy1sf52bo" data-item-class="Label Stroke SceneTarget Indexed" data-item-index="3" data-renderer-id="0" transform="translate(14, 171)"><g id="tx_generali_mg3koy1sf52bo-fill" stroke="none" fill="#484848"><g><text style="font: 20px Roboto, sans-serif; white-space: pre;"><tspan x="12.52" y="33.75" dominant-baseline="ideographic">Generalizes </tspan><tspan x="19.85" y="57.75" dominant-baseline="ideographic">knowledge</tspan></text></g></g></g><g id="g-root-neur_mfh6rm1setukj-fill" data-item-order="0" data-item-id="neur_mfh6rm1setukj" data-item-class="Icon Stroke SceneTarget Indexed" data-item-index="3" data-renderer-id="0" transform="translate(134, 171)"></g><g id="g-root-tx_taskspec_dccebm1sf6gp3-fill" data-item-order="0" data-item-id="tx_taskspec_dccebm1sf6gp3" data-item-class="Label Stroke SceneTarget Indexed" data-item-index="6" data-renderer-id="0" transform="translate(362, 159)"><g id="tx_taskspec_dccebm1sf6gp3-fill" stroke="none" fill="#484848"><g><text style="font: 20px Roboto, sans-serif; white-space: pre;"><tspan x="12" y="33.75" dominant-baseline="ideographic">Task-specific</tspan></text></g></g></g><g id="g-root-tx_narrowai_1umsww21sf6fpf-fill" data-item-order="0" data-item-id="tx_narrowai_1umsww21sf6fpf" data-item-class="Label Stroke SceneTarget Indexed" data-item-index="none" data-renderer-id="0" transform="translate(362, 303)"><g id="tx_narrowai_1umsww21sf6fpf-fill" stroke="none" fill="#484848"><g><text style="font: 20px Roboto, sans-serif; white-space: pre;"><tspan x="13.82" y="33.75" dominant-baseline="ideographic">Narrow AI</tspan></text></g></g></g><g id="g-root-tx_agi_1umsww21sf6fpe-fill" data-item-order="0" data-item-id="tx_agi_1umsww21sf6fpe" data-item-class="Label Stroke SceneTarget Indexed" data-item-index="none" data-renderer-id="0" transform="translate(56, 327)"><g id="tx_agi_1umsww21sf6fpe-fill" stroke="none" fill="#484848"><g><text style="font: 20px Roboto, sans-serif; white-space: pre;"><tspan x="11.99" y="33.75" dominant-baseline="ideographic">AGI</tspan></text></g></g></g><g id="g-root-5.cu_sy_1d2e4ci1sf52bn-stroke" data-item-order="-34555" data-item-id="5.cu_sy_1d2e4ci1sf52bn" data-item-class="ScenePart Part Indexed Stroke ColorFillGray ColorStrokeGray" data-item-index="5" data-renderer-id="0" transform="translate(158, 226)"><g id="5.cu_sy_1d2e4ci1sf52bn-stroke" fill="none" stroke-linecap="round" stroke-linejoin="round" stroke-miterlimit="4" stroke="#888888" stroke-width="2"><g><path d="M 10 34L 10 48.126C 10 52.981 14.289 56.717 19.098 56.05L 82 47.336M 178 10L 178 26.396C 178 30.389 175.056 33.77 171.101 34.32L 106 43.361"></path></g></g></g><g id="g-root-4.cu_sy_1d2e4ci1sf52bm-stroke" data-item-order="-34554" data-item-id="4.cu_sy_1d2e4ci1sf52bm" data-item-class="ScenePart Part Indexed Fill Stroke ColorFillGray ColorStrokeGray" data-item-index="4" data-renderer-id="0" transform="translate(230, 249.33599853515625)"><g id="4.cu_sy_1d2e4ci1sf52bm-stroke" fill="none" stroke-linecap="round" stroke-linejoin="round" stroke-miterlimit="4" stroke="#888888" stroke-width="2"><g><path d="M 34.086 22.000001C 34.086 28.627001 28.695 34.000001 22.043 34.000001C 15.392 34.000001 10 28.627001 10 22.000001C 10 15.373001 15.392 10.000001 22.043 10.000001C 28.695 10.000001 34.086 15.373001 34.086 22.000001ZM 28 22.000001C 28 25.314001 25.314 28.000001 22 28.000001C 18.686 28.000001 16 25.314001 16 22.000001C 16 18.686001 18.686 16.000001 22 16.000001C 25.314 16.000001 28 18.686001 28 22.000001Z"></path></g></g></g><g id="g-root-3.cu_sy_1hi7mgy1sf51jd-stroke" data-item-order="-34552" data-item-id="3.cu_sy_1hi7mgy1sf51jd" data-item-class="ScenePart Part Indexed Fill Stroke ColorFillGray ColorStrokeGray" data-item-index="3" data-renderer-id="0" transform="translate(194, 270.32598876953125)"><g id="3.cu_sy_1hi7mgy1sf51jd-stroke" fill="none" stroke-linecap="round" stroke-linejoin="round" stroke-miterlimit="4" stroke="#888888" stroke-width="2"><g><path d="M 22 78.674011L 94 78.674011C 94 78.674011 73.992 28.166011 65.959 10.058011C 63.725 11.952011 61.073 12.997011 58.043 12.997011C 54.986 12.997011 52.288 11.933011 50.072 10.000011C 42.047 28.114011 22 78.674011 22 78.674011ZM 18 78.674011C 13.582 78.674011 10 82.256011 10 86.674011L 10 88.674011C 10 89.779011 10.895 90.674011 12 90.674011L 104 90.674011C 105.105 90.674011 106 89.779011 106 88.674011L 106 86.674011C 106 82.256011 102.418 78.674011 98 78.674011L 18 78.674011Z"></path></g></g><g id="3.cu_sy_1hi7mgy1sf51jd-stroke" fill="none" stroke-linecap="round" stroke-linejoin="round" stroke-miterlimit="4" stroke="#888888" stroke-width="2"><g><path d="M 43.859 64.535011L 43.859 70.191011L 50.272 76.605011C 50.623 75.292011 51.314 74.050011 52.344 73.020011C 53.374 71.989011 54.616 71.299011 55.929 70.948011L 49.516 64.535011L 43.859 64.535011ZM 62 71.744011C 60.823 71.064011 59.457 70.674011 58 70.674011C 56.543 70.674011 55.177 71.064011 54 71.744011C 51.609 73.127011 50 75.713011 50 78.674011L 66 78.674011C 66 75.713011 64.391 73.127011 62 71.744011ZM 58 49.674011L 58 55.474011M 78.503 58.171011L 74.404 62.270011M 37.497 58.171011L 41.596 62.270011M 64.747 53.463011L 64.003 56.257011M 44.94 56.073011L 46.4 58.587011M 71.031 56.064011L 69.59 58.567011M 51.224 53.473011L 51.978 56.267011"></path></g></g></g><g id="g-root-2.right-bucket_sy_1hi7mgy1sf51jc-stroke" data-item-order="-34550" data-item-id="2.right-bucket_sy_1hi7mgy1sf51jc" data-item-class="ScenePart Part Indexed Fill Stroke" data-item-index="2" data-renderer-id="0" transform="translate(290, 207)"><g id="2.right-bucket_sy_1hi7mgy1sf51jc-stroke" fill="none" stroke-linecap="round" stroke-linejoin="round" stroke-miterlimit="4" stroke="#dd8433" stroke-width="2"><g><path d="M 10 11.8C 10 10.806 10.806 10 11.8 10L 80.2 10C 81.194 10 82 10.806 82 11.8C 82 20.747 74.747 28 65.8 28L 26.2 28C 17.253 28 10 20.747 10 11.8Z"></path></g></g></g><g id="g-root-1.left-bucket_sy_1hi7mgy1sf51jb-stroke" data-item-order="-34548" data-item-id="1.left-bucket_sy_1hi7mgy1sf51jb" data-item-class="ScenePart Part Indexed Indexed_1 Fill Stroke" data-item-index="1" data-renderer-id="0" transform="translate(122, 231)"><g id="1.left-bucket_sy_1hi7mgy1sf51jb-stroke" fill="none" stroke-linecap="round" stroke-linejoin="round" stroke-miterlimit="4" stroke="#17b0e3" stroke-width="2"><g><path d="M 10 11.8C 10 10.806 10.806 10 11.8 10L 80.2 10C 81.194 10 82 10.806 82 11.8C 82 20.747 74.747 28 65.8 28L 26.2 28C 17.253 28 10 20.747 10 11.8Z"></path></g></g></g><g id="g-root-narr_1d3n5oi1settkw-stroke" data-item-order="0" data-item-id="narr_1d3n5oi1settkw" data-item-class="Icon Stroke SceneTarget Indexed" data-item-index="4" data-renderer-id="0" transform="translate(302, 3)"><g id="narr_1d3n5oi1settkw-stroke" fill="none" stroke-linecap="round" stroke-linejoin="round" stroke-miterlimit="4" stroke="#484848" stroke-width="2"><g><path d="M 13.413832 32.585785L 32.584911 13.414708C 32.584911 13.414708 33.999123 12.000494 35.413338 13.414708L 54.584415 32.585785C 54.584415 32.585785 55.998631 34 54.584415 35.414215L 35.413338 54.585293C 35.413338 54.585293 33.999123 55.999504 32.584911 54.585293L 13.413832 35.414215C 13.413832 35.414215 11.99962 34 13.413832 32.585785M 26 42L 26 35.414001C 26.000055 35.149296 26.105062 34.895409 26.292 34.708L 31.708 29.292C 31.894938 29.104589 31.999945 28.850704 32 28.586L 32 23M 42 42L 42 35.414001C 41.999947 35.149296 41.894936 34.895409 41.708 34.708L 36.292 29.292C 36.105064 29.104589 36.000053 28.850704 36 28.586L 36 23"></path></g></g></g><g id="g-root-1_detldu1t8wtts-stroke" data-item-order="0" data-item-id="1_detldu1t8wtts" data-item-class="Icon Stroke SceneTarget Indexed Indexed_1" data-item-index="1" data-renderer-id="0" transform="translate(134, 27)"><g id="1_detldu1t8wtts-stroke" fill="none" stroke-linecap="round" stroke-linejoin="round" stroke-miterlimit="4" stroke="#484848" stroke-width="2"><g><path d="M 11 33.998001L 57 33.998001M 21 43.998001L 11 33.998001L 21 23.998001M 47 43.998001L 57 33.998001L 47 23.998001"></path></g></g></g><g id="g-root-tx_limiteds_1id1e1sf6f49-stroke" data-item-order="0" data-item-id="tx_limiteds_1id1e1sf6f49" data-item-class="Label Stroke SceneTarget Indexed" data-item-index="4" data-renderer-id="0" transform="translate(362, 15)"></g><g id="g-root-tx_broadsco_hs5wg21sf6fwu-stroke" data-item-order="0" data-item-id="tx_broadsco_hs5wg21sf6fwu" data-item-class="Label Stroke SceneTarget Indexed Indexed_1" data-item-index="1" data-renderer-id="0" transform="translate(2, 39.000091552734375)"></g><g id="g-root-boxe_1hjgnsy1setssn-stroke" data-item-order="0" data-item-id="boxe_1hjgnsy1setssn" data-item-class="Icon Stroke SceneTarget Indexed" data-item-index="5" data-renderer-id="0" transform="translate(302, 75)"><g id="boxe_1hjgnsy1setssn-stroke" fill="none" stroke-linecap="round" stroke-linejoin="round" stroke-miterlimit="4" stroke="#484848" stroke-width="2"><g><path d="M 30.502001 16C 30.502001 18.761425 32.740578 21 35.501999 21C 38.263424 21 40.501999 18.761425 40.501999 16C 40.501999 13.238577 38.263424 11 35.501999 11C 32.740578 11 30.502001 13.238577 30.502001 16ZM 41.5 31L 41.5 25L 46.826 25C 49.959663 25 52.5 27.540337 52.5 30.674C 52.504101 32.683922 51.123322 34.431908 49.167068 34.893295C 47.210815 35.354683 45.194473 34.407925 44.300003 32.608002L 43.5 31.007999ZM 43.5 31L 47.5 31M 41.5 25L 29.5 25C 28.294224 24.999716 27.20545 25.721363 26.736 26.832001L 15.736 52.832001C 15.090932 54.358517 15.805485 56.118935 17.332001 56.764C 18.858517 57.409069 20.618931 56.694515 21.264 55.168003L 25.220001 45.818001L 29.528 47.386002C 30.710625 47.81736 31.498165 48.941166 31.5 50.200001L 31.5 54C 31.5 55.656857 32.843147 57 34.5 57C 36.156853 57 37.5 55.656857 37.5 54L 37.5 50.200001C 37.493534 46.417614 35.12841 43.040806 31.576002 41.742004L 27.559999 40.284L 31.488001 31L 41.5 31"></path></g></g></g><g id="g-root-tx_requires_8wiw761sf6hhc-stroke" data-item-order="0" data-item-id="tx_requires_8wiw761sf6hhc" data-item-class="Label Stroke SceneTarget Indexed" data-item-index="5" data-renderer-id="0" transform="translate(362, 75)"></g><g id="g-root-tx_noretrai_13ymxz61sf6gp1-stroke" data-item-order="0" data-item-id="tx_noretrai_13ymxz61sf6gp1" data-item-class="Label Stroke SceneTarget Indexed" data-item-index="2" data-renderer-id="0" transform="translate(2, 99)"></g><g id="g-root-mult_9058i1settsc-stroke" data-item-order="0" data-item-id="mult_9058i1settsc" data-item-class="Icon Stroke SceneTarget Indexed" data-item-index="2" data-renderer-id="0" transform="translate(134, 99)"><g id="mult_9058i1settsc-stroke" fill="none" stroke-linecap="round" stroke-linejoin="round" stroke-miterlimit="4" stroke="#484848" stroke-width="2"><g><path d="M 21 44L 17 44C 15.895431 44 15 43.104568 15 42L 15 14C 15 12.895431 15.895431 12 17 12L 39 12C 40.104568 12 41 12.895431 41 14L 41 18M 27 50L 23 50C 21.895432 50 21 49.104568 21 48L 21 20C 21 18.895432 21.895432 18 23 18L 45 18C 46.104568 18 47 18.895432 47 20L 47 24M 29 24L 51 24C 51 24 53 24 53 26L 53 54C 53 54 53 56 51 56L 29 56C 29 56 27 56 27 54L 27 26C 27 26 27 24 29 24M 31 32L 31.732 33.464001C 31.870932 33.743011 32.135712 33.938057 32.443375 33.98801C 32.751034 34.037964 33.063927 33.936722 33.283997 33.716L 37 30M 41 32L 49 32M 31 42L 31.732 43.464001C 31.870932 43.743011 32.135712 43.938053 32.443375 43.98801C 32.751034 44.037964 33.063927 43.936718 33.283997 43.716L 37 40M 41 42L 49 42M 41 48L 45 48"></path></g></g></g><g id="g-root-focu_1lza5xe1sets0e-stroke" data-item-order="0" data-item-id="focu_1lza5xe1sets0e" data-item-class="Icon Stroke SceneTarget Indexed" data-item-index="6" data-renderer-id="0" transform="translate(302, 147)"><g id="focu_1lza5xe1sets0e-stroke" fill="none" stroke-linecap="round" stroke-linejoin="round" stroke-miterlimit="4" stroke="#484848" stroke-width="2"><g><path d="M 25 57L 13 57C 11.895431 57 11 56.104568 11 55L 11 43M 25 11L 13 11C 11.895431 11 11 11.895431 11 13L 11 25M 43 57L 55 57C 56.104568 57 57 56.104568 57 55L 57 43M 43 11L 55 11C 56.104568 11 57 11.895431 57 13L 57 25M 45 47C 45 40.92487 40.075134 36 34 36C 27.924868 36 23 40.92487 23 47ZM 28.288 23.200001C 31.4079 26.43288 36.203377 27.396595 40.330002 25.619999M 27.388 26.5C 27.388 30.089851 30.298149 33 33.888 33C 37.477852 33 40.388 30.089851 40.388 26.5C 40.388 22.910149 37.477852 20 33.888 20C 30.298149 20 27.388 22.910149 27.388 26.5Z"></path></g></g></g><g id="g-root-tx_generali_mg3koy1sf52bo-stroke" data-item-order="0" data-item-id="tx_generali_mg3koy1sf52bo" data-item-class="Label Stroke SceneTarget Indexed" data-item-index="3" data-renderer-id="0" transform="translate(14, 171)"></g><g id="g-root-neur_mfh6rm1setukj-stroke" data-item-order="0" data-item-id="neur_mfh6rm1setukj" data-item-class="Icon Stroke SceneTarget Indexed" data-item-index="3" data-renderer-id="0" transform="translate(134, 171)"><g id="neur_mfh6rm1setukj-stroke" fill="none" stroke-linecap="round" stroke-linejoin="round" stroke-miterlimit="4" stroke="#484848" stroke-width="2"><g><path d="M 10 10M 43.622002 43.82L 36.942001 47.416M 47 28.83L 47 39.172001M 36.942001 20.586L 43.616001 24.178001M 31 20C 31 21.656855 32.343147 23 34 23C 35.656853 23 37 21.656855 37 20C 37 18.343147 35.656853 17 34 17C 32.343147 17 31 18.343147 31 20M 43 42C 43 43.656857 44.343147 45 46 45C 47.656857 45 49 43.656857 49 42C 49 40.343147 47.656857 39 46 39C 44.343147 39 43 40.343147 43 42M 43 26C 43 27.656855 44.343147 29 46 29C 47.656857 29 49 27.656855 49 26C 49 24.343147 47.656857 23 46 23C 44.343147 23 43 24.343147 43 26M 10 10M 24.378 43.82L 31.058001 47.416M 21 28.83L 21 39.166M 19 42C 19 43.656857 20.343147 45 22 45C 23.656855 45 25 43.656857 25 42C 25 40.343147 23.656855 39 22 39C 20.343147 39 19 40.343147 19 42M 19 26C 19 27.656855 20.343147 29 22 29C 23.656855 29 25 27.656855 25 26C 25 24.343147 23.656855 23 22 23C 20.343147 23 19 24.343147 19 26M 31 48C 31 49.656857 32.343147 51 34 51C 35.656853 51 37 49.656857 37 48C 37 46.343147 35.656853 45 34 45C 32.343147 45 31 46.343147 31 48M 31.615999 21.821999L 24.942001 25.416M 35 11L 35 17.172001M 33 50.824001L 33 57M 12.382 21.821999L 19.057999 25.416M 11 22.83C 12.199184 22.406025 13.000667 21.271927 13 20C 13.000667 18.728073 12.199184 17.593975 11 17.17M 55.616001 21.821999L 48.942001 25.416M 57 22.83C 55.799057 22.407532 54.995541 21.273087 54.995541 20C 54.995541 18.726915 55.799057 17.592468 57 17.17M 12.382 46.563999L 19.147999 42.919998M 11 45.556C 12.198492 45.979733 12.999819 47.112808 13 48.384003C 13.001515 49.656662 12.199877 50.791782 11 51.216M 55.618 46.563999L 48.852001 42.919998M 57 45.556C 55.799057 45.97847 54.995541 47.112915 54.995541 48.386002C 54.995541 49.659084 55.799057 50.793533 57 51.216M 19 26C 19 27.656855 20.343147 29 22 29C 23.656855 29 25 27.656855 25 26C 25 24.343147 23.656855 23 22 23C 20.343147 23 19 24.343147 19 26"></path></g></g></g><g id="g-root-tx_taskspec_dccebm1sf6gp3-stroke" data-item-order="0" data-item-id="tx_taskspec_dccebm1sf6gp3" data-item-class="Label Stroke SceneTarget Indexed" data-item-index="6" data-renderer-id="0" transform="translate(362, 159)"></g><g id="g-root-tx_narrowai_1umsww21sf6fpf-stroke" data-item-order="0" data-item-id="tx_narrowai_1umsww21sf6fpf" data-item-class="Label Stroke SceneTarget Indexed" data-item-index="none" data-renderer-id="0" transform="translate(362, 303)"></g><g id="g-root-tx_agi_1umsww21sf6fpe-stroke" data-item-order="0" data-item-id="tx_agi_1umsww21sf6fpe" data-item-class="Label Stroke SceneTarget Indexed" data-item-index="none" data-renderer-id="0" transform="translate(56, 327)"></g></g></g></svg>