<?xml version="1.0" encoding="utf-8" standalone="yes"?>
<!DOCTYPE svg PUBLIC "-//W3C//DTD SVG 1.1//EN" "http://www.w3.org/Graphics/SVG/1.1/DTD/svg11.dtd">
<svg width="1056" height="336" viewBox="0 0 1056 336" style="fill:none;stroke:none;fill-rule:evenodd;clip-rule:evenodd;stroke-linecap:round;stroke-linejoin:round;stroke-miterlimit:1.5;" version="1.1" xmlns="http://www.w3.org/2000/svg" xmlns:xlink="http://www.w3.org/1999/xlink"><style id="fontImports">@import url("https://fonts.googleapis.com/css2?family=Roboto:wght@400;700&amp;display=block");</style><rect id="" x="0" y="0" width="1056" height="336" style="fill: #ffffff;"></rect><g id="items" style="isolation: isolate"><g id="blend" style="mix-blend-mode:multiply"><g id="g-root-4.cu_sy_1hfq2s21u2lrsy-fill" data-item-order="-64508" data-item-id="4.cu_sy_1hfq2s21u2lrsy" data-item-class="ScenePart Part Indexed Fill Stroke ColorStrokeBlack" data-item-index="4" data-renderer-id="0" transform="translate(550, 152)"><g id="4.cu_sy_1hfq2s21u2lrsy-fill" stroke="none" fill="url(#gradient-ffeb38-392015901)"><g><path d="M 81.469 86.464C 81.815 87.751 82 89.104 82 90.5C 82 99.06 75.06 106 66.5 106C 63.433 106 60.575 105.109 58.169 103.573C 56.496 104.481 54.561 105 52.5 105C 49.212 105 46.247 103.68 44.151 101.565C 43.147 101.849 42.09 102 41 102C 34.373 102 29 96.404 29 89.5C 29 88.374 29.143 87.283 29.411 86.246C 27.314 84.326 26 81.566 26 78.5C 26 74.9 27.812 71.723 30.574 69.831C 29.569 67.943 29 65.788 29 63.5C 29 56.044 35.044 50 42.5 50C 43.036 50 43.566 50.031 44.086 50.092C 47.712 47.518 52.175 46 57 46C 62.757 46 67.997 48.161 71.918 51.698C 73.024 51.248 74.233 51 75.5 51C 80.747 51 85 55.253 85 60.5C 85 62.899 84.111 65.09 82.644 66.762C 84.733 69.227 86 72.46 86 76C 86 80.162 84.249 83.899 81.469 86.464ZM 18 34C 18 38.418278 21.581722 42 26 42C 30.418278 42 34 38.418278 34 34C 34 29.581722 30.418278 26 26 26C 21.581722 26 18 29.581722 18 34M 18 14C 18 16.209137 16.209137 18 14 18C 11.790863 18 10 16.209137 10 14C 10 11.790863 11.790863 10 14 10C 16.209137 10 18 11.790863 18 14"></path></g></g></g><g id="g-root-3.cu_sy_1lvjkwi1u2lr0p-fill" data-item-order="-64506" data-item-id="3.cu_sy_1lvjkwi1u2lr0p" data-item-class="ScenePart Part Indexed Fill Stroke ColorStrokeBlack" data-item-index="3" data-renderer-id="0" transform="translate(410, 152)"><g id="3.cu_sy_1lvjkwi1u2lr0p-fill" stroke="none" fill="url(#gradient-d685fb-249354988)"><g><path d="M 28.274 49.698C 27.102 49.247 25.83 49 24.5 49C 18.701 49 14 53.701 14 59.5C 14 60.412 14.116 61.297 14.335 62.141C 11.636 65.308 10 69.457 10 74C 10 79.691 12.567 84.764 16.576 88.063C 16.203 89.14 16 90.296 16 91.5C 16 97.299 20.701 102 26.5 102C 27.29 102 28.06 101.913 28.8 101.747C 31.354 104.365 34.979 106 39 106C 43.501 106 47.507 103.951 50.068 100.768C 51.652 102.158 53.727 103 56 103C 60.971 103 65 98.971 65 94C 65 93.139 64.879 92.307 64.654 91.519C 67.982 87.645 70 82.564 70 77C 70 72.663 68.773 68.618 66.656 65.211C 66.881 64.176 67 63.102 67 62C 67 53.716 60.284 47 52 47C 50.211 47 48.495 47.313 46.904 47.888C 44.542 46.682 41.853 46 39 46C 34.933 46 31.199 47.386 28.274 49.698ZM 62 34C 62 38.418278 65.581722 42 70 42C 74.418278 42 78 38.418278 78 34C 78 29.581722 74.418278 26 70 26C 65.581722 26 62 29.581722 62 34M 86 14C 86 16.209137 84.209137 18 82 18C 79.790863 18 78 16.209137 78 14C 78 11.790863 79.790863 10 82 10C 84.209137 10 86 11.790863 86 14"></path></g></g></g><g id="g-root-2.cu_sy_1ur6l5e1u2lq80-fill" data-item-order="-64504" data-item-id="2.cu_sy_1ur6l5e1u2lq80" data-item-class="ScenePart Part Indexed Fill Stroke ColorStrokeBlack" data-item-index="2" data-renderer-id="0" transform="translate(582, 56)"><g id="2.cu_sy_1ur6l5e1u2lq80-fill" stroke="none" fill="url(#gradient-44d0ff-453494305)"><g><path d="M 83 70C 87.95 70 92.518 68.402 96.194 65.706C 97.782 66.533 99.586 67 101.5 67C 107.851 67 113 61.851 113 55.5C 113 52.514 111.862 49.794 109.996 47.75C 112.435 45.827 114 42.846 114 39.5C 114 37.08 113.181 34.852 111.806 33.076C 111.934 32.237 112 31.376 112 30.5C 112 21.387 104.837 14 96 14C 95.01 14 94.04 14.093 93.099 14.27C 90.011 11.613 85.95 10 81.5 10C 76.933 10 72.774 11.7 69.658 14.483C 68.661 14.169 67.6 14 66.5 14C 60.701 14 56 18.701 56 24.5C 56 27.072 56.925 29.428 58.46 31.254C 56.915 33.417 56 36.098 56 39C 56 41.302 56.575 43.464 57.584 45.339C 55.359 47.746 54 50.964 54 54.5C 54 61.956 60.044 68 67.5 68C 69.122 68 70.677 67.714 72.118 67.19C 75.327 68.978 79.041 70 83 70ZM 28 40C 28 44.418278 31.581722 48 36 48C 40.418278 48 44 44.418278 44 40C 44 35.581722 40.418278 32 36 32C 31.581722 32 28 35.581722 28 40M 18 40C 18 42.209137 16.209167 44 14 44C 11.790863 44 10 42.209137 10 40C 10 37.790863 11.790863 36 14 36C 16.209167 36 18 37.790863 18 40"></path></g></g></g><g id="g-root-1.cu_sy_59k7m1u2lssn-fill" data-item-order="-64502" data-item-id="1.cu_sy_59k7m1u2lssn" data-item-class="ScenePart Part Indexed Indexed_1 Fill Stroke ColorStrokeBlack" data-item-index="1" data-renderer-id="0" transform="translate(350, 56)"><defs><linearGradient id="gradient-ffeb38-392015901" x2="0" y2="1"><stop offset="0" stop-color="#fff066"></stop><stop offset="1" stop-color="#FFE60A"></stop></linearGradient><linearGradient id="gradient-d685fb-249354988" x2="0" y2="1"><stop offset="0" stop-color="#de9ffb"></stop><stop offset="1" stop-color="#CD6AFB"></stop></linearGradient><linearGradient id="gradient-44d0ff-453494305" x2="0" y2="1"><stop offset="0" stop-color="#6ddafe"></stop><stop offset="1" stop-color="#1AC6FF"></stop></linearGradient><linearGradient id="gradient-b8e45c-154771520" x2="0" y2="1"><stop offset="0" stop-color="#c8ea80"></stop><stop offset="1" stop-color="#A8DD38"></stop></linearGradient></defs><g id="1.cu_sy_59k7m1u2lssn-fill" stroke="none" fill="url(#gradient-b8e45c-154771520)"><g><path d="M 20.598 19C 20.565 19 20.533 19 20.5 19C 14.701 19 10 23.701 10 29.5C 10 32.574 11.321 35.339 13.426 37.259C 13.147 38.459 13 39.712 13 41C 13 41.745 13.049 42.478 13.145 43.196C 11.788 45.301 11 47.809 11 50.5C 11 57.956 17.044 64 24.5 64C 24.847 64 25.19 63.987 25.53 63.961C 29.172 67.682 34.308 70 40 70C 45.641 70 50.737 67.723 54.373 64.059C 55.621 64.662 57.021 65 58.5 65C 63.747 65 68 60.747 68 55.5C 68 52.628 66.726 50.055 64.712 48.313C 67.948 45.469 70 41.232 70 36.5C 70 32.425 68.478 28.717 65.99 25.95C 65.996 25.801 66 25.651 66 25.5C 66 20.253 61.747 16 56.5 16C 55.92 16 55.353 16.052 54.802 16.151C 50.681 12.338 45.12 10 39 10C 31.475 10 24.794 13.535 20.598 19ZM 80 40C 80 44.418278 83.581722 48 88 48C 92.418278 48 96 44.418278 96 40C 96 35.581722 92.418278 32 88 32C 83.581722 32 80 35.581722 80 40M 114 40C 114 42.209137 112.209137 44 110 44C 107.790863 44 106 42.209137 106 40C 106 37.790863 107.790863 36 110 36C 112.209137 36 114 37.790863 114 40"></path></g></g></g><g id="g-root-tx_howtoadv_hzny4y1u2n4zv-fill" data-item-order="0" data-item-id="tx_howtoadv_hzny4y1u2n4zv" data-item-class="Label Stroke SceneTarget SceneTitle Title ColorFillBlack ColorStrokeBlack" data-item-index="none" data-renderer-id="0" transform="translate(380, 2)"><g id="tx_howtoadv_hzny4y1u2n4zv-fill" stroke="none" fill="#484848"><g><text style="font: bold 20px Roboto, sans-serif; white-space: pre;"><tspan x="14.27" y="33.75" dominant-baseline="ideographic">How to advance towards AGI?</tspan></text></g></g></g><g id="g-root-face_v3mrgy1u2reo0-fill" data-item-order="0" data-item-id="face_v3mrgy1u2reo0" data-item-class="Icon Stroke SceneTarget ColorFillBlack ColorStrokeBlack" data-item-index="0" data-renderer-id="0" transform="translate(482, 50)"></g><g id="g-root-tx_focusonr_v7dlzm1u2n66a-fill" data-item-order="0" data-item-id="tx_focusonr_v7dlzm1u2n66a" data-item-class="Label Stroke SceneTarget Indexed Indexed_1 ColorFillBlack ColorStrokeBlack" data-item-index="1" data-renderer-id="0" transform="translate(26, 74)"><g id="tx_focusonr_v7dlzm1u2n66a-fill" stroke="none" fill="#484848"><g><text style="font: bold 20px Roboto, sans-serif; white-space: pre;"><tspan x="16.82" y="33.75" dominant-baseline="ideographic">Focus on Reinforcement Learning</tspan></text></g></g></g><g id="g-root-1_1lt1ok21u2rf2k-fill" data-item-order="0" data-item-id="1_1lt1ok21u2rf2k" data-item-class="Icon Stroke SceneTarget Indexed Indexed_1 InsideFill InsideColorFill ColorStrokeBlack" data-item-index="1" data-renderer-id="0" transform="translate(362, 68)"></g><g id="g-root-brai_3e4ya1u2rdor-fill" data-item-order="0" data-item-id="brai_3e4ya1u2rdor" data-item-class="Icon Stroke SceneTarget Indexed InsideFill InsideColorFill ColorStrokeBlack" data-item-index="2" data-renderer-id="0" transform="translate(638, 68)"></g><g id="g-root-tx_enhancec_18gyp3m1u2n5l4-fill" data-item-order="0" data-item-id="tx_enhancec_18gyp3m1u2n5l4" data-item-class="Label Stroke SceneTarget Indexed ColorFillBlack ColorStrokeBlack" data-item-index="2" data-renderer-id="0" transform="translate(698, 74)"><g id="tx_enhancec_18gyp3m1u2n5l4-fill" stroke="none" fill="#484848"><g><text style="font: bold 20px Roboto, sans-serif; white-space: pre;"><tspan x="12" y="33.75" dominant-baseline="ideographic">Enhance Common Sense Reasoning</tspan></text></g></g></g><g id="g-root-tx_learnopt_1q9hnrm1u2n5e1-fill" data-item-order="0" data-item-id="tx_learnopt_1q9hnrm1u2n5e1" data-item-class="Label Stroke SceneTarget Indexed Indexed_1 ColorStrokeBlack" data-item-index="1" data-renderer-id="0" transform="translate(134, 110)"><g id="tx_learnopt_1q9hnrm1u2n5e1-fill" stroke="none" fill="#484848"><g><text style="font: 20px Roboto, sans-serif; white-space: pre;"><tspan x="19.29" y="33.75" dominant-baseline="ideographic">Learn optimal actions </tspan><tspan x="11.65" y="57.75" dominant-baseline="ideographic">through environmental </tspan><tspan x="124.85" y="81.75" dominant-baseline="ideographic">feedback.</tspan></text></g></g></g><g id="g-root-tx_enableai_hssq6q1u2n6kv-fill" data-item-order="0" data-item-id="tx_enableai_hssq6q1u2n6kv" data-item-class="Label Stroke SceneTarget Indexed ColorStrokeBlack" data-item-index="2" data-renderer-id="0" transform="translate(698, 110)"><g id="tx_enableai_hssq6q1u2n6kv-fill" stroke="none" fill="#484848"><g><text style="font: 20px Roboto, sans-serif; white-space: pre;"><tspan x="12" y="33.75" dominant-baseline="ideographic">Enable AI to understand </tspan><tspan x="12" y="57.75" dominant-baseline="ideographic">implicit knowledge and </tspan><tspan x="12" y="81.75" dominant-baseline="ideographic">context.</tspan></text></g></g></g><g id="g-root-tx_exploren_8vwrrm1u2n5za-fill" data-item-order="0" data-item-id="tx_exploren_8vwrrm1u2n5za" data-item-class="Label Stroke SceneTarget Indexed ColorFillBlack ColorStrokeBlack" data-item-index="3" data-renderer-id="0" transform="translate(2, 206)"><g id="tx_exploren_8vwrrm1u2n5za-fill" stroke="none" fill="#484848"><g><text style="font: bold 20px Roboto, sans-serif; white-space: pre;"><tspan x="15.68" y="33.75" dominant-baseline="ideographic">Explore Neuroscience-inspired Approaches</tspan></text></g></g></g><g id="g-root-netw_14156z61u2rc3u-fill" data-item-order="0" data-item-id="netw_14156z61u2rc3u" data-item-class="Icon Stroke SceneTarget Indexed InsideFill InsideColorFill ColorStrokeBlack" data-item-index="3" data-renderer-id="0" transform="translate(422, 200)"></g><g id="g-root-codi_1cw5q4y1u2regx-fill" data-item-order="0" data-item-id="codi_1cw5q4y1u2regx" data-item-class="Icon Stroke SceneTarget Indexed InsideFill InsideColorFill ColorStrokeBlack" data-item-index="4" data-renderer-id="0" transform="translate(578, 200)"></g><g id="g-root-tx_continue_1lxf05u1u2lq10-fill" data-item-order="0" data-item-id="tx_continue_1lxf05u1u2lq10" data-item-class="Label Stroke SceneTarget Indexed ColorFillBlack ColorStrokeBlack" data-item-index="4" data-renderer-id="0" transform="translate(638, 206)"><g id="tx_continue_1lxf05u1u2lq10-fill" stroke="none" fill="#484848"><g><text style="font: bold 20px Roboto, sans-serif; white-space: pre;"><tspan x="12" y="33.75" dominant-baseline="ideographic">Continue GPT-based Model Research</tspan></text></g></g></g><g id="g-root-tx_mimichum_1qehggi1u2lret-fill" data-item-order="0" data-item-id="tx_mimichum_1qehggi1u2lret" data-item-class="Label Stroke SceneTarget Indexed ColorStrokeBlack" data-item-index="3" data-renderer-id="0" transform="translate(146, 242)"><g id="tx_mimichum_1qehggi1u2lret-fill" stroke="none" fill="#484848"><g><text style="font: 20px Roboto, sans-serif; white-space: pre;"><tspan x="14.86" y="33.75" dominant-baseline="ideographic">Mimic human-like cognition </tspan><tspan x="59.28" y="57.75" dominant-baseline="ideographic">using brain processing </tspan><tspan x="184.59" y="81.75" dominant-baseline="ideographic">insights.</tspan></text></g></g></g><g id="g-root-tx_pushboun_18k32j61u2lsln-fill" data-item-order="0" data-item-id="tx_pushboun_18k32j61u2lsln" data-item-class="Label Stroke SceneTarget Indexed ColorStrokeBlack" data-item-index="4" data-renderer-id="0" transform="translate(638, 242)"><g id="tx_pushboun_18k32j61u2lsln-fill" stroke="none" fill="#484848"><g><text style="font: 20px Roboto, sans-serif; white-space: pre;"><tspan x="12" y="33.75" dominant-baseline="ideographic">Push boundaries of Narrow </tspan><tspan x="12" y="57.75" dominant-baseline="ideographic">AI to handle diverse tasks.</tspan></text></g></g></g><g id="g-root-4.cu_sy_1hfq2s21u2lrsy-stroke" data-item-order="-64508" data-item-id="4.cu_sy_1hfq2s21u2lrsy" data-item-class="ScenePart Part Indexed Fill Stroke ColorStrokeBlack" data-item-index="4" data-renderer-id="0" transform="translate(550, 152)"><g id="4.cu_sy_1hfq2s21u2lrsy-stroke" fill="none" stroke-linecap="round" stroke-linejoin="round" stroke-miterlimit="4" stroke="#484848" stroke-width="2"><g><path d="M 81.469 86.464C 81.815 87.751 82 89.104 82 90.5C 82 99.06 75.06 106 66.5 106C 63.433 106 60.575 105.109 58.169 103.573C 56.496 104.481 54.561 105 52.5 105C 49.212 105 46.247 103.68 44.151 101.565C 43.147 101.849 42.09 102 41 102C 34.373 102 29 96.404 29 89.5C 29 88.374 29.143 87.283 29.411 86.246C 27.314 84.326 26 81.566 26 78.5C 26 74.9 27.812 71.723 30.574 69.831C 29.569 67.943 29 65.788 29 63.5C 29 56.044 35.044 50 42.5 50C 43.036 50 43.566 50.031 44.086 50.092C 47.712 47.518 52.175 46 57 46C 62.757 46 67.997 48.161 71.918 51.698C 73.024 51.248 74.233 51 75.5 51C 80.747 51 85 55.253 85 60.5C 85 62.899 84.111 65.09 82.644 66.762C 84.733 69.227 86 72.46 86 76C 86 80.162 84.249 83.899 81.469 86.464ZM 18 34C 18 38.418278 21.581722 42 26 42C 30.418278 42 34 38.418278 34 34C 34 29.581722 30.418278 26 26 26C 21.581722 26 18 29.581722 18 34M 18 14C 18 16.209137 16.209137 18 14 18C 11.790863 18 10 16.209137 10 14C 10 11.790863 11.790863 10 14 10C 16.209137 10 18 11.790863 18 14"></path></g></g></g><g id="g-root-3.cu_sy_1lvjkwi1u2lr0p-stroke" data-item-order="-64506" data-item-id="3.cu_sy_1lvjkwi1u2lr0p" data-item-class="ScenePart Part Indexed Fill Stroke ColorStrokeBlack" data-item-index="3" data-renderer-id="0" transform="translate(410, 152)"><g id="3.cu_sy_1lvjkwi1u2lr0p-stroke" fill="none" stroke-linecap="round" stroke-linejoin="round" stroke-miterlimit="4" stroke="#484848" stroke-width="2"><g><path d="M 28.274 49.698C 27.102 49.247 25.83 49 24.5 49C 18.701 49 14 53.701 14 59.5C 14 60.412 14.116 61.297 14.335 62.141C 11.636 65.308 10 69.457 10 74C 10 79.691 12.567 84.764 16.576 88.063C 16.203 89.14 16 90.296 16 91.5C 16 97.299 20.701 102 26.5 102C 27.29 102 28.06 101.913 28.8 101.747C 31.354 104.365 34.979 106 39 106C 43.501 106 47.507 103.951 50.068 100.768C 51.652 102.158 53.727 103 56 103C 60.971 103 65 98.971 65 94C 65 93.139 64.879 92.307 64.654 91.519C 67.982 87.645 70 82.564 70 77C 70 72.663 68.773 68.618 66.656 65.211C 66.881 64.176 67 63.102 67 62C 67 53.716 60.284 47 52 47C 50.211 47 48.495 47.313 46.904 47.888C 44.542 46.682 41.853 46 39 46C 34.933 46 31.199 47.386 28.274 49.698ZM 62 34C 62 38.418278 65.581722 42 70 42C 74.418278 42 78 38.418278 78 34C 78 29.581722 74.418278 26 70 26C 65.581722 26 62 29.581722 62 34M 86 14C 86 16.209137 84.209137 18 82 18C 79.790863 18 78 16.209137 78 14C 78 11.790863 79.790863 10 82 10C 84.209137 10 86 11.790863 86 14"></path></g></g></g><g id="g-root-2.cu_sy_1ur6l5e1u2lq80-stroke" data-item-order="-64504" data-item-id="2.cu_sy_1ur6l5e1u2lq80" data-item-class="ScenePart Part Indexed Fill Stroke ColorStrokeBlack" data-item-index="2" data-renderer-id="0" transform="translate(582, 56)"><g id="2.cu_sy_1ur6l5e1u2lq80-stroke" fill="none" stroke-linecap="round" stroke-linejoin="round" stroke-miterlimit="4" stroke="#484848" stroke-width="2"><g><path d="M 83 70C 87.95 70 92.518 68.402 96.194 65.706C 97.782 66.533 99.586 67 101.5 67C 107.851 67 113 61.851 113 55.5C 113 52.514 111.862 49.794 109.996 47.75C 112.435 45.827 114 42.846 114 39.5C 114 37.08 113.181 34.852 111.806 33.076C 111.934 32.237 112 31.376 112 30.5C 112 21.387 104.837 14 96 14C 95.01 14 94.04 14.093 93.099 14.27C 90.011 11.613 85.95 10 81.5 10C 76.933 10 72.774 11.7 69.658 14.483C 68.661 14.169 67.6 14 66.5 14C 60.701 14 56 18.701 56 24.5C 56 27.072 56.925 29.428 58.46 31.254C 56.915 33.417 56 36.098 56 39C 56 41.302 56.575 43.464 57.584 45.339C 55.359 47.746 54 50.964 54 54.5C 54 61.956 60.044 68 67.5 68C 69.122 68 70.677 67.714 72.118 67.19C 75.327 68.978 79.041 70 83 70ZM 28 40C 28 44.418278 31.581722 48 36 48C 40.418278 48 44 44.418278 44 40C 44 35.581722 40.418278 32 36 32C 31.581722 32 28 35.581722 28 40M 18 40C 18 42.209137 16.209167 44 14 44C 11.790863 44 10 42.209137 10 40C 10 37.790863 11.790863 36 14 36C 16.209167 36 18 37.790863 18 40"></path></g></g></g><g id="g-root-1.cu_sy_59k7m1u2lssn-stroke" data-item-order="-64502" data-item-id="1.cu_sy_59k7m1u2lssn" data-item-class="ScenePart Part Indexed Indexed_1 Fill Stroke ColorStrokeBlack" data-item-index="1" data-renderer-id="0" transform="translate(350, 56)"><g id="1.cu_sy_59k7m1u2lssn-stroke" fill="none" stroke-linecap="round" stroke-linejoin="round" stroke-miterlimit="4" stroke="#484848" stroke-width="2"><g><path d="M 20.598 19C 20.565 19 20.533 19 20.5 19C 14.701 19 10 23.701 10 29.5C 10 32.574 11.321 35.339 13.426 37.259C 13.147 38.459 13 39.712 13 41C 13 41.745 13.049 42.478 13.145 43.196C 11.788 45.301 11 47.809 11 50.5C 11 57.956 17.044 64 24.5 64C 24.847 64 25.19 63.987 25.53 63.961C 29.172 67.682 34.308 70 40 70C 45.641 70 50.737 67.723 54.373 64.059C 55.621 64.662 57.021 65 58.5 65C 63.747 65 68 60.747 68 55.5C 68 52.628 66.726 50.055 64.712 48.313C 67.948 45.469 70 41.232 70 36.5C 70 32.425 68.478 28.717 65.99 25.95C 65.996 25.801 66 25.651 66 25.5C 66 20.253 61.747 16 56.5 16C 55.92 16 55.353 16.052 54.802 16.151C 50.681 12.338 45.12 10 39 10C 31.475 10 24.794 13.535 20.598 19ZM 80 40C 80 44.418278 83.581722 48 88 48C 92.418278 48 96 44.418278 96 40C 96 35.581722 92.418278 32 88 32C 83.581722 32 80 35.581722 80 40M 114 40C 114 42.209137 112.209137 44 110 44C 107.790863 44 106 42.209137 106 40C 106 37.790863 107.790863 36 110 36C 112.209137 36 114 37.790863 114 40"></path></g></g></g><g id="g-root-tx_howtoadv_hzny4y1u2n4zv-stroke" data-item-order="0" data-item-id="tx_howtoadv_hzny4y1u2n4zv" data-item-class="Label Stroke SceneTarget SceneTitle Title ColorFillBlack ColorStrokeBlack" data-item-index="none" data-renderer-id="0" transform="translate(380, 2)"></g><g id="g-root-face_v3mrgy1u2reo0-stroke" data-item-order="0" data-item-id="face_v3mrgy1u2reo0" data-item-class="Icon Stroke SceneTarget ColorFillBlack ColorStrokeBlack" data-item-index="0" data-renderer-id="0" transform="translate(482, 50)"><g id="face_v3mrgy1u2reo0-stroke" fill="none" stroke-linecap="round" stroke-linejoin="round" stroke-miterlimit="4" stroke="#484848" stroke-width="2"><g><path d="M 46.599998 39.681999C 43.599998 36.681999 37.599998 35.181999 34.599998 38.181999M 16.9 45.681999C 16.6 44.482002 16.6 43.281998 16.6 41.781998C 16.6 25.581999 29.799999 12.382 46 12.382C 62.199997 12.382 75.399994 25.581999 75.399994 41.781998C 75.399994 52.582001 69.699997 61.882004 61 66.981995M 40.449997 77.800003C 46.449997 75.399994 45.324997 70.111 44.125 65.311005L 53.677002 61.612C 55.891281 60.755096 57.049278 58.316589 56.314003 56.059002L 56.313999 56.058998C 55.93375 54.891376 55.08989 53.931606 53.980541 53.405022C 52.871193 52.878433 51.594067 52.831413 50.449001 53.275002L 32.875 60.084999C 31.375 60.685001 29.575001 59.485001 29.575001 57.985001L 29.458 55.144001C 29.410076 53.986492 28.88414 52.900726 28.005583 52.145561C 27.127028 51.390404 25.974579 51.03352 24.823002 51.160004L 24.823 51.16C 22.704519 51.393932 21.100885 53.183647 21.1 55.315002L 21.1 67.584999C 21.1 75.385002 28.299999 81.084999 35.800003 79.284996C 35.800003 79.284996 38.949997 78.399994 40.449997 77.800003ZM 31.825001 27.681999C 31.20368 27.681999 30.700001 27.178322 30.700001 26.556999C 30.700001 25.93568 31.20368 25.431999 31.825001 25.431999M 31.825001 27.681999C 32.44632 27.681999 32.950001 27.178322 32.950001 26.556999C 32.950001 25.93568 32.44632 25.431999 31.825001 25.431999M 47.800003 27.681999C 47.17868 27.681999 46.675003 27.178322 46.675003 26.556999C 46.675003 25.93568 47.17868 25.431999 47.800003 25.431999M 47.800003 27.681999C 48.421322 27.681999 48.925003 27.178322 48.925003 26.556999C 48.925003 25.93568 48.421322 25.431999 47.800003 25.431999"></path></g></g></g><g id="g-root-tx_focusonr_v7dlzm1u2n66a-stroke" data-item-order="0" data-item-id="tx_focusonr_v7dlzm1u2n66a" data-item-class="Label Stroke SceneTarget Indexed Indexed_1 ColorFillBlack ColorStrokeBlack" data-item-index="1" data-renderer-id="0" transform="translate(26, 74)"></g><g id="g-root-1_1lt1ok21u2rf2k-stroke" data-item-order="0" data-item-id="1_1lt1ok21u2rf2k" data-item-class="Icon Stroke SceneTarget Indexed Indexed_1 InsideFill InsideColorFill ColorStrokeBlack" data-item-index="1" data-renderer-id="0" transform="translate(362, 68)"><g id="1_1lt1ok21u2rf2k-stroke" fill="none" stroke-linecap="round" stroke-linejoin="round" stroke-miterlimit="4" stroke="#484848" stroke-width="2"><g><path d="M 10.75 35.5C 10.75 40.884777 15.115224 45.25 20.5 45.25C 25.884777 45.25 30.25 40.884777 30.25 35.5C 30.25 30.115225 25.884777 25.750002 20.5 25.750002C 15.115224 25.750002 10.75 30.115225 10.75 35.5M 11.011 33.25C 14.079037 32.269184 17.279028 31.763338 20.5 31.750002C 23.720974 31.763338 26.920965 32.269184 29.989002 33.25M 10.8655 37C 17.615499 37.75 19 37.75 18.25 44.5M 30.134501 37C 23.384501 37.75 22 37.75 22.75 44.5M 20.125 35.5C 20.125 35.707108 20.292892 35.875 20.5 35.875C 20.707108 35.875 20.875 35.707108 20.875 35.5C 20.875 35.292892 20.707108 35.125 20.5 35.125C 20.292892 35.125 20.125 35.292892 20.125 35.5M 31 27.25L 43.75 27.25C 44.578426 27.25 45.25 26.578428 45.25 25.75L 45.25 12.25C 45.25 11.421573 44.578426 10.75 43.75 10.75L 25.75 10.75C 24.921572 10.75 24.25 11.421573 24.25 12.25L 24.25 22M 34.75 27.25L 34.75 31.75M 39.256001 31.75L 33.256001 31.75"></path></g></g></g><g id="g-root-brai_3e4ya1u2rdor-stroke" data-item-order="0" data-item-id="brai_3e4ya1u2rdor" data-item-class="Icon Stroke SceneTarget Indexed InsideFill InsideColorFill ColorStrokeBlack" data-item-index="2" data-renderer-id="0" transform="translate(638, 68)"><g id="brai_3e4ya1u2rdor-stroke" fill="none" stroke-linecap="round" stroke-linejoin="round" stroke-miterlimit="4" stroke="#484848" stroke-width="2"><g><path d="M 36.484001 10.7515L 36.484001 16.751499M 39.484001 13.7515L 33.484001 13.7515M 40.490501 19.001499L 44.734001 23.244999M 44.734001 19.001499L 40.490501 23.244999M 32.734001 22.745499L 26.734001 22.745499M 29.734001 19.370501C 29.526894 19.370501 29.359001 19.538393 29.359001 19.745501M 30.109001 19.75C 30.109001 19.542892 29.941107 19.375 29.734001 19.375M 29.734001 20.120501C 29.941107 20.120501 30.109001 19.952606 30.109001 19.745501M 29.359001 19.75C 29.359001 19.957108 29.526894 20.125 29.734001 20.125M 29.734001 25.370499C 29.526894 25.370499 29.359001 25.538393 29.359001 25.745499M 30.109001 25.75C 30.109001 25.542892 29.941107 25.375 29.734001 25.375M 29.734001 26.120499C 29.941107 26.120499 30.109001 25.952606 30.109001 25.745499M 29.359001 25.75C 29.359001 25.957108 29.526894 26.125 29.734001 26.125M 21.484001 13.0015L 22.984001 15.2515L 24.484001 10.7515L 29.734001 10.7515M 20.276501 45.25L 20.276501 41.5345L 18.898001 41.5345C 16.844814 41.535332 15.180171 39.870689 15.181 37.817501L 15.181 34.100498L 12.0145 34.100498C 11.775373 34.099537 11.55104 33.984604 11.410568 33.791084C 11.270096 33.597565 11.230325 33.348656 11.3035 33.120998C 12.9535 28 14.3035 22.637501 17.7325 19.4995M 37.624001 28.834C 37.624901 32.685329 35.785408 36.305229 32.674004 38.575001L 32.674 45.25"></path></g></g></g><g id="g-root-tx_enhancec_18gyp3m1u2n5l4-stroke" data-item-order="0" data-item-id="tx_enhancec_18gyp3m1u2n5l4" data-item-class="Label Stroke SceneTarget Indexed ColorFillBlack ColorStrokeBlack" data-item-index="2" data-renderer-id="0" transform="translate(698, 74)"></g><g id="g-root-tx_learnopt_1q9hnrm1u2n5e1-stroke" data-item-order="0" data-item-id="tx_learnopt_1q9hnrm1u2n5e1" data-item-class="Label Stroke SceneTarget Indexed Indexed_1 ColorStrokeBlack" data-item-index="1" data-renderer-id="0" transform="translate(134, 110)"></g><g id="g-root-tx_enableai_hssq6q1u2n6kv-stroke" data-item-order="0" data-item-id="tx_enableai_hssq6q1u2n6kv" data-item-class="Label Stroke SceneTarget Indexed ColorStrokeBlack" data-item-index="2" data-renderer-id="0" transform="translate(698, 110)"></g><g id="g-root-tx_exploren_8vwrrm1u2n5za-stroke" data-item-order="0" data-item-id="tx_exploren_8vwrrm1u2n5za" data-item-class="Label Stroke SceneTarget Indexed ColorFillBlack ColorStrokeBlack" data-item-index="3" data-renderer-id="0" transform="translate(2, 206)"></g><g id="g-root-netw_14156z61u2rc3u-stroke" data-item-order="0" data-item-id="netw_14156z61u2rc3u" data-item-class="Icon Stroke SceneTarget Indexed InsideFill InsideColorFill ColorStrokeBlack" data-item-index="3" data-renderer-id="0" transform="translate(422, 200)"><g id="netw_14156z61u2rc3u-stroke" fill="none" stroke-linecap="round" stroke-linejoin="round" stroke-miterlimit="4" stroke="#484848" stroke-width="2"><g><path d="M 39.16 22.9135C 40.687206 25.003452 41.507034 27.526525 41.500004 30.115002C 41.635231 34.206467 39.485573 38.034107 35.921501 40.048L 35.921501 45.25M 22.900002 45.25L 22.900002 42.849998C 20.455 42.863503 19.138 42.676003 18.232 41.768501C 17.0695 40.605999 17.32 35.390499 17.32 35.390499C 17.32 35.390499 16.216 35.432499 15.382 35.390499C 15.084322 35.381172 14.807589 35.235058 14.632 34.994499C 14.515255 34.742031 14.469616 34.462494 14.5 34.186001C 14.35 32.108501 17.1355 29.007999 17.1355 27.973C 17.129534 26.771669 17.355148 25.580448 17.799999 24.4645M 28 10.75L 28 25M 25.75 27.25C 25.75 28.492641 26.75736 29.5 28 29.5C 29.242641 29.5 30.25 28.492641 30.25 27.25C 30.25 26.00736 29.242641 25 28 25C 26.75736 25 25.75 26.00736 25.75 27.25ZM 31.75 21.25C 31.75 22.492641 32.757362 23.5 34 23.5C 35.242641 23.5 36.25 22.492641 36.25 21.25C 36.25 20.00736 35.242641 19 34 19C 32.757362 19 31.75 20.00736 31.75 21.25ZM 19.75 21.25C 19.75 22.492641 20.75736 23.5 22 23.5C 23.242641 23.5 24.25 22.492641 24.25 21.25C 24.25 20.00736 23.242641 19 22 19C 20.75736 19 19.75 20.00736 19.75 21.25ZM 28 15.25L 31 15.25C 32.656853 15.25 34 16.593145 34 18.25L 34 19M 28 15.25L 25 15.25C 23.343145 15.25 22 16.593145 22 18.25L 22 19"></path></g></g></g><g id="g-root-codi_1cw5q4y1u2regx-stroke" data-item-order="0" data-item-id="codi_1cw5q4y1u2regx" data-item-class="Icon Stroke SceneTarget Indexed InsideFill InsideColorFill ColorStrokeBlack" data-item-index="4" data-renderer-id="0" transform="translate(578, 200)"><g id="codi_1cw5q4y1u2regx-stroke" fill="none" stroke-linecap="round" stroke-linejoin="round" stroke-miterlimit="4" stroke="#484848" stroke-width="2"><g><path d="M 30.25 37.75C 30.25 41.892136 33.607864 45.25 37.75 45.25C 41.892136 45.25 45.25 41.892136 45.25 37.75C 45.25 33.607864 41.892136 30.25 37.75 30.25C 33.607864 30.25 30.25 33.607864 30.25 37.75ZM 39.25 35.5L 41.5 37.75L 39.25 40M 36.25 35.5L 34 37.75L 36.25 40M 10.75 30.25C 10.764584 28.857531 11.052534 27.481483 11.5975 26.200001C 12.1975 25 14.692 24.174999 17.827 23.014C 18.6745 22.7005 18.535 20.488001 18.16 20.073999C 16.951414 18.764374 16.359303 17.001141 16.532499 15.2275C 16.423904 14.098195 16.789553 12.974556 17.541958 12.125433C 18.294363 11.276311 19.365833 10.778097 20.5 10.75C 21.634167 10.778097 22.705635 11.276311 23.45804 12.125433C 24.210445 12.974556 24.576096 14.098195 24.467499 15.2275C 24.641136 17.001642 24.048994 18.765514 22.84 20.075499C 22.465 20.4895 22.3255 22.702 23.173 23.015499C 26.307999 24.1765 28.804001 25.006001 29.4025 26.2015C 29.947466 27.482983 30.235416 28.85903 30.25 30.251501ZM 26.368 11.1055C 26.879528 10.869296 27.436571 10.747955 27.999998 10.75C 29.134165 10.778097 30.205635 11.276311 30.95804 12.125433C 31.710445 12.974556 32.076096 14.098195 31.967499 15.2275C 32.141136 17.001642 31.548994 18.765514 30.34 20.075499C 29.965 20.4895 29.8255 22.702 30.673 23.015499C 33.807999 24.1765 36.304001 25.006001 36.9025 26.2015C 36.947502 26.293001 36.990997 26.387501 37.032997 26.482"></path></g></g></g><g id="g-root-tx_continue_1lxf05u1u2lq10-stroke" data-item-order="0" data-item-id="tx_continue_1lxf05u1u2lq10" data-item-class="Label Stroke SceneTarget Indexed ColorFillBlack ColorStrokeBlack" data-item-index="4" data-renderer-id="0" transform="translate(638, 206)"></g><g id="g-root-tx_mimichum_1qehggi1u2lret-stroke" data-item-order="0" data-item-id="tx_mimichum_1qehggi1u2lret" data-item-class="Label Stroke SceneTarget Indexed ColorStrokeBlack" data-item-index="3" data-renderer-id="0" transform="translate(146, 242)"></g><g id="g-root-tx_pushboun_18k32j61u2lsln-stroke" data-item-order="0" data-item-id="tx_pushboun_18k32j61u2lsln" data-item-class="Label Stroke SceneTarget Indexed ColorStrokeBlack" data-item-index="4" data-renderer-id="0" transform="translate(638, 242)"></g></g></g></svg>