<?xml version="1.0" encoding="utf-8" standalone="yes"?>
<!DOCTYPE svg PUBLIC "-//W3C//DTD SVG 1.1//EN" "http://www.w3.org/Graphics/SVG/1.1/DTD/svg11.dtd">
<svg width="748" height="376" viewBox="0 0 748 376" style="fill:none;stroke:none;fill-rule:evenodd;clip-rule:evenodd;stroke-linecap:round;stroke-linejoin:round;stroke-miterlimit:1.5;" version="1.1" xmlns="http://www.w3.org/2000/svg" xmlns:xlink="http://www.w3.org/1999/xlink"><style id="fontImports">@import url("https://fonts.googleapis.com/css2?family=Shantell+Sans:wght@300..800&amp;display=block");</style><rect id="" x="0" y="0" width="748" height="376" style="fill: #ffffff;"></rect><g id="items" style="isolation: isolate"><g id="blend" style="mix-blend-mode:multiply"><g id="g-root--1.cu-1_sy_zs6dqc1t8pte1-fill" data-item-order="-250556" data-item-id="-1.cu-1_sy_zs6dqc1t8pte1" data-item-class="ScenePart Part Fill Stroke ColorStrokeBlack" data-item-index="-1" data-renderer-id="0" transform="translate(4, 4)"><g id="-1.cu-1_sy_zs6dqc1t8pte1-fill" stroke="none" fill="none"><g><path d="M 370 10L 730 130L 718 154L 22 154L 10 130L 370 10ZM 730 358L 10 358L 22 334L 718 334L 730 358Z"></path></g></g></g><g id="g-root-4.cu_sy_m7cr2c1t8r6dp-fill" data-item-order="-250554" data-item-id="4.cu_sy_m7cr2c1t8r6dp" data-item-class="ScenePart Part Indexed Fill Stroke ColorStrokeBlack" data-item-index="4" data-renderer-id="0" transform="translate(532, 148)"><g id="4.cu_sy_m7cr2c1t8r6dp-fill" stroke="none" fill="none"><g><path d="M 10 190L 178 190L 178 10L 10 10L 10 190Z"></path></g></g></g><g id="g-root-3.cu_sy_v2zrb81t8r5l0-fill" data-item-order="-250552" data-item-id="3.cu_sy_v2zrb81t8r5l0" data-item-class="ScenePart Part Indexed Fill Stroke ColorStrokeBlack" data-item-index="3" data-renderer-id="0" transform="translate(364, 148)"><g id="3.cu_sy_v2zrb81t8r5l0-fill" stroke="none" fill="none"><g><path d="M 10 190L 178 190L 178 10L 10 10L 10 190Z"></path></g></g></g><g id="g-root-2.cu_sy_v2zrb81t8r5kz-fill" data-item-order="-250550" data-item-id="2.cu_sy_v2zrb81t8r5kz" data-item-class="ScenePart Part Indexed Fill Stroke ColorStrokeBlack" data-item-index="2" data-renderer-id="0" transform="translate(196, 148)"><g id="2.cu_sy_v2zrb81t8r5kz-fill" stroke="none" fill="none"><g><path d="M 10 190L 94 190L 178 190L 178 10L 10 10L 10 190Z"></path></g></g></g><g id="g-root-1.cu_sy_zs6dqc1t8pte2-fill" data-item-order="-250548" data-item-id="1.cu_sy_zs6dqc1t8pte2" data-item-class="ScenePart Part Indexed Indexed_1 Fill Stroke ColorStrokeBlack" data-item-index="1" data-renderer-id="0" transform="translate(28, 148)"><g id="1.cu_sy_zs6dqc1t8pte2-fill" stroke="none" fill="none"><g><path d="M 10 190L 178 190L 178 10L 10 10L 10 190Z"></path></g></g></g><g id="g-root-chip_zs6dqc1t8znre-fill" data-item-order="0" data-item-id="chip_zs6dqc1t8znre" data-item-class="Icon Stroke SceneTarget SceneEnd InsideFill InsideColorFill ColorStrokeBlack" data-item-index="none" data-renderer-id="0" transform="translate(340, 28)"></g><g id="g-root-tx_artifici_18fp7us1t8r66a-fill" data-item-order="0" data-item-id="tx_artifici_18fp7us1t8r66a" data-item-class="Label Stroke SceneTarget SceneEnd InsideFill InsideColorFill ColorStrokeBlack" data-item-index="none" data-renderer-id="0" transform="translate(256, 100)"><g id="tx_artifici_18fp7us1t8r66a-fill" stroke="none" fill="#484848"><g><text style="font: 20px &quot;Shantell Sans&quot;, cursive; white-space: pre;"><tspan x="15.16" y="35" dominant-baseline="ideographic">Artificial Intelligence</tspan></text></g></g></g><g id="g-root-spor_hrj8xw1t911j7-fill" data-item-order="0" data-item-id="spor_hrj8xw1t911j7" data-item-class="Icon Stroke SceneTarget Indexed Indexed_1 InsideFill InsideColorFill ColorStrokeBlack" data-item-index="1" data-renderer-id="0" transform="translate(88, 172)"></g><g id="g-root-1_8vw8p01t912bw-fill" data-item-order="0" data-item-id="1_8vw8p01t912bw" data-item-class="Icon Stroke SceneTarget Indexed InsideFill InsideColorFill ColorStrokeBlack" data-item-index="2" data-renderer-id="0" transform="translate(256, 172)"></g><g id="g-root-outl_1um69dw1t910jx-fill" data-item-order="0" data-item-id="outl_1um69dw1t910jx" data-item-class="Icon Stroke SceneTarget Indexed InsideFill InsideColorFill ColorStrokeBlack" data-item-index="3" data-renderer-id="0" transform="translate(424, 172)"></g><g id="g-root-squa_1q6cr9g1t911c6-fill" data-item-order="0" data-item-id="squa_1q6cr9g1t911c6" data-item-class="Icon Stroke SceneTarget Indexed InsideFill InsideColorFill ColorStrokeBlack" data-item-index="4" data-renderer-id="0" transform="translate(592, 172)"></g><g id="g-root-tx_learning_m7cr2c1t8r6dq-fill" data-item-order="0" data-item-id="tx_learning_m7cr2c1t8r6dq" data-item-class="Label Stroke SceneTarget Indexed Indexed_1 InsideFill InsideColorFill ColorStrokeBlack" data-item-index="1" data-renderer-id="0" transform="translate(64, 232)"><g id="tx_learning_m7cr2c1t8r6dq-fill" stroke="none" fill="#484848"><g><text style="font: 20px &quot;Shantell Sans&quot;, cursive; white-space: pre;"><tspan x="15.83" y="35" dominant-baseline="ideographic">Learning</tspan></text></g></g></g><g id="g-root-tx_reasonin_4gp7no1t8r5l3-fill" data-item-order="0" data-item-id="tx_reasonin_4gp7no1t8r5l3" data-item-class="Label Stroke SceneTarget Indexed InsideFill InsideColorFill ColorStrokeBlack" data-item-index="2" data-renderer-id="0" transform="translate(226, 232)"><g id="tx_reasonin_4gp7no1t8r5l3-fill" stroke="none" fill="#484848"><g><text style="font: 20px &quot;Shantell Sans&quot;, cursive; white-space: pre;"><tspan x="13.87" y="35" dominant-baseline="ideographic">Reasoning</tspan></text></g></g></g><g id="g-root-tx_problems_vpj81t8r6dc-fill" data-item-order="0" data-item-id="tx_problems_vpj81t8r6dc" data-item-class="Label Stroke SceneTarget Indexed InsideFill InsideColorFill ColorStrokeBlack" data-item-index="3" data-renderer-id="0" transform="translate(400, 232)"><g id="tx_problems_vpj81t8r6dc-fill" stroke="none" fill="#484848"><g><text style="font: 20px &quot;Shantell Sans&quot;, cursive; white-space: pre;"><tspan x="14.83" y="35" dominant-baseline="ideographic">Problem-</tspan><tspan x="23.56" y="59" dominant-baseline="ideographic">Solving</tspan></text></g></g></g><g id="g-root-tx_naturall_1q6cr9g1t8r6yx-fill" data-item-order="0" data-item-id="tx_naturall_1q6cr9g1t8r6yx" data-item-class="Label Stroke SceneTarget Indexed InsideFill InsideColorFill ColorStrokeBlack" data-item-index="4" data-renderer-id="0" transform="translate(538, 232)"><g id="tx_naturall_1q6cr9g1t8r6yx-fill" stroke="none" fill="#484848"><g><text style="font: 20px &quot;Shantell Sans&quot;, cursive; white-space: pre;"><tspan x="37.39" y="35" dominant-baseline="ideographic"> Language </tspan><tspan x="16.93" y="59" dominant-baseline="ideographic">Understanding</tspan></text></g></g></g><g id="g-root--1.cu-1_sy_zs6dqc1t8pte1-stroke" data-item-order="-250556" data-item-id="-1.cu-1_sy_zs6dqc1t8pte1" data-item-class="ScenePart Part Fill Stroke ColorStrokeBlack" data-item-index="-1" data-renderer-id="0" transform="translate(4, 4)"><g id="-1.cu-1_sy_zs6dqc1t8pte1-stroke" fill="none" stroke-linecap="round" stroke-linejoin="round" stroke-miterlimit="4" stroke="#484848" stroke-width="4"><g><path d="M 370 10C 389.7 15.4 408.5 23.5 428 29.3C 449.7 35.8 470.8 43.8 492.3 50.8C 511.1 56.8 530.1 62.1 548.4 69.5C 569.5 77.9 591.9 82.8 613.1 91C 632 98.4 652.2 102.4 671 110.3C 690.1 118.4 710.6 122.6 730 130C 726 138 720.7 145.5 718 154C 690 155 662 155.6 634.1 154C 607.2 152.4 580.2 154.3 553.2 154C 528.4 153.7 503.5 154.3 478.7 154C 451.3 153.7 423.9 154.1 396.5 154C 370.2 153.9 344 154.9 317.7 154C 291.9 153.1 266.1 152.5 240.4 154C 216.7 155.4 192.9 154.8 169.2 154C 147.1 153.2 125 153.5 102.9 154C 75.9 154.6 48.9 152.5 22 154C 18.3 145.9 12.2 138.7 10 130C 31.1 121.8 52.6 114.8 74.3 108.6C 96 102.4 117 94.3 138.3 87.2C 158.6 80.4 179 73.9 199.2 66.9C 217.2 60.8 235.2 54.6 253.3 48.9C 271 43.3 288.5 37.2 306.2 31.3C 327.4 24.1 348.2 15.4 370 10M 730 358C 707.9 358.1 685.7 359.5 663.7 358C 640.4 356.4 617 358.5 593.7 358C 571.9 357.5 550.2 358.6 528.5 358C 508.7 357.5 488.8 359.1 469 358C 445.3 356.7 421.4 358.7 397.7 358C 374.8 357.3 351.9 357.9 329 358C 309.3 358.1 289.6 357.5 269.9 358C 246.3 358.6 222.6 358.5 199.1 358C 177.2 357.5 155.3 358.6 133.5 358C 111.2 357.4 88.9 358.6 66.7 358C 47.8 357.5 28.8 356.1 10 358C 14.5 350.3 18.7 342.3 22 334C 45.8 334.2 69.7 335.4 93.5 334C 121.4 332.3 149.4 333.5 177.3 334C 205.5 334.5 233.7 334.6 261.9 334C 286.6 333.5 311.3 333.3 336 334C 361.8 334.7 387.7 334.6 413.5 334C 437.5 333.4 461.5 334.4 485.5 334C 512.5 333.6 539.6 335 566.7 334C 593.6 333 620.6 333.3 647.5 334C 671 334.6 694.5 333.6 718 334C 720.8 342.5 725.2 350.5 730 358"></path><path d="M 370 10L 730 130L 718 154L 22 154L 10 130L 370 10ZM 730 358L 10 358L 22 334L 718 334L 730 358Z"></path></g></g></g><g id="g-root-4.cu_sy_m7cr2c1t8r6dp-stroke" data-item-order="-250554" data-item-id="4.cu_sy_m7cr2c1t8r6dp" data-item-class="ScenePart Part Indexed Fill Stroke ColorStrokeBlack" data-item-index="4" data-renderer-id="0" transform="translate(532, 148)"><g id="4.cu_sy_m7cr2c1t8r6dp-stroke" fill="none" stroke-linecap="round" stroke-linejoin="round" stroke-miterlimit="4" stroke="#484848" stroke-width="4"><g><path d="M 10 190C 39.5 191.7 69.1 188.9 98.7 190C 125.1 191 151.5 189.8 178 190C 178.3 168.3 177.8 146.5 178 124.8C 178.2 104.3 178 83.8 178 63.2C 178 45.5 177.3 27.7 178 10C 159.8 8 141.4 10.7 123.2 10C 104.1 9.2 85 11.3 66 10C 47.4 8.7 28.6 9.1 10 10C 9 30.2 8.8 50.5 10 70.7C 11.1 88.9 10.5 107.2 10 125.4C 9.4 146.9 9.6 168.5 10 190"></path><path d="M 10 190L 178 190L 178 10L 10 10L 10 190Z"></path></g></g></g><g id="g-root-3.cu_sy_v2zrb81t8r5l0-stroke" data-item-order="-250552" data-item-id="3.cu_sy_v2zrb81t8r5l0" data-item-class="ScenePart Part Indexed Fill Stroke ColorStrokeBlack" data-item-index="3" data-renderer-id="0" transform="translate(364, 148)"><g id="3.cu_sy_v2zrb81t8r5l0-stroke" fill="none" stroke-linecap="round" stroke-linejoin="round" stroke-miterlimit="4" stroke="#484848" stroke-width="4"><g><path d="M 10 190C 22.6 191.7 35.4 190.3 48.1 190C 62.6 189.7 77.2 191.1 91.8 190C 107.3 188.8 123 189 138.5 190C 151.6 190.9 164.9 190.8 178 190C 179.9 176.6 176.4 162.9 178 149.5C 180 132.6 176.8 115.4 178 98.4C 179 83 177.3 67.4 178 52C 178.6 38 176.8 23.9 178 10C 151.2 10.8 124.3 9.9 97.5 10C 68.3 10.1 39.1 10.8 10 10C 11.9 31.5 10.5 53.2 10 74.8C 9.6 93.8 8.6 112.9 10 131.9C 11.4 151.2 11.3 170.7 10 190"></path><path d="M 10 190L 178 190L 178 10L 10 10L 10 190Z"></path></g></g></g><g id="g-root-2.cu_sy_v2zrb81t8r5kz-stroke" data-item-order="-250550" data-item-id="2.cu_sy_v2zrb81t8r5kz" data-item-class="ScenePart Part Indexed Fill Stroke ColorStrokeBlack" data-item-index="2" data-renderer-id="0" transform="translate(196, 148)"><g id="2.cu_sy_v2zrb81t8r5kz-stroke" fill="none" stroke-linecap="round" stroke-linejoin="round" stroke-miterlimit="4" stroke="#484848" stroke-width="4"><g><path d="M 10 190C 24 191.2 38 190 52 190C 66 190 80 190.7 94 190C 122 188.6 150 190.6 178 190C 177 162.3 177.6 134.5 178 106.8C 178.5 74.5 179.3 42.2 178 10C 160.4 8.8 142.7 10 125.1 10C 106.4 10 87.8 10.4 69.2 10C 49.4 9.6 29.7 10.6 10 10C 10.4 25.3 11.4 40.7 10 55.9C 8.6 71.1 8.8 86.5 10 101.8C 11.1 115.7 10 129.7 10 143.6C 10 159.1 11.4 174.6 10 190"></path><path d="M 10 190L 94 190L 178 190L 178 10L 10 10L 10 190Z"></path></g></g></g><g id="g-root-1.cu_sy_zs6dqc1t8pte2-stroke" data-item-order="-250548" data-item-id="1.cu_sy_zs6dqc1t8pte2" data-item-class="ScenePart Part Indexed Indexed_1 Fill Stroke ColorStrokeBlack" data-item-index="1" data-renderer-id="0" transform="translate(28, 148)"><g id="1.cu_sy_zs6dqc1t8pte2-stroke" fill="none" stroke-linecap="round" stroke-linejoin="round" stroke-miterlimit="4" stroke="#484848" stroke-width="4"><g><path d="M 10 190C 39.2 190.3 68.3 189.2 97.5 190C 124.3 190.8 151.2 189.7 178 190C 179 159.5 176.3 128.9 178 98.5C 179.6 69 176.3 39.4 178 10C 159 10.9 140.1 9.9 121.1 10C 103.5 10.1 85.8 9.2 68.3 10C 48.9 10.9 29.4 10.7 10 10C 11.2 40.1 8.3 70.3 10 100.4C 11.7 130.2 10.1 160.1 10 190"></path><path d="M 10 190L 178 190L 178 10L 10 10L 10 190Z"></path></g></g></g><g id="g-root-chip_zs6dqc1t8znre-stroke" data-item-order="0" data-item-id="chip_zs6dqc1t8znre" data-item-class="Icon Stroke SceneTarget SceneEnd InsideFill InsideColorFill ColorStrokeBlack" data-item-index="none" data-renderer-id="0" transform="translate(340, 28)"><g id="chip_zs6dqc1t8znre-stroke" fill="none" stroke-linecap="round" stroke-linejoin="round" stroke-miterlimit="4" stroke="#484848" stroke-width="2"><g><path d="M 28.200001 18.799999C 30.200001 18.200001 31.6 16 31 14.2C 30.200001 12.2 28.4 10.2 26.6 11C 24.799999 12 23 13 23 15C 23 15.4 23 15.8 23.200001 16C 23 16 22.799999 16 22.6 16C 19.6 15.4 18 18.200001 15.8 20.200001C 13.6 22 15.6 25.4 16.6 28C 13.6 28.6 11.4 30.799999 11 34C 10.6 37.200001 13.6 38.799999 16.6 40C 15.6 42.599998 13.8 45.799999 15.8 47.799999C 17.6 50 19.6 52 22.4 52C 22.799999 52 23 52 23.200001 52C 22.6 54 23.799999 56 25.799999 56.799999C 27.799999 57.799999 30.6 56.400002 30.799999 54.200001C 31 52 30 50.599998 28.200001 49.200001M 39.799999 18.799999C 38 17.6 37.200001 16.200001 37 14.2C 37 12 39.400002 11.2 41.400002 11C 43.400002 10.8 45 13 45 15C 45 15.4 45 15.8 44.799999 16C 45 16 45.200001 16 45.599998 16C 48.200001 16.799999 51.200001 17.6 52.200001 20.200001C 53.200001 22.799999 52.799999 25.6 51.400002 28C 54.599998 27.799999 56.799999 30.799999 57 34C 57.200001 37.200001 54.599998 39.799999 51.400002 40C 53.799999 41.599998 54 45.599998 52.200001 47.799999C 50.400002 50 48.200001 51.200001 45.400002 52C 45.200001 52 45 52 44.799999 52C 46 53.799999 44.200001 56.400002 42.200001 56.799999C 40 57.200001 37.599998 56.400002 37.200001 54.200001C 36.599998 52 38 50.599998 39.799999 49.200001M 31 14.8C 33.200001 14.4 35 14 37 14.8M 37 53.200001C 35.200001 54.400002 32.400002 54.799999 31 53.200001M 28 26C 32 25.200001 36 26.799999 40 26C 40 26 42.599998 26 42 28C 40.799999 31.799999 42 36 42 40C 42 40 41.799999 41.200001 40 42C 36.200001 43.599998 31.799999 43 28 42C 28 42 26.799999 41.799999 26 40C 24.4 36.200001 24.799999 31.799999 26 28C 26 28 26.200001 25.200001 28 26M 30 22C 30.200001 23.4 30.4 24.799999 30 26M 38 22C 38.200001 23.4 38 24.6 38 26M 22 38C 23.4 38.200001 24.6 38.200001 26 38M 22 30C 23.200001 30.4 24.799999 30.4 26 30M 38 46C 38 44.599998 38.200001 43.400002 38 42M 30 46C 30 44.599998 30.200001 43.400002 30 42M 46 30C 44.599998 30 43.400002 29.799999 42 30M 46 38C 44.799999 38.400002 43.200001 38.400002 42 38"></path><path d="M 28.278 18.771999C 30.214836 18.118927 31.347731 16.110697 30.904995 14.115247C 30.462257 12.119797 28.586336 10.77914 26.555042 11.00649C 24.52375 11.233839 22.990633 12.956045 23 15C 23.005421 15.361034 23.059917 15.719655 23.161999 16.066C 22.939999 16.046 22.726 16 22.5 16C 19.64325 15.986053 17.029131 17.603924 15.767223 20.166893C 14.505317 22.729862 14.817009 25.788288 16.57 28.044001C 13.438807 28.258814 11.008611 30.861448 11.008611 34C 11.008611 37.13855 13.438807 39.741184 16.57 39.956001C 14.817009 42.211712 14.505317 45.270138 15.767223 47.833107C 17.029131 50.396076 19.64325 52.013947 22.5 52C 22.726 52 22.939999 51.953999 23.161999 51.933998C 22.567677 54.036442 23.770287 56.226803 25.863207 56.853825C 27.956127 57.480846 30.16497 56.312527 30.824539 54.229633C 31.484108 52.14674 30.350359 49.919956 28.278 49.228001M 39.722 18.771999C 37.785164 18.118927 36.652267 16.110697 37.095005 14.115247C 37.537743 12.119797 39.413666 10.77914 41.444958 11.00649C 43.47625 11.233839 45.009369 12.956045 45 15C 44.994579 15.361034 44.940079 15.719655 44.838001 16.066C 45.060001 16.046 45.273998 16 45.5 16C 48.35675 15.986053 50.970871 17.603924 52.232777 20.166893C 53.494682 22.729862 53.182991 25.788288 51.43 28.044001C 54.561192 28.258814 56.99139 30.861448 56.99139 34C 56.99139 37.13855 54.561192 39.741184 51.43 39.956001C 53.182991 42.211712 53.494682 45.270138 52.232777 47.833107C 50.970871 50.396076 48.35675 52.013947 45.5 52C 45.273998 52 45.060001 51.953999 44.838001 51.933998C 45.432323 54.036442 44.229713 56.226803 42.136795 56.853825C 40.043873 57.480846 37.83503 56.312527 37.175461 54.229633C 36.515892 52.14674 37.649643 49.919956 39.722 49.228001M 31 14.8C 32.856407 13.728203 35.143593 13.728203 37 14.8M 37 53.200001C 35.143593 54.271797 32.856407 54.271797 31 53.200001M 28 26L 40 26C 40 26 42 26 42 28L 42 40C 42 40 42 42 40 42L 28 42C 28 42 26 42 26 40L 26 28C 26 28 26 26 28 26M 30 22L 30 26M 38 22L 38 26M 22 38L 26 38M 22 30L 26 30M 38 46L 38 42M 30 46L 30 42M 46 30L 42 30M 46 38L 42 38"></path></g></g></g><g id="g-root-tx_artifici_18fp7us1t8r66a-stroke" data-item-order="0" data-item-id="tx_artifici_18fp7us1t8r66a" data-item-class="Label Stroke SceneTarget SceneEnd InsideFill InsideColorFill ColorStrokeBlack" data-item-index="none" data-renderer-id="0" transform="translate(256, 100)"></g><g id="g-root-spor_hrj8xw1t911j7-stroke" data-item-order="0" data-item-id="spor_hrj8xw1t911j7" data-item-class="Icon Stroke SceneTarget Indexed Indexed_1 InsideFill InsideColorFill ColorStrokeBlack" data-item-index="1" data-renderer-id="0" transform="translate(88, 172)"><g id="spor_hrj8xw1t911j7-stroke" fill="none" stroke-linecap="round" stroke-linejoin="round" stroke-miterlimit="4" stroke="#484848" stroke-width="2"><g><path d="M 51 49C 55 37.599998 48.599998 24.799999 51 13C 51.200001 12 50 11 49 11C 39.599998 11.2 30.4 11.2 21 11C 18.799999 11 16.799999 12.8 17 15C 18.4 27.6 14.8 40.599998 17 53M 51 49C 41 48.799999 31 48 21 49C 18.799999 49.200001 16.6 50.799999 17 53C 17.4 55.200001 19 56.200001 21 57C 30.4 60.599998 41 57 51 57M 23 53C 32.200001 52.200001 42.200001 56 51 53M 33 38.200001C 31.4 39.799999 28.200001 40.200001 27.200001 38.200001C 26.200001 36.200001 26 34.400002 27.200001 32.599998C 27.6 32 28.200001 31.6 28.6 31.200001C 29.799999 33.599998 32.200001 35.200001 34.400002 36.799999C 33.799999 37.200001 33.200001 37.599998 33 38.200001M 30.200001 32.599998C 31.200001 29.6 32.799999 26.799999 35 24.799999C 36.400002 23 39.200001 23.200001 40.799999 24.799999C 42.200001 26.4 42.200001 28.799999 40.799999 30.4C 38.400002 32.400002 35 33.200001 33 35.400002M 40.799999 30.4C 40.799999 30.4 43.400002 29 44.200001 32.599998C 44.799999 34.799999 42.799999 35.200001 41.400002 35.400002C 39 35.799999 36.599998 36.200001 34.400002 36.799999M 35 24.799999C 35 24.799999 36 23 33 21.200001C 31 20.200001 30.200001 22.6 30.200001 24C 30 26.4 30 29.200001 28.6 31.200001"></path><path d="M 51 49L 51 13C 51 11.895431 50.104568 11 49 11L 21 11C 18.790861 11 17 12.790861 17 15L 17 53M 51 49L 21 49C 18.790861 49 17 50.790859 17 53C 17 55.209141 18.790861 57 21 57L 51 57M 23 53.001999L 51 53.001999M 32.940002 38.220001C 31.378029 39.781776 28.845823 39.781921 27.283674 38.220322C 25.721525 36.658726 25.720776 34.126522 27.282 32.563999L 28.695999 31.15L 34.354 36.799999ZM 30.110001 32.563999L 35.059998 24.785999C 36.621971 23.224224 39.154175 23.224079 40.716324 24.785675C 42.278473 26.347273 42.279221 28.879477 40.717999 30.441999L 32.940002 35.400002M 40.718002 30.441999C 40.718002 30.441999 43.546001 29.028 44.254002 32.563999C 44.692001 34.764 42.812 35.113998 41.424 35.391998L 34.354 36.806M 35.059998 24.785999C 35.059998 24.785999 36.473999 21.956001 32.940002 21.25C 30.74 20.812 30.388 22.692001 30.110001 24.077999L 28.695999 31.15"></path></g></g></g><g id="g-root-1_8vw8p01t912bw-stroke" data-item-order="0" data-item-id="1_8vw8p01t912bw" data-item-class="Icon Stroke SceneTarget Indexed InsideFill InsideColorFill ColorStrokeBlack" data-item-index="2" data-renderer-id="0" transform="translate(256, 172)"><g id="1_8vw8p01t912bw-stroke" fill="none" stroke-linecap="round" stroke-linejoin="round" stroke-miterlimit="4" stroke="#484848" stroke-width="2"><g><path d="M 28 17C 28.799999 20.200001 30.799999 22 34 23C 37.200001 24 40.200001 20.4 40 17C 39.799999 13.6 37.200001 10.6 34 11C 30.799999 11.4 27.6 13.8 28 17M 43 57C 42.400002 56.799999 44 57.200001 20.200001 51C 18.6 50.400002 17 48.599998 18.200001 47.200001C 19.200001 45.799999 20.200001 44.400002 21.799999 45.200001C 28.6 48.400002 36.200001 50.200001 43.799999 51.200001C 45.200001 51.200001 46.799999 53 46 54.400002C 45.200001 55.799999 44.400002 57.400002 43 57M 49 50.400002C 49.599998 49 50.200001 48 49.599998 46.599998C 49.200001 45.200001 47.599998 44.799999 46.200001 45.200001C 42.200001 46.200001 37.599998 46.200001 34 48.400002M 22.6 55.599998C 22.799999 56.599998 24 56.799999 25 57C 25.6 57.200001 24.6 55.200001 34 54.599998M 24.799999 32.799999C 22.4 35 26.799999 36.799999 28.799999 36C 30.4 35.400002 32.599998 37.200001 32 38.799999C 32 39 32.200001 42 28.4 42C 25.4 41.599998 22.799999 40.400002 20 39.400002C 18.4 38.799999 17.6 36.599998 18 35C 18.4 32.799999 19 30.6 20.799999 29.4C 22.799999 28 25.6 26.200001 28 27C 31.799999 28.4 36 27 40 27C 42.599998 27 45.200001 27.799999 47.200001 29.4C 49 30.799999 49.799999 32.799999 50 35C 50.400002 36.599998 49.400002 38.400002 48.200001 39.400002C 45.200001 40.200001 42.599998 42 39.599998 42C 35.799999 42.400002 36 39 36 38.799999C 35.799999 37.200001 37.599998 36.200001 39.200001 36C 41.200001 35.599998 45.599998 35 43.200001 32.799999"></path><path d="M 28 17C 28 20.313709 30.686293 23 34 23C 37.313709 23 40 20.313709 40 17C 40 13.686292 37.313709 11 34 11C 30.686293 11 28 13.686292 28 17M 43 57C 42.419998 57 44.02 57.380001 20.220001 50.900002C 18.618374 50.469219 17.669218 48.821625 18.1 47.220001C 18.530783 45.618374 20.178375 44.66922 21.780001 45.100002L 43.779999 51.099998C 45.239132 51.486427 46.183929 52.896801 45.986099 54.393215C 45.788269 55.889629 44.509422 57.006027 43 57ZM 48.919998 50.299999C 50.000431 49.397339 50.307812 47.864796 49.659042 46.615307C 49.010269 45.365818 47.579895 44.735569 46.220001 45.100002L 34 48.439999M 22.52 55.66C 23.064686 56.499687 23.999134 57.004593 25 57C 25.540001 57 25 57.119999 34 54.66M 24.720001 32.799999C 23.4 35.620003 26.719999 36.120003 28.860001 36.02C 30.510082 35.940659 31.913801 37.210266 32 38.860001C 32 38.98 32.220001 42.040001 28.34 42.040001C 25.343315 42.161312 22.396858 41.242752 20 39.440002C 18.740852 38.3139 18.014736 36.709183 18 35.02C 17.958895 32.803383 18.967293 30.697609 20.719999 29.34C 22.847458 27.828255 25.390146 27.010962 28 27L 40 27C 42.609852 27.010962 45.152538 27.828255 47.279999 29.34C 49.032703 30.697609 50.041103 32.803383 50 35.019997C 50.010948 36.693863 49.322159 38.296204 48.100002 39.440002C 45.670933 41.250755 42.685692 42.156235 39.660004 42C 35.779999 42 36 38.98 36 38.860001C 36.086212 37.199223 37.498878 35.92067 39.16 36C 41.299999 36.099998 44.599998 35.599998 43.279999 32.779999"></path></g></g></g><g id="g-root-outl_1um69dw1t910jx-stroke" data-item-order="0" data-item-id="outl_1um69dw1t910jx" data-item-class="Icon Stroke SceneTarget Indexed InsideFill InsideColorFill ColorStrokeBlack" data-item-index="3" data-renderer-id="0" transform="translate(424, 172)"><g id="outl_1um69dw1t910jx-stroke" fill="none" stroke-linecap="round" stroke-linejoin="round" stroke-miterlimit="4" stroke="#484848" stroke-width="2"><g><path d="M 48 50C 49 49.799999 49.799999 49 50 48C 50.799999 42.799999 51.400002 37.200001 50 32C 49.599998 31 51 29.6 52 30C 52.599998 30.200001 53.400002 30.200001 54 30C 55 29.799999 56.200001 31 56 32C 54 39 56.200001 46.599998 56 54C 56 55.200001 55 56 54 56C 46 56.400002 38 56.400002 30 56C 28.799999 56 27.799999 55 28 54C 28.200001 53.400002 28.200001 52.599998 28 52C 27.6 51 28.799999 50.200001 30 50C 36 49 42 49.200001 48 50M 26 24C 31.200001 23.4 37 22.4 42 24C 42 24 44.200001 24 44 26C 43.400002 31.4 42.799999 36.799999 44 42C 44 42 44 44 42 44C 36.599998 44 31.200001 43.400002 26 44C 26 44 24 44 24 42C 24 36.599998 23.6 31.200001 24 26C 24 26 24.200001 23.200001 26 24M 20 18C 18.799999 18 18 18.799999 18 20C 17.6 25.4 16.6 30.799999 18 36C 18.4 37 17 38 16 38C 15.4 38 14.6 38 14 38C 12.8 38 12 37.200001 12 36C 11.4 28.6 11 21.200001 12 14C 12.2 13 13 11.6 14 12C 21.4 15 30 11.8 38 12C 39.200001 12 40.200001 13 40 14C 40 14.6 40 15.4 40 16C 40.200001 17 39.200001 18 38 18C 32 18.4 26 18.200001 20 18"></path><path d="M 48 50C 49.104568 50 50 49.104568 50 48L 50 32C 50 30.89543 50.895432 30 52 30L 54 30C 55.104568 30 56 30.89543 56 32L 56 54C 56 55.104568 55.104568 56 54 56L 30 56C 28.89543 56 28 55.104568 28 54L 28 52C 28 50.895432 28.89543 50 30 50ZM 26 24L 42 24C 42 24 44 24 44 26L 44 42C 44 42 44 44 42 44L 26 44C 26 44 24 44 24 42L 24 26C 24 26 24 24 26 24M 20 18C 18.895432 18 18 18.895432 18 20L 18 36C 18 37.104568 17.104568 38 16 38L 14 38C 12.895431 38 12 37.104568 12 36L 12 14C 12 12.895431 12.895431 12 14 12L 38 12C 39.104568 12 40 12.895431 40 14L 40 16C 40 17.104568 39.104568 18 38 18Z"></path></g></g></g><g id="g-root-squa_1q6cr9g1t911c6-stroke" data-item-order="0" data-item-id="squa_1q6cr9g1t911c6" data-item-class="Icon Stroke SceneTarget Indexed InsideFill InsideColorFill ColorStrokeBlack" data-item-index="4" data-renderer-id="0" transform="translate(592, 172)"><g id="squa_1q6cr9g1t911c6-stroke" fill="none" stroke-linecap="round" stroke-linejoin="round" stroke-miterlimit="4" stroke="#484848" stroke-width="2"><g><path d="M 25.428572 52.857143C 20.971428 53.885715 16.514286 55.942856 11.714286 56.285713C 12.742857 52.857143 14.8 49.771431 15.142858 46C 13.428572 36.057144 15.485714 25.428572 15.142858 15.142858C 15.142858 13.085714 16.857143 11.371428 18.571428 11.714286C 29.542856 14.8 41.542858 14.114285 52.857143 11.714286C 54.57143 11.371428 56.971428 13.428572 56.285713 15.142858C 52.514286 25.771429 58 38.114285 56.285713 49.428574C 55.942856 51.142857 54.914288 52.514286 52.857143 52.857143C 43.600002 53.885715 34 49.428574 25.428572 52.857143M 42.57143 11.714286C 39.828571 14.8 37.771431 18.228571 35.714287 22C 38.799999 23.028572 42.228569 24.4 44.285713 27.142857C 42.57143 29.542856 41.542858 32.628571 39.142857 34"></path><path d="M 25.428572 52.857143L 11.714286 56.285713L 15.142858 46L 15.142858 15.142858C 15.142858 13.24931 16.677881 11.714286 18.571428 11.714286L 52.857143 11.714286C 54.750694 11.714286 56.285713 13.24931 56.285713 15.142858L 56.285713 49.428574C 56.285713 51.322121 54.750694 52.857143 52.857143 52.857143ZM 42.57143 11.714286L 35.714287 22L 44.285713 27.142857L 39.142857 34"></path></g></g></g><g id="g-root-tx_learning_m7cr2c1t8r6dq-stroke" data-item-order="0" data-item-id="tx_learning_m7cr2c1t8r6dq" data-item-class="Label Stroke SceneTarget Indexed Indexed_1 InsideFill InsideColorFill ColorStrokeBlack" data-item-index="1" data-renderer-id="0" transform="translate(64, 232)"></g><g id="g-root-tx_reasonin_4gp7no1t8r5l3-stroke" data-item-order="0" data-item-id="tx_reasonin_4gp7no1t8r5l3" data-item-class="Label Stroke SceneTarget Indexed InsideFill InsideColorFill ColorStrokeBlack" data-item-index="2" data-renderer-id="0" transform="translate(226, 232)"></g><g id="g-root-tx_problems_vpj81t8r6dc-stroke" data-item-order="0" data-item-id="tx_problems_vpj81t8r6dc" data-item-class="Label Stroke SceneTarget Indexed InsideFill InsideColorFill ColorStrokeBlack" data-item-index="3" data-renderer-id="0" transform="translate(400, 232)"></g><g id="g-root-tx_naturall_1q6cr9g1t8r6yx-stroke" data-item-order="0" data-item-id="tx_naturall_1q6cr9g1t8r6yx" data-item-class="Label Stroke SceneTarget Indexed InsideFill InsideColorFill ColorStrokeBlack" data-item-index="4" data-renderer-id="0" transform="translate(538, 232)"></g></g></g></svg>