<?xml version="1.0" encoding="utf-8" standalone="yes"?>
<!DOCTYPE svg PUBLIC "-//W3C//DTD SVG 1.1//EN" "http://www.w3.org/Graphics/SVG/1.1/DTD/svg11.dtd">
<svg width="648" height="336" viewBox="0 0 648 336" style="fill:none;stroke:none;fill-rule:evenodd;clip-rule:evenodd;stroke-linecap:round;stroke-linejoin:round;stroke-miterlimit:1.5;" version="1.1" xmlns="http://www.w3.org/2000/svg" xmlns:xlink="http://www.w3.org/1999/xlink"><style id="fontImports">@import url("https://fonts.googleapis.com/css2?family=Roboto:wght@400;700&amp;display=block");</style><rect id="" x="0" y="0" width="648" height="336" style="fill: #ffffff;"></rect><g id="items" style="isolation: isolate"><g id="blend" style="mix-blend-mode:multiply"><g id="g-root-0.cr-big_cr_1q87qqc1rl0mix-fill" data-item-order="-86902" data-item-id="0.cr-big_cr_1q87qqc1rl0mix" data-item-class="Shape Stroke Fill ScenePart Part Indexed_0 ColorFillBlack ColorStrokeBlack" data-item-index="0" data-renderer-id="0" transform="translate(242, 98)"><g id="0.cr-big_cr_1q87qqc1rl0mix-fill" stroke="none" fill="#666666"><g><path d="M 10 70C 10.000003 103.137088 36.862918 130.000003 70.000003 130.000003C 103.137088 130.000003 130.000003 103.137088 130.000003 70.000003C 130.000003 36.862918 103.137088 10.000003 70.000003 10.000003C 36.862918 10.000003 10.000003 36.862918 10.000003 70.000003"></path></g></g></g><g id="g-root-6.cu_sy_zlx72s1rl0mj3-fill" data-item-order="-86900" data-item-id="6.cu_sy_zlx72s1rl0mj3" data-item-class="ScenePart Part Indexed Fill Stroke ColorStrokeBlack" data-item-index="6" data-renderer-id="0" transform="translate(177.63180541992188, 13.99981689453125)"><g id="6.cu_sy_zlx72s1rl0mj3-fill" stroke="none" fill="#da5da8"><g><path d="M 10.4239 80.700305C 10 81.413605 10.244 82.336805 10.9626 82.751705L 35.9872 97.199605C 37.2733 97.942205 36.8548 100.313805 35.5342 100.993105C 33.5555 102.010905 31.8365 103.590205 30.6413 105.660405C 27.3276 111.399705 29.2941 118.738705 35.0336 122.052705C 40.7731 125.366705 48.1122 123.399705 51.4259 117.660705C 52.6211 115.590705 53.1294 113.311705 53.0214 111.089705C 52.9494 109.606105 54.7941 108.057805 56.0802 108.800405L 81.1074 123.249705C 81.8248 123.663705 82.7414 123.415705 83.1731 122.708705C 94.1429 104.742405 113.1525 94.521405 132.8695 94.010205C 133.6975 93.988705 134.3685 93.319305 134.3685 92.491405L 134.3685 63.600905C 134.3685 62.115905 132.1055 61.292405 130.8565 62.096505C 128.9855 63.301205 126.7585 64.000205 124.3685 64.000205C 117.7405 64.000205 112.3685 58.627605 112.3685 52.000205C 112.3685 45.372805 117.7405 40.000205 124.3685 40.000205C 126.7585 40.000205 128.9855 40.699205 130.8565 41.903905C 132.1055 42.707905 134.3685 41.884505 134.3685 40.399405L 134.3685 11.501905C 134.3685 10.672705 133.6945 10.000005 132.8655 10.009805C 84.2595 10.581705 36.9788 36.008405 10.4239 80.700305Z"></path></g></g></g><g id="g-root-5.cu_sy_18gxq8k1rl0ow6-fill" data-item-order="-86898" data-item-id="5.cu_sy_18gxq8k1rl0ow6" data-item-class="ScenePart Part Indexed Fill Stroke ColorStrokeBlack" data-item-index="5" data-renderer-id="0" transform="translate(151.12155151367188, 86.33612060546875)"><g id="5.cu_sy_18gxq8k1rl0ow6-fill" stroke="none" fill="#e15e5a"><g><path d="M 35.426796 152.352592C 35.832696 153.076592 36.754196 153.326592 37.472796 152.911592L 62.497296 138.463592C 63.783396 137.721592 65.628096 139.269592 65.556096 140.752592C 65.448096 142.975592 65.956396 145.253592 67.151596 147.323592C 70.465296 153.063592 77.804396 155.029592 83.543896 151.716592C 89.283496 148.402592 91.249996 141.063592 87.936296 135.323592C 86.740996 133.253592 85.022096 131.674592 83.043296 130.656592C 81.722696 129.977592 81.304196 127.605592 82.590396 126.863592L 107.617596 112.413592C 108.334996 111.999592 108.578296 111.081592 108.181796 110.354592C 98.107396 91.870992 98.760496 70.297892 108.176296 52.966692C 108.571496 52.239292 108.327396 51.323292 107.610396 50.909392L 82.590496 36.464192C 81.304396 35.721592 79.459796 37.269792 79.531796 38.753092C 79.639796 40.975592 79.131496 43.253892 77.936296 45.324092C 74.622596 51.063592 67.283496 53.030092 61.543896 49.716392C 55.804396 46.402692 53.837896 39.063592 57.151596 33.324092C 58.346896 31.253892 60.065796 29.674492 62.044496 28.656792C 63.365096 27.977492 63.783596 25.605892 62.497396 24.863392L 37.471396 10.414592C 36.753396 9.999992 35.834096 10.246892 35.427996 10.969792C 11.620096 53.349992 9.999996 107.009592 35.426796 152.352592Z"></path></g></g></g><g id="g-root-4.cu_sy_18gxq8k1rl0ow5-fill" data-item-order="-86896" data-item-id="4.cu_sy_18gxq8k1rl0ow5" data-item-class="ScenePart Part Indexed Fill Stroke ColorStrokeBlack" data-item-index="4" data-renderer-id="0" transform="translate(177.62884521484375, 188.3402099609375)"><g id="4.cu_sy_18gxq8k1rl0ow5-fill" stroke="none" fill="#dd8433"><g><path d="M 132.863699 123.648707C 133.693699 123.658707 134.370699 122.985707 134.370699 122.156707L 134.370699 93.260307C 134.370699 91.775207 136.633699 90.951807 137.882699 91.755907C 139.753699 92.960607 141.980699 93.659607 144.370699 93.659607C 150.998699 93.659607 156.370699 88.287007 156.370699 81.659607C 156.370699 75.032207 150.998699 69.659607 144.370699 69.659607C 141.980699 69.659607 139.753699 70.358607 137.882699 71.563307C 136.633699 72.367407 134.370699 71.544007 134.370699 70.058907L 134.370699 41.160007C 134.370699 40.331507 133.697699 39.661907 132.869699 39.641507C 111.825699 39.124607 93.468899 27.772507 83.167599 10.952507C 82.735199 10.246507 81.819899 10.000007 81.102899 10.413907L 56.083099 24.859207C 54.796899 25.601707 55.215399 27.973307 56.535999 28.652607C 58.514699 29.670307 60.233599 31.249707 61.428899 33.319907C 64.742599 39.059407 62.776099 46.398507 57.036499 49.712207C 51.296999 53.025907 43.957899 51.059407 40.644199 45.319907C 39.448999 43.249707 38.940699 40.971307 39.048699 38.748907C 39.120699 37.265607 37.276099 35.717407 35.989999 36.459907L 10.963899 50.908707C 10.245899 51.323307 9.999999 52.242807 10.422999 52.956007C 35.221499 94.764307 80.881899 122.996707 132.863699 123.648707Z"></path></g></g></g><g id="g-root-3.cu_sy_1cwr8d01rl0o3w-fill" data-item-order="-86894" data-item-id="3.cu_sy_1cwr8d01rl0o3w" data-item-class="ScenePart Part Indexed Fill Stroke ColorStrokeBlack" data-item-index="3" data-renderer-id="0" transform="translate(301.999755859375, 186.63336181640625)"><g id="3.cu_sy_1cwr8d01rl0o3w-fill" stroke="none" fill="#e3cd09"><g><path d="M 133.944 54.66621C 134.368 53.95281 134.124 53.02961 133.406 52.61471L 108.3811 38.16681C 107.095 37.42431 107.5134 35.05261 108.8341 34.37331C 110.813 33.35561 112.532 31.77621 113.727 29.70601C 117.041 23.96651 115.074 16.62741 109.3347 13.31371C 103.5952 10.00001 96.2561 11.96651 92.9424 17.70601C 91.7471 19.77621 91.2389 22.05461 91.3468 24.27701C 91.4189 25.76041 89.5742 27.30861 88.2881 26.56611L 63.2609 12.11661C 62.5434 11.70241 61.6268 11.95071 61.1951 12.65771C 50.2254 30.62401 31.2159 40.84511 11.4988 41.35631C 10.6712 41.37771 10.000038 42.04711 10.000038 42.87501L 10.000035 71.76551C 10.000035 73.25061 12.2631 74.07401 13.5117 73.26991C 15.3824 72.06521 17.6096 71.36621 20.0001 71.36621C 26.6275 71.36621 32.0001 76.73881 32.0001 83.36621C 32.0001 89.99371 26.6275 95.36621 20.0001 95.36621C 17.6096 95.36621 15.3824 94.66731 13.5117 93.46261C 12.2631 92.65851 10.000003 93.48191 10.000003 94.96701L 10 123.86501C 10 124.69401 10.6735 125.36601 11.5025 125.35701C 60.1088 124.78501 107.3895 99.35801 133.944 54.66621Z"></path></g></g></g><g id="g-root-2.cu_sy_1cwr8d01rl0o3v-fill" data-item-order="-86892" data-item-id="2.cu_sy_1cwr8d01rl0o3v" data-item-class="ScenePart Part Indexed Fill Stroke ColorStrokeBlack" data-item-index="2" data-renderer-id="0" transform="translate(354.29998779296875, 84.6336669921875)"><g id="2.cu_sy_1cwr8d01rl0o3v-fill" stroke="none" fill="#17b0e3"><g><path d="M 83.151409 12.677294C 82.745609 11.953594 81.824109 11.703294 81.105509 12.118094L 56.080909 26.566094C 54.794809 27.308594 52.950109 25.760394 53.022209 24.277094C 53.130109 22.054594 52.621809 19.776194 51.426609 17.705994C 48.112909 11.966494 40.773809 9.999994 35.034309 13.313694C 29.294809 16.627394 27.328309 23.966494 30.642009 29.705994C 31.837209 31.776194 33.556209 33.355594 35.534909 34.373294C 36.855509 35.052594 37.274009 37.424294 35.987909 38.166794L 10.960709 52.616294C 10.243209 53.030494 10.000009 53.948394 10.396409 54.675794C 20.470809 73.158994 19.817709 94.732194 10.401909 112.062994C 10.006709 112.790994 10.250809 113.706994 10.967809 114.120994L 35.987709 128.565994C 37.273809 129.307994 39.118509 127.759994 39.046409 126.276994C 38.938509 124.054994 39.446709 121.775994 40.642009 119.705994C 43.955709 113.965994 51.294809 111.999994 57.034309 115.313994C 62.773809 118.626994 64.740309 125.965994 61.426609 131.705994C 60.231309 133.775994 58.512409 135.355994 56.533709 136.372994C 55.213109 137.052994 54.794709 139.423994 56.080809 140.166994L 81.106809 154.614994C 81.824909 155.029994 82.744109 154.782994 83.150209 154.059994C 106.958109 111.680094 108.578309 58.020494 83.151409 12.677294Z"></path></g></g></g><g id="g-root-1.cu_sy_1lse8lw1rl0nb6-fill" data-item-order="-86890" data-item-id="1.cu_sy_1lse8lw1rl0nb6" data-item-class="ScenePart Part Indexed Indexed_1 Fill Stroke ColorStrokeBlack" data-item-index="1" data-renderer-id="0" transform="translate(279.999755859375, 14.0001220703125)"><g id="1.cu_sy_1lse8lw1rl0nb6-fill" stroke="none" fill="#3bc482"><g><path d="M 32.331731 10C 32.148631 10 32.000231 10.1484 32.000231 10.3315L 32.000231 40.3993C 32.000231 41.8843 29.737131 42.7078 28.488531 41.9037C 26.617731 40.699 24.390531 40 22.000031 40C 15.372631 40 10.000047 45.3726 10.000031 52C 10.000015 58.6274 15.372631 64 22.000031 64C 24.390531 64 26.617731 63.301 28.488531 62.0963C 29.737031 61.2922 32.000231 62.1156 32.000231 63.6007L 32.000231 92.4996C 32.000231 93.3281 32.673531 93.9977 33.501731 94.0181C 54.545831 94.535 72.902231 105.8872 83.203531 122.707C 83.635931 123.413 84.551231 123.66 85.268231 123.246L 110.288031 108.8004C 111.574031 108.0579 111.156031 105.6863 109.835131 105.007C 107.856431 103.9893 106.137531 102.4099 104.942331 100.3397C 101.628631 94.6002 103.595131 87.2611 109.334631 83.9474C 115.074031 80.6337 122.413031 82.6002 125.727031 88.3397C 126.922031 90.4099 127.430031 92.6883 127.322031 94.9107C 127.250031 96.3941 129.095031 97.9422 130.381031 97.1997L 155.407031 82.7509C 156.125031 82.3363 156.371031 81.4167 155.948031 80.7035C 130.917031 38.4917 84.937131 10.1186 32.331731 10Z"></path></g></g></g><g id="g-root-tx_digitalm_141qp781rl0mio-fill" data-item-order="0" data-item-id="tx_digitalm_141qp781rl0mio" data-item-class="Label Stroke SceneTarget Indexed ColorStrokeBlack" data-item-index="6" data-renderer-id="0" transform="translate(74, 2)"><g id="tx_digitalm_141qp781rl0mio-fill" stroke="none" fill="#666666"><g><text style="font: 20px Roboto, sans-serif; white-space: pre;"><tspan x="13.45" y="33.75" dominant-baseline="ideographic">Digital Marketing</tspan></text></g></g></g><g id="g-root-tx_healthca_4jt5as1rl0nbh-fill" data-item-order="0" data-item-id="tx_healthca_4jt5as1rl0nbh" data-item-class="Label Stroke SceneTarget Indexed Indexed_1 ColorStrokeBlack" data-item-index="1" data-renderer-id="0" transform="translate(374, 2)"><g id="tx_healthca_4jt5as1rl0nbh-fill" stroke="none" fill="#666666"><g><text style="font: 20px Roboto, sans-serif; white-space: pre;"><tspan x="12" y="33.75" dominant-baseline="ideographic">Healthcare</tspan></text></g></g></g><g id="g-root-adve_4j6rdg1rko1e5-fill" data-item-order="0" data-item-id="adve_4j6rdg1rko1e5" data-item-class="Icon Stroke SceneTarget Indexed InsideFill InsideColorFill ColorStrokeBlack" data-item-index="6" data-renderer-id="0" transform="translate(223.500732421875, 57.879150390625)"></g><g id="g-root-2_dgp6vo1rknzlu-fill" data-item-order="0" data-item-id="2_dgp6vo1rknzlu" data-item-class="Icon Stroke SceneTarget Indexed Indexed_1 InsideFill InsideColorFill ColorStrokeBlack" data-item-index="1" data-renderer-id="0" transform="translate(324.869140625, 46.545654296875)"></g><g id="g-root-codi_hun9qs1rknzt8-fill" data-item-order="0" data-item-id="codi_hun9qs1rknzt8" data-item-class="Icon Stroke SceneTarget InsideFill InsideColorFill InsideBlackFill ColorStrokeBlack" data-item-index="0" data-renderer-id="0" transform="translate(266, 121.99609375)"></g><g id="g-root-chat_qrj85w1rko16p-fill" data-item-order="0" data-item-id="chat_qrj85w1rko16p" data-item-class="Icon Stroke SceneTarget Indexed InsideFill InsideColorFill ColorStrokeBlack" data-item-index="2" data-renderer-id="0" transform="translate(385.368408203125, 128.6666259765625)"></g><g id="g-root-tx_manufact_qqa6tw1rl0o3l-fill" data-item-order="0" data-item-id="tx_manufact_qqa6tw1rl0o3l" data-item-class="Label Stroke SceneTarget Indexed ColorStrokeBlack" data-item-index="5" data-renderer-id="0" transform="translate(2, 146)"><g id="tx_manufact_qqa6tw1rl0o3l-fill" stroke="none" fill="#666666"><g><text style="font: 20px Roboto, sans-serif; white-space: pre;"><tspan x="21.86" y="33.75" dominant-baseline="ideographic">Manufacturing</tspan></text></g></g></g><g id="g-root-2_3zqc41rknz0m-fill" data-item-order="0" data-item-id="2_3zqc41rknz0m" data-item-class="Icon Stroke SceneTarget Indexed InsideFill InsideColorFill ColorStrokeBlack" data-item-index="5" data-renderer-id="0" transform="translate(182.631591796875, 151.33349609375)"></g><g id="g-root-tx_customer_dfg5jo1rl0mis-fill" data-item-order="0" data-item-id="tx_customer_dfg5jo1rl0mis" data-item-class="Label Stroke SceneTarget Indexed ColorStrokeBlack" data-item-index="2" data-renderer-id="0" transform="translate(458, 146)"><g id="tx_customer_dfg5jo1rl0mis-fill" stroke="none" fill="#666666"><g><text style="font: 20px Roboto, sans-serif; white-space: pre;"><tspan x="12" y="33.75" dominant-baseline="ideographic">Customer Service</tspan></text></g></g></g><g id="g-root-doll_1ltn9xw1rko0ef-fill" data-item-order="0" data-item-id="doll_1ltn9xw1rko0ef" data-item-class="Icon Stroke SceneTarget Indexed InsideFill InsideColorFill ColorStrokeBlack" data-item-index="4" data-renderer-id="0" transform="translate(243.13082885742188, 233.454345703125)"></g><g id="g-root-warn_1hdtrtg1rko16o-fill" data-item-order="0" data-item-id="warn_1hdtrtg1rko16o" data-item-class="Icon Stroke SceneTarget Indexed InsideFill InsideColorFill ColorStrokeBlack" data-item-index="3" data-renderer-id="0" transform="translate(344.499267578125, 222.1209716796875)"></g><g id="g-root-tx_finance_hun6l01rl0owa-fill" data-item-order="0" data-item-id="tx_finance_hun6l01rl0owa" data-item-class="Label Stroke SceneTarget Indexed ColorStrokeBlack" data-item-index="4" data-renderer-id="0" transform="translate(146, 290)"><g id="tx_finance_hun6l01rl0owa-fill" stroke="none" fill="#666666"><g><text style="font: 20px Roboto, sans-serif; white-space: pre;"><tspan x="22.08" y="33.75" dominant-baseline="ideographic">Finance</tspan></text></g></g></g><g id="g-root-tx_automoti_dfg5jo1rl0mir-fill" data-item-order="0" data-item-id="tx_automoti_dfg5jo1rl0mir" data-item-class="Label Stroke SceneTarget Indexed ColorStrokeBlack" data-item-index="3" data-renderer-id="0" transform="translate(374, 290)"><g id="tx_automoti_dfg5jo1rl0mir-fill" stroke="none" fill="#666666"><g><text style="font: 20px Roboto, sans-serif; white-space: pre;"><tspan x="12" y="33.75" dominant-baseline="ideographic">Automotive</tspan></text></g></g></g><g id="g-root-0.cr-big_cr_1q87qqc1rl0mix-stroke" data-item-order="-86902" data-item-id="0.cr-big_cr_1q87qqc1rl0mix" data-item-class="Shape Stroke Fill ScenePart Part Indexed_0 ColorFillBlack ColorStrokeBlack" data-item-index="0" data-renderer-id="0" transform="translate(242, 98)"><g id="0.cr-big_cr_1q87qqc1rl0mix-stroke" fill="none" stroke-linecap="round" stroke-linejoin="round" stroke-miterlimit="4" stroke="#2c2c2c" stroke-width="2"><g><path d="M 10 70C 10.000003 103.137088 36.862918 130.000003 70.000003 130.000003C 103.137088 130.000003 130.000003 103.137088 130.000003 70.000003C 130.000003 36.862918 103.137088 10.000003 70.000003 10.000003C 36.862918 10.000003 10.000003 36.862918 10.000003 70.000003"></path></g></g></g><g id="g-root-6.cu_sy_zlx72s1rl0mj3-stroke" data-item-order="-86900" data-item-id="6.cu_sy_zlx72s1rl0mj3" data-item-class="ScenePart Part Indexed Fill Stroke ColorStrokeBlack" data-item-index="6" data-renderer-id="0" transform="translate(177.63180541992188, 13.99981689453125)"><g id="6.cu_sy_zlx72s1rl0mj3-stroke" fill="none" stroke-linecap="round" stroke-linejoin="round" stroke-miterlimit="4" stroke="#2c2c2c" stroke-width="2"><g><path d="M 10.4239 80.700305C 10 81.413605 10.244 82.336805 10.9626 82.751705L 35.9872 97.199605C 37.2733 97.942205 36.8548 100.313805 35.5342 100.993105C 33.5555 102.010905 31.8365 103.590205 30.6413 105.660405C 27.3276 111.399905 29.2941 118.739005 35.0336 122.052705C 40.7731 125.366505 48.1122 123.399905 51.4259 117.660405C 52.6211 115.590205 53.1294 113.311905 53.0214 111.089405C 52.9494 109.606105 54.7941 108.057805 56.0802 108.800405L 81.1074 123.249805C 81.8248 123.664005 82.7414 123.415705 83.1731 122.708705C 94.1429 104.742405 113.1524 94.521405 132.8695 94.010205C 133.6971 93.988705 134.3682 93.319305 134.3682 92.491405L 134.3682 63.600905C 134.3682 62.115905 132.1051 61.292405 130.8566 62.096505C 128.9858 63.301205 126.7586 64.000205 124.3682 64.000205C 117.7408 64.000205 112.3682 58.627605 112.3682 52.000205C 112.3682 45.372805 117.7408 40.000205 124.3682 40.000205C 126.7586 40.000205 128.9859 40.699205 130.8566 41.903905C 132.1052 42.707905 134.3683 41.884505 134.3683 40.399405L 134.3683 11.501905C 134.3683 10.672705 133.6948 10.000005 132.8657 10.009805C 84.2595 10.581705 36.9788 36.008405 10.4239 80.700305Z"></path></g></g></g><g id="g-root-5.cu_sy_18gxq8k1rl0ow6-stroke" data-item-order="-86898" data-item-id="5.cu_sy_18gxq8k1rl0ow6" data-item-class="ScenePart Part Indexed Fill Stroke ColorStrokeBlack" data-item-index="5" data-renderer-id="0" transform="translate(151.12155151367188, 86.33612060546875)"><g id="5.cu_sy_18gxq8k1rl0ow6-stroke" fill="none" stroke-linecap="round" stroke-linejoin="round" stroke-miterlimit="4" stroke="#2c2c2c" stroke-width="2"><g><path d="M 35.426796 152.352792C 35.832696 153.076492 36.754196 153.326792 37.472796 152.911892L 62.497296 138.463992C 63.783396 137.721492 65.628096 139.269692 65.556096 140.752992C 65.448096 142.975492 65.956396 145.253892 67.151596 147.324092C 70.465296 153.063592 77.804396 155.030092 83.543896 151.716392C 89.283496 148.402692 91.249996 141.063592 87.936296 135.324092C 86.740996 133.253892 85.022096 131.674492 83.043296 130.656792C 81.722696 129.977492 81.304196 127.605792 82.590396 126.863292L 107.617596 112.413792C 108.334996 111.999592 108.578296 111.081692 108.181796 110.354292C 98.107396 91.870992 98.760496 70.297892 108.176296 52.966692C 108.571496 52.239292 108.327396 51.323292 107.610396 50.909392L 82.590496 36.464192C 81.304396 35.721592 79.459796 37.269792 79.531796 38.753092C 79.639796 40.975592 79.131496 43.253892 77.936296 45.324092C 74.622596 51.063592 67.283496 53.030092 61.543896 49.716392C 55.804396 46.402692 53.837896 39.063592 57.151596 33.324092C 58.346896 31.253892 60.065796 29.674492 62.044496 28.656792C 63.365096 27.977492 63.783596 25.605892 62.497396 24.863392L 37.471396 10.414592C 36.753396 9.999992 35.834096 10.246892 35.427996 10.969792C 11.620196 53.349992 9.999996 107.009592 35.426796 152.352792Z"></path></g></g></g><g id="g-root-4.cu_sy_18gxq8k1rl0ow5-stroke" data-item-order="-86896" data-item-id="4.cu_sy_18gxq8k1rl0ow5" data-item-class="ScenePart Part Indexed Fill Stroke ColorStrokeBlack" data-item-index="4" data-renderer-id="0" transform="translate(177.62884521484375, 188.3402099609375)"><g id="4.cu_sy_18gxq8k1rl0ow5-stroke" fill="none" stroke-linecap="round" stroke-linejoin="round" stroke-miterlimit="4" stroke="#2c2c2c" stroke-width="2"><g><path d="M 132.863699 123.648507C 133.693399 123.658907 134.370899 122.986007 134.370899 122.156207L 134.370899 93.260307C 134.370899 91.775207 136.634099 90.951807 137.882699 91.755907C 139.753399 92.960607 141.980699 93.659607 144.371099 93.659607C 150.998599 93.659607 156.371099 88.287007 156.371099 81.659607C 156.371199 75.032207 150.998499 69.659607 144.371099 69.659607C 141.980699 69.659607 139.753399 70.358607 137.882699 71.563307C 136.634099 72.367407 134.370899 71.544007 134.370899 70.058907L 134.370899 41.160007C 134.370899 40.331507 133.697599 39.661907 132.869399 39.641507C 111.825299 39.124607 93.468899 27.772507 83.167599 10.952507C 82.735199 10.246507 81.819899 10.000007 81.102899 10.413907L 56.083099 24.859207C 54.796899 25.601707 55.215399 27.973307 56.535999 28.652607C 58.514699 29.670307 60.233599 31.249707 61.428899 33.319907C 64.742599 39.059407 62.776099 46.398507 57.036499 49.712207C 51.296999 53.025907 43.957899 51.059407 40.644199 45.319907C 39.448999 43.249707 38.940699 40.971307 39.048699 38.748907C 39.120699 37.265607 37.276099 35.717407 35.989999 36.459907L 10.963899 50.908707C 10.245899 51.323307 9.999999 52.242807 10.422999 52.956007C 35.221499 94.764307 80.881899 122.997207 132.863699 123.648507Z"></path></g></g></g><g id="g-root-3.cu_sy_1cwr8d01rl0o3w-stroke" data-item-order="-86894" data-item-id="3.cu_sy_1cwr8d01rl0o3w" data-item-class="ScenePart Part Indexed Fill Stroke ColorStrokeBlack" data-item-index="3" data-renderer-id="0" transform="translate(301.999755859375, 186.63336181640625)"><g id="3.cu_sy_1cwr8d01rl0o3w-stroke" fill="none" stroke-linecap="round" stroke-linejoin="round" stroke-miterlimit="4" stroke="#2c2c2c" stroke-width="2"><g><path d="M 133.9444 54.66621C 134.3682 53.95281 134.1242 53.02961 133.4057 52.61471L 108.3811 38.16681C 107.095 37.42431 107.5134 35.05261 108.8341 34.37331C 110.8128 33.35561 112.5317 31.77621 113.727 29.70601C 117.0407 23.96651 115.0742 16.62741 109.3347 13.31371C 103.5952 10.00001 96.2561 11.96651 92.9424 17.70601C 91.7471 19.77621 91.2389 22.05461 91.3468 24.27701C 91.4189 25.76041 89.5742 27.30861 88.2881 26.56611L 63.2609 12.11661C 62.5434 11.70241 61.6268 11.95071 61.1951 12.65771C 50.2254 30.62401 31.2159 40.84511 11.4988 41.35631C 10.6712 41.37771 10 42.04711 10 42.87501L 10 71.76551C 10 73.25061 12.2631 74.07401 13.5117 73.26991C 15.3824 72.06521 17.6096 71.36621 20.0001 71.36621C 26.6275 71.36621 32.0001 76.73881 32.0001 83.36621C 32.0001 89.99371 26.6275 95.36621 20.0001 95.36621C 17.6096 95.36621 15.3824 94.66731 13.5117 93.46261C 12.2631 92.65851 10 93.48191 10 94.96701L 10 123.86461C 10 124.69371 10.6735 125.36641 11.5025 125.35661C 60.1088 124.78471 107.3895 99.35801 133.9444 54.66621Z"></path></g></g></g><g id="g-root-2.cu_sy_1cwr8d01rl0o3v-stroke" data-item-order="-86892" data-item-id="2.cu_sy_1cwr8d01rl0o3v" data-item-class="ScenePart Part Indexed Fill Stroke ColorStrokeBlack" data-item-index="2" data-renderer-id="0" transform="translate(354.29998779296875, 84.6336669921875)"><g id="2.cu_sy_1cwr8d01rl0o3v-stroke" fill="none" stroke-linecap="round" stroke-linejoin="round" stroke-miterlimit="4" stroke="#2c2c2c" stroke-width="2"><g><path d="M 83.151409 12.677294C 82.745609 11.953594 81.824109 11.703294 81.105509 12.118094L 56.080909 26.566094C 54.794809 27.308594 52.950109 25.760394 53.022209 24.277094C 53.130109 22.054594 52.621809 19.776194 51.426609 17.705994C 48.112909 11.966494 40.773809 9.999994 35.034309 13.313694C 29.294809 16.627394 27.328309 23.966494 30.642009 29.705994C 31.837209 31.776194 33.556209 33.355594 35.534909 34.373294C 36.855509 35.052594 37.274009 37.424294 35.987909 38.166794L 10.960709 52.616294C 10.243209 53.030494 10.000009 53.948394 10.396409 54.675794C 20.470809 73.158994 19.817809 94.732194 10.401909 112.063394C 10.006709 112.790794 10.250809 113.706694 10.967809 114.120694L 35.987709 128.565894C 37.273809 129.308494 39.118509 127.760294 39.046409 126.276994C 38.938509 124.054494 39.446709 121.776194 40.642009 119.705994C 43.955709 113.966494 51.294809 111.999994 57.034309 115.313694C 62.773809 118.627394 64.740309 125.966494 61.426609 131.705994C 60.231309 133.776194 58.512409 135.355494 56.533709 136.373294C 55.213109 137.052594 54.794709 139.424194 56.080809 140.166694L 81.106809 154.615494C 81.824909 155.029994 82.744109 154.783194 83.150209 154.060294C 106.958109 111.680094 108.578309 58.020494 83.151409 12.677294Z"></path></g></g></g><g id="g-root-1.cu_sy_1lse8lw1rl0nb6-stroke" data-item-order="-86890" data-item-id="1.cu_sy_1lse8lw1rl0nb6" data-item-class="ScenePart Part Indexed Indexed_1 Fill Stroke ColorStrokeBlack" data-item-index="1" data-renderer-id="0" transform="translate(279.999755859375, 14.0001220703125)"><g id="1.cu_sy_1lse8lw1rl0nb6-stroke" fill="none" stroke-linecap="round" stroke-linejoin="round" stroke-miterlimit="4" stroke="#2c2c2c" stroke-width="2"><g><path d="M 32.331731 10C 32.148631 10 32.000231 10.1484 32.000231 10.3315L 32.000231 40.3993C 32.000231 41.8843 29.737131 42.7078 28.488531 41.9037C 26.617731 40.699 24.390531 40 22.000031 40C 15.372631 40 10.000031 45.3726 10.000031 52C 10.000031 58.6274 15.372631 64 22.000031 64C 24.390531 64 26.617731 63.301 28.488531 62.0963C 29.737031 61.2922 32.000231 62.1156 32.000231 63.6007L 32.000231 92.4996C 32.000231 93.3281 32.673531 93.9977 33.501731 94.0181C 54.545831 94.535 72.902231 105.8872 83.203531 122.7071C 83.635931 123.4131 84.551231 123.6596 85.268231 123.2457L 110.288131 108.8004C 111.574231 108.0579 111.155731 105.6863 109.835131 105.007C 107.856431 103.9893 106.137531 102.4099 104.942331 100.3397C 101.628631 94.6002 103.595131 87.2611 109.334631 83.9474C 115.074131 80.6337 122.413231 82.6002 125.726931 88.3397C 126.922131 90.4099 127.430431 92.6883 127.322431 94.9107C 127.250431 96.3941 129.095131 97.9422 130.381231 97.1997L 155.407231 82.7509C 156.125331 82.3363 156.371031 81.4167 155.948131 80.7035C 130.916831 38.4917 84.937131 10.1186 32.331731 10Z"></path></g></g></g><g id="g-root-tx_digitalm_141qp781rl0mio-stroke" data-item-order="0" data-item-id="tx_digitalm_141qp781rl0mio" data-item-class="Label Stroke SceneTarget Indexed ColorStrokeBlack" data-item-index="6" data-renderer-id="0" transform="translate(74, 2)"></g><g id="g-root-tx_healthca_4jt5as1rl0nbh-stroke" data-item-order="0" data-item-id="tx_healthca_4jt5as1rl0nbh" data-item-class="Label Stroke SceneTarget Indexed Indexed_1 ColorStrokeBlack" data-item-index="1" data-renderer-id="0" transform="translate(374, 2)"></g><g id="g-root-adve_4j6rdg1rko1e5-stroke" data-item-order="0" data-item-id="adve_4j6rdg1rko1e5" data-item-class="Icon Stroke SceneTarget Indexed InsideFill InsideColorFill ColorStrokeBlack" data-item-index="6" data-renderer-id="0" transform="translate(223.500732421875, 57.879150390625)"><g id="adve_4j6rdg1rko1e5-stroke" fill="none" stroke-linecap="round" stroke-linejoin="round" stroke-miterlimit="4" stroke="#2c2c2c" stroke-width="2"><g><path d="M 31.75 43.331501C 31.749172 44.385502 30.894503 45.239502 29.8405 45.239502L 12.6595 45.239502C 11.605497 45.239502 10.750828 44.385502 10.75 43.331501L 10.75 36.649002C 10.750001 30.85001 15.451011 26.149002 21.25 26.149002C 27.04899 26.149002 31.75 30.85001 31.75 36.649002ZM 16.299999 34.568501C 16.299915 34.885845 16.557152 35.14315 16.8745 35.14315C 17.191847 35.14315 17.449083 34.885845 17.448999 34.568501C 17.449083 34.251152 17.191847 33.993847 16.8745 33.993847C 16.557152 33.993847 16.299915 34.251152 16.299999 34.568501M 25.019499 34.568501C 25.019415 34.885845 25.276653 35.14315 25.593998 35.14315C 25.911346 35.14315 26.168583 34.885845 26.168499 34.568501C 26.168583 34.251152 25.911346 33.993847 25.593998 33.993847C 25.276653 33.993847 25.019415 34.251152 25.019499 34.568501M 21.235001 26.129501L 21.235001 22.452999M 18.478001 19.696001C 18.478001 21.218649 19.712351 22.452999 21.235001 22.452999C 22.757648 22.452999 23.992001 21.218649 23.992001 19.696001C 23.992001 18.173351 22.757648 16.939001 21.235001 16.939001C 19.712351 16.939001 18.478001 18.173351 18.478001 19.696001M 33.472 24.6175L 31.777 25.418501C 30.221394 26.130575 28.382362 25.459858 27.650434 23.913492C 26.918507 22.367128 27.565632 20.519661 29.102501 19.768002L 30.797501 18.9655ZM 33.472 24.6175C 36.787361 23.048319 40.493027 22.495602 44.121998 23.028999L 45.245499 23.194L 39.365501 10.7605L 38.780502 11.734C 36.891479 14.879508 34.113853 17.395655 30.797501 18.9655ZM 33.472 24.6175C 34.180229 26.11166 35.470001 27.250172 37.040501 27.7675M 10.75 40.010498L 31.75 40.010498"></path></g></g></g><g id="g-root-2_dgp6vo1rknzlu-stroke" data-item-order="0" data-item-id="2_dgp6vo1rknzlu" data-item-class="Icon Stroke SceneTarget Indexed Indexed_1 InsideFill InsideColorFill ColorStrokeBlack" data-item-index="1" data-renderer-id="0" transform="translate(324.869140625, 46.545654296875)"><g id="2_dgp6vo1rknzlu-stroke" fill="none" stroke-linecap="round" stroke-linejoin="round" stroke-miterlimit="4" stroke="#2c2c2c" stroke-width="2"><g><path d="M 39.005714 34.017143C 39.982178 33.089859 40.53508 31.802317 40.53508 30.455713C 40.53508 29.109112 39.982178 27.821571 39.005714 26.894285C 36.951763 24.944883 33.731094 24.944883 31.677143 26.894285L 28 30.571428L 24.322857 26.894285C 22.268906 24.944883 19.048237 24.944883 16.994286 26.894285C 16.017822 27.821571 15.464921 29.109112 15.464921 30.455713C 15.464921 31.802317 16.017822 33.089859 16.994286 34.017143L 28 44.714287ZM 22.857143 16.428572C 22.857143 19.268892 25.159678 21.571428 28 21.571428C 30.840321 21.571428 33.142857 19.268892 33.142857 16.428572C 33.142857 13.588249 30.840321 11.285714 28 11.285714C 25.159678 11.285714 22.857143 13.588249 22.857143 16.428572"></path></g></g></g><g id="g-root-codi_hun9qs1rknzt8-stroke" data-item-order="0" data-item-id="codi_hun9qs1rknzt8" data-item-class="Icon Stroke SceneTarget InsideFill InsideColorFill InsideBlackFill ColorStrokeBlack" data-item-index="0" data-renderer-id="0" transform="translate(266, 121.99609375)"><g id="codi_hun9qs1rknzt8-stroke" fill="none" stroke-linecap="round" stroke-linejoin="round" stroke-miterlimit="4" stroke="#2c2c2c" stroke-width="2"><g><path d="M 56.538998 30.351999L 58.102001 30.351999C 58.965225 30.352001 59.665001 31.051781 59.665001 31.915001L 59.665001 42.855999M 56.538998 42.855999L 62.791 42.855999M 73.237 11.467L 74.800003 11.467C 75.663223 11.467 76.362999 12.16678 76.362999 13.030001L 76.362999 23.971001M 73.237 23.971001L 79.488998 23.971001M 73.237 49.234001L 74.800003 49.234001C 75.663223 49.234001 76.362999 49.933781 76.362999 50.797005L 76.362999 61.737999M 73.237 61.737999L 79.488998 61.737999M 80.272003 38.946999C 80.272163 41.105171 78.522675 42.854805 76.364502 42.854805C 74.206329 42.854805 72.456833 41.105171 72.457001 38.946999L 72.457001 34.258003C 72.457169 32.100063 74.206566 30.350803 76.364502 30.350803C 78.52243 30.350803 80.271835 32.100063 80.272003 34.258003ZM 63.570999 57.832001C 63.570999 59.985909 61.824905 61.731998 59.670998 61.731998C 57.51709 61.731998 55.771 59.985909 55.771 57.831997L 55.771 53.142998C 55.771 50.98909 57.51709 49.242996 59.670998 49.242996C 61.824905 49.242996 63.570999 50.98909 63.570999 53.142998ZM 73.237 67.962997L 74.800003 67.962997C 75.663223 67.963005 76.362999 68.662781 76.362999 69.526001L 76.362999 80.467003M 73.237 80.467003L 79.488998 80.467003M 63.570999 76.561005C 63.570999 78.714912 61.824905 80.460999 59.670998 80.460999C 57.51709 80.460999 55.771 78.714912 55.771 76.561005L 55.771 71.872002C 55.771 69.718086 57.51709 67.972 59.670998 67.972C 61.824905 67.972 63.570999 69.718086 63.570999 71.872002ZM 63.570999 20.353001C 63.570999 22.50691 61.824905 24.253 59.670998 24.253C 57.51709 24.253 55.771 22.50691 55.771 20.353001L 55.771 15.661C 55.771 13.50709 57.51709 11.761 59.670998 11.761C 61.824905 11.761 63.570999 13.50709 63.570999 15.661ZM 38.659 61.782997C 38.659 56.398224 34.293777 52.033001 28.909 52.033001C 28.753 52.032997 28.609001 52.071999 28.450001 52.077999M 37.645 23.200001C 40.549179 22.220776 42.248531 19.210203 41.586182 16.217808C 40.923828 13.225411 38.112713 11.21321 35.066566 11.551058C 32.02042 11.888906 29.718546 14.468191 29.728001 17.532999C 29.736462 18.074524 29.818205 18.61241 29.971001 19.132C 29.638 19.101999 29.317001 19.032999 28.978001 19.032999C 24.692873 19.012081 20.771696 21.438885 18.878836 25.283339C 16.985975 29.127792 17.453512 33.715431 20.083 37.098999C 15.386211 37.421223 11.740915 41.325172 11.740915 46.032997C 11.740915 50.740826 15.386211 54.644779 20.083 54.966999C 17.453512 58.350567 16.985975 62.938206 18.878836 66.782661C 20.771696 70.627113 24.692873 73.053917 28.977999 73.032997C 29.317001 73.032997 29.638 72.960999 29.971001 72.931C 29.077946 76.084488 30.880661 79.371109 34.019955 80.312851C 37.159248 81.254601 40.47337 79.50296 41.463581 76.378616C 42.453793 73.254272 40.753647 69.913445 37.645 68.875M 28.450001 40C 28.606001 40 28.75 40.045002 28.909 40.045002C 34.293777 40.045002 38.659 35.679779 38.659 30.295002M 41.722 17.242001C 43.089527 16.451187 44.642288 16.037117 46.222 16.042M 41.454998 76.323997C 42.920799 77.116371 44.561745 77.528923 46.227997 77.524002M 46.228001 31.033001L 46.228001 62.532997"></path></g></g></g><g id="g-root-chat_qrj85w1rko16p-stroke" data-item-order="0" data-item-id="chat_qrj85w1rko16p" data-item-class="Icon Stroke SceneTarget Indexed InsideFill InsideColorFill ColorStrokeBlack" data-item-index="2" data-renderer-id="0" transform="translate(385.368408203125, 128.6666259765625)"><g id="chat_qrj85w1rko16p-stroke" fill="none" stroke-linecap="round" stroke-linejoin="round" stroke-miterlimit="4" stroke="#2c2c2c" stroke-width="2"><g><path d="M 44.714287 30.571428L 44.714287 37C 44.714287 37.710079 44.138649 38.285713 43.42857 38.285713L 12.571428 38.285713C 11.861348 38.285713 11.285714 37.710079 11.285714 37L 11.285714 16.428572C 11.285714 15.718491 11.861348 15.142857 12.571428 15.142857L 17.714285 15.142857M 25.428572 38.285713L 22.857143 44.714287M 30.571428 38.285713L 33.142857 44.714287M 20.285713 44.714287L 35.714287 44.714287M 24.142857 24.142857L 31.857143 24.142857L 31.857143 29.285713L 39.571426 24.142857L 44.714287 24.142857L 44.714287 11.285714L 24.142857 11.285714L 24.142857 24.142857Z"></path></g></g></g><g id="g-root-tx_manufact_qqa6tw1rl0o3l-stroke" data-item-order="0" data-item-id="tx_manufact_qqa6tw1rl0o3l" data-item-class="Label Stroke SceneTarget Indexed ColorStrokeBlack" data-item-index="5" data-renderer-id="0" transform="translate(2, 146)"></g><g id="g-root-2_3zqc41rknz0m-stroke" data-item-order="0" data-item-id="2_3zqc41rknz0m" data-item-class="Icon Stroke SceneTarget Indexed InsideFill InsideColorFill ColorStrokeBlack" data-item-index="5" data-renderer-id="0" transform="translate(182.631591796875, 151.33349609375)"><g id="2_3zqc41rknz0m-stroke" fill="none" stroke-linecap="round" stroke-linejoin="round" stroke-miterlimit="4" stroke="#2c2c2c" stroke-width="2"><g><path d="M 10.75 44.115986L 45.249985 44.115986M 23.612494 39.54549L 15.456998 25.724493M 21.797495 23.433994L 30.467493 34.058491M 11.344 20.121996C 11.343722 23.298382 13.918612 25.873497 17.094997 25.873497C 20.271381 25.873497 22.846273 23.298382 22.845995 20.121996C 22.846273 16.945612 20.271381 14.370496 17.094997 14.370496C 13.918612 14.370496 11.343722 16.945612 11.344 20.121996M 29.822493 22.190495L 22.457495 22.190495M 22.142496 17.366497L 29.372492 17.366497M 28.824993 19.301497C 28.824465 21.35968 30.492805 23.028448 32.550991 23.028448C 34.609173 23.028448 36.277515 21.35968 36.276989 19.301497C 36.277515 17.243311 34.609173 15.574543 32.550991 15.574543C 30.492805 15.574543 28.824465 17.243311 28.824991 19.301497M 35.082989 44.115986L 22.416994 44.115986L 24.950495 34.433491L 32.549492 34.433491L 35.082989 44.115986ZM 27.032492 39.54549C 27.032272 40.49419 27.801289 41.263382 28.74999 41.263382C 29.698696 41.263382 30.46771 40.49419 30.467491 39.545486C 30.46771 38.596783 29.698696 37.827587 28.74999 37.827587C 27.801289 37.827587 27.032272 38.596783 27.032492 39.545486M 15.383498 20.121996C 15.383498 21.067232 16.149761 21.833496 17.094997 21.833496C 18.040232 21.833496 18.806498 21.067232 18.806498 20.121996C 18.806498 19.176762 18.040232 18.410498 17.094997 18.410498C 16.149761 18.410498 15.383498 19.176762 15.383498 20.121996M 31.800991 19.301497C 31.800991 19.71571 32.136776 20.051497 32.550991 20.051497C 32.965206 20.051497 33.300991 19.71571 33.300991 19.301497C 33.300991 18.887283 32.965206 18.551497 32.550991 18.551497C 32.136776 18.551497 31.800991 18.887283 31.800991 19.301497M 33.360992 15.525998L 35.71299 12.587499C 36.068073 12.142713 36.60635 11.883789 37.175491 11.883999L 41.675488 11.883999C 42.172417 11.883644 42.649029 12.081198 42.999989 12.432999L 44.499985 13.932999C 45.23159 14.664967 45.231441 15.85138 44.499653 16.583166C 43.767868 17.314953 42.581455 17.3151 41.849487 16.583498L 40.89999 15.633998L 38.076988 15.633998L 36.456989 17.657497C 36.329391 17.814642 36.177471 17.950357 36.006989 18.059496M 35.987492 20.522495L 38.076988 23.133995L 40.89999 23.133995L 41.850986 22.182995C 42.582901 21.451494 43.769234 21.45183 44.500736 22.183746C 45.232235 22.915661 45.231903 24.101994 44.499985 24.833494L 42.999989 26.333494C 42.648815 26.686075 42.171619 26.884184 41.673988 26.883993L 37.173988 26.883993C 36.605 26.883547 36.066998 26.624752 35.711491 26.180492L 33.105991 22.925495"></path></g></g></g><g id="g-root-tx_customer_dfg5jo1rl0mis-stroke" data-item-order="0" data-item-id="tx_customer_dfg5jo1rl0mis" data-item-class="Label Stroke SceneTarget Indexed ColorStrokeBlack" data-item-index="2" data-renderer-id="0" transform="translate(458, 146)"></g><g id="g-root-doll_1ltn9xw1rko0ef-stroke" data-item-order="0" data-item-id="doll_1ltn9xw1rko0ef" data-item-class="Icon Stroke SceneTarget Indexed InsideFill InsideColorFill ColorStrokeBlack" data-item-index="4" data-renderer-id="0" transform="translate(243.13082885742188, 233.454345703125)"><g id="doll_1ltn9xw1rko0ef-stroke" fill="none" stroke-linecap="round" stroke-linejoin="round" stroke-miterlimit="4" stroke="#2c2c2c" stroke-width="2"><g><path d="M 21.571428 37L 31.47143 37C 33.661392 37.009113 35.498478 35.349979 35.711765 33.17041C 35.92506 30.990839 34.444469 29.00704 32.294285 28.591429L 23.705713 27.408571C 21.555531 26.99296 20.074942 25.009161 20.288233 22.829592C 20.501524 20.650021 22.33861 18.990889 24.528572 19L 34.42857 19M 28 44.714287L 28 11.285714"></path></g></g></g><g id="g-root-warn_1hdtrtg1rko16o-stroke" data-item-order="0" data-item-id="warn_1hdtrtg1rko16o" data-item-class="Icon Stroke SceneTarget Indexed InsideFill InsideColorFill ColorStrokeBlack" data-item-index="3" data-renderer-id="0" transform="translate(344.499267578125, 222.1209716796875)"><g id="warn_1hdtrtg1rko16o-stroke" fill="none" stroke-linecap="round" stroke-linejoin="round" stroke-miterlimit="4" stroke="#2c2c2c" stroke-width="2"><g><path d="M 45.25 17.125L 39.036999 17.125C 37.303329 17.12488 35.691818 18.017645 34.772499 19.487501L 33.294998 21.85C 32.751526 22.620541 31.941048 23.161572 31.021 23.368L 24.979 24.375999C 24.138193 24.542313 23.524323 25.268246 23.5 26.125L 23.5 32.125C 23.5 32.953426 24.171572 33.625 25 33.625L 31.75 33.625M 31.75 33.625C 31.750002 36.524494 34.100506 38.875 37 38.875C 39.899494 38.875 42.25 36.524494 42.25 33.625C 42.25 30.725506 39.899494 28.375002 37 28.375002C 34.100506 28.375002 31.750002 30.725506 31.750002 33.625ZM 35.5 33.625C 35.5 34.453426 36.171574 35.125 37 35.125C 37.828426 35.125 38.5 34.453426 38.5 33.625C 38.5 32.796574 37.828426 32.125 37 32.125C 36.171574 32.125 35.5 32.796574 35.5 33.625ZM 42.25 33.625L 45.25 33.625M 23.5 26.875L 27.25 26.875C 27.664213 26.875 28 27.210787 28 27.625L 28 29.125C 28 29.539213 27.664213 29.875 27.25 29.875L 23.5 29.875M 16.75 37.376499C 13.116693 35.862625 10.749999 32.312584 10.749999 28.376501C 10.749999 24.440416 13.116693 20.890377 16.75 19.376501M 17.5 33.570999C 15.64301 32.499359 14.498964 30.51827 14.498964 28.37425C 14.498964 26.23023 15.64301 24.24914 17.5 23.1775M 19.75 30.497499C 18.849293 30.180649 18.246655 29.329815 18.246655 28.375C 18.246655 27.420187 18.849293 26.569353 19.75 26.252501"></path></g></g></g><g id="g-root-tx_finance_hun6l01rl0owa-stroke" data-item-order="0" data-item-id="tx_finance_hun6l01rl0owa" data-item-class="Label Stroke SceneTarget Indexed ColorStrokeBlack" data-item-index="4" data-renderer-id="0" transform="translate(146, 290)"></g><g id="g-root-tx_automoti_dfg5jo1rl0mir-stroke" data-item-order="0" data-item-id="tx_automoti_dfg5jo1rl0mir" data-item-class="Label Stroke SceneTarget Indexed ColorStrokeBlack" data-item-index="3" data-renderer-id="0" transform="translate(374, 290)"></g></g></g></svg>