<?xml version="1.0" encoding="utf-8" standalone="yes"?>
<!DOCTYPE svg PUBLIC "-//W3C//DTD SVG 1.1//EN" "http://www.w3.org/Graphics/SVG/1.1/DTD/svg11.dtd">
<svg width="936" height="373" viewBox="0 0 936 373" style="fill:none;stroke:none;fill-rule:evenodd;clip-rule:evenodd;stroke-linecap:round;stroke-linejoin:round;stroke-miterlimit:1.5;" version="1.1" xmlns="http://www.w3.org/2000/svg" xmlns:xlink="http://www.w3.org/1999/xlink"><style id="fontImports">@import url("https://fonts.googleapis.com/css2?family=Roboto:wght@400;700&amp;display=block");</style><rect id="" x="0" y="0" width="936" height="373" style="fill: #ffffff;"></rect><g id="items" style="isolation: isolate"><g id="blend" style="mix-blend-mode:multiply"><g id="g-root-ro_vcdeq81uczdos-fill" data-item-order="-21600" data-item-id="ro_vcdeq81uczdos" data-item-class="Shape Stroke Fill" data-item-index="none" data-renderer-id="0" transform="translate(398, 102)"><g id="ro_vcdeq81uczdos-fill" stroke="none" fill="#f0f0f0"><g><path d="M 34 10L 130 10C 130 10 154 10 154 34L 154 136C 154 136 154 160 130 160L 34 160C 34 160 10 160 10 136L 10 34C 10 34 10 10 34 10"></path></g></g></g><g id="g-root-ro_147z3kw1q6svlv-fill" data-item-order="-12312" data-item-id="ro_147z3kw1q6svlv" data-item-class="Shape Stroke Fill" data-item-index="none" data-renderer-id="0" transform="translate(122, 21)"><g id="ro_147z3kw1q6svlv-fill" stroke="none" fill="#e6efff"><g><path d="M 22 10L 226 10C 226 10 238 10 238 22L 238 52C 238 52 238 64 226 64L 22 64C 22 64 10 64 10 52L 10 22C 10 22 10 10 22 10"></path></g></g></g><g id="g-root-ro_1hgxpls1q6yhaa-fill" data-item-order="-9720" data-item-id="ro_1hgxpls1q6yhaa" data-item-class="Shape Stroke Fill" data-item-index="none" data-renderer-id="0" transform="translate(170, 207)"><g id="ro_1hgxpls1q6yhaa-fill" stroke="none" fill="#e9fbf3"><g><path d="M 22 10L 178 10C 178 10 190 10 190 22L 190 52C 190 52 190 64 178 64L 22 64C 22 64 10 64 10 52L 10 22C 10 22 10 10 22 10"></path></g></g></g><g id="g-root-ro_zknwf41q6regz-fill" data-item-order="-9720" data-item-id="ro_zknwf41q6regz" data-item-class="Shape Stroke Fill" data-item-index="none" data-renderer-id="0" transform="translate(590, 189)"><g id="ro_zknwf41q6regz-fill" stroke="none" fill="#f7e6fe"><g><path d="M 22 10L 178 10C 178 10 190 10 190 22L 190 52C 190 52 190 64 178 64L 22 64C 22 64 10 64 10 52L 10 22C 10 22 10 10 22 10"></path></g></g></g><g id="g-root-ro_4nkyq81ud3nk7-fill" data-item-order="-9072" data-item-id="ro_4nkyq81ud3nk7" data-item-class="Shape Stroke Fill" data-item-index="none" data-renderer-id="0" transform="translate(590, 3)"><g id="ro_4nkyq81ud3nk7-fill" stroke="none" fill="#ffe7e6"><g><path d="M 22 10L 166 10C 166 10 178 10 178 22L 178 52C 178 52 178 64 166 64L 22 64C 22 64 10 64 10 52L 10 22C 10 22 10 10 22 10"></path></g></g></g><g id="g-root-assi_1lz942o1q6st8q-fill" data-item-order="0" data-item-id="assi_1lz942o1q6st8q" data-item-class="Icon Stroke" data-item-index="none" data-renderer-id="0" transform="translate(308, 33)"></g><g id="g-root-cu_18lapcw1q6yi2z-fill" data-item-order="0" data-item-id="cu_18lapcw1q6yi2z" data-item-class="Curve Stroke ColorFillGray ColorStrokeGray" data-item-index="none" data-renderer-id="0" transform="translate(350, 48)"></g><g id="g-root-cu_qun5y81q6yi2r-fill" data-item-order="0" data-item-id="cu_qun5y81q6yi2r" data-item-class="Curve Stroke ColorFillGray ColorStrokeGray" data-item-index="none" data-renderer-id="0" transform="translate(614, 57)"></g><g id="g-root-cu_qun5y81q6yi2u-fill" data-item-order="0" data-item-id="cu_qun5y81q6yi2u" data-item-class="Curve Stroke ColorFillGray ColorStrokeGray" data-item-index="none" data-renderer-id="0" transform="translate(614, 57)"></g><g id="g-root-cu_mfg4ww1q6yfpc-fill" data-item-order="0" data-item-id="cu_mfg4ww1q6yfpc" data-item-class="Curve Stroke ColorFillGray ColorStrokeGray" data-item-index="none" data-renderer-id="0" transform="translate(614, 57)"></g><g id="g-root-cu_vago2o1q6yhac-fill" data-item-order="0" data-item-id="cu_vago2o1q6yhac" data-item-class="Curve Stroke ColorFillGray ColorStrokeGray" data-item-index="none" data-renderer-id="0" transform="translate(308, 75)"></g><g id="g-root-tx_diagnost_hv9b6o1q6rfuq-fill" data-item-order="0" data-item-id="tx_diagnost_hv9b6o1q6rfuq" data-item-class="Label Stroke" data-item-index="none" data-renderer-id="0" transform="translate(638, 69)"><g id="tx_diagnost_hv9b6o1q6rfuq-fill" stroke="none" fill="#484848"><g><text style="font: 20px Roboto, sans-serif; white-space: pre;"><tspan x="13.91" y="33.75" dominant-baseline="ideographic">Diagnostic Tools</tspan></text></g></g></g><g id="g-root-tx_siri_qp0w681q6rf9o-fill" data-item-order="0" data-item-id="tx_siri_qp0w681q6rf9o" data-item-class="Label Stroke" data-item-index="none" data-renderer-id="0" transform="translate(266, 87)"><g id="tx_siri_qp0w681q6rf9o-fill" stroke="none" fill="#484848"><g><text style="font: 20px Roboto, sans-serif; white-space: pre;"><tspan x="13.83" y="33.75" dominant-baseline="ideographic">Siri</tspan></text></g></g></g><g id="g-root-cu_1463obk1q6yfpr-fill" data-item-order="0" data-item-id="cu_1463obk1q6yfpr" data-item-class="Curve Stroke ColorFillGray ColorStrokeGray" data-item-index="none" data-renderer-id="0" transform="translate(308, 75)"></g><g id="g-root-cu_zqa6741q6ygi2-fill" data-item-order="0" data-item-id="cu_zqa6741q6ygi2" data-item-class="Curve Stroke ColorFillGray ColorStrokeGray" data-item-index="none" data-renderer-id="0" transform="translate(308, 75)"></g><g id="g-root-tx_virtuala_146q5eo1q6stft-fill" data-item-order="0" data-item-id="tx_virtuala_146q5eo1q6stft" data-item-class="Label Stroke" data-item-index="none" data-renderer-id="0" transform="translate(134, 36)"><g id="tx_virtuala_146q5eo1q6stft-fill" stroke="none" fill="#4682e3"><g><text style="font: 20px Roboto, sans-serif; white-space: pre;"><tspan x="15.4" y="33.75" dominant-baseline="ideographic">Virtual Assistants</tspan></text></g></g></g><g id="g-root-tx_electron_8zmaxs1q6rgnf-fill" data-item-order="0" data-item-id="tx_electron_8zmaxs1q6rgnf" data-item-class="Label Stroke" data-item-index="none" data-renderer-id="0" transform="translate(638, 105)"><g id="tx_electron_8zmaxs1q6rgnf-fill" stroke="none" fill="#484848"><g><text style="font: 20px Roboto, sans-serif; white-space: pre;"><tspan x="15.42" y="33.75" dominant-baseline="ideographic">Electronic Health Records</tspan></text></g></g></g><g id="g-root-tx_alexa_m97e1s1q6rg1x-fill" data-item-order="0" data-item-id="tx_alexa_m97e1s1q6rg1x" data-item-class="Label Stroke" data-item-index="none" data-renderer-id="0" transform="translate(242, 123)"><g id="tx_alexa_m97e1s1q6rg1x-fill" stroke="none" fill="#484848"><g><text style="font: 20px Roboto, sans-serif; white-space: pre;"><tspan x="15.35" y="33.75" dominant-baseline="ideographic">Alexa</tspan></text></g></g></g><g id="g-root-codi_1480ez41uczcw3-fill" data-item-order="0" data-item-id="codi_1480ez41uczcw3" data-item-class="Icon Stroke" data-item-index="none" data-renderer-id="0" transform="translate(446, 126)"></g><g id="g-root-tx_translat_1upwbmo1q6revj-fill" data-item-order="0" data-item-id="tx_translat_1upwbmo1q6revj" data-item-class="Label Stroke" data-item-index="none" data-renderer-id="0" transform="translate(638, 327)"><g id="tx_translat_1upwbmo1q6revj-fill" stroke="none" fill="#484848"><g><text style="font: 20px Roboto, sans-serif; white-space: pre;"><tspan x="16.18" y="33.75" dominant-baseline="ideographic">Translation Services</tspan></text></g></g></g><g id="g-root-tx_googleas_ddkdsw1q6rgum-fill" data-item-order="0" data-item-id="tx_googleas_ddkdsw1q6rgum" data-item-class="Label Stroke" data-item-index="none" data-renderer-id="0" transform="translate(146, 159)"><g id="tx_googleas_ddkdsw1q6rgum-fill" stroke="none" fill="#484848"><g><text style="font: 20px Roboto, sans-serif; white-space: pre;"><tspan x="12.06" y="33.75" dominant-baseline="ideographic">Google Assistant</tspan></text></g></g></g><g id="g-root-tx_apisinai_1hiug9c1uczegy-fill" data-item-order="0" data-item-id="tx_apisinai_1hiug9c1uczegy" data-item-class="Label Stroke" data-item-index="none" data-renderer-id="0" transform="translate(422, 180)"><g id="tx_apisinai_1hiug9c1uczegy-fill" stroke="none" fill="#484848"><g><text style="font: 20px Roboto, sans-serif; white-space: pre;"><tspan x="12.67" y="33.75" dominant-baseline="ideographic">APIs in AI </tspan><tspan x="17.22" y="57.75" dominant-baseline="ideographic">Systems</tspan></text></g></g></g><g id="g-root-tx_healthca_1d15ivk1ud3l71-fill" data-item-order="0" data-item-id="tx_healthca_1d15ivk1ud3l71" data-item-class="Label Stroke" data-item-index="none" data-renderer-id="0" transform="translate(638, 18)"><g id="tx_healthca_1d15ivk1ud3l71-fill" stroke="none" fill="#e15e5a"><g><text style="font: 20px Roboto, sans-serif; white-space: pre;"><tspan x="15.67" y="33.75" dominant-baseline="ideographic">Healthcare</tspan></text></g></g></g><g id="g-root-cu_1463obk1q6yfpl-fill" data-item-order="0" data-item-id="cu_1463obk1q6yfpl" data-item-class="Curve Stroke ColorFillGray ColorStrokeGray" data-item-index="none" data-renderer-id="0" transform="translate(542, 30)"></g><g id="g-root-cu_18lapcw1q6yi32-fill" data-item-order="0" data-item-id="cu_18lapcw1q6yi32" data-item-class="Curve Stroke ColorFillGray ColorStrokeGray" data-item-index="none" data-renderer-id="0" transform="translate(350, 202)"></g><g id="g-root-cu_1463obk1q6yfpo-fill" data-item-order="0" data-item-id="cu_1463obk1q6yfpo" data-item-class="Curve Stroke ColorFillGray ColorStrokeGray" data-item-index="none" data-renderer-id="0" transform="translate(542, 202)"></g><g id="g-root-adse_13zuxgg1q6rgui-fill" data-item-order="0" data-item-id="adse_13zuxgg1q6rgui" data-item-class="Icon Stroke" data-item-index="none" data-renderer-id="0" transform="translate(602, 201)"></g><g id="g-root-tx_googleap_1cvhxpc1q6rg1t-fill" data-item-order="0" data-item-id="tx_googleap_1cvhxpc1q6rg1t" data-item-class="Label Stroke" data-item-index="none" data-renderer-id="0" transform="translate(638, 204)"><g id="tx_googleap_1cvhxpc1q6rg1t-fill" stroke="none" fill="#b65edf"><g><text style="font: 20px Roboto, sans-serif; white-space: pre;"><tspan x="15.26" y="33.75" dominant-baseline="ideographic">Google APIs</tspan></text></g></g></g><g id="g-root-tx_ecommerc_9247a81q6yhhc-fill" data-item-order="0" data-item-id="tx_ecommerc_9247a81q6yhhc" data-item-class="Label Stroke" data-item-index="none" data-renderer-id="0" transform="translate(182, 222)"><g id="tx_ecommerc_9247a81q6yhhc-fill" stroke="none" fill="#3bc482"><g><text style="font: 20px Roboto, sans-serif; white-space: pre;"><tspan x="13.96" y="33.75" dominant-baseline="ideographic">E-commerce</tspan></text></g></g></g><g id="g-root-appa_1lwr7q81q6ygi1-fill" data-item-order="0" data-item-id="appa_1lwr7q81q6ygi1" data-item-class="Icon Stroke" data-item-index="none" data-renderer-id="0" transform="translate(308, 219)"></g><g id="g-root-cu_mfg4ww1q6yfpe-fill" data-item-order="0" data-item-id="cu_mfg4ww1q6yfpe" data-item-class="Curve Stroke ColorFillGray ColorStrokeGray" data-item-index="none" data-renderer-id="0" transform="translate(614, 243)"></g><g id="g-root-cu_mfg4ww1q6yfph-fill" data-item-order="0" data-item-id="cu_mfg4ww1q6yfph" data-item-class="Curve Stroke ColorFillGray ColorStrokeGray" data-item-index="none" data-renderer-id="0" transform="translate(614, 243)"></g><g id="g-root-cu_djt4o01q6ygi7-fill" data-item-order="0" data-item-id="cu_djt4o01q6ygi7" data-item-class="Curve Stroke ColorFillGray ColorStrokeGray" data-item-index="none" data-renderer-id="0" transform="translate(614, 243)"></g><g id="g-root-cu_vago2o1q6yhae-fill" data-item-order="0" data-item-id="cu_vago2o1q6yhae" data-item-class="Curve Stroke ColorFillGray ColorStrokeGray" data-item-index="none" data-renderer-id="0" transform="translate(308, 261)"></g><g id="g-root-cu_qun5y81q6yi2p-fill" data-item-order="0" data-item-id="cu_qun5y81q6yi2p" data-item-class="Curve Stroke ColorFillGray ColorStrokeGray" data-item-index="none" data-renderer-id="0" transform="translate(308, 261)"></g><g id="g-root-tx_visionai_4jsstc1q6rhfp-fill" data-item-order="0" data-item-id="tx_visionai_4jsstc1q6rhfp" data-item-class="Label Stroke" data-item-index="none" data-renderer-id="0" transform="translate(638, 255)"><g id="tx_visionai_4jsstc1q6rhfp-fill" stroke="none" fill="#484848"><g><text style="font: 20px Roboto, sans-serif; white-space: pre;"><tspan x="12.68" y="33.75" dominant-baseline="ideographic">Vision AI</tspan></text></g></g></g><g id="g-root-tx_personal_zlwulc1q6rgn9-fill" data-item-order="0" data-item-id="tx_personal_zlwulc1q6rgn9" data-item-class="Label Stroke" data-item-index="none" data-renderer-id="0" transform="translate(2, 273)"><g id="tx_personal_zlwulc1q6rgn9-fill" stroke="none" fill="#484848"><g><text style="font: 20px Roboto, sans-serif; white-space: pre;"><tspan x="16.22" y="33.75" dominant-baseline="ideographic">Personalized Recommendations</tspan></text></g></g></g><g id="g-root-tx_naturall_4jsstc1q6rhfq-fill" data-item-order="0" data-item-id="tx_naturall_4jsstc1q6rhfq" data-item-class="Label Stroke" data-item-index="none" data-renderer-id="0" transform="translate(638, 291)"><g id="tx_naturall_4jsstc1q6rhfq-fill" stroke="none" fill="#484848"><g><text style="font: 20px Roboto, sans-serif; white-space: pre;"><tspan x="17.14" y="33.75" dominant-baseline="ideographic">Natural Language Processing</tspan></text></g></g></g><g id="g-root-tx_amazon_qq9ucg1q6rhfy-fill" data-item-order="0" data-item-id="tx_amazon_qq9ucg1q6rhfy" data-item-class="Label Stroke" data-item-index="none" data-renderer-id="0" transform="translate(218, 309)"><g id="tx_amazon_qq9ucg1q6rhfy-fill" stroke="none" fill="#484848"><g><text style="font: 20px Roboto, sans-serif; white-space: pre;"><tspan x="15.17" y="33.75" dominant-baseline="ideographic">Amazon</tspan></text></g></g></g><g id="g-root-hold_meuz801ud3l72-fill" data-item-order="0" data-item-id="hold_meuz801ud3l72" data-item-class="Icon Stroke" data-item-index="none" data-renderer-id="0" transform="translate(602, 15)"></g><g id="g-root-tx_medicald_8zmaxs1q6rgng-fill" data-item-order="0" data-item-id="tx_medicald_8zmaxs1q6rgng" data-item-class="Label Stroke" data-item-index="none" data-renderer-id="0" transform="translate(638, 141)"><g id="tx_medicald_8zmaxs1q6rgng-fill" stroke="none" fill="#484848"><g><text style="font: 20px Roboto, sans-serif; white-space: pre;"><tspan x="14.96" y="33.75" dominant-baseline="ideographic">Medical Databases</tspan></text></g></g></g><g id="g-root-ro_vcdeq81uczdos-stroke" data-item-order="-21600" data-item-id="ro_vcdeq81uczdos" data-item-class="Shape Stroke Fill" data-item-index="none" data-renderer-id="0" transform="translate(398, 102)"><g id="ro_vcdeq81uczdos-stroke" fill="none" stroke-linecap="round" stroke-linejoin="round" stroke-miterlimit="4" stroke="#484848" stroke-width="2"><g><path d="M 34 10L 130 10C 130 10 154 10 154 34L 154 136C 154 136 154 160 130 160L 34 160C 34 160 10 160 10 136L 10 34C 10 34 10 10 34 10"></path></g></g></g><g id="g-root-ro_147z3kw1q6svlv-stroke" data-item-order="-12312" data-item-id="ro_147z3kw1q6svlv" data-item-class="Shape Stroke Fill" data-item-index="none" data-renderer-id="0" transform="translate(122, 21)"><g id="ro_147z3kw1q6svlv-stroke" fill="none" stroke-linecap="round" stroke-linejoin="round" stroke-miterlimit="4" stroke="#4682e3" stroke-width="2"><g><path d="M 22 10L 226 10C 226 10 238 10 238 22L 238 52C 238 52 238 64 226 64L 22 64C 22 64 10 64 10 52L 10 22C 10 22 10 10 22 10"></path></g></g></g><g id="g-root-ro_1hgxpls1q6yhaa-stroke" data-item-order="-9720" data-item-id="ro_1hgxpls1q6yhaa" data-item-class="Shape Stroke Fill" data-item-index="none" data-renderer-id="0" transform="translate(170, 207)"><g id="ro_1hgxpls1q6yhaa-stroke" fill="none" stroke-linecap="round" stroke-linejoin="round" stroke-miterlimit="4" stroke="#3bc482" stroke-width="2"><g><path d="M 22 10L 178 10C 178 10 190 10 190 22L 190 52C 190 52 190 64 178 64L 22 64C 22 64 10 64 10 52L 10 22C 10 22 10 10 22 10"></path></g></g></g><g id="g-root-ro_zknwf41q6regz-stroke" data-item-order="-9720" data-item-id="ro_zknwf41q6regz" data-item-class="Shape Stroke Fill" data-item-index="none" data-renderer-id="0" transform="translate(590, 189)"><g id="ro_zknwf41q6regz-stroke" fill="none" stroke-linecap="round" stroke-linejoin="round" stroke-miterlimit="4" stroke="#b65edf" stroke-width="2"><g><path d="M 22 10L 178 10C 178 10 190 10 190 22L 190 52C 190 52 190 64 178 64L 22 64C 22 64 10 64 10 52L 10 22C 10 22 10 10 22 10"></path></g></g></g><g id="g-root-ro_4nkyq81ud3nk7-stroke" data-item-order="-9072" data-item-id="ro_4nkyq81ud3nk7" data-item-class="Shape Stroke Fill" data-item-index="none" data-renderer-id="0" transform="translate(590, 3)"><g id="ro_4nkyq81ud3nk7-stroke" fill="none" stroke-linecap="round" stroke-linejoin="round" stroke-miterlimit="4" stroke="#e15e5a" stroke-width="2"><g><path d="M 22 10L 166 10C 166 10 178 10 178 22L 178 52C 178 52 178 64 166 64L 22 64C 22 64 10 64 10 52L 10 22C 10 22 10 10 22 10"></path></g></g></g><g id="g-root-assi_1lz942o1q6st8q-stroke" data-item-order="0" data-item-id="assi_1lz942o1q6st8q" data-item-class="Icon Stroke" data-item-index="none" data-renderer-id="0" transform="translate(308, 33)"><g id="assi_1lz942o1q6st8q-stroke" fill="none" stroke-linecap="round" stroke-linejoin="round" stroke-miterlimit="4" stroke="#4682e3" stroke-width="2"><g><path d="M 25.405001 38.036251C 25.404999 38.77562 24.80562 39.375 24.06625 39.375L 12.0125 39.375C 11.273129 39.375 10.67375 38.77562 10.67375 38.036247L 10.67375 34.6875C 10.639174 32.033154 12.035443 29.565504 14.328588 28.228247C 16.621731 26.890991 19.45702 26.890991 21.750162 28.228247C 24.043308 29.565504 25.439575 32.033154 25.405001 34.6875ZM 15.2275 31.875C 15.2275 32.047588 15.367411 32.1875 15.54 32.1875C 15.712589 32.1875 15.8525 32.047588 15.8525 31.875C 15.8525 31.702412 15.712589 31.5625 15.54 31.5625C 15.367411 31.5625 15.2275 31.702412 15.2275 31.875M 20.227501 31.8675C 20.227501 32.040089 20.367411 32.18 20.540001 32.18C 20.712589 32.18 20.852501 32.040089 20.852501 31.8675C 20.852501 31.69491 20.712589 31.555 20.540001 31.555C 20.367411 31.555 20.227501 31.69491 20.227501 31.8675M 18.040001 27.321251L 18.040001 24.6425M 16.03125 22.633751C 16.03125 23.743153 16.930597 24.642502 18.040001 24.642502C 19.149403 24.642502 20.04875 23.743153 20.04875 22.633751C 20.04875 21.524349 19.149403 20.625 18.040001 20.625C 16.930597 20.625 16.03125 21.524349 16.03125 22.633751M 10.67375 36.018749L 25.405001 36.018749M 20.685001 15.375C 20.685001 17.998352 22.811647 20.125 25.435001 20.125C 28.058353 20.125 30.185001 17.998352 30.185001 15.375C 30.185001 12.751648 28.058353 10.625 25.435001 10.625C 22.811647 10.625 20.685001 12.751648 20.685001 15.375M 31.622501 23.04875C 31.622501 24.579269 32.863232 25.82 34.393749 25.82C 35.924271 25.82 37.165001 24.579269 37.165001 23.04875C 37.165001 21.518232 35.924271 20.2775 34.393749 20.2775C 32.863232 20.2775 31.622501 21.518232 31.622501 23.04875M 31.622501 32.91375C 31.622501 34.444271 32.863232 35.685001 34.393749 35.685001C 35.924271 35.685001 37.165001 34.444271 37.165001 32.91375C 37.165001 31.38323 35.924271 30.1425 34.393749 30.1425C 32.863232 30.1425 31.622501 31.38323 31.622501 32.91375M 35.623749 15.675C 35.623444 16.697632 36.452366 17.526798 37.474998 17.526798C 38.497627 17.526798 39.32655 16.697632 39.326248 15.674999C 39.32655 14.652369 38.497627 13.8232 37.474998 13.8232C 36.452366 13.8232 35.623444 14.652369 35.623749 15.674999"></path></g></g></g><g id="g-root-cu_18lapcw1q6yi2z-stroke" data-item-order="0" data-item-id="cu_18lapcw1q6yi2z" data-item-class="Curve Stroke ColorFillGray ColorStrokeGray" data-item-index="none" data-renderer-id="0" transform="translate(350, 48)"><g id="cu_18lapcw1q6yi2z-stroke" fill="none" stroke-linecap="round" stroke-linejoin="round" stroke-miterlimit="4" stroke="#888888" stroke-width="2" stroke-dasharray="5.0, 7.0"><g><path d="M 58 114L 55 114L 54.9 114C 43.357245 113.999995 33.999997 104.642746 33.999997 93.099996L 34 93L 34 30.9C 33.999998 19.357248 24.64275 10 13.1 10L 13 10L 10 10"></path></g></g></g><g id="g-root-cu_qun5y81q6yi2r-stroke" data-item-order="0" data-item-id="cu_qun5y81q6yi2r" data-item-class="Curve Stroke ColorFillGray ColorStrokeGray" data-item-index="none" data-renderer-id="0" transform="translate(614, 57)"><g id="cu_qun5y81q6yi2r-stroke" fill="none" stroke-linecap="round" stroke-linejoin="round" stroke-miterlimit="4" stroke="#888888" stroke-width="2" stroke-dasharray="5.0, 7.0"><g><path d="M 10 10L 10 22L 10 34L 19 34L 28 34"></path></g></g></g><g id="g-root-cu_qun5y81q6yi2u-stroke" data-item-order="0" data-item-id="cu_qun5y81q6yi2u" data-item-class="Curve Stroke ColorFillGray ColorStrokeGray" data-item-index="none" data-renderer-id="0" transform="translate(614, 57)"><g id="cu_qun5y81q6yi2u-stroke" fill="none" stroke-linecap="round" stroke-linejoin="round" stroke-miterlimit="4" stroke="#888888" stroke-width="2" stroke-dasharray="5.0, 7.0"><g><path d="M 10 10L 10 40L 10 70L 19 70L 28 70"></path></g></g></g><g id="g-root-cu_mfg4ww1q6yfpc-stroke" data-item-order="0" data-item-id="cu_mfg4ww1q6yfpc" data-item-class="Curve Stroke ColorFillGray ColorStrokeGray" data-item-index="none" data-renderer-id="0" transform="translate(614, 57)"><g id="cu_mfg4ww1q6yfpc-stroke" fill="none" stroke-linecap="round" stroke-linejoin="round" stroke-miterlimit="4" stroke="#888888" stroke-width="2" stroke-dasharray="5.0, 7.0"><g><path d="M 10 10L 10 22L 10 94C 10.000004 100.627423 15.372587 106.000006 22.000005 106.000005L 22.1 106L 28 106"></path></g></g></g><g id="g-root-cu_vago2o1q6yhac-stroke" data-item-order="0" data-item-id="cu_vago2o1q6yhac" data-item-class="Curve Stroke ColorFillGray ColorStrokeGray" data-item-index="none" data-renderer-id="0" transform="translate(308, 75)"><g id="cu_vago2o1q6yhac-stroke" fill="none" stroke-linecap="round" stroke-linejoin="round" stroke-miterlimit="4" stroke="#888888" stroke-width="2" stroke-dasharray="5.0, 7.0"><g><path d="M 28 10L 28 22L 28 94C 28.000002 100.627415 22.627419 105.999998 16.000002 105.999998L 15.9 106L 10 106"></path></g></g></g><g id="g-root-tx_diagnost_hv9b6o1q6rfuq-stroke" data-item-order="0" data-item-id="tx_diagnost_hv9b6o1q6rfuq" data-item-class="Label Stroke" data-item-index="none" data-renderer-id="0" transform="translate(638, 69)"></g><g id="g-root-tx_siri_qp0w681q6rf9o-stroke" data-item-order="0" data-item-id="tx_siri_qp0w681q6rf9o" data-item-class="Label Stroke" data-item-index="none" data-renderer-id="0" transform="translate(266, 87)"></g><g id="g-root-cu_1463obk1q6yfpr-stroke" data-item-order="0" data-item-id="cu_1463obk1q6yfpr" data-item-class="Curve Stroke ColorFillGray ColorStrokeGray" data-item-index="none" data-renderer-id="0" transform="translate(308, 75)"><g id="cu_1463obk1q6yfpr-stroke" fill="none" stroke-linecap="round" stroke-linejoin="round" stroke-miterlimit="4" stroke="#888888" stroke-width="2" stroke-dasharray="5.0, 7.0"><g><path d="M 28 10L 28 22L 28 34L 19 34L 10 34"></path></g></g></g><g id="g-root-cu_zqa6741q6ygi2-stroke" data-item-order="0" data-item-id="cu_zqa6741q6ygi2" data-item-class="Curve Stroke ColorFillGray ColorStrokeGray" data-item-index="none" data-renderer-id="0" transform="translate(308, 75)"><g id="cu_zqa6741q6ygi2-stroke" fill="none" stroke-linecap="round" stroke-linejoin="round" stroke-miterlimit="4" stroke="#888888" stroke-width="2" stroke-dasharray="5.0, 7.0"><g><path d="M 28 10L 28 40L 28 70L 19 70L 10 70"></path></g></g></g><g id="g-root-tx_virtuala_146q5eo1q6stft-stroke" data-item-order="0" data-item-id="tx_virtuala_146q5eo1q6stft" data-item-class="Label Stroke" data-item-index="none" data-renderer-id="0" transform="translate(134, 36)"></g><g id="g-root-tx_electron_8zmaxs1q6rgnf-stroke" data-item-order="0" data-item-id="tx_electron_8zmaxs1q6rgnf" data-item-class="Label Stroke" data-item-index="none" data-renderer-id="0" transform="translate(638, 105)"></g><g id="g-root-tx_alexa_m97e1s1q6rg1x-stroke" data-item-order="0" data-item-id="tx_alexa_m97e1s1q6rg1x" data-item-class="Label Stroke" data-item-index="none" data-renderer-id="0" transform="translate(242, 123)"></g><g id="g-root-codi_1480ez41uczcw3-stroke" data-item-order="0" data-item-id="codi_1480ez41uczcw3" data-item-class="Icon Stroke" data-item-index="none" data-renderer-id="0" transform="translate(446, 126)"><g id="codi_1480ez41uczcw3-stroke" fill="none" stroke-linecap="round" stroke-linejoin="round" stroke-miterlimit="4" stroke="#484848" stroke-width="2"><g><path d="M 41.026001 23.568001L 42.068001 23.568001C 42.643482 23.568001 43.110001 24.034519 43.110001 24.610001L 43.110001 31.903999M 41.026001 31.903999L 45.194 31.903999M 52.158001 10.978L 53.200001 10.978C 53.775482 10.978 54.242001 11.444519 54.242001 12.02L 54.242001 19.313999M 52.158001 19.313999L 56.326 19.313999M 52.158001 36.155998L 53.200001 36.155998C 53.775482 36.156002 54.242001 36.62252 54.242001 37.198002L 54.242001 44.492001M 52.158001 44.492001L 56.326 44.492001M 56.848 29.298C 56.84811 30.73678 55.681782 31.903202 54.243 31.903202C 52.804218 31.903202 51.63789 30.73678 51.638 29.298L 51.638 26.172001C 51.638111 24.733376 52.804379 23.567202 54.243 23.567202C 55.681622 23.567202 56.847889 24.733376 56.848 26.172001ZM 45.714001 41.888C 45.714001 43.32394 44.549938 44.487999 43.113998 44.487999C 41.678059 44.487999 40.514 43.32394 40.514 41.888L 40.514 38.762001C 40.514 37.326057 41.678059 36.161999 43.113998 36.161999C 44.549938 36.161999 45.714001 37.326057 45.714001 38.762001ZM 52.158001 48.641998L 53.200001 48.641998C 53.775482 48.642002 54.242001 49.108521 54.242001 49.684002L 54.242001 56.978001M 52.158001 56.978001L 56.326 56.978001M 45.714001 54.374001C 45.714001 55.80994 44.549938 56.973999 43.113998 56.973999C 41.678059 56.973999 40.514 55.80994 40.514 54.374001L 40.514 51.248001C 40.514 49.812057 41.678059 48.647999 43.113998 48.647999C 44.549938 48.647999 45.714001 49.812057 45.714001 51.248001ZM 45.714001 16.902C 45.714001 18.33794 44.549938 19.501999 43.113998 19.501999C 41.678059 19.501999 40.514 18.33794 40.514 16.902L 40.514 13.774C 40.514 12.338059 41.678059 11.174 43.113998 11.174C 44.549938 11.174 45.714001 12.338059 45.714001 13.774ZM 29.106001 44.521999C 29.106001 40.932152 26.195852 38.022003 22.606001 38.022003C 22.501999 38.021999 22.406 38.048 22.299999 38.052002M 28.43 18.799999C 30.366119 18.147182 31.499022 16.140135 31.057453 14.145205C 30.615887 12.150274 28.741808 10.808806 26.711044 11.034039C 24.680281 11.259271 23.145699 12.978794 23.152 15.021999C 23.157642 15.383017 23.212135 15.741607 23.313999 16.087999C 23.091999 16.068001 22.878 16.021999 22.652 16.021999C 19.79525 16.008055 17.181129 17.625923 15.919224 20.188892C 14.657316 22.751862 14.969008 25.810287 16.722 28.066C 13.590808 28.280815 11.16061 30.883448 11.16061 34.021999C 11.16061 37.160553 13.590808 39.763184 16.722 39.977997C 14.969008 42.233711 14.657316 45.292137 15.919224 47.855106C 17.181129 50.418076 19.79525 52.035946 22.652 52.021999C 22.878 52.021999 23.091999 51.973999 23.313999 51.953999C 22.718632 54.056328 23.920441 56.247406 26.013304 56.875237C 28.106165 57.503067 30.31558 56.335308 30.975721 54.252411C 31.635862 52.169514 30.502432 49.942295 28.43 49.25M 22.299999 30C 22.403999 30 22.5 30.030001 22.605999 30.030001C 26.195852 30.030001 29.106001 27.119852 29.106001 23.530001M 31.148001 14.828C 32.059685 14.300792 33.094856 14.024745 34.148003 14.028M 30.969999 54.216C 31.947201 54.744247 33.041161 55.019283 34.152 55.015999M 34.152 24.021999L 34.152 45.021999"></path></g></g></g><g id="g-root-tx_translat_1upwbmo1q6revj-stroke" data-item-order="0" data-item-id="tx_translat_1upwbmo1q6revj" data-item-class="Label Stroke" data-item-index="none" data-renderer-id="0" transform="translate(638, 327)"></g><g id="g-root-tx_googleas_ddkdsw1q6rgum-stroke" data-item-order="0" data-item-id="tx_googleas_ddkdsw1q6rgum" data-item-class="Label Stroke" data-item-index="none" data-renderer-id="0" transform="translate(146, 159)"></g><g id="g-root-tx_apisinai_1hiug9c1uczegy-stroke" data-item-order="0" data-item-id="tx_apisinai_1hiug9c1uczegy" data-item-class="Label Stroke" data-item-index="none" data-renderer-id="0" transform="translate(422, 180)"></g><g id="g-root-tx_healthca_1d15ivk1ud3l71-stroke" data-item-order="0" data-item-id="tx_healthca_1d15ivk1ud3l71" data-item-class="Label Stroke" data-item-index="none" data-renderer-id="0" transform="translate(638, 18)"></g><g id="g-root-cu_1463obk1q6yfpl-stroke" data-item-order="0" data-item-id="cu_1463obk1q6yfpl" data-item-class="Curve Stroke ColorFillGray ColorStrokeGray" data-item-index="none" data-renderer-id="0" transform="translate(542, 30)"><g id="cu_1463obk1q6yfpl-stroke" fill="none" stroke-linecap="round" stroke-linejoin="round" stroke-miterlimit="4" stroke="#888888" stroke-width="2" stroke-dasharray="5.0, 7.0"><g><path d="M 10 132L 13 132L 13.1 132C 24.642746 132.000005 33.999996 122.642756 33.999996 111.100004L 34 111L 34 30.9C 33.999999 19.357249 43.357248 10.000001 54.899999 10.000002L 55 10L 58 10"></path></g></g></g><g id="g-root-cu_18lapcw1q6yi32-stroke" data-item-order="0" data-item-id="cu_18lapcw1q6yi32" data-item-class="Curve Stroke ColorFillGray ColorStrokeGray" data-item-index="none" data-renderer-id="0" transform="translate(350, 202)"><g id="cu_18lapcw1q6yi32-stroke" fill="none" stroke-linecap="round" stroke-linejoin="round" stroke-miterlimit="4" stroke="#888888" stroke-width="2" stroke-dasharray="5.0, 7.0"><g><path d="M 58 10L 55 10L 54.9 10C 50.611929 10.004962 45.995266 11.578824 41.700001 14.500001C 39.147207 16.234511 36.356002 20.403194 34.000002 26.000001C 31.644001 31.596807 28.852796 35.76549 26.300001 37.500001C 22.004737 40.421177 17.388073 41.995039 13.100001 42L 13 42L 10 42"></path></g></g></g><g id="g-root-cu_1463obk1q6yfpo-stroke" data-item-order="0" data-item-id="cu_1463obk1q6yfpo" data-item-class="Curve Stroke ColorFillGray ColorStrokeGray" data-item-index="none" data-renderer-id="0" transform="translate(542, 202)"><g id="cu_1463obk1q6yfpo-stroke" fill="none" stroke-linecap="round" stroke-linejoin="round" stroke-miterlimit="4" stroke="#888888" stroke-width="2" stroke-dasharray="5.0, 7.0"><g><path d="M 10 10L 13 10L 13.1 10C 16.47715 10.00393 20.199416 10.613028 24.1 11.8C 26.434787 12.503612 29.936878 14.343094 34 16.999999C 38.063122 19.656905 41.565214 21.496387 43.900001 22.199999C 47.800584 23.386973 51.52285 23.996071 54.900001 24.000001L 55 24L 58 24"></path></g></g></g><g id="g-root-adse_13zuxgg1q6rgui-stroke" data-item-order="0" data-item-id="adse_13zuxgg1q6rgui" data-item-class="Icon Stroke" data-item-index="none" data-renderer-id="0" transform="translate(602, 201)"><g id="adse_13zuxgg1q6rgui-stroke" fill="none" stroke-linecap="round" stroke-linejoin="round" stroke-miterlimit="4" stroke="#b65edf" stroke-width="2"><g><path d="M 18.975 36.637501C 17.650318 38.557465 15.073018 39.137875 13.053201 37.971085C 11.033383 36.804298 10.24859 34.281708 11.25 32.174999L 22.112499 13.425C 23.344786 11.288348 26.075848 10.555215 28.212502 11.7875C 30.349152 13.019786 31.082287 15.750849 29.85 17.887501ZM 10.625 34.400002C 10.624307 36.871964 12.628036 38.876255 15.1 38.876255C 17.571964 38.876255 19.575693 36.871964 19.574999 34.399998C 19.575693 31.928034 17.571964 29.923742 15.1 29.923742C 12.628036 29.923742 10.624307 31.928034 10.625 34.399998M 34.299999 36.637501C 33.067715 38.774151 30.336651 39.507286 28.200001 38.275002C 26.063349 37.042717 25.330215 34.311653 26.562502 32.174999L 31.025 24.424999C 31.759701 22.920279 33.273006 21.951641 34.947102 21.914537C 36.621197 21.877434 38.175934 22.778074 38.976578 24.248766C 39.777225 25.719458 39.689804 27.514091 38.749996 28.899998Z"></path></g></g></g><g id="g-root-tx_googleap_1cvhxpc1q6rg1t-stroke" data-item-order="0" data-item-id="tx_googleap_1cvhxpc1q6rg1t" data-item-class="Label Stroke" data-item-index="none" data-renderer-id="0" transform="translate(638, 204)"></g><g id="g-root-tx_ecommerc_9247a81q6yhhc-stroke" data-item-order="0" data-item-id="tx_ecommerc_9247a81q6yhhc" data-item-class="Label Stroke" data-item-index="none" data-renderer-id="0" transform="translate(182, 222)"></g><g id="g-root-appa_1lwr7q81q6ygi1-stroke" data-item-order="0" data-item-id="appa_1lwr7q81q6ygi1" data-item-class="Icon Stroke" data-item-index="none" data-renderer-id="0" transform="translate(308, 219)"><g id="appa_1lwr7q81q6ygi1-stroke" fill="none" stroke-linecap="round" stroke-linejoin="round" stroke-miterlimit="4" stroke="#3bc482" stroke-width="2"><g><path d="M 26.25 35L 13.125 35C 11.744288 35 10.625 33.880714 10.625 32.5L 10.625 13.125C 10.625 11.744288 11.744288 10.625 13.125 10.625L 36.875 10.625C 38.255714 10.625 39.375 11.744288 39.375 13.125L 39.375 26.875M 10.625 16.875L 39.375 16.875M 15 13.4375C 15.172588 13.4375 15.3125 13.577411 15.3125 13.75C 15.3125 13.922589 15.172588 14.0625 15 14.0625C 14.827411 14.0625 14.6875 13.922589 14.6875 13.75C 14.6875 13.577411 14.827411 13.4375 15 13.4375M 18.75 13.4375C 18.922588 13.4375 19.0625 13.577411 19.0625 13.75C 19.0625 13.922589 18.922588 14.0625 18.75 14.0625C 18.577412 14.0625 18.4375 13.922589 18.4375 13.75C 18.4375 13.577411 18.577412 13.4375 18.75 13.4375M 22.5 13.4375C 22.672588 13.4375 22.8125 13.577411 22.8125 13.75C 22.8125 13.922589 22.672588 14.0625 22.5 14.0625C 22.327412 14.0625 22.1875 13.922589 22.1875 13.75C 22.1875 13.577411 22.327412 13.4375 22.5 13.4375M 29.375 25.625L 31.875 25.625L 30.861248 21.571251C 30.721928 21.015087 30.222099 20.625015 29.64875 20.625L 26.875 20.625C 26.875 21.660534 26.035534 22.5 25 22.5C 23.964466 22.5 23.125 21.660534 23.125 20.625L 20.35125 20.625C 19.777901 20.625015 19.278074 21.015087 19.13875 21.571251L 18.125 25.625L 20.625 25.625L 20.625 30.625L 25 30.625M 39.375 39.375L 33.75 33.75M 31.30875 36.75C 31.404678 36.982693 31.630823 37.135139 31.882507 37.136776C 32.134193 37.138412 32.362301 36.988922 32.46125 36.7575L 33.75 33.75L 36.7575 32.46125C 36.988922 32.362301 37.138412 32.134193 37.136776 31.882507C 37.135139 31.630823 36.982693 31.404678 36.75 31.30875L 28.887499 28.071249C 28.654072 27.974846 28.385563 28.0284 28.206982 28.206982C 28.0284 28.385563 27.974846 28.654072 28.071249 28.887499Z"></path></g></g></g><g id="g-root-cu_mfg4ww1q6yfpe-stroke" data-item-order="0" data-item-id="cu_mfg4ww1q6yfpe" data-item-class="Curve Stroke ColorFillGray ColorStrokeGray" data-item-index="none" data-renderer-id="0" transform="translate(614, 243)"><g id="cu_mfg4ww1q6yfpe-stroke" fill="none" stroke-linecap="round" stroke-linejoin="round" stroke-miterlimit="4" stroke="#888888" stroke-width="2" stroke-dasharray="5.0, 7.0"><g><path d="M 10 10L 10 22L 10 34L 19 34L 28 34"></path></g></g></g><g id="g-root-cu_mfg4ww1q6yfph-stroke" data-item-order="0" data-item-id="cu_mfg4ww1q6yfph" data-item-class="Curve Stroke ColorFillGray ColorStrokeGray" data-item-index="none" data-renderer-id="0" transform="translate(614, 243)"><g id="cu_mfg4ww1q6yfph-stroke" fill="none" stroke-linecap="round" stroke-linejoin="round" stroke-miterlimit="4" stroke="#888888" stroke-width="2" stroke-dasharray="5.0, 7.0"><g><path d="M 10 10L 10 40L 10 70L 19 70L 28 70"></path></g></g></g><g id="g-root-cu_djt4o01q6ygi7-stroke" data-item-order="0" data-item-id="cu_djt4o01q6ygi7" data-item-class="Curve Stroke ColorFillGray ColorStrokeGray" data-item-index="none" data-renderer-id="0" transform="translate(614, 243)"><g id="cu_djt4o01q6ygi7-stroke" fill="none" stroke-linecap="round" stroke-linejoin="round" stroke-miterlimit="4" stroke="#888888" stroke-width="2" stroke-dasharray="5.0, 7.0"><g><path d="M 10 10L 10 22L 10 94C 10.000004 100.627423 15.372587 106.000006 22.000005 106.000005L 22.1 106L 28 106"></path></g></g></g><g id="g-root-cu_vago2o1q6yhae-stroke" data-item-order="0" data-item-id="cu_vago2o1q6yhae" data-item-class="Curve Stroke ColorFillGray ColorStrokeGray" data-item-index="none" data-renderer-id="0" transform="translate(308, 261)"><g id="cu_vago2o1q6yhae-stroke" fill="none" stroke-linecap="round" stroke-linejoin="round" stroke-miterlimit="4" stroke="#888888" stroke-width="2" stroke-dasharray="5.0, 7.0"><g><path d="M 28 10L 28 22L 28 34L 19 34L 10 34"></path></g></g></g><g id="g-root-cu_qun5y81q6yi2p-stroke" data-item-order="0" data-item-id="cu_qun5y81q6yi2p" data-item-class="Curve Stroke ColorFillGray ColorStrokeGray" data-item-index="none" data-renderer-id="0" transform="translate(308, 261)"><g id="cu_qun5y81q6yi2p-stroke" fill="none" stroke-linecap="round" stroke-linejoin="round" stroke-miterlimit="4" stroke="#888888" stroke-width="2" stroke-dasharray="5.0, 7.0"><g><path d="M 28 10L 28 17.5L 28 58C 27.999999 64.627415 22.627416 69.999998 16 69.999998L 15.9 70L 10 70"></path></g></g></g><g id="g-root-tx_visionai_4jsstc1q6rhfp-stroke" data-item-order="0" data-item-id="tx_visionai_4jsstc1q6rhfp" data-item-class="Label Stroke" data-item-index="none" data-renderer-id="0" transform="translate(638, 255)"></g><g id="g-root-tx_personal_zlwulc1q6rgn9-stroke" data-item-order="0" data-item-id="tx_personal_zlwulc1q6rgn9" data-item-class="Label Stroke" data-item-index="none" data-renderer-id="0" transform="translate(2, 273)"></g><g id="g-root-tx_naturall_4jsstc1q6rhfq-stroke" data-item-order="0" data-item-id="tx_naturall_4jsstc1q6rhfq" data-item-class="Label Stroke" data-item-index="none" data-renderer-id="0" transform="translate(638, 291)"></g><g id="g-root-tx_amazon_qq9ucg1q6rhfy-stroke" data-item-order="0" data-item-id="tx_amazon_qq9ucg1q6rhfy" data-item-class="Label Stroke" data-item-index="none" data-renderer-id="0" transform="translate(218, 309)"></g><g id="g-root-hold_meuz801ud3l72-stroke" data-item-order="0" data-item-id="hold_meuz801ud3l72" data-item-class="Icon Stroke" data-item-index="none" data-renderer-id="0" transform="translate(602, 15)"><g id="hold_meuz801ud3l72-stroke" fill="none" stroke-linecap="round" stroke-linejoin="round" stroke-miterlimit="4" stroke="#e15e5a" stroke-width="2"><g><path d="M 37.5 39.375L 37.5 21.875M 34.922501 21.875C 35.337311 18.586754 34.095978 15.306608 31.608076 13.116865C 29.120174 10.927122 25.708965 10.112298 22.5 10.94125C 22.006145 11.062643 21.586826 11.38755 21.345963 11.835448C 21.105097 12.283346 21.065233 12.812312 21.23625 13.29125L 21.23625 13.29125C 21.588444 14.245529 22.600807 14.783448 23.588751 14.54125C 25.393209 14.12302 27.290228 14.52673 28.768026 15.643466C 30.245827 16.760202 31.152153 18.474913 31.2425 20.325001C 31.283936 21.283865 30.952419 22.221518 30.317501 22.94125L 29 24.450001C 28.544823 24.971855 27.893581 25.281536 27.201515 25.305229C 26.509445 25.328922 25.838551 25.064503 25.348751 24.575001L 22.7775 22C 22.044985 21.267811 20.857647 21.267944 20.125296 22.000296C 19.392942 22.732647 19.392811 23.919985 20.125 24.652498L 25.41 29.9375C 26.347748 30.874962 26.874716 32.146526 26.875 33.4725L 26.875 39.375M 34 16.26125C 36.140476 17.313343 37.497517 19.489937 37.500004 21.875002M 16.25 14.375L 20 14.375C 20 14.375 21.25 14.375 21.25 15.625L 21.25 19.375C 21.25 19.375 21.25 20.625 20 20.625L 16.25 20.625C 16.25 20.625 15 20.625 15 19.375L 15 15.625C 15 15.625 15 14.375 16.25 14.375M 16.25 20.625L 16.25 23.125M 15 19.375L 12.5 19.375M 15 15.625L 12.5 15.625M 23.75 19.375L 21.25 19.375M 16.25 14.375L 16.25 11.875M 17.5 16.5625C 17.672588 16.5625 17.8125 16.702412 17.8125 16.875M 17.1875 16.875C 17.1875 16.702412 17.327412 16.5625 17.5 16.5625M 17.5 17.1875C 17.327412 17.1875 17.1875 17.047588 17.1875 16.875M 17.8125 16.875C 17.8125 17.047588 17.672588 17.1875 17.5 17.1875"></path></g></g></g><g id="g-root-tx_medicald_8zmaxs1q6rgng-stroke" data-item-order="0" data-item-id="tx_medicald_8zmaxs1q6rgng" data-item-class="Label Stroke" data-item-index="none" data-renderer-id="0" transform="translate(638, 141)"></g></g></g></svg>