<?xml version="1.0" encoding="utf-8" standalone="yes"?>
<!DOCTYPE svg PUBLIC "-//W3C//DTD SVG 1.1//EN" "http://www.w3.org/Graphics/SVG/1.1/DTD/svg11.dtd">
<svg width="533" height="484" viewBox="0 0 533 484" style="fill:none;stroke:none;fill-rule:evenodd;clip-rule:evenodd;stroke-linecap:round;stroke-linejoin:round;stroke-miterlimit:1.5;" version="1.1" xmlns="http://www.w3.org/2000/svg" xmlns:xlink="http://www.w3.org/1999/xlink"><style id="fontImports">@import url("https://fonts.googleapis.com/css2?family=Shantell+Sans:wght@300..800&amp;display=block");</style><rect id="" x="0" y="0" width="532" height="484" style="fill: #ffffff;"></rect><g id="items" style="isolation: isolate"><g id="blend" style="mix-blend-mode:multiply"><g id="g-root-3.cu_sy_8z0vs01tsm58s-fill" data-item-order="-229819" data-item-id="3.cu_sy_8z0vs01tsm58s" data-item-class="ScenePart Part Indexed Stroke ColorStrokeBlack" data-item-index="3" data-renderer-id="0" transform="translate(4, 111.99896240234375)"></g><g id="g-root-2.cu_sy_8z0vs01tsm58r-fill" data-item-order="-229817" data-item-id="2.cu_sy_8z0vs01tsm58r" data-item-class="ScenePart Part Indexed Stroke ColorStrokeBlack" data-item-index="2" data-renderer-id="0" transform="translate(256.0010070800781, 4)"></g><g id="g-root-1.cu_sy_hunw0w1tsm4g2-fill" data-item-order="-229816" data-item-id="1.cu_sy_hunw0w1tsm4g2" data-item-class="ScenePart Part Indexed Indexed_1 Fill Stroke ColorStrokeBlack" data-item-index="1" data-renderer-id="0" transform="translate(226.00100708007812, 28)"><g id="1.cu_sy_hunw0w1tsm4g2-fill" stroke="none" fill="none"><g><path d="M 10 34L 28 10L 28 18L 52 18L 52 10L 70 34L 52 58L 52 50L 28 50L 28 58L 10 34Z"></path></g></g></g><g id="g-root-tx_pros_1hgyrj41tsm686-fill" data-item-order="0" data-item-id="tx_pros_1hgyrj41tsm686" data-item-class="Label Stroke SceneTarget ColorStrokeBlack" data-item-index="none" data-renderer-id="0" transform="translate(64.00100708007812, 40)"><g id="tx_pros_1hgyrj41tsm686-fill" stroke="none" fill="#484848"><g><text style="font: 20px &quot;Shantell Sans&quot;, cursive; white-space: pre;"><tspan x="12" y="35" dominant-baseline="ideographic">Pros</tspan></text></g></g></g><g id="g-root-tx_cons_1usf9wg1tsm4n9-fill" data-item-order="0" data-item-id="tx_cons_1usf9wg1tsm4n9" data-item-class="Label Stroke SceneTarget ColorStrokeBlack" data-item-index="none" data-renderer-id="0" transform="translate(364.0010070800781, 40)"><g id="tx_cons_1usf9wg1tsm4n9-fill" stroke="none" fill="#484848"><g><text style="font: 20px &quot;Shantell Sans&quot;, cursive; white-space: pre;"><tspan x="12" y="35" dominant-baseline="ideographic">Cons</tspan></text></g></g></g><g id="g-root-layo_18fphi81tsw0ef-fill" data-item-order="0" data-item-id="layo_18fphi81tsw0ef" data-item-class="Icon Stroke SceneTarget Indexed Indexed_1 ColorStrokeBlack" data-item-index="1" data-renderer-id="0" transform="translate(4.001007080078125, 148)"></g><g id="g-root-tx_abstract_dhyrc01tsm5n0-fill" data-item-order="0" data-item-id="tx_abstract_dhyrc01tsm5n0" data-item-class="Label Stroke SceneTarget Indexed Indexed_1 ColorStrokeBlack" data-item-index="1" data-renderer-id="0" transform="translate(64.00100708007812, 148)"><g id="tx_abstract_dhyrc01tsm5n0-fill" stroke="none" fill="#484848"><g><text style="font: 20px &quot;Shantell Sans&quot;, cursive; white-space: pre;"><tspan x="12" y="35" dominant-baseline="ideographic">Abstract </tspan><tspan x="12" y="59" dominant-baseline="ideographic">complexity</tspan></text></g></g></g><g id="g-root-reve_1q6d0ww1tsw170-fill" data-item-order="0" data-item-id="reve_1q6d0ww1tsw170" data-item-class="Icon Stroke SceneTarget Indexed ColorStrokeBlack" data-item-index="101" data-renderer-id="0" transform="translate(304.0010070800781, 148)"></g><g id="g-root-tx_introduc_zofsv41tsm6f5-fill" data-item-order="0" data-item-id="tx_introduc_zofsv41tsm6f5" data-item-class="Label Stroke SceneTarget Indexed ColorStrokeBlack" data-item-index="101" data-renderer-id="0" transform="translate(364.0010070800781, 148)"><g id="tx_introduc_zofsv41tsm6f5-fill" stroke="none" fill="#484848"><g><text style="font: 20px &quot;Shantell Sans&quot;, cursive; white-space: pre;"><tspan x="12" y="35" dominant-baseline="ideographic">Introduce </tspan><tspan x="12" y="59" dominant-baseline="ideographic">latency</tspan></text></g></g></g><g id="g-root-1_1cvizmo1tsvzm6-fill" data-item-order="0" data-item-id="1_1cvizmo1tsvzm6" data-item-class="Icon Stroke SceneTarget Indexed ColorStrokeBlack" data-item-index="2" data-renderer-id="0" transform="translate(4.001007080078125, 232)"></g><g id="g-root-tx_fosterin_mdlrkw1tsm4ub-fill" data-item-order="0" data-item-id="tx_fosterin_mdlrkw1tsm4ub" data-item-class="Label Stroke SceneTarget Indexed ColorStrokeBlack" data-item-index="2" data-renderer-id="0" transform="translate(64.00100708007812, 232)"><g id="tx_fosterin_mdlrkw1tsm4ub-fill" stroke="none" fill="#484848"><g><text style="font: 20px &quot;Shantell Sans&quot;, cursive; white-space: pre;"><tspan x="12" y="35" dominant-baseline="ideographic">Foster </tspan><tspan x="12" y="59" dominant-baseline="ideographic">interoperability</tspan></text></g></g></g><g id="g-root-doll_vz6o1tsw0lf-fill" data-item-order="0" data-item-id="doll_vz6o1tsw0lf" data-item-class="Icon Stroke SceneTarget Indexed ColorStrokeBlack" data-item-index="102" data-renderer-id="0" transform="translate(304.0010070800781, 232)"></g><g id="g-root-tx_incursco_1czwb8g1tsm4u8-fill" data-item-order="0" data-item-id="tx_incursco_1czwb8g1tsm4u8" data-item-class="Label Stroke SceneTarget Indexed ColorStrokeBlack" data-item-index="102" data-renderer-id="0" transform="translate(364.0010070800781, 244)"><g id="tx_incursco_1czwb8g1tsm4u8-fill" stroke="none" fill="#484848"><g><text style="font: 20px &quot;Shantell Sans&quot;, cursive; white-space: pre;"><tspan x="12" y="35" dominant-baseline="ideographic">Incurs costs</tspan></text></g></g></g><g id="g-root-hold_1lr5zvk1tsvyth-fill" data-item-order="0" data-item-id="hold_1lr5zvk1tsvyth" data-item-class="Icon Stroke SceneTarget Indexed ColorStrokeBlack" data-item-index="3" data-renderer-id="0" transform="translate(4.001007080078125, 316)"></g><g id="g-root-tx_accessex_qsssm81tsm77u-fill" data-item-order="0" data-item-id="tx_accessex_qsssm81tsm77u" data-item-class="Label Stroke SceneTarget Indexed ColorStrokeBlack" data-item-index="3" data-renderer-id="0" transform="translate(64.00100708007812, 304)"><g id="tx_accessex_qsssm81tsm77u-fill" stroke="none" fill="#484848"><g><text style="font: 20px &quot;Shantell Sans&quot;, cursive; white-space: pre;"><tspan x="12" y="35" dominant-baseline="ideographic">Access </tspan><tspan x="12" y="59" dominant-baseline="ideographic">external </tspan><tspan x="12" y="83" dominant-baseline="ideographic">functionalities</tspan></text></g></g></g><g id="g-root-brok_dcchk01tsvz0i-fill" data-item-order="0" data-item-id="brok_dcchk01tsvz0i" data-item-class="Icon Stroke SceneTarget Indexed ColorStrokeBlack" data-item-index="103" data-renderer-id="0" transform="translate(304.0010070800781, 316)"></g><g id="g-root-tx_security_1uqjun41tsm5mv-fill" data-item-order="0" data-item-id="tx_security_1uqjun41tsm5mv" data-item-class="Label Stroke SceneTarget Indexed ColorStrokeBlack" data-item-index="103" data-renderer-id="0" transform="translate(364.0010070800781, 328)"><g id="tx_security_1uqjun41tsm5mv-fill" stroke="none" fill="#484848"><g><text style="font: 20px &quot;Shantell Sans&quot;, cursive; white-space: pre;"><tspan x="12" y="35" dominant-baseline="ideographic">Security risks</tspan></text></g></g></g><g id="g-root-2_13yn17k1tsvz0h-fill" data-item-order="0" data-item-id="2_13yn17k1tsvz0h" data-item-class="Icon Stroke SceneTarget Indexed ColorStrokeBlack" data-item-index="104" data-renderer-id="0" transform="translate(304.0010070800781, 400)"></g><g id="g-root-tx_dependen_mbqcbk1tsm5ty-fill" data-item-order="0" data-item-id="tx_dependen_mbqcbk1tsm5ty" data-item-class="Label Stroke SceneTarget Indexed ColorStrokeBlack" data-item-index="104" data-renderer-id="0" transform="translate(364.0010070800781, 400)"><g id="tx_dependen_mbqcbk1tsm5ty-fill" stroke="none" fill="#484848"><g><text style="font: 20px &quot;Shantell Sans&quot;, cursive; white-space: pre;"><tspan x="12" y="35" dominant-baseline="ideographic">Dependency </tspan><tspan x="12" y="59" dominant-baseline="ideographic">issues</tspan></text></g></g></g><g id="g-root-3.cu_sy_8z0vs01tsm58s-stroke" data-item-order="-229819" data-item-id="3.cu_sy_8z0vs01tsm58s" data-item-class="ScenePart Part Indexed Stroke ColorStrokeBlack" data-item-index="3" data-renderer-id="0" transform="translate(4, 111.99896240234375)"><g id="3.cu_sy_8z0vs01tsm58s-stroke" fill="none" stroke-linecap="round" stroke-linejoin="round" stroke-miterlimit="4" stroke="#484848" stroke-width="4"><g><path d="M 514 10C 487.7 10.3 461.5 8.8 435.2 10C 409.3 11.2 383.3 10 357.4 10C 328.9 10 300.4 9.2 272 10C 245.4 10.7 218.6 11.8 192.1 10C 161.8 7.9 131.4 8.9 101.1 10C 70.7 11.1 40.4 10.8 10 10"></path><path d="M 513.999999 10.000007L 9.999999 10.001007"></path></g></g></g><g id="g-root-2.cu_sy_8z0vs01tsm58r-stroke" data-item-order="-229817" data-item-id="2.cu_sy_8z0vs01tsm58r" data-item-class="ScenePart Part Indexed Stroke ColorStrokeBlack" data-item-index="2" data-renderer-id="0" transform="translate(256.0010070800781, 4)"><g id="2.cu_sy_8z0vs01tsm58r-stroke" fill="none" stroke-linecap="round" stroke-linejoin="round" stroke-miterlimit="4" stroke="#484848" stroke-width="4"><g><path d="M 10 298C 11.2 270 11 242 10 214M 10 382C 10 368.8 11.1 355.6 10 342.5C 8.8 327.7 11.1 312.8 10 298M 10 466C 8.5 438 10.4 410 10 382M 10 214C 9.7 198.9 9.3 183.7 10 168.5C 10.8 151.7 11 134.8 10 118M 10 118C 10.8 105.4 10.5 92.7 10 80M 10 36C 9.5 27.3 11.5 18.5 10 10"></path><path d="M 10 298L 10 214M 10 382L 10 298M 10 466L 10 382M 10 214L 10 118M 10 118L 10 80M 10 36L 10 10"></path></g></g></g><g id="g-root-1.cu_sy_hunw0w1tsm4g2-stroke" data-item-order="-229816" data-item-id="1.cu_sy_hunw0w1tsm4g2" data-item-class="ScenePart Part Indexed Indexed_1 Fill Stroke ColorStrokeBlack" data-item-index="1" data-renderer-id="0" transform="translate(226.00100708007812, 28)"><g id="1.cu_sy_hunw0w1tsm4g2-stroke" fill="none" stroke-linecap="round" stroke-linejoin="round" stroke-miterlimit="4" stroke="#484848" stroke-width="4"><g><path d="M 10 34C 16.9 26.7 21.7 17.8 28 10C 28.8 12.5 28.1 15.3 28 18C 36 18.3 44 18.5 52 18C 52.6 15.4 51.8 12.7 52 10C 59 17.1 62.6 27.3 70 34C 63.8 41.8 57 49.4 52 58C 52.5 55.4 53 52.5 52 50C 44.2 51.7 36 50.9 28 50C 27.3 52.6 27.6 55.4 28 58C 21.2 50.7 15.6 42.3 10 34"></path><path d="M 10 34L 28 10L 28 18L 52 18L 52 10L 70 34L 52 58L 52 50L 28 50L 28 58L 10 34Z"></path></g></g><g id="1.cu_sy_hunw0w1tsm4g2-stroke" fill="none" stroke-linecap="round" stroke-linejoin="round" stroke-miterlimit="4" stroke="#484848" stroke-width="4"><g><path d="M 30.6 28.4C 31.6 32.2 33.7 35.7 35 39.5M 35.2 39.1C 35.5 35.3 38 32.1 39.6 28.7M 49.4 30.2C 49.1 29.9 48.8 29.6 48.4 29.4C 48 28.7 46.8 28.8 45.5 28.8C 44.2 28.7 43 29.6 43.4 30.7C 43.4 31.8 44.1 33.2 46.3 33.9C 48.6 34 49.5 36 49.4 37.3C 49.3 38.6 48.6 39.8 47.1 39.6C 45.5 40 44.7 39.2 43.9 38.5C 43.7 38 43.1 37.7 43 37.2"></path><path d="M 30.599 28.373L 34.999 39.48M 35.199 39.097L 39.599 28.66M 49.399 30.192C 49.065 29.937 48.732 29.682 48.399 29.426C 47.799 28.852 46.832 28.628 45.499 28.756C 44.165 28.884 43.465 29.522 43.399 30.671C 43.265 31.82 44.232 32.905 46.299 33.927C 48.432 34.884 49.465 36.001 49.399 37.278C 49.399 38.555 48.632 39.321 47.099 39.576C 45.499 39.767 44.432 39.416 43.899 38.523C 43.565 38.076 43.265 37.629 42.999 37.182"></path></g></g></g><g id="g-root-tx_pros_1hgyrj41tsm686-stroke" data-item-order="0" data-item-id="tx_pros_1hgyrj41tsm686" data-item-class="Label Stroke SceneTarget ColorStrokeBlack" data-item-index="none" data-renderer-id="0" transform="translate(64.00100708007812, 40)"></g><g id="g-root-tx_cons_1usf9wg1tsm4n9-stroke" data-item-order="0" data-item-id="tx_cons_1usf9wg1tsm4n9" data-item-class="Label Stroke SceneTarget ColorStrokeBlack" data-item-index="none" data-renderer-id="0" transform="translate(364.0010070800781, 40)"></g><g id="g-root-layo_18fphi81tsw0ef-stroke" data-item-order="0" data-item-id="layo_18fphi81tsw0ef" data-item-class="Icon Stroke SceneTarget Indexed Indexed_1 ColorStrokeBlack" data-item-index="1" data-renderer-id="0" transform="translate(4.001007080078125, 148)"><g id="layo_18fphi81tsw0ef-stroke" fill="none" stroke-linecap="round" stroke-linejoin="round" stroke-miterlimit="4" stroke="#484848" stroke-width="2"><g><path d="M 15 14C 27.6 14.4 40.400002 14.2 53 14C 53 14 57.599998 14 57 18C 55.200001 28.6 56 39.400002 57 50C 57 50 56.799999 52.599998 53 54C 41 58.200001 27.6 55 15 54C 15 54 11.2 54 11 50C 10.2 39.400002 11 28.6 11 18C 11 18 11 13.8 15 14M 11 24C 26.4 24.799999 41.799999 23.200001 57 24M 18 18.6C 18.200001 18.4 18.6 18.799999 18.6 19C 18.4 19.200001 18.200001 19.4 18 19.6C 17.799999 19.6 17.4 19.200001 17.6 19C 17.6 18.799999 17.799999 18.4 18 18.6M 24 18.6C 24.200001 18.4 24.4 18.799999 24.6 19C 24.6 19.200001 24.200001 19.6 24 19.6C 23.799999 19.4 23.6 19.200001 23.6 19C 23.4 18.799999 23.799999 18.6 24 18.6M 30 18.6C 30.200001 18.6 30.6 18.799999 30.6 19C 30.4 19.200001 30.200001 19.6 30 19.6C 29.799999 19.4 29.4 19.200001 29.6 19C 29.6 18.799999 29.799999 18.4 30 18.6M 20 32C 21.4 32.200001 22.6 31.799999 24 32C 24 32 25 32 25 33C 25.200001 34.400002 24.799999 35.799999 25 37C 25 37 25 37.799999 24 38C 22.6 38.200001 21.4 38 20 38C 20 38 19 38 19 37C 19 35.599998 19.4 34.200001 19 33C 19 33 19 32.200001 20 32M 20 42C 21.4 42 22.6 41.799999 24 42C 24 42 24.799999 42 25 43C 25.200001 44.400002 25 45.599998 25 47C 25 47 25 48 24 48C 22.6 48.200001 21.4 48.200001 20 48C 20 48 18.799999 48 19 47C 19.200001 45.599998 19.200001 44.400002 19 43C 19 43 19 41.599998 20 42M 32 32C 33.400002 32 34.599998 31.799999 36 32C 36 32 36.799999 32 37 33C 37.400002 34.400002 37 35.599998 37 37C 37 37 37 37.799999 36 38C 34.599998 38.400002 33.200001 38.200001 32 38C 32 38 31.200001 38 31 37C 30.799999 35.799999 30.6 34.200001 31 33C 31 33 31 32 32 32M 32 42C 33.400002 41.799999 34.799999 42.200001 36 42C 36 42 37 42 37 43C 37 44.400002 36.599998 45.799999 37 47C 37 47 37 47.799999 36 48C 34.599998 48.200001 33.400002 48 32 48C 32 48 31.200001 48 31 47C 30.799999 45.599998 30.6 44.200001 31 43C 31 43 31 41.799999 32 42M 44 32C 45.200001 32.400002 46.799999 31.799999 48 32C 48 32 49 32 49 33C 48.799999 34.400002 49 35.599998 49 37C 49 37 49 38.400002 48 38C 46.799999 37.599998 45.200001 38.400002 44 38C 44 38 43.200001 38 43 37C 42.599998 35.799999 43.400002 34.200001 43 33C 43 33 43 31.6 44 32M 44 42C 45.400002 42.200001 46.799999 41.599998 48 42C 48 42 48.799999 42 49 43C 49.400002 44.400002 49 45.599998 49 47C 49 47 49 48.200001 48 48C 46.599998 47.799999 45.200001 48.200001 44 48C 44 48 43.200001 48 43 47C 42.799999 45.799999 43.200001 44.400002 43 43C 43 43 43 41.799999 44 42"></path><path d="M 15 14.007999L 53 14.007999C 53 14.007999 57 14.007999 57 18.007999L 57 50.007999C 57 50.007999 57 54.007999 53 54.007999L 15 54.007999C 15 54.007999 11 54.007999 11 50.007999L 11 18.007999C 11 18.007999 11 14.007999 15 14.007999M 11 24.007999L 57 24.007999M 18 18.507999C 18.276142 18.507999 18.5 18.731857 18.5 19.007999C 18.5 19.284142 18.276142 19.507999 18 19.507999C 17.723858 19.507999 17.5 19.284142 17.5 19.007999C 17.5 18.731857 17.723858 18.507999 18 18.507999M 24 18.507999C 24.276142 18.507999 24.5 18.731857 24.5 19.007999C 24.5 19.284142 24.276142 19.507999 24 19.507999C 23.723858 19.507999 23.5 19.284142 23.5 19.007999C 23.5 18.731857 23.723858 18.507999 24 18.507999M 30 18.507999C 30.276142 18.507999 30.5 18.731857 30.5 19.007999C 30.5 19.284142 30.276142 19.507999 30 19.507999C 29.723858 19.507999 29.5 19.284142 29.5 19.007999C 29.5 18.731857 29.723858 18.507999 30 18.507999M 19.998001 32.007999L 23.998001 32.007999C 23.998001 32.007999 24.998001 32.007999 24.998001 33.007999L 24.998001 37.007999C 24.998001 37.007999 24.998001 38.007999 23.998001 38.007999L 19.998001 38.007999C 19.998001 38.007999 18.998001 38.007999 18.998001 37.007999L 18.998001 33.007999C 18.998001 33.007999 18.998001 32.007999 19.998001 32.007999M 19.998001 42.007999L 23.998001 42.007999C 23.998001 42.007999 24.998001 42.007999 24.998001 43.007999L 24.998001 47.007999C 24.998001 47.007999 24.998001 48.007999 23.998001 48.007999L 19.998001 48.007999C 19.998001 48.007999 18.998001 48.007999 18.998001 47.007999L 18.998001 43.007999C 18.998001 43.007999 18.998001 42.007999 19.998001 42.007999M 31.997999 32.007999L 35.998001 32.007999C 35.998001 32.007999 36.998001 32.007999 36.998001 33.007999L 36.998001 37.007999C 36.998001 37.007999 36.998001 38.007999 35.998001 38.007999L 31.997999 38.007999C 31.997999 38.007999 30.997999 38.007999 30.997999 37.007999L 30.997999 33.007999C 30.997999 33.007999 30.997999 32.007999 31.997999 32.007999M 31.997999 42.007999L 35.998001 42.007999C 35.998001 42.007999 36.998001 42.007999 36.998001 43.007999L 36.998001 47.007999C 36.998001 47.007999 36.998001 48.007999 35.998001 48.007999L 31.997999 48.007999C 31.997999 48.007999 30.997999 48.007999 30.997999 47.007999L 30.997999 43.007999C 30.997999 43.007999 30.997999 42.007999 31.997999 42.007999M 43.998001 32.007999L 47.998001 32.007999C 47.998001 32.007999 48.998001 32.007999 48.998001 33.007999L 48.998001 37.007999C 48.998001 37.007999 48.998001 38.007999 47.998001 38.007999L 43.998001 38.007999C 43.998001 38.007999 42.998001 38.007999 42.998001 37.007999L 42.998001 33.007999C 42.998001 33.007999 42.998001 32.007999 43.998001 32.007999M 43.998001 42.007999L 47.998001 42.007999C 47.998001 42.007999 48.998001 42.007999 48.998001 43.007999L 48.998001 47.007999C 48.998001 47.007999 48.998001 48.007999 47.998001 48.007999L 43.998001 48.007999C 43.998001 48.007999 42.998001 48.007999 42.998001 47.007999L 42.998001 43.007999C 42.998001 43.007999 42.998001 42.007999 43.998001 42.007999"></path></g></g></g><g id="g-root-tx_abstract_dhyrc01tsm5n0-stroke" data-item-order="0" data-item-id="tx_abstract_dhyrc01tsm5n0" data-item-class="Label Stroke SceneTarget Indexed Indexed_1 ColorStrokeBlack" data-item-index="1" data-renderer-id="0" transform="translate(64.00100708007812, 148)"></g><g id="g-root-reve_1q6d0ww1tsw170-stroke" data-item-order="0" data-item-id="reve_1q6d0ww1tsw170" data-item-class="Icon Stroke SceneTarget Indexed ColorStrokeBlack" data-item-index="101" data-renderer-id="0" transform="translate(304.0010070800781, 148)"><g id="reve_1q6d0ww1tsw170-stroke" fill="none" stroke-linecap="round" stroke-linejoin="round" stroke-miterlimit="4" stroke="#484848" stroke-width="2"><g><path d="M 28.4 45.400002C 30.200001 43.200001 32.599998 41.799999 34.400002 39.400002C 33.200001 36.200001 34.799999 32.799999 34.400002 29.4M 38.400002 24.4C 35.200001 22.6 32.799999 20 30.4 17.4C 33.799999 16.200001 36.200001 13.2 39.400002 11.4M 17.4 47.400002C 23 55.599998 33.599998 59.200001 42.400002 54.599998C 51.200001 50.200001 57 39.799999 52.799999 30.799999C 48.400002 22 40.200001 18.6 30.4 17.6M 26.200001 18.799999C 24.200001 19.6 22.4 20.799999 21 22.200001M 17.4 26.4C 16.200001 28 15 30 15 32M 14.4 37.400002C 13.8 39.400002 14.8 41.599998 15.4 43.599998"></path><path d="M 28.326 45.456001L 34.323997 39.456001L 34.326 29.455999M 38.316002 24.456001L 30.316 17.455999L 39.316002 11.456M 17.414 47.458C 22.735428 55.792259 33.416046 58.881832 42.365055 54.675571C 51.314068 50.469307 55.750591 40.274292 52.729248 30.858934C 49.707901 21.443577 40.167561 15.733677 30.441999 17.52M 26.16 18.838001C 24.245098 19.672958 22.475555 20.807869 20.917999 22.200001M 17.416 26.318001C 16.281656 28.07428 15.448219 30.007475 14.95 32.038002M 14.356 37.400002C 14.398718 39.489868 14.781042 41.558876 15.488 43.526001"></path></g></g></g><g id="g-root-tx_introduc_zofsv41tsm6f5-stroke" data-item-order="0" data-item-id="tx_introduc_zofsv41tsm6f5" data-item-class="Label Stroke SceneTarget Indexed ColorStrokeBlack" data-item-index="101" data-renderer-id="0" transform="translate(364.0010070800781, 148)"></g><g id="g-root-1_1cvizmo1tsvzm6-stroke" data-item-order="0" data-item-id="1_1cvizmo1tsvzm6" data-item-class="Icon Stroke SceneTarget Indexed ColorStrokeBlack" data-item-index="2" data-renderer-id="0" transform="translate(4.001007080078125, 232)"><g id="1_1cvizmo1tsvzm6-stroke" fill="none" stroke-linecap="round" stroke-linejoin="round" stroke-miterlimit="4" stroke="#484848" stroke-width="2"><g><path d="M 28 35C 26.799999 38.200001 30.6 41 34 41C 37.400002 41 39.400002 38.200001 40 35C 40.599998 31.799999 37.200001 29.6 34 29C 30.799999 28.4 27.799999 31.799999 28 35M 43 57C 42 50.200001 38.599998 45 34 45C 29.4 45 26 50.200001 25 57C 31 57.799999 37.200001 58.400002 43 57M 44.599998 44.599998C 51 39.400002 51.200001 28.4 44.599998 23.4C 38 18.4 28 16.6 23.4 23.4C 18.799999 30.200001 16.200001 40.400002 23.4 44.599998M 50.200001 50.200001C 60.599998 42.799999 60 25.799999 50.200001 17.799999C 40.599998 9.6 25.200001 7.4 17.799999 17.799999C 10.2 28 9.6 40.599998 17.799999 50.200001"></path><path d="M 28 34.998001C 28 38.311707 30.686293 40.998001 34 40.998001C 37.313709 40.998001 40 38.311707 40 34.998001C 40 31.684292 37.313709 28.998001 34 28.998001C 30.686293 28.998001 28 31.684292 28 34.998001ZM 43 57C 42.375999 50.216 38.534 45 34 45C 29.466 45 25.624001 50.216 25 57ZM 44.599998 44.599998C 50.46323 38.744064 50.467171 29.243198 44.608803 23.382401C 38.750435 17.521603 29.249567 17.521603 23.391201 23.382401C 17.532833 29.243198 17.536774 38.744064 23.400002 44.600002M 50.264 50.262001C 59.245617 41.279785 59.245293 26.717268 50.263275 17.735451C 41.281258 8.753635 26.718742 8.753635 17.736725 17.735451C 8.754709 26.717268 8.754384 41.279785 17.736 50.262001"></path></g></g></g><g id="g-root-tx_fosterin_mdlrkw1tsm4ub-stroke" data-item-order="0" data-item-id="tx_fosterin_mdlrkw1tsm4ub" data-item-class="Label Stroke SceneTarget Indexed ColorStrokeBlack" data-item-index="2" data-renderer-id="0" transform="translate(64.00100708007812, 232)"></g><g id="g-root-doll_vz6o1tsw0lf-stroke" data-item-order="0" data-item-id="doll_vz6o1tsw0lf" data-item-class="Icon Stroke SceneTarget Indexed ColorStrokeBlack" data-item-index="102" data-renderer-id="0" transform="translate(304.0010070800781, 232)"><g id="doll_vz6o1tsw0lf-stroke" fill="none" stroke-linecap="round" stroke-linejoin="round" stroke-miterlimit="4" stroke="#484848" stroke-width="2"><g><path d="M 25.428572 46C 29.885715 45.314285 34.342857 44.971428 38.799999 46C 41.542858 46.685715 43.942856 43.942856 44.285713 40.857143C 44.628574 38.114285 42.57143 34.685715 39.828571 34.685715C 36.057144 34 31.942858 32.971428 28.171429 33.314285C 25.428572 32.971428 24.4 29.885715 23.714287 27.142857C 23.028572 24.4 26.457144 22.342857 29.542856 22C 33.657143 21.314285 38.114285 22.342857 42.57143 22M 34 56.285713C 32.971428 41.542858 37.771431 26.114285 34 11.714286"></path><path d="M 25.428572 46L 38.628574 46C 41.548523 46.01215 43.997971 43.799973 44.282356 40.893879C 44.566746 37.987785 42.592628 35.34272 39.725716 34.78857L 28.274286 33.21143C 25.407375 32.65728 23.433254 30.012215 23.717644 27.106121C 24.002031 24.200029 26.451479 21.987852 29.371429 22L 42.57143 22M 34 56.285713L 34 11.714286"></path></g></g></g><g id="g-root-tx_incursco_1czwb8g1tsm4u8-stroke" data-item-order="0" data-item-id="tx_incursco_1czwb8g1tsm4u8" data-item-class="Label Stroke SceneTarget Indexed ColorStrokeBlack" data-item-index="102" data-renderer-id="0" transform="translate(364.0010070800781, 244)"></g><g id="g-root-hold_1lr5zvk1tsvyth-stroke" data-item-order="0" data-item-id="hold_1lr5zvk1tsvyth" data-item-class="Icon Stroke SceneTarget Indexed ColorStrokeBlack" data-item-index="3" data-renderer-id="0" transform="translate(4.001007080078125, 316)"><g id="hold_1lr5zvk1tsvyth-stroke" fill="none" stroke-linecap="round" stroke-linejoin="round" stroke-miterlimit="4" stroke="#484848" stroke-width="2"><g><path d="M 33.400002 47C 33.799999 50.200001 33.599998 53.599998 33.400002 57M 23.4 57C 29.6 54.599998 36.799999 56.799999 43.400002 57M 19.4 57C 18.799999 57.200001 18.200001 57.200001 17.4 57M 13.4 57C 12.8 56.799999 12 57 11.4 57M 55.400002 57C 54.799999 56.799999 54 57 53.400002 57M 49.400002 57C 48.799999 57 48 57.200001 47.400002 57M 56.599998 25.4C 56.599998 24.799999 56.599998 24.200001 56.200001 23.799999C 55.599998 23.4 55.200001 23 54.599998 23C 46.599998 23 38.599998 25 30.799999 23C 30 22.799999 29 22.4 28.799999 21.4C 28.799999 20.4 28.200001 19.6 28.4 18.6C 28.4 17.6 27.200001 17 26.4 17C 22 16.6 17.6 15.8 13.4 17C 12.8 17.200001 12.4 17.4 11.8 17.799999C 11.4 18.200001 11.6 18.799999 11.4 19.4C 11.2 28.200001 13.6 37.200001 16.6 45.400002C 17 46.200001 17.6 47 18.6 47C 29.200001 48.200001 40 46.799999 50.599998 47C 51.599998 47 52.200001 46.200001 52.599998 45.400002C 53.799999 41.400002 55.599998 30.200001 56.599998 25.4M 17.4 13C 17.4 11.8 18.4 11.4 19.4 11C 28.799999 7.8 39.599998 13 49.400002 11C 50.599998 10.8 51.599998 11.8 51.400002 13C 51.200001 15 51.799999 17 51.400002 19"></path><path d="M 33.440002 47L 33.440002 57M 23.439999 57L 43.439999 57M 19.439999 57L 17.440001 57M 13.440001 57L 11.440001 57M 55.439999 57L 53.439999 57M 49.439999 57L 47.439999 57M 56.521999 25.4C 56.642269 24.810802 56.491047 24.198761 56.11021 23.733379C 55.72937 23.267998 55.159344 22.998674 54.557999 23L 30.84 23C 29.888712 23.001144 29.068256 22.332069 28.878 21.4L 28.322001 18.6C 28.131742 17.667931 27.311289 16.998856 26.360001 17L 13.440001 17C 12.839005 16.999275 12.269543 17.268854 11.889159 17.734156C 11.508777 18.199455 11.3578 18.811146 11.478 19.4L 16.677999 45.400002C 16.868258 46.332069 17.688711 47.001144 18.639999 47L 50.560001 47C 51.511288 47.001144 52.331741 46.332069 52.521999 45.400002C 53.346001 41.267998 55.546001 30.274 56.521999 25.4ZM 17.440001 13C 17.440001 11.895431 18.33543 11 19.439999 11L 49.439999 11C 50.544571 11 51.439999 11.895431 51.439999 13L 51.439999 19"></path></g></g></g><g id="g-root-tx_accessex_qsssm81tsm77u-stroke" data-item-order="0" data-item-id="tx_accessex_qsssm81tsm77u" data-item-class="Label Stroke SceneTarget Indexed ColorStrokeBlack" data-item-index="3" data-renderer-id="0" transform="translate(64.00100708007812, 304)"></g><g id="g-root-brok_dcchk01tsvz0i-stroke" data-item-order="0" data-item-id="brok_dcchk01tsvz0i" data-item-class="Icon Stroke SceneTarget Indexed ColorStrokeBlack" data-item-index="103" data-renderer-id="0" transform="translate(304.0010070800781, 316)"><g id="brok_dcchk01tsvz0i-stroke" fill="none" stroke-linecap="round" stroke-linejoin="round" stroke-miterlimit="4" stroke="#484848" stroke-width="2"><g><path d="M 53 39C 54 43.200001 44.400002 45.400002 34 47C 23.6 48.599998 14.6 43.400002 15 39M 15 19C 16 29 17 39.200001 15 49C 14.2 53.400002 23.799999 54.599998 34 57C 44.200001 59.599998 51.599998 53.200001 53 49C 56.400002 39.599998 53.200001 29 53 19M 32 16C 31 17.200001 30 18.6 29 20C 34 21.200001 38 25 43 26C 40.799999 29 41.599998 33.400002 39.799999 36.599998C 41.799999 39.400002 43.200001 42.599998 45 45.599998M 15 19C 15.8 23.4 23.6 26.6 34 27C 44.400002 27.4 54.200001 23.200001 53 19C 51.799999 14.8 44.400002 12.4 34 11C 23.6 9.6 16 14.6 15 19M 53 29C 52.400002 33.400002 44.400002 38.599998 34 37C 23.6 35.400002 14.2 33.400002 15 29"></path><path d="M 53 39C 53 43.419998 44.492001 47 34 47C 23.507999 47 15 43.419998 15 39M 15 19L 15 49C 15 53.419998 23.507999 57 34 57C 44.492001 57 53 53.419998 53 49L 53 19M 32 16L 29 20L 42.938 26.059999L 39.851997 36.613998L 45.014 45.518002M 15 19C 15 23.418278 23.50659 27 34 27C 44.493412 27 53 23.418278 53 19C 53 14.581722 44.493412 11 34 11C 23.50659 11 15 14.581722 15 19M 53 29C 53 33.419998 44.492001 37 34 37C 23.507999 37 15 33.419998 15 29"></path></g></g></g><g id="g-root-tx_security_1uqjun41tsm5mv-stroke" data-item-order="0" data-item-id="tx_security_1uqjun41tsm5mv" data-item-class="Label Stroke SceneTarget Indexed ColorStrokeBlack" data-item-index="103" data-renderer-id="0" transform="translate(364.0010070800781, 328)"></g><g id="g-root-2_13yn17k1tsvz0h-stroke" data-item-order="0" data-item-id="2_13yn17k1tsvz0h" data-item-class="Icon Stroke SceneTarget Indexed ColorStrokeBlack" data-item-index="104" data-renderer-id="0" transform="translate(304.0010070800781, 400)"><g id="2_13yn17k1tsvz0h-stroke" fill="none" stroke-linecap="round" stroke-linejoin="round" stroke-miterlimit="4" stroke="#484848" stroke-width="2"><g><path d="M 28 28C 27 24.799999 27.6 21.4 28 18C 28.4 14.2 31.200001 11 35 11C 38.799999 11 42.799999 14.2 42 18C 41.200001 21.200001 41.400002 24.799999 42 28C 42.799999 31.799999 38.799999 34 35 35M 42 38C 41.200001 41.200001 42.200001 44.599998 42 48C 41.799999 51.799999 38.799999 54.200001 35 55C 31.200001 55.799999 27 51.799999 28 48C 28.799999 44.799999 28.799999 41.200001 28 38C 27.200001 34.200001 31.200001 30.799999 35 31M 20.799999 24C 21.799999 24.6 22.6 24.799999 23.4 25.4M 19 31C 20 30.799999 21 31 22 31M 20.799999 38C 21.6 37.400002 22.799999 37.200001 23.4 36.400002M 49.200001 38C 48.200001 37.599998 47.200001 37.200001 46.599998 36.400002M 51 31C 50 31.4 49 31 48 31M 49.200001 24C 48.200001 24.200001 47.599998 25.200001 46.599998 25.4"></path><path d="M 28 28L 28 18C 28.000002 14.134007 31.134008 11 35 11C 38.865993 11 42 14.134007 42 18L 42 28C 42 31.865993 38.865997 35 35 35M 42 38L 42 48C 42 51.865993 38.865993 55 35 55C 31.134008 55 28.000002 51.865993 28.000002 48L 28 38C 28 34.13401 31.134008 31 35 31M 20.875999 23.998001L 23.473999 25.498001M 19 30.997999L 22 30.997999M 20.875999 37.998001L 23.473999 36.498001M 49.124001 37.998001L 46.526001 36.498001M 51 30.997999L 48 30.997999M 49.124001 23.998001L 46.526001 25.498001"></path></g></g></g><g id="g-root-tx_dependen_mbqcbk1tsm5ty-stroke" data-item-order="0" data-item-id="tx_dependen_mbqcbk1tsm5ty" data-item-class="Label Stroke SceneTarget Indexed ColorStrokeBlack" data-item-index="104" data-renderer-id="0" transform="translate(364.0010070800781, 400)"></g></g></g></svg>