<?xml version="1.0" encoding="utf-8" standalone="yes"?>
<!DOCTYPE svg PUBLIC "-//W3C//DTD SVG 1.1//EN" "http://www.w3.org/Graphics/SVG/1.1/DTD/svg11.dtd">
<svg width="841" height="384" viewBox="0 0 841 384" style="fill:none;stroke:none;fill-rule:evenodd;clip-rule:evenodd;stroke-linecap:round;stroke-linejoin:round;stroke-miterlimit:1.5;" version="1.1" xmlns="http://www.w3.org/2000/svg" xmlns:xlink="http://www.w3.org/1999/xlink"><style id="fontImports">@import url("https://fonts.googleapis.com/css2?family=Roboto:wght@400;700&amp;display=block");</style><rect id="" x="0" y="0" width="841" height="384" style="fill: #ffffff;"></rect><g id="items" style="isolation: isolate"><g id="blend" style="mix-blend-mode:multiply"><g id="g-root--1.line_sy_qnsgxe1s4omx1-fill" data-item-order="-4891" data-item-id="-1.line_sy_qnsgxe1s4omx1" data-item-class="ScenePart Part Stroke ColorStrokeBlack" data-item-index="-1" data-renderer-id="0" transform="translate(750, 241.99606323242188)"></g><g id="g-root--1.vector_sy_qnsgxe1s4omx2-fill" data-item-order="-4889" data-item-id="-1.vector_sy_qnsgxe1s4omx2" data-item-class="ScenePart Part Stroke ColorStrokeBlack" data-item-index="-1" data-renderer-id="0" transform="translate(3, 241.99606323242188)"></g><g id="g-root-8.cu-smallCircle_sy_8x4xiq1s4om4m-fill" data-item-order="-4887" data-item-id="8.cu-smallCircle_sy_8x4xiq1s4om4m" data-item-class="ScenePart Part Indexed Stroke ColorStrokeBlack" data-item-index="8" data-renderer-id="0" transform="translate(744, 238.99996948242188)"></g><g id="g-root-7.cu-smallCircle_sy_8x4xiq1s4om4l-fill" data-item-order="-4885" data-item-id="7.cu-smallCircle_sy_8x4xiq1s4om4l" data-item-class="ScenePart Part Indexed Stroke ColorStrokeBlack" data-item-index="7" data-renderer-id="0" transform="translate(648, 238.99996948242188)"></g><g id="g-root-6.cu-smallCircle_sy_8x4xiq1s4om4k-fill" data-item-order="-4883" data-item-id="6.cu-smallCircle_sy_8x4xiq1s4om4k" data-item-class="ScenePart Part Indexed Stroke ColorStrokeBlack" data-item-index="6" data-renderer-id="0" transform="translate(552, 238.99996948242188)"></g><g id="g-root-5.cu-smallCircle_sy_dcyfn61s4olcb-fill" data-item-order="-4881" data-item-id="5.cu-smallCircle_sy_dcyfn61s4olcb" data-item-class="ScenePart Part Indexed Stroke ColorStrokeBlack" data-item-index="5" data-renderer-id="0" transform="translate(456, 238.99996948242188)"></g><g id="g-root-4.cu-smallCircle_sy_dcyfn61s4olca-fill" data-item-order="-4879" data-item-id="4.cu-smallCircle_sy_dcyfn61s4olca" data-item-class="ScenePart Part Indexed Stroke ColorStrokeBlack" data-item-index="4" data-renderer-id="0" transform="translate(360, 238.99996948242188)"></g><g id="g-root-3.cu-smallCircle_sy_dcyfn61s4olc9-fill" data-item-order="-4877" data-item-id="3.cu-smallCircle_sy_dcyfn61s4olc9" data-item-class="ScenePart Part Indexed Stroke ColorStrokeBlack" data-item-index="3" data-renderer-id="0" transform="translate(264, 238.99996948242188)"></g><g id="g-root-2.cu-smallCircle_sy_m8lfw21s4okjk-fill" data-item-order="-4875" data-item-id="2.cu-smallCircle_sy_m8lfw21s4okjk" data-item-class="ScenePart Part Indexed Stroke ColorStrokeBlack" data-item-index="2" data-renderer-id="0" transform="translate(168, 238.99996948242188)"></g><g id="g-root-1.cu-smallCircle_sy_qnsgxe1s4omx3-fill" data-item-order="-4873" data-item-id="1.cu-smallCircle_sy_qnsgxe1s4omx3" data-item-class="ScenePart Part Indexed Indexed_1 Stroke ColorStrokeBlack" data-item-index="1" data-renderer-id="0" transform="translate(72, 238.99996948242188)"></g><g id="g-root-hand_zof9v61s4reo6-fill" data-item-order="0" data-item-id="hand_zof9v61s4reo6" data-item-class="Icon Stroke SceneTarget Indexed" data-item-index="7" data-renderer-id="0" transform="translate(627, 181.99996948242188)"></g><g id="g-root-lear_mcyrhu1s4rg94-fill" data-item-order="0" data-item-id="lear_mcyrhu1s4rg94" data-item-class="Icon Stroke SceneTarget Indexed" data-item-index="5" data-renderer-id="0" transform="translate(435, 181.99996948242188)"></g><g id="g-root-data_924q7m1s4reoa-fill" data-item-order="0" data-item-id="data_924q7m1s4reoa" data-item-class="Icon Stroke SceneTarget Indexed" data-item-index="3" data-renderer-id="0" transform="translate(243, 181.99996948242188)"></g><g id="g-root-bars_1qcl8s21s4rdoj-fill" data-item-order="0" data-item-id="bars_1qcl8s21s4rdoj" data-item-class="Icon Stroke SceneTarget Indexed Indexed_1" data-item-index="1" data-renderer-id="0" transform="translate(51, 181.99996948242188)"></g><g id="g-root-tx_cloudcom_1hx9u1s4omxb-fill" data-item-order="0" data-item-id="tx_cloudcom_1hx9u1s4omxb" data-item-class="Label Stroke SceneTarget Indexed ColorStrokeBlack" data-item-index="8" data-renderer-id="0" transform="translate(693, 313.9999694824219)"><g id="tx_cloudcom_1hx9u1s4omxb-fill" stroke="none" fill="#484848"><g><text style="font: 20px Roboto, sans-serif; white-space: pre;"><tspan x="38.2" y="33.75" dominant-baseline="ideographic">Cloud </tspan><tspan x="15.07" y="57.75" dominant-baseline="ideographic">Computing</tspan></text></g></g></g><g id="g-root-tx_datacoll_qpnw6q1s4olxq-fill" data-item-order="0" data-item-id="tx_datacoll_qpnw6q1s4olxq" data-item-class="Label Stroke SceneTarget Indexed Indexed_1 ColorStrokeBlack" data-item-index="1" data-renderer-id="0" transform="translate(3, 145.99996948242188)"><g id="tx_datacoll_qpnw6q1s4olxq-fill" stroke="none" fill="#484848"><g><text style="font: 20px Roboto, sans-serif; white-space: pre;"><tspan x="14.3" y="33.75" dominant-baseline="ideographic">Data Collection</tspan></text></g></g></g><g id="g-root-tx_machinel_1cw4xpu1s4ompu-fill" data-item-order="0" data-item-id="tx_machinel_1cw4xpu1s4ompu" data-item-class="Label Stroke SceneTarget Indexed ColorStrokeBlack" data-item-index="5" data-renderer-id="0" transform="translate(411, 121.99996948242188)"><g id="tx_machinel_1cw4xpu1s4ompu-fill" stroke="none" fill="#484848"><g><text style="font: 20px Roboto, sans-serif; white-space: pre;"><tspan x="17.57" y="33.75" dominant-baseline="ideographic">Machine </tspan><tspan x="17.16" y="57.75" dominant-baseline="ideographic">Learning</tspan></text></g></g></g><g id="g-root-tx_informed_1uney7m1s4okco-fill" data-item-order="0" data-item-id="tx_informed_1uney7m1s4okco" data-item-class="Label Stroke SceneTarget Indexed ColorStrokeBlack" data-item-index="7" data-renderer-id="0" transform="translate(603, 97.99996948242188)"><g id="tx_informed_1uney7m1s4okco-fill" stroke="none" fill="#484848"><g><text style="font: 20px Roboto, sans-serif; white-space: pre;"><tspan x="15.02" y="33.75" dominant-baseline="ideographic">Informed </tspan><tspan x="17.21" y="57.75" dominant-baseline="ideographic">Decision </tspan><tspan x="22.74" y="81.75" dominant-baseline="ideographic">Making</tspan></text></g></g></g><g id="g-root-broo_1qdu6ya1s4rfur-fill" data-item-order="0" data-item-id="broo_1qdu6ya1s4rfur" data-item-class="Icon Stroke SceneTarget Indexed" data-item-index="2" data-renderer-id="0" transform="translate(147, 253.99996948242188)"></g><g id="g-root-line_hxrqgi1s4rdvl-fill" data-item-order="0" data-item-id="line_hxrqgi1s4rdvl" data-item-class="Icon Stroke SceneTarget Indexed" data-item-index="4" data-renderer-id="0" transform="translate(339, 253.99996948242188)"></g><g id="g-root-on_qss9ma1s4rfgv-fill" data-item-order="0" data-item-id="on_qss9ma1s4rfgv" data-item-class="Icon Stroke SceneTarget Indexed" data-item-index="6" data-renderer-id="0" transform="translate(531, 253.99996948242188)"></g><g id="g-root-clou_1448rzm1s4rdvx-fill" data-item-order="0" data-item-id="clou_1448rzm1s4rdvx" data-item-class="Icon Stroke SceneTarget Indexed" data-item-index="8" data-renderer-id="0" transform="translate(723, 253.99996948242188)"></g><g id="g-root-tx_dataproc_zlawfm1s4ol51-fill" data-item-order="0" data-item-id="tx_dataproc_zlawfm1s4ol51" data-item-class="Label Stroke SceneTarget Indexed ColorStrokeBlack" data-item-index="2" data-renderer-id="0" transform="translate(117, 313.9999694824219)"><g id="tx_dataproc_zlawfm1s4ol51-fill" stroke="none" fill="#484848"><g><text style="font: 20px Roboto, sans-serif; white-space: pre;"><tspan x="43.31" y="33.75" dominant-baseline="ideographic">Data </tspan><tspan x="14.3" y="57.75" dominant-baseline="ideographic">Processing</tspan></text></g></g></g><g id="g-root-tx_dataanal_1414ek21s4okcr-fill" data-item-order="0" data-item-id="tx_dataanal_1414ek21s4okcr" data-item-class="Label Stroke SceneTarget Indexed ColorStrokeBlack" data-item-index="4" data-renderer-id="0" transform="translate(297, 313.9999694824219)"><g id="tx_dataanal_1414ek21s4okcr-fill" stroke="none" fill="#484848"><g><text style="font: 20px Roboto, sans-serif; white-space: pre;"><tspan x="15.44" y="33.75" dominant-baseline="ideographic">Data Analysis</tspan></text></g></g></g><g id="g-root-tx_insightg_1q7lg361s4ol4x-fill" data-item-order="0" data-item-id="tx_insightg_1q7lg361s4ol4x" data-item-class="Label Stroke SceneTarget Indexed ColorStrokeBlack" data-item-index="6" data-renderer-id="0" transform="translate(501, 313.9999694824219)"><g id="tx_insightg_1q7lg361s4ol4x-fill" stroke="none" fill="#484848"><g><text style="font: 20px Roboto, sans-serif; white-space: pre;"><tspan x="33.79" y="33.75" dominant-baseline="ideographic">Insight </tspan><tspan x="15.53" y="57.75" dominant-baseline="ideographic">Generation</tspan></text></g></g></g><g id="g-root-tx_unleashi_m9ue2a1s4ompz-fill" data-item-order="0" data-item-id="tx_unleashi_m9ue2a1s4ompz" data-item-class="Label Stroke SceneTarget SceneTitle Title ColorStrokeBlack" data-item-index="none" data-renderer-id="0" transform="translate(261, 2)"><g id="tx_unleashi_m9ue2a1s4ompz-fill" stroke="none" fill="#484848"><g><text style="font: 20px Roboto, sans-serif; white-space: pre;"><tspan x="11.88" y="33.75" dominant-baseline="ideographic">Unleashing the Power of Big Data</tspan></text></g></g></g><g id="g-root-tx_datastor_zlawfm1s4ol50-fill" data-item-order="0" data-item-id="tx_datastor_zlawfm1s4ol50" data-item-class="Label Stroke SceneTarget Indexed ColorStrokeBlack" data-item-index="3" data-renderer-id="0" transform="translate(207, 145.99996948242188)"><g id="tx_datastor_zlawfm1s4ol50-fill" stroke="none" fill="#484848"><g><text style="font: 20px Roboto, sans-serif; white-space: pre;"><tspan x="12.48" y="33.75" dominant-baseline="ideographic">Data Storage</tspan></text></g></g></g><g id="g-root--1.line_sy_qnsgxe1s4omx1-stroke" data-item-order="-4891" data-item-id="-1.line_sy_qnsgxe1s4omx1" data-item-class="ScenePart Part Stroke ColorStrokeBlack" data-item-index="-1" data-renderer-id="0" transform="translate(750, 241.99606323242188)"><g id="-1.line_sy_qnsgxe1s4omx1-stroke" fill="none" stroke-linecap="round" stroke-linejoin="round" stroke-miterlimit="4" stroke="#484848" stroke-width="2"><g><path d="M 77 10.003937L 10 10.003937"></path><path d="M 71 16.503937L 77.5 10.003937L 71 3.503937" stroke-dasharray="none"></path></g></g></g><g id="g-root--1.vector_sy_qnsgxe1s4omx2-stroke" data-item-order="-4889" data-item-id="-1.vector_sy_qnsgxe1s4omx2" data-item-class="ScenePart Part Stroke ColorStrokeBlack" data-item-index="-1" data-renderer-id="0" transform="translate(3, 241.99606323242188)"><g id="-1.vector_sy_qnsgxe1s4omx2-stroke" fill="none" stroke-linecap="round" stroke-linejoin="round" stroke-miterlimit="4" stroke="#484848" stroke-width="2"><g><path d="M 749 10.003937L 661 10.003937L 565 10.003937L 469 10.003937L 373 10.003937L 277 10.003937L 181 10.003937L 85 10.003937L 10 10.003937"></path><path d="M 743 16.503937L 749.5 10.003937L 743 3.503937" stroke-dasharray="none"></path></g></g></g><g id="g-root-8.cu-smallCircle_sy_8x4xiq1s4om4m-stroke" data-item-order="-4887" data-item-id="8.cu-smallCircle_sy_8x4xiq1s4om4m" data-item-class="ScenePart Part Indexed Stroke ColorStrokeBlack" data-item-index="8" data-renderer-id="0" transform="translate(744, 238.99996948242188)"><g id="8.cu-smallCircle_sy_8x4xiq1s4om4m-stroke" fill="none" stroke-linecap="round" stroke-linejoin="round" stroke-miterlimit="4" stroke="#484848" stroke-width="2"><g><path d="M 16 13C 16 14.6569 14.6569 16 13 16C 11.3431 16 10 14.6569 10 13C 10 11.3431 11.3431 10 13 10C 14.6569 10 16 11.3431 16 13Z"></path></g></g></g><g id="g-root-7.cu-smallCircle_sy_8x4xiq1s4om4l-stroke" data-item-order="-4885" data-item-id="7.cu-smallCircle_sy_8x4xiq1s4om4l" data-item-class="ScenePart Part Indexed Stroke ColorStrokeBlack" data-item-index="7" data-renderer-id="0" transform="translate(648, 238.99996948242188)"><g id="7.cu-smallCircle_sy_8x4xiq1s4om4l-stroke" fill="none" stroke-linecap="round" stroke-linejoin="round" stroke-miterlimit="4" stroke="#484848" stroke-width="2"><g><path d="M 16 13C 16 14.6569 14.6569 16 13 16C 11.3431 16 10 14.6569 10 13C 10 11.3431 11.3431 10 13 10C 14.6569 10 16 11.3431 16 13Z"></path></g></g></g><g id="g-root-6.cu-smallCircle_sy_8x4xiq1s4om4k-stroke" data-item-order="-4883" data-item-id="6.cu-smallCircle_sy_8x4xiq1s4om4k" data-item-class="ScenePart Part Indexed Stroke ColorStrokeBlack" data-item-index="6" data-renderer-id="0" transform="translate(552, 238.99996948242188)"><g id="6.cu-smallCircle_sy_8x4xiq1s4om4k-stroke" fill="none" stroke-linecap="round" stroke-linejoin="round" stroke-miterlimit="4" stroke="#484848" stroke-width="2"><g><path d="M 16 13C 16 14.6569 14.6569 16 13 16C 11.3431 16 10 14.6569 10 13C 10 11.3431 11.3431 10 13 10C 14.6569 10 16 11.3431 16 13Z"></path></g></g></g><g id="g-root-5.cu-smallCircle_sy_dcyfn61s4olcb-stroke" data-item-order="-4881" data-item-id="5.cu-smallCircle_sy_dcyfn61s4olcb" data-item-class="ScenePart Part Indexed Stroke ColorStrokeBlack" data-item-index="5" data-renderer-id="0" transform="translate(456, 238.99996948242188)"><g id="5.cu-smallCircle_sy_dcyfn61s4olcb-stroke" fill="none" stroke-linecap="round" stroke-linejoin="round" stroke-miterlimit="4" stroke="#484848" stroke-width="2"><g><path d="M 16 13C 16 14.6569 14.6569 16 13 16C 11.3431 16 10 14.6569 10 13C 10 11.3431 11.3431 10 13 10C 14.6569 10 16 11.3431 16 13Z"></path></g></g></g><g id="g-root-4.cu-smallCircle_sy_dcyfn61s4olca-stroke" data-item-order="-4879" data-item-id="4.cu-smallCircle_sy_dcyfn61s4olca" data-item-class="ScenePart Part Indexed Stroke ColorStrokeBlack" data-item-index="4" data-renderer-id="0" transform="translate(360, 238.99996948242188)"><g id="4.cu-smallCircle_sy_dcyfn61s4olca-stroke" fill="none" stroke-linecap="round" stroke-linejoin="round" stroke-miterlimit="4" stroke="#484848" stroke-width="2"><g><path d="M 16 13C 16 14.6569 14.6569 16 13 16C 11.3431 16 10 14.6569 10 13C 10 11.3431 11.3431 10 13 10C 14.6569 10 16 11.3431 16 13Z"></path></g></g></g><g id="g-root-3.cu-smallCircle_sy_dcyfn61s4olc9-stroke" data-item-order="-4877" data-item-id="3.cu-smallCircle_sy_dcyfn61s4olc9" data-item-class="ScenePart Part Indexed Stroke ColorStrokeBlack" data-item-index="3" data-renderer-id="0" transform="translate(264, 238.99996948242188)"><g id="3.cu-smallCircle_sy_dcyfn61s4olc9-stroke" fill="none" stroke-linecap="round" stroke-linejoin="round" stroke-miterlimit="4" stroke="#484848" stroke-width="2"><g><path d="M 16 13C 16 14.6569 14.6569 16 13 16C 11.3431 16 10 14.6569 10 13C 10 11.3431 11.3431 10 13 10C 14.6569 10 16 11.3431 16 13Z"></path></g></g></g><g id="g-root-2.cu-smallCircle_sy_m8lfw21s4okjk-stroke" data-item-order="-4875" data-item-id="2.cu-smallCircle_sy_m8lfw21s4okjk" data-item-class="ScenePart Part Indexed Stroke ColorStrokeBlack" data-item-index="2" data-renderer-id="0" transform="translate(168, 238.99996948242188)"><g id="2.cu-smallCircle_sy_m8lfw21s4okjk-stroke" fill="none" stroke-linecap="round" stroke-linejoin="round" stroke-miterlimit="4" stroke="#484848" stroke-width="2"><g><path d="M 16 13C 16 14.6569 14.6569 16 13 16C 11.3431 16 10 14.6569 10 13C 10 11.3431 11.3431 10 13 10C 14.6569 10 16 11.3431 16 13Z"></path></g></g></g><g id="g-root-1.cu-smallCircle_sy_qnsgxe1s4omx3-stroke" data-item-order="-4873" data-item-id="1.cu-smallCircle_sy_qnsgxe1s4omx3" data-item-class="ScenePart Part Indexed Indexed_1 Stroke ColorStrokeBlack" data-item-index="1" data-renderer-id="0" transform="translate(72, 238.99996948242188)"><g id="1.cu-smallCircle_sy_qnsgxe1s4omx3-stroke" fill="none" stroke-linecap="round" stroke-linejoin="round" stroke-miterlimit="4" stroke="#484848" stroke-width="2"><g><path d="M 16 13C 16 14.6569 14.6569 16 13 16C 11.3431 16 10 14.6569 10 13C 10 11.3431 11.3431 10 13 10C 14.6569 10 16 11.3431 16 13Z"></path></g></g></g><g id="g-root-hand_zof9v61s4reo6-stroke" data-item-order="0" data-item-id="hand_zof9v61s4reo6" data-item-class="Icon Stroke SceneTarget Indexed" data-item-index="7" data-renderer-id="0" transform="translate(627, 181.99996948242188)"><g id="hand_zof9v61s4reo6-stroke" fill="none" stroke-linecap="round" stroke-linejoin="round" stroke-miterlimit="4" stroke="#da5da8" stroke-width="2"><g><path d="M 40.582859 32.765713L 32.285713 38.285713L 27.142857 33.142857L 35.714287 22.857143L 44.285713 22.857143L 52.857143 19.428572M 43.017143 41.885715L 52.857143 36.57143M 56.285713 40L 52.857143 40L 52.857143 17.714285L 56.285713 17.714285M 37.325714 34.925713L 44.285713 43.428574L 27.142857 50.285713L 15.142858 40M 15.142858 22.857143L 27.142857 22.857143L 31.531429 27.862858M 11.714286 21.142857L 15.142858 21.142857L 15.142858 41.714287L 11.714286 41.714287"></path></g></g></g><g id="g-root-lear_mcyrhu1s4rg94-stroke" data-item-order="0" data-item-id="lear_mcyrhu1s4rg94" data-item-class="Icon Stroke SceneTarget Indexed" data-item-index="5" data-renderer-id="0" transform="translate(435, 181.99996948242188)"><g id="lear_mcyrhu1s4rg94-stroke" fill="none" stroke-linecap="round" stroke-linejoin="round" stroke-miterlimit="4" stroke="#dd8433" stroke-width="2"><g><path d="M 11.714286 16.857143C 11.714286 19.697464 14.016822 22 16.857143 22C 19.697464 22 22 19.697464 22 16.857143C 22 14.016822 19.697464 11.714286 16.857143 11.714286C 14.016822 11.714286 11.714286 14.016822 11.714286 16.857143M 28.857143 16.857143C 28.857143 19.697464 31.159679 22 34 22C 36.840321 22 39.142857 19.697464 39.142857 16.857143C 39.142857 14.016822 36.840321 11.714286 34 11.714286C 31.159679 11.714286 28.857143 14.016822 28.857143 16.857143M 46 16.857143C 46 19.697464 48.30254 22 51.142857 22C 53.983181 22 56.285713 19.697464 56.285713 16.857143C 56.285713 14.016822 53.983181 11.714286 51.142857 11.714286C 48.30254 11.714286 46 14.016822 46 16.857143M 11.714286 34C 11.714286 36.840321 14.016822 39.142857 16.857143 39.142857C 19.697464 39.142857 22 36.840321 22 34C 22 31.159679 19.697464 28.857143 16.857143 28.857143C 14.016822 28.857143 11.714286 31.159679 11.714286 34M 28.857143 34C 28.857143 36.840321 31.159679 39.142857 34 39.142857C 36.840321 39.142857 39.142857 36.840321 39.142857 34C 39.142857 31.159679 36.840321 28.857143 34 28.857143C 31.159679 28.857143 28.857143 31.159679 28.857143 34M 46 34C 46 36.840321 48.30254 39.142857 51.142857 39.142857C 53.983181 39.142857 56.285713 36.840321 56.285713 34C 56.285713 31.159679 53.983181 28.857143 51.142857 28.857143C 48.30254 28.857143 46 31.159679 46 34M 11.714286 51.142857C 11.714286 53.983181 14.016822 56.285713 16.857143 56.285713C 19.697464 56.285713 22 53.983181 22 51.142857C 22 48.30254 19.697464 46 16.857143 46C 14.016822 46 11.714286 48.30254 11.714286 51.142857M 28.857143 51.142857C 28.857143 53.983181 31.159679 56.285713 34 56.285713C 36.840321 56.285713 39.142857 53.983181 39.142857 51.142857C 39.142857 48.30254 36.840321 46 34 46C 31.159679 46 28.857143 48.30254 28.857143 51.142857M 46 51.142857C 46 53.983181 48.30254 56.285713 51.142857 56.285713C 53.983181 56.285713 56.285713 53.983181 56.285713 51.142857C 56.285713 48.30254 53.983181 46 51.142857 46C 48.30254 46 46 48.30254 46 51.142857M 20.491428 20.491428L 30.365715 30.365715M 20.491428 47.508572L 30.365715 37.634289M 37.634289 30.365715L 47.508572 20.491428"></path></g></g></g><g id="g-root-data_924q7m1s4reoa-stroke" data-item-order="0" data-item-id="data_924q7m1s4reoa" data-item-class="Icon Stroke SceneTarget Indexed" data-item-index="3" data-renderer-id="0" transform="translate(243, 181.99996948242188)"><g id="data_924q7m1s4reoa-stroke" fill="none" stroke-linecap="round" stroke-linejoin="round" stroke-miterlimit="4" stroke="#93c131" stroke-width="2"><g><path d="M 11.714286 20.285715C 11.714287 25.019585 21.69194 28.857143 34 28.857143C 46.308064 28.857143 56.285713 25.019585 56.285713 20.285715C 56.285713 15.551846 46.308064 11.714286 34 11.714286C 21.69194 11.714286 11.714287 15.551846 11.714287 20.285715M 11.714286 20.285715L 11.714286 47.714287C 11.714286 52.445717 21.691429 56.285713 34 56.285713C 46.308571 56.285713 56.285713 52.445717 56.285713 47.714287L 56.285713 20.285715M 56.285713 34C 56.285713 38.73143 46.308571 42.57143 34 42.57143C 21.691429 42.57143 11.714286 38.73143 11.714286 34"></path></g></g></g><g id="g-root-bars_1qcl8s21s4rdoj-stroke" data-item-order="0" data-item-id="bars_1qcl8s21s4rdoj" data-item-class="Icon Stroke SceneTarget Indexed Indexed_1" data-item-index="1" data-renderer-id="0" transform="translate(51, 181.99996948242188)"><g id="bars_1qcl8s21s4rdoj-stroke" fill="none" stroke-linecap="round" stroke-linejoin="round" stroke-miterlimit="4" stroke="#17b0e3" stroke-width="2"><g><path d="M 10.882 49L 56.882 49M 18.882 49L 18.882 40C 18.882 39.447716 18.434284 39 17.882 39L 13.882 39C 13.329716 39 12.882 39.447716 12.882 40L 12.882 49M 30.882 49L 30.882 30C 30.882 29.447716 30.434284 29 29.882 29L 25.882 29C 25.329716 29 24.882 29.447716 24.882 30L 24.882 49M 42.882 49L 42.882 34C 42.882 33.447716 42.434284 33 41.882 33L 37.882 33C 37.329716 33 36.882 33.447716 36.882 34L 36.882 49M 54.882 49L 54.882 20C 54.882 19.447716 54.434284 19 53.882 19L 49.882 19C 49.329716 19 48.882 19.447716 48.882 20L 48.882 49"></path></g></g></g><g id="g-root-tx_cloudcom_1hx9u1s4omxb-stroke" data-item-order="0" data-item-id="tx_cloudcom_1hx9u1s4omxb" data-item-class="Label Stroke SceneTarget Indexed ColorStrokeBlack" data-item-index="8" data-renderer-id="0" transform="translate(693, 313.9999694824219)"></g><g id="g-root-tx_datacoll_qpnw6q1s4olxq-stroke" data-item-order="0" data-item-id="tx_datacoll_qpnw6q1s4olxq" data-item-class="Label Stroke SceneTarget Indexed Indexed_1 ColorStrokeBlack" data-item-index="1" data-renderer-id="0" transform="translate(3, 145.99996948242188)"></g><g id="g-root-tx_machinel_1cw4xpu1s4ompu-stroke" data-item-order="0" data-item-id="tx_machinel_1cw4xpu1s4ompu" data-item-class="Label Stroke SceneTarget Indexed ColorStrokeBlack" data-item-index="5" data-renderer-id="0" transform="translate(411, 121.99996948242188)"></g><g id="g-root-tx_informed_1uney7m1s4okco-stroke" data-item-order="0" data-item-id="tx_informed_1uney7m1s4okco" data-item-class="Label Stroke SceneTarget Indexed ColorStrokeBlack" data-item-index="7" data-renderer-id="0" transform="translate(603, 97.99996948242188)"></g><g id="g-root-broo_1qdu6ya1s4rfur-stroke" data-item-order="0" data-item-id="broo_1qdu6ya1s4rfur" data-item-class="Icon Stroke SceneTarget Indexed" data-item-index="2" data-renderer-id="0" transform="translate(147, 253.99996948242188)"><g id="broo_1qdu6ya1s4rfur-stroke" fill="none" stroke-linecap="round" stroke-linejoin="round" stroke-miterlimit="4" stroke="#3bc482" stroke-width="2"><g><path d="M 56.664001 46.144001C 54.073425 50.460567 50.460567 54.073425 46.143997 56.663998C 45.130566 57.271255 43.824333 57.03632 43.086002 56.114002L 35.447998 46.566002C 32.930622 43.418644 33.182144 38.881802 36.032001 36.032001L 36.031998 36.031998C 38.881802 33.182144 43.418644 32.930622 46.566002 35.447998L 56.113998 43.085999C 57.03632 43.824333 57.271255 45.130566 56.664001 46.144001ZM 32.057999 32.057999L 11 11M 34.615997 37.954002L 32.057999 35.400002C 31.136288 34.478996 31.136288 32.985001 32.057999 32.064003L 32.057999 32.063999C 32.979004 31.142288 34.473 31.142288 35.394001 32.064003L 37.954002 34.622002M 50.318001 53.655998L 42.706001 46.043999M 53.655998 50.318001L 46.043999 42.706001M 16 32L 20 32M 18 30L 18 34M 32 14L 36 14M 34 12L 34 16M 26 54L 30 54M 28 52L 28 56M 42 23L 50 23M 46 19L 46 27M 24.5 43C 24.776142 43 25 43.223858 25 43.5M 24 43.5C 24 43.223858 24.223858 43 24.5 43M 24.5 44C 24.223858 44 24 43.776142 24 43.5M 25 43.5C 25 43.776142 24.776142 44 24.5 44M 15.5 51C 15.776142 51 16 51.223858 16 51.5M 15 51.5C 15 51.223858 15.223858 51 15.5 51M 15.5 52C 15.223858 52 15 51.776142 15 51.5M 16 51.5C 16 51.776142 15.776142 52 15.5 52M 52.5 12C 52.776142 12 53 12.223858 53 12.5M 52 12.5C 52 12.223858 52.223858 12 52.5 12M 52.5 13C 52.223858 13 52 12.776142 52 12.5M 53 12.5C 53 12.776142 52.776142 13 52.5 13"></path></g></g></g><g id="g-root-line_hxrqgi1s4rdvl-stroke" data-item-order="0" data-item-id="line_hxrqgi1s4rdvl" data-item-class="Icon Stroke SceneTarget Indexed" data-item-index="4" data-renderer-id="0" transform="translate(339, 253.99996948242188)"><g id="line_hxrqgi1s4rdvl-stroke" fill="none" stroke-linecap="round" stroke-linejoin="round" stroke-miterlimit="4" stroke="#e3cd09" stroke-width="2"><g><path d="M 11.008 34C 11.008 46.702549 21.30545 57 34.008003 57C 46.710548 57 57.007999 46.702549 57.007999 34C 57.007999 21.297451 46.710548 11 34.008003 11C 21.30545 11 11.008 21.297451 11.008 34ZM 47.007999 45L 21.007999 45L 21.007999 25M 21 35L 26.378 31.926001C 27.291264 31.403624 28.453098 31.678127 29.035999 32.554001L 32.860001 38.290001C 33.044575 38.730682 33.483971 39.00988 33.961323 38.989807C 34.438675 38.96973 34.853073 38.654621 35 38.199997L 39.528 29.879999C 39.830055 29.326275 40.375626 28.947491 41 28.858L 47 28"></path></g></g></g><g id="g-root-on_qss9ma1s4rfgv-stroke" data-item-order="0" data-item-id="on_qss9ma1s4rfgv" data-item-class="Icon Stroke SceneTarget Indexed" data-item-index="6" data-renderer-id="0" transform="translate(531, 253.99996948242188)"><g id="on_qss9ma1s4rfgv-stroke" fill="none" stroke-linecap="round" stroke-linejoin="round" stroke-miterlimit="4" stroke="#e15e5a" stroke-width="2"><g><path d="M 46 37.428574C 46.022171 31.506199 41.720341 26.453302 35.870296 25.530289C 30.020248 24.607275 24.371649 28.090206 22.569283 33.731705C 20.766918 39.373199 23.34985 45.48597 28.651428 48.125717L 28.651428 54.022858C 28.670025 54.747917 29.263273 55.325954 29.988571 55.325714L 38.011429 55.325714C 38.736725 55.325954 39.329975 54.747917 39.348572 54.022858L 39.348572 48.022858C 43.376583 46.017712 45.944405 41.927727 46 37.428574ZM 34 12.777143L 34 17.92M 47.714287 17.68L 44.079998 21.348572M 55.531429 28.308573L 50.388573 28.308573M 20.285715 17.68L 23.92 21.348572M 12.468572 28.308573L 17.611429 28.308573"></path></g></g></g><g id="g-root-clou_1448rzm1s4rdvx-stroke" data-item-order="0" data-item-id="clou_1448rzm1s4rdvx" data-item-class="Icon Stroke SceneTarget Indexed" data-item-index="8" data-renderer-id="0" transform="translate(723, 253.99996948242188)"><g id="clou_1448rzm1s4rdvx-stroke" fill="none" stroke-linecap="round" stroke-linejoin="round" stroke-miterlimit="4" stroke="#b65edf" stroke-width="2"><g><path d="M 57 38C 57.00251 35.285614 55.899284 32.687309 53.944599 30.803944C 51.98991 28.920576 49.352413 27.914644 46.639999 28.018C 43.916706 22.235401 37.61792 19.036705 31.342236 20.249374C 25.066551 21.462044 20.412907 26.777115 20.040001 33.158001C 17.828627 32.694801 15.526266 33.252914 13.772458 34.677299C 12.01865 36.101685 11.000196 38.240639 11 40.5C 11 48.119999 19 48 19 48L 48 48C 48 48 57 46.827999 57 38Z"></path></g></g></g><g id="g-root-tx_dataproc_zlawfm1s4ol51-stroke" data-item-order="0" data-item-id="tx_dataproc_zlawfm1s4ol51" data-item-class="Label Stroke SceneTarget Indexed ColorStrokeBlack" data-item-index="2" data-renderer-id="0" transform="translate(117, 313.9999694824219)"></g><g id="g-root-tx_dataanal_1414ek21s4okcr-stroke" data-item-order="0" data-item-id="tx_dataanal_1414ek21s4okcr" data-item-class="Label Stroke SceneTarget Indexed ColorStrokeBlack" data-item-index="4" data-renderer-id="0" transform="translate(297, 313.9999694824219)"></g><g id="g-root-tx_insightg_1q7lg361s4ol4x-stroke" data-item-order="0" data-item-id="tx_insightg_1q7lg361s4ol4x" data-item-class="Label Stroke SceneTarget Indexed ColorStrokeBlack" data-item-index="6" data-renderer-id="0" transform="translate(501, 313.9999694824219)"></g><g id="g-root-tx_unleashi_m9ue2a1s4ompz-stroke" data-item-order="0" data-item-id="tx_unleashi_m9ue2a1s4ompz" data-item-class="Label Stroke SceneTarget SceneTitle Title ColorStrokeBlack" data-item-index="none" data-renderer-id="0" transform="translate(261, 2)"></g><g id="g-root-tx_datastor_zlawfm1s4ol50-stroke" data-item-order="0" data-item-id="tx_datastor_zlawfm1s4ol50" data-item-class="Label Stroke SceneTarget Indexed ColorStrokeBlack" data-item-index="3" data-renderer-id="0" transform="translate(207, 145.99996948242188)"></g></g></g></svg>