<?xml version="1.0" encoding="utf-8" standalone="yes"?>
<!DOCTYPE svg PUBLIC "-//W3C//DTD SVG 1.1//EN" "http://www.w3.org/Graphics/SVG/1.1/DTD/svg11.dtd">
<svg width="708" height="341" viewBox="0 0 708 341" style="fill:none;stroke:none;fill-rule:evenodd;clip-rule:evenodd;stroke-linecap:round;stroke-linejoin:round;stroke-miterlimit:1.5;" version="1.1" xmlns="http://www.w3.org/2000/svg" xmlns:xlink="http://www.w3.org/1999/xlink"><style id="fontImports">@import url("https://fonts.googleapis.com/css2?family=Roboto:wght@400;700&amp;display=block");</style><rect id="" x="0" y="0" width="708" height="341" style="fill: #ffffff;"></rect><g id="items" style="isolation: isolate"><g id="blend" style="mix-blend-mode:multiply"><g id="g-root-0.cu_sy_3ztma1r12vwj-fill" data-item-order="-105836" data-item-id="0.cu_sy_3ztma1r12vwj" data-item-class="ScenePart Part Indexed_0 Fill Stroke ColorFillBlack ColorStrokeBlack" data-item-index="0" data-renderer-id="0" transform="translate(296, 252.410888671875)"><g id="0.cu_sy_3ztma1r12vwj-fill" stroke="none" fill="#666666"><g><path d="M 39.431152 68.531891C 41.178252 72.624391 46.389652 75.588891 52.559452 75.588891C 58.729252 75.588891 63.940452 72.624391 65.687552 68.531891C 61.843952 69.559991 57.351452 70.158891 52.559452 70.158891C 47.767352 70.158891 43.274752 69.559991 39.431152 68.531891ZM 26.852051 59.32901C 27.800451 65.38781 38.942051 70.15911 52.559451 70.15911C 66.176951 70.15911 77.328451 65.37791 78.266851 59.32901C 72.226851 61.04581 62.962251 62.14381 52.559451 62.14381C 42.156651 62.14381 32.882051 61.04581 26.852051 59.32901ZM 14.8619 10.000008C 11.7671 13.583408 10 16.717608 10 18.344608C 10 19.492508 10.8785 20.590508 12.4759 21.618608C 14.5724 22.956108 15.2712 25.661208 14.0332 27.817208C 13.2745 29.134808 12.8752 30.232708 12.8752 30.981408C 12.8752 32.139208 13.8336 33.247208 15.5707 34.265308C 17.7272 35.523008 18.5758 38.258008 17.3378 40.434008C 16.6589 41.621808 16.2995 42.619908 16.2995 43.298708C 16.2995 44.346708 17.1581 45.344908 18.7155 46.273208C 20.842 47.530908 21.451 50.285808 20.3129 52.471808C 19.8536 53.360208 19.6041 54.098808 19.6041 54.627808C 19.6041 58.780208 34.3596 62.144008 52.5495 62.144008C 70.7394 62.144008 85.4949 58.780208 85.4949 54.627808C 85.4949 54.098808 85.2552 53.360208 84.786 52.471808C 83.6479 50.285808 84.267 47.530908 86.3835 46.273208C 87.9409 45.354908 88.7994 44.346708 88.7994 43.298708C 88.7994 42.619908 88.4401 41.631708 87.7612 40.434008C 86.5233 38.267908 87.3717 35.533008 89.5282 34.265308C 91.2753 33.247208 92.2238 32.139208 92.2238 30.981408C 92.2238 30.232708 91.8244 29.134808 91.0657 27.817208C 89.8277 25.661208 90.5266 22.946208 92.6231 21.618608C 94.2305 20.600508 95.099 19.492508 95.099 18.344608C 95.099 16.717608 93.3319 13.583408 90.2371 10.000008C 83.1289 13.094308 68.9224 15.210408 52.5395 15.210408C 36.1567 15.210408 21.9702 13.094308 14.8619 10.000008Z"></path></g></g></g><g id="g-root-4.cu_sy_1qbcalu1r12vii-fill" data-item-order="-105834" data-item-id="4.cu_sy_1qbcalu1r12vii" data-item-class="ScenePart Part Indexed Fill Stroke ColorStrokeBlack" data-item-index="4" data-renderer-id="0" transform="translate(316.33148193359375, 119.8748779296875)"><g id="4.cu_sy_1qbcalu1r12vii-fill" stroke="none" fill="#17b0e3"><g><path d="M 86.163797 10C 84.676297 10 83.847697 12.2858 84.656297 13.5335C 85.874297 15.42 86.573197 17.6559 86.563197 20.0715C 86.543197 26.6893 81.162097 32.0294 74.543097 32.0095C 67.923997 31.9895 62.582897 26.6094 62.602897 19.9916C 62.602897 17.616 63.311697 15.4001 64.509697 13.5435C 65.318397 12.2958 64.489697 10.01 63.002197 10.01L 32.023497 10.01L 32.023497 50.9646C 32.023497 52.4518 29.737297 53.2803 28.489397 52.4718C 26.632397 51.274 24.416097 50.5653 22.040097 50.5653C 15.421097 50.5453 10.039897 55.8855 10.019953 62.5033C 9.999997 69.1211 15.341197 74.5012 21.960197 74.5212C 24.366197 74.5212 26.612497 73.8225 28.499397 72.6147C 29.747297 71.8062 32.033497 72.6347 32.033497 74.1219L 32.033497 147.766C 48.925597 147.766 63.521397 145.52 70.399997 142.266C 71.777697 141.618 72.845897 139.961 73.564697 138.503C 74.253597 137.106 74.582997 135.569 74.622997 134.002C 75.152097 113.24 84.236997 93.4563 100.120697 80.0111C 120.476897 62.7828 134.233897 38.0084 137.099897 10.02L 86.173797 10.02L 86.163797 10Z"></path></g></g></g><g id="g-root-4.line_sy_1lvishe1r12war-fill" data-item-order="-105831" data-item-id="4.line_sy_1lvishe1r12war" data-item-class="ScenePart Part Indexed Stroke ColorStrokeBlack" data-item-index="4" data-renderer-id="0" transform="translate(434.00006103515625, 195)"></g><g id="g-root-3.cu_sy_5v8vm1r12uww-fill" data-item-order="-105830" data-item-id="3.cu_sy_5v8vm1r12uww" data-item-class="ScenePart Part Indexed Fill Stroke ColorStrokeBlack" data-item-index="3" data-renderer-id="0" transform="translate(232.55023193359375, 97.85540771484375)"><g id="3.cu_sy_5v8vm1r12uww-fill" stroke="none" fill="#e15e5a"><g><path d="M 112.281 94.624198C 110.394 95.841898 108.1574 96.540598 105.7414 96.530698C 99.1224 96.510698 93.7812 91.130598 93.8012 84.512798C 93.8211 77.894998 99.2023 72.554798 105.8213 72.574798C 108.1974 72.574798 110.414 73.283498 112.271 74.481298C 113.519 75.289798 115.805 74.461298 115.805 72.973998L 115.805 32.019398L 84.8261 32.019398C 83.3385 32.019398 82.5099 29.733698 83.3185 28.485998C 84.5166 26.629398 85.2254 24.413498 85.2254 22.037798C 85.2454 15.419998 79.9042 10.039898 73.2852 10.019953C 66.6661 9.999998 61.2851 15.340198 61.2651 21.957998C 61.2651 24.363498 61.9639 26.609398 63.1719 28.495898C 63.9806 29.743598 63.152 32.029398 61.6644 32.029398L 10 32.029398C 12.8553 59.937998 26.5326 84.632598 46.7791 101.860798C 62.8525 115.535898 72.5364 135.209898 73.2053 156.220898C 73.2752 158.366898 73.8842 160.482898 75.1521 162.209898C 75.781 163.077898 76.5697 163.866898 77.4782 164.295898C 84.3668 167.539898 98.9427 169.775898 115.795 169.775898L 115.795 96.131398C 115.795 94.644098 113.509 93.815698 112.261 94.624198L 112.281 94.624198Z"></path></g></g></g><g id="g-root-3.line_sy_5v8vm1r12uwx-fill" data-item-order="-105827" data-item-id="3.line_sy_5v8vm1r12uwx" data-item-class="ScenePart Part Indexed Stroke ColorStrokeBlack" data-item-index="3" data-renderer-id="0" transform="translate(169.99993896484375, 195)"></g><g id="g-root-2.cu_sy_v7zanm1r12u4m-fill" data-item-order="-105826" data-item-id="2.cu_sy_v7zanm1r12u4m" data-item-class="ScenePart Part Indexed Fill Stroke ColorStrokeBlack" data-item-index="2" data-renderer-id="0" transform="translate(338.364990234375, 3)"><g id="2.cu_sy_v7zanm1r12u4m-fill" stroke="none" fill="#dd8433"><g><path d="M 13.5241 64.2801C 15.411 63.0623 17.6473 62.3636 20.0633 62.3736C 26.6823 62.3935 32.0235 67.7736 32.0035 74.3914C 31.9836 81.0092 26.6025 86.3494 19.9835 86.3295C 17.6074 86.3295 15.3911 85.6208 13.5341 84.423C 12.2862 83.6145 10 84.4429 10 85.9302L 10 126.885L 40.9786 126.885C 42.4662 126.885 43.2948 129.171 42.4862 130.418C 41.2881 132.275 40.5793 134.491 40.5793 136.866C 40.5593 143.484 45.9005 148.864 52.5195 148.884C 59.1386 148.904 64.5196 143.564 64.5396 136.946C 64.5396 134.541 63.8408 132.295 62.6328 130.408C 61.8241 129.161 62.6528 126.875 64.1403 126.875L 115.066 126.875C 115.435 123.291 115.635 119.648 115.635 115.965C 115.635 57.5624 68.3732 10.1996 10.0099 10L 10.0099 62.7728C 10.0099 64.2601 12.2962 65.0886 13.5441 64.2801L 13.5241 64.2801Z"></path></g></g></g><g id="g-root-2.line_sy_mccaeq1r12uxb-fill" data-item-order="-105823" data-item-id="2.line_sy_mccaeq1r12uxb" data-item-class="ScenePart Part Indexed Stroke ColorStrokeBlack" data-item-index="2" data-renderer-id="0" transform="translate(440, 51)"></g><g id="g-root-1.cu_sy_1cymu2a1r12ux8-fill" data-item-order="-105822" data-item-id="1.cu_sy_1cymu2a1r12ux8" data-item-class="ScenePart Part Indexed Indexed_1 Fill Stroke ColorStrokeBlack" data-item-index="1" data-renderer-id="0" transform="translate(231.93130493164062, 3)"><g id="1.cu_sy_1cymu2a1r12ux8-fill" stroke="none" fill="#3bc482"><g><path d="M 63.800895 123.351C 62.582895 121.465 61.884095 119.229 61.893995 116.813C 61.913995 110.196 67.295095 104.8553 73.914095 104.8753C 80.533095 104.8953 85.874295 110.275 85.854395 116.893C 85.854395 119.269 85.145495 121.485 83.947495 123.341C 83.138795 124.589 83.967495 126.875 85.454995 126.875L 116.433695 126.875L 116.433695 85.9202C 116.433695 84.433 118.719695 83.6045 119.967695 84.413C 121.824695 85.6108 124.040695 86.3195 126.416695 86.3195C 133.035695 86.3394 138.417695 80.9993 138.437695 74.3815C 138.457695 67.7636 133.115695 62.3835 126.496695 62.3636C 124.090695 62.3636 121.844695 63.0623 119.957695 64.2701C 118.709695 65.0786 116.423695 64.2501 116.423695 62.7628L 116.423695 10C 115.794695 10 115.175695 10 114.546695 10C 57.690995 10.7885 11.197995 57.0134 10.089795 113.849C 9.999995 118.251 10.199595 122.603 10.628895 126.875L 62.293295 126.875C 63.780895 126.875 64.609495 124.589 63.800895 123.341L 63.800895 123.351Z"></path></g></g></g><g id="g-root-1.line_sy_18itbxu1r12vph-fill" data-item-order="-105819" data-item-id="1.line_sy_18itbxu1r12vph" data-item-class="ScenePart Part Indexed Indexed_1 Stroke ColorStrokeBlack" data-item-index="1" data-renderer-id="0" transform="translate(170, 51)"></g><g id="g-root-tx_healthca_1qd7pv61r12uit-fill" data-item-order="0" data-item-id="tx_healthca_1qd7pv61r12uit" data-item-class="Label Stroke SceneTarget Indexed Indexed_1 ColorStrokeBlack" data-item-index="1" data-renderer-id="0" transform="translate(2, 39)"><g id="tx_healthca_1qd7pv61r12uit-fill" stroke="none" fill="#666666"><g><text style="font: 20px Roboto, sans-serif; white-space: pre;"><tspan x="19.34" y="33.75" dominant-baseline="ideographic">Healthcare</tspan></text></g></g></g><g id="g-root-2_dl2lrm1r18iyq-fill" data-item-order="0" data-item-id="2_dl2lrm1r18iyq" data-item-class="Icon Stroke SceneTarget Indexed Indexed_1 ColorStrokeBlack" data-item-index="1" data-renderer-id="0" transform="translate(122, 33)"></g><g id="g-root-buy_v3lz1u1r19xc5-fill" data-item-order="0" data-item-id="buy_v3lz1u1r19xc5" data-item-class="Icon Stroke SceneTarget Indexed ColorStrokeBlack" data-item-index="2" data-renderer-id="0" transform="translate(518, 33)"></g><g id="g-root-tx_ecommerc_1uua65u1r12vwo-fill" data-item-order="0" data-item-id="tx_ecommerc_1uua65u1r12vwo" data-item-class="Label Stroke SceneTarget Indexed ColorStrokeBlack" data-item-index="2" data-renderer-id="0" transform="translate(566, 39)"><g id="tx_ecommerc_1uua65u1r12vwo-fill" stroke="none" fill="#666666"><g><text style="font: 20px Roboto, sans-serif; white-space: pre;"><tspan x="12" y="33.75" dominant-baseline="ideographic">E-commerce</tspan></text></g></g></g><g id="g-root-tx_finance_zqx67m1r12uiu-fill" data-item-order="0" data-item-id="tx_finance_zqx67m1r12uiu" data-item-class="Label Stroke SceneTarget Indexed ColorStrokeBlack" data-item-index="3" data-renderer-id="0" transform="translate(26, 183)"><g id="tx_finance_zqx67m1r12uiu-fill" stroke="none" fill="#666666"><g><text style="font: 20px Roboto, sans-serif; white-space: pre;"><tspan x="22.08" y="33.75" dominant-baseline="ideographic">Finance</tspan></text></g></g></g><g id="g-root-decr_1q5q0tu1r19wjv-fill" data-item-order="0" data-item-id="decr_1q5q0tu1r19wjv" data-item-class="Icon Stroke SceneTarget Indexed ColorStrokeBlack" data-item-index="3" data-renderer-id="0" transform="translate(122, 177)"></g><g id="g-root-buil_1cuvzjm1r19uz0-fill" data-item-order="0" data-item-id="buil_1cuvzjm1r19uz0" data-item-class="Icon Stroke SceneTarget Indexed ColorStrokeBlack" data-item-index="4" data-renderer-id="0" transform="translate(518, 177)"></g><g id="g-root-tx_smartcit_dkg4oi1r12tqn-fill" data-item-order="0" data-item-id="tx_smartcit_dkg4oi1r12tqn" data-item-class="Label Stroke SceneTarget Indexed ColorStrokeBlack" data-item-index="4" data-renderer-id="0" transform="translate(566, 183)"><g id="tx_smartcit_dkg4oi1r12tqn-fill" stroke="none" fill="#666666"><g><text style="font: 20px Roboto, sans-serif; white-space: pre;"><tspan x="12" y="33.75" dominant-baseline="ideographic">Smart Cities</tspan></text></g></g></g><g id="g-root-0.cu_sy_3ztma1r12vwj-stroke" data-item-order="-105836" data-item-id="0.cu_sy_3ztma1r12vwj" data-item-class="ScenePart Part Indexed_0 Fill Stroke ColorFillBlack ColorStrokeBlack" data-item-index="0" data-renderer-id="0" transform="translate(296, 252.410888671875)"><g id="0.cu_sy_3ztma1r12vwj-stroke" fill="none" stroke-linecap="round" stroke-linejoin="round" stroke-miterlimit="4" stroke="#2c2c2c" stroke-width="2"><g><path d="M 39.431152 68.531891C 41.178252 72.624391 46.389652 75.588891 52.559452 75.588891C 58.729252 75.588891 63.940452 72.624391 65.687552 68.531891C 61.843952 69.559991 57.351452 70.158891 52.559452 70.158891C 47.767352 70.158891 43.274752 69.559991 39.431152 68.531891ZM 26.852051 59.32901C 27.800451 65.38781 38.942051 70.15911 52.559451 70.15911C 66.176951 70.15911 77.328451 65.37791 78.266851 59.32901C 72.226851 61.04581 62.962251 62.14381 52.559451 62.14381C 42.156651 62.14381 32.882051 61.04581 26.852051 59.32901ZM 14.8619 10.000008C 11.7671 13.583408 10 16.717608 10 18.344608C 10 19.492508 10.8785 20.590508 12.4759 21.618608C 14.5724 22.956108 15.2712 25.661208 14.0332 27.817208C 13.2745 29.134808 12.8752 30.232708 12.8752 30.981408C 12.8752 32.139208 13.8336 33.247208 15.5707 34.265308C 17.7272 35.523008 18.5758 38.258008 17.3378 40.434008C 16.6589 41.621808 16.2995 42.619908 16.2995 43.298708C 16.2995 44.346708 17.1581 45.344908 18.7155 46.273208C 20.842 47.530908 21.451 50.285808 20.3129 52.471808C 19.8536 53.360208 19.6041 54.098808 19.6041 54.627808C 19.6041 58.780208 34.3596 62.144008 52.5495 62.144008C 70.7394 62.144008 85.4949 58.780208 85.4949 54.627808C 85.4949 54.098808 85.2552 53.360208 84.786 52.471808C 83.6479 50.285808 84.267 47.530908 86.3835 46.273208C 87.9409 45.354908 88.7994 44.346708 88.7994 43.298708C 88.7994 42.619908 88.4401 41.631708 87.7612 40.434008C 86.5233 38.267908 87.3717 35.533008 89.5282 34.265308C 91.2753 33.247208 92.2238 32.139208 92.2238 30.981408C 92.2238 30.232708 91.8244 29.134808 91.0657 27.817208C 89.8277 25.661208 90.5266 22.946208 92.6231 21.618608C 94.2305 20.600508 95.099 19.492508 95.099 18.344608C 95.099 16.717608 93.3319 13.583408 90.2371 10.000008C 83.1289 13.094308 68.9224 15.210408 52.5395 15.210408C 36.1567 15.210408 21.9702 13.094308 14.8619 10.000008ZM 16.299561 43.298492C 16.299561 47.870092 32.532761 51.573292 52.559561 51.573292C 72.586361 51.573292 88.819461 47.870092 88.819461 43.298492M 12.875244 30.991363C 12.875244 35.992163 30.645844 40.044663 52.559544 40.044663C 74.473244 40.044663 92.243744 35.992163 92.243744 30.991363M 10 18.344391C 10 23.704491 29.0584 28.056491 52.5595 28.056491C 76.0606 28.056491 95.119 23.704491 95.119 18.344391"></path></g></g></g><g id="g-root-4.cu_sy_1qbcalu1r12vii-stroke" data-item-order="-105834" data-item-id="4.cu_sy_1qbcalu1r12vii" data-item-class="ScenePart Part Indexed Fill Stroke ColorStrokeBlack" data-item-index="4" data-renderer-id="0" transform="translate(316.33148193359375, 119.8748779296875)"><g id="4.cu_sy_1qbcalu1r12vii-stroke" fill="none" stroke-linecap="round" stroke-linejoin="round" stroke-miterlimit="4" stroke="#2c2c2c" stroke-width="2"><g><path d="M 86.163797 10C 84.676297 10 83.847697 12.2858 84.656297 13.5335C 85.874297 15.42 86.573197 17.6559 86.563197 20.0715C 86.543197 26.6893 81.162097 32.0294 74.543097 32.0095C 67.923997 31.9895 62.582897 26.6094 62.602897 19.9916C 62.602897 17.616 63.311697 15.4001 64.509697 13.5435C 65.318397 12.2958 64.489697 10.01 63.002197 10.01L 32.023497 10.01L 32.023497 50.9646C 32.023497 52.4518 29.737297 53.2803 28.489397 52.4718C 26.632397 51.274 24.416097 50.5653 22.040097 50.5653C 15.420997 50.5453 10.039897 55.8855 10.019997 62.5033C 9.999997 69.1211 15.341197 74.5012 21.960197 74.5212C 24.366197 74.5212 26.612497 73.8225 28.499397 72.6147C 29.747297 71.8062 32.033497 72.6347 32.033497 74.1219L 32.033497 147.7663C 48.925597 147.7663 63.521397 145.5205 70.399997 142.2665C 71.777697 141.6177 72.845897 139.9607 73.564697 138.5034C 74.253597 137.1059 74.582997 135.5688 74.622997 134.0017C 75.152097 113.2399 84.236997 93.4563 100.120697 80.0111C 120.476997 62.7828 134.234197 38.0084 137.099497 10.02L 86.173797 10.02L 86.163797 10Z"></path></g></g></g><g id="g-root-4.line_sy_1lvishe1r12war-stroke" data-item-order="-105831" data-item-id="4.line_sy_1lvishe1r12war" data-item-class="ScenePart Part Indexed Stroke ColorStrokeBlack" data-item-index="4" data-renderer-id="0" transform="translate(434.00006103515625, 195)"><g id="4.line_sy_1lvishe1r12war-stroke" fill="none" stroke-linecap="round" stroke-linejoin="round" stroke-miterlimit="4" stroke="#666666" stroke-width="2"><g><path d="M 81.999939 10L 11.999939 10"></path><path d="M 17.999939 3.5L 11.499939 10L 17.999939 16.5" stroke-dasharray="none"></path></g></g></g><g id="g-root-3.cu_sy_5v8vm1r12uww-stroke" data-item-order="-105830" data-item-id="3.cu_sy_5v8vm1r12uww" data-item-class="ScenePart Part Indexed Fill Stroke ColorStrokeBlack" data-item-index="3" data-renderer-id="0" transform="translate(232.55023193359375, 97.85540771484375)"><g id="3.cu_sy_5v8vm1r12uww-stroke" fill="none" stroke-linecap="round" stroke-linejoin="round" stroke-miterlimit="4" stroke="#2c2c2c" stroke-width="2"><g><path d="M 112.2806 94.624198C 110.3937 95.841898 108.1574 96.540598 105.7414 96.530698C 99.1224 96.510698 93.7812 91.130598 93.8012 84.512798C 93.8211 77.894998 99.2023 72.554798 105.8213 72.574798C 108.1974 72.574798 110.4137 73.283498 112.2706 74.481298C 113.5185 75.289798 115.8048 74.461298 115.8048 72.973998L 115.8048 32.019398L 84.8261 32.019398C 83.3385 32.019398 82.5099 29.733698 83.3185 28.485998C 84.5166 26.629398 85.2254 24.413498 85.2254 22.037798C 85.2454 15.419998 79.9042 10.039898 73.2852 10.019998C 66.6661 9.999998 61.2851 15.340198 61.2651 21.957998C 61.2651 24.363498 61.9639 26.609398 63.1719 28.495898C 63.9806 29.743598 63.1519 32.029398 61.6644 32.029398L 10 32.029398C 12.8553 59.937998 26.5326 84.632598 46.7791 101.860798C 62.8525 115.535698 72.5364 135.209498 73.2053 156.220798C 73.2752 158.366798 73.8842 160.482898 75.1521 162.209698C 75.781 163.078098 76.5697 163.866698 77.4782 164.295898C 84.3668 167.539898 98.9427 169.775798 115.7948 169.775798L 115.7948 96.131398C 115.7948 94.644098 113.5086 93.815698 112.2606 94.624198L 112.2806 94.624198Z"></path></g></g></g><g id="g-root-3.line_sy_5v8vm1r12uwx-stroke" data-item-order="-105827" data-item-id="3.line_sy_5v8vm1r12uwx" data-item-class="ScenePart Part Indexed Stroke ColorStrokeBlack" data-item-index="3" data-renderer-id="0" transform="translate(169.99993896484375, 195)"><g id="3.line_sy_5v8vm1r12uwx-stroke" fill="none" stroke-linecap="round" stroke-linejoin="round" stroke-miterlimit="4" stroke="#666666" stroke-width="2"><g><path d="M 10.000061 10L 80.000061 10"></path><path d="M 74.000061 16.5L 80.500061 10L 74.000061 3.5" stroke-dasharray="none"></path></g></g></g><g id="g-root-2.cu_sy_v7zanm1r12u4m-stroke" data-item-order="-105826" data-item-id="2.cu_sy_v7zanm1r12u4m" data-item-class="ScenePart Part Indexed Fill Stroke ColorStrokeBlack" data-item-index="2" data-renderer-id="0" transform="translate(338.364990234375, 3)"><g id="2.cu_sy_v7zanm1r12u4m-stroke" fill="none" stroke-linecap="round" stroke-linejoin="round" stroke-miterlimit="4" stroke="#2c2c2c" stroke-width="2"><g><path d="M 13.5241 64.2801C 15.411 63.0623 17.6473 62.3636 20.0633 62.3736C 26.6823 62.3935 32.0235 67.7736 32.0035 74.3914C 31.9836 81.0092 26.6025 86.3494 19.9835 86.3295C 17.6074 86.3295 15.391 85.6208 13.5341 84.423C 12.2862 83.6145 10 84.4429 10 85.9302L 10 126.8848L 40.9786 126.8848C 42.4662 126.8848 43.2948 129.1706 42.4862 130.4183C 41.2881 132.2748 40.5793 134.4908 40.5793 136.8664C 40.5593 143.4842 45.9005 148.8643 52.5195 148.8843C 59.1386 148.9042 64.5196 143.5641 64.5396 136.9463C 64.5396 134.5407 63.8408 132.2948 62.6328 130.4083C 61.8241 129.1606 62.6528 126.8748 64.1403 126.8748L 115.0659 126.8748C 115.4353 123.2914 115.635 119.6481 115.635 115.9649C 115.635 57.5624 68.3732 10.1996 10.0099 10L 10.0099 62.7728C 10.0099 64.2601 12.2962 65.0886 13.5441 64.2801L 13.5241 64.2801Z"></path></g></g></g><g id="g-root-2.line_sy_mccaeq1r12uxb-stroke" data-item-order="-105823" data-item-id="2.line_sy_mccaeq1r12uxb" data-item-class="ScenePart Part Indexed Stroke ColorStrokeBlack" data-item-index="2" data-renderer-id="0" transform="translate(440, 51)"><g id="2.line_sy_mccaeq1r12uxb-stroke" fill="none" stroke-linecap="round" stroke-linejoin="round" stroke-miterlimit="4" stroke="#666666" stroke-width="2"><g><path d="M 76 10L 12 10"></path><path d="M 18 3.5L 11.5 10L 18 16.5" stroke-dasharray="none"></path></g></g></g><g id="g-root-1.cu_sy_1cymu2a1r12ux8-stroke" data-item-order="-105822" data-item-id="1.cu_sy_1cymu2a1r12ux8" data-item-class="ScenePart Part Indexed Indexed_1 Fill Stroke ColorStrokeBlack" data-item-index="1" data-renderer-id="0" transform="translate(231.93130493164062, 3)"><g id="1.cu_sy_1cymu2a1r12ux8-stroke" fill="none" stroke-linecap="round" stroke-linejoin="round" stroke-miterlimit="4" stroke="#2c2c2c" stroke-width="2"><g><path d="M 63.800895 123.3513C 62.582895 121.4648 61.884095 119.2289 61.893995 116.8133C 61.913995 110.1955 67.295095 104.8553 73.914095 104.8753C 80.533095 104.8953 85.874295 110.2754 85.854395 116.8932C 85.854395 119.2688 85.145495 121.4847 83.947495 123.3413C 83.138795 124.589 83.967495 126.8748 85.454995 126.8748L 116.433695 126.8748L 116.433695 85.9202C 116.433695 84.433 118.719895 83.6045 119.967795 84.413C 121.824695 85.6108 124.041095 86.3195 126.417195 86.3195C 133.036195 86.3394 138.417295 80.9993 138.437195 74.3815C 138.457195 67.7636 133.115995 62.3835 126.496995 62.3636C 124.090995 62.3636 121.844695 63.0623 119.957795 64.2701C 118.709895 65.0786 116.423695 64.2501 116.423695 62.7628L 116.423695 10C 115.794795 10 115.175795 10 114.546795 10C 57.690995 10.7885 11.197995 57.0134 10.089795 113.8488C 9.999995 118.2507 10.199595 122.6027 10.628895 126.8748L 62.293295 126.8748C 63.780895 126.8748 64.609495 124.589 63.800895 123.3413L 63.800895 123.3513Z"></path></g></g></g><g id="g-root-1.line_sy_18itbxu1r12vph-stroke" data-item-order="-105819" data-item-id="1.line_sy_18itbxu1r12vph" data-item-class="ScenePart Part Indexed Indexed_1 Stroke ColorStrokeBlack" data-item-index="1" data-renderer-id="0" transform="translate(170, 51)"><g id="1.line_sy_18itbxu1r12vph-stroke" fill="none" stroke-linecap="round" stroke-linejoin="round" stroke-miterlimit="4" stroke="#666666" stroke-width="2"><g><path d="M 10 10L 74 10"></path><path d="M 68 16.5L 74.5 10L 68 3.5" stroke-dasharray="none"></path></g></g></g><g id="g-root-tx_healthca_1qd7pv61r12uit-stroke" data-item-order="0" data-item-id="tx_healthca_1qd7pv61r12uit" data-item-class="Label Stroke SceneTarget Indexed Indexed_1 ColorStrokeBlack" data-item-index="1" data-renderer-id="0" transform="translate(2, 39)"></g><g id="g-root-2_dl2lrm1r18iyq-stroke" data-item-order="0" data-item-id="2_dl2lrm1r18iyq" data-item-class="Icon Stroke SceneTarget Indexed Indexed_1 ColorStrokeBlack" data-item-index="1" data-renderer-id="0" transform="translate(122, 33)"><g id="2_dl2lrm1r18iyq-stroke" fill="none" stroke-linecap="round" stroke-linejoin="round" stroke-miterlimit="4" stroke="#666666" stroke-width="2"><g><path d="M 39.005714 34.017143C 39.982178 33.089859 40.53508 31.802317 40.53508 30.455713C 40.53508 29.109112 39.982178 27.821571 39.005714 26.894285C 36.951763 24.944883 33.731094 24.944883 31.677143 26.894285L 28 30.571428L 24.322857 26.894285C 22.268906 24.944883 19.048237 24.944883 16.994286 26.894285C 16.017822 27.821571 15.464921 29.109112 15.464921 30.455713C 15.464921 31.802317 16.017822 33.089859 16.994286 34.017143L 28 44.714287ZM 22.857143 16.428572C 22.857143 19.268892 25.159678 21.571428 28 21.571428C 30.840321 21.571428 33.142857 19.268892 33.142857 16.428572C 33.142857 13.588249 30.840321 11.285714 28 11.285714C 25.159678 11.285714 22.857143 13.588249 22.857143 16.428572"></path></g></g></g><g id="g-root-buy_v3lz1u1r19xc5-stroke" data-item-order="0" data-item-id="buy_v3lz1u1r19xc5" data-item-class="Icon Stroke SceneTarget Indexed ColorStrokeBlack" data-item-index="2" data-renderer-id="0" transform="translate(518, 33)"><g id="buy_v3lz1u1r19xc5-stroke" fill="none" stroke-linecap="round" stroke-linejoin="round" stroke-miterlimit="4" stroke="#666666" stroke-width="2"><g><path d="M 29.575001 22L 27.07 29.5L 19.57 29.5L 17.32 22L 29.575001 22M 19.57 22L 21.82 18.25M 27.07 22L 24.82 18.25M 32.575001 43L 29.32 37.614998C 27.49 34.824997 32.005001 33.895 34.074997 38.529999L 34.074997 27.25C 34.075001 26.00736 35.082359 25 36.325001 25C 37.567642 25 38.575001 26.00736 38.575001 27.25L 38.574997 33.625L 43.779999 35.349998C 44.761391 35.634373 45.352547 36.632771 45.130001 37.630001C 44.949997 38.364998 43.885002 43 43.855 43M 25.825001 35.5L 12.325 35.5C 11.496572 35.5 10.825 34.828426 10.825 34L 10.825 14.5C 10.825 13.671573 11.496572 13 12.325 13L 40.824997 13C 41.653427 13 42.324997 13.671573 42.324997 14.5L 42.324997 29.875M 19.075001 40L 26.575001 40M 24.325001 35.5L 24.325001 40"></path></g></g></g><g id="g-root-tx_ecommerc_1uua65u1r12vwo-stroke" data-item-order="0" data-item-id="tx_ecommerc_1uua65u1r12vwo" data-item-class="Label Stroke SceneTarget Indexed ColorStrokeBlack" data-item-index="2" data-renderer-id="0" transform="translate(566, 39)"></g><g id="g-root-tx_finance_zqx67m1r12uiu-stroke" data-item-order="0" data-item-id="tx_finance_zqx67m1r12uiu" data-item-class="Label Stroke SceneTarget Indexed ColorStrokeBlack" data-item-index="3" data-renderer-id="0" transform="translate(26, 183)"></g><g id="g-root-decr_1q5q0tu1r19wjv-stroke" data-item-order="0" data-item-id="decr_1q5q0tu1r19wjv" data-item-class="Icon Stroke SceneTarget Indexed ColorStrokeBlack" data-item-index="3" data-renderer-id="0" transform="translate(122, 177)"><g id="decr_1q5q0tu1r19wjv-stroke" fill="none" stroke-linecap="round" stroke-linejoin="round" stroke-miterlimit="4" stroke="#666666" stroke-width="2"><g><path d="M 22.460501 32.609501C 18.767302 28.992813 17.623255 23.504148 19.563969 18.71314C 21.504683 13.922132 26.146063 10.776996 31.315145 10.750193C 36.484226 10.72339 41.157974 13.820226 43.148266 18.590851C 45.138561 23.361475 44.051495 28.86171 40.396 32.516499M 32.131001 28.651001L 32.131001 30.348999M 32.131001 16.75L 32.131001 18.452499M 29.5825 26.101C 29.582502 27.509327 30.724176 28.651001 32.1325 28.651001C 33.540829 28.651001 34.682503 27.509327 34.682503 26.101002C 34.682503 24.692675 33.540829 23.551001 32.1325 23.551001C 30.724176 23.551001 29.582502 22.409327 29.582502 21.001001C 29.582502 19.592674 30.724176 18.451 32.1325 18.451C 33.540829 18.451 34.682503 19.592674 34.682503 21.001001M 11.881 28.75L 24.4345 39.91C 24.980892 40.39529 25.797491 40.416195 26.368 39.959499L 31.8685 35.560001C 32.450027 35.094917 33.284702 35.126846 33.828999 35.635002L 44.131001 45.25M 38.131001 45.25L 44.131001 45.25L 44.131001 39.2845"></path></g></g></g><g id="g-root-buil_1cuvzjm1r19uz0-stroke" data-item-order="0" data-item-id="buil_1cuvzjm1r19uz0" data-item-class="Icon Stroke SceneTarget Indexed ColorStrokeBlack" data-item-index="4" data-renderer-id="0" transform="translate(518, 177)"><g id="buil_1cuvzjm1r19uz0-stroke" fill="none" stroke-linecap="round" stroke-linejoin="round" stroke-miterlimit="4" stroke="#666666" stroke-width="2"><g><path d="M 11.5 24.25L 26.5 24.25C 26.5 24.25 27.25 24.25 27.25 25L 27.25 44.5C 27.25 44.5 27.25 45.25 26.5 45.25L 11.5 45.25C 11.5 45.25 10.75 45.25 10.75 44.5L 10.75 25C 10.75 25 10.75 24.25 11.5 24.25M 24.25 24.25L 24.25 16C 24.25 15.585787 23.914213 15.25 23.5 15.25L 14.5 15.25C 14.085787 15.25 13.75 15.585787 13.75 16L 13.75 24.25M 18.25 15.25L 18.25 10.75M 32.5 19.75L 44.5 19.75C 44.5 19.75 45.25 19.75 45.25 20.5L 45.25 44.5C 45.25 44.5 45.25 45.25 44.5 45.25L 32.5 45.25C 32.5 45.25 31.75 45.25 31.75 44.5L 31.75 20.5C 31.75 20.5 31.75 19.75 32.5 19.75M 34.75 24.25L 42.25 24.25M 34.75 28.75L 42.25 28.75M 34.75 33.25L 42.25 33.25M 34.75 37.75L 42.25 37.75M 13.75 28.75L 24.25 28.75M 13.75 33.25L 24.25 33.25M 13.75 37.75L 24.25 37.75M 16.75 19.724499L 21.25 19.724499M 19.75 45.25L 19.75 41.5C 19.75 41.085785 19.414213 40.75 19 40.75L 17.5 40.75C 17.085787 40.75 16.75 41.085785 16.75 41.5L 16.75 45.25M 40.75 45.25L 40.75 41.5C 40.75 41.085785 40.414215 40.75 40 40.75L 38.5 40.75C 38.085785 40.75 37.75 41.085785 37.75 41.5L 37.75 45.25"></path></g></g></g><g id="g-root-tx_smartcit_dkg4oi1r12tqn-stroke" data-item-order="0" data-item-id="tx_smartcit_dkg4oi1r12tqn" data-item-class="Label Stroke SceneTarget Indexed ColorStrokeBlack" data-item-index="4" data-renderer-id="0" transform="translate(566, 183)"></g></g></g></svg>