<?xml version="1.0" encoding="utf-8" standalone="yes"?>
<!DOCTYPE svg PUBLIC "-//W3C//DTD SVG 1.1//EN" "http://www.w3.org/Graphics/SVG/1.1/DTD/svg11.dtd">
<svg width="532" height="594" viewBox="0 0 532 594" style="fill:none;stroke:none;fill-rule:evenodd;clip-rule:evenodd;stroke-linecap:round;stroke-linejoin:round;stroke-miterlimit:1.5;" version="1.1" xmlns="http://www.w3.org/2000/svg" xmlns:xlink="http://www.w3.org/1999/xlink"><style id="fontImports">@import url("https://fonts.googleapis.com/css2?family=Shantell+Sans:wght@300..800&amp;display=block");</style><rect id="" x="0" y="0" width="532" height="594" style="fill: #ffffff;"></rect><g id="items" style="isolation: isolate"><g id="blend" style="mix-blend-mode:multiply"><g id="g-root--1.cu-2_sy_mbpwgy1u2u6tj-fill" data-item-order="-268124" data-item-id="-1.cu-2_sy_mbpwgy1u2u6tj" data-item-class="ScenePart Part Fill Stroke ColorFillGray" data-item-index="-1" data-renderer-id="0" transform="translate(4, 4)"><g id="-1.cu-2_sy_mbpwgy1u2u6tj-fill" stroke="none" fill="#eaeaea"><g><path d="M 516.1 537.5L 516.1 538.5L 495.8 527.9L 496.1 538ZM 495.8 527.9L 481.9 537.2L 501.8 548L 516.1 538.5ZM 501.8 548L 502.1 525.8L 482.2 516.1L 481.9 537.2ZM 482.2 516.1L 455.1 537.9L 473.1 549.1L 502.1 525.8ZM 473.1 549.1L 478.8 523.7L 460.9 512L 455.1 537.9ZM 460.9 512L 433.7 532.1L 454 542L 478.8 523.7ZM 454 542L 453.6 528.4L 433.3 519.4L 433.7 532.1ZM 433.3 519.4L 414.6 535.5L 435.6 543.8L 453.6 528.4ZM 435.6 543.8L 433.6 524.1L 412.6 515.3L 414.6 535.5ZM 412.6 515.3L 390.1 533.3L 410.1 542.9L 433.6 524.1ZM 410.1 542.9L 410 525L 389.9 515.9L 390.1 533.3ZM 389.9 515.9L 368.5 534.4L 389.1 543L 410 525ZM 389.1 543L 387.5 518.5L 367.2 514L 368.5 534.4ZM 367.2 514L 353.2 539.5L 373.5 544.1L 387.5 518.5ZM 373.5 544.1L 372.3 522.7L 351.7 513.4L 353.2 539.5ZM 351.7 513.4L 328.2 531.5L 346.1 542.9L 372.3 522.7ZM 346.1 542.9L 349.8 526.3L 331.8 515.2L 328.2 531.5ZM 331.8 515.2L 306 536.2L 324.5 547L 349.8 526.3ZM 324.5 547L 327.8 527.6L 309.4 516.7L 306 536.2ZM 309.4 516.7L 282.2 538.6L 301 549.2L 327.8 527.6ZM 301 549.2L 304.5 522.3L 285.4 514.1L 282.2 538.6ZM 285.4 514.1L 264.5 539.7L 285.7 545.3L 304.5 522.3ZM 285.7 545.3L 282 523.2L 260.7 516.9L 264.5 539.7ZM 260.7 516.9L 242.7 536.6L 264.6 542.3L 282 523.2ZM 264.6 542.3L 259.8 521.8L 237.8 515.6L 242.7 536.6ZM 237.8 515.6L 216.6 537.1L 237.1 544.7L 259.8 521.8ZM 237.1 544.7L 235.5 520.1L 215.1 515.3L 216.6 537.1ZM 215.1 515.3L 201.5 538.7L 221.4 544.4L 235.5 520.1ZM 221.4 544.4L 222.1 519.4L 202.3 511.5L 201.5 538.7ZM 202.3 511.5L 179.3 537.3L 197.7 546.7L 222.1 519.4ZM 197.7 546.7L 201.5 529.3L 183.3 518.6L 179.3 537.3ZM 183.3 518.6L 159.1 539.5L 178.7 549L 201.5 529.3ZM 178.7 549L 179.9 523.3L 160.3 512.8L 159.1 539.5ZM 160.3 512.8L 132.1 533.4L 151.7 543.9L 179.9 523.3ZM 151.7 543.9L 152.4 526.2L 132.7 516.5L 132.1 533.4ZM 132.7 516.5L 113.5 532.5L 131.4 543.6L 152.4 526.2ZM 131.4 543.6L 136.8 520.8L 118.8 509.9L 113.5 532.5ZM 118.8 509.9L 90.8 534L 111.7 542.4L 136.8 520.8ZM 111.7 542.4L 110.3 527.8L 89.4 518.7L 90.8 534ZM 89.4 518.7L 69 534.3L 89.2 544L 110.3 527.8ZM 89.2 544L 88.8 523.4L 68.5 513.8L 69 534.3ZM 68.5 513.8L 45.6 531.5L 64 542.6L 88.8 523.4ZM 64 542.6L 67.9 520.6L 49 512.5L 45.6 531.5ZM 49 512.5L 30.3 538.2L 52.3 542.1L 67.9 520.6ZM 52.3 542.1L 47.6 526.1L 24.4 517.8L 30.3 538.2ZM 24.4 517.8L 4.7 531.2L 16.1 547.7L 47.6 526.1ZM 16.1 547.7L 23 543L 11.7 526.5L 4.7 531.2ZM 495.4 517.3L 496 510.5L 477 499.2L 475.5 515.5ZM 477 499.2L 459.6 511L 480.6 520.9L 496 510.5ZM 480.6 520.9L 480 514.9L 458.7 502.2L 459.6 511ZM 458.7 502.2L 439.4 510.4L 462.2 522.5L 480 514.9ZM 462.2 522.5L 459.8 510.4L 437.4 499.9L 439.4 510.4ZM 437.4 499.9L 415.8 511.6L 437.3 522.7L 459.8 510.4ZM 437.3 522.7L 436.6 517.3L 414.6 501.8L 415.8 511.6ZM 414.6 501.8L 389.2 507.5L 406.2 524.2L 436.6 517.3ZM 406.2 524.2L 409 510.7L 391.4 497.1L 389.2 507.5ZM 391.4 497.1L 369.9 507.7L 381.3 524.4L 409 510.7ZM 381.3 524.4L 385.8 520.2L 374.1 503.8L 369.9 507.7ZM 374.1 503.8L 353 515.3L 374.1 526.6L 385.8 520.2ZM 374.1 526.6L 372.9 513.5L 351.8 501.2L 353 515.3ZM 351.8 501.2L 331 510.7L 347.2 525.3L 372.9 513.5ZM 347.2 525.3L 348.8 520.7L 334.1 501.6L 331 510.7ZM 334.1 501.6L 318 502.7L 317.4 503.1L 313.5 503L 288.7 506.3L 306.2 523.8L 315 522.5L 312.6 522L 320.6 522.5L 348.8 520.7ZM 306.2 523.8L 307.5 515.4L 289.7 500.2L 288.7 506.3ZM 289.7 500.2L 264.2 508.4L 276.8 525.4L 307.5 515.4ZM 276.8 525.4L 282.8 516.6L 269.6 500.6L 264.2 508.4ZM 269.6 500.6L 240.1 513.4L 261.9 525.7L 282.8 516.6ZM 261.9 525.7L 260.2 513.1L 238.3 499.9L 240.1 513.4ZM 238.3 499.9L 222.5 505.8L 242.3 519.8L 260.2 513.1ZM 242.3 519.8L 242.5 511.1L 222.7 497.7L 222.5 505.8ZM 222.7 497.7L 195.2 509L 219.3 520.7L 242.5 511.1ZM 219.3 520.7L 217.3 513.7L 193.5 503.1L 195.2 509ZM 193.5 503.1L 177.8 510.8L 194.7 524.8L 217.3 513.7ZM 194.7 524.8L 197.9 513.1L 180.8 500.1L 177.8 510.8ZM 180.8 500.1L 156.6 514.4L 174.2 527.2L 197.9 513.1ZM 174.2 527.2L 178 510.5L 160.5 497.4L 156.6 514.4ZM 160.5 497.4L 130.6 514L 148.9 526.8L 178 510.5ZM 148.9 526.8L 151.5 510L 133 499L 130.6 514ZM 133 499L 114 513.5L 128.5 527.5L 151.5 510ZM 128.5 527.5L 134.6 519.1L 122 502.3L 114 513.5ZM 122 502.3L 91.1 513L 115.3 525.7L 134.6 519.1ZM 115.3 525.7L 110.9 509.3L 87 497.7L 91.1 513ZM 87 497.7L 67.2 506.1L 82.4 521.4L 110.9 509.3ZM 82.4 521.4L 85.6 513.8L 70.6 498L 67.2 506.1ZM 70.6 498L 46 506.9L 59 523.5L 85.6 513.8ZM 59 523.5L 63.2 517.1L 49.4 501.8L 46 506.9ZM 49.4 501.8L 26.2 514.1L 44.9 526.8L 63.2 517.1ZM 44.9 526.8L 46.8 509.8L 27.7 500.6L 26.2 514.1ZM 27.7 500.6L 3.5 525L 22.7 534L 46.8 509.8ZM 22.7 534L 24.5 516L 4.6 513.9L 3.5 525ZM 507.3 248.2L 509.8 230.4L 490.7 222.7L 487.5 245.5ZM 490.7 222.7L 470.3 250.6L 491 256.2L 509.8 230.4ZM 491 256.2L 489.2 238.3L 468.4 230.5L 470.3 250.6ZM 468.4 230.5L 448.3 249.4L 472.1 254.4L 489.2 238.3ZM 472.1 254.4L 464.3 235.8L 440.5 230.8L 448.3 249.4ZM 440.5 230.8L 423.9 246.4L 444.6 254.4L 464.3 235.8ZM 444.6 254.4L 442.9 234.3L 422.3 227.2L 423.9 246.4ZM 422.3 227.2L 399.8 251.8L 419.2 260.2L 442.9 234.3ZM 419.2 260.2L 421.2 235.4L 402 224.9L 399.8 251.8ZM 402 224.9L 376.6 244.2L 394.6 255.7L 421.2 235.4ZM 394.6 255.7L 399.1 235.2L 380.8 225.1L 376.6 244.2ZM 380.8 225.1L 355.1 250.1L 373.5 260.1L 399.1 235.2ZM 373.5 260.1L 378.8 233.6L 360.5 223.6L 355.1 250.1ZM 360.5 223.6L 337.9 245.7L 359.4 252.6L 378.8 233.6ZM 359.4 252.6L 357 239.1L 335.1 230.2L 337.9 245.7ZM 335.1 230.2L 316 243.9L 340 251.3L 357 239.1ZM 340 251.3L 333.4 233.4L 310.5 228.8L 316 243.9ZM 310.5 228.8L 291.7 249.5L 310.8 258.2L 333.4 233.4ZM 310.8 258.2L 313.9 231.5L 294.6 223.7L 291.7 249.5ZM 294.6 223.7L 272.6 252.3L 291.8 260.1L 313.9 231.5ZM 291.8 260.1L 294.1 240.9L 275.4 229.4L 272.6 252.3ZM 275.4 229.4L 250.8 245.8L 272.8 255.2L 294.1 240.9ZM 272.8 255.2L 268.6 231.4L 247.2 225.7L 250.8 245.8ZM 247.2 225.7L 225.9 251L 245.8 258.4L 268.6 231.4ZM 245.8 258.4L 246.1 229.7L 226.2 224.2L 225.9 251ZM 226.2 224.2L 209 253.7L 229.5 258.2L 246.1 229.7ZM 229.5 258.2L 227.6 237.3L 206.9 229.9L 209 253.7ZM 206.9 229.9L 186.6 250.7L 207.7 257.8L 227.6 237.3ZM 207.7 257.8L 204.3 231.2L 183.5 226.1L 186.6 250.7ZM 183.5 226.1L 167.5 249.4L 187.1 256.1L 204.3 231.2ZM 187.1 256.1L 188.4 233L 168.9 224.1L 167.5 249.4ZM 168.9 224.1L 143.5 248.7L 166.4 254.4L 188.4 233ZM 166.4 254.4L 159.9 234.7L 137.6 230.7L 143.5 248.7ZM 137.6 230.7L 123.6 248.4L 144.6 254L 159.9 234.7ZM 144.6 254L 142.2 237.2L 120.8 229L 123.6 248.4ZM 120.8 229L 96 249.7L 114 260.7L 142.2 237.2ZM 114 260.7L 119.1 237.9L 101 227.1L 96 249.7ZM 101 227.1L 73.5 251.1L 92 261.5L 119.1 237.9ZM 92 261.5L 96.1 238L 77.8 226.5L 73.5 251.1ZM 77.8 226.5L 51.4 245.5L 68.3 258L 96.1 238ZM 68.3 258L 75.7 235.9L 57.8 226.4L 51.4 245.5ZM 57.8 226.4L 40.3 249.3L 60.3 256.1L 75.7 235.9ZM 60.3 256.1L 60.3 240.4L 40.2 226.9L 40.3 249.3ZM 40.2 226.9L 15 236.8L 32.5 251.4L 60.3 240.4ZM 32.5 251.4L 36.9 230L 17.3 225.9L 15 236.8ZM 504.2 231.9L 508.7 199.6L 489.6 191.5L 484.4 229.2ZM 489.6 191.5L 464 224.2L 483.4 231.8L 508.7 199.6ZM 483.4 231.8L 486 202.4L 467.1 188.6L 464 224.2ZM 467.1 188.6L 447 197.1L 467 210.4L 486 202.4ZM 467 210.4L 467.1 149.7L 447.1 147.5L 447 197.1ZM 447.1 147.5L 429 227.1L 449.5 227.3L 467.1 149.7ZM 449.5 227.3L 442.9 195.5L 421.8 192L 429 227.1ZM 421.8 192L 399.3 229.7L 419.1 235.4L 442.9 195.5ZM 419.1 235.4L 419.9 204.5L 400.1 197.8L 399.3 229.7ZM 400.1 197.8L 380.1 225.6L 400 232.2L 419.9 204.5ZM 400 232.2L 400.4 200.4L 380.5 187.3L 380.1 225.6ZM 380.5 187.3L 357.3 197.7L 376.4 211.1L 400.4 200.4ZM 376.4 211.1L 385.6 84.9L 365.8 81.9L 357.3 197.7ZM 365.8 81.9L 337.4 203.9L 357.3 206.6L 385.6 84.9ZM 357.3 206.6L 363.7 70L 343.8 67.3L 337.4 203.9ZM 343.8 67.3L 311.6 207.4L 331.5 210.2L 363.7 70ZM 331.5 210.2L 340.1 59.7L 320.2 57.2L 311.6 207.4ZM 320.2 57.2L 291.9 200.6L 311.8 202.9L 340.1 59.7ZM 311.8 202.9L 317.1 47.9L 297.2 46L 291.9 200.6ZM 297.2 46L 273.2 200.1L 293.2 201.8L 317.1 47.9ZM 293.2 201.8L 296 32L 276 30.7L 273.2 200.1ZM 276 30.7L 256.1 204.9L 276.1 206.1L 296 32ZM 276.1 206.1L 277.3 15L 257.3 13.2L 256.1 204.9ZM 257.3 13.2L 224 198.8L 243.9 201.3L 277.3 15ZM 243.9 201.3L 254.9 29.6L 235 27.7L 224 198.8ZM 235 27.7L 209.9 231.6L 230 232L 254.9 29.6ZM 230 232L 226.7 195.6L 206.3 191.6L 209.9 231.6ZM 206.3 191.6L 187.4 227.5L 207.7 232L 226.7 195.6ZM 207.7 232L 206.3 200L 185.9 188.9L 187.4 227.5ZM 185.9 188.9L 166.2 200.7L 185.6 212.4L 206.3 200ZM 185.6 212.4L 193.6 67.7L 173.7 65.3L 166.2 200.7ZM 173.7 65.3L 143.4 226.3L 163.3 228.6L 193.6 67.7ZM 163.3 228.6L 164.6 201.4L 144.9 193.7L 143.4 226.3ZM 144.9 193.7L 121 222.2L 139.3 231.5L 164.6 201.4ZM 139.3 231.5L 146.9 200.5L 128.6 191.3L 121 222.2ZM 128.6 191.3L 102.3 223.3L 123.6 228.8L 146.9 200.5ZM 123.6 228.8L 118.5 200.6L 97.2 195.6L 102.3 223.3ZM 97.2 195.6L 75.6 224.7L 95.3 231.7L 118.5 200.6ZM 95.3 231.7L 96.8 200.4L 77.4 187L 75.6 224.7ZM 77.4 187L 58.8 195.2L 78.4 208.4L 96.8 200.4ZM 78.4 208.4L 80.5 143L 60.6 138.6L 58.8 195.2ZM 60.6 138.6L 34.3 199.8L 53.7 205.5L 80.5 143ZM 53.7 205.5L 61 160.8L 41.5 156L 34.3 199.8ZM 41.5 156L 16.9 230.5L 36.8 234.1L 61 160.8ZM 36.8 234.1L 38.3 196.6L 18.3 195.8L 16.9 230.5ZM 510.7 204.4L 513.6 180.9L 494.6 171.5L 490.9 202ZM 494.6 171.5L 468 197.9L 486.9 207.3L 513.6 180.9ZM 486.9 207.3L 493.3 158L 473.8 153.3L 468 197.9ZM 473.8 153.3L 448.7 224.2L 468.6 228.2L 493.3 158ZM 468.6 228.2L 469.5 211L 450.5 190.5L 448.7 224.2ZM 450.5 190.5L 447.7 190.4L 444.9 132L 424.8 129.6L 427.7 190.7L 447.9 210.4L 469.5 211ZM 424.8 129.6L 403.3 203L 423.2 206.1L 444.9 132ZM 423.2 206.1L 425.7 118.7L 405.7 115.7L 403.3 203ZM 405.7 115.7L 382 203.3L 402 206L 425.7 118.7ZM 402 206L 402.3 97.9L 382.3 96.2L 382 203.3ZM 382.3 96.2L 360.8 224L 380.8 225.9L 402.3 97.9ZM 380.8 225.9L 381.3 204.1L 361.4 196.3L 360.8 224ZM 361.4 196.3L 335.2 225.6L 353.8 234.7L 381.3 204.1ZM 353.8 234.7L 360.3 198.9L 341.7 189.8L 335.2 225.6ZM 341.7 189.8L 312.1 222.5L 331 231.3L 360.3 198.9ZM 331 231.3L 334.9 202.8L 315.8 195L 312.1 222.5ZM 315.8 195L 293.9 224.7L 313.4 232L 334.9 202.8ZM 313.4 232L 315.6 204.5L 296.1 197.1L 293.9 224.7ZM 296.1 197.1L 272.3 228.6L 291.7 236.2L 315.6 204.5ZM 291.7 236.2L 295.6 196L 276.1 190L 272.3 228.6ZM 276.1 190L 254.9 228.9L 275.9 232.2L 295.6 196ZM 275.9 232.2L 270.4 203.8L 248.8 197.5L 254.9 228.9ZM 248.8 197.5L 224.9 222.5L 244.1 231.4L 270.4 203.8ZM 244.1 231.4L 247.4 201L 228.8 186.6L 224.9 222.5ZM 228.8 186.6L 205.6 195.4L 225.3 209.3L 247.4 201ZM 225.3 209.3L 229.4 37.1L 209.4 35.6L 205.6 195.4ZM 209.4 35.6L 188.2 203.7L 208.1 205.4L 229.4 37.1ZM 208.1 205.4L 214.7 53.7L 194.7 51.6L 188.2 203.7ZM 194.7 51.6L 164.4 232L 184.5 233.1L 214.7 53.7ZM 184.5 233.1L 182.7 209.1L 163.2 190.7L 143.5 190.3L 162.9 210.2L 163.2 210.2L 164.4 232ZM 162.9 210.2L 166.5 85.6L 146.5 83.8L 143.5 190.3ZM 146.5 83.8L 127.8 207.1L 147.9 208.3L 166.5 85.6ZM 147.9 208.3L 144.8 95.2L 124.8 93.2L 127.8 207.1ZM 124.8 93.2L 99.1 205.6L 119 208.3L 144.8 95.2ZM 119 208.3L 124 116.6L 104.1 112.6L 99.1 205.6ZM 104.1 112.6L 73 201.6L 92.8 205.5L 124 116.6ZM 92.8 205.5L 96.8 133.8L 76.9 131.1L 73 201.6ZM 76.9 131.1L 55.6 229.6L 75.8 230.5L 96.8 133.8ZM 75.8 230.5L 71.7 195.8L 51.3 193.2L 55.6 229.6ZM 51.3 193.2L 36.6 230.5L 56.7 234L 71.7 195.8ZM 56.7 234L 55.5 196.7L 35.2 185.9L 36.6 230.5ZM 35.2 185.9L 11.1 201L 29.8 212.9L 55.5 196.7ZM 29.8 212.9L 34.7 175.1L 14.8 172.5L 11.1 201Z" fill-rule="nonzero"></path></g></g></g><g id="g-root--1.cu-1_sy_mbpwgy1u2u6tk-fill" data-item-order="-268122" data-item-id="-1.cu-1_sy_mbpwgy1u2u6tk" data-item-class="ScenePart Part Fill Stroke ColorFillGray" data-item-index="-1" data-renderer-id="0" transform="translate(48, 32)"><g id="-1.cu-1_sy_mbpwgy1u2u6tk-fill" stroke="none" fill="#eaeaea"><g><path d="M 422.3 152.1L 420.5 151L 400 138.8L 400.9 137.3L 402.4 141.1L 377.4 131.4L 381.7 142.8L 405.9 156.7L 402.9 157.2L 403.4 158.6ZM 377.4 131.4L 356.1 142.2L 374.1 155.5L 402.4 141.1ZM 374.1 155.5L 380.4 119.4L 361.5 111.3L 356.1 142.2ZM 361.5 111.3L 335.8 145.8L 355.4 153L 380.4 119.4ZM 355.4 153L 358.4 100.1L 338.6 95.8L 335.8 145.8ZM 338.6 95.8L 316.4 152.1L 336 156.9L 358.4 100.1ZM 336 156.9L 342.4 95.7L 322.9 89.7L 316.4 152.1ZM 322.9 89.7L 291.7 146.9L 311.3 152.6L 342.4 95.7ZM 311.3 152.6L 316.4 76.5L 296.6 72.8L 291.7 146.9ZM 296.6 72.8L 271.2 152.5L 291.1 155.8L 316.4 76.5ZM 291.1 155.8L 293.1 60.6L 273.1 57.6L 271.2 152.5ZM 273.1 57.6L 247.6 147.4L 267.5 150.6L 293.1 60.6ZM 267.5 150.6L 271.8 46.1L 251.9 43.9L 247.6 147.4ZM 251.9 43.9L 232.8 150.4L 252.9 151.7L 271.8 46.1ZM 252.9 151.7L 246.4 24.1L 226.3 23.3L 232.8 150.4ZM 226.3 23.3L 210.9 147.9L 230.9 148.7L 246.4 24.1ZM 230.9 148.7L 224.8 12.9L 204.7 12L 210.9 147.9ZM 204.7 12L 186.6 148.1L 206.6 149L 224.8 12.9ZM 206.6 149L 202 24.5L 181.9 23.2L 186.6 148.1ZM 181.9 23.2L 160.9 148.2L 180.9 150L 202 24.5ZM 180.9 150L 181.6 39.9L 161.6 37.8L 160.9 148.2ZM 161.6 37.8L 138.9 147.4L 158.9 149.4L 181.6 39.9ZM 158.9 149.4L 158.4 59.6L 138.4 57.9L 138.9 147.4ZM 138.4 57.9L 122.8 148.8L 142.8 150.6L 158.4 59.6ZM 142.8 150.6L 143.1 70.9L 123.1 68.3L 122.8 148.8ZM 123.1 68.3L 100 154L 119.9 157.1L 143.1 70.9ZM 119.9 157.1L 122.6 87.7L 102.7 83.5L 100 154ZM 102.7 83.5L 75.6 150.9L 95.7 154.7L 122.6 87.7ZM 95.7 154.7L 94.9 108.1L 74.9 104.3L 75.6 150.9ZM 74.9 104.3L 56.1 149.3L 75.6 154.3L 94.9 108.1ZM 75.6 154.3L 79.3 121.5L 59.9 114.6L 56.1 149.3ZM 59.9 114.6L 35.8 151.7L 57.5 155.1L 79.3 121.5ZM 57.5 155.1L 52.1 135.4L 29.8 129.9L 35.8 151.7ZM 29.8 129.9L 10.5 150.5L 27.2 162L 52.1 135.4ZM 27.2 162L 34.5 146.7L 16.5 138.1L 10.5 150.5Z" fill-rule="nonzero"></path></g></g></g><g id="g-root-3.cu_sy_4l2d2a1u2u60z-fill" data-item-order="-268120" data-item-id="3.cu_sy_4l2d2a1u2u60z" data-item-class="ScenePart Part Indexed Fill Stroke" data-item-index="3" data-renderer-id="0" transform="translate(364, 235.99996948242188)"><g id="3.cu_sy_4l2d2a1u2u60z-fill" stroke="none" fill="#fff9ce"><g><path d="M 118.9 18L 102.6 19.9L 104.9 39.7L 121.2 37.9ZM 86.3 24.5L 85.6 26.3L 77.1 49.2L 79.9 59.8L 29.5 81.1L 35.3 100.4L 87.4 78.3L 98.5 52.3L 94.8 42.7L 95.9 42.1ZM 35.3 100.4L 112.6 86.4L 106.3 67.2L 29.5 81.1ZM 106.3 67.2L 25.4 107.1L 31.7 126.3L 112.6 86.4ZM 31.7 126.3L 114.1 111.2L 108.4 91.9L 25.4 107.1ZM 108.4 91.9L 23.8 127.1L 29.1 146.6L 114.1 111.2ZM 29.1 146.6L 114.5 134.9L 108.9 115.5L 23.8 127.1ZM 108.9 115.5L 23 154L 29.2 173.1L 114.5 134.9ZM 29.2 173.1L 118.3 153.8L 111.3 134.9L 23 154ZM 111.3 134.9L 26.6 180.3L 33.4 199.3L 118.3 153.8ZM 33.4 199.3L 117.9 182.6L 111.6 163.4L 26.6 180.3ZM 111.6 163.4L 22.4 204.9L 21.3 227.5L 117.9 182.6ZM 21.3 227.5L 41.1 239.2L 40.1 215.3L 22.4 204.9ZM 40.1 215.3L 4.9 240.7L 10.2 261.4L 41.1 239.2ZM 10.2 261.4L 47.9 265.9L 44.7 245.4L 4.9 240.7ZM 44.7 245.4L 0.1 265.8L 8.4 284L 47.9 265.9ZM 34.4 51.8L 25.8 61.1L 40.5 74.7L 49.2 65.3ZM 115.1 189.2L 60.2 207.8L 62.4 228.1L 121.5 208.2ZM 62.4 228.1L 107.8 233.4L 120.3 214.7L 60.2 207.8ZM 120.3 214.7L 121 216L 103.5 225.6L 107.8 233.4ZM 10.1 237.4L -0.6 245.7L 11.7 261.5L 22.3 253.3ZM 90.7 222.2L 57.5 234.3L 64.4 253.1L 97.6 241Z" fill-rule="nonzero"></path></g></g><g id="3.cu_sy_4l2d2a1u2u60z-fill" stroke="none" fill="#fff9ce"><g></g></g></g><g id="g-root-2.cu_sy_90vv6q1u2u58q-fill" data-item-order="-268118" data-item-id="2.cu_sy_90vv6q1u2u58q" data-item-class="ScenePart Part Indexed Fill Stroke" data-item-index="2" data-renderer-id="0" transform="translate(196, 235.94137573242188)"><g id="2.cu_sy_90vv6q1u2u58q-fill" stroke="none" fill="#d5f7e8"><g><path d="M 115.7 12.158594L 97.9 19.658594L 105.6 38.158594L 123.5 30.658594ZM 90.1 30.958594L 86.8 31.758594L 77.3 54.558594L 94.7 50.358594ZM 77.3 54.558594L 90.7 76.658594L 98.8 51.458594L 86.8 31.758594ZM 98.8 51.458594L 32.2 79.558594L 38 98.858594L 90.7 76.658594ZM 38 98.858594L 112 85.458594L 105.3 66.358594L 32.2 79.558594ZM 105.3 66.358594L 30.1 107.058594L 37.5 125.858594L 112 85.458594ZM 37.5 125.858594L 108.5 108.058594L 100.9 89.358594L 30.1 107.058594ZM 100.9 89.358594L 29.4 130.858594L 36.2 149.958594L 108.5 108.058594ZM 36.2 149.958594L 113.7 137.058594L 108.1 117.758594L 29.4 130.858594ZM 108.1 117.758594L 28.7 151.658594L 33.8 171.158594L 113.7 137.058594ZM 33.8 171.158594L 112 162.658594L 106.7 143.058594L 28.7 151.658594ZM 106.7 143.058594L 22.7 180.258594L 29.2 199.258594L 112 162.658594ZM 29.2 199.258594L 114.8 178.458594L 107.3 159.758594L 22.7 180.258594ZM 107.3 159.758594L 23.4 207.958594L 31.1 226.558594L 114.8 178.458594ZM 31.1 226.558594L 117.6 204.058594L 110.5 185.258594L 23.4 207.958594ZM 110.5 185.258594L 58.7 211.158594L 64.3 230.758594L 117.6 204.058594ZM 64.3 230.758594L 121.5 225.158594L 107.4 206.458594L 58.7 211.158594ZM 107.4 206.458594L 102.8 218.158594L 121.4 225.458594L 121.5 225.158594ZM 32.2 51.358594L 25.5 60.458594L 41.6 72.358594L 48.3 63.258594ZM 36.8 224.158594L 6 236.558594L 8.1 257.258594L 44.3 242.758594ZM 8.1 257.258594L 47 264.458594L 44 243.558594L 6 236.558594ZM 44 243.558594L 0.8 265.558594L 9.8 283.358594L 47 264.458594ZM 16.9 237.258594L 3.6 236.458594L 2.4 256.458594L 15.7 257.258594ZM 85.4 222.858594L 60.4 238.558594L 71 255.458594L 96 239.858594Z" fill-rule="nonzero"></path></g></g><g id="2.cu_sy_90vv6q1u2u58q-fill" stroke="none" fill="#d5f7e8"><g></g></g></g><g id="g-root-1.cu_sy_hvweci1u2u7lt-fill" data-item-order="-268116" data-item-id="1.cu_sy_hvweci1u2u7lt" data-item-class="ScenePart Part Indexed Indexed_1 Fill Stroke" data-item-index="1" data-renderer-id="0" transform="translate(28, 235.94137573242188)"><g id="1.cu_sy_hvweci1u2u7lt-fill" stroke="none" fill="#cef3ff"><g><path d="M 109.4 18.158594L 99.3 26.158594L 111.6 41.858594L 121.7 33.958594ZM 92.4 29.158594L 89.7 30.158594L 75.5 53.558594L 76.4 58.958594L 30.5 79.758594L 36.5 98.958594L 83.1 77.858594L 95.5 52.958594L 94.7 49.158594L 97.4 48.458594ZM 36.5 98.958594L 107.9 85.758594L 101.1 66.758594L 30.5 79.758594ZM 101.1 66.758594L 32.8 104.658594L 39.4 123.858594L 107.9 85.758594ZM 39.4 123.858594L 110.1 112.758594L 103.4 93.558594L 32.8 104.658594ZM 103.4 93.558594L 30.3 135.458594L 37.9 154.258594L 110.1 112.758594ZM 37.9 154.258594L 116.7 134.958594L 110.8 115.758594L 30.3 135.458594ZM 110.8 115.758594L 22.6 148.958594L 27.5 168.558594L 116.7 134.958594ZM 27.5 168.558594L 118.6 156.058594L 112.3 136.758594L 22.6 148.958594ZM 112.3 136.758594L 25.5 183.758594L 32.8 202.558594L 118.6 156.058594ZM 32.8 202.558594L 117.4 181.258594L 110.2 162.458594L 25.5 183.758594ZM 110.2 162.458594L 22.2 209.158594L 22.6 231.558594L 117.4 181.258594ZM 22.6 231.558594L 40.6 240.158594L 38.8 217.158594L 22.2 209.158594ZM 38.8 217.158594L 6.5 239.358594L 11.2 260.458594L 40.6 240.158594ZM 11.2 260.458594L 48 266.458594L 46.6 245.958594L 6.5 239.358594ZM 46.6 245.958594L -5.6 262.058594L 0.3 281.158594L 48 266.458594ZM 36.5 50.058594L 27.7 59.958594L 42.7 73.258594L 51.4 63.358594ZM 113.7 184.958594L 61.4 209.158594L 65.3 229.358594L 122.1 203.058594ZM 65.3 229.358594L 121.5 231.658594L 122.1 211.658594L 61.4 209.158594ZM 122.1 211.658594L 112.6 211.458594L 112.2 231.458594L 121.5 231.658594ZM 9.3 237.458594L 4.1 238.358594L 7.6 258.058594L 12.8 257.158594ZM 90.8 222.358594L 54.6 234.358594L 60.9 253.358594L 97.1 241.358594Z" fill-rule="nonzero"></path></g></g><g id="1.cu_sy_hvweci1u2u7lt-fill" stroke="none" fill="#cef3ff"><g></g></g></g><g id="g-root-plur_1luwejm1u32mtm-fill" data-item-order="0" data-item-id="plur_1luwejm1u32mtm" data-item-class="Icon Stroke SceneTarget SceneEnd InsideFill InsideGrayFill ColorFillGray" data-item-index="none" data-renderer-id="0" transform="translate(232, 56)"></g><g id="g-root-tx_bigdata_zofd0i1u2u7ev-fill" data-item-order="0" data-item-id="tx_bigdata_zofd0i1u2u7ev" data-item-class="Label Stroke SceneTarget SceneEnd InsideFill InsideGrayFill ColorFillGray" data-item-index="none" data-renderer-id="0" transform="translate(208, 127.99996948242188)"><g id="tx_bigdata_zofd0i1u2u7ev-fill" stroke="none" fill="#484848"><g><text style="font: 20px &quot;Shantell Sans&quot;, cursive; white-space: pre;"><tspan x="17" y="35" dominant-baseline="ideographic">Big Data</tspan></text></g></g></g><g id="g-root-hier_dg2w821u32n0n-fill" data-item-order="0" data-item-id="hier_dg2w821u32n0n" data-item-class="Icon Stroke SceneTarget Indexed Indexed_1 InsideFill" data-item-index="1" data-renderer-id="0" transform="translate(64, 355.9999694824219)"></g><g id="g-root-net_58uxu1u32lfs-fill" data-item-order="0" data-item-id="net_58uxu1u32lfs" data-item-class="Icon Stroke SceneTarget Indexed InsideFill" data-item-index="2" data-renderer-id="0" transform="translate(232, 355.9999694824219)"></g><g id="g-root-1_1uqjesi1u32m0x-fill" data-item-order="0" data-item-id="1_1uqjesi1u32m0x" data-item-class="Icon Stroke SceneTarget Indexed InsideFill" data-item-index="3" data-renderer-id="0" transform="translate(400, 356.0585632324219)"></g><g id="g-root-tx_volume_4l2d2a1u2u610-fill" data-item-order="0" data-item-id="tx_volume_4l2d2a1u2u610" data-item-class="Label Stroke SceneTarget Indexed Indexed_1" data-item-index="1" data-renderer-id="0" transform="translate(46, 548)"><g id="tx_volume_4l2d2a1u2u610-fill" stroke="none" fill="#484848"><g><text style="font: 20px &quot;Shantell Sans&quot;, cursive; white-space: pre;"><tspan x="17.17" y="35" dominant-baseline="ideographic">Volume</tspan></text></g></g></g><g id="g-root-tx_variety_1uqjesi1u2u6ml-fill" data-item-order="0" data-item-id="tx_variety_1uqjesi1u2u6ml" data-item-class="Label Stroke SceneTarget Indexed" data-item-index="2" data-renderer-id="0" transform="translate(214, 548)"><g id="tx_variety_1uqjesi1u2u6ml-fill" stroke="none" fill="#484848"><g><text style="font: 20px &quot;Shantell Sans&quot;, cursive; white-space: pre;"><tspan x="17.51" y="35" dominant-baseline="ideographic">Variety</tspan></text></g></g></g><g id="g-root-tx_velocity_1qapwo21u2u7eu-fill" data-item-order="0" data-item-id="tx_velocity_1qapwo21u2u7eu" data-item-class="Label Stroke SceneTarget Indexed" data-item-index="3" data-renderer-id="0" transform="translate(382, 548)"><g id="tx_velocity_1qapwo21u2u7eu-fill" stroke="none" fill="#484848"><g><text style="font: 20px &quot;Shantell Sans&quot;, cursive; white-space: pre;"><tspan x="14.11" y="35" dominant-baseline="ideographic">Velocity</tspan></text></g></g></g><g id="g-root--1.cu-2_sy_mbpwgy1u2u6tj-stroke" data-item-order="-268124" data-item-id="-1.cu-2_sy_mbpwgy1u2u6tj" data-item-class="ScenePart Part Fill Stroke ColorFillGray" data-item-index="-1" data-renderer-id="0" transform="translate(4, 4)"><g id="-1.cu-2_sy_mbpwgy1u2u6tj-stroke" fill="none" stroke-linecap="round" stroke-linejoin="round" stroke-miterlimit="4" stroke="#484848" stroke-width="4"><g><path d="M 502 230C 495.4 230.3 489.8 235.4 490 242C 472.5 242.4 455 242.2 437.5 242C 419.9 241.8 402.3 242.3 384.7 242C 367.1 241.7 349.4 242.1 331.7 242C 310.1 241.8 288.4 243.8 266.9 242C 246.5 240.3 226 240.4 205.7 242C 187 243.5 168.2 243.4 149.6 242C 129.6 240.6 109.5 242.4 89.5 242C 71 241.7 52.4 243.8 34 242C 33.7 235.4 28.6 229.7 22 230C 39.9 231 57.8 229.9 75.7 230C 92.7 230.1 109.7 229.4 126.7 230C 146.2 230.7 165.7 229.8 185.2 230C 202.8 230.2 220.4 230.8 237.9 230C 254.1 229.3 270.3 231 286.5 230C 303.6 228.9 320.7 229.8 337.8 230C 357.2 230.3 376.7 230.3 396.2 230C 412.7 229.7 429.2 230 445.7 230C 464.5 230.1 483.3 231 502 230M 22 206C 51.1 205.2 80.2 205.6 109.4 206C 133.4 206.3 157.6 207.5 181.6 206C 207.7 204.3 234 205.4 260.1 206C 284.9 206.6 309.7 206.7 334.4 206C 359.5 205.3 384.8 207.4 409.9 206C 440.5 204.2 471.3 205.5 502 206C 500.8 213.9 502.5 222 502 230C 480.4 230.6 458.8 231.1 437.2 230C 416.5 229 395.7 231 374.9 230C 353.9 229 332.9 230.2 311.9 230C 292 229.8 272 229.6 252.1 230C 234.8 230.4 217.4 229.6 200.1 230C 178.9 230.5 157.7 230.2 136.5 230C 117 229.8 97.5 229.1 78.1 230C 59.4 230.8 40.7 230.5 22 230C 22.7 222 23.9 213.8 22 206M 514 518C 507.6 516.3 500.1 512.3 502 506C 488.5 506.8 475 505.3 461.5 506C 449.4 506.6 437.3 506.8 425.2 506C 413.2 505.2 401.1 504.9 389.1 506C 377.8 507 366.2 504.1 355 506C 342.8 508.1 330.2 505 317.9 506C 305.6 507 293 507.7 280.8 506C 269.2 504.4 257.4 505.4 245.7 506C 233.5 506.6 221.2 505.5 209 506C 196.3 506.5 183.5 504.5 170.8 506C 158.6 507.5 146.2 504.6 134 506C 122.1 507.3 110 505.9 98.1 506C 86.1 506.1 74.1 507 62.2 506C 48.9 504.8 35.4 505.7 22 506C 22.2 512.6 16.6 519 10 518C 38.9 517.3 67.8 519.3 96.7 518C 125.8 516.7 155 517.6 184.2 518C 210.7 518.4 237.2 518.4 263.7 518C 292 517.6 320.4 519.2 348.6 518C 374.2 516.9 399.8 518.1 425.4 518C 454.9 517.9 484.5 517.2 514 518M 10 542C 30.9 540.2 52 542.6 72.9 542C 94.5 541.4 116 542 137.6 542C 159.8 542 182 540.1 204.1 542C 225.9 543.8 247.9 540.3 269.7 542C 288.5 543.5 307.4 542.3 326.2 542C 348.7 541.7 371.2 541.6 393.8 542C 413.5 542.4 433.4 540.5 453.1 542C 473.3 543.5 493.8 544 514 542C 513.1 534 512.8 525.9 514 518C 488.8 518 463.7 517.9 438.5 518C 415.6 518.1 392.7 518.2 369.8 518C 345.6 517.8 321.3 519.2 297.1 518C 272.3 516.8 247.4 517.3 222.6 518C 199.5 518.7 176.3 516.1 153.3 518C 131.6 519.8 109.6 516.3 87.9 518C 62 520 35.9 517 10 518C 9.7 526 10.2 534 10 542M 262 10C 276.7 22 293.1 31.8 309.2 41.9C 325.9 52.4 340.9 65.5 358.2 75C 378 85.9 396.5 99.1 414.3 112.9C 430.6 125.5 447.6 137.2 465.5 147.5C 482.4 157.2 498.7 168.1 514 180.3C 513.1 188.8 515.3 197.5 514 206C 501 207.2 487.8 204.5 474.9 206C 461.6 207.5 448.1 205.2 434.7 206C 420.8 206.8 406.8 205.2 392.9 206C 378.9 206.8 364.8 206.8 350.8 206C 337.4 205.2 323.8 207.2 310.3 206C 296.8 204.8 283.1 204.9 269.5 206C 256.2 207.1 242.8 206.2 229.4 206C 217.6 205.8 205.8 204.6 194.1 206C 181.8 207.4 169.4 206.9 157.1 206C 145.4 205.1 133.4 204.2 121.8 206C 109.5 208 96.8 206.7 84.4 206C 71.5 205.3 58.5 207.3 45.7 206C 33.8 204.8 21.9 206 10 206C 9.3 197.4 9.9 188.8 10 180.3C 26.3 171.5 40.8 159.8 55.9 149.2C 68.2 140.6 81 132.9 93.2 124.1C 107.4 113.7 122.8 105.1 136.8 94.6C 149.6 85 163.5 77.1 176.5 67.8C 190.3 57.8 204.5 48.5 218.7 39.2C 233.3 29.8 248.3 20.7 262 10"></path><path d="M 502 230C 495.3726 230 490 235.3726 490 242L 34 242C 34 235.3726 28.6274 230 22 230L 502 230ZM 22 206L 502 206L 502 230L 22 230L 22 206ZM 514 518C 507.3726 518 502 512.6274 502 506L 22 506C 22 512.6274 16.6274 518 10 518L 514 518ZM 10 542L 514 542L 514 518L 10 518L 10 542ZM 262 10L 514 180.2642L 514 206L 10 206L 10 180.2642L 262 10Z"></path></g></g></g><g id="g-root--1.cu-1_sy_mbpwgy1u2u6tk-stroke" data-item-order="-268122" data-item-id="-1.cu-1_sy_mbpwgy1u2u6tk" data-item-class="ScenePart Part Fill Stroke ColorFillGray" data-item-index="-1" data-renderer-id="0" transform="translate(48, 32)"><g id="-1.cu-1_sy_mbpwgy1u2u6tk-stroke" fill="none" stroke-linecap="round" stroke-linejoin="round" stroke-miterlimit="4" stroke="#484848" stroke-width="4"><g><path d="M 217.6 10C 206.2 16 196.5 24.8 185.9 32C 175.5 39.1 165.4 46.3 155.1 53.4C 144.6 60.6 134.4 68.2 123.8 75.1C 114.8 80.9 106 87 97.3 93.4C 87.8 100.5 77.8 106.7 68.2 113.6C 59.4 120 50.9 126.8 41.5 132.1C 30.4 138.5 20.4 146.6 10 154C 38.8 153.6 67.7 152.4 96.5 154C 123.4 155.5 150.5 155.9 177.4 154C 205.8 152 234.4 152.2 262.8 154C 289.7 155.7 316.7 154.3 343.6 154C 371 153.7 398.6 155.9 426 154C 407.5 141.9 389.2 129.5 371.4 116.3C 355.3 104.3 337.9 94 321.8 82C 305 69.4 287.5 57.7 270 46.2C 252.3 34.5 233.9 23.6 217.6 10"></path><path d="M 217.6449 10L 10 154L 426 154L 217.6449 10Z"></path></g></g></g><g id="g-root-3.cu_sy_4l2d2a1u2u60z-stroke" data-item-order="-268120" data-item-id="3.cu_sy_4l2d2a1u2u60z" data-item-class="ScenePart Part Indexed Fill Stroke" data-item-index="3" data-renderer-id="0" transform="translate(364, 235.99996948242188)"><g id="3.cu_sy_4l2d2a1u2u60z-stroke" fill="none" stroke-linecap="round" stroke-linejoin="round" stroke-miterlimit="4" stroke="#484848" stroke-width="4"><g><path d="M 34 58.1C 58 58.2 82 57.1 106 58.1C 108.2 84.2 107.8 110.7 111.6 136.7C 116 166.2 117.1 196.2 118 226.1C 102.4 227.2 86.7 224.8 71.2 226.1C 54.8 227.4 38.4 225.8 22 226.1C 22 215.9 23.5 205.8 24.2 195.6C 25 184.4 24.6 173 26.6 162C 28.6 150.3 30 138.3 29.1 126.5C 28.2 114.4 29.6 102.1 31.7 90.1C 33.6 79.6 35 68.7 34 58.1M 22 10C 37.4 8.9 53 9.1 68.4 10C 84.9 10.9 101.6 8.4 118 10C 117 18 118.6 26.1 118 34.1C 107.8 34.5 97.4 32.6 87.3 34.1C 77.5 35.5 67.4 34.5 57.4 34.1C 45.6 33.5 33.8 34.5 22 34.1C 20.8 26.1 20.6 17.9 22 10M 10 274.1C 30.3 276 50.7 274.5 71.1 274.1C 90.7 273.6 110.4 273.5 130 274.1C 131.3 266.2 130.1 258.1 130 250.1C 111.8 248.3 93.4 251.2 75.1 250.1C 53.5 248.8 31.7 249.6 10 250.1C 9.5 258 9.8 266.1 10 274.1M 22 34.1C 36.5 33.1 51.1 34.6 65.7 34.1C 83.1 33.4 100.6 32.5 118 34.1C 111.5 35.3 106.5 39.5 106 46.1C 82 47.2 58 46.6 34 46.1C 33.5 39.5 28.6 33.7 22 34.1M 10 250.1C 31.6 250.8 53.3 250.3 74.9 250.1C 93.3 249.9 111.7 249.6 130 250.1C 123.4 250.9 119 244.6 118 238.1C 86 238.2 54 237.4 22 238.1C 21.2 244.6 16.6 250.9 10 250.1"></path><path d="M 34 58.058594L 106 58.058594L 118 226.058594L 22 226.058594L 34 58.058594ZM 22 10L 118 10L 118 34.0583L 22 34.0583L 22 10ZM 10 274.058594L 130 274.058594L 130 250.058777L 10 250.058777L 10 274.058594ZM 22 34.058594L 118 34.058594C 111.3726 34.058594 106 39.431194 106 46.058594L 34 46.058594C 34 39.431194 28.6274 34.058594 22 34.058594ZM 10 250.058594L 130 250.058594C 123.3726 250.058594 118 244.685994 118 238.058594L 22 238.058594C 22 244.685994 16.6274 250.058594 10 250.058594Z"></path></g></g><g id="3.cu_sy_4l2d2a1u2u60z-stroke" fill="none" stroke-linecap="round" stroke-linejoin="round" stroke-miterlimit="4" stroke="#484848" stroke-width="4"><g><path d="M 37 46.1C 59 46.2 81 45.1 103 46.1C 103 46.1 114.1 46.1 115 52.1C 115 52.1 115 57.9 103 58.1C 81 58.3 59 59.3 37 58.1C 37 58.1 26.3 57.9 25 52.1C 25 52.1 25 47.1 37 46.1M 28 226.1C 56 226 84 226.4 112 226.1C 112 226.1 123.3 226.1 124 232.1C 124 232.1 123.9 239.2 112 238.1C 98.8 236.8 85.4 236.3 72.3 238.1C 57.7 240 42.7 239.4 28 238.1C 28 238.1 17 238 16 232.1C 16 232.1 16 225.2 28 226.1"></path><path d="M 37 46.058594L 103 46.058594C 103 46.058594 115 46.058594 115 52.058594L 115 52.058594C 115 52.058594 115 58.058594 103 58.058594L 37 58.058594C 37 58.058594 25 58.058594 25 52.058594L 25 52.058594C 25 52.058594 25 46.058594 37 46.058594M 28 226.058594L 112 226.058594C 112 226.058594 124 226.058594 124 232.058594L 124 232.058594C 124 232.058594 124 238.058594 112 238.058594L 28 238.058594C 28 238.058594 16 238.058594 16 232.058594L 16 232.058594C 16 232.058594 16 226.058594 28 226.058594"></path></g></g></g><g id="g-root-2.cu_sy_90vv6q1u2u58q-stroke" data-item-order="-268118" data-item-id="2.cu_sy_90vv6q1u2u58q" data-item-class="ScenePart Part Indexed Fill Stroke" data-item-index="2" data-renderer-id="0" transform="translate(196, 235.94137573242188)"><g id="2.cu_sy_90vv6q1u2u58q-stroke" fill="none" stroke-linecap="round" stroke-linejoin="round" stroke-miterlimit="4" stroke="#484848" stroke-width="4"><g><path d="M 34 58.058594C 57.9 56.058594 82 56.558594 106 58.058594C 108 87.358594 110 116.658594 112.3 145.958594C 114.4 172.658594 117.2 199.358594 118 226.058594C 107.7 226.058594 97.4 226.058594 87.1 226.058594C 76.3 226.058594 65.6 225.558594 54.9 226.058594C 43.9 226.558594 33 226.358594 22 226.058594C 24.1 207.358594 24.1 188.558594 26 169.858594C 28 150.158594 28.3 130.458594 30.2 110.858594C 32 93.258594 34.4 75.658594 34 58.058594M 22 9.958594C 31.7 10.458594 41.4 8.958594 51 9.958594C 61.6 11.158594 72.3 8.858594 82.8 9.958594C 94.5 11.258594 106.3 10.858594 118 9.958594C 118.7 17.958594 117.6 26.058594 118 34.058594C 86 34.058594 54 35.158594 22 34.058594C 20.8 26.158594 21.9 18.058594 22 9.958594M 10 274.058594C 30.8 272.558594 51.8 273.858594 72.6 274.058594C 91.8 274.258594 110.9 274.358594 130 274.058594C 129.5 266.058594 131.1 257.958594 130 250.058594C 109.3 248.258594 88.5 250.158594 67.8 250.058594C 48.5 249.958594 29.2 251.758594 10 250.058594C 10.2 258.058594 10.7 266.058594 10 274.058594M 22 34.058594C 54 32.158594 86.1 32.058594 118 34.058594C 111.4 34.158594 107.8 39.658594 106 46.058594C 82.1 44.258594 58 45.058594 34 46.058594C 33.7 39.458594 28.5 32.658594 22 34.058594M 10 250.058594C 31 251.458594 52.2 249.358594 73.2 250.058594C 92.1 250.658594 111.1 250.058594 130 250.058594C 123.4 249.358594 118.3 244.658594 118 238.058594C 102.8 240.058594 87.3 239.858594 72.1 238.058594C 55.5 236.058594 38.6 239.858594 22 238.058594C 21.3 244.658594 16.6 250.058594 10 250.058594"></path><path d="M 34 58.058594L 106 58.058594L 118 226.058594L 22 226.058594L 34 58.058594ZM 22 10L 118 10L 118 34.0583L 22 34.0583L 22 10ZM 10 274.058594L 130 274.058594L 130 250.058777L 10 250.058777L 10 274.058594ZM 22 34.058594L 118 34.058594C 111.3726 34.058594 106 39.431194 106 46.058594L 34 46.058594C 34 39.431194 28.6274 34.058594 22 34.058594ZM 10 250.058594L 130 250.058594C 123.3726 250.058594 118 244.685994 118 238.058594L 22 238.058594C 22 244.685994 16.6274 250.058594 10 250.058594Z"></path></g></g><g id="2.cu_sy_90vv6q1u2u58q-stroke" fill="none" stroke-linecap="round" stroke-linejoin="round" stroke-miterlimit="4" stroke="#484848" stroke-width="4"><g><path d="M 37 46.058594C 58.9 44.058594 81 44.558594 103 46.058594C 103 46.058594 114.8 46.058594 115 52.058594C 115 52.058594 115 58.158594 103 58.058594C 81 57.858594 59 59.158594 37 58.058594C 37 58.058594 25 58.058594 25 52.058594C 25 52.058594 25 46.058594 37 46.058594M 28 226.058594C 56 226.358594 84 226.558594 112 226.058594C 112 226.058594 124.6 226.058594 124 232.058594C 124 232.058594 124 238.758594 112 238.058594C 98.1 237.258594 84.1 238.458594 70.1 238.058594C 56.1 237.658594 41.9 236.458594 28 238.058594C 28 238.058594 15.1 237.958594 16 232.058594C 16 232.058594 16 225.558594 28 226.058594"></path><path d="M 37 46.058594L 103 46.058594C 103 46.058594 115 46.058594 115 52.058594L 115 52.058594C 115 52.058594 115 58.058594 103 58.058594L 37 58.058594C 37 58.058594 25 58.058594 25 52.058594L 25 52.058594C 25 52.058594 25 46.058594 37 46.058594M 28 226.058594L 112 226.058594C 112 226.058594 124 226.058594 124 232.058594L 124 232.058594C 124 232.058594 124 238.058594 112 238.058594L 28 238.058594C 28 238.058594 16 238.058594 16 232.058594L 16 232.058594C 16 232.058594 16 226.058594 28 226.058594"></path></g></g></g><g id="g-root-1.cu_sy_hvweci1u2u7lt-stroke" data-item-order="-268116" data-item-id="1.cu_sy_hvweci1u2u7lt" data-item-class="ScenePart Part Indexed Indexed_1 Fill Stroke" data-item-index="1" data-renderer-id="0" transform="translate(28, 235.94137573242188)"><g id="1.cu_sy_hvweci1u2u7lt-stroke" fill="none" stroke-linecap="round" stroke-linejoin="round" stroke-miterlimit="4" stroke="#484848" stroke-width="4"><g><path d="M 34 58.058594C 57.9 59.958594 82 58.858594 106 58.058594C 107.9 77.258594 108.7 96.458594 110.1 115.658594C 111.6 135.858594 112.1 156.058594 114.4 176.158594C 116.3 192.758594 115.7 209.558594 118 226.058594C 102.1 227.558594 86.1 225.858594 70.2 226.058594C 54.1 226.258594 38.1 225.858594 22 226.058594C 22.8 198.658594 26.1 171.458594 27.9 144.058594C 29.6 115.358594 30.2 86.558594 34 58.058594M 22 9.958594C 37.6 11.758594 53.4 10.858594 69.1 9.958594C 85.4 9.158594 101.8 8.158594 118 9.958594C 118 18.058594 116.4 26.158594 118 34.058594C 86 33.658594 54 35.158594 22 34.058594C 21.2 26.058594 22.3 18.058594 22 9.958594M 10 274.058594C 23.4 274.958594 36.9 272.858594 50.2 274.058594C 63.3 275.158594 76.6 275.858594 89.7 274.058594C 103 272.258594 116.6 274.658594 130 274.058594C 131.7 266.258594 129.9 258.058594 130 250.058594C 109.3 248.458594 88.5 251.658594 67.8 250.058594C 48.6 248.558594 29.2 251.358594 10 250.058594C 8.1 257.858594 9.3 266.058594 10 274.058594M 22 34.058594C 54 32.458594 86 34.558594 118 34.058594C 111.5 35.258594 106.5 39.458594 106 46.058594C 82 44.958594 58 47.658594 34 46.058594C 34.8 39.458594 28.6 34.358594 22 34.058594M 10 250.058594C 31.8 248.958594 53.6 249.558594 75.5 250.058594C 93.6 250.558594 111.8 250.458594 130 250.058594C 123.4 250.958594 118.8 244.658594 118 238.058594C 103.6 238.858594 89.2 237.258594 74.8 238.058594C 57.2 238.958594 39.6 237.258594 22 238.058594C 22.3 244.658594 16.6 250.658594 10 250.058594"></path><path d="M 34 58.058594L 106 58.058594L 118 226.058594L 22 226.058594L 34 58.058594ZM 22 10L 118 10L 118 34.0583L 22 34.0583L 22 10ZM 10 274.058594L 130 274.058594L 130 250.058777L 10 250.058777L 10 274.058594ZM 22 34.058594L 118 34.058594C 111.3726 34.058594 106 39.431194 106 46.058594L 34 46.058594C 34 39.431194 28.6274 34.058594 22 34.058594ZM 10 250.058594L 130 250.058594C 123.3726 250.058594 118 244.685994 118 238.058594L 22 238.058594C 22 244.685994 16.6274 250.058594 10 250.058594Z"></path></g></g><g id="1.cu_sy_hvweci1u2u7lt-stroke" fill="none" stroke-linecap="round" stroke-linejoin="round" stroke-miterlimit="4" stroke="#484848" stroke-width="4"><g><path d="M 37 46.058594C 58.9 47.958594 81 46.858594 103 46.058594C 103 46.058594 114.9 46.058594 115 52.058594C 115 52.058594 115 57.558594 103 58.058594C 81 58.958594 59 57.158594 37 58.058594C 37 58.058594 26 57.958594 25 52.058594C 25 52.058594 25 46.258594 37 46.058594M 28 226.058594C 56 225.858594 84 227.558594 112 226.058594C 112 226.058594 123.8 226.058594 124 232.058594C 124 232.058594 124 236.958594 112 238.058594C 84.1 240.758594 55.9 239.858594 28 238.058594C 28 238.058594 16.8 237.958594 16 232.058594C 16 232.058594 16.1 224.358594 28 226.058594"></path><path d="M 37 46.058594L 103 46.058594C 103 46.058594 115 46.058594 115 52.058594L 115 52.058594C 115 52.058594 115 58.058594 103 58.058594L 37 58.058594C 37 58.058594 25 58.058594 25 52.058594L 25 52.058594C 25 52.058594 25 46.058594 37 46.058594M 28 226.058594L 112 226.058594C 112 226.058594 124 226.058594 124 232.058594L 124 232.058594C 124 232.058594 124 238.058594 112 238.058594L 28 238.058594C 28 238.058594 16 238.058594 16 232.058594L 16 232.058594C 16 232.058594 16 226.058594 28 226.058594"></path></g></g></g><g id="g-root-plur_1luwejm1u32mtm-stroke" data-item-order="0" data-item-id="plur_1luwejm1u32mtm" data-item-class="Icon Stroke SceneTarget SceneEnd InsideFill InsideGrayFill ColorFillGray" data-item-index="none" data-renderer-id="0" transform="translate(232, 56)"><g id="plur_1luwejm1u32mtm-stroke" fill="none" stroke-linecap="round" stroke-linejoin="round" stroke-miterlimit="4" stroke="#484848" stroke-width="2"><g><path d="M 33.599998 57C 33.799999 48 31.799999 38.799999 33.599998 30M 27.6 37C 28.6 42.599998 27 48.400002 27.6 54C 25.799999 54 24 53.400002 22.6 54C 22.6 55 22.4 56 22.6 57M 15.6 57C 14.6 54.200001 15 51 15.6 48C 17.6 48 19.6 48 21.6 48C 21.799999 45.400002 21.799999 42.599998 21.6 40M 39.599998 37C 40.200001 42.599998 38.799999 48.400002 39.599998 54C 41.200001 53.599998 43 54.599998 44.599998 54C 44.799999 55 44.599998 56 44.599998 57M 51.599998 57C 50.400002 54.200001 51.799999 51 51.599998 48C 49.599998 47.599998 47.400002 47.400002 45.599998 48C 44.799999 45.400002 45.200001 42.599998 45.599998 40M 49 37.400002C 53.200001 36.200001 57.200001 32.400002 56 28.200001C 56.599998 25.6 54.599998 23.6 53 21.4C 51.599998 19.200001 48.599998 18.4 46 18.6C 44 13 37.200001 9.4 31.4 11.2C 25.6 13.2 21.799999 17.6 20.6 23.6C 18.4 23.6 16 23.200001 14.6 25C 13.4 26.799999 12.2 28.4 12 30.6C 12.6 33.799999 14.2 37 17.4 37.400002"></path><path d="M 33.529999 57L 33.529999 30.018M 27.534 37.012001L 27.534 54.001999L 22.538 54.001999L 22.538 57M 15.542 57L 15.542 48.006001L 21.538 48.006001L 21.538 40.010002M 39.526001 37.012001L 39.526001 54.001999L 44.523998 54.001999L 44.523998 57M 51.52 57L 51.52 48.006001L 45.523998 48.006001L 45.523998 40.010002M 49 37.400002C 53.181938 36.334152 56.08078 32.530869 56 28.216C 56.001884 25.619896 54.946335 23.134996 53.076595 21.333933C 51.206856 19.532869 48.684216 18.571007 46.089996 18.669998C 43.484447 13.139819 37.459858 10.081257 31.45772 11.241485C 25.45558 12.401712 21.004866 17.485176 20.647999 23.587999C 18.534271 23.143478 16.332771 23.675255 14.655016 25.035618C 12.977261 26.395981 12.00195 28.440035 12 30.6C 11.812469 33.933861 14.140068 36.884327 17.426001 37.478001"></path></g></g></g><g id="g-root-tx_bigdata_zofd0i1u2u7ev-stroke" data-item-order="0" data-item-id="tx_bigdata_zofd0i1u2u7ev" data-item-class="Label Stroke SceneTarget SceneEnd InsideFill InsideGrayFill ColorFillGray" data-item-index="none" data-renderer-id="0" transform="translate(208, 127.99996948242188)"></g><g id="g-root-hier_dg2w821u32n0n-stroke" data-item-order="0" data-item-id="hier_dg2w821u32n0n" data-item-class="Icon Stroke SceneTarget Indexed Indexed_1 InsideFill" data-item-index="1" data-renderer-id="0" transform="translate(64, 355.9999694824219)"><g id="hier_dg2w821u32n0n-stroke" fill="none" stroke-linecap="round" stroke-linejoin="round" stroke-miterlimit="4" stroke="#484848" stroke-width="2"><g><path d="M 23 26C 23.799999 28.6 28 32.200001 34 31C 40 29.799999 44.200001 28.6 45 26C 45.799999 23.4 40 21.200001 34 21C 28 20.799999 22 23.4 23 26M 47 14C 47 15.6 49.200001 16.6 52 17C 54.799999 17.4 56.400002 15.6 57 14C 57.599998 12.4 54.799999 11 52 11C 49.200001 11 47.200001 12.4 47 14M 57 14C 56.599998 16 57.599998 18 57 20C 56.599998 21.6 54.599998 22 52 23C 49.400002 24 47.400002 21.6 47 20C 46.400002 18 47 16 47 14M 11 14C 11.6 15.6 13.4 16.200001 16 17C 18.6 17.799999 21.6 15.6 21 14C 20.4 12.4 18.6 11.8 16 11C 13.4 10.2 10.6 12.4 11 14M 21 14C 20.799999 16 20.4 18.200001 21 20C 21.6 21.6 18.6 22.200001 16 23C 13.4 23.799999 10.6 21.6 11 20C 11.6 18 10.8 16 11 14M 47 48C 46.599998 49.599998 49.200001 51.200001 52 51C 54.799999 50.799999 57.200001 49.599998 57 48C 56.799999 46.400002 54.599998 45.799999 52 45C 49.400002 44.400002 46.400002 46.400002 47 48M 57 48C 57.599998 50 56.599998 52 57 54C 57.400002 55.599998 54.799999 56.599998 52 57C 49.200001 57.400002 47.200001 55.599998 47 54C 46.799999 52 46.799999 50 47 48M 11 48C 10.6 49.599998 13.2 51.200001 16 51C 18.799999 50.799999 21.200001 49.599998 21 48C 20.799999 46.400002 18.6 44.200001 16 45C 13.4 45.799999 11 46.400002 11 48M 21 48C 20.6 50 20.4 52.200001 21 54C 21.6 55.599998 18.799999 57.200001 16 57C 13.2 56.799999 11 55.599998 11 54C 11 52 11.6 50 11 48M 45 34C 45 36.799999 40 38.599998 34 39C 28 39.400002 24 36.599998 23 34M 23 26C 22.6 31.4 21.799999 36.799999 23 42C 23.6 44.599998 28.200001 48.400002 34 47C 39.799999 45.599998 44.400002 44.799999 45 42C 46 36.799999 43.799999 31.200001 45 26M 20.6 21.200001C 21.4 22.4 22.4 23.6 23.799999 24.200001M 47.400002 21.200001C 46.200001 21.799999 45.200001 23 44.200001 24.200001M 20.799999 47C 21.6 45.799999 22.799999 45 23.799999 43.799999M 47.200001 47C 46.200001 46 44.799999 45.200001 44.200001 43.799999"></path><path d="M 23 26.002001C 23 28.763424 27.924868 31.002001 34 31.002001C 40.075134 31.002001 45 28.763424 45 26.002001C 45 23.240578 40.075134 21.001999 34 21.001999C 27.924868 21.001999 23 23.240578 23 26.002001ZM 47 14.002C 47 15.658854 49.238575 17.002001 52 17.002001C 54.761425 17.002001 57 15.658854 57 14.002001C 57 12.345146 54.761425 11.002 52 11.002C 49.238575 11.002 47 12.345146 47 14.002001ZM 57 14L 57 20C 57 21.656 54.762001 23 52 23C 49.237999 23 47 21.658001 47 20L 47 14M 11 14.002C 11 15.658854 13.238577 17.002001 16 17.002001C 18.761425 17.002001 21 15.658854 21 14.002001C 21 12.345146 18.761425 11.002 16 11.002C 13.238577 11.002 11 12.345146 11 14.002001ZM 21 14L 21 20C 21 21.656 18.762001 23 16 23C 13.238 23 11 21.658001 11 20L 11 14M 47 48.001999C 47 49.658855 49.238575 51.002003 52 51.002003C 54.761425 51.002003 57 49.658855 57 48.002003C 57 46.345146 54.761425 45.002003 52 45.002003C 49.238575 45.002003 47 46.345146 47 48.002003ZM 57 48L 57 54C 57 55.655998 54.762001 57 52 57C 49.237999 57 47 55.655998 47 54L 47 48M 11 48.001999C 11 49.658855 13.238577 51.002003 16 51.002003C 18.761425 51.002003 21 49.658855 21 48.002003C 21 46.345146 18.761425 45.002003 16 45.002003C 13.238577 45.002003 11 46.345146 11 48.002003ZM 21 48L 21 54C 21 55.655998 18.762001 57 16 57C 13.238 57 11 55.658001 11 54L 11 48M 45 34C 45 36.762001 40.073997 39 34 39C 27.926001 39 23 36.764 23 34M 23 26L 23 42C 23 44.762001 27.926001 47 34 47C 40.073997 47 45 44.762001 45 42L 45 26M 20.618 21.156L 23.702 24.24M 47.382 21.156L 44.298 24.24M 20.709999 46.993999L 23.812 43.889999M 47.290001 46.993999L 44.188 43.889999"></path></g></g></g><g id="g-root-net_58uxu1u32lfs-stroke" data-item-order="0" data-item-id="net_58uxu1u32lfs" data-item-class="Icon Stroke SceneTarget Indexed InsideFill" data-item-index="2" data-renderer-id="0" transform="translate(232, 355.9999694824219)"><g id="net_58uxu1u32lfs-stroke" fill="none" stroke-linecap="round" stroke-linejoin="round" stroke-miterlimit="4" stroke="#484848" stroke-width="2"><g><path d="M 18 13C 28.4 10.4 39.400002 13 50 13C 50 13 53 13.2 54 17C 57 28 52.599998 39.799999 54 51C 54 51 54 54.599998 50 55C 39.400002 56 28.6 54.200001 18 55C 18 55 13.2 55 14 51C 16.200001 39.799999 13.6 28.4 14 17C 14 17 14.2 14.4 18 13M 14 39C 17.200001 37.400002 19.799999 34.200001 21.4 31C 22.4 29 25.799999 28.200001 27.6 29.799999C 28.6 30.200001 29.4 30.6 30.4 31C 32.599998 31.799999 35.200001 31.799999 37.200001 30.200001C 38.599998 29.4 39.400002 28 40.799999 27.200001C 43 25.6 45.200001 24 47.799999 23.799999C 49.599998 22.6 52 22.799999 54 22M 24 29.4C 21.6 37.599998 24.200001 46.400002 24 55M 34 31.6C 36.200001 39 35.799999 47.400002 34 55M 44 25.4C 44.599998 35.200001 45.599998 45.200001 44 55M 14 39C 27.4 39.599998 40.799999 40.799999 54 39M 36 31C 42 31 48.200001 32.400002 54 31M 14 47C 27.200001 45.799999 40.599998 47.400002 54 47"></path><path d="M 18.007999 13L 50.007999 13C 50.007999 13 54.007999 13 54.007999 17L 54.007999 51C 54.007999 51 54.007999 55 50.007999 55L 18.007999 55C 18.007999 55 14.007999 55 14.007999 51L 14.007999 17C 14.007999 17 14.007999 13 18.007999 13M 14 39L 21.310001 30.959999C 22.959269 29.298944 25.454391 28.810856 27.608 29.728001L 30.392 31.062C 32.6185 31.984388 35.16328 31.693317 37.124001 30.292L 40.875999 27.292C 42.987286 25.71822 45.348209 24.510715 47.859997 23.719999L 54 22M 24.007999 29.436001L 24.007999 55M 34.007999 31.532L 34.007999 55M 44.007999 25.326L 44.007999 55M 14.007999 39L 54.007999 39M 35.944 31L 54.007999 31M 14.007999 47L 54.007999 47"></path></g></g></g><g id="g-root-1_1uqjesi1u32m0x-stroke" data-item-order="0" data-item-id="1_1uqjesi1u32m0x" data-item-class="Icon Stroke SceneTarget Indexed InsideFill" data-item-index="3" data-renderer-id="0" transform="translate(400, 356.0585632324219)"><g id="1_1uqjesi1u32m0x-stroke" fill="none" stroke-linecap="round" stroke-linejoin="round" stroke-miterlimit="4" stroke="#484848" stroke-width="2"><g><path d="M 56 11.8C 50 12 43.799999 13.8 38.400002 11.8C 35.799999 11 33.400002 12.8 31.200001 14.2C 16.6 30.6 16.200001 29.4 15.8 31.799999C 15.4 34.599998 18.200001 37.400002 20.6 36.599998C 31.799999 33 44.200001 36.200001 56 36.599998M 27.799999 17.6C 33.400002 15.6 39.599998 18 45.400002 17.6C 44 19.799999 42.200001 22.200001 39.799999 23.200001C 38.599998 24.4 37.400002 24.799999 36 25.200001C 30.799999 26.4 25.6 26.200001 20.4 25.200001M 23.200001 36.599998C 23.799999 35.400002 24.6 34.200001 24.4 32.799999C 24.6 29.799999 22.4 26.200001 19.4 26.4M 56 43.200001C 41.400002 43.799999 26.4 46 12 43.200001M 56 48.799999C 41.400002 49.400002 26.4 46 12 48.799999M 16.799999 56.200001C 16.4 53.799999 17.6 51 16.799999 48.799999C 18.6 49.200001 20.6 49.200001 22.6 48.799999C 21.799999 51.200001 22.799999 53.799999 22.6 56.200001M 31.200001 56.200001C 30.200001 53.799999 31.200001 51.200001 31.200001 48.799999C 33 48.200001 35 48.799999 36.799999 48.799999C 37 51.200001 37.599998 53.799999 36.799999 56.200001M 45.400002 56.200001C 45.400002 53.799999 46 51.200001 45.400002 48.799999C 47.400002 48.599998 49.400002 49.400002 51.200001 48.799999C 52 51.200001 52 53.799999 51.200001 56.200001"></path><path d="M 56 11.8L 38.304001 11.8C 35.715275 11.798388 33.196629 12.64098 31.129999 14.2C 15.837999 30.038 15.826 29.434 15.826 31.896C 15.832603 34.529221 17.966776 36.661602 20.599998 36.666L 56 36.666M 27.889999 17.535999L 45.478001 17.535999L 39.739998 23.276001C 38.836235 24.47945 37.419022 25.187687 35.914001 25.188L 20.434 25.188M 23.222 36.666C 23.990776 35.536301 24.412098 34.206295 24.434002 32.84C 24.31813 29.801466 22.28021 27.174044 19.366001 26.306M 56 43.217999L 12 43.217999M 56 48.743999L 12 48.743999M 16.782 56.203999L 16.782 48.743999L 22.521999 48.743999L 22.521999 56.203999M 31.129999 56.203999L 31.129999 48.743999L 36.870003 48.743999L 36.870003 56.203999M 45.478001 56.203999L 45.478001 48.743999L 51.217999 48.743999L 51.217999 56.203999"></path></g></g></g><g id="g-root-tx_volume_4l2d2a1u2u610-stroke" data-item-order="0" data-item-id="tx_volume_4l2d2a1u2u610" data-item-class="Label Stroke SceneTarget Indexed Indexed_1" data-item-index="1" data-renderer-id="0" transform="translate(46, 548)"></g><g id="g-root-tx_variety_1uqjesi1u2u6ml-stroke" data-item-order="0" data-item-id="tx_variety_1uqjesi1u2u6ml" data-item-class="Label Stroke SceneTarget Indexed" data-item-index="2" data-renderer-id="0" transform="translate(214, 548)"></g><g id="g-root-tx_velocity_1qapwo21u2u7eu-stroke" data-item-order="0" data-item-id="tx_velocity_1qapwo21u2u7eu" data-item-class="Label Stroke SceneTarget Indexed" data-item-index="3" data-renderer-id="0" transform="translate(382, 548)"></g></g></g></svg>