<?xml version="1.0" encoding="utf-8" standalone="yes"?>
<!DOCTYPE svg PUBLIC "-//W3C//DTD SVG 1.1//EN" "http://www.w3.org/Graphics/SVG/1.1/DTD/svg11.dtd">
<svg width="684" height="368" viewBox="0 0 684 368" style="fill:none;stroke:none;fill-rule:evenodd;clip-rule:evenodd;stroke-linecap:round;stroke-linejoin:round;stroke-miterlimit:1.5;" version="1.1" xmlns="http://www.w3.org/2000/svg" xmlns:xlink="http://www.w3.org/1999/xlink"><style id="fontImports">@import url("https://fonts.googleapis.com/css2?family=Shantell+Sans:wght@300..800&amp;display=block");</style><rect id="" x="0" y="0" width="684" height="367.118" style="fill: #ffffff;"></rect><g id="items" style="isolation: isolate"><g id="blend" style="mix-blend-mode:multiply"><g id="g-root-4.Vector_sy_18lxyrn1watrf1-fill" data-item-order="-93322" data-item-id="4.Vector_sy_18lxyrn1watrf1" data-item-class="ScenePart Part Indexed Fill Stroke" data-item-index="4" data-renderer-id="0" transform="translate(151.7030029296875, 93.06298828125)"><g id="4.Vector_sy_18lxyrn1watrf1-fill" stroke="none" fill="#fde6cf"><g><path d="M 116.596997 87.236996L 114.196997 84.836996L 102.096997 69.736996L 84.696997 62.536996L 83.896997 83.136996L 96.496997 86.636996L 96.596997 88.436996ZM 83.896997 83.136996L 90.596997 81.736996L 85.496997 62.436996L 84.696997 62.536996ZM 85.496997 62.436996L 43.796997 75.936996L 57.396997 92.536996L 90.596997 81.736996ZM 57.396997 92.536996L 86.196997 41.636996L 70.396997 28.836996L 43.796997 75.936996ZM 70.396997 28.836996L 24.396997 69.436996L 39.696997 82.636996L 86.196997 41.636996ZM 39.696997 82.636996L 75.396997 27.536996L 60.196997 14.336996L 24.396997 69.436996ZM 60.196997 14.336996L 11.096997 57.336996L 26.496997 70.436996L 75.396997 27.536996ZM 26.496997 70.436996L 55.996997 22.836996L 39.096997 12.336996L 11.096997 57.336996Z" fill-rule="nonzero"></path></g></g></g><g id="g-root-3.Vector_sy_1hhkz0j1watqmc-fill" data-item-order="-93320" data-item-id="3.Vector_sy_1hhkz0j1watqmc" data-item-class="ScenePart Part Indexed Fill Stroke" data-item-index="3" data-renderer-id="0" transform="translate(151.3900146484375, 259.967041015625)"><g id="3.Vector_sy_1hhkz0j1watqmc-fill" stroke="none" fill="#ecf7d5"><g><path d="M 118.810001 15.63299L 117.910001 14.13299L 95.210001 14.13299L 101.210001 25.23299ZM 95.210001 14.13299L 84.210001 34.43299L 109.610001 29.53299L 117.910001 14.13299ZM 109.610001 29.53299L 104.510001 25.23299L 80.310001 31.13299L 84.210001 34.43299ZM 80.310001 31.13299L 67.310001 62.33299L 89.410001 61.33299L 104.510001 25.23299ZM 89.410001 61.33299L 67.010001 19.03299L 48.310001 26.43299L 67.310001 62.33299ZM 48.310001 26.43299L 64.110001 83.93299L 82.510001 75.23299L 67.010001 19.03299ZM 82.510001 75.23299L 42.010001 18.33299L 22.910001 25.93299L 64.110001 83.93299ZM 22.910001 25.93299L 31.910001 90.33299L 51.210001 83.93299L 42.010001 18.33299ZM 51.210001 83.93299L 24.710001 35.13299L 7.210001 44.63299L 31.910001 90.33299Z" fill-rule="nonzero"></path></g></g></g><g id="g-root-2.Vector_sy_1lxeh4z1watpu3-fill" data-item-order="-93318" data-item-id="2.Vector_sy_1lxeh4z1watpu3" data-item-class="ScenePart Part Indexed Fill Stroke" data-item-index="2" data-renderer-id="0" transform="translate(417.9339599609375, 259.967041015625)"><g id="2.Vector_sy_1lxeh4z1watpu3-fill" stroke="none" fill="#d5f7e8"><g><path d="M 18.36601 7.03299L 9.86601 12.23299L 15.06601 32.43299L 28.76601 24.13299ZM 15.06601 32.43299L 43.56601 33.73299L 28.86601 13.03299L 9.86601 12.23299ZM 28.86601 13.03299L 24.56601 27.73299L 41.16601 41.93299L 43.56601 33.73299ZM 41.16601 41.93299L 78.46601 24.23299L 63.36601 9.23299L 24.56601 27.73299ZM 63.36601 9.23299L 39.26601 60.83299L 55.96601 72.33299L 78.46601 24.23299ZM 55.96601 72.33299L 98.56601 28.03299L 82.26601 16.13299L 39.26601 60.83299ZM 82.26601 16.13299L 50.46601 75.23299L 66.26601 88.13299L 98.56601 28.03299ZM 66.26601 88.13299L 114.66601 48.23299L 98.56601 35.53299L 50.46601 75.23299ZM 98.56601 35.53299L 76.96601 79.73299L 94.96601 88.43299L 114.66601 48.23299Z" fill-rule="nonzero"></path></g></g></g><g id="g-root-1.Vector_sy_1usf0ar1wats76-fill" data-item-order="-93316" data-item-id="1.Vector_sy_1usf0ar1wats76" data-item-class="ScenePart Part Indexed Indexed_1 Fill Stroke" data-item-index="1" data-renderer-id="0" transform="translate(417.67401123046875, 93.06298828125)"><g id="1.Vector_sy_1usf0ar1wats76-fill" stroke="none" fill="#cef3ff"><g><path d="M 6.125989 85.636996L 6.625989 85.936996L 34.525989 85.236996L 44.925989 74.536996L 21.925989 69.636996L 20.225989 71.436996L 19.825989 71.036996ZM 21.925989 69.636996L 25.825989 80.536996L 46.725989 79.636996L 44.925989 74.536996ZM 46.725989 79.636996L 56.025989 44.736996L 34.425989 47.836996L 25.825989 80.536996ZM 34.425989 47.836996L 59.125989 88.136996L 78.225989 81.036996L 56.025989 44.736996ZM 78.225989 81.036996L 67.525989 17.736996L 48.325989 23.736996L 59.125989 88.136996ZM 48.325989 23.736996L 77.625989 85.936996L 97.225989 80.636996L 67.525989 17.736996ZM 97.225989 80.636996L 91.825989 16.536996L 72.225989 21.836996L 77.625989 85.936996ZM 72.225989 21.836996L 93.025989 65.236996L 111.025989 56.636996L 91.825989 16.536996Z" fill-rule="nonzero"></path></g></g></g><g id="g-root-0.cr-big_cr_74gg31watrm1-fill" data-item-order="-93314" data-item-id="0.cr-big_cr_74gg31watrm1" data-item-class="Shape Stroke Fill ScenePart Part Indexed_0 ColorFillGray" data-item-index="0" data-renderer-id="0" transform="translate(266, 145.99600219726562)"><g id="0.cr-big_cr_74gg31watrm1-fill" stroke="none" fill="#eaeaea"><g><path d="M 119.4 10.4L 104.5 6.7L 94.3 24.8L 114.6 29.8ZM 94.3 24.8L 138.6 69.6L 150.1 52.8L 104.5 6.7ZM 150.1 52.8L 56.4 11.7L 47 29.4L 138.6 69.6ZM 47 29.4L 145.1 91.3L 154 73.3L 56.4 11.7ZM 154 73.3L 37.8 29.2L 29 47.3L 145.1 91.3ZM 29 47.3L 139.2 115.2L 148.4 97.4L 37.8 29.2ZM 148.4 97.4L 22.2 43.9L 12.8 61.6L 139.2 115.2ZM 12.8 61.6L 124.6 134.5L 133.9 116.7L 22.2 43.9ZM 133.9 116.7L 16.2 69.3L 7 87.2L 124.6 134.5ZM 7 87.2L 103.6 148.7L 112.9 130.9L 16.2 69.3ZM 112.9 130.9L 18.5 91.3L 8 108.6L 103.6 148.7ZM 8 108.6L 58.6 150.5L 66.7 131.2L 18.5 91.3ZM 66.7 131.2L 49.4 129.4L 47.3 149.3L 58.6 150.5Z" fill-rule="nonzero"></path></g></g></g><g id="g-root-tx_enabling_8zvpf1watqmi-fill" data-item-order="0" data-item-id="tx_enabling_8zvpf1watqmi" data-item-class="Label Stroke SceneTarget SceneTitle Title" data-item-index="none" data-renderer-id="0" transform="translate(38, 2)"><g id="tx_enabling_8zvpf1watqmi-fill" stroke="none" fill="#484848"><g><text style="font: bold 25px &quot;Shantell Sans&quot;, cursive; white-space: pre;"><tspan x="15.15" y="40.67" dominant-baseline="ideographic">Enabling Machines to "See" and Understand </tspan><tspan x="231.38" y="70.67" dominant-baseline="ideographic">Visual Data</tspan></text></g></g></g><g id="g-root-tx_convolut_18lxyrn1watrf2-fill" data-item-order="0" data-item-id="tx_convolut_18lxyrn1watrf2" data-item-class="Label Stroke SceneTarget Indexed" data-item-index="4" data-renderer-id="0" transform="translate(2, 98)"><g id="tx_convolut_18lxyrn1watrf2-fill" stroke="none" fill="#484848"><g><text style="font: 20px &quot;Shantell Sans&quot;, cursive; white-space: pre;"><tspan x="20.1" y="35.33" dominant-baseline="ideographic">Convolutional </tspan><tspan x="87.9" y="59.33" dominant-baseline="ideographic">Neural </tspan><tspan x="58.33" y="83.33" dominant-baseline="ideographic">Networks</tspan></text></g></g></g><g id="g-root-3_1hcl6bn1wawirv-fill" data-item-order="0" data-item-id="3_1hcl6bn1wawirv" data-item-class="Icon Stroke SceneTarget Indexed InsideFill" data-item-index="4" data-renderer-id="0" transform="translate(168, 110)"></g><g id="g-root-vide_qqamo31wawirx-fill" data-item-order="0" data-item-id="vide_qqamo31wawirx" data-item-class="Icon Stroke SceneTarget Indexed Indexed_1 InsideFill" data-item-index="1" data-renderer-id="0" transform="translate(460, 110)"></g><g id="g-root-tx_imagesan_94mvyb1watptt-fill" data-item-order="0" data-item-id="tx_imagesan_94mvyb1watptt" data-item-class="Label Stroke SceneTarget Indexed Indexed_1" data-item-index="1" data-renderer-id="0" transform="translate(530, 110)"><g id="tx_imagesan_94mvyb1watptt-fill" stroke="none" fill="#484848"><g><text style="font: 20px &quot;Shantell Sans&quot;, cursive; white-space: pre;"><tspan x="12" y="35.33" dominant-baseline="ideographic">Images and </tspan><tspan x="12" y="59.33" dominant-baseline="ideographic">Videos</tspan></text></g></g></g><g id="g-root-1_18ntqo31wux43m-fill" data-item-order="0" data-item-id="1_18ntqo31wux43m" data-item-class="Icon Stroke SceneTarget SceneEnd InsideFill InsideGrayFill ColorFillGray" data-item-index="none" data-renderer-id="0" transform="translate(302, 181.9959716796875)"></g><g id="g-root-tx_deeplear_vb3xhf1watpu7-fill" data-item-order="0" data-item-id="tx_deeplear_vb3xhf1watpu7" data-item-class="Label Stroke SceneTarget Indexed" data-item-index="3" data-renderer-id="0" transform="translate(2, 278)"><g id="tx_deeplear_vb3xhf1watpu7-fill" stroke="none" fill="#484848"><g><text style="font: 20px &quot;Shantell Sans&quot;, cursive; white-space: pre;"><tspan x="14.31" y="35.33" dominant-baseline="ideographic">Deep Learning </tspan><tspan x="81.19" y="59.33" dominant-baseline="ideographic">Models</tspan></text></g></g></g><g id="g-root-1_zqxflv1wav400-fill" data-item-order="0" data-item-id="1_zqxflv1wav400" data-item-class="Icon Stroke SceneTarget Indexed InsideFill" data-item-index="3" data-renderer-id="0" transform="translate(168, 278)"></g><g id="g-root-2_1414nyb1wawkcs-fill" data-item-order="0" data-item-id="2_1414nyb1wawkcs" data-item-class="Icon Stroke SceneTarget Indexed InsideFill" data-item-index="2" data-renderer-id="0" transform="translate(460, 278)"></g><g id="g-root-tx_algorith_mfgx8j1watreo-fill" data-item-order="0" data-item-id="tx_algorith_mfgx8j1watreo" data-item-class="Label Stroke SceneTarget Indexed" data-item-index="2" data-renderer-id="0" transform="translate(530, 290)"><g id="tx_algorith_mfgx8j1watreo-fill" stroke="none" fill="#484848"><g><text style="font: 20px &quot;Shantell Sans&quot;, cursive; white-space: pre;"><tspan x="12" y="35.33" dominant-baseline="ideographic">Algorithms</tspan></text></g></g></g><g id="g-root-4.Vector_sy_18lxyrn1watrf1-stroke" data-item-order="-93322" data-item-id="4.Vector_sy_18lxyrn1watrf1" data-item-class="ScenePart Part Indexed Fill Stroke" data-item-index="4" data-renderer-id="0" transform="translate(151.7030029296875, 93.06298828125)"><g id="4.Vector_sy_18lxyrn1watrf1-stroke" fill="none" stroke-linecap="round" stroke-linejoin="round" stroke-miterlimit="4" stroke="#484848" stroke-width="4"><g><path d="M 110.996997 70.836996C 113.096997 76.736996 114.696997 82.936996 116.596997 88.936996C 110.696997 91.136996 104.396997 92.636996 98.096997 93.136996C 99.196997 91.036996 100.596997 89.036996 101.696997 86.936996C 93.496997 83.836996 87.296997 76.436996 79.096997 73.836996C 68.096997 87.336996 48.796997 91.036996 33.096997 82.336996C 15.696997 72.636996 10.396997 50.536996 19.896997 33.136996C 29.496997 15.736996 52.696997 8.836996 69.096997 19.936996C 83.996997 29.936996 90.296997 47.436996 84.796997 63.836996C 92.496997 67.936996 99.196997 73.936996 107.396997 76.936996C 108.796997 74.936996 110.496997 73.136996 110.996997 70.836996"></path><path d="M 110.974997 70.788996L 116.622997 88.936996L 98.081997 93.118996L 101.669997 86.903996L 79.046997 73.842996C 68.091997 87.338996 48.651997 91.262996 33.118997 82.294996C 15.899997 72.353996 9.999997 50.336996 19.941997 33.117996C 29.882997 15.899996 51.899997 9.999996 69.118997 19.940996C 84.630997 28.896996 90.955997 47.654996 84.787997 63.874996L 107.421997 76.941996L 110.974997 70.788996Z"></path></g></g></g><g id="g-root-3.Vector_sy_1hhkz0j1watqmc-stroke" data-item-order="-93320" data-item-id="3.Vector_sy_1hhkz0j1watqmc" data-item-class="ScenePart Part Indexed Fill Stroke" data-item-index="3" data-renderer-id="0" transform="translate(151.3900146484375, 259.967041015625)"><g id="3.Vector_sy_1hhkz0j1watqmc-stroke" fill="none" stroke-linecap="round" stroke-linejoin="round" stroke-miterlimit="4" stroke="#484848" stroke-width="4"><g><path d="M 111.010001 32.33299C 112.210001 26.13299 116.410001 20.53299 116.710001 14.23299C 110.710001 11.93299 104.110001 12.03299 98.110001 10.03299C 99.010001 12.23299 100.910001 13.93299 101.710001 16.23299C 94.310001 20.73299 85.410001 23.33299 79.010001 29.33299C 67.610001 16.23299 49.510001 13.53299 33.110001 20.83299C 15.010001 29.03299 8.910001 53.53299 19.910001 70.03299C 31.010001 86.53299 52.810001 94.53299 69.110001 83.23299C 83.810001 72.93299 90.910001 55.53299 84.810001 39.23299C 93.010001 36.43299 100.910001 31.93299 107.510001 26.13299C 109.010001 27.93299 109.510001 30.53299 111.010001 32.33299"></path><path d="M 111.028001 32.33099L 116.676001 14.18299L 98.136001 9.99999L 101.724001 16.21499L 79.046001 29.30799C 68.091001 15.81199 48.652001 11.88799 33.118001 20.85599C 15.899001 30.79699 10.000001 52.81399 19.941001 70.03299C 29.882001 87.25199 51.899001 93.15099 69.118001 83.20999C 84.630001 74.25399 90.955001 55.49599 84.788001 39.27699L 107.476001 26.17799L 111.028001 32.33099Z"></path></g></g></g><g id="g-root-2.Vector_sy_1lxeh4z1watpu3-stroke" data-item-order="-93318" data-item-id="2.Vector_sy_1lxeh4z1watpu3" data-item-class="ScenePart Part Indexed Fill Stroke" data-item-index="2" data-renderer-id="0" transform="translate(417.9339599609375, 259.967041015625)"><g id="2.Vector_sy_1lxeh4z1watpu3-stroke" fill="none" stroke-linecap="round" stroke-linejoin="round" stroke-miterlimit="4" stroke="#484848" stroke-width="4"><g><path d="M 28.56601 10.03299C 22.86601 12.83299 16.16601 12.83299 9.96601 14.23299C 12.56601 19.93299 14.26601 26.13299 15.66601 32.33299C 16.66601 30.23299 18.16601 28.23299 19.26601 26.13299C 26.56601 30.83299 34.86601 34.13299 41.86601 39.23299C 35.36601 55.33299 42.06601 74.23299 57.56601 83.23299C 74.76601 93.13299 96.66601 87.23299 106.76601 70.03299C 116.76601 52.83299 109.76601 32.43299 93.56601 20.83299C 78.96601 10.43299 58.96601 16.03299 47.66601 29.23299C 40.66601 24.03299 32.56601 20.53299 24.96601 16.13299C 25.86601 13.93299 27.96601 12.33299 28.56601 10.03299"></path><path d="M 28.54001 9.99999L 10.00001 14.18299L 15.64801 32.33099L 19.23601 26.11599L 41.91401 39.20899C 35.70301 55.44399 42.02401 74.24099 57.55801 83.20999C 74.77701 93.15099 96.79401 87.25199 106.73501 70.03299C 116.67601 52.81399 110.77701 30.79699 93.55801 20.85599C 78.04601 11.89999 58.63901 15.80099 47.67601 29.25199L 24.98801 16.15299L 28.54001 9.99999Z"></path></g></g></g><g id="g-root-1.Vector_sy_1usf0ar1wats76-stroke" data-item-order="-93316" data-item-id="1.Vector_sy_1usf0ar1wats76" data-item-class="ScenePart Part Indexed Indexed_1 Fill Stroke" data-item-index="1" data-renderer-id="0" transform="translate(417.67401123046875, 93.06298828125)"><g id="1.Vector_sy_1usf0ar1wats76-stroke" fill="none" stroke-linecap="round" stroke-linejoin="round" stroke-miterlimit="4" stroke="#484848" stroke-width="4"><g><path d="M 28.525989 93.136996C 22.325989 91.836996 16.125989 90.636996 10.025989 88.936996C 11.925989 82.936996 14.025989 76.936996 15.625989 70.836996C 17.425989 72.336996 17.725989 75.236996 19.225989 77.036996C 27.325989 73.836996 34.025989 67.836996 41.825989 63.936996C 34.425989 48.236996 41.925989 28.836996 57.525989 19.936996C 74.825989 10.136996 97.125989 15.736996 106.725989 33.136996C 116.225989 50.536996 109.725989 70.736996 93.525989 82.336996C 78.925989 92.636996 59.425989 86.636996 47.625989 73.936996C 39.625989 77.336996 31.525989 81.236996 25.025989 86.936996C 26.425989 88.836996 27.425989 91.036996 28.525989 93.136996"></path><path d="M 28.540989 93.119996L 9.999989 88.936996L 15.647989 70.788996L 19.236989 77.003996L 41.859989 63.941996C 35.648989 47.706996 41.970989 28.909996 57.503989 19.940996C 74.722989 9.999996 96.739989 15.899996 106.680989 33.117996C 116.622989 50.336996 110.722989 72.353996 93.503989 82.294996C 77.991989 91.250996 58.584989 87.349996 47.621989 73.898996L 24.987989 86.965996L 28.540989 93.119996Z"></path></g></g></g><g id="g-root-0.cr-big_cr_74gg31watrm1-stroke" data-item-order="-93314" data-item-id="0.cr-big_cr_74gg31watrm1" data-item-class="Shape Stroke Fill ScenePart Part Indexed_0 ColorFillGray" data-item-index="0" data-renderer-id="0" transform="translate(266, 145.99600219726562)"><g id="0.cr-big_cr_74gg31watrm1-stroke" fill="none" stroke-linecap="round" stroke-linejoin="round" stroke-miterlimit="4" stroke="#484848" stroke-width="4"><g><path d="M 10 82C 9.4 94.8 13 106.9 19.2 117.2C 25.1 127.2 33.8 134.9 42.7 142.4C 53.1 151 67.7 152 82 154C 103 156.9 123.1 145.4 135.5 130.2C 146.4 116.9 154.8 100.5 154 82C 153.1 60.9 144.7 42.2 130.5 28.8C 117.9 16.9 100.7 9 82 10C 42.3 12.2 11.3 42.3 10 82"></path><path d="M 10 82C 10.000001 121.764503 42.235499 154.000001 82.000001 154.000001C 121.764503 154.000001 154.000001 121.764503 154.000001 82.000001C 154.000001 42.235499 121.764503 10.000001 82.000001 10.000001C 42.235499 10.000001 10.000001 42.235499 10.000001 82.000001"></path></g></g></g><g id="g-root-tx_enabling_8zvpf1watqmi-stroke" data-item-order="0" data-item-id="tx_enabling_8zvpf1watqmi" data-item-class="Label Stroke SceneTarget SceneTitle Title" data-item-index="none" data-renderer-id="0" transform="translate(38, 2)"></g><g id="g-root-tx_convolut_18lxyrn1watrf2-stroke" data-item-order="0" data-item-id="tx_convolut_18lxyrn1watrf2" data-item-class="Label Stroke SceneTarget Indexed" data-item-index="4" data-renderer-id="0" transform="translate(2, 98)"></g><g id="g-root-3_1hcl6bn1wawirv-stroke" data-item-order="0" data-item-id="3_1hcl6bn1wawirv" data-item-class="Icon Stroke SceneTarget Indexed InsideFill" data-item-index="4" data-renderer-id="0" transform="translate(168, 110)"><g id="3_1hcl6bn1wawirv-stroke" fill="none" stroke-linecap="round" stroke-linejoin="round" stroke-miterlimit="4" stroke="#484848" stroke-width="2"><g><path d="M 30.6 49.400002C 24.799999 48.799999 18.799999 47.599998 13.6 49.400002C 12.4 49.799999 11.2 48.599998 11.6 47.400002C 13.8 41.400002 11.8 34.400002 11.6 28C 11.4 26.799999 12.4 25.799999 13.6 26C 14.2 26 14.8 26 15.6 26M 33.599998 25C 34.200001 24.799999 34.799999 24.799999 35.599998 25C 36.599998 25.200001 37.200001 26 37.599998 27C 37.599998 27.6 37.400002 28.4 37.599998 29M 24.6 11C 24.4 18.6 23.6 26.4 24.6 34M 16 19.6C 18.799999 16.799999 21 12.8 24.6 11M 33 19.6C 30.200001 16.6 27.6 13.6 24.6 11M 40.599998 42C 44.799999 42.200001 49.200001 42 53.599998 42C 53.599998 42 56 42 56.599998 45C 56.799999 48 56.200001 51 56.599998 54C 56.599998 54 56.599998 57.200001 53.599998 57C 49.200001 56.599998 44.799999 57.599998 40.599998 57C 40.599998 57 37 57 37.599998 54C 38 51 36.799999 48 37.599998 45C 37.599998 45 37.599998 42.799999 40.599998 42M 40 42C 39.599998 41 40 40 40 39C 39.799999 35.200001 43.200001 31.799999 47 32C 50.799999 32.200001 54.200001 35.200001 54 39C 54 40 54 41 54 42M 44 49.400002C 44.799999 49.799999 45.200001 51 46 51.400002C 47.599998 50.599998 49 49.200001 50 47.400002"></path><path d="M 30.5 49.498001L 13.5 49.498001C 12.395431 49.498001 11.5 48.60257 11.5 47.498001L 11.5 28C 11.5 26.89543 12.395431 26 13.5 26L 15.5 26M 33.5 25L 35.5 25C 36.604568 25 37.5 25.895432 37.5 27L 37.5 29M 24.5 11.002L 24.5 34.001999M 16 19.501999L 24.5 11.002M 33 19.501999L 24.5 11.002M 40.5 41.998001L 53.5 41.998001C 53.5 41.998001 56.5 41.998001 56.5 44.998001L 56.5 53.998001C 56.5 53.998001 56.5 56.998001 53.5 56.998001L 40.5 56.998001C 40.5 56.998001 37.5 56.998001 37.5 53.998001L 37.5 44.998001C 37.5 44.998001 37.5 41.998001 40.5 41.998001M 40 42.040001L 40 39C 40 35.13401 43.134007 32 47 32C 50.865993 32 54 35.13401 54 39L 54 42.040001M 44 49.498001L 46 51.498001L 50 47.498001"></path></g></g></g><g id="g-root-vide_qqamo31wawirx-stroke" data-item-order="0" data-item-id="vide_qqamo31wawirx" data-item-class="Icon Stroke SceneTarget Indexed Indexed_1 InsideFill" data-item-index="1" data-renderer-id="0" transform="translate(460, 110)"><g id="vide_qqamo31wawirx-stroke" fill="none" stroke-linecap="round" stroke-linejoin="round" stroke-miterlimit="4" stroke="#484848" stroke-width="2"><g><path d="M 11.714286 22C 12.4 27.828571 16.514286 33.314285 22 32.285713C 27.485714 31.257143 30.914286 27.485714 32.285713 22C 33.657143 16.514286 27.485714 13.428572 22 11.714286C 16.514286 10 10.342857 16.514286 11.714286 22M 39.142857 25.428572C 38.799999 29.200001 42.228569 31.257143 46 32.285713C 49.771431 33.314285 52.514286 29.200001 52.857143 25.428572C 53.200001 21.657143 49.771431 18.228571 46 18.571428C 42.228569 18.914286 39.485718 21.657143 39.142857 25.428572M 25.428572 40.857143C 31.6 41.885715 38.114285 42.228569 44.285713 40.857143C 44.285713 40.857143 47.714287 40.857143 47.714287 44.285713C 47.714287 47.028572 47.028572 50.114285 47.714287 52.857143C 47.714287 52.857143 47.714287 55.942856 44.285713 56.285713C 38.114285 56.628574 31.257143 58.342857 25.428572 56.285713C 25.428572 56.285713 21.657143 56.285713 22 52.857143C 22.342857 50.114285 20.971428 47.028572 22 44.285713C 22 44.285713 22 40.514286 25.428572 40.857143M 56.285713 44.285713C 57.314285 47.028572 56.971428 50.114285 56.285713 52.857143"></path><path d="M 11.714286 22C 11.714286 27.680643 16.319357 32.285713 22 32.285713C 27.680643 32.285713 32.285713 27.680643 32.285713 22C 32.285713 16.319357 27.680643 11.714286 22 11.714286C 16.319357 11.714286 11.714286 16.319357 11.714286 22M 39.142857 25.428572C 39.142857 29.215668 42.212906 32.285713 46 32.285713C 49.787094 32.285713 52.857143 29.215668 52.857143 25.428572C 52.857143 21.641476 49.787094 18.571428 46 18.571428C 42.212906 18.571428 39.142857 21.641476 39.142857 25.428572M 25.428572 40.857143L 44.285713 40.857143C 44.285713 40.857143 47.714287 40.857143 47.714287 44.285713L 47.714287 52.857143C 47.714287 52.857143 47.714287 56.285713 44.285713 56.285713L 25.428572 56.285713C 25.428572 56.285713 22 56.285713 22 52.857143L 22 44.285713C 22 44.285713 22 40.857143 25.428572 40.857143M 56.285713 44.285713L 56.285713 52.857143"></path></g></g></g><g id="g-root-tx_imagesan_94mvyb1watptt-stroke" data-item-order="0" data-item-id="tx_imagesan_94mvyb1watptt" data-item-class="Label Stroke SceneTarget Indexed Indexed_1" data-item-index="1" data-renderer-id="0" transform="translate(530, 110)"></g><g id="g-root-1_18ntqo31wux43m-stroke" data-item-order="0" data-item-id="1_18ntqo31wux43m" data-item-class="Icon Stroke SceneTarget SceneEnd InsideFill InsideGrayFill ColorFillGray" data-item-index="none" data-renderer-id="0" transform="translate(302, 181.9959716796875)"><g id="1_18ntqo31wux43m-stroke" fill="none" stroke-linecap="round" stroke-linejoin="round" stroke-miterlimit="4" stroke="#484848" stroke-width="2"><g><path d="M 35.5 46C 37.599998 51.400002 40.300003 56.199997 46 56.5C 51.699997 56.800003 55.900002 51.699997 56.5 46C 57.099998 40.300003 51.699997 35.199997 46 35.5C 40.300003 35.800003 36.699997 40.300003 35.5 46M 80.199997 45.099998C 77.199997 40.599998 62.5 25 46 26.5C 29.5 28 14.8 40.599998 11.8 45.099998C 11.5 45.699997 11.5 46.300003 11.8 46.900002C 15.4 51.099998 29.5 64 46 65.5C 62.5 67 76.300003 50.800003 80.199997 46.900002C 80.800003 46.599998 80.800003 45.400002 80.199997 45.099998"></path><path d="M 35.5 46C 35.500004 51.798988 40.201012 56.500004 46.000004 56.500004C 51.798988 56.500004 56.500004 51.798988 56.500004 46.000004C 56.500004 40.201012 51.798988 35.500004 46.000004 35.500004C 40.201012 35.500004 35.500004 40.201012 35.500004 46.000004M 80.139999 45.010002C 76.629997 41.050003 62.68 26.5 46 26.5C 29.32 26.5 15.37 41.050003 11.86 45.010002C 11.387483 45.585423 11.387483 46.41457 11.86 46.989998C 15.37 50.949997 29.32 65.5 46 65.5C 62.68 65.5 76.629997 50.949997 80.139999 46.989998C 80.612511 46.41457 80.612511 45.585423 80.139999 45.009998Z"></path></g></g></g><g id="g-root-tx_deeplear_vb3xhf1watpu7-stroke" data-item-order="0" data-item-id="tx_deeplear_vb3xhf1watpu7" data-item-class="Label Stroke SceneTarget Indexed" data-item-index="3" data-renderer-id="0" transform="translate(2, 278)"></g><g id="g-root-1_zqxflv1wav400-stroke" data-item-order="0" data-item-id="1_zqxflv1wav400" data-item-class="Icon Stroke SceneTarget Indexed InsideFill" data-item-index="3" data-renderer-id="0" transform="translate(168, 278)"><g id="1_zqxflv1wav400-stroke" fill="none" stroke-linecap="round" stroke-linejoin="round" stroke-miterlimit="4" stroke="#484848" stroke-width="2"><g><path d="M 22 50.799999C 24 50.200001 25.6 48.799999 26.6 47M 14.8 27C 19 27 22.200001 30.6 24.4 34.200001M 21.6 30.4C 22.799999 29.6 23.6 28.200001 25.200001 27.799999M 30 11.4C 29.200001 13.2 30.200001 15.6 29 17.200001M 26 19C 26.4 20 26.799999 21 28 21C 29.200001 21 30.200001 20 30 19C 29.799999 18 29.200001 17 28 17C 26.799999 17 25.6 18 26 19M 38 23C 37.799999 24 39 24.799999 40 25C 41 25.200001 42 24.200001 42 23C 41.799999 21.799999 41.200001 20.799999 40 21C 39 21.200001 37.799999 22 38 23M 45 31C 45 32.200001 46 32.799999 47 33C 48 33.200001 49.200001 32 49 31C 48.799999 30 48 28.799999 47 29C 46 29.200001 44.799999 30 45 31M 38 38C 38.200001 39 38.799999 40 40 40C 41.200001 40 41.599998 39 42 38C 42.400002 37 41 36.200001 40 36C 39 35.799999 37.799999 37 38 38M 25 27C 25.200001 28.200001 26 28.6 27 29C 28 29.4 28.799999 28.200001 29 27C 29.200001 25.799999 28 25.4 27 25C 26 24.6 25.200001 25.799999 25 27M 23 36C 23 37.200001 24 38.400002 25 38C 26 37.599998 27 37.200001 27 36C 27 34.799999 26.200001 33.799999 25 34C 24 34.200001 23.4 35 23 36M 57 34C 57 31.200001 55.400002 28.799999 53.200001 27C 53.599998 26.6 53.200001 25.799999 53.400002 25.200001C 54 21.200001 50.200001 17.200001 46 17.200001C 46.200001 15.6 45.599998 14 44.400002 12.8C 43.200001 11.8 41.599998 10.8 40 11C 37.599998 10.2 34.599998 12.4 34 15C 33 12.6 30.4 10.4 28 11C 26.4 10.8 24.799999 11.8 23.6 12.8C 22.4 14 22 15.6 21.799999 17.200001C 17.799999 17 16 21.4 14.6 25.200001C 14.4 25.799999 14.8 26.6 14.8 27C 12.4 28.4 10.8 31.200001 11 34C 11.2 36.799999 12 40.400002 14.8 41C 14.6 41.400002 14.8 42.200001 14.6 42.799999C 13.2 46.599998 17.799999 51 21.799999 50.799999C 21.799999 52.400002 22.6 54 23.6 55.200001C 24.799999 56.400002 26.4 56.599998 28 57C 30.200001 57.599998 32 55.400002 34 54C 35.400002 56 37.599998 57.400002 40 57C 41.599998 56.799999 43.400002 56.400002 44.400002 55.200001C 45.400002 53.799999 46.200001 52.400002 46 50.799999C 50.200001 50 53.599998 46.799999 53.400002 42.799999C 53.400002 42 53.200001 41.599998 53.200001 41C 55 38.799999 57.200001 36.799999 57 34M 34 15C 31.6 22.200001 31.200001 30.799999 34 38M 34 46C 35 48.400002 34 51.200001 34 54M 52.400002 21.4C 50.400002 21.799999 48.799999 23.6 46.799999 24.200001C 45 24.6 43.200001 25.200001 41.599998 24.200001M 40 36C 41.200001 33.799999 42.400002 30.799999 45 31M 46.200001 50.799999C 45.400002 48.799999 44.599998 47.599998 43 47M 25 45C 24.6 46 26 46.599998 27 47C 28 47.400002 28.799999 46 29 45C 29.200001 44 28 42.799999 27 43C 26 43.200001 25.4 44 25 45M 39 47C 39.200001 48 39.799999 49 41 49C 42.200001 49 43 48 43 47C 43 45.799999 42 45.200001 41 45C 40 44.799999 38.799999 46 39 47"></path><path d="M 21.9 50.722C 24.020437 50.369061 25.810703 48.951202 26.639999 46.967999M 14.842 27.091999C 18.933346 27.809448 22.448338 30.41087 24.33 34.113998M 21.566 30.458L 25.152 27.768M 30 11.346C 29.961555 13.350931 29.599562 15.336494 28.928001 17.226M 26 19C 26 20.104568 26.89543 21 28 21C 29.10457 21 30 20.104568 30 19C 30 17.895432 29.10457 17 28 17C 26.89543 17 26 17.895432 26 19ZM 38 23C 38 24.104568 38.895432 25 40 25C 41.104568 25 42 24.104568 42 23C 42 21.895432 41.104568 21 40 21C 38.895432 21 38 21.895432 38 23ZM 45 31C 45 32.104568 45.895432 33 47 33C 48.104568 33 49 32.104568 49 31C 49 29.89543 48.104568 29 47 29C 45.895432 29 45 29.89543 45 31ZM 38 38C 38 39.104568 38.895432 40 40 40C 41.104568 40 42 39.104568 42 38C 42 36.895432 41.104568 36 40 36C 38.895432 36 38 36.895432 38 38ZM 25 27C 25 28.10457 25.895432 29 27 29C 28.10457 29 29 28.10457 29 27C 29 25.895432 28.10457 25 27 25C 25.895432 25 25 25.895432 25 27ZM 23 36C 23 37.104568 23.895432 38 25 38C 26.10457 38 27 37.104568 27 36C 27 34.895432 26.10457 34 25 34C 23.895432 34 23 34.895432 23 36ZM 57 34C 57.008011 31.185829 55.553005 28.569696 53.158001 27.092001C 53.293533 26.501471 53.363956 25.897869 53.368 25.292C 53.408073 21.133251 50.242878 17.643175 46.099998 17.278C 46.141312 15.640398 45.524818 14.054508 44.388306 12.874773C 43.251789 11.695037 41.690002 11.019809 40.052002 11C 37.462227 11.148269 35.151451 12.67555 34 15C 32.848549 12.67555 30.537773 11.148269 27.948 11C 26.309998 11.019809 24.748211 11.695037 23.611694 12.874773C 22.47518 14.054508 21.858686 15.640398 21.9 17.278C 17.755573 17.643291 14.589825 21.135719 14.632 25.296C 14.632763 25.901501 14.699829 26.505098 14.832 27.095999C 12.44329 28.57963 10.990566 31.192043 10.990566 34.003998C 10.990566 36.815956 12.44329 39.428368 14.832 40.911999C 14.699829 41.502899 14.632763 42.106499 14.632 42.711998C 14.594027 46.869217 17.758669 50.356941 21.9 50.722C 21.858686 52.3596 22.47518 53.945492 23.611694 55.125225C 24.748211 56.304962 26.309998 56.98019 27.948 57C 30.33633 57.057899 32.59996 55.93581 34 53.999996C 35.40004 55.93581 37.663666 57.057899 40.051998 56.999996C 41.690002 56.98019 43.251789 56.304962 44.388306 55.125225C 45.524818 53.945492 46.141312 52.3596 46.099998 50.722C 50.244423 50.356709 53.410175 46.864277 53.368 42.703999C 53.363956 42.098129 53.293533 41.49453 53.157997 40.903999C 55.551788 39.427048 57.006618 36.812752 57 34ZM 34 15L 34 38M 34 45.916L 34 54M 52.346001 21.326L 46.799999 24.102001C 45.179813 24.913155 43.276203 24.932337 41.639999 24.153999M 40 36C 40.593044 33.525269 42.525269 31.593044 45.000004 31.000002M 46.099998 50.722C 45.548 48.799999 44.605999 47.321999 43 47M 25 45C 25 46.104568 25.895432 47 27 47C 28.10457 47 29 46.104568 29 45C 29 43.895432 28.10457 43 27 43C 25.895432 43 25 43.895432 25 45ZM 39 47C 39 48.104568 39.895432 49 41 49C 42.104568 49 43 48.104568 43 47C 43 45.895432 42.104568 45 41 45C 39.895432 45 39 45.895432 39 47Z"></path></g></g></g><g id="g-root-2_1414nyb1wawkcs-stroke" data-item-order="0" data-item-id="2_1414nyb1wawkcs" data-item-class="Icon Stroke SceneTarget Indexed InsideFill" data-item-index="2" data-renderer-id="0" transform="translate(460, 278)"><g id="2_1414nyb1wawkcs-stroke" fill="none" stroke-linecap="round" stroke-linejoin="round" stroke-miterlimit="4" stroke="#484848" stroke-width="2"><g><path d="M 41.599998 35C 40.599998 37.599998 43.799999 40.400002 46.599998 40C 49.200001 39.599998 51.400002 37.799999 51.599998 35C 51.599998 32.200001 49.200001 29.6 46.599998 30C 43.799999 30.4 41.799999 32.200001 41.599998 35M 41.599998 52C 42 54.799999 43.799999 57.400002 46.599998 57C 49.200001 56.599998 51.400002 54.799999 51.599998 52C 51.599998 49.200001 49.200001 47.400002 46.599998 47C 43.799999 46.599998 41.799999 49.200001 41.599998 52M 28.6 23C 27 31.200001 30.4 39.799999 28.6 48C 28 50.200001 30.4 51.599998 32.599998 52C 35.400002 52.599998 38.599998 52 41.599998 52M 28.6 35C 32.799999 35.400002 37.200001 36 41.599998 35M 40.599998 17C 40.400002 20.4 37.799999 22.6 34.599998 23C 30.6 23.4 26.4 22.4 22.6 23C 19.200001 23.4 17.4 20.200001 16.6 17C 15.6 13.8 19.4 12.2 22.6 11C 26.200001 9.6 30.6 10 34.599998 11C 37.799999 11.8 40.599998 13.6 40.599998 17"></path><path d="M 41.5 35C 41.5 37.761425 43.738575 40 46.5 40C 49.261425 40 51.5 37.761425 51.5 35C 51.5 32.238579 49.261425 30 46.5 30C 43.738575 30 41.5 32.238579 41.5 35M 41.5 52C 41.5 54.761425 43.738575 57 46.5 57C 49.261425 57 51.5 54.761425 51.5 52C 51.5 49.238575 49.261425 47 46.5 47C 43.738575 47 41.5 49.238575 41.5 52M 28.5 23L 28.5 48C 28.5 50.209141 30.290861 52 32.5 52L 41.5 52M 28.5 35L 41.5 35M 40.5 17C 40.5 20.313709 37.813709 23 34.5 23L 22.5 23C 19.186291 23 16.5 20.313709 16.5 17C 16.5 13.686292 19.186291 11 22.5 11L 34.5 11C 37.813709 11 40.5 13.686292 40.5 17Z"></path></g></g></g><g id="g-root-tx_algorith_mfgx8j1watreo-stroke" data-item-order="0" data-item-id="tx_algorith_mfgx8j1watreo" data-item-class="Label Stroke SceneTarget Indexed" data-item-index="2" data-renderer-id="0" transform="translate(530, 290)"></g></g></g></svg>