<?xml version="1.0" encoding="utf-8" standalone="yes"?>
<!DOCTYPE svg PUBLIC "-//W3C//DTD SVG 1.1//EN" "http://www.w3.org/Graphics/SVG/1.1/DTD/svg11.dtd">
<svg width="852" height="373" viewBox="0 0 852 373" style="fill:none;stroke:none;fill-rule:evenodd;clip-rule:evenodd;stroke-linecap:round;stroke-linejoin:round;stroke-miterlimit:1.5;" version="1.1" xmlns="http://www.w3.org/2000/svg" xmlns:xlink="http://www.w3.org/1999/xlink"><style id="fontImports">@import url("https://fonts.googleapis.com/css2?family=Roboto:wght@400;700&amp;display=block");</style><rect id="" x="0" y="0" width="852" height="373" style="fill: #ffffff;"></rect><g id="items" style="isolation: isolate"><g id="blend" style="mix-blend-mode:multiply"><g id="g-root-ro_zkoidf1tsw0so-fill" data-item-order="-25056" data-item-id="ro_zkoidf1tsw0so" data-item-class="Shape Stroke Fill" data-item-index="none" data-renderer-id="0" transform="translate(302, 90)"><g id="ro_zkoidf1tsw0so-fill" stroke="none" fill="#f0f0f0"><g><path d="M 34 10L 130 10C 130 10 154 10 154 34L 154 160C 154 160 154 184 130 184L 34 184C 34 184 10 184 10 160L 10 34C 10 34 10 10 34 10"></path></g></g></g><g id="g-root-ro_4gp1c31tt5szx-fill" data-item-order="-13608" data-item-id="ro_4gp1c31tt5szx" data-item-class="Shape Stroke Fill" data-item-index="none" data-renderer-id="0" transform="translate(494, 206.99996948242188)"><g id="ro_4gp1c31tt5szx-fill" stroke="none" fill="#e9fbf3"><g><path d="M 22 10L 250 10C 250 10 262 10 262 22L 262 52C 262 52 262 64 250 64L 22 64C 22 64 10 64 10 52L 10 22C 10 22 10 10 22 10"></path></g></g></g><g id="g-root-ro_v98f0j1tsnj7u-fill" data-item-order="-10368" data-item-id="ro_v98f0j1tsnj7u" data-item-class="Shape Stroke Fill" data-item-index="none" data-renderer-id="0" transform="translate(62, 3)"><g id="ro_v98f0j1tsnj7u-fill" stroke="none" fill="#ffe7e6"><g><path d="M 22 10L 190 10C 190 10 202 10 202 22L 202 52C 202 52 202 64 190 64L 22 64C 22 64 10 64 10 52L 10 22C 10 22 10 10 22 10"></path></g></g></g><g id="g-root-ro_zit3431tt1mh4-fill" data-item-order="-10368" data-item-id="ro_zit3431tt1mh4" data-item-class="Shape Stroke Fill" data-item-index="none" data-renderer-id="0" transform="translate(494, 21)"><g id="ro_zit3431tt1mh4-fill" stroke="none" fill="#e6efff"><g><path d="M 22 10L 190 10C 190 10 202 10 202 22L 202 52C 202 52 202 64 190 64L 22 64C 22 64 10 64 10 52L 10 22C 10 22 10 10 22 10"></path></g></g></g><g id="g-root-ro_95ab1tsnll0-fill" data-item-order="-9720" data-item-id="ro_95ab1tsnll0" data-item-class="Shape Stroke Fill" data-item-index="none" data-renderer-id="0" transform="translate(74, 224.99996948242188)"><g id="ro_95ab1tsnll0-fill" stroke="none" fill="#f7e6fe"><g><path d="M 22 10L 178 10C 178 10 190 10 190 22L 190 52C 190 52 190 64 178 64L 22 64C 22 64 10 64 10 52L 10 22C 10 22 10 10 22 10"></path></g></g></g><g id="g-root-pyra_zit3431tt1mh3-fill" data-item-order="0" data-item-id="pyra_zit3431tt1mh3" data-item-class="Icon Stroke" data-item-index="none" data-renderer-id="0" transform="translate(506, 33)"></g><g id="g-root-cu_92rdhf1tsnk00-fill" data-item-order="0" data-item-id="cu_92rdhf1tsnk00" data-item-class="Curve Stroke ColorFillGray ColorStrokeGray" data-item-index="none" data-renderer-id="0" transform="translate(212, 57)"></g><g id="g-root-cu_92rdhf1tsnk03-fill" data-item-order="0" data-item-id="cu_92rdhf1tsnk03" data-item-class="Curve Stroke ColorFillGray ColorStrokeGray" data-item-index="none" data-renderer-id="0" transform="translate(212, 57)"></g><g id="g-root-cu_74d8j1tsnkst-fill" data-item-order="0" data-item-id="cu_74d8j1tsnkst" data-item-class="Curve Stroke ColorFillGray ColorStrokeGray" data-item-index="none" data-renderer-id="0" transform="translate(212, 57)"></g><g id="g-root-cu_74d8j1tsnksv-fill" data-item-order="0" data-item-id="cu_74d8j1tsnksv" data-item-class="Curve Stroke ColorFillGray ColorStrokeGray" data-item-index="none" data-renderer-id="0" transform="translate(212, 57)"></g><g id="g-root-cu_qteww31tsnk03-fill" data-item-order="0" data-item-id="cu_qteww31tsnk03" data-item-class="Curve Stroke ColorFillGray ColorStrokeGray" data-item-index="none" data-renderer-id="0" transform="translate(446, 48)"></g><g id="g-root-tx_architec_1cu9lhf1tt1kw6-fill" data-item-order="0" data-item-id="tx_architec_1cu9lhf1tt1kw6" data-item-class="Label Stroke" data-item-index="none" data-renderer-id="0" transform="translate(542, 36)"><g id="tx_architec_1cu9lhf1tt1kw6-fill" stroke="none" fill="#4682e3"><g><text style="font: 20px Roboto, sans-serif; white-space: pre;"><tspan x="16.69" y="33.75" dominant-baseline="ideographic">Architectures</tspan></text></g></g></g><g id="g-root-tx_massived_v48mbn1tsm5n1-fill" data-item-order="0" data-item-id="tx_massived_v48mbn1tsm5n1" data-item-class="Label Stroke" data-item-index="none" data-renderer-id="0" transform="translate(38, 69)"><g id="tx_massived_v48mbn1tsm5n1-fill" stroke="none" fill="#484848"><g><text style="font: 20px Roboto, sans-serif; white-space: pre;"><tspan x="14.96" y="33.75" dominant-baseline="ideographic">Massive Datasets</tspan></text></g></g></g><g id="g-root-cu_mdlern1tsnksn-fill" data-item-order="0" data-item-id="cu_mdlern1tsnksn" data-item-class="Curve Stroke ColorFillGray ColorStrokeGray" data-item-index="none" data-renderer-id="0" transform="translate(518, 75)"></g><g id="g-root-cu_hxrwn71tsnlky-fill" data-item-order="0" data-item-id="cu_hxrwn71tsnlky" data-item-class="Curve Stroke ColorFillGray ColorStrokeGray" data-item-index="none" data-renderer-id="0" transform="translate(518, 75)"></g><g id="g-root-tx_convolut_vccsg31tsks26-fill" data-item-order="0" data-item-id="tx_convolut_vccsg31tsks26" data-item-class="Label Stroke" data-item-index="none" data-renderer-id="0" transform="translate(542, 86.99996948242188)"><g id="tx_convolut_vccsg31tsks26-fill" stroke="none" fill="#484848"><g><text style="font: 20px Roboto, sans-serif; white-space: pre;"><tspan x="16.61" y="33.75" dominant-baseline="ideographic">Convolutional Neural Networks</tspan></text></g></g></g><g id="g-root-tx_computat_v48mbn1tsm5n2-fill" data-item-order="0" data-item-id="tx_computat_v48mbn1tsm5n2" data-item-class="Label Stroke" data-item-index="none" data-renderer-id="0" transform="translate(2, 104.99996948242188)"><g id="tx_computat_v48mbn1tsm5n2-fill" stroke="none" fill="#484848"><g><text style="font: 20px Roboto, sans-serif; white-space: pre;"><tspan x="15.79" y="33.75" dominant-baseline="ideographic">Computational Power</tspan></text></g></g></g><g id="g-root-1_140i0hv1tsw00f-fill" data-item-order="0" data-item-id="1_140i0hv1tsw00f" data-item-class="Icon Stroke" data-item-index="none" data-renderer-id="0" transform="translate(350, 113.99996948242188)"></g><g id="g-root-tx_recurren_hrj5s31tsm51r-fill" data-item-order="0" data-item-id="tx_recurren_hrj5s31tsm51r" data-item-class="Label Stroke" data-item-index="none" data-renderer-id="0" transform="translate(542, 122.99996948242188)"><g id="tx_recurren_hrj5s31tsm51r-fill" stroke="none" fill="#484848"><g><text style="font: 20px Roboto, sans-serif; white-space: pre;"><tspan x="16.58" y="33.75" dominant-baseline="ideographic">Recurrent Neural Networks</tspan></text></g></g></g><g id="g-root-tx_gpus_qof4771tsm6fb-fill" data-item-order="0" data-item-id="tx_gpus_qof4771tsm6fb" data-item-class="Label Stroke" data-item-index="none" data-renderer-id="0" transform="translate(146, 140.99996948242188)"><g id="tx_gpus_qof4771tsm6fb-fill" stroke="none" fill="#484848"><g><text style="font: 20px Roboto, sans-serif; white-space: pre;"><tspan x="15.23" y="33.75" dominant-baseline="ideographic">GPUs</tspan></text></g></g></g><g id="g-root-tx_deeplear_1cw50qr1tsvz7q-fill" data-item-order="0" data-item-id="tx_deeplear_1cw50qr1tsvz7q" data-item-class="Label Stroke" data-item-index="none" data-renderer-id="0" transform="translate(326, 167.99996948242188)"><g id="tx_deeplear_1cw50qr1tsvz7q-fill" stroke="none" fill="#484848"><g><text style="font: 20px Roboto, sans-serif; white-space: pre;"><tspan x="32.77" y="33.75" dominant-baseline="ideographic">Deep </tspan><tspan x="16.95" y="57.75" dominant-baseline="ideographic">Learning </tspan><tspan x="22.57" y="81.75" dominant-baseline="ideographic">Models</tspan></text></g></g></g><g id="g-root-tx_transfor_dbpnnn1tsm5u0-fill" data-item-order="0" data-item-id="tx_transfor_dbpnnn1tsm5u0" data-item-class="Label Stroke" data-item-index="none" data-renderer-id="0" transform="translate(542, 158.99996948242188)"><g id="tx_transfor_dbpnnn1tsm5u0-fill" stroke="none" fill="#484848"><g><text style="font: 20px Roboto, sans-serif; white-space: pre;"><tspan x="15.93" y="33.75" dominant-baseline="ideographic">Transformers</tspan></text></g></g></g><g id="g-root-tx_tpus_m8lm2r1tsm77k-fill" data-item-order="0" data-item-id="tx_tpus_m8lm2r1tsm77k" data-item-class="Label Stroke" data-item-index="none" data-renderer-id="0" transform="translate(146, 176.99996948242188)"><g id="tx_tpus_m8lm2r1tsm77k-fill" stroke="none" fill="#484848"><g><text style="font: 20px Roboto, sans-serif; white-space: pre;"><tspan x="16.08" y="33.75" dominant-baseline="ideographic">TPUs</tspan></text></g></g></g><g id="g-root-cu_mdlern1tsnksh-fill" data-item-order="0" data-item-id="cu_mdlern1tsnksh" data-item-class="Curve Stroke ColorFillGray ColorStrokeGray" data-item-index="none" data-renderer-id="0" transform="translate(254, 205.99996948242188)"></g><g id="g-root-cu_hxrwn71tsnksu-fill" data-item-order="0" data-item-id="cu_hxrwn71tsnksu" data-item-class="Curve Stroke ColorFillGray ColorStrokeGray" data-item-index="none" data-renderer-id="0" transform="translate(446, 205.99996948242188)"></g><g id="g-root-cu_mdlern1tsnksk-fill" data-item-order="0" data-item-id="cu_mdlern1tsnksk" data-item-class="Curve Stroke ColorFillGray ColorStrokeGray" data-item-index="none" data-renderer-id="0" transform="translate(254, 30)"></g><g id="g-root-bowl_1448y6b1tsnlkx-fill" data-item-order="0" data-item-id="bowl_1448y6b1tsnlkx" data-item-class="Icon Stroke" data-item-index="none" data-renderer-id="0" transform="translate(212, 15)"></g><g id="g-root-boxe_dbpkhv1tt5vd0-fill" data-item-order="0" data-item-id="boxe_dbpkhv1tt5vd0" data-item-class="Icon Stroke" data-item-index="none" data-renderer-id="0" transform="translate(506, 218.99996948242188)"></g><g id="g-root-tx_training_hrj2mb1tt5ukr-fill" data-item-order="0" data-item-id="tx_training_hrj2mb1tt5ukr" data-item-class="Label Stroke" data-item-index="none" data-renderer-id="0" transform="translate(542, 221.99996948242188)"><g id="tx_training_hrj2mb1tt5ukr-fill" stroke="none" fill="#3bc482"><g><text style="font: 20px Roboto, sans-serif; white-space: pre;"><tspan x="16.87" y="33.75" dominant-baseline="ideographic">Training Techniques</tspan></text></g></g></g><g id="g-root-tx_framewor_hrj5s31tsnj7u-fill" data-item-order="0" data-item-id="tx_framewor_hrj5s31tsnj7u" data-item-class="Label Stroke" data-item-index="none" data-renderer-id="0" transform="translate(86, 239.99996948242188)"><g id="tx_framewor_hrj5s31tsnj7u-fill" stroke="none" fill="#b65edf"><g><text style="font: 20px Roboto, sans-serif; white-space: pre;"><tspan x="15.08" y="33.75" dominant-baseline="ideographic">Frameworks</tspan></text></g></g></g><g id="g-root-mold_dbpnnn1tsnk03-fill" data-item-order="0" data-item-id="mold_dbpnnn1tsnk03" data-item-class="Icon Stroke" data-item-index="none" data-renderer-id="0" transform="translate(212, 236.99996948242188)"></g><g id="g-root-cu_92rdhf1tsnj7y-fill" data-item-order="0" data-item-id="cu_92rdhf1tsnj7y" data-item-class="Curve Stroke ColorFillGray ColorStrokeGray" data-item-index="none" data-renderer-id="0" transform="translate(518, 260.9999694824219)"></g><g id="g-root-cu_dikvlv1tsnj7l-fill" data-item-order="0" data-item-id="cu_dikvlv1tsnj7l" data-item-class="Curve Stroke ColorFillGray ColorStrokeGray" data-item-index="none" data-renderer-id="0" transform="translate(518, 260.9999694824219)"></g><g id="g-root-cu_dikvlv1tsnj7n-fill" data-item-order="0" data-item-id="cu_dikvlv1tsnj7n" data-item-class="Curve Stroke ColorFillGray ColorStrokeGray" data-item-index="none" data-renderer-id="0" transform="translate(212, 278.9999694824219)"></g><g id="g-root-cu_4mxvcz1tsnk0e-fill" data-item-order="0" data-item-id="cu_4mxvcz1tsnk0e" data-item-class="Curve Stroke ColorFillGray ColorStrokeGray" data-item-index="none" data-renderer-id="0" transform="translate(212, 278.9999694824219)"></g><g id="g-root-tx_backprop_1um66831tsm4u9-fill" data-item-order="0" data-item-id="tx_backprop_1um66831tsm4u9" data-item-class="Label Stroke" data-item-index="none" data-renderer-id="0" transform="translate(542, 272.9999694824219)"><g id="tx_backprop_1um66831tsm4u9-fill" stroke="none" fill="#484848"><g><text style="font: 20px Roboto, sans-serif; white-space: pre;"><tspan x="12.41" y="33.75" dominant-baseline="ideographic">Backpropagation</tspan></text></g></g></g><g id="g-root-tx_tensorfl_18f2nlv1tsm77v-fill" data-item-order="0" data-item-id="tx_tensorfl_18f2nlv1tsm77v" data-item-class="Label Stroke" data-item-index="none" data-renderer-id="0" transform="translate(98, 290.9999694824219)"><g id="tx_tensorfl_18f2nlv1tsm77v-fill" stroke="none" fill="#484848"><g><text style="font: 20px Roboto, sans-serif; white-space: pre;"><tspan x="12.28" y="33.75" dominant-baseline="ideographic">TensorFlow</tspan></text></g></g></g><g id="g-root-tx_gradient_1lqj5z71tsm5my-fill" data-item-order="0" data-item-id="tx_gradient_1lqj5z71tsm5my" data-item-class="Label Stroke" data-item-index="none" data-renderer-id="0" transform="translate(542, 308.9999694824219)"><g id="tx_gradient_1lqj5z71tsm5my-fill" stroke="none" fill="#484848"><g><text style="font: 20px Roboto, sans-serif; white-space: pre;"><tspan x="15.35" y="33.75" dominant-baseline="ideographic">Gradient-based Optimization</tspan></text></g></g></g><g id="g-root-tx_pytorch_13zvmkj1tsm4uc-fill" data-item-order="0" data-item-id="tx_pytorch_13zvmkj1tsm4uc" data-item-class="Label Stroke" data-item-index="none" data-renderer-id="0" transform="translate(122, 326.9999694824219)"><g id="tx_pytorch_13zvmkj1tsm4uc-fill" stroke="none" fill="#484848"><g><text style="font: 20px Roboto, sans-serif; white-space: pre;"><tspan x="15.66" y="33.75" dominant-baseline="ideographic">PyTorch</tspan></text></g></g></g><g id="g-root-tx_requirem_18k2gar1tsnkso-fill" data-item-order="0" data-item-id="tx_requirem_18k2gar1tsnkso" data-item-class="Label Stroke" data-item-index="none" data-renderer-id="0" transform="translate(74, 18)"><g id="tx_requirem_18k2gar1tsnkso-fill" stroke="none" fill="#e15e5a"><g><text style="font: 20px Roboto, sans-serif; white-space: pre;"><tspan x="14.33" y="33.75" dominant-baseline="ideographic">Requirements</tspan></text></g></g></g><g id="g-root-cu_hxrwn71tsnll0-fill" data-item-order="0" data-item-id="cu_hxrwn71tsnll0" data-item-class="Curve Stroke ColorFillGray ColorStrokeGray" data-item-index="none" data-renderer-id="0" transform="translate(518, 75)"></g><g id="g-root-ro_zkoidf1tsw0so-stroke" data-item-order="-25056" data-item-id="ro_zkoidf1tsw0so" data-item-class="Shape Stroke Fill" data-item-index="none" data-renderer-id="0" transform="translate(302, 90)"><g id="ro_zkoidf1tsw0so-stroke" fill="none" stroke-linecap="round" stroke-linejoin="round" stroke-miterlimit="4" stroke="#484848" stroke-width="2"><g><path d="M 34 10L 130 10C 130 10 154 10 154 34L 154 160C 154 160 154 184 130 184L 34 184C 34 184 10 184 10 160L 10 34C 10 34 10 10 34 10"></path></g></g></g><g id="g-root-ro_4gp1c31tt5szx-stroke" data-item-order="-13608" data-item-id="ro_4gp1c31tt5szx" data-item-class="Shape Stroke Fill" data-item-index="none" data-renderer-id="0" transform="translate(494, 206.99996948242188)"><g id="ro_4gp1c31tt5szx-stroke" fill="none" stroke-linecap="round" stroke-linejoin="round" stroke-miterlimit="4" stroke="#3bc482" stroke-width="2"><g><path d="M 22 10L 250 10C 250 10 262 10 262 22L 262 52C 262 52 262 64 250 64L 22 64C 22 64 10 64 10 52L 10 22C 10 22 10 10 22 10"></path></g></g></g><g id="g-root-ro_v98f0j1tsnj7u-stroke" data-item-order="-10368" data-item-id="ro_v98f0j1tsnj7u" data-item-class="Shape Stroke Fill" data-item-index="none" data-renderer-id="0" transform="translate(62, 3)"><g id="ro_v98f0j1tsnj7u-stroke" fill="none" stroke-linecap="round" stroke-linejoin="round" stroke-miterlimit="4" stroke="#e15e5a" stroke-width="2"><g><path d="M 22 10L 190 10C 190 10 202 10 202 22L 202 52C 202 52 202 64 190 64L 22 64C 22 64 10 64 10 52L 10 22C 10 22 10 10 22 10"></path></g></g></g><g id="g-root-ro_zit3431tt1mh4-stroke" data-item-order="-10368" data-item-id="ro_zit3431tt1mh4" data-item-class="Shape Stroke Fill" data-item-index="none" data-renderer-id="0" transform="translate(494, 21)"><g id="ro_zit3431tt1mh4-stroke" fill="none" stroke-linecap="round" stroke-linejoin="round" stroke-miterlimit="4" stroke="#4682e3" stroke-width="2"><g><path d="M 22 10L 190 10C 190 10 202 10 202 22L 202 52C 202 52 202 64 190 64L 22 64C 22 64 10 64 10 52L 10 22C 10 22 10 10 22 10"></path></g></g></g><g id="g-root-ro_95ab1tsnll0-stroke" data-item-order="-9720" data-item-id="ro_95ab1tsnll0" data-item-class="Shape Stroke Fill" data-item-index="none" data-renderer-id="0" transform="translate(74, 224.99996948242188)"><g id="ro_95ab1tsnll0-stroke" fill="none" stroke-linecap="round" stroke-linejoin="round" stroke-miterlimit="4" stroke="#b65edf" stroke-width="2"><g><path d="M 22 10L 178 10C 178 10 190 10 190 22L 190 52C 190 52 190 64 178 64L 22 64C 22 64 10 64 10 52L 10 22C 10 22 10 10 22 10"></path></g></g></g><g id="g-root-pyra_zit3431tt1mh3-stroke" data-item-order="0" data-item-id="pyra_zit3431tt1mh3" data-item-class="Icon Stroke" data-item-index="none" data-renderer-id="0" transform="translate(506, 33)"><g id="pyra_zit3431tt1mh3-stroke" fill="none" stroke-linecap="round" stroke-linejoin="round" stroke-miterlimit="4" stroke="#4682e3" stroke-width="2"><g><path d="M 36.508751 15.625C 36.743187 15.859366 36.874928 16.177258 36.875 16.508749L 36.875 38.125C 36.875 38.815353 36.315353 39.375 35.625 39.375L 14.375 39.375C 13.684644 39.375 13.125 38.815353 13.125 38.125L 13.125 11.875C 13.125 11.184644 13.684644 10.625 14.375 10.625L 30.991249 10.625C 31.322744 10.625071 31.640635 10.756813 31.875 10.99125ZM 19.375 31.875C 19.375 33.255714 21.893398 34.375 25 34.375C 28.106602 34.375 30.625 33.255714 30.625 31.875C 30.625 30.494287 28.106602 29.375 25 29.375C 21.893398 29.375 19.375 30.494287 19.375 31.875ZM 19.77 30.952499L 24.424999 20.09C 24.52318 19.859529 24.749487 19.709949 25 19.709949C 25.250513 19.709949 25.47682 19.859529 25.575001 20.09L 30.23 30.952499"></path></g></g></g><g id="g-root-cu_92rdhf1tsnk00-stroke" data-item-order="0" data-item-id="cu_92rdhf1tsnk00" data-item-class="Curve Stroke ColorFillGray ColorStrokeGray" data-item-index="none" data-renderer-id="0" transform="translate(212, 57)"><g id="cu_92rdhf1tsnk00-stroke" fill="none" stroke-linecap="round" stroke-linejoin="round" stroke-miterlimit="4" stroke="#888888" stroke-width="2" stroke-dasharray="5.0, 7.0"><g><path d="M 28 10L 28 22L 28 34L 19 34L 10 34"></path></g></g></g><g id="g-root-cu_92rdhf1tsnk03-stroke" data-item-order="0" data-item-id="cu_92rdhf1tsnk03" data-item-class="Curve Stroke ColorFillGray ColorStrokeGray" data-item-index="none" data-renderer-id="0" transform="translate(212, 57)"><g id="cu_92rdhf1tsnk03-stroke" fill="none" stroke-linecap="round" stroke-linejoin="round" stroke-miterlimit="4" stroke="#888888" stroke-width="2" stroke-dasharray="5.0, 7.0"><g><path d="M 28 10L 28 40L 28 70L 19 70L 10 70"></path></g></g></g><g id="g-root-cu_74d8j1tsnkst-stroke" data-item-order="0" data-item-id="cu_74d8j1tsnkst" data-item-class="Curve Stroke ColorFillGray ColorStrokeGray" data-item-index="none" data-renderer-id="0" transform="translate(212, 57)"><g id="cu_74d8j1tsnkst-stroke" fill="none" stroke-linecap="round" stroke-linejoin="round" stroke-miterlimit="4" stroke="#888888" stroke-width="2" stroke-dasharray="5.0, 7.0"><g><path d="M 28 10L 28 58L 28 106L 19 106L 10 106"></path></g></g></g><g id="g-root-cu_74d8j1tsnksv-stroke" data-item-order="0" data-item-id="cu_74d8j1tsnksv" data-item-class="Curve Stroke ColorFillGray ColorStrokeGray" data-item-index="none" data-renderer-id="0" transform="translate(212, 57)"><g id="cu_74d8j1tsnksv-stroke" fill="none" stroke-linecap="round" stroke-linejoin="round" stroke-miterlimit="4" stroke="#888888" stroke-width="2" stroke-dasharray="5.0, 7.0"><g><path d="M 28 10L 28 26.5L 28 130C 28.000004 136.627428 22.62742 142.000012 16.000003 142.000011L 15.9 142L 10 142"></path></g></g></g><g id="g-root-cu_qteww31tsnk03-stroke" data-item-order="0" data-item-id="cu_qteww31tsnk03" data-item-class="Curve Stroke ColorFillGray ColorStrokeGray" data-item-index="none" data-renderer-id="0" transform="translate(446, 48)"><g id="cu_qteww31tsnk03-stroke" fill="none" stroke-linecap="round" stroke-linejoin="round" stroke-miterlimit="4" stroke="#888888" stroke-width="2" stroke-dasharray="5.0, 7.0"><g><path d="M 10 109.999969L 13 109.999969L 13.1 109.999969C 24.642751 109.999976 34.000001 100.642727 34.000001 89.099975L 34 88.999969L 34 30.899969C 33.999999 19.357219 43.357248 9.99997 54.899999 9.999971L 55 9.999969L 58 9.999969"></path></g></g></g><g id="g-root-tx_architec_1cu9lhf1tt1kw6-stroke" data-item-order="0" data-item-id="tx_architec_1cu9lhf1tt1kw6" data-item-class="Label Stroke" data-item-index="none" data-renderer-id="0" transform="translate(542, 36)"></g><g id="g-root-tx_massived_v48mbn1tsm5n1-stroke" data-item-order="0" data-item-id="tx_massived_v48mbn1tsm5n1" data-item-class="Label Stroke" data-item-index="none" data-renderer-id="0" transform="translate(38, 69)"></g><g id="g-root-cu_mdlern1tsnksn-stroke" data-item-order="0" data-item-id="cu_mdlern1tsnksn" data-item-class="Curve Stroke ColorFillGray ColorStrokeGray" data-item-index="none" data-renderer-id="0" transform="translate(518, 75)"><g id="cu_mdlern1tsnksn-stroke" fill="none" stroke-linecap="round" stroke-linejoin="round" stroke-miterlimit="4" stroke="#888888" stroke-width="2" stroke-dasharray="5.0, 7.0"><g><path d="M 10 9.999969L 10 21.999969L 10 33.999969L 19 33.999969L 28 33.999969"></path></g></g></g><g id="g-root-cu_hxrwn71tsnlky-stroke" data-item-order="0" data-item-id="cu_hxrwn71tsnlky" data-item-class="Curve Stroke ColorFillGray ColorStrokeGray" data-item-index="none" data-renderer-id="0" transform="translate(518, 75)"><g id="cu_hxrwn71tsnlky-stroke" fill="none" stroke-linecap="round" stroke-linejoin="round" stroke-miterlimit="4" stroke="#888888" stroke-width="2" stroke-dasharray="5.0, 7.0"><g><path d="M 10 9.999969L 10 39.999969L 10 69.999969L 19 69.999969L 28 69.999969"></path></g></g></g><g id="g-root-tx_convolut_vccsg31tsks26-stroke" data-item-order="0" data-item-id="tx_convolut_vccsg31tsks26" data-item-class="Label Stroke" data-item-index="none" data-renderer-id="0" transform="translate(542, 86.99996948242188)"></g><g id="g-root-tx_computat_v48mbn1tsm5n2-stroke" data-item-order="0" data-item-id="tx_computat_v48mbn1tsm5n2" data-item-class="Label Stroke" data-item-index="none" data-renderer-id="0" transform="translate(2, 104.99996948242188)"></g><g id="g-root-1_140i0hv1tsw00f-stroke" data-item-order="0" data-item-id="1_140i0hv1tsw00f" data-item-class="Icon Stroke" data-item-index="none" data-renderer-id="0" transform="translate(350, 113.99996948242188)"><g id="1_140i0hv1tsw00f-stroke" fill="none" stroke-linecap="round" stroke-linejoin="round" stroke-miterlimit="4" stroke="#484848" stroke-width="2"><g><path d="M 21.9 50.722C 24.020437 50.369061 25.810703 48.951202 26.639999 46.967999M 14.842 27.091999C 18.933346 27.809448 22.448338 30.41087 24.33 34.113998M 21.566 30.458L 25.152 27.768M 30 11.346C 29.961555 13.350931 29.599562 15.336494 28.928001 17.226M 26 19C 26 20.104568 26.89543 21 28 21C 29.10457 21 30 20.104568 30 19C 30 17.895432 29.10457 17 28 17C 26.89543 17 26 17.895432 26 19ZM 38 23C 38 24.104568 38.895432 25 40 25C 41.104568 25 42 24.104568 42 23C 42 21.895432 41.104568 21 40 21C 38.895432 21 38 21.895432 38 23ZM 45 31C 45 32.104568 45.895432 33 47 33C 48.104568 33 49 32.104568 49 31C 49 29.89543 48.104568 29 47 29C 45.895432 29 45 29.89543 45 31ZM 38 38C 38 39.104568 38.895432 40 40 40C 41.104568 40 42 39.104568 42 38C 42 36.895432 41.104568 36 40 36C 38.895432 36 38 36.895432 38 38ZM 25 27C 25 28.10457 25.895432 29 27 29C 28.10457 29 29 28.10457 29 27C 29 25.895432 28.10457 25 27 25C 25.895432 25 25 25.895432 25 27ZM 23 36C 23 37.104568 23.895432 38 25 38C 26.10457 38 27 37.104568 27 36C 27 34.895432 26.10457 34 25 34C 23.895432 34 23 34.895432 23 36ZM 57 34C 57.008011 31.185829 55.553005 28.569696 53.158001 27.092001C 53.293533 26.501471 53.363956 25.897869 53.368 25.292C 53.408073 21.133251 50.242878 17.643175 46.099998 17.278C 46.141312 15.640398 45.524818 14.054508 44.388306 12.874773C 43.251789 11.695037 41.690002 11.019809 40.052002 11C 37.462227 11.148269 35.151451 12.67555 34 15C 32.848549 12.67555 30.537773 11.148269 27.948 11C 26.309998 11.019809 24.748211 11.695037 23.611694 12.874773C 22.47518 14.054508 21.858686 15.640398 21.9 17.278C 17.755573 17.643291 14.589825 21.135719 14.632 25.296C 14.632763 25.901501 14.699829 26.505098 14.832 27.095999C 12.44329 28.57963 10.990566 31.192043 10.990566 34.003998C 10.990566 36.815956 12.44329 39.428368 14.832 40.911999C 14.699829 41.502899 14.632763 42.106499 14.632 42.711998C 14.594027 46.869217 17.758669 50.356941 21.9 50.722C 21.858686 52.3596 22.47518 53.945492 23.611694 55.125225C 24.748211 56.304962 26.309998 56.98019 27.948 57C 30.33633 57.057899 32.59996 55.93581 34 53.999996C 35.40004 55.93581 37.663666 57.057899 40.051998 56.999996C 41.690002 56.98019 43.251789 56.304962 44.388306 55.125225C 45.524818 53.945492 46.141312 52.3596 46.099998 50.722C 50.244423 50.356709 53.410175 46.864277 53.368 42.703999C 53.363956 42.098129 53.293533 41.49453 53.157997 40.903999C 55.551788 39.427048 57.006618 36.812752 57 34ZM 34 15L 34 38M 34 45.916L 34 54M 52.346001 21.326L 46.799999 24.102001C 45.179813 24.913155 43.276203 24.932337 41.639999 24.153999M 40 36C 40.593044 33.525269 42.525269 31.593044 45.000004 31.000002M 46.099998 50.722C 45.548 48.799999 44.605999 47.321999 43 47M 25 45C 25 46.104568 25.895432 47 27 47C 28.10457 47 29 46.104568 29 45C 29 43.895432 28.10457 43 27 43C 25.895432 43 25 43.895432 25 45ZM 39 47C 39 48.104568 39.895432 49 41 49C 42.104568 49 43 48.104568 43 47C 43 45.895432 42.104568 45 41 45C 39.895432 45 39 45.895432 39 47Z"></path></g></g></g><g id="g-root-tx_recurren_hrj5s31tsm51r-stroke" data-item-order="0" data-item-id="tx_recurren_hrj5s31tsm51r" data-item-class="Label Stroke" data-item-index="none" data-renderer-id="0" transform="translate(542, 122.99996948242188)"></g><g id="g-root-tx_gpus_qof4771tsm6fb-stroke" data-item-order="0" data-item-id="tx_gpus_qof4771tsm6fb" data-item-class="Label Stroke" data-item-index="none" data-renderer-id="0" transform="translate(146, 140.99996948242188)"></g><g id="g-root-tx_deeplear_1cw50qr1tsvz7q-stroke" data-item-order="0" data-item-id="tx_deeplear_1cw50qr1tsvz7q" data-item-class="Label Stroke" data-item-index="none" data-renderer-id="0" transform="translate(326, 167.99996948242188)"></g><g id="g-root-tx_transfor_dbpnnn1tsm5u0-stroke" data-item-order="0" data-item-id="tx_transfor_dbpnnn1tsm5u0" data-item-class="Label Stroke" data-item-index="none" data-renderer-id="0" transform="translate(542, 158.99996948242188)"></g><g id="g-root-tx_tpus_m8lm2r1tsm77k-stroke" data-item-order="0" data-item-id="tx_tpus_m8lm2r1tsm77k" data-item-class="Label Stroke" data-item-index="none" data-renderer-id="0" transform="translate(146, 176.99996948242188)"></g><g id="g-root-cu_mdlern1tsnksh-stroke" data-item-order="0" data-item-id="cu_mdlern1tsnksh" data-item-class="Curve Stroke ColorFillGray ColorStrokeGray" data-item-index="none" data-renderer-id="0" transform="translate(254, 205.99996948242188)"><g id="cu_mdlern1tsnksh-stroke" fill="none" stroke-linecap="round" stroke-linejoin="round" stroke-miterlimit="4" stroke="#888888" stroke-width="2" stroke-dasharray="5.0, 7.0"><g><path d="M 58 10L 55 10L 54.9 10C 43.357248 10.000001 33.999999 19.357249 33.999999 30.9L 34 31L 34 35.1C 34.000002 46.642753 24.642753 56.000003 13.100001 56.000003L 13 56L 10 56"></path></g></g></g><g id="g-root-cu_hxrwn71tsnksu-stroke" data-item-order="0" data-item-id="cu_hxrwn71tsnksu" data-item-class="Curve Stroke ColorFillGray ColorStrokeGray" data-item-index="none" data-renderer-id="0" transform="translate(446, 205.99996948242188)"><g id="cu_hxrwn71tsnksu-stroke" fill="none" stroke-linecap="round" stroke-linejoin="round" stroke-miterlimit="4" stroke="#888888" stroke-width="2" stroke-dasharray="5.0, 7.0"><g><path d="M 10 10L 13 10L 13.1 10C 17.129758 9.983299 21.502048 11.301927 25.7 13.8C 28.214651 15.340094 31.203125 19.012675 34 24C 36.796876 28.987324 39.785349 32.659906 42.3 34.2C 46.497954 36.698075 50.870244 38.016703 54.900001 38.000002L 55 38L 58 38"></path></g></g></g><g id="g-root-cu_mdlern1tsnksk-stroke" data-item-order="0" data-item-id="cu_mdlern1tsnksk" data-item-class="Curve Stroke ColorFillGray ColorStrokeGray" data-item-index="none" data-renderer-id="0" transform="translate(254, 30)"><g id="cu_mdlern1tsnksk-stroke" fill="none" stroke-linecap="round" stroke-linejoin="round" stroke-miterlimit="4" stroke="#888888" stroke-width="2" stroke-dasharray="5.0, 7.0"><g><path d="M 58 127.999969L 55 127.999969L 54.9 127.999969C 43.357244 127.999963 33.999996 118.642715 33.999997 107.099964L 34 106.999969L 34 30.899969C 33.999998 19.357218 24.64275 9.99997 13.1 9.999969L 13 9.999969L 10 9.999969"></path></g></g></g><g id="g-root-bowl_1448y6b1tsnlkx-stroke" data-item-order="0" data-item-id="bowl_1448y6b1tsnlkx" data-item-class="Icon Stroke" data-item-index="none" data-renderer-id="0" transform="translate(212, 15)"><g id="bowl_1448y6b1tsnlkx-stroke" fill="none" stroke-linecap="round" stroke-linejoin="round" stroke-miterlimit="4" stroke="#e15e5a" stroke-width="2"><g><path d="M 39.375 13.765C 39.375 18.589207 35.464207 22.5 30.640001 22.5L 30.610001 22.5C 25.785793 22.5 21.875 18.589207 21.875 13.765M 21.875 13.75C 21.875002 14.785534 25.792509 15.625 30.625 15.625C 35.457493 15.625 39.375 14.785534 39.375 13.75C 39.375 12.714466 35.457493 11.875 30.625 11.875C 25.792509 11.875 21.875002 12.714466 21.875002 13.75M 11.25 26.875L 15 26.875C 15 26.875 15.625 26.875 15.625 27.5L 15.625 36.25C 15.625 36.25 15.625 36.875 15 36.875L 11.25 36.875C 11.25 36.875 10.625 36.875 10.625 36.25L 10.625 27.5C 10.625 27.5 10.625 26.875 11.25 26.875M 15.625 35.078751C 21.25 36.953751 23.65625 38.125 25.75 38.125C 28.75 38.125 30.793751 36.241249 39.375 31.953751C 38.511703 30.790684 37.013474 30.291273 35.625 30.703751L 30.23 32.412498M 15.625 28.125L 19.375 28.125C 22.31625 28.125 24.375 30.625 25 30.625L 29.375 30.625C 30.625 30.625 30.625 33.125 29.375 33.125L 22.5 33.125"></path></g></g></g><g id="g-root-boxe_dbpkhv1tt5vd0-stroke" data-item-order="0" data-item-id="boxe_dbpkhv1tt5vd0" data-item-class="Icon Stroke" data-item-index="none" data-renderer-id="0" transform="translate(506, 218.99996948242188)"><g id="boxe_dbpkhv1tt5vd0-stroke" fill="none" stroke-linecap="round" stroke-linejoin="round" stroke-miterlimit="4" stroke="#3bc482" stroke-width="2"><g><path d="M 22.813751 13.75C 22.813751 15.47589 24.21286 16.875 25.938751 16.875C 27.66464 16.875 29.063751 15.47589 29.063751 13.75C 29.063751 12.02411 27.66464 10.625 25.938751 10.625C 24.21286 10.625 22.813751 12.02411 22.813751 13.75ZM 29.6875 23.125L 29.6875 19.375L 33.016251 19.375C 34.974789 19.375 36.5625 20.962711 36.5625 22.921249C 36.565063 24.177452 35.702076 25.269943 34.479416 25.55831C 33.25676 25.846678 31.996546 25.254953 31.437502 24.130001L 30.9375 23.129999ZM 30.9375 23.125L 33.4375 23.125M 29.6875 19.375L 22.1875 19.375C 21.433889 19.374823 20.753407 19.825851 20.459999 20.52L 13.585 36.77C 13.181832 37.724072 13.628428 38.824333 14.5825 39.227501C 15.536572 39.630669 16.636833 39.184071 17.040001 38.230003L 19.512501 32.38625L 22.205 33.366249C 22.944141 33.635849 23.436354 34.33823 23.4375 35.125L 23.4375 37.5C 23.4375 38.535534 24.276966 39.375 25.3125 39.375C 26.348034 39.375 27.1875 38.535534 27.1875 37.5L 27.1875 35.125C 27.183458 32.761009 25.705257 30.650503 23.485001 29.838751L 20.975 28.9275L 23.43 23.125L 29.6875 23.125"></path></g></g></g><g id="g-root-tx_training_hrj2mb1tt5ukr-stroke" data-item-order="0" data-item-id="tx_training_hrj2mb1tt5ukr" data-item-class="Label Stroke" data-item-index="none" data-renderer-id="0" transform="translate(542, 221.99996948242188)"></g><g id="g-root-tx_framewor_hrj5s31tsnj7u-stroke" data-item-order="0" data-item-id="tx_framewor_hrj5s31tsnj7u" data-item-class="Label Stroke" data-item-index="none" data-renderer-id="0" transform="translate(86, 239.99996948242188)"></g><g id="g-root-mold_dbpnnn1tsnk03-stroke" data-item-order="0" data-item-id="mold_dbpnnn1tsnk03" data-item-class="Icon Stroke" data-item-index="none" data-renderer-id="0" transform="translate(212, 236.99996948242188)"><g id="mold_dbpnnn1tsnk03-stroke" fill="none" stroke-linecap="round" stroke-linejoin="round" stroke-miterlimit="4" stroke="#b65edf" stroke-width="2"><g><path d="M 16.875 21.518749C 17.154423 21.516565 17.42905 21.591385 17.668751 21.735001L 19.80625 23C 20.101753 23.176458 20.474005 23.15974 20.752501 22.9575C 21.035034 22.750635 21.175184 22.40099 21.11375 22.056252L 20.651249 19.3825C 20.559299 18.860685 20.726116 18.326683 21.098751 17.950001L 22.858749 16.186251C 23.099865 15.942136 23.185575 15.584372 23.081249 15.2575C 22.981413 14.935676 22.707712 14.698306 22.375 14.645L 19.9375 14.28125C 19.419975 14.204492 18.974691 13.874981 18.75 13.4025L 17.665001 11.125C 17.519897 10.820292 17.212492 10.626198 16.875 10.626198C 16.537508 10.626198 16.230103 10.820292 16.084999 11.125L 15 13.4025C 14.776279 13.870886 14.335512 14.198419 13.8225 14.2775L 11.375 14.645C 11.039428 14.697177 10.76318 14.936526 10.66375 15.26125C 10.559425 15.588121 10.645135 15.945886 10.88625 16.190001L 12.65125 17.953751C 13.023884 18.330433 13.190701 18.864435 13.09875 19.38625L 12.63625 22.059999C 12.574817 22.404739 12.714966 22.754385 12.9975 22.96125C 13.275995 23.16349 13.648246 23.18021 13.94375 23.00375L 16.078751 21.734999C 16.319178 21.59094 16.59473 21.516106 16.875 21.518749ZM 36.25 26.875C 34.524109 26.875 33.125 28.274111 33.125 30C 33.125 28.274111 31.725891 26.875 30 26.875C 28.274111 26.875 26.875 28.274111 26.875 30C 26.875 33.875 31.147499 37.96875 32.625 39.195C 32.914307 39.437286 33.335693 39.437286 33.625 39.195C 35.106247 37.967499 39.375 33.875 39.375 30C 39.375 28.274111 37.975891 26.875 36.25 26.875ZM 26.875 16.875C 26.875 20.32678 29.673222 23.125 33.125 23.125C 36.576778 23.125 39.375 20.32678 39.375 16.875C 39.375 13.423221 36.576778 10.625 33.125 10.625C 29.673222 10.625 26.875 13.423221 26.875 16.875ZM 21.42 33.4375C 22.330667 32.578762 22.702354 31.292765 22.39023 30.080606C 22.078106 28.86845 21.131552 27.921894 19.919394 27.60977C 18.707235 27.297646 17.42124 27.669333 16.5625 28.58C 15.703761 27.669333 14.417765 27.297646 13.205607 27.60977C 11.993449 27.921894 11.046893 28.86845 10.73477 30.080606C 10.422646 31.292765 10.794333 32.578762 11.705 33.4375C 10.794333 34.296238 10.422646 35.582233 10.73477 36.794392C 11.046893 38.00655 11.993449 38.953106 13.205607 39.265228C 14.417765 39.577354 15.703761 39.205669 16.5625 38.294998C 17.42124 39.205669 18.707235 39.577354 19.919394 39.265228C 21.131552 38.953106 22.078106 38.00655 22.39023 36.794392C 22.702354 35.582233 22.330667 34.296238 21.42 33.4375Z"></path></g></g></g><g id="g-root-cu_92rdhf1tsnj7y-stroke" data-item-order="0" data-item-id="cu_92rdhf1tsnj7y" data-item-class="Curve Stroke ColorFillGray ColorStrokeGray" data-item-index="none" data-renderer-id="0" transform="translate(518, 260.9999694824219)"><g id="cu_92rdhf1tsnj7y-stroke" fill="none" stroke-linecap="round" stroke-linejoin="round" stroke-miterlimit="4" stroke="#888888" stroke-width="2" stroke-dasharray="5.0, 7.0"><g><path d="M 10 10L 10 22L 10 34L 19 34L 28 34"></path></g></g></g><g id="g-root-cu_dikvlv1tsnj7l-stroke" data-item-order="0" data-item-id="cu_dikvlv1tsnj7l" data-item-class="Curve Stroke ColorFillGray ColorStrokeGray" data-item-index="none" data-renderer-id="0" transform="translate(518, 260.9999694824219)"><g id="cu_dikvlv1tsnj7l-stroke" fill="none" stroke-linecap="round" stroke-linejoin="round" stroke-miterlimit="4" stroke="#888888" stroke-width="2" stroke-dasharray="5.0, 7.0"><g><path d="M 10 10L 10 17.5L 10 58C 10.000002 64.627417 15.372585 70 22.000002 69.999999L 22.1 70L 28 70"></path></g></g></g><g id="g-root-cu_dikvlv1tsnj7n-stroke" data-item-order="0" data-item-id="cu_dikvlv1tsnj7n" data-item-class="Curve Stroke ColorFillGray ColorStrokeGray" data-item-index="none" data-renderer-id="0" transform="translate(212, 278.9999694824219)"><g id="cu_dikvlv1tsnj7n-stroke" fill="none" stroke-linecap="round" stroke-linejoin="round" stroke-miterlimit="4" stroke="#888888" stroke-width="2" stroke-dasharray="5.0, 7.0"><g><path d="M 28 10L 28 22L 28 34L 19 34L 10 34"></path></g></g></g><g id="g-root-cu_4mxvcz1tsnk0e-stroke" data-item-order="0" data-item-id="cu_4mxvcz1tsnk0e" data-item-class="Curve Stroke ColorFillGray ColorStrokeGray" data-item-index="none" data-renderer-id="0" transform="translate(212, 278.9999694824219)"><g id="cu_4mxvcz1tsnk0e-stroke" fill="none" stroke-linecap="round" stroke-linejoin="round" stroke-miterlimit="4" stroke="#888888" stroke-width="2" stroke-dasharray="5.0, 7.0"><g><path d="M 28 10L 28 17.5L 28 58C 27.999999 64.627415 22.627416 69.999998 16 69.999998L 15.9 70L 10 70"></path></g></g></g><g id="g-root-tx_backprop_1um66831tsm4u9-stroke" data-item-order="0" data-item-id="tx_backprop_1um66831tsm4u9" data-item-class="Label Stroke" data-item-index="none" data-renderer-id="0" transform="translate(542, 272.9999694824219)"></g><g id="g-root-tx_tensorfl_18f2nlv1tsm77v-stroke" data-item-order="0" data-item-id="tx_tensorfl_18f2nlv1tsm77v" data-item-class="Label Stroke" data-item-index="none" data-renderer-id="0" transform="translate(98, 290.9999694824219)"></g><g id="g-root-tx_gradient_1lqj5z71tsm5my-stroke" data-item-order="0" data-item-id="tx_gradient_1lqj5z71tsm5my" data-item-class="Label Stroke" data-item-index="none" data-renderer-id="0" transform="translate(542, 308.9999694824219)"></g><g id="g-root-tx_pytorch_13zvmkj1tsm4uc-stroke" data-item-order="0" data-item-id="tx_pytorch_13zvmkj1tsm4uc" data-item-class="Label Stroke" data-item-index="none" data-renderer-id="0" transform="translate(122, 326.9999694824219)"></g><g id="g-root-tx_requirem_18k2gar1tsnkso-stroke" data-item-order="0" data-item-id="tx_requirem_18k2gar1tsnkso" data-item-class="Label Stroke" data-item-index="none" data-renderer-id="0" transform="translate(74, 18)"></g><g id="g-root-cu_hxrwn71tsnll0-stroke" data-item-order="0" data-item-id="cu_hxrwn71tsnll0" data-item-class="Curve Stroke ColorFillGray ColorStrokeGray" data-item-index="none" data-renderer-id="0" transform="translate(518, 75)"><g id="cu_hxrwn71tsnll0-stroke" fill="none" stroke-linecap="round" stroke-linejoin="round" stroke-miterlimit="4" stroke="#888888" stroke-width="2" stroke-dasharray="5.0, 7.0"><g><path d="M 10 9.999969L 10 21.999969L 10 93.999969C 10.000004 100.627392 15.372587 105.999975 22.000005 105.999975L 22.1 105.999969L 28 105.999969"></path></g></g></g></g></g></svg>