<?xml version="1.0" encoding="utf-8" standalone="yes"?>
<!DOCTYPE svg PUBLIC "-//W3C//DTD SVG 1.1//EN" "http://www.w3.org/Graphics/SVG/1.1/DTD/svg11.dtd">
<svg width="543" height="400" viewBox="0 0 543 400" style="fill:none;stroke:none;fill-rule:evenodd;clip-rule:evenodd;stroke-linecap:round;stroke-linejoin:round;stroke-miterlimit:1.5;" version="1.1" xmlns="http://www.w3.org/2000/svg" xmlns:xlink="http://www.w3.org/1999/xlink"><style id="fontImports">@import url("https://fonts.googleapis.com/css2?family=Shantell+Sans:wght@300..800&amp;display=block");</style><rect id="" x="0" y="0" width="542" height="400" style="fill: #ffffff;"></rect><g id="items" style="isolation: isolate"><g id="blend" style="mix-blend-mode:multiply"><g id="g-root-3.cu_sy_v8makz1qqxnnp-fill" data-item-order="-187483" data-item-id="3.cu_sy_v8makz1qqxnnp" data-item-class="ScenePart Part Indexed Stroke ColorStrokeBlack" data-item-index="3" data-renderer-id="0" transform="translate(4, 111.99899291992188)"></g><g id="g-root-2.cu_sy_zofspf1qqxmvg-fill" data-item-order="-187481" data-item-id="2.cu_sy_zofspf1qqxmvg" data-item-class="ScenePart Part Indexed Stroke ColorStrokeBlack" data-item-index="2" data-renderer-id="0" transform="translate(256.00048828125, 4)"></g><g id="g-root-1.cu_sy_zofspf1qqxmvf-fill" data-item-order="-187480" data-item-id="1.cu_sy_zofspf1qqxmvf" data-item-class="ScenePart Part Indexed Indexed_1 Fill Stroke ColorStrokeBlack" data-item-index="1" data-renderer-id="0" transform="translate(226.00048828125, 28)"><g id="1.cu_sy_zofspf1qqxmvf-fill" stroke="none" fill="none"><g><path d="M 10 34L 28 10L 28 18L 52 18L 52 10L 70 34L 52 58L 52 50L 28 50L 28 58L 10 34Z"></path></g></g></g><g id="g-root-tx_pros_dl34lv1qqxn9r-fill" data-item-order="0" data-item-id="tx_pros_dl34lv1qqxn9r" data-item-class="Label Stroke SceneTarget ColorStrokeBlack" data-item-index="none" data-renderer-id="0" transform="translate(64.00048828125, 39.999969482421875)"><g id="tx_pros_dl34lv1qqxn9r-fill" stroke="none" fill="#484848"><g><text style="font: 20px &quot;Shantell Sans&quot;, cursive; white-space: pre;"><tspan x="12" y="35" dominant-baseline="ideographic">Pros</tspan></text></g></g></g><g id="g-root-tx_cons_mgq4ur1qqxmh2-fill" data-item-order="0" data-item-id="tx_cons_mgq4ur1qqxmh2" data-item-class="Label Stroke SceneTarget ColorStrokeBlack" data-item-index="none" data-renderer-id="0" transform="translate(364.00048828125, 39.999969482421875)"><g id="tx_cons_mgq4ur1qqxmh2-fill" stroke="none" fill="#484848"><g><text style="font: 20px &quot;Shantell Sans&quot;, cursive; white-space: pre;"><tspan x="12" y="35" dominant-baseline="ideographic">Cons</tspan></text></g></g></g><g id="g-root-lear_zpoqvn1qr38y4-fill" data-item-order="0" data-item-id="lear_zpoqvn1qr38y4" data-item-class="Icon Stroke SceneTarget Indexed Indexed_1 ColorStrokeBlack" data-item-index="1" data-renderer-id="0" transform="translate(4.00048828125, 147.99996948242188)"></g><g id="g-root-tx_automate_qvx5w31qqxoul-fill" data-item-order="0" data-item-id="tx_automate_qvx5w31qqxoul" data-item-class="Label Stroke SceneTarget Indexed Indexed_1 ColorStrokeBlack" data-item-index="1" data-renderer-id="0" transform="translate(64.00048828125, 147.99996948242188)"><g id="tx_automate_qvx5w31qqxoul-fill" stroke="none" fill="#484848"><g><text style="font: 20px &quot;Shantell Sans&quot;, cursive; white-space: pre;"><tspan x="12" y="35" dominant-baseline="ideographic">Automates </tspan><tspan x="12" y="59" dominant-baseline="ideographic">learning</tspan></text></g></g></g><g id="g-root-sear_93e7831qr38y5-fill" data-item-order="0" data-item-id="sear_93e7831qr38y5" data-item-class="Icon Stroke SceneTarget Indexed ColorStrokeBlack" data-item-index="101" data-renderer-id="0" transform="translate(304.00048828125, 147.99996948242188)"></g><g id="g-root-tx_requires_1qdupsj1qqxo1t-fill" data-item-order="0" data-item-id="tx_requires_1qdupsj1qqxo1t" data-item-class="Label Stroke SceneTarget Indexed ColorStrokeBlack" data-item-index="101" data-renderer-id="0" transform="translate(364.00048828125, 147.99996948242188)"><g id="tx_requires_1qdupsj1qqxo1t-fill" stroke="none" fill="#484848"><g><text style="font: 20px &quot;Shantell Sans&quot;, cursive; white-space: pre;"><tspan x="12" y="35" dominant-baseline="ideographic">Requires large </tspan><tspan x="12" y="59" dominant-baseline="ideographic">labeled data</tspan></text></g></g></g><g id="g-root-2_1hi7pjn1qr38r2-fill" data-item-order="0" data-item-id="2_1hi7pjn1qr38r2" data-item-class="Icon Stroke SceneTarget Indexed ColorStrokeBlack" data-item-index="2" data-renderer-id="0" transform="translate(4.00048828125, 231.99996948242188)"></g><g id="g-root-tx_handlesc_zrk64z1qqxo1w-fill" data-item-order="0" data-item-id="tx_handlesc_zrk64z1qqxo1w" data-item-class="Label Stroke SceneTarget Indexed ColorStrokeBlack" data-item-index="2" data-renderer-id="0" transform="translate(64.00048828125, 231.99996948242188)"><g id="tx_handlesc_zrk64z1qqxo1w-fill" stroke="none" fill="#484848"><g><text style="font: 20px &quot;Shantell Sans&quot;, cursive; white-space: pre;"><tspan x="12" y="35" dominant-baseline="ideographic">Handles </tspan><tspan x="12" y="59" dominant-baseline="ideographic">complex tasks</tspan></text></g></g></g><g id="g-root-box_1lw5ser1qr39qa-fill" data-item-order="0" data-item-id="box_1lw5ser1qr39qa" data-item-class="Icon Stroke SceneTarget Indexed ColorStrokeBlack" data-item-index="102" data-renderer-id="0" transform="translate(304.00048828125, 231.99996948242188)"></g><g id="g-root-tx_lackoftr_4o766r1qqxmo0-fill" data-item-order="0" data-item-id="tx_lackoftr_4o766r1qqxmo0" data-item-class="Label Stroke SceneTarget Indexed ColorStrokeBlack" data-item-index="102" data-renderer-id="0" transform="translate(364.00048828125, 231.99996948242188)"><g id="tx_lackoftr_4o766r1qqxmo0-fill" stroke="none" fill="#484848"><g><text style="font: 20px &quot;Shantell Sans&quot;, cursive; white-space: pre;"><tspan x="12" y="35" dominant-baseline="ideographic">Lack of </tspan><tspan x="12" y="59" dominant-baseline="ideographic">transparency</tspan></text></g></g></g><g id="g-root-sear_dkgnir1qr3abz-fill" data-item-order="0" data-item-id="sear_dkgnir1qr3abz" data-item-class="Icon Stroke SceneTarget Indexed ColorStrokeBlack" data-item-index="3" data-renderer-id="0" transform="translate(4.00048828125, 315.9999694824219)"></g><g id="g-root-tx_nomanual_147do9f1qqxn9n-fill" data-item-order="0" data-item-id="tx_nomanual_147do9f1qqxn9n" data-item-class="Label Stroke SceneTarget Indexed ColorStrokeBlack" data-item-index="3" data-renderer-id="0" transform="translate(64.00048828125, 303.9999694824219)"><g id="tx_nomanual_147do9f1qqxn9n-fill" stroke="none" fill="#484848"><g><text style="font: 20px &quot;Shantell Sans&quot;, cursive; white-space: pre;"><tspan x="12" y="35" dominant-baseline="ideographic">No manual </tspan><tspan x="12" y="59" dominant-baseline="ideographic">feature </tspan><tspan x="12" y="83" dominant-baseline="ideographic">engineering</tspan></text></g></g></g><g id="g-root-1_1qbzaj71qr38y1-fill" data-item-order="0" data-item-id="1_1qbzaj71qr38y1" data-item-class="Icon Stroke SceneTarget Indexed ColorStrokeBlack" data-item-index="103" data-renderer-id="0" transform="translate(304.00048828125, 315.9999694824219)"></g><g id="g-root-tx_difficul_quo7pv1qqxmof-fill" data-item-order="0" data-item-id="tx_difficul_quo7pv1qqxmof" data-item-class="Label Stroke SceneTarget Indexed ColorStrokeBlack" data-item-index="103" data-renderer-id="0" transform="translate(364.00048828125, 315.9999694824219)"><g id="tx_difficul_quo7pv1qqxmof-fill" stroke="none" fill="#484848"><g><text style="font: 20px &quot;Shantell Sans&quot;, cursive; white-space: pre;"><tspan x="12" y="35" dominant-baseline="ideographic">Difficult to </tspan><tspan x="12" y="59" dominant-baseline="ideographic">interpret</tspan></text></g></g></g><g id="g-root-3.cu_sy_v8makz1qqxnnp-stroke" data-item-order="-187483" data-item-id="3.cu_sy_v8makz1qqxnnp" data-item-class="ScenePart Part Indexed Stroke ColorStrokeBlack" data-item-index="3" data-renderer-id="0" transform="translate(4, 111.99899291992188)"><g id="3.cu_sy_v8makz1qqxnnp-stroke" fill="none" stroke-linecap="round" stroke-linejoin="round" stroke-miterlimit="4" stroke="#484848" stroke-width="4"><g><path d="M 514 10C 493.1 10 472.2 9.9 451.3 10C 429.3 10.1 407.4 9.5 385.4 10C 364.5 10.5 343.6 9.7 322.7 10C 303.3 10.3 283.9 11.5 264.5 10C 243.9 8.3 223.1 8.6 202.5 10C 179.6 11.6 156.6 9.6 133.6 10C 113.4 10.4 93.1 11.2 72.9 10C 52 8.8 31 9.7 10 10"></path><path d="M 514.000488 10.000007L 9.999988 10.001007"></path></g></g></g><g id="g-root-2.cu_sy_zofspf1qqxmvg-stroke" data-item-order="-187481" data-item-id="2.cu_sy_zofspf1qqxmvg" data-item-class="ScenePart Part Indexed Stroke ColorStrokeBlack" data-item-index="2" data-renderer-id="0" transform="translate(256.00048828125, 4)"><g id="2.cu_sy_zofspf1qqxmvg-stroke" fill="none" stroke-linecap="round" stroke-linejoin="round" stroke-miterlimit="4" stroke="#484848" stroke-width="4"><g><path d="M 10 298C 10.1 270 11.8 241.9 10 214M 10 382C 10.5 369.1 9.8 356.3 10 343.4C 10.2 328.3 8.3 313 10 298M 10 214C 11.4 196.6 8.9 179 10 161.5C 11 147 11.1 132.5 10 118M 10 118C 11.7 105.4 10.8 92.6 10 80M 10 36C 8.9 27.4 8.5 18.5 10 10"></path><path d="M 10 298L 10 214M 10 382L 10 298M 10 214L 10 118M 10 118L 10 80M 10 36L 10 10"></path></g></g></g><g id="g-root-1.cu_sy_zofspf1qqxmvf-stroke" data-item-order="-187480" data-item-id="1.cu_sy_zofspf1qqxmvf" data-item-class="ScenePart Part Indexed Indexed_1 Fill Stroke ColorStrokeBlack" data-item-index="1" data-renderer-id="0" transform="translate(226.00048828125, 28)"><g id="1.cu_sy_zofspf1qqxmvf-stroke" fill="none" stroke-linecap="round" stroke-linejoin="round" stroke-miterlimit="4" stroke="#484848" stroke-width="4"><g><path d="M 10 34C 16.2 26.2 20.8 16.9 28 10C 28.7 12.6 27.1 15.5 28 18C 36 18.8 44 17.8 52 18C 52.8 15.4 51.8 12.7 52 10C 59.3 16.8 65 25.4 70 34C 65 42.6 56.8 49.3 52 58C 51 55.5 52 52.7 52 50C 44.2 51.6 35.8 48.4 28 50C 27.6 52.6 27.8 55.3 28 58C 23 49.4 17.1 41 10 34"></path><path d="M 10 34L 28 10L 28 18L 52 18L 52 10L 70 34L 52 58L 52 50L 28 50L 28 58L 10 34Z"></path></g></g><g id="1.cu_sy_zofspf1qqxmvf-stroke" fill="none" stroke-linecap="round" stroke-linejoin="round" stroke-miterlimit="4" stroke="#484848" stroke-width="4"><g><path d="M 30.6 28.4C 31.8 32.2 34.2 35.6 35 39.5M 35.2 39.1C 35.7 35.4 39.4 32.4 39.6 28.7M 49.4 30.2C 49.1 29.9 48.7 29.8 48.4 29.4C 48 28.7 46.8 28.7 45.5 28.8C 44.2 28.8 43.6 29.5 43.4 30.7C 43.7 31.8 44.1 33.3 46.3 33.9C 48.4 34.9 49.1 36 49.4 37.3C 49.7 38.5 48.4 38.8 47.1 39.6C 45.5 39.9 44.7 39.2 43.9 38.5C 43.5 38.1 43.2 37.7 43 37.2"></path><path d="M 30.599 28.373L 34.999 39.48M 35.199 39.097L 39.599 28.66M 49.399 30.192C 49.065 29.937 48.732 29.682 48.399 29.426C 47.799 28.852 46.832 28.628 45.499 28.756C 44.165 28.884 43.465 29.522 43.399 30.671C 43.265 31.82 44.232 32.905 46.299 33.927C 48.432 34.884 49.465 36.001 49.399 37.278C 49.399 38.555 48.632 39.321 47.099 39.576C 45.499 39.767 44.432 39.416 43.899 38.523C 43.565 38.076 43.265 37.629 42.999 37.182"></path></g></g></g><g id="g-root-tx_pros_dl34lv1qqxn9r-stroke" data-item-order="0" data-item-id="tx_pros_dl34lv1qqxn9r" data-item-class="Label Stroke SceneTarget ColorStrokeBlack" data-item-index="none" data-renderer-id="0" transform="translate(64.00048828125, 39.999969482421875)"></g><g id="g-root-tx_cons_mgq4ur1qqxmh2-stroke" data-item-order="0" data-item-id="tx_cons_mgq4ur1qqxmh2" data-item-class="Label Stroke SceneTarget ColorStrokeBlack" data-item-index="none" data-renderer-id="0" transform="translate(364.00048828125, 39.999969482421875)"></g><g id="g-root-lear_zpoqvn1qr38y4-stroke" data-item-order="0" data-item-id="lear_zpoqvn1qr38y4" data-item-class="Icon Stroke SceneTarget Indexed Indexed_1 ColorStrokeBlack" data-item-index="1" data-renderer-id="0" transform="translate(4.00048828125, 147.99996948242188)"><g id="lear_zpoqvn1qr38y4-stroke" fill="none" stroke-linecap="round" stroke-linejoin="round" stroke-miterlimit="4" stroke="#484848" stroke-width="2"><g><path d="M 11.714286 16.857143C 12.4 19.6 14.114285 21.657143 16.857143 22C 19.6 22.342857 21.657143 19.6 22 16.857143C 22.342857 14.114285 19.6 12.057143 16.857143 11.714286C 14.114285 11.371428 12.057143 14.114285 11.714286 16.857143M 28.857143 16.857143C 29.200001 19.6 31.257143 21.314285 34 22C 36.742859 22.685715 38.457146 19.6 39.142857 16.857143C 39.828571 14.114285 36.742859 11.714286 34 11.714286C 31.257143 11.714286 29.885715 14.114285 28.857143 16.857143M 46 16.857143C 47.028572 19.6 48.400002 22.685715 51.142857 22C 53.885715 21.314285 57.314285 19.6 56.285713 16.857143C 55.257141 14.114285 53.885715 12.057143 51.142857 11.714286C 48.400002 11.371428 46.342857 14.114285 46 16.857143M 11.714286 34C 10.685715 36.742859 14.114285 38.799999 16.857143 39.142857C 19.6 39.485718 21.314285 36.742859 22 34C 22.685715 31.257143 19.6 28.514286 16.857143 28.857143C 14.114285 28.857143 12.057143 31.257143 11.714286 34M 28.857143 34C 29.200001 36.742859 31.257143 39.485718 34 39.142857C 36.742859 38.799999 39.142857 36.742859 39.142857 34C 39.142857 31.257143 36.742859 28.514286 34 28.857143C 31.257143 29.200001 29.200001 31.257143 28.857143 34M 46 34C 46.342857 36.742859 48.400002 38.799999 51.142857 39.142857C 53.885715 39.485718 56.628574 36.742859 56.285713 34C 55.942856 31.257143 53.885715 28.857143 51.142857 28.857143C 48.400002 28.857143 46 31.257143 46 34M 11.714286 51.142857C 12.057143 53.885715 14.114285 56.971428 16.857143 56.285713C 19.6 55.600002 22.685715 53.885715 22 51.142857C 21.314285 48.400002 19.6 46 16.857143 46C 14.114285 46 11.371428 48.400002 11.714286 51.142857M 28.857143 51.142857C 27.828571 53.885715 31.257143 56.628574 34 56.285713C 36.742859 55.942856 39.485718 53.885715 39.142857 51.142857C 38.799999 48.400002 36.742859 44.971428 34 46C 31.257143 47.028572 29.200001 48.400002 28.857143 51.142857M 46 51.142857C 46.342857 53.885715 48.400002 55.257141 51.142857 56.285713C 53.885715 57.314285 56.628574 53.885715 56.285713 51.142857C 55.942856 48.400002 53.885715 47.028572 51.142857 46C 48.400002 45.314285 46.685715 48.400002 46 51.142857M 20.628571 20.628571C 22.685715 24.742859 27.142857 26.800001 30.228573 30.228573M 20.628571 47.371429C 23.028572 43.600002 27.142857 40.857143 30.228573 37.771431M 37.771431 30.228573C 41.885715 28.514286 44.285713 24.057142 47.371429 20.628571"></path><path d="M 11.714286 16.857143C 11.714286 19.697464 14.016822 22 16.857143 22C 19.697464 22 22 19.697464 22 16.857143C 22 14.016822 19.697464 11.714286 16.857143 11.714286C 14.016822 11.714286 11.714286 14.016822 11.714286 16.857143M 28.857143 16.857143C 28.857143 19.697464 31.159679 22 34 22C 36.840321 22 39.142857 19.697464 39.142857 16.857143C 39.142857 14.016822 36.840321 11.714286 34 11.714286C 31.159679 11.714286 28.857143 14.016822 28.857143 16.857143M 46 16.857143C 46 19.697464 48.30254 22 51.142857 22C 53.983181 22 56.285713 19.697464 56.285713 16.857143C 56.285713 14.016822 53.983181 11.714286 51.142857 11.714286C 48.30254 11.714286 46 14.016822 46 16.857143M 11.714286 34C 11.714286 36.840321 14.016822 39.142857 16.857143 39.142857C 19.697464 39.142857 22 36.840321 22 34C 22 31.159679 19.697464 28.857143 16.857143 28.857143C 14.016822 28.857143 11.714286 31.159679 11.714286 34M 28.857143 34C 28.857143 36.840321 31.159679 39.142857 34 39.142857C 36.840321 39.142857 39.142857 36.840321 39.142857 34C 39.142857 31.159679 36.840321 28.857143 34 28.857143C 31.159679 28.857143 28.857143 31.159679 28.857143 34M 46 34C 46 36.840321 48.30254 39.142857 51.142857 39.142857C 53.983181 39.142857 56.285713 36.840321 56.285713 34C 56.285713 31.159679 53.983181 28.857143 51.142857 28.857143C 48.30254 28.857143 46 31.159679 46 34M 11.714286 51.142857C 11.714286 53.983181 14.016822 56.285713 16.857143 56.285713C 19.697464 56.285713 22 53.983181 22 51.142857C 22 48.30254 19.697464 46 16.857143 46C 14.016822 46 11.714286 48.30254 11.714286 51.142857M 28.857143 51.142857C 28.857143 53.983181 31.159679 56.285713 34 56.285713C 36.840321 56.285713 39.142857 53.983181 39.142857 51.142857C 39.142857 48.30254 36.840321 46 34 46C 31.159679 46 28.857143 48.30254 28.857143 51.142857M 46 51.142857C 46 53.983181 48.30254 56.285713 51.142857 56.285713C 53.983181 56.285713 56.285713 53.983181 56.285713 51.142857C 56.285713 48.30254 53.983181 46 51.142857 46C 48.30254 46 46 48.30254 46 51.142857M 20.491428 20.491428L 30.365715 30.365715M 20.491428 47.508572L 30.365715 37.634289M 37.634289 30.365715L 47.508572 20.491428"></path></g></g></g><g id="g-root-tx_automate_qvx5w31qqxoul-stroke" data-item-order="0" data-item-id="tx_automate_qvx5w31qqxoul" data-item-class="Label Stroke SceneTarget Indexed Indexed_1 ColorStrokeBlack" data-item-index="1" data-renderer-id="0" transform="translate(64.00048828125, 147.99996948242188)"></g><g id="g-root-sear_93e7831qr38y5-stroke" data-item-order="0" data-item-id="sear_93e7831qr38y5" data-item-class="Icon Stroke SceneTarget Indexed ColorStrokeBlack" data-item-index="101" data-renderer-id="0" transform="translate(304.00048828125, 147.99996948242188)"><g id="sear_93e7831qr38y5-stroke" fill="none" stroke-linecap="round" stroke-linejoin="round" stroke-miterlimit="4" stroke="#484848" stroke-width="2"><g><path d="M 37 22.200001C 36.799999 22.6 36.799999 23 36.400002 23.200001C 36.200001 23.200001 35.799999 23.4 35.400002 23C 34.599998 22 33 22 32 21C 31 21.799999 29.6 22.200001 28.6 23C 28.200001 23.4 27.799999 23.200001 27.6 23.200001C 27.200001 23 27 22.6 27 22.200001C 26.200001 18.6 26 14.6 27 11C 30.4 11.2 33.599998 10.6 37 11C 35.799999 14.6 38.400002 18.799999 37 22.200001M 22 45C 19.6 45 17.200001 44.200001 15 45C 14 45.400002 13.4 44 13 43C 10.2 33.400002 14 23 13 13C 12.8 12 14 11 15 11C 26.4 11.6 37.599998 11.6 49 11C 50.200001 11 51.400002 12 51 13C 49.799999 16.4 51.599998 20.4 51 24M 47 49.599998C 49.799999 51.799999 52.200001 54.799999 55 57M 26.6 40C 26.799999 46.799999 32.599998 55 39 52.400002C 45.400002 49.799999 52.400002 46.799999 51.400002 40C 50.599998 33.200001 46 27.799999 39 27.4C 32.200001 27.200001 26.799999 33 26.4 40M 33 39C 33 38.400002 32.799999 37.599998 33 37M 33 45C 32.799999 44.400002 33 43.599998 33 43M 45 45C 44 42.599998 45 39.599998 45 37M 39 45C 38 42.599998 39 39.599998 39 37"></path><path d="M 37 22.234001C 37.000076 22.594206 36.806423 22.926619 36.493042 23.104216C 36.179661 23.281813 35.794983 23.277145 35.486 23.091999L 32 21L 28.514 23.091999C 28.205019 23.277145 27.820339 23.281813 27.506958 23.104216C 27.193577 22.926619 26.999924 22.594206 27 22.234001L 27 11L 37 11ZM 22 45L 15 45C 13.895431 45 13 44.104568 13 43L 13 13C 13 11.895431 13.895431 11 15 11L 49 11C 50.104568 11 51 11.895431 51 13L 51 24M 47.021999 49.537998L 55 57M 26.5 39.952C 26.498539 46.85659 32.095406 52.454643 39 52.454643C 45.904591 52.454643 51.501457 46.85659 51.5 39.952C 51.501457 33.047409 45.904591 27.449356 39 27.449356C 32.095406 27.449356 26.498539 33.047409 26.5 39.952ZM 33 39L 33 37M 33 45L 33 43M 45 45L 45 37M 39 45L 39 37"></path></g></g></g><g id="g-root-tx_requires_1qdupsj1qqxo1t-stroke" data-item-order="0" data-item-id="tx_requires_1qdupsj1qqxo1t" data-item-class="Label Stroke SceneTarget Indexed ColorStrokeBlack" data-item-index="101" data-renderer-id="0" transform="translate(364.00048828125, 147.99996948242188)"></g><g id="g-root-2_1hi7pjn1qr38r2-stroke" data-item-order="0" data-item-id="2_1hi7pjn1qr38r2" data-item-class="Icon Stroke SceneTarget Indexed ColorStrokeBlack" data-item-index="2" data-renderer-id="0" transform="translate(4.00048828125, 231.99996948242188)"><g id="2_1hi7pjn1qr38r2-stroke" fill="none" stroke-linecap="round" stroke-linejoin="round" stroke-miterlimit="4" stroke="#484848" stroke-width="2"><g><path d="M 39 22C 30.6 24.200001 21.6 21.200001 13 22C 12.4 22 12.2 21.6 12 21C 11.4 19.4 12.4 17.6 12 16C 11.8 15.4 12.4 14.8 13 15C 21.4 16.799999 30.4 14.8 39 15C 39.599998 15 40 15.4 40 16C 39.799999 17.6 39.400002 19.4 40 21C 40.200001 21.4 39.599998 21.799999 39 22M 47 36.599998C 38.400002 37.799999 29.6 37.599998 21 36.599998C 20.4 36.400002 20.200001 36 20 35.599998C 19.4 34 19.4 32 20 30.6C 20.200001 30 20.4 29.4 21 29.6C 29.6 30.6 38.400002 30.6 47 29.6C 47.599998 29.4 48.200001 30 48 30.6C 47.400002 32 48.400002 33.799999 48 35.599998C 48 35.799999 47.599998 36.599998 47 36.599998M 55 44C 46.400002 45.400002 37.400002 42.200001 29 44C 28.4 44.200001 28 44.400002 28 45C 28.200001 46.599998 27.6 48.400002 28 50C 28.200001 50.599998 28.4 51 29 51C 37.599998 52.200001 46.599998 53 55 51C 55.599998 50.799999 55.799999 50.599998 56 50C 56.599998 48.400002 55.599998 46.599998 56 45C 56 44.599998 55.599998 44 55 44M 34 11.6C 35 26.4 35.599998 41.599998 34 56.599998"></path><path d="M 39 22L 13 22C 12.4 22 12 21.6 12 21L 12 16C 12 15.4 12.4 15 13 15L 39 15C 39.599998 15 40 15.4 40 16L 40 21C 40 21.4 39.599998 22 39 22ZM 47 36.5L 21 36.5C 20.4 36.5 20 36.099998 20 35.5L 20 30.5C 20 29.9 20.4 29.5 21 29.5L 47 29.5C 47.599998 29.5 48 29.9 48 30.5L 48 35.5C 48 35.900002 47.599998 36.5 47 36.5ZM 55 44L 29 44C 28.4 44 28 44.400002 28 45L 28 50C 28 50.599998 28.4 51 29 51L 55 51C 55.599998 51 56 50.599998 56 50L 56 45C 56 44.599998 55.599998 44 55 44ZM 34 11.5L 34 56.5"></path></g></g></g><g id="g-root-tx_handlesc_zrk64z1qqxo1w-stroke" data-item-order="0" data-item-id="tx_handlesc_zrk64z1qqxo1w" data-item-class="Label Stroke SceneTarget Indexed ColorStrokeBlack" data-item-index="2" data-renderer-id="0" transform="translate(64.00048828125, 231.99996948242188)"></g><g id="g-root-box_1lw5ser1qr39qa-stroke" data-item-order="0" data-item-id="box_1lw5ser1qr39qa" data-item-class="Icon Stroke SceneTarget Indexed ColorStrokeBlack" data-item-index="102" data-renderer-id="0" transform="translate(304.00048828125, 231.99996948242188)"><g id="box_1lw5ser1qr39qa-stroke" fill="none" stroke-linecap="round" stroke-linejoin="round" stroke-miterlimit="4" stroke="#484848" stroke-width="2"><g><path d="M 47.599998 11.8C 47 11.4 46.599998 11.2 46 11C 38.200001 9.6 29.799999 9.4 22 11C 21.4 11.2 20.799999 11.2 20.4 11.8C 17.799999 16.200001 15.8 21.6 11.4 24.4C 11 24.799999 10.8 25.200001 11 25.6C 13.4 35.200001 9.4 45.400002 11 55C 11.2 56 12 56.599998 13 57C 26.200001 61.799999 41 55.599998 55 57C 56 57.200001 57 56 57 55C 56.599998 45.200001 57.799999 35.400002 57 25.6C 57 25.200001 57 24.799999 56.599998 24.4C 52.799999 21 50.599998 16 47.599998 11.8M 34 11C 33.400002 15.6 34.200001 20.4 34 25M 11.2 25C 26.4 24.6 41.599998 24.6 56.799999 25M 34 42C 34.599998 40.400002 34 38.599998 34 37M 43.799999 48C 40.200001 43.400002 39 37 35.799999 32C 35.200001 31.6 34.799999 31 34 31C 33.200001 31 32.799999 31.4 32.200001 32C 29.6 37.400002 26.6 42.599998 24.200001 48C 23.799999 48.599998 24 49.400002 24.200001 50C 24.6 50.599998 25.4 51.200001 26 51C 31.200001 49.400002 37 49.200001 42 51C 42.599998 51.200001 43.599998 50.799999 43.799999 50C 43.799999 49.400002 44 48.599998 43.799999 48M 34 45.599998C 34.200001 45.400002 34.599998 45.799999 34.599998 46C 34.400002 46.200001 34.200001 46.400002 34 46.599998C 33.799999 46.599998 33.599998 46.200001 33.599998 46C 33.400002 45.799999 33.799999 45.599998 34 45.599998"></path><path d="M 47.599998 11.838C 47.224163 11.3115 46.616882 10.999291 45.970001 11L 22.029999 11C 21.383118 10.999291 20.775839 11.3115 20.4 11.838L 11.372 24.478001C 11.129997 24.817133 10.999944 25.223375 11 25.639999L 11 55C 11 56.104568 11.895431 57 13 57L 55 57C 56.104568 57 57 56.104568 57 55L 57 25.639999C 57.000057 25.223375 56.870003 24.817133 56.627998 24.478001ZM 34 11L 34 25M 11.106 25L 56.894001 25M 34 42L 34 37M 43.751999 48.042L 35.751999 32.042C 35.4016 31.399265 34.728043 30.999321 33.996002 30.999321C 33.263954 30.999321 32.590401 31.399265 32.239998 32.042L 24.24 48.042C 23.901482 48.662365 23.915493 49.415325 24.276859 50.022667C 24.638224 50.630005 25.293287 51.001545 26 51L 42 51C 42.705288 50.998722 43.357761 50.626057 43.717182 50.019226C 44.076603 49.412392 44.089832 48.66111 43.751999 48.042ZM 34 45.5C 34.276142 45.5 34.5 45.723858 34.5 46C 34.5 46.276142 34.276142 46.5 34 46.5C 33.723858 46.5 33.5 46.276142 33.5 46C 33.5 45.723858 33.723858 45.5 34 45.5"></path></g></g></g><g id="g-root-tx_lackoftr_4o766r1qqxmo0-stroke" data-item-order="0" data-item-id="tx_lackoftr_4o766r1qqxmo0" data-item-class="Label Stroke SceneTarget Indexed ColorStrokeBlack" data-item-index="102" data-renderer-id="0" transform="translate(364.00048828125, 231.99996948242188)"></g><g id="g-root-sear_dkgnir1qr3abz-stroke" data-item-order="0" data-item-id="sear_dkgnir1qr3abz" data-item-class="Icon Stroke SceneTarget Indexed ColorStrokeBlack" data-item-index="3" data-renderer-id="0" transform="translate(4.00048828125, 315.9999694824219)"><g id="sear_dkgnir1qr3abz-stroke" fill="none" stroke-linecap="round" stroke-linejoin="round" stroke-miterlimit="4" stroke="#484848" stroke-width="2"><g><path d="M 11 31C 11.6 42 20.200001 52.799999 31 51C 42 49.200001 49.799999 42 51 31C 52.200001 20 42 10.8 31 11C 20 11.2 9.8 20 11 31M 45.200001 45.200001C 50 48 54.400002 52 57 57M 40.799999 28.799999C 41.200001 28.799999 41.599998 28.4 42 28.200001C 42.799999 27.4 43 26.4 42.799999 25.4C 42.599998 24.799999 42.200001 24.200001 41.799999 23.6C 41 22.799999 40 22.200001 39 23C 38.599998 23.200001 38.200001 23.4 37.799999 23.6C 36.400002 23.200001 35.400002 21.6 34 21.4C 34 21 34 20.4 34 20C 34 18.799999 33.200001 18.200001 32 18C 31.4 18 30.6 18 30 18C 28.799999 18.200001 28.200001 19 28 20C 28 20.4 28 21 28 21.4C 26.6 21.799999 25.200001 22.6 24.200001 23.6C 23.799999 23.4 23.4 23 23 23C 21.799999 22.799999 20.4 22.6 20.200001 23.6C 20 24.200001 19.4 24.799999 19.200001 25.4C 18.799999 26.4 19 27.6 20 28.200001C 20.4 28.4 20.799999 28.6 21.200001 28.799999C 20.6 30.200001 21 31.799999 21.200001 33.200001C 20.799999 33.400002 20.4 33.799999 20 34C 19 34.400002 18.6 35.599998 19.200001 36.599998C 19.6 37.200001 19.799999 37.799999 20.200001 38.400002C 21 39.200001 22.200001 40 23 39.200001C 23.4 38.799999 23.799999 38.599998 24.200001 38.400002C 25.200001 39.599998 26.6 40 28 40.599998C 28 41 28.200001 41.599998 28 42C 27.6 43 29 44.200001 30 44C 30.6 43.799999 31.4 44 32 44C 33.200001 44 34 43 34 42C 34 41.599998 34 41 34 40.599998C 35.400002 40.400002 36.599998 39.400002 37.799999 38.400002C 38 38.799999 38.599998 39 39 39C 40.200001 39.200001 41.200001 39.200001 41.799999 38.400002C 42.200001 37.799999 42.599998 37.200001 42.799999 36.599998C 43 35.599998 42.799999 34.799999 42 34C 41.799999 33.599998 41.200001 33.400002 40.799999 33.200001C 40.799999 31.799999 41.400002 30.200001 40.799999 28.799999M 27 31C 27.200001 33.200001 28.799999 35 31 35C 33.200001 35 34.799999 33.200001 35 31C 35.200001 28.799999 33.200001 26.4 31 27C 28.799999 27.6 27.6 28.799999 27 31"></path><path d="M 11 31.002001C 11 42.047695 19.954306 51.001999 31 51.001999C 42.045696 51.001999 51 42.047695 51 31.002001C 51 19.956306 42.045696 11.002001 31 11.002001C 19.954306 11.002001 11 19.956306 11 31.002001ZM 45.144001 45.147999L 57 57.001999M 40.722 28.851999L 42.026001 28.1C 42.982536 27.547699 43.310257 26.32456 42.757999 25.368L 41.757999 23.636C 41.2057 22.679462 39.982559 22.351742 39.026001 22.903999L 37.736 23.647999C 36.666962 22.652941 35.391197 21.906471 34 21.462L 34 20C 34 18.895432 33.104568 18 32 18L 30 18C 28.89543 18 28 18.895432 28 20L 28 21.476C 26.615519 21.923252 25.345306 22.667225 24.278 23.656L 22.972 22.902C 22.014915 22.350077 20.791615 22.678738 20.24 23.636L 19.24 25.368C 18.68774 26.32456 19.015465 27.547699 19.972 28.1L 21.284 28.858C 20.969002 30.272001 20.969002 31.737995 21.284 33.152L 19.98 33.903999C 19.022738 34.455612 18.694077 35.678917 19.246 36.636002L 20.246 38.368C 20.798302 39.324535 22.021439 39.65226 22.978001 39.099998L 24.268 38.356003C 25.336151 39.349724 26.610456 40.095459 27.999998 40.539997L 28 42C 28 43.104568 28.89543 44 30 44L 32 44C 33.104568 44 34 43.104568 34 42L 34 40.526001C 35.385483 40.079662 36.656536 39.335598 37.723999 38.346001L 39.026001 39.098C 39.982559 39.650261 41.2057 39.322536 41.757999 38.365997L 42.757999 36.634003C 43.310257 35.677437 42.982536 34.4543 42.026001 33.902L 40.716 33.146C 41.033695 31.732517 41.035744 30.266365 40.722 28.852001ZM 27 31.002001C 27 33.21114 28.790861 35.001999 31 35.001999C 33.209137 35.001999 35 33.21114 35 31.002001C 35 28.792862 33.209137 27.002001 31 27.002001C 28.790861 27.002001 27 28.792862 27 31.002001Z"></path></g></g></g><g id="g-root-tx_nomanual_147do9f1qqxn9n-stroke" data-item-order="0" data-item-id="tx_nomanual_147do9f1qqxn9n" data-item-class="Label Stroke SceneTarget Indexed ColorStrokeBlack" data-item-index="3" data-renderer-id="0" transform="translate(64.00048828125, 303.9999694824219)"></g><g id="g-root-1_1qbzaj71qr38y1-stroke" data-item-order="0" data-item-id="1_1qbzaj71qr38y1" data-item-class="Icon Stroke SceneTarget Indexed ColorStrokeBlack" data-item-index="103" data-renderer-id="0" transform="translate(304.00048828125, 315.9999694824219)"><g id="1_1qbzaj71qr38y1-stroke" fill="none" stroke-linecap="round" stroke-linejoin="round" stroke-miterlimit="4" stroke="#484848" stroke-width="2"><g><path d="M 31 17C 20 15.4 13 26.200001 11 37C 9 47.799999 20 58.400002 31 57C 42 55.599998 49.200001 48 51 37C 45.200001 34.599998 38.400002 37.200001 32 37C 31.4 37 31 36.599998 31 36C 31 29.6 30.200001 23.4 31 17M 37 30C 37.200001 30.6 37.400002 31.200001 38 31C 44.200001 29.6 50.599998 31.4 57 31C 56.599998 20 48 9.4 37 11C 37.799999 17.200001 37.599998 23.6 37 30"></path><path d="M 31 17C 19.954306 17 11.000001 25.954306 11.000001 37C 11.000001 48.045696 19.954306 57 31 57C 42.045696 57 51 48.045696 51 37L 32 37C 31.447716 37 31 36.552284 31 36ZM 37 30C 37 30.552284 37.447716 31 38 31L 57 31C 57 19.954304 48.045696 11 37 11Z"></path></g></g></g><g id="g-root-tx_difficul_quo7pv1qqxmof-stroke" data-item-order="0" data-item-id="tx_difficul_quo7pv1qqxmof" data-item-class="Label Stroke SceneTarget Indexed ColorStrokeBlack" data-item-index="103" data-renderer-id="0" transform="translate(364.00048828125, 315.9999694824219)"></g></g></g></svg>