<?xml version="1.0" encoding="utf-8" standalone="yes"?>
<!DOCTYPE svg PUBLIC "-//W3C//DTD SVG 1.1//EN" "http://www.w3.org/Graphics/SVG/1.1/DTD/svg11.dtd">
<svg width="708" height="410" viewBox="0 0 708 410" style="fill:none;stroke:none;fill-rule:evenodd;clip-rule:evenodd;stroke-linecap:round;stroke-linejoin:round;stroke-miterlimit:1.5;" version="1.1" xmlns="http://www.w3.org/2000/svg" xmlns:xlink="http://www.w3.org/1999/xlink"><style id="fontImports">@import url("https://fonts.googleapis.com/css2?family=Roboto:wght@400;700&amp;display=block");</style><rect id="" x="0" y="0" width="708" height="410" style="fill: #ffffff;"></rect><g id="items" style="isolation: isolate"><g id="blend" style="mix-blend-mode:multiply"><g id="g-root--1.cu_sy_1d305pu1syq77l-fill" data-item-order="-101372" data-item-id="-1.cu_sy_1d305pu1syq77l" data-item-class="ScenePart Part Fill Stroke ColorFillGray ColorStrokeGray" data-item-index="-1" data-renderer-id="0" transform="translate(314, 3)"><g id="-1.cu_sy_1d305pu1syq77l-fill" stroke="none" fill="none"><g><path d="M 65.766602 394C 80.754802 394 106.000002 308.039 106.000002 202C 106.000002 95.9613 80.754802 10 65.766602 10C 80.775202 10.01 92.941702 96.2224 92.941702 202C 92.941702 307.778 80.775202 393.99 65.766602 394ZM 65.765897 394C 80.774597 393.99 92.941097 307.778 92.941097 202C 92.941097 96.2224 80.774597 10.01 65.765897 10L 51.957397 10C 66.060697 16.8878 77.199297 100.4719 77.199297 202C 77.199297 303.528 65.382597 387.112 51.279297 394L 65.765897 394ZM 77.2 202C 77.2 303.528 65.3833 387.112 51.28 394L 50.0615 394C 35.0734 394 10 308.039 10 202C 10 95.9613 35.0734 10 50.0615 10C 50.6991 10 51.9581 10 51.9581 10C 66.0614 16.8878 77.2 100.4719 77.2 202Z"></path></g></g></g><g id="g-root-5.line_sy_dl2lte1syq80e-fill" data-item-order="-101369" data-item-id="5.line_sy_dl2lte1syq80e" data-item-class="ScenePart Part Indexed Stroke" data-item-index="5" data-renderer-id="0" transform="translate(230, 237.00003051757812)"></g><g id="g-root-4.line_sy_qwj46q1syq6fh-fill" data-item-order="-101367" data-item-id="4.line_sy_qwj46q1syq6fh" data-item-class="ScenePart Part Indexed Stroke" data-item-index="4" data-renderer-id="0" transform="translate(230, 218.99996948242188)"></g><g id="g-root-3.line_sy_qwj46q1syq6fg-fill" data-item-order="-101365" data-item-id="3.line_sy_qwj46q1syq6fg" data-item-class="ScenePart Part Indexed Stroke" data-item-index="3" data-renderer-id="0" transform="translate(230.109375, 194.99996948242188)"></g><g id="g-root-2.line_sy_zs64fm1syq5mr-fill" data-item-order="-101363" data-item-id="2.line_sy_zs64fm1syq5mr" data-item-class="ScenePart Part Indexed Stroke" data-item-index="2" data-renderer-id="0" transform="translate(230, 110.99996948242188)"></g><g id="g-root-1.line_sy_147d5gy1syq80a-fill" data-item-order="-101361" data-item-id="1.line_sy_147d5gy1syq80a" data-item-class="ScenePart Part Indexed Indexed_1 Stroke" data-item-index="1" data-renderer-id="0" transform="translate(230, 27)"></g><g id="g-root-tx_machinel_hu0vzm1syrmz0-fill" data-item-order="0" data-item-id="tx_machinel_hu0vzm1syrmz0" data-item-class="Label Stroke SceneTarget Indexed Indexed_1 ColorStrokeBlack" data-item-index="1" data-renderer-id="0" transform="translate(74, 3)"><g id="tx_machinel_hu0vzm1syrmz0-fill" stroke="none" fill="#484848"><g><text style="font: 20px Roboto, sans-serif; white-space: pre;"><tspan x="15.69" y="33.75" dominant-baseline="ideographic">Machine </tspan><tspan x="14.85" y="57.75" dominant-baseline="ideographic">Learning</tspan></text></g></g></g><g id="g-root-user_hs5gqa1syzzet-fill" data-item-order="0" data-item-id="user_hs5gqa1syzzet" data-item-class="Icon Stroke SceneTarget Indexed Indexed_1" data-item-index="1" data-renderer-id="0" transform="translate(170, 3)"></g><g id="g-root-tx_hierarch_v5hecy1syrle3-fill" data-item-order="0" data-item-id="tx_hierarch_v5hecy1syrle3" data-item-class="Label Stroke SceneTarget Indexed ColorStrokeBlack" data-item-index="2" data-renderer-id="0" transform="translate(2, 86.99996948242188)"><g id="tx_hierarch_v5hecy1syrle3-fill" stroke="none" fill="#484848"><g><text style="font: 20px Roboto, sans-serif; white-space: pre;"><tspan x="57.91" y="33.75" dominant-baseline="ideographic">Hierarchical </tspan><tspan x="14.84" y="57.75" dominant-baseline="ideographic">Feature Learning</tspan></text></g></g></g><g id="g-root-11_1d3mmsy1syyn7w-fill" data-item-order="0" data-item-id="11_1d3mmsy1syyn7w" data-item-class="Icon Stroke SceneTarget Indexed" data-item-index="2" data-renderer-id="0" transform="translate(170, 86.99996948242188)"></g><g id="g-root-tx_neuralne_1414elu1syrkle-fill" data-item-order="0" data-item-id="tx_neuralne_1414elu1syrkle" data-item-class="Label Stroke SceneTarget Indexed ColorStrokeBlack" data-item-index="3" data-renderer-id="0" transform="translate(2, 182.99996948242188)"><g id="tx_neuralne_1414elu1syrkle-fill" stroke="none" fill="#484848"><g><text style="font: 20px Roboto, sans-serif; white-space: pre;"><tspan x="16.01" y="33.75" dominant-baseline="ideographic">Neural Networks</tspan></text></g></g></g><g id="g-root-8_i09muq1syylu3-fill" data-item-order="0" data-item-id="8_i09muq1syylu3" data-item-class="Icon Stroke SceneTarget Indexed" data-item-index="3" data-renderer-id="0" transform="translate(170, 170.99996948242188)"></g><g id="g-root-1_4lor1u1syyn0g-fill" data-item-order="0" data-item-id="1_4lor1u1syyn0g" data-item-class="Icon Stroke SceneTarget SceneEnd ColorStrokeBlack" data-item-index="none" data-renderer-id="0" transform="translate(494, 170.99996948242188)"></g><g id="g-root-tx_deeplear_13z8zci1syrll3-fill" data-item-order="0" data-item-id="tx_deeplear_13z8zci1syrll3" data-item-class="Label Stroke SceneTarget SceneEnd ColorStrokeBlack" data-item-index="none" data-renderer-id="0" transform="translate(554, 182.99996948242188)"><g id="tx_deeplear_13z8zci1syrll3-fill" stroke="none" fill="#484848"><g><text style="font: 20px Roboto, sans-serif; white-space: pre;"><tspan x="12" y="33.75" dominant-baseline="ideographic">Deep Learning</tspan></text></g></g></g><g id="g-root-tx_patternr_1lrry0i1syrle1-fill" data-item-order="0" data-item-id="tx_patternr_1lrry0i1syrle1" data-item-class="Label Stroke SceneTarget Indexed ColorStrokeBlack" data-item-index="4" data-renderer-id="0" transform="translate(38, 254.99996948242188)"><g id="tx_patternr_1lrry0i1syrle1-fill" stroke="none" fill="#484848"><g><text style="font: 20px Roboto, sans-serif; white-space: pre;"><tspan x="63.14" y="33.75" dominant-baseline="ideographic">Pattern </tspan><tspan x="22.28" y="57.75" dominant-baseline="ideographic">Recognition</tspan></text></g></g></g><g id="g-root-sear_1lxe7si1syyney-fill" data-item-order="0" data-item-id="sear_1lxe7si1syyney" data-item-class="Icon Stroke SceneTarget Indexed" data-item-index="4" data-renderer-id="0" transform="translate(170, 254.99996948242188)"></g><g id="g-root-tx_unstruct_8x4xki1syrmdc-fill" data-item-order="0" data-item-id="tx_unstruct_8x4xki1syrmdc" data-item-class="Label Stroke SceneTarget Indexed ColorStrokeBlack" data-item-index="5" data-renderer-id="0" transform="translate(38, 338.9999694824219)"><g id="tx_unstruct_8x4xki1syrmdc-fill" stroke="none" fill="#484848"><g><text style="font: 20px Roboto, sans-serif; white-space: pre;"><tspan x="12.86" y="33.75" dominant-baseline="ideographic">Unstructured </tspan><tspan x="86.59" y="57.75" dominant-baseline="ideographic">Data</tspan></text></g></g></g><g id="g-root-comp_qu17ua1syym15-fill" data-item-order="0" data-item-id="comp_qu17ua1syym15" data-item-class="Icon Stroke SceneTarget Indexed" data-item-index="5" data-renderer-id="0" transform="translate(170, 338.9999694824219)"></g><g id="g-root--1.cu_sy_1d305pu1syq77l-stroke" data-item-order="-101372" data-item-id="-1.cu_sy_1d305pu1syq77l" data-item-class="ScenePart Part Fill Stroke ColorFillGray ColorStrokeGray" data-item-index="-1" data-renderer-id="0" transform="translate(314, 3)"><g id="-1.cu_sy_1d305pu1syq77l-stroke" fill="none" stroke-linecap="round" stroke-linejoin="round" stroke-miterlimit="4" stroke="#888888" stroke-width="2"><g><path d="M 65.766602 394C 80.754802 394 106.000002 308.0387 106.000002 202C 106.000002 95.9613 80.754802 10 65.766602 10C 80.775202 10.01 92.941702 96.2224 92.941702 202C 92.941702 307.7776 80.775202 393.99 65.766602 394ZM 65.765897 394C 80.774597 393.99 92.941097 307.7776 92.941097 202C 92.941097 96.2224 80.774597 10.01 65.765897 10L 51.957397 10C 66.060697 16.8878 77.199297 100.4719 77.199297 202C 77.199297 303.5282 65.382597 387.1122 51.279297 394L 65.765897 394ZM 77.2 202C 77.2 303.5282 65.3833 387.1122 51.28 394L 50.0615 394C 35.0734 394 10 308.0387 10 202C 10 95.9613 35.0734 10 50.0615 10C 50.6991 10 51.9581 10 51.9581 10C 66.0614 16.8878 77.2 100.4719 77.2 202Z"></path></g></g></g><g id="g-root-5.line_sy_dl2lte1syq80e-stroke" data-item-order="-101369" data-item-id="5.line_sy_dl2lte1syq80e" data-item-class="ScenePart Part Indexed Stroke" data-item-index="5" data-renderer-id="0" transform="translate(230, 237.00003051757812)"><g id="5.line_sy_dl2lte1syq80e-stroke" fill="none" stroke-linecap="round" stroke-linejoin="round" stroke-miterlimit="4" stroke="#dd8433" stroke-width="2"><g><path d="M 272.49 11.320007L 130 136.000007L 10 136.000007"></path><path d="M 272.3 20.120007L 272.9 11.020007L 263.7 10.420007" stroke-dasharray="none"></path></g></g></g><g id="g-root-4.line_sy_qwj46q1syq6fh-stroke" data-item-order="-101367" data-item-id="4.line_sy_qwj46q1syq6fh" data-item-class="ScenePart Part Indexed Stroke" data-item-index="4" data-renderer-id="0" transform="translate(230, 218.99996948242188)"><g id="4.line_sy_qwj46q1syq6fh-stroke" fill="none" stroke-linecap="round" stroke-linejoin="round" stroke-miterlimit="4" stroke="#e3cd09" stroke-width="2"><g><path d="M 254.19 10.859985L 130 69.999985L 10 69.999985"></path><path d="M 251.6 19.259985L 254.6 10.659985L 246 7.559985" stroke-dasharray="none"></path></g></g></g><g id="g-root-3.line_sy_qwj46q1syq6fg-stroke" data-item-order="-101365" data-item-id="3.line_sy_qwj46q1syq6fg" data-item-class="ScenePart Part Indexed Stroke" data-item-index="3" data-renderer-id="0" transform="translate(230.109375, 194.99996948242188)"><g id="3.line_sy_qwj46q1syq6fg-stroke" fill="none" stroke-linecap="round" stroke-linejoin="round" stroke-miterlimit="4" stroke="#93c131" stroke-width="2"><g><path d="M 247.89061 10L 129.89061 10L 10.00061 10"></path><path d="M 241.90061 16.5L 248.40061 10L 241.90061 3.5" stroke-dasharray="none"></path></g></g></g><g id="g-root-2.line_sy_zs64fm1syq5mr-stroke" data-item-order="-101363" data-item-id="2.line_sy_zs64fm1syq5mr" data-item-class="ScenePart Part Indexed Stroke" data-item-index="2" data-renderer-id="0" transform="translate(230, 110.99996948242188)"><g id="2.line_sy_zs64fm1syq5mr-stroke" fill="none" stroke-linecap="round" stroke-linejoin="round" stroke-miterlimit="4" stroke="#3bc482" stroke-width="2"><g><path d="M 254.19 69.14L 130 10L 10 10"></path><path d="M 246 72.4L 254.6 69.4L 251.6 60.7" stroke-dasharray="none"></path></g></g></g><g id="g-root-1.line_sy_147d5gy1syq80a-stroke" data-item-order="-101361" data-item-id="1.line_sy_147d5gy1syq80a" data-item-class="ScenePart Part Indexed Indexed_1 Stroke" data-item-index="1" data-renderer-id="0" transform="translate(230, 27)"><g id="1.line_sy_147d5gy1syq80a-stroke" fill="none" stroke-linecap="round" stroke-linejoin="round" stroke-miterlimit="4" stroke="#17b0e3" stroke-width="2"><g><path d="M 272.49 134.68L 130 10L 10 10"></path><path d="M 263.7 135.6L 272.9 135L 272.3 125.8" stroke-dasharray="none"></path></g></g></g><g id="g-root-tx_machinel_hu0vzm1syrmz0-stroke" data-item-order="0" data-item-id="tx_machinel_hu0vzm1syrmz0" data-item-class="Label Stroke SceneTarget Indexed Indexed_1 ColorStrokeBlack" data-item-index="1" data-renderer-id="0" transform="translate(74, 3)"></g><g id="g-root-user_hs5gqa1syzzet-stroke" data-item-order="0" data-item-id="user_hs5gqa1syzzet" data-item-class="Icon Stroke SceneTarget Indexed Indexed_1" data-item-index="1" data-renderer-id="0" transform="translate(170, 3)"><g id="user_hs5gqa1syzzet-stroke" fill="none" stroke-linecap="round" stroke-linejoin="round" stroke-miterlimit="4" stroke="#17b0e3" stroke-width="2"><g><path d="M 32 35C 25.372583 35 20 29.627417 20 23C 20 16.372583 25.372583 11 32 11ZM 13 57C 13 46.506592 21.50659 38 32 38L 32 57ZM 36 35C 36.670525 34.995987 37.339535 34.935776 38 34.82L 38 31.76C 38.983719 31.534334 39.921806 31.142733 40.773998 30.601999L 42.945999 32.774002C 44.040051 31.99596 44.99596 31.040052 45.773998 29.945999L 43.599998 27.774C 44.141434 26.92194 44.533714 25.983845 44.759998 25L 47.82 25C 47.935772 24.339535 47.995983 23.670525 48 23C 47.995983 22.329475 47.935772 21.660467 47.82 21L 44.759998 21C 44.533714 20.016151 44.141434 19.07806 43.599998 18.226L 45.771999 16.054001C 44.993961 14.959948 44.038052 14.00404 42.944 13.226L 40.774002 15.4C 39.921936 14.858564 38.983845 14.466283 38 14.24L 38 11.18C 37.339535 11.064227 36.670525 11.004017 36 11M 36 19C 38.209137 19 40 20.790861 40 23C 40 25.209139 38.209137 27 36 27M 55 57C 54.992783 55.994694 54.905846 54.99155 54.739998 53.999996L 50.698002 54C 50.430782 52.702488 49.990864 51.446644 49.390003 50.266003L 52.332001 47.326C 50.955723 45.003922 49.102207 43.000431 46.894001 41.448002L 44.009998 44.334C 42.772068 43.546524 41.424023 42.947319 40.010002 42.556L 40.010002 38.43C 38.692268 38.145462 37.348099 38.001328 36 38M 36 49C 40.418278 49 44 52.581722 44 57"></path></g></g></g><g id="g-root-tx_hierarch_v5hecy1syrle3-stroke" data-item-order="0" data-item-id="tx_hierarch_v5hecy1syrle3" data-item-class="Label Stroke SceneTarget Indexed ColorStrokeBlack" data-item-index="2" data-renderer-id="0" transform="translate(2, 86.99996948242188)"></g><g id="g-root-11_1d3mmsy1syyn7w-stroke" data-item-order="0" data-item-id="11_1d3mmsy1syyn7w" data-item-class="Icon Stroke SceneTarget Indexed" data-item-index="2" data-renderer-id="0" transform="translate(170, 86.99996948242188)"><g id="11_1d3mmsy1syyn7w-stroke" fill="none" stroke-linecap="round" stroke-linejoin="round" stroke-miterlimit="4" stroke="#3bc482" stroke-width="2"><g><path d="M 15.142858 27.142857C 15.142858 30.929953 18.212904 34 22 34C 25.787096 34 28.857143 30.929953 28.857143 27.142857C 28.857143 23.355762 25.787096 20.285715 22 20.285715C 18.212904 20.285715 15.142858 23.355762 15.142858 27.142857M 39.142857 46C 39.142857 49.787094 42.212906 52.857143 46 52.857143C 49.787094 52.857143 52.857143 49.787094 52.857143 46C 52.857143 42.212906 49.787094 39.142857 46 39.142857C 42.212906 39.142857 39.142857 42.212906 39.142857 46M 22 34L 22 56.285713M 22 20.285715L 22 11.714286M 28.857143 27.142857L 39.142857 27.142857C 42.929955 27.142857 46 30.212906 46 34L 46 39.142857"></path></g></g></g><g id="g-root-tx_neuralne_1414elu1syrkle-stroke" data-item-order="0" data-item-id="tx_neuralne_1414elu1syrkle" data-item-class="Label Stroke SceneTarget Indexed ColorStrokeBlack" data-item-index="3" data-renderer-id="0" transform="translate(2, 182.99996948242188)"></g><g id="g-root-8_i09muq1syylu3-stroke" data-item-order="0" data-item-id="8_i09muq1syylu3" data-item-class="Icon Stroke SceneTarget Indexed" data-item-index="3" data-renderer-id="0" transform="translate(170, 170.99996948242188)"><g id="8_i09muq1syylu3-stroke" fill="none" stroke-linecap="round" stroke-linejoin="round" stroke-miterlimit="4" stroke="#93c131" stroke-width="2"><g><path d="M 28 20.998001C 28 24.311708 30.686293 26.998001 34 26.998001C 37.313709 26.998001 40 24.311708 40 20.998001C 40 17.684292 37.313709 14.998 34 14.998C 30.686293 14.998 28 17.684292 28 20.998001ZM 11 48.998001C 11 52.31171 13.686292 54.998001 17 54.998001C 20.313709 54.998001 23 52.31171 23 48.998001C 23 45.684292 20.313709 42.998001 17 42.998001C 13.686292 42.998001 11 45.684292 11 48.998001ZM 45 48.998001C 45 52.31171 47.686295 54.998001 51 54.998001C 54.313709 54.998001 57 52.31171 57 48.998001C 57 45.684292 54.313709 42.998001 51 42.998001C 47.686295 42.998001 45 45.684292 45 48.998001ZM 23 48.998001L 45 48.998001M 30.205999 25.646L 19.639999 43.608002M 37.793999 25.646L 48.360001 43.608002"></path></g></g></g><g id="g-root-1_4lor1u1syyn0g-stroke" data-item-order="0" data-item-id="1_4lor1u1syyn0g" data-item-class="Icon Stroke SceneTarget SceneEnd ColorStrokeBlack" data-item-index="none" data-renderer-id="0" transform="translate(494, 170.99996948242188)"><g id="1_4lor1u1syyn0g-stroke" fill="none" stroke-linecap="round" stroke-linejoin="round" stroke-miterlimit="4" stroke="#484848" stroke-width="2"><g><path d="M 21.9 50.722C 24.020437 50.369061 25.810703 48.951202 26.639999 46.967999M 14.842 27.091999C 18.933346 27.809448 22.448338 30.41087 24.33 34.113998M 21.566 30.458L 25.152 27.768M 30 11.346C 29.961555 13.350931 29.599562 15.336494 28.928001 17.226M 26 19C 26 20.104568 26.89543 21 28 21C 29.10457 21 30 20.104568 30 19C 30 17.895432 29.10457 17 28 17C 26.89543 17 26 17.895432 26 19ZM 38 23C 38 24.104568 38.895432 25 40 25C 41.104568 25 42 24.104568 42 23C 42 21.895432 41.104568 21 40 21C 38.895432 21 38 21.895432 38 23ZM 45 31C 45 32.104568 45.895432 33 47 33C 48.104568 33 49 32.104568 49 31C 49 29.89543 48.104568 29 47 29C 45.895432 29 45 29.89543 45 31ZM 38 38C 38 39.104568 38.895432 40 40 40C 41.104568 40 42 39.104568 42 38C 42 36.895432 41.104568 36 40 36C 38.895432 36 38 36.895432 38 38ZM 25 27C 25 28.10457 25.895432 29 27 29C 28.10457 29 29 28.10457 29 27C 29 25.895432 28.10457 25 27 25C 25.895432 25 25 25.895432 25 27ZM 23 36C 23 37.104568 23.895432 38 25 38C 26.10457 38 27 37.104568 27 36C 27 34.895432 26.10457 34 25 34C 23.895432 34 23 34.895432 23 36ZM 57 34C 57.008011 31.185829 55.553005 28.569696 53.158001 27.092001C 53.293533 26.501471 53.363956 25.897869 53.368 25.292C 53.408073 21.133251 50.242878 17.643175 46.099998 17.278C 46.141312 15.640398 45.524818 14.054508 44.388306 12.874773C 43.251789 11.695037 41.690002 11.019809 40.052002 11C 37.462227 11.148269 35.151451 12.67555 34 15C 32.848549 12.67555 30.537773 11.148269 27.948 11C 26.309998 11.019809 24.748211 11.695037 23.611694 12.874773C 22.47518 14.054508 21.858686 15.640398 21.9 17.278C 17.755573 17.643291 14.589825 21.135719 14.632 25.296C 14.632763 25.901501 14.699829 26.505098 14.832 27.095999C 12.44329 28.57963 10.990566 31.192043 10.990566 34.003998C 10.990566 36.815956 12.44329 39.428368 14.832 40.911999C 14.699829 41.502899 14.632763 42.106499 14.632 42.711998C 14.594027 46.869217 17.758669 50.356941 21.9 50.722C 21.858686 52.3596 22.47518 53.945492 23.611694 55.125225C 24.748211 56.304962 26.309998 56.98019 27.948 57C 30.33633 57.057899 32.59996 55.93581 34 53.999996C 35.40004 55.93581 37.663666 57.057899 40.051998 56.999996C 41.690002 56.98019 43.251789 56.304962 44.388306 55.125225C 45.524818 53.945492 46.141312 52.3596 46.099998 50.722C 50.244423 50.356709 53.410175 46.864277 53.368 42.703999C 53.363956 42.098129 53.293533 41.49453 53.157997 40.903999C 55.551788 39.427048 57.006618 36.812752 57 34ZM 34 15L 34 38M 34 45.916L 34 54M 52.346001 21.326L 46.799999 24.102001C 45.179813 24.913155 43.276203 24.932337 41.639999 24.153999M 40 36C 40.593044 33.525269 42.525269 31.593044 45.000004 31.000002M 46.099998 50.722C 45.548 48.799999 44.605999 47.321999 43 47M 25 45C 25 46.104568 25.895432 47 27 47C 28.10457 47 29 46.104568 29 45C 29 43.895432 28.10457 43 27 43C 25.895432 43 25 43.895432 25 45ZM 39 47C 39 48.104568 39.895432 49 41 49C 42.104568 49 43 48.104568 43 47C 43 45.895432 42.104568 45 41 45C 39.895432 45 39 45.895432 39 47Z"></path></g></g></g><g id="g-root-tx_deeplear_13z8zci1syrll3-stroke" data-item-order="0" data-item-id="tx_deeplear_13z8zci1syrll3" data-item-class="Label Stroke SceneTarget SceneEnd ColorStrokeBlack" data-item-index="none" data-renderer-id="0" transform="translate(554, 182.99996948242188)"></g><g id="g-root-tx_patternr_1lrry0i1syrle1-stroke" data-item-order="0" data-item-id="tx_patternr_1lrry0i1syrle1" data-item-class="Label Stroke SceneTarget Indexed ColorStrokeBlack" data-item-index="4" data-renderer-id="0" transform="translate(38, 254.99996948242188)"></g><g id="g-root-sear_1lxe7si1syyney-stroke" data-item-order="0" data-item-id="sear_1lxe7si1syyney" data-item-class="Icon Stroke SceneTarget Indexed" data-item-index="4" data-renderer-id="0" transform="translate(170, 254.99996948242188)"><g id="sear_1lxe7si1syyney-stroke" fill="none" stroke-linecap="round" stroke-linejoin="round" stroke-miterlimit="4" stroke="#e3cd09" stroke-width="2"><g><path d="M 11.714286 30.297144C 11.712329 40.561554 20.03273 48.883545 30.297144 48.883545C 40.561554 48.883545 48.881958 40.561554 48.880001 30.297144C 48.881958 20.03273 40.561554 11.710742 30.297144 11.710742C 20.03273 11.710742 11.712329 20.03273 11.714286 30.297144M 56.285713 56.285713L 43.428574 43.428574"></path></g></g></g><g id="g-root-tx_unstruct_8x4xki1syrmdc-stroke" data-item-order="0" data-item-id="tx_unstruct_8x4xki1syrmdc" data-item-class="Label Stroke SceneTarget Indexed ColorStrokeBlack" data-item-index="5" data-renderer-id="0" transform="translate(38, 338.9999694824219)"></g><g id="g-root-comp_qu17ua1syym15-stroke" data-item-order="0" data-item-id="comp_qu17ua1syym15" data-item-class="Icon Stroke SceneTarget Indexed" data-item-index="5" data-renderer-id="0" transform="translate(170, 338.9999694824219)"><g id="comp_qu17ua1syym15-stroke" fill="none" stroke-linecap="round" stroke-linejoin="round" stroke-miterlimit="4" stroke="#dd8433" stroke-width="2"><g><path d="M 29.91 32.978001C 29.909641 35.237099 31.740902 37.068649 34 37.068649C 36.259102 37.068649 38.090363 35.237099 38.09 32.978001C 38.090363 30.718903 36.259102 28.88735 34 28.88735C 31.740902 28.88735 29.909641 30.718903 29.91 32.978001M 11 32.978001C 10.99964 35.237099 12.830901 37.068649 15.09 37.068649C 17.349098 37.068649 19.180359 35.237099 19.18 32.978001C 19.180359 30.718903 17.349098 28.88735 15.09 28.88735C 12.830901 28.88735 10.99964 30.718903 11 32.978001M 29.91 15.09C 29.909641 17.349098 31.740902 19.180653 34 19.180653C 36.259102 19.180653 38.090363 17.349098 38.09 15.09C 38.090363 12.830901 36.259102 10.999349 34 10.999349C 31.740902 10.999349 29.909641 12.830901 29.91 15.09M 29.91 52.91C 29.909641 55.169102 31.740902 57.000652 34 57.000652C 36.259102 57.000652 38.090363 55.169102 38.09 52.91C 38.090363 50.650902 36.259102 48.819351 34 48.819351C 31.740902 48.819351 29.909641 50.650902 29.91 52.91M 48.82 52.91C 48.819641 55.169102 50.650902 57.000652 52.91 57.000652C 55.169102 57.000652 57.000362 55.169102 57 52.91C 57.000362 50.650902 55.169102 48.819351 52.91 48.819351C 50.650902 48.819351 48.819641 50.650902 48.82 52.91M 48.82 32.978001C 48.819641 35.237099 50.650902 37.068649 52.91 37.068649C 55.169102 37.068649 57.000362 35.237099 57 32.978001C 57.000362 30.718903 55.169102 28.88735 52.91 28.88735C 50.650902 28.88735 48.819641 30.718903 48.82 32.978001M 11 15.09C 10.99964 17.349098 12.830901 19.180653 15.09 19.180653C 17.349098 19.180653 19.180359 17.349098 19.18 15.09C 19.180359 12.830901 17.349098 10.999349 15.09 10.999349C 12.830901 10.999349 10.99964 12.830901 11 15.09M 48.82 15.09C 48.819641 17.349098 50.650902 19.180653 52.91 19.180653C 55.169102 19.180653 57.000362 17.349098 57 15.09C 57.000362 12.830901 55.169102 10.999349 52.91 10.999349C 50.650902 10.999349 48.819641 12.830901 48.82 15.09M 11 52.91C 10.99964 55.169102 12.830901 57.000652 15.09 57.000652C 17.349098 57.000652 19.180359 55.169102 19.18 52.91C 19.180359 50.650902 17.349098 48.819351 15.09 48.819351C 12.830901 48.819351 10.99964 50.650902 11 52.91M 17.903999 49.939999L 31.186001 35.947998M 52.91 19.181999L 52.91 28.886M 38.09 32.978001L 48.818001 32.978001M 36.973999 30.167999L 49.933998 17.9M 18.066 17.9L 31.025999 30.167999"></path></g></g></g></g></g></svg>