<?xml version="1.0" encoding="utf-8" standalone="yes"?>
<!DOCTYPE svg PUBLIC "-//W3C//DTD SVG 1.1//EN" "http://www.w3.org/Graphics/SVG/1.1/DTD/svg11.dtd">
<svg width="649" height="314" viewBox="0 0 649 314" style="fill:none;stroke:none;fill-rule:evenodd;clip-rule:evenodd;stroke-linecap:round;stroke-linejoin:round;stroke-miterlimit:1.5;" version="1.1" xmlns="http://www.w3.org/2000/svg" xmlns:xlink="http://www.w3.org/1999/xlink"><style id="fontImports">@import url("https://fonts.googleapis.com/css2?family=Roboto:wght@400;700&amp;display=block");</style><rect id="" x="0" y="0" width="649" height="314" style="fill: #ffffff;"></rect><g id="items" style="isolation: isolate"><g id="blend" style="mix-blend-mode:multiply"><g id="g-root-3.cu_sy_1um6m2r1r0q7es-fill" data-item-order="-103676" data-item-id="3.cu_sy_1um6m2r1r0q7es" data-item-class="ScenePart Part Indexed Fill Stroke ColorFillGray" data-item-index="3" data-renderer-id="0" transform="translate(338, 3)"><g id="3.cu_sy_1um6m2r1r0q7es-fill" stroke="none" fill="none"><g><path d="M 298 154C 298 233.529 233.529 298 154 298C 74.471 298 10 233.529 10 154C 10 74.471 74.471 10 154 10C 233.529 10 298 74.471 298 154ZM 154 250C 207.019 250 250 207.019 250 154C 250 100.9807 207.019 58 154 58C 100.9807 58 58 100.9807 58 154C 58 207.019 100.9807 250 154 250Z"></path></g></g></g><g id="g-root-3.line_sy_1um6m2r1r0q7et-fill" data-item-order="-103673" data-item-id="3.line_sy_1um6m2r1r0q7et" data-item-class="ScenePart Part Indexed Stroke LeaderLine ColorStrokeBlack" data-item-index="3" data-renderer-id="0" transform="translate(266, 63.0001220703125)"></g><g id="g-root-2.cu_sy_w2831r0q6tm-fill" data-item-order="-103672" data-item-id="2.cu_sy_w2831r0q6tm" data-item-class="ScenePart Part Indexed Fill Stroke ColorFillGray" data-item-index="2" data-renderer-id="0" transform="translate(386, 51)"><g id="2.cu_sy_w2831r0q6tm-fill" stroke="none" fill="none"><g><path d="M 202 106C 202 159.019 159.019 202 106 202C 52.9807 202 10 159.019 10 106C 10 52.9807 52.9807 10 106 10C 159.019 10 202 52.9807 202 106ZM 106 154C 132.51 154 154 132.51 154 106C 154 79.4903 132.51 58 106 58C 79.4903 58 58 79.4903 58 106C 58 132.51 79.4903 154 106 154Z"></path></g></g></g><g id="g-root-2.line_sy_1um6m2r1r0q7er-fill" data-item-order="-103669" data-item-id="2.line_sy_1um6m2r1r0q7er" data-item-class="ScenePart Part Indexed Stroke LeaderLine ColorStrokeBlack" data-item-index="2" data-renderer-id="0" transform="translate(266, 147.00970458984375)"></g><g id="g-root-1.cu_sy_8vwldv1r0q96o-fill" data-item-order="-103668" data-item-id="1.cu_sy_8vwldv1r0q96o" data-item-class="ScenePart Part Indexed Indexed_1 Fill Stroke ColorFillGray" data-item-index="1" data-renderer-id="0" transform="translate(434, 99)"><g id="1.cu_sy_8vwldv1r0q96o-fill" stroke="none" fill="none"><g><path d="M 106 58C 106 84.5097 84.5097 106 58 106C 31.4903 106 10 84.5097 10 58C 10 31.4903 31.4903 10 58 10C 84.5097 10 106 31.4903 106 58Z"></path></g></g></g><g id="g-root-1.line_sy_w2831r0q6tl-fill" data-item-order="-103665" data-item-id="1.line_sy_w2831r0q6tl" data-item-class="ScenePart Part Indexed Indexed_1 Stroke LeaderLine ColorStrokeBlack" data-item-index="1" data-renderer-id="0" transform="translate(266, 164.501953125)"></g><g id="g-root-tx_generalk_zk2kar1r0q875-fill" data-item-order="0" data-item-id="tx_generalk_zk2kar1r0q875" data-item-class="Label Stroke SceneTarget Indexed ColorStrokeBlack" data-item-index="3" data-renderer-id="0" transform="translate(14, 51)"><g id="tx_generalk_zk2kar1r0q875-fill" stroke="none" fill="#484848"><g><text style="font: 20px Roboto, sans-serif; white-space: pre;"><tspan x="16.75" y="33.75" dominant-baseline="ideographic">General Knowledge</tspan></text></g></g></g><g id="g-root-book_4hyiir1r0vswe-fill" data-item-order="0" data-item-id="book_4hyiir1r0vswe" data-item-class="Icon Stroke SceneTarget Indexed ColorStrokeBlack" data-item-index="3" data-renderer-id="0" transform="translate(206, 39)"></g><g id="g-root-tx_finetuni_13zw2f71r0q7ew-fill" data-item-order="0" data-item-id="tx_finetuni_13zw2f71r0q7ew" data-item-class="Label Stroke SceneTarget Indexed ColorStrokeBlack" data-item-index="2" data-renderer-id="0" transform="translate(86, 135)"><g id="tx_finetuni_13zw2f71r0q7ew-fill" stroke="none" fill="#484848"><g><text style="font: 20px Roboto, sans-serif; white-space: pre;"><tspan x="12.76" y="33.75" dominant-baseline="ideographic">Fine-Tuning</tspan></text></g></g></g><g id="g-root-slid_dcz1oj1r0vv9h-fill" data-item-order="0" data-item-id="slid_dcz1oj1r0vv9h" data-item-class="Icon Stroke SceneTarget Indexed ColorStrokeBlack" data-item-index="2" data-renderer-id="0" transform="translate(206, 123)"></g><g id="g-root-tx_taskspec_1haq3pf1r0q8zr-fill" data-item-order="0" data-item-id="tx_taskspec_1haq3pf1r0q8zr" data-item-class="Label Stroke SceneTarget Indexed Indexed_1 ColorStrokeBlack" data-item-index="1" data-renderer-id="0" transform="translate(2, 219)"><g id="tx_taskspec_1haq3pf1r0q8zr-fill" stroke="none" fill="#484848"><g><text style="font: 20px Roboto, sans-serif; white-space: pre;"><tspan x="21.23" y="33.75" dominant-baseline="ideographic">Task-Specific Model</tspan></text></g></g></g><g id="g-root-focu_qofk1v1r0vtok-fill" data-item-order="0" data-item-id="focu_qofk1v1r0vtok" data-item-class="Icon Stroke SceneTarget Indexed Indexed_1 ColorStrokeBlack" data-item-index="1" data-renderer-id="0" transform="translate(206, 207)"></g><g id="g-root-3.cu_sy_1um6m2r1r0q7es-stroke" data-item-order="-103676" data-item-id="3.cu_sy_1um6m2r1r0q7es" data-item-class="ScenePart Part Indexed Fill Stroke ColorFillGray" data-item-index="3" data-renderer-id="0" transform="translate(338, 3)"><g id="3.cu_sy_1um6m2r1r0q7es-stroke" fill="none" stroke-linecap="round" stroke-linejoin="round" stroke-miterlimit="4" stroke="#e3cd09" stroke-width="2"><g><path d="M 298 154C 298 233.529 233.529 298 154 298C 74.471 298 10 233.529 10 154C 10 74.471 74.471 10 154 10C 233.529 10 298 74.471 298 154ZM 154 250C 207.0193 250 250 207.0193 250 154C 250 100.9807 207.0193 58 154 58C 100.9807 58 58 100.9807 58 154C 58 207.0193 100.9807 250 154 250Z"></path></g></g></g><g id="g-root-3.line_sy_1um6m2r1r0q7et-stroke" data-item-order="-103673" data-item-id="3.line_sy_1um6m2r1r0q7et" data-item-class="ScenePart Part Indexed Stroke LeaderLine ColorStrokeBlack" data-item-index="3" data-renderer-id="0" transform="translate(266, 63.0001220703125)"><g id="3.line_sy_1um6m2r1r0q7et-stroke" fill="none" stroke-linecap="round" stroke-linejoin="round" stroke-miterlimit="4" stroke="#484848" stroke-width="2"><g><path d="M 10 9.999878L 89.64 40.969878"></path><path d="M 81.7 44.899878L 90.1 41.199878L 86.4 32.699878" stroke-dasharray="none"></path></g></g></g><g id="g-root-2.cu_sy_w2831r0q6tm-stroke" data-item-order="-103672" data-item-id="2.cu_sy_w2831r0q6tm" data-item-class="ScenePart Part Indexed Fill Stroke ColorFillGray" data-item-index="2" data-renderer-id="0" transform="translate(386, 51)"><g id="2.cu_sy_w2831r0q6tm-stroke" fill="none" stroke-linecap="round" stroke-linejoin="round" stroke-miterlimit="4" stroke="#4682e3" stroke-width="2"><g><path d="M 202 106C 202 159.0193 159.0193 202 106 202C 52.9807 202 10 159.0193 10 106C 10 52.9807 52.9807 10 106 10C 159.0193 10 202 52.9807 202 106ZM 106 154C 132.5097 154 154 132.5097 154 106C 154 79.4903 132.5097 58 106 58C 79.4903 58 58 79.4903 58 106C 58 132.5097 79.4903 154 106 154Z"></path></g></g></g><g id="g-root-2.line_sy_1um6m2r1r0q7er-stroke" data-item-order="-103669" data-item-id="2.line_sy_1um6m2r1r0q7er" data-item-class="ScenePart Part Indexed Stroke LeaderLine ColorStrokeBlack" data-item-index="2" data-renderer-id="0" transform="translate(266, 147.00970458984375)"><g id="2.line_sy_1um6m2r1r0q7er-stroke" fill="none" stroke-linecap="round" stroke-linejoin="round" stroke-miterlimit="4" stroke="#484848" stroke-width="2"><g><path d="M 10 10.000305L 128 10.000305"></path><path d="M 122 16.500305L 128.5 10.000305L 122 3.500305" stroke-dasharray="none"></path></g></g></g><g id="g-root-1.cu_sy_8vwldv1r0q96o-stroke" data-item-order="-103668" data-item-id="1.cu_sy_8vwldv1r0q96o" data-item-class="ScenePart Part Indexed Indexed_1 Fill Stroke ColorFillGray" data-item-index="1" data-renderer-id="0" transform="translate(434, 99)"><g id="1.cu_sy_8vwldv1r0q96o-stroke" fill="none" stroke-linecap="round" stroke-linejoin="round" stroke-miterlimit="4" stroke="#3bc482" stroke-width="2"><g><path d="M 106 58C 106 84.5097 84.5097 106 58 106C 31.4903 106 10 84.5097 10 58C 10 31.4903 31.4903 10 58 10C 84.5097 10 106 31.4903 106 58Z"></path></g></g></g><g id="g-root-1.line_sy_w2831r0q6tl-stroke" data-item-order="-103665" data-item-id="1.line_sy_w2831r0q6tl" data-item-class="ScenePart Part Indexed Indexed_1 Stroke LeaderLine ColorStrokeBlack" data-item-index="1" data-renderer-id="0" transform="translate(266, 164.501953125)"><g id="1.line_sy_w2831r0q6tl-stroke" fill="none" stroke-linecap="round" stroke-linejoin="round" stroke-miterlimit="4" stroke="#484848" stroke-width="2"><g><path d="M 10 76.498027L 179.14 10.728027"></path><path d="M 175.9 18.928027L 179.6 10.528027L 171.2 6.828027" stroke-dasharray="none"></path></g></g></g><g id="g-root-tx_generalk_zk2kar1r0q875-stroke" data-item-order="0" data-item-id="tx_generalk_zk2kar1r0q875" data-item-class="Label Stroke SceneTarget Indexed ColorStrokeBlack" data-item-index="3" data-renderer-id="0" transform="translate(14, 51)"></g><g id="g-root-book_4hyiir1r0vswe-stroke" data-item-order="0" data-item-id="book_4hyiir1r0vswe" data-item-class="Icon Stroke SceneTarget Indexed ColorStrokeBlack" data-item-index="3" data-renderer-id="0" transform="translate(206, 39)"><g id="book_4hyiir1r0vswe-stroke" fill="none" stroke-linecap="round" stroke-linejoin="round" stroke-miterlimit="4" stroke="#484848" stroke-width="2"><g><path d="M 34 16L 34 52M 56.419998 21.42L 51.580002 16.58C 51.207478 16.210512 50.704681 16.002209 50.18 16L 17.82 16C 17.295321 16.002209 16.792522 16.210512 16.42 16.58L 11.58 21.42C 11.210512 21.792522 11.002209 22.295321 11 22.82L 11 50C 11 51.104568 11.895431 52 13 52L 55 52C 56.104568 52 57 51.104568 57 50L 57 22.82C 56.997791 22.295321 56.78949 21.792522 56.419998 21.42Z"></path></g></g></g><g id="g-root-tx_finetuni_13zw2f71r0q7ew-stroke" data-item-order="0" data-item-id="tx_finetuni_13zw2f71r0q7ew" data-item-class="Label Stroke SceneTarget Indexed ColorStrokeBlack" data-item-index="2" data-renderer-id="0" transform="translate(86, 135)"></g><g id="g-root-slid_dcz1oj1r0vv9h-stroke" data-item-order="0" data-item-id="slid_dcz1oj1r0vv9h" data-item-class="Icon Stroke SceneTarget Indexed ColorStrokeBlack" data-item-index="2" data-renderer-id="0" transform="translate(206, 123)"><g id="slid_dcz1oj1r0vv9h-stroke" fill="none" stroke-linecap="round" stroke-linejoin="round" stroke-miterlimit="4" stroke="#484848" stroke-width="2"><g><path d="M 13 11.002L 55 11.002C 55 11.002 57 11.002 57 13.002L 57 55.001999C 57 55.001999 57 57.001999 55 57.001999L 13 57.001999C 13 57.001999 11 57.001999 11 55.001999L 11 13.002C 11 13.002 11 11.002 13 11.002M 22 23.001999C 22 26.315708 24.686291 29.002001 28 29.002001C 31.313709 29.002001 34 26.315708 34 23.002001C 34 19.688292 31.313709 17.002001 28 17.002001C 24.686291 17.002001 22 19.688292 22 23.002001M 35 45.001999C 35 48.315708 37.686295 51.002003 41 51.002003C 44.313709 51.002003 47 48.315708 47 45.002003C 47 41.688293 44.313709 39.001999 41 39.001999C 37.686295 39.001999 35 41.688293 35 45.002003M 35 45.001999L 17 45.001999M 51 45.001999L 47 45.001999M 34 23.001999L 51 23.001999M 17 23.001999L 22 23.001999M 28 22.501999C 28.276142 22.501999 28.5 22.725857 28.5 23.001999C 28.5 23.278141 28.276142 23.501999 28 23.501999C 27.723858 23.501999 27.5 23.278141 27.5 23.001999C 27.5 22.725857 27.723858 22.501999 28 22.501999M 41 44.501999C 41.276142 44.501999 41.5 44.725857 41.5 45.001999C 41.5 45.278141 41.276142 45.501999 41 45.501999C 40.723858 45.501999 40.5 45.278141 40.5 45.001999C 40.5 44.725857 40.723858 44.501999 41 44.501999"></path></g></g></g><g id="g-root-tx_taskspec_1haq3pf1r0q8zr-stroke" data-item-order="0" data-item-id="tx_taskspec_1haq3pf1r0q8zr" data-item-class="Label Stroke SceneTarget Indexed Indexed_1 ColorStrokeBlack" data-item-index="1" data-renderer-id="0" transform="translate(2, 219)"></g><g id="g-root-focu_qofk1v1r0vtok-stroke" data-item-order="0" data-item-id="focu_qofk1v1r0vtok" data-item-class="Icon Stroke SceneTarget Indexed Indexed_1 ColorStrokeBlack" data-item-index="1" data-renderer-id="0" transform="translate(206, 207)"><g id="focu_qofk1v1r0vtok-stroke" fill="none" stroke-linecap="round" stroke-linejoin="round" stroke-miterlimit="4" stroke="#484848" stroke-width="2"><g><path d="M 22.857143 27.142857C 22.857143 33.296886 27.84597 38.285713 34 38.285713C 40.15403 38.285713 45.142857 33.296886 45.142857 27.142857C 45.142857 20.988829 40.15403 16 34 16C 27.84597 16 22.857143 20.988829 22.857143 27.142857M 34 20.285715L 34 11.714286M 27.142857 27.142857L 18.571428 27.142857M 34 34L 34 42.57143M 40.857143 27.142857L 49.428574 27.142857M 22.582857 44.285713C 18.366697 47.101284 15.338744 51.374607 14.08 56.285713M 45.417145 44.285713C 49.626472 47.092934 52.653637 51.35294 53.920002 56.251431"></path></g></g></g></g></g></svg>