<?xml version="1.0" encoding="utf-8" standalone="yes"?>
<!DOCTYPE svg PUBLIC "-//W3C//DTD SVG 1.1//EN" "http://www.w3.org/Graphics/SVG/1.1/DTD/svg11.dtd">
<svg width="505" height="374" viewBox="0 0 505 374" style="fill:none;stroke:none;fill-rule:evenodd;clip-rule:evenodd;stroke-linecap:round;stroke-linejoin:round;stroke-miterlimit:1.5;" version="1.1" xmlns="http://www.w3.org/2000/svg" xmlns:xlink="http://www.w3.org/1999/xlink"><style id="fontImports">@import url("https://fonts.googleapis.com/css2?family=Shantell+Sans:wght@300..800&amp;display=block");</style><rect id="" x="0" y="0" width="505" height="374" style="fill: #ffffff;"></rect><g id="items" style="isolation: isolate"><g id="blend" style="mix-blend-mode:multiply"><g id="g-root-1.Vector_sy_18k2z9v1syufi9-fill" data-item-order="-106716" data-item-id="1.Vector_sy_18k2z9v1syufi9" data-item-class="ScenePart Part Indexed Indexed_1 Fill Stroke" data-item-index="1" data-renderer-id="0" transform="translate(116, 278.9999694824219)"><g id="1.Vector_sy_18k2z9v1syufi9-fill" stroke="none" fill="#cedfff"><g><path d="M 143.5 10L 106 10L 73 10C 71.343 10 70 11.343 70 13C 70 14.657 71.343 16 73 16L 76 16L 76 34L 43 34C 41.343 34 40 35.343 40 37C 40 38.657 41.343 40 43 40L 46 40L 46 58L 13 58C 11.343 58 10 59.343 10 61C 10 62.657 11.343 64 13 64L 16 64L 16 82L 53.5 82L 143.5 10Z"></path></g></g></g><g id="g-root-2.Vector_sy_18k2z9v1syufia-fill" data-item-order="-106714" data-item-id="2.Vector_sy_18k2z9v1syufia" data-item-class="ScenePart Part Indexed Fill Stroke" data-item-index="2" data-renderer-id="0" transform="translate(206, 206.99996948242188)"><g id="2.Vector_sy_18k2z9v1syufia-fill" stroke="none" fill="#cef3ff"><g><path d="M 143.5 10L 106 10L 73 10C 71.343 10 70 11.343 70 13C 70 14.657 71.343 16 73 16L 76 16L 76 34L 43 34C 41.343 34 40 35.343 40 37C 40 38.657 41.343 40 43 40L 46 40L 46 58L 13 58C 11.343 58 10 59.343 10 61C 10 62.657 11.343 64 13 64L 16 64L 16 82L 53.5 82L 143.5 10Z"></path></g></g></g><g id="g-root-3.Vector_sy_18k2z9v1syufib-fill" data-item-order="-106712" data-item-id="3.Vector_sy_18k2z9v1syufib" data-item-class="ScenePart Part Indexed Fill Stroke" data-item-index="3" data-renderer-id="0" transform="translate(296, 134.99996948242188)"><g id="3.Vector_sy_18k2z9v1syufib-fill" stroke="none" fill="#d5f7e8"><g><path d="M 143.5 10L 106 10L 73 10C 71.343 10 70 11.343 70 13C 70 14.657 71.343 16 73 16L 76 16L 76 34L 43 34C 41.343 34 40 35.343 40 37C 40 38.657 41.343 40 43 40L 46 40L 46 58L 13 58C 11.343 58 10 59.343 10 61C 10 62.657 11.343 64 13 64L 16 64L 16 82L 53.5 82L 143.5 10Z"></path></g></g></g><g id="g-root-4.Vector_sy_zp2g431syud58-fill" data-item-order="-106710" data-item-id="4.Vector_sy_zp2g431syud58" data-item-class="ScenePart Part Indexed Fill Stroke" data-item-index="4" data-renderer-id="0" transform="translate(386, 63)"><g id="4.Vector_sy_zp2g431syud58-fill" stroke="none" fill="#ecf7d5"><g><path d="M 46 58L 13 58C 11.343 58 10 59.343 10 61C 10 62.657 11.343 64 13 64L 16 64L 16 82L 53.5 82L 106 40L 106 10L 73 10C 71.343 10 70 11.343 70 13C 70 14.657 71.343 16 73 16L 76 16L 76 34L 43 34C 41.343 34 40 35.343 40 37C 40 38.657 41.343 40 43 40L 46 40L 46 58Z"></path></g></g></g><g id="g-root-tx_improved_mdlxqr1syueq5-fill" data-item-order="0" data-item-id="tx_improved_mdlxqr1syueq5" data-item-class="Label Stroke SceneTarget Indexed ColorStrokeBlack" data-item-index="4" data-renderer-id="0" transform="translate(260, 3)"><g id="tx_improved_mdlxqr1syueq5-fill" stroke="none" fill="#484848"><g><text style="font: 20px &quot;Shantell Sans&quot;, cursive; white-space: pre;"><tspan x="46.72" y="35" dominant-baseline="ideographic">Improved </tspan><tspan x="19.24" y="59" dominant-baseline="ideographic">Performance</tspan></text></g></g></g><g id="g-root-incr_zmkjrn1sz1gxw-fill" data-item-order="0" data-item-id="incr_zmkjrn1sz1gxw" data-item-class="Icon Stroke SceneTarget Indexed" data-item-index="4" data-renderer-id="0" transform="translate(404, 3)"></g><g id="g-root-tx_finetuni_1qclxxv1syufba-fill" data-item-order="0" data-item-id="tx_finetuni_1qclxxv1syufba" data-item-class="Label Stroke SceneTarget Indexed ColorStrokeBlack" data-item-index="3" data-renderer-id="0" transform="translate(182, 86.99996948242188)"><g id="tx_finetuni_1qclxxv1syufba-fill" stroke="none" fill="#484848"><g><text style="font: 20px &quot;Shantell Sans&quot;, cursive; white-space: pre;"><tspan x="19.15" y="35" dominant-baseline="ideographic">Fine-Tuning</tspan></text></g></g></g><g id="g-root-hand_1imfn1sz2uq5-fill" data-item-order="0" data-item-id="hand_1imfn1sz2uq5" data-item-class="Icon Stroke SceneTarget Indexed" data-item-index="3" data-renderer-id="0" transform="translate(314, 74.99996948242188)"></g><g id="g-root-tx_knowledg_1464wer1syuej3-fill" data-item-order="0" data-item-id="tx_knowledg_1464wer1syuej3" data-item-class="Label Stroke SceneTarget Indexed ColorStrokeBlack" data-item-index="2" data-renderer-id="0" transform="translate(8, 158.99996948242188)"><g id="tx_knowledg_1464wer1syuej3-fill" stroke="none" fill="#484848"><g><text style="font: 20px &quot;Shantell Sans&quot;, cursive; white-space: pre;"><tspan x="18.62" y="35" dominant-baseline="ideographic">Knowledge Transfer</tspan></text></g></g></g><g id="g-root-book_1lrsn4j1sz2sy6-fill" data-item-order="0" data-item-id="book_1lrsn4j1sz2sy6" data-item-class="Icon Stroke SceneTarget Indexed" data-item-index="2" data-renderer-id="0" transform="translate(224, 146.99996948242188)"></g><g id="g-root-tx_pretrain_mfhd031syudqg-fill" data-item-order="0" data-item-id="tx_pretrain_mfhd031syudqg" data-item-class="Label Stroke SceneTarget Indexed Indexed_1 ColorStrokeBlack" data-item-index="1" data-renderer-id="0" transform="translate(2, 230.99996948242188)"><g id="tx_pretrain_mfhd031syudqg-fill" stroke="none" fill="#484848"><g><text style="font: 20px &quot;Shantell Sans&quot;, cursive; white-space: pre;"><tspan x="13.25" y="35" dominant-baseline="ideographic">Pre-Training</tspan></text></g></g></g><g id="g-root-boxe_1hbz5031sz2tqf-fill" data-item-order="0" data-item-id="boxe_1hbz5031sz2tqf" data-item-class="Icon Stroke SceneTarget Indexed Indexed_1" data-item-index="1" data-renderer-id="0" transform="translate(134, 218.99996948242188)"></g><g id="g-root-1.Vector_sy_18k2z9v1syufi9-stroke" data-item-order="-106716" data-item-id="1.Vector_sy_18k2z9v1syufi9" data-item-class="ScenePart Part Indexed Indexed_1 Fill Stroke" data-item-index="1" data-renderer-id="0" transform="translate(116, 278.9999694824219)"><g id="1.Vector_sy_18k2z9v1syufi9-stroke" fill="none" stroke-linecap="round" stroke-linejoin="round" stroke-miterlimit="4" stroke="#4682e3" stroke-width="2"><g><path d="M 143.5 10L 106 10L 73 10C 71.343 10 70 11.343 70 13C 70 14.657 71.343 16 73 16L 76 16L 76 34L 43 34C 41.343 34 40 35.343 40 37C 40 38.657 41.343 40 43 40L 46 40L 46 58L 13 58C 11.343 58 10 59.343 10 61C 10 62.657 11.343 64 13 64L 16 64L 16 82L 53.5 82L 143.5 10Z"></path></g></g></g><g id="g-root-2.Vector_sy_18k2z9v1syufia-stroke" data-item-order="-106714" data-item-id="2.Vector_sy_18k2z9v1syufia" data-item-class="ScenePart Part Indexed Fill Stroke" data-item-index="2" data-renderer-id="0" transform="translate(206, 206.99996948242188)"><g id="2.Vector_sy_18k2z9v1syufia-stroke" fill="none" stroke-linecap="round" stroke-linejoin="round" stroke-miterlimit="4" stroke="#17b0e3" stroke-width="2"><g><path d="M 143.5 10L 106 10L 73 10C 71.343 10 70 11.343 70 13C 70 14.657 71.343 16 73 16L 76 16L 76 34L 43 34C 41.343 34 40 35.343 40 37C 40 38.657 41.343 40 43 40L 46 40L 46 58L 13 58C 11.343 58 10 59.343 10 61C 10 62.657 11.343 64 13 64L 16 64L 16 82L 53.5 82L 143.5 10Z"></path></g></g></g><g id="g-root-3.Vector_sy_18k2z9v1syufib-stroke" data-item-order="-106712" data-item-id="3.Vector_sy_18k2z9v1syufib" data-item-class="ScenePart Part Indexed Fill Stroke" data-item-index="3" data-renderer-id="0" transform="translate(296, 134.99996948242188)"><g id="3.Vector_sy_18k2z9v1syufib-stroke" fill="none" stroke-linecap="round" stroke-linejoin="round" stroke-miterlimit="4" stroke="#3bc482" stroke-width="2"><g><path d="M 143.5 10L 106 10L 73 10C 71.343 10 70 11.343 70 13C 70 14.657 71.343 16 73 16L 76 16L 76 34L 43 34C 41.343 34 40 35.343 40 37C 40 38.657 41.343 40 43 40L 46 40L 46 58L 13 58C 11.343 58 10 59.343 10 61C 10 62.657 11.343 64 13 64L 16 64L 16 82L 53.5 82L 143.5 10Z"></path></g></g></g><g id="g-root-4.Vector_sy_zp2g431syud58-stroke" data-item-order="-106710" data-item-id="4.Vector_sy_zp2g431syud58" data-item-class="ScenePart Part Indexed Fill Stroke" data-item-index="4" data-renderer-id="0" transform="translate(386, 63)"><g id="4.Vector_sy_zp2g431syud58-stroke" fill="none" stroke-linecap="round" stroke-linejoin="round" stroke-miterlimit="4" stroke="#93c131" stroke-width="2"><g><path d="M 46 58L 13 58C 11.343 58 10 59.343 10 61C 10 62.657 11.343 64 13 64L 16 64L 16 82L 53.5 82L 106 40L 106 10L 73 10C 71.343 10 70 11.343 70 13C 70 14.657 71.343 16 73 16L 76 16L 76 34L 43 34C 41.343 34 40 35.343 40 37C 40 38.657 41.343 40 43 40L 46 40L 46 58Z"></path></g></g></g><g id="g-root-tx_improved_mdlxqr1syueq5-stroke" data-item-order="0" data-item-id="tx_improved_mdlxqr1syueq5" data-item-class="Label Stroke SceneTarget Indexed ColorStrokeBlack" data-item-index="4" data-renderer-id="0" transform="translate(260, 3)"></g><g id="g-root-incr_zmkjrn1sz1gxw-stroke" data-item-order="0" data-item-id="incr_zmkjrn1sz1gxw" data-item-class="Icon Stroke SceneTarget Indexed" data-item-index="4" data-renderer-id="0" transform="translate(404, 3)"><g id="incr_zmkjrn1sz1gxw-stroke" fill="none" stroke-linecap="round" stroke-linejoin="round" stroke-miterlimit="4" stroke="#93c131" stroke-width="2"><g><path d="M 11.008 56.5L 57.007999 56.5M 19 56.5L 19 51.5C 19 50.947716 18.552284 50.5 18 50.5L 14 50.5C 13.447716 50.5 13 50.947716 13 51.5L 13 56.5M 31 56.5L 31 43.5C 31 42.947716 30.552284 42.5 30 42.5L 26 42.5C 25.447716 42.5 25 42.947716 25 43.5L 25 56.5M 43 56.5L 43 35.5C 43 34.947716 42.552284 34.5 42 34.5L 38 34.5C 37.447716 34.5 37 34.947716 37 35.5L 37 56.5M 55 56.5L 55 27.5C 55 26.947716 54.552284 26.5 54 26.5L 50 26.5C 49.447716 26.5 49 26.947716 49 27.5L 49 56.5M 16.007999 36.5L 52.007999 12.5M 51.007999 20.5L 52.007999 12.5L 44.007999 11.5"></path></g></g></g><g id="g-root-tx_finetuni_1qclxxv1syufba-stroke" data-item-order="0" data-item-id="tx_finetuni_1qclxxv1syufba" data-item-class="Label Stroke SceneTarget Indexed ColorStrokeBlack" data-item-index="3" data-renderer-id="0" transform="translate(182, 86.99996948242188)"></g><g id="g-root-hand_1imfn1sz2uq5-stroke" data-item-order="0" data-item-id="hand_1imfn1sz2uq5" data-item-class="Icon Stroke SceneTarget Indexed" data-item-index="3" data-renderer-id="0" transform="translate(314, 74.99996948242188)"><g id="hand_1imfn1sz2uq5-stroke" fill="none" stroke-linecap="round" stroke-linejoin="round" stroke-miterlimit="4" stroke="#3bc482" stroke-width="2"><g><path d="M 54 57L 55 51C 55.114609 50.141056 54.627262 49.315041 53.82 49L 44.98 45.119999L 44.98 36.5C 45.064587 35.557129 44.609356 34.647354 43.804005 34.149792C 42.998657 33.652225 41.981346 33.652225 41.175995 34.149792C 40.370644 34.647354 39.915413 35.557129 40 36.5L 40 52.380001L 36.559998 48.259998C 36.144276 47.759541 35.511101 47.492569 34.862549 47.544292C 34.214005 47.596016 33.631145 47.959972 33.299999 48.52C 32.915974 49.131363 32.915974 49.908638 33.299999 50.52L 36.900002 57.080002M 19 45L 14 45C 12.343145 45 11 43.656857 11 42L 11 14C 11 12.343145 12.343145 11 14 11L 32 11C 33.656853 11 35 12.343145 35 14L 35 23M 11 39L 19 39M 29 29L 29 46M 41 11L 47 11C 47 11 49 11 49 13L 49 27C 49 27 49 29 47 29L 41 29C 41 29 39 29 39 27L 39 13C 39 13 39 11 41 11M 39 25L 49 25M 11 17L 35 17M 51 34L 51 43M 53 29L 54 29C 55.656857 29 57 30.343147 57 32L 57 45M 35 29L 26 29C 24.343147 29 23 30.343147 23 32L 23 48C 23 49.656857 24.343147 51 26 51L 29 51"></path></g></g></g><g id="g-root-tx_knowledg_1464wer1syuej3-stroke" data-item-order="0" data-item-id="tx_knowledg_1464wer1syuej3" data-item-class="Label Stroke SceneTarget Indexed ColorStrokeBlack" data-item-index="2" data-renderer-id="0" transform="translate(8, 158.99996948242188)"></g><g id="g-root-book_1lrsn4j1sz2sy6-stroke" data-item-order="0" data-item-id="book_1lrsn4j1sz2sy6" data-item-class="Icon Stroke SceneTarget Indexed" data-item-index="2" data-renderer-id="0" transform="translate(224, 146.99996948242188)"><g id="book_1lrsn4j1sz2sy6-stroke" fill="none" stroke-linecap="round" stroke-linejoin="round" stroke-miterlimit="4" stroke="#17b0e3" stroke-width="2"><g><path d="M 38.669998 14.889999L 38.669998 38.77C 38.669998 38.77 42.091999 35.028 53.633999 34.879997C 54.024101 34.875618 54.338028 34.558125 54.338001 34.167999L 54.338001 11.712C 54.337479 11.521588 54.260921 11.339272 54.125343 11.205572C 53.989765 11.071873 53.8064 10.997866 53.616001 11C 51.472683 11.022204 49.333775 11.199332 47.216 11.53C 44.144642 11.967229 41.218445 13.117981 38.672001 14.889999M 38.669998 14.889999L 38.669998 38.77C 38.669998 38.77 35.246002 35.028 23.704 34.879997C 23.313902 34.875618 22.999977 34.558125 23 34.167999L 23 11.712C 23.000523 11.521588 23.07708 11.339272 23.212656 11.205572C 23.348234 11.071873 23.531599 10.997866 23.722 11C 25.865322 11.022114 28.004238 11.199243 30.122 11.53C 33.194038 11.966999 36.120937 13.117758 38.667999 14.89M 13.662 55L 25.397999 56.894001C 27.840635 57.233692 30.32616 56.732212 32.445999 55.472L 44.731998 48.167999C 45.559669 47.678009 46.158455 46.878933 46.396324 45.946972C 46.63419 45.015015 46.491604 44.026714 46 43.200001L 46 43.200001C 44.978401 41.481113 42.756676 40.916054 41.037998 41.937996L 31.438 47.644001M 13.662 45.580002L 18.646 42.618C 20.490156 41.519958 22.618637 40.993755 24.762001 41.106003L 29.724001 41.363998C 30.648096 41.368271 31.530199 41.750488 32.165257 42.421814C 32.800316 43.09314 33.133007 43.99509 33.085999 44.917999L 33.085999 44.917999C 32.999668 46.621685 31.65736 47.994015 29.956001 48.118004L 23.619999 48.084"></path></g></g></g><g id="g-root-tx_pretrain_mfhd031syudqg-stroke" data-item-order="0" data-item-id="tx_pretrain_mfhd031syudqg" data-item-class="Label Stroke SceneTarget Indexed Indexed_1 ColorStrokeBlack" data-item-index="1" data-renderer-id="0" transform="translate(2, 230.99996948242188)"></g><g id="g-root-boxe_1hbz5031sz2tqf-stroke" data-item-order="0" data-item-id="boxe_1hbz5031sz2tqf" data-item-class="Icon Stroke SceneTarget Indexed Indexed_1" data-item-index="1" data-renderer-id="0" transform="translate(134, 218.99996948242188)"><g id="boxe_1hbz5031sz2tqf-stroke" fill="none" stroke-linecap="round" stroke-linejoin="round" stroke-miterlimit="4" stroke="#4682e3" stroke-width="2"><g><path d="M 30.502001 16C 30.502001 18.761425 32.740578 21 35.501999 21C 38.263424 21 40.501999 18.761425 40.501999 16C 40.501999 13.238577 38.263424 11 35.501999 11C 32.740578 11 30.502001 13.238577 30.502001 16ZM 41.5 31L 41.5 25L 46.826 25C 49.959663 25 52.5 27.540337 52.5 30.674C 52.504101 32.683922 51.123322 34.431908 49.167068 34.893295C 47.210815 35.354683 45.194473 34.407925 44.300003 32.608002L 43.5 31.007999ZM 43.5 31L 47.5 31M 41.5 25L 29.5 25C 28.294224 24.999716 27.20545 25.721363 26.736 26.832001L 15.736 52.832001C 15.090932 54.358517 15.805485 56.118935 17.332001 56.764C 18.858517 57.409069 20.618931 56.694515 21.264 55.168003L 25.220001 45.818001L 29.528 47.386002C 30.710625 47.81736 31.498165 48.941166 31.5 50.200001L 31.5 54C 31.5 55.656857 32.843147 57 34.5 57C 36.156853 57 37.5 55.656857 37.5 54L 37.5 50.200001C 37.493534 46.417614 35.12841 43.040806 31.576002 41.742004L 27.559999 40.284L 31.488001 31L 41.5 31"></path></g></g></g></g></g></svg>