<?xml version="1.0" encoding="utf-8" standalone="yes"?>
<!DOCTYPE svg PUBLIC "-//W3C//DTD SVG 1.1//EN" "http://www.w3.org/Graphics/SVG/1.1/DTD/svg11.dtd">
<svg width="264" height="277" viewBox="0 0 264 277" style="fill:none;stroke:none;fill-rule:evenodd;clip-rule:evenodd;stroke-linecap:round;stroke-linejoin:round;stroke-miterlimit:1.5;" version="1.1" xmlns="http://www.w3.org/2000/svg" xmlns:xlink="http://www.w3.org/1999/xlink"><style id="fontImports">@import url("https://fonts.googleapis.com/css2?family=Roboto:wght@400;700&amp;display=block");</style><rect id="" x="0" y="0" width="264" height="277" style="fill: #ffffff;"></rect><g id="items" style="isolation: isolate"><g id="blend" style="mix-blend-mode:multiply"><g id="g-root-1_dg3f6c1rl94as-fill" data-item-order="0" data-item-id="1_dg3f6c1rl94as" data-item-class="Icon Stroke SceneTarget SceneTitle Title" data-item-index="none" data-renderer-id="0" transform="translate(32, 3)"></g><g id="g-root-tx_unleashi_1464tck1rl7o5l-fill" data-item-order="0" data-item-id="tx_unleashi_1464tck1rl7o5l" data-item-class="Label Stroke SceneTarget SceneTitle Title" data-item-index="none" data-renderer-id="0" transform="translate(8, 194.99996948242188)"><g id="tx_unleashi_1464tck1rl7o5l-fill" stroke="none" fill="#484848"><g><text style="font: 25px Roboto, sans-serif; white-space: pre;"><tspan x="50.18" y="40" dominant-baseline="ideographic">The Power of </tspan><tspan x="17.02" y="70" dominant-baseline="ideographic">Foundation Models</tspan></text></g></g></g><g id="g-root-1_dg3f6c1rl94as-stroke" data-item-order="0" data-item-id="1_dg3f6c1rl94as" data-item-class="Icon Stroke SceneTarget SceneTitle Title" data-item-index="none" data-renderer-id="0" transform="translate(32, 3)"><g id="1_dg3f6c1rl94as-stroke" fill="none" stroke-linecap="round" stroke-linejoin="round" stroke-miterlimit="4" stroke="#484848" stroke-width="2"><g><path d="M 54.625 162.707504C 62.576641 161.383972 69.290138 156.067017 72.399994 148.62999M 28.157499 74.094994C 43.500042 76.785431 56.681263 86.540764 63.737499 100.427498M 53.372501 86.717499L 66.82 76.629997M 85 15.0475C 84.855835 22.56599 83.49836 30.011854 80.980003 37.0975M 70 43.75C 70 47.892136 73.357864 51.25 77.5 51.25C 81.642136 51.25 85 47.892136 85 43.75C 85 39.607864 81.642136 36.25 77.5 36.25C 73.357864 36.25 70 39.607864 70 43.75ZM 115 58.75C 115 62.892136 118.357864 66.25 122.5 66.25C 126.642136 66.25 130 62.892136 130 58.75C 130 54.607864 126.642136 51.25 122.5 51.25C 118.357864 51.25 115 54.607864 115 58.75ZM 141.25 88.75C 141.25 92.892136 144.607864 96.25 148.75 96.25C 152.892136 96.25 156.25 92.892136 156.25 88.75C 156.25 84.607864 152.892136 81.25 148.75 81.25C 144.607864 81.25 141.25 84.607864 141.25 88.75ZM 115 115C 115 119.142136 118.357864 122.5 122.5 122.5C 126.642136 122.5 130 119.142136 130 115C 130 110.857864 126.642136 107.5 122.5 107.5C 118.357864 107.5 115 110.857864 115 115ZM 66.25 73.75C 66.25 77.892136 69.607864 81.25 73.75 81.25C 77.892136 81.25 81.25 77.892136 81.25 73.75C 81.25 69.607864 77.892136 66.25 73.75 66.25C 69.607864 66.25 66.25 69.607864 66.25 73.75ZM 58.75 107.5C 58.75 111.642136 62.107864 115 66.25 115C 70.392136 115 73.75 111.642136 73.75 107.5C 73.75 103.357864 70.392136 100 66.25 100C 62.107864 100 58.75 103.357864 58.75 107.5ZM 186.25 100C 186.280045 89.446861 180.823776 79.63636 171.842499 74.095001C 172.350754 71.880516 172.614838 69.617012 172.630005 67.345001C 172.780273 51.749691 160.910797 38.661907 145.375 37.2925C 145.529922 31.151495 143.218063 25.204407 138.956146 20.780397C 134.694214 16.356386 128.837509 13.824282 122.695 13.75C 112.983353 14.306008 104.31794 20.03331 100 28.75C 95.68206 20.03331 87.016647 14.306008 77.305 13.75C 71.162491 13.824282 65.305794 16.356386 61.043858 20.780397C 56.781925 25.204407 54.470074 31.151495 54.625 37.2925C 39.083405 38.662342 27.211843 51.758949 27.369999 67.360001C 27.37286 69.63063 27.624357 71.894119 28.119999 74.109993C 19.162336 79.673615 13.714624 89.470161 13.714624 100.014999C 13.714624 110.559837 19.162336 120.356377 28.119999 125.919998C 27.624357 128.135864 27.37286 130.399368 27.369999 132.669998C 27.227602 148.259567 39.095005 161.338531 54.625 162.707504C 54.470074 168.848495 56.781925 174.795593 61.043858 179.219589C 65.305794 183.643616 71.162491 186.17572 77.305 186.25C 86.261238 186.467117 94.749847 182.259293 99.999992 174.999985C 105.250145 182.259293 113.738754 186.467117 122.694992 186.249985C 128.837509 186.17572 134.694214 183.643616 138.956146 179.219589C 143.218063 174.795593 145.529922 168.848495 145.375 162.707504C 160.91658 161.337662 172.788162 148.241043 172.630005 132.639999C 172.614838 130.367981 172.350754 128.104477 171.842484 125.889999C 180.819214 120.351433 186.274826 110.547813 186.25 100ZM 100 28.75L 100 115M 100 144.684998L 100 175M 168.797501 52.4725L 148 62.8825C 141.924301 65.924324 134.785767 65.996262 128.649994 63.077499M 122.5 107.5C 124.723915 98.219749 131.969757 90.973915 141.250015 88.750008M 145.375 162.707504C 143.305008 155.5 139.772491 149.957489 133.75 148.75M 66.25 141.25C 66.25 145.392136 69.607864 148.75 73.75 148.75C 77.892136 148.75 81.25 145.392136 81.25 141.25C 81.25 137.107864 77.892136 133.75 73.75 133.75C 69.607864 133.75 66.25 137.107864 66.25 141.25ZM 118.75 148.75C 118.75 152.892136 122.107864 156.25 126.25 156.25C 130.392136 156.25 133.75 152.892136 133.75 148.75C 133.75 144.607864 130.392136 141.25 126.25 141.25C 122.107864 141.25 118.75 144.607864 118.75 148.75Z"></path></g></g></g><g id="g-root-tx_unleashi_1464tck1rl7o5l-stroke" data-item-order="0" data-item-id="tx_unleashi_1464tck1rl7o5l" data-item-class="Label Stroke SceneTarget SceneTitle Title" data-item-index="none" data-renderer-id="0" transform="translate(8, 194.99996948242188)"></g></g></g></svg>