<?xml version="1.0" encoding="utf-8" standalone="yes"?>
<!DOCTYPE svg PUBLIC "-//W3C//DTD SVG 1.1//EN" "http://www.w3.org/Graphics/SVG/1.1/DTD/svg11.dtd">
<svg width="720" height="341" viewBox="0 0 720 341" style="fill:none;stroke:none;fill-rule:evenodd;clip-rule:evenodd;stroke-linecap:round;stroke-linejoin:round;stroke-miterlimit:1.5;" version="1.1" xmlns="http://www.w3.org/2000/svg" xmlns:xlink="http://www.w3.org/1999/xlink"><style id="fontImports">@import url("https://fonts.googleapis.com/css2?family=Roboto:wght@400;700&amp;display=block");</style><rect id="" x="0" y="0" width="720" height="341" style="fill: #ffffff;"></rect><g id="items" style="isolation: isolate"><g id="blend" style="mix-blend-mode:multiply"><g id="g-root-0.cu_sy_1qbbxys1u2x1c3-fill" data-item-order="-105836" data-item-id="0.cu_sy_1qbbxys1u2x1c3" data-item-class="ScenePart Part Indexed_0 Fill Stroke ColorFillBlack ColorStrokeBlack" data-item-index="0" data-renderer-id="0" transform="translate(296, 252.41094970703125)"><g id="0.cu_sy_1qbbxys1u2x1c3-fill" stroke="none" fill="#666666"><g><path d="M 39.431152 68.531891C 41.178252 72.624391 46.389652 75.588891 52.559452 75.588891C 58.729252 75.588891 63.940452 72.624391 65.687552 68.531891C 61.843952 69.559991 57.351452 70.158891 52.559452 70.158891C 47.767352 70.158891 43.274752 69.559991 39.431152 68.531891ZM 26.852051 59.32901C 27.800451 65.38781 38.942051 70.15911 52.559451 70.15911C 66.176951 70.15911 77.328451 65.37791 78.266851 59.32901C 72.226851 61.04581 62.962251 62.14381 52.559451 62.14381C 42.156651 62.14381 32.882051 61.04581 26.852051 59.32901ZM 14.8619 10.000008C 11.7671 13.583408 10 16.717608 10 18.344608C 10 19.492508 10.8785 20.590508 12.4759 21.618608C 14.5724 22.956108 15.2712 25.661208 14.0332 27.817208C 13.2745 29.134808 12.8752 30.232708 12.8752 30.981408C 12.8752 32.139208 13.8336 33.247208 15.5707 34.265308C 17.7272 35.523008 18.5758 38.258008 17.3378 40.434008C 16.6589 41.621808 16.2995 42.619908 16.2995 43.298708C 16.2995 44.346708 17.1581 45.344908 18.7155 46.273208C 20.842 47.530908 21.451 50.285808 20.3129 52.471808C 19.8536 53.360208 19.6041 54.098808 19.6041 54.627808C 19.6041 58.780208 34.3596 62.144008 52.5495 62.144008C 70.7394 62.144008 85.4949 58.780208 85.4949 54.627808C 85.4949 54.098808 85.2552 53.360208 84.786 52.471808C 83.6479 50.285808 84.267 47.530908 86.3835 46.273208C 87.9409 45.354908 88.7994 44.346708 88.7994 43.298708C 88.7994 42.619908 88.4401 41.631708 87.7612 40.434008C 86.5233 38.267908 87.3717 35.533008 89.5282 34.265308C 91.2753 33.247208 92.2238 32.139208 92.2238 30.981408C 92.2238 30.232708 91.8244 29.134808 91.0657 27.817208C 89.8277 25.661208 90.5266 22.946208 92.6231 21.618608C 94.2305 20.600508 95.099 19.492508 95.099 18.344608C 95.099 16.717608 93.3319 13.583408 90.2371 10.000008C 83.1289 13.094308 68.9224 15.210408 52.5395 15.210408C 36.1567 15.210408 21.9702 13.094308 14.8619 10.000008Z"></path></g></g></g><g id="g-root-4.cu_sy_v9ud9w1u2wyyq-fill" data-item-order="-105834" data-item-id="4.cu_sy_v9ud9w1u2wyyq" data-item-class="ScenePart Part Indexed Fill Stroke ColorStrokeBlack" data-item-index="4" data-renderer-id="0" transform="translate(316.33148193359375, 119.8748779296875)"><g id="4.cu_sy_v9ud9w1u2wyyq-fill" stroke="none" fill="#dd8433"><g><path d="M 86.163797 10C 84.676297 10 83.847697 12.2858 84.656297 13.5335C 85.874297 15.42 86.573197 17.6559 86.563197 20.0715C 86.543197 26.6893 81.162097 32.0294 74.543097 32.0095C 67.923997 31.9895 62.582897 26.6094 62.602897 19.9916C 62.602897 17.616 63.311697 15.4001 64.509697 13.5435C 65.318397 12.2958 64.489697 10.01 63.002197 10.01L 32.023497 10.01L 32.023497 50.9646C 32.023497 52.4518 29.737297 53.2803 28.489397 52.4718C 26.632397 51.274 24.416097 50.5653 22.040097 50.5653C 15.421097 50.5453 10.039897 55.8855 10.019953 62.5033C 9.999997 69.1211 15.341197 74.5012 21.960197 74.5212C 24.366197 74.5212 26.612497 73.8225 28.499397 72.6147C 29.747297 71.8062 32.033497 72.6347 32.033497 74.1219L 32.033497 147.766C 48.925597 147.766 63.521397 145.52 70.399997 142.266C 71.777697 141.618 72.845897 139.961 73.564697 138.503C 74.253597 137.106 74.582997 135.569 74.622997 134.002C 75.152097 113.24 84.236997 93.4563 100.120697 80.0111C 120.476897 62.7828 134.233897 38.0084 137.099897 10.02L 86.173797 10.02L 86.163797 10Z"></path></g></g></g><g id="g-root-4.line_sy_me7d101u2wzrf-fill" data-item-order="-105831" data-item-id="4.line_sy_me7d101u2wzrf" data-item-class="ScenePart Part Indexed Stroke ColorStrokeBlack" data-item-index="4" data-renderer-id="0" transform="translate(434.00006103515625, 195)"></g><g id="g-root-3.cu_sy_zp1eb81u2x1c8-fill" data-item-order="-105830" data-item-id="3.cu_sy_zp1eb81u2x1c8" data-item-class="ScenePart Part Indexed Fill Stroke ColorStrokeBlack" data-item-index="3" data-renderer-id="0" transform="translate(232.55023193359375, 97.85546875)"><g id="3.cu_sy_zp1eb81u2x1c8-fill" stroke="none" fill="#e3cd09"><g><path d="M 112.281 94.624198C 110.394 95.841898 108.1574 96.540598 105.7414 96.530698C 99.1224 96.510698 93.7812 91.130598 93.8012 84.512798C 93.8211 77.894998 99.2023 72.554798 105.8213 72.574798C 108.1974 72.574798 110.414 73.283498 112.271 74.481298C 113.519 75.289798 115.805 74.461298 115.805 72.973998L 115.805 32.019398L 84.8261 32.019398C 83.3385 32.019398 82.5099 29.733698 83.3185 28.485998C 84.5166 26.629398 85.2254 24.413498 85.2254 22.037798C 85.2454 15.419998 79.9042 10.039898 73.2852 10.019953C 66.6661 9.999998 61.2851 15.340198 61.2651 21.957998C 61.2651 24.363498 61.9639 26.609398 63.1719 28.495898C 63.9806 29.743598 63.152 32.029398 61.6644 32.029398L 10 32.029398C 12.8553 59.937998 26.5326 84.632598 46.7791 101.860798C 62.8525 115.535898 72.5364 135.209898 73.2053 156.220898C 73.2752 158.366898 73.8842 160.482898 75.1521 162.209898C 75.781 163.077898 76.5697 163.866898 77.4782 164.295898C 84.3668 167.539898 98.9427 169.775898 115.795 169.775898L 115.795 96.131398C 115.795 94.644098 113.509 93.815698 112.261 94.624198L 112.281 94.624198Z"></path></g></g></g><g id="g-root-3.line_sy_v9ud9w1u2wyyp-fill" data-item-order="-105827" data-item-id="3.line_sy_v9ud9w1u2wyyp" data-item-class="ScenePart Part Indexed Stroke ColorStrokeBlack" data-item-index="3" data-renderer-id="0" transform="translate(169.99993896484375, 195)"></g><g id="g-root-2.cu_sy_1d0hwok1u2wzra-fill" data-item-order="-105826" data-item-id="2.cu_sy_1d0hwok1u2wzra" data-item-class="ScenePart Part Indexed Fill Stroke ColorStrokeBlack" data-item-index="2" data-renderer-id="0" transform="translate(338.364990234375, 3)"><g id="2.cu_sy_1d0hwok1u2wzra-fill" stroke="none" fill="#17b0e3"><g><path d="M 13.5241 64.2801C 15.411 63.0623 17.6473 62.3636 20.0633 62.3736C 26.6823 62.3935 32.0235 67.7736 32.0035 74.3914C 31.9836 81.0092 26.6025 86.3494 19.9835 86.3295C 17.6074 86.3295 15.3911 85.6208 13.5341 84.423C 12.2862 83.6145 10 84.4429 10 85.9302L 10 126.885L 40.9786 126.885C 42.4662 126.885 43.2948 129.171 42.4862 130.418C 41.2881 132.275 40.5793 134.491 40.5793 136.866C 40.5593 143.484 45.9005 148.864 52.5195 148.884C 59.1386 148.904 64.5196 143.564 64.5396 136.946C 64.5396 134.541 63.8408 132.295 62.6328 130.408C 61.8241 129.161 62.6528 126.875 64.1403 126.875L 115.066 126.875C 115.435 123.291 115.635 119.648 115.635 115.965C 115.635 57.5624 68.3732 10.1996 10.0099 10L 10.0099 62.7728C 10.0099 64.2601 12.2962 65.0886 13.5441 64.2801L 13.5241 64.2801Z"></path></g></g></g><g id="g-root-2.line_sy_144uwfo1u2x0jz-fill" data-item-order="-105823" data-item-id="2.line_sy_144uwfo1u2x0jz" data-item-class="ScenePart Part Indexed Stroke ColorStrokeBlack" data-item-index="2" data-renderer-id="0" transform="translate(440, 51)"></g><g id="g-root-1.cu_sy_1hgbet01u2wyz0-fill" data-item-order="-105822" data-item-id="1.cu_sy_1hgbet01u2wyz0" data-item-class="ScenePart Part Indexed Indexed_1 Fill Stroke ColorStrokeBlack" data-item-index="1" data-renderer-id="0" transform="translate(231.93130493164062, 3)"><g id="1.cu_sy_1hgbet01u2wyz0-fill" stroke="none" fill="#3bc482"><g><path d="M 63.800895 123.351C 62.582895 121.465 61.884095 119.229 61.893995 116.813C 61.913995 110.196 67.295095 104.8553 73.914095 104.8753C 80.533095 104.8953 85.874295 110.275 85.854395 116.893C 85.854395 119.269 85.145495 121.485 83.947495 123.341C 83.138795 124.589 83.967495 126.875 85.454995 126.875L 116.433695 126.875L 116.433695 85.9202C 116.433695 84.433 118.719695 83.6045 119.967695 84.413C 121.824695 85.6108 124.040695 86.3195 126.416695 86.3195C 133.035695 86.3394 138.417695 80.9993 138.437695 74.3815C 138.457695 67.7636 133.115695 62.3835 126.496695 62.3636C 124.090695 62.3636 121.844695 63.0623 119.957695 64.2701C 118.709695 65.0786 116.423695 64.2501 116.423695 62.7628L 116.423695 10C 115.794695 10 115.175695 10 114.546695 10C 57.690995 10.7885 11.197995 57.0134 10.089795 113.849C 9.999995 118.251 10.199595 122.603 10.628895 126.875L 62.293295 126.875C 63.780895 126.875 64.609495 124.589 63.800895 123.341L 63.800895 123.351Z"></path></g></g></g><g id="g-root-1.line_sy_1hgbet01u2wyz1-fill" data-item-order="-105819" data-item-id="1.line_sy_1hgbet01u2wyz1" data-item-class="ScenePart Part Indexed Indexed_1 Stroke ColorStrokeBlack" data-item-index="1" data-renderer-id="0" transform="translate(170, 51)"></g><g id="g-root-tx_healthca_1qd7d841u2x0cl-fill" data-item-order="0" data-item-id="tx_healthca_1qd7d841u2x0cl" data-item-class="Label Stroke SceneTarget Indexed Indexed_1 ColorStrokeBlack" data-item-index="1" data-renderer-id="0" transform="translate(2, 39)"><g id="tx_healthca_1qd7d841u2x0cl-fill" stroke="none" fill="#666666"><g><text style="font: 20px Roboto, sans-serif; white-space: pre;"><tspan x="19.34" y="33.75" dominant-baseline="ideographic">Healthcare</tspan></text></g></g></g><g id="g-root-rate_1d30uys1qqp8u8-fill" data-item-order="0" data-item-id="rate_1d30uys1qqp8u8" data-item-class="Icon Stroke SceneTarget Indexed Indexed_1 ColorStrokeBlack" data-item-index="1" data-renderer-id="0" transform="translate(122, 33)"></g><g id="g-root-cybo_i0wddw1r15p8s-fill" data-item-order="0" data-item-id="cybo_i0wddw1r15p8s" data-item-class="Icon Stroke SceneTarget Indexed ColorStrokeBlack" data-item-index="2" data-renderer-id="0" transform="translate(518, 33)"></g><g id="g-root-tx_robotics_1d3ma441u2x0xs-fill" data-item-order="0" data-item-id="tx_robotics_1d3ma441u2x0xs" data-item-class="Label Stroke SceneTarget Indexed ColorStrokeBlack" data-item-index="2" data-renderer-id="0" transform="translate(566, 39)"><g id="tx_robotics_1d3ma441u2x0xs-fill" stroke="none" fill="#666666"><g><text style="font: 20px Roboto, sans-serif; white-space: pre;"><tspan x="12" y="33.75" dominant-baseline="ideographic">Robotics</tspan></text></g></g></g><g id="g-root-tx_energy_qv9tbo1u2x15a-fill" data-item-order="0" data-item-id="tx_energy_qv9tbo1u2x15a" data-item-class="Label Stroke SceneTarget Indexed ColorStrokeBlack" data-item-index="3" data-renderer-id="0" transform="translate(38, 183)"><g id="tx_energy_qv9tbo1u2x15a-fill" stroke="none" fill="#666666"><g><text style="font: 20px Roboto, sans-serif; white-space: pre;"><tspan x="19.73" y="33.75" dominant-baseline="ideographic">Energy</tspan></text></g></g></g><g id="g-root-char_vagxis1u2kcun-fill" data-item-order="0" data-item-id="char_vagxis1u2kcun" data-item-class="Icon Stroke SceneTarget Indexed ColorStrokeBlack" data-item-index="3" data-renderer-id="0" transform="translate(122, 177)"></g><g id="g-root-head_djte441u2kc20-fill" data-item-order="0" data-item-id="head_djte441u2kc20" data-item-class="Icon Stroke SceneTarget Indexed ColorStrokeBlack" data-item-index="4" data-renderer-id="0" transform="translate(518, 177)"></g><g id="g-root-tx_entertai_1uuwalw1u2wykn-fill" data-item-order="0" data-item-id="tx_entertai_1uuwalw1u2wykn" data-item-class="Label Stroke SceneTarget Indexed ColorStrokeBlack" data-item-index="4" data-renderer-id="0" transform="translate(566, 183)"><g id="tx_entertai_1uuwalw1u2wykn-fill" stroke="none" fill="#666666"><g><text style="font: 20px Roboto, sans-serif; white-space: pre;"><tspan x="12" y="33.75" dominant-baseline="ideographic">Entertainment</tspan></text></g></g></g><g id="g-root-0.cu_sy_1qbbxys1u2x1c3-stroke" data-item-order="-105836" data-item-id="0.cu_sy_1qbbxys1u2x1c3" data-item-class="ScenePart Part Indexed_0 Fill Stroke ColorFillBlack ColorStrokeBlack" data-item-index="0" data-renderer-id="0" transform="translate(296, 252.41094970703125)"><g id="0.cu_sy_1qbbxys1u2x1c3-stroke" fill="none" stroke-linecap="round" stroke-linejoin="round" stroke-miterlimit="4" stroke="#2c2c2c" stroke-width="2"><g><path d="M 39.431152 68.531891C 41.178252 72.624391 46.389652 75.588891 52.559452 75.588891C 58.729252 75.588891 63.940452 72.624391 65.687552 68.531891C 61.843952 69.559991 57.351452 70.158891 52.559452 70.158891C 47.767352 70.158891 43.274752 69.559991 39.431152 68.531891ZM 26.852051 59.32901C 27.800451 65.38781 38.942051 70.15911 52.559451 70.15911C 66.176951 70.15911 77.328451 65.37791 78.266851 59.32901C 72.226851 61.04581 62.962251 62.14381 52.559451 62.14381C 42.156651 62.14381 32.882051 61.04581 26.852051 59.32901ZM 14.8619 10.000008C 11.7671 13.583408 10 16.717608 10 18.344608C 10 19.492508 10.8785 20.590508 12.4759 21.618608C 14.5724 22.956108 15.2712 25.661208 14.0332 27.817208C 13.2745 29.134808 12.8752 30.232708 12.8752 30.981408C 12.8752 32.139208 13.8336 33.247208 15.5707 34.265308C 17.7272 35.523008 18.5758 38.258008 17.3378 40.434008C 16.6589 41.621808 16.2995 42.619908 16.2995 43.298708C 16.2995 44.346708 17.1581 45.344908 18.7155 46.273208C 20.842 47.530908 21.451 50.285808 20.3129 52.471808C 19.8536 53.360208 19.6041 54.098808 19.6041 54.627808C 19.6041 58.780208 34.3596 62.144008 52.5495 62.144008C 70.7394 62.144008 85.4949 58.780208 85.4949 54.627808C 85.4949 54.098808 85.2552 53.360208 84.786 52.471808C 83.6479 50.285808 84.267 47.530908 86.3835 46.273208C 87.9409 45.354908 88.7994 44.346708 88.7994 43.298708C 88.7994 42.619908 88.4401 41.631708 87.7612 40.434008C 86.5233 38.267908 87.3717 35.533008 89.5282 34.265308C 91.2753 33.247208 92.2238 32.139208 92.2238 30.981408C 92.2238 30.232708 91.8244 29.134808 91.0657 27.817208C 89.8277 25.661208 90.5266 22.946208 92.6231 21.618608C 94.2305 20.600508 95.099 19.492508 95.099 18.344608C 95.099 16.717608 93.3319 13.583408 90.2371 10.000008C 83.1289 13.094308 68.9224 15.210408 52.5395 15.210408C 36.1567 15.210408 21.9702 13.094308 14.8619 10.000008ZM 16.299561 43.298492C 16.299561 47.870092 32.532761 51.573292 52.559561 51.573292C 72.586361 51.573292 88.819461 47.870092 88.819461 43.298492M 12.875244 30.991363C 12.875244 35.992163 30.645844 40.044663 52.559544 40.044663C 74.473244 40.044663 92.243744 35.992163 92.243744 30.991363M 10 18.344391C 10 23.704491 29.0584 28.056491 52.5595 28.056491C 76.0606 28.056491 95.119 23.704491 95.119 18.344391"></path></g></g></g><g id="g-root-4.cu_sy_v9ud9w1u2wyyq-stroke" data-item-order="-105834" data-item-id="4.cu_sy_v9ud9w1u2wyyq" data-item-class="ScenePart Part Indexed Fill Stroke ColorStrokeBlack" data-item-index="4" data-renderer-id="0" transform="translate(316.33148193359375, 119.8748779296875)"><g id="4.cu_sy_v9ud9w1u2wyyq-stroke" fill="none" stroke-linecap="round" stroke-linejoin="round" stroke-miterlimit="4" stroke="#2c2c2c" stroke-width="2"><g><path d="M 86.163797 10C 84.676297 10 83.847697 12.2858 84.656297 13.5335C 85.874297 15.42 86.573197 17.6559 86.563197 20.0715C 86.543197 26.6893 81.162097 32.0294 74.543097 32.0095C 67.923997 31.9895 62.582897 26.6094 62.602897 19.9916C 62.602897 17.616 63.311697 15.4001 64.509697 13.5435C 65.318397 12.2958 64.489697 10.01 63.002197 10.01L 32.023497 10.01L 32.023497 50.9646C 32.023497 52.4518 29.737297 53.2803 28.489397 52.4718C 26.632397 51.274 24.416097 50.5653 22.040097 50.5653C 15.420997 50.5453 10.039897 55.8855 10.019997 62.5033C 9.999997 69.1211 15.341197 74.5012 21.960197 74.5212C 24.366197 74.5212 26.612497 73.8225 28.499397 72.6147C 29.747297 71.8062 32.033497 72.6347 32.033497 74.1219L 32.033497 147.7663C 48.925597 147.7663 63.521397 145.5205 70.399997 142.2665C 71.777697 141.6177 72.845897 139.9607 73.564697 138.5034C 74.253597 137.1059 74.582997 135.5688 74.622997 134.0017C 75.152097 113.2399 84.236997 93.4563 100.120697 80.0111C 120.476997 62.7828 134.234197 38.0084 137.099497 10.02L 86.173797 10.02L 86.163797 10Z"></path></g></g></g><g id="g-root-4.line_sy_me7d101u2wzrf-stroke" data-item-order="-105831" data-item-id="4.line_sy_me7d101u2wzrf" data-item-class="ScenePart Part Indexed Stroke ColorStrokeBlack" data-item-index="4" data-renderer-id="0" transform="translate(434.00006103515625, 195)"><g id="4.line_sy_me7d101u2wzrf-stroke" fill="none" stroke-linecap="round" stroke-linejoin="round" stroke-miterlimit="4" stroke="#666666" stroke-width="2"><g><path d="M 81.999939 10L 11.999939 10"></path><path d="M 17.999939 3.5L 11.499939 10L 17.999939 16.5" stroke-dasharray="none"></path></g></g></g><g id="g-root-3.cu_sy_zp1eb81u2x1c8-stroke" data-item-order="-105830" data-item-id="3.cu_sy_zp1eb81u2x1c8" data-item-class="ScenePart Part Indexed Fill Stroke ColorStrokeBlack" data-item-index="3" data-renderer-id="0" transform="translate(232.55023193359375, 97.85546875)"><g id="3.cu_sy_zp1eb81u2x1c8-stroke" fill="none" stroke-linecap="round" stroke-linejoin="round" stroke-miterlimit="4" stroke="#2c2c2c" stroke-width="2"><g><path d="M 112.2806 94.624198C 110.3937 95.841898 108.1574 96.540598 105.7414 96.530698C 99.1224 96.510698 93.7812 91.130598 93.8012 84.512798C 93.8211 77.894998 99.2023 72.554798 105.8213 72.574798C 108.1974 72.574798 110.4137 73.283498 112.2706 74.481298C 113.5185 75.289798 115.8048 74.461298 115.8048 72.973998L 115.8048 32.019398L 84.8261 32.019398C 83.3385 32.019398 82.5099 29.733698 83.3185 28.485998C 84.5166 26.629398 85.2254 24.413498 85.2254 22.037798C 85.2454 15.419998 79.9042 10.039898 73.2852 10.019998C 66.6661 9.999998 61.2851 15.340198 61.2651 21.957998C 61.2651 24.363498 61.9639 26.609398 63.1719 28.495898C 63.9806 29.743598 63.1519 32.029398 61.6644 32.029398L 10 32.029398C 12.8553 59.937998 26.5326 84.632598 46.7791 101.860798C 62.8525 115.535698 72.5364 135.209498 73.2053 156.220798C 73.2752 158.366798 73.8842 160.482898 75.1521 162.209698C 75.781 163.078098 76.5697 163.866698 77.4782 164.295898C 84.3668 167.539898 98.9427 169.775798 115.7948 169.775798L 115.7948 96.131398C 115.7948 94.644098 113.5086 93.815698 112.2606 94.624198L 112.2806 94.624198Z"></path></g></g></g><g id="g-root-3.line_sy_v9ud9w1u2wyyp-stroke" data-item-order="-105827" data-item-id="3.line_sy_v9ud9w1u2wyyp" data-item-class="ScenePart Part Indexed Stroke ColorStrokeBlack" data-item-index="3" data-renderer-id="0" transform="translate(169.99993896484375, 195)"><g id="3.line_sy_v9ud9w1u2wyyp-stroke" fill="none" stroke-linecap="round" stroke-linejoin="round" stroke-miterlimit="4" stroke="#666666" stroke-width="2"><g><path d="M 10.000061 10L 80.000061 10"></path><path d="M 74.000061 16.5L 80.500061 10L 74.000061 3.5" stroke-dasharray="none"></path></g></g></g><g id="g-root-2.cu_sy_1d0hwok1u2wzra-stroke" data-item-order="-105826" data-item-id="2.cu_sy_1d0hwok1u2wzra" data-item-class="ScenePart Part Indexed Fill Stroke ColorStrokeBlack" data-item-index="2" data-renderer-id="0" transform="translate(338.364990234375, 3)"><g id="2.cu_sy_1d0hwok1u2wzra-stroke" fill="none" stroke-linecap="round" stroke-linejoin="round" stroke-miterlimit="4" stroke="#2c2c2c" stroke-width="2"><g><path d="M 13.5241 64.2801C 15.411 63.0623 17.6473 62.3636 20.0633 62.3736C 26.6823 62.3935 32.0235 67.7736 32.0035 74.3914C 31.9836 81.0092 26.6025 86.3494 19.9835 86.3295C 17.6074 86.3295 15.391 85.6208 13.5341 84.423C 12.2862 83.6145 10 84.4429 10 85.9302L 10 126.8848L 40.9786 126.8848C 42.4662 126.8848 43.2948 129.1706 42.4862 130.4183C 41.2881 132.2748 40.5793 134.4908 40.5793 136.8664C 40.5593 143.4842 45.9005 148.8643 52.5195 148.8843C 59.1386 148.9042 64.5196 143.5641 64.5396 136.9463C 64.5396 134.5407 63.8408 132.2948 62.6328 130.4083C 61.8241 129.1606 62.6528 126.8748 64.1403 126.8748L 115.0659 126.8748C 115.4353 123.2914 115.635 119.6481 115.635 115.9649C 115.635 57.5624 68.3732 10.1996 10.0099 10L 10.0099 62.7728C 10.0099 64.2601 12.2962 65.0886 13.5441 64.2801L 13.5241 64.2801Z"></path></g></g></g><g id="g-root-2.line_sy_144uwfo1u2x0jz-stroke" data-item-order="-105823" data-item-id="2.line_sy_144uwfo1u2x0jz" data-item-class="ScenePart Part Indexed Stroke ColorStrokeBlack" data-item-index="2" data-renderer-id="0" transform="translate(440, 51)"><g id="2.line_sy_144uwfo1u2x0jz-stroke" fill="none" stroke-linecap="round" stroke-linejoin="round" stroke-miterlimit="4" stroke="#666666" stroke-width="2"><g><path d="M 76 10L 12 10"></path><path d="M 18 3.5L 11.5 10L 18 16.5" stroke-dasharray="none"></path></g></g></g><g id="g-root-1.cu_sy_1hgbet01u2wyz0-stroke" data-item-order="-105822" data-item-id="1.cu_sy_1hgbet01u2wyz0" data-item-class="ScenePart Part Indexed Indexed_1 Fill Stroke ColorStrokeBlack" data-item-index="1" data-renderer-id="0" transform="translate(231.93130493164062, 3)"><g id="1.cu_sy_1hgbet01u2wyz0-stroke" fill="none" stroke-linecap="round" stroke-linejoin="round" stroke-miterlimit="4" stroke="#2c2c2c" stroke-width="2"><g><path d="M 63.800895 123.3513C 62.582895 121.4648 61.884095 119.2289 61.893995 116.8133C 61.913995 110.1955 67.295095 104.8553 73.914095 104.8753C 80.533095 104.8953 85.874295 110.2754 85.854395 116.8932C 85.854395 119.2688 85.145495 121.4847 83.947495 123.3413C 83.138795 124.589 83.967495 126.8748 85.454995 126.8748L 116.433695 126.8748L 116.433695 85.9202C 116.433695 84.433 118.719895 83.6045 119.967795 84.413C 121.824695 85.6108 124.041095 86.3195 126.417195 86.3195C 133.036195 86.3394 138.417295 80.9993 138.437195 74.3815C 138.457195 67.7636 133.115995 62.3835 126.496995 62.3636C 124.090995 62.3636 121.844695 63.0623 119.957795 64.2701C 118.709895 65.0786 116.423695 64.2501 116.423695 62.7628L 116.423695 10C 115.794795 10 115.175795 10 114.546795 10C 57.690995 10.7885 11.197995 57.0134 10.089795 113.8488C 9.999995 118.2507 10.199595 122.6027 10.628895 126.8748L 62.293295 126.8748C 63.780895 126.8748 64.609495 124.589 63.800895 123.3413L 63.800895 123.3513Z"></path></g></g></g><g id="g-root-1.line_sy_1hgbet01u2wyz1-stroke" data-item-order="-105819" data-item-id="1.line_sy_1hgbet01u2wyz1" data-item-class="ScenePart Part Indexed Indexed_1 Stroke ColorStrokeBlack" data-item-index="1" data-renderer-id="0" transform="translate(170, 51)"><g id="1.line_sy_1hgbet01u2wyz1-stroke" fill="none" stroke-linecap="round" stroke-linejoin="round" stroke-miterlimit="4" stroke="#666666" stroke-width="2"><g><path d="M 10 10L 74 10"></path><path d="M 68 16.5L 74.5 10L 68 3.5" stroke-dasharray="none"></path></g></g></g><g id="g-root-tx_healthca_1qd7d841u2x0cl-stroke" data-item-order="0" data-item-id="tx_healthca_1qd7d841u2x0cl" data-item-class="Label Stroke SceneTarget Indexed Indexed_1 ColorStrokeBlack" data-item-index="1" data-renderer-id="0" transform="translate(2, 39)"></g><g id="g-root-rate_1d30uys1qqp8u8-stroke" data-item-order="0" data-item-id="rate_1d30uys1qqp8u8" data-item-class="Icon Stroke SceneTarget Indexed Indexed_1 ColorStrokeBlack" data-item-index="1" data-renderer-id="0" transform="translate(122, 33)"><g id="rate_1d30uys1qqp8u8-stroke" fill="none" stroke-linecap="round" stroke-linejoin="round" stroke-miterlimit="4" stroke="#666666" stroke-width="2"><g><path d="M 11.491428 21.082857C 12.802857 14.757143 20.594286 10 28 18.408571C 38.568569 6.297143 49.857143 21.314285 42.194286 29.054285L 28 42.142857L 19.694286 34.42857M 11.285714 28L 17.714285 28L 21.571428 22.857143L 26.714285 31.857143L 30.571428 26.714285L 34.42857 26.714285"></path></g></g></g><g id="g-root-cybo_i0wddw1r15p8s-stroke" data-item-order="0" data-item-id="cybo_i0wddw1r15p8s" data-item-class="Icon Stroke SceneTarget Indexed ColorStrokeBlack" data-item-index="2" data-renderer-id="0" transform="translate(518, 33)"><g id="cybo_i0wddw1r15p8s-stroke" fill="none" stroke-linecap="round" stroke-linejoin="round" stroke-miterlimit="4" stroke="#666666" stroke-width="2"><g><path d="M 42.142857 34.42857C 42.142857 26.714285 35.817142 21.571428 28 21.571428C 20.182858 21.571428 13.857142 26.714285 13.857142 34.42857L 13.857142 44.714287L 42.142857 44.714287ZM 28 21.571428L 28 11.285714M 13.857142 37L 42.142857 37M 22.857143 37L 22.857143 44.714287M 33.142857 37L 33.142857 44.714287M 21.571428 30.571428C 21.571428 31.281507 22.147062 31.857143 22.857143 31.857143C 23.567225 31.857143 24.142857 31.281507 24.142857 30.571428C 24.142857 29.861347 23.567225 29.285713 22.857143 29.285713C 22.147062 29.285713 21.571428 29.861347 21.571428 30.571428M 31.857143 30.571428C 31.857143 31.281507 32.432777 31.857143 33.142857 31.857143C 33.852936 31.857143 34.42857 31.281507 34.42857 30.571428C 34.42857 29.861347 33.852936 29.285713 33.142857 29.285713C 32.432777 29.285713 31.857143 29.861347 31.857143 30.571428"></path></g></g></g><g id="g-root-tx_robotics_1d3ma441u2x0xs-stroke" data-item-order="0" data-item-id="tx_robotics_1d3ma441u2x0xs" data-item-class="Label Stroke SceneTarget Indexed ColorStrokeBlack" data-item-index="2" data-renderer-id="0" transform="translate(566, 39)"></g><g id="g-root-tx_energy_qv9tbo1u2x15a-stroke" data-item-order="0" data-item-id="tx_energy_qv9tbo1u2x15a" data-item-class="Label Stroke SceneTarget Indexed ColorStrokeBlack" data-item-index="3" data-renderer-id="0" transform="translate(38, 183)"></g><g id="g-root-char_vagxis1u2kcun-stroke" data-item-order="0" data-item-id="char_vagxis1u2kcun" data-item-class="Icon Stroke SceneTarget Indexed ColorStrokeBlack" data-item-index="3" data-renderer-id="0" transform="translate(122, 177)"><g id="char_vagxis1u2kcun-stroke" fill="none" stroke-linecap="round" stroke-linejoin="round" stroke-miterlimit="4" stroke="#666666" stroke-width="2"><g><path d="M 19.75 42.25C 17.264719 42.25 15.25 40.235283 15.25 37.75L 15.25 18.25C 15.25 15.764719 17.264719 13.75 19.75 13.75L 31.75 13.75M 36.25 13.75C 38.735283 13.75 40.75 15.764719 40.75 18.25L 40.75 37.75C 40.75 40.235283 38.735283 42.25 36.25 42.25L 24.25 42.25M 28.75 10.75L 31.75 13.75L 28.75 16.75M 27.25 39.25L 24.25 42.25L 27.25 45.25M 22.75 35.5C 22.75 35.914215 23.085787 36.25 23.5 36.25L 32.5 36.25C 32.914215 36.25 33.25 35.914215 33.25 35.5L 33.25 23.5C 33.25 23.085787 32.914215 22.75 32.5 22.75L 30.25 22.75L 30.25 20.5C 30.25 20.085787 29.914213 19.75 29.5 19.75L 26.5 19.75C 26.085787 19.75 25.75 20.085787 25.75 20.5L 25.75 22.75L 23.5 22.75C 23.085787 22.75 22.75 23.085787 22.75 23.5ZM 29.5 25.046501L 27.050499 27.466C 26.83386 27.679653 26.767771 28.003021 26.883207 28.284542C 26.998646 28.566065 27.27273 28.749947 27.577 28.75L 28.450001 28.75C 28.75234 28.750053 29.025085 28.931639 29.141766 29.210558C 29.258446 29.489475 29.196243 29.81118 28.984001 30.026501L 26.5 32.546501"></path></g></g></g><g id="g-root-head_djte441u2kc20-stroke" data-item-order="0" data-item-id="head_djte441u2kc20" data-item-class="Icon Stroke SceneTarget Indexed ColorStrokeBlack" data-item-index="4" data-renderer-id="0" transform="translate(518, 177)"><g id="head_djte441u2kc20-stroke" fill="none" stroke-linecap="round" stroke-linejoin="round" stroke-miterlimit="4" stroke="#666666" stroke-width="2"><g><path d="M 13 36.25L 28 36.25C 28 36.25 30.25 36.25 30.25 38.5L 30.25 43C 30.25 43 30.25 45.25 28 45.25L 13 45.25C 13 45.25 10.75 45.25 10.75 43L 10.75 38.5C 10.75 38.5 10.75 36.25 13 36.25M 10.75 38.5C 10.750259 38.001957 10.811208 37.505798 10.9315 37.022499L 12.25 31.75L 14.5 31.75C 15.460055 32.710808 16.762747 33.250446 18.121 33.25L 22.879002 33.25C 24.237255 33.250446 25.539946 32.710808 26.500002 31.750002L 28.75 31.75L 30.068501 37.022499C 30.188791 37.505798 30.249741 38.001957 30.249998 38.5M 10.75 40.75L 13.75 40.75M 27.25 40.75L 30.25 40.75M 24.961 18.25L 27.25 18.25L 27.25 18.25L 27.25 25.75L 27.25 25.75L 24.961 25.75C 23.739899 25.749998 22.75 24.760101 22.75 23.538998L 22.75 20.4625C 22.74917 19.240812 23.739311 18.25 24.960999 18.25ZM 43.038998 25.75L 40.75 25.75L 40.75 25.75L 40.75 18.25L 40.75 18.25L 43.037498 18.25C 44.258842 18.249998 45.249168 19.239655 45.25 20.461L 45.25 23.5375C 45.250832 24.759188 44.260689 25.750002 43.039001 25.750002ZM 27.25 18.25L 27.25 17.5C 27.25 13.772078 30.272079 10.75 34 10.75L 34 10.75C 37.727921 10.75 40.75 13.772078 40.75 17.5L 40.75 18.25M 42.25 25.75L 42.25 37C 42.25 38.242641 41.242641 39.25 40 39.25L 40 39.25C 38.757362 39.25 37.75 38.242641 37.75 37L 37.75 34C 37.75 32.757362 36.742641 31.75 35.5 31.75L 34 31.75"></path></g></g></g><g id="g-root-tx_entertai_1uuwalw1u2wykn-stroke" data-item-order="0" data-item-id="tx_entertai_1uuwalw1u2wykn" data-item-class="Label Stroke SceneTarget Indexed ColorStrokeBlack" data-item-index="4" data-renderer-id="0" transform="translate(566, 183)"></g></g></g></svg>