<?xml version="1.0" encoding="utf-8" standalone="yes"?>
<!DOCTYPE svg PUBLIC "-//W3C//DTD SVG 1.1//EN" "http://www.w3.org/Graphics/SVG/1.1/DTD/svg11.dtd">
<svg width="264" height="277" viewBox="0 0 264 277" style="fill:none;stroke:none;fill-rule:evenodd;clip-rule:evenodd;stroke-linecap:round;stroke-linejoin:round;stroke-miterlimit:1.5;" version="1.1" xmlns="http://www.w3.org/2000/svg" xmlns:xlink="http://www.w3.org/1999/xlink"><style id="fontImports">@import url("https://fonts.googleapis.com/css2?family=Roboto:wght@400;700&amp;display=block");</style><rect id="" x="0" y="0" width="264" height="277" style="fill: #ffffff;"></rect><g id="items" style="isolation: isolate"><g id="blend" style="mix-blend-mode:multiply"><g id="g-root-chip_1hgc4381sp1ukr-fill" data-item-order="0" data-item-id="chip_1hgc4381sp1ukr" data-item-class="Icon Stroke SceneTarget SceneTitle Title" data-item-index="none" data-renderer-id="0" transform="translate(32, 3)"></g><g id="g-root-tx_unleashi_zitcqc1sp1vd4-fill" data-item-order="0" data-item-id="tx_unleashi_zitcqc1sp1vd4" data-item-class="Label Stroke SceneTarget SceneTitle Title" data-item-index="none" data-renderer-id="0" transform="translate(32, 194.99996948242188)"><g id="tx_unleashi_zitcqc1sp1vd4-fill" stroke="none" fill="#484848"><g><text style="font: 25px Roboto, sans-serif; white-space: pre;"><tspan x="14.48" y="40" dominant-baseline="ideographic">Unleashing the </tspan><tspan x="32.31" y="70" dominant-baseline="ideographic">Future of AI</tspan></text></g></g></g><g id="g-root-chip_1hgc4381sp1ukr-stroke" data-item-order="0" data-item-id="chip_1hgc4381sp1ukr" data-item-class="Icon Stroke SceneTarget SceneTitle Title" data-item-index="none" data-renderer-id="0" transform="translate(32, 3)"><g id="chip_1hgc4381sp1ukr-stroke" fill="none" stroke-linecap="round" stroke-linejoin="round" stroke-miterlimit="4" stroke="#484848" stroke-width="2"><g><path d="M 78.542496 42.895C 85.805634 40.44598 90.053993 32.915112 88.39373 25.432175C 86.733467 17.949238 79.698761 12.921778 72.081406 13.774337C 64.464066 14.626896 58.714874 21.085171 58.75 28.75C 58.770325 30.10388 58.974693 31.448706 59.357498 32.747501C 58.524998 32.672501 57.7225 32.5 56.875 32.5C 46.162186 32.447701 36.359238 38.514713 31.627087 48.125847C 26.894938 57.73698 28.063782 69.206078 34.637501 77.665001C 22.895529 78.470551 13.78229 88.230431 13.78229 100C 13.78229 111.769569 22.895529 121.529442 34.637497 122.334999C 28.063782 130.793915 26.894938 142.263016 31.627087 151.874146C 36.359238 161.485291 46.162186 167.552307 56.875 167.5C 57.7225 167.5 58.524998 167.327499 59.357498 167.252487C 57.128792 175.136658 61.638573 183.35051 69.487022 185.701843C 77.33548 188.053177 85.618637 183.671982 88.092026 175.86113C 90.565407 168.050278 86.313843 159.699829 78.542496 157.104996M 121.457504 42.895C 114.194366 40.44598 109.946007 32.915112 111.60627 25.432175C 113.266533 17.949238 120.301239 12.921778 127.918594 13.774337C 135.535934 14.626896 141.285126 21.085171 141.25 28.75C 141.229675 30.10388 141.025299 31.448706 140.642502 32.747501C 141.475006 32.672501 142.277496 32.5 143.125 32.5C 153.837814 32.447701 163.640762 38.514713 168.37291 48.125847C 173.105057 57.73698 171.936218 69.206078 165.362503 77.665001C 177.104462 78.470551 186.217712 88.230431 186.217712 100C 186.217712 111.769569 177.104462 121.529442 165.362503 122.334999C 171.936218 130.793915 173.105057 142.263016 168.37291 151.874146C 163.640762 161.485291 153.837814 167.552307 143.125 167.5C 142.277496 167.5 141.475006 167.327499 140.642502 167.252487C 142.871216 175.136658 138.36142 183.35051 130.512985 185.701843C 122.66452 188.053177 114.381363 183.671982 111.907974 175.86113C 109.434593 168.050278 113.686157 159.699829 121.457504 157.104996M 88.75 28C 95.711525 23.980762 104.288483 23.980762 111.25 28M 111.25 172C 104.288483 176.019241 95.711525 176.019241 88.75 172M 77.5 70L 122.5 70C 122.5 70 130 70 130 77.5L 130 122.5C 130 122.5 130 130 122.5 130L 77.5 130C 77.5 130 70 130 70 122.5L 70 77.5C 70 77.5 70 70 77.5 70M 85 55L 85 70M 115 55L 115 70M 55 115L 70 115M 55 85L 70 85M 115 145L 115 130M 85 145L 85 130M 145 85L 130 85M 145 115L 130 115"></path></g></g></g><g id="g-root-tx_unleashi_zitcqc1sp1vd4-stroke" data-item-order="0" data-item-id="tx_unleashi_zitcqc1sp1vd4" data-item-class="Label Stroke SceneTarget SceneTitle Title" data-item-index="none" data-renderer-id="0" transform="translate(32, 194.99996948242188)"></g></g></g></svg>