<?xml version="1.0" encoding="utf-8" standalone="yes"?>
<!DOCTYPE svg PUBLIC "-//W3C//DTD SVG 1.1//EN" "http://www.w3.org/Graphics/SVG/1.1/DTD/svg11.dtd">
<svg width="504" height="315" viewBox="0 0 504 315" style="fill:none;stroke:none;fill-rule:evenodd;clip-rule:evenodd;stroke-linecap:round;stroke-linejoin:round;stroke-miterlimit:1.5;" version="1.1" xmlns="http://www.w3.org/2000/svg" xmlns:xlink="http://www.w3.org/1999/xlink"><style id="fontImports">@import url("https://fonts.googleapis.com/css2?family=Roboto:wght@400;700&amp;display=block");</style><rect id="" x="0" y="0" width="504" height="314.006" style="fill: #ffffff;"></rect><g id="items" style="isolation: isolate"><g id="blend" style="mix-blend-mode:multiply"><g id="g-root-0.cr-big_cr_1448lkl1q79oul-fill" data-item-order="-82942" data-item-id="0.cr-big_cr_1448lkl1q79oul" data-item-class="Shape Stroke Fill ScenePart Part Indexed_0 ColorFillBlack ColorStrokeBlack" data-item-index="0" data-renderer-id="0" transform="translate(170, 87.0008544921875)"><g id="0.cr-big_cr_1448lkl1q79oul-fill" stroke="none" fill="#666666"><g><path d="M 10 70C 10.000003 103.137088 36.862918 130.000003 70.000003 130.000003C 103.137088 130.000003 130.000003 103.137088 130.000003 70.000003C 130.000003 36.862918 103.137088 10.000003 70.000003 10.000003C 36.862918 10.000003 10.000003 36.862918 10.000003 70.000003"></path></g></g></g><g id="g-root-4.cu_sy_v8llbp1q79qf5-fill" data-item-order="-82940" data-item-id="4.cu_sy_v8llbp1q79qf5" data-item-class="ScenePart Part Indexed Fill Stroke ColorStrokeBlack" data-item-index="4" data-renderer-id="0" transform="translate(85.999267578125, 3)"><g id="4.cu_sy_v8llbp1q79qf5-fill" stroke="none" fill="#e3cd09"><g><path d="M 152.497407 94.014407C 153.325407 93.993707 154.000407 93.324107 154.000407 92.495907L 154.000407 63.601607C 154.000407 62.116507 151.737407 61.293107 150.489407 62.097107C 148.618407 63.301807 146.391407 64.000807 144.000407 64.000807C 137.373407 64.000807 132.000407 58.628207 132.000407 52.000807C 132.000407 45.373407 137.373407 40.000807 144.000407 40.000807C 146.391407 40.000807 148.618407 40.699807 150.489407 41.904507C 151.737407 42.708507 154.000407 41.885107 154.000407 40.400007L 154.000407 11.500807C 154.000407 10.672307 153.322407 10.000007 152.493407 10.008487C 74.160607 10.811607 10.811607 74.160607 10.008487 152.493407C 10.000007 153.322407 10.672307 154.000407 11.500807 154.000407L 40.531507 154.000407C 41.999107 154.000407 42.810707 156.184407 42.024007 157.423407C 40.844607 159.281407 40.161607 161.484407 40.161607 163.847407C 40.161607 170.475407 45.534207 175.847407 52.161607 175.847407C 58.789007 175.847407 64.161607 170.475407 64.161607 163.847407C 64.161607 161.484407 63.478607 159.281407 62.299207 157.423407C 61.512507 156.184407 62.324107 154.000407 63.791707 154.000407L 94.021407 154.000407C 94.024507 154.000407 94.027007 153.998407 94.027007 153.995407C 94.027007 121.369407 120.067407 94.826007 152.497407 94.014407Z"></path></g></g></g><g id="g-root-3.cu_sy_v8llbp1q79qf4-fill" data-item-order="-82938" data-item-id="3.cu_sy_v8llbp1q79qf4" data-item-class="ScenePart Part Indexed Fill Stroke ColorStrokeBlack" data-item-index="3" data-renderer-id="0" transform="translate(85.99942016601562, 147.0008544921875)"><g id="3.cu_sy_v8llbp1q79qf4-fill" stroke="none" fill="#93c131"><g><path d="M 64.000793 20C 64.000793 26.6275 58.628193 32 52.000793 32C 45.373393 32 40.000792 26.6275 40.000792 20C 40.000792 17.6096 40.699793 15.3824 41.904493 13.5117C 42.708493 12.2631 41.885093 10.000061 40.399992 10.000063L 11.500793 10.000098C 10.672293 10.000099 9.999993 10.6787 10.008472 11.507C 10.811593 89.8402 74.160593 153.189 152.493393 153.992C 153.322392 154.001 154.000392 153.329 154.000392 152.5L 154.000392 123.636C 154.000392 122.147 156.287393 121.319 157.538393 122.128C 159.412393 123.339 161.645393 124.042 164.042393 124.042C 170.670393 124.042 176.042393 118.669 176.042393 112.042C 176.042393 105.4144 170.670393 100.0418 164.042393 100.0418C 161.645393 100.0418 159.412393 100.7447 157.538393 101.9556C 156.287393 102.7642 154.000392 101.9371 154.000392 100.4471L 154.000392 71.4857C 154.000392 70.6573 153.324393 69.9877 152.496393 69.9672C 120.563393 69.1772 94.820893 43.4369 94.027893 11.504C 94.007293 10.676 93.337693 9.999999 92.509393 10L 63.601593 10.000035C 62.116493 10.000037 61.293093 12.2631 62.097093 13.5117C 63.301793 15.3824 64.000793 17.6096 64.000793 20Z"></path></g></g></g><g id="g-root-2.cu_sy_zof3g51q79pmv-fill" data-item-order="-82936" data-item-id="2.cu_sy_zof3g51q79pmv" data-item-class="ScenePart Part Indexed Fill Stroke ColorStrokeBlack" data-item-index="2" data-renderer-id="0" transform="translate(229.9993896484375, 125.161865234375)"><g id="2.cu_sy_zof3g51q79pmv-fill" stroke="none" fill="#3bc482"><g><path d="M 123.868 31.843C 122.401 31.843 121.59 29.6609 122.376 28.4222C 123.555 26.5652 124.238 24.3623 124.238 22C 124.238 15.3726 118.865 10 112.238 10C 105.6102 10 100.2376 15.3726 100.2376 22C 100.2376 24.3623 100.9202 26.5653 102.099 28.4222C 102.8852 29.6609 102.0739 31.843 100.6067 31.843L 71.4999 31.8431C 70.6715 31.8431 70.0018 32.5192 69.9814 33.3474C 69.1953 65.2893 43.4463 91.0384 11.5044 91.8246C 10.6762 91.845 10.000052 92.5146 10.000052 93.3431L 10.000033 122.286C 10.000032 123.776 12.2867 124.603 13.5382 123.795C 15.4122 122.584 17.6453 121.881 20.0425 121.881C 26.6699 121.881 32.0425 127.253 32.0425 133.881C 32.0425 140.508 26.6699 145.881 20.0425 145.881C 17.6453 145.881 15.4122 145.178 13.5382 143.967C 12.2867 143.158 10.000019 143.985 10.000018 145.475L 10 174.343C 9.999999 175.171 10.6786 175.844 11.5069 175.835C 89.8401 175.032 153.189 111.683 153.992 33.3499C 154.001 32.5215 153.328 31.843 152.5 31.843L 123.868 31.843Z"></path></g></g></g><g id="g-root-1.cu_sy_zof3g51q79pmu-fill" data-item-order="-82934" data-item-id="1.cu_sy_zof3g51q79pmu" data-item-class="ScenePart Part Indexed Indexed_1 Fill Stroke ColorStrokeBlack" data-item-index="1" data-renderer-id="0" transform="translate(207.9580078125, 3.0001220703125)"><g id="1.cu_sy_zof3g51q79pmu-fill" stroke="none" fill="#17b0e3"><g><path d="M 92.0406 152.496407C 92.0612 153.324407 92.7308 154.000407 93.5591 154.000407L 122.647 154.000407C 124.114 154.000407 124.925 151.820407 124.139 150.582407C 122.961 148.725407 122.279 146.523407 122.279 144.161407C 122.279 137.534407 127.651 132.161407 134.279 132.161407C 140.906 132.161407 146.279 137.534407 146.279 144.161407C 146.279 146.523407 145.597 148.725407 144.419 150.582407C 143.633 151.820407 144.444 154.000407 145.911 154.000407L 174.542 154.000407C 175.37 154.000407 176.043 153.322407 176.034 152.493407C 175.231 74.160607 111.882 10.811607 33.5489 10.008487C 32.7206 10.000007 32.042 10.672307 32.042 11.500807L 32.042 40.447907C 32.042 41.937907 29.7556 42.765007 28.5041 41.956307C 26.6301 40.745407 24.3972 40.042507 22 40.042507C 15.3726 40.042507 10 45.415107 10 52.042507C 10 58.669907 15.3726 64.042507 22 64.042507C 24.3972 64.042507 26.6301 63.339607 28.5041 62.128707C 29.7556 61.320007 32.042 62.147207 32.042 63.637207L 32.042 93.996007C 32.042 94.005607 32.0498 94.013407 32.0594 94.013407C 64.6894 94.013407 91.2358 120.060407 92.0406 152.496407Z"></path></g></g></g><g id="g-root-tx_finance_4mb1o51q79qf7-fill" data-item-order="0" data-item-id="tx_finance_4mb1o51q79qf7" data-item-class="Label Stroke SceneTarget Indexed ColorStrokeBlack" data-item-index="4" data-renderer-id="0" transform="translate(26, 3.0008544921875)"><g id="tx_finance_4mb1o51q79qf7-fill" stroke="none" fill="#666666"><g><text style="font: 20px Roboto, sans-serif; white-space: pre;"><tspan x="22.08" y="33.75" dominant-baseline="ideographic">Finance</tspan></text></g></g></g><g id="g-root-tx_aerospac_qunigl1q79pfy-fill" data-item-order="0" data-item-id="tx_aerospac_qunigl1q79pfy" data-item-class="Label Stroke SceneTarget Indexed Indexed_1 ColorStrokeBlack" data-item-index="1" data-renderer-id="0" transform="translate(350, 3.0008544921875)"><g id="tx_aerospac_qunigl1q79pfy-fill" stroke="none" fill="#666666"><g><text style="font: 20px Roboto, sans-serif; white-space: pre;"><tspan x="12" y="33.75" dominant-baseline="ideographic">Aerospace</tspan></text></g></g></g><g id="g-root-doll_1upwrat1sepn2m-fill" data-item-order="0" data-item-id="doll_1upwrat1sepn2m" data-item-class="Icon Stroke SceneTarget Indexed InsideFill InsideColorFill ColorStrokeBlack" data-item-index="4" data-renderer-id="0" transform="translate(133.93698120117188, 50.814208984375)"></g><g id="g-root-1_v3lvsl1q6vmyy-fill" data-item-order="0" data-item-id="1_v3lvsl1q6vmyy" data-item-class="Icon Stroke SceneTarget Indexed Indexed_1 InsideFill InsideColorFill ColorStrokeBlack" data-item-index="1" data-renderer-id="0" transform="translate(278.186767578125, 50.9376220703125)"></g><g id="g-root-netw_5vrqt1sf3m6j-fill" data-item-order="0" data-item-id="netw_5vrqt1sf3m6j" data-item-class="Icon Stroke SceneTarget InsideFill InsideColorFill InsideBlackFill ColorStrokeBlack" data-item-index="0" data-renderer-id="0" transform="translate(194, 110.9969482421875)"></g><g id="g-root-rate_1luamnp1ravg1y-fill" data-item-order="0" data-item-id="rate_1luamnp1ravg1y" data-item-class="Icon Stroke SceneTarget Indexed InsideFill InsideColorFill ColorStrokeBlack" data-item-index="3" data-renderer-id="0" transform="translate(133.81320190429688, 195.0638427734375)"></g><g id="g-root-cont_4mbb5h1s4q0w5-fill" data-item-order="0" data-item-id="cont_4mbb5h1s4q0w5" data-item-class="Icon Stroke SceneTarget Indexed InsideFill InsideColorFill ColorStrokeBlack" data-item-index="2" data-renderer-id="0" transform="translate(278.063232421875, 195.1876220703125)"></g><g id="g-root-tx_healthca_1qcl2d11q79on8-fill" data-item-order="0" data-item-id="tx_healthca_1qcl2d11q79on8" data-item-class="Label Stroke SceneTarget Indexed ColorStrokeBlack" data-item-index="3" data-renderer-id="0" transform="translate(2, 267.0008544921875)"><g id="tx_healthca_1qcl2d11q79on8-fill" stroke="none" fill="#666666"><g><text style="font: 20px Roboto, sans-serif; white-space: pre;"><tspan x="19.34" y="33.75" dominant-baseline="ideographic">Healthcare</tspan></text></g></g></g><g id="g-root-tx_entertai_1hgy2451q79pfx-fill" data-item-order="0" data-item-id="tx_entertai_1hgy2451q79pfx" data-item-class="Label Stroke SceneTarget Indexed ColorStrokeBlack" data-item-index="2" data-renderer-id="0" transform="translate(350, 267.0008544921875)"><g id="tx_entertai_1hgy2451q79pfx-fill" stroke="none" fill="#666666"><g><text style="font: 20px Roboto, sans-serif; white-space: pre;"><tspan x="12" y="33.75" dominant-baseline="ideographic">Entertainment</tspan></text></g></g></g><g id="g-root-0.cr-big_cr_1448lkl1q79oul-stroke" data-item-order="-82942" data-item-id="0.cr-big_cr_1448lkl1q79oul" data-item-class="Shape Stroke Fill ScenePart Part Indexed_0 ColorFillBlack ColorStrokeBlack" data-item-index="0" data-renderer-id="0" transform="translate(170, 87.0008544921875)"><g id="0.cr-big_cr_1448lkl1q79oul-stroke" fill="none" stroke-linecap="round" stroke-linejoin="round" stroke-miterlimit="4" stroke="#2c2c2c" stroke-width="2"><g><path d="M 10 70C 10.000003 103.137088 36.862918 130.000003 70.000003 130.000003C 103.137088 130.000003 130.000003 103.137088 130.000003 70.000003C 130.000003 36.862918 103.137088 10.000003 70.000003 10.000003C 36.862918 10.000003 10.000003 36.862918 10.000003 70.000003"></path></g></g></g><g id="g-root-4.cu_sy_v8llbp1q79qf5-stroke" data-item-order="-82940" data-item-id="4.cu_sy_v8llbp1q79qf5" data-item-class="ScenePart Part Indexed Fill Stroke ColorStrokeBlack" data-item-index="4" data-renderer-id="0" transform="translate(85.999267578125, 3)"><g id="4.cu_sy_v8llbp1q79qf5-stroke" fill="none" stroke-linecap="round" stroke-linejoin="round" stroke-miterlimit="4" stroke="#2c2c2c" stroke-width="2"><g><path d="M 152.497107 94.014407C 153.325007 93.993707 154.000807 93.324107 154.000807 92.495907L 154.000807 63.601607C 154.000807 62.116507 151.737707 61.293107 150.489107 62.097107C 148.618407 63.301807 146.391207 64.000807 144.000707 64.000807C 137.373307 64.000807 132.000707 58.628207 132.000707 52.000807C 132.000707 45.373407 137.373307 40.000807 144.000707 40.000807C 146.391207 40.000807 148.618407 40.699807 150.489107 41.904507C 151.737707 42.708507 154.000807 41.885107 154.000807 40.400007L 154.000807 11.500807C 154.000807 10.672307 153.322207 10.000007 152.493807 10.008507C 74.160607 10.811607 10.811607 74.160607 10.008507 152.493807C 10.000007 153.322207 10.672307 154.000807 11.500807 154.000807L 40.531507 154.000807C 41.999107 154.000807 42.810707 156.184707 42.024007 157.423607C 40.844607 159.280907 40.161607 161.484407 40.161607 163.847507C 40.161607 170.474907 45.534207 175.847507 52.161607 175.847507C 58.789007 175.847507 64.161607 170.474907 64.161607 163.847507C 64.161607 161.484407 63.478607 159.280907 62.299207 157.423607C 61.512507 156.184707 62.324107 154.000807 63.791707 154.000807L 94.021407 154.000807C 94.024507 154.000807 94.027007 153.998307 94.027007 153.995307C 94.027007 121.369607 120.067007 94.826007 152.497107 94.014407Z"></path></g></g></g><g id="g-root-3.cu_sy_v8llbp1q79qf4-stroke" data-item-order="-82938" data-item-id="3.cu_sy_v8llbp1q79qf4" data-item-class="ScenePart Part Indexed Fill Stroke ColorStrokeBlack" data-item-index="3" data-renderer-id="0" transform="translate(85.99942016601562, 147.0008544921875)"><g id="3.cu_sy_v8llbp1q79qf4-stroke" fill="none" stroke-linecap="round" stroke-linejoin="round" stroke-miterlimit="4" stroke="#2c2c2c" stroke-width="2"><g><path d="M 64.000793 20C 64.000793 26.6275 58.628193 32 52.000793 32C 45.373393 32 40.000792 26.6275 40.000792 20C 40.000792 17.6096 40.699793 15.3824 41.904493 13.5117C 42.708493 12.2631 41.885093 10.0001 40.399992 10.0001L 11.500793 10.0001C 10.672293 10.0001 9.999993 10.6787 10.008493 11.507C 10.811593 89.8402 74.160593 153.1893 152.493793 153.9924C 153.322193 154.0009 154.000793 153.3285 154.000793 152.5001L 154.000793 123.6365C 154.000793 122.1465 156.287092 121.3194 157.538493 122.1281C 159.412393 123.3389 161.645393 124.0418 164.042492 124.0418C 170.669893 124.0418 176.042492 118.6692 176.042492 112.0418C 176.042492 105.4144 170.669893 100.0418 164.042492 100.0418C 161.645393 100.0418 159.412393 100.7447 157.538493 101.9556C 156.287092 102.7642 154.000793 101.9371 154.000793 100.4471L 154.000793 71.4857C 154.000793 70.6573 153.324793 69.9877 152.496693 69.9672C 120.562993 69.1772 94.820893 43.4369 94.027893 11.504C 94.007293 10.676 93.337693 9.999999 92.509393 10L 63.601593 10C 62.116493 10 61.293093 12.2631 62.097093 13.5117C 63.301793 15.3824 64.000793 17.6096 64.000793 20Z"></path></g></g></g><g id="g-root-2.cu_sy_zof3g51q79pmv-stroke" data-item-order="-82936" data-item-id="2.cu_sy_zof3g51q79pmv" data-item-class="ScenePart Part Indexed Fill Stroke ColorStrokeBlack" data-item-index="2" data-renderer-id="0" transform="translate(229.9993896484375, 125.161865234375)"><g id="2.cu_sy_zof3g51q79pmv-stroke" fill="none" stroke-linecap="round" stroke-linejoin="round" stroke-miterlimit="4" stroke="#2c2c2c" stroke-width="2"><g><path d="M 123.8685 31.843C 122.4013 31.843 121.5899 29.6609 122.3762 28.4222C 123.555 26.5652 124.2376 24.3623 124.2376 22C 124.2376 15.3726 118.865 10 112.2376 10C 105.6102 10 100.2376 15.3726 100.2376 22C 100.2376 24.3623 100.9202 26.5653 102.099 28.4222C 102.8852 29.6609 102.0739 31.843 100.6067 31.843L 71.4999 31.8431C 70.6715 31.8431 70.0018 32.5192 69.9814 33.3474C 69.1953 65.2893 43.4463 91.0384 11.5044 91.8246C 10.6762 91.845 10.0001 92.5146 10.0001 93.3431L 10 122.2862C 10 123.7762 12.2867 124.6034 13.5382 123.7947C 15.4122 122.5837 17.6453 121.8808 20.0425 121.8808C 26.6699 121.8808 32.0425 127.2533 32.0425 133.8808C 32.0425 140.5082 26.6699 145.8808 20.0425 145.8808C 17.6453 145.8808 15.4122 145.1778 13.5382 143.9668C 12.2867 143.1581 10 143.9853 10 145.4753L 10 174.343C 9.999999 175.1714 10.6785 175.8438 11.5069 175.8353C 89.8401 175.0321 153.1891 111.6831 153.9923 33.3499C 154.0008 32.5215 153.3284 31.843 152.5 31.843L 123.8685 31.843Z"></path></g></g></g><g id="g-root-1.cu_sy_zof3g51q79pmu-stroke" data-item-order="-82934" data-item-id="1.cu_sy_zof3g51q79pmu" data-item-class="ScenePart Part Indexed Indexed_1 Fill Stroke ColorStrokeBlack" data-item-index="1" data-renderer-id="0" transform="translate(207.9580078125, 3.0001220703125)"><g id="1.cu_sy_zof3g51q79pmu-stroke" fill="none" stroke-linecap="round" stroke-linejoin="round" stroke-miterlimit="4" stroke="#2c2c2c" stroke-width="2"><g><path d="M 92.0406 152.496707C 92.0612 153.324707 92.7308 154.000707 93.5591 154.000707L 122.647 154.000707C 124.1137 154.000707 124.9248 151.820507 124.139 150.582107C 122.9609 148.725507 122.2788 146.523307 122.2788 144.161707C 122.2788 137.534307 127.6514 132.161707 134.2788 132.161707C 140.9062 132.161707 146.2788 137.534307 146.2788 144.161707C 146.2788 146.523307 145.5966 148.725507 144.4185 150.582107C 143.6327 151.820607 144.4438 154.000707 145.9106 154.000707L 174.542 154.000807C 175.3704 154.000807 176.0428 153.322207 176.0343 152.493807C 175.2311 74.160607 111.8821 10.811607 33.5489 10.008507C 32.7206 10.000007 32.042 10.672307 32.042 11.500807L 32.042 40.447907C 32.042 41.937907 29.7556 42.765007 28.5041 41.956307C 26.6301 40.745407 24.3972 40.042507 22 40.042507C 15.3726 40.042507 10 45.415107 10 52.042507C 10 58.669907 15.3726 64.042507 22 64.042507C 24.3972 64.042507 26.6301 63.339607 28.5041 62.128707C 29.7556 61.320007 32.042 62.147207 32.042 63.637207L 32.042 93.996007C 32.042 94.005607 32.0498 94.013407 32.0594 94.013407C 64.6894 94.013407 91.2358 120.060507 92.0406 152.496707Z"></path></g></g></g><g id="g-root-tx_finance_4mb1o51q79qf7-stroke" data-item-order="0" data-item-id="tx_finance_4mb1o51q79qf7" data-item-class="Label Stroke SceneTarget Indexed ColorStrokeBlack" data-item-index="4" data-renderer-id="0" transform="translate(26, 3.0008544921875)"></g><g id="g-root-tx_aerospac_qunigl1q79pfy-stroke" data-item-order="0" data-item-id="tx_aerospac_qunigl1q79pfy" data-item-class="Label Stroke SceneTarget Indexed Indexed_1 ColorStrokeBlack" data-item-index="1" data-renderer-id="0" transform="translate(350, 3.0008544921875)"></g><g id="g-root-doll_1upwrat1sepn2m-stroke" data-item-order="0" data-item-id="doll_1upwrat1sepn2m" data-item-class="Icon Stroke SceneTarget Indexed InsideFill InsideColorFill ColorStrokeBlack" data-item-index="4" data-renderer-id="0" transform="translate(133.93698120117188, 50.814208984375)"><g id="doll_1upwrat1sepn2m-stroke" fill="none" stroke-linecap="round" stroke-linejoin="round" stroke-miterlimit="4" stroke="#2c2c2c" stroke-width="2"><g><path d="M 34 34.66L 34 31.66M 39 34.66L 31.68 34.66C 30.199877 34.66 29 35.859879 29 37.34C 28.991413 38.435104 29.659824 39.421803 30.68 39.82L 37.32 41.48C 38.530403 41.947182 39.232323 43.21431 38.986397 44.488224C 38.740467 45.762135 37.617325 46.676933 36.32 46.66L 29 46.66M 34 49.66L 34 46.66M 27 22.66L 41 22.66M 38 22.66C 38.500992 22.653595 38.919914 22.27742 38.98 21.779999C 39.412281 19.161526 40.227692 16.620956 41.400002 14.24C 41.597973 13.868419 41.542 13.412638 41.260002 13.1C 40.973953 12.778303 40.511467 12.680938 40.120003 12.860001L 35.919998 14.66L 34.940002 12C 34.78915 11.61832 34.42041 11.367559 34.010002 11.367559C 33.599594 11.367559 33.23085 11.61832 33.080002 12L 32 14.66L 27.82 12.86C 27.428532 12.680938 26.966045 12.778303 26.68 13.1C 26.397999 13.412638 26.342026 13.868419 26.540001 14.24C 27.712315 16.620956 28.527723 19.161526 28.960001 21.780001C 29.020082 22.27742 29.439005 22.653595 29.940001 22.66M 38 22.66C 38 22.66 52 33.66 52 43.279999C 52 53.279999 44 56.66 34 56.66C 24 56.66 16 53.220001 16 43.279999C 16 33.66 30 22.66 30 22.66"></path></g></g></g><g id="g-root-1_v3lvsl1q6vmyy-stroke" data-item-order="0" data-item-id="1_v3lvsl1q6vmyy" data-item-class="Icon Stroke SceneTarget Indexed Indexed_1 InsideFill InsideColorFill ColorStrokeBlack" data-item-index="1" data-renderer-id="0" transform="translate(278.186767578125, 50.9376220703125)"><g id="1_v3lvsl1q6vmyy-stroke" fill="none" stroke-linecap="round" stroke-linejoin="round" stroke-miterlimit="4" stroke="#2c2c2c" stroke-width="2"><g><path d="M 41.556 32L 53.556 32C 55.212856 32 56.556 30.656855 56.556 29C 56.556 27.343145 55.212856 26 53.556 26L 52.556 26C 52.556 23.790861 50.765141 22 48.556 22L 24.556 22C 23.285355 22.000988 22.076317 21.45262 21.240002 20.496L 16.153999 14.682C 15.774307 14.248641 15.226166 14.000082 14.65 14L 13.45 14C 12.792808 13.997616 12.176383 14.318252 11.801035 14.857716C 11.425686 15.397179 11.339319 16.086618 11.57 16.702L 13.558001 22C 12.11582 22.779423 11.316231 24.378601 11.558 26L 11.558 26.034C 11.558 28.860001 18.799999 32 24.368 32L 25.557999 32M 52.557999 26L 48.557999 26M 25.557999 32C 25.557999 33.104568 26.45343 34 27.558001 34L 39.557999 34C 40.662567 34 41.557999 33.104568 41.557999 32C 41.557789 30.987057 41.122688 30.022959 40.363243 29.352659C 39.603802 28.682362 38.593124 28.370386 37.587997 28.496L 27.542 29.752001C 26.40859 29.894156 25.558193 30.85771 25.558001 32ZM 22.557999 26L 22.557999 28M 44.557999 26L 44.557999 28M 48.557999 50.5C 48.558002 46.910152 45.647854 44 42.058002 44C 38.468151 44 35.557999 46.910152 35.557999 50.5M 48.557999 50C 50.767139 50 52.557999 51.790859 52.557999 54L 28.558001 54C 28.558001 50.686295 31.244291 48 34.557999 48C 35.034534 48.00296 35.502007 48.130516 35.914001 48.370003"></path></g></g></g><g id="g-root-netw_5vrqt1sf3m6j-stroke" data-item-order="0" data-item-id="netw_5vrqt1sf3m6j" data-item-class="Icon Stroke SceneTarget InsideFill InsideColorFill InsideBlackFill ColorStrokeBlack" data-item-index="0" data-renderer-id="0" transform="translate(194, 110.9969482421875)"><g id="netw_5vrqt1sf3m6j-stroke" fill="none" stroke-linecap="round" stroke-linejoin="round" stroke-miterlimit="4" stroke="#2c2c2c" stroke-width="2"><g><path d="M 11.608 45.993999C 11.608001 65.047829 27.054176 80.494003 46.108002 80.494003C 65.161827 80.494003 80.608002 65.047829 80.608002 45.993999C 80.608002 26.940178 65.161827 11.494 46.108002 11.494C 27.054176 11.494 11.608001 26.940178 11.608001 45.993999ZM 29.608 33.243999C 29.608002 36.971924 32.630077 39.993999 36.358002 39.993999C 40.085922 39.993999 43.108002 36.971924 43.108002 33.243999C 43.108002 29.516077 40.085922 26.493999 36.358002 26.493999C 32.630077 26.493999 29.608002 29.516077 29.608002 33.243999ZM 49.108002 63.243996C 49.108002 65.315071 50.786934 66.994003 52.858002 66.994003C 54.92907 66.994003 56.608002 65.315071 56.608002 63.244003C 56.608002 61.172932 54.92907 59.494003 52.858002 59.494003C 50.786934 59.494003 49.108002 61.172932 49.108002 63.244003ZM 61.107998 40.743999C 61.108002 43.643494 63.458504 45.993999 66.358002 45.993999C 69.257492 45.993999 71.608002 43.643494 71.608002 40.743999C 71.608002 37.844505 69.257492 35.493999 66.358002 35.493999C 63.458504 35.493999 61.108002 37.844505 61.108002 40.743999ZM 43.108002 32.5C 49.814377 32.755466 56.204361 35.417957 61.107998 40M 67.404999 45.891998L 68.604996 47.493999C 68.604996 47.493999 73.104996 53.493999 73.104996 66.993996M 60.576996 14.665L 61.107998 16C 63.279533 22.432775 64.295197 29.199165 64.108002 35.986M 62.607998 44.5C 62.232239 50.69566 59.999275 56.634548 56.199997 61.542999M 51.063999 66.538002L 50.608002 67C 50.608002 67 43.108002 74.5 26.608 74.5M 46.108002 11.5C 42.003769 15.889752 38.703506 20.967079 36.357998 26.499998M 32.854 39.015999L 32.607998 40C 30.97344 48.113449 32.026577 56.538551 35.608002 64C 40.708 74.218002 53.608002 79 53.608002 79L 54.727001 79.417M 29.608 33.243999C 29.608 33.243999 18.1 34.069 12.283 39.162998M 12.448 53.596001L 13.108 53.493999C 13.108 53.493999 33.750999 50.32 50.529999 60.304001"></path></g></g></g><g id="g-root-rate_1luamnp1ravg1y-stroke" data-item-order="0" data-item-id="rate_1luamnp1ravg1y" data-item-class="Icon Stroke SceneTarget Indexed InsideFill InsideColorFill ColorStrokeBlack" data-item-index="3" data-renderer-id="0" transform="translate(133.81320190429688, 195.0638427734375)"><g id="rate_1luamnp1ravg1y-stroke" fill="none" stroke-linecap="round" stroke-linejoin="round" stroke-miterlimit="4" stroke="#2c2c2c" stroke-width="2"><g><path d="M 11.988571 24.777143C 13.737143 16.342857 24.125713 10 34 21.211428C 48.091427 5.062857 63.142857 25.085714 52.925716 35.405712L 34 52.857143L 22.925714 42.57143M 11.714286 34L 20.285715 34L 25.428572 27.142857L 32.285713 39.142857L 37.428574 32.285713L 42.57143 32.285713"></path></g></g></g><g id="g-root-cont_4mbb5h1s4q0w5-stroke" data-item-order="0" data-item-id="cont_4mbb5h1s4q0w5" data-item-class="Icon Stroke SceneTarget Indexed InsideFill InsideColorFill ColorStrokeBlack" data-item-index="2" data-renderer-id="0" transform="translate(278.063232421875, 195.1876220703125)"><g id="cont_4mbb5h1s4q0w5-stroke" fill="none" stroke-linecap="round" stroke-linejoin="round" stroke-miterlimit="4" stroke="#2c2c2c" stroke-width="2"><g><path d="M 30 43.5L 32 43.5M 36 43.5L 38 43.5M 35 29.5L 33 29.5C 31.89543 29.5 31 30.39543 31 31.5L 31 33.5L 37 33.5L 37 31.5C 37 30.39543 36.104568 29.5 35 29.5ZM 34 29.5L 34 23.5C 34 20.186291 31.313709 17.5 28 17.5L 22 17.5M 21 36.5L 21 44.5M 25 40.5L 17 40.5M 47 36C 47.276142 36 47.5 36.223858 47.5 36.5M 46.5 36.5C 46.5 36.223858 46.723858 36 47 36M 47 37C 46.723858 37 46.5 36.776142 46.5 36.5M 47.5 36.5C 47.5 36.776142 47.276142 37 47 37M 43 40C 43.276142 40 43.5 40.223858 43.5 40.5M 42.5 40.5C 42.5 40.223858 42.723858 40 43 40M 43 41C 42.723858 41 42.5 40.776142 42.5 40.5M 43.5 40.5C 43.5 40.776142 43.276142 41 43 41M 47 44C 47.276142 44 47.5 44.223858 47.5 44.5M 46.5 44.5C 46.5 44.223858 46.723858 44 47 44M 47 45C 46.723858 45 46.5 44.776142 46.5 44.5M 47.5 44.5C 47.5 44.776142 47.276142 45 47 45M 51 40C 51.276142 40 51.5 40.223858 51.5 40.5M 50.5 40.5C 50.5 40.223858 50.723858 40 51 40M 51 41C 50.723858 41 50.5 40.776142 50.5 40.5M 51.5 40.5C 51.5 40.776142 51.276142 41 51 41M 57 40.5C 57.001953 36.566902 54.698204 32.99791 51.113224 31.380136C 47.528244 29.762367 43.327873 30.39629 40.380001 33C 40.015392 33.321556 39.546143 33.499298 39.059998 33.5L 28.940001 33.5C 28.453856 33.499298 27.984608 33.321556 27.620001 33C 23.599701 29.45443 17.498787 29.70945 13.788407 33.578163C 10.078027 37.44688 10.078027 43.55312 13.788407 47.421837C 17.498787 51.29055 23.599701 51.54557 27.620001 48C 27.984608 47.678444 28.453856 47.500698 28.940001 47.5L 39.059998 47.5C 39.546143 47.500698 40.015392 47.678444 40.379997 48C 43.327873 50.60371 47.528244 51.237633 51.113224 49.619865C 54.698204 48.002094 57.001953 44.433098 57 40.5Z"></path></g></g></g><g id="g-root-tx_healthca_1qcl2d11q79on8-stroke" data-item-order="0" data-item-id="tx_healthca_1qcl2d11q79on8" data-item-class="Label Stroke SceneTarget Indexed ColorStrokeBlack" data-item-index="3" data-renderer-id="0" transform="translate(2, 267.0008544921875)"></g><g id="g-root-tx_entertai_1hgy2451q79pfx-stroke" data-item-order="0" data-item-id="tx_entertai_1hgy2451q79pfx" data-item-class="Label Stroke SceneTarget Indexed ColorStrokeBlack" data-item-index="2" data-renderer-id="0" transform="translate(350, 267.0008544921875)"></g></g></g></svg>