<?xml version="1.0" encoding="utf-8" standalone="yes"?>
<!DOCTYPE svg PUBLIC "-//W3C//DTD SVG 1.1//EN" "http://www.w3.org/Graphics/SVG/1.1/DTD/svg11.dtd">
<svg width="564" height="292" viewBox="0 0 564 292" style="fill:none;stroke:none;fill-rule:evenodd;clip-rule:evenodd;stroke-linecap:round;stroke-linejoin:round;stroke-miterlimit:1.5;" version="1.1" xmlns="http://www.w3.org/2000/svg" xmlns:xlink="http://www.w3.org/1999/xlink"><style id="fontImports">@import url("https://fonts.googleapis.com/css2?family=Shantell+Sans:wght@300..800&amp;display=block");</style><rect id="" x="0" y="0" width="564" height="291.005" style="fill: #ffffff;"></rect><g id="items" style="isolation: isolate"><g id="blend" style="mix-blend-mode:multiply"><g id="g-root-5.cu_sy_m97kad1tt08av-fill" data-item-order="-31676" data-item-id="5.cu_sy_m97kad1tt08av" data-item-class="ScenePart Part Indexed Stroke ColorStrokeBlack" data-item-index="5" data-renderer-id="0" transform="translate(182, 154)"></g><g id="g-root-4.cu_sy_m97kad1tt08au-fill" data-item-order="-31675" data-item-id="4.cu_sy_m97kad1tt08au" data-item-class="ScenePart Part Indexed Fill Stroke ColorStrokeBlack" data-item-index="4" data-renderer-id="0" transform="translate(254, 165)"><g id="4.cu_sy_m97kad1tt08au-fill" stroke="none" fill="none"><g><path d="M 34.086 22C 34.086 28.627 28.695 34 22.043 34C 15.392 34 10 28.627 10 22C 10 15.373 15.392 10 22.043 10C 28.695 10 34.086 15.373 34.086 22ZM 28 22C 28 25.314 25.314 28 22 28C 18.686 28 16 25.314 16 22C 16 18.686 18.686 16 22 16C 25.314 16 28 18.686 28 22Z"></path></g></g></g><g id="g-root-3.cu_sy_qp12et1tt07il-fill" data-item-order="-31673" data-item-id="3.cu_sy_qp12et1tt07il" data-item-class="ScenePart Part Indexed Fill Stroke ColorStrokeBlack" data-item-index="3" data-renderer-id="0" transform="translate(218, 186.32598876953125)"><g id="3.cu_sy_qp12et1tt07il-fill" stroke="none" fill="none"><g><path d="M 22 78.674011L 94 78.674011C 94 78.674011 73.992 28.166011 65.959 10.058011C 63.725 11.952011 61.073 12.997011 58.043 12.997011C 54.986 12.997011 52.288 11.933011 50.072 10.000011C 42.047 28.114011 22 78.674011 22 78.674011ZM 18 78.679011C 13.582 78.679011 10 82.260011 10 86.679011L 10 88.679011C 10 89.783011 10.895 90.679011 12 90.679011L 104 90.679011C 105.105 90.679011 106 89.783011 106 88.679011L 106 86.679011C 106 82.260011 102.418 78.679011 98 78.679011L 18 78.679011Z"></path></g></g></g><g id="g-root-2.right-bucket_sy_qp12et1tt07ik-fill" data-item-order="-31671" data-item-id="2.right-bucket_sy_qp12et1tt07ik" data-item-class="ScenePart Part Indexed Fill Stroke ColorStrokeBlack" data-item-index="2" data-renderer-id="0" transform="translate(314, 135)"><g id="2.right-bucket_sy_qp12et1tt07ik-fill" stroke="none" fill="none"><g><path d="M 10 11.8C 10 10.806 10.806 10 11.8 10L 80.2 10C 81.194 10 82 10.806 82 11.8C 82 20.747 74.747 28 65.8 28L 26.2 28C 17.253 28 10 20.747 10 11.8Z"></path></g></g></g><g id="g-root-1.left-bucket_sy_qp12et1tt07ij-fill" data-item-order="-31669" data-item-id="1.left-bucket_sy_qp12et1tt07ij" data-item-class="ScenePart Part Indexed Indexed_1 Fill Stroke ColorStrokeBlack" data-item-index="1" data-renderer-id="0" transform="translate(146, 135)"><g id="1.left-bucket_sy_qp12et1tt07ij-fill" stroke="none" fill="none"><g><path d="M 10 11.8C 10 10.806 10.806 10 11.8 10L 80.2 10C 81.194 10 82 10.806 82 11.8C 82 20.747 74.747 28 65.8 28L 26.2 28C 17.253 28 10 20.747 10 11.8Z"></path></g></g></g><g id="g-root-tx_versatil_1q87khh1tt08w1-fill" data-item-order="0" data-item-id="tx_versatil_1q87khh1tt08w1" data-item-class="Label Stroke SceneTarget Indexed ColorStrokeBlack" data-item-index="2" data-renderer-id="0" transform="translate(26, 3)"><g id="tx_versatil_1q87khh1tt08w1-fill" stroke="none" fill="#484848"><g><text style="font: 20px &quot;Shantell Sans&quot;, cursive; white-space: pre;"><tspan x="43.67" y="35.33" dominant-baseline="ideographic">Versatile </tspan><tspan x="12.19" y="59.33" dominant-baseline="ideographic">applications</tspan></text></g></g></g><g id="g-root-1_dkfv5h1tsm5ty-fill" data-item-order="0" data-item-id="1_dkfv5h1tsm5ty" data-item-class="Icon Stroke SceneTarget Indexed ColorStrokeBlack" data-item-index="2" data-renderer-id="0" transform="translate(158, 3)"></g><g id="g-root-unli_1uuwdpx1tsm4u8-fill" data-item-order="0" data-item-id="unli_1uuwdpx1tsm4u8" data-item-class="Icon Stroke SceneTarget Indexed ColorStrokeBlack" data-item-index="5" data-renderer-id="0" transform="translate(326, 3)"></g><g id="g-root-tx_modecoll_1upwhv91tt0743-fill" data-item-order="0" data-item-id="tx_modecoll_1upwhv91tt0743" data-item-class="Label Stroke SceneTarget Indexed ColorStrokeBlack" data-item-index="5" data-renderer-id="0" transform="translate(386, 3)"><g id="tx_modecoll_1upwhv91tt0743-fill" stroke="none" fill="#484848"><g><text style="font: 20px &quot;Shantell Sans&quot;, cursive; white-space: pre;"><tspan x="12" y="35.33" dominant-baseline="ideographic">Mode collapse </tspan><tspan x="12" y="59.33" dominant-baseline="ideographic">issue</tspan></text></g></g></g><g id="g-root-tx_realisti_4ik0vp1tt07i8-fill" data-item-order="0" data-item-id="tx_realisti_4ik0vp1tt07i8" data-item-class="Label Stroke SceneTarget Indexed ColorStrokeBlack" data-item-index="3" data-renderer-id="0" transform="translate(2, 75)"><g id="tx_realisti_4ik0vp1tt07i8-fill" stroke="none" fill="#484848"><g><text style="font: 20px &quot;Shantell Sans&quot;, cursive; white-space: pre;"><tspan x="18.44" y="35.33" dominant-baseline="ideographic">Realistic data </tspan><tspan x="47.25" y="59.33" dominant-baseline="ideographic">generation</tspan></text></g></g></g><g id="g-root-2_i09d9x1tsm51p-fill" data-item-order="0" data-item-id="2_i09d9x1tsm51p" data-item-class="Icon Stroke SceneTarget Indexed ColorStrokeBlack" data-item-index="3" data-renderer-id="0" transform="translate(158, 75)"></g><g id="g-root-weig_4osuwl1tsm6mn-fill" data-item-order="0" data-item-id="weig_4osuwl1tsm6mn" data-item-class="Icon Stroke SceneTarget Indexed ColorStrokeBlack" data-item-index="6" data-renderer-id="0" transform="translate(326, 75)"></g><g id="g-root-tx_training_8zmh6d1tt08w2-fill" data-item-order="0" data-item-id="tx_training_8zmh6d1tt08w2" data-item-class="Label Stroke SceneTarget Indexed ColorStrokeBlack" data-item-index="6" data-renderer-id="0" transform="translate(386, 75)"><g id="tx_training_8zmh6d1tt08w2-fill" stroke="none" fill="#484848"><g><text style="font: 20px &quot;Shantell Sans&quot;, cursive; white-space: pre;"><tspan x="12" y="35.33" dominant-baseline="ideographic">Training </tspan><tspan x="12" y="59.33" dominant-baseline="ideographic">difficulty</tspan></text></g></g></g><g id="g-root-tx_advantag_1lu9hmd1tt07ws-fill" data-item-order="0" data-item-id="tx_advantag_1lu9hmd1tt07ws" data-item-class="Label Stroke SceneTarget Indexed ColorStrokeBlack" data-item-index="none" data-renderer-id="0" transform="translate(38, 231)"><g id="tx_advantag_1lu9hmd1tt07ws-fill" stroke="none" fill="#484848"><g><text style="font: 20px &quot;Shantell Sans&quot;, cursive; white-space: pre;"><tspan x="12.34" y="35.33" dominant-baseline="ideographic">Advantages</tspan></text></g></g></g><g id="g-root-tx_challeng_1hefzhx1tt08p1-fill" data-item-order="0" data-item-id="tx_challeng_1hefzhx1tt08p1" data-item-class="Label Stroke SceneTarget Indexed ColorStrokeBlack" data-item-index="none" data-renderer-id="0" transform="translate(374, 231)"><g id="tx_challeng_1hefzhx1tt08p1-fill" stroke="none" fill="#484848"><g><text style="font: 20px &quot;Shantell Sans&quot;, cursive; white-space: pre;"><tspan x="17.64" y="35.33" dominant-baseline="ideographic">Challenges</tspan></text></g></g></g><g id="g-root-5.cu_sy_m97kad1tt08av-stroke" data-item-order="-31676" data-item-id="5.cu_sy_m97kad1tt08av" data-item-class="ScenePart Part Indexed Stroke ColorStrokeBlack" data-item-index="5" data-renderer-id="0" transform="translate(182, 154)"><g id="5.cu_sy_m97kad1tt08av-stroke" fill="none" stroke-linecap="round" stroke-linejoin="round" stroke-miterlimit="4" stroke="#484848" stroke-width="4"><g><path d="M 178 10C 177.4 15 177.7 20 178 25C 178.3 29.4 174.4 32.7 170 33C 149 34.4 128 33.8 107 33M 10 10C 9.6 15 11 20.1 10 25C 9.1 29.4 13.7 32 18 33C 38.7 38 60.7 34.1 82 33"></path><path d="M 178 10L 178 24.978C 178 29.395 174.42 32.976 170.003 32.978L 107 33M 10 10L 10 25.025C 10 29.444 13.582 33.025 18 33.025L 82 33.025"></path></g></g></g><g id="g-root-4.cu_sy_m97kad1tt08au-stroke" data-item-order="-31675" data-item-id="4.cu_sy_m97kad1tt08au" data-item-class="ScenePart Part Indexed Fill Stroke ColorStrokeBlack" data-item-index="4" data-renderer-id="0" transform="translate(254, 165)"><g id="4.cu_sy_m97kad1tt08au-stroke" fill="none" stroke-linecap="round" stroke-linejoin="round" stroke-miterlimit="4" stroke="#484848" stroke-width="4"><g><path d="M 34.1 22C 35.4 28.5 28.7 33.7 22 34C 15.4 34.3 10.3 28.6 10 22C 9.7 15.4 15.6 11.5 22 10C 28.5 8.5 34.6 15.4 34.1 22M 28 22C 29.2 25.1 25.1 26.8 22 28C 18.9 29.2 16.7 25.2 16 22C 15.3 18.8 18.7 16.4 22 16C 25.3 15.6 27.1 18.8 28 22"></path><path d="M 34.086 22C 34.086 28.627 28.695 34 22.043 34C 15.392 34 10 28.627 10 22C 10 15.373 15.392 10 22.043 10C 28.695 10 34.086 15.373 34.086 22ZM 28 22C 28 25.314 25.314 28 22 28C 18.686 28 16 25.314 16 22C 16 18.686 18.686 16 22 16C 25.314 16 28 18.686 28 22Z"></path></g></g></g><g id="g-root-3.cu_sy_qp12et1tt07il-stroke" data-item-order="-31673" data-item-id="3.cu_sy_qp12et1tt07il" data-item-class="ScenePart Part Indexed Fill Stroke ColorStrokeBlack" data-item-index="3" data-renderer-id="0" transform="translate(218, 186.32598876953125)"><g id="3.cu_sy_qp12et1tt07il-stroke" fill="none" stroke-linecap="round" stroke-linejoin="round" stroke-miterlimit="4" stroke="#484848" stroke-width="4"><g><path d="M 22 78.674011C 46 78.174011 70 80.074011 94 78.674011C 94 78.674011 89.1 63.974011 81.8 48.174011C 75.3 34.374011 69.9 18.374011 66 10.074011C 64 12.274011 61 12.374011 58 12.974011C 55.1 13.674011 52 12.174011 50.1 9.974011C 47.8 18.874011 40 33.774011 34.4 47.874011C 27.8 64.174011 22 78.674011 22 78.674011M 18 78.674011C 13.6 78.774011 10.2 82.274011 10 86.674011C 10 87.374011 10.1 87.974011 10 88.674011C 9.9 89.774011 10.9 90.674011 12 90.674011C 26.8 90.974011 41.6 90.174011 56.4 90.674011C 72.3 91.174011 88.2 92.074011 104 90.674011C 105.1 90.574011 106.2 89.774011 106 88.674011C 105.9 87.974011 105.8 87.274011 106 86.674011C 107.7 82.574011 102.4 79.274011 98 78.674011C 71.6 75.174011 44.7 79.174011 18 78.674011"></path><path d="M 22 78.674011L 94 78.674011C 94 78.674011 73.992 28.166011 65.959 10.058011C 63.725 11.952011 61.073 12.997011 58.043 12.997011C 54.986 12.997011 52.288 11.933011 50.072 10.000011C 42.047 28.114011 22 78.674011 22 78.674011ZM 18 78.679011C 13.582 78.679011 10 82.260011 10 86.679011L 10 88.679011C 10 89.783011 10.895 90.679011 12 90.679011L 104 90.679011C 105.105 90.679011 106 89.783011 106 88.679011L 106 86.679011C 106 82.260011 102.418 78.679011 98 78.679011L 18 78.679011Z"></path></g></g><g id="3.cu_sy_qp12et1tt07il-stroke" fill="none" stroke-linecap="round" stroke-linejoin="round" stroke-miterlimit="4" stroke="#484848" stroke-width="4"><g><path d="M 58 58.674011C 57 60.274011 55 61.074011 54 62.674011C 54.2 65.674011 53.6 68.774011 54 71.774011C 55.1 70.874011 56.6 71.074011 58 70.674011C 59.4 70.274011 60.9 70.974011 62 71.774011C 61 68.874011 62 65.674011 62 62.674011C 60.8 61.174011 59.2 60.174011 58 58.674011M 62 71.774011C 60.9 70.974011 59.5 70.574011 58 70.674011C 56.5 70.774011 55.2 71.074011 54 71.774011C 51.6 73.074011 50.1 75.674011 50 78.674011C 55.3 78.274011 60.7 79.474011 66 78.674011C 66.4 75.774011 63.7 73.874011 62 71.774011M 58 49.674011C 57.9 51.574011 58.5 53.574011 58 55.474011M 78.5 58.174011C 77.5 59.774011 75.9 61.074011 74.4 62.274011M 37.5 58.174011C 39.1 59.174011 40.6 60.674011 41.6 62.274011M 64.7 53.474011C 64.5 54.374011 64 55.274011 64 56.274011M 44.9 56.074011C 45.6 56.774011 46.2 57.674011 46.4 58.574011M 71 56.074011C 70.6 56.874011 70.1 57.774011 69.6 58.574011M 51.2 53.474011C 51.8 54.274011 51.5 55.374011 52 56.274011"></path><path d="M 58 58.679011L 54 62.679011L 54 71.749011C 55.177 71.068011 56.543 70.679011 58 70.679011C 59.457 70.679011 60.823 71.068011 62 71.749011L 62 62.679011L 58 58.679011ZM 62 71.749011C 60.823 71.068011 59.457 70.679011 58 70.679011C 56.543 70.679011 55.177 71.068011 54 71.749011C 51.609 73.132011 50 75.718011 50 78.679011L 66 78.679011C 66 75.718011 64.391 73.132011 62 71.749011ZM 58 49.679011L 58 55.479011M 78.503 58.176011L 74.404 62.274011M 37.497 58.176011L 41.596 62.274011M 64.747 53.468011L 64.003 56.262011M 44.94 56.078011L 46.4 58.591011M 71.031 56.068011L 69.59 58.572011M 51.224 53.478011L 51.978 56.271011"></path></g></g></g><g id="g-root-2.right-bucket_sy_qp12et1tt07ik-stroke" data-item-order="-31671" data-item-id="2.right-bucket_sy_qp12et1tt07ik" data-item-class="ScenePart Part Indexed Fill Stroke ColorStrokeBlack" data-item-index="2" data-renderer-id="0" transform="translate(314, 135)"><g id="2.right-bucket_sy_qp12et1tt07ik-stroke" fill="none" stroke-linecap="round" stroke-linejoin="round" stroke-miterlimit="4" stroke="#484848" stroke-width="4"><g><path d="M 10 11.8C 10 10.8 10.9 9.6 11.8 10C 32.9 18.7 57.4 10.7 80.2 10C 81.2 10 81.8 10.8 82 11.8C 83.4 20.6 74.7 27.6 65.8 28C 52.6 28.6 39.4 26.9 26.2 28C 17.3 28.7 9.2 20.7 10 11.8"></path><path d="M 10 11.8C 10 10.806 10.806 10 11.8 10L 80.2 10C 81.194 10 82 10.806 82 11.8C 82 20.747 74.747 28 65.8 28L 26.2 28C 17.253 28 10 20.747 10 11.8Z"></path></g></g></g><g id="g-root-1.left-bucket_sy_qp12et1tt07ij-stroke" data-item-order="-31669" data-item-id="1.left-bucket_sy_qp12et1tt07ij" data-item-class="ScenePart Part Indexed Indexed_1 Fill Stroke ColorStrokeBlack" data-item-index="1" data-renderer-id="0" transform="translate(146, 135)"><g id="1.left-bucket_sy_qp12et1tt07ij-stroke" fill="none" stroke-linecap="round" stroke-linejoin="round" stroke-miterlimit="4" stroke="#484848" stroke-width="4"><g><path d="M 10 11.8C 10 10.8 10.8 9.9 11.8 10C 34.4 13 57.4 9.4 80.2 10C 81.2 10 81.7 10.8 82 11.8C 84.3 20.4 74.7 27.2 65.8 28C 52.7 29.2 39.3 29.7 26.2 28C 17.3 26.8 10.4 20.7 10 11.8"></path><path d="M 10 11.8C 10 10.806 10.806 10 11.8 10L 80.2 10C 81.194 10 82 10.806 82 11.8C 82 20.747 74.747 28 65.8 28L 26.2 28C 17.253 28 10 20.747 10 11.8Z"></path></g></g></g><g id="g-root-tx_versatil_1q87khh1tt08w1-stroke" data-item-order="0" data-item-id="tx_versatil_1q87khh1tt08w1" data-item-class="Label Stroke SceneTarget Indexed ColorStrokeBlack" data-item-index="2" data-renderer-id="0" transform="translate(26, 3)"></g><g id="g-root-1_dkfv5h1tsm5ty-stroke" data-item-order="0" data-item-id="1_dkfv5h1tsm5ty" data-item-class="Icon Stroke SceneTarget Indexed ColorStrokeBlack" data-item-index="2" data-renderer-id="0" transform="translate(158, 3)"><g id="1_dkfv5h1tsm5ty-stroke" fill="none" stroke-linecap="round" stroke-linejoin="round" stroke-miterlimit="4" stroke="#484848" stroke-width="2"><g><path d="M 11 22C 26.200001 24.200001 41.799999 24 57 22C 59.799999 32.400002 58 43.400002 57 54C 42 50.400002 26.4 54.200001 11 54C 9.6 43.400002 10 32.599998 11 22M 27 22C 27.200001 20.6 26.799999 19.4 27 18C 27.200001 15.8 28.799999 14 31 14C 33 14 35 14.2 37 14C 39.200001 13.8 41.400002 15.8 41 18C 40.799999 19.4 40.599998 20.799999 41 22M 43.599998 38.799999C 43.400002 38.599998 43.200001 38.400002 43.200001 38C 43.200001 37.799999 43.200001 37.400002 43.599998 37.200001C 44 37 44.400002 36.799999 44.799999 36.200001C 44.799999 36 45.200001 36 45.400002 36C 46.200001 36.200001 47.200001 35.799999 48 36C 48.400002 36.200001 48.799999 35.799999 48.799999 35.400002C 48.799999 35 49 34.599998 48.799999 34.400002C 47.400002 32.799999 45 31 43 32C 41.200001 33.200001 39.200001 34 38.400002 36C 35.599998 36.799999 32.400002 36.799999 29.6 36C 28.4 33.799999 26.4 32.599998 24 32C 22.200001 32.200001 20.799999 33.200001 19.4 34.400002C 19 34.599998 19.200001 35 19.200001 35.400002C 19.4 35.799999 19.799999 36 20.200001 36C 21 36.200001 21.799999 36.200001 22.6 36C 22.799999 36 23 36.200001 23.200001 36.200001C 23.799999 36.400002 24 37 24.4 37.200001C 24.799999 37.400002 24.799999 37.799999 24.799999 38C 25 38.400002 24.6 38.599998 24.4 38.799999C 24 39.200001 23.799999 39.599998 23.200001 39.799999C 23 39.799999 22.799999 40 22.6 40C 21.799999 40.200001 21 40 20.200001 40C 19.799999 40 19.4 40.200001 19.200001 40.599998C 19.200001 41 19.200001 41.400002 19.4 41.599998C 20.4 43 22.200001 44 24 44C 26.6 44.200001 29 42.400002 29.6 40C 32.599998 40.400002 35.599998 40.799999 38.400002 40C 39.400002 42 40.799999 43.599998 43 44C 45.200001 44.200001 47.599998 43.599998 48.799999 41.599998C 49 41.200001 49 40.799999 48.799999 40.599998C 48.599998 40.200001 48.400002 40 48 40C 47.200001 39.799999 46.200001 39.799999 45.400002 40C 45.200001 40 45 39.799999 44.799999 39.799999C 44.200001 39.599998 44 39 43.599998 38.799999"></path><path d="M 11 22L 57 22L 57 54L 11 54ZM 27 22L 27 18C 27.005497 15.793142 28.793144 14.005497 31.000002 14L 37 14C 39.206863 14.005497 40.994507 15.793142 41 18L 41 22M 43.532001 38.816002C 43.300446 38.629601 43.163818 38.349854 43.15918 38.052631C 43.154541 37.755409 43.282375 37.471531 43.507999 37.278L 44.720001 36.239998C 44.901142 36.085094 45.131657 35.999981 45.369999 36L 47.970001 36C 48.348774 36 48.695034 35.785995 48.864426 35.447212C 49.033821 35.108429 48.997265 34.703018 48.77 34.400002C 47.451324 32.635391 45.266827 31.742062 43.089546 32.077026C 40.912262 32.411995 39.097298 33.920628 38.370003 36L 29.632 36C 28.792999 33.607147 26.535677 32.003937 24 32C 22.18049 32.063396 20.482365 32.928932 19.362 34.363998C 19.11581 34.662712 19.064129 35.076683 19.229321 35.426758C 19.394516 35.776829 19.746908 36.000122 20.133999 36L 22.630001 36C 22.868343 35.999981 23.098858 36.085094 23.279999 36.239998L 24.492001 37.278C 24.717627 37.471531 24.845459 37.755409 24.84082 38.052631C 24.836182 38.349854 24.699554 38.629601 24.468 38.816002L 23.268 39.778C 23.092327 39.91988 22.873804 39.998123 22.647999 40L 20.133999 40C 19.746908 39.999878 19.394516 40.223171 19.229321 40.573242C 19.064129 40.923317 19.11581 41.337288 19.362 41.636002C 20.482365 43.071068 22.18049 43.936607 24 44C 26.535677 43.996067 28.792999 42.392857 29.632002 40L 38.368 40C 39.094185 42.08041 40.909317 43.590145 43.0872 43.925205C 45.265083 44.260265 47.450069 43.365929 48.768002 41.599998C 48.995262 41.296982 49.031818 40.891571 48.862427 40.552788C 48.693035 40.214005 48.346771 40 47.967999 40L 45.352001 40C 45.124134 39.999481 44.903278 39.921162 44.726002 39.778Z"></path></g></g></g><g id="g-root-unli_1uuwdpx1tsm4u8-stroke" data-item-order="0" data-item-id="unli_1uuwdpx1tsm4u8" data-item-class="Icon Stroke SceneTarget Indexed ColorStrokeBlack" data-item-index="5" data-renderer-id="0" transform="translate(326, 3)"><g id="unli_1uuwdpx1tsm4u8-stroke" fill="none" stroke-linecap="round" stroke-linejoin="round" stroke-miterlimit="4" stroke="#484848" stroke-width="2"><g><path d="M 39.142857 43.257141C 40.857143 40.514286 43.600002 38.114285 46 36.399998C 49.085712 34.342857 51.485718 31.942858 53.542858 29.200001C 56.285713 24.4 58.685715 16.857143 53.542858 14.457143C 48.400002 12.4 42.914288 10.685715 38.799999 14.457143C 37.085716 16.171429 35.028572 17.542858 34 19.6C 32.628571 21.657143 30.914286 23.371429 28.857143 24.742859M 22 31.6C 19.942858 34 17.542858 36.742859 14.8 38.799999C 10.342857 42.228569 12.057143 48.400002 14.8 53.200001C 17.542858 58.342857 24.742859 56.971428 29.200001 53.200001C 30.571428 52.171429 31.6 50.799999 32.628571 49.771431M 24.4 17.199999C 27.485714 29.542856 34.342857 41.885715 43.600002 51.142857"></path><path d="M 39.279999 43.257141L 46.137142 36.399998L 53.405716 29.131428C 57.416504 25.115646 57.416504 18.610069 53.405716 14.594286L 53.405716 14.594286C 49.389935 10.583496 42.884357 10.583496 38.868572 14.594286L 34 19.462856L 28.720001 24.742859M 22 31.462858L 14.731428 38.73143C 10.720639 42.747215 10.720639 49.252792 14.731428 53.268574L 14.731428 53.26857C 18.747211 57.279362 25.252789 57.279362 29.268574 53.268574L 32.697144 49.84M 24.297144 17.028572L 43.702858 50.971428"></path></g></g></g><g id="g-root-tx_modecoll_1upwhv91tt0743-stroke" data-item-order="0" data-item-id="tx_modecoll_1upwhv91tt0743" data-item-class="Label Stroke SceneTarget Indexed ColorStrokeBlack" data-item-index="5" data-renderer-id="0" transform="translate(386, 3)"></g><g id="g-root-tx_realisti_4ik0vp1tt07i8-stroke" data-item-order="0" data-item-id="tx_realisti_4ik0vp1tt07i8" data-item-class="Label Stroke SceneTarget Indexed ColorStrokeBlack" data-item-index="3" data-renderer-id="0" transform="translate(2, 75)"></g><g id="g-root-2_i09d9x1tsm51p-stroke" data-item-order="0" data-item-id="2_i09d9x1tsm51p" data-item-class="Icon Stroke SceneTarget Indexed ColorStrokeBlack" data-item-index="3" data-renderer-id="0" transform="translate(158, 75)"><g id="2_i09d9x1tsm51p-stroke" fill="none" stroke-linecap="round" stroke-linejoin="round" stroke-miterlimit="4" stroke="#484848" stroke-width="2"><g><path d="M 48 31C 48.200001 38.200001 45.400002 44.400002 34 41C 22.6 37.599998 20 38.200001 20 31C 19.799999 23.799999 25.4 12.2 34 11C 42.599998 9.8 48.400002 23.799999 48 31M 29.4 40.799999C 30.200001 45.200001 29.200001 49.599998 28.6 54C 28.6 54 28.6 56 34 57C 39.400002 58 39.400002 54 39.400002 54C 39.200001 49.599998 40.400002 44.799999 38.599998 40.799999M 26.6 29C 25.6 25.4 28.4 22 30.4 19M 34 41C 34.400002 43.400002 34 48.400002 34 48.400002"></path><path d="M 48.096001 31C 48.096001 38.18 45.925999 41 34 41C 22.074001 41 19.903999 38.18 19.903999 31C 19.903999 23.82 25.326 11 34 11C 42.674 11 48.096001 23.82 48.096001 31ZM 29.42 40.818001L 28.577999 54C 28.577999 54 28.577999 57 34 57C 39.422001 57 39.422001 54 39.422001 54L 38.580002 40.818001M 26.5 29C 26.71183 25.320694 28.115942 21.810415 30.5 19M 34 41C 34.166 43.358002 34 48.324001 34 48.324001"></path></g></g></g><g id="g-root-weig_4osuwl1tsm6mn-stroke" data-item-order="0" data-item-id="weig_4osuwl1tsm6mn" data-item-class="Icon Stroke SceneTarget Indexed ColorStrokeBlack" data-item-index="6" data-renderer-id="0" transform="translate(326, 75)"><g id="weig_4osuwl1tsm6mn-stroke" fill="none" stroke-linecap="round" stroke-linejoin="round" stroke-miterlimit="4" stroke="#484848" stroke-width="2"><g><path d="M 11 57C 11.2 48 12.2 39 11 30M 57 57C 58 48 55.799999 39 57 30M 30 15C 30.200001 17.200001 32 18.200001 34 19C 36 19.799999 38.400002 17.200001 38 15C 37.599998 12.8 36.200001 11 34 11C 31.799999 11 30.6 12.8 30 15M 39 29C 38.200001 31.200001 38.799999 33.599998 39 36C 39 37.200001 40 38.200001 41 38C 42 37.799999 42.799999 37.200001 43 36C 43.200001 33.599998 42.200001 31.200001 43 29C 44.200001 25.799999 40.200001 22 37 23C 35 23.6 33 23.200001 31 23C 27.6 22.799999 24.6 25.799999 25 29C 25.4 31.4 25 33.599998 25 36C 25 37.200001 25.799999 38.200001 27 38C 28 37.799999 28.6 37 29 36C 29.6 33.799999 29.4 31.200001 29 29M 29 41C 29.4 44.799999 28.4 48.799999 29 52.599998C 29.200001 53.200001 29.200001 53.799999 29.799999 54.200001C 30.200001 54.799999 30.799999 54.799999 31.4 55C 32.799999 55.400002 33.599998 53.799999 34 52.400002C 34.400002 53.799999 35.200001 54.799999 36.599998 55C 37.799999 55.200001 38.599998 53.799999 39 52.599998C 40.400002 49 37.799999 44.599998 39 41M 34 51C 33.799999 49 34.599998 47 34 45M 57 37C 52.200001 37 47.200001 38.599998 42.799999 37M 25.200001 37C 20.6 37.599998 15.6 38 11 37M 39.200001 37C 35.799999 36.799999 32 38.200001 28.799999 37"></path><path d="M 11 57L 11 30M 57 57L 57 30M 30 15C 30 17.209139 31.790861 19 34 19C 36.209137 19 38 17.209139 38 15C 38 12.790861 36.209137 11 34 11C 31.790861 11 30 12.790861 30 15ZM 39 29L 39 36C 39 37.104568 39.895432 38 41 38C 42.104568 38 43 37.104568 43 36L 43 29C 43 25.686291 40.313709 23 37 23L 31 23C 27.686293 23 25 25.686291 25 29L 25 36C 25 37.104568 25.895432 38 27 38C 28.10457 38 29 37.104568 29 36L 29 29M 29 41L 29 52.554001C 28.999468 53.202881 29.257 53.82534 29.71583 54.284168C 30.17466 54.742996 30.797117 55.00053 31.445999 55C 32.856857 54.998898 34 53.854858 34 52.444L 34 52.5C 34 53.880711 35.119289 55 36.5 55C 37.880714 55 39 53.880711 39 52.5L 39 41M 34 51L 34 45M 57 37L 42.731998 37M 25.268 37L 11 37M 39.265999 37L 28.732 37"></path></g></g></g><g id="g-root-tx_training_8zmh6d1tt08w2-stroke" data-item-order="0" data-item-id="tx_training_8zmh6d1tt08w2" data-item-class="Label Stroke SceneTarget Indexed ColorStrokeBlack" data-item-index="6" data-renderer-id="0" transform="translate(386, 75)"></g><g id="g-root-tx_advantag_1lu9hmd1tt07ws-stroke" data-item-order="0" data-item-id="tx_advantag_1lu9hmd1tt07ws" data-item-class="Label Stroke SceneTarget Indexed ColorStrokeBlack" data-item-index="none" data-renderer-id="0" transform="translate(38, 231)"></g><g id="g-root-tx_challeng_1hefzhx1tt08p1-stroke" data-item-order="0" data-item-id="tx_challeng_1hefzhx1tt08p1" data-item-class="Label Stroke SceneTarget Indexed ColorStrokeBlack" data-item-index="none" data-renderer-id="0" transform="translate(374, 231)"></g></g></g></svg>