<?xml version="1.0" encoding="utf-8" standalone="yes"?>
<!DOCTYPE svg PUBLIC "-//W3C//DTD SVG 1.1//EN" "http://www.w3.org/Graphics/SVG/1.1/DTD/svg11.dtd">
<svg width="600" height="578" viewBox="0 0 600 578" style="fill:none;stroke:none;fill-rule:evenodd;clip-rule:evenodd;stroke-linecap:round;stroke-linejoin:round;stroke-miterlimit:1.5;" version="1.1" xmlns="http://www.w3.org/2000/svg" xmlns:xlink="http://www.w3.org/1999/xlink"><style id="fontImports">@import url("https://fonts.googleapis.com/css2?family=Roboto:wght@400;700&amp;display=block");</style><rect id="" x="0" y="0" width="600" height="578" style="fill: #ffffff;"></rect><g id="items" style="isolation: isolate"><g id="blend" style="mix-blend-mode:multiply"><g id="g-root-ro_1hf3ihv1qr3a4o-fill" data-item-order="-19680" data-item-id="ro_1hf3ihv1qr3a4o" data-item-class="Shape Stroke Fill" data-item-index="none" data-renderer-id="0" transform="translate(219, 3)"><g id="ro_1hf3ihv1qr3a4o-fill" stroke="none" fill="#ffe7e6"><g><path d="M 13 13L 212 13L 212 103L 13 103L 13 13"></path></g></g></g><g id="g-root-ro_vb4ggz1qqqn0j-fill" data-item-order="-18432" data-item-id="ro_vb4ggz1qqqn0j" data-item-class="Shape Stroke Fill" data-item-index="none" data-renderer-id="0" transform="translate(179, 307)"><g id="ro_vb4ggz1qqqn0j-fill" stroke="none" fill="#e6f9ff"><g><path d="M 22 10L 190 10C 190 10 202 10 202 22L 202 94C 202 94 202 106 190 106L 22 106C 22 106 10 106 10 94L 10 22C 10 22 10 10 22 10"></path></g></g></g><g id="g-root-ro_13ynalf1qqp7gl-fill" data-item-order="-18432" data-item-id="ro_13ynalf1qqp7gl" data-item-class="Shape Stroke Fill" data-item-index="none" data-renderer-id="0" transform="translate(385, 155)"><g id="ro_13ynalf1qqp7gl-fill" stroke="none" fill="#e6f9ff"><g><path d="M 22 10L 190 10C 190 10 202 10 202 22L 202 94C 202 94 202 106 190 106L 22 106C 22 106 10 106 10 94L 10 22C 10 22 10 10 22 10"></path></g></g></g><g id="g-root-ro_4otwtf1qqutjg-fill" data-item-order="-17280" data-item-id="ro_4otwtf1qqutjg" data-item-class="Shape Stroke Fill" data-item-index="none" data-renderer-id="0" transform="translate(391, 459)"><g id="ro_4otwtf1qqutjg-fill" stroke="none" fill="#e6f9ff"><g><path d="M 22 10L 178 10C 178 10 190 10 190 22L 190 94C 190 94 190 106 178 106L 22 106C 22 106 10 106 10 94L 10 22C 10 22 10 10 22 10"></path></g></g></g><g id="g-root-ro_zly5wj1qqtfyg-fill" data-item-order="-17280" data-item-id="ro_zly5wj1qqtfyg" data-item-class="Shape Stroke Fill" data-item-index="none" data-renderer-id="0" transform="translate(391, 307)"><g id="ro_zly5wj1qqtfyg-fill" stroke="none" fill="#e6f9ff"><g><path d="M 22 10L 178 10C 178 10 190 10 190 22L 190 94C 190 94 190 106 178 106L 22 106C 22 106 10 106 10 94L 10 22C 10 22 10 10 22 10"></path></g></g></g><g id="g-root-ro_hs65wj1qr7i17-fill" data-item-order="-17280" data-item-id="ro_hs65wj1qr7i17" data-item-class="Shape Stroke Fill" data-item-index="none" data-renderer-id="0" transform="translate(79, 155)"><g id="ro_hs65wj1qr7i17-fill" stroke="none" fill="#e6f9ff"><g><path d="M 22 10L 178 10C 178 10 190 10 190 22L 190 94C 190 94 190 106 178 106L 22 106C 22 106 10 106 10 94L 10 22C 10 22 10 10 22 10"></path></g></g></g><g id="g-root-ro_13zw8rn1qquubq-fill" data-item-order="-14976" data-item-id="ro_13zw8rn1qquubq" data-item-class="Shape Stroke Fill" data-item-index="none" data-renderer-id="0" transform="translate(91, 459)"><g id="ro_13zw8rn1qquubq-fill" stroke="none" fill="#e6f9ff"><g><path d="M 22 10L 154 10C 154 10 166 10 166 22L 166 94C 166 94 166 106 154 106L 22 106C 22 106 10 106 10 94L 10 22C 10 22 10 10 22 10"></path></g></g></g><g id="g-root-ro_1lxf04j1qqp8uh-fill" data-item-order="-14976" data-item-id="ro_1lxf04j1qqp8uh" data-item-class="Shape Stroke Fill" data-item-index="none" data-renderer-id="0" transform="translate(3, 307)"><g id="ro_1lxf04j1qqp8uh-fill" stroke="none" fill="#e6f9ff"><g><path d="M 22 10L 154 10C 154 10 166 10 166 22L 166 94C 166 94 166 106 154 106L 22 106C 22 106 10 106 10 94L 10 22C 10 22 10 10 22 10"></path></g></g></g><g id="g-root-tx_transfor_1lzac831qraarv-fill" data-item-order="0" data-item-id="tx_transfor_1lzac831qraarv" data-item-class="Label Stroke" data-item-index="none" data-renderer-id="0" transform="translate(433, 167)"><g id="tx_transfor_1lzac831qraarv-fill" stroke="none" fill="#17b0e3"><g><text style="font: 20px Roboto, sans-serif; white-space: pre;"><tspan x="12" y="33.75" dominant-baseline="ideographic">Transformer-</tspan><tspan x="12" y="57.75" dominant-baseline="ideographic">based </tspan><tspan x="12" y="81.75" dominant-baseline="ideographic">Architectures</tspan></text></g></g></g><g id="g-root-codi_v3mo9v1qr7gga-fill" data-item-order="0" data-item-id="codi_v3mo9v1qr7gga" data-item-class="Icon Stroke" data-item-index="none" data-renderer-id="0" transform="translate(91, 188)"></g><g id="g-root-1_13ynalf1qqp7gk-fill" data-item-order="0" data-item-id="1_13ynalf1qqp7gk" data-item-class="Icon Stroke" data-item-index="none" data-renderer-id="0" transform="translate(397, 188)"></g><g id="g-root-tx_naturalt_hzny3n1qquv4a-fill" data-item-order="0" data-item-id="tx_naturalt_hzny3n1qquv4a" data-item-class="Label Stroke" data-item-index="none" data-renderer-id="0" transform="translate(439, 483)"><g id="tx_naturalt_hzny3n1qquv4a-fill" stroke="none" fill="#17b0e3"><g><text style="font: 20px Roboto, sans-serif; white-space: pre;"><tspan x="12" y="33.75" dominant-baseline="ideographic">Natural Text </tspan><tspan x="12" y="57.75" dominant-baseline="ideographic">Generation</tspan></text></g></g></g><g id="g-root-1_1lux0mb1qr39cf-fill" data-item-order="0" data-item-id="1_1lux0mb1qr39cf" data-item-class="Icon Stroke" data-item-index="none" data-renderer-id="0" transform="translate(241.57144165039062, 36)"></g><g id="g-root-tx_generati_18egpk31qr7i15-fill" data-item-order="0" data-item-id="tx_generati_18egpk31qr7i15" data-item-class="Label Stroke" data-item-index="none" data-renderer-id="0" transform="translate(127, 167)"><g id="tx_generati_18egpk31qr7i15-fill" stroke="none" fill="#17b0e3"><g><text style="font: 20px Roboto, sans-serif; white-space: pre;"><tspan x="12" y="33.75" dominant-baseline="ideographic">Generative </tspan><tspan x="12" y="57.75" dominant-baseline="ideographic">Adversarial </tspan><tspan x="12" y="81.75" dominant-baseline="ideographic">Networks</tspan></text></g></g></g><g id="g-root-tx_selfatte_1cxeo9v1qqtedi-fill" data-item-order="0" data-item-id="tx_selfatte_1cxeo9v1qqtedi" data-item-class="Label Stroke" data-item-index="none" data-renderer-id="0" transform="translate(439, 319)"><g id="tx_selfatte_1cxeo9v1qqtedi-fill" stroke="none" fill="#17b0e3"><g><text style="font: 20px Roboto, sans-serif; white-space: pre;"><tspan x="12" y="33.75" dominant-baseline="ideographic">Self-</tspan><tspan x="12" y="57.75" dominant-baseline="ideographic">Attention </tspan><tspan x="12" y="81.75" dominant-baseline="ideographic">Mechanisms</tspan></text></g></g></g><g id="g-root-user_7rgir1qqp7go-fill" data-item-order="0" data-item-id="user_7rgir1qqp7go" data-item-class="Icon Stroke" data-item-index="none" data-renderer-id="0" transform="translate(15, 340)"></g><g id="g-root-tx_generato_dilhsz1qqp91j-fill" data-item-order="0" data-item-id="tx_generato_dilhsz1qqp91j" data-item-class="Label Stroke" data-item-index="none" data-renderer-id="0" transform="translate(51, 343)"><g id="tx_generato_dilhsz1qqp91j-fill" stroke="none" fill="#17b0e3"><g><text style="font: 20px Roboto, sans-serif; white-space: pre;"><tspan x="12" y="33.75" dominant-baseline="ideographic">Generator</tspan></text></g></g></g><g id="g-root-chip_18mkyub1qqqlfm-fill" data-item-order="0" data-item-id="chip_18mkyub1qqqlfm" data-item-class="Icon Stroke" data-item-index="none" data-renderer-id="0" transform="translate(191, 340)"></g><g id="g-root-tx_discrimi_1qd8i8z1qqqm89-fill" data-item-order="0" data-item-id="tx_discrimi_1qd8i8z1qqqm89" data-item-class="Label Stroke" data-item-index="none" data-renderer-id="0" transform="translate(227, 343)"><g id="tx_discrimi_1qd8i8z1qqqm89-fill" stroke="none" fill="#17b0e3"><g><text style="font: 20px Roboto, sans-serif; white-space: pre;"><tspan x="12" y="33.75" dominant-baseline="ideographic">Discriminator</tspan></text></g></g></g><g id="g-root-neur_141ro0z1qqtf67-fill" data-item-order="0" data-item-id="neur_141ro0z1qqtf67" data-item-class="Icon Stroke" data-item-index="none" data-renderer-id="0" transform="translate(403, 340)"></g><g id="g-root-titl_1lqjs6b1qquv4d-fill" data-item-order="0" data-item-id="titl_1lqjs6b1qquv4d" data-item-class="Icon Stroke" data-item-index="none" data-renderer-id="0" transform="translate(103, 492)"></g><g id="g-root-text_djufz71qquvwj-fill" data-item-order="0" data-item-id="text_djufz71qquvwj" data-item-class="Icon Stroke" data-item-index="none" data-renderer-id="0" transform="translate(403, 492)"></g><g id="g-root-tx_generati_4mzxf1qr3b4e-fill" data-item-order="0" data-item-id="tx_generati_4mzxf1qr3b4e" data-item-class="Label Stroke" data-item-index="none" data-renderer-id="0" transform="translate(277.5714416503906, 15)"><g id="tx_generati_4mzxf1qr3b4e-fill" stroke="none" fill="#e15e5a"><g><text style="font: bold 20px Roboto, sans-serif; white-space: pre;"><tspan x="13.68" y="45.75" dominant-baseline="ideographic">Generative AI </tspan><tspan x="22.07" y="69.75" dominant-baseline="ideographic">Technology</tspan></text></g></g></g><g id="g-root-tx_realisti_w8kj1qqutqk-fill" data-item-order="0" data-item-id="tx_realisti_w8kj1qqutqk" data-item-class="Label Stroke" data-item-index="none" data-renderer-id="0" transform="translate(139, 471)"><g id="tx_realisti_w8kj1qqutqk-fill" stroke="none" fill="#17b0e3"><g><text style="font: 20px Roboto, sans-serif; white-space: pre;"><tspan x="12" y="33.75" dominant-baseline="ideographic">Realistic </tspan><tspan x="12" y="57.75" dominant-baseline="ideographic">Media </tspan><tspan x="12" y="81.75" dominant-baseline="ideographic">Creation</tspan></text></g></g></g><g id="g-root-cu_13z9roj1qqz2fh-fill" data-item-order="2" data-item-id="cu_13z9roj1qqz2fh" data-item-class="Curve Stroke" data-item-index="none" data-renderer-id="0" transform="translate(81, 251)"></g><g id="g-root-cu_18f39sz1qqz2f4-fill" data-item-order="2" data-item-id="cu_18f39sz1qqz2f4" data-item-class="Curve Stroke" data-item-index="none" data-renderer-id="0" transform="translate(169, 251)"></g><g id="g-root-cu_18f39sz1qqz2f6-fill" data-item-order="2" data-item-id="cu_18f39sz1qqz2f6" data-item-class="Curve Stroke" data-item-index="none" data-renderer-id="0" transform="translate(481, 251)"></g><g id="g-root-cu_13z9roj1qqz2ff-fill" data-item-order="2" data-item-id="cu_13z9roj1qqz2ff" data-item-class="Curve Stroke" data-item-index="none" data-renderer-id="0" transform="translate(321.5, 99)"></g><g id="g-root-cu_zjg9k31qqz37x-fill" data-item-order="2" data-item-id="cu_zjg9k31qqz37x" data-item-class="Curve Stroke" data-item-index="none" data-renderer-id="0" transform="translate(81, 403)"></g><g id="g-root-cu_13z9roj1qqz37k-fill" data-item-order="2" data-item-id="cu_13z9roj1qqz37k" data-item-class="Curve Stroke" data-item-index="none" data-renderer-id="0" transform="translate(169, 403)"></g><g id="g-root-cu_13z9roj1qqz37m-fill" data-item-order="2" data-item-id="cu_13z9roj1qqz37m" data-item-class="Curve Stroke" data-item-index="none" data-renderer-id="0" transform="translate(481, 403)"></g><g id="g-root-cu_1cuwrxf1qqz1mo-fill" data-item-order="2" data-item-id="cu_1cuwrxf1qqz1mo" data-item-class="Curve Stroke" data-item-index="none" data-renderer-id="0" transform="translate(169, 99)"></g><g id="g-root-ro_1hf3ihv1qr3a4o-stroke" data-item-order="-19680" data-item-id="ro_1hf3ihv1qr3a4o" data-item-class="Shape Stroke Fill" data-item-index="none" data-renderer-id="0" transform="translate(219, 3)"><g id="ro_1hf3ihv1qr3a4o-stroke" fill="none" stroke-linecap="round" stroke-linejoin="round" stroke-miterlimit="4" stroke="#e15e5a" stroke-width="2"><g><path d="M 26 10L 29.5 14.68M 41.96 10L 44.38 16.1M 57.92 10L 59.02 16.09M 73.88 10L 72.86 16.62M 89.84 10L 90.71 16.13M 105.8 10L 105.86 16.58M 121.76 10L 120.92 15.4M 137.71 10L 138.55 15.65M 153.67 10L 154.56 16.59M 169.63 10L 169.51 16.31M 185.59 10L 182.88 16.18M 201.54 10.2L 197.45 14.69M 213.65 19.57L 209.07 22.91M 215 35.34L 210.35 37.9M 215 51.3L 209.47 51.68M 215 67.26L 209.11 66.51M 215 83.21L 209.84 80.54M 212.44 98.68L 207.31 94.54M 199 106L 195.72 101.73M 183.04 106L 181.74 100.92M 167.08 106L 165.94 100.31M 151.12 106L 152.38 99.21M 135.16 106L 135.28 99.19M 119.2 106L 119.64 99.41M 103.24 106L 102.51 100.36M 87.29 106L 86.73 99.16M 71.33 106L 72.49 100.38M 55.37 106L 54.58 100.38M 39.41 106L 42.02 101.52M 23.46 105.8L 27.15 101.98M 11.35 96.43L 15.56 92.85M 10 80.66L 15.12 78.19M 10 64.7L 16.3 64.15M 10 48.74L 15.41 49.96M 10 32.79L 15 35.22M 12.56 17.32L 17.4 22.06"></path></g></g></g><g id="g-root-ro_vb4ggz1qqqn0j-stroke" data-item-order="-18432" data-item-id="ro_vb4ggz1qqqn0j" data-item-class="Shape Stroke Fill" data-item-index="none" data-renderer-id="0" transform="translate(179, 307)"><g id="ro_vb4ggz1qqqn0j-stroke" fill="none" stroke-linecap="round" stroke-linejoin="round" stroke-miterlimit="4" stroke="#17b0e3" stroke-width="2"><g><path d="M 22 10L 190 10C 190 10 202 10 202 22L 202 94C 202 94 202 106 190 106L 22 106C 22 106 10 106 10 94L 10 22C 10 22 10 10 22 10"></path></g></g></g><g id="g-root-ro_13ynalf1qqp7gl-stroke" data-item-order="-18432" data-item-id="ro_13ynalf1qqp7gl" data-item-class="Shape Stroke Fill" data-item-index="none" data-renderer-id="0" transform="translate(385, 155)"><g id="ro_13ynalf1qqp7gl-stroke" fill="none" stroke-linecap="round" stroke-linejoin="round" stroke-miterlimit="4" stroke="#17b0e3" stroke-width="2"><g><path d="M 22 10L 190 10C 190 10 202 10 202 22L 202 94C 202 94 202 106 190 106L 22 106C 22 106 10 106 10 94L 10 22C 10 22 10 10 22 10"></path></g></g></g><g id="g-root-ro_4otwtf1qqutjg-stroke" data-item-order="-17280" data-item-id="ro_4otwtf1qqutjg" data-item-class="Shape Stroke Fill" data-item-index="none" data-renderer-id="0" transform="translate(391, 459)"><g id="ro_4otwtf1qqutjg-stroke" fill="none" stroke-linecap="round" stroke-linejoin="round" stroke-miterlimit="4" stroke="#17b0e3" stroke-width="2"><g><path d="M 22 10L 178 10C 178 10 190 10 190 22L 190 94C 190 94 190 106 178 106L 22 106C 22 106 10 106 10 94L 10 22C 10 22 10 10 22 10"></path></g></g></g><g id="g-root-ro_zly5wj1qqtfyg-stroke" data-item-order="-17280" data-item-id="ro_zly5wj1qqtfyg" data-item-class="Shape Stroke Fill" data-item-index="none" data-renderer-id="0" transform="translate(391, 307)"><g id="ro_zly5wj1qqtfyg-stroke" fill="none" stroke-linecap="round" stroke-linejoin="round" stroke-miterlimit="4" stroke="#17b0e3" stroke-width="2"><g><path d="M 22 10L 178 10C 178 10 190 10 190 22L 190 94C 190 94 190 106 178 106L 22 106C 22 106 10 106 10 94L 10 22C 10 22 10 10 22 10"></path></g></g></g><g id="g-root-ro_hs65wj1qr7i17-stroke" data-item-order="-17280" data-item-id="ro_hs65wj1qr7i17" data-item-class="Shape Stroke Fill" data-item-index="none" data-renderer-id="0" transform="translate(79, 155)"><g id="ro_hs65wj1qr7i17-stroke" fill="none" stroke-linecap="round" stroke-linejoin="round" stroke-miterlimit="4" stroke="#17b0e3" stroke-width="2"><g><path d="M 22 10L 178 10C 178 10 190 10 190 22L 190 94C 190 94 190 106 178 106L 22 106C 22 106 10 106 10 94L 10 22C 10 22 10 10 22 10"></path></g></g></g><g id="g-root-ro_13zw8rn1qquubq-stroke" data-item-order="-14976" data-item-id="ro_13zw8rn1qquubq" data-item-class="Shape Stroke Fill" data-item-index="none" data-renderer-id="0" transform="translate(91, 459)"><g id="ro_13zw8rn1qquubq-stroke" fill="none" stroke-linecap="round" stroke-linejoin="round" stroke-miterlimit="4" stroke="#17b0e3" stroke-width="2"><g><path d="M 22 10L 154 10C 154 10 166 10 166 22L 166 94C 166 94 166 106 154 106L 22 106C 22 106 10 106 10 94L 10 22C 10 22 10 10 22 10"></path></g></g></g><g id="g-root-ro_1lxf04j1qqp8uh-stroke" data-item-order="-14976" data-item-id="ro_1lxf04j1qqp8uh" data-item-class="Shape Stroke Fill" data-item-index="none" data-renderer-id="0" transform="translate(3, 307)"><g id="ro_1lxf04j1qqp8uh-stroke" fill="none" stroke-linecap="round" stroke-linejoin="round" stroke-miterlimit="4" stroke="#17b0e3" stroke-width="2"><g><path d="M 22 10L 154 10C 154 10 166 10 166 22L 166 94C 166 94 166 106 154 106L 22 106C 22 106 10 106 10 94L 10 22C 10 22 10 10 22 10"></path></g></g></g><g id="g-root-tx_transfor_1lzac831qraarv-stroke" data-item-order="0" data-item-id="tx_transfor_1lzac831qraarv" data-item-class="Label Stroke" data-item-index="none" data-renderer-id="0" transform="translate(433, 167)"></g><g id="g-root-codi_v3mo9v1qr7gga-stroke" data-item-order="0" data-item-id="codi_v3mo9v1qr7gga" data-item-class="Icon Stroke" data-item-index="none" data-renderer-id="0" transform="translate(91, 188)"><g id="codi_v3mo9v1qr7gga-stroke" fill="none" stroke-linecap="round" stroke-linejoin="round" stroke-miterlimit="4" stroke="#17b0e3" stroke-width="2"><g><path d="M 29.391249 18.48L 30.0425 18.48C 30.402176 18.48 30.69375 18.771576 30.69375 19.13125L 30.69375 23.689999M 29.391249 23.689999L 31.99625 23.689999M 36.348751 10.61125L 37 10.61125C 37.359676 10.61125 37.651249 10.902824 37.651249 11.2625L 37.651249 15.82125M 36.348751 15.82125L 38.953751 15.82125M 36.348751 26.3475L 37 26.3475C 37.359676 26.347502 37.651249 26.639076 37.651249 26.998751L 37.651249 31.557501M 36.348751 31.557501L 38.953751 31.557501M 39.279999 22.061251C 39.280067 22.960487 38.551113 23.689501 37.651875 23.689501C 36.752636 23.689501 36.023682 22.960487 36.02375 22.061251L 36.02375 20.1075C 36.023819 19.208361 36.752735 18.479502 37.651875 18.479502C 38.551014 18.479502 39.27993 19.208361 39.279999 20.1075ZM 32.321251 29.93C 32.321251 30.827463 31.593712 31.555 30.696249 31.555C 29.798786 31.555 29.071251 30.827463 29.071251 29.929998L 29.071251 27.97625C 29.071251 27.078787 29.798786 26.35125 30.696249 26.35125C 31.593712 26.35125 32.321251 27.078787 32.321251 27.97625ZM 36.348751 34.151249L 37 34.151249C 37.359676 34.151253 37.651249 34.442825 37.651249 34.802502L 37.651249 39.361252M 36.348751 39.361252L 38.953751 39.361252M 32.321251 37.733749C 32.321251 38.631214 31.593712 39.358749 30.696249 39.358749C 29.798786 39.358749 29.071251 38.631214 29.071251 37.733749L 29.071251 35.779999C 29.071251 34.882538 29.798786 34.154999 30.696249 34.154999C 31.593712 34.154999 32.321251 34.882538 32.321251 35.779999ZM 32.321251 14.31375C 32.321251 15.211212 31.593712 15.93875 30.696249 15.93875C 29.798786 15.93875 29.071251 15.211212 29.071251 14.31375L 29.071251 12.35875C 29.071251 11.461287 29.798786 10.73375 30.696249 10.73375C 31.593712 10.73375 32.321251 11.461287 32.321251 12.35875ZM 21.94125 31.57625C 21.94125 29.332594 20.122408 27.51375 17.87875 27.51375C 17.813749 27.51375 17.75375 27.530001 17.6875 27.532499M 21.518749 15.5C 22.728825 15.09199 23.436888 13.837584 23.160908 12.590754C 22.88493 11.343922 21.713631 10.505504 20.444403 10.646275C 19.175175 10.787045 18.216061 11.861747 18.220001 13.13875C 18.223526 13.364385 18.257586 13.588504 18.321251 13.805C 18.182501 13.7925 18.04875 13.76375 17.907501 13.76375C 16.12203 13.755033 14.488207 14.766202 13.699514 16.368057C 12.910823 17.969913 13.10563 19.88143 14.20125 21.29125C 12.244255 21.42551 10.725382 23.052155 10.725382 25.01375C 10.725382 26.975344 12.244255 28.601992 14.20125 28.73625C 13.10563 30.146069 12.910823 32.057587 13.699514 33.659443C 14.488207 35.261299 16.12203 36.272465 17.907499 36.263748C 18.04875 36.263748 18.182501 36.233749 18.321251 36.221249C 17.949144 37.535206 18.700275 38.904629 20.008314 39.297024C 21.316353 39.689415 22.697237 38.959568 23.109825 37.657757C 23.522413 36.355946 22.81402 34.963936 21.518749 34.53125M 17.6875 22.5C 17.752501 22.5 17.8125 22.518751 17.87875 22.518751C 20.122408 22.518751 21.94125 20.699907 21.94125 18.456251M 23.217501 13.0175C 23.787304 12.687995 24.434286 12.515466 25.092501 12.5175M 23.106249 37.634998C 23.717001 37.965157 24.400726 38.137051 25.094999 38.134998M 25.095001 18.76375L 25.095001 31.88875"></path></g></g></g><g id="g-root-1_13ynalf1qqp7gk-stroke" data-item-order="0" data-item-id="1_13ynalf1qqp7gk" data-item-class="Icon Stroke" data-item-index="none" data-renderer-id="0" transform="translate(397, 188)"><g id="1_13ynalf1qqp7gk-stroke" fill="none" stroke-linecap="round" stroke-linejoin="round" stroke-miterlimit="4" stroke="#17b0e3" stroke-width="2"><g><path d="M 10.625 36.248749C 10.625 37.97464 12.02411 39.373749 13.75 39.373749C 15.47589 39.373749 16.875 37.97464 16.875 36.248749C 16.875 34.522861 15.47589 33.123749 13.75 33.123749C 12.02411 33.123749 10.625 34.522861 10.625 36.248749ZM 18.75 21.873749C 18.75 23.59964 20.149111 24.998751 21.875 24.998751C 23.600889 24.998751 25 23.59964 25 21.873751C 25 20.14786 23.600889 18.748751 21.875 18.748751C 20.149111 18.748751 18.75 20.14786 18.75 21.873751ZM 27.5 29.373749C 27.5 31.099642 28.899111 32.498749 30.625 32.498749C 32.350891 32.498749 33.75 31.099642 33.75 29.373751C 33.75 27.64786 32.350891 26.248751 30.625 26.248751C 28.899111 26.248751 27.5 27.64786 27.5 29.373751ZM 33.125 13.74875C 33.125 15.47464 34.524109 16.873751 36.25 16.873751C 37.975891 16.873751 39.375 15.47464 39.375 13.74875C 39.375 12.022861 37.975891 10.62375 36.25 10.62375C 34.524109 10.62375 33.125 12.022861 33.125 13.74875ZM 15.2875 33.526249L 20.337502 24.594999M 24.247499 23.908751L 28.252501 27.341249M 31.68375 26.432499L 35.190002 16.688749"></path></g></g></g><g id="g-root-tx_naturalt_hzny3n1qquv4a-stroke" data-item-order="0" data-item-id="tx_naturalt_hzny3n1qquv4a" data-item-class="Label Stroke" data-item-index="none" data-renderer-id="0" transform="translate(439, 483)"></g><g id="g-root-1_1lux0mb1qr39cf-stroke" data-item-order="0" data-item-id="1_1lux0mb1qr39cf" data-item-class="Icon Stroke" data-item-index="none" data-renderer-id="0" transform="translate(241.57144165039062, 36)"><g id="1_1lux0mb1qr39cf-stroke" fill="none" stroke-linecap="round" stroke-linejoin="round" stroke-miterlimit="4" stroke="#e15e5a" stroke-width="2"><g><path d="M 17.4375 35.451248C 18.762774 35.230663 19.881689 34.344501 20.4 33.105M 13.02625 20.682499C 15.583341 21.130905 17.78021 22.756794 18.956249 25.071251M 17.22875 22.786251L 19.470001 21.105M 22.5 10.84125C 22.475971 12.094332 22.249725 13.335309 21.830002 14.516251M 20 15.625C 20 16.315355 20.559643 16.875 21.25 16.875C 21.940357 16.875 22.5 16.315355 22.5 15.625C 22.5 14.934644 21.940357 14.375 21.25 14.375C 20.559643 14.375 20 14.934644 20 15.625ZM 27.5 18.125C 27.5 18.815355 28.059643 19.375 28.75 19.375C 29.440357 19.375 30 18.815355 30 18.125C 30 17.434645 29.440357 16.875 28.75 16.875C 28.059643 16.875 27.5 17.434645 27.5 18.125ZM 31.875 23.125C 31.875 23.815357 32.434647 24.375 33.125 24.375C 33.815353 24.375 34.375 23.815357 34.375 23.125C 34.375 22.434643 33.815353 21.875 33.125 21.875C 32.434647 21.875 31.875 22.434643 31.875 23.125ZM 27.5 27.5C 27.5 28.190357 28.059643 28.75 28.75 28.75C 29.440357 28.75 30 28.190357 30 27.5C 30 26.809643 29.440357 26.25 28.75 26.25C 28.059643 26.25 27.5 26.809643 27.5 27.5ZM 19.375 20.625C 19.375 21.315357 19.934645 21.875 20.625 21.875C 21.315357 21.875 21.875 21.315357 21.875 20.625C 21.875 19.934645 21.315357 19.375 20.625 19.375C 19.934645 19.375 19.375 19.934645 19.375 20.625ZM 18.125 26.25C 18.125 26.940357 18.684645 27.5 19.375 27.5C 20.065357 27.5 20.625 26.940357 20.625 26.25C 20.625 25.559643 20.065357 25 19.375 25C 18.684645 25 18.125 25.559643 18.125 26.25ZM 39.375 25C 39.380005 23.241142 38.470627 21.60606 36.973751 20.682501C 37.058456 20.313419 37.102474 19.936169 37.105 19.557499C 37.130047 16.958282 35.151798 14.776985 32.5625 14.54875C 32.588318 13.525249 32.203011 12.534068 31.492691 11.796733C 30.782368 11.059398 29.806252 10.637381 28.782499 10.625C 27.163891 10.717669 25.719658 11.672218 25 13.125C 24.280342 11.672218 22.836109 10.717669 21.217501 10.625C 20.193748 10.637381 19.217632 11.059398 18.507309 11.796733C 17.796988 12.534068 17.411678 13.525249 17.4375 14.54875C 14.847234 14.777057 12.868641 16.959826 12.895 19.559999C 12.895476 19.938438 12.937393 20.315687 13.02 20.684999C 11.527056 21.612268 10.619104 23.245028 10.619104 25.002501C 10.619104 26.759972 11.527056 28.392731 13.02 29.32C 12.937393 29.689312 12.895476 30.066563 12.895 30.445C 12.871267 33.043259 14.849168 35.223087 17.4375 35.451248C 17.411678 36.474751 17.796988 37.465931 18.507309 38.203266C 19.217632 38.940601 20.193748 39.362617 21.217501 39.375C 22.710207 39.411186 24.124975 38.709881 24.999998 37.499996C 25.875023 38.709881 27.289793 39.411186 28.782499 39.374996C 29.806252 39.362617 30.782368 38.940601 31.492691 38.203266C 32.203011 37.465931 32.588318 36.474751 32.5625 35.451248C 35.152763 35.222942 37.131359 33.040173 37.105 30.439999C 37.102474 30.061331 37.058456 29.68408 36.973747 29.314999C 38.469868 28.391907 39.379135 26.757969 39.375 25ZM 25 13.125L 25 27.5M 25 32.447502L 25 37.5M 36.466251 17.078751L 33 18.813749C 31.987383 19.320721 30.797626 19.33271 29.775 18.846249M 28.75 26.25C 29.120653 24.703291 30.328293 23.495653 31.875002 23.125002M 32.5625 35.451248C 32.217499 34.25 31.62875 33.326248 30.625 33.125M 19.375 31.875C 19.375 32.565353 19.934645 33.125 20.625 33.125C 21.315357 33.125 21.875 32.565353 21.875 31.875C 21.875 31.184645 21.315357 30.625 20.625 30.625C 19.934645 30.625 19.375 31.184645 19.375 31.875ZM 28.125 33.125C 28.125 33.815353 28.684643 34.375 29.375 34.375C 30.065355 34.375 30.625 33.815353 30.625 33.125C 30.625 32.434647 30.065355 31.875 29.375 31.875C 28.684643 31.875 28.125 32.434647 28.125 33.125Z"></path></g></g></g><g id="g-root-tx_generati_18egpk31qr7i15-stroke" data-item-order="0" data-item-id="tx_generati_18egpk31qr7i15" data-item-class="Label Stroke" data-item-index="none" data-renderer-id="0" transform="translate(127, 167)"></g><g id="g-root-tx_selfatte_1cxeo9v1qqtedi-stroke" data-item-order="0" data-item-id="tx_selfatte_1cxeo9v1qqtedi" data-item-class="Label Stroke" data-item-index="none" data-renderer-id="0" transform="translate(439, 319)"></g><g id="g-root-user_7rgir1qqp7go-stroke" data-item-order="0" data-item-id="user_7rgir1qqp7go" data-item-class="Icon Stroke" data-item-index="none" data-renderer-id="0" transform="translate(15, 340)"><g id="user_7rgir1qqp7go-stroke" fill="none" stroke-linecap="round" stroke-linejoin="round" stroke-miterlimit="4" stroke="#17b0e3" stroke-width="2"><g><path d="M 23.75 25.625C 19.607864 25.625 16.25 22.267136 16.25 18.125C 16.25 13.982864 19.607864 10.625 23.75 10.625ZM 11.875 39.375C 11.875 32.81662 17.191618 27.5 23.75 27.5L 23.75 39.375ZM 26.25 25.625C 26.669079 25.62249 27.08721 25.584858 27.5 25.512501L 27.5 23.6C 28.114824 23.45896 28.701128 23.214209 29.233749 22.876249L 30.591249 24.233749C 31.275032 23.747475 31.872475 23.150032 32.358749 22.466249L 31 21.108749C 31.338396 20.576212 31.583572 19.989904 31.724998 19.375L 33.637501 19.375C 33.709858 18.962208 33.74749 18.544079 33.75 18.125C 33.74749 17.705921 33.709858 17.287792 33.637501 16.875L 31.724998 16.875C 31.583572 16.260096 31.338396 15.673787 31 15.14125L 32.357498 13.78375C 31.871225 13.099968 31.273783 12.502524 30.59 12.01625L 29.233749 13.375C 28.701212 13.036602 28.114902 12.791427 27.499998 12.65L 27.5 10.7375C 27.08721 10.665142 26.669079 10.62751 26.25 10.625M 26.25 15.625C 27.630713 15.625 28.75 16.744287 28.75 18.125C 28.75 19.505713 27.630713 20.625 26.25 20.625M 38.125 39.375C 38.120491 38.746685 38.066154 38.11972 37.962498 37.499996L 35.436253 37.5C 35.269238 36.689056 34.994289 35.904152 34.618752 35.166252L 36.4575 33.328751C 35.597328 31.877451 34.438881 30.625269 33.05875 29.655001L 31.256248 31.45875C 30.482542 30.966578 29.640015 30.592075 28.75625 30.3475L 28.75625 27.768749C 27.932667 27.590916 27.092564 27.500828 26.25 27.5M 26.25 34.375C 29.011423 34.375 31.25 36.613575 31.25 39.375"></path></g></g></g><g id="g-root-tx_generato_dilhsz1qqp91j-stroke" data-item-order="0" data-item-id="tx_generato_dilhsz1qqp91j" data-item-class="Label Stroke" data-item-index="none" data-renderer-id="0" transform="translate(51, 343)"></g><g id="g-root-chip_18mkyub1qqqlfm-stroke" data-item-order="0" data-item-id="chip_18mkyub1qqqlfm" data-item-class="Icon Stroke" data-item-index="none" data-renderer-id="0" transform="translate(191, 340)"><g id="chip_18mkyub1qqqlfm-stroke" fill="none" stroke-linecap="round" stroke-linejoin="round" stroke-miterlimit="4" stroke="#17b0e3" stroke-width="2"><g><path d="M 21.42375 15.4825C 22.634274 15.07433 23.342331 13.819185 23.065622 12.572029C 22.78891 11.324873 21.616461 10.486963 20.346901 10.629056C 19.077343 10.77115 18.119146 11.847528 18.125 13.125C 18.128387 13.350647 18.162449 13.574784 18.22625 13.79125C 18.0875 13.77875 17.953751 13.75 17.8125 13.75C 16.027031 13.741283 14.393207 14.752452 13.604515 16.354307C 12.815823 17.956163 13.010631 19.86768 14.10625 21.2775C 12.149255 21.411758 10.630382 23.038404 10.630382 25C 10.630382 26.961596 12.149255 28.58824 14.10625 28.7225C 13.010631 30.13232 12.815823 32.043835 13.604515 33.645691C 14.393207 35.247547 16.027031 36.258717 17.8125 36.25C 17.953751 36.25 18.0875 36.221249 18.22625 36.208748C 17.854799 37.522778 18.606428 38.89175 19.914505 39.283642C 21.22258 39.675529 22.603107 38.945328 23.015337 37.64352C 23.427567 36.341713 22.718975 34.949974 21.42375 34.517502M 28.57625 15.4825C 27.365726 15.07433 26.657669 13.819185 26.934378 12.572029C 27.21109 11.324873 28.383539 10.486963 29.653099 10.629056C 30.922657 10.77115 31.880856 11.847528 31.875 13.125C 31.871613 13.350647 31.837549 13.574784 31.77375 13.79125C 31.9125 13.77875 32.046249 13.75 32.1875 13.75C 33.972969 13.741283 35.606796 14.752452 36.395485 16.354307C 37.184177 17.956163 36.989368 19.86768 35.893749 21.2775C 37.850746 21.411758 39.369617 23.038404 39.369617 25C 39.369617 26.961596 37.850746 28.58824 35.893749 28.7225C 36.989368 30.13232 37.184177 32.043835 36.395485 33.645691C 35.606796 35.247547 33.972969 36.258717 32.1875 36.25C 32.046249 36.25 31.9125 36.221249 31.77375 36.208748C 32.145203 37.522778 31.39357 38.89175 30.085497 39.283642C 28.77742 39.675529 27.396893 38.945328 26.984663 37.64352C 26.572433 36.341713 27.281025 34.949974 28.57625 34.517502M 23.125 13C 24.285255 12.330127 25.714746 12.330127 26.875 13M 26.875 37C 25.714746 37.669872 24.285255 37.669872 23.125 37M 21.25 20L 28.75 20C 28.75 20 30 20 30 21.25L 30 28.75C 30 28.75 30 30 28.75 30L 21.25 30C 21.25 30 20 30 20 28.75L 20 21.25C 20 21.25 20 20 21.25 20M 22.5 17.5L 22.5 20M 27.5 17.5L 27.5 20M 17.5 27.5L 20 27.5M 17.5 22.5L 20 22.5M 27.5 32.5L 27.5 30M 22.5 32.5L 22.5 30M 32.5 22.5L 30 22.5M 32.5 27.5L 30 27.5"></path></g></g></g><g id="g-root-tx_discrimi_1qd8i8z1qqqm89-stroke" data-item-order="0" data-item-id="tx_discrimi_1qd8i8z1qqqm89" data-item-class="Label Stroke" data-item-index="none" data-renderer-id="0" transform="translate(227, 343)"></g><g id="g-root-neur_141ro0z1qqtf67-stroke" data-item-order="0" data-item-id="neur_141ro0z1qqtf67" data-item-class="Icon Stroke" data-item-index="none" data-renderer-id="0" transform="translate(403, 340)"><g id="neur_141ro0z1qqtf67-stroke" fill="none" stroke-linecap="round" stroke-linejoin="round" stroke-miterlimit="4" stroke="#17b0e3" stroke-width="2"><g><path d="M 10 10M 31.013752 31.137501L 26.838749 33.385002M 33.125 21.768749L 33.125 28.2325M 26.838749 16.616251L 31.01 18.86125M 23.125 16.25C 23.125 17.285534 23.964466 18.125 25 18.125C 26.035534 18.125 26.875 17.285534 26.875 16.25C 26.875 15.214466 26.035534 14.375 25 14.375C 23.964466 14.375 23.125 15.214466 23.125 16.25M 30.625 30C 30.625 31.035536 31.464466 31.875 32.5 31.875C 33.535534 31.875 34.375 31.035536 34.375 30C 34.375 28.964466 33.535534 28.125 32.5 28.125C 31.464466 28.125 30.625 28.964466 30.625 30M 30.625 20C 30.625 21.035534 31.464466 21.875 32.5 21.875C 33.535534 21.875 34.375 21.035534 34.375 20C 34.375 18.964466 33.535534 18.125 32.5 18.125C 31.464466 18.125 30.625 18.964466 30.625 20M 10 10M 18.98625 31.137501L 23.161251 33.385002M 16.875 21.768749L 16.875 28.22875M 15.625 30C 15.625 31.035536 16.464466 31.875 17.5 31.875C 18.535534 31.875 19.375 31.035536 19.375 30C 19.375 28.964466 18.535534 28.125 17.5 28.125C 16.464466 28.125 15.625 28.964466 15.625 30M 15.625 20C 15.625 21.035534 16.464466 21.875 17.5 21.875C 18.535534 21.875 19.375 21.035534 19.375 20C 19.375 18.964466 18.535534 18.125 17.5 18.125C 16.464466 18.125 15.625 18.964466 15.625 20M 23.125 33.75C 23.125 34.785534 23.964466 35.625 25 35.625C 26.035534 35.625 26.875 34.785534 26.875 33.75C 26.875 32.714466 26.035534 31.875 25 31.875C 23.964466 31.875 23.125 32.714466 23.125 33.75M 23.51 17.38875L 19.338751 19.635M 25.625 10.625L 25.625 14.4825M 24.375 35.514999L 24.375 39.375M 11.48875 17.38875L 15.66125 19.635M 10.625 18.018749C 11.37449 17.753765 11.875417 17.044954 11.875 16.25C 11.875417 15.455047 11.37449 14.746235 10.625 14.48125M 38.510002 17.38875L 34.338753 19.635M 39.375 18.018749C 38.624413 17.754707 38.122211 17.045679 38.122211 16.25C 38.122211 15.454322 38.624413 14.745294 39.375 14.48125M 11.48875 32.852501L 15.7175 30.574999M 10.625 32.2225C 11.374057 32.487331 11.874887 33.195503 11.875 33.990002C 11.875947 34.785416 11.374923 35.494865 10.625 35.759998M 38.51125 32.852501L 34.282501 30.574999M 39.375 32.2225C 38.624413 32.486542 38.122211 33.195572 38.122211 33.991249C 38.122211 34.786926 38.624413 35.495956 39.375 35.759998M 15.625 20C 15.625 21.035534 16.464466 21.875 17.5 21.875C 18.535534 21.875 19.375 21.035534 19.375 20C 19.375 18.964466 18.535534 18.125 17.5 18.125C 16.464466 18.125 15.625 18.964466 15.625 20"></path></g></g></g><g id="g-root-titl_1lqjs6b1qquv4d-stroke" data-item-order="0" data-item-id="titl_1lqjs6b1qquv4d" data-item-class="Icon Stroke" data-item-index="none" data-renderer-id="0" transform="translate(103, 492)"><g id="titl_1lqjs6b1qquv4d-stroke" fill="none" stroke-linecap="round" stroke-linejoin="round" stroke-miterlimit="4" stroke="#17b0e3" stroke-width="2"><g><path d="M 13.125 11.875L 36.875 11.875C 36.875 11.875 39.375 11.875 39.375 14.375L 39.375 35.625C 39.375 35.625 39.375 38.125 36.875 38.125L 13.125 38.125C 13.125 38.125 10.625 38.125 10.625 35.625L 10.625 14.375C 10.625 14.375 10.625 11.875 13.125 11.875M 23.125 23.16375L 23.125 23.125C 23.125 21.744287 22.005713 20.625 20.625 20.625L 18.125 20.625C 16.744287 20.625 15.625 21.744287 15.625 23.125L 15.625 26.875C 15.625 28.255713 16.744287 29.375 18.125 29.375L 20.625 29.375C 22.005713 29.375 23.125 28.255713 23.125 26.875L 23.125 26.848751M 34.375 23.16375L 34.375 23.125C 34.375 21.744287 33.255714 20.625 31.875 20.625L 29.375 20.625C 27.994287 20.625 26.875 21.744287 26.875 23.125L 26.875 26.875C 26.875 28.255713 27.994287 29.375 29.375 29.375L 31.875 29.375C 33.255714 29.375 34.375 28.255713 34.375 26.875L 34.375 26.848751"></path></g></g></g><g id="g-root-text_djufz71qquvwj-stroke" data-item-order="0" data-item-id="text_djufz71qquvwj" data-item-class="Icon Stroke" data-item-index="none" data-renderer-id="0" transform="translate(403, 492)"><g id="text_djufz71qquvwj-stroke" fill="none" stroke-linecap="round" stroke-linejoin="round" stroke-miterlimit="4" stroke="#17b0e3" stroke-width="2"><g><path d="M 18.125 16.875L 31.875 16.875M 18.125 20.625L 26.25 20.625M 26.875 28.125L 34.375 28.125M 26.875 31.875L 34.375 31.875M 18.125 24.375L 21.25 24.375M 20 33.337502L 11.7 37.1875L 15 30.725C 12.327184 28.758238 10.712513 25.667297 10.625 22.350002C 10.625 15.875 17.0625 10.625 25 10.625C 32.9375 10.625 39.375 15.875 39.375 22.35M 22.125 30.474998C 22.125 34.362499 25.987499 37.512501 30.75 37.512501C 31.766674 37.510658 32.777527 37.359032 33.75 37.0625L 38.75 39.375L 36.8125 35.5C 38.395237 34.31757 39.348774 32.474987 39.400002 30.5C 39.400002 26.612499 35.537498 23.462502 30.775002 23.462502C 26.012501 23.462502 22.125 26.587502 22.125 30.474998Z"></path></g></g></g><g id="g-root-tx_generati_4mzxf1qr3b4e-stroke" data-item-order="0" data-item-id="tx_generati_4mzxf1qr3b4e" data-item-class="Label Stroke" data-item-index="none" data-renderer-id="0" transform="translate(277.5714416503906, 15)"></g><g id="g-root-tx_realisti_w8kj1qqutqk-stroke" data-item-order="0" data-item-id="tx_realisti_w8kj1qqutqk" data-item-class="Label Stroke" data-item-index="none" data-renderer-id="0" transform="translate(139, 471)"></g><g id="g-root-cu_13z9roj1qqz2fh-stroke" data-item-order="2" data-item-id="cu_13z9roj1qqz2fh" data-item-class="Curve Stroke" data-item-index="none" data-renderer-id="0" transform="translate(81, 251)"><g id="cu_13z9roj1qqz2fh-stroke" fill="none" stroke-linecap="round" stroke-linejoin="round" stroke-miterlimit="4" stroke="#484848" stroke-width="2"><g><path d="M 98 10L 98 24L 98 38L 54 38L 10 38L 10 52L 10 64"></path><path d="M 3.5 58L 10 64.5L 16.5 58" stroke-dasharray="none"></path></g></g></g><g id="g-root-cu_18f39sz1qqz2f4-stroke" data-item-order="2" data-item-id="cu_18f39sz1qqz2f4" data-item-class="Curve Stroke" data-item-index="none" data-renderer-id="0" transform="translate(169, 251)"><g id="cu_18f39sz1qqz2f4-stroke" fill="none" stroke-linecap="round" stroke-linejoin="round" stroke-miterlimit="4" stroke="#484848" stroke-width="2"><g><path d="M 10 10L 10 24L 10 38L 63 38L 116 38L 116 52L 116 64"></path><path d="M 109.5 58L 116 64.5L 122.5 58" stroke-dasharray="none"></path></g></g></g><g id="g-root-cu_18f39sz1qqz2f6-stroke" data-item-order="2" data-item-id="cu_18f39sz1qqz2f6" data-item-class="Curve Stroke" data-item-index="none" data-renderer-id="0" transform="translate(481, 251)"><g id="cu_18f39sz1qqz2f6-stroke" fill="none" stroke-linecap="round" stroke-linejoin="round" stroke-miterlimit="4" stroke="#484848" stroke-width="2"><g><path d="M 10 10L 10 38L 10 64"></path><path d="M 3.5 58L 10 64.5L 16.5 58" stroke-dasharray="none"></path></g></g></g><g id="g-root-cu_13z9roj1qqz2ff-stroke" data-item-order="2" data-item-id="cu_13z9roj1qqz2ff" data-item-class="Curve Stroke" data-item-index="none" data-renderer-id="0" transform="translate(321.5, 99)"><g id="cu_13z9roj1qqz2ff-stroke" fill="none" stroke-linecap="round" stroke-linejoin="round" stroke-miterlimit="4" stroke="#484848" stroke-width="2"><g><path d="M 10 10L 10 24L 10 38L 89.8 38L 169.5 38L 169.5 52L 169.5 64"></path><path d="M 163 58L 169.5 64.5L 176 58" stroke-dasharray="none"></path></g></g></g><g id="g-root-cu_zjg9k31qqz37x-stroke" data-item-order="2" data-item-id="cu_zjg9k31qqz37x" data-item-class="Curve Stroke" data-item-index="none" data-renderer-id="0" transform="translate(81, 403)"><g id="cu_zjg9k31qqz37x-stroke" fill="none" stroke-linecap="round" stroke-linejoin="round" stroke-miterlimit="4" stroke="#484848" stroke-width="2"><g><path d="M 10 10L 10 24L 10 38L 54 38L 98 38L 98 52L 98 64"></path><path d="M 91.5 58L 98 64.5L 104.5 58" stroke-dasharray="none"></path></g></g></g><g id="g-root-cu_13z9roj1qqz37k-stroke" data-item-order="2" data-item-id="cu_13z9roj1qqz37k" data-item-class="Curve Stroke" data-item-index="none" data-renderer-id="0" transform="translate(169, 403)"><g id="cu_13z9roj1qqz37k-stroke" fill="none" stroke-linecap="round" stroke-linejoin="round" stroke-miterlimit="4" stroke="#484848" stroke-width="2"><g><path d="M 116 10L 116 24L 116 38L 63 38L 10 38L 10 52L 10 64"></path><path d="M 3.5 58L 10 64.5L 16.5 58" stroke-dasharray="none"></path></g></g></g><g id="g-root-cu_13z9roj1qqz37m-stroke" data-item-order="2" data-item-id="cu_13z9roj1qqz37m" data-item-class="Curve Stroke" data-item-index="none" data-renderer-id="0" transform="translate(481, 403)"><g id="cu_13z9roj1qqz37m-stroke" fill="none" stroke-linecap="round" stroke-linejoin="round" stroke-miterlimit="4" stroke="#484848" stroke-width="2"><g><path d="M 10 10L 10 38L 10 64"></path><path d="M 3.5 58L 10 64.5L 16.5 58" stroke-dasharray="none"></path></g></g></g><g id="g-root-cu_1cuwrxf1qqz1mo-stroke" data-item-order="2" data-item-id="cu_1cuwrxf1qqz1mo" data-item-class="Curve Stroke" data-item-index="none" data-renderer-id="0" transform="translate(169, 99)"><g id="cu_1cuwrxf1qqz1mo-stroke" fill="none" stroke-linecap="round" stroke-linejoin="round" stroke-miterlimit="4" stroke="#484848" stroke-width="2"><g><path d="M 162.5 10L 162.5 24L 162.5 38L 86.3 38L 10 38L 10 52L 10 64"></path><path d="M 3.5 58L 10 64.5L 16.5 58" stroke-dasharray="none"></path></g></g></g></g></g></svg>