<?xml version="1.0" encoding="utf-8" standalone="yes"?>
<!DOCTYPE svg PUBLIC "-//W3C//DTD SVG 1.1//EN" "http://www.w3.org/Graphics/SVG/1.1/DTD/svg11.dtd">
<svg width="558" height="206" viewBox="0 0 558 206" style="fill:none;stroke:none;fill-rule:evenodd;clip-rule:evenodd;stroke-linecap:round;stroke-linejoin:round;stroke-miterlimit:1.5;" version="1.1" xmlns="http://www.w3.org/2000/svg" xmlns:xlink="http://www.w3.org/1999/xlink"><style id="fontImports">@import url("https://fonts.googleapis.com/css2?family=Shantell+Sans:wght@300..800&amp;display=block");</style><rect id="" x="0" y="0" width="558" height="206" style="fill: #ffffff;"></rect><g id="items" style="isolation: isolate"><g id="blend" style="mix-blend-mode:multiply"><g id="g-root-2.cr-2_cr_zitsjp1rb598u-fill" data-item-order="-46652" data-item-id="2.cr-2_cr_zitsjp1rb598u" data-item-class="Shape Stroke Fill ScenePart Part Indexed" data-item-index="2" data-renderer-id="0" transform="translate(362, 4)"><g id="2.cr-2_cr_zitsjp1rb598u-fill" stroke="none" fill="#cef3ff"><g><path d="M 125.3 64.5L 113.4 36.3L 93.4 40.2L 106.9 72.3ZM 93.4 40.2L 93 95.5L 113 92.8L 113.4 36.3ZM 113 92.8L 91.1 15.9L 71.2 18.9L 93 95.5ZM 71.2 18.9L 73.3 114.6L 93.2 111.6L 91.1 15.9ZM 93.2 111.6L 64.9 9.7L 45 12.8L 73.3 114.6ZM 45 12.8L 49.4 118.6L 69.3 115.4L 64.9 9.7ZM 69.3 115.4L 42.3 20.8L 22.6 24.5L 49.4 118.6ZM 22.6 24.5L 30.2 105L 49.9 100.4L 42.3 20.8ZM 49.9 100.4L 27.7 42L 9 49.1L 30.2 105Z" fill-rule="nonzero"></path></g></g></g><g id="g-root-1.cr-1_cr_18egssl1rb58g5-fill" data-item-order="-46650" data-item-id="1.cr-1_cr_18egssl1rb58g5" data-item-class="Shape Stroke Fill ScenePart Part Indexed Indexed_1" data-item-index="1" data-renderer-id="0" transform="translate(38, 4)"><g id="1.cr-1_cr_18egssl1rb58g5-fill" stroke="none" fill="#ffd0ce"><g><path d="M 121.9 65.6L 113.2 34.4L 93 36.1L 102.6 71ZM 93 36.1L 86.9 98.7L 107.1 97.8L 113.2 34.4ZM 107.1 97.8L 90.3 11.3L 70.3 13.3L 86.9 98.7ZM 70.3 13.3L 70.9 115.4L 90.9 112.8L 90.3 11.3ZM 90.9 112.8L 64.9 13.8L 45.1 17.2L 70.9 115.4ZM 45.1 17.2L 53.7 120.6L 73.4 116.7L 64.9 13.8ZM 73.4 116.7L 42.7 19.4L 22.8 22.7L 53.7 120.6ZM 22.8 22.7L 24.3 101.3L 44.2 97L 42.7 19.4ZM 44.2 97L 22.1 45.7L 3.8 53.7L 24.3 101.3Z" fill-rule="nonzero"></path></g></g></g><g id="g-root-robo_1d0j1s51rb81l3-fill" data-item-order="0" data-item-id="robo_1d0j1s51rb81l3" data-item-class="Icon Stroke SceneTarget Indexed Indexed_1 InsideFill" data-item-index="1" data-renderer-id="0" transform="translate(56, 22)"></g><g id="g-root-ligh_hyf0051rb82dd-fill" data-item-order="0" data-item-id="ligh_hyf0051rb82dd" data-item-class="Icon Stroke SceneTarget" data-item-index="0" data-renderer-id="0" transform="translate(218, 22)"></g><g id="g-root-user_v991ad1rb83y8-fill" data-item-order="0" data-item-id="user_v991ad1rb83y8" data-item-class="Icon Stroke SceneTarget Indexed InsideFill" data-item-index="2" data-renderer-id="0" transform="translate(380, 22)"></g><g id="g-root-tx_traditio_4gpqrp1rb5a16-fill" data-item-order="0" data-item-id="tx_traditio_4gpqrp1rb5a16" data-item-class="Label Stroke SceneTarget Indexed Indexed_1 ColorFillBlack ColorStrokeBlack" data-item-index="1" data-renderer-id="0" transform="translate(14, 124)"><g id="tx_traditio_4gpqrp1rb5a16-fill" stroke="none" fill="#484848"><g><text style="font: bold 20px &quot;Shantell Sans&quot;, cursive; white-space: pre;"><tspan x="13.2" y="35.33" dominant-baseline="ideographic">Traditional AI</tspan></text></g></g></g><g id="g-root-tx_multimod_hs69511rb58g8-fill" data-item-order="0" data-item-id="tx_multimod_hs69511rb58g8" data-item-class="Label Stroke SceneTarget Indexed ColorFillBlack ColorStrokeBlack" data-item-index="2" data-renderer-id="0" transform="translate(332, 124)"><g id="tx_multimod_hs69511rb58g8-fill" stroke="none" fill="#484848"><g><text style="font: bold 20px &quot;Shantell Sans&quot;, cursive; white-space: pre;"><tspan x="17.06" y="35.33" dominant-baseline="ideographic">Multimodal AI</tspan></text></g></g></g><g id="g-root-tx_singleda_4gpqrp1rb5a15-fill" data-item-order="0" data-item-id="tx_singleda_4gpqrp1rb5a15" data-item-class="Label Stroke SceneTarget Indexed Indexed_1" data-item-index="1" data-renderer-id="0" transform="translate(2, 160)"><g id="tx_singleda_4gpqrp1rb5a15-fill" stroke="none" fill="#484848"><g><text style="font: 20px &quot;Shantell Sans&quot;, cursive; white-space: pre;"><tspan x="16.79" y="35.33" dominant-baseline="ideographic">Single data focus</tspan></text></g></g></g><g id="g-root-tx_integrat_v30af91rb5a13-fill" data-item-order="0" data-item-id="tx_integrat_v30af91rb5a13" data-item-class="Label Stroke SceneTarget Indexed" data-item-index="2" data-renderer-id="0" transform="translate(296, 160)"><g id="tx_integrat_v30af91rb5a13-fill" stroke="none" fill="#484848"><g><text style="font: 20px &quot;Shantell Sans&quot;, cursive; white-space: pre;"><tspan x="14.35" y="35.33" dominant-baseline="ideographic">Integrates diverse data</tspan></text></g></g></g><g id="g-root-2.cr-2_cr_zitsjp1rb598u-stroke" data-item-order="-46652" data-item-id="2.cr-2_cr_zitsjp1rb598u" data-item-class="Shape Stroke Fill ScenePart Part Indexed" data-item-index="2" data-renderer-id="0" transform="translate(362, 4)"><g id="2.cr-2_cr_zitsjp1rb598u-stroke" fill="none" stroke-linecap="round" stroke-linejoin="round" stroke-miterlimit="4" stroke="#484848" stroke-width="4"><g><path d="M 10 64C 10.3 93.8 34.2 119.7 64 118C 78 117.2 90.5 112.2 100.5 103.8C 111.6 94.4 118.6 79.8 118 64C 117.5 50.3 112.7 38 104.5 28.2C 94.8 16.8 80.1 10.4 64 10C 34.2 9.3 10.2 34.2 10 64"></path><path d="M 10 64C 10 93.823377 34.176624 118 64 118C 93.823377 118 118 93.823377 118 64C 118 34.176624 93.823377 10 64 10C 34.176624 10 10 34.176624 10 64"></path></g></g></g><g id="g-root-1.cr-1_cr_18egssl1rb58g5-stroke" data-item-order="-46650" data-item-id="1.cr-1_cr_18egssl1rb58g5" data-item-class="Shape Stroke Fill ScenePart Part Indexed Indexed_1" data-item-index="1" data-renderer-id="0" transform="translate(38, 4)"><g id="1.cr-1_cr_18egssl1rb58g5-stroke" fill="none" stroke-linecap="round" stroke-linejoin="round" stroke-miterlimit="4" stroke="#484848" stroke-width="4"><g><path d="M 10 64C 11.4 93.8 34.2 117.1 64 118C 93.8 118.9 118.3 93.8 118 64C 117.6 34.2 93.8 9.8 64 10C 47.7 10.1 31.9 16.4 23.1 28.7C 15.9 38.9 11 50.5 10 64"></path><path d="M 10 64C 10 93.823377 34.176624 118 64 118C 93.823377 118 118 93.823377 118 64C 118 34.176624 93.823377 10 64 10C 34.176624 10 10 34.176624 10 64"></path></g></g></g><g id="g-root-robo_1d0j1s51rb81l3-stroke" data-item-order="0" data-item-id="robo_1d0j1s51rb81l3" data-item-class="Icon Stroke SceneTarget Indexed Indexed_1 InsideFill" data-item-index="1" data-renderer-id="0" transform="translate(56, 22)"><g id="robo_1d0j1s51rb81l3-stroke" fill="none" stroke-linecap="round" stroke-linejoin="round" stroke-miterlimit="4" stroke="#484848" stroke-width="2"><g><path d="M 28 11.5C 39.400002 8.2 52.300003 13.6 64 11.5C 64 11.5 68.199997 11.5 68.5 16C 68.800003 22 69.699997 28 68.5 34C 68.5 34 68.5 38.199997 64 38.5C 52 39.400002 39.699997 41.5 28 38.5C 28 38.5 24.400002 38.5 23.5 34C 22.299999 28 22.900002 22 23.5 16C 23.5 16 23.5 10.9 28 11.5M 29.5 25C 30.099998 27.400002 31.599998 29.200001 34 29.5C 36.400002 29.799999 38.5 27.400002 38.5 25C 38.5 22.599998 36.400002 21.4 34 20.5C 31.599998 19.6 29.5 22.599998 29.5 25M 53.5 25C 52.900002 27.400002 55.599998 29.5 58 29.5C 60.399998 29.5 62.5 27.400002 62.5 25C 62.5 22.599998 60.399998 20.5 58 20.5C 55.599998 20.5 53.199997 22.599998 53.5 25M 41.5 44.5C 44.5 44.199997 47.800003 45.699997 50.5 44.5M 41.5 50.5C 44.5 49.900002 47.5 49.599998 50.5 50.5M 55.900002 56.5C 49.599998 55.300003 42.699997 56.199997 36.099998 56.5C 32.799999 56.5 28.599998 57.400002 27.400002 60.699997C 26.200001 63.699997 24.400002 66.699997 25.299999 69.699997C 25.299999 73 25.599998 76.300003 26.799999 79.300003C 26.799999 79.899994 27.400002 80.5 28 80.5C 39.699997 82.899994 52.300003 77.5 64 80.5C 64.600006 80.800003 65.199997 79.899994 65.5 79.300003C 66.100006 76.300003 67.300003 73 67 69.699997C 67.899994 66.699997 67 63.100002 64.600006 60.399998C 62.5 58 59.199997 57.699997 55.900002 56.5M 67 66.399994C 69.100006 65.199997 70 62.5 72.100006 61.600002C 76 59.800003 76.300003 54.699997 76 50.5M 79 38.5C 80.199997 41.199997 81.699997 44.199997 79.600006 46.300003C 77.800003 48.400002 75.699997 49.599998 73 50.5C 70.899994 51.400002 68.5 49.300003 67 47.5M 25 66.399994C 23.200001 64.899994 22 62.5 19.9 61.600002C 16.9 58.300003 15.7 54.699997 16 50.5C 16 50.199997 16 50.199997 16 49.900002M 13 38.5C 11.2 40.900002 11.5 43.599998 12.4 46.300003C 13 49 16.299999 49.900002 19 50.5C 21.4 51.099998 23.200001 49 25 47.5M 58 80.5C 57.699997 76 59.199997 71.5 58 67C 57.699997 66.100006 57.400002 65.800003 56.5 65.5C 49.900002 63.100002 42.400002 66.399994 35.5 65.5C 34.599998 65.5 33.700001 66.100006 34 67C 35.5 71.199997 35.800003 76.300003 34 80.5"></path><path d="M 28 11.5L 64 11.5C 64 11.5 68.5 11.5 68.5 16L 68.5 34C 68.5 34 68.5 38.5 64 38.5L 28 38.5C 28 38.5 23.5 38.5 23.5 34L 23.5 16C 23.5 16 23.5 11.5 28 11.5M 29.5 25C 29.5 27.485283 31.514719 29.5 34 29.5C 36.485283 29.5 38.5 27.485283 38.5 25C 38.5 22.514719 36.485283 20.5 34 20.5C 31.514719 20.5 29.5 22.514719 29.5 25M 53.5 25C 53.5 27.485283 55.514721 29.5 58 29.5C 60.485283 29.5 62.5 27.485283 62.5 25C 62.5 22.514719 60.485283 20.5 58 20.5C 55.514721 20.5 53.5 22.514719 53.5 25M 41.5 44.5L 50.5 44.5M 41.5 50.5L 50.5 50.5M 56.02 56.5L 35.98 56.5C 32.661442 56.498268 29.52013 57.99752 27.434277 60.578617C 25.348423 63.159718 24.541832 66.545715 25.240002 69.790009L 26.650002 79.300003C 26.781635 80.005051 27.402866 80.512184 28.119999 80.5L 64 80.5C 64.717133 80.512184 65.338371 80.005051 65.470001 79.300003L 66.879997 69.790001C 67.582848 66.525047 66.76149 63.117683 64.648224 60.531559C 62.534958 57.945431 59.359535 56.461708 56.020004 56.500004ZM 67 66.340004L 72.129997 61.510002C 75.43737 58.89489 76.943726 54.609367 76.000008 50.500004L 76 49.93M 79 38.5C 80.704475 40.772633 80.978645 43.813225 79.708206 46.354103C 78.437759 48.894981 75.84079 50.5 73 50.5C 70.638199 50.504745 68.413284 49.392288 67 47.500004M 25 66.340004L 19.93 61.510002C 16.600441 58.909267 15.069838 54.621239 16 50.500004L 16 49.900002M 13 38.5C 11.295526 40.772633 11.021356 43.813225 12.291796 46.354103C 13.562236 48.894981 16.15921 50.5 19 50.5C 21.361797 50.504745 23.586718 49.392288 25 47.500004M 58 80.5L 58 67C 58 66.17157 57.328426 65.5 56.5 65.5L 35.5 65.5C 34.671574 65.5 34 66.17157 34 67L 34 80.5"></path></g></g></g><g id="g-root-ligh_hyf0051rb82dd-stroke" data-item-order="0" data-item-id="ligh_hyf0051rb82dd" data-item-class="Icon Stroke SceneTarget" data-item-index="0" data-renderer-id="0" transform="translate(218, 22)"><g id="ligh_hyf0051rb82dd-stroke" fill="none" stroke-linecap="round" stroke-linejoin="round" stroke-miterlimit="4" stroke="#484848" stroke-width="2"><g><path d="M 43.75 60.25C 42.400002 65.199997 42.699997 70.449997 41.800003 75.399994C 41.5 76.899994 43.300003 77.5 44.349998 76.600006C 47.5 73.899994 50.199997 68.199997 54.849998 63.850002M 69.850006 45.550003C 71.800003 44.199997 73 42.25 73.75 40.75C 74.350006 39.699997 73.75 38.199997 72.550003 38.349998C 71.5 38.5 70.300003 38.650002 69.100006 38.349998M 25.150002 52.900002C 23.200001 52.599998 21.25 53.349998 19.450001 52.900002C 18.25 52.599998 17.65 51.550003 18.4 50.5C 19.75 48.550003 21.25 46.900002 22.75 45.099998M 35.050003 30.400002C 40.75 25.599998 44.949997 19.450001 47.5 15.4C 48.400002 14.2 50.5 15.1 50.199997 16.6C 49.449997 20.65 48.400002 24.700001 48.550003 28.900002M 40.900002 54.849998C 43.300003 48.550003 46.900002 42.099998 46.75 35.349998C 46.599998 34.300003 46.300003 33.549999 45.25 33.400002C 44.349998 33.25 43.300003 33.549999 42.400002 33.400002C 41.800003 33.25 41.050003 33.849998 41.050003 34.449997C 40.300003 40 38.199997 45.25 36.400002 50.349998C 36.25 50.800003 35.800003 50.800003 35.650002 50.349998C 33.549999 45.25 30.700001 40 31.450001 34.449997C 31.450001 33.849998 30.700001 33.099998 29.950001 33.400002C 29.049999 33.700001 27.849998 33.099998 26.950001 33.400002C 26.049999 33.700001 25.299999 34.300003 25.599998 35.349998C 27.099998 41.949997 31.599998 48.099998 31.150002 54.699997C 31 56.800003 33.549999 58.449997 35.5 58C 35.800003 58 36.25 58 36.550003 58C 38.5 58.600002 39.849998 56.5 40.900002 54.849998M 56.050003 52.900002C 54.699997 52.900002 53.199997 52.900002 52.150002 52.300003C 51.25 51.849998 50.349998 52.599998 49.900002 53.5C 49.599998 54.099998 49.75 55 49.449997 55.599998C 49.300003 56.199997 49.75 56.800003 50.349998 57.099998C 51.550003 57.849998 53.800003 58.75 55.75 58C 61.899998 55.900002 64.899994 54.550003 65.5 50.349998C 65.949997 47.349998 63.699997 45.25 59.800003 43.300003C 56.949997 41.800003 55.75 41.5 55.75 40.300003C 55.599998 39.25 56.800003 38.050003 58.75 38.5C 59.800003 38.650002 60.699997 38.800003 61.600002 38.800003C 62.5 38.949997 63.850002 38.650002 63.699997 37.75C 63.699997 37 64 36.25 64.300003 35.650002C 64.600006 35.050003 64.149994 34 63.399998 34C 62.050003 34 60.550003 33.25 58.75 33.400002C 52.75 33.700001 49.300003 36.699997 49.449997 40.900002C 49.599998 43.900002 52.449997 44.949997 55.599998 47.949997C 57.699997 49.75 59.050003 49.75 59.199997 50.800003C 59.350002 52.150002 58 53.5 56.050003 52.900002"></path><path d="M 43.7155 60.25L 41.78965 75.448456C 41.6017 76.932404 43.444153 77.732651 44.395 76.57795C 47.01955 73.3909 50.811699 68.769402 54.856899 63.833954M 69.831848 45.546398C 71.379852 43.654751 72.706451 42.033249 73.705299 40.812103C 74.506447 39.832748 73.809097 38.36335 72.543854 38.36335L 69.158348 38.36335M 25.079649 52.911999L 19.49548 52.911999C 18.223511 52.911999 17.52829 51.428951 18.342926 50.452148L 22.779266 45.132549M 35.112999 30.346449C 39.87685 24.636566 44.504349 19.091724 47.564949 15.428576C 48.525852 14.278646 50.384201 15.095304 50.190849 16.581249L 48.589302 28.888599M 40.897453 54.801849L 46.692249 35.308601C 46.978149 34.346951 46.257702 33.3811 45.254501 33.3811L 42.439301 33.3811C 41.771049 33.3811 41.18335 33.823151 40.9981 34.465149L 36.3946 50.412849C 36.289299 50.77795 35.77 50.772701 35.67205 50.405647L 31.4233 34.494099C 31.2481 33.8377 30.6535 33.3811 29.97415 33.3811L 26.994999 33.3811C 25.99645 33.3811 25.276749 34.338249 25.553949 35.297501L 31.17985 54.7687C 31.7362 56.694099 33.498852 58.019501 35.503002 58.019501L 36.584049 58.019501C 38.575451 58.019501 40.329998 56.710602 40.897453 54.801849ZM 55.995251 52.8979C 54.671501 52.8979 53.315948 52.649349 52.157799 52.296249C 51.212952 52.008099 50.137451 52.530552 49.935249 53.497299L 49.494553 55.60405C 49.356548 56.263451 49.675148 56.93755 50.312199 57.156551C 51.677353 57.6259 53.664398 58.020248 55.7164 58.020248C 62.197296 58.020248 65.500153 54.6562 65.500153 50.398453C 65.500153 47.324951 63.797348 44.9491 59.738503 43.285149C 56.776901 42.0355 55.727348 41.490551 55.727348 40.328049C 55.727348 39.259899 56.758598 38.467899 58.703651 38.467899C 59.83075 38.467899 60.802898 38.636799 61.608551 38.862099C 62.52655 39.118752 63.545498 38.638149 63.765404 37.710701L 64.243744 35.694248C 64.408752 34.998253 64.061646 34.273598 63.381096 34.053402C 62.162048 33.658901 60.618248 33.381851 58.743996 33.381851C 52.776852 33.381851 49.470402 36.687851 49.470402 40.843899C 49.470402 43.873749 51.5695 46.227848 55.602547 47.924351C 58.15675 48.945248 59.221001 49.66465 59.221001 50.874397C 59.221001 52.084152 58.112801 52.8979 55.995251 52.8979Z"></path></g></g></g><g id="g-root-user_v991ad1rb83y8-stroke" data-item-order="0" data-item-id="user_v991ad1rb83y8" data-item-class="Icon Stroke SceneTarget Indexed InsideFill" data-item-index="2" data-renderer-id="0" transform="translate(380, 22)"><g id="user_v991ad1rb83y8-stroke" fill="none" stroke-linecap="round" stroke-linejoin="round" stroke-miterlimit="4" stroke="#484848" stroke-width="2"><g><path d="M 43 47.5C 33.400002 45.400002 24.099998 39.400002 25 29.5C 25.900002 19.6 33.400002 9.1 43 11.5C 39.400002 22.900002 42.699997 35.5 43 47.5M 14.5 80.5C 13.9 64.899994 27.700001 55.599998 43 52C 40.900002 61.300003 46.300003 71.5 43 80.5C 33.400002 80.800003 23.5 77.800003 14.5 80.5M 49 47.5C 49.900002 47.800003 51.099998 47.199997 52 47.199997C 52 45.699997 51.699997 44.199997 52 42.699997C 53.5 42.699997 55 41.800003 56.199997 40.900002C 56.800003 42.400002 58.899998 42.699997 59.5 44.199997C 61.300003 43.300003 62.800003 41.800003 63.699997 40C 62.5 38.800003 61.600002 37.900002 60.399998 36.699997C 61.600002 35.800003 62.199997 34 62.199997 32.5C 63.699997 32.799999 65.199997 32.5 66.699997 32.5C 67.300003 31.599998 66.699997 30.400002 67 29.5C 67.300003 28.599998 67 27.400002 66.699997 26.5C 65.199997 26.5 63.699997 26.5 62.199997 26.5C 61.300003 25.299999 61.300003 23.5 60.399998 22.299999C 61.300003 21.1 62.5 19.9 63.699997 19C 62.800003 17.200001 61 16 59.5 14.8C 58.300003 15.7 57.400002 17.200001 56.199997 18.1C 55 16.9 53.5 16.299999 52 16.299999C 52.599998 14.8 51.699997 13.3 52 11.8C 51.099998 11.8 49.900002 11.8 49 11.5M 49 23.5C 52.300003 24.099998 54.099998 26.200001 55 29.5C 55.900002 32.799999 52.300003 35.199997 49 35.5M 77.5 80.5C 76.899994 79 77.199997 77.5 77.199997 76C 75.100006 76 73 76.600006 70.899994 76C 71.199997 73.899994 69.399994 72.399994 69.100006 70.300003C 70.899994 69.399994 72.100006 67.600006 73.600006 66.100006C 71.800003 62.5 68.800003 59.5 65.199997 57.099998C 64.600006 58.899998 62.5 60.100002 61 61.600002C 59.5 59.800003 56.800003 60.100002 55 58.899998C 54.400002 56.800003 55.300003 54.699997 55 52.599998C 52.900002 52.900002 51.099998 52 49 52M 49 68.5C 55.599998 67.600006 61 73.899994 61 80.5"></path><path d="M 43 47.5C 33.058876 47.5 25.000002 39.441124 25.000002 29.5C 25.000002 19.558876 33.058876 11.500001 43 11.500001ZM 14.5 80.5C 14.5 64.759888 27.259884 52 43 52L 43 80.5ZM 49 47.5C 50.005791 47.493977 51.0093 47.40366 52 47.230003L 52 42.639999C 53.475578 42.301502 54.882706 41.7141 56.160995 40.903L 59.418999 44.160999C 61.060074 42.993942 62.493942 41.560078 63.660995 39.918999L 60.399998 36.660999C 61.212151 35.382912 61.800571 33.975769 62.139999 32.5L 66.729996 32.5C 66.903656 31.5093 66.993973 30.505789 67 29.5C 66.993973 28.494213 66.903656 27.4907 66.729996 26.5L 62.139999 26.5C 61.800571 25.024229 61.212151 23.617088 60.399998 22.339001L 63.657997 19.080999C 62.490944 17.439922 61.057076 16.00606 59.416 14.839L 56.160999 18.1C 54.882908 17.287846 53.475769 16.699425 51.999996 16.360001L 52 11.77C 51.0093 11.596341 50.005791 11.506025 49 11.5M 49 23.5C 52.313709 23.5 55 26.186291 55 29.5C 55 32.813709 52.313709 35.5 49 35.5M 77.5 80.5C 77.489174 78.992043 77.358765 77.487328 77.110001 75.999992L 71.047005 76C 70.646172 74.053734 69.986298 72.169968 69.085007 70.399002L 73.498001 65.988998C 71.433586 62.505882 68.653313 59.500648 65.341003 57.172005L 61.014999 61.500999C 59.158104 60.319786 57.136032 59.420979 55.014999 58.834L 55.014999 52.645C 53.038403 52.218197 51.022152 52.001987 49 52M 49 68.5C 55.627419 68.5 61 73.872581 61 80.5"></path></g></g></g><g id="g-root-tx_traditio_4gpqrp1rb5a16-stroke" data-item-order="0" data-item-id="tx_traditio_4gpqrp1rb5a16" data-item-class="Label Stroke SceneTarget Indexed Indexed_1 ColorFillBlack ColorStrokeBlack" data-item-index="1" data-renderer-id="0" transform="translate(14, 124)"></g><g id="g-root-tx_multimod_hs69511rb58g8-stroke" data-item-order="0" data-item-id="tx_multimod_hs69511rb58g8" data-item-class="Label Stroke SceneTarget Indexed ColorFillBlack ColorStrokeBlack" data-item-index="2" data-renderer-id="0" transform="translate(332, 124)"></g><g id="g-root-tx_singleda_4gpqrp1rb5a15-stroke" data-item-order="0" data-item-id="tx_singleda_4gpqrp1rb5a15" data-item-class="Label Stroke SceneTarget Indexed Indexed_1" data-item-index="1" data-renderer-id="0" transform="translate(2, 160)"></g><g id="g-root-tx_integrat_v30af91rb5a13-stroke" data-item-order="0" data-item-id="tx_integrat_v30af91rb5a13" data-item-class="Label Stroke SceneTarget Indexed" data-item-index="2" data-renderer-id="0" transform="translate(296, 160)"></g></g></g></svg>