<?xml version="1.0" encoding="utf-8" standalone="yes"?>
<!DOCTYPE svg PUBLIC "-//W3C//DTD SVG 1.1//EN" "http://www.w3.org/Graphics/SVG/1.1/DTD/svg11.dtd">
<svg width="533" height="400" viewBox="0 0 533 400" style="fill:none;stroke:none;fill-rule:evenodd;clip-rule:evenodd;stroke-linecap:round;stroke-linejoin:round;stroke-miterlimit:1.5;" version="1.1" xmlns="http://www.w3.org/2000/svg" xmlns:xlink="http://www.w3.org/1999/xlink"><style id="fontImports">@import url("https://fonts.googleapis.com/css2?family=Shantell+Sans:wght@300..800&amp;display=block");</style><rect id="" x="0" y="0" width="532" height="400" style="fill: #ffffff;"></rect><g id="items" style="isolation: isolate"><g id="blend" style="mix-blend-mode:multiply"><g id="g-root-3.cu_sy_m97qol1s4wzk2-fill" data-item-order="-187483" data-item-id="3.cu_sy_m97qol1s4wzk2" data-item-class="ScenePart Part Indexed Stroke ColorStrokeBlack" data-item-index="3" data-renderer-id="0" transform="translate(4, 111.99899291992188)"></g><g id="g-root-2.cu_sy_qoerpx1s4x1xl-fill" data-item-order="-187481" data-item-id="2.cu_sy_qoerpx1s4x1xl" data-item-class="ScenePart Part Indexed Stroke ColorStrokeBlack" data-item-index="2" data-renderer-id="0" transform="translate(256.00048828125, 4)"></g><g id="g-root-1.cu_sy_zk1ryt1s4x14w-fill" data-item-order="-187480" data-item-id="1.cu_sy_zk1ryt1s4x14w" data-item-class="ScenePart Part Indexed Indexed_1 Fill Stroke ColorStrokeBlack" data-item-index="1" data-renderer-id="0" transform="translate(226.00048828125, 28)"><g id="1.cu_sy_zk1ryt1s4x14w-fill" stroke="none" fill="none"><g><path d="M 10 34L 28 10L 28 18L 52 18L 52 10L 70 34L 52 58L 52 50L 28 50L 28 58L 10 34Z"></path></g></g></g><g id="g-root-tx_pros_qs5m8l1s4wzyb-fill" data-item-order="0" data-item-id="tx_pros_qs5m8l1s4wzyb" data-item-class="Label Stroke SceneTarget ColorStrokeBlack" data-item-index="none" data-renderer-id="0" transform="translate(64.00048828125, 40)"><g id="tx_pros_qs5m8l1s4wzyb-fill" stroke="none" fill="#484848"><g><text style="font: 20px &quot;Shantell Sans&quot;, cursive; white-space: pre;"><tspan x="12" y="35.33" dominant-baseline="ideographic">Pros</tspan></text></g></g></g><g id="g-root-tx_cons_v7cn9x1s4x2bu-fill" data-item-order="0" data-item-id="tx_cons_v7cn9x1s4x2bu" data-item-class="Label Stroke SceneTarget ColorStrokeBlack" data-item-index="none" data-renderer-id="0" transform="translate(364.00048828125, 40)"><g id="tx_cons_v7cn9x1s4x2bu-fill" stroke="none" fill="#484848"><g><text style="font: 20px &quot;Shantell Sans&quot;, cursive; white-space: pre;"><tspan x="12" y="35.33" dominant-baseline="ideographic">Cons</tspan></text></g></g></g><g id="g-root-net_93zz6d1s4zv2l-fill" data-item-order="0" data-item-id="net_93zz6d1s4zv2l" data-item-class="Icon Stroke SceneTarget Indexed Indexed_1 ColorStrokeBlack" data-item-index="1" data-renderer-id="0" transform="translate(4.00048828125, 148)"></g><g id="g-root-tx_richerin_18it5n91s4x0qx-fill" data-item-order="0" data-item-id="tx_richerin_18it5n91s4x0qx" data-item-class="Label Stroke SceneTarget Indexed Indexed_1 ColorStrokeBlack" data-item-index="1" data-renderer-id="0" transform="translate(64.00048828125, 148)"><g id="tx_richerin_18it5n91s4x0qx-fill" stroke="none" fill="#484848"><g><text style="font: 20px &quot;Shantell Sans&quot;, cursive; white-space: pre;"><tspan x="12" y="35.33" dominant-baseline="ideographic">Richer </tspan><tspan x="12" y="59.33" dominant-baseline="ideographic">insights</tspan></text></g></g></g><g id="g-root-fold_18lxj2t1s4zu9u-fill" data-item-order="0" data-item-id="fold_18lxj2t1s4zu9u" data-item-class="Icon Stroke SceneTarget Indexed ColorStrokeBlack" data-item-index="101" data-renderer-id="0" transform="translate(304.00048828125, 148)"></g><g id="g-root-tx_largedat_detolx1s4x2iu-fill" data-item-order="0" data-item-id="tx_largedat_detolx1s4x2iu" data-item-class="Label Stroke SceneTarget Indexed ColorStrokeBlack" data-item-index="101" data-renderer-id="0" transform="translate(364.00048828125, 148)"><g id="tx_largedat_detolx1s4x2iu-fill" stroke="none" fill="#484848"><g><text style="font: 20px &quot;Shantell Sans&quot;, cursive; white-space: pre;"><tspan x="12" y="35.33" dominant-baseline="ideographic">Large data </tspan><tspan x="12" y="59.33" dominant-baseline="ideographic">requirements</tspan></text></g></g></g><g id="g-root-doct_mfghjp1s4ztho-fill" data-item-order="0" data-item-id="doct_mfghjp1s4ztho" data-item-class="Icon Stroke SceneTarget Indexed ColorStrokeBlack" data-item-index="2" data-renderer-id="0" transform="translate(4.00048828125, 232)"></g><g id="g-root-tx_accurate_1ltn6xh1s4x2bs-fill" data-item-order="0" data-item-id="tx_accurate_1ltn6xh1s4x2bs" data-item-class="Label Stroke SceneTarget Indexed ColorStrokeBlack" data-item-index="2" data-renderer-id="0" transform="translate(64.00048828125, 232)"><g id="tx_accurate_1ltn6xh1s4x2bs-fill" stroke="none" fill="#484848"><g><text style="font: 20px &quot;Shantell Sans&quot;, cursive; white-space: pre;"><tspan x="12" y="35.33" dominant-baseline="ideographic">Accurate </tspan><tspan x="12" y="59.33" dominant-baseline="ideographic">diagnoses</tspan></text></g></g></g><g id="g-root-4_1lxe1g51s4zsox-fill" data-item-order="0" data-item-id="4_1lxe1g51s4zsox" data-item-class="Icon Stroke SceneTarget Indexed ColorStrokeBlack" data-item-index="102" data-renderer-id="0" transform="translate(304.00048828125, 232)"></g><g id="g-root-tx_integrat_v63p3p1s4x05p-fill" data-item-order="0" data-item-id="tx_integrat_v63p3p1s4x05p" data-item-class="Label Stroke SceneTarget Indexed ColorStrokeBlack" data-item-index="102" data-renderer-id="0" transform="translate(364.00048828125, 232)"><g id="tx_integrat_v63p3p1s4x05p-fill" stroke="none" fill="#484848"><g><text style="font: 20px &quot;Shantell Sans&quot;, cursive; white-space: pre;"><tspan x="12" y="35.33" dominant-baseline="ideographic">Integration </tspan><tspan x="12" y="59.33" dominant-baseline="ideographic">complexity</tspan></text></g></g></g><g id="g-root-6_zqaitx1s4zv2j-fill" data-item-order="0" data-item-id="6_zqaitx1s4zv2j" data-item-class="Icon Stroke SceneTarget Indexed ColorStrokeBlack" data-item-index="3" data-renderer-id="0" transform="translate(4.00048828125, 316)"></g><g id="g-root-tx_complext_3znbp1s4x0xz-fill" data-item-order="0" data-item-id="tx_complext_3znbp1s4x0xz" data-item-class="Label Stroke SceneTarget Indexed ColorStrokeBlack" data-item-index="3" data-renderer-id="0" transform="translate(64.00048828125, 316)"><g id="tx_complext_3znbp1s4x0xz-fill" stroke="none" fill="#484848"><g><text style="font: 20px &quot;Shantell Sans&quot;, cursive; white-space: pre;"><tspan x="12" y="35.33" dominant-baseline="ideographic">Complex task </tspan><tspan x="12" y="59.33" dominant-baseline="ideographic">performance</tspan></text></g></g></g><g id="g-root-boxe_18k23th1s4zv9k-fill" data-item-order="0" data-item-id="boxe_18k23th1s4zv9k" data-item-class="Icon Stroke SceneTarget Indexed ColorStrokeBlack" data-item-index="103" data-renderer-id="0" transform="translate(304.00048828125, 316)"></g><g id="g-root-tx_training_18gxqdx1s4x1qk-fill" data-item-order="0" data-item-id="tx_training_18gxqdx1s4x1qk" data-item-class="Label Stroke SceneTarget Indexed ColorStrokeBlack" data-item-index="103" data-renderer-id="0" transform="translate(364.00048828125, 316)"><g id="tx_training_18gxqdx1s4x1qk-fill" stroke="none" fill="#484848"><g><text style="font: 20px &quot;Shantell Sans&quot;, cursive; white-space: pre;"><tspan x="12" y="35.33" dominant-baseline="ideographic">Training </tspan><tspan x="12" y="59.33" dominant-baseline="ideographic">challenges</tspan></text></g></g></g><g id="g-root-3.cu_sy_m97qol1s4wzk2-stroke" data-item-order="-187483" data-item-id="3.cu_sy_m97qol1s4wzk2" data-item-class="ScenePart Part Indexed Stroke ColorStrokeBlack" data-item-index="3" data-renderer-id="0" transform="translate(4, 111.99899291992188)"><g id="3.cu_sy_m97qol1s4wzk2-stroke" fill="none" stroke-linecap="round" stroke-linejoin="round" stroke-miterlimit="4" stroke="#484848" stroke-width="4"><g><path d="M 514 10C 501 9.4 487.9 9.4 474.9 10C 459.7 10.7 444.5 10.5 429.2 10C 414.8 9.5 400.4 11 386 10C 371.7 9 357.1 8.1 342.9 10C 328.8 11.9 314.3 8.1 300.2 10C 286.9 11.8 273.4 10.6 260 10C 245.4 9.4 230.8 9.8 216.1 10C 202.2 10.2 188.1 8.1 174.3 10C 162 11.7 149.5 8.7 137.2 10C 122.2 11.6 107 11 92 10C 79.7 9.2 67.3 10.7 55 10C 40 9.2 25 10.7 10 10"></path><path d="M 514.0005 10.000007L 10 10.001007"></path></g></g></g><g id="g-root-2.cu_sy_qoerpx1s4x1xl-stroke" data-item-order="-187481" data-item-id="2.cu_sy_qoerpx1s4x1xl" data-item-class="ScenePart Part Indexed Stroke ColorStrokeBlack" data-item-index="2" data-renderer-id="0" transform="translate(256.00048828125, 4)"><g id="2.cu_sy_qoerpx1s4x1xl-stroke" fill="none" stroke-linecap="round" stroke-linejoin="round" stroke-miterlimit="4" stroke="#484848" stroke-width="4"><g><path d="M 10 298C 8.2 270.1 10.7 242 10 214M 10 382C 10.2 367 9.6 352.1 10 337.1C 10.3 324.1 11.5 311 10 298M 10 214C 8 199 10.7 183.6 10 168.5C 9.2 151.7 11.6 134.8 10 118M 10 118C 9.4 105.4 8.7 92.6 10 80M 10 36C 10.7 27.4 10.7 18.6 10 10"></path><path d="M 10 298L 10 214M 10 382L 10 298M 10 214L 10 118M 10 118L 10 80M 10 36L 10 10"></path></g></g></g><g id="g-root-1.cu_sy_zk1ryt1s4x14w-stroke" data-item-order="-187480" data-item-id="1.cu_sy_zk1ryt1s4x14w" data-item-class="ScenePart Part Indexed Indexed_1 Fill Stroke ColorStrokeBlack" data-item-index="1" data-renderer-id="0" transform="translate(226.00048828125, 28)"><g id="1.cu_sy_zk1ryt1s4x14w-stroke" fill="none" stroke-linecap="round" stroke-linejoin="round" stroke-miterlimit="4" stroke="#484848" stroke-width="4"><g><path d="M 10 34C 14.4 25 21.4 17.5 28 10C 27.6 12.6 27.4 15.4 28 18C 35.9 16.9 44.1 17 52 18C 52.8 15.4 51.5 12.6 52 10C 57.5 18.3 64.5 25.6 70 34C 64.5 42.4 59.4 51.3 52 58C 52.7 55.4 51.4 52.6 52 50C 44 50 35.9 48.5 28 50C 28.4 52.6 28 55.3 28 58C 22.6 49.6 16.8 41.3 10 34"></path><path d="M 10 34L 28 10L 28 18L 52 18L 52 10L 70 34L 52 58L 52 50L 28 50L 28 58L 10 34Z"></path></g></g><g id="1.cu_sy_zk1ryt1s4x14w-stroke" fill="none" stroke-linecap="round" stroke-linejoin="round" stroke-miterlimit="4" stroke="#484848" stroke-width="4"><g><path d="M 30.6 28.4C 33.1 31.5 34 35.6 35 39.5M 35.2 39.1C 37.2 35.9 38.9 32.4 39.6 28.7M 49.4 30.2C 49 30 48.7 29.7 48.4 29.4C 48 28.7 46.8 28.9 45.5 28.8C 44.2 28.7 43.7 29.6 43.4 30.7C 43 31.8 44.3 32.8 46.3 33.9C 48.1 35.4 49.3 36 49.4 37.3C 49.6 38.5 48.6 39.7 47.1 39.6C 45.5 39.7 44.4 39.4 43.9 38.5C 43.5 38.2 43.3 37.6 43 37.2"></path><path d="M 30.599 28.373L 34.999 39.48M 35.199 39.097L 39.599 28.66M 49.399 30.192C 49.065 29.937 48.732 29.682 48.399 29.426C 47.799 28.852 46.832 28.628 45.499 28.756C 44.165 28.884 43.465 29.522 43.399 30.671C 43.265 31.82 44.232 32.905 46.299 33.927C 48.432 34.884 49.465 36.001 49.399 37.278C 49.399 38.555 48.632 39.321 47.099 39.576C 45.499 39.767 44.432 39.416 43.899 38.523C 43.565 38.076 43.265 37.629 42.999 37.182"></path></g></g></g><g id="g-root-tx_pros_qs5m8l1s4wzyb-stroke" data-item-order="0" data-item-id="tx_pros_qs5m8l1s4wzyb" data-item-class="Label Stroke SceneTarget ColorStrokeBlack" data-item-index="none" data-renderer-id="0" transform="translate(64.00048828125, 40)"></g><g id="g-root-tx_cons_v7cn9x1s4x2bu-stroke" data-item-order="0" data-item-id="tx_cons_v7cn9x1s4x2bu" data-item-class="Label Stroke SceneTarget ColorStrokeBlack" data-item-index="none" data-renderer-id="0" transform="translate(364.00048828125, 40)"></g><g id="g-root-net_93zz6d1s4zv2l-stroke" data-item-order="0" data-item-id="net_93zz6d1s4zv2l" data-item-class="Icon Stroke SceneTarget Indexed Indexed_1 ColorStrokeBlack" data-item-index="1" data-renderer-id="0" transform="translate(4.00048828125, 148)"><g id="net_93zz6d1s4zv2l-stroke" fill="none" stroke-linecap="round" stroke-linejoin="round" stroke-miterlimit="4" stroke="#484848" stroke-width="2"><g><path d="M 18 13C 28.6 14.6 39.400002 13.4 50 13C 50 13 54.599998 13 54 17C 52.400002 28.200001 55.799999 39.799999 54 51C 54 51 54 54.200001 50 55C 39.599998 57.200001 28.6 54.599998 18 55C 18 55 13.6 55 14 51C 15.2 39.799999 16.799999 28 14 17C 14 17 14.2 11.8 18 13M 14 39C 16.4 36.200001 18.4 33 21.4 31C 22.799999 29.200001 25.4 29 27.6 29.799999C 28.4 30.4 29.6 30.4 30.4 31C 32.200001 32.599998 35.200001 31.799999 37.200001 30.200001C 38.200001 29 40 28.6 40.799999 27.200001C 43.200001 26 45.599998 25 47.799999 23.799999C 50 24 52 22.200001 54 22M 24 29.4C 24.200001 38 26.4 46.799999 24 55M 34 31.6C 32.200001 39.200001 35.599998 47.400002 34 55M 44 25.4C 44 35.200001 43.200001 45.200001 44 55M 14 39C 27.4 39.599998 40.599998 39 54 39M 36 31C 42 30.4 48 31.4 54 31M 14 47C 27.200001 45.400002 41 50.200001 54 47"></path><path d="M 18.007999 13L 50.007999 13C 50.007999 13 54.007999 13 54.007999 17L 54.007999 51C 54.007999 51 54.007999 55 50.007999 55L 18.007999 55C 18.007999 55 14.007999 55 14.007999 51L 14.007999 17C 14.007999 17 14.007999 13 18.007999 13M 14 39L 21.310001 30.959999C 22.959269 29.298944 25.454391 28.810856 27.608 29.728001L 30.392 31.062C 32.6185 31.984388 35.16328 31.693317 37.124001 30.292L 40.875999 27.292C 42.987286 25.71822 45.348209 24.510715 47.859997 23.719999L 54 22M 24.007999 29.436001L 24.007999 55M 34.007999 31.532L 34.007999 55M 44.007999 25.326L 44.007999 55M 14.007999 39L 54.007999 39M 35.944 31L 54.007999 31M 14.007999 47L 54.007999 47"></path></g></g></g><g id="g-root-tx_richerin_18it5n91s4x0qx-stroke" data-item-order="0" data-item-id="tx_richerin_18it5n91s4x0qx" data-item-class="Label Stroke SceneTarget Indexed Indexed_1 ColorStrokeBlack" data-item-index="1" data-renderer-id="0" transform="translate(64.00048828125, 148)"></g><g id="g-root-fold_18lxj2t1s4zu9u-stroke" data-item-order="0" data-item-id="fold_18lxj2t1s4zu9u" data-item-class="Icon Stroke SceneTarget Indexed ColorStrokeBlack" data-item-index="101" data-renderer-id="0" transform="translate(304.00048828125, 148)"><g id="fold_18lxj2t1s4zu9u-stroke" fill="none" stroke-linecap="round" stroke-linejoin="round" stroke-miterlimit="4" stroke="#484848" stroke-width="2"><g><path d="M 44 36C 43.400002 34.400002 42.599998 33.400002 41 33C 35.200001 31.6 28.799999 31.200001 23 33C 22.200001 32.400002 21.200001 31.799999 20.799999 30.799999C 20.6 30.200001 19.6 29.799999 18.799999 30C 17.200001 30.200001 15.6 30 14 30C 12.4 30 11.2 31.4 11 33C 9.6 39.799999 12.2 47.200001 11 54C 10.6 55.599998 12.4 56.599998 14 57C 22.6 59.400002 32.200001 55 41 57C 42.599998 57.400002 44.200001 55.599998 44 54C 43 48 44.400002 42 44 36M 47.400002 47.599998C 49.200001 47.200001 50.799999 46.200001 50.400002 44.599998C 49.200001 38.599998 48.200001 32.200001 50.400002 26.6C 51 25 49.200001 23.6 47.400002 23.6C 41.400002 23.200001 35.200001 21.6 29.4 23.6C 28.799999 22.799999 28.200001 22 27.4 21.4C 26.6 21 26 20.6 25.200001 20.6C 23.6 20.4 22 20.200001 20.4 20.6C 18.799999 20.799999 17.6 21.799999 17.4 23.6C 17.4 24.200001 17.4 24.799999 17.4 25.4M 54 38C 55.599998 38.400002 57 36.599998 57 35C 57 29 57.799999 23 57 17C 56.799999 15.4 55.599998 14.2 54 14C 48 13.2 42 13.4 36 14C 35.200001 13.4 34.400002 12.8 34 11.8C 33.599998 11.2 32.599998 11 31.799999 11C 30.200001 11.2 28.6 11.6 27 11C 25.4 10.4 24.4 12.4 24 14C 23.799999 14.6 24.200001 15.4 24 16"></path><path d="M 43.978001 36C 43.978001 34.343147 42.634853 33 40.978001 33L 22.978001 33L 20.858 30.878C 20.295113 30.315474 19.531788 29.99964 18.736 30L 13.978 30C 12.321146 30 10.978 31.343147 10.978 33L 10.978 54C 10.978 55.656857 12.321146 57 13.978001 57L 40.978001 57C 42.634853 57 43.978001 55.656857 43.978001 54ZM 47.478001 47.5C 49.134857 47.5 50.478001 46.156857 50.478001 44.5L 50.478001 26.5C 50.478001 24.843147 49.134857 23.5 47.478001 23.5L 29.478001 23.5L 27.358 21.378C 26.795115 20.815474 26.031788 20.49964 25.236 20.5L 20.478001 20.5C 18.821146 20.5 17.478001 21.843147 17.478001 23.5L 17.478001 25.476M 54.021999 38C 55.678856 38 57.022003 36.656853 57.022003 35L 57.021999 17C 57.022003 15.343145 55.678856 14 54.022003 14L 36.021999 14L 33.902 11.878C 33.339111 11.315474 32.57579 10.99964 31.780001 11L 27.021999 11C 25.365147 11 24.021999 12.343145 24.021999 14L 24.021999 15.976"></path></g></g></g><g id="g-root-tx_largedat_detolx1s4x2iu-stroke" data-item-order="0" data-item-id="tx_largedat_detolx1s4x2iu" data-item-class="Label Stroke SceneTarget Indexed ColorStrokeBlack" data-item-index="101" data-renderer-id="0" transform="translate(364.00048828125, 148)"></g><g id="g-root-doct_mfghjp1s4ztho-stroke" data-item-order="0" data-item-id="doct_mfghjp1s4ztho" data-item-class="Icon Stroke SceneTarget Indexed ColorStrokeBlack" data-item-index="2" data-renderer-id="0" transform="translate(4.00048828125, 232)"><g id="doct_mfghjp1s4ztho-stroke" fill="none" stroke-linecap="round" stroke-linejoin="round" stroke-miterlimit="4" stroke="#484848" stroke-width="2"><g><path d="M 38 31C 37 31.200001 36 30.799999 35 31C 34 31.4 33.400002 30 33 29C 31.4 23.799999 33 18.4 33 13C 33 11.8 34 10.6 35 11C 41.200001 13.6 48.599998 12.8 55 11C 56 10.8 57.200001 11.8 57 13C 56.400002 18.4 56.599998 23.6 57 29C 57.200001 30 56 31.4 55 31C 52.599998 30 49.599998 31 47 31M 45 15C 44.799999 19 44.200001 23 45 27M 45 15C 44 14.6 42.799999 15 41.599998 15C 40.599998 15 39.799999 15.4 39 15.4C 38.799999 15.4 38.400002 15.6 38.200001 15.8C 38 16.4 37.400002 16.6 37 17M 45 21C 44.599998 20.799999 44 21.200001 43.400002 21C 42.599998 20.799999 41.599998 21 41 21.4C 40.799999 21.6 40.599998 21.6 40.400002 21.799999C 39.799999 22.200001 39 22.6 38.599998 23M 45 15C 46.200001 15 47.200001 15 48.400002 15C 49.400002 15 50.200001 15 51 15.4C 51.200001 15.6 51.599998 15.6 51.799999 15.8C 52 16.200001 52.599998 16.799999 53 17M 45 21C 45.400002 21.200001 46 21 46.599998 21C 47.400002 21 48.200001 21 49 21.4C 49.200001 21.6 49.400002 21.6 49.599998 21.799999C 50.400002 22 50.799999 22.799999 51.400002 23M 42 27C 44 27 46 26.799999 48 27M 15 45C 14.4 43 15 41 15 39M 27 45C 27.799999 43.200001 27.200001 41 27 39M 15 45C 19 44.799999 23 44.599998 27 45M 21 57C 20.799999 54.400002 21.799999 51.599998 21 49M 21 28C 20.799999 31.4 22 34.799999 21 38M 26 57C 27.200001 53.200001 26.6 49 27 45C 28.4 44.799999 29.799999 45.400002 31 45C 31.6 42.799999 31.799999 40.200001 31 38C 29.4 32.799999 26.4 28.799999 21 28C 15.6 27.200001 12 32.599998 11 38C 10.6 40.200001 10.2 42.799999 11 45C 12.4 45 13.6 45.200001 15 45C 14.2 49 16 53 16 57C 19.200001 57.799999 22.799999 56.400002 26 57M 14 18C 14.6 21.799999 17.200001 24.799999 21 25C 24.799999 25.200001 27.200001 21.799999 28 18C 28.799999 14.2 24.799999 10.4 21 11C 17.200001 11.6 12.8 14.4 14 18M 14.8 14.8C 17 17 20 18 23 18C 24.6 18 26.200001 17.200001 28 17M 35 43C 37.799999 39.200001 40.400002 35 43 31"></path><path d="M 38 31L 35 31C 33.895432 31 33 30.10457 33 29L 33 13C 33 11.895431 33.895432 11 35 11L 55 11C 56.104568 11 57 11.895431 57 13L 57 29C 57 30.10457 56.104568 31 55 31L 47 31M 45 15L 45 27M 45 15L 41.542 15C 40.673645 15.000044 39.811066 15.141217 38.987999 15.417999C 38.727188 15.506701 38.487511 15.648329 38.284 15.834L 37 17M 45 21L 43.495998 21C 42.626812 20.999865 41.763443 21.141733 40.940002 21.42C 40.730202 21.491371 40.533569 21.596779 40.358002 21.732L 38.584 23.098M 45 15L 48.458 15C 49.326355 15.000044 50.188934 15.141217 51.012001 15.417999C 51.272812 15.506701 51.512489 15.648329 51.716 15.834L 53 17M 45 21L 46.504002 21C 47.373188 20.999865 48.236557 21.141733 49.060001 21.42C 49.269802 21.491371 49.466427 21.596779 49.641998 21.732L 51.416 23.098M 42 27L 48 27M 15 45L 15 39M 27 45L 27 39M 15 45L 27 45M 21 57L 21 49M 21 28L 21 38M 26 57L 27 45L 31 45L 31 38C 31 32.477154 26.522848 28 21 28C 15.477153 28 11 32.477154 11 38L 11 45L 15 45L 16 57ZM 14 18C 14 21.865993 17.134007 25 21 25C 24.865993 25 28 21.865993 28 18C 28 14.134007 24.865993 11 21 11C 17.134007 11 14 14.134007 14 18ZM 14.8 14.756001C 17.020029 16.842838 19.953133 18.003202 23 18C 24.696709 18.002375 26.37451 17.64377 27.922001 16.948M 35 43L 43 31"></path></g></g></g><g id="g-root-tx_accurate_1ltn6xh1s4x2bs-stroke" data-item-order="0" data-item-id="tx_accurate_1ltn6xh1s4x2bs" data-item-class="Label Stroke SceneTarget Indexed ColorStrokeBlack" data-item-index="2" data-renderer-id="0" transform="translate(64.00048828125, 232)"></g><g id="g-root-4_1lxe1g51s4zsox-stroke" data-item-order="0" data-item-id="4_1lxe1g51s4zsox" data-item-class="Icon Stroke SceneTarget Indexed ColorStrokeBlack" data-item-index="102" data-renderer-id="0" transform="translate(304.00048828125, 232)"><g id="4_1lxe1g51s4zsox-stroke" fill="none" stroke-linecap="round" stroke-linejoin="round" stroke-miterlimit="4" stroke="#484848" stroke-width="2"><g><path d="M 16.857143 18.571428C 17.199999 22.342857 20.285715 24.4 23.714287 25.428572C 27.485714 26.457144 30.228573 22.342857 30.571428 18.571428C 30.914286 14.8 27.485714 11.371428 23.714287 11.714286C 19.942858 12.057143 18.228571 15.142858 16.857143 18.571428M 16.857143 49.428574C 16.857143 53.200001 19.942858 55.942856 23.714287 56.285713C 27.485714 56.628574 31.257143 53.200001 30.571428 49.428574C 29.885715 45.657143 27.485714 43.600002 23.714287 42.57143C 19.942858 41.542858 15.485714 46 16.857143 49.428574M 37.428574 35.714287C 38.457146 39.485718 40.514286 43.257141 44.285713 42.57143C 48.057144 41.885715 49.771431 39.142857 51.142857 35.714287C 52.514286 32.285713 48.057144 29.200001 44.285713 28.857143C 40.514286 28.514286 38.114285 31.942858 37.428574 35.714287M 23.714287 25.428572C 22.342857 30.914286 21.657143 37.428574 23.714287 42.57143M 37.428574 35.714287C 36.399998 35.371429 35.028572 35.371429 34 35.714287C 28.514286 37.428574 24.057142 31.257143 23.714287 25.428572"></path><path d="M 16.857143 18.571428C 16.857143 22.358524 19.927191 25.428572 23.714287 25.428572C 27.501381 25.428572 30.571428 22.358524 30.571428 18.571428C 30.571428 14.784333 27.501381 11.714286 23.714287 11.714286C 19.927191 11.714286 16.857143 14.784333 16.857143 18.571428M 16.857143 49.428574C 16.857143 53.215668 19.927191 56.285713 23.714287 56.285713C 27.501381 56.285713 30.571428 53.215668 30.571428 49.428574C 30.571428 45.641476 27.501381 42.57143 23.714287 42.57143C 19.927191 42.57143 16.857143 45.641476 16.857143 49.428574M 37.428574 35.714287C 37.428574 39.501381 40.498619 42.57143 44.285713 42.57143C 48.072811 42.57143 51.142857 39.501381 51.142857 35.714287C 51.142857 31.927191 48.072811 28.857143 44.285713 28.857143C 40.498619 28.857143 37.428574 31.927191 37.428574 35.714287M 23.714287 25.428572L 23.714287 42.57143M 37.428574 35.714287L 34 35.714287C 28.319357 35.714287 23.714287 31.109217 23.714287 25.428572"></path></g></g></g><g id="g-root-tx_integrat_v63p3p1s4x05p-stroke" data-item-order="0" data-item-id="tx_integrat_v63p3p1s4x05p" data-item-class="Label Stroke SceneTarget Indexed ColorStrokeBlack" data-item-index="102" data-renderer-id="0" transform="translate(364.00048828125, 232)"></g><g id="g-root-6_zqaitx1s4zv2j-stroke" data-item-order="0" data-item-id="6_zqaitx1s4zv2j" data-item-class="Icon Stroke SceneTarget Indexed ColorStrokeBlack" data-item-index="3" data-renderer-id="0" transform="translate(4.00048828125, 316)"><g id="6_zqaitx1s4zv2j-stroke" fill="none" stroke-linecap="round" stroke-linejoin="round" stroke-miterlimit="4" stroke="#484848" stroke-width="2"><g><path d="M 36.599998 23.6C 28.799999 21.4 20.4 25.200001 12.6 23.6C 12 23.4 11.4 23.200001 11.6 22.6C 11.6 20.6 11.8 18.4 11.6 16.6C 11.4 16 11.8 15.6 12.6 15.6C 20.6 15.6 28.799999 13 36.599998 15.6C 37 15.6 37.799999 16 37.599998 16.6C 36.799999 18.4 37 20.6 37.599998 22.6C 37.599998 22.799999 37.200001 23.6 36.599998 23.6M 31.6 15.6C 31.799999 18.200001 30.799999 21 31.6 23.6M 50.599998 38C 40.200001 37.799999 29.6 39.799999 19.6 38C 19 37.799999 18.4 37.599998 18.6 37C 19 35 18.200001 33 18.6 31C 18.6 30.4 18.799999 30 19.6 30C 29.799999 31.4 40.200001 29.200001 50.599998 30C 51 30 51.400002 30.4 51.599998 31C 51.599998 33 52 35 51.599998 37C 51.400002 37.400002 51 37.799999 50.599998 38M 38.599998 30C 39 32.599998 39 35.400002 38.599998 38M 55.599998 52.599998C 50.200001 51.200001 44.799999 52.599998 39.599998 52.599998C 39 52.400002 38.599998 52 38.599998 51.599998C 38.400002 49.599998 39 47.400002 38.599998 45.599998C 38.400002 45 38.799999 44.599998 39.599998 44.599998C 44.799999 44 50.200001 45 55.599998 44.599998C 56 44.400002 56.599998 45 56.599998 45.599998C 56.599998 47.599998 56.599998 49.599998 56.599998 51.599998C 56.400002 51.799999 56 52.599998 55.599998 52.599998M 50 44.599998C 51 47 50.400002 49.799999 50 52.599998M 45.599998 12C 47.200001 17.799999 46.599998 24.200001 45.599998 30M 45.599998 38C 46 40.200001 46.200001 42.400002 45.599998 44.599998M 45.599998 52.599998C 45.599998 53.599998 45.799999 54.799999 45.599998 56"></path><path d="M 36.5 23.5L 12.5 23.5C 11.9 23.5 11.5 23.1 11.5 22.5L 11.5 16.5C 11.5 15.9 11.9 15.5 12.5 15.5L 36.5 15.5C 37.099998 15.5 37.5 15.9 37.5 16.5L 37.5 22.5C 37.5 22.9 37.099998 23.5 36.5 23.5ZM 31.5 15.5L 31.5 23.5M 50.5 38L 19.5 38C 18.9 38 18.5 37.599998 18.5 37L 18.5 31C 18.5 30.4 18.9 30 19.5 30L 50.5 30C 51.099998 30 51.5 30.4 51.5 31L 51.5 37C 51.5 37.400002 51.099998 38 50.5 38ZM 38.5 30L 38.5 38M 55.5 52.5L 39.5 52.5C 38.900002 52.5 38.5 52.099998 38.5 51.5L 38.5 45.5C 38.5 44.900002 38.900002 44.5 39.5 44.5L 55.5 44.5C 56.099998 44.5 56.5 44.900002 56.5 45.5L 56.5 51.5C 56.5 51.900002 56.099998 52.5 55.5 52.5ZM 50 44.5L 50 52.5M 45.5 12L 45.5 30M 45.5 38L 45.5 44.5M 45.5 52.5L 45.5 56"></path></g></g></g><g id="g-root-tx_complext_3znbp1s4x0xz-stroke" data-item-order="0" data-item-id="tx_complext_3znbp1s4x0xz" data-item-class="Label Stroke SceneTarget Indexed ColorStrokeBlack" data-item-index="3" data-renderer-id="0" transform="translate(64.00048828125, 316)"></g><g id="g-root-boxe_18k23th1s4zv9k-stroke" data-item-order="0" data-item-id="boxe_18k23th1s4zv9k" data-item-class="Icon Stroke SceneTarget Indexed ColorStrokeBlack" data-item-index="103" data-renderer-id="0" transform="translate(304.00048828125, 316)"><g id="boxe_18k23th1s4zv9k-stroke" fill="none" stroke-linecap="round" stroke-linejoin="round" stroke-miterlimit="4" stroke="#484848" stroke-width="2"><g><path d="M 30.6 16C 31.6 18.6 32.799999 20.4 35.599998 21C 38.200001 21.6 41.599998 18.6 40.599998 16C 39.400002 13.4 38.200001 11.2 35.599998 11C 32.799999 10.8 30.4 13.2 30.6 16M 41.599998 31C 40.799999 29.200001 41.200001 27 41.599998 25C 43.200001 24.6 45 24.799999 46.799999 25C 50 25.4 53 27.6 52.400002 30.6C 52.200001 32.599998 51.200001 34.799999 49.200001 34.799999C 47.200001 35 44.799999 34.599998 44.400002 32.599998C 44.200001 32 43.799999 31.6 43.599998 31C 42.799999 30.799999 42.200001 31 41.599998 31M 43.599998 31C 44.799999 31.200001 46.200001 30.799999 47.599998 31M 41.599998 25C 37.599998 24.6 33.200001 23.6 29.6 25C 28.4 25.4 27.6 26 26.799999 26.799999C 20.4 33.799999 18.799999 44 15.8 52.799999C 15.2 54.400002 15.6 56.599998 17.4 56.799999C 19 57 20 56.400002 21.200001 55.200001C 23.6 52.799999 22.799999 48.200001 25.200001 45.799999C 26.4 46.799999 28 47.400002 29.6 47.400002C 30.799999 47.400002 31 49 31.6 50.200001C 32 51.400002 32 52.799999 31.6 54C 31 55.599998 32.799999 56.799999 34.599998 57C 36.200001 57.200001 38 55.599998 37.599998 54C 37.200001 52.799999 37.799999 51.400002 37.599998 50.200001C 36.400002 46.599998 34.799999 43.599998 31.6 41.799999C 30.4 41 29 40.400002 27.6 40.200001C 29.799999 37.799999 31 34.400002 31.4 31C 34.799999 30.6 38.200001 31.200001 41.599998 31"></path><path d="M 30.502001 16C 30.502001 18.761425 32.740578 21 35.501999 21C 38.263424 21 40.501999 18.761425 40.501999 16C 40.501999 13.238577 38.263424 11 35.501999 11C 32.740578 11 30.502001 13.238577 30.502001 16ZM 41.5 31L 41.5 25L 46.826 25C 49.959663 25 52.5 27.540337 52.5 30.674C 52.504101 32.683922 51.123322 34.431908 49.167068 34.893295C 47.210815 35.354683 45.194473 34.407925 44.300003 32.608002L 43.5 31.007999ZM 43.5 31L 47.5 31M 41.5 25L 29.5 25C 28.294224 24.999716 27.20545 25.721363 26.736 26.832001L 15.736 52.832001C 15.090932 54.358517 15.805485 56.118935 17.332001 56.764C 18.858517 57.409069 20.618931 56.694515 21.264 55.168003L 25.220001 45.818001L 29.528 47.386002C 30.710625 47.81736 31.498165 48.941166 31.5 50.200001L 31.5 54C 31.5 55.656857 32.843147 57 34.5 57C 36.156853 57 37.5 55.656857 37.5 54L 37.5 50.200001C 37.493534 46.417614 35.12841 43.040806 31.576002 41.742004L 27.559999 40.284L 31.488001 31L 41.5 31"></path></g></g></g><g id="g-root-tx_training_18gxqdx1s4x1qk-stroke" data-item-order="0" data-item-id="tx_training_18gxqdx1s4x1qk" data-item-class="Label Stroke SceneTarget Indexed ColorStrokeBlack" data-item-index="103" data-renderer-id="0" transform="translate(364.00048828125, 316)"></g></g></g></svg>