<?xml version="1.0" encoding="utf-8" standalone="yes"?>
<!DOCTYPE svg PUBLIC "-//W3C//DTD SVG 1.1//EN" "http://www.w3.org/Graphics/SVG/1.1/DTD/svg11.dtd">
<svg width="768" height="307" viewBox="0 0 768 307" style="fill:none;stroke:none;fill-rule:evenodd;clip-rule:evenodd;stroke-linecap:round;stroke-linejoin:round;stroke-miterlimit:1.5;" version="1.1" xmlns="http://www.w3.org/2000/svg" xmlns:xlink="http://www.w3.org/1999/xlink"><style id="fontImports">@import url("https://fonts.googleapis.com/css2?family=Roboto:wght@400;700&amp;display=block");</style><rect id="" x="0" y="0" width="768" height="306" style="fill: #ffffff;"></rect><g id="items" style="isolation: isolate"><g id="blend" style="mix-blend-mode:multiply"><g id="g-root-4.cu_sy_1q5qq4l1sz5mh0-fill" data-item-order="-94076" data-item-id="4.cu_sy_1q5qq4l1sz5mh0" data-item-class="ScenePart Part Indexed Fill Stroke" data-item-index="4" data-renderer-id="0" transform="translate(390.710693359375, 96.0369873046875)"><g id="4.cu_sy_1q5qq4l1sz5mh0-fill" stroke="none" fill="#fef2e6"><g><path d="M 77.933573 108.1775C 85.367873 110.464 93.663673 107.4137 97.689373 100.414C 100.893173 94.8412 100.559973 88.2173 97.393273 83.1137C 106.557873 77.3076 113.560573 68.429 116.951573 57.9393C 118.412573 53.4153 119.209573 48.5941 119.209573 43.5863C 119.209573 30.4121 113.740573 18.5102 104.938673 10C 103.033173 20.8139 96.610773 30.0781 87.678173 35.8006C 87.710273 36.2967 87.727573 36.7953 87.727573 37.2988C 87.727573 49.66 77.657073 59.6807 65.234373 59.6807L 65.192473 59.6929C 65.629373 61.2648 65.861373 62.9202 65.861373 64.6296C 65.861373 74.8368 57.545873 83.1087 47.290273 83.1087C 38.875973 83.1087 31.769973 77.5409 29.486773 69.9076L 29.476873 69.9076C 27.850373 70.19 26.176873 70.3349 24.468873 70.3349C 19.233673 70.3349 14.321873 68.9669 10.069073 66.5723L 10.069073 106.7849C 10.004873 115.361 15.906473 123.14 24.653973 125.151C 30.103873 126.406 35.694473 125.124 39.924973 122.142C 54.465473 127.401 70.538673 121.121 77.936073 108.1726L 77.933573 108.1775ZM 117.252835 58.373909C 117.154035 58.226609 117.050435 58.084109 116.949235 57.939209C 113.557835 68.428909 106.555435 77.305009 97.390835 83.113509C 100.560035 88.217209 100.893235 94.841109 97.687035 100.413809C 93.661335 107.416009 85.365535 110.466409 77.931135 108.177309C 70.533835 121.125609 54.460535 127.403209 39.920135 122.147309C 42.743835 131.686509 51.303735 138.619909 61.425935 138.619909C 67.902635 138.619909 73.737635 135.780709 77.842335 131.239509C 82.892335 131.190409 87.715235 130.429009 87.715235 130.429009C 94.401735 129.068409 100.572335 126.293009 105.898835 122.434609C 117.650135 113.922009 125.289435 100.126509 125.289435 84.555209C 125.289435 74.856409 122.327535 65.847609 117.252835 58.373909ZM 24.65159 125.155995C 30.10149 126.410995 35.69199 125.128995 39.92259 122.147395C 42.74629 131.686595 51.30619 138.619995 61.42839 138.619995C 67.90509 138.619995 73.74009 135.780795 77.84479 131.239595C 82.89479 131.190495 87.71779 130.429095 87.71779 130.429095C 94.40419 129.068495 100.57479 126.293095 105.90129 122.434695C 106.35299 124.679495 106.59239 127.002895 106.59239 129.380395C 106.59239 148.802695 90.76849 164.550795 71.24709 164.550795C 69.19599 164.550795 67.18689 164.373995 65.23199 164.042395C 65.23199 164.098895 65.23199 164.152895 65.23199 164.206895C 65.23199 182.298095 50.49409 196.963095 32.31299 196.963095C 23.73579 196.963095 15.92379 193.696495 10.06419 188.347295L 10.06419 106.789795C 9.99999 115.366295 15.90159 123.144495 24.64909 125.155995L 24.65159 125.155995Z"></path></g></g></g><g id="g-root-4.line_sy_13z9olh1sz5lot-fill" data-item-order="-94073" data-item-id="4.line_sy_13z9olh1sz5lot" data-item-class="ScenePart Part Indexed Stroke" data-item-index="4" data-renderer-id="0" transform="translate(505.99993896484375, 207)"></g><g id="g-root-3.cu_sy_vbquh11sz49oi-fill" data-item-order="-94072" data-item-id="3.cu_sy_vbquh11sz49oi" data-item-class="ScenePart Part Indexed Fill Stroke" data-item-index="3" data-renderer-id="0" transform="translate(265.9999694824219, 96.0418701171875)"><g id="3.cu_sy_vbquh11sz49oi-fill" stroke="none" fill="#fffce6"><g><path d="M 110.825429 70.3349C 109.117429 70.3349 107.443929 70.19 105.817329 69.91L 105.807529 69.91C 103.524329 77.5409 96.418329 83.1087 88.004029 83.1087C 77.746029 83.1087 69.432929 74.8344 69.432929 64.6296C 69.432929 62.9202 69.667429 61.2648 70.101829 59.6929L 70.059829 59.6806C 57.637129 59.6806 47.566729 49.66 47.566729 37.2988C 47.566729 36.7953 47.584029 36.2968 47.616129 35.8006C 38.683529 30.0781 32.261129 20.8115 30.355629 10C 21.553829 18.5077 16.084229 30.4096 16.084229 43.5863C 16.084229 48.5941 16.879029 53.4153 18.342729 57.9393C 21.734029 68.429 28.736429 77.3051 37.901029 83.1137C 34.731829 88.2173 34.398629 94.8412 37.604829 100.414C 41.630629 107.4161 49.926329 110.466 57.360729 108.1775C 64.758029 121.126 80.831329 127.403 95.371729 122.147C 99.602329 125.129 105.192929 126.411 110.642829 125.156C 119.390229 123.142 125.292229 115.364 125.227229 106.7898L 125.227229 66.5772C 120.977229 68.9718 116.063029 70.3398 110.827929 70.3398L 110.825429 70.3349ZM 110.640363 125.151112C 105.190463 126.406112 99.599863 125.124112 95.369263 122.142512C 92.545563 131.681712 83.985763 138.615112 73.863463 138.615112C 67.386763 138.615112 61.551863 135.775912 57.447163 131.234712C 52.397063 131.185612 47.574163 130.424212 47.574163 130.424212C 40.887663 129.063612 34.717063 126.288212 29.390563 122.429812C 28.938863 124.674612 28.699463 126.998012 28.699463 129.375512C 28.699463 148.797812 44.523363 164.545912 64.044763 164.545912C 66.095863 164.545912 68.105063 164.369112 70.059863 164.037512C 70.059863 164.094012 70.059863 164.148012 70.059863 164.202012C 70.059863 182.293212 84.797763 196.958212 102.978863 196.958212C 111.556063 196.958212 119.368063 193.691612 125.227663 188.342412L 125.227663 106.784912C 125.291863 115.361412 119.390263 123.139612 110.642763 125.151112L 110.640363 125.151112ZM 57.3583 108.172548C 49.9239 110.459148 41.6281 107.408748 37.6024 100.409048C 34.3986 94.836348 34.7318 88.212448 37.8986 83.108748C 28.734 77.302748 21.7316 68.424148 18.3402 57.934448C 18.239 58.079348 18.1353 58.221848 18.0366 58.369148C 12.9619 65.842848 10 74.851648 10 84.550448C 10 100.121748 17.6392 113.917248 29.3906 122.429848C 34.717 126.288248 40.8876 129.061148 47.5741 130.424248C 47.5741 130.424248 52.3971 131.185648 57.4471 131.234748C 61.5518 135.778448 67.3867 138.615148 73.8634 138.615148C 83.9857 138.615148 92.5456 131.681748 95.3693 122.142548C 80.8288 127.400848 64.7556 121.120848 57.3583 108.172548Z"></path></g></g></g><g id="g-root-3.line_sy_i0wt6t1sz483n-fill" data-item-order="-94069" data-item-id="3.line_sy_i0wt6t1sz483n" data-item-class="ScenePart Part Indexed Stroke" data-item-index="3" data-renderer-id="0" transform="translate(217.99996948242188, 207)"></g><g id="g-root-2.cu_sy_hz1dxh1sz493c-fill" data-item-order="-94068" data-item-id="2.cu_sy_hz1dxh1sz493c" data-item-class="ScenePart Part Indexed Fill Stroke" data-item-index="2" data-renderer-id="0" transform="translate(390.713134765625, 3)"><g id="2.cu_sy_hz1dxh1sz493c-fill" stroke="none" fill="#e6f9ff"><g><path d="M 23.925937 128.405316C 36.810137 135.353516 52.917937 130.593716 59.900637 117.773216C 62.003537 113.912316 63.040237 109.759116 63.109337 105.652616L 63.151237 103.039416C 63.321537 100.637416 64.000337 98.233016 65.227037 95.978316C 67.473137 91.852216 71.150837 88.993416 75.314837 87.674516C 81.046037 80.940016 84.491737 71.476916 84.491737 61.962316C 84.464637 60.577116 84.363437 59.209116 84.195537 57.860716C 81.329937 56.310916 78.029837 55.424316 74.539737 55.424316C 69.719337 55.424316 65.308537 57.096916 61.833237 59.896716C 62.877337 63.035616 62.874837 66.540316 61.579037 69.863316C 59.542737 75.087316 54.848137 78.501216 49.630237 79.169216L 46.653537 79.346116C 40.835837 79.847116 35.524137 83.550816 33.270637 89.332316C 31.779837 93.156316 31.895837 97.203916 33.287937 100.743016C 30.301337 99.129416 26.949537 98.186316 23.311337 98.186316C 18.290837 98.186316 13.680237 99.932516 10.061737 102.850316L 10.061737 106.504916C 10.515937 115.398216 15.479537 123.851916 23.923437 128.405316L 23.925937 128.405316ZM 61.833237 59.8943C 62.877337 63.0331 62.874837 66.5379 61.579037 69.8609C 59.542737 75.0849 54.848137 78.4988 49.630237 79.1668L 46.653537 79.3436C 40.835837 79.8447 35.524137 83.5484 33.270637 89.3299C 31.779837 93.1539 31.895837 97.2015 33.287937 100.7406C 30.301337 99.127 26.949537 98.1839 23.311337 98.1839C 18.290837 98.1839 13.680237 99.9301 10.061737 102.8479L 10.061737 33.8284C 10.061737 20.6666 20.783837 10 34.008637 10C 44.318537 10 53.107937 16.4839 56.482037 25.5786C 71.155837 29.8104 82.250537 42.4196 84.193037 57.8607C 81.327437 56.311 78.027437 55.4243 74.537337 55.4243C 69.716837 55.4243 65.306037 57.0969 61.830737 59.8968L 61.833237 59.8943ZM 105.51872 96.314717C 105.51872 81.357517 96.98102 68.387117 84.49412 61.959717C 84.49412 71.476817 81.04852 80.937517 75.31722 87.674417C 71.15332 88.993317 67.47562 91.854517 65.22952 95.978217C 64.00032 98.232917 63.32402 100.637317 63.15372 103.039317L 63.11172 105.652517C 63.04262 109.759017 62.00592 113.912217 59.90302 117.773117C 52.92032 130.593517 36.81252 135.353317 23.92832 128.405217C 15.48442 123.851717 10.52082 115.398117 10.06662 106.504817L 10.06662 159.614017C 14.31692 162.008717 19.23122 163.376717 24.46642 163.376717C 26.17442 163.376717 27.84782 163.231717 29.47442 162.951717L 29.48432 162.951717C 31.76742 170.582717 38.87352 176.150717 47.28782 176.150717C 57.54582 176.150717 65.85892 167.875717 65.85892 157.671317C 65.85892 155.961917 65.62442 154.306517 65.19002 152.734717L 65.23192 152.722417C 77.65462 152.722417 87.72512 142.701817 87.72512 130.340617C 87.72512 129.837117 87.67572 128.842417 87.67572 128.842417C 96.60832 123.119817 103.03072 113.853217 104.93622 103.041817C 105.32122 100.858317 105.52362 98.611117 105.52362 96.319617L 105.51872 96.314717Z"></path></g></g></g><g id="g-root-2.line_sy_1qduw911sz48w9-fill" data-item-order="-94065" data-item-id="2.line_sy_1qduw911sz48w9" data-item-class="ScenePart Part Indexed Stroke" data-item-index="2" data-renderer-id="0" transform="translate(499.99993896484375, 87)"></g><g id="g-root-1.cu_sy_4mbxdx1sz48i6-fill" data-item-order="-94064" data-item-id="1.cu_sy_4mbxdx1sz48i6" data-item-class="ScenePart Part Indexed Indexed_1 Fill Stroke" data-item-index="1" data-renderer-id="0" transform="translate(285.770751953125, 3)"><g id="1.cu_sy_4mbxdx1sz48i6-fill" stroke="none" fill="#e9fbf3"><g><path d="M 53.68292 59.8943C 52.63892 63.0331 52.64132 66.5379 53.93722 69.8609C 55.97352 75.0849 60.66812 78.4988 65.88602 79.1668L 68.86272 79.3436C 74.68032 79.8447 79.99202 83.5484 82.24552 89.3299C 83.73632 93.1539 83.62032 97.2015 82.22822 100.7406C 85.21482 99.127 88.56672 98.1839 92.20492 98.1839C 97.22532 98.1839 101.83602 99.9301 105.45442 102.8479L 105.45442 33.8284C 105.45442 20.6666 94.73242 10 81.50752 10C 71.19762 10 62.40822 16.4839 59.03412 25.5786C 44.36042 29.8104 33.26562 42.4196 31.32312 57.8607C 34.18872 56.311 37.48882 55.4243 40.97892 55.4243C 45.79942 55.4243 50.21012 57.0969 53.68542 59.8968L 53.68292 59.8943ZM 40.201373 87.674516C 44.365273 88.993416 48.042973 91.854616 50.289073 95.978316C 51.518273 98.233016 52.194573 100.637416 52.364873 103.039416L 52.406873 105.652616C 52.475973 109.759116 53.510173 113.912316 55.615573 117.773216C 62.598273 130.593716 78.706073 135.353516 91.590273 128.405316C 100.034173 123.851916 104.997773 115.398216 105.451973 106.504916L 105.451973 102.850316C 101.833573 99.932516 97.222873 98.186316 92.202473 98.186316C 88.566673 98.186316 85.212373 99.129416 82.225773 100.743016C 83.617873 97.203916 83.731373 93.153916 82.243073 89.332316C 79.989573 83.550816 74.677873 79.847116 68.860173 79.346116L 65.883473 79.169216C 60.665673 78.501216 55.970973 75.087316 53.934673 69.863316C 52.638873 66.540316 52.636373 63.035616 53.680473 59.896716C 50.205173 57.096916 45.794473 55.424316 40.973973 55.424316C 37.483873 55.424316 34.183773 56.313416 31.318173 57.860716C 31.147873 59.206616 31.049173 60.574616 31.021973 61.962316C 31.021973 71.479416 34.467673 80.940016 40.198873 87.676916L 40.201373 87.674516ZM 91.5904 128.405258C 78.7061 135.353358 62.5984 130.593558 55.6157 117.773058C 53.5127 113.912158 52.4761 109.759058 52.407 105.652558L 52.365 103.039358C 52.1947 100.637358 51.5159 98.232858 50.2892 95.978258C 48.0431 91.852058 44.3654 88.993258 40.2015 87.674358C 34.4702 80.939958 31.0245 71.476858 31.0245 61.962158C 18.5352 68.389558 10 81.362358 10 96.317158C 10 98.611058 10.2024 100.855858 10.5874 103.039358C 12.4929 113.853258 18.9153 123.117358 27.8479 128.839958C 27.8479 128.839958 27.7985 129.834658 27.7985 130.338158C 27.7985 142.699358 37.869 152.719958 50.2917 152.719958L 50.3336 152.732258C 49.8968 154.304058 49.6647 155.959458 49.6647 157.668858C 49.6647 167.876158 57.9803 176.148158 68.2358 176.148158C 76.6501 176.148158 83.7562 170.580158 86.0393 162.947158L 86.0492 162.947158C 87.6757 163.229158 89.3492 163.374158 91.0572 163.374158C 96.2924 163.374158 101.2042 162.006158 105.457 159.611558L 105.457 106.502358C 105.0028 115.395658 100.0392 123.849258 91.5953 128.402758L 91.5904 128.405258Z"></path></g></g></g><g id="g-root-1.line_sy_1lwsfyd1sz47if-fill" data-item-order="-94061" data-item-id="1.line_sy_1lwsfyd1sz47if" data-item-class="ScenePart Part Indexed Indexed_1 Stroke" data-item-index="1" data-renderer-id="0" transform="translate(218, 87)"></g><g id="g-root-tx_healthca_v4vmit1sz5onj-fill" data-item-order="0" data-item-id="tx_healthca_v4vmit1sz5onj" data-item-class="Label Stroke SceneTarget Indexed Indexed_1" data-item-index="1" data-renderer-id="0" transform="translate(50, 75)"><g id="tx_healthca_v4vmit1sz5onj-fill" stroke="none" fill="#484848"><g><text style="font: 20px Roboto, sans-serif; white-space: pre;"><tspan x="19.33" y="34" dominant-baseline="ideographic">Healthcare</tspan></text></g></g></g><g id="g-root-rate_8zn9p11r0ynsw-fill" data-item-order="0" data-item-id="rate_8zn9p11r0ynsw" data-item-class="Icon Stroke SceneTarget Indexed Indexed_1" data-item-index="1" data-renderer-id="0" transform="translate(170, 69)"></g><g id="g-root-driv_4o64ed1t8u136-fill" data-item-order="0" data-item-id="driv_4o64ed1t8u136" data-item-class="Icon Stroke SceneTarget Indexed" data-item-index="2" data-renderer-id="0" transform="translate(566, 69)"></g><g id="g-root-tx_autonomo_v8mh1h1sz5mo2-fill" data-item-order="0" data-item-id="tx_autonomo_v8mh1h1sz5mo2" data-item-class="Label Stroke SceneTarget Indexed" data-item-index="2" data-renderer-id="0" transform="translate(614, 63)"><g id="tx_autonomo_v8mh1h1sz5mo2-fill" stroke="none" fill="#484848"><g><text style="font: 20px Roboto, sans-serif; white-space: pre;"><tspan x="12" y="34" dominant-baseline="ideographic">Autonomous </tspan><tspan x="12" y="58" dominant-baseline="ideographic">Systems</tspan></text></g></g></g><g id="g-root-tx_contentc_v6r1s51sz5nns-fill" data-item-order="0" data-item-id="tx_contentc_v6r1s51sz5nns" data-item-class="Label Stroke SceneTarget Indexed" data-item-index="3" data-renderer-id="0" transform="translate(2, 195)"><g id="tx_contentc_v6r1s51sz5nns-fill" stroke="none" fill="#484848"><g><text style="font: 20px Roboto, sans-serif; white-space: pre;"><tspan x="13.98" y="34" dominant-baseline="ideographic">Content Creation</tspan></text></g></g></g><g id="g-root-2_hxr7id1t8u0i0-fill" data-item-order="0" data-item-id="2_hxr7id1t8u0i0" data-item-class="Icon Stroke SceneTarget Indexed" data-item-index="3" data-renderer-id="0" transform="translate(170, 189)"></g><g id="g-root-cont_v6q9cl1ravg8w-fill" data-item-order="0" data-item-id="cont_v6q9cl1ravg8w" data-item-class="Icon Stroke SceneTarget Indexed" data-item-index="4" data-renderer-id="0" transform="translate(566, 189)"></g><g id="g-root-tx_entertai_1qaqith1sz5lvt-fill" data-item-order="0" data-item-id="tx_entertai_1qaqith1sz5lvt" data-item-class="Label Stroke SceneTarget Indexed" data-item-index="4" data-renderer-id="0" transform="translate(614, 195)"><g id="tx_entertai_1qaqith1sz5lvt-fill" stroke="none" fill="#484848"><g><text style="font: 20px Roboto, sans-serif; white-space: pre;"><tspan x="12" y="34" dominant-baseline="ideographic">Entertainment</tspan></text></g></g></g><g id="g-root-4.cu_sy_1q5qq4l1sz5mh0-stroke" data-item-order="-94076" data-item-id="4.cu_sy_1q5qq4l1sz5mh0" data-item-class="ScenePart Part Indexed Fill Stroke" data-item-index="4" data-renderer-id="0" transform="translate(390.710693359375, 96.0369873046875)"><g id="4.cu_sy_1q5qq4l1sz5mh0-stroke" fill="none" stroke-linecap="round" stroke-linejoin="round" stroke-miterlimit="4" stroke="#dd8433" stroke-width="2"><g><path d="M 77.933573 108.1775C 85.367873 110.464 93.663673 107.4137 97.689373 100.414C 100.893173 94.8412 100.559973 88.2173 97.393273 83.1137C 106.557873 77.3076 113.560273 68.429 116.951573 57.9393C 118.412773 53.4153 119.210073 48.5941 119.210073 43.5863C 119.210073 30.4121 113.740473 18.5102 104.938673 10C 103.033173 20.8139 96.610773 30.0781 87.678173 35.8006C 87.710273 36.2967 87.727573 36.7953 87.727573 37.2988C 87.727573 49.66 77.657073 59.6807 65.234373 59.6807L 65.192473 59.6929C 65.629373 61.2648 65.861373 62.9202 65.861373 64.6296C 65.861373 74.8368 57.545873 83.1087 47.290273 83.1087C 38.875973 83.1087 31.769973 77.5409 29.486773 69.9076L 29.476873 69.9076C 27.850373 70.19 26.176873 70.3349 24.468873 70.3349C 19.233673 70.3349 14.321873 68.9669 10.069073 66.5723L 10.069073 106.7849C 10.004873 115.3614 15.906473 123.1396 24.653973 125.1511C 30.103873 126.4062 35.694473 125.1241 39.924973 122.1425C 54.465473 127.4009 70.538673 121.1208 77.936073 108.1726L 77.933573 108.1775ZM 117.252835 58.373909C 117.154035 58.226609 117.050435 58.084109 116.949235 57.939209C 113.557835 68.428909 106.555435 77.305009 97.390835 83.113509C 100.560035 88.217209 100.893235 94.841109 97.687035 100.413809C 93.661335 107.416009 85.365535 110.466409 77.931135 108.177309C 70.533835 121.125609 54.460535 127.403209 39.920135 122.147309C 42.743835 131.686509 51.303735 138.619909 61.425935 138.619909C 67.902635 138.619909 73.737635 135.780709 77.842335 131.239509C 82.892335 131.190409 87.715235 130.429009 87.715235 130.429009C 94.401735 129.068409 100.572335 126.293009 105.898835 122.434609C 117.650135 113.922009 125.289435 100.126509 125.289435 84.555209C 125.289435 74.856409 122.327535 65.847609 117.252835 58.373909ZM 24.65159 125.155995C 30.10149 126.410995 35.69199 125.128995 39.92259 122.147395C 42.74629 131.686595 51.30619 138.619995 61.42839 138.619995C 67.90509 138.619995 73.74009 135.780795 77.84479 131.239595C 82.89479 131.190495 87.71779 130.429095 87.71779 130.429095C 94.40419 129.068495 100.57479 126.293095 105.90129 122.434695C 106.35299 124.679495 106.59239 127.002895 106.59239 129.380395C 106.59239 148.802695 90.76849 164.550795 71.24709 164.550795C 69.19599 164.550795 67.18689 164.373895 65.23199 164.042395C 65.23199 164.098895 65.23199 164.152895 65.23199 164.206895C 65.23199 182.298095 50.49409 196.963095 32.31299 196.963095C 23.73579 196.963095 15.92379 193.696495 10.06419 188.347295L 10.06419 106.789795C 9.99999 115.366295 15.90159 123.144495 24.64909 125.155995L 24.65159 125.155995ZM 100.838878 58.651443C 105.876578 49.470843 104.232778 37.723643 96.171478 30.286743M 81.37935 94.234505C 78.46435 84.975305 70.55605 78.646005 61.52475 77.263305M 39.922577 122.147295C 47.174277 114.931495 47.174277 103.228495 39.922577 96.012695M 88.463104 76.858032C 91.950704 77.818332 95.137204 79.940432 97.383304 83.113732M 65.229642 164.042386C 55.662642 162.409086 47.406342 156.949286 42.114442 149.303686C 42.114442 149.303686 42.111942 149.298786 42.109542 149.296286C 41.954042 149.298786 41.796042 149.301186 41.640542 149.301186C 28.610642 149.301186 18.049042 138.791886 18.049042 125.826486C 18.049042 124.662286 18.135442 123.515386 18.298342 122.395386M 10.066631 153.154663C 10.002431 161.731163 15.904031 169.509363 24.651531 171.520863M 67.162079 137.853706C 69.126779 137.821806 71.128579 138.195106 73.048879 139.022806C 77.553379 140.965506 80.537479 144.949206 81.379179 149.416706"></path></g></g></g><g id="g-root-4.line_sy_13z9olh1sz5lot-stroke" data-item-order="-94073" data-item-id="4.line_sy_13z9olh1sz5lot" data-item-class="ScenePart Part Indexed Stroke" data-item-index="4" data-renderer-id="0" transform="translate(505.99993896484375, 207)"><g id="4.line_sy_13z9olh1sz5lot-stroke" fill="none" stroke-linecap="round" stroke-linejoin="round" stroke-miterlimit="4" stroke="#484848" stroke-width="2"><g><path d="M 58.000061 10L 12.000061 10"></path><path d="M 18.000061 3.5L 11.500061 10L 18.000061 16.5" stroke-dasharray="none"></path></g></g></g><g id="g-root-3.cu_sy_vbquh11sz49oi-stroke" data-item-order="-94072" data-item-id="3.cu_sy_vbquh11sz49oi" data-item-class="ScenePart Part Indexed Fill Stroke" data-item-index="3" data-renderer-id="0" transform="translate(265.9999694824219, 96.0418701171875)"><g id="3.cu_sy_vbquh11sz49oi-stroke" fill="none" stroke-linecap="round" stroke-linejoin="round" stroke-miterlimit="4" stroke="#e3cd09" stroke-width="2"><g><path d="M 110.825429 70.3349C 109.117429 70.3349 107.443929 70.19 105.817329 69.91L 105.807529 69.91C 103.524329 77.5409 96.418329 83.1087 88.004029 83.1087C 77.746029 83.1087 69.432929 74.8344 69.432929 64.6296C 69.432929 62.9202 69.667429 61.2648 70.101829 59.6929L 70.059829 59.6806C 57.637129 59.6806 47.566729 49.66 47.566729 37.2988C 47.566729 36.7953 47.584029 36.2968 47.616129 35.8006C 38.683529 30.0781 32.261129 20.8115 30.355629 10C 21.553829 18.5077 16.084229 30.4096 16.084229 43.5863C 16.084229 48.5941 16.879029 53.4153 18.342629 57.9393C 21.734029 68.429 28.736429 77.3051 37.901029 83.1137C 34.731829 88.2173 34.398629 94.8412 37.604829 100.414C 41.630629 107.4161 49.926329 110.4665 57.360729 108.1775C 64.758029 121.1257 80.831329 127.4033 95.371729 122.1474C 99.602329 125.129 105.192929 126.4111 110.642829 125.156C 119.390229 123.1421 125.291829 115.3638 125.227629 106.7898L 125.227629 66.5772C 120.977329 68.9718 116.063029 70.3398 110.827929 70.3398L 110.825429 70.3349ZM 110.640363 125.151112C 105.190463 126.406112 99.599863 125.124112 95.369263 122.142512C 92.545563 131.681712 83.985763 138.615112 73.863463 138.615112C 67.386763 138.615112 61.551863 135.775912 57.447163 131.234712C 52.397063 131.185612 47.574163 130.424212 47.574163 130.424212C 40.887663 129.063612 34.717063 126.288212 29.390563 122.429812C 28.938863 124.674612 28.699463 126.998012 28.699463 129.375512C 28.699463 148.797812 44.523363 164.545912 64.044763 164.545912C 66.095863 164.545912 68.105063 164.369012 70.059863 164.037512C 70.059863 164.094012 70.059863 164.148012 70.059863 164.202012C 70.059863 182.293212 84.797763 196.958212 102.978863 196.958212C 111.556063 196.958212 119.368063 193.691612 125.227663 188.342412L 125.227663 106.784912C 125.291863 115.361412 119.390263 123.139612 110.642763 125.151112L 110.640363 125.151112ZM 57.3583 108.172548C 49.9239 110.459148 41.6281 107.408748 37.6024 100.409048C 34.3986 94.836348 34.7318 88.212448 37.8986 83.108748C 28.734 77.302748 21.7316 68.424148 18.3402 57.934448C 18.239 58.079348 18.1353 58.221848 18.0366 58.369148C 12.9619 65.842848 10 74.851648 10 84.550448C 10 100.121748 17.6392 113.917248 29.3906 122.429848C 34.717 126.288248 40.8876 129.061148 47.5741 130.424248C 47.5741 130.424248 52.3971 131.185648 57.4471 131.234748C 61.5518 135.778448 67.3867 138.615148 73.8634 138.615148C 83.9857 138.615148 92.5456 131.681748 95.3693 122.142548C 80.8288 127.400848 64.7556 121.120848 57.3583 108.172548ZM 34.450525 58.64656C 29.412825 49.46596 31.056725 37.71876 39.118025 30.28186M 53.91272 94.229622C 56.82772 84.970422 64.73602 78.641122 73.76732 77.258422M 46.826206 76.853149C 43.338606 77.813449 40.152106 79.935549 37.906006 83.108849M 95.366901 122.142412C 88.115201 114.926612 88.115201 103.223612 95.366901 96.007812M 70.059815 164.037625C 79.626715 162.404325 87.883015 156.944525 93.174915 149.298925C 93.174915 149.298925 93.177415 149.294025 93.179915 149.291525C 93.335415 149.294025 93.493315 149.296425 93.648815 149.296425C 106.678715 149.296425 117.240415 138.787125 117.240415 125.821725C 117.240415 124.657525 117.154015 123.510625 116.991115 122.390625M 125.22284 153.149902C 125.28694 161.726402 119.38544 169.504602 110.63794 171.516102M 68.127257 137.848823C 66.162557 137.816923 64.160757 138.190223 62.240457 139.017923C 57.735957 140.960623 54.751857 144.944323 53.910157 149.411823"></path></g></g></g><g id="g-root-3.line_sy_i0wt6t1sz483n-stroke" data-item-order="-94069" data-item-id="3.line_sy_i0wt6t1sz483n" data-item-class="ScenePart Part Indexed Stroke" data-item-index="3" data-renderer-id="0" transform="translate(217.99996948242188, 207)"><g id="3.line_sy_i0wt6t1sz483n-stroke" fill="none" stroke-linecap="round" stroke-linejoin="round" stroke-miterlimit="4" stroke="#484848" stroke-width="2"><g><path d="M 10.000031 10L 56.000031 10"></path><path d="M 50.000031 16.5L 56.500031 10L 50.000031 3.5" stroke-dasharray="none"></path></g></g></g><g id="g-root-2.cu_sy_hz1dxh1sz493c-stroke" data-item-order="-94068" data-item-id="2.cu_sy_hz1dxh1sz493c" data-item-class="ScenePart Part Indexed Fill Stroke" data-item-index="2" data-renderer-id="0" transform="translate(390.713134765625, 3)"><g id="2.cu_sy_hz1dxh1sz493c-stroke" fill="none" stroke-linecap="round" stroke-linejoin="round" stroke-miterlimit="4" stroke="#17b0e3" stroke-width="2"><g><path d="M 23.925937 128.405316C 36.810137 135.353516 52.917937 130.593716 59.900637 117.773216C 62.003537 113.912316 63.040237 109.759116 63.109337 105.652616L 63.151237 103.039416C 63.321537 100.637416 64.000337 98.233016 65.227037 95.978316C 67.473237 91.852216 71.150837 88.993416 75.314837 87.674516C 81.046037 80.940016 84.491737 71.476916 84.491737 61.962316C 84.464637 60.577116 84.363437 59.209016 84.195537 57.860716C 81.329937 56.310916 78.029837 55.424316 74.539737 55.424316C 69.719337 55.424316 65.308537 57.096916 61.833237 59.896716C 62.877337 63.035516 62.874837 66.540316 61.579037 69.863316C 59.542737 75.087316 54.848137 78.501216 49.630237 79.169216L 46.653537 79.346116C 40.835837 79.847116 35.524137 83.550816 33.270637 89.332316C 31.779837 93.156316 31.895837 97.203916 33.287937 100.743016C 30.301337 99.129416 26.949537 98.186316 23.311337 98.186316C 18.290837 98.186316 13.680237 99.932516 10.061737 102.850316L 10.061737 106.504916C 10.515937 115.398216 15.479537 123.851916 23.923437 128.405316L 23.925937 128.405316ZM 61.833237 59.8943C 62.877337 63.0331 62.874837 66.5379 61.579037 69.8609C 59.542737 75.0849 54.848137 78.4988 49.630237 79.1668L 46.653537 79.3436C 40.835837 79.8447 35.524137 83.5484 33.270637 89.3299C 31.779837 93.1539 31.895837 97.2015 33.287937 100.7406C 30.301337 99.127 26.949537 98.1839 23.311337 98.1839C 18.290837 98.1839 13.680237 99.9301 10.061737 102.8479L 10.061737 33.8284C 10.061737 20.6666 20.783837 10 34.008637 10C 44.318537 10 53.107937 16.4839 56.482037 25.5786C 71.155837 29.8104 82.250537 42.4196 84.193037 57.8607C 81.327437 56.311 78.027437 55.4243 74.537337 55.4243C 69.716837 55.4243 65.306037 57.0969 61.830737 59.8968L 61.833237 59.8943ZM 105.51872 96.314717C 105.51872 81.357517 96.98102 68.387117 84.49412 61.959717C 84.49412 71.476817 81.04852 80.937517 75.31722 87.674417C 71.15332 88.993317 67.47562 91.854517 65.22952 95.978217C 64.00032 98.232917 63.32402 100.637317 63.15372 103.039317L 63.11172 105.652517C 63.04262 109.759017 62.00592 113.912217 59.90302 117.773117C 52.92032 130.593517 36.81252 135.353317 23.92832 128.405217C 15.48442 123.851717 10.52082 115.398117 10.06662 106.504817L 10.06662 159.614017C 14.31692 162.008717 19.23122 163.376717 24.46642 163.376717C 26.17442 163.376717 27.84782 163.231817 29.47442 162.951817L 29.48432 162.951817C 31.76742 170.582717 38.87352 176.150517 47.28782 176.150517C 57.54582 176.150517 65.85892 167.876117 65.85892 157.671317C 65.85892 155.961917 65.62442 154.306517 65.19002 152.734717L 65.23192 152.722417C 77.65462 152.722417 87.72512 142.701817 87.72512 130.340617C 87.72512 129.837117 87.67572 128.842417 87.67572 128.842417C 96.60832 123.119817 103.03072 113.853217 104.93622 103.041817C 105.32122 100.858317 105.52362 98.611117 105.52362 96.319617L 105.51872 96.314717ZM 33.290375 100.743042C 34.393675 103.547842 36.299175 106.033342 38.846375 107.831142M 10.06419 64.604847C 9.99999 56.028347 15.90159 48.250147 24.64909 46.238647M 40.435935 59.793643C 49.810435 56.939743 55.087535 47.066443 52.219435 37.736043C 49.351335 28.407943 39.428935 23.156943 30.054535 26.010943M 56.484548 25.578613C 54.314948 26.597913 52.372448 28.172313 50.889048 30.262413C 50.405248 30.945213 49.990548 31.652613 49.642548 32.382013M 30.024872 72.385742C 33.060772 75.328042 36.879172 77.555642 41.270172 78.705142C 42.701772 79.080842 44.138272 79.326442 45.564972 79.449242M 76.474823 110.950195C 82.788623 114.585095 87.164823 121.186895 87.673223 128.839895M 48.307156 145.619594C 44.836756 141.680094 42.733856 136.519994 42.733856 130.871094M 75.314789 87.674431C 79.695889 86.286731 84.615189 86.608431 88.976489 88.958931M 55.995819 123.326172C 57.780319 126.207072 60.317719 128.682772 63.509119 130.431472C 64.550719 131.001272 65.619519 131.472872 66.708019 131.846172M 31.883462 147.338867C 29.881662 150.288567 28.711762 153.844867 28.711762 157.671367C 28.711762 159.506067 28.980762 161.276867 29.479362 162.949367"></path></g></g></g><g id="g-root-2.line_sy_1qduw911sz48w9-stroke" data-item-order="-94065" data-item-id="2.line_sy_1qduw911sz48w9" data-item-class="ScenePart Part Indexed Stroke" data-item-index="2" data-renderer-id="0" transform="translate(499.99993896484375, 87)"><g id="2.line_sy_1qduw911sz48w9-stroke" fill="none" stroke-linecap="round" stroke-linejoin="round" stroke-miterlimit="4" stroke="#484848" stroke-width="2"><g><path d="M 64.000061 10L 12.000061 10"></path><path d="M 18.000061 3.5L 11.500061 10L 18.000061 16.5" stroke-dasharray="none"></path></g></g></g><g id="g-root-1.cu_sy_4mbxdx1sz48i6-stroke" data-item-order="-94064" data-item-id="1.cu_sy_4mbxdx1sz48i6" data-item-class="ScenePart Part Indexed Indexed_1 Fill Stroke" data-item-index="1" data-renderer-id="0" transform="translate(285.770751953125, 3)"><g id="1.cu_sy_4mbxdx1sz48i6-stroke" fill="none" stroke-linecap="round" stroke-linejoin="round" stroke-miterlimit="4" stroke="#3bc482" stroke-width="2"><g><path d="M 53.68292 59.8943C 52.63892 63.0331 52.64132 66.5379 53.93722 69.8609C 55.97352 75.0849 60.66812 78.4988 65.88602 79.1668L 68.86272 79.3436C 74.68032 79.8447 79.99202 83.5484 82.24552 89.3299C 83.73632 93.1539 83.62032 97.2015 82.22822 100.7406C 85.21482 99.127 88.56672 98.1839 92.20492 98.1839C 97.22532 98.1839 101.83602 99.9301 105.45442 102.8479L 105.45442 33.8284C 105.45442 20.6666 94.73242 10 81.50752 10C 71.19762 10 62.40822 16.4839 59.03412 25.5786C 44.36042 29.8104 33.26562 42.4196 31.32312 57.8607C 34.18872 56.311 37.48882 55.4243 40.97892 55.4243C 45.79942 55.4243 50.21012 57.0969 53.68542 59.8968L 53.68292 59.8943ZM 40.201373 87.674516C 44.365273 88.993416 48.042973 91.854616 50.289073 95.978316C 51.518273 98.233016 52.194573 100.637416 52.364873 103.039416L 52.406873 105.652616C 52.475973 109.759116 53.510173 113.912316 55.615573 117.773216C 62.598273 130.593716 78.706073 135.353516 91.590273 128.405316C 100.034173 123.851916 104.997773 115.398216 105.451973 106.504916L 105.451973 102.850316C 101.833473 99.932516 97.222873 98.186316 92.202473 98.186316C 88.566673 98.186316 85.212373 99.129416 82.225773 100.743016C 83.617873 97.203916 83.731373 93.153916 82.243073 89.332316C 79.989573 83.550816 74.677873 79.847116 68.860173 79.346116L 65.883473 79.169216C 60.665673 78.501216 55.970973 75.087316 53.934673 69.863316C 52.638873 66.540316 52.636373 63.035516 53.680473 59.896716C 50.205173 57.096916 45.794473 55.424316 40.973973 55.424316C 37.483873 55.424316 34.183773 56.313416 31.318173 57.860716C 31.147873 59.206616 31.049173 60.574616 31.021973 61.962316C 31.021973 71.479416 34.467673 80.940016 40.198873 87.676916L 40.201373 87.674516ZM 91.5904 128.405258C 78.7061 135.353358 62.5984 130.593558 55.6157 117.773058C 53.5127 113.912158 52.4761 109.759058 52.407 105.652558L 52.365 103.039358C 52.1947 100.637358 51.5159 98.232858 50.2892 95.978258C 48.0431 91.852058 44.3654 88.993258 40.2015 87.674358C 34.4702 80.939958 31.0245 71.476858 31.0245 61.962158C 18.5352 68.389558 10 81.362358 10 96.317158C 10 98.611058 10.2024 100.855858 10.5874 103.039358C 12.4929 113.853258 18.9153 123.117358 27.8479 128.839958C 27.8479 128.839958 27.7985 129.834658 27.7985 130.338158C 27.7985 142.699358 37.869 152.719958 50.2917 152.719958L 50.3336 152.732258C 49.8968 154.304058 49.6647 155.959458 49.6647 157.668858C 49.6647 167.876158 57.9803 176.148058 68.2358 176.148058C 76.6501 176.148058 83.7562 170.580258 86.0393 162.946858L 86.0492 162.946858C 87.6757 163.229258 89.3492 163.374258 91.0572 163.374258C 96.2924 163.374258 101.2042 162.006158 105.457 159.611558L 105.457 106.502358C 105.0028 115.395658 100.0392 123.849258 91.5953 128.402758L 91.5904 128.405258ZM 105.452087 64.604847C 105.516187 56.028347 99.614687 48.250147 90.867187 46.238647M 75.080125 59.793643C 65.705725 56.939743 60.428625 47.066443 63.296725 37.736043C 66.164825 28.407943 76.087225 23.156943 85.461625 26.010943M 59.031616 25.578613C 61.201216 26.597913 63.143716 28.172313 64.627116 30.262413C 65.110916 30.945213 65.525616 31.652613 65.873616 32.382013M 85.491272 72.385742C 82.455272 75.328042 78.636972 77.555642 74.245972 78.705142C 72.814372 79.080842 71.377772 79.326442 69.951172 79.449242M 82.2258 100.743042C 81.1225 103.547842 79.217 106.033342 76.6698 107.831142M 39.041295 110.950195C 32.727595 114.585095 28.351395 121.186895 27.842895 128.839895M 67.208984 145.619594C 70.679384 141.680094 72.782284 136.519994 72.782284 130.871094M 40.201373 87.674554C 35.820273 86.286854 30.901073 86.608554 26.539673 88.959054M 59.520427 123.326172C 57.735927 126.207072 55.198527 128.682772 52.007027 130.431472C 50.965427 131.001272 49.896727 131.472872 48.808227 131.846172M 83.635132 147.338867C 85.636832 150.288567 86.806832 153.844867 86.806832 157.671367C 86.806832 159.506067 86.537832 161.276867 86.039232 162.949367"></path></g></g></g><g id="g-root-1.line_sy_1lwsfyd1sz47if-stroke" data-item-order="-94061" data-item-id="1.line_sy_1lwsfyd1sz47if" data-item-class="ScenePart Part Indexed Indexed_1 Stroke" data-item-index="1" data-renderer-id="0" transform="translate(218, 87)"><g id="1.line_sy_1lwsfyd1sz47if-stroke" fill="none" stroke-linecap="round" stroke-linejoin="round" stroke-miterlimit="4" stroke="#484848" stroke-width="2"><g><path d="M 10 10L 62 10"></path><path d="M 56 16.5L 62.5 10L 56 3.5" stroke-dasharray="none"></path></g></g></g><g id="g-root-tx_healthca_v4vmit1sz5onj-stroke" data-item-order="0" data-item-id="tx_healthca_v4vmit1sz5onj" data-item-class="Label Stroke SceneTarget Indexed Indexed_1" data-item-index="1" data-renderer-id="0" transform="translate(50, 75)"></g><g id="g-root-rate_8zn9p11r0ynsw-stroke" data-item-order="0" data-item-id="rate_8zn9p11r0ynsw" data-item-class="Icon Stroke SceneTarget Indexed Indexed_1" data-item-index="1" data-renderer-id="0" transform="translate(170, 69)"><g id="rate_8zn9p11r0ynsw-stroke" fill="none" stroke-linecap="round" stroke-linejoin="round" stroke-miterlimit="4" stroke="#484848" stroke-width="2"><g><path d="M 11.491428 21.082857C 12.802857 14.757143 20.594286 10 28 18.408571C 38.568569 6.297143 49.857143 21.314285 42.194286 29.054285L 28 42.142857L 19.694286 34.42857M 11.285714 28L 17.714285 28L 21.571428 22.857143L 26.714285 31.857143L 30.571428 26.714285L 34.42857 26.714285"></path></g></g></g><g id="g-root-driv_4o64ed1t8u136-stroke" data-item-order="0" data-item-id="driv_4o64ed1t8u136" data-item-class="Icon Stroke SceneTarget Indexed" data-item-index="2" data-renderer-id="0" transform="translate(566, 69)"><g id="driv_4o64ed1t8u136-stroke" fill="none" stroke-linecap="round" stroke-linejoin="round" stroke-miterlimit="4" stroke="#484848" stroke-width="2"><g><path d="M 39.365501 24.76C 42.059677 31.230217 39.747513 38.701469 33.869591 42.518837C 27.991671 46.336205 20.225855 45.410015 15.410593 40.317322C 10.595331 35.224628 10.105149 27.419155 14.245452 21.764053C 18.385756 16.108953 25.974684 14.218488 32.284 17.2705M 16.3915 27.2215C 19.55999 26.784554 22.752747 26.546585 25.951 26.509001C 29.149755 26.546541 32.343014 26.784508 35.512001 27.2215M 15.985 31.5205C 20.657499 30.5965 23.615499 35.509003 23.615499 40.130501M 35.923 31.5205C 31.2505 30.5965 28.288 35.509003 28.288 40.130501M 36.380501 20.518L 38.8885 12.16C 39.166824 11.530555 39.790268 11.124552 40.4785 11.124552C 41.166733 11.124552 41.79018 11.530555 42.068501 12.16L 44.574997 20.518M 37.404999 17.102501L 43.552002 17.102501M 15.893499 30.3475C 15.892639 35.90271 20.395786 40.406555 25.951 40.406555C 31.506212 40.406555 36.009361 35.90271 36.008499 30.3475C 36.009361 24.792286 31.506212 20.288441 25.951 20.288441C 20.395786 20.288441 15.892639 24.792286 15.893499 30.3475"></path></g></g></g><g id="g-root-tx_autonomo_v8mh1h1sz5mo2-stroke" data-item-order="0" data-item-id="tx_autonomo_v8mh1h1sz5mo2" data-item-class="Label Stroke SceneTarget Indexed" data-item-index="2" data-renderer-id="0" transform="translate(614, 63)"></g><g id="g-root-tx_contentc_v6r1s51sz5nns-stroke" data-item-order="0" data-item-id="tx_contentc_v6r1s51sz5nns" data-item-class="Label Stroke SceneTarget Indexed" data-item-index="3" data-renderer-id="0" transform="translate(2, 195)"></g><g id="g-root-2_hxr7id1t8u0i0-stroke" data-item-order="0" data-item-id="2_hxr7id1t8u0i0" data-item-class="Icon Stroke SceneTarget Indexed" data-item-index="3" data-renderer-id="0" transform="translate(170, 189)"><g id="2_hxr7id1t8u0i0-stroke" fill="none" stroke-linecap="round" stroke-linejoin="round" stroke-miterlimit="4" stroke="#484848" stroke-width="2"><g><path d="M 21.824499 40.691502C 21.392624 41.123844 20.806595 41.366772 20.195499 41.366772C 19.584404 41.366772 18.998375 41.123844 18.5665 40.691498L 15.3085 37.433498C 14.876154 37.001625 14.633226 36.415592 14.633226 35.804497C 14.633226 35.193405 14.876154 34.607372 15.308499 34.175499L 37.384003 12.1C 38.542145 10.907503 40.252792 10.431225 41.860561 10.853641C 43.468323 11.276055 44.723946 12.531678 45.146362 14.139442C 45.568779 15.747206 45.092499 17.457859 43.900002 18.616001ZM 37.384003 12.1C 35.584885 10.300099 32.667114 10.300099 30.868 12.1L 25.900002 17.0695M 29.155001 20.329L 35.671001 26.844999M 15.309999 37.435001L 18.568001 40.693001L 15.3085 43.951L 12.0505 40.693001ZM 13.679501 42.320503L 10.75 45.25"></path></g></g></g><g id="g-root-cont_v6q9cl1ravg8w-stroke" data-item-order="0" data-item-id="cont_v6q9cl1ravg8w" data-item-class="Icon Stroke SceneTarget Indexed" data-item-index="4" data-renderer-id="0" transform="translate(566, 189)"><g id="cont_v6q9cl1ravg8w-stroke" fill="none" stroke-linecap="round" stroke-linejoin="round" stroke-miterlimit="4" stroke="#484848" stroke-width="2"><g><path d="M 25 35.125L 26.5 35.125M 29.5 35.125L 31 35.125M 28.75 24.625L 27.25 24.625C 26.421572 24.625 25.75 25.296572 25.75 26.125L 25.75 27.625L 30.25 27.625L 30.25 26.125C 30.25 25.296572 29.578428 24.625 28.75 24.625ZM 28 24.625L 28 20.125C 28 17.639719 25.985283 15.625 23.5 15.625L 19 15.625M 18.25 29.875L 18.25 35.875M 21.25 32.875L 15.25 32.875M 37.75 29.5C 37.957108 29.5 38.125 29.667892 38.125 29.875M 37.375 29.875C 37.375 29.667892 37.542892 29.5 37.75 29.5M 37.75 30.25C 37.542892 30.25 37.375 30.082108 37.375 29.875M 38.125 29.875C 38.125 30.082108 37.957108 30.25 37.75 30.25M 34.75 32.5C 34.957108 32.5 35.125 32.667892 35.125 32.875M 34.375 32.875C 34.375 32.667892 34.542892 32.5 34.75 32.5M 34.75 33.25C 34.542892 33.25 34.375 33.082108 34.375 32.875M 35.125 32.875C 35.125 33.082108 34.957108 33.25 34.75 33.25M 37.75 35.5C 37.957108 35.5 38.125 35.667892 38.125 35.875M 37.375 35.875C 37.375 35.667892 37.542892 35.5 37.75 35.5M 37.75 36.25C 37.542892 36.25 37.375 36.082108 37.375 35.875M 38.125 35.875C 38.125 36.082108 37.957108 36.25 37.75 36.25M 40.75 32.5C 40.957108 32.5 41.125 32.667892 41.125 32.875M 40.375 32.875C 40.375 32.667892 40.542892 32.5 40.75 32.5M 40.75 33.25C 40.542892 33.25 40.375 33.082108 40.375 32.875M 41.125 32.875C 41.125 33.082108 40.957108 33.25 40.75 33.25M 45.25 32.875C 45.251465 29.925177 43.523651 27.24843 40.834919 26.035103C 38.146183 24.821775 34.995903 25.297218 32.785 27.25C 32.511543 27.491167 32.159607 27.624475 31.795 27.625L 24.205 27.625C 23.840391 27.624475 23.488457 27.491167 23.215 27.25C 20.199776 24.590822 15.62409 24.782087 12.841306 27.683624C 10.05852 30.585159 10.05852 35.164841 12.841306 38.066376C 15.62409 40.967911 20.199776 41.15918 23.215 38.5C 23.488457 38.258835 23.840391 38.125523 24.205 38.125L 31.795 38.125C 32.159607 38.125523 32.511543 38.258835 32.785 38.5C 34.995903 40.452782 38.146183 40.928223 40.834919 39.714897C 43.523651 38.501572 45.251465 35.824821 45.25 32.875Z"></path></g></g></g><g id="g-root-tx_entertai_1qaqith1sz5lvt-stroke" data-item-order="0" data-item-id="tx_entertai_1qaqith1sz5lvt" data-item-class="Label Stroke SceneTarget Indexed" data-item-index="4" data-renderer-id="0" transform="translate(614, 195)"></g></g></g></svg>