<?xml version="1.0" encoding="utf-8" standalone="yes"?>
<!DOCTYPE svg PUBLIC "-//W3C//DTD SVG 1.1//EN" "http://www.w3.org/Graphics/SVG/1.1/DTD/svg11.dtd">
<svg width="710" height="468" viewBox="0 0 710 468" style="fill:none;stroke:none;fill-rule:evenodd;clip-rule:evenodd;stroke-linecap:round;stroke-linejoin:round;stroke-miterlimit:1.5;" version="1.1" xmlns="http://www.w3.org/2000/svg" xmlns:xlink="http://www.w3.org/1999/xlink"><style id="fontImports">@import url("https://fonts.googleapis.com/css2?family=Shantell+Sans:wght@300..800&amp;display=block");</style><rect id="" x="0" y="0" width="710" height="468" style="fill: #ffffff;"></rect><g id="items" style="isolation: isolate"><g id="blend" style="mix-blend-mode:multiply"><g id="g-root-5.cr-small_cr_1qdu0o51ud3lzb-fill" data-item-order="-147187" data-item-id="5.cr-small_cr_1qdu0o51ud3lzb" data-item-class="Shape Stroke Fill ScenePart Part Indexed" data-item-index="5" data-renderer-id="0" transform="translate(211.25201416015625, 10.08502197265625)"><g id="5.cr-small_cr_1qdu0o51ud3lzb-fill" stroke="none" fill="#fde6cf"><g><path d="M 10 46C 10 65.882251 26.117749 82 46 82C 65.882251 82 82 65.882251 82 46C 82 26.117749 65.882251 10 46 10C 26.117749 10 10 26.117749 10 46"></path></g></g></g><g id="g-root-4.cr-small_cr_1utnisl1ud3l72-fill" data-item-order="-147185" data-item-id="4.cr-small_cr_1utnisl1ud3l72" data-item-class="Shape Stroke Fill ScenePart Part Indexed" data-item-index="4" data-renderer-id="0" transform="translate(150.2230224609375, 197.9150390625)"><g id="4.cr-small_cr_1utnisl1ud3l72-fill" stroke="none" fill="#cef3ff"><g><path d="M 10 46C 10 65.882251 26.117749 82 46 82C 65.882251 82 82 65.882251 82 46C 82 26.117749 65.882251 10 46 10C 26.117749 10 10 26.117749 10 46"></path></g></g></g><g id="g-root-3.cr-small_cr_1utnisl1ud3l71-fill" data-item-order="-147183" data-item-id="3.cr-small_cr_1utnisl1ud3l71" data-item-class="Shape Stroke Fill ScenePart Part Indexed" data-item-index="3" data-renderer-id="0" transform="translate(310.04998779296875, 314)"><g id="3.cr-small_cr_1utnisl1ud3l71-fill" stroke="none" fill="#ffd0ce"><g><path d="M 10 46C 10 65.882251 26.117749 82 46 82C 65.882251 82 82 65.882251 82 46C 82 26.117749 65.882251 10 46 10C 26.117749 10 10 26.117749 10 46"></path></g></g></g><g id="g-root-2.cr-small_cr_4o6h2d1ud3klg-fill" data-item-order="-147181" data-item-id="2.cr-small_cr_4o6h2d1ud3klg" data-item-class="Shape Stroke Fill ScenePart Part Indexed" data-item-index="2" data-renderer-id="0" transform="translate(469.7769775390625, 197.9150390625)"><g id="2.cr-small_cr_4o6h2d1ud3klg-fill" stroke="none" fill="#d5f7e8"><g><path d="M 10 46C 10 65.882251 26.117749 82 46 82C 65.882251 82 82 65.882251 82 46C 82 26.117749 65.882251 10 46 10C 26.117749 10 10 26.117749 10 46"></path></g></g></g><g id="g-root-1.cr-small_cr_4o6h2d1ud3klf-fill" data-item-order="-147179" data-item-id="1.cr-small_cr_4o6h2d1ud3klf" data-item-class="Shape Stroke Fill ScenePart Part Indexed Indexed_1" data-item-index="1" data-renderer-id="0" transform="translate(408.74798583984375, 10.08502197265625)"><g id="1.cr-small_cr_4o6h2d1ud3klf-fill" stroke="none" fill="#fff9ce"><g><path d="M 10 46C 10 65.882251 26.117749 82 46 82C 65.882251 82 82 65.882251 82 46C 82 26.117749 65.882251 10 46 10C 26.117749 10 10 26.117749 10 46"></path></g></g></g><g id="g-root-0.Vector_sy_hz0icl1ud3m69-fill" data-item-order="-147177" data-item-id="0.Vector_sy_hz0icl1ud3m69" data-item-class="ScenePart Part Indexed_0 Fill Stroke ColorFillGray ColorStrokeBlack" data-item-index="0" data-renderer-id="0" transform="translate(274, 109.9959716796875)"><g id="0.Vector_sy_hz0icl1ud3m69-fill" stroke="none" fill="#eaeaea"><g><path d="M 154 81.999998C 154 42.235998 121.765 9.999998 82 9.999998L 82 9.999998C 42.236 9.999998 10 42.235998 10 81.999998L 10 81.999998C 10 121.764998 42.236 153.999998 82 153.999998L 82 153.999998C 121.764 153.999998 154 121.764998 154 81.999998L 154 81.999998Z"></path></g></g></g><g id="g-root-0.Union_sy_93di3p1ud3myy-fill" data-item-order="-147175" data-item-id="0.Union_sy_93di3p1ud3myy" data-item-class="ScenePart Part Indexed_0 Fill Stroke ColorFillGray ColorStrokeBlack" data-item-index="0" data-renderer-id="0" transform="translate(239.46701049804688, 91.26800537109375)"><g id="0.Union_sy_93di3p1ud3myy-fill" stroke="none" fill="#eaeaea"><g><path d="M 48.54399 28.875995L 50.76499 9.999995L 69.40399 13.719995L 63.59799 17.937995L 79.06999 39.233995C 89.98399 32.570995 102.80999 28.731995 116.53299 28.731995C 130.29799 28.731995 143.16099 32.594995 154.09599 39.294995L 169.59699 17.959995L 163.84899 13.782995L 182.48799 10.062995L 184.70999 28.938995L 178.90399 24.720995L 163.39499 46.067995C 178.78399 59.272995 188.53299 78.863995 188.53299 100.731995C 188.53299 106.469995 187.86199 112.050995 186.59399 117.400995L 211.63899 125.538995L 213.83499 118.781995L 223.13299 135.358995L 205.86699 143.304995L 208.08499 136.479995L 183.04799 128.344995C 172.91999 152.713995 149.78999 170.318995 122.31699 172.502995L 122.31699 198.766995L 129.42199 198.766995L 116.52899 212.731995L 103.63699 198.766995L 110.81299 198.766995L 110.81299 172.507995C 83.30999 170.346995 60.15099 152.729995 50.01599 128.339995L 25.07099 136.444995L 27.26599 143.201995L 9.99999 135.255995L 19.29799 118.678995L 21.51599 125.504995L 46.47099 117.395995C 45.20399 112.046995 44.53299 106.467995 44.53299 100.731995C 44.53299 78.820995 54.31999 59.196995 69.76099 45.990995L 54.29199 24.699995L 48.54399 28.875995Z"></path></g></g></g><g id="g-root-tx_naturall_1ly0ijp1ud3mrk-fill" data-item-order="0" data-item-id="tx_naturall_1ly0ijp1ud3mrk" data-item-class="Label Stroke SceneTarget Indexed ColorStrokeBlack" data-item-index="5" data-renderer-id="0" transform="translate(94, 2)"><g id="tx_naturall_1ly0ijp1ud3mrk-fill" stroke="none" fill="#484848"><g><text style="font: 20px &quot;Shantell Sans&quot;, cursive; white-space: pre;"><tspan x="42.52" y="35.33" dominant-baseline="ideographic">Natural </tspan><tspan x="21.6" y="59.33" dominant-baseline="ideographic">Language </tspan><tspan x="14.83" y="83.33" dominant-baseline="ideographic">Processing</tspan></text></g></g></g><g id="g-root-squa_v6q9d11uclb7p-fill" data-item-order="0" data-item-id="squa_v6q9d11uclb7p" data-item-class="Icon Stroke SceneTarget Indexed InsideFill" data-item-index="5" data-renderer-id="0" transform="translate(223.25201416015625, 22.08502197265625)"></g><g id="g-root-rate_zoex9x1qr7hfz-fill" data-item-order="0" data-item-id="rate_zoex9x1qr7hfz" data-item-class="Icon Stroke SceneTarget Indexed Indexed_1 InsideFill" data-item-index="1" data-renderer-id="0" transform="translate(420.74798583984375, 22.08502197265625)"></g><g id="g-root-tx_healthca_8x4r8l1ud4zk4-fill" data-item-order="0" data-item-id="tx_healthca_8x4r8l1ud4zk4" data-item-class="Label Stroke SceneTarget Indexed Indexed_1 ColorStrokeBlack" data-item-index="1" data-renderer-id="0" transform="translate(490, 14)"><g id="tx_healthca_8x4r8l1ud4zk4-fill" stroke="none" fill="#484848"><g><text style="font: 20px &quot;Shantell Sans&quot;, cursive; white-space: pre;"><tspan x="12" y="35.33" dominant-baseline="ideographic">Healthcare </tspan><tspan x="12" y="59.33" dominant-baseline="ideographic">Applications</tspan></text></g></g></g><g id="g-root-1_ziswyt1ucld6p-fill" data-item-order="0" data-item-id="1_ziswyt1ucld6p" data-item-class="Icon Stroke SceneTarget SceneStart InsideFill InsideGrayFill ColorStrokeBlack" data-item-index="none" data-renderer-id="0" transform="translate(310, 145.9959716796875)"></g><g id="g-root-tx_autonomo_vbpyw51ud3mrl-fill" data-item-order="0" data-item-id="tx_autonomo_vbpyw51ud3mrl" data-item-class="Label Stroke SceneTarget Indexed ColorStrokeBlack" data-item-index="4" data-renderer-id="0" transform="translate(2, 218)"><g id="tx_autonomo_vbpyw51ud3mrl-fill" stroke="none" fill="#484848"><g><text style="font: 20px &quot;Shantell Sans&quot;, cursive; white-space: pre;"><tspan x="19.21" y="35.33" dominant-baseline="ideographic">Autonomous </tspan><tspan x="62.88" y="59.33" dominant-baseline="ideographic">Vehicles</tspan></text></g></g></g><g id="g-root-driv_1hcl6gl1qqutqg-fill" data-item-order="0" data-item-id="driv_1hcl6gl1qqutqg" data-item-class="Icon Stroke SceneTarget Indexed InsideFill" data-item-index="4" data-renderer-id="0" transform="translate(162.2230224609375, 209.9150390625)"></g><g id="g-root-doll_v4uu3p1uclc7f-fill" data-item-order="0" data-item-id="doll_v4uu3p1uclc7f" data-item-class="Icon Stroke SceneTarget Indexed InsideFill" data-item-index="2" data-renderer-id="0" transform="translate(481.77801513671875, 209.9150390625)"></g><g id="g-root-tx_financea_zjfaw51ud4zk3-fill" data-item-order="0" data-item-id="tx_financea_zjfaw51ud4zk3" data-item-class="Label Stroke SceneTarget Indexed ColorStrokeBlack" data-item-index="2" data-renderer-id="0" transform="translate(556, 218)"><g id="tx_financea_zjfaw51ud4zk3-fill" stroke="none" fill="#484848"><g><text style="font: 20px &quot;Shantell Sans&quot;, cursive; white-space: pre;"><tspan x="12" y="35.33" dominant-baseline="ideographic">Finance </tspan><tspan x="12" y="59.33" dominant-baseline="ideographic">Applications</tspan></text></g></g></g><g id="g-root-cont_1umse051uclbeq-fill" data-item-order="0" data-item-id="cont_1umse051uclbeq" data-item-class="Icon Stroke SceneTarget Indexed InsideFill" data-item-index="3" data-renderer-id="0" transform="translate(322, 326)"></g><g id="g-root-tx_manufact_1uuwgyt1ud3nd6-fill" data-item-order="0" data-item-id="tx_manufact_1uuwgyt1ud3nd6" data-item-class="Label Stroke SceneTarget Indexed ColorStrokeBlack" data-item-index="3" data-renderer-id="0" transform="translate(268, 398)"><g id="tx_manufact_1uuwgyt1ud3nd6-fill" stroke="none" fill="#484848"><g><text style="font: 20px &quot;Shantell Sans&quot;, cursive; white-space: pre;"><tspan x="13.77" y="35.33" dominant-baseline="ideographic">Manufacturing </tspan><tspan x="25.6" y="59.33" dominant-baseline="ideographic">Applications</tspan></text></g></g></g><g id="g-root-5.cr-small_cr_1qdu0o51ud3lzb-stroke" data-item-order="-147187" data-item-id="5.cr-small_cr_1qdu0o51ud3lzb" data-item-class="Shape Stroke Fill ScenePart Part Indexed" data-item-index="5" data-renderer-id="0" transform="translate(211.25201416015625, 10.08502197265625)"><g id="5.cr-small_cr_1qdu0o51ud3lzb-stroke" fill="none" stroke-linecap="round" stroke-linejoin="round" stroke-miterlimit="4" stroke="#dd8433" stroke-width="2"><g><path d="M 10 46C 10 65.882251 26.117749 82 46 82C 65.882251 82 82 65.882251 82 46C 82 26.117749 65.882251 10 46 10C 26.117749 10 10 26.117749 10 46"></path></g></g></g><g id="g-root-4.cr-small_cr_1utnisl1ud3l72-stroke" data-item-order="-147185" data-item-id="4.cr-small_cr_1utnisl1ud3l72" data-item-class="Shape Stroke Fill ScenePart Part Indexed" data-item-index="4" data-renderer-id="0" transform="translate(150.2230224609375, 197.9150390625)"><g id="4.cr-small_cr_1utnisl1ud3l72-stroke" fill="none" stroke-linecap="round" stroke-linejoin="round" stroke-miterlimit="4" stroke="#17b0e3" stroke-width="2"><g><path d="M 10 46C 10 65.882251 26.117749 82 46 82C 65.882251 82 82 65.882251 82 46C 82 26.117749 65.882251 10 46 10C 26.117749 10 10 26.117749 10 46"></path></g></g></g><g id="g-root-3.cr-small_cr_1utnisl1ud3l71-stroke" data-item-order="-147183" data-item-id="3.cr-small_cr_1utnisl1ud3l71" data-item-class="Shape Stroke Fill ScenePart Part Indexed" data-item-index="3" data-renderer-id="0" transform="translate(310.04998779296875, 314)"><g id="3.cr-small_cr_1utnisl1ud3l71-stroke" fill="none" stroke-linecap="round" stroke-linejoin="round" stroke-miterlimit="4" stroke="#e15e5a" stroke-width="2"><g><path d="M 10 46C 10 65.882251 26.117749 82 46 82C 65.882251 82 82 65.882251 82 46C 82 26.117749 65.882251 10 46 10C 26.117749 10 10 26.117749 10 46"></path></g></g></g><g id="g-root-2.cr-small_cr_4o6h2d1ud3klg-stroke" data-item-order="-147181" data-item-id="2.cr-small_cr_4o6h2d1ud3klg" data-item-class="Shape Stroke Fill ScenePart Part Indexed" data-item-index="2" data-renderer-id="0" transform="translate(469.7769775390625, 197.9150390625)"><g id="2.cr-small_cr_4o6h2d1ud3klg-stroke" fill="none" stroke-linecap="round" stroke-linejoin="round" stroke-miterlimit="4" stroke="#3bc482" stroke-width="2"><g><path d="M 10 46C 10 65.882251 26.117749 82 46 82C 65.882251 82 82 65.882251 82 46C 82 26.117749 65.882251 10 46 10C 26.117749 10 10 26.117749 10 46"></path></g></g></g><g id="g-root-1.cr-small_cr_4o6h2d1ud3klf-stroke" data-item-order="-147179" data-item-id="1.cr-small_cr_4o6h2d1ud3klf" data-item-class="Shape Stroke Fill ScenePart Part Indexed Indexed_1" data-item-index="1" data-renderer-id="0" transform="translate(408.74798583984375, 10.08502197265625)"><g id="1.cr-small_cr_4o6h2d1ud3klf-stroke" fill="none" stroke-linecap="round" stroke-linejoin="round" stroke-miterlimit="4" stroke="#e3cd09" stroke-width="2"><g><path d="M 10 46C 10 65.882251 26.117749 82 46 82C 65.882251 82 82 65.882251 82 46C 82 26.117749 65.882251 10 46 10C 26.117749 10 10 26.117749 10 46"></path></g></g></g><g id="g-root-0.Vector_sy_hz0icl1ud3m69-stroke" data-item-order="-147177" data-item-id="0.Vector_sy_hz0icl1ud3m69" data-item-class="ScenePart Part Indexed_0 Fill Stroke ColorFillGray ColorStrokeBlack" data-item-index="0" data-renderer-id="0" transform="translate(274, 109.9959716796875)"><g id="0.Vector_sy_hz0icl1ud3m69-stroke" fill="none" stroke-linecap="round" stroke-linejoin="round" stroke-miterlimit="4" stroke="#2c2c2c" stroke-width="2"><g><path d="M 154 81.999998C 154 42.235998 121.765 9.999998 82 9.999998L 82 9.999998C 42.236 9.999998 10 42.235998 10 81.999998L 10 81.999998C 10 121.764998 42.236 153.999998 82 153.999998L 82 153.999998C 121.764 153.999998 154 121.764998 154 81.999998L 154 81.999998Z"></path></g></g></g><g id="g-root-0.Union_sy_93di3p1ud3myy-stroke" data-item-order="-147175" data-item-id="0.Union_sy_93di3p1ud3myy" data-item-class="ScenePart Part Indexed_0 Fill Stroke ColorFillGray ColorStrokeBlack" data-item-index="0" data-renderer-id="0" transform="translate(239.46701049804688, 91.26800537109375)"><g id="0.Union_sy_93di3p1ud3myy-stroke" fill="none" stroke-linecap="round" stroke-linejoin="round" stroke-miterlimit="4" stroke="#2c2c2c" stroke-width="2"><g><path d="M 48.54399 28.875995L 50.76499 9.999995L 69.40399 13.719995L 63.59799 17.937995L 79.06999 39.233995C 89.98399 32.570995 102.80999 28.731995 116.53299 28.731995C 130.29799 28.731995 143.16099 32.594995 154.09599 39.294995L 169.59699 17.959995L 163.84899 13.782995L 182.48799 10.062995L 184.70999 28.938995L 178.90399 24.720995L 163.39499 46.067995C 178.78399 59.272995 188.53299 78.863995 188.53299 100.731995C 188.53299 106.469995 187.86199 112.050995 186.59399 117.400995L 211.63899 125.538995L 213.83499 118.781995L 223.13299 135.358995L 205.86699 143.304995L 208.08499 136.479995L 183.04799 128.344995C 172.91999 152.713995 149.78999 170.318995 122.31699 172.502995L 122.31699 198.766995L 129.42199 198.766995L 116.52899 212.731995L 103.63699 198.766995L 110.81299 198.766995L 110.81299 172.507995C 83.30999 170.346995 60.15099 152.729995 50.01599 128.339995L 25.07099 136.444995L 27.26599 143.201995L 9.99999 135.255995L 19.29799 118.678995L 21.51599 125.504995L 46.47099 117.395995C 45.20399 112.046995 44.53299 106.467995 44.53299 100.731995C 44.53299 78.820995 54.31999 59.196995 69.76099 45.990995L 54.29199 24.699995L 48.54399 28.875995Z"></path></g></g></g><g id="g-root-tx_naturall_1ly0ijp1ud3mrk-stroke" data-item-order="0" data-item-id="tx_naturall_1ly0ijp1ud3mrk" data-item-class="Label Stroke SceneTarget Indexed ColorStrokeBlack" data-item-index="5" data-renderer-id="0" transform="translate(94, 2)"></g><g id="g-root-squa_v6q9d11uclb7p-stroke" data-item-order="0" data-item-id="squa_v6q9d11uclb7p" data-item-class="Icon Stroke SceneTarget Indexed InsideFill" data-item-index="5" data-renderer-id="0" transform="translate(223.25201416015625, 22.08502197265625)"><g id="squa_v6q9d11uclb7p-stroke" fill="none" stroke-linecap="round" stroke-linejoin="round" stroke-miterlimit="4" stroke="#dd8433" stroke-width="2"><g><path d="M 25.428572 52.857143L 11.714286 56.285713L 15.142858 46L 15.142858 15.142858C 15.142858 13.24931 16.677881 11.714286 18.571428 11.714286L 52.857143 11.714286C 54.750694 11.714286 56.285713 13.24931 56.285713 15.142858L 56.285713 49.428574C 56.285713 51.322121 54.750694 52.857143 52.857143 52.857143ZM 42.57143 11.714286L 35.714287 22L 44.285713 27.142857L 39.142857 34"></path></g></g></g><g id="g-root-rate_zoex9x1qr7hfz-stroke" data-item-order="0" data-item-id="rate_zoex9x1qr7hfz" data-item-class="Icon Stroke SceneTarget Indexed Indexed_1 InsideFill" data-item-index="1" data-renderer-id="0" transform="translate(420.74798583984375, 22.08502197265625)"><g id="rate_zoex9x1qr7hfz-stroke" fill="none" stroke-linecap="round" stroke-linejoin="round" stroke-miterlimit="4" stroke="#e3cd09" stroke-width="2"><g><path d="M 11.988571 24.777143C 13.737143 16.342857 24.125713 10 34 21.211428C 48.091427 5.062857 63.142857 25.085714 52.925716 35.405712L 34 52.857143L 22.925714 42.57143M 11.714286 34L 20.285715 34L 25.428572 27.142857L 32.285713 39.142857L 37.428574 32.285713L 42.57143 32.285713"></path></g></g></g><g id="g-root-tx_healthca_8x4r8l1ud4zk4-stroke" data-item-order="0" data-item-id="tx_healthca_8x4r8l1ud4zk4" data-item-class="Label Stroke SceneTarget Indexed Indexed_1 ColorStrokeBlack" data-item-index="1" data-renderer-id="0" transform="translate(490, 14)"></g><g id="g-root-1_ziswyt1ucld6p-stroke" data-item-order="0" data-item-id="1_ziswyt1ucld6p" data-item-class="Icon Stroke SceneTarget SceneStart InsideFill InsideGrayFill ColorStrokeBlack" data-item-index="none" data-renderer-id="0" transform="translate(310, 145.9959716796875)"><g id="1_ziswyt1ucld6p-stroke" fill="none" stroke-linecap="round" stroke-linejoin="round" stroke-miterlimit="4" stroke="#484848" stroke-width="2"><g><path d="M 27.849998 71.083C 31.030655 70.553589 33.716057 68.426804 34.959999 65.451996M 17.263 35.638C 23.400017 36.714172 28.672504 40.616302 31.494999 46.171001M 27.348999 40.687L 32.728001 36.652M 40 12.019C 39.942333 15.026397 39.399342 18.004742 38.392002 20.839001M 34 23.5C 34 25.156855 35.343143 26.5 37 26.5C 38.656857 26.5 40 25.156855 40 23.5C 40 21.843145 38.656857 20.5 37 20.5C 35.343143 20.5 34 21.843145 34 23.5ZM 52 29.5C 52 31.156855 53.343143 32.5 55 32.5C 56.656857 32.5 58 31.156855 58 29.5C 58 27.843145 56.656857 26.5 55 26.5C 53.343143 26.5 52 27.843145 52 29.5ZM 62.5 41.5C 62.5 43.156857 63.843147 44.5 65.5 44.5C 67.156853 44.5 68.5 43.156857 68.5 41.5C 68.5 39.843143 67.156853 38.5 65.5 38.5C 63.843147 38.5 62.5 39.843143 62.5 41.5ZM 52 52C 52 53.656857 53.343143 55 55 55C 56.656857 55 58 53.656857 58 52C 58 50.343143 56.656857 49 55 49C 53.343143 49 52 50.343143 52 52ZM 32.5 35.5C 32.5 37.156857 33.843147 38.5 35.5 38.5C 37.156857 38.5 38.5 37.156857 38.5 35.5C 38.5 33.843147 37.156857 32.5 35.5 32.5C 33.843147 32.5 32.5 33.843147 32.5 35.5ZM 29.5 49C 29.5 50.656857 30.843145 52 32.5 52C 34.156857 52 35.5 50.656857 35.5 49C 35.5 47.343143 34.156857 46 32.5 46C 30.843145 46 29.5 47.343143 29.5 49ZM 80.5 46C 80.512016 41.778744 78.329506 37.854546 74.737 35.638C 74.9403 34.752205 75.045937 33.846802 75.052002 32.938C 75.112106 26.699877 70.364319 21.464764 64.149994 20.917C 64.211967 18.460598 63.287228 16.081762 61.582458 14.312159C 59.877686 12.542555 57.535004 11.529713 55.077999 11.5C 51.19334 11.722404 47.727177 14.013325 46 17.5C 44.272823 14.013325 40.80666 11.722404 36.922001 11.5C 34.464996 11.529713 32.122314 12.542555 30.417543 14.312159C 28.712769 16.081762 27.788029 18.460598 27.849998 20.917C 21.633362 21.464937 16.884737 26.703581 16.948 32.944C 16.949144 33.852253 17.049744 34.757648 17.247999 35.643997C 13.664934 37.869446 11.485849 41.788063 11.485849 46.006001C 11.485849 50.223934 13.664934 54.142551 17.247999 56.367996C 17.049744 57.254349 16.949144 58.159748 16.948 59.067997C 16.891041 65.303825 21.638002 70.535416 27.849998 71.083C 27.788029 73.539398 28.712769 75.918236 30.417543 77.687836C 32.122314 79.457443 34.464996 80.470284 36.922001 80.5C 40.504494 80.586853 43.89994 78.903717 45.999996 75.999992C 48.100056 78.903717 51.495502 80.586853 55.077995 80.499992C 57.535004 80.470284 59.877686 79.457443 61.582458 77.687836C 63.287228 75.918236 64.211967 73.539398 64.149994 71.083C 70.366638 70.535065 75.115265 65.296417 75.052002 59.056C 75.045937 58.147194 74.9403 57.241791 74.737 56.355999C 78.327682 54.140575 80.509926 50.219124 80.5 46ZM 46 17.5L 46 52M 46 63.874001L 46 76M 73.518997 26.989L 65.199997 31.153C 62.769722 32.369732 59.914307 32.398506 57.459999 31.230999M 55 49C 55.889565 45.287899 58.787903 42.389565 62.500008 41.500004M 64.149994 71.083C 63.321999 68.199997 61.908997 65.983002 59.5 65.5M 32.5 62.5C 32.5 64.156853 33.843147 65.5 35.5 65.5C 37.156857 65.5 38.5 64.156853 38.5 62.5C 38.5 60.843147 37.156857 59.5 35.5 59.5C 33.843147 59.5 32.5 60.843147 32.5 62.5ZM 53.5 65.5C 53.5 67.156853 54.843143 68.5 56.5 68.5C 58.156853 68.5 59.5 67.156853 59.5 65.5C 59.5 63.843147 58.156853 62.5 56.5 62.5C 54.843143 62.5 53.5 63.843147 53.5 65.5Z"></path></g></g></g><g id="g-root-tx_autonomo_vbpyw51ud3mrl-stroke" data-item-order="0" data-item-id="tx_autonomo_vbpyw51ud3mrl" data-item-class="Label Stroke SceneTarget Indexed ColorStrokeBlack" data-item-index="4" data-renderer-id="0" transform="translate(2, 218)"></g><g id="g-root-driv_1hcl6gl1qqutqg-stroke" data-item-order="0" data-item-id="driv_1hcl6gl1qqutqg" data-item-class="Icon Stroke SceneTarget Indexed InsideFill" data-item-index="4" data-renderer-id="0" transform="translate(162.2230224609375, 209.9150390625)"><g id="driv_1hcl6gl1qqutqg-stroke" fill="none" stroke-linecap="round" stroke-linejoin="round" stroke-miterlimit="4" stroke="#17b0e3" stroke-width="2"><g><path d="M 49.153999 29.68C 52.746235 38.306953 49.663349 48.268623 41.826122 53.358448C 33.988892 58.448273 23.634474 57.213352 17.214125 50.423096C 10.793776 43.632839 10.140199 33.22554 15.660603 25.685406C 21.181007 18.145271 31.299578 15.624651 39.712002 19.694M 18.521999 32.961998C 22.746653 32.379402 27.003662 32.062115 31.268002 32.012001C 35.533005 32.062057 39.790684 32.379345 44.015999 32.961998M 17.98 38.694C 24.209999 37.461998 28.153999 44.012001 28.153999 50.174M 44.563999 38.694C 38.334 37.461998 34.384003 44.012001 34.384003 50.174M 45.174 24.024L 48.518002 12.88C 48.889099 12.040739 49.720356 11.499403 50.638 11.499403C 51.555645 11.499403 52.386906 12.040739 52.757999 12.88L 56.099998 24.024M 46.540001 19.470001L 54.736 19.470001M 17.858 37.129997C 17.856853 44.536949 23.86105 50.542076 31.268 50.542076C 38.67495 50.542076 44.679146 44.536949 44.677998 37.129997C 44.679146 29.723049 38.67495 23.717922 31.268 23.717922C 23.86105 23.717922 17.856853 29.723049 17.858 37.129997"></path></g></g></g><g id="g-root-doll_v4uu3p1uclc7f-stroke" data-item-order="0" data-item-id="doll_v4uu3p1uclc7f" data-item-class="Icon Stroke SceneTarget Indexed InsideFill" data-item-index="2" data-renderer-id="0" transform="translate(481.77801513671875, 209.9150390625)"><g id="doll_v4uu3p1uclc7f-stroke" fill="none" stroke-linecap="round" stroke-linejoin="round" stroke-miterlimit="4" stroke="#3bc482" stroke-width="2"><g><path d="M 34 34.66L 34 31.66M 39 34.66L 31.68 34.66C 30.199877 34.66 29 35.859879 29 37.34C 28.991413 38.435104 29.659824 39.421803 30.68 39.82L 37.32 41.48C 38.530403 41.947182 39.232323 43.21431 38.986397 44.488224C 38.740467 45.762135 37.617325 46.676933 36.32 46.66L 29 46.66M 34 49.66L 34 46.66M 27 22.66L 41 22.66M 38 22.66C 38.500992 22.653595 38.919914 22.27742 38.98 21.779999C 39.412281 19.161526 40.227692 16.620956 41.400002 14.24C 41.597973 13.868419 41.542 13.412638 41.260002 13.1C 40.973953 12.778303 40.511467 12.680938 40.120003 12.860001L 35.919998 14.66L 34.940002 12C 34.78915 11.61832 34.42041 11.367559 34.010002 11.367559C 33.599594 11.367559 33.23085 11.61832 33.080002 12L 32 14.66L 27.82 12.86C 27.428532 12.680938 26.966045 12.778303 26.68 13.1C 26.397999 13.412638 26.342026 13.868419 26.540001 14.24C 27.712315 16.620956 28.527723 19.161526 28.960001 21.780001C 29.020082 22.27742 29.439005 22.653595 29.940001 22.66M 38 22.66C 38 22.66 52 33.66 52 43.279999C 52 53.279999 44 56.66 34 56.66C 24 56.66 16 53.220001 16 43.279999C 16 33.66 30 22.66 30 22.66"></path></g></g></g><g id="g-root-tx_financea_zjfaw51ud4zk3-stroke" data-item-order="0" data-item-id="tx_financea_zjfaw51ud4zk3" data-item-class="Label Stroke SceneTarget Indexed ColorStrokeBlack" data-item-index="2" data-renderer-id="0" transform="translate(556, 218)"></g><g id="g-root-cont_1umse051uclbeq-stroke" data-item-order="0" data-item-id="cont_1umse051uclbeq" data-item-class="Icon Stroke SceneTarget Indexed InsideFill" data-item-index="3" data-renderer-id="0" transform="translate(322, 326)"><g id="cont_1umse051uclbeq-stroke" fill="none" stroke-linecap="round" stroke-linejoin="round" stroke-miterlimit="4" stroke="#e15e5a" stroke-width="2"><g><path d="M 51.973999 21.889999C 52.044758 22.37009 52.080189 22.854725 52.080002 23.34C 52.078693 26.984512 50.045708 30.324289 46.808914 31.9993C 43.572124 33.674309 39.671524 33.405106 36.695526 31.301321C 33.719528 29.197535 32.164623 25.610138 32.664001 22M 27.694 21.444L 52.403999 21.444M 56.360001 56.452L 54.740002 47.799999C 53.682468 42.162247 48.760082 38.076786 43.024002 38.076L 43.023998 38.076C 38.219666 38.075943 33.591385 39.88456 30.060001 43.142002L 24.897999 47.91C 24.622192 48.218319 24.220411 48.383404 23.807508 48.358059C 23.394606 48.332718 23.016029 48.119736 22.779999 47.779999L 19.293999 42.526001C 18.002731 40.698341 15.476902 40.258461 13.64381 41.542011C 11.810719 42.825562 11.360192 45.349514 12.636 47.188L 16.122 52.442001C 17.77404 54.815338 20.423296 56.299923 23.309999 56.469997C 23.51 56.484001 23.709999 56.487999 23.9 56.487999C 26.586729 56.491554 29.147518 55.349384 30.940001 53.348L 34.771999 49.088001L 36.251999 56.487999M 17.756001 41.200001L 12.018 31.493999C 11.256442 30.20603 11.683434 28.544548 12.971616 27.78335C 14.259798 27.02215 15.921161 27.449606 16.681999 28.737999L 23.414 40.138M 17.251999 29.702L 28.618 26.406M 32.571999 21.444L 34.720001 14.884L 43.146 11.51L 50.807999 14.59L 52.403999 21.444M 35.507999 39.919998C 37.246002 41.293999 42.326 52.82 36.251999 56.490002M 27.540001 45.445999L 31.813999 51.830002"></path></g></g></g><g id="g-root-tx_manufact_1uuwgyt1ud3nd6-stroke" data-item-order="0" data-item-id="tx_manufact_1uuwgyt1ud3nd6" data-item-class="Label Stroke SceneTarget Indexed ColorStrokeBlack" data-item-index="3" data-renderer-id="0" transform="translate(268, 398)"></g></g></g></svg>