<?xml version="1.0" encoding="utf-8" standalone="yes"?>
<!DOCTYPE svg PUBLIC "-//W3C//DTD SVG 1.1//EN" "http://www.w3.org/Graphics/SVG/1.1/DTD/svg11.dtd">
<svg width="614" height="337" viewBox="0 0 614 337" style="fill:none;stroke:none;fill-rule:evenodd;clip-rule:evenodd;stroke-linecap:round;stroke-linejoin:round;stroke-miterlimit:1.5;" version="1.1" xmlns="http://www.w3.org/2000/svg" xmlns:xlink="http://www.w3.org/1999/xlink"><style id="fontImports">@import url("https://fonts.googleapis.com/css2?family=Roboto:wght@400;700&amp;display=block");</style><rect id="" x="0" y="0" width="613.529" height="336.187" style="fill: #ffffff;"></rect><g id="items" style="isolation: isolate"><g id="blend" style="mix-blend-mode:multiply"><g id="g-root-5.cu_sy_8z0cs21vgmia6-fill" data-item-order="-40764" data-item-id="5.cu_sy_8z0cs21vgmia6" data-item-class="ScenePart Part Indexed Fill Stroke" data-item-index="5" data-renderer-id="0" transform="translate(3, 250.39208984375)"><g id="5.cu_sy_8z0cs21vgmia6-fill" stroke="none" fill="#ebe6ff"><g><path d="M 127.865599 20.2322C 127.072599 29.7108 98.925799 34.4164 70.438399 39.6509C 49.240499 43.546 29.886599 45.288 22.274199 47.0136C 16.031099 48.4288 9.999999 52.8286 10.565499 61.629C 10.909699 66.9868 14.232099 71.4046 22.274199 72.035C 31.965999 72.7948 48.632699 69.9303 75.757899 65.242C 124.527599 56.8124 141.431599 48.3751 141.431599 31.5084C 141.431599 20.2322 126.082599 12.281 119.205599 10C 123.373599 11.6633 128.339599 14.562 127.865599 20.2322Z"></path></g></g></g><g id="g-root-5.cu_1_sy_4j6unm1vgmj2f-fill" data-item-order="-40762" data-item-id="5.cu_1_sy_4j6unm1vgmj2f" data-item-class="ScenePart Part Indexed Fill Stroke" data-item-index="5" data-renderer-id="0" transform="translate(6.224365234375, 244.11895751953125)"><g id="5.cu_1_sy_4j6unm1vgmj2f-fill" stroke="none" fill="#ebe6ff"><g><path d="M 38.0076 27.1771C 16.9757 24.0392 10.9029 18.5537 10 17.5313C 11.8743 19.5171 14.7922 20.8771 19.0033 21.2053C 28.7014 21.9611 45.379 19.1113 72.522 14.4469C 81.0593 12.9798 88.6207 11.5124 95.2864 10C 102.5445 12.184 110.341 13.5695 117.352 16.811C 120.339 18.2371 124.813 20.893 124.686 26.0148C 124.538 31.9893 114.66 35.7537 102.0009 38.9452C 101.6757 38.8312 100.3044 38.2844 99.9973 38.1713C 92.3051 35.2781 65.1564 31.2276 38.0076 27.1771Z"></path></g></g></g><g id="g-root-4.cu_sy_hu0vxu1vgmkn8-fill" data-item-order="-40760" data-item-id="4.cu_sy_hu0vxu1vgmkn8" data-item-class="ScenePart Part Indexed Fill Stroke" data-item-index="4" data-renderer-id="0" transform="translate(3, 193.36798095703125)"><g id="4.cu_sy_hu0vxu1vgmkn8-fill" stroke="none" fill="#e6efff"><g><path d="M 127.865599 20.2322C 127.072599 29.7108 98.925799 34.4164 70.438399 39.6509C 49.240499 43.546 29.886599 45.288 22.274199 47.0136C 16.031099 48.4288 9.999999 52.8286 10.565499 61.629C 10.909699 66.9868 14.232099 71.4046 22.274199 72.035C 31.965999 72.7948 48.632699 69.9303 75.757899 65.242C 124.527599 56.8124 141.431599 48.3751 141.431599 31.5084C 141.431599 20.2322 126.082599 12.281 119.205599 10C 123.373599 11.6633 128.339599 14.562 127.865599 20.2322Z"></path></g></g></g><g id="g-root-4.cu_1_sy_8z0cs21vgmia5-fill" data-item-order="-40758" data-item-id="4.cu_1_sy_8z0cs21vgmia5" data-item-class="ScenePart Part Indexed Fill Stroke" data-item-index="4" data-renderer-id="0" transform="translate(6.224365234375, 187.09552001953125)"><g id="4.cu_1_sy_8z0cs21vgmia5-fill" stroke="none" fill="#e6efff"><g><path d="M 38.0076 27.1771C 16.9757 24.0392 10.9029 18.5537 10 17.5313C 11.8743 19.5171 14.7922 20.8771 19.0033 21.2053C 28.7014 21.9611 45.379 19.1113 72.522 14.4469C 81.0593 12.9798 88.6207 11.5124 95.2864 10C 102.5445 12.184 110.341 13.5695 117.352 16.811C 120.339 18.2371 124.813 20.893 124.686 26.0148C 124.538 31.9893 114.66 35.7537 102.0009 38.9452C 101.6757 38.8312 100.3044 38.2844 99.9973 38.1713C 92.3051 35.2781 65.1564 31.2276 38.0076 27.1771Z"></path></g></g></g><g id="g-root-3.cu_sy_m9ue2a1vgmjuy-fill" data-item-order="-40756" data-item-id="3.cu_sy_m9ue2a1vgmjuy" data-item-class="ScenePart Part Indexed Fill Stroke" data-item-index="3" data-renderer-id="0" transform="translate(3, 136.34259033203125)"><g id="3.cu_sy_m9ue2a1vgmjuy-fill" stroke="none" fill="#e6f9ff"><g><path d="M 127.865599 20.2322C 127.072599 29.7108 98.925799 34.4164 70.438399 39.6509C 49.240499 43.546 29.886599 45.288 22.274199 47.0136C 16.031099 48.4288 9.999999 52.8286 10.565499 61.629C 10.909699 66.9868 14.232099 71.4046 22.274199 72.035C 31.965999 72.7948 48.632699 69.9303 75.757899 65.242C 124.527599 56.8124 141.431599 48.3751 141.431599 31.5084C 141.431599 20.2322 126.082599 12.281 119.205599 10C 123.373599 11.6633 128.339599 14.562 127.865599 20.2322Z"></path></g></g></g><g id="g-root-3.cu_1_sy_m9ue2a1vgmjuz-fill" data-item-order="-40754" data-item-id="3.cu_1_sy_m9ue2a1vgmjuz" data-item-class="ScenePart Part Indexed Fill Stroke" data-item-index="3" data-renderer-id="0" transform="translate(6.224365234375, 130.07012939453125)"><g id="3.cu_1_sy_m9ue2a1vgmjuz-fill" stroke="none" fill="#e6f9ff"><g><path d="M 38.0076 27.1771C 16.9757 24.0392 10.9029 18.5537 10 17.5313C 11.8743 19.5171 14.7922 20.8771 19.0033 21.2053C 28.7014 21.9611 45.379 19.1113 72.522 14.4469C 81.0593 12.9798 88.6207 11.5124 95.2864 10C 102.5445 12.184 110.341 13.5695 117.352 16.811C 120.339 18.2371 124.813 20.893 124.686 26.0148C 124.538 31.9893 114.66 35.7537 102.0009 38.9452C 101.6757 38.8312 100.3044 38.2844 99.9973 38.1713C 92.3051 35.2781 65.1564 31.2276 38.0076 27.1771Z"></path></g></g></g><g id="g-root-2.cu_sy_zlawfm1vgmia0-fill" data-item-order="-40752" data-item-id="2.cu_sy_zlawfm1vgmia0" data-item-class="ScenePart Part Indexed Fill Stroke" data-item-index="2" data-renderer-id="0" transform="translate(3, 79.31817626953125)"><g id="2.cu_sy_zlawfm1vgmia0-fill" stroke="none" fill="#e9fbf3"><g><path d="M 127.865599 20.2322C 127.072599 29.7108 98.925799 34.4164 70.438399 39.6509C 49.240499 43.546 29.886599 45.288 22.274199 47.0136C 16.031099 48.4288 9.999999 52.8286 10.565499 61.629C 10.909699 66.9868 14.232099 71.4046 22.274199 72.035C 31.965999 72.7948 48.632699 69.9303 75.757899 65.242C 124.527599 56.8124 141.431599 48.3751 141.431599 31.5084C 141.431599 20.2322 126.082599 12.281 119.205599 10C 123.373599 11.6633 128.339599 14.562 127.865599 20.2322Z"></path></g></g></g><g id="g-root-2.cu_1_sy_v5heb61vgmj29-fill" data-item-order="-40750" data-item-id="2.cu_1_sy_v5heb61vgmj29" data-item-class="ScenePart Part Indexed Fill Stroke" data-item-index="2" data-renderer-id="0" transform="translate(6.224365234375, 73.04473876953125)"><g id="2.cu_1_sy_v5heb61vgmj29-fill" stroke="none" fill="#e9fbf3"><g><path d="M 38.0076 27.1771C 16.9757 24.0392 10.9029 18.5537 10 17.5313C 11.8743 19.5171 14.7922 20.8771 19.0033 21.2053C 28.7014 21.9611 45.379 19.1113 72.522 14.4469C 81.0593 12.9798 88.6207 11.5124 95.2864 10C 102.5445 12.184 110.341 13.5695 117.352 16.811C 120.339 18.2371 124.813 20.893 124.686 26.0148C 124.538 31.9893 114.66 35.7537 102.0009 38.9452C 101.6757 38.8312 100.3044 38.2844 99.9973 38.1713C 92.3051 35.2781 65.1564 31.2276 38.0076 27.1771Z"></path></g></g></g><g id="g-root-1.cu_sy_140hxgy1vgmknh-fill" data-item-order="-40748" data-item-id="1.cu_sy_140hxgy1vgmknh" data-item-class="ScenePart Part Indexed Indexed_1 Fill Stroke" data-item-index="1" data-renderer-id="0" transform="translate(3, 22.29376220703125)"><g id="1.cu_sy_140hxgy1vgmknh-fill" stroke="none" fill="#f5fbe9"><g><path d="M 127.865599 20.2322C 127.072599 29.7108 98.925799 34.4164 70.438399 39.6509C 49.240499 43.546 29.886599 45.288 22.274199 47.0136C 16.031099 48.4288 9.999999 52.8286 10.565499 61.629C 10.909699 66.9868 14.232099 71.4046 22.274199 72.035C 31.965999 72.7948 48.632699 69.9303 75.757899 65.242C 124.527599 56.8124 141.431599 48.3751 141.431599 31.5084C 141.431599 20.2322 126.082599 12.281 119.205599 10C 123.373599 11.6633 128.339599 14.562 127.865599 20.2322Z"></path></g></g></g><g id="g-root-1.cu_1_sy_140hxgy1vgmkni-fill" data-item-order="-40746" data-item-id="1.cu_1_sy_140hxgy1vgmkni" data-item-class="ScenePart Part Indexed Indexed_1 Fill Stroke" data-item-index="1" data-renderer-id="0" transform="translate(3.5655517578125, 3)"><g id="1.cu_1_sy_140hxgy1vgmkni-fill" stroke="none" fill="#f5fbe9"><g><path d="M 21.6823 10.759802C 31.374 10.000002 48.067 12.416802 75.1922 17.105202C 90.003 19.665202 106.1882 23.441602 120.011 29.832302C 122.998 31.258302 127.472 33.914302 127.345 39.036102C 127.196 45.010602 117.319 48.775002 104.6598 51.966502C 104.3346 51.852502 102.9633 51.305702 102.6561 51.192602C 78.8756 42.248102 51.5585 39.866802 26.2368 35.826002C 24.7636 36.385802 21.9403 36.588802 20.221 36.385802C 15.9301 35.288202 10 31.995102 10 23.070502C 10 18.441102 13.6401 11.390202 21.6823 10.759802Z"></path></g></g></g><g id="g-root-1.Ellipse_sy_zlawfm1vgmi9z-fill" data-item-order="-40744" data-item-id="1.Ellipse_sy_zlawfm1vgmi9z" data-item-class="ScenePart Part Indexed Indexed_1 Fill Stroke" data-item-index="1" data-renderer-id="0" transform="translate(3.5270843505859375, 3.80084228515625)"><g id="1.Ellipse_sy_zlawfm1vgmi9z-fill" stroke="none" fill="#f5fbe9"><g><path d="M 10.001843 22.846066C 9.999999 29.94019 15.500659 35.692136 22.286706 35.692136C 29.072752 35.692136 34.573413 29.94019 34.571569 22.846066C 34.573413 15.751942 29.072752 9.999996 22.286706 9.999996C 15.500659 9.999996 9.999999 15.751942 10.001843 22.846066"></path></g></g></g><g id="g-root-coin_145hznm1v6zk0e-fill" data-item-order="0" data-item-id="coin_145hznm1v6zk0e" data-item-class="Icon Stroke SceneTarget Indexed Indexed_1" data-item-index="1" data-renderer-id="0" transform="translate(171.52862548828125, 21.621917724609375)"></g><g id="g-root-tx_breakdow_mbptbm1vgmivg-fill" data-item-order="0" data-item-id="tx_breakdow_mbptbm1vgmivg" data-item-class="Label Stroke SceneTarget Indexed Indexed_1" data-item-index="1" data-renderer-id="0" transform="translate(219.52859497070312, 27.62188720703125)"><g id="tx_breakdow_mbptbm1vgmivg-fill" stroke="none" fill="#484848"><g><text style="font: 20px Roboto, sans-serif; white-space: pre;"><tspan x="12" y="34" dominant-baseline="ideographic">Break down text into tokens</tspan></text></g></g></g><g id="g-root-mole_zqx67m1vgv01w-fill" data-item-order="0" data-item-id="mole_zqx67m1vgv01w" data-item-class="Icon Stroke SceneTarget Indexed" data-item-index="2" data-renderer-id="0" transform="translate(171.52859497070312, 81.62188720703125)"></g><g id="g-root-tx_convertt_v7ctki1vgmi2r-fill" data-item-order="0" data-item-id="tx_convertt_v7ctki1vgmi2r" data-item-class="Label Stroke SceneTarget Indexed" data-item-index="2" data-renderer-id="0" transform="translate(219.52859497070312, 87.62188720703125)"><g id="tx_convertt_v7ctki1vgmi2r-fill" stroke="none" fill="#484848"><g><text style="font: 20px Roboto, sans-serif; white-space: pre;"><tspan x="12" y="34" dominant-baseline="ideographic">Convert tokens into structured form</tspan></text></g></g></g><g id="g-root-tran_1hi76pe1vguxor-fill" data-item-order="0" data-item-id="tran_1hi76pe1vguxor" data-item-class="Icon Stroke SceneTarget Indexed" data-item-index="3" data-renderer-id="0" transform="translate(171.52859497070312, 141.62188720703125)"></g><g id="g-root-tx_enablema_zmjulu1vgmkga-fill" data-item-order="0" data-item-id="tx_enablema_zmjulu1vgmkga" data-item-class="Label Stroke SceneTarget Indexed" data-item-index="3" data-renderer-id="0" transform="translate(219.52859497070312, 135.62188720703125)"><g id="tx_enablema_zmjulu1vgmkga-fill" stroke="none" fill="#484848"><g><text style="font: 20px Roboto, sans-serif; white-space: pre;"><tspan x="12" y="34" dominant-baseline="ideographic">Enable Machine Learning algorithms to </tspan><tspan x="12" y="58" dominant-baseline="ideographic">process language</tspan></text></g></g></g><g id="g-root-1_1ut17zm1vguz9m-fill" data-item-order="0" data-item-id="1_1ut17zm1vguz9m" data-item-class="Icon Stroke SceneTarget Indexed" data-item-index="4" data-renderer-id="0" transform="translate(171.52859497070312, 201.62188720703125)"></g><g id="g-root-tx_applytok_1cy0cz61vgmivd-fill" data-item-order="0" data-item-id="tx_applytok_1cy0cz61vgmivd" data-item-class="Label Stroke SceneTarget Indexed" data-item-index="4" data-renderer-id="0" transform="translate(219.52859497070312, 195.62188720703125)"><g id="tx_applytok_1cy0cz61vgmivd-fill" stroke="none" fill="#484848"><g><text style="font: 20px Roboto, sans-serif; white-space: pre;"><tspan x="12" y="34" dominant-baseline="ideographic">Apply tokenization in text preprocessing </tspan><tspan x="12" y="58" dominant-baseline="ideographic">for various tasks</tspan></text></g></g></g><g id="g-root-bubb_4nk69e1vguyo1-fill" data-item-order="0" data-item-id="bubb_4nk69e1vguyo1" data-item-class="Icon Stroke SceneTarget Indexed" data-item-index="5" data-renderer-id="0" transform="translate(171.52859497070312, 261.62188720703125)"></g><g id="g-root-tx_handleco_4j6unm1vgmj2g-fill" data-item-order="0" data-item-id="tx_handleco_4j6unm1vgmj2g" data-item-class="Label Stroke SceneTarget Indexed" data-item-index="5" data-renderer-id="0" transform="translate(219.52859497070312, 255.62188720703125)"><g id="tx_handleco_4j6unm1vgmj2g-fill" stroke="none" fill="#484848"><g><text style="font: 20px Roboto, sans-serif; white-space: pre;"><tspan x="12" y="34" dominant-baseline="ideographic">Handle complexities in tokenization for </tspan><tspan x="12" y="58" dominant-baseline="ideographic">different languages</tspan></text></g></g></g><g id="g-root-5.cu_sy_8z0cs21vgmia6-stroke" data-item-order="-40764" data-item-id="5.cu_sy_8z0cs21vgmia6" data-item-class="ScenePart Part Indexed Fill Stroke" data-item-index="5" data-renderer-id="0" transform="translate(3, 250.39208984375)"><g id="5.cu_sy_8z0cs21vgmia6-stroke" fill="none" stroke-linecap="round" stroke-linejoin="round" stroke-miterlimit="4" stroke="#795ee3" stroke-width="2"><g><path d="M 70.438399 39.6509C 98.925799 34.4164 127.072699 29.7108 127.865499 20.2322C 128.339799 14.562 123.373999 11.6633 119.205999 10C 126.082599 12.281 141.431299 20.2322 141.431299 31.5084C 141.431299 48.3752 124.527999 56.8124 75.757899 65.242C 48.632699 69.9303 31.965999 72.7948 22.274199 72.035C 14.232099 71.4046 10.909699 66.9868 10.565499 61.629C 9.999999 52.8286 16.031099 48.4288 22.274199 47.0136C 29.886599 45.288 49.240499 43.546 70.438399 39.6509Z"></path></g></g></g><g id="g-root-5.cu_1_sy_4j6unm1vgmj2f-stroke" data-item-order="-40762" data-item-id="5.cu_1_sy_4j6unm1vgmj2f" data-item-class="ScenePart Part Indexed Fill Stroke" data-item-index="5" data-renderer-id="0" transform="translate(6.224365234375, 244.11895751953125)"><g id="5.cu_1_sy_4j6unm1vgmj2f-stroke" fill="none" stroke-linecap="round" stroke-linejoin="round" stroke-miterlimit="4" stroke="#795ee3" stroke-width="2"><g><path d="M 38.0076 27.1771C 16.9757 24.0392 10.9029 18.5537 10 17.5313C 11.8743 19.5171 14.7922 20.8771 19.0033 21.2053C 28.7014 21.9611 45.379 19.1113 72.522 14.4469C 81.0593 12.9798 88.6207 11.5124 95.2864 10C 102.5445 12.184 110.3408 13.5695 117.3519 16.811C 120.3393 18.2371 124.8131 20.893 124.6859 26.0148C 124.5376 31.9893 114.6599 35.7537 102.0009 38.9452C 101.6757 38.8312 100.3044 38.2844 99.9973 38.1713C 92.3051 35.2781 65.1564 31.2276 38.0076 27.1771ZM 117.3519 16.811L 117.5995 16.9255"></path></g></g></g><g id="g-root-4.cu_sy_hu0vxu1vgmkn8-stroke" data-item-order="-40760" data-item-id="4.cu_sy_hu0vxu1vgmkn8" data-item-class="ScenePart Part Indexed Fill Stroke" data-item-index="4" data-renderer-id="0" transform="translate(3, 193.36798095703125)"><g id="4.cu_sy_hu0vxu1vgmkn8-stroke" fill="none" stroke-linecap="round" stroke-linejoin="round" stroke-miterlimit="4" stroke="#4682e3" stroke-width="2"><g><path d="M 70.438399 39.6509C 98.925799 34.4164 127.072699 29.7108 127.865499 20.2322C 128.339799 14.562 123.373999 11.6633 119.205999 10C 126.082599 12.281 141.431299 20.2322 141.431299 31.5084C 141.431299 48.3752 124.527999 56.8124 75.757899 65.242C 48.632699 69.9303 31.965999 72.7948 22.274199 72.035C 14.232099 71.4046 10.909699 66.9868 10.565499 61.629C 9.999999 52.8286 16.031099 48.4288 22.274199 47.0136C 29.886599 45.288 49.240499 43.546 70.438399 39.6509Z"></path></g></g></g><g id="g-root-4.cu_1_sy_8z0cs21vgmia5-stroke" data-item-order="-40758" data-item-id="4.cu_1_sy_8z0cs21vgmia5" data-item-class="ScenePart Part Indexed Fill Stroke" data-item-index="4" data-renderer-id="0" transform="translate(6.224365234375, 187.09552001953125)"><g id="4.cu_1_sy_8z0cs21vgmia5-stroke" fill="none" stroke-linecap="round" stroke-linejoin="round" stroke-miterlimit="4" stroke="#4682e3" stroke-width="2"><g><path d="M 38.0076 27.1771C 16.9757 24.0392 10.9029 18.5537 10 17.5313C 11.8743 19.5171 14.7922 20.8771 19.0033 21.2053C 28.7014 21.9611 45.379 19.1113 72.522 14.4469C 81.0593 12.9798 88.6207 11.5124 95.2864 10C 102.5445 12.184 110.3408 13.5695 117.3519 16.811C 120.3393 18.2371 124.8131 20.893 124.6859 26.0148C 124.5376 31.9893 114.6599 35.7537 102.0009 38.9452C 101.6757 38.8312 100.3044 38.2844 99.9973 38.1713C 92.3051 35.2781 65.1564 31.2276 38.0076 27.1771ZM 117.3519 16.811L 117.5995 16.9255"></path></g></g></g><g id="g-root-3.cu_sy_m9ue2a1vgmjuy-stroke" data-item-order="-40756" data-item-id="3.cu_sy_m9ue2a1vgmjuy" data-item-class="ScenePart Part Indexed Fill Stroke" data-item-index="3" data-renderer-id="0" transform="translate(3, 136.34259033203125)"><g id="3.cu_sy_m9ue2a1vgmjuy-stroke" fill="none" stroke-linecap="round" stroke-linejoin="round" stroke-miterlimit="4" stroke="#17b0e3" stroke-width="2"><g><path d="M 70.438399 39.6509C 98.925799 34.4164 127.072699 29.7108 127.865499 20.2322C 128.339799 14.562 123.373999 11.6633 119.205999 10C 126.082599 12.281 141.431299 20.2322 141.431299 31.5084C 141.431299 48.3752 124.527999 56.8124 75.757899 65.242C 48.632699 69.9303 31.965999 72.7948 22.274199 72.035C 14.232099 71.4046 10.909699 66.9868 10.565499 61.629C 9.999999 52.8286 16.031099 48.4288 22.274199 47.0136C 29.886599 45.288 49.240499 43.546 70.438399 39.6509Z"></path></g></g></g><g id="g-root-3.cu_1_sy_m9ue2a1vgmjuz-stroke" data-item-order="-40754" data-item-id="3.cu_1_sy_m9ue2a1vgmjuz" data-item-class="ScenePart Part Indexed Fill Stroke" data-item-index="3" data-renderer-id="0" transform="translate(6.224365234375, 130.07012939453125)"><g id="3.cu_1_sy_m9ue2a1vgmjuz-stroke" fill="none" stroke-linecap="round" stroke-linejoin="round" stroke-miterlimit="4" stroke="#17b0e3" stroke-width="2"><g><path d="M 38.0076 27.1771C 16.9757 24.0392 10.9029 18.5537 10 17.5313C 11.8743 19.5171 14.7922 20.8771 19.0033 21.2053C 28.7014 21.9611 45.379 19.1113 72.522 14.4469C 81.0593 12.9798 88.6207 11.5124 95.2864 10C 102.5445 12.184 110.3408 13.5695 117.3519 16.811C 120.3393 18.2371 124.8131 20.893 124.6859 26.0148C 124.5376 31.9893 114.6599 35.7537 102.0009 38.9452C 101.6757 38.8312 100.3044 38.2844 99.9973 38.1713C 92.3051 35.2781 65.1564 31.2276 38.0076 27.1771ZM 117.3519 16.811L 117.5995 16.9255"></path></g></g></g><g id="g-root-2.cu_sy_zlawfm1vgmia0-stroke" data-item-order="-40752" data-item-id="2.cu_sy_zlawfm1vgmia0" data-item-class="ScenePart Part Indexed Fill Stroke" data-item-index="2" data-renderer-id="0" transform="translate(3, 79.31817626953125)"><g id="2.cu_sy_zlawfm1vgmia0-stroke" fill="none" stroke-linecap="round" stroke-linejoin="round" stroke-miterlimit="4" stroke="#3bc482" stroke-width="2"><g><path d="M 70.438399 39.6509C 98.925799 34.4164 127.072699 29.7108 127.865499 20.2322C 128.339799 14.562 123.373999 11.6633 119.205999 10C 126.082599 12.281 141.431299 20.2322 141.431299 31.5084C 141.431299 48.3752 124.527999 56.8124 75.757899 65.242C 48.632699 69.9303 31.965999 72.7948 22.274199 72.035C 14.232099 71.4046 10.909699 66.9868 10.565499 61.629C 9.999999 52.8286 16.031099 48.4288 22.274199 47.0136C 29.886599 45.288 49.240499 43.546 70.438399 39.6509Z"></path></g></g></g><g id="g-root-2.cu_1_sy_v5heb61vgmj29-stroke" data-item-order="-40750" data-item-id="2.cu_1_sy_v5heb61vgmj29" data-item-class="ScenePart Part Indexed Fill Stroke" data-item-index="2" data-renderer-id="0" transform="translate(6.224365234375, 73.04473876953125)"><g id="2.cu_1_sy_v5heb61vgmj29-stroke" fill="none" stroke-linecap="round" stroke-linejoin="round" stroke-miterlimit="4" stroke="#3bc482" stroke-width="2"><g><path d="M 38.0076 27.1771C 16.9757 24.0392 10.9029 18.5537 10 17.5313C 11.8743 19.5171 14.7922 20.8771 19.0033 21.2053C 28.7014 21.9611 45.379 19.1113 72.522 14.4469C 81.0593 12.9798 88.6207 11.5124 95.2864 10C 102.5445 12.184 110.3408 13.5695 117.3519 16.811C 120.3393 18.2371 124.8131 20.893 124.6859 26.0148C 124.5376 31.9893 114.6599 35.7537 102.0009 38.9452C 101.6757 38.8312 100.3044 38.2844 99.9973 38.1713C 92.3051 35.2781 65.1564 31.2276 38.0076 27.1771ZM 117.3519 16.811L 117.5995 16.9255"></path></g></g></g><g id="g-root-1.cu_sy_140hxgy1vgmknh-stroke" data-item-order="-40748" data-item-id="1.cu_sy_140hxgy1vgmknh" data-item-class="ScenePart Part Indexed Indexed_1 Fill Stroke" data-item-index="1" data-renderer-id="0" transform="translate(3, 22.29376220703125)"><g id="1.cu_sy_140hxgy1vgmknh-stroke" fill="none" stroke-linecap="round" stroke-linejoin="round" stroke-miterlimit="4" stroke="#93c131" stroke-width="2"><g><path d="M 70.438399 39.6509C 98.925799 34.4164 127.072699 29.7108 127.865499 20.2322C 128.339799 14.562 123.373999 11.6633 119.205999 10C 126.082599 12.281 141.431299 20.2322 141.431299 31.5084C 141.431299 48.3752 124.527999 56.8124 75.757899 65.242C 48.632699 69.9303 31.965999 72.7948 22.274199 72.035C 14.232099 71.4046 10.909699 66.9868 10.565499 61.629C 9.999999 52.8286 16.031099 48.4288 22.274199 47.0136C 29.886599 45.288 49.240499 43.546 70.438399 39.6509Z"></path></g></g></g><g id="g-root-1.cu_1_sy_140hxgy1vgmkni-stroke" data-item-order="-40746" data-item-id="1.cu_1_sy_140hxgy1vgmkni" data-item-class="ScenePart Part Indexed Indexed_1 Fill Stroke" data-item-index="1" data-renderer-id="0" transform="translate(3.5655517578125, 3)"><g id="1.cu_1_sy_140hxgy1vgmkni-stroke" fill="none" stroke-linecap="round" stroke-linejoin="round" stroke-miterlimit="4" stroke="#93c131" stroke-width="2"><g><path d="M 120.0108 29.832302C 122.9982 31.258302 127.4718 33.914302 127.3446 39.036102C 127.1963 45.010602 117.3187 48.775002 104.6598 51.966502C 104.3346 51.852502 102.9633 51.305702 102.6561 51.192602C 78.8756 42.248102 51.5585 39.866802 26.2368 35.826002C 24.7636 36.385802 21.9403 36.588802 20.221 36.385802C 15.9301 35.288202 10 31.995102 10 23.070502C 10 18.441102 13.6401 11.390202 21.6823 10.759802C 31.374 10.000002 48.067 12.416802 75.1922 17.105202C 90.003 19.665102 106.1882 23.441602 120.0108 29.832302ZM 120.0108 29.832302L 120.2583 29.946702"></path></g></g></g><g id="g-root-1.Ellipse_sy_zlawfm1vgmi9z-stroke" data-item-order="-40744" data-item-id="1.Ellipse_sy_zlawfm1vgmi9z" data-item-class="ScenePart Part Indexed Indexed_1 Fill Stroke" data-item-index="1" data-renderer-id="0" transform="translate(3.5270843505859375, 3.80084228515625)"><g id="1.Ellipse_sy_zlawfm1vgmi9z-stroke" fill="none" stroke-linecap="round" stroke-linejoin="round" stroke-miterlimit="4" stroke="#93c131" stroke-width="2"><g><path d="M 10.001843 22.846066C 9.999999 29.94019 15.500659 35.692136 22.286706 35.692136C 29.072752 35.692136 34.573413 29.94019 34.571569 22.846066C 34.573413 15.751942 29.072752 9.999996 22.286706 9.999996C 15.500659 9.999996 9.999999 15.751942 10.001843 22.846066"></path></g></g></g><g id="g-root-coin_145hznm1v6zk0e-stroke" data-item-order="0" data-item-id="coin_145hznm1v6zk0e" data-item-class="Icon Stroke SceneTarget Indexed Indexed_1" data-item-index="1" data-renderer-id="0" transform="translate(171.52862548828125, 21.621917724609375)"><g id="coin_145hznm1v6zk0e-stroke" fill="none" stroke-linecap="round" stroke-linejoin="round" stroke-miterlimit="4" stroke="#484848" stroke-width="2"><g><path d="M 28 21.571428L 28 17.714285M 24.142857 31.857143C 24.142857 33.785713 25.865715 34.42857 28 34.42857C 30.134285 34.42857 31.857143 34.42857 31.857143 31.857143C 31.857143 28 24.142857 28 24.142857 24.142857C 24.142857 21.571428 25.865715 21.571428 28 21.571428C 30.134285 21.571428 31.857143 22.548571 31.857143 24.142857M 28 34.42857L 28 38.285713M 11.285714 28C 11.285715 37.231045 18.768955 44.714287 28.000002 44.714287C 37.231045 44.714287 44.714287 37.231045 44.714287 28.000002C 44.714287 18.768955 37.231045 11.285715 28.000002 11.285715C 18.768955 11.285715 11.285715 18.768955 11.285715 28.000002"></path></g></g></g><g id="g-root-tx_breakdow_mbptbm1vgmivg-stroke" data-item-order="0" data-item-id="tx_breakdow_mbptbm1vgmivg" data-item-class="Label Stroke SceneTarget Indexed Indexed_1" data-item-index="1" data-renderer-id="0" transform="translate(219.52859497070312, 27.62188720703125)"></g><g id="g-root-mole_zqx67m1vgv01w-stroke" data-item-order="0" data-item-id="mole_zqx67m1vgv01w" data-item-class="Icon Stroke SceneTarget Indexed" data-item-index="2" data-renderer-id="0" transform="translate(171.52859497070312, 81.62188720703125)"><g id="mole_zqx67m1vgv01w-stroke" fill="none" stroke-linecap="round" stroke-linejoin="round" stroke-miterlimit="4" stroke="#3bc482" stroke-width="2"><g><path d="M 31 24.25L 26.789499 24.25C 26.304005 24.211079 25.825872 24.387075 25.481474 24.731474C 25.137075 25.075872 24.961079 25.554005 25.000002 26.039501C 25 28 31 29.5 31 31.460501C 31.008633 31.9377 30.822868 32.397896 30.485382 32.735382C 30.147898 33.072868 29.687698 33.258633 29.210503 33.25L 25 33.25M 28 24.25L 28 22M 28 35.5L 28 33.25M 14.5 22.75L 14.5 33.25M 25.75 13C 25.75 14.24264 26.75736 15.25 28 15.25C 29.242641 15.25 30.25 14.24264 30.25 13C 30.25 11.75736 29.242641 10.75 28 10.75C 26.75736 10.75 25.75 11.75736 25.75 13ZM 12.25 20.5C 12.25 21.742641 13.25736 22.75 14.5 22.75C 15.742641 22.75 16.75 21.742641 16.75 20.5C 16.75 19.25736 15.742641 18.25 14.5 18.25C 13.25736 18.25 12.25 19.25736 12.25 20.5ZM 12.25 35.5C 12.25 36.742641 13.25736 37.75 14.5 37.75C 15.742641 37.75 16.75 36.742641 16.75 35.5C 16.75 34.257362 15.742641 33.25 14.5 33.25C 13.25736 33.25 12.25 34.257362 12.25 35.5ZM 39.25 20.5C 39.25 21.742641 40.257362 22.75 41.5 22.75C 42.742641 22.75 43.75 21.742641 43.75 20.5C 43.75 19.25736 42.742641 18.25 41.5 18.25C 40.257362 18.25 39.25 19.25736 39.25 20.5ZM 39.25 35.5C 39.25 36.742641 40.257362 37.75 41.5 37.75C 42.742641 37.75 43.75 36.742641 43.75 35.5C 43.75 34.257362 42.742641 33.25 41.5 33.25C 40.257362 33.25 39.25 34.257362 39.25 35.5ZM 25.75 43C 25.75 44.242641 26.75736 45.25 28 45.25C 29.242641 45.25 30.25 44.242641 30.25 43C 30.25 41.757362 29.242641 40.75 28 40.75C 26.75736 40.75 25.75 41.757362 25.75 43ZM 16.466499 36.593498L 26.033501 41.906502M 29.966499 41.906502L 39.533501 36.593498M 41.5 33.25L 41.5 22.75M 39.533501 19.4065L 29.966499 14.0935M 26.033501 14.0935L 16.466499 19.4065"></path></g></g></g><g id="g-root-tx_convertt_v7ctki1vgmi2r-stroke" data-item-order="0" data-item-id="tx_convertt_v7ctki1vgmi2r" data-item-class="Label Stroke SceneTarget Indexed" data-item-index="2" data-renderer-id="0" transform="translate(219.52859497070312, 87.62188720703125)"></g><g id="g-root-tran_1hi76pe1vguxor-stroke" data-item-order="0" data-item-id="tran_1hi76pe1vguxor" data-item-class="Icon Stroke SceneTarget Indexed" data-item-index="3" data-renderer-id="0" transform="translate(171.52859497070312, 141.62188720703125)"><g id="tran_1hi76pe1vguxor-stroke" fill="none" stroke-linecap="round" stroke-linejoin="round" stroke-miterlimit="4" stroke="#17b0e3" stroke-width="2"><g><path d="M 21.25 27.25L 18.25 27.25L 13.75 31.75L 13.75 27.25L 12.25 27.25C 11.421573 27.25 10.75 26.578428 10.75 25.75L 10.75 12.25C 10.75 11.421573 11.421573 10.75 12.25 10.75L 30.25 10.75C 31.078428 10.75 31.75 11.421573 31.75 12.25L 31.75 25.75M 34.75 25.75L 43.75 25.75C 44.578426 25.75 45.25 26.421572 45.25 27.25L 45.25 39.25C 45.25 40.078426 44.578426 40.75 43.75 40.75L 42.25 40.75L 42.25 45.25L 37.75 40.75L 25.75 40.75C 24.921572 40.75 24.25 40.078426 24.25 39.25L 24.25 27.25C 24.25 26.421572 24.921572 25.75 25.75 25.75L 27.25 25.75M 18.25 22.75L 18.25 16C 18.25 14.75736 19.25736 13.75 20.5 13.75C 21.742641 13.75 22.75 14.75736 22.75 16L 22.75 22.75M 18.25 18.25L 22.75 18.25M 36.25 30.25L 36.25 28.75M 31.75 30.25L 40.75 30.25M 34 30.25C 34.201927 33.615322 36.681564 36.404915 40 37M 38.5 30.25C 38.298073 33.615322 35.818436 36.404915 32.5 37"></path></g></g></g><g id="g-root-tx_enablema_zmjulu1vgmkga-stroke" data-item-order="0" data-item-id="tx_enablema_zmjulu1vgmkga" data-item-class="Label Stroke SceneTarget Indexed" data-item-index="3" data-renderer-id="0" transform="translate(219.52859497070312, 135.62188720703125)"></g><g id="g-root-1_1ut17zm1vguz9m-stroke" data-item-order="0" data-item-id="1_1ut17zm1vguz9m" data-item-class="Icon Stroke SceneTarget Indexed" data-item-index="4" data-renderer-id="0" transform="translate(171.52859497070312, 201.62188720703125)"><g id="1_1ut17zm1vguz9m-stroke" fill="none" stroke-linecap="round" stroke-linejoin="round" stroke-miterlimit="4" stroke="#4682e3" stroke-width="2"><g><path d="M 19 44.714287L 27.074286 25.865715C 27.23 25.492002 27.595144 25.248571 28 25.248571C 28.404854 25.248571 28.77 25.492002 28.925714 25.865715L 37 44.714287M 22.625713 36.254284L 33.374287 36.254284M 11.285714 20.285713C 11.285714 15.315152 15.315152 11.285714 20.285713 11.285714M 11.285714 20.285713C 11.285714 15.315152 15.315152 11.285714 20.285713 11.285714M 17.714285 20.285713C 17.714285 18.865553 18.865553 17.714285 20.285713 17.714285M 17.714285 20.285713C 17.714285 18.865553 18.865553 17.714285 20.285713 17.714285M 35.714287 11.285714C 40.684849 11.285714 44.714287 15.315152 44.714287 20.285713M 35.714287 11.285714C 40.684849 11.285714 44.714287 15.315152 44.714287 20.285713M 35.714287 17.714285C 37.134449 17.714285 38.285713 18.865553 38.285713 20.285713M 35.714287 17.714285C 37.134449 17.714285 38.285713 18.865553 38.285713 20.285713"></path></g></g></g><g id="g-root-tx_applytok_1cy0cz61vgmivd-stroke" data-item-order="0" data-item-id="tx_applytok_1cy0cz61vgmivd" data-item-class="Label Stroke SceneTarget Indexed" data-item-index="4" data-renderer-id="0" transform="translate(219.52859497070312, 195.62188720703125)"></g><g id="g-root-bubb_4nk69e1vguyo1-stroke" data-item-order="0" data-item-id="bubb_4nk69e1vguyo1" data-item-class="Icon Stroke SceneTarget Indexed" data-item-index="5" data-renderer-id="0" transform="translate(171.52859497070312, 261.62188720703125)"><g id="bubb_4nk69e1vguyo1-stroke" fill="none" stroke-linecap="round" stroke-linejoin="round" stroke-miterlimit="4" stroke="#795ee3" stroke-width="2"><g><path d="M 42.9505 10.75L 33.782501 10.75L 36.432999 18.174999L 32.822502 19.463501L 35.917 28.129002L 26.017 18.6385L 30.549999 15.3895L 26.713001 10.75L 13.0495 10.75C 11.779521 10.75 10.75 11.779521 10.75 13.0495L 10.75 36.050499C 10.75 37.32048 11.779521 38.349998 13.0495 38.349998L 17.65 38.349998L 17.65 45.25L 26.849499 38.349998L 42.9505 38.349998C 44.220478 38.349998 45.25 37.32048 45.25 36.050499L 45.25 13.0495C 45.25 11.779521 44.220478 10.75 42.9505 10.75Z"></path></g></g></g><g id="g-root-tx_handleco_4j6unm1vgmj2g-stroke" data-item-order="0" data-item-id="tx_handleco_4j6unm1vgmj2g" data-item-class="Label Stroke SceneTarget Indexed" data-item-index="5" data-renderer-id="0" transform="translate(219.52859497070312, 255.62188720703125)"></g></g></g></svg>