<?xml version="1.0" encoding="utf-8" standalone="yes"?>
<!DOCTYPE svg PUBLIC "-//W3C//DTD SVG 1.1//EN" "http://www.w3.org/Graphics/SVG/1.1/DTD/svg11.dtd">
<svg width="542" height="482" viewBox="0 0 542 482" style="fill:none;stroke:none;fill-rule:evenodd;clip-rule:evenodd;stroke-linecap:round;stroke-linejoin:round;stroke-miterlimit:1.5;" version="1.1" xmlns="http://www.w3.org/2000/svg" xmlns:xlink="http://www.w3.org/1999/xlink"><style id="fontImports">@import url("https://fonts.googleapis.com/css2?family=Roboto:wght@400;700&amp;display=block");</style><rect id="" x="0" y="0" width="541.001" height="482" style="fill: #ffffff;"></rect><g id="items" style="isolation: isolate"><g id="blend" style="mix-blend-mode:multiply"><g id="g-root-3.cu_sy_1hhl8lu1xeuya1-fill" data-item-order="-229819" data-item-id="3.cu_sy_1hhl8lu1xeuya1" data-item-class="ScenePart Part Indexed Stroke" data-item-index="3" data-renderer-id="0" transform="translate(3, 110.9990234375)"></g><g id="g-root-2.cu_sy_1hhl8lu1xeuya0-fill" data-item-order="-229817" data-item-id="2.cu_sy_1hhl8lu1xeuya0" data-item-class="ScenePart Part Indexed Stroke" data-item-index="2" data-renderer-id="0" transform="translate(255.00100708007812, 3)"></g><g id="g-root-1.cu_sy_1lxeqqa1xeuxhr-fill" data-item-order="-229816" data-item-id="1.cu_sy_1lxeqqa1xeuxhr" data-item-class="ScenePart Part Indexed Indexed_1 Fill Stroke" data-item-index="1" data-renderer-id="0" transform="translate(225.00100708007812, 27)"><g id="1.cu_sy_1lxeqqa1xeuxhr-fill" stroke="none" fill="#f0f0f0"><g><path d="M 10 34L 28 10L 28 18L 52 18L 52 10L 70 34L 52 58L 52 50L 28 50L 28 58L 10 34Z"></path></g></g></g><g id="g-root-tx_pros_v48z4i1xewd8r-fill" data-item-order="0" data-item-id="tx_pros_v48z4i1xewd8r" data-item-class="Label Stroke SceneTarget" data-item-index="none" data-renderer-id="0" transform="translate(63.001007080078125, 39)"><g id="tx_pros_v48z4i1xewd8r-fill" stroke="none" fill="#484848"><g><text style="font: 20px Roboto, sans-serif; white-space: pre;"><tspan x="12" y="34" dominant-baseline="ideographic">Pros</tspan></text></g></g></g><g id="g-root-tx_cons_13zvzde1xewcg2-fill" data-item-order="0" data-item-id="tx_cons_13zvzde1xewcg2" data-item-class="Label Stroke SceneTarget" data-item-index="none" data-renderer-id="0" transform="translate(363.0010070800781, 39)"><g id="tx_cons_13zvzde1xewcg2-fill" stroke="none" fill="#484848"><g><text style="font: 20px Roboto, sans-serif; white-space: pre;"><tspan x="12" y="34" dominant-baseline="ideographic">Cons</tspan></text></g></g></g><g id="g-root-tx_struggle_dbq0gi1xewdfq-fill" data-item-order="0" data-item-id="tx_struggle_dbq0gi1xewdfq" data-item-class="Label Stroke SceneTarget Indexed" data-item-index="101" data-renderer-id="0" transform="translate(363.0010070800781, 123)"><g id="tx_struggle_dbq0gi1xewdfq-fill" stroke="none" fill="#484848"><g><text style="font: 20px Roboto, sans-serif; white-space: pre;"><tspan x="12" y="34" dominant-baseline="ideographic">Struggles with </tspan><tspan x="12" y="58" dominant-baseline="ideographic">out-of-</tspan><tspan x="12" y="82" dominant-baseline="ideographic">vocabulary </tspan><tspan x="12" y="106" dominant-baseline="ideographic">words</tspan></text></g></g></g><g id="g-root-stac_4jtuqa1xez4lc-fill" data-item-order="0" data-item-id="stac_4jtuqa1xez4lc" data-item-class="Icon Stroke SceneTarget Indexed Indexed_1" data-item-index="1" data-renderer-id="0" transform="translate(3.001007080078125, 147)"></g><g id="g-root-tx_simplifi_1hbchqq1xewav5-fill" data-item-order="0" data-item-id="tx_simplifi_1hbchqq1xewav5" data-item-class="Label Stroke SceneTarget Indexed Indexed_1" data-item-index="1" data-renderer-id="0" transform="translate(63.001007080078125, 147)"><g id="tx_simplifi_1hbchqq1xewav5-fill" stroke="none" fill="#484848"><g><text style="font: 20px Roboto, sans-serif; white-space: pre;"><tspan x="12" y="34" dominant-baseline="ideographic">Simplifies text </tspan><tspan x="12" y="58" dominant-baseline="ideographic">processing</tspan></text></g></g></g><g id="g-root-conf_zlxwia1xez3t1-fill" data-item-order="0" data-item-id="conf_zlxwia1xez3t1" data-item-class="Icon Stroke SceneTarget Indexed" data-item-index="101" data-renderer-id="0" transform="translate(303.0010070800781, 147)"></g><g id="g-root-brai_mahe4y1xez5dz-fill" data-item-order="0" data-item-id="brai_mahe4y1xez5dz" data-item-class="Icon Stroke SceneTarget Indexed" data-item-index="2" data-renderer-id="0" transform="translate(3.001007080078125, 231)"></g><g id="g-root-tx_enhances_1lqjis21xewd8o-fill" data-item-order="0" data-item-id="tx_enhances_1lqjis21xewd8o" data-item-class="Label Stroke SceneTarget Indexed" data-item-index="2" data-renderer-id="0" transform="translate(63.001007080078125, 231)"><g id="tx_enhances_1lqjis21xewd8o-fill" stroke="none" fill="#484848"><g><text style="font: 20px Roboto, sans-serif; white-space: pre;"><tspan x="12" y="34" dominant-baseline="ideographic">Enhances ML </tspan><tspan x="12" y="58" dominant-baseline="ideographic">understanding</tspan></text></g></g></g><g id="g-root-2_1cwrxsi1xez5dw-fill" data-item-order="0" data-item-id="2_1cwrxsi1xez5dw" data-item-class="Icon Stroke SceneTarget Indexed" data-item-index="102" data-renderer-id="0" transform="translate(303.0010070800781, 231)"></g><g id="g-root-tx_increase_qn6itu1xewbut-fill" data-item-order="0" data-item-id="tx_increase_qn6itu1xewbut" data-item-class="Label Stroke SceneTarget Indexed" data-item-index="102" data-renderer-id="0" transform="translate(363.0010070800781, 219)"><g id="tx_increase_qn6itu1xewbut-fill" stroke="none" fill="#484848"><g><text style="font: 20px Roboto, sans-serif; white-space: pre;"><tspan x="12" y="34" dominant-baseline="ideographic">Increases </tspan><tspan x="12" y="58" dominant-baseline="ideographic">computational </tspan><tspan x="12" y="82" dominant-baseline="ideographic">complexity</tspan></text></g></g></g><g id="g-root-tx_broadapp_4gphaq1xewb2n-fill" data-item-order="0" data-item-id="tx_broadapp_4gphaq1xewb2n" data-item-class="Label Stroke SceneTarget Indexed" data-item-index="3" data-renderer-id="0" transform="translate(63.001007080078125, 303)"><g id="tx_broadapp_4gphaq1xewb2n-fill" stroke="none" fill="#484848"><g><text style="font: 20px Roboto, sans-serif; white-space: pre;"><tspan x="12" y="34" dominant-baseline="ideographic">Broad </tspan><tspan x="12" y="58" dominant-baseline="ideographic">application </tspan><tspan x="12" y="82" dominant-baseline="ideographic">range</tspan></text></g></g></g><g id="g-root-tx_challeng_v300ya1xewb2k-fill" data-item-order="0" data-item-id="tx_challeng_v300ya1xewb2k" data-item-class="Label Stroke SceneTarget Indexed" data-item-index="103" data-renderer-id="0" transform="translate(363.0010070800781, 291)"><g id="tx_challeng_v300ya1xewb2k-fill" stroke="none" fill="#484848"><g><text style="font: 20px Roboto, sans-serif; white-space: pre;"><tspan x="12" y="34" dominant-baseline="ideographic">Challenging for </tspan><tspan x="12" y="58" dominant-baseline="ideographic">languages </tspan><tspan x="12" y="82" dominant-baseline="ideographic">without word </tspan><tspan x="12" y="106" dominant-baseline="ideographic">boundaries</tspan></text></g></g></g><g id="g-root-noti_qqaw9e1xez4lq-fill" data-item-order="0" data-item-id="noti_qqaw9e1xez4lq" data-item-class="Icon Stroke SceneTarget Indexed" data-item-index="3" data-renderer-id="0" transform="translate(3.001007080078125, 315)"></g><g id="g-root-bubb_24xci1xf0jrd-fill" data-item-order="0" data-item-id="bubb_24xci1xf0jrd" data-item-class="Icon Stroke SceneTarget Indexed" data-item-index="103" data-renderer-id="0" transform="translate(303.0010070800781, 315)"></g><g id="g-root-tran_1hclfwy1xez4ln-fill" data-item-order="0" data-item-id="tran_1hclfwy1xez4ln" data-item-class="Icon Stroke SceneTarget Indexed" data-item-index="104" data-renderer-id="0" transform="translate(303.0010070800781, 399)"></g><g id="g-root-tx_difficul_1uuap5e1xeuyv7-fill" data-item-order="0" data-item-id="tx_difficul_1uuap5e1xeuyv7" data-item-class="Label Stroke SceneTarget Indexed" data-item-index="104" data-renderer-id="0" transform="translate(363.0010070800781, 387)"><g id="tx_difficul_1uuap5e1xeuyv7-fill" stroke="none" fill="#484848"><g><text style="font: 20px Roboto, sans-serif; white-space: pre;"><tspan x="12" y="34" dominant-baseline="ideographic">Difficult for </tspan><tspan x="12" y="58" dominant-baseline="ideographic">morphologically </tspan><tspan x="12" y="82" dominant-baseline="ideographic">rich languages</tspan></text></g></g></g><g id="g-root-3.cu_sy_1hhl8lu1xeuya1-stroke" data-item-order="-229819" data-item-id="3.cu_sy_1hhl8lu1xeuya1" data-item-class="ScenePart Part Indexed Stroke" data-item-index="3" data-renderer-id="0" transform="translate(3, 110.9990234375)"><g id="3.cu_sy_1hhl8lu1xeuya1-stroke" fill="none" stroke-linecap="round" stroke-linejoin="round" stroke-miterlimit="4" stroke="#484848" stroke-width="2"><g><path d="M 513.999999 10.000007L 9.999999 10.001007"></path></g></g></g><g id="g-root-2.cu_sy_1hhl8lu1xeuya0-stroke" data-item-order="-229817" data-item-id="2.cu_sy_1hhl8lu1xeuya0" data-item-class="ScenePart Part Indexed Stroke" data-item-index="2" data-renderer-id="0" transform="translate(255.00100708007812, 3)"><g id="2.cu_sy_1hhl8lu1xeuya0-stroke" fill="none" stroke-linecap="round" stroke-linejoin="round" stroke-miterlimit="4" stroke="#484848" stroke-width="2"><g><path d="M 10 298L 10 214M 10 382L 10 298M 10 466L 10 382M 10 214L 10 118M 10 118L 10 80M 10 36L 10 10"></path></g></g></g><g id="g-root-1.cu_sy_1lxeqqa1xeuxhr-stroke" data-item-order="-229816" data-item-id="1.cu_sy_1lxeqqa1xeuxhr" data-item-class="ScenePart Part Indexed Indexed_1 Fill Stroke" data-item-index="1" data-renderer-id="0" transform="translate(225.00100708007812, 27)"><g id="1.cu_sy_1lxeqqa1xeuxhr-stroke" fill="none" stroke-linecap="round" stroke-linejoin="round" stroke-miterlimit="4" stroke="#484848" stroke-width="2"><g><path d="M 10 34L 28 10L 28 18L 52 18L 52 10L 70 34L 52 58L 52 50L 28 50L 28 58L 10 34Z"></path></g></g><g id="1.cu_sy_1lxeqqa1xeuxhr-stroke" fill="none" stroke-linecap="round" stroke-linejoin="round" stroke-miterlimit="4" stroke="#484848" stroke-width="2"><g><path d="M 30.599 28.373L 34.999 39.48M 35.199 39.097L 39.599 28.66M 49.399 30.192C 49.065 29.937 48.732 29.682 48.399 29.426C 47.799 28.852 46.832 28.628 45.499 28.756C 44.165 28.884 43.465 29.522 43.399 30.671C 43.265 31.82 44.232 32.905 46.299 33.927C 48.432 34.884 49.465 36.001 49.399 37.278C 49.399 38.555 48.632 39.321 47.099 39.576C 45.499 39.767 44.432 39.416 43.899 38.523C 43.565 38.076 43.265 37.629 42.999 37.182"></path></g></g></g><g id="g-root-tx_pros_v48z4i1xewd8r-stroke" data-item-order="0" data-item-id="tx_pros_v48z4i1xewd8r" data-item-class="Label Stroke SceneTarget" data-item-index="none" data-renderer-id="0" transform="translate(63.001007080078125, 39)"></g><g id="g-root-tx_cons_13zvzde1xewcg2-stroke" data-item-order="0" data-item-id="tx_cons_13zvzde1xewcg2" data-item-class="Label Stroke SceneTarget" data-item-index="none" data-renderer-id="0" transform="translate(363.0010070800781, 39)"></g><g id="g-root-tx_struggle_dbq0gi1xewdfq-stroke" data-item-order="0" data-item-id="tx_struggle_dbq0gi1xewdfq" data-item-class="Label Stroke SceneTarget Indexed" data-item-index="101" data-renderer-id="0" transform="translate(363.0010070800781, 123)"></g><g id="g-root-stac_4jtuqa1xez4lc-stroke" data-item-order="0" data-item-id="stac_4jtuqa1xez4lc" data-item-class="Icon Stroke SceneTarget Indexed Indexed_1" data-item-index="1" data-renderer-id="0" transform="translate(3.001007080078125, 147)"><g id="stac_4jtuqa1xez4lc-stroke" fill="none" stroke-linecap="round" stroke-linejoin="round" stroke-miterlimit="4" stroke="#484848" stroke-width="2"><g><path d="M 13.09 26.681999L 42.363998 26.681999C 42.363998 26.681999 44.453999 26.681999 44.453999 28.771999L 44.453999 51.773998C 44.453999 51.773998 44.453999 53.863998 42.363998 53.863998L 13.09 53.863998C 13.09 53.863998 11 53.863998 11 51.773998L 11 28.771999C 11 28.771999 11 26.681999 13.09 26.681999M 11 33.02L 44.453999 33.02M 11 46.751999L 44.453999 46.751999M 11 40.066002L 44.453999 40.066002M 26.681999 33.02L 26.681999 53.863998M 35.568001 33.02L 35.568001 53.863998M 19.364 20.4L 48.636002 20.4C 49.192223 20.399996 49.725544 20.6215 50.118103 21.015558C 50.510658 21.409616 50.730125 21.943783 50.728001 22.5L 50.728001 49.681999M 25.636 14.136L 54.91 14.136C 56.065056 14.136 57.001102 15.072944 56.999996 16.228001L 57 43.400002"></path></g></g></g><g id="g-root-tx_simplifi_1hbchqq1xewav5-stroke" data-item-order="0" data-item-id="tx_simplifi_1hbchqq1xewav5" data-item-class="Label Stroke SceneTarget Indexed Indexed_1" data-item-index="1" data-renderer-id="0" transform="translate(63.001007080078125, 147)"></g><g id="g-root-conf_zlxwia1xez3t1-stroke" data-item-order="0" data-item-id="conf_zlxwia1xez3t1" data-item-class="Icon Stroke SceneTarget Indexed" data-item-index="101" data-renderer-id="0" transform="translate(303.0010070800781, 147)"><g id="conf_zlxwia1xez3t1-stroke" fill="none" stroke-linecap="round" stroke-linejoin="round" stroke-miterlimit="4" stroke="#484848" stroke-width="2"><g><path d="M 35.788002 24.543999C 35.788002 22.84959 37.161591 21.476 38.855999 21.476C 40.550407 21.476 41.924 22.84959 41.924 24.543999C 41.924 26.238409 40.550407 27.612 38.855999 27.612L 38.856003 29.704M 38.599998 33.743999L 38.599998 33.743999M 38.599998 33.743999C 38.175591 33.742897 37.830742 34.08625 37.830002 34.510666C 37.829266 34.935078 38.17292 35.279629 38.597332 35.279999C 39.021748 35.280365 39.365997 34.936417 39.366001 34.512001C 39.366531 34.308495 39.28606 34.113148 39.142349 33.969063C 38.998642 33.824974 38.803501 33.743996 38.599998 33.743996M 14.066 11C 12.372695 11 11 12.372695 11 14.066L 11 44.734001C 11 46.427307 12.372695 47.799999 14.066 47.799999L 20.200001 47.799999L 20.200001 57L 32.466 47.799999L 53.933998 47.799999C 55.627304 47.799999 57 46.427307 57 44.734001L 57 14.066C 57 12.372695 55.627304 11 53.934002 11ZM 48.566002 33.743999L 48.566002 33.743999M 48.566002 33.743999C 48.141846 33.744003 47.798 34.087845 47.798 34.512001C 47.798 34.936157 48.141846 35.279999 48.566002 35.279999C 48.990158 35.279999 49.334 34.936157 49.334003 34.512001C 49.334003 34.087845 48.990158 33.744003 48.566002 33.744003M 21.734001 22.756001L 19.688 35.021999M 27.865999 22.756001L 25.821999 35.021999M 18.666 25.821999L 29.912001 25.821999M 17.644001 31.955999L 28.888 31.955999M 48.821999 21.478001L 48.821999 28.634001"></path></g></g></g><g id="g-root-brai_mahe4y1xez5dz-stroke" data-item-order="0" data-item-id="brai_mahe4y1xez5dz" data-item-class="Icon Stroke SceneTarget Indexed" data-item-index="2" data-renderer-id="0" transform="translate(3.001007080078125, 231)"><g id="brai_mahe4y1xez5dz-stroke" fill="none" stroke-linecap="round" stroke-linejoin="round" stroke-miterlimit="4" stroke="#484848" stroke-width="2"><g><path d="M 57.166 34C 57.160934 37.138275 54.730751 39.738739 51.599998 39.956001C 53.427505 42.303398 53.681461 45.513618 52.245777 48.119164C 50.810097 50.724709 47.960644 52.224922 45 51.934002C 45.443184 53.422901 44.984238 55.033749 43.822891 56.065502C 42.661549 57.097256 41.007858 57.3633 39.581512 56.747849C 38.155167 56.132397 37.214157 54.746777 37.167999 53.194C 35.309055 54.26965 33.016945 54.26965 31.158001 53.194C 31.108984 54.744835 30.167524 56.127419 28.742512 56.74128C 27.317497 57.355141 25.666035 57.089523 24.505373 56.059788C 23.344711 55.030052 22.88426 53.421993 23.324001 51.933998C 20.363358 52.224922 17.513905 50.724709 16.078224 48.119164C 14.642542 45.513618 14.896498 42.303398 16.724001 39.956001C 13.592808 39.741184 11.16261 37.13855 11.16261 34C 11.16261 30.861448 13.592808 28.258814 16.723999 28.044001C 14.896498 25.696602 14.642542 22.486382 16.078224 19.880836C 17.513905 17.275291 20.363358 15.775082 23.324001 16.066C 22.88426 14.578009 23.344711 12.969946 24.505373 11.940212C 25.666035 10.910478 27.317497 10.64486 28.742512 11.258721C 30.167524 11.872582 31.108984 13.255166 31.158001 14.806C 33.016945 13.73035 35.309055 13.73035 37.167999 14.806C 37.214157 13.253224 38.155167 11.867601 39.581512 11.252151C 41.007858 10.636702 42.661549 10.902744 43.822891 11.934498C 44.984238 12.966251 45.443184 14.577099 45 16.066C 47.960644 15.775082 50.810097 17.275291 52.245777 19.880836C 53.681461 22.486382 53.427505 25.696602 51.600002 28.044001C 54.730751 28.261261 57.160934 30.861725 57.166 34ZM 34.166 43L 34.166 45M 34.166 37L 34.166 39M 40.402 37L 40.402 39M 34.166 25L 34.166 27M 34.166 19L 34.166 21M 34.166 49L 34.166 51M 24.166 22C 24.166 23.656855 25.509148 25 27.166 25C 28.822855 25 30.166 23.656855 30.166 22C 30.166 20.343147 28.822855 19 27.166 19C 25.509148 19 24.166 20.343147 24.166 22ZM 39.166 27C 39.166 28.656855 40.509148 30 42.166 30C 43.822857 30 45.166 28.656855 45.166 27C 45.166 25.343147 43.822857 24 42.166 24C 40.509148 24 39.166 25.343147 39.166 27ZM 21.166 44C 21.166 45.656857 22.509146 47 24.166 47C 25.822855 47 27.166 45.656857 27.166 44C 27.166 42.343147 25.822855 41 24.166 41C 22.509146 41 21.166 42.343147 21.166 44ZM 38.166 45C 38.166 46.656857 39.509148 48 41.166 48C 42.822857 48 44.166 46.656857 44.166 45C 44.166 43.343147 42.822857 42 41.166 42C 39.509148 42 38.166 43.343147 38.166 45ZM 43.166 36C 43.166 37.656853 44.509148 39 46.166 39C 47.822857 39 49.166 37.656853 49.166 36C 49.166 34.343147 47.822857 33 46.166 33C 44.509148 33 43.166 34.343147 43.166 36ZM 45.167999 27C 46.272568 27 47.167999 26.10457 47.167999 25L 47.167999 22M 16.166 35L 19.166 35C 20.270569 35 21.166 34.104568 21.166 33L 21.166 31C 21.166 29.89543 22.061432 29 23.166 29L 25.166 29C 26.270569 29 27.166 28.10457 27.166 27L 27.166 25M 27.166 44C 28.270569 44 29.166 44.895432 29.166 46L 29.166 50M 44.166 45L 48.166 45"></path></g></g></g><g id="g-root-tx_enhances_1lqjis21xewd8o-stroke" data-item-order="0" data-item-id="tx_enhances_1lqjis21xewd8o" data-item-class="Label Stroke SceneTarget Indexed" data-item-index="2" data-renderer-id="0" transform="translate(63.001007080078125, 231)"></g><g id="g-root-2_1cwrxsi1xez5dw-stroke" data-item-order="0" data-item-id="2_1cwrxsi1xez5dw" data-item-class="Icon Stroke SceneTarget Indexed" data-item-index="102" data-renderer-id="0" transform="translate(303.0010070800781, 231)"><g id="2_1cwrxsi1xez5dw-stroke" fill="none" stroke-linecap="round" stroke-linejoin="round" stroke-miterlimit="4" stroke="#484848" stroke-width="2"><g><path d="M 23.714287 11.714286L 44.285713 11.714286C 44.285713 11.714286 47.714287 11.714286 47.714287 15.142858L 47.714287 52.857143C 47.714287 52.857143 47.714287 56.285713 44.285713 56.285713L 23.714287 56.285713C 23.714287 56.285713 20.285715 56.285713 20.285715 52.857143L 20.285715 15.142858C 20.285715 15.142858 20.285715 11.714286 23.714287 11.714286M 20.285715 22L 11.714286 22M 20.285715 34L 11.714286 34M 20.285715 46L 11.714286 46M 56.285713 22L 47.714287 22M 56.285713 34L 47.714287 34M 56.285713 46L 47.714287 46M 32.285713 46L 39.142857 46"></path></g></g></g><g id="g-root-tx_increase_qn6itu1xewbut-stroke" data-item-order="0" data-item-id="tx_increase_qn6itu1xewbut" data-item-class="Label Stroke SceneTarget Indexed" data-item-index="102" data-renderer-id="0" transform="translate(363.0010070800781, 219)"></g><g id="g-root-tx_broadapp_4gphaq1xewb2n-stroke" data-item-order="0" data-item-id="tx_broadapp_4gphaq1xewb2n" data-item-class="Label Stroke SceneTarget Indexed" data-item-index="3" data-renderer-id="0" transform="translate(63.001007080078125, 303)"></g><g id="g-root-tx_challeng_v300ya1xewb2k-stroke" data-item-order="0" data-item-id="tx_challeng_v300ya1xewb2k" data-item-class="Label Stroke SceneTarget Indexed" data-item-index="103" data-renderer-id="0" transform="translate(363.0010070800781, 291)"></g><g id="g-root-noti_qqaw9e1xez4lq-stroke" data-item-order="0" data-item-id="noti_qqaw9e1xez4lq" data-item-class="Icon Stroke SceneTarget Indexed" data-item-index="3" data-renderer-id="0" transform="translate(3.001007080078125, 315)"><g id="noti_qqaw9e1xez4lq-stroke" fill="none" stroke-linecap="round" stroke-linejoin="round" stroke-miterlimit="4" stroke="#484848" stroke-width="2"><g><path d="M 35 38.450001L 35 55C 35 56.104568 34.104568 57 33 57L 13 57C 11.895431 57 11 56.104568 11 55L 11 35C 11 33.895432 11.895431 33 13 33L 29.554001 33M 29 35C 29 37.209137 30.790861 39 33 39C 35.209137 39 37 37.209137 37 35C 37 32.790863 35.209137 31 33 31C 30.790861 31 29 32.790863 29 35M 21 33L 21 25C 21 23.895432 21.895432 23 23 23L 39.545998 23M 45 28.450001L 45 45C 45 46.104568 44.104568 47 43 47L 35 47M 39 25C 39 27.209139 40.790863 29 43 29C 45.209141 29 47 27.209139 47 25C 47 22.790861 45.209141 21 43 21C 40.790863 21 39 22.790861 39 25M 31 23L 31 15C 31 13.895431 31.89543 13 33 13L 49.549999 13M 55 18.445999L 55 35C 55 36.104568 54.104568 37 53 37L 45 37M 49 15C 49 17.209139 50.790859 19 53 19C 55.209141 19 57 17.209139 57 15C 57 12.790861 55.209141 11 53 11C 50.790859 11 49 12.790861 49 15"></path></g></g></g><g id="g-root-bubb_24xci1xf0jrd-stroke" data-item-order="0" data-item-id="bubb_24xci1xf0jrd" data-item-class="Icon Stroke SceneTarget Indexed" data-item-index="103" data-renderer-id="0" transform="translate(303.0010070800781, 315)"><g id="bubb_24xci1xf0jrd-stroke" fill="none" stroke-linecap="round" stroke-linejoin="round" stroke-miterlimit="4" stroke="#484848" stroke-width="2"><g><path d="M 35.007999 34L 35.007999 46M 42.007999 24L 35.007999 34L 28.007999 24M 30.007999 35L 40.007999 35M 30.007999 39L 40.007999 39M 57 34C 56.995003 30.720993 54.989559 27.777033 51.939999 26.572001C 53.255806 23.564043 52.594006 20.057091 50.272457 17.735544C 47.950912 15.413998 44.443958 14.752193 41.436001 16.068001C 40.238266 13.011635 37.290672 11.000894 34.007999 11.000894C 30.725328 11.000894 27.777733 13.011635 26.58 16.068001C 23.572042 14.752193 20.06509 15.413998 17.743544 17.735544C 15.421997 20.057091 14.760195 23.564043 16.076 26.572001C 13.019634 27.769732 11.008894 30.717327 11.008894 34C 11.008894 37.282669 13.019634 40.230267 16.076 41.428001C 14.760195 44.435959 15.421997 47.942909 17.743544 50.264458C 20.06509 52.586002 23.572042 53.247807 26.58 51.932003C 27.777733 54.988365 30.725328 56.999107 34.007999 56.999107C 37.290672 56.999107 40.238266 54.988365 41.435997 51.931999C 44.443958 53.247807 47.950912 52.586002 50.272457 50.264458C 52.594006 47.942909 53.255806 44.435959 51.940002 41.428001C 54.989559 40.222969 56.995003 37.279007 57 34Z"></path></g></g></g><g id="g-root-tran_1hclfwy1xez4ln-stroke" data-item-order="0" data-item-id="tran_1hclfwy1xez4ln" data-item-class="Icon Stroke SceneTarget Indexed" data-item-index="104" data-renderer-id="0" transform="translate(303.0010070800781, 399)"><g id="tran_1hclfwy1xez4ln-stroke" fill="none" stroke-linecap="round" stroke-linejoin="round" stroke-miterlimit="4" stroke="#484848" stroke-width="2"><g><path d="M 15.062 18.996L 31 18.996M 23 14.996L 23 18.996M 28 19C 26.384493 24.82955 21.82955 29.384493 16 31M 18 19C 19.615509 24.82955 24.17045 29.384493 30 31M 39 53L 44.063999 39.498001C 44.210609 39.108154 44.5835 38.849998 45 38.849998C 45.4165 38.849998 45.789391 39.108154 45.936001 39.498001L 51 53M 40.5 48.995998L 49.523998 48.995998M 13 10.996L 33 10.996C 33 10.996 35 10.996 35 12.996L 35 32.996002C 35 32.996002 35 34.996002 33 34.996002L 13 34.996002C 13 34.996002 11 34.996002 11 32.996002L 11 12.996C 11 12.996 11 10.996 13 10.996M 40 33L 55 33C 56.104568 33 57 33.895432 57 35L 57 55C 57 56.104568 56.104568 57 55 57L 35 57C 33.895432 57 33 56.104568 33 55L 33 40M 22 55.995998L 26 51.995998L 22 47.995998M 14 42C 14 47.522846 18.477154 52 24 52L 26 52M 46 11.996L 42 15.996L 46 19.996M 54 26C 54 20.477154 49.522846 16 44 16L 42 16"></path></g></g></g><g id="g-root-tx_difficul_1uuap5e1xeuyv7-stroke" data-item-order="0" data-item-id="tx_difficul_1uuap5e1xeuyv7" data-item-class="Label Stroke SceneTarget Indexed" data-item-index="104" data-renderer-id="0" transform="translate(363.0010070800781, 387)"></g></g></g></svg>