<?xml version="1.0" encoding="utf-8" standalone="yes"?>
<!DOCTYPE svg PUBLIC "-//W3C//DTD SVG 1.1//EN" "http://www.w3.org/Graphics/SVG/1.1/DTD/svg11.dtd">
<svg width="733" height="409" viewBox="0 0 733 409" style="fill:none;stroke:none;fill-rule:evenodd;clip-rule:evenodd;stroke-linecap:round;stroke-linejoin:round;stroke-miterlimit:1.5;" version="1.1" xmlns="http://www.w3.org/2000/svg" xmlns:xlink="http://www.w3.org/1999/xlink"><style id="fontImports">@import url("https://fonts.googleapis.com/css2?family=Roboto:wght@400;700&amp;display=block");</style><rect id="" x="0" y="0" width="733" height="409" style="fill: #ffffff;"></rect><g id="items" style="isolation: isolate"><g id="blend" style="mix-blend-mode:multiply"><g id="g-root-ro_dbpkiu1t8slxc-fill" data-item-order="-19800" data-item-id="ro_dbpkiu1t8slxc" data-item-class="Shape Stroke Fill" data-item-index="none" data-renderer-id="0" transform="translate(243, 120)"><g id="ro_dbpkiu1t8slxc-fill" stroke="none" fill="#f0f0f0"><g><path d="M 34 10L 118 10C 118 10 142 10 142 34L 142 136C 142 136 142 160 118 160L 34 160C 34 160 10 160 10 136L 10 34C 10 34 10 10 34 10"></path></g></g></g><g id="g-root-ro_vccpba1t8tzpe-fill" data-item-order="-12312" data-item-id="ro_vccpba1t8tzpe" data-item-class="Shape Stroke Fill" data-item-index="none" data-renderer-id="0" transform="translate(423, 207)"><g id="ro_vccpba1t8tzpe-fill" stroke="none" fill="#e9fbf3"><g><path d="M 22 10L 226 10C 226 10 238 10 238 22L 238 52C 238 52 238 64 226 64L 22 64C 22 64 10 64 10 52L 10 22C 10 22 10 10 22 10"></path></g></g></g><g id="g-root-ro_140i0iu1t8y8ll-fill" data-item-order="-10368" data-item-id="ro_140i0iu1t8y8ll" data-item-class="Shape Stroke Fill" data-item-index="none" data-renderer-id="0" transform="translate(3, 3)"><g id="ro_140i0iu1t8y8ll-fill" stroke="none" fill="#f7e6fe"><g><path d="M 22 10L 190 10C 190 10 202 10 202 22L 202 52C 202 52 202 64 190 64L 22 64C 22 64 10 64 10 52L 10 22C 10 22 10 10 22 10"></path></g></g></g><g id="g-root-ro_qva90m1t8sk5q-fill" data-item-order="-9072" data-item-id="ro_qva90m1t8sk5q" data-item-class="Shape Stroke Fill" data-item-index="none" data-renderer-id="0" transform="translate(423, 21)"><g id="ro_qva90m1t8sk5q-fill" stroke="none" fill="#ffe7e6"><g><path d="M 22 10L 166 10C 166 10 178 10 178 22L 178 52C 178 52 178 64 166 64L 22 64C 22 64 10 64 10 52L 10 22C 10 22 10 10 22 10"></path></g></g></g><g id="g-root-ro_4l2cyu1t8wrur-fill" data-item-order="-6480" data-item-id="ro_4l2cyu1t8wrur" data-item-class="Shape Stroke Fill" data-item-index="none" data-renderer-id="0" transform="translate(75, 261)"><g id="ro_4l2cyu1t8wrur-fill" stroke="none" fill="#e6efff"><g><path d="M 22 10L 118 10C 118 10 130 10 130 22L 130 52C 130 52 130 64 118 64L 22 64C 22 64 10 64 10 52L 10 22C 10 22 10 10 22 10"></path></g></g></g><g id="g-root-circ_zqas6e1t8smit-fill" data-item-order="0" data-item-id="circ_zqas6e1t8smit" data-item-class="Icon Stroke" data-item-index="none" data-renderer-id="0" transform="translate(435, 33)"></g><g id="g-root-cu_4j6xpi1t8y7sx-fill" data-item-order="0" data-item-id="cu_4j6xpi1t8y7sx" data-item-class="Curve Stroke ColorFillGray ColorStrokeGray" data-item-index="none" data-renderer-id="0" transform="translate(153, 57)"></g><g id="g-root-cu_1uonzfq1t8y8em-fill" data-item-order="0" data-item-id="cu_1uonzfq1t8y8em" data-item-class="Curve Stroke ColorFillGray ColorStrokeGray" data-item-index="none" data-renderer-id="0" transform="translate(153, 57)"></g><g id="g-root-cu_3dfl21t8y8lc-fill" data-item-order="0" data-item-id="cu_3dfl21t8y8lc" data-item-class="Curve Stroke ColorFillGray ColorStrokeGray" data-item-index="none" data-renderer-id="0" transform="translate(153, 57)"></g><g id="g-root-cu_3dfl21t8y8le-fill" data-item-order="0" data-item-id="cu_3dfl21t8y8le" data-item-class="Curve Stroke ColorFillGray ColorStrokeGray" data-item-index="none" data-renderer-id="0" transform="translate(153, 57)"></g><g id="g-root-cu_zlazhi1t8y682-fill" data-item-order="0" data-item-id="cu_zlazhi1t8y682" data-item-class="Curve Stroke ColorFillGray ColorStrokeGray" data-item-index="none" data-renderer-id="0" transform="translate(375, 48)"></g><g id="g-root-tx_importan_1464aau1t8slqk-fill" data-item-order="0" data-item-id="tx_importan_1464aau1t8slqk" data-item-class="Label Stroke" data-item-index="none" data-renderer-id="0" transform="translate(471, 36)"><g id="tx_importan_1464aau1t8slqk-fill" stroke="none" fill="#e15e5a"><g><text style="font: 20px Roboto, sans-serif; white-space: pre;"><tspan x="12.81" y="34" dominant-baseline="ideographic">Importance</tspan></text></g></g></g><g id="g-root-tx_text_zqas6e1t8ve2x-fill" data-item-order="0" data-item-id="tx_text_zqas6e1t8ve2x" data-item-class="Label Stroke" data-item-index="none" data-renderer-id="0" transform="translate(99, 69)"><g id="tx_text_zqas6e1t8ve2x-fill" stroke="none" fill="#484848"><g><text style="font: 20px Roboto, sans-serif; white-space: pre;"><tspan x="14.99" y="34" dominant-baseline="ideographic">Text</tspan></text></g></g></g><g id="g-root-cu_m9uh461t8y7ta-fill" data-item-order="0" data-item-id="cu_m9uh461t8y7ta" data-item-class="Curve Stroke ColorFillGray ColorStrokeGray" data-item-index="none" data-renderer-id="0" transform="translate(447, 75)"></g><g id="g-root-cu_qpnz8m1t8y7sx-fill" data-item-order="0" data-item-id="cu_qpnz8m1t8y7sx" data-item-class="Curve Stroke ColorFillGray ColorStrokeGray" data-item-index="none" data-renderer-id="0" transform="translate(447, 75)"></g><g id="g-root-cu_hu0yzq1t8y8ln-fill" data-item-order="0" data-item-id="cu_hu0yzq1t8y8ln" data-item-class="Curve Stroke ColorFillGray ColorStrokeGray" data-item-index="none" data-renderer-id="0" transform="translate(447, 75)"></g><g id="g-root-tx_modelper_v8lusm1t8vfup-fill" data-item-order="0" data-item-id="tx_modelper_v8lusm1t8vfup" data-item-class="Label Stroke" data-item-index="none" data-renderer-id="0" transform="translate(471, 87)"><g id="tx_modelper_v8lusm1t8vfup-fill" stroke="none" fill="#484848"><g><text style="font: 20px Roboto, sans-serif; white-space: pre;"><tspan x="11.91" y="34" dominant-baseline="ideographic">Model Performance</tspan></text></g></g></g><g id="g-root-tx_images_zqas6e1t8ve2y-fill" data-item-order="0" data-item-id="tx_images_zqas6e1t8ve2y" data-item-class="Label Stroke" data-item-index="none" data-renderer-id="0" transform="translate(75, 105)"><g id="tx_images_zqas6e1t8ve2y-fill" stroke="none" fill="#484848"><g><text style="font: 20px Roboto, sans-serif; white-space: pre;"><tspan x="13.01" y="34" dominant-baseline="ideographic">Images</tspan></text></g></g></g><g id="g-root-tx_accuracy_hxrtie1t8ve9u-fill" data-item-order="0" data-item-id="tx_accuracy_hxrtie1t8ve9u" data-item-class="Label Stroke" data-item-index="none" data-renderer-id="0" transform="translate(471, 123)"><g id="tx_accuracy_hxrtie1t8ve9u-fill" stroke="none" fill="#484848"><g><text style="font: 20px Roboto, sans-serif; white-space: pre;"><tspan x="16.9" y="34" dominant-baseline="ideographic">Accuracy</tspan></text></g></g></g><g id="g-root-tx_audio_vaha1y1t8vev7-fill" data-item-order="0" data-item-id="tx_audio_vaha1y1t8vev7" data-item-class="Label Stroke" data-item-index="none" data-renderer-id="0" transform="translate(87, 141)"><g id="tx_audio_vaha1y1t8vev7-fill" stroke="none" fill="#484848"><g><text style="font: 20px Roboto, sans-serif; white-space: pre;"><tspan x="14.24" y="34" dominant-baseline="ideographic">Audio</tspan></text></g></g></g><g id="g-root-boxe_hrj2na1t8sl53-fill" data-item-order="0" data-item-id="boxe_hrj2na1t8sl53" data-item-class="Icon Stroke" data-item-index="none" data-renderer-id="0" transform="translate(285, 144)"></g><g id="g-root-tx_generali_4mbb521t8vfur-fill" data-item-order="0" data-item-id="tx_generali_4mbb521t8vfur" data-item-class="Label Stroke" data-item-index="none" data-renderer-id="0" transform="translate(471, 159)"><g id="tx_generali_4mbb521t8vfur-fill" stroke="none" fill="#484848"><g><text style="font: 20px Roboto, sans-serif; white-space: pre;"><tspan x="12.28" y="34" dominant-baseline="ideographic">Generalization</tspan></text></g></g></g><g id="g-root-tx_video_meu9t21t8vfnw-fill" data-item-order="0" data-item-id="tx_video_meu9t21t8vfnw" data-item-class="Label Stroke" data-item-index="none" data-renderer-id="0" transform="translate(87, 177)"><g id="tx_video_meu9t21t8vfnw-fill" stroke="none" fill="#484848"><g><text style="font: 20px Roboto, sans-serif; white-space: pre;"><tspan x="14.56" y="34" dominant-baseline="ideographic">Video</tspan></text></g></g></g><g id="g-root-tx_training_m7ckrq1t8skcu-fill" data-item-order="0" data-item-id="tx_training_m7ckrq1t8skcu" data-item-class="Label Stroke" data-item-index="none" data-renderer-id="0" transform="translate(267, 198)"><g id="tx_training_m7ckrq1t8skcu-fill" stroke="none" fill="#484848"><g><text style="font: 20px Roboto, sans-serif; white-space: pre;"><tspan x="13.79" y="34" dominant-baseline="ideographic">Training </tspan><tspan x="28.81" y="58" dominant-baseline="ideographic">Data</tspan></text></g></g></g><g id="g-root-tx_sensorda_hzn8rq1t8vdad-fill" data-item-order="0" data-item-id="tx_sensorda_hzn8rq1t8vdad" data-item-class="Label Stroke" data-item-index="none" data-renderer-id="0" transform="translate(27, 213)"><g id="tx_sensorda_hzn8rq1t8vdad-fill" stroke="none" fill="#484848"><g><text style="font: 20px Roboto, sans-serif; white-space: pre;"><tspan x="15.82" y="34" dominant-baseline="ideographic">Sensor Data</tspan></text></g></g></g><g id="g-root-cu_v5hhd21t8y70j-fill" data-item-order="0" data-item-id="cu_v5hhd21t8y70j" data-item-class="Curve Stroke ColorFillGray ColorStrokeGray" data-item-index="none" data-renderer-id="0" transform="translate(195, 30)"></g><g id="g-root-cu_qpnz8m1t8y70t-fill" data-item-order="0" data-item-id="cu_qpnz8m1t8y70t" data-item-class="Curve Stroke ColorFillGray ColorStrokeGray" data-item-index="none" data-renderer-id="0" transform="translate(195, 220)"></g><g id="g-root-cu_v5hhd21t8y70g-fill" data-item-order="0" data-item-id="cu_v5hhd21t8y70g" data-item-class="Curve Stroke ColorFillGray ColorStrokeGray" data-item-index="none" data-renderer-id="0" transform="translate(375, 220)"></g><g id="g-root-2_18n6qli1t8u1a9-fill" data-item-order="0" data-item-id="2_18n6qli1t8u1a9" data-item-class="Icon Stroke" data-item-index="none" data-renderer-id="0" transform="translate(435, 219)"></g><g id="g-root-tx_learning_1d308py1t8u0i0-fill" data-item-order="0" data-item-id="tx_learning_1d308py1t8u0i0" data-item-class="Label Stroke" data-item-index="none" data-renderer-id="0" transform="translate(471, 222)"><g id="tx_learning_1d308py1t8u0i0-fill" stroke="none" fill="#3bc482"><g><text style="font: 20px Roboto, sans-serif; white-space: pre;"><tspan x="13.65" y="34" dominant-baseline="ideographic">Learning Methods</tspan></text></g></g></g><g id="g-root-bars_140i0iu1t8y8lk-fill" data-item-order="0" data-item-id="bars_140i0iu1t8y8lk" data-item-class="Icon Stroke" data-item-index="none" data-renderer-id="0" transform="translate(153, 15)"></g><g id="g-root-cu_detxye1t8y68a-fill" data-item-order="0" data-item-id="cu_detxye1t8y68a" data-item-class="Curve Stroke ColorFillGray ColorStrokeGray" data-item-index="none" data-renderer-id="0" transform="translate(447, 261)"></g><g id="g-root-cu_8z0fty1t8y70l-fill" data-item-order="0" data-item-id="cu_8z0fty1t8y70l" data-item-class="Curve Stroke ColorFillGray ColorStrokeGray" data-item-index="none" data-renderer-id="0" transform="translate(447, 261)"></g><g id="g-root-cu_8z0fty1t8y70n-fill" data-item-order="0" data-item-id="cu_8z0fty1t8y70n" data-item-class="Curve Stroke ColorFillGray ColorStrokeGray" data-item-index="none" data-renderer-id="0" transform="translate(447, 261)"></g><g id="g-root-tx_types_mbpwdi1t8wsnd-fill" data-item-order="0" data-item-id="tx_types_mbpwdi1t8wsnd" data-item-class="Label Stroke" data-item-index="none" data-renderer-id="0" transform="translate(87, 276)"><g id="tx_types_mbpwdi1t8wsnd-fill" stroke="none" fill="#4682e3"><g><text style="font: 20px Roboto, sans-serif; white-space: pre;"><tspan x="13.58" y="34" dominant-baseline="ideographic">Types</tspan></text></g></g></g><g id="g-root-stac_909e061t8wu8a-fill" data-item-order="0" data-item-id="stac_909e061t8wu8a" data-item-class="Icon Stroke" data-item-index="none" data-renderer-id="0" transform="translate(153, 273)"></g><g id="g-root-tx_supervis_1hgybl21t8vevi-fill" data-item-order="0" data-item-id="tx_supervis_1hgybl21t8vevi" data-item-class="Label Stroke" data-item-index="none" data-renderer-id="0" transform="translate(471, 273)"><g id="tx_supervis_1hgybl21t8vevi-fill" stroke="none" fill="#484848"><g><text style="font: 20px Roboto, sans-serif; white-space: pre;"><tspan x="15.76" y="34" dominant-baseline="ideographic">Supervised Learning</tspan></text></g></g></g><g id="g-root-cu_hu0yzq1t8y8lp-fill" data-item-order="0" data-item-id="cu_hu0yzq1t8y8lp" data-item-class="Curve Stroke ColorFillGray ColorStrokeGray" data-item-index="none" data-renderer-id="0" transform="translate(153, 315)"></g><g id="g-root-cu_detxye1t8y688-fill" data-item-order="0" data-item-id="cu_detxye1t8y688" data-item-class="Curve Stroke ColorFillGray ColorStrokeGray" data-item-index="none" data-renderer-id="0" transform="translate(153, 315)"></g><g id="g-root-tx_unsuperv_1d14tgm1t8vfnr-fill" data-item-order="0" data-item-id="tx_unsuperv_1d14tgm1t8vfnr" data-item-class="Label Stroke" data-item-index="none" data-renderer-id="0" transform="translate(471, 309)"><g id="tx_unsuperv_1d14tgm1t8vfnr-fill" stroke="none" fill="#484848"><g><text style="font: 20px Roboto, sans-serif; white-space: pre;"><tspan x="16.53" y="34" dominant-baseline="ideographic">Unsupervised Learning</tspan></text></g></g></g><g id="g-root-tx_labeledd_1usetye1t8vdak-fill" data-item-order="0" data-item-id="tx_labeledd_1usetye1t8vdak" data-item-class="Label Stroke" data-item-index="none" data-renderer-id="0" transform="translate(15, 327)"><g id="tx_labeledd_1usetye1t8vdak-fill" stroke="none" fill="#484848"><g><text style="font: 20px Roboto, sans-serif; white-space: pre;"><tspan x="17.72" y="34" dominant-baseline="ideographic">Labeled Data</tspan></text></g></g></g><g id="g-root-tx_semisupe_18lxsfa1t8vda8-fill" data-item-order="0" data-item-id="tx_semisupe_18lxsfa1t8vda8" data-item-class="Label Stroke" data-item-index="none" data-renderer-id="0" transform="translate(471, 345)"><g id="tx_semisupe_18lxsfa1t8vda8-fill" stroke="none" fill="#484848"><g><text style="font: 20px Roboto, sans-serif; white-space: pre;"><tspan x="15.35" y="34" dominant-baseline="ideographic">Semi-supervised Learning</tspan></text></g></g></g><g id="g-root-tx_unlabele_1qclbty1t8ve2t-fill" data-item-order="0" data-item-id="tx_unlabele_1qclbty1t8ve2t" data-item-class="Label Stroke" data-item-index="none" data-renderer-id="0" transform="translate(3, 363)"><g id="tx_unlabele_1qclbty1t8ve2t-fill" stroke="none" fill="#484848"><g><text style="font: 20px Roboto, sans-serif; white-space: pre;"><tspan x="14.68" y="34" dominant-baseline="ideographic">Unlabeled Data</tspan></text></g></g></g><g id="g-root-tx_formsofd_1hbyiw61t8y70n-fill" data-item-order="0" data-item-id="tx_formsofd_1hbyiw61t8y70n" data-item-class="Label Stroke" data-item-index="none" data-renderer-id="0" transform="translate(15, 18)"><g id="tx_formsofd_1hbyiw61t8y70n-fill" stroke="none" fill="#b65edf"><g><text style="font: 20px Roboto, sans-serif; white-space: pre;"><tspan x="12.73" y="34" dominant-baseline="ideographic">Forms of Data</tspan></text></g></g></g><g id="g-root-cu_4j6xpi1t8y7t0-fill" data-item-order="0" data-item-id="cu_4j6xpi1t8y7t0" data-item-class="Curve Stroke ColorFillGray ColorStrokeGray" data-item-index="none" data-renderer-id="0" transform="translate(153, 57)"></g><g id="g-root-ro_dbpkiu1t8slxc-stroke" data-item-order="-19800" data-item-id="ro_dbpkiu1t8slxc" data-item-class="Shape Stroke Fill" data-item-index="none" data-renderer-id="0" transform="translate(243, 120)"><g id="ro_dbpkiu1t8slxc-stroke" fill="none" stroke-linecap="round" stroke-linejoin="round" stroke-miterlimit="4" stroke="#484848" stroke-width="2"><g><path d="M 34 10L 118 10C 118 10 142 10 142 34L 142 136C 142 136 142 160 118 160L 34 160C 34 160 10 160 10 136L 10 34C 10 34 10 10 34 10"></path></g></g></g><g id="g-root-ro_vccpba1t8tzpe-stroke" data-item-order="-12312" data-item-id="ro_vccpba1t8tzpe" data-item-class="Shape Stroke Fill" data-item-index="none" data-renderer-id="0" transform="translate(423, 207)"><g id="ro_vccpba1t8tzpe-stroke" fill="none" stroke-linecap="round" stroke-linejoin="round" stroke-miterlimit="4" stroke="#3bc482" stroke-width="2"><g><path d="M 22 10L 226 10C 226 10 238 10 238 22L 238 52C 238 52 238 64 226 64L 22 64C 22 64 10 64 10 52L 10 22C 10 22 10 10 22 10"></path></g></g></g><g id="g-root-ro_140i0iu1t8y8ll-stroke" data-item-order="-10368" data-item-id="ro_140i0iu1t8y8ll" data-item-class="Shape Stroke Fill" data-item-index="none" data-renderer-id="0" transform="translate(3, 3)"><g id="ro_140i0iu1t8y8ll-stroke" fill="none" stroke-linecap="round" stroke-linejoin="round" stroke-miterlimit="4" stroke="#b65edf" stroke-width="2"><g><path d="M 22 10L 190 10C 190 10 202 10 202 22L 202 52C 202 52 202 64 190 64L 22 64C 22 64 10 64 10 52L 10 22C 10 22 10 10 22 10"></path></g></g></g><g id="g-root-ro_qva90m1t8sk5q-stroke" data-item-order="-9072" data-item-id="ro_qva90m1t8sk5q" data-item-class="Shape Stroke Fill" data-item-index="none" data-renderer-id="0" transform="translate(423, 21)"><g id="ro_qva90m1t8sk5q-stroke" fill="none" stroke-linecap="round" stroke-linejoin="round" stroke-miterlimit="4" stroke="#e15e5a" stroke-width="2"><g><path d="M 22 10L 166 10C 166 10 178 10 178 22L 178 52C 178 52 178 64 166 64L 22 64C 22 64 10 64 10 52L 10 22C 10 22 10 10 22 10"></path></g></g></g><g id="g-root-ro_4l2cyu1t8wrur-stroke" data-item-order="-6480" data-item-id="ro_4l2cyu1t8wrur" data-item-class="Shape Stroke Fill" data-item-index="none" data-renderer-id="0" transform="translate(75, 261)"><g id="ro_4l2cyu1t8wrur-stroke" fill="none" stroke-linecap="round" stroke-linejoin="round" stroke-miterlimit="4" stroke="#4682e3" stroke-width="2"><g><path d="M 22 10L 118 10C 118 10 130 10 130 22L 130 52C 130 52 130 64 118 64L 22 64C 22 64 10 64 10 52L 10 22C 10 22 10 10 22 10"></path></g></g></g><g id="g-root-circ_zqas6e1t8smit-stroke" data-item-order="0" data-item-id="circ_zqas6e1t8smit" data-item-class="Icon Stroke" data-item-index="none" data-renderer-id="0" transform="translate(435, 33)"><g id="circ_zqas6e1t8smit-stroke" fill="none" stroke-linecap="round" stroke-linejoin="round" stroke-miterlimit="4" stroke="#e15e5a" stroke-width="2"><g><path d="M 38.75 24.76375C 38.769287 32.404247 32.639717 38.639133 24.999998 38.749996C 21.378416 38.804489 17.885845 37.406376 15.302259 34.867886C 12.718675 32.329395 11.259282 28.861982 11.25 25.24C 11.228657 17.598043 17.358818 11.360883 24.999998 11.25C 28.622133 11.195842 32.115082 12.594581 34.6987 15.133809C 37.282322 17.673038 38.741383 21.141222 38.75 24.76375ZM 25 27.50625L 25 18.75625M 24.98875 30.006248C 24.906185 30.00753 24.827637 30.042095 24.770918 30.102108C 24.714201 30.162123 24.68412 30.242496 24.6875 30.325001C 24.693542 30.495461 24.833185 30.630686 25.00375 30.631252L 25.00375 30.631248C 25.086201 30.629631 25.164547 30.594959 25.221191 30.535023C 25.277836 30.475086 25.308033 30.394913 25.305 30.3125C 25.299837 30.146029 25.166447 30.012094 25 30.006248L 24.99375 30.006248"></path></g></g></g><g id="g-root-cu_4j6xpi1t8y7sx-stroke" data-item-order="0" data-item-id="cu_4j6xpi1t8y7sx" data-item-class="Curve Stroke ColorFillGray ColorStrokeGray" data-item-index="none" data-renderer-id="0" transform="translate(153, 57)"><g id="cu_4j6xpi1t8y7sx-stroke" fill="none" stroke-linecap="round" stroke-linejoin="round" stroke-miterlimit="4" stroke="#888888" stroke-width="2" stroke-dasharray="5.0, 7.0"><g><path d="M 28 10L 28 22L 28 34L 19 34L 10 34"></path></g></g></g><g id="g-root-cu_1uonzfq1t8y8em-stroke" data-item-order="0" data-item-id="cu_1uonzfq1t8y8em" data-item-class="Curve Stroke ColorFillGray ColorStrokeGray" data-item-index="none" data-renderer-id="0" transform="translate(153, 57)"><g id="cu_1uonzfq1t8y8em-stroke" fill="none" stroke-linecap="round" stroke-linejoin="round" stroke-miterlimit="4" stroke="#888888" stroke-width="2" stroke-dasharray="5.0, 7.0"><g><path d="M 28 10L 28 58L 28 106L 19 106L 10 106"></path></g></g></g><g id="g-root-cu_3dfl21t8y8lc-stroke" data-item-order="0" data-item-id="cu_3dfl21t8y8lc" data-item-class="Curve Stroke ColorFillGray ColorStrokeGray" data-item-index="none" data-renderer-id="0" transform="translate(153, 57)"><g id="cu_3dfl21t8y8lc-stroke" fill="none" stroke-linecap="round" stroke-linejoin="round" stroke-miterlimit="4" stroke="#888888" stroke-width="2" stroke-dasharray="5.0, 7.0"><g><path d="M 28 10L 28 76L 28 142L 19 142L 10 142"></path></g></g></g><g id="g-root-cu_3dfl21t8y8le-stroke" data-item-order="0" data-item-id="cu_3dfl21t8y8le" data-item-class="Curve Stroke ColorFillGray ColorStrokeGray" data-item-index="none" data-renderer-id="0" transform="translate(153, 57)"><g id="cu_3dfl21t8y8le-stroke" fill="none" stroke-linecap="round" stroke-linejoin="round" stroke-miterlimit="4" stroke="#888888" stroke-width="2" stroke-dasharray="5.0, 7.0"><g><path d="M 28 10L 28 31L 28 166C 28.000011 172.627427 22.627428 178.000011 16.00001 178.000011L 15.9 178L 10 178"></path></g></g></g><g id="g-root-cu_zlazhi1t8y682-stroke" data-item-order="0" data-item-id="cu_zlazhi1t8y682" data-item-class="Curve Stroke ColorFillGray ColorStrokeGray" data-item-index="none" data-renderer-id="0" transform="translate(375, 48)"><g id="cu_zlazhi1t8y682-stroke" fill="none" stroke-linecap="round" stroke-linejoin="round" stroke-miterlimit="4" stroke="#888888" stroke-width="2" stroke-dasharray="5.0, 7.0"><g><path d="M 10 132L 13 132L 13.1 132C 24.642746 132.000005 33.999996 122.642756 33.999996 111.100004L 34 111L 34 30.9C 33.999999 19.357249 43.357248 10.000001 54.899999 10.000002L 55 10L 58 10"></path></g></g></g><g id="g-root-tx_importan_1464aau1t8slqk-stroke" data-item-order="0" data-item-id="tx_importan_1464aau1t8slqk" data-item-class="Label Stroke" data-item-index="none" data-renderer-id="0" transform="translate(471, 36)"></g><g id="g-root-tx_text_zqas6e1t8ve2x-stroke" data-item-order="0" data-item-id="tx_text_zqas6e1t8ve2x" data-item-class="Label Stroke" data-item-index="none" data-renderer-id="0" transform="translate(99, 69)"></g><g id="g-root-cu_m9uh461t8y7ta-stroke" data-item-order="0" data-item-id="cu_m9uh461t8y7ta" data-item-class="Curve Stroke ColorFillGray ColorStrokeGray" data-item-index="none" data-renderer-id="0" transform="translate(447, 75)"><g id="cu_m9uh461t8y7ta-stroke" fill="none" stroke-linecap="round" stroke-linejoin="round" stroke-miterlimit="4" stroke="#888888" stroke-width="2" stroke-dasharray="5.0, 7.0"><g><path d="M 10 10L 10 22L 10 34L 19 34L 28 34"></path></g></g></g><g id="g-root-cu_qpnz8m1t8y7sx-stroke" data-item-order="0" data-item-id="cu_qpnz8m1t8y7sx" data-item-class="Curve Stroke ColorFillGray ColorStrokeGray" data-item-index="none" data-renderer-id="0" transform="translate(447, 75)"><g id="cu_qpnz8m1t8y7sx-stroke" fill="none" stroke-linecap="round" stroke-linejoin="round" stroke-miterlimit="4" stroke="#888888" stroke-width="2" stroke-dasharray="5.0, 7.0"><g><path d="M 10 10L 10 40L 10 70L 19 70L 28 70"></path></g></g></g><g id="g-root-cu_hu0yzq1t8y8ln-stroke" data-item-order="0" data-item-id="cu_hu0yzq1t8y8ln" data-item-class="Curve Stroke ColorFillGray ColorStrokeGray" data-item-index="none" data-renderer-id="0" transform="translate(447, 75)"><g id="cu_hu0yzq1t8y8ln-stroke" fill="none" stroke-linecap="round" stroke-linejoin="round" stroke-miterlimit="4" stroke="#888888" stroke-width="2" stroke-dasharray="5.0, 7.0"><g><path d="M 10 10L 10 22L 10 94C 10.000004 100.627423 15.372587 106.000006 22.000005 106.000005L 22.1 106L 28 106"></path></g></g></g><g id="g-root-tx_modelper_v8lusm1t8vfup-stroke" data-item-order="0" data-item-id="tx_modelper_v8lusm1t8vfup" data-item-class="Label Stroke" data-item-index="none" data-renderer-id="0" transform="translate(471, 87)"></g><g id="g-root-tx_images_zqas6e1t8ve2y-stroke" data-item-order="0" data-item-id="tx_images_zqas6e1t8ve2y" data-item-class="Label Stroke" data-item-index="none" data-renderer-id="0" transform="translate(75, 105)"></g><g id="g-root-tx_accuracy_hxrtie1t8ve9u-stroke" data-item-order="0" data-item-id="tx_accuracy_hxrtie1t8ve9u" data-item-class="Label Stroke" data-item-index="none" data-renderer-id="0" transform="translate(471, 123)"></g><g id="g-root-tx_audio_vaha1y1t8vev7-stroke" data-item-order="0" data-item-id="tx_audio_vaha1y1t8vev7" data-item-class="Label Stroke" data-item-index="none" data-renderer-id="0" transform="translate(87, 141)"></g><g id="g-root-boxe_hrj2na1t8sl53-stroke" data-item-order="0" data-item-id="boxe_hrj2na1t8sl53" data-item-class="Icon Stroke" data-item-index="none" data-renderer-id="0" transform="translate(285, 144)"><g id="boxe_hrj2na1t8sl53-stroke" fill="none" stroke-linecap="round" stroke-linejoin="round" stroke-miterlimit="4" stroke="#484848" stroke-width="2"><g><path d="M 30.502001 16C 30.502001 18.761425 32.740578 21 35.501999 21C 38.263424 21 40.501999 18.761425 40.501999 16C 40.501999 13.238577 38.263424 11 35.501999 11C 32.740578 11 30.502001 13.238577 30.502001 16ZM 41.5 31L 41.5 25L 46.826 25C 49.959663 25 52.5 27.540337 52.5 30.674C 52.504101 32.683922 51.123322 34.431908 49.167068 34.893295C 47.210815 35.354683 45.194473 34.407925 44.300003 32.608002L 43.5 31.007999ZM 43.5 31L 47.5 31M 41.5 25L 29.5 25C 28.294224 24.999716 27.20545 25.721363 26.736 26.832001L 15.736 52.832001C 15.090932 54.358517 15.805485 56.118935 17.332001 56.764C 18.858517 57.409069 20.618931 56.694515 21.264 55.168003L 25.220001 45.818001L 29.528 47.386002C 30.710625 47.81736 31.498165 48.941166 31.5 50.200001L 31.5 54C 31.5 55.656857 32.843147 57 34.5 57C 36.156853 57 37.5 55.656857 37.5 54L 37.5 50.200001C 37.493534 46.417614 35.12841 43.040806 31.576002 41.742004L 27.559999 40.284L 31.488001 31L 41.5 31"></path></g></g></g><g id="g-root-tx_generali_4mbb521t8vfur-stroke" data-item-order="0" data-item-id="tx_generali_4mbb521t8vfur" data-item-class="Label Stroke" data-item-index="none" data-renderer-id="0" transform="translate(471, 159)"></g><g id="g-root-tx_video_meu9t21t8vfnw-stroke" data-item-order="0" data-item-id="tx_video_meu9t21t8vfnw" data-item-class="Label Stroke" data-item-index="none" data-renderer-id="0" transform="translate(87, 177)"></g><g id="g-root-tx_training_m7ckrq1t8skcu-stroke" data-item-order="0" data-item-id="tx_training_m7ckrq1t8skcu" data-item-class="Label Stroke" data-item-index="none" data-renderer-id="0" transform="translate(267, 198)"></g><g id="g-root-tx_sensorda_hzn8rq1t8vdad-stroke" data-item-order="0" data-item-id="tx_sensorda_hzn8rq1t8vdad" data-item-class="Label Stroke" data-item-index="none" data-renderer-id="0" transform="translate(27, 213)"></g><g id="g-root-cu_v5hhd21t8y70j-stroke" data-item-order="0" data-item-id="cu_v5hhd21t8y70j" data-item-class="Curve Stroke ColorFillGray ColorStrokeGray" data-item-index="none" data-renderer-id="0" transform="translate(195, 30)"><g id="cu_v5hhd21t8y70j-stroke" fill="none" stroke-linecap="round" stroke-linejoin="round" stroke-miterlimit="4" stroke="#888888" stroke-width="2" stroke-dasharray="5.0, 7.0"><g><path d="M 58 150L 55 150L 54.9 150C 43.357244 149.999993 33.999996 140.642744 33.999996 129.099994L 34 129L 34 30.9C 33.999998 19.357248 24.64275 10 13.1 10L 13 10L 10 10"></path></g></g></g><g id="g-root-cu_qpnz8m1t8y70t-stroke" data-item-order="0" data-item-id="cu_qpnz8m1t8y70t" data-item-class="Curve Stroke ColorFillGray ColorStrokeGray" data-item-index="none" data-renderer-id="0" transform="translate(195, 220)"><g id="cu_qpnz8m1t8y70t-stroke" fill="none" stroke-linecap="round" stroke-linejoin="round" stroke-miterlimit="4" stroke="#888888" stroke-width="2" stroke-dasharray="5.0, 7.0"><g><path d="M 58 10L 55 10L 54.9 10C 43.357248 10.000001 33.999999 19.357249 33.999999 30.9L 34 31L 34 57.1C 34.000002 68.642751 24.642753 78 13.100002 78L 13 78L 10 78"></path></g></g></g><g id="g-root-cu_v5hhd21t8y70g-stroke" data-item-order="0" data-item-id="cu_v5hhd21t8y70g" data-item-class="Curve Stroke ColorFillGray ColorStrokeGray" data-item-index="none" data-renderer-id="0" transform="translate(375, 220)"><g id="cu_v5hhd21t8y70g-stroke" fill="none" stroke-linecap="round" stroke-linejoin="round" stroke-miterlimit="4" stroke="#888888" stroke-width="2" stroke-dasharray="5.0, 7.0"><g><path d="M 10 10L 13 10L 13.1 10C 16.47715 10.00393 20.199416 10.613028 24.1 11.8C 26.434787 12.503612 29.936878 14.343094 34 16.999999C 38.063122 19.656905 41.565214 21.496387 43.900001 22.199999C 47.800584 23.386973 51.52285 23.996071 54.900001 24.000001L 55 24L 58 24"></path></g></g></g><g id="g-root-2_18n6qli1t8u1a9-stroke" data-item-order="0" data-item-id="2_18n6qli1t8u1a9" data-item-class="Icon Stroke" data-item-index="none" data-renderer-id="0" transform="translate(435, 219)"><g id="2_18n6qli1t8u1a9-stroke" fill="none" stroke-linecap="round" stroke-linejoin="round" stroke-miterlimit="4" stroke="#3bc482" stroke-width="2"><g><path d="M 25.625 24.375L 38.125 24.375C 38.815353 24.375 39.375 23.815357 39.375 23.125L 39.375 11.875C 39.375 11.184644 38.815353 10.625 38.125 10.625L 23.125 10.625C 22.434643 10.625 21.875 11.184644 21.875 11.875L 21.875 21.875M 30.625 24.375L 30.625 28.125M 34.380001 28.125L 26.879999 28.125M 11.875 25L 21.875 25C 21.875 25 23.125 25 23.125 26.25L 23.125 35.9375C 23.125 35.9375 23.125 37.1875 21.875 37.1875L 11.875 37.1875C 11.875 37.1875 10.625 37.1875 10.625 35.9375L 10.625 26.25C 10.625 26.25 10.625 25 11.875 25M 12.5 37.1875L 12.5 39.375M 21.25 37.1875L 21.25 39.375M 10.625 30.625L 23.125 30.625M 13.90625 33.4375C 14.165133 33.4375 14.375 33.647369 14.375 33.90625M 13.4375 33.90625C 13.4375 33.647369 13.647367 33.4375 13.90625 33.4375M 13.90625 34.375C 13.647367 34.375 13.4375 34.165134 13.4375 33.90625M 14.375 33.90625C 14.375 34.165134 14.165133 34.375 13.90625 34.375M 19.84375 33.4375C 20.102633 33.4375 20.3125 33.647369 20.3125 33.90625M 19.375 33.90625C 19.375 33.647369 19.584867 33.4375 19.84375 33.4375M 19.84375 34.375C 19.584867 34.375 19.375 34.165134 19.375 33.90625M 20.3125 33.90625C 20.3125 34.165134 20.102633 34.375 19.84375 34.375"></path></g></g></g><g id="g-root-tx_learning_1d308py1t8u0i0-stroke" data-item-order="0" data-item-id="tx_learning_1d308py1t8u0i0" data-item-class="Label Stroke" data-item-index="none" data-renderer-id="0" transform="translate(471, 222)"></g><g id="g-root-bars_140i0iu1t8y8lk-stroke" data-item-order="0" data-item-id="bars_140i0iu1t8y8lk" data-item-class="Icon Stroke" data-item-index="none" data-renderer-id="0" transform="translate(153, 15)"><g id="bars_140i0iu1t8y8lk-stroke" fill="none" stroke-linecap="round" stroke-linejoin="round" stroke-miterlimit="4" stroke="#b65edf" stroke-width="2"><g><path d="M 10.55125 34.375L 39.30125 34.375M 15.55125 34.375L 15.55125 28.75C 15.55125 28.404823 15.271428 28.125 14.92625 28.125L 12.42625 28.125C 12.081072 28.125 11.80125 28.404823 11.80125 28.75L 11.80125 34.375M 23.05125 34.375L 23.05125 22.5C 23.05125 22.154823 22.771427 21.875 22.42625 21.875L 19.92625 21.875C 19.581072 21.875 19.30125 22.154823 19.30125 22.5L 19.30125 34.375M 30.55125 34.375L 30.55125 25C 30.55125 24.654823 30.271427 24.375 29.92625 24.375L 27.42625 24.375C 27.081072 24.375 26.80125 24.654823 26.80125 25L 26.80125 34.375M 38.05125 34.375L 38.05125 16.25C 38.05125 15.904821 37.771427 15.625 37.42625 15.625L 34.92625 15.625C 34.581074 15.625 34.30125 15.904821 34.30125 16.25L 34.30125 34.375"></path></g></g></g><g id="g-root-cu_detxye1t8y68a-stroke" data-item-order="0" data-item-id="cu_detxye1t8y68a" data-item-class="Curve Stroke ColorFillGray ColorStrokeGray" data-item-index="none" data-renderer-id="0" transform="translate(447, 261)"><g id="cu_detxye1t8y68a-stroke" fill="none" stroke-linecap="round" stroke-linejoin="round" stroke-miterlimit="4" stroke="#888888" stroke-width="2" stroke-dasharray="5.0, 7.0"><g><path d="M 10 10L 10 22L 10 34L 19 34L 28 34"></path></g></g></g><g id="g-root-cu_8z0fty1t8y70l-stroke" data-item-order="0" data-item-id="cu_8z0fty1t8y70l" data-item-class="Curve Stroke ColorFillGray ColorStrokeGray" data-item-index="none" data-renderer-id="0" transform="translate(447, 261)"><g id="cu_8z0fty1t8y70l-stroke" fill="none" stroke-linecap="round" stroke-linejoin="round" stroke-miterlimit="4" stroke="#888888" stroke-width="2" stroke-dasharray="5.0, 7.0"><g><path d="M 10 10L 10 40L 10 70L 19 70L 28 70"></path></g></g></g><g id="g-root-cu_8z0fty1t8y70n-stroke" data-item-order="0" data-item-id="cu_8z0fty1t8y70n" data-item-class="Curve Stroke ColorFillGray ColorStrokeGray" data-item-index="none" data-renderer-id="0" transform="translate(447, 261)"><g id="cu_8z0fty1t8y70n-stroke" fill="none" stroke-linecap="round" stroke-linejoin="round" stroke-miterlimit="4" stroke="#888888" stroke-width="2" stroke-dasharray="5.0, 7.0"><g><path d="M 10 10L 10 22L 10 94C 10.000004 100.627423 15.372587 106.000006 22.000005 106.000005L 22.1 106L 28 106"></path></g></g></g><g id="g-root-tx_types_mbpwdi1t8wsnd-stroke" data-item-order="0" data-item-id="tx_types_mbpwdi1t8wsnd" data-item-class="Label Stroke" data-item-index="none" data-renderer-id="0" transform="translate(87, 276)"></g><g id="g-root-stac_909e061t8wu8a-stroke" data-item-order="0" data-item-id="stac_909e061t8wu8a" data-item-class="Icon Stroke" data-item-index="none" data-renderer-id="0" transform="translate(153, 273)"><g id="stac_909e061t8wu8a-stroke" fill="none" stroke-linecap="round" stroke-linejoin="round" stroke-miterlimit="4" stroke="#4682e3" stroke-width="2"><g><path d="M 11.93125 20.42625L 30.227499 20.42625C 30.227499 20.42625 31.533749 20.42625 31.533749 21.7325L 31.533749 36.108749C 31.533749 36.108749 31.533749 37.415001 30.227499 37.415001L 11.93125 37.415001C 11.93125 37.415001 10.625 37.415001 10.625 36.108749L 10.625 21.7325C 10.625 21.7325 10.625 20.42625 11.93125 20.42625M 10.625 24.387501L 31.533749 24.387501M 10.625 32.970001L 31.533749 32.970001M 10.625 28.79125L 31.533749 28.79125M 20.42625 24.387501L 20.42625 37.415001M 25.98 24.387501L 25.98 37.415001M 15.8525 16.5L 34.147499 16.5C 34.49514 16.499998 34.828465 16.638437 35.073814 16.884724C 35.31916 17.13101 35.456329 17.464863 35.455002 17.8125L 35.455002 34.80125M 19.772499 12.585L 38.068748 12.585C 38.790661 12.584999 39.37569 13.170589 39.374996 13.8925L 39.375 30.875"></path></g></g></g><g id="g-root-tx_supervis_1hgybl21t8vevi-stroke" data-item-order="0" data-item-id="tx_supervis_1hgybl21t8vevi" data-item-class="Label Stroke" data-item-index="none" data-renderer-id="0" transform="translate(471, 273)"></g><g id="g-root-cu_hu0yzq1t8y8lp-stroke" data-item-order="0" data-item-id="cu_hu0yzq1t8y8lp" data-item-class="Curve Stroke ColorFillGray ColorStrokeGray" data-item-index="none" data-renderer-id="0" transform="translate(153, 315)"><g id="cu_hu0yzq1t8y8lp-stroke" fill="none" stroke-linecap="round" stroke-linejoin="round" stroke-miterlimit="4" stroke="#888888" stroke-width="2" stroke-dasharray="5.0, 7.0"><g><path d="M 28 10L 28 22L 28 34L 19 34L 10 34"></path></g></g></g><g id="g-root-cu_detxye1t8y688-stroke" data-item-order="0" data-item-id="cu_detxye1t8y688" data-item-class="Curve Stroke ColorFillGray ColorStrokeGray" data-item-index="none" data-renderer-id="0" transform="translate(153, 315)"><g id="cu_detxye1t8y688-stroke" fill="none" stroke-linecap="round" stroke-linejoin="round" stroke-miterlimit="4" stroke="#888888" stroke-width="2" stroke-dasharray="5.0, 7.0"><g><path d="M 28 10L 28 17.5L 28 58C 27.999999 64.627415 22.627416 69.999998 16 69.999998L 15.9 70L 10 70"></path></g></g></g><g id="g-root-tx_unsuperv_1d14tgm1t8vfnr-stroke" data-item-order="0" data-item-id="tx_unsuperv_1d14tgm1t8vfnr" data-item-class="Label Stroke" data-item-index="none" data-renderer-id="0" transform="translate(471, 309)"></g><g id="g-root-tx_labeledd_1usetye1t8vdak-stroke" data-item-order="0" data-item-id="tx_labeledd_1usetye1t8vdak" data-item-class="Label Stroke" data-item-index="none" data-renderer-id="0" transform="translate(15, 327)"></g><g id="g-root-tx_semisupe_18lxsfa1t8vda8-stroke" data-item-order="0" data-item-id="tx_semisupe_18lxsfa1t8vda8" data-item-class="Label Stroke" data-item-index="none" data-renderer-id="0" transform="translate(471, 345)"></g><g id="g-root-tx_unlabele_1qclbty1t8ve2t-stroke" data-item-order="0" data-item-id="tx_unlabele_1qclbty1t8ve2t" data-item-class="Label Stroke" data-item-index="none" data-renderer-id="0" transform="translate(3, 363)"></g><g id="g-root-tx_formsofd_1hbyiw61t8y70n-stroke" data-item-order="0" data-item-id="tx_formsofd_1hbyiw61t8y70n" data-item-class="Label Stroke" data-item-index="none" data-renderer-id="0" transform="translate(15, 18)"></g><g id="g-root-cu_4j6xpi1t8y7t0-stroke" data-item-order="0" data-item-id="cu_4j6xpi1t8y7t0" data-item-class="Curve Stroke ColorFillGray ColorStrokeGray" data-item-index="none" data-renderer-id="0" transform="translate(153, 57)"><g id="cu_4j6xpi1t8y7t0-stroke" fill="none" stroke-linecap="round" stroke-linejoin="round" stroke-miterlimit="4" stroke="#888888" stroke-width="2" stroke-dasharray="5.0, 7.0"><g><path d="M 28 10L 28 40L 28 70L 19 70L 10 70"></path></g></g></g></g></g></svg>