<?xml version="1.0" encoding="utf-8" standalone="yes"?>
<!DOCTYPE svg PUBLIC "-//W3C//DTD SVG 1.1//EN" "http://www.w3.org/Graphics/SVG/1.1/DTD/svg11.dtd">
<svg width="588" height="288" viewBox="0 0 588 288" style="fill:none;stroke:none;fill-rule:evenodd;clip-rule:evenodd;stroke-linecap:round;stroke-linejoin:round;stroke-miterlimit:1.5;" version="1.1" xmlns="http://www.w3.org/2000/svg" xmlns:xlink="http://www.w3.org/1999/xlink"><style id="fontImports">@import url("https://fonts.googleapis.com/css2?family=Roboto:wght@400;700&amp;display=block");</style><rect id="" x="0" y="0" width="588" height="287.165" style="fill: #ffffff;"></rect><g id="items" style="isolation: isolate"><g id="blend" style="mix-blend-mode:multiply"><g id="g-root-3.cu_sy_hs5deu1ucsd1c-fill" data-item-order="-68194" data-item-id="3.cu_sy_hs5deu1ucsd1c" data-item-class="ScenePart Part Indexed Fill Stroke ColorStrokeBlack" data-item-index="3" data-renderer-id="0" transform="translate(147.73046875, 133.6259765625)"><g id="3.cu_sy_hs5deu1ucsd1c-fill" stroke="none" fill="#e15e5a"><g><path d="M 31.8365 21.5284C 31.4465 17.7145 31.2301 13.9006 31.2301 10L 104.1118 10.374C 104.1336 30.1978 120.408 46.374 140.27 46.374L 140.27 119.303C 136.37 119.303 132.744 119.086 128.975 118.696L 119.313 140.539C 110.387 139.109 101.8087 136.769 93.5767 133.648L 96.1331 109.898C 89.0709 106.7342 82.3984 102.877 76.2027 98.3697L 56.9227 112.455C 50.0337 106.8209 43.7079 100.4933 38.0755 93.6023L 52.1566 74.3161C 47.6506 68.1185 43.7947 61.4442 40.6319 54.3799L 16.889 56.9369C 13.7695 48.7024 11.4298 40.1211 10 31.1931L 31.8365 21.5284Z"></path></g></g></g><g id="g-root-4.cu_sy_hs5deu1ucsd1d-fill" data-item-order="-68192" data-item-id="4.cu_sy_hs5deu1ucsd1d" data-item-class="ScenePart Part Indexed Fill Stroke ColorStrokeBlack" data-item-index="4" data-renderer-id="0" transform="translate(278, 133.99993896484375)"><g id="4.cu_sy_hs5deu1ucsd1d-fill" stroke="none" fill="#dd8433"><g><path d="M 119.542 10.0432C 119.542 13.9438 119.326 17.2188 118.936 20.9893L 140.773 30.6541C 139.343 39.582 137.003 48.1633 133.884 56.3978L 110.141 53.8408C 106.9779 60.9052 103.1219 67.5795 98.616 73.7771L 112.697 93.0633C 107.0646 99.9543 100.7388 106.2819 93.8499 111.916L 74.5695 97.8306C 68.3739 102.3379 61.7017 106.1952 54.6395 109.359L 57.1959 133.109C 48.9638 136.23 40.3852 138.57 31.4599 140L 21.7979 118.157C 17.9852 118.547 13.8994 118.764 10 118.764L 10 45.9608C 30.2858 45.9608 46.7205 29.8423 46.7205 10L 119.542 10.0432Z"></path></g></g></g><g id="g-root-2.cu_sy_m7yvja1ucsc93-fill" data-item-order="-68190" data-item-id="2.cu_sy_m7yvja1ucsc93" data-item-class="ScenePart Part Indexed Fill Stroke ColorStrokeBlack" data-item-index="2" data-renderer-id="0" transform="translate(278, 3.0869140625)"><g id="2.cu_sy_m7yvja1ucsc93-fill" stroke="none" fill="#3bc482"><g><path d="M 119.629 140.913C 119.629 137.013 119.413 132.825 119.023 129.011L 140.859 119.346C 139.43 110.418 137.09 101.8368 133.97 93.6023L 110.228 96.1593C 107.0647 89.095 103.2085 82.4207 98.7025 76.2231L 112.784 56.9369C 107.1512 50.0459 100.8256 43.7183 93.9367 38.0841L 74.6564 52.1695C 68.4607 47.6622 61.7885 43.805 54.7263 40.6412L 57.2824 16.891C 49.0504 13.7706 40.4717 11.4302 31.5465 10L 21.8847 31.8432C 18.1153 31.4532 13.8994 31.2365 10.000026 31.2365L 10.000026 104.2567C 30.2587 104.2567 46.6738 120.641 46.696 140.872L 119.629 140.913Z"></path></g></g></g><g id="g-root-1.cu_sy_m7yvja1ucsc92-fill" data-item-order="-68188" data-item-id="1.cu_sy_m7yvja1ucsc92" data-item-class="ScenePart Part Indexed Indexed_1 Fill Stroke ColorStrokeBlack" data-item-index="1" data-renderer-id="0" transform="translate(147.7738037109375, 3)"><g id="1.cu_sy_m7yvja1ucsc92-fill" stroke="none" fill="#17b0e3"><g><path d="M 31.2298 141C 31.2298 137.099 31.4465 132.781 31.8365 129.011L 10 119.346C 11.4298 110.418 13.7693 101.8368 16.8888 93.6023L 40.6319 96.1593C 43.7947 89.095 47.6506 82.4206 52.1566 76.2231L 38.0755 56.9369C 43.7079 50.0459 50.0338 43.7183 56.9227 38.0841L 76.2027 52.1695C 82.3984 47.6622 89.0709 43.805 96.1331 40.6412L 93.5767 16.891C 101.8087 13.7706 110.387 11.4302 119.313 10L 128.974 31.8432C 132.787 31.4532 136.327 31.2365 140.226 31.2365L 140.226 104.3434C 120.396 104.3656 104.0138 120.763 104.0138 141L 31.2298 141Z"></path></g></g></g><g id="g-root-tx_computer_4gov1i1ucsemb-fill" data-item-order="0" data-item-id="tx_computer_4gov1i1ucsemb" data-item-class="Label Stroke SceneTarget Indexed Indexed_1 ColorStrokeBlack" data-item-index="1" data-renderer-id="0" transform="translate(2, 14)"><g id="tx_computer_4gov1i1ucsemb-fill" stroke="none" fill="#666666"><g><text style="font: 20px Roboto, sans-serif; white-space: pre;"><tspan x="15.75" y="34" dominant-baseline="ideographic">Computer Vision</tspan></text></g></g></g><g id="g-root-tx_naturall_1hbbvhi1ucsdn2-fill" data-item-order="0" data-item-id="tx_naturall_1hbbvhi1ucsdn2" data-item-class="Label Stroke SceneTarget Indexed ColorStrokeBlack" data-item-index="2" data-renderer-id="0" transform="translate(398, 2)"><g id="tx_naturall_1hbbvhi1ucsdn2-fill" stroke="none" fill="#666666"><g><text style="font: 20px Roboto, sans-serif; white-space: pre;"><tspan x="12" y="34" dominant-baseline="ideographic">Natural Language </tspan><tspan x="12" y="58" dominant-baseline="ideographic">Processing</tspan></text></g></g></g><g id="g-root-eye_4gov1i1ucxzbd-fill" data-item-order="0" data-item-id="eye_4gov1i1ucxzbd" data-item-class="Icon Stroke SceneTarget Indexed Indexed_1 InsideFill InsideColorFill ColorStrokeBlack" data-item-index="1" data-renderer-id="0" transform="translate(206, 62)"></g><g id="g-root-squa_1cwrbja1ucy1ac-fill" data-item-order="0" data-item-id="squa_1cwrbja1ucy1ac" data-item-class="Icon Stroke SceneTarget Indexed InsideFill InsideColorFill ColorStrokeBlack" data-item-index="2" data-renderer-id="0" transform="translate(314, 62)"></g><g id="g-root-rate_1luwu9i1q76v43-fill" data-item-order="0" data-item-id="rate_1luwu9i1q76v43" data-item-class="Icon Stroke SceneTarget Indexed InsideFill InsideColorFill ColorStrokeBlack" data-item-index="3" data-renderer-id="0" transform="translate(206, 169.99993896484375)"></g><g id="g-root-doll_18f27ue1q6rfgm-fill" data-item-order="0" data-item-id="doll_18f27ue1q6rfgm" data-item-class="Icon Stroke SceneTarget Indexed InsideFill InsideColorFill ColorStrokeBlack" data-item-index="4" data-renderer-id="0" transform="translate(314, 169.99993896484375)"></g><g id="g-root-tx_healthca_1umsduu1ucsc24-fill" data-item-order="0" data-item-id="tx_healthca_1umsduu1ucsc24" data-item-class="Label Stroke SceneTarget Indexed ColorStrokeBlack" data-item-index="3" data-renderer-id="0" transform="translate(50, 230)"><g id="tx_healthca_1umsduu1ucsc24-fill" stroke="none" fill="#666666"><g><text style="font: 20px Roboto, sans-serif; white-space: pre;"><tspan x="19.33" y="34" dominant-baseline="ideographic">Healthcare</tspan></text></g></g></g><g id="g-root-tx_finance_1q6yvqe1ucscud-fill" data-item-order="0" data-item-id="tx_finance_1q6yvqe1ucscud" data-item-class="Label Stroke SceneTarget Indexed ColorStrokeBlack" data-item-index="4" data-renderer-id="0" transform="translate(398, 230)"><g id="tx_finance_1q6yvqe1ucscud-fill" stroke="none" fill="#666666"><g><text style="font: 20px Roboto, sans-serif; white-space: pre;"><tspan x="12" y="34" dominant-baseline="ideographic">Finance</tspan></text></g></g></g><g id="g-root-3.cu_sy_hs5deu1ucsd1c-stroke" data-item-order="-68194" data-item-id="3.cu_sy_hs5deu1ucsd1c" data-item-class="ScenePart Part Indexed Fill Stroke ColorStrokeBlack" data-item-index="3" data-renderer-id="0" transform="translate(147.73046875, 133.6259765625)"><g id="3.cu_sy_hs5deu1ucsd1c-stroke" fill="none" stroke-linecap="round" stroke-linejoin="round" stroke-miterlimit="4" stroke="#2c2c2c" stroke-width="2"><g><path d="M 31.2301 10C 31.2301 13.9006 31.4465 17.7145 31.8365 21.5284L 10 31.1931C 11.4298 40.1211 13.7695 48.7024 16.889 56.9369L 40.6319 54.3799C 43.7947 61.4442 47.6506 68.1185 52.1566 74.3161L 38.0755 93.6023C 43.7079 100.4933 50.0337 106.8209 56.9227 112.4551L 76.2027 98.3697C 82.3984 102.877 89.0709 106.7342 96.1331 109.898L 93.5767 133.6482C 101.8087 136.7686 110.3874 139.109 119.3126 140.5392L 128.9746 118.696C 132.744 119.0861 136.3701 119.3027 140.2695 119.3027L 140.2695 46.374C 120.4083 46.374 104.1336 30.1978 104.1118 10.374L 31.2301 10Z"></path></g></g></g><g id="g-root-4.cu_sy_hs5deu1ucsd1d-stroke" data-item-order="-68192" data-item-id="4.cu_sy_hs5deu1ucsd1d" data-item-class="ScenePart Part Indexed Fill Stroke ColorStrokeBlack" data-item-index="4" data-renderer-id="0" transform="translate(278, 133.99993896484375)"><g id="4.cu_sy_hs5deu1ucsd1d-stroke" fill="none" stroke-linecap="round" stroke-linejoin="round" stroke-miterlimit="4" stroke="#2c2c2c" stroke-width="2"><g><path d="M 119.5425 10.0432C 119.5425 13.9438 119.326 17.2188 118.9361 20.9893L 140.7726 30.6541C 139.3428 39.582 137.003 48.1633 133.8835 56.3978L 110.1407 53.8408C 106.9779 60.9052 103.1219 67.5795 98.616 73.7771L 112.6971 93.0633C 107.0646 99.9543 100.7388 106.2819 93.8499 111.916L 74.5695 97.8306C 68.3739 102.3379 61.7017 106.1952 54.6395 109.359L 57.1959 133.1091C 48.9638 136.2296 40.3852 138.57 31.4599 140.0002L 21.7979 118.1569C 17.9852 118.547 13.8994 118.7637 10 118.7637L 10 45.9608C 30.2858 45.9608 46.7205 29.8423 46.7205 10L 119.5425 10.0432Z"></path></g></g></g><g id="g-root-2.cu_sy_m7yvja1ucsc93-stroke" data-item-order="-68190" data-item-id="2.cu_sy_m7yvja1ucsc93" data-item-class="ScenePart Part Indexed Fill Stroke ColorStrokeBlack" data-item-index="2" data-renderer-id="0" transform="translate(278, 3.0869140625)"><g id="2.cu_sy_m7yvja1ucsc93-stroke" fill="none" stroke-linecap="round" stroke-linejoin="round" stroke-miterlimit="4" stroke="#2c2c2c" stroke-width="2"><g><path d="M 119.6293 140.9133C 119.6293 137.0128 119.4126 132.8247 119.0227 129.0108L 140.8594 119.3461C 139.4296 110.4181 137.0898 101.8368 133.9703 93.6023L 110.2275 96.1593C 107.0647 89.095 103.2085 82.4207 98.7025 76.2231L 112.7836 56.9369C 107.1512 50.0459 100.8256 43.7183 93.9367 38.0841L 74.6564 52.1695C 68.4607 47.6622 61.7885 43.805 54.7263 40.6412L 57.2824 16.891C 49.0504 13.7706 40.4717 11.4302 31.5465 10L 21.8847 31.8432C 18.1153 31.4532 13.8994 31.2365 10 31.2365L 10 104.2567C 30.2587 104.2567 46.6738 120.6406 46.696 140.8722L 119.6293 140.9133Z"></path></g></g></g><g id="g-root-1.cu_sy_m7yvja1ucsc92-stroke" data-item-order="-68188" data-item-id="1.cu_sy_m7yvja1ucsc92" data-item-class="ScenePart Part Indexed Indexed_1 Fill Stroke ColorStrokeBlack" data-item-index="1" data-renderer-id="0" transform="translate(147.7738037109375, 3)"><g id="1.cu_sy_m7yvja1ucsc92-stroke" fill="none" stroke-linecap="round" stroke-linejoin="round" stroke-miterlimit="4" stroke="#2c2c2c" stroke-width="2"><g><path d="M 140.2262 104.3434C 120.3964 104.3656 104.0138 120.7631 104.0138 141C 79.7146 141 55.4997 141 31.2298 141C 31.2298 137.0994 31.4465 132.7814 31.8365 129.0108L 10 119.3461C 11.4298 110.4181 13.7693 101.8368 16.8888 93.6023L 40.6319 96.1593C 43.7947 89.095 47.6506 82.4206 52.1566 76.2231L 38.0755 56.9369C 43.7079 50.0459 50.0338 43.7183 56.9227 38.0841L 76.2027 52.1695C 82.3984 47.6622 89.0709 43.805 96.1331 40.6412L 93.5767 16.891C 101.8087 13.7706 110.3874 11.4302 119.3127 10L 128.9744 31.8432C 132.7871 31.4532 136.3268 31.2365 140.2262 31.2365L 140.2262 104.3434ZM 140.2262 104.3434L 140.2665 104.3433"></path></g></g></g><g id="g-root-tx_computer_4gov1i1ucsemb-stroke" data-item-order="0" data-item-id="tx_computer_4gov1i1ucsemb" data-item-class="Label Stroke SceneTarget Indexed Indexed_1 ColorStrokeBlack" data-item-index="1" data-renderer-id="0" transform="translate(2, 14)"></g><g id="g-root-tx_naturall_1hbbvhi1ucsdn2-stroke" data-item-order="0" data-item-id="tx_naturall_1hbbvhi1ucsdn2" data-item-class="Label Stroke SceneTarget Indexed ColorStrokeBlack" data-item-index="2" data-renderer-id="0" transform="translate(398, 2)"></g><g id="g-root-eye_4gov1i1ucxzbd-stroke" data-item-order="0" data-item-id="eye_4gov1i1ucxzbd" data-item-class="Icon Stroke SceneTarget Indexed Indexed_1 InsideFill InsideColorFill ColorStrokeBlack" data-item-index="1" data-renderer-id="0" transform="translate(206, 62)"><g id="eye_4gov1i1ucxzbd-stroke" fill="none" stroke-linecap="round" stroke-linejoin="round" stroke-miterlimit="4" stroke="#2c2c2c" stroke-width="2"><g><path d="M 13 14.5L 43 14.5C 43 14.5 44.5 14.5 44.5 16L 44.5 40C 44.5 40 44.5 41.5 43 41.5L 13 41.5C 13 41.5 11.5 41.5 11.5 40L 11.5 16C 11.5 16 11.5 14.5 13 14.5M 16 23.5L 16 20.5C 16 19.671574 16.671574 19 17.5 19L 20.5 19M 40 23.5L 40 20.5C 40 19.671574 39.328426 19 38.5 19L 35.5 19M 16 32.5L 16 35.5C 16 36.328426 16.671574 37 17.5 37L 20.5 37M 40 32.5L 40 35.5C 40 36.328426 39.328426 37 38.5 37L 35.5 37M 24.25 28C 24.25 30.071068 25.928932 31.75 28 31.75C 30.071068 31.75 31.75 30.071068 31.75 28C 31.75 25.928932 30.071068 24.25 28 24.25C 25.928932 24.25 24.25 25.928932 24.25 28M 36.737503 27.327999C 35.766998 26.268999 32.2225 22.75 28 22.75C 23.7775 22.75 20.233 26.268999 19.262501 27.327999C 18.908842 27.708515 18.908842 28.297485 19.262501 28.678001C 20.233 29.731001 23.7775 33.25 28 33.25C 32.2225 33.25 35.766998 29.731001 36.737503 28.672001C 37.09116 28.291487 37.09116 27.702515 36.737503 27.322001Z"></path></g></g></g><g id="g-root-squa_1cwrbja1ucy1ac-stroke" data-item-order="0" data-item-id="squa_1cwrbja1ucy1ac" data-item-class="Icon Stroke SceneTarget Indexed InsideFill InsideColorFill ColorStrokeBlack" data-item-index="2" data-renderer-id="0" transform="translate(314, 62)"><g id="squa_1cwrbja1ucy1ac-stroke" fill="none" stroke-linecap="round" stroke-linejoin="round" stroke-miterlimit="4" stroke="#2c2c2c" stroke-width="2"><g><path d="M 21.571428 42.142857L 11.285714 44.714287L 13.857142 37L 13.857142 13.857142C 13.857142 12.436982 15.00841 11.285714 16.428572 11.285714L 42.142857 11.285714C 43.563019 11.285714 44.714287 12.436982 44.714287 13.857142L 44.714287 39.571426C 44.714287 40.991589 43.563019 42.142857 42.142857 42.142857ZM 34.42857 11.285714L 29.285713 19L 35.714287 22.857143L 31.857143 28"></path></g></g></g><g id="g-root-rate_1luwu9i1q76v43-stroke" data-item-order="0" data-item-id="rate_1luwu9i1q76v43" data-item-class="Icon Stroke SceneTarget Indexed InsideFill InsideColorFill ColorStrokeBlack" data-item-index="3" data-renderer-id="0" transform="translate(206, 169.99993896484375)"><g id="rate_1luwu9i1q76v43-stroke" fill="none" stroke-linecap="round" stroke-linejoin="round" stroke-miterlimit="4" stroke="#2c2c2c" stroke-width="2"><g><path d="M 11.491428 21.082857C 12.802857 14.757143 20.594286 10 28 18.408571C 38.568569 6.297143 49.857143 21.314285 42.194286 29.054285L 28 42.142857L 19.694286 34.42857M 11.285714 28L 17.714285 28L 21.571428 22.857143L 26.714285 31.857143L 30.571428 26.714285L 34.42857 26.714285"></path></g></g></g><g id="g-root-doll_18f27ue1q6rfgm-stroke" data-item-order="0" data-item-id="doll_18f27ue1q6rfgm" data-item-class="Icon Stroke SceneTarget Indexed InsideFill InsideColorFill ColorStrokeBlack" data-item-index="4" data-renderer-id="0" transform="translate(314, 169.99993896484375)"><g id="doll_18f27ue1q6rfgm-stroke" fill="none" stroke-linecap="round" stroke-linejoin="round" stroke-miterlimit="4" stroke="#2c2c2c" stroke-width="2"><g><path d="M 27.999969 28.494999L 27.999969 26.244999M 31.749964 28.494999L 26.259974 28.494999C 25.149881 28.494999 24.249977 29.394907 24.249977 30.505001C 24.243536 31.326326 24.744844 32.066353 25.509974 32.365002L 30.489965 33.610001C 31.397766 33.960388 31.924208 34.910732 31.739761 35.866169C 31.555315 36.821602 30.712957 37.507698 29.739967 37.494999L 24.249977 37.494999M 27.999969 39.744999L 27.999969 37.494999M 22.749979 19.494999L 33.249962 19.494999M 30.999966 19.494999C 31.37571 19.490196 31.689901 19.208065 31.734962 18.834999C 32.059174 16.871145 32.670731 14.965717 33.549961 13.18C 33.698441 12.901314 33.65646 12.559478 33.444962 12.325C 33.230427 12.083727 32.883564 12.010703 32.589962 12.145L 29.439968 13.495L 28.704969 11.5C 28.591831 11.21374 28.315275 11.02567 28.007469 11.02567C 27.699665 11.02567 27.423109 11.21374 27.309971 11.5L 26.499973 13.495L 23.364977 12.145C 23.071377 12.010703 22.724512 12.083727 22.509979 12.325C 22.298479 12.559478 22.256498 12.901314 22.40498 13.18C 23.284214 14.965717 23.895769 16.871145 24.219976 18.835001C 24.265038 19.208065 24.579229 19.490196 24.954975 19.494999M 30.999966 19.494999C 30.999966 19.494999 41.499947 27.744999 41.499947 34.959999C 41.499947 42.459999 35.499958 44.994999 27.999969 44.994999C 20.499983 44.994999 14.499992 42.415001 14.499992 34.959999C 14.499992 27.744999 24.999975 19.494999 24.999975 19.494999"></path></g></g></g><g id="g-root-tx_healthca_1umsduu1ucsc24-stroke" data-item-order="0" data-item-id="tx_healthca_1umsduu1ucsc24" data-item-class="Label Stroke SceneTarget Indexed ColorStrokeBlack" data-item-index="3" data-renderer-id="0" transform="translate(50, 230)"></g><g id="g-root-tx_finance_1q6yvqe1ucscud-stroke" data-item-order="0" data-item-id="tx_finance_1q6yvqe1ucscud" data-item-class="Label Stroke SceneTarget Indexed ColorStrokeBlack" data-item-index="4" data-renderer-id="0" transform="translate(398, 230)"></g></g></g></svg>