<?xml version="1.0" encoding="utf-8" standalone="yes"?>
<!DOCTYPE svg PUBLIC "-//W3C//DTD SVG 1.1//EN" "http://www.w3.org/Graphics/SVG/1.1/DTD/svg11.dtd">
<svg width="818" height="284" viewBox="0 0 818 284" style="fill:none;stroke:none;fill-rule:evenodd;clip-rule:evenodd;stroke-linecap:round;stroke-linejoin:round;stroke-miterlimit:1.5;" version="1.1" xmlns="http://www.w3.org/2000/svg" xmlns:xlink="http://www.w3.org/1999/xlink"><style id="fontImports">@import url("https://fonts.googleapis.com/css2?family=Roboto:wght@400;700&amp;display=block");</style><rect id="" x="0" y="0" width="818" height="284" style="fill: #2c2c2c;"></rect><g id="items" style="isolation: isolate"><g id="blend" style="mix-blend-mode:screen"><g id="g-root-ro_1lsele71n54bgj-fill" data-item-order="-204336" data-item-id="ro_1lsele71n54bgj" data-item-class="Shape Stroke Fill" data-item-index="none" data-renderer-id="0" transform="translate(3, 3)"><g id="ro_1lsele71n54bgj-fill" stroke="none" fill="#505050"><g><path d="M 22 10L 790 10C 790 10 802 10 802 22L 802 256C 802 256 802 268 790 268L 22 268C 22 268 10 268 10 256L 10 22C 10 22 10 10 22 10"></path></g></g></g><g id="g-root--1.cu_sy_1hd7qnz1p39wjl-fill" data-item-order="-109436" data-item-id="-1.cu_sy_1hd7qnz1p39wjl" data-item-class="ScenePart Part Fill Stroke ColorFillBlack" data-item-index="-1" data-renderer-id="0" transform="translate(254, 33)"><g id="-1.cu_sy_1hd7qnz1p39wjl-fill" stroke="none" fill="url(#gradient-4e4e4e-128737877)"><g><path d="M 125 34L 101 10L 10 166L 34 190L 125 34ZM 125 34L 34 190L 216 190L 125 34Z"></path></g></g></g><g id="g-root-0.line-start_sy_18hkqf31p39xca-fill" data-item-order="-109433" data-item-id="0.line-start_sy_18hkqf31p39xca" data-item-class="ScenePart Part Indexed_0 Stroke ColorFillGray ColorStrokeGray" data-item-index="0" data-renderer-id="0" transform="translate(231, 135)"></g><g id="g-root-0.cr-small_cr_18hkqf31p39xcb-fill" data-item-order="-109432" data-item-id="0.cr-small_cr_18hkqf31p39xcb" data-item-class="Shape Stroke Fill ScenePart Part Indexed_0 ColorFillGray" data-item-index="0" data-renderer-id="0" transform="translate(159, 99)"><g id="0.cr-small_cr_18hkqf31p39xcb-fill" stroke="none" fill="url(#gradient-878787-155498943)"><g><path d="M 10 46C 10 65.882251 26.117749 82 46 82C 65.882251 82 82 65.882251 82 46C 82 26.117749 65.882251 10 46 10C 26.117749 10 10 26.117749 10 46"></path></g></g></g><g id="g-root-3.line_sy_mb3ovz1p39xc0-fill" data-item-order="-109429" data-item-id="3.line_sy_mb3ovz1p39xc0" data-item-class="ScenePart Part Indexed Stroke" data-item-index="3" data-renderer-id="0" transform="translate(324, 135)"></g><g id="g-root-3.cr-small_cr_mb3ovz1p39xc1-fill" data-item-order="-109428" data-item-id="3.cr-small_cr_mb3ovz1p39xc1" data-item-class="Shape Stroke Fill ScenePart Part Indexed" data-item-index="3" data-renderer-id="0" transform="translate(579, 189)"><g id="3.cr-small_cr_mb3ovz1p39xc1-fill" stroke="none" fill="url(#gradient-e05e5a-419626624)"><g><path d="M 10 40C 10.000002 56.568544 23.431459 70.000002 40.000002 70.000002C 56.568544 70.000002 70.000002 56.568544 70.000002 40.000002C 70.000002 23.431459 56.568544 10.000002 40.000002 10.000002C 23.431459 10.000002 10.000002 23.431459 10.000002 40.000002"></path></g></g></g><g id="g-root-2.line_sy_v6qp4v1p39vri-fill" data-item-order="-109425" data-item-id="2.line_sy_v6qp4v1p39vri" data-item-class="ScenePart Part Indexed Stroke" data-item-index="2" data-renderer-id="0" transform="translate(323.5, 135)"></g><g id="g-root-2.cr-small_cr_qqx70f1p39wjr-fill" data-item-order="-109424" data-item-id="2.cr-small_cr_qqx70f1p39wjr" data-item-class="Shape Stroke Fill ScenePart Part Indexed" data-item-index="2" data-renderer-id="0" transform="translate(579, 105)"><g id="2.cr-small_cr_qqx70f1p39wjr-fill" stroke="none" fill="url(#gradient-dc8433-135949021)"><g><path d="M 10 40C 10.000002 56.568544 23.431459 70.000002 40.000002 70.000002C 56.568544 70.000002 70.000002 56.568544 70.000002 40.000002C 70.000002 23.431459 56.568544 10.000002 40.000002 10.000002C 23.431459 10.000002 10.000002 23.431459 10.000002 40.000002"></path></g></g></g><g id="g-root-1.line_sy_141r8an1p39y4k-fill" data-item-order="-109421" data-item-id="1.line_sy_141r8an1p39y4k" data-item-class="ScenePart Part Indexed Indexed_1 Stroke" data-item-index="1" data-renderer-id="0" transform="translate(323.5, 51)"></g><g id="g-root-1.cr-small_cr_141r8an1p39y4l-fill" data-item-order="-109420" data-item-id="1.cr-small_cr_141r8an1p39y4l" data-item-class="Shape Stroke Fill ScenePart Part Indexed Indexed_1" data-item-index="1" data-renderer-id="0" transform="translate(579, 21.00006103515625)"><defs><linearGradient id="gradient-4e4e4e-128737877" x2="0" y2="1"><stop offset="0" stop-color="#666666"></stop><stop offset="1" stop-color="#353535"></stop></linearGradient><linearGradient id="gradient-878787-155498943" x2="0" y2="1"><stop offset="0" stop-color="#A3A3A3"></stop><stop offset="1" stop-color="#6a6a6a"></stop></linearGradient><linearGradient id="gradient-e05e5a-419626624" x2="0" y2="1"><stop offset="0" stop-color="#FD6A65"></stop><stop offset="1" stop-color="#c2514e"></stop></linearGradient><linearGradient id="gradient-dc8433-135949021" x2="0" y2="1"><stop offset="0" stop-color="#F99539"></stop><stop offset="1" stop-color="#be722c"></stop></linearGradient><linearGradient id="gradient-e2cc09-3952618" x2="0" y2="1"><stop offset="0" stop-color="#FFE60A"></stop><stop offset="1" stop-color="#c4b108"></stop></linearGradient></defs><g id="1.cr-small_cr_141r8an1p39y4l-fill" stroke="none" fill="url(#gradient-e2cc09-3952618)"><g><path d="M 10 40C 10.000002 56.568544 23.431459 70.000002 40.000002 70.000002C 56.568544 70.000002 70.000002 56.568544 70.000002 40.000002C 70.000002 23.431459 56.568544 10.000002 40.000002 10.000002C 23.431459 10.000002 10.000002 23.431459 10.000002 40.000002"></path></g></g></g><g id="g-root-tx_neuralne_zpokov1p39w5p-fill" data-item-order="0" data-item-id="tx_neuralne_zpokov1p39w5p" data-item-class="Label Stroke SceneTarget Indexed Indexed_1 ColorStrokeGray" data-item-index="1" data-renderer-id="0" transform="translate(651, 15)"><g id="tx_neuralne_zpokov1p39w5p-fill" stroke="none" fill="#FFFFFF"><g><text style="font: 20px Roboto, sans-serif; white-space: pre;"><tspan x="12" y="33.75" dominant-baseline="ideographic">Recurrent </tspan><tspan x="12" y="57.75" dominant-baseline="ideographic">Neural </tspan><tspan x="12" y="81.75" dominant-baseline="ideographic">Networks</tspan></text></g></g></g><g id="g-root-1_1qf3o3j1p2vv9l-fill" data-item-order="0" data-item-id="1_1qf3o3j1p2vv9l" data-item-class="Icon Stroke SceneTarget Indexed Indexed_1 InsideFill InsideColorFill ColorStrokeGray" data-item-index="1" data-renderer-id="0" transform="translate(591, 33)"></g><g id="g-root-on_hyeqin1p2vwge-fill" data-item-order="0" data-item-id="on_hyeqin1p2vwge" data-item-class="Icon Stroke SceneTarget SceneStart InsideFill InsideGrayFill ColorStrokeGray" data-item-index="none" data-renderer-id="0" transform="translate(171, 111)"></g><g id="g-root-tx_naturall_1lw5m7z1p39wxw-fill" data-item-order="0" data-item-id="tx_naturall_1lw5m7z1p39wxw" data-item-class="Label Stroke SceneTarget Indexed ColorStrokeGray" data-item-index="2" data-renderer-id="0" transform="translate(651, 99)"><g id="tx_naturall_1lw5m7z1p39wxw-fill" stroke="none" fill="#FFFFFF"><g><text style="font: 20px Roboto, sans-serif; white-space: pre;"><tspan x="12" y="33.75" dominant-baseline="ideographic">Natural </tspan><tspan x="12" y="57.75" dominant-baseline="ideographic">Language </tspan><tspan x="12" y="81.75" dominant-baseline="ideographic">Processing</tspan></text></g></g></g><g id="g-root-tx_transfor_v7znb31p39xxm-fill" data-item-order="0" data-item-id="tx_transfor_v7znb31p39xxm" data-item-class="Label Stroke SceneTarget SceneStart ColorStrokeGray" data-item-index="none" data-renderer-id="0" transform="translate(15, 123)"><g id="tx_transfor_v7znb31p39xxm-fill" stroke="none" fill="#FFFFFF"><g><text style="font: 20px Roboto, sans-serif; white-space: pre;"><tspan x="19.86" y="33.75" dominant-baseline="ideographic">Transformers</tspan></text></g></g></g><g id="g-root-squa_qvx60v1p2vuo0-fill" data-item-order="0" data-item-id="squa_qvx60v1p2vuo0" data-item-class="Icon Stroke SceneTarget Indexed InsideFill InsideColorFill ColorStrokeGray" data-item-index="2" data-renderer-id="0" transform="translate(591, 117)"></g><g id="g-root-robo_7r73z1p2vvnr-fill" data-item-order="0" data-item-id="robo_7r73z1p2vvnr" data-item-class="Icon Stroke SceneTarget Indexed InsideFill InsideColorFill ColorStrokeGray" data-item-index="3" data-renderer-id="0" transform="translate(591, 201)"></g><g id="g-root-tx_aiinnova_4lp3nj1p39xxn-fill" data-item-order="0" data-item-id="tx_aiinnova_4lp3nj1p39xxn" data-item-class="Label Stroke SceneTarget Indexed ColorStrokeGray" data-item-index="3" data-renderer-id="0" transform="translate(651, 207)"><g id="tx_aiinnova_4lp3nj1p39xxn-fill" stroke="none" fill="#FFFFFF"><g><text style="font: 20px Roboto, sans-serif; white-space: pre;"><tspan x="12" y="33.75" dominant-baseline="ideographic">AI Innovations</tspan></text></g></g></g><g id="g-root-ro_1lsele71n54bgj-stroke" data-item-order="-204336" data-item-id="ro_1lsele71n54bgj" data-item-class="Shape Stroke Fill" data-item-index="none" data-renderer-id="0" transform="translate(3, 3)"><g id="ro_1lsele71n54bgj-stroke" fill="none" stroke-linecap="round" stroke-linejoin="round" stroke-miterlimit="4" stroke="#A3A3A3" stroke-width="2"><g><path d="M 22 10L 790 10C 790 10 802 10 802 22L 802 256C 802 256 802 268 790 268L 22 268C 22 268 10 268 10 256L 10 22C 10 22 10 10 22 10"></path></g></g></g><g id="g-root--1.cu_sy_1hd7qnz1p39wjl-stroke" data-item-order="-109436" data-item-id="-1.cu_sy_1hd7qnz1p39wjl" data-item-class="ScenePart Part Fill Stroke ColorFillBlack" data-item-index="-1" data-renderer-id="0" transform="translate(254, 33)"><g id="-1.cu_sy_1hd7qnz1p39wjl-stroke" fill="none" stroke-linecap="round" stroke-linejoin="round" stroke-miterlimit="4" stroke="#ffffff" stroke-width="2"><g><path d="M 125 34L 101 10L 10 166L 34 190L 125 34ZM 125 34L 34 190L 216 190L 125 34Z"></path></g></g></g><g id="g-root-0.line-start_sy_18hkqf31p39xca-stroke" data-item-order="-109433" data-item-id="0.line-start_sy_18hkqf31p39xca" data-item-class="ScenePart Part Indexed_0 Stroke ColorFillGray ColorStrokeGray" data-item-index="0" data-renderer-id="0" transform="translate(231, 135)"><g id="0.line-start_sy_18hkqf31p39xca-stroke" fill="none" stroke-linecap="round" stroke-linejoin="round" stroke-miterlimit="4" stroke="#FFFFFF" stroke-width="2"><g><path d="M 10 10L 102.5 10"></path></g></g></g><g id="g-root-0.cr-small_cr_18hkqf31p39xcb-stroke" data-item-order="-109432" data-item-id="0.cr-small_cr_18hkqf31p39xcb" data-item-class="Shape Stroke Fill ScenePart Part Indexed_0 ColorFillGray" data-item-index="0" data-renderer-id="0" transform="translate(159, 99)"><g id="0.cr-small_cr_18hkqf31p39xcb-stroke" fill="none" stroke-linecap="round" stroke-linejoin="round" stroke-miterlimit="4" stroke="#ffffff" stroke-width="2"><g><path d="M 10 46C 10 65.882251 26.117749 82 46 82C 65.882251 82 82 65.882251 82 46C 82 26.117749 65.882251 10 46 10C 26.117749 10 10 26.117749 10 46"></path></g></g></g><g id="g-root-3.line_sy_mb3ovz1p39xc0-stroke" data-item-order="-109429" data-item-id="3.line_sy_mb3ovz1p39xc0" data-item-class="ScenePart Part Indexed Stroke" data-item-index="3" data-renderer-id="0" transform="translate(324, 135)"><g id="3.line_sy_mb3ovz1p39xc0-stroke" fill="none" stroke-linecap="round" stroke-linejoin="round" stroke-miterlimit="4" stroke="#FD6A65" stroke-width="2"><g><path d="M 257.19 93.14L 107.5 22L 10 10"></path><path d="M 249 96.4L 257.6 93.4L 254.6 84.7" stroke-dasharray="none"></path></g></g></g><g id="g-root-3.cr-small_cr_mb3ovz1p39xc1-stroke" data-item-order="-109428" data-item-id="3.cr-small_cr_mb3ovz1p39xc1" data-item-class="Shape Stroke Fill ScenePart Part Indexed" data-item-index="3" data-renderer-id="0" transform="translate(579, 189)"><g id="3.cr-small_cr_mb3ovz1p39xc1-stroke" fill="none" stroke-linecap="round" stroke-linejoin="round" stroke-miterlimit="4" stroke="#ffffff" stroke-width="2"><g><path d="M 10 40C 10.000002 56.568544 23.431459 70.000002 40.000002 70.000002C 56.568544 70.000002 70.000002 56.568544 70.000002 40.000002C 70.000002 23.431459 56.568544 10.000002 40.000002 10.000002C 23.431459 10.000002 10.000002 23.431459 10.000002 40.000002"></path></g></g></g><g id="g-root-2.line_sy_v6qp4v1p39vri-stroke" data-item-order="-109425" data-item-id="2.line_sy_v6qp4v1p39vri" data-item-class="ScenePart Part Indexed Stroke" data-item-index="2" data-renderer-id="0" transform="translate(323.5, 135)"><g id="2.line_sy_v6qp4v1p39vri-stroke" fill="none" stroke-linecap="round" stroke-linejoin="round" stroke-miterlimit="4" stroke="#F99539" stroke-width="2"><g><path d="M 257.5 10.49L 101 10L 10 10"></path><path d="M 251.5 17L 258 10.5L 251.5 4" stroke-dasharray="none"></path></g></g></g><g id="g-root-2.cr-small_cr_qqx70f1p39wjr-stroke" data-item-order="-109424" data-item-id="2.cr-small_cr_qqx70f1p39wjr" data-item-class="Shape Stroke Fill ScenePart Part Indexed" data-item-index="2" data-renderer-id="0" transform="translate(579, 105)"><g id="2.cr-small_cr_qqx70f1p39wjr-stroke" fill="none" stroke-linecap="round" stroke-linejoin="round" stroke-miterlimit="4" stroke="#ffffff" stroke-width="2"><g><path d="M 10 40C 10.000002 56.568544 23.431459 70.000002 40.000002 70.000002C 56.568544 70.000002 70.000002 56.568544 70.000002 40.000002C 70.000002 23.431459 56.568544 10.000002 40.000002 10.000002C 23.431459 10.000002 10.000002 23.431459 10.000002 40.000002"></path></g></g></g><g id="g-root-1.line_sy_141r8an1p39y4k-stroke" data-item-order="-109421" data-item-id="1.line_sy_141r8an1p39y4k" data-item-class="ScenePart Part Indexed Indexed_1 Stroke" data-item-index="1" data-renderer-id="0" transform="translate(323.5, 51)"><g id="1.line_sy_141r8an1p39y4k-stroke" fill="none" stroke-linecap="round" stroke-linejoin="round" stroke-miterlimit="4" stroke="#FFE60A" stroke-width="2"><g><path d="M 10 94.000018L 94 82.000018L 257.67 10.800018"></path><path d="M 254.8 19.200018L 258.1 10.600018L 249.6 7.200018" stroke-dasharray="none"></path></g></g></g><g id="g-root-1.cr-small_cr_141r8an1p39y4l-stroke" data-item-order="-109420" data-item-id="1.cr-small_cr_141r8an1p39y4l" data-item-class="Shape Stroke Fill ScenePart Part Indexed Indexed_1" data-item-index="1" data-renderer-id="0" transform="translate(579, 21.00006103515625)"><g id="1.cr-small_cr_141r8an1p39y4l-stroke" fill="none" stroke-linecap="round" stroke-linejoin="round" stroke-miterlimit="4" stroke="#ffffff" stroke-width="2"><g><path d="M 10 40C 10.000002 56.568544 23.431459 70.000002 40.000002 70.000002C 56.568544 70.000002 70.000002 56.568544 70.000002 40.000002C 70.000002 23.431459 56.568544 10.000002 40.000002 10.000002C 23.431459 10.000002 10.000002 23.431459 10.000002 40.000002"></path></g></g></g><g id="g-root-tx_neuralne_zpokov1p39w5p-stroke" data-item-order="0" data-item-id="tx_neuralne_zpokov1p39w5p" data-item-class="Label Stroke SceneTarget Indexed Indexed_1 ColorStrokeGray" data-item-index="1" data-renderer-id="0" transform="translate(651, 15)"></g><g id="g-root-1_1qf3o3j1p2vv9l-stroke" data-item-order="0" data-item-id="1_1qf3o3j1p2vv9l" data-item-class="Icon Stroke SceneTarget Indexed Indexed_1 InsideFill InsideColorFill ColorStrokeGray" data-item-index="1" data-renderer-id="0" transform="translate(591, 33)"><g id="1_1qf3o3j1p2vv9l-stroke" fill="none" stroke-linecap="round" stroke-linejoin="round" stroke-miterlimit="4" stroke="#FFFFFF" stroke-width="2"><g><path d="M 18.924999 40.5415C 20.515327 40.276794 21.858028 39.213402 22.48 37.725998M 13.6315 22.819C 16.700008 23.357086 19.336252 25.308151 20.747499 28.085501M 18.6745 25.3435L 21.364 23.326M 25 11.0095C 24.971167 12.513198 24.699671 14.002371 24.196001 15.4195M 22 16.75C 22 17.578426 22.671572 18.25 23.5 18.25C 24.328428 18.25 25 17.578426 25 16.75C 25 15.921573 24.328428 15.25 23.5 15.25C 22.671572 15.25 22 15.921573 22 16.75ZM 31 19.75C 31 20.578426 31.671572 21.25 32.5 21.25C 33.328426 21.25 34 20.578426 34 19.75C 34 18.921574 33.328426 18.25 32.5 18.25C 31.671572 18.25 31 18.921574 31 19.75ZM 36.25 25.75C 36.25 26.578428 36.921574 27.25 37.75 27.25C 38.578426 27.25 39.25 26.578428 39.25 25.75C 39.25 24.921572 38.578426 24.25 37.75 24.25C 36.921574 24.25 36.25 24.921572 36.25 25.75ZM 31 31C 31 31.828428 31.671572 32.5 32.5 32.5C 33.328426 32.5 34 31.828428 34 31C 34 30.171572 33.328426 29.5 32.5 29.5C 31.671572 29.5 31 30.171572 31 31ZM 21.25 22.75C 21.25 23.578428 21.921574 24.25 22.75 24.25C 23.578428 24.25 24.25 23.578428 24.25 22.75C 24.25 21.921574 23.578428 21.25 22.75 21.25C 21.921574 21.25 21.25 21.921574 21.25 22.75ZM 19.75 29.5C 19.75 30.328428 20.421574 31 21.25 31C 22.078428 31 22.75 30.328428 22.75 29.5C 22.75 28.671572 22.078428 28 21.25 28C 20.421574 28 19.75 28.671572 19.75 29.5ZM 45.25 28C 45.256008 25.889372 44.164753 23.927273 42.3685 22.819C 42.47015 22.376102 42.522968 21.923401 42.526001 21.469C 42.556053 18.349937 40.182159 15.732382 37.074997 15.4585C 37.105984 14.230299 36.643616 13.040881 35.791229 12.156079C 34.938843 11.271277 33.767502 10.764856 32.539001 10.75C 30.59667 10.861201 28.863588 12.006662 28 13.75C 27.136412 12.006662 25.40333 10.861201 23.461 10.75C 22.232498 10.764856 21.061157 11.271277 20.208771 12.156079C 19.356384 13.040881 18.894014 14.230299 18.924999 15.4585C 15.816681 15.732469 13.442369 18.351789 13.474 21.472C 13.474572 21.926126 13.524872 22.378824 13.624 22.821999C 11.832467 23.934723 10.742925 25.894032 10.742925 28.003C 10.742925 30.111967 11.832467 32.071274 13.624 33.183998C 13.524872 33.627174 13.474572 34.079872 13.474 34.533997C 13.44552 37.651913 15.819001 40.267708 18.924999 40.5415C 18.894014 41.769699 19.356384 42.959118 20.208771 43.843918C 21.061157 44.728722 22.232498 45.235142 23.461 45.25C 25.252247 45.293427 26.94997 44.451859 27.999998 42.999996C 29.050028 44.451859 30.747751 45.293427 32.538998 45.249996C 33.767502 45.235142 34.938843 44.728722 35.791229 43.843918C 36.643616 42.959118 37.105984 41.769699 37.074997 40.5415C 40.183319 40.267532 42.557632 37.648209 42.526001 34.528C 42.522968 34.073597 42.47015 33.620895 42.3685 33.178001C 44.163841 32.070286 45.254963 30.109562 45.25 28ZM 28 13.75L 28 31M 28 36.937L 28 43M 41.759499 18.494499L 37.599998 20.5765C 36.384861 21.184866 34.957153 21.199253 33.73 20.615499M 32.5 29.5C 32.944782 27.64395 34.393951 26.194782 36.250004 25.750002M 37.074997 40.5415C 36.660999 39.099998 35.954498 37.991501 34.75 37.75M 21.25 36.25C 21.25 37.078426 21.921574 37.75 22.75 37.75C 23.578428 37.75 24.25 37.078426 24.25 36.25C 24.25 35.421574 23.578428 34.75 22.75 34.75C 21.921574 34.75 21.25 35.421574 21.25 36.25ZM 31.75 37.75C 31.75 38.578426 32.421574 39.25 33.25 39.25C 34.078426 39.25 34.75 38.578426 34.75 37.75C 34.75 36.921574 34.078426 36.25 33.25 36.25C 32.421574 36.25 31.75 36.921574 31.75 37.75Z"></path></g></g></g><g id="g-root-on_hyeqin1p2vwge-stroke" data-item-order="0" data-item-id="on_hyeqin1p2vwge" data-item-class="Icon Stroke SceneTarget SceneStart InsideFill InsideGrayFill ColorStrokeGray" data-item-index="none" data-renderer-id="0" transform="translate(171, 111)"><g id="on_hyeqin1p2vwge-stroke" fill="none" stroke-linecap="round" stroke-linejoin="round" stroke-miterlimit="4" stroke="#FFFFFF" stroke-width="2"><g><path d="M 46 37.428574C 46.022171 31.506199 41.720341 26.453302 35.870296 25.530289C 30.020248 24.607275 24.371649 28.090206 22.569283 33.731705C 20.766918 39.373199 23.34985 45.48597 28.651428 48.125717L 28.651428 54.022858C 28.670025 54.747917 29.263273 55.325954 29.988571 55.325714L 38.011429 55.325714C 38.736725 55.325954 39.329975 54.747917 39.348572 54.022858L 39.348572 48.022858C 43.376583 46.017712 45.944405 41.927727 46 37.428574ZM 34 12.777143L 34 17.92M 47.714287 17.68L 44.079998 21.348572M 55.531429 28.308573L 50.388573 28.308573M 20.285715 17.68L 23.92 21.348572M 12.468572 28.308573L 17.611429 28.308573"></path></g></g></g><g id="g-root-tx_naturall_1lw5m7z1p39wxw-stroke" data-item-order="0" data-item-id="tx_naturall_1lw5m7z1p39wxw" data-item-class="Label Stroke SceneTarget Indexed ColorStrokeGray" data-item-index="2" data-renderer-id="0" transform="translate(651, 99)"></g><g id="g-root-tx_transfor_v7znb31p39xxm-stroke" data-item-order="0" data-item-id="tx_transfor_v7znb31p39xxm" data-item-class="Label Stroke SceneTarget SceneStart ColorStrokeGray" data-item-index="none" data-renderer-id="0" transform="translate(15, 123)"></g><g id="g-root-squa_qvx60v1p2vuo0-stroke" data-item-order="0" data-item-id="squa_qvx60v1p2vuo0" data-item-class="Icon Stroke SceneTarget Indexed InsideFill InsideColorFill ColorStrokeGray" data-item-index="2" data-renderer-id="0" transform="translate(591, 117)"><g id="squa_qvx60v1p2vuo0-stroke" fill="none" stroke-linecap="round" stroke-linejoin="round" stroke-miterlimit="4" stroke="#FFFFFF" stroke-width="2"><g><path d="M 21.571428 42.142857L 11.285714 44.714287L 13.857142 37L 13.857142 13.857142C 13.857142 12.436982 15.00841 11.285714 16.428572 11.285714L 42.142857 11.285714C 43.563019 11.285714 44.714287 12.436982 44.714287 13.857142L 44.714287 39.571426C 44.714287 40.991589 43.563019 42.142857 42.142857 42.142857ZM 34.42857 11.285714L 29.285713 19L 35.714287 22.857143L 31.857143 28"></path></g></g></g><g id="g-root-robo_7r73z1p2vvnr-stroke" data-item-order="0" data-item-id="robo_7r73z1p2vvnr" data-item-class="Icon Stroke SceneTarget Indexed InsideFill InsideColorFill ColorStrokeGray" data-item-index="3" data-renderer-id="0" transform="translate(591, 201)"><g id="robo_7r73z1p2vvnr-stroke" fill="none" stroke-linecap="round" stroke-linejoin="round" stroke-miterlimit="4" stroke="#FFFFFF" stroke-width="2"><g><path d="M 19 10.75L 37 10.75C 37 10.75 39.25 10.75 39.25 13L 39.25 22C 39.25 22 39.25 24.25 37 24.25L 19 24.25C 19 24.25 16.75 24.25 16.75 22L 16.75 13C 16.75 13 16.75 10.75 19 10.75M 19.75 17.5C 19.75 18.742641 20.75736 19.75 22 19.75C 23.242641 19.75 24.25 18.742641 24.25 17.5C 24.25 16.25736 23.242641 15.25 22 15.25C 20.75736 15.25 19.75 16.25736 19.75 17.5M 31.75 17.5C 31.75 18.742641 32.757362 19.75 34 19.75C 35.242641 19.75 36.25 18.742641 36.25 17.5C 36.25 16.25736 35.242641 15.25 34 15.25C 32.757362 15.25 31.75 16.25736 31.75 17.5M 25.75 27.25L 30.25 27.25M 25.75 30.25L 30.25 30.25M 33.010002 33.25L 22.99 33.25C 21.330721 33.249134 19.760065 33.99876 18.717138 35.289307C 17.674212 36.579857 17.270916 38.272858 17.620001 39.895004L 18.325001 44.650002C 18.390818 45.002525 18.701433 45.256092 19.059999 45.25L 37 45.25C 37.358566 45.256092 37.669186 45.002525 37.735001 44.650002L 38.439999 39.895C 38.791424 38.262524 38.380745 36.558842 37.324112 35.265778C 36.267479 33.972717 34.679768 33.230854 33.010002 33.25ZM 38.5 38.170002L 41.064999 35.755001C 42.718685 34.447445 43.471863 32.304684 43.000004 30.250002L 43 29.965M 44.5 24.25C 45.352238 25.386316 45.489323 26.906612 44.854103 28.177052C 44.21888 29.447491 42.920395 30.25 41.5 30.25C 40.319099 30.252373 39.206642 29.696144 38.5 28.750002M 17.5 38.170002L 14.965 35.755001C 13.30022 34.454636 12.534919 32.310619 13 30.250002L 13 29.950001M 11.5 24.25C 10.647763 25.386316 10.510678 26.906612 11.145898 28.177052C 11.781118 29.447491 13.079605 30.25 14.5 30.25C 15.680899 30.252373 16.793358 29.696144 17.5 28.750002M 34 45.25L 34 38.5C 34 38.085785 33.664215 37.75 33.25 37.75L 22.75 37.75C 22.335787 37.75 22 38.085785 22 38.5L 22 45.25"></path></g></g></g><g id="g-root-tx_aiinnova_4lp3nj1p39xxn-stroke" data-item-order="0" data-item-id="tx_aiinnova_4lp3nj1p39xxn" data-item-class="Label Stroke SceneTarget Indexed ColorStrokeGray" data-item-index="3" data-renderer-id="0" transform="translate(651, 207)"></g></g></g></svg>