<?xml version="1.0" encoding="utf-8" standalone="yes"?>
<!DOCTYPE svg PUBLIC "-//W3C//DTD SVG 1.1//EN" "http://www.w3.org/Graphics/SVG/1.1/DTD/svg11.dtd">
<svg width="577" height="408" viewBox="0 0 577 408" style="fill:none;stroke:none;fill-rule:evenodd;clip-rule:evenodd;stroke-linecap:round;stroke-linejoin:round;stroke-miterlimit:1.5;" version="1.1" xmlns="http://www.w3.org/2000/svg" xmlns:xlink="http://www.w3.org/1999/xlink"><style id="fontImports">@import url("https://fonts.googleapis.com/css2?family=Roboto:wght@400;700&amp;display=block");</style><g id="items" style="isolation: isolate"><g id="blend" style="mix-blend-mode:multiply"><g id="g-root-0.cr-big_cr_1cxel8f1pwqfph-fill" data-item-order="-121610" data-item-id="0.cr-big_cr_1cxel8f1pwqfph" data-item-class="Shape Stroke Fill ScenePart Part Indexed_0 ColorFillBlack ColorStrokeBlack" data-item-index="0" data-renderer-id="0" transform="translate(194.00698852539062, 121.75283813476562)"><g id="0.cr-big_cr_1cxel8f1pwqfph-fill" stroke="none" fill="#666666"><g><path d="M 10 70C 10.000003 103.137088 36.862918 130.000003 70.000003 130.000003C 103.137088 130.000003 130.000003 103.137088 130.000003 70.000003C 130.000003 36.862918 103.137088 10.000003 70.000003 10.000003C 36.862918 10.000003 10.000003 36.862918 10.000003 70.000003"></path></g></g></g><g id="g-root-3.cu_sy_zly2v31pwqhag-fill" data-item-order="-121608" data-item-id="3.cu_sy_zly2v31pwqhag" data-item-class="ScenePart Part Indexed Fill Stroke ColorStrokeBlack" data-item-index="3" data-renderer-id="0" transform="translate(82.90753173828125, 3)"><g id="3.cu_sy_zly2v31pwqhag-fill" stroke="none" fill="#93c131"><g><path d="M 129.141694 218.753L 56.392694 260.754L 56.391894 260.753C 9.999994 180.4 37.530994 77.6527 117.884194 31.2608C 137.967094 19.6662 159.448094 12.689 181.099094 10L 181.102094 128.743C 170.905094 128.734 160.569094 131.326 151.103094 136.791C 122.405694 153.36 112.573194 190.055 129.141694 218.753Z"></path></g></g></g><g id="g-root-2.cu_sy_141rkzj1pwqgi7-fill" data-item-order="-121606" data-item-id="2.cu_sy_141rkzj1pwqgi7" data-item-class="ScenePart Part Indexed Fill Stroke ColorStrokeBlack" data-item-index="2" data-renderer-id="0" transform="translate(99.20291137695312, 211.74966430664062)"><g id="2.cu_sy_141rkzj1pwqgi7-fill" stroke="none" fill="#3bc482"><g><path d="M 216.764 10L 289.513 52.0017L 289.512 52.0031C 243.12 132.356 140.373 159.887 60.0196 113.495C 39.9372 101.9007 23.1541 86.7859 10 69.3803L 112.833 10.0063C 117.923 18.8416 125.336 26.4965 134.802 31.9615C 163.5 48.5301 200.195 38.6976 216.764 10Z"></path></g></g></g><g id="g-root-1.cu_sy_141rkzj1pwqgi6-fill" data-item-order="-121604" data-item-id="1.cu_sy_141rkzj1pwqgi6" data-item-class="ScenePart Part Indexed Indexed_1 Fill Stroke ColorStrokeBlack" data-item-index="1" data-renderer-id="0" transform="translate(254.00518798828125, 37.752899169921875)"><g id="1.cu_sy_141rkzj1pwqgi6-fill" stroke="none" fill="#17b0e3"><g><path d="M 10 94.0033L 10.000021 10L 10.0016 10C 102.7855 10.000007 178.002 85.2162 178.002 178C 178.002 201.189 173.303 223.281 164.807 243.376L 61.9709 184.007C 67.0774 175.181 70 164.933 70 154.003C 70 120.866 43.1371 94.0033 10 94.0033Z"></path></g></g></g><g id="g-root-tx_finance_4kgi671pwqewy-fill" data-item-order="0" data-item-id="tx_finance_4kgi671pwqewy" data-item-class="Label Stroke SceneTarget Indexed ColorStrokeBlack" data-item-index="3" data-renderer-id="0" transform="translate(2, 85.73788452148438)"><g id="tx_finance_4kgi671pwqewy-fill" stroke="none" fill="#666666"><g><text style="font: 20px Roboto, sans-serif; white-space: pre;"><tspan x="22.08" y="33.75" dominant-baseline="ideographic">Finance</tspan></text></g></g></g><g id="g-root-tx_techindu_1heh1j31pwqh3g-fill" data-item-order="0" data-item-id="tx_techindu_1heh1j31pwqh3g" data-item-class="Label Stroke SceneTarget Indexed Indexed_1 ColorStrokeBlack" data-item-index="1" data-renderer-id="0" transform="translate(422.013671875, 85.76486206054688)"><g id="tx_techindu_1heh1j31pwqh3g-fill" stroke="none" fill="#666666"><g><text style="font: 20px Roboto, sans-serif; white-space: pre;"><tspan x="12" y="33.75" dominant-baseline="ideographic">Tech Industry</tspan></text></g></g></g><g id="g-root-1_1qehddr1px1p1f-fill" data-item-order="0" data-item-id="1_1qehddr1px1p1f" data-item-class="Icon Stroke SceneTarget Indexed InsideFill InsideColorFill ColorStrokeBlack" data-item-index="3" data-renderer-id="0" transform="translate(141.643310546875, 106.70669555664062)"></g><g id="g-root-tran_zs6tq71px1p1h-fill" data-item-order="0" data-item-id="tran_zs6tq71px1p1h" data-item-class="Icon Stroke SceneTarget Indexed Indexed_1 InsideFill InsideColorFill ColorStrokeBlack" data-item-index="1" data-renderer-id="0" transform="translate(318.37060546875, 106.70620727539062)"></g><g id="g-root-1_hznv271px1p8i-fill" data-item-order="0" data-item-id="1_hznv271px1p8i" data-item-class="Icon Stroke SceneTarget InsideFill InsideColorFill InsideBlackFill ColorStrokeBlack" data-item-index="0" data-renderer-id="0" transform="translate(218.0068359375, 145.74899291992188)"></g><g id="g-root-trea_1d3nc3j1px1ngk-fill" data-item-order="0" data-item-id="trea_1d3nc3j1px1ngk" data-item-class="Icon Stroke SceneTarget Indexed InsideFill InsideColorFill ColorStrokeBlack" data-item-index="2" data-renderer-id="0" transform="translate(230.007080078125, 259.7565612792969)"></g><g id="g-root-tx_healthca_1qa41rz1pwqgar-fill" data-item-order="0" data-item-id="tx_healthca_1qa41rz1pwqgar" data-item-class="Label Stroke SceneTarget Indexed ColorStrokeBlack" data-item-index="2" data-renderer-id="0" transform="translate(200.0068359375, 361.6934509277344)"><g id="tx_healthca_1qa41rz1pwqgar-fill" stroke="none" fill="#666666"><g><text style="font: 20px Roboto, sans-serif; white-space: pre;"><tspan x="15.67" y="33.75" dominant-baseline="ideographic">Healthcare</tspan></text></g></g></g><g id="g-root-0.cr-big_cr_1cxel8f1pwqfph-stroke" data-item-order="-121610" data-item-id="0.cr-big_cr_1cxel8f1pwqfph" data-item-class="Shape Stroke Fill ScenePart Part Indexed_0 ColorFillBlack ColorStrokeBlack" data-item-index="0" data-renderer-id="0" transform="translate(194.00698852539062, 121.75283813476562)"><g id="0.cr-big_cr_1cxel8f1pwqfph-stroke" fill="none" stroke-linecap="round" stroke-linejoin="round" stroke-miterlimit="4" stroke="#2c2c2c" stroke-width="2"><g><path d="M 10 70C 10.000003 103.137088 36.862918 130.000003 70.000003 130.000003C 103.137088 130.000003 130.000003 103.137088 130.000003 70.000003C 130.000003 36.862918 103.137088 10.000003 70.000003 10.000003C 36.862918 10.000003 10.000003 36.862918 10.000003 70.000003"></path></g></g></g><g id="g-root-3.cu_sy_zly2v31pwqhag-stroke" data-item-order="-121608" data-item-id="3.cu_sy_zly2v31pwqhag" data-item-class="ScenePart Part Indexed Fill Stroke ColorStrokeBlack" data-item-index="3" data-renderer-id="0" transform="translate(82.90753173828125, 3)"><g id="3.cu_sy_zly2v31pwqhag-stroke" fill="none" stroke-linecap="round" stroke-linejoin="round" stroke-miterlimit="4" stroke="#2c2c2c" stroke-width="2"><g><path d="M 129.141694 218.7528L 56.392694 260.7544L 56.391894 260.753C 9.999994 180.3999 37.530994 77.6527 117.884194 31.2608C 137.966594 19.6661 159.447894 12.689 181.098694 10L 181.101694 128.7428C 170.904894 128.7335 160.568994 131.3262 151.103194 136.7913C 122.405694 153.3598 112.573194 190.0552 129.141694 218.7528Z"></path></g></g></g><g id="g-root-2.cu_sy_141rkzj1pwqgi7-stroke" data-item-order="-121606" data-item-id="2.cu_sy_141rkzj1pwqgi7" data-item-class="ScenePart Part Indexed Fill Stroke ColorStrokeBlack" data-item-index="2" data-renderer-id="0" transform="translate(99.20291137695312, 211.74966430664062)"><g id="2.cu_sy_141rkzj1pwqgi7-stroke" fill="none" stroke-linecap="round" stroke-linejoin="round" stroke-miterlimit="4" stroke="#2c2c2c" stroke-width="2"><g><path d="M 216.7637 10L 289.5127 52.0017L 289.5119 52.0031C 243.12 132.3562 140.3728 159.8872 60.0196 113.4953C 39.9372 101.9007 23.1541 86.7859 10 69.3803L 112.8327 10.0063C 117.9231 18.8416 125.3364 26.4965 134.8022 31.9615C 163.4997 48.5301 200.1952 38.6976 216.7637 10Z"></path></g></g></g><g id="g-root-1.cu_sy_141rkzj1pwqgi6-stroke" data-item-order="-121604" data-item-id="1.cu_sy_141rkzj1pwqgi6" data-item-class="ScenePart Part Indexed Indexed_1 Fill Stroke ColorStrokeBlack" data-item-index="1" data-renderer-id="0" transform="translate(254.00518798828125, 37.752899169921875)"><g id="1.cu_sy_141rkzj1pwqgi6-stroke" fill="none" stroke-linecap="round" stroke-linejoin="round" stroke-miterlimit="4" stroke="#2c2c2c" stroke-width="2"><g><path d="M 10 94.0033L 10 10L 10.0016 10C 102.7855 10 178.0016 85.2162 178.0016 178C 178.0016 201.1893 173.3033 223.2812 164.8067 243.3758L 61.9709 184.007C 67.0774 175.181 70 164.9335 70 154.0033C 70 120.8663 43.1371 94.0033 10 94.0033Z"></path></g></g></g><g id="g-root-tx_finance_4kgi671pwqewy-stroke" data-item-order="0" data-item-id="tx_finance_4kgi671pwqewy" data-item-class="Label Stroke SceneTarget Indexed ColorStrokeBlack" data-item-index="3" data-renderer-id="0" transform="translate(2, 85.73788452148438)"></g><g id="g-root-tx_techindu_1heh1j31pwqh3g-stroke" data-item-order="0" data-item-id="tx_techindu_1heh1j31pwqh3g" data-item-class="Label Stroke SceneTarget Indexed Indexed_1 ColorStrokeBlack" data-item-index="1" data-renderer-id="0" transform="translate(422.013671875, 85.76486206054688)"></g><g id="g-root-1_1qehddr1px1p1f-stroke" data-item-order="0" data-item-id="1_1qehddr1px1p1f" data-item-class="Icon Stroke SceneTarget Indexed InsideFill InsideColorFill ColorStrokeBlack" data-item-index="3" data-renderer-id="0" transform="translate(141.643310546875, 106.70669555664062)"><g id="1_1qehddr1px1p1f-stroke" fill="none" stroke-linecap="round" stroke-linejoin="round" stroke-miterlimit="4" stroke="#2c2c2c" stroke-width="2"><g><path d="M 48 24C 48 26.209139 49.790859 28 52 28C 54.209141 28 56 26.209139 56 24C 56 21.790861 54.209141 20 52 20C 49.790859 20 48 21.790861 48 24M 52 11L 52 20M 42.854 34.200001C 41.65567 35.977715 41.72403 38.321541 43.02393 40.026394C 44.32383 41.731247 46.565933 42.417656 48.597462 41.732704C 50.628986 41.047745 51.997753 39.14389 52 37L 52 28M 42 49L 42 55C 42 56.104568 41.104568 57 40 57L 14 57C 12.895431 57 12 56.104568 12 55L 12 23C 12 18.581722 15.581722 15 20 15L 40 15C 41.104568 15 42 15.895431 42 17L 42 25M 22 15.16L 22 23C 22 24.104568 21.104568 25 20 25L 12.16 25M 33 30L 28.708 30C 26.988787 30.000622 25.495478 31.182915 25.100515 32.856148C 24.705553 34.529373 25.512539 36.254646 27.050001 37.024002L 30.950001 38.975998C 32.487465 39.745354 33.294449 41.470627 32.899487 43.143856C 32.504524 44.817085 31.011213 45.999382 29.292 46L 25 46M 28 46L 28 49M 30 27L 30 30"></path></g></g></g><g id="g-root-tran_zs6tq71px1p1h-stroke" data-item-order="0" data-item-id="tran_zs6tq71px1p1h" data-item-class="Icon Stroke SceneTarget Indexed Indexed_1 InsideFill InsideColorFill ColorStrokeBlack" data-item-index="1" data-renderer-id="0" transform="translate(318.37060546875, 106.70620727539062)"><g id="tran_zs6tq71px1p1h-stroke" fill="none" stroke-linecap="round" stroke-linejoin="round" stroke-miterlimit="4" stroke="#2c2c2c" stroke-width="2"><g><path d="M 23 11L 23 23M 21 23L 25 23M 21 11L 25 11M 51 57L 51 48C 51 46.343147 52.343147 45 54 45C 55.656857 45 57 46.343147 57 48L 57 57M 51 51L 57 51M 37 54C 37 55.656857 35.656853 57 34 57C 32.343147 57 31 55.656857 31 54L 31 48C 31 46.343147 32.343147 45 34 45C 35.656853 45 37 46.343147 37 48ZM 41 45L 41 55C 41 56.104568 41.895432 57 43 57L 47 57M 17 11L 17 23M 11 23L 11 11M 11 17L 17 17M 27 45L 27 57M 21 57L 21 45M 21 51L 27 51M 47 29L 51 33L 55 29M 19 37L 15 33L 11 37M 17.422001 42.023998C 15.830542 39.283241 14.994774 36.1693 15 33M 33 15C 42.941124 15 51 23.058874 51 33"></path></g></g></g><g id="g-root-1_hznv271px1p8i-stroke" data-item-order="0" data-item-id="1_hznv271px1p8i" data-item-class="Icon Stroke SceneTarget InsideFill InsideColorFill InsideBlackFill ColorStrokeBlack" data-item-index="0" data-renderer-id="0" transform="translate(218.0068359375, 145.74899291992188)"><g id="1_hznv271px1p8i-stroke" fill="none" stroke-linecap="round" stroke-linejoin="round" stroke-miterlimit="4" stroke="#2c2c2c" stroke-width="2"><g><path d="M 27.849998 71.083C 31.030655 70.553589 33.716057 68.426804 34.959999 65.451996M 17.263 35.638C 23.400017 36.714172 28.672504 40.616302 31.494999 46.171001M 27.348999 40.687L 32.728001 36.652M 40 12.019C 39.942333 15.026397 39.399342 18.004742 38.392002 20.839001M 34 23.5C 34 25.156855 35.343143 26.5 37 26.5C 38.656857 26.5 40 25.156855 40 23.5C 40 21.843145 38.656857 20.5 37 20.5C 35.343143 20.5 34 21.843145 34 23.5ZM 52 29.5C 52 31.156855 53.343143 32.5 55 32.5C 56.656857 32.5 58 31.156855 58 29.5C 58 27.843145 56.656857 26.5 55 26.5C 53.343143 26.5 52 27.843145 52 29.5ZM 62.5 41.5C 62.5 43.156857 63.843147 44.5 65.5 44.5C 67.156853 44.5 68.5 43.156857 68.5 41.5C 68.5 39.843143 67.156853 38.5 65.5 38.5C 63.843147 38.5 62.5 39.843143 62.5 41.5ZM 52 52C 52 53.656857 53.343143 55 55 55C 56.656857 55 58 53.656857 58 52C 58 50.343143 56.656857 49 55 49C 53.343143 49 52 50.343143 52 52ZM 32.5 35.5C 32.5 37.156857 33.843147 38.5 35.5 38.5C 37.156857 38.5 38.5 37.156857 38.5 35.5C 38.5 33.843147 37.156857 32.5 35.5 32.5C 33.843147 32.5 32.5 33.843147 32.5 35.5ZM 29.5 49C 29.5 50.656857 30.843145 52 32.5 52C 34.156857 52 35.5 50.656857 35.5 49C 35.5 47.343143 34.156857 46 32.5 46C 30.843145 46 29.5 47.343143 29.5 49ZM 80.5 46C 80.512016 41.778744 78.329506 37.854546 74.737 35.638C 74.9403 34.752205 75.045937 33.846802 75.052002 32.938C 75.112106 26.699877 70.364319 21.464764 64.149994 20.917C 64.211967 18.460598 63.287228 16.081762 61.582458 14.312159C 59.877686 12.542555 57.535004 11.529713 55.077999 11.5C 51.19334 11.722404 47.727177 14.013325 46 17.5C 44.272823 14.013325 40.80666 11.722404 36.922001 11.5C 34.464996 11.529713 32.122314 12.542555 30.417543 14.312159C 28.712769 16.081762 27.788029 18.460598 27.849998 20.917C 21.633362 21.464937 16.884737 26.703581 16.948 32.944C 16.949144 33.852253 17.049744 34.757648 17.247999 35.643997C 13.664934 37.869446 11.485849 41.788063 11.485849 46.006001C 11.485849 50.223934 13.664934 54.142551 17.247999 56.367996C 17.049744 57.254349 16.949144 58.159748 16.948 59.067997C 16.891041 65.303825 21.638002 70.535416 27.849998 71.083C 27.788029 73.539398 28.712769 75.918236 30.417543 77.687836C 32.122314 79.457443 34.464996 80.470284 36.922001 80.5C 40.504494 80.586853 43.89994 78.903717 45.999996 75.999992C 48.100056 78.903717 51.495502 80.586853 55.077995 80.499992C 57.535004 80.470284 59.877686 79.457443 61.582458 77.687836C 63.287228 75.918236 64.211967 73.539398 64.149994 71.083C 70.366638 70.535065 75.115265 65.296417 75.052002 59.056C 75.045937 58.147194 74.9403 57.241791 74.737 56.355999C 78.327682 54.140575 80.509926 50.219124 80.5 46ZM 46 17.5L 46 52M 46 63.874001L 46 76M 73.518997 26.989L 65.199997 31.153C 62.769722 32.369732 59.914307 32.398506 57.459999 31.230999M 55 49C 55.889565 45.287899 58.787903 42.389565 62.500008 41.500004M 64.149994 71.083C 63.321999 68.199997 61.908997 65.983002 59.5 65.5M 32.5 62.5C 32.5 64.156853 33.843147 65.5 35.5 65.5C 37.156857 65.5 38.5 64.156853 38.5 62.5C 38.5 60.843147 37.156857 59.5 35.5 59.5C 33.843147 59.5 32.5 60.843147 32.5 62.5ZM 53.5 65.5C 53.5 67.156853 54.843143 68.5 56.5 68.5C 58.156853 68.5 59.5 67.156853 59.5 65.5C 59.5 63.843147 58.156853 62.5 56.5 62.5C 54.843143 62.5 53.5 63.843147 53.5 65.5Z"></path></g></g></g><g id="g-root-trea_1d3nc3j1px1ngk-stroke" data-item-order="0" data-item-id="trea_1d3nc3j1px1ngk" data-item-class="Icon Stroke SceneTarget Indexed InsideFill InsideColorFill ColorStrokeBlack" data-item-index="2" data-renderer-id="0" transform="translate(230.007080078125, 259.7565612792969)"><g id="trea_1d3nc3j1px1ngk-stroke" fill="none" stroke-linecap="round" stroke-linejoin="round" stroke-miterlimit="4" stroke="#2c2c2c" stroke-width="2"><g><path d="M 49 29.878L 49 24.709999C 49 24.267803 48.824203 23.843746 48.511333 23.531254C 48.198467 23.21876 47.774197 23.043468 47.332001 23.044001L 36.987999 23.043999L 36.987999 12.71C 36.987999 11.789894 36.242107 11.044 35.321999 11.044L 24.656 11.044C 24.213802 11.043469 23.789536 11.21876 23.476667 11.531253C 23.163799 11.843745 22.987999 12.267803 22.988001 12.71L 22.987999 23.043999L 12.656 23.043999C 11.739801 23.0495 10.999984 23.793785 11 24.709999L 11 35.377998C 11 36.298107 11.745893 37.043999 12.666 37.043999L 22.987999 37.043999L 22.987999 47.377998C 22.987999 47.820198 23.163799 48.244255 23.476667 48.556747C 23.789536 48.869244 24.213802 49.044533 24.656 49.044003L 29.822001 49.043999M 41.164001 41.197998L 49.619999 49.653999M 43.987999 55.292C 41.640915 57.543018 37.925209 57.505745 35.623753 55.208099C 33.322296 52.91045 33.27887 49.194809 35.526001 46.844002L 46.799999 35.568001C 49.135502 33.232315 52.92234 33.232468 55.25766 35.568336C 57.592979 37.904205 57.592236 41.691048 55.255997 44.025997Z"></path></g></g></g><g id="g-root-tx_healthca_1qa41rz1pwqgar-stroke" data-item-order="0" data-item-id="tx_healthca_1qa41rz1pwqgar" data-item-class="Label Stroke SceneTarget Indexed ColorStrokeBlack" data-item-index="2" data-renderer-id="0" transform="translate(200.0068359375, 361.6934509277344)"></g></g></g></svg>