<?xml version="1.0" encoding="utf-8" standalone="yes"?>
<!DOCTYPE svg PUBLIC "-//W3C//DTD SVG 1.1//EN" "http://www.w3.org/Graphics/SVG/1.1/DTD/svg11.dtd">
<svg width="531" height="601" viewBox="0 0 531 601" style="fill:none;stroke:none;fill-rule:evenodd;clip-rule:evenodd;stroke-linecap:round;stroke-linejoin:round;stroke-miterlimit:1.5;" version="1.1" xmlns="http://www.w3.org/2000/svg" xmlns:xlink="http://www.w3.org/1999/xlink"><style id="fontImports">@import url("https://fonts.googleapis.com/css2?family=Roboto:wght@400;700&amp;display=block");</style><rect id="" x="0" y="0" width="530" height="601" style="fill: #ffffff;"></rect><g id="items" style="isolation: isolate"><g id="blend" style="mix-blend-mode:multiply"><g id="g-root-3.cu_sy_hu0mc01rkz95b-fill" data-item-order="-272155" data-item-id="3.cu_sy_hu0mc01rkz95b" data-item-class="ScenePart Part Indexed Stroke" data-item-index="3" data-renderer-id="0" transform="translate(3, 145.99899291992188)"></g><g id="g-root-2.cu_sy_hu0mc01rkz95a-fill" data-item-order="-272153" data-item-id="2.cu_sy_hu0mc01rkz95a" data-item-class="ScenePart Part Indexed Stroke" data-item-index="2" data-renderer-id="0" transform="translate(255.00048828125, 38)"></g><g id="g-root-1.cu_sy_qpnmkw1rkz8cl-fill" data-item-order="-272152" data-item-id="1.cu_sy_qpnmkw1rkz8cl" data-item-class="ScenePart Part Indexed Indexed_1 Fill Stroke" data-item-index="1" data-renderer-id="0" transform="translate(225.00048828125, 62)"><g id="1.cu_sy_qpnmkw1rkz8cl-fill" stroke="none" fill="#f0f0f0"><g><path d="M 10 34L 28 10L 28 18L 52 18L 52 10L 70 34L 52 58L 52 50L 28 50L 28 58L 10 34Z"></path></g></g></g><g id="g-root-tx_pros_hx4zrk1rkzabv-fill" data-item-order="0" data-item-id="tx_pros_hx4zrk1rkzabv" data-item-class="Label Stroke SceneTarget" data-item-index="none" data-renderer-id="0" transform="translate(63.00048828125, 74)"><g id="tx_pros_hx4zrk1rkzabv-fill" stroke="none" fill="#484848"><g><text style="font: 20px Roboto, sans-serif; white-space: pre;"><tspan x="12" y="33.75" dominant-baseline="ideographic">Pros</tspan></text></g></g></g><g id="g-root-tx_cons_qss00g1rkz9j6-fill" data-item-order="0" data-item-id="tx_cons_qss00g1rkz9j6" data-item-class="Label Stroke SceneTarget" data-item-index="none" data-renderer-id="0" transform="translate(363.00048828125, 74)"><g id="tx_cons_qss00g1rkz9j6-fill" stroke="none" fill="#484848"><g><text style="font: 20px Roboto, sans-serif; white-space: pre;"><tspan x="12" y="33.75" dominant-baseline="ideographic">Cons</tspan></text></g></g></g><g id="g-root-term_1lwrh1s1rl4u1b-fill" data-item-order="0" data-item-id="term_1lwrh1s1rl4u1b" data-item-class="Icon Stroke SceneTarget Indexed Indexed_1" data-item-index="1" data-renderer-id="0" transform="translate(3.00048828125, 181.99996948242188)"></g><g id="g-root-tx_handlelo_v8li4w1rkz8qx-fill" data-item-order="0" data-item-id="tx_handlelo_v8li4w1rkz8qx" data-item-class="Label Stroke SceneTarget Indexed Indexed_1" data-item-index="1" data-renderer-id="0" transform="translate(63.00048828125, 169.99996948242188)"><g id="tx_handlelo_v8li4w1rkz8qx-fill" stroke="none" fill="#484848"><g><text style="font: 20px Roboto, sans-serif; white-space: pre;"><tspan x="12" y="33.75" dominant-baseline="ideographic">Handle long-</tspan><tspan x="12" y="57.75" dominant-baseline="ideographic">range </tspan><tspan x="12" y="81.75" dominant-baseline="ideographic">dependencies</tspan></text></g></g></g><g id="g-root-bill_dhxyq81rl4u8b-fill" data-item-order="0" data-item-id="bill_dhxyq81rl4u8b" data-item-class="Icon Stroke SceneTarget Indexed" data-item-index="101" data-renderer-id="0" transform="translate(303.00048828125, 181.99996948242188)"></g><g id="g-root-tx_highcomp_1cz91jk1rkz9jh-fill" data-item-order="0" data-item-id="tx_highcomp_1cz91jk1rkz9jh" data-item-class="Label Stroke SceneTarget Indexed" data-item-index="101" data-renderer-id="0" transform="translate(363.00048828125, 169.99996948242188)"><g id="tx_highcomp_1cz91jk1rkz9jh-fill" stroke="none" fill="#484848"><g><text style="font: 20px Roboto, sans-serif; white-space: pre;"><tspan x="12" y="33.75" dominant-baseline="ideographic">High </tspan><tspan x="12" y="57.75" dominant-baseline="ideographic">computational </tspan><tspan x="12" y="81.75" dominant-baseline="ideographic">cost</tspan></text></g></g></g><g id="g-root-merg_1urs07k1rl4wee-fill" data-item-order="0" data-item-id="merg_1urs07k1rl4wee" data-item-class="Icon Stroke SceneTarget Indexed" data-item-index="2" data-renderer-id="0" transform="translate(3.00048828125, 265.9999694824219)"></g><g id="g-root-tx_parallel_1448ids1rkz7y8-fill" data-item-order="0" data-item-id="tx_parallel_1448ids1rkz7y8" data-item-class="Label Stroke SceneTarget Indexed" data-item-index="2" data-renderer-id="0" transform="translate(63.00048828125, 265.9999694824219)"><g id="tx_parallel_1448ids1rkz7y8-fill" stroke="none" fill="#484848"><g><text style="font: 20px Roboto, sans-serif; white-space: pre;"><tspan x="12" y="33.75" dominant-baseline="ideographic">Parallel data </tspan><tspan x="12" y="57.75" dominant-baseline="ideographic">processing</tspan></text></g></g></g><g id="g-root-ram_qss00g1rl4vt6-fill" data-item-order="0" data-item-id="ram_qss00g1rl4vt6" data-item-class="Icon Stroke SceneTarget Indexed" data-item-index="102" data-renderer-id="0" transform="translate(303.00048828125, 265.9999694824219)"></g><g id="g-root-tx_highmemo_1luw1sg1rkz8qs-fill" data-item-order="0" data-item-id="tx_highmemo_1luw1sg1rkz8qs" data-item-class="Label Stroke SceneTarget Indexed" data-item-index="102" data-renderer-id="0" transform="translate(363.00048828125, 265.9999694824219)"><g id="tx_highmemo_1luw1sg1rkz8qs-fill" stroke="none" fill="#484848"><g><text style="font: 20px Roboto, sans-serif; white-space: pre;"><tspan x="12" y="33.75" dominant-baseline="ideographic">High memory </tspan><tspan x="12" y="57.75" dominant-baseline="ideographic">requirements</tspan></text></g></g></g><g id="g-root-fire_6hgcw1rl4vt9-fill" data-item-order="0" data-item-id="fire_6hgcw1rl4vt9" data-item-class="Icon Stroke SceneTarget Indexed" data-item-index="3" data-renderer-id="0" transform="translate(3.00048828125, 349.9999694824219)"></g><g id="g-root-tx_fastintr_18jfjf41rkzabr-fill" data-item-order="0" data-item-id="tx_fastintr_18jfjf41rkzabr" data-item-class="Label Stroke SceneTarget Indexed" data-item-index="3" data-renderer-id="0" transform="translate(63.00048828125, 349.9999694824219)"><g id="tx_fastintr_18jfjf41rkzabr-fill" stroke="none" fill="#484848"><g><text style="font: 20px Roboto, sans-serif; white-space: pre;"><tspan x="12" y="33.75" dominant-baseline="ideographic">Fast in </tspan><tspan x="12" y="57.75" dominant-baseline="ideographic">translation</tspan></text></g></g></g><g id="g-root-boxe_1cz91jk1rl4wld-fill" data-item-order="0" data-item-id="boxe_1cz91jk1rl4wld" data-item-class="Icon Stroke SceneTarget Indexed" data-item-index="103" data-renderer-id="0" transform="translate(303.00048828125, 349.9999694824219)"></g><g id="g-root-tx_expensiv_58i6o1rkz7cz-fill" data-item-order="0" data-item-id="tx_expensiv_58i6o1rkz7cz" data-item-class="Label Stroke SceneTarget Indexed" data-item-index="103" data-renderer-id="0" transform="translate(363.00048828125, 349.9999694824219)"><g id="tx_expensiv_58i6o1rkz7cz-fill" stroke="none" fill="#484848"><g><text style="font: 20px Roboto, sans-serif; white-space: pre;"><tspan x="12" y="33.75" dominant-baseline="ideographic">Expensive </tspan><tspan x="12" y="57.75" dominant-baseline="ideographic">training</tspan></text></g></g></g><g id="g-root-noti_924gls1rl4v0k-fill" data-item-order="0" data-item-id="noti_924gls1rl4v0k" data-item-class="Icon Stroke SceneTarget Indexed" data-item-index="4" data-renderer-id="0" transform="translate(3.00048828125, 433.9999694824219)"></g><g id="g-root-tx_ethicalc_18i6l8w1rkz85l-fill" data-item-order="0" data-item-id="tx_ethicalc_18i6l8w1rkz85l" data-item-class="Label Stroke SceneTarget Indexed" data-item-index="105" data-renderer-id="0" transform="translate(363.00048828125, 518)"><g id="tx_ethicalc_18i6l8w1rkz85l-fill" stroke="none" fill="#484848"><g><text style="font: 20px Roboto, sans-serif; white-space: pre;"><tspan x="12" y="33.75" dominant-baseline="ideographic">Ethical </tspan><tspan x="12" y="57.75" dominant-baseline="ideographic">concerns</tspan></text></g></g></g><g id="g-root-uneq_1uqj21c1rl4u88-fill" data-item-order="0" data-item-id="uneq_1uqj21c1rl4u88" data-item-class="Icon Stroke SceneTarget Indexed" data-item-index="104" data-renderer-id="0" transform="translate(303.00048828125, 433.9999694824219)"></g><g id="g-root-tx_potentia_hvw1lc1rkz85m-fill" data-item-order="0" data-item-id="tx_potentia_hvw1lc1rkz85m" data-item-class="Label Stroke SceneTarget Indexed" data-item-index="104" data-renderer-id="0" transform="translate(363.00048828125, 433.9999694824219)"><g id="tx_potentia_hvw1lc1rkz85m-fill" stroke="none" fill="#484848"><g><text style="font: 20px Roboto, sans-serif; white-space: pre;"><tspan x="12" y="33.75" dominant-baseline="ideographic">Potential </tspan><tspan x="12" y="57.75" dominant-baseline="ideographic">biases</tspan></text></g></g></g><g id="g-root-info_zmjl001rl4w07-fill" data-item-order="0" data-item-id="info_zmjl001rl4w07" data-item-class="Icon Stroke SceneTarget Indexed" data-item-index="105" data-renderer-id="0" transform="translate(303.00048828125, 518)"></g><g id="g-root-tx_usingtra_m9u4gg1rkz94w-fill" data-item-order="0" data-item-id="tx_usingtra_m9u4gg1rkz94w" data-item-class="Label Stroke SceneTarget SceneStart" data-item-index="none" data-renderer-id="0" transform="translate(165.00048828125, 2)"><g id="tx_usingtra_m9u4gg1rkz94w-fill" stroke="none" fill="#484848"><g><text style="font: 20px Roboto, sans-serif; white-space: pre;"><tspan x="12.46" y="33.75" dominant-baseline="ideographic">Using Transformers</tspan></text></g></g></g><g id="g-root-tx_versatil_18jfjf41rkzabq-fill" data-item-order="0" data-item-id="tx_versatil_18jfjf41rkzabq" data-item-class="Label Stroke SceneTarget Indexed" data-item-index="4" data-renderer-id="0" transform="translate(63.00048828125, 421.9999694824219)"><g id="tx_versatil_18jfjf41rkzabq-fill" stroke="none" fill="#484848"><g><text style="font: 20px Roboto, sans-serif; white-space: pre;"><tspan x="12" y="33.75" dominant-baseline="ideographic">Versatile </tspan><tspan x="12" y="57.75" dominant-baseline="ideographic">across </tspan><tspan x="12" y="81.75" dominant-baseline="ideographic">domains</tspan></text></g></g></g><g id="g-root-3.cu_sy_hu0mc01rkz95b-stroke" data-item-order="-272155" data-item-id="3.cu_sy_hu0mc01rkz95b" data-item-class="ScenePart Part Indexed Stroke" data-item-index="3" data-renderer-id="0" transform="translate(3, 145.99899291992188)"><g id="3.cu_sy_hu0mc01rkz95b-stroke" fill="none" stroke-linecap="round" stroke-linejoin="round" stroke-miterlimit="4" stroke="#484848" stroke-width="2"><g><path d="M 514.000488 10.000007L 9.999988 10.001007"></path></g></g></g><g id="g-root-2.cu_sy_hu0mc01rkz95a-stroke" data-item-order="-272153" data-item-id="2.cu_sy_hu0mc01rkz95a" data-item-class="ScenePart Part Indexed Stroke" data-item-index="2" data-renderer-id="0" transform="translate(255.00048828125, 38)"><g id="2.cu_sy_hu0mc01rkz95a-stroke" fill="none" stroke-linecap="round" stroke-linejoin="round" stroke-miterlimit="4" stroke="#484848" stroke-width="2"><g><path d="M 10 298L 10 214M 10 382L 10 298M 10 466L 10 382M 10 550L 10 466M 10 214L 10 118M 10 118L 10 80M 10 36L 10 10"></path></g></g></g><g id="g-root-1.cu_sy_qpnmkw1rkz8cl-stroke" data-item-order="-272152" data-item-id="1.cu_sy_qpnmkw1rkz8cl" data-item-class="ScenePart Part Indexed Indexed_1 Fill Stroke" data-item-index="1" data-renderer-id="0" transform="translate(225.00048828125, 62)"><g id="1.cu_sy_qpnmkw1rkz8cl-stroke" fill="none" stroke-linecap="round" stroke-linejoin="round" stroke-miterlimit="4" stroke="#484848" stroke-width="2"><g><path d="M 10 34L 28 10L 28 18L 52 18L 52 10L 70 34L 52 58L 52 50L 28 50L 28 58L 10 34Z"></path></g></g><g id="1.cu_sy_qpnmkw1rkz8cl-stroke" fill="none" stroke-linecap="round" stroke-linejoin="round" stroke-miterlimit="4" stroke="#484848" stroke-width="2"><g><path d="M 30.599 28.373L 34.999 39.48M 35.199 39.097L 39.599 28.66M 49.399 30.192C 49.065 29.937 48.732 29.682 48.399 29.426C 47.799 28.852 46.832 28.628 45.499 28.756C 44.165 28.884 43.465 29.522 43.399 30.671C 43.265 31.82 44.232 32.905 46.299 33.927C 48.432 34.884 49.465 36.001 49.399 37.278C 49.399 38.555 48.632 39.321 47.099 39.576C 45.499 39.767 44.432 39.416 43.899 38.523C 43.565 38.076 43.265 37.629 42.999 37.182"></path></g></g></g><g id="g-root-tx_pros_hx4zrk1rkzabv-stroke" data-item-order="0" data-item-id="tx_pros_hx4zrk1rkzabv" data-item-class="Label Stroke SceneTarget" data-item-index="none" data-renderer-id="0" transform="translate(63.00048828125, 74)"></g><g id="g-root-tx_cons_qss00g1rkz9j6-stroke" data-item-order="0" data-item-id="tx_cons_qss00g1rkz9j6" data-item-class="Label Stroke SceneTarget" data-item-index="none" data-renderer-id="0" transform="translate(363.00048828125, 74)"></g><g id="g-root-term_1lwrh1s1rl4u1b-stroke" data-item-order="0" data-item-id="term_1lwrh1s1rl4u1b" data-item-class="Icon Stroke SceneTarget Indexed Indexed_1" data-item-index="1" data-renderer-id="0" transform="translate(3.00048828125, 181.99996948242188)"><g id="term_1lwrh1s1rl4u1b-stroke" fill="none" stroke-linecap="round" stroke-linejoin="round" stroke-miterlimit="4" stroke="#484848" stroke-width="2"><g><path d="M 57 34C 57 43.38884 49.38884 51 40 51L 28 51C 18.61116 51 11 43.38884 11 34C 11 24.61116 18.61116 17 28 17L 40 17C 49.38884 17 57 24.61116 57 34Z"></path></g></g></g><g id="g-root-tx_handlelo_v8li4w1rkz8qx-stroke" data-item-order="0" data-item-id="tx_handlelo_v8li4w1rkz8qx" data-item-class="Label Stroke SceneTarget Indexed Indexed_1" data-item-index="1" data-renderer-id="0" transform="translate(63.00048828125, 169.99996948242188)"></g><g id="g-root-bill_dhxyq81rl4u8b-stroke" data-item-order="0" data-item-id="bill_dhxyq81rl4u8b" data-item-class="Icon Stroke SceneTarget Indexed" data-item-index="101" data-renderer-id="0" transform="translate(303.00048828125, 181.99996948242188)"><g id="bill_dhxyq81rl4u8b-stroke" fill="none" stroke-linecap="round" stroke-linejoin="round" stroke-miterlimit="4" stroke="#484848" stroke-width="2"><g><path d="M 42.139999 43.942001L 51 41C 53.221539 40.34127 55.618008 41.140095 57 43C 32.542 55.226002 40.456001 55.153999 19 48L 11 53M 29 45L 40 45C 40.799885 45.143661 41.608437 44.796913 42.055729 44.118397C 42.503025 43.439884 42.503025 42.56012 42.055729 41.881607C 41.608437 41.203091 40.799885 40.856342 40 41L 34 41C 31.629362 38.554111 28.404079 37.120651 25 37L 19 37L 11 41M 23.007999 15L 53.007999 15L 53.007999 31L 23.007999 31ZM 44.091999 15L 53.007999 22M 45.349998 31L 53.007999 24M 23.007999 24L 30.664 31M 23.007999 22L 31.882 15M 35.007999 23C 35.008003 24.656855 36.351147 26 38.008003 26C 39.664856 26 41.008003 24.656855 41.008003 23C 41.008003 21.343147 39.664856 20 38.008003 20C 36.351147 20 35.008003 21.343147 35.008003 23Z"></path></g></g></g><g id="g-root-tx_highcomp_1cz91jk1rkz9jh-stroke" data-item-order="0" data-item-id="tx_highcomp_1cz91jk1rkz9jh" data-item-class="Label Stroke SceneTarget Indexed" data-item-index="101" data-renderer-id="0" transform="translate(363.00048828125, 169.99996948242188)"></g><g id="g-root-merg_1urs07k1rl4wee-stroke" data-item-order="0" data-item-id="merg_1urs07k1rl4wee" data-item-class="Icon Stroke SceneTarget Indexed" data-item-index="2" data-renderer-id="0" transform="translate(3.00048828125, 265.9999694824219)"><g id="merg_1urs07k1rl4wee-stroke" fill="none" stroke-linecap="round" stroke-linejoin="round" stroke-miterlimit="4" stroke="#484848" stroke-width="2"><g><path d="M 57 15L 34 53L 11 15L 57 15Z"></path></g></g></g><g id="g-root-tx_parallel_1448ids1rkz7y8-stroke" data-item-order="0" data-item-id="tx_parallel_1448ids1rkz7y8" data-item-class="Label Stroke SceneTarget Indexed" data-item-index="2" data-renderer-id="0" transform="translate(63.00048828125, 265.9999694824219)"></g><g id="g-root-ram_qss00g1rl4vt6-stroke" data-item-order="0" data-item-id="ram_qss00g1rl4vt6" data-item-class="Icon Stroke SceneTarget Indexed" data-item-index="102" data-renderer-id="0" transform="translate(303.00048828125, 265.9999694824219)"><g id="ram_qss00g1rl4vt6-stroke" fill="none" stroke-linecap="round" stroke-linejoin="round" stroke-miterlimit="4" stroke="#484848" stroke-width="2"><g><path d="M 57 23.936001L 23.938 57L 11 44.063999L 25.375999 29.688L 26.094 30.406C 26.853775 31.226625 28.001738 31.565628 29.085426 31.289389C 30.169115 31.013151 31.014715 30.165979 31.28894 29.081781C 31.563166 27.997581 31.222034 26.850252 30.4 26.091999L 29.681999 25.375999L 44.062 11ZM 19.623158 46.938072L 26.811605 39.749626L 31.124956 44.062977L 23.936508 51.251423ZM 29.688572 36.87484L 36.875603 29.687807L 41.187542 33.999744L 34.000511 41.186775ZM 39.749161 26.81444L 46.937607 19.625992L 51.249542 23.937927L 44.061096 31.126375ZM 13.908 41.222L 16.968 44.282001M 16.784 38.346001L 19.841999 41.408001M 19.658001 35.472L 22.720001 38.529999M 22.534 32.596001L 25.594 35.655998M 32.562 22.498001L 35.655998 25.591999M 35.438 19.624001L 38.529999 22.718M 38.312 16.75L 41.405998 19.841999M 41.186001 13.874001L 44.279999 16.968"></path></g></g></g><g id="g-root-tx_highmemo_1luw1sg1rkz8qs-stroke" data-item-order="0" data-item-id="tx_highmemo_1luw1sg1rkz8qs" data-item-class="Label Stroke SceneTarget Indexed" data-item-index="102" data-renderer-id="0" transform="translate(363.00048828125, 265.9999694824219)"></g><g id="g-root-fire_6hgcw1rl4vt9-stroke" data-item-order="0" data-item-id="fire_6hgcw1rl4vt9" data-item-class="Icon Stroke SceneTarget Indexed" data-item-index="3" data-renderer-id="0" transform="translate(3.00048828125, 349.9999694824219)"><g id="fire_6hgcw1rl4vt9-stroke" fill="none" stroke-linecap="round" stroke-linejoin="round" stroke-miterlimit="4" stroke="#484848" stroke-width="2"><g><path d="M 20 43.001999C 20 50.73399 26.268015 57.002003 34 57.002003C 41.731987 57.002003 48 50.73399 48 43.002003C 48 35.270016 41.731987 29.002001 34 29.002001C 26.268015 29.002001 20 35.270016 20 43.002003ZM 47.099998 38.054001C 50.260151 36.237114 52.181328 32.844597 52.114002 29.200001C 52.050232 25.509613 50.54237 21.991268 47.914001 19.4C 47.755997 20.712328 47.068573 21.903091 46.011131 22.696175C 44.953686 23.489258 43.618073 23.815769 42.313999 23.599998C 38.643883 20.513309 37.496609 15.35058 39.514 11C 30.764 11 25.164 16.162001 24.114 23.6C 21.436256 23.879742 18.995216 22.048962 18.514 19.4C 12.32 24.667999 12 35.323997 20.501999 39.274002M 41 43.001999L 34 43.001999L 34 34.001999"></path></g></g></g><g id="g-root-tx_fastintr_18jfjf41rkzabr-stroke" data-item-order="0" data-item-id="tx_fastintr_18jfjf41rkzabr" data-item-class="Label Stroke SceneTarget Indexed" data-item-index="3" data-renderer-id="0" transform="translate(63.00048828125, 349.9999694824219)"></g><g id="g-root-boxe_1cz91jk1rl4wld-stroke" data-item-order="0" data-item-id="boxe_1cz91jk1rl4wld" data-item-class="Icon Stroke SceneTarget Indexed" data-item-index="103" data-renderer-id="0" transform="translate(303.00048828125, 349.9999694824219)"><g id="boxe_1cz91jk1rl4wld-stroke" fill="none" stroke-linecap="round" stroke-linejoin="round" stroke-miterlimit="4" stroke="#484848" stroke-width="2"><g><path d="M 30.502001 16C 30.502001 18.761425 32.740578 21 35.501999 21C 38.263424 21 40.501999 18.761425 40.501999 16C 40.501999 13.238577 38.263424 11 35.501999 11C 32.740578 11 30.502001 13.238577 30.502001 16ZM 41.5 31L 41.5 25L 46.826 25C 49.959663 25 52.5 27.540337 52.5 30.674C 52.504101 32.683922 51.123322 34.431908 49.167068 34.893295C 47.210815 35.354683 45.194473 34.407925 44.300003 32.608002L 43.5 31.007999ZM 43.5 31L 47.5 31M 41.5 25L 29.5 25C 28.294224 24.999716 27.20545 25.721363 26.736 26.832001L 15.736 52.832001C 15.090932 54.358517 15.805485 56.118935 17.332001 56.764C 18.858517 57.409069 20.618931 56.694515 21.264 55.168003L 25.220001 45.818001L 29.528 47.386002C 30.710625 47.81736 31.498165 48.941166 31.5 50.200001L 31.5 54C 31.5 55.656857 32.843147 57 34.5 57C 36.156853 57 37.5 55.656857 37.5 54L 37.5 50.200001C 37.493534 46.417614 35.12841 43.040806 31.576002 41.742004L 27.559999 40.284L 31.488001 31L 41.5 31"></path></g></g></g><g id="g-root-tx_expensiv_58i6o1rkz7cz-stroke" data-item-order="0" data-item-id="tx_expensiv_58i6o1rkz7cz" data-item-class="Label Stroke SceneTarget Indexed" data-item-index="103" data-renderer-id="0" transform="translate(363.00048828125, 349.9999694824219)"></g><g id="g-root-noti_924gls1rl4v0k-stroke" data-item-order="0" data-item-id="noti_924gls1rl4v0k" data-item-class="Icon Stroke SceneTarget Indexed" data-item-index="4" data-renderer-id="0" transform="translate(3.00048828125, 433.9999694824219)"><g id="noti_924gls1rl4v0k-stroke" fill="none" stroke-linecap="round" stroke-linejoin="round" stroke-miterlimit="4" stroke="#484848" stroke-width="2"><g><path d="M 35 38.450001L 35 55C 35 56.104568 34.104568 57 33 57L 13 57C 11.895431 57 11 56.104568 11 55L 11 35C 11 33.895432 11.895431 33 13 33L 29.554001 33M 29 35C 29 37.209137 30.790861 39 33 39C 35.209137 39 37 37.209137 37 35C 37 32.790863 35.209137 31 33 31C 30.790861 31 29 32.790863 29 35M 21 33L 21 25C 21 23.895432 21.895432 23 23 23L 39.545998 23M 45 28.450001L 45 45C 45 46.104568 44.104568 47 43 47L 35 47M 39 25C 39 27.209139 40.790863 29 43 29C 45.209141 29 47 27.209139 47 25C 47 22.790861 45.209141 21 43 21C 40.790863 21 39 22.790861 39 25M 31 23L 31 15C 31 13.895431 31.89543 13 33 13L 49.549999 13M 55 18.445999L 55 35C 55 36.104568 54.104568 37 53 37L 45 37M 49 15C 49 17.209139 50.790859 19 53 19C 55.209141 19 57 17.209139 57 15C 57 12.790861 55.209141 11 53 11C 50.790859 11 49 12.790861 49 15"></path></g></g></g><g id="g-root-tx_ethicalc_18i6l8w1rkz85l-stroke" data-item-order="0" data-item-id="tx_ethicalc_18i6l8w1rkz85l" data-item-class="Label Stroke SceneTarget Indexed" data-item-index="105" data-renderer-id="0" transform="translate(363.00048828125, 518)"></g><g id="g-root-uneq_1uqj21c1rl4u88-stroke" data-item-order="0" data-item-id="uneq_1uqj21c1rl4u88" data-item-class="Icon Stroke SceneTarget Indexed" data-item-index="104" data-renderer-id="0" transform="translate(303.00048828125, 433.9999694824219)"><g id="uneq_1uqj21c1rl4u88-stroke" fill="none" stroke-linecap="round" stroke-linejoin="round" stroke-miterlimit="4" stroke="#484848" stroke-width="2"><g><path d="M 34 23.364L 34 54.363998M 29 54.363998L 39 54.363998M 12 42.363998L 19 27.436001L 26 42.363998M 31 20.364C 31 22.020855 32.343147 23.364 34 23.364C 35.656853 23.364 37 22.020855 37 20.364C 37 18.707146 35.656853 17.364 34 17.364C 32.343147 17.364 31 18.707146 31 20.364ZM 19 49.363998C 20.870407 49.410587 22.678082 48.688061 24.001072 47.36507C 25.32406 46.042084 26.046587 44.234409 26 42.363998L 12 42.363998C 11.953412 44.234409 12.67594 46.042084 13.998928 47.36507C 15.321917 48.688061 17.129591 49.410587 19 49.363998ZM 56 30.364L 49 15.298L 42 30.364M 49 37.363998C 47.129589 37.410587 45.321915 36.688061 43.998928 35.36507C 42.675938 34.042084 41.953411 32.234406 42 30.363998L 56 30.364C 56.046585 32.234406 55.324059 34.042084 54.001072 35.36507C 52.678082 36.688061 50.870407 37.410587 49 37.363998ZM 36.987999 20.156L 53.110001 13.636M 14.892 29.094L 31.73 22.282"></path></g></g></g><g id="g-root-tx_potentia_hvw1lc1rkz85m-stroke" data-item-order="0" data-item-id="tx_potentia_hvw1lc1rkz85m" data-item-class="Label Stroke SceneTarget Indexed" data-item-index="104" data-renderer-id="0" transform="translate(363.00048828125, 433.9999694824219)"></g><g id="g-root-info_zmjl001rl4w07-stroke" data-item-order="0" data-item-id="info_zmjl001rl4w07" data-item-class="Icon Stroke SceneTarget Indexed" data-item-index="105" data-renderer-id="0" transform="translate(303.00048828125, 518)"><g id="info_zmjl001rl4w07-stroke" fill="none" stroke-linecap="round" stroke-linejoin="round" stroke-miterlimit="4" stroke="#484848" stroke-width="2"><g><path d="M 41.690002 39.253998C 41.689472 42.439953 44.272049 45.022957 47.458 45.022957C 50.643951 45.022957 53.226528 42.439953 53.226002 39.253998C 53.226528 36.068047 50.643951 33.485046 47.458 33.485046C 44.272049 33.485046 41.689472 36.068047 41.690002 39.253998M 38.458 56.484001C 38.458 51.513439 42.487438 47.484001 47.458 47.484001C 52.428562 47.484001 56.458 51.513439 56.458 56.484001ZM 20.542 31L 38.542 31M 20.542 38.5L 34.042 38.5M 20.542 46L 34.042 46M 31.542 56.5L 14.542 56.5C 12.885146 56.5 11.542 55.156857 11.542 53.5L 11.542 22C 11.542 20.343147 12.885146 19 14.542 19L 22.042 19C 22.042 14.857864 25.399864 11.5 29.542002 11.5C 33.684135 11.5 37.042 14.857864 37.042 19L 44.542 19C 46.198856 19 47.542 20.343147 47.542 22L 47.542 27.5M 29.542 15.2C 30.64657 15.2 31.542 16.09543 31.542 17.200001C 31.542 18.304569 30.64657 19.200001 29.542 19.200001C 28.437431 19.200001 27.542 18.304569 27.542 17.200001L 27.542 17.200001C 27.542 16.09543 28.437431 15.2 29.542 15.2"></path></g></g></g><g id="g-root-tx_usingtra_m9u4gg1rkz94w-stroke" data-item-order="0" data-item-id="tx_usingtra_m9u4gg1rkz94w" data-item-class="Label Stroke SceneTarget SceneStart" data-item-index="none" data-renderer-id="0" transform="translate(165.00048828125, 2)"></g><g id="g-root-tx_versatil_18jfjf41rkzabq-stroke" data-item-order="0" data-item-id="tx_versatil_18jfjf41rkzabq" data-item-class="Label Stroke SceneTarget Indexed" data-item-index="4" data-renderer-id="0" transform="translate(63.00048828125, 421.9999694824219)"></g></g></g></svg>