<?xml version="1.0" encoding="utf-8" standalone="yes"?>
<!DOCTYPE svg PUBLIC "-//W3C//DTD SVG 1.1//EN" "http://www.w3.org/Graphics/SVG/1.1/DTD/svg11.dtd">
<svg width="543" height="484" viewBox="0 0 543 484" style="fill:none;stroke:none;fill-rule:evenodd;clip-rule:evenodd;stroke-linecap:round;stroke-linejoin:round;stroke-miterlimit:1.5;" version="1.1" xmlns="http://www.w3.org/2000/svg" xmlns:xlink="http://www.w3.org/1999/xlink"><style id="fontImports">@import url("https://fonts.googleapis.com/css2?family=Shantell+Sans:wght@300..800&amp;display=block");</style><rect id="" x="0" y="0" width="542.001" height="484" style="fill: #ffffff;"></rect><g id="items" style="isolation: isolate"><g id="blend" style="mix-blend-mode:multiply"><g id="g-root-3.cu_sy_4mdrn1wb0qoa-fill" data-item-order="-229819" data-item-id="3.cu_sy_4mdrn1wb0qoa" data-item-class="ScenePart Part Indexed Stroke ColorStrokeBlack" data-item-index="3" data-renderer-id="0" transform="translate(4, 111.9990234375)"></g><g id="g-root-2.cu_sy_4mdrn1wb0qo9-fill" data-item-order="-229817" data-item-id="2.cu_sy_4mdrn1wb0qo9" data-item-class="ScenePart Part Indexed Stroke ColorStrokeBlack" data-item-index="2" data-renderer-id="0" transform="translate(256.0010070800781, 4)"></g><g id="g-root-1.cu_sy_8zmwxf1wb0t1c-fill" data-item-order="-229816" data-item-id="1.cu_sy_8zmwxf1wb0t1c" data-item-class="ScenePart Part Indexed Indexed_1 Fill Stroke ColorStrokeBlack" data-item-index="1" data-renderer-id="0" transform="translate(226.00100708007812, 28)"><g id="1.cu_sy_8zmwxf1wb0t1c-fill" stroke="none" fill="none"><g><path d="M 10 34L 28 10L 28 18L 52 18L 52 10L 70 34L 52 58L 52 50L 28 50L 28 58L 10 34Z"></path></g></g></g><g id="g-root-tx_pros_mg37zn1wb0qvh-fill" data-item-order="0" data-item-id="tx_pros_mg37zn1wb0qvh" data-item-class="Label Stroke SceneTarget ColorStrokeBlack" data-item-index="none" data-renderer-id="0" transform="translate(64.00100708007812, 40)"><g id="tx_pros_mg37zn1wb0qvh-fill" stroke="none" fill="#484848"><g><text style="font: 20px &quot;Shantell Sans&quot;, cursive; white-space: pre;"><tspan x="12" y="35.33" dominant-baseline="ideographic">Pros</tspan></text></g></g></g><g id="g-root-tx_cons_vb3r5f1wb0t8k-fill" data-item-order="0" data-item-id="tx_cons_vb3r5f1wb0t8k" data-item-class="Label Stroke SceneTarget ColorStrokeBlack" data-item-index="none" data-renderer-id="0" transform="translate(364.0010070800781, 40)"><g id="tx_cons_vb3r5f1wb0t8k-fill" stroke="none" fill="#484848"><g><text style="font: 20px &quot;Shantell Sans&quot;, cursive; white-space: pre;"><tspan x="12" y="35.33" dominant-baseline="ideographic">Cons</tspan></text></g></g></g><g id="g-root-1_1qbcgtv1wampe7-fill" data-item-order="0" data-item-id="1_1qbcgtv1wampe7" data-item-class="Icon Stroke SceneTarget Indexed Indexed_1 ColorStrokeBlack" data-item-index="1" data-renderer-id="0" transform="translate(4.001007080078125, 148)"></g><g id="g-root-tx_reducest_zqx99v1wb0sgb-fill" data-item-order="0" data-item-id="tx_reducest_zqx99v1wb0sgb" data-item-class="Label Stroke SceneTarget Indexed Indexed_1 ColorStrokeBlack" data-item-index="1" data-renderer-id="0" transform="translate(64.00100708007812, 148)"><g id="tx_reducest_zqx99v1wb0sgb-fill" stroke="none" fill="#484848"><g><text style="font: 20px &quot;Shantell Sans&quot;, cursive; white-space: pre;"><tspan x="12" y="35.33" dominant-baseline="ideographic">Reduces </tspan><tspan x="12" y="59.33" dominant-baseline="ideographic">training time</tspan></text></g></g></g><g id="g-root-puzz_v7czsj1wamr62-fill" data-item-order="0" data-item-id="puzz_v7czsj1wamr62" data-item-class="Icon Stroke SceneTarget Indexed ColorStrokeBlack" data-item-index="101" data-renderer-id="0" transform="translate(304.0010070800781, 148)"></g><g id="g-root-tx_tasksimi_93drg31wb0qa6-fill" data-item-order="0" data-item-id="tx_tasksimi_93drg31wb0qa6" data-item-class="Label Stroke SceneTarget Indexed ColorStrokeBlack" data-item-index="101" data-renderer-id="0" transform="translate(364.0010070800781, 148)"><g id="tx_tasksimi_93drg31wb0qa6-fill" stroke="none" fill="#484848"><g><text style="font: 20px &quot;Shantell Sans&quot;, cursive; white-space: pre;"><tspan x="12" y="35.33" dominant-baseline="ideographic">Task similarity </tspan><tspan x="12" y="59.33" dominant-baseline="ideographic">dependency</tspan></text></g></g></g><g id="g-root-eco_5vf3n1wamosm-fill" data-item-order="0" data-item-id="eco_5vf3n1wamosm" data-item-class="Icon Stroke SceneTarget Indexed ColorStrokeBlack" data-item-index="2" data-renderer-id="0" transform="translate(4.001007080078125, 232)"></g><g id="g-root-tx_savescom_18mk9ir1wb0rnm-fill" data-item-order="0" data-item-id="tx_savescom_18mk9ir1wb0rnm" data-item-class="Label Stroke SceneTarget Indexed ColorStrokeBlack" data-item-index="2" data-renderer-id="0" transform="translate(64.00100708007812, 220)"><g id="tx_savescom_18mk9ir1wb0rnm-fill" stroke="none" fill="#484848"><g><text style="font: 20px &quot;Shantell Sans&quot;, cursive; white-space: pre;"><tspan x="12" y="35.33" dominant-baseline="ideographic">Saves </tspan><tspan x="12" y="59.33" dominant-baseline="ideographic">computational </tspan><tspan x="12" y="83.33" dominant-baseline="ideographic">resources</tspan></text></g></g></g><g id="g-root-line_18iti5v1wampl5-fill" data-item-order="0" data-item-id="line_18iti5v1wampl5" data-item-class="Icon Stroke SceneTarget Indexed ColorStrokeBlack" data-item-index="102" data-renderer-id="0" transform="translate(304.0010070800781, 232)"></g><g id="g-root-tx_riskofov_18kou9f1wb0sn9-fill" data-item-order="0" data-item-id="tx_riskofov_18kou9f1wb0sn9" data-item-class="Label Stroke SceneTarget Indexed ColorStrokeBlack" data-item-index="102" data-renderer-id="0" transform="translate(364.0010070800781, 232)"><g id="tx_riskofov_18kou9f1wb0sn9-fill" stroke="none" fill="#484848"><g><text style="font: 20px &quot;Shantell Sans&quot;, cursive; white-space: pre;"><tspan x="12" y="35.33" dominant-baseline="ideographic">Risk of </tspan><tspan x="12" y="59.33" dominant-baseline="ideographic">overfitting</tspan></text></g></g></g><g id="g-root-down_4l2g4z1wamr65-fill" data-item-order="0" data-item-id="down_4l2g4z1wamr65" data-item-class="Icon Stroke SceneTarget Indexed ColorStrokeBlack" data-item-index="3" data-renderer-id="0" transform="translate(4.001007080078125, 316)"></g><g id="g-root-tx_effectiv_1d2drn71wb0qvd-fill" data-item-order="0" data-item-id="tx_effectiv_1d2drn71wb0qvd" data-item-class="Label Stroke SceneTarget Indexed ColorStrokeBlack" data-item-index="3" data-renderer-id="0" transform="translate(64.00100708007812, 304)"><g id="tx_effectiv_1d2drn71wb0qvd-fill" stroke="none" fill="#484848"><g><text style="font: 20px &quot;Shantell Sans&quot;, cursive; white-space: pre;"><tspan x="12" y="35.33" dominant-baseline="ideographic">Effective with </tspan><tspan x="12" y="59.33" dominant-baseline="ideographic">small </tspan><tspan x="12" y="83.33" dominant-baseline="ideographic">datasets</tspan></text></g></g></g><g id="g-root-lock_3zzub1wamps8-fill" data-item-order="0" data-item-id="lock_3zzub1wamps8" data-item-class="Icon Stroke SceneTarget Indexed ColorStrokeBlack" data-item-index="103" data-renderer-id="0" transform="translate(304.0010070800781, 316)"></g><g id="g-root-tx_limitedt_5vbxv1wb0suc-fill" data-item-order="0" data-item-id="tx_limitedt_5vbxv1wb0suc" data-item-class="Label Stroke SceneTarget Indexed ColorStrokeBlack" data-item-index="103" data-renderer-id="0" transform="translate(364.0010070800781, 304)"><g id="tx_limitedt_5vbxv1wb0suc-fill" stroke="none" fill="#484848"><g><text style="font: 20px &quot;Shantell Sans&quot;, cursive; white-space: pre;"><tspan x="12" y="35.33" dominant-baseline="ideographic">Limited to </tspan><tspan x="12" y="59.33" dominant-baseline="ideographic">pre-trained </tspan><tspan x="12" y="83.33" dominant-baseline="ideographic">models</tspan></text></g></g></g><g id="g-root-brai_dgpgdv1wamqdg-fill" data-item-order="0" data-item-id="brai_dgpgdv1wamqdg" data-item-class="Icon Stroke SceneTarget Indexed ColorStrokeBlack" data-item-index="4" data-renderer-id="0" transform="translate(4.001007080078125, 400)"></g><g id="g-root-tx_generalf_1lxeasz1wb0t8g-fill" data-item-order="0" data-item-id="tx_generalf_1lxeasz1wb0t8g" data-item-class="Label Stroke SceneTarget Indexed ColorStrokeBlack" data-item-index="4" data-renderer-id="0" transform="translate(64.00100708007812, 400)"><g id="tx_generalf_1lxeasz1wb0t8g-fill" stroke="none" fill="#484848"><g><text style="font: 20px &quot;Shantell Sans&quot;, cursive; white-space: pre;"><tspan x="12" y="35.33" dominant-baseline="ideographic">General feature </tspan><tspan x="12" y="59.33" dominant-baseline="ideographic">learning</tspan></text></g></g></g><g id="g-root-3.cu_sy_4mdrn1wb0qoa-stroke" data-item-order="-229819" data-item-id="3.cu_sy_4mdrn1wb0qoa" data-item-class="ScenePart Part Indexed Stroke ColorStrokeBlack" data-item-index="3" data-renderer-id="0" transform="translate(4, 111.9990234375)"><g id="3.cu_sy_4mdrn1wb0qoa-stroke" fill="none" stroke-linecap="round" stroke-linejoin="round" stroke-miterlimit="4" stroke="#484848" stroke-width="4"><g><path d="M 514 10C 494.2 9 474.4 11.2 454.7 10C 437.3 9 419.9 11.4 402.5 10C 383 8.5 363.3 9.3 343.7 10C 326.3 10.6 308.8 8.4 291.4 10C 271 11.9 250.3 9.6 229.7 10C 210.2 10.4 190.7 8.8 171.3 10C 154 11.1 136.7 9.8 119.4 10C 102.2 10.2 84.8 10.8 67.6 10C 48.4 9.1 29.2 10.1 10 10"></path><path d="M 514.000007 9.999977L 10.000007 10.000977"></path></g></g></g><g id="g-root-2.cu_sy_4mdrn1wb0qo9-stroke" data-item-order="-229817" data-item-id="2.cu_sy_4mdrn1wb0qo9" data-item-class="ScenePart Part Indexed Stroke ColorStrokeBlack" data-item-index="2" data-renderer-id="0" transform="translate(256.0010070800781, 4)"><g id="2.cu_sy_4mdrn1wb0qo9-stroke" fill="none" stroke-linecap="round" stroke-linejoin="round" stroke-miterlimit="4" stroke="#484848" stroke-width="4"><g><path d="M 10 298C 11.5 284.8 10.1 271.4 10 258.1C 9.9 243.4 8.7 228.6 10 214M 10 382C 11.5 354 10.3 326 10 298M 10 466C 9.9 438 11.1 410 10 382M 10 214C 10.6 182 8.1 149.9 10 118M 10 118C 10.3 105.3 9.9 92.7 10 80M 10 36C 10 27.3 11 18.6 10 10"></path><path d="M 10 298L 10 214M 10 382L 10 298M 10 466L 10 382M 10 214L 10 118M 10 118L 10 80M 10 36L 10 10"></path></g></g></g><g id="g-root-1.cu_sy_8zmwxf1wb0t1c-stroke" data-item-order="-229816" data-item-id="1.cu_sy_8zmwxf1wb0t1c" data-item-class="ScenePart Part Indexed Indexed_1 Fill Stroke ColorStrokeBlack" data-item-index="1" data-renderer-id="0" transform="translate(226.00100708007812, 28)"><g id="1.cu_sy_8zmwxf1wb0t1c-stroke" fill="none" stroke-linecap="round" stroke-linejoin="round" stroke-miterlimit="4" stroke="#484848" stroke-width="4"><g><path d="M 10 34C 14.7 25.2 21.6 17.7 28 10C 28.4 12.6 27.9 15.3 28 18C 36 18 44 18.3 52 18C 51.9 15.3 51.1 12.5 52 10C 57.9 18 65.2 25.2 70 34C 63.5 41.6 56.7 49.1 52 58C 52.1 55.3 52.4 52.6 52 50C 44.2 48.4 36 50.4 28 50C 28.2 52.7 27 55.5 28 58C 23.7 49 16.7 41.4 10 34"></path><path d="M 10 34L 28 10L 28 18L 52 18L 52 10L 70 34L 52 58L 52 50L 28 50L 28 58L 10 34Z"></path></g></g><g id="1.cu_sy_8zmwxf1wb0t1c-stroke" fill="none" stroke-linecap="round" stroke-linejoin="round" stroke-miterlimit="4" stroke="#484848" stroke-width="4"><g><path d="M 30.6 28.4C 33.3 31.3 34.1 35.6 35 39.5M 35.2 39.1C 36.2 35.5 38.3 32.2 39.6 28.7M 49.4 30.2C 49.1 29.9 48.8 29.7 48.4 29.4C 47.8 28.9 46.8 29.1 45.5 28.8C 44.2 28.5 43.7 29.6 43.4 30.7C 43.5 31.8 44.2 32.9 46.3 33.9C 48.6 34.5 49.7 36 49.4 37.3C 49.2 38.5 48.6 39.4 47.1 39.6C 45.7 40.3 44.2 39.5 43.9 38.5C 43.5 38.2 43.3 37.6 43 37.2"></path><path d="M 30.599 28.373L 34.999 39.48M 35.199 39.097L 39.599 28.66M 49.399 30.192C 49.065 29.937 48.732 29.682 48.399 29.426C 47.799 28.852 46.832 28.628 45.499 28.756C 44.165 28.884 43.465 29.522 43.399 30.671C 43.265 31.82 44.232 32.905 46.299 33.927C 48.432 34.884 49.465 36.001 49.399 37.278C 49.399 38.555 48.632 39.321 47.099 39.576C 45.499 39.767 44.432 39.416 43.899 38.523C 43.565 38.076 43.265 37.629 42.999 37.182"></path></g></g></g><g id="g-root-tx_pros_mg37zn1wb0qvh-stroke" data-item-order="0" data-item-id="tx_pros_mg37zn1wb0qvh" data-item-class="Label Stroke SceneTarget ColorStrokeBlack" data-item-index="none" data-renderer-id="0" transform="translate(64.00100708007812, 40)"></g><g id="g-root-tx_cons_vb3r5f1wb0t8k-stroke" data-item-order="0" data-item-id="tx_cons_vb3r5f1wb0t8k" data-item-class="Label Stroke SceneTarget ColorStrokeBlack" data-item-index="none" data-renderer-id="0" transform="translate(364.0010070800781, 40)"></g><g id="g-root-1_1qbcgtv1wampe7-stroke" data-item-order="0" data-item-id="1_1qbcgtv1wampe7" data-item-class="Icon Stroke SceneTarget Indexed Indexed_1 ColorStrokeBlack" data-item-index="1" data-renderer-id="0" transform="translate(4.001007080078125, 148)"><g id="1_1qbcgtv1wampe7-stroke" fill="none" stroke-linecap="round" stroke-linejoin="round" stroke-miterlimit="4" stroke="#484848" stroke-width="2"><g><path d="M 11.714286 45.314285C 11.714286 46.342857 12.057143 47.028572 13.085714 47.371429C 13.771429 47.714287 14.8 48.057144 15.485714 47.371429C 20.285715 42.228569 26.114285 38.114285 32.971428 36.057144C 33.657143 35.714287 34 35.028572 34 34C 34 33.314285 33.657143 32.285713 32.971428 31.942858C 26.114285 30.228573 20.971428 24.742859 15.485714 20.628571C 14.8 20.285715 13.771429 19.942858 13.085714 20.628571C 12.4 21.314285 11.714286 22 11.714286 22.685715C 12.057143 30.228573 11.028571 37.771431 11.714286 45.314285M 34 45.314285C 34 46.342857 34.342857 47.371429 35.371429 47.371429C 36.057144 47.714287 36.742859 47.714287 37.771431 47.371429C 44.628574 46 49.771431 40.514286 55.257141 36.057144C 55.942856 35.714287 56.285713 35.028572 56.285713 34C 56.285713 33.314285 55.942856 32.628571 55.257141 31.942858C 49.771431 27.485714 42.914288 25.428572 37.771431 20.628571C 37.085716 19.942858 36.057144 20.285715 35.371429 20.628571C 34.342857 20.971428 34 22 34 22.685715C 32.971428 30.228573 33.657143 37.771431 34 45.314285"></path><path d="M 11.714286 45.279999C 11.710903 46.168808 12.199005 46.98671 12.982857 47.405716C 13.753256 47.867451 14.715316 47.867451 15.485714 47.405716L 32.902855 36.091431C 33.593399 35.650539 34.01133 34.887856 34.01133 34.068573C 34.01133 33.249287 33.593399 32.486603 32.902855 32.045715L 15.485714 20.662857C 14.715316 20.20112 13.753256 20.20112 12.982857 20.662857C 12.199005 21.081863 11.710903 21.899763 11.714286 22.788572ZM 34 45.279999C 33.996616 46.168808 34.484718 46.98671 35.26857 47.405716C 36.038971 47.867451 37.00103 47.867451 37.771427 47.405716L 55.188572 36.091431C 55.879112 35.650539 56.297043 34.887856 56.297043 34.068573C 56.297043 33.249287 55.879112 32.486603 55.188572 32.045715L 37.771431 20.662857C 37.00103 20.20112 36.038971 20.20112 35.26857 20.662857C 34.506115 21.070089 34.021549 21.855873 34 22.719999Z"></path></g></g></g><g id="g-root-tx_reducest_zqx99v1wb0sgb-stroke" data-item-order="0" data-item-id="tx_reducest_zqx99v1wb0sgb" data-item-class="Label Stroke SceneTarget Indexed Indexed_1 ColorStrokeBlack" data-item-index="1" data-renderer-id="0" transform="translate(64.00100708007812, 148)"></g><g id="g-root-puzz_v7czsj1wamr62-stroke" data-item-order="0" data-item-id="puzz_v7czsj1wamr62" data-item-class="Icon Stroke SceneTarget Indexed ColorStrokeBlack" data-item-index="101" data-renderer-id="0" transform="translate(304.0010070800781, 148)"><g id="puzz_v7czsj1wamr62-stroke" fill="none" stroke-linecap="round" stroke-linejoin="round" stroke-miterlimit="4" stroke="#484848" stroke-width="2"><g><path d="M 12 39C 14 39 16 38.400002 18 39C 18 39 18.6 39 19 40C 20.6 44.400002 19.6 49.400002 19 54C 19 54 19 54.599998 18 55C 16.200001 55.599998 13.8 54.400002 12 55C 12 55 11.2 55 11 54C 9.6 49.599998 11 44.599998 11 40C 11 40 11 39.200001 12 39M 19 52.200001C 40.400002 57.599998 32.799999 58.599998 57 47.200001C 55.400002 45.400002 53.200001 44.599998 51 45.200001C 48 45.599998 45 46.599998 42.400002 47.799999M 19 41C 21 40.599998 23.200001 41.599998 25 41C 29.4 39.599998 33 45.200001 34 45C 36.200001 44.400002 38.599998 45.200001 41 45C 43 44.799999 43 48.799999 41 49C 37.400002 49.200001 33.599998 49.200001 30 49M 45.200001 32.799999C 43.799999 31 43.799999 28.799999 45.200001 27.200001C 46.599998 25.4 49 25.799999 50.799999 27.200001C 51.200001 27.4 51.400002 28 51.599998 28.6C 51.799999 28.799999 52 29 52.400002 29.200001C 52.799999 29.200001 53 29 53.400002 28.799999C 54.400002 27.799999 55.599998 26.799999 56.400002 25.799999C 57.200001 24.799999 57 23.799999 56.400002 23C 55.599998 21.6 54 21 53.200001 19.799999C 55 18.799999 56 17.4 56.200001 15.4C 56.400002 13.6 54.400002 11.6 52.599998 11.8C 50.599998 12.2 49.400002 13.2 48.400002 14.8C 47 14 45.799999 13 45.200001 11.6C 44.599998 10.6 43.200001 10.8 42.400002 11.6C 41.200001 12.4 40.400002 13.6 39.400002 14.4C 39.200001 14.8 39 15 39.200001 15.4C 39.200001 15.6 39.400002 15.8 39.599998 16C 40.799999 17 41.799999 18.6 41.200001 20.200001C 40.799999 21.799999 39.799999 23.6 38.200001 23.200001C 36.599998 23 35.200001 22.799999 34 21.6C 33.799999 21.4 33.599998 21 33.400002 21.200001C 33 21.200001 32.799999 21.200001 32.400002 21.4C 31.6 22.4 30.200001 23.200001 29.6 24.4C 29 25.200001 28.799999 26.4 29.6 27.200001C 33.400002 30.799999 36 36.200001 41 38.400002C 42 39 43 39.200001 43.799999 38.400002C 44.799999 37.400002 45.799999 36.400002 46.799999 35.400002C 47 35 47.200001 34.799999 47.200001 34.400002C 47 34 46.799999 33.799999 46.599998 33.599998C 46 33.400002 45.599998 33.200001 45.200001 32.799999"></path><path d="M 12 39L 18 39C 18 39 19 39 19 40L 19 54C 19 54 19 55 18 55L 12 55C 12 55 11 55 11 54L 11 40C 11 40 11 39 12 39M 19 52.125999C 40 59.125999 33 59.125999 57 47.125999C 55.618729 45.265095 53.221558 44.466038 51 45.125999L 42.366001 47.860001M 19 41L 25 41C 29.705999 41 33 45 34 45L 41 45C 43 45 43 49 41 49L 30 49M 45.141998 32.799999C 43.579586 31.237587 43.579586 28.704414 45.142002 27.142C 46.704414 25.579586 49.237587 25.579586 50.799999 27.142C 51.190819 27.529734 51.496048 27.99507 51.695999 28.507999C 51.81892 28.822805 52.092529 29.05423 52.423363 29.12322C 52.7542 29.192213 53.0975 29.089437 53.335999 28.85L 56.458 25.728001C 57.238766 24.947001 57.238766 23.681 56.458 22.9L 53.257999 19.700001C 55.129993 19.193192 56.368736 17.416525 56.196987 15.48476C 56.025238 13.552996 54.492481 12.022737 52.56044 11.854139C 50.628399 11.685541 48.853752 12.927182 48.349998 14.8L 45.150002 11.6C 44.368999 10.819236 43.103001 10.819236 42.321999 11.6L 39.422001 14.498C 39.20945 14.710384 39.103664 15.007088 39.133911 15.306036C 39.164154 15.604985 39.327217 15.874489 39.577999 16.040001C 40.929562 16.935802 41.606617 18.558922 41.292263 20.149632C 40.977905 21.740341 39.734341 22.983908 38.143631 23.298264C 36.552921 23.612617 34.929802 22.93556 34.034 21.584C 33.868492 21.333218 33.598984 21.170153 33.300037 21.139908C 33.001087 21.109665 32.704384 21.21545 32.492001 21.428001L 29.586 24.313999C 28.805237 25.094999 28.805237 26.361 29.586 27.142L 40.900002 38.456001C 41.681 39.236763 42.946999 39.236763 43.728001 38.456001L 46.849998 35.332001C 47.088501 35.09346 47.190674 34.750759 47.121731 34.420563C 47.052788 34.090363 46.822025 33.817177 46.507999 33.694C 45.995487 33.494164 45.530258 33.18969 45.141998 32.799999Z"></path></g></g></g><g id="g-root-tx_tasksimi_93drg31wb0qa6-stroke" data-item-order="0" data-item-id="tx_tasksimi_93drg31wb0qa6" data-item-class="Label Stroke SceneTarget Indexed ColorStrokeBlack" data-item-index="101" data-renderer-id="0" transform="translate(364.0010070800781, 148)"></g><g id="g-root-eco_5vf3n1wamosm-stroke" data-item-order="0" data-item-id="eco_5vf3n1wamosm" data-item-class="Icon Stroke SceneTarget Indexed ColorStrokeBlack" data-item-index="2" data-renderer-id="0" transform="translate(4.001007080078125, 232)"><g id="eco_5vf3n1wamosm-stroke" fill="none" stroke-linecap="round" stroke-linejoin="round" stroke-miterlimit="4" stroke="#484848" stroke-width="2"><g><path d="M 29.799999 43C 29.799999 42.400002 30 41.599998 29.799999 41C 29.4 40 29.4 38.799999 28.4 38.200001C 27.6 37.599998 26.6 37.400002 25.4 37.200001C 31 35.200001 37 34.200001 42.599998 32.200001M 38.400002 43C 38.400002 42.400002 38.200001 41.599998 38.400002 41C 38.400002 39.799999 38.599998 38.799999 39.599998 38.200001C 40.599998 37.599998 41.599998 37.200001 42.599998 37.200001M 24.4 31.4C 30.799999 29.6 37 26.6 43.599998 25.799999M 24.4 25C 31 24 37.400002 21.6 43.599998 19.4M 25.4 17.4C 28 16.4 30.6 16 33.200001 15.6C 33.799999 15.6 34 15.2 34 14.8C 34.400002 13.6 33.599998 12.2 34 11M 34 54C 33.799999 55 34 56 34 57M 42.599998 43.400002C 42.400002 43 42.200001 43 41.799999 43C 36.599998 43 31.4 42.799999 26.200001 43C 26 43 25.6 43.200001 25.4 43.400002C 25.200001 43.599998 25.200001 44 25.200001 44.200001C 25.6 45.200001 25.799999 46.200001 25.799999 47.200001C 25.799999 51.200001 30 53.200001 34 54C 38 54.799999 41.200001 51 42.200001 47.200001C 42.599998 46.200001 42.599998 45.200001 42.799999 44.200001C 42.799999 43.799999 42.799999 43.599998 42.599998 43.400002"></path><path d="M 29.752001 43L 29.752001 40.966C 29.727131 39.885944 29.250082 38.865913 28.43709 38.154449C 27.624098 37.442986 26.549814 37.105419 25.476 37.223999L 42.580002 32.279999M 38.304001 43L 38.304001 40.966C 38.328262 39.885735 38.805138 38.865326 39.618279 38.153728C 40.431419 37.442135 41.506058 37.10479 42.580002 37.223999M 24.406 31.344L 43.647999 25.866001M 24.406 24.93L 43.647999 19.452M 25.476 17.48L 33.251999 15.68C 33.705933 15.575668 34.027725 15.171765 34.028 14.705999L 34.028 11M 34.028 54L 34.028 57M 42.599998 43.360001C 42.410091 43.131996 42.128731 43.000111 41.832001 43L 26.232 43C 25.935638 43.000008 25.654549 43.13147 25.464558 43.358917C 25.274567 43.586369 25.195248 43.886372 25.248001 44.178001L 25.782 47.113998C 26.50876 51.100624 29.98167 53.997658 34.033997 53.997658C 38.086327 53.997658 41.559235 51.100624 42.285999 47.113998L 42.82 44.178001C 42.871475 43.886208 42.790897 43.586609 42.599998 43.360001Z"></path></g></g></g><g id="g-root-tx_savescom_18mk9ir1wb0rnm-stroke" data-item-order="0" data-item-id="tx_savescom_18mk9ir1wb0rnm" data-item-class="Label Stroke SceneTarget Indexed ColorStrokeBlack" data-item-index="2" data-renderer-id="0" transform="translate(64.00100708007812, 220)"></g><g id="g-root-line_18iti5v1wampl5-stroke" data-item-order="0" data-item-id="line_18iti5v1wampl5" data-item-class="Icon Stroke SceneTarget Indexed ColorStrokeBlack" data-item-index="102" data-renderer-id="0" transform="translate(304.0010070800781, 232)"><g id="line_18iti5v1wampl5-stroke" fill="none" stroke-linecap="round" stroke-linejoin="round" stroke-miterlimit="4" stroke="#484848" stroke-width="2"><g><path d="M 19.799999 34C 19.4 41.599998 26.200001 46.799999 33.799999 48C 41.400002 49.200001 46.599998 41.599998 47.799999 34C 49 26.4 41.599998 21 33.799999 20C 26.200001 18.799999 18.799999 26.200001 19.799999 34M 23.799999 38C 24.200001 37.200001 24.6 36.200001 25.4 35.799999C 25.799999 35.400002 26.200001 35.200001 26.6 35.599998C 27.200001 35.799999 27.6 36 28.200001 36.400002C 28.6 36.799999 29.200001 36.799999 29.4 36.200001C 30.200001 34.400002 32 33.400002 33.200001 31.799999C 33.400002 31.6 33.599998 31.4 33.799999 31.4C 34.200001 31.4 34.400002 31.6 34.599998 31.799999C 35.599998 32.200001 36.400002 33.200001 37 34.200001C 37.200001 34.400002 37.599998 34.599998 37.799999 34.400002C 38 34.400002 38.400002 34.200001 38.599998 34C 40.400002 32.799999 41.400002 30.6 42.799999 29M 56.200001 37.200001C 56.599998 37.200001 56.799999 36.599998 57 36.200001C 57.400002 34.799999 56.599998 33.200001 57 31.799999C 57.200001 31.4 56.599998 30.799999 56.200001 30.799999C 54.599998 31.200001 53.200001 30.200001 51.599998 30.4C 51.200001 28.200001 49.599998 26.200001 49 24.200001C 49.599998 22.799999 50.799999 21.6 51.799999 20.6C 52.200001 20.200001 52 19.6 51.799999 19.200001C 51 18 50 17 48.799999 16.200001C 48.400002 16 48 16 47.400002 16.200001C 46 16.799999 45 18 43.799999 19C 42.200001 17.4 39.799999 16.799999 37.599998 16.4C 37 15 37.200001 13.4 37.200001 11.8C 37 11.4 36.599998 10.8 36.200001 11C 34.799999 11.2 33.200001 11.2 31.799999 11C 31.4 11 31 11.4 30.799999 11.8C 30.6 13.4 31 15 30.4 16.4C 28 16.4 26.200001 18 24.200001 19C 23.4 17.6 21.6 17.200001 20.6 16.200001C 20.200001 15.8 19.6 15.8 19.200001 16.200001C 18.4 17.4 17.4 18.6 16.200001 19.200001C 15.8 19.6 15.8 20.200001 16.200001 20.6C 17.4 21.6 17.799999 23.200001 19 24.200001C 18 26.200001 17.6 28.4 16.4 30.4C 14.8 30.6 13.4 31.200001 11.8 31C 11.4 30.799999 10.8 31.4 11 32C 11.4 33.200001 11.4 34.799999 11 36.200001C 10.8 36.599998 11.4 37.200001 11.8 37.200001C 13.4 37 15 37 16.4 37.799999C 16.6 40 17.4 42.200001 19 43.799999C 17.6 44.799999 16.799999 46 16.200001 47.400002C 16 47.799999 16 48.400002 16.200001 48.799999C 17 50 18.200001 50.799999 19.200001 51.799999C 19.6 52 20.200001 52.200001 20.6 51.799999C 21.799999 51 23 50 24.200001 49C 25.6 50.799999 28.200001 51.599998 30.4 51.599998C 30.4 53.200001 30.799999 54.599998 31 56.200001C 31 56.599998 31.4 57 32 57C 33.400002 57.200001 34.799999 57.400002 36.200001 57C 36.599998 56.799999 37.200001 56.599998 37.200001 56.200001C 36.799999 54.599998 37.799999 53.200001 37.799999 51.599998C 39.799999 50.799999 42 50.200001 43.799999 49C 45 50.200001 46 51.400002 47.400002 51.799999C 48 52 48.400002 52.200001 48.799999 51.799999C 49.799999 50.799999 50.599998 49.400002 51.799999 48.799999C 52.200001 48.599998 52.200001 47.799999 51.799999 47.400002C 50.599998 46.599998 50 45 49 43.799999C 49.799999 41.799999 51.599998 40 51.599998 37.599998C 53 37 54.599998 37.400002 56.200001 37.200001"></path><path d="M 19.858 33.945999C 19.858002 41.677986 26.126015 47.946003 33.858002 47.946003C 41.589989 47.946003 47.858002 41.677986 47.858002 33.945999C 47.858002 26.214014 41.589989 19.946001 33.858002 19.946001C 26.126015 19.946001 19.858002 26.214014 19.858002 33.945999ZM 23.858 37.945999L 25.304001 35.778C 25.610107 35.31871 26.23045 35.194286 26.690001 35.5L 28.110001 36.445999C 28.537424 36.728256 29.109018 36.641911 29.434 36.246002L 33.155998 31.775999C 33.336006 31.560066 33.598595 31.429876 33.879436 31.417318C 34.160278 31.40476 34.433437 31.510996 34.632 31.709999L 37.084 34.162003C 37.282776 34.360092 37.555641 34.465549 37.835976 34.452618C 38.11631 34.439686 38.378307 34.309555 38.557999 34.094002L 42.858002 28.936001M 56.124001 37.110001C 56.627377 37.047112 57.003914 36.617275 57 36.110001L 57 31.882C 57.003914 31.374725 56.627377 30.944889 56.124001 30.882L 51.622002 30.32C 51.163094 28.115004 50.291088 26.016758 49.051998 24.136L 51.841999 20.546C 52.151066 20.148159 52.115929 19.582531 51.759998 19.226L 48.759998 16.226C 48.403469 15.870071 47.837841 15.834933 47.439999 16.144001L 43.849998 18.944C 41.968914 17.705101 39.870834 16.832485 37.666 16.372L 37.110001 11.876C 37.047112 11.372623 36.617275 10.996087 36.110001 11L 31.882 11C 31.374725 10.996087 30.944889 11.372623 30.882 11.876L 30.32 16.375999C 28.117947 16.837442 26.022665 17.710024 24.144001 18.948L 20.554001 16.158001C 20.15616 15.848933 19.59053 15.884071 19.234001 16.24L 16.234001 19.24C 15.878071 19.596531 15.842934 20.162159 16.152 20.560001L 18.952 24.16C 17.71291 26.040758 16.840904 28.139004 16.382 30.344L 11.88 30.906C 11.376624 30.968889 11.000087 31.398726 11.004 31.906L 11.004 36.141998C 11.000087 36.649277 11.376624 37.079109 11.88 37.141998L 16.382 37.704002C 16.840904 39.908997 17.71291 42.00724 18.952 43.887997L 16.158001 47.445999C 15.848933 47.843842 15.884071 48.40947 16.24 48.765999L 19.24 51.765999C 19.596531 52.121929 20.162159 52.157066 20.560001 51.848L 24.16 49.057999C 26.041086 50.296898 28.139162 51.169514 30.344 51.629997L 30.906 56.130001C 30.968889 56.633377 31.398726 57.009914 31.906 57.006001L 36.141998 57.006001C 36.649277 57.009914 37.079109 56.633377 37.141998 56.130001L 37.704002 51.630001C 39.908836 51.169514 42.006912 50.296898 43.888 49.057999L 47.478001 51.848C 47.875839 52.157066 48.441471 52.121929 48.798 51.765999L 51.798 48.765999C 52.153931 48.40947 52.189068 47.843842 51.880001 47.445999L 49.09 43.855999C 50.329086 41.975239 51.201096 39.876995 51.66 37.671997Z"></path></g></g></g><g id="g-root-tx_riskofov_18kou9f1wb0sn9-stroke" data-item-order="0" data-item-id="tx_riskofov_18kou9f1wb0sn9" data-item-class="Label Stroke SceneTarget Indexed ColorStrokeBlack" data-item-index="102" data-renderer-id="0" transform="translate(364.0010070800781, 232)"></g><g id="g-root-down_4l2g4z1wamr65-stroke" data-item-order="0" data-item-id="down_4l2g4z1wamr65" data-item-class="Icon Stroke SceneTarget Indexed ColorStrokeBlack" data-item-index="3" data-renderer-id="0" transform="translate(4.001007080078125, 316)"><g id="down_4l2g4z1wamr65-stroke" fill="none" stroke-linecap="round" stroke-linejoin="round" stroke-miterlimit="4" stroke="#484848" stroke-width="2"><g><path d="M 18.571428 11.714286C 16.514286 14.114285 14.457143 16.857143 11.714286 18.571428C 14.114285 20.628571 15.485714 24.057142 18.571428 25.428572M 49.428574 56.285713C 52.171429 45.314285 53.200001 32.628571 49.428574 22C 48.742859 20.285715 47.714287 19.257143 46 18.571428C 35.028572 15.142858 23.028572 20.628571 11.714286 18.571428M 42.57143 49.428574C 43.942856 52.171429 47.714287 53.542858 49.428574 56.285713C 52.171429 54.228569 54.914288 52.171429 56.285713 49.428574"></path><path d="M 18.571428 11.714286L 11.714286 18.571428L 18.571428 25.428572M 49.428574 56.285713L 49.428574 22C 49.428574 20.106453 47.893551 18.571428 46 18.571428L 11.714286 18.571428M 42.57143 49.428574L 49.428574 56.285713L 56.285713 49.428574"></path></g></g></g><g id="g-root-tx_effectiv_1d2drn71wb0qvd-stroke" data-item-order="0" data-item-id="tx_effectiv_1d2drn71wb0qvd" data-item-class="Label Stroke SceneTarget Indexed ColorStrokeBlack" data-item-index="3" data-renderer-id="0" transform="translate(64.00100708007812, 304)"></g><g id="g-root-lock_3zzub1wamps8-stroke" data-item-order="0" data-item-id="lock_3zzub1wamps8" data-item-class="Icon Stroke SceneTarget Indexed ColorStrokeBlack" data-item-index="103" data-renderer-id="0" transform="translate(304.0010070800781, 316)"><g id="lock_3zzub1wamps8-stroke" fill="none" stroke-linecap="round" stroke-linejoin="round" stroke-miterlimit="4" stroke="#484848" stroke-width="2"><g><path d="M 27.142857 46C 23.028572 46.685715 19.257143 45.657143 15.142858 46C 13.085714 46 11.371428 44.628574 11.714286 42.57143C 12.742857 33.314285 12.742857 24.4 11.714286 15.142858C 11.371428 13.428572 13.085714 11.714286 15.142858 11.714286C 24.4 11.714286 33.314285 11.714286 42.57143 11.714286C 44.628574 11.714286 45.657143 13.085714 46 15.142858C 46.342857 17.542858 45.314285 19.942858 46 22M 23.714287 23.028572C 24.4 25.771429 26.114285 27.485714 28.857143 28.171429C 31.6 28.514286 34.685715 25.771429 34 23.028572C 33.314285 19.942858 31.6 18.228571 28.857143 17.885714C 26.114285 17.199999 23.371429 19.942858 23.714287 23.028572M 31.257143 33.314285C 30.571428 33.314285 29.542856 33.314285 28.857143 32.971428C 25.085714 32.628571 22.342857 36.057144 19.257143 37.771431M 37.428574 40.857143C 43.257141 40.514286 49.085712 39.828571 54.57143 40.857143C 54.57143 40.857143 56.285713 40.857143 56.285713 42.57143C 56.285713 46.685715 57.657143 50.799999 56.285713 54.57143C 56.285713 54.57143 56.285713 55.942856 54.57143 56.285713C 49.085712 58 43.257141 55.600002 37.428574 56.285713C 37.428574 56.285713 36.057144 56.285713 35.714287 54.57143C 35.371429 50.457146 36.742859 46.342857 35.714287 42.57143C 35.714287 42.57143 35.714287 41.200001 37.428574 40.857143M 39.142857 40.857143C 39.485718 39.828571 39.485718 38.457146 39.142857 37.428574C 37.771431 34 42.228569 30.571428 46 30.571428C 49.771431 30.571428 51.828571 33.657143 52.857143 37.428574C 53.200001 38.457146 52.857143 39.828571 52.857143 40.857143"></path><path d="M 27.142857 46L 15.142858 46C 13.24931 46 11.714286 44.464977 11.714286 42.57143L 11.714286 15.142858C 11.714286 13.24931 13.24931 11.714286 15.142858 11.714286L 42.57143 11.714286C 44.464977 11.714286 46 13.24931 46 15.142858L 46 22M 23.714287 22.857143C 23.714287 25.697466 26.016823 28 28.857143 28C 31.697466 28 34 25.697466 34 22.857143C 34 20.016821 31.697466 17.714285 28.857143 17.714285C 26.016823 17.714285 23.714287 20.016821 23.714287 22.857143M 31.29143 33.382858C 30.490856 33.216434 29.674801 33.135979 28.857141 33.142857C 25.078777 33.13744 21.519829 34.916916 19.257143 37.942856M 37.428574 40.857143L 54.57143 40.857143C 54.57143 40.857143 56.285713 40.857143 56.285713 42.57143L 56.285713 54.57143C 56.285713 54.57143 56.285713 56.285713 54.57143 56.285713L 37.428574 56.285713C 37.428574 56.285713 35.714287 56.285713 35.714287 54.57143L 35.714287 42.57143C 35.714287 42.57143 35.714287 40.857143 37.428574 40.857143M 39.142857 40.857143L 39.142857 37.428574C 39.142857 33.641476 42.212906 30.571428 46 30.571428C 49.787094 30.571428 52.857143 33.641476 52.857143 37.428574L 52.857143 40.857143"></path></g></g></g><g id="g-root-tx_limitedt_5vbxv1wb0suc-stroke" data-item-order="0" data-item-id="tx_limitedt_5vbxv1wb0suc" data-item-class="Label Stroke SceneTarget Indexed ColorStrokeBlack" data-item-index="103" data-renderer-id="0" transform="translate(364.0010070800781, 304)"></g><g id="g-root-brai_dgpgdv1wamqdg-stroke" data-item-order="0" data-item-id="brai_dgpgdv1wamqdg" data-item-class="Icon Stroke SceneTarget Indexed ColorStrokeBlack" data-item-index="4" data-renderer-id="0" transform="translate(4.001007080078125, 400)"><g id="brai_dgpgdv1wamqdg-stroke" fill="none" stroke-linecap="round" stroke-linejoin="round" stroke-miterlimit="4" stroke="#484848" stroke-width="2"><g><path d="M 57.200001 34C 56 37 54.799999 40 51.599998 40C 52.599998 42.799999 53.599998 45.599998 52.200001 48.200001C 50.799999 50.799999 48 52.400002 45 52C 45.599998 53.400002 45 55 43.799999 56C 42.799999 57.200001 40.799999 57.599998 39.599998 56.799999C 38.200001 56 37.200001 54.799999 37.200001 53.200001C 35.200001 54 33.200001 54 31.200001 53.200001C 30.6 54.599998 30.200001 56 28.799999 56.799999C 27.4 57.400002 25.799999 56.799999 24.6 56C 23.200001 55.200001 23.200001 53.400002 23.4 52C 20.4 51.799999 17.4 50.799999 16 48.200001C 14.8 45.400002 15 42.200001 16.799999 40C 13.6 40.200001 11.8 37 11.2 34C 10.6 31 13.6 28.200001 16.799999 28C 15.8 25.200001 15.4 22.799999 16 19.799999C 16.6 17 20.4 15.6 23.4 16C 22.6 14.6 23.6 13.2 24.6 12C 25.4 10.6 27.200001 11 28.799999 11.2C 30.200001 11.6 30.799999 13.2 31.200001 14.8C 33.200001 14 35.200001 14.2 37.200001 14.8C 37.799999 13.4 38.200001 11.8 39.599998 11.2C 41 10.6 43 10.6 43.799999 12C 44.599998 13.2 45.799999 14.8 45 16C 48 15.8 50.799999 17.200001 52.200001 19.799999C 53.599998 22.6 53.599998 25.799999 51.599998 28C 54.799999 28.4 57.799999 31 57.200001 34M 34.200001 43C 34.200001 43.599998 34.200001 44.400002 34.200001 45M 34.200001 37C 34 37.599998 34.400002 38.400002 34.200001 39M 40.400002 37C 40.400002 37.599998 40.400002 38.400002 40.400002 39M 34.200001 25C 34.200001 25.6 34.200001 26.4 34.200001 27M 34.200001 19C 34.200001 19.6 34.200001 20.4 34.200001 21M 34.200001 49C 34 49.599998 34.200001 50.400002 34.200001 51M 24.200001 22C 23.799999 23.6 25.6 25.6 27.200001 25C 28.799999 24.4 30.4 23.6 30.200001 22C 29.799999 20.4 28.799999 19.6 27.200001 19C 25.6 18.4 24 20.4 24.200001 22M 39.200001 27C 39.599998 28.6 40.599998 30.4 42.200001 30C 43.799999 29.6 45.400002 28.6 45.200001 27C 44.799999 25.4 43.799999 23.799999 42.200001 24C 40.599998 24.200001 39.200001 25.4 39.200001 27M 21.200001 44C 20.799999 45.599998 22.6 47.400002 24.200001 47C 25.799999 46.599998 27 45.599998 27.200001 44C 27.4 42.400002 25.799999 40.799999 24.200001 41C 22.6 41 21.4 42.400002 21.200001 44M 38.200001 45C 38.599998 46.599998 39.599998 48.599998 41.200001 48C 42.799999 47.400002 43.799999 46.599998 44.200001 45C 44.400002 43.400002 42.799999 42.200001 41.200001 42C 39.599998 41.799999 38.799999 43.400002 38.200001 45M 43.200001 36C 42.799999 37.599998 44.599998 38.799999 46.200001 39C 47.799999 39.200001 49.200001 37.599998 49.200001 36C 49.200001 34.400002 47.799999 33 46.200001 33C 44.599998 33 42.599998 34.400002 43.200001 36M 45.200001 27C 46.200001 26.6 47.200001 26.200001 47.200001 25C 47.200001 24 47.200001 23 47.200001 22M 16.200001 35C 17.200001 34.599998 18.200001 34.799999 19.200001 35C 20.200001 35.400002 21.4 34 21.200001 33C 21 32.400002 21.200001 31.6 21.200001 31C 21 30 22.200001 28.6 23.200001 29C 23.799999 29.200001 24.6 29.200001 25.200001 29C 26.200001 28.6 27.4 28 27.200001 27C 27 26.4 27.4 25.6 27.200001 25M 27.200001 44C 28.200001 44 29 45 29.200001 46C 29.4 47.400002 29.6 48.799999 29.200001 50M 44.200001 45C 45.599998 45 46.799999 44.799999 48.200001 45"></path><path d="M 57.166 34C 57.160934 37.138275 54.730751 39.738739 51.599998 39.956001C 53.427505 42.303398 53.681461 45.513618 52.245777 48.119164C 50.810097 50.724709 47.960644 52.224922 45 51.934002C 45.443184 53.422901 44.984238 55.033749 43.822891 56.065502C 42.661549 57.097256 41.007858 57.3633 39.581512 56.747849C 38.155167 56.132397 37.214157 54.746777 37.167999 53.194C 35.309055 54.26965 33.016945 54.26965 31.158001 53.194C 31.108984 54.744835 30.167524 56.127419 28.742512 56.74128C 27.317497 57.355141 25.666035 57.089523 24.505373 56.059788C 23.344711 55.030052 22.88426 53.421993 23.324001 51.933998C 20.363358 52.224922 17.513905 50.724709 16.078224 48.119164C 14.642542 45.513618 14.896498 42.303398 16.724001 39.956001C 13.592808 39.741184 11.16261 37.13855 11.16261 34C 11.16261 30.861448 13.592808 28.258814 16.723999 28.044001C 14.896498 25.696602 14.642542 22.486382 16.078224 19.880836C 17.513905 17.275291 20.363358 15.775082 23.324001 16.066C 22.88426 14.578009 23.344711 12.969946 24.505373 11.940212C 25.666035 10.910478 27.317497 10.64486 28.742512 11.258721C 30.167524 11.872582 31.108984 13.255166 31.158001 14.806C 33.016945 13.73035 35.309055 13.73035 37.167999 14.806C 37.214157 13.253224 38.155167 11.867601 39.581512 11.252151C 41.007858 10.636702 42.661549 10.902744 43.822891 11.934498C 44.984238 12.966251 45.443184 14.577099 45 16.066C 47.960644 15.775082 50.810097 17.275291 52.245777 19.880836C 53.681461 22.486382 53.427505 25.696602 51.600002 28.044001C 54.730751 28.261261 57.160934 30.861725 57.166 34ZM 34.166 43L 34.166 45M 34.166 37L 34.166 39M 40.402 37L 40.402 39M 34.166 25L 34.166 27M 34.166 19L 34.166 21M 34.166 49L 34.166 51M 24.166 22C 24.166 23.656855 25.509148 25 27.166 25C 28.822855 25 30.166 23.656855 30.166 22C 30.166 20.343147 28.822855 19 27.166 19C 25.509148 19 24.166 20.343147 24.166 22ZM 39.166 27C 39.166 28.656855 40.509148 30 42.166 30C 43.822857 30 45.166 28.656855 45.166 27C 45.166 25.343147 43.822857 24 42.166 24C 40.509148 24 39.166 25.343147 39.166 27ZM 21.166 44C 21.166 45.656857 22.509146 47 24.166 47C 25.822855 47 27.166 45.656857 27.166 44C 27.166 42.343147 25.822855 41 24.166 41C 22.509146 41 21.166 42.343147 21.166 44ZM 38.166 45C 38.166 46.656857 39.509148 48 41.166 48C 42.822857 48 44.166 46.656857 44.166 45C 44.166 43.343147 42.822857 42 41.166 42C 39.509148 42 38.166 43.343147 38.166 45ZM 43.166 36C 43.166 37.656853 44.509148 39 46.166 39C 47.822857 39 49.166 37.656853 49.166 36C 49.166 34.343147 47.822857 33 46.166 33C 44.509148 33 43.166 34.343147 43.166 36ZM 45.167999 27C 46.272568 27 47.167999 26.10457 47.167999 25L 47.167999 22M 16.166 35L 19.166 35C 20.270569 35 21.166 34.104568 21.166 33L 21.166 31C 21.166 29.89543 22.061432 29 23.166 29L 25.166 29C 26.270569 29 27.166 28.10457 27.166 27L 27.166 25M 27.166 44C 28.270569 44 29.166 44.895432 29.166 46L 29.166 50M 44.166 45L 48.166 45"></path></g></g></g><g id="g-root-tx_generalf_1lxeasz1wb0t8g-stroke" data-item-order="0" data-item-id="tx_generalf_1lxeasz1wb0t8g" data-item-class="Label Stroke SceneTarget Indexed ColorStrokeBlack" data-item-index="4" data-renderer-id="0" transform="translate(64.00100708007812, 400)"></g></g></g></svg>