<?xml version="1.0" encoding="utf-8" standalone="yes"?>
<!DOCTYPE svg PUBLIC "-//W3C//DTD SVG 1.1//EN" "http://www.w3.org/Graphics/SVG/1.1/DTD/svg11.dtd">
<svg width="528" height="291" viewBox="0 0 528 291" style="fill:none;stroke:none;fill-rule:evenodd;clip-rule:evenodd;stroke-linecap:round;stroke-linejoin:round;stroke-miterlimit:1.5;" version="1.1" xmlns="http://www.w3.org/2000/svg" xmlns:xlink="http://www.w3.org/1999/xlink"><style id="fontImports">@import url("https://fonts.googleapis.com/css2?family=Roboto:wght@400;700&amp;display=block");</style><rect id="" x="0" y="0" width="528" height="290.005" style="fill: #ffffff;"></rect><g id="items" style="isolation: isolate"><g id="blend" style="mix-blend-mode:multiply"><g id="g-root-5.cu_sy_v6lw1tj68st-fill" data-item-order="-31676" data-item-id="5.cu_sy_v6lw1tj68st" data-item-class="ScenePart Part Indexed Stroke ColorFillGray ColorStrokeBlack" data-item-index="5" data-renderer-id="0" transform="translate(182, 153.99996948242188)"></g><g id="g-root-4.cu_sy_v6lw1tj68ss-fill" data-item-order="-31675" data-item-id="4.cu_sy_v6lw1tj68ss" data-item-class="ScenePart Part Indexed Fill Stroke ColorFillGray ColorStrokeBlack" data-item-index="4" data-renderer-id="0" transform="translate(254, 164.99996948242188)"><g id="4.cu_sy_v6lw1tj68ss-fill" stroke="none" fill="#888888"><g><path d="M 34.086 22C 34.086 28.627 28.695 34 22.043 34C 15.392 34 10 28.627 10 22C 10 15.373 15.392 10 22.043 10C 28.695 10 34.086 15.373 34.086 22ZM 28 22C 28 25.314 25.314 28 22 28C 18.686 28 16 25.314 16 22C 16 18.686 18.686 16 22 16C 25.314 16 28 18.686 28 22Z"></path></g></g></g><g id="g-root-3.cu_sy_8wi6us1tj6803-fill" data-item-order="-31673" data-item-id="3.cu_sy_8wi6us1tj6803" data-item-class="ScenePart Part Indexed Fill Stroke ColorFillGray ColorStrokeBlack" data-item-index="3" data-renderer-id="0" transform="translate(218, 186.32601928710938)"><g id="3.cu_sy_8wi6us1tj6803-fill" stroke="none" fill="#888888"><g><path d="M 22 78.674011L 94 78.674011C 94 78.674011 73.992 28.166011 65.959 10.058011C 63.725 11.952011 61.073 12.997011 58.043 12.997011C 54.986 12.997011 52.288 11.933011 50.072 10.000011C 42.047 28.114011 22 78.674011 22 78.674011ZM 18 78.679011C 13.582 78.679011 10 82.260011 10 86.679011L 10 88.679011C 10 89.783011 10.895 90.679011 12 90.679011L 104 90.679011C 105.105 90.679011 106 89.783011 106 88.679011L 106 86.679011C 106 82.260011 102.418 78.679011 98 78.679011L 18 78.679011Z"></path></g></g></g><g id="g-root-2.right-bucket_sy_8wi6us1tj6802-fill" data-item-order="-31671" data-item-id="2.right-bucket_sy_8wi6us1tj6802" data-item-class="ScenePart Part Indexed Fill Stroke ColorStrokeBlack" data-item-index="2" data-renderer-id="0" transform="translate(314, 134.99996948242188)"><g id="2.right-bucket_sy_8wi6us1tj6802-fill" stroke="none" fill="#3bc482"><g><path d="M 10 11.8C 10 10.806 10.806 10 11.8 10L 80.2 10C 81.194 10 82 10.806 82 11.8C 82 20.747 74.747 28 65.8 28L 26.2 28C 17.253 28 10 20.747 10 11.8Z"></path></g></g></g><g id="g-root-1.left-bucket_sy_dcboz81tj677t-fill" data-item-order="-31669" data-item-id="1.left-bucket_sy_dcboz81tj677t" data-item-class="ScenePart Part Indexed Indexed_1 Fill Stroke ColorStrokeBlack" data-item-index="1" data-renderer-id="0" transform="translate(146, 134.99996948242188)"><g id="1.left-bucket_sy_dcboz81tj677t-fill" stroke="none" fill="#e15e5a"><g><path d="M 10 11.8C 10 10.806 10.806 10 11.8 10L 80.2 10C 81.194 10 82 10.806 82 11.8C 82 20.747 74.747 28 65.8 28L 26.2 28C 17.253 28 10 20.747 10 11.8Z"></path></g></g></g><g id="g-root-tx_complexi_13zv6t01tj69dz-fill" data-item-order="0" data-item-id="tx_complexi_13zv6t01tj69dz" data-item-class="Label Stroke SceneTarget Indexed ColorStrokeBlack" data-item-index="2" data-renderer-id="0" transform="translate(2, 3)"><g id="tx_complexi_13zv6t01tj69dz-fill" stroke="none" fill="#666666"><g><text style="font: 20px Roboto, sans-serif; white-space: pre;"><tspan x="73.46" y="33.75" dominant-baseline="ideographic">Complex </tspan><tspan x="21.67" y="57.75" dominant-baseline="ideographic">Interpretations</tspan></text></g></g></g><g id="g-root-yarn_18it5is1til6v8-fill" data-item-order="0" data-item-id="yarn_18it5is1til6v8" data-item-class="Icon Stroke SceneTarget Indexed ColorStrokeBlack" data-item-index="2" data-renderer-id="0" transform="translate(158, 3)"></g><g id="g-root-chec_mcc3zo1til632-fill" data-item-order="0" data-item-id="chec_mcc3zo1til632" data-item-class="Icon Stroke SceneTarget Indexed ColorStrokeBlack" data-item-index="5" data-renderer-id="0" transform="translate(326, 3)"></g><g id="g-root-tx_auditabl_ddkn5g1tj69e1-fill" data-item-order="0" data-item-id="tx_auditabl_ddkn5g1tj69e1" data-item-class="Label Stroke SceneTarget Indexed ColorStrokeBlack" data-item-index="5" data-renderer-id="0" transform="translate(386, 3)"><g id="tx_auditabl_ddkn5g1tj69e1-fill" stroke="none" fill="#666666"><g><text style="font: 20px Roboto, sans-serif; white-space: pre;"><tspan x="12" y="33.75" dominant-baseline="ideographic">Auditable </tspan><tspan x="12" y="57.75" dominant-baseline="ideographic">Outcomes</tspan></text></g></g></g><g id="g-root-tx_highaccu_1hbbp6c1tj67t2-fill" data-item-order="0" data-item-id="tx_highaccu_1hbbp6c1tj67t2" data-item-class="Label Stroke SceneTarget Indexed ColorStrokeBlack" data-item-index="3" data-renderer-id="0" transform="translate(14, 87)"><g id="tx_highaccu_1hbbp6c1tj67t2-fill" stroke="none" fill="#666666"><g><text style="font: 20px Roboto, sans-serif; white-space: pre;"><tspan x="11.5" y="33.75" dominant-baseline="ideographic">High Accuracy</tspan></text></g></g></g><g id="g-root-hand_1lu9nw41til5ab-fill" data-item-order="0" data-item-id="hand_1lu9nw41til5ab" data-item-class="Icon Stroke SceneTarget Indexed ColorStrokeBlack" data-item-index="3" data-renderer-id="0" transform="translate(158, 75)"></g><g id="g-root-1_znsmd01til4i5-fill" data-item-order="0" data-item-id="1_znsmd01til4i5" data-item-class="Icon Stroke SceneTarget Indexed ColorStrokeBlack" data-item-index="6" data-renderer-id="0" transform="translate(326, 75)"></g><g id="g-root-tx_transpar_m97nec1tj68lc-fill" data-item-order="0" data-item-id="tx_transpar_m97nec1tj68lc" data-item-class="Label Stroke SceneTarget Indexed ColorStrokeBlack" data-item-index="6" data-renderer-id="0" transform="translate(386, 75)"><g id="tx_transpar_m97nec1tj68lc-fill" stroke="none" fill="#666666"><g><text style="font: 20px Roboto, sans-serif; white-space: pre;"><tspan x="12" y="33.75" dominant-baseline="ideographic">Transparent </tspan><tspan x="12" y="57.75" dominant-baseline="ideographic">Decisions</tspan></text></g></g></g><g id="g-root-tx_traditio_2qlv81tj67t6-fill" data-item-order="0" data-item-id="tx_traditio_2qlv81tj67t6" data-item-class="Label Stroke SceneTarget Indexed ColorStrokeBlack" data-item-index="none" data-renderer-id="0" transform="translate(2, 230.99996948242188)"><g id="tx_traditio_2qlv81tj67t6-fill" stroke="none" fill="#666666"><g><text style="font: 20px Roboto, sans-serif; white-space: pre;"><tspan x="11.77" y="33.75" dominant-baseline="ideographic">Traditional AI Models</tspan></text></g></g></g><g id="g-root-tx_explaina_1uo15pw1tj68eb-fill" data-item-order="0" data-item-id="tx_explaina_1uo15pw1tj68eb" data-item-class="Label Stroke SceneTarget Indexed ColorStrokeBlack" data-item-index="none" data-renderer-id="0" transform="translate(368, 230.99996948242188)"><g id="tx_explaina_1uo15pw1tj68eb-fill" stroke="none" fill="#666666"><g><text style="font: 20px Roboto, sans-serif; white-space: pre;"><tspan x="13.44" y="33.75" dominant-baseline="ideographic">Explainable AI</tspan></text></g></g></g><g id="g-root-5.cu_sy_v6lw1tj68st-stroke" data-item-order="-31676" data-item-id="5.cu_sy_v6lw1tj68st" data-item-class="ScenePart Part Indexed Stroke ColorFillGray ColorStrokeBlack" data-item-index="5" data-renderer-id="0" transform="translate(182, 153.99996948242188)"><g id="5.cu_sy_v6lw1tj68st-stroke" fill="none" stroke-linecap="round" stroke-linejoin="round" stroke-miterlimit="4" stroke="#666666" stroke-width="2"><g><path d="M 178 10L 178 24.978C 178 29.395 174.42 32.976 170.003 32.978L 107 33M 10 10L 10 25.025C 10 29.444 13.582 33.025 18 33.025L 82 33.025"></path></g></g></g><g id="g-root-4.cu_sy_v6lw1tj68ss-stroke" data-item-order="-31675" data-item-id="4.cu_sy_v6lw1tj68ss" data-item-class="ScenePart Part Indexed Fill Stroke ColorFillGray ColorStrokeBlack" data-item-index="4" data-renderer-id="0" transform="translate(254, 164.99996948242188)"><g id="4.cu_sy_v6lw1tj68ss-stroke" fill="none" stroke-linecap="round" stroke-linejoin="round" stroke-miterlimit="4" stroke="#2c2c2c" stroke-width="2"><g><path d="M 34.086 22C 34.086 28.627 28.695 34 22.043 34C 15.392 34 10 28.627 10 22C 10 15.373 15.392 10 22.043 10C 28.695 10 34.086 15.373 34.086 22ZM 28 22C 28 25.314 25.314 28 22 28C 18.686 28 16 25.314 16 22C 16 18.686 18.686 16 22 16C 25.314 16 28 18.686 28 22Z"></path></g></g></g><g id="g-root-3.cu_sy_8wi6us1tj6803-stroke" data-item-order="-31673" data-item-id="3.cu_sy_8wi6us1tj6803" data-item-class="ScenePart Part Indexed Fill Stroke ColorFillGray ColorStrokeBlack" data-item-index="3" data-renderer-id="0" transform="translate(218, 186.32601928710938)"><g id="3.cu_sy_8wi6us1tj6803-stroke" fill="none" stroke-linecap="round" stroke-linejoin="round" stroke-miterlimit="4" stroke="#2c2c2c" stroke-width="2"><g><path d="M 22 78.674011L 94 78.674011C 94 78.674011 73.992 28.166011 65.959 10.058011C 63.725 11.952011 61.073 12.997011 58.043 12.997011C 54.986 12.997011 52.288 11.933011 50.072 10.000011C 42.047 28.114011 22 78.674011 22 78.674011ZM 18 78.679011C 13.582 78.679011 10 82.260011 10 86.679011L 10 88.679011C 10 89.783011 10.895 90.679011 12 90.679011L 104 90.679011C 105.105 90.679011 106 89.783011 106 88.679011L 106 86.679011C 106 82.260011 102.418 78.679011 98 78.679011L 18 78.679011Z"></path></g></g><g id="3.cu_sy_8wi6us1tj6803-stroke" fill="none" stroke-linecap="round" stroke-linejoin="round" stroke-miterlimit="4" stroke="#2c2c2c" stroke-width="2"><g><path d="M 58 58.679011L 54 62.679011L 54 71.749011C 55.177 71.068011 56.543 70.679011 58 70.679011C 59.457 70.679011 60.823 71.068011 62 71.749011L 62 62.679011L 58 58.679011ZM 62 71.749011C 60.823 71.068011 59.457 70.679011 58 70.679011C 56.543 70.679011 55.177 71.068011 54 71.749011C 51.609 73.132011 50 75.718011 50 78.679011L 66 78.679011C 66 75.718011 64.391 73.132011 62 71.749011ZM 58 49.679011L 58 55.479011M 78.503 58.176011L 74.404 62.274011M 37.497 58.176011L 41.596 62.274011M 64.747 53.468011L 64.003 56.262011M 44.94 56.078011L 46.4 58.591011M 71.031 56.068011L 69.59 58.572011M 51.224 53.478011L 51.978 56.271011"></path></g></g></g><g id="g-root-2.right-bucket_sy_8wi6us1tj6802-stroke" data-item-order="-31671" data-item-id="2.right-bucket_sy_8wi6us1tj6802" data-item-class="ScenePart Part Indexed Fill Stroke ColorStrokeBlack" data-item-index="2" data-renderer-id="0" transform="translate(314, 134.99996948242188)"><g id="2.right-bucket_sy_8wi6us1tj6802-stroke" fill="none" stroke-linecap="round" stroke-linejoin="round" stroke-miterlimit="4" stroke="#2c2c2c" stroke-width="2"><g><path d="M 10 11.8C 10 10.806 10.806 10 11.8 10L 80.2 10C 81.194 10 82 10.806 82 11.8C 82 20.747 74.747 28 65.8 28L 26.2 28C 17.253 28 10 20.747 10 11.8Z"></path></g></g></g><g id="g-root-1.left-bucket_sy_dcboz81tj677t-stroke" data-item-order="-31669" data-item-id="1.left-bucket_sy_dcboz81tj677t" data-item-class="ScenePart Part Indexed Indexed_1 Fill Stroke ColorStrokeBlack" data-item-index="1" data-renderer-id="0" transform="translate(146, 134.99996948242188)"><g id="1.left-bucket_sy_dcboz81tj677t-stroke" fill="none" stroke-linecap="round" stroke-linejoin="round" stroke-miterlimit="4" stroke="#2c2c2c" stroke-width="2"><g><path d="M 10 11.8C 10 10.806 10.806 10 11.8 10L 80.2 10C 81.194 10 82 10.806 82 11.8C 82 20.747 74.747 28 65.8 28L 26.2 28C 17.253 28 10 20.747 10 11.8Z"></path></g></g></g><g id="g-root-tx_complexi_13zv6t01tj69dz-stroke" data-item-order="0" data-item-id="tx_complexi_13zv6t01tj69dz" data-item-class="Label Stroke SceneTarget Indexed ColorStrokeBlack" data-item-index="2" data-renderer-id="0" transform="translate(2, 3)"></g><g id="g-root-yarn_18it5is1til6v8-stroke" data-item-order="0" data-item-id="yarn_18it5is1til6v8" data-item-class="Icon Stroke SceneTarget Indexed ColorStrokeBlack" data-item-index="2" data-renderer-id="0" transform="translate(158, 3)"><g id="yarn_18it5is1til6v8-stroke" fill="none" stroke-linecap="round" stroke-linejoin="round" stroke-miterlimit="4" stroke="#666666" stroke-width="2"><g><path d="M 11 30.096001C 10.998854 40.367096 19.324902 48.694077 29.596001 48.694077C 39.867096 48.694077 48.193146 40.367096 48.192001 30.096001C 48.193146 19.824902 39.867096 11.497925 29.596001 11.497925C 19.324902 11.497925 10.998854 19.824902 11 30.096001ZM 37.860001 13.434C 39.51276 16.79393 40.368919 20.489574 40.362 24.233999C 40.357357 34.919704 33.422775 44.367935 23.23 47.576M 28.686001 11.522C 32.058949 14.88595 33.944595 19.460342 33.921997 24.223999C 33.923103 34.181374 25.851372 42.254002 15.894 42.254002C 15.768 42.254002 15.642 42.254002 15.516 42.254002M 20.788 13.714C 26.386534 16.406202 28.870363 23.031052 26.421766 28.740334C 23.973169 34.449615 17.461437 37.216446 11.652 35.015999M 47.450001 24.886C 45.240902 27.92831 42.363026 30.423018 39.038002 32.178001M 21.688 34.264C 17.72333 33.269367 14.071318 31.296553 11.066 28.525999M 43.93 18.254C 43.044254 20.116989 41.845543 21.81426 40.386002 23.271999M 26.652 28.525999C 21.320251 28.236233 16.392342 25.594242 13.2 21.313999M 27.282 22.108C 23.152832 21.980049 19.403301 19.665731 17.438 16.032001M 37.77 46.799999C 35.559555 45.873177 33.496956 44.627258 31.647999 43.102001M 43.914001 41.952C 40.98362 41.412998 38.233963 40.151592 35.914001 38.281998M 47.212002 35.813999C 44.115143 35.818794 41.146179 34.579323 38.972 32.374001M 43.158001 42.82L 51.127998 42.82C 54.370533 42.820683 56.998764 45.449467 56.998764 48.692001C 56.998764 51.934532 54.370533 54.563316 51.128002 54.563999L 50.959999 54.563999C 49.20792 54.469067 47.540699 53.779037 46.234001 52.607998C 45.15218 51.529594 43.401821 51.529594 42.32 52.607998C 39.706619 54.950394 36.372299 56.331108 32.868 56.521999L 29.488001 56.521999C 27.082232 56.388145 24.79385 55.438652 23 53.830002C 21.510315 52.350353 19.105686 52.350353 17.616001 53.830002L 14.914 56.521999"></path></g></g></g><g id="g-root-chec_mcc3zo1til632-stroke" data-item-order="0" data-item-id="chec_mcc3zo1til632" data-item-class="Icon Stroke SceneTarget Indexed ColorStrokeBlack" data-item-index="5" data-renderer-id="0" transform="translate(326, 3)"><g id="chec_mcc3zo1til632-stroke" fill="none" stroke-linecap="round" stroke-linejoin="round" stroke-miterlimit="4" stroke="#666666" stroke-width="2"><g><path d="M 42.57143 15.142858L 47.714287 15.142858C 49.607834 15.142858 51.142857 16.677881 51.142857 18.571428L 51.142857 52.857143C 51.142857 54.750694 49.607834 56.285713 47.714287 56.285713L 20.285715 56.285713C 18.392166 56.285713 16.857143 54.750694 16.857143 52.857143L 16.857143 18.571428C 16.857143 16.677881 18.392166 15.142858 20.285715 15.142858L 25.428572 15.142858M 28.857143 11.714286L 39.142857 11.714286C 39.142857 11.714286 42.57143 11.714286 42.57143 15.142858L 42.57143 16.857143C 42.57143 16.857143 42.57143 20.285715 39.142857 20.285715L 28.857143 20.285715C 28.857143 20.285715 25.428572 20.285715 25.428572 16.857143L 25.428572 15.142858C 25.428572 15.142858 25.428572 11.714286 28.857143 11.714286M 25.428572 39.142857L 32.285713 44.285713L 40.857143 30.571428"></path></g></g></g><g id="g-root-tx_auditabl_ddkn5g1tj69e1-stroke" data-item-order="0" data-item-id="tx_auditabl_ddkn5g1tj69e1" data-item-class="Label Stroke SceneTarget Indexed ColorStrokeBlack" data-item-index="5" data-renderer-id="0" transform="translate(386, 3)"></g><g id="g-root-tx_highaccu_1hbbp6c1tj67t2-stroke" data-item-order="0" data-item-id="tx_highaccu_1hbbp6c1tj67t2" data-item-class="Label Stroke SceneTarget Indexed ColorStrokeBlack" data-item-index="3" data-renderer-id="0" transform="translate(14, 87)"></g><g id="g-root-hand_1lu9nw41til5ab-stroke" data-item-order="0" data-item-id="hand_1lu9nw41til5ab" data-item-class="Icon Stroke SceneTarget Indexed ColorStrokeBlack" data-item-index="3" data-renderer-id="0" transform="translate(158, 75)"><g id="hand_1lu9nw41til5ab-stroke" fill="none" stroke-linecap="round" stroke-linejoin="round" stroke-miterlimit="4" stroke="#666666" stroke-width="2"><g><path d="M 29.002001 25.001999C 29.002001 32.733986 35.270016 39.001999 43.002003 39.001999C 50.73399 39.001999 57.002003 32.733986 57.002003 25.002001C 57.002003 17.270014 50.73399 11.002001 43.002003 11.002001C 35.270016 11.002001 29.002001 17.270014 29.002001 25.002001ZM 43.001999 17L 43.001999 25.001999L 49 25M 11 57L 11 37M 11 41L 25 41C 28.313709 41 31 43.686291 31 47L 43 47C 46.313709 47 49 49.686291 49 53L 11 53ZM 31 47L 25 47"></path></g></g></g><g id="g-root-1_znsmd01til4i5-stroke" data-item-order="0" data-item-id="1_znsmd01til4i5" data-item-class="Icon Stroke SceneTarget Indexed ColorStrokeBlack" data-item-index="6" data-renderer-id="0" transform="translate(326, 75)"><g id="1_znsmd01til4i5-stroke" fill="none" stroke-linecap="round" stroke-linejoin="round" stroke-miterlimit="4" stroke="#666666" stroke-width="2"><g><path d="M 34 39.142857L 18.502857 14.32C 18.182844 13.794475 18.169016 13.137754 18.466625 12.599225C 18.764233 12.060695 19.327625 11.722965 19.942858 11.714286L 48.057144 11.714286C 48.672375 11.722965 49.235767 12.060695 49.533379 12.599225C 49.830986 13.137754 49.817158 13.794475 49.497147 14.32ZM 34 39.142857L 34 56.285713M 25.428572 56.285713L 42.57143 56.285713M 22.205713 20.285715L 45.794285 20.285715"></path></g></g></g><g id="g-root-tx_transpar_m97nec1tj68lc-stroke" data-item-order="0" data-item-id="tx_transpar_m97nec1tj68lc" data-item-class="Label Stroke SceneTarget Indexed ColorStrokeBlack" data-item-index="6" data-renderer-id="0" transform="translate(386, 75)"></g><g id="g-root-tx_traditio_2qlv81tj67t6-stroke" data-item-order="0" data-item-id="tx_traditio_2qlv81tj67t6" data-item-class="Label Stroke SceneTarget Indexed ColorStrokeBlack" data-item-index="none" data-renderer-id="0" transform="translate(2, 230.99996948242188)"></g><g id="g-root-tx_explaina_1uo15pw1tj68eb-stroke" data-item-order="0" data-item-id="tx_explaina_1uo15pw1tj68eb" data-item-class="Label Stroke SceneTarget Indexed ColorStrokeBlack" data-item-index="none" data-renderer-id="0" transform="translate(368, 230.99996948242188)"></g></g></g></svg>