<svg width="39" height="38" xmlns="http://www.w3.org/2000/svg" xmlns:xlink="http://www.w3.org/1999/xlink" xml:space="preserve" overflow="hidden"><defs><clipPath id="clip0"><rect x="779" y="135" width="39" height="38"/></clipPath></defs><g clip-path="url(#clip0)" transform="translate(-779 -135)"><path d="M25.7292 11.4792 23.3542 11.4792 23.3542 9.10417 25.7292 9.10417 25.7292 11.4792ZM25.7292 17.8125 23.3542 17.8125 23.3542 15.4375 25.7292 15.4375 25.7292 17.8125ZM25.7292 24.1458 23.3542 24.1458 23.3542 21.7708 25.7292 21.7708 25.7292 24.1458ZM25.7292 30.4792 23.3542 30.4792 23.3542 28.1042 25.7292 28.1042 25.7292 30.4792ZM20.1875 11.4792 17.8125 11.4792 17.8125 9.10417 20.1875 9.10417 20.1875 11.4792ZM20.1875 17.8125 17.8125 17.8125 17.8125 15.4375 20.1875 15.4375 20.1875 17.8125ZM20.1875 24.1458 17.8125 24.1458 17.8125 21.7708 20.1875 21.7708 20.1875 24.1458ZM20.1875 32.8542 17.8125 32.8542 17.8125 28.1042 20.1875 28.1042 20.1875 32.8542ZM14.6458 11.4792 12.2708 11.4792 12.2708 9.10417 14.6458 9.10417 14.6458 11.4792ZM14.6458 17.8125 12.2708 17.8125 12.2708 15.4375 14.6458 15.4375 14.6458 17.8125ZM14.6458 24.1458 12.2708 24.1458 12.2708 21.7708 14.6458 21.7708 14.6458 24.1458ZM14.6458 30.4792 12.2708 30.4792 12.2708 28.1042 14.6458 28.1042 14.6458 30.4792ZM28.5 32.8542 28.5 6.33333 27.3125 6.33333 27.3125 3.95833 26.125 3.95833 26.125 2.375 11.875 2.375 11.875 3.95833 10.6875 3.95833 10.6875 6.33333 9.5 6.33333 9.5 32.8542 7.91667 32.8542 7.91667 35.625 30.0833 35.625 30.0833 32.8542 28.5 32.8542Z" fill="#FFFFFF" transform="matrix(1.02632 0 0 1 779 135)"/></g></svg>