<svg width="41" height="40" xmlns="http://www.w3.org/2000/svg" xmlns:xlink="http://www.w3.org/1999/xlink" xml:space="preserve" overflow="hidden"><defs><clipPath id="clip0"><rect x="853" y="239" width="41" height="40"/></clipPath></defs><g clip-path="url(#clip0)" transform="translate(-853 -239)"><path d="M30.4167 19.5833C29.7083 19.5833 29.1667 19.0417 29.1667 18.3333 29.1667 17.625 29.7083 17.0833 30.4167 17.0833 31.125 17.0833 31.6667 17.625 31.6667 18.3333 31.6667 19.0417 31.125 19.5833 30.4167 19.5833ZM27.9167 22.0833C27.2083 22.0833 26.6667 21.5417 26.6667 20.8333 26.6667 20.125 27.2083 19.5833 27.9167 19.5833 28.625 19.5833 29.1667 20.125 29.1667 20.8333 29.1667 21.5417 28.625 22.0833 27.9167 22.0833ZM25.4167 19.5833C24.7083 19.5833 24.1667 19.0417 24.1667 18.3333 24.1667 17.625 24.7083 17.0833 25.4167 17.0833 26.125 17.0833 26.6667 17.625 26.6667 18.3333 26.6667 19.0417 26.125 19.5833 25.4167 19.5833ZM27.9167 14.5833C28.625 14.5833 29.1667 15.125 29.1667 15.8333 29.1667 16.5417 28.625 17.0833 27.9167 17.0833 27.2083 17.0833 26.6667 16.5417 26.6667 15.8333 26.6667 15.125 27.2083 14.5833 27.9167 14.5833ZM14.5833 19.1667 12.9167 19.1667 12.9167 20.8333C12.9167 21.2917 12.5417 21.6667 12.0833 21.6667 11.625 21.6667 11.25 21.2917 11.25 20.8333L11.25 19.1667 9.58333 19.1667C9.125 19.1667 8.75 18.7917 8.75 18.3333 8.75 17.875 9.125 17.5 9.58333 17.5L11.25 17.5 11.25 15.8333C11.25 15.375 11.625 15 12.0833 15 12.5417 15 12.9167 15.375 12.9167 15.8333L12.9167 17.5 14.5833 17.5C15.0417 17.5 15.4167 17.875 15.4167 18.3333 15.4167 18.7917 15.0417 19.1667 14.5833 19.1667ZM29.5833 8.33333C24.6667 8.33333 27.1667 10.8333 20 10.8333 12.8333 10.8333 15.3333 8.33333 10.4167 8.33333 5.16667 8.33333-1.5 31.6667 5.41667 31.6667 11.7917 31.6667 9.375 25.8333 20 25.8333 30.625 25.8333 28.2083 31.6667 34.5833 31.6667 41.5 31.6667 34.8333 8.33333 29.5833 8.33333Z" fill="#FFFFFF" transform="matrix(1.025 0 0 1 853 239)"/></g></svg>