<svg width="38" height="38" xmlns="http://www.w3.org/2000/svg" xmlns:xlink="http://www.w3.org/1999/xlink" xml:space="preserve" overflow="hidden"><defs><clipPath id="clip0"><rect x="518" y="104" width="38" height="38"/></clipPath></defs><g clip-path="url(#clip0)" transform="translate(-518 -104)"><path d="M532.646 119.865C532.859 119.644 532.978 119.349 532.978 119.042 532.98 118.73 532.856 118.43 532.634 118.21L528.881 114.454C528.66 114.232 528.36 114.107 528.046 114.106 527.734 114.108 527.436 114.233 527.215 114.454L526.799 114.874 532.214 120.277Z" fill="#FFFFFF"/><path d="M538.089 129.476C537.862 129.706 537.491 129.71 537.26 129.483 537.258 129.48 537.256 129.478 537.253 129.476L530.524 122.747C530.293 122.515 530.293 122.139 530.524 121.908L531.363 121.092 525.968 115.701C525.62 116.049 525.279 116.39 525.058 116.599 524.515 117.107 524.19 117.805 524.151 118.547 524.102 119.757 524.318 120.964 524.785 122.082 525.231 123.084 525.779 124.037 526.419 124.928 528.646 128.269 531.463 131.177 534.732 133.509 535.278 133.913 535.852 134.277 536.45 134.598 537.801 135.308 539.282 135.739 540.804 135.865 541.845 135.94 542.864 135.54 543.575 134.776L544.319 134.032 538.904 128.637Z" fill="#FFFFFF"/><path d="M545.562 131.119 541.809 127.354C541.347 126.896 540.602 126.896 540.139 127.354L539.743 127.782 545.142 133.205 545.562 132.809C546.02 132.346 546.02 131.601 545.562 131.138Z" fill="#FFFFFF"/><path d="M542.597 123.792 541.014 123.792C540.842 121.521 539.217 119.624 537 119.105L537 117.49C540.098 118.044 542.412 120.65 542.597 123.792Z" fill="#FFFFFF"/><path d="M546.381 123C546.381 123.265 546.381 123.53 546.346 123.792L544.762 123.792C544.789 123.529 544.803 123.264 544.802 123 544.795 118.694 541.306 115.206 537 115.202L537 113.619C542.179 113.623 546.377 117.821 546.381 123Z" fill="#FFFFFF"/><path d="M550.458 123C550.458 123.265 550.458 123.53 550.431 123.792L548.847 123.792C548.847 123.53 548.879 123.265 548.879 123 548.879 116.66 543.74 111.521 537.4 111.521 537.398 111.521 537.397 111.521 537.396 111.521 537.261 111.521 537.131 111.521 537 111.521L537 109.938 537.396 109.938C544.61 109.938 550.458 115.786 550.458 123Z" fill="#FFFFFF"/></g></svg>