<svg width="35" height="35" xmlns="http://www.w3.org/2000/svg" xmlns:xlink="http://www.w3.org/1999/xlink" xml:space="preserve" overflow="hidden"><defs><clipPath id="clip0"><rect x="713" y="107" width="35" height="35"/></clipPath></defs><g clip-path="url(#clip0)" transform="translate(-713 -107)"><path d="M726.854 130.333 734.146 130.333C734.766 130.333 735.24 130.807 735.24 131.427 735.24 132.047 734.766 132.521 734.146 132.521L726.854 132.521C726.234 132.521 725.76 132.047 725.76 131.427 725.76 130.807 726.234 130.333 726.854 130.333Z" fill="#FFFFFF"/><path d="M726.854 133.979 734.146 133.979C734.766 133.979 735.24 134.453 735.24 135.073 735.24 135.693 734.766 136.167 734.146 136.167L726.854 136.167C726.234 136.167 725.76 135.693 725.76 135.073 725.76 134.453 726.234 133.979 726.854 133.979Z" fill="#FFFFFF"/><path d="M728.13 137.625C728.24 138.865 729.26 139.812 730.5 139.812 731.74 139.812 732.76 138.865 732.87 137.625L728.13 137.625Z" fill="#FFFFFF"/><path d="M730.5 109.188C730.5 109.188 730.5 109.188 730.5 109.188 730.5 109.188 730.5 109.188 730.5 109.188 725.323 109.224 721.13 113.38 721.021 118.557L721.021 118.885C721.057 120.016 721.276 121.109 721.677 122.167 722.078 123.151 722.625 124.062 723.318 124.865 724.193 125.812 725.141 127.672 725.542 128.474 725.651 128.729 725.906 128.875 726.198 128.875L734.802 128.875C735.094 128.875 735.349 128.729 735.458 128.474 735.859 127.672 736.807 125.812 737.682 124.865 738.375 124.062 738.958 123.151 739.323 122.167 739.724 121.109 739.943 120.016 739.979 118.885L739.979 118.557C739.87 113.38 735.677 109.224 730.5 109.188ZM737.792 118.849C737.755 119.724 737.573 120.599 737.281 121.401 736.99 122.13 736.589 122.823 736.042 123.406 735.203 124.427 734.474 125.521 733.927 126.688L730.5 126.688 727.109 126.688C726.526 125.521 725.797 124.427 724.995 123.406 724.484 122.823 724.047 122.13 723.755 121.401 723.427 120.599 723.281 119.724 723.245 118.849L723.245 118.557C723.318 114.583 726.562 111.375 730.536 111.339L730.536 111.339 730.536 111.339C730.536 111.339 730.536 111.339 730.536 111.339 730.536 111.339 730.536 111.339 730.536 111.339L730.536 111.339 730.536 111.339C734.51 111.375 737.755 114.547 737.828 118.557L737.828 118.849Z" fill="#FFFFFF"/></g></svg>