<svg width="41" height="41" xmlns="http://www.w3.org/2000/svg" xmlns:xlink="http://www.w3.org/1999/xlink" xml:space="preserve" overflow="hidden"><defs><clipPath id="clip0"><rect x="352" y="341" width="41" height="41"/></clipPath></defs><g clip-path="url(#clip0)" transform="translate(-352 -341)"><path d="M357.979 373.458 387.021 373.458 387.021 376.021 357.979 376.021Z" fill="#FFFFFF"/><path d="M357.979 346.979 361.396 346.979 361.396 371.75 357.979 371.75Z" fill="#FFFFFF"/><path d="M379.333 368.333 387.021 368.333 387.021 371.75 379.333 371.75Z" fill="#FFFFFF"/><path d="M379.333 353.812 387.021 353.812 387.021 366.625 379.333 366.625Z" fill="#FFFFFF"/><path d="M379.333 348.688 387.021 348.688 387.021 352.104 379.333 352.104Z" fill="#FFFFFF"/><path d="M374.208 356.375C373.739 356.375 373.354 355.991 373.354 355.521 373.354 355.051 373.739 354.667 374.208 354.667 374.678 354.667 375.062 355.051 375.062 355.521 375.062 355.991 374.678 356.375 374.208 356.375ZM374.208 370.042C373.739 370.042 373.354 369.657 373.354 369.188 373.354 368.718 373.739 368.333 374.208 368.333 374.678 368.333 375.062 368.718 375.062 369.188 375.062 369.657 374.678 370.042 374.208 370.042ZM377.625 352.958 370.792 352.958 370.792 371.75 377.625 371.75 377.625 352.958Z" fill="#FFFFFF"/><path d="M367.375 353.812 364.812 353.812 364.812 351.25 367.375 351.25 367.375 353.812ZM369.083 349.542 363.104 349.542 363.104 371.75 369.083 371.75 369.083 349.542Z" fill="#FFFFFF"/></g></svg>