<svg width="36" height="35" xmlns="http://www.w3.org/2000/svg" xmlns:xlink="http://www.w3.org/1999/xlink" xml:space="preserve" overflow="hidden"><defs><clipPath id="clip0"><rect x="358" y="405" width="36" height="35"/></clipPath></defs><g clip-path="url(#clip0)" transform="translate(-358 -405)"><path d="M20.4167 18.4115C20.4167 19.2135 19.7604 19.8698 18.9583 19.8698L17.5 19.8698C16.6979 19.8698 16.0417 19.2135 16.0417 18.4115L16.0417 17.6823 3.64583 17.6823 3.64583 27.8906C3.64583 28.6927 4.30208 29.349 5.10417 29.349L31.3542 29.349C32.1562 29.349 32.8125 28.6927 32.8125 27.8906L32.8125 17.6823 20.4167 17.6823 20.4167 18.4115Z" fill="#FFFFFF" transform="matrix(1.02857 0 0 1 358 405)"/><path d="M31.3542 8.93229 24.0625 8.93229 24.0625 6.5625C24.0625 5.14063 22.9323 4.01042 21.5104 4.01042L14.9479 4.01042C13.526 4.01042 12.3958 5.14063 12.3958 6.5625L12.3958 8.93229 5.10417 8.93229C4.30208 8.93229 3.64583 9.58854 3.64583 10.3906L3.64583 16.224 16.0417 16.224 16.0417 15.4948 20.4167 15.4948 20.4167 16.224 32.8125 16.224 32.8125 10.3906C32.8125 9.58854 32.1562 8.93229 31.3542 8.93229M14.5833 8.93229 14.5833 6.5625C14.5833 6.34375 14.7292 6.19792 14.9479 6.19792L21.5104 6.19792C21.7292 6.19792 21.875 6.34375 21.875 6.5625L21.875 8.93229 14.5833 8.93229Z" fill="#FFFFFF" transform="matrix(1.02857 0 0 1 358 405)"/></g></svg>