<svg width="37" height="37" xmlns="http://www.w3.org/2000/svg" xmlns:xlink="http://www.w3.org/1999/xlink" xml:space="preserve" overflow="hidden"><defs><clipPath id="clip0"><rect x="413" y="172" width="37" height="37"/></clipPath></defs><g clip-path="url(#clip0)" transform="translate(-413 -172)"><path d="M443.255 178.745 442.87 175.276 438.63 179.516 438.861 181.52 432.695 187.686C432.155 187.417 431.539 187.224 430.883 187.224 428.764 187.224 427.029 188.958 427.029 191.078 427.029 193.198 428.764 194.932 430.883 194.932 433.003 194.932 434.737 193.198 434.737 191.078 434.737 190.423 434.583 189.845 434.314 189.305L440.48 183.139 442.484 183.37 446.724 179.13 443.255 178.745Z" fill="#FFFFFF"/><path d="M443.564 184.449 443.062 184.989 442.33 184.911 441.521 184.796C442.6 186.646 443.255 188.766 443.255 191.078 443.255 197.861 437.705 203.411 430.922 203.411 424.139 203.411 418.589 197.861 418.589 191.078 418.589 184.295 424.139 178.745 430.922 178.745 433.196 178.745 435.354 179.361 437.204 180.479L437.127 179.708 437.011 178.938 437.551 178.398 437.821 178.128C435.74 177.049 433.427 176.432 430.922 176.432 422.828 176.432 416.276 182.984 416.276 191.078 416.276 199.172 422.828 205.724 430.922 205.724 439.016 205.724 445.568 199.172 445.568 191.078 445.568 188.573 444.951 186.26 443.833 184.218L443.564 184.449Z" fill="#FFFFFF"/><path d="M437.358 188.457C437.705 189.267 437.859 190.153 437.859 191.078 437.859 194.894 434.737 198.016 430.922 198.016 427.106 198.016 423.984 194.894 423.984 191.078 423.984 187.262 427.106 184.141 430.922 184.141 431.847 184.141 432.733 184.333 433.543 184.642L435.277 182.907C433.967 182.214 432.502 181.828 430.922 181.828 425.834 181.828 421.672 185.991 421.672 191.078 421.672 196.166 425.834 200.328 430.922 200.328 436.009 200.328 440.172 196.166 440.172 191.078 440.172 189.498 439.786 188.033 439.093 186.723L437.358 188.457Z" fill="#FFFFFF"/></g></svg>