<svg width="39" height="39" xmlns="http://www.w3.org/2000/svg" xmlns:xlink="http://www.w3.org/1999/xlink" xml:space="preserve" overflow="hidden"><defs><clipPath id="clip0"><rect x="834" y="485" width="39" height="39"/></clipPath></defs><g clip-path="url(#clip0)" transform="translate(-834 -485)"><path d="M853.614 517.5C855.395 516.094 857.095 514.587 858.704 512.987 861.037 510.764 863.1 508.274 864.851 505.568 866.476 502.952 868.028 499.556 866.959 496.452 866.094 493.885 863.693 491.703 860.934 491.439 857.449 491.094 854.926 494.043 853.5 496.867 852.196 494.283 850.039 491.618 846.923 491.423 844.156 491.252 841.581 493.198 840.39 495.615 838.899 498.65 840.114 502.062 841.682 504.788 843.307 507.632 845.468 510.131 847.752 512.442 849.551 514.284 851.472 516.003 853.5 517.589ZM847 503.688 848.219 500.031 848.942 497.858C849.129 497.293 849.417 496.538 850.197 496.862 850.668 497.062 850.697 497.549 850.778 497.976L851.115 499.775 852.09 504.975 852.736 508.428 855.093 502.197 855.612 500.823C855.763 500.417 855.917 500.011 856.425 499.966 857.071 499.901 857.262 500.454 857.404 500.941L857.904 502.656 858.895 506.064 859.874 504.987C860.187 504.578 860.54 504.199 860.926 503.858 861.333 503.574 862.084 503.704 862.551 503.704L864.062 503.704C863.762 504.244 863.429 504.788 863.067 505.329L861.747 505.329C860.882 506.283 860.053 507.299 859.135 508.205 858.847 508.549 858.334 508.595 857.99 508.307 857.922 508.25 857.864 508.183 857.818 508.108 857.73 507.933 857.666 507.747 857.628 507.555L856.949 505.235 856.397 503.334C855.361 506.068 854.365 508.806 853.297 511.528 853.237 511.75 853.107 511.946 852.927 512.089 852.557 512.343 852.052 512.249 851.797 511.879 851.733 511.785 851.688 511.677 851.668 511.565 851.574 511.191 851.526 510.801 851.453 510.427L850.425 504.943 849.657 500.844 848.511 504.285C848.337 504.797 848.198 505.296 847.54 505.329 846.943 505.357 846.342 505.329 845.749 505.329L843.921 505.329C843.563 504.788 843.226 504.244 842.925 503.704Z" fill="#FFFFFF"/></g></svg>