<svg width="39" height="39" xmlns="http://www.w3.org/2000/svg" xmlns:xlink="http://www.w3.org/1999/xlink" xml:space="preserve" overflow="hidden"><defs><clipPath id="clip0"><rect x="371" y="221" width="39" height="39"/></clipPath></defs><g clip-path="url(#clip0)" transform="translate(-371 -221)"><path d="M387.656 247.812C387.656 249.271 386.474 250.453 385.016 250.453 383.557 250.453 382.375 249.271 382.375 247.812 382.375 246.354 383.557 245.172 385.016 245.172 386.474 245.172 387.656 246.354 387.656 247.812Z" fill="#FFFFFF"/><path d="M403.906 247.812C403.906 249.271 402.724 250.453 401.266 250.453 399.807 250.453 398.625 249.271 398.625 247.812 398.625 246.354 399.807 245.172 401.266 245.172 402.724 245.172 403.906 246.354 403.906 247.812Z" fill="#FFFFFF"/><path d="M404.755 240.906 401.912 240.906C401.55 240.914 401.202 240.766 400.957 240.5L396.659 236.206C396.162 235.638 395.465 235.284 394.713 235.219L384.703 235.219C383.953 235.291 383.258 235.643 382.757 236.206L378.52 240.5C378.256 240.76 378.109 241.117 378.113 241.487L378.113 243.75 376.082 243.75C375.746 243.752 375.471 243.481 375.469 243.145 375.469 243.143 375.469 243.142 375.469 243.141L375.469 236.108C376.457 235.759 377.112 234.817 377.094 233.768L377.094 232.375 376.281 232.375 376.281 230.75C376.281 230.526 376.099 230.344 375.875 230.344 375.651 230.344 375.469 230.526 375.469 230.75L375.469 232.375 374.25 232.375 374.25 230.75C374.25 230.526 374.068 230.344 373.844 230.344 373.619 230.344 373.438 230.526 373.438 230.75L373.438 232.375 372.625 232.375 372.625 233.768C372.607 234.817 373.261 235.759 374.25 236.108L374.25 243.141C374.252 244.149 375.069 244.967 376.078 244.969L378.109 244.969 378.109 244.969C378.114 246.476 379.336 247.697 380.843 247.699L381.185 247.699C381.178 245.63 382.849 243.948 384.918 243.941 384.926 243.941 384.934 243.941 384.943 243.941 387.047 243.979 388.725 245.708 388.7 247.812L397.581 247.812C397.567 245.716 399.243 243.999 401.339 243.961 403.407 243.954 405.09 245.626 405.097 247.695 405.097 247.703 405.097 247.711 405.097 247.719L406.807 247.719C407.56 247.717 408.17 247.107 408.172 246.354L408.172 244.323C408.176 242.44 406.654 240.911 404.772 240.906 404.766 240.906 404.761 240.906 404.755 240.906ZM388.875 240.906 380.055 240.906 383.748 237.197C384.046 236.95 384.426 236.824 384.812 236.844L388.875 236.844ZM390.094 240.906 390.094 236.844 394.745 236.844C395.101 236.815 395.452 236.945 395.704 237.197L399.393 240.906Z" fill="#FFFFFF"/></g></svg>