<svg width="43" height="43" xmlns="http://www.w3.org/2000/svg" xmlns:xlink="http://www.w3.org/1999/xlink" xml:space="preserve" overflow="hidden"><defs><clipPath id="clip0"><rect x="579" y="90" width="43" height="43"/></clipPath></defs><g clip-path="url(#clip0)" transform="translate(-579 -90)"><path d="M613.042 116.875 587.958 116.875 587.958 101.646 613.042 101.646ZM615.729 100.75C615.729 99.7605 614.927 98.9583 613.938 98.9583L587.062 98.9583C586.073 98.9583 585.271 99.7605 585.271 100.75L585.271 119.562 615.729 119.562Z" fill="#FFFFFF"/><path d="M603.188 121.354 603.188 121.802C603.203 122.034 603.027 122.235 602.795 122.25 602.777 122.251 602.758 122.251 602.74 122.25L598.26 122.25C598.028 122.265 597.828 122.09 597.812 121.858 597.811 121.839 597.811 121.821 597.812 121.802L597.812 121.354 579.896 121.354 579.896 122.25C579.896 123.239 580.698 124.042 581.688 124.042L619.312 124.042C620.302 124.042 621.104 123.239 621.104 122.25L621.104 121.354Z" fill="#FFFFFF"/><path d="M600.5 102.99C597.037 102.99 594.229 105.797 594.229 109.26 594.229 112.724 597.037 115.531 600.5 115.531 603.963 115.531 606.771 112.724 606.771 109.26 606.771 105.797 603.963 102.99 600.5 102.99ZM600.948 109.708 603.004 109.708C602.77 111.252 602.05 112.682 600.948 113.789ZM600.948 108.812 600.948 104.728C602.051 105.836 602.771 107.267 603.004 108.812ZM600.052 108.812 598.063 108.812C598.286 107.293 598.982 105.883 600.052 104.781ZM600.052 109.708 600.052 113.74C598.984 112.637 598.288 111.227 598.063 109.708ZM597.163 108.812 595.246 108.812C595.445 106.466 597.177 104.537 599.488 104.087 598.211 105.361 597.393 107.023 597.163 108.812ZM597.163 109.708C597.393 111.501 598.214 113.165 599.497 114.438 597.182 113.989 595.447 112.058 595.246 109.708ZM603.904 109.708 605.754 109.708C605.558 112.028 603.862 113.944 601.584 114.42 602.86 113.152 603.677 111.493 603.904 109.708ZM603.904 108.812C603.675 107.032 602.864 105.377 601.597 104.105 603.869 104.586 605.558 106.499 605.754 108.812Z" fill="#FFFFFF"/></g></svg>