<svg width="41" height="40" xmlns="http://www.w3.org/2000/svg" xmlns:xlink="http://www.w3.org/1999/xlink" xml:space="preserve" overflow="hidden"><defs><clipPath id="clip0"><rect x="867" y="361" width="41" height="40"/></clipPath></defs><g clip-path="url(#clip0)" transform="translate(-867 -361)"><path d="M20.8333 28.8333 20.8333 31.0417 19.1667 31.0417 19.1667 28.8333C18.2083 28.5 17.5 27.5833 17.5 26.4583 17.5 25.0833 18.625 23.9583 20 23.9583 21.375 23.9583 22.5 25.0833 22.5 26.4583 22.5 27.5417 21.7917 28.4583 20.8333 28.8333ZM13.75 13.5417C13.75 10.0833 16.5417 7.29167 20 7.29167 23.4583 7.29167 26.25 10.0833 26.25 13.5417L26.25 18.1667 20 17.7083 13.75 18.1667 13.75 13.5417ZM28.75 18.3333 28.75 13.5417C28.75 8.70833 24.8333 4.79167 20 4.79167 15.1667 4.79167 11.25 8.70833 11.25 13.5417L11.25 18.3333 8.33333 18.5417 8.33333 34.375 20 35.2083 31.6667 34.375 31.6667 18.5417 28.75 18.3333Z" fill="#FFFFFF" transform="matrix(1.025 0 0 1 867 361)"/></g></svg>