<svg width="35" height="34" xmlns="http://www.w3.org/2000/svg" xmlns:xlink="http://www.w3.org/1999/xlink" xml:space="preserve" overflow="hidden"><defs><clipPath id="clip0"><rect x="421" y="511" width="35" height="34"/></clipPath></defs><g clip-path="url(#clip0)" transform="translate(-421 -511)"><path d="M32.3 10.5188 27.1292 5.45417C26.9875 5.3125 26.8104 5.20625 26.6333 5.13542L21.8167 3.32917C21.5688 3.22292 21.25 3.29375 21.0729 3.50625 20.0458 4.56875 18.5938 5.24167 17 5.24167 15.4062 5.24167 13.9542 4.56875 12.9271 3.50625 12.75 3.29375 12.4312 3.25833 12.1833 3.32917L7.36667 5.13542C7.18958 5.20625 7.0125 5.3125 6.87083 5.45417L1.7 10.5188C1.41667 10.8375 1.45208 11.3333 1.77083 11.5813L6.51667 15.1583C6.8 15.3708 7.18958 15.3708 7.4375 15.1229L9.20833 13.4583 9.20833 30.7062 24.7917 30.7062 24.7917 13.4937 26.5625 15.1583C26.8104 15.4062 27.2354 15.4062 27.4833 15.1938L32.2292 11.5813C32.5479 11.3333 32.5833 10.8375 32.3 10.5188Z" fill="#FFFFFF" transform="matrix(1.02941 0 0 1 421 511)"/></g></svg>