<?xml version="1.0" encoding="utf-8" standalone="yes"?>
<!DOCTYPE svg PUBLIC "-//W3C//DTD SVG 1.1//EN" "http://www.w3.org/Graphics/SVG/1.1/DTD/svg11.dtd">
<svg width="531" height="398" viewBox="0 0 531 398" style="fill:none;stroke:none;fill-rule:evenodd;clip-rule:evenodd;stroke-linecap:round;stroke-linejoin:round;stroke-miterlimit:1.5;" version="1.1" xmlns="http://www.w3.org/2000/svg" xmlns:xlink="http://www.w3.org/1999/xlink"><style id="fontImports">@import url("https://fonts.googleapis.com/css2?family=Roboto:wght@400;700&amp;display=block");</style><rect id="" x="0" y="0" width="530.001" height="398" style="fill: #ffffff;"></rect><g id="items" style="isolation: isolate"><g id="blend" style="mix-blend-mode:multiply"><g id="g-root-3.cu_sy_8znfz61rkqs5p-fill" data-item-order="-187483" data-item-id="3.cu_sy_8znfz61rkqs5p" data-item-class="ScenePart Part Indexed Stroke" data-item-index="3" data-renderer-id="0" transform="translate(3, 110.9990234375)"></g><g id="g-root-2.cu_sy_8znfz61rkqs5o-fill" data-item-order="-187481" data-item-id="2.cu_sy_8znfz61rkqs5o" data-item-class="ScenePart Part Indexed Stroke" data-item-index="2" data-renderer-id="0" transform="translate(255.00047302246094, 3)"></g><g id="g-root-1.cu_sy_hunz4y1rkquir-fill" data-item-order="-187480" data-item-id="1.cu_sy_hunz4y1rkquir" data-item-class="ScenePart Part Indexed Indexed_1 Fill Stroke" data-item-index="1" data-renderer-id="0" transform="translate(225.00050354003906, 27)"><g id="1.cu_sy_hunz4y1rkquir-fill" stroke="none" fill="#f0f0f0"><g><path d="M 10 34L 28 10L 28 18L 52 18L 52 10L 70 34L 52 58L 52 50L 28 50L 28 58L 10 34Z"></path></g></g></g><g id="g-root-tx_pros_dju9pe1rkquq2-fill" data-item-order="0" data-item-id="tx_pros_dju9pe1rkquq2" data-item-class="Label Stroke SceneTarget" data-item-index="none" data-renderer-id="0" transform="translate(63.00050354003906, 39)"><g id="tx_pros_dju9pe1rkquq2-fill" stroke="none" fill="#484848"><g><text style="font: 20px Roboto, sans-serif; white-space: pre;"><tspan x="12" y="33.75" dominant-baseline="ideographic">Pros</tspan></text></g></g></g><g id="g-root-tx_cons_mfh9ya1rkqtxd-fill" data-item-order="0" data-item-id="tx_cons_mfh9ya1rkqtxd" data-item-class="Label Stroke SceneTarget" data-item-index="none" data-renderer-id="0" transform="translate(363.00048828125, 39)"><g id="tx_cons_mfh9ya1rkqtxd-fill" stroke="none" fill="#484848"><g><text style="font: 20px Roboto, sans-serif; white-space: pre;"><tspan x="12" y="33.75" dominant-baseline="ideographic">Cons</tspan></text></g></g></g><g id="g-root-brai_1lxetuq1rks6iu-fill" data-item-order="0" data-item-id="brai_1lxetuq1rks6iu" data-item-class="Icon Stroke SceneTarget Indexed Indexed_1" data-item-index="1" data-renderer-id="0" transform="translate(3.0004730224609375, 147)"></g><g id="g-root-tx_solvesco_qvas2q1rkqt54-fill" data-item-order="0" data-item-id="tx_solvesco_qvas2q1rkqt54" data-item-class="Label Stroke SceneTarget Indexed Indexed_1" data-item-index="1" data-renderer-id="0" transform="translate(63.00050354003906, 147)"><g id="tx_solvesco_qvas2q1rkqt54-fill" stroke="none" fill="#484848"><g><text style="font: 20px Roboto, sans-serif; white-space: pre;"><tspan x="12" y="33.75" dominant-baseline="ideographic">Solves complex </tspan><tspan x="12" y="57.75" dominant-baseline="ideographic">problems</tspan></text></g></g></g><g id="g-root-ques_1q6d40y1rktlhd-fill" data-item-order="0" data-item-id="ques_1q6d40y1rktlhd" data-item-class="Icon Stroke SceneTarget Indexed" data-item-index="101" data-renderer-id="0" transform="translate(303.00048828125, 147)"></g><g id="g-root-tx_highcomp_1lxetuq1rkqscr-fill" data-item-order="0" data-item-id="tx_highcomp_1lxetuq1rkqscr" data-item-class="Label Stroke SceneTarget Indexed" data-item-index="101" data-renderer-id="0" transform="translate(363.00048828125, 135)"><g id="tx_highcomp_1lxetuq1rkqscr-fill" stroke="none" fill="#484848"><g><text style="font: 20px Roboto, sans-serif; white-space: pre;"><tspan x="12" y="33.75" dominant-baseline="ideographic">High </tspan><tspan x="12" y="57.75" dominant-baseline="ideographic">computational </tspan><tspan x="12" y="81.75" dominant-baseline="ideographic">needs</tspan></text></g></g></g><g id="g-root-chec_4mybaa1rks7ik-fill" data-item-order="0" data-item-id="chec_4mybaa1rks7ik" data-item-class="Icon Stroke SceneTarget Indexed" data-item-index="2" data-renderer-id="0" transform="translate(3.00048828125, 231)"></g><g id="g-root-tx_reducesh_18lybhe1rkqtxp-fill" data-item-order="0" data-item-id="tx_reducesh_18lybhe1rkqtxp" data-item-class="Label Stroke SceneTarget Indexed" data-item-index="2" data-renderer-id="0" transform="translate(63.00050354003906, 231)"><g id="tx_reducesh_18lybhe1rkqtxp-fill" stroke="none" fill="#484848"><g><text style="font: 20px Roboto, sans-serif; white-space: pre;"><tspan x="12" y="33.75" dominant-baseline="ideographic">Reduces </tspan><tspan x="12" y="57.75" dominant-baseline="ideographic">human error</tspan></text></g></g></g><g id="g-root-2_v98uxu1rks7ii-fill" data-item-order="0" data-item-id="2_v98uxu1rks7ii" data-item-class="Icon Stroke SceneTarget Indexed" data-item-index="102" data-renderer-id="0" transform="translate(303.00048828125, 231)"></g><g id="g-root-tx_ethicalc_zp2d2a1rkqtc1-fill" data-item-order="0" data-item-id="tx_ethicalc_zp2d2a1rkqtc1" data-item-class="Label Stroke SceneTarget Indexed" data-item-index="102" data-renderer-id="0" transform="translate(363.00048828125, 231)"><g id="tx_ethicalc_zp2d2a1rkqtc1-fill" stroke="none" fill="#484848"><g><text style="font: 20px Roboto, sans-serif; white-space: pre;"><tspan x="12" y="33.75" dominant-baseline="ideographic">Ethical </tspan><tspan x="12" y="57.75" dominant-baseline="ideographic">concerns</tspan></text></g></g></g><g id="g-root-spee_4g33c21rktn9c-fill" data-item-order="0" data-item-id="spee_4g33c21rktn9c" data-item-class="Icon Stroke SceneTarget Indexed" data-item-index="3" data-renderer-id="0" transform="translate(3.00048828125, 315)"></g><g id="g-root-tx_increase_1hhlbqa1rkqt50-fill" data-item-order="0" data-item-id="tx_increase_1hhlbqa1rkqt50" data-item-class="Label Stroke SceneTarget Indexed" data-item-index="3" data-renderer-id="0" transform="translate(63.00050354003906, 315)"><g id="tx_increase_1hhlbqa1rkqt50-fill" stroke="none" fill="#484848"><g><text style="font: 20px Roboto, sans-serif; white-space: pre;"><tspan x="12" y="33.75" dominant-baseline="ideographic">Increases </tspan><tspan x="12" y="57.75" dominant-baseline="ideographic">efficiency</tspan></text></g></g></g><g id="g-root-2_dbq3ky1rktlov-fill" data-item-order="0" data-item-id="2_dbq3ky1rktlov" data-item-class="Icon Stroke SceneTarget Indexed" data-item-index="103" data-renderer-id="0" transform="translate(303.00048828125, 315)"></g><g id="g-root-tx_potentia_1hfpwgy1rkqu4o-fill" data-item-order="0" data-item-id="tx_potentia_1hfpwgy1rkqu4o" data-item-class="Label Stroke SceneTarget Indexed" data-item-index="103" data-renderer-id="0" transform="translate(363.00048828125, 315)"><g id="tx_potentia_1hfpwgy1rkqu4o-fill" stroke="none" fill="#484848"><g><text style="font: 20px Roboto, sans-serif; white-space: pre;"><tspan x="12" y="33.75" dominant-baseline="ideographic">Potential </tspan><tspan x="12" y="57.75" dominant-baseline="ideographic">misuse</tspan></text></g></g></g><g id="g-root-3.cu_sy_8znfz61rkqs5p-stroke" data-item-order="-187483" data-item-id="3.cu_sy_8znfz61rkqs5p" data-item-class="ScenePart Part Indexed Stroke" data-item-index="3" data-renderer-id="0" transform="translate(3, 110.9990234375)"><g id="3.cu_sy_8znfz61rkqs5p-stroke" fill="none" stroke-linecap="round" stroke-linejoin="round" stroke-miterlimit="4" stroke="#484848" stroke-width="2"><g><path d="M 514.000504 9.999976L 10.000004 10.000976"></path></g></g></g><g id="g-root-2.cu_sy_8znfz61rkqs5o-stroke" data-item-order="-187481" data-item-id="2.cu_sy_8znfz61rkqs5o" data-item-class="ScenePart Part Indexed Stroke" data-item-index="2" data-renderer-id="0" transform="translate(255.00047302246094, 3)"><g id="2.cu_sy_8znfz61rkqs5o-stroke" fill="none" stroke-linecap="round" stroke-linejoin="round" stroke-miterlimit="4" stroke="#484848" stroke-width="2"><g><path d="M 10.000031 298L 10.000031 214M 10.000031 382L 10.000031 298M 10.000031 214L 10.000031 118M 10.000031 118L 10.000031 80M 10.000031 36L 10.000031 10"></path></g></g></g><g id="g-root-1.cu_sy_hunz4y1rkquir-stroke" data-item-order="-187480" data-item-id="1.cu_sy_hunz4y1rkquir" data-item-class="ScenePart Part Indexed Indexed_1 Fill Stroke" data-item-index="1" data-renderer-id="0" transform="translate(225.00050354003906, 27)"><g id="1.cu_sy_hunz4y1rkquir-stroke" fill="none" stroke-linecap="round" stroke-linejoin="round" stroke-miterlimit="4" stroke="#484848" stroke-width="2"><g><path d="M 10 34L 28 10L 28 18L 52 18L 52 10L 70 34L 52 58L 52 50L 28 50L 28 58L 10 34Z"></path></g></g><g id="1.cu_sy_hunz4y1rkquir-stroke" fill="none" stroke-linecap="round" stroke-linejoin="round" stroke-miterlimit="4" stroke="#484848" stroke-width="2"><g><path d="M 30.599 28.373L 34.999 39.48M 35.199 39.097L 39.599 28.66M 49.399 30.192C 49.065 29.937 48.732 29.682 48.399 29.426C 47.799 28.852 46.832 28.628 45.499 28.756C 44.165 28.884 43.465 29.522 43.399 30.671C 43.265 31.82 44.232 32.905 46.299 33.927C 48.432 34.884 49.465 36.001 49.399 37.278C 49.399 38.555 48.632 39.321 47.099 39.576C 45.499 39.767 44.432 39.416 43.899 38.523C 43.565 38.076 43.265 37.629 42.999 37.182"></path></g></g></g><g id="g-root-tx_pros_dju9pe1rkquq2-stroke" data-item-order="0" data-item-id="tx_pros_dju9pe1rkquq2" data-item-class="Label Stroke SceneTarget" data-item-index="none" data-renderer-id="0" transform="translate(63.00050354003906, 39)"></g><g id="g-root-tx_cons_mfh9ya1rkqtxd-stroke" data-item-order="0" data-item-id="tx_cons_mfh9ya1rkqtxd" data-item-class="Label Stroke SceneTarget" data-item-index="none" data-renderer-id="0" transform="translate(363.00048828125, 39)"></g><g id="g-root-brai_1lxetuq1rks6iu-stroke" data-item-order="0" data-item-id="brai_1lxetuq1rks6iu" data-item-class="Icon Stroke SceneTarget Indexed Indexed_1" data-item-index="1" data-renderer-id="0" transform="translate(3.0004730224609375, 147)"><g id="brai_1lxetuq1rks6iu-stroke" fill="none" stroke-linecap="round" stroke-linejoin="round" stroke-miterlimit="4" stroke="#484848" stroke-width="2"><g><path d="M 57.166 34C 57.160934 37.138275 54.730751 39.738739 51.599998 39.956001C 53.427505 42.303398 53.681461 45.513618 52.245777 48.119164C 50.810097 50.724709 47.960644 52.224922 45 51.934002C 45.443184 53.422901 44.984238 55.033749 43.822891 56.065502C 42.661549 57.097256 41.007858 57.3633 39.581512 56.747849C 38.155167 56.132397 37.214157 54.746777 37.167999 53.194C 35.309055 54.26965 33.016945 54.26965 31.158001 53.194C 31.108984 54.744835 30.167524 56.127419 28.742512 56.74128C 27.317497 57.355141 25.666035 57.089523 24.505373 56.059788C 23.344711 55.030052 22.88426 53.421993 23.324001 51.933998C 20.363358 52.224922 17.513905 50.724709 16.078224 48.119164C 14.642542 45.513618 14.896498 42.303398 16.724001 39.956001C 13.592808 39.741184 11.16261 37.13855 11.16261 34C 11.16261 30.861448 13.592808 28.258814 16.723999 28.044001C 14.896498 25.696602 14.642542 22.486382 16.078224 19.880836C 17.513905 17.275291 20.363358 15.775082 23.324001 16.066C 22.88426 14.578009 23.344711 12.969946 24.505373 11.940212C 25.666035 10.910478 27.317497 10.64486 28.742512 11.258721C 30.167524 11.872582 31.108984 13.255166 31.158001 14.806C 33.016945 13.73035 35.309055 13.73035 37.167999 14.806C 37.214157 13.253224 38.155167 11.867601 39.581512 11.252151C 41.007858 10.636702 42.661549 10.902744 43.822891 11.934498C 44.984238 12.966251 45.443184 14.577099 45 16.066C 47.960644 15.775082 50.810097 17.275291 52.245777 19.880836C 53.681461 22.486382 53.427505 25.696602 51.600002 28.044001C 54.730751 28.261261 57.160934 30.861725 57.166 34ZM 34.166 43L 34.166 45M 34.166 37L 34.166 39M 40.402 37L 40.402 39M 34.166 25L 34.166 27M 34.166 19L 34.166 21M 34.166 49L 34.166 51M 24.166 22C 24.166 23.656855 25.509148 25 27.166 25C 28.822855 25 30.166 23.656855 30.166 22C 30.166 20.343147 28.822855 19 27.166 19C 25.509148 19 24.166 20.343147 24.166 22ZM 39.166 27C 39.166 28.656855 40.509148 30 42.166 30C 43.822857 30 45.166 28.656855 45.166 27C 45.166 25.343147 43.822857 24 42.166 24C 40.509148 24 39.166 25.343147 39.166 27ZM 21.166 44C 21.166 45.656857 22.509146 47 24.166 47C 25.822855 47 27.166 45.656857 27.166 44C 27.166 42.343147 25.822855 41 24.166 41C 22.509146 41 21.166 42.343147 21.166 44ZM 38.166 45C 38.166 46.656857 39.509148 48 41.166 48C 42.822857 48 44.166 46.656857 44.166 45C 44.166 43.343147 42.822857 42 41.166 42C 39.509148 42 38.166 43.343147 38.166 45ZM 43.166 36C 43.166 37.656853 44.509148 39 46.166 39C 47.822857 39 49.166 37.656853 49.166 36C 49.166 34.343147 47.822857 33 46.166 33C 44.509148 33 43.166 34.343147 43.166 36ZM 45.167999 27C 46.272568 27 47.167999 26.10457 47.167999 25L 47.167999 22M 16.166 35L 19.166 35C 20.270569 35 21.166 34.104568 21.166 33L 21.166 31C 21.166 29.89543 22.061432 29 23.166 29L 25.166 29C 26.270569 29 27.166 28.10457 27.166 27L 27.166 25M 27.166 44C 28.270569 44 29.166 44.895432 29.166 46L 29.166 50M 44.166 45L 48.166 45"></path></g></g></g><g id="g-root-tx_solvesco_qvas2q1rkqt54-stroke" data-item-order="0" data-item-id="tx_solvesco_qvas2q1rkqt54" data-item-class="Label Stroke SceneTarget Indexed Indexed_1" data-item-index="1" data-renderer-id="0" transform="translate(63.00050354003906, 147)"></g><g id="g-root-ques_1q6d40y1rktlhd-stroke" data-item-order="0" data-item-id="ques_1q6d40y1rktlhd" data-item-class="Icon Stroke SceneTarget Indexed" data-item-index="101" data-renderer-id="0" transform="translate(303.00048828125, 147)"><g id="ques_1q6d40y1rktlhd-stroke" fill="none" stroke-linecap="round" stroke-linejoin="round" stroke-miterlimit="4" stroke="#484848" stroke-width="2"><g><path d="M 53 19C 53 21.209139 51.209141 23 49 23L 15 23C 12.790861 23 11 21.209139 11 19L 11 15C 11 12.790861 12.790861 11 15 11L 49 11C 51.209141 11 53 12.790861 53 15ZM 15 35C 12.790861 35 11 33.209137 11 31L 11 27C 11 24.790861 12.790861 23 15 23L 49 23C 51.209141 23 53 24.790861 53 27L 53 30M 19.5 16.5C 19.223858 16.5 19 16.723858 19 17C 19 17.276142 19.223858 17.5 19.5 17.5C 19.776142 17.5 20 17.276142 20 17C 20 16.723858 19.776142 16.5 19.5 16.5L 19.5 16.5M 27 17C 27 16.723858 26.776142 16.5 26.5 16.5L 26.5 16.5C 26.223858 16.5 26 16.723858 26 17C 26 17.276142 26.223858 17.5 26.5 17.5C 26.776142 17.5 27 17.276142 27 17M 19.5 28.5C 19.223858 28.5 19 28.723858 19 29C 19 29.276142 19.223858 29.5 19.5 29.5C 19.776142 29.5 20 29.276142 20 29C 20 28.723858 19.776142 28.5 19.5 28.5L 19.5 28.5M 26.5 28.5C 26.223858 28.5 26 28.723858 26 29C 26 29.276142 26.223858 29.5 26.5 29.5C 26.776142 29.5 27 29.276142 27 29C 27 28.723858 26.776142 28.5 26.5 28.5L 26.5 28.5M 28 47L 15 47C 12.790861 47 11 45.209141 11 43L 11 39C 11 36.790863 12.790861 35 15 35L 31 35M 19.5 40.5C 19.223858 40.5 19 40.723858 19 41C 19 41.276142 19.223858 41.5 19.5 41.5C 19.776142 41.5 20 41.276142 20 41C 20 40.723858 19.776142 40.5 19.5 40.5L 19.5 40.5M 26.5 40.5C 26.223858 40.5 26 40.723858 26 41C 26 41.276142 26.223858 41.5 26.5 41.5C 26.776142 41.5 27 41.276142 27 41C 27 40.723858 26.776142 40.5 26.5 40.5L 26.5 40.5M 33 45C 33 51.627419 38.372581 57 45 57C 51.627419 57 57 51.627419 57 45C 57 38.372581 51.627419 33 45 33C 38.372581 33 33 38.372581 33 45ZM 41.25 42.084C 41.25 40.012932 42.928932 38.334 45 38.334C 47.071068 38.334 48.75 40.012932 48.75 42.084003C 48.75 44.155071 47.071068 45.834003 45 45.834003L 45 47.834M 45 51.834C 44.723858 51.834 44.5 52.057858 44.5 52.334C 44.5 52.610142 44.723858 52.834 45 52.834C 45.276142 52.834 45.5 52.610142 45.5 52.334C 45.5 52.057858 45.276142 51.834 45 51.834L 45 51.834"></path></g></g></g><g id="g-root-tx_highcomp_1lxetuq1rkqscr-stroke" data-item-order="0" data-item-id="tx_highcomp_1lxetuq1rkqscr" data-item-class="Label Stroke SceneTarget Indexed" data-item-index="101" data-renderer-id="0" transform="translate(363.00048828125, 135)"></g><g id="g-root-chec_4mybaa1rks7ik-stroke" data-item-order="0" data-item-id="chec_4mybaa1rks7ik" data-item-class="Icon Stroke SceneTarget Indexed" data-item-index="2" data-renderer-id="0" transform="translate(3.00048828125, 231)"><g id="chec_4mybaa1rks7ik-stroke" fill="none" stroke-linecap="round" stroke-linejoin="round" stroke-miterlimit="4" stroke="#484848" stroke-width="2"><g><path d="M 11.714286 39.314285L 21.074286 51.348572C 21.71418 52.179977 22.699512 52.672642 23.748573 52.685715C 24.780313 52.697651 25.762568 52.244301 26.422857 51.451431L 56.285713 15.314285"></path></g></g></g><g id="g-root-tx_reducesh_18lybhe1rkqtxp-stroke" data-item-order="0" data-item-id="tx_reducesh_18lybhe1rkqtxp" data-item-class="Label Stroke SceneTarget Indexed" data-item-index="2" data-renderer-id="0" transform="translate(63.00050354003906, 231)"></g><g id="g-root-2_v98uxu1rks7ii-stroke" data-item-order="0" data-item-id="2_v98uxu1rks7ii" data-item-class="Icon Stroke SceneTarget Indexed" data-item-index="102" data-renderer-id="0" transform="translate(303.00048828125, 231)"><g id="2_v98uxu1rks7ii-stroke" fill="none" stroke-linecap="round" stroke-linejoin="round" stroke-miterlimit="4" stroke="#484848" stroke-width="2"><g><path d="M 28.857143 47.714287L 20.285715 26.525715L 11.714286 47.714287C 11.714286 52.448158 15.551846 56.285713 20.285715 56.285713C 25.019585 56.285713 28.857143 52.448158 28.857143 47.714287ZM 56.285713 34L 47.714287 14.045714L 39.142857 34C 39.142857 38.733868 42.980419 42.57143 47.714287 42.57143C 52.448158 42.57143 56.285713 38.733868 56.285713 34ZM 15.142858 28.857143L 52.857143 11.714286M 34 20.285715L 34 11.714286"></path></g></g></g><g id="g-root-tx_ethicalc_zp2d2a1rkqtc1-stroke" data-item-order="0" data-item-id="tx_ethicalc_zp2d2a1rkqtc1" data-item-class="Label Stroke SceneTarget Indexed" data-item-index="102" data-renderer-id="0" transform="translate(363.00048828125, 231)"></g><g id="g-root-spee_4g33c21rktn9c-stroke" data-item-order="0" data-item-id="spee_4g33c21rktn9c" data-item-class="Icon Stroke SceneTarget Indexed" data-item-index="3" data-renderer-id="0" transform="translate(3.00048828125, 315)"><g id="spee_4g33c21rktn9c-stroke" fill="none" stroke-linecap="round" stroke-linejoin="round" stroke-miterlimit="4" stroke="#484848" stroke-width="2"><g><path d="M 11 34C 11 46.702549 21.297451 57 34 57C 46.702549 57 57 46.702549 57 34C 57 21.297451 46.702549 11 34 11C 21.297451 11 11 21.297451 11 34M 31 34C 31 35.656853 32.343147 37 34 37C 35.656853 37 37 35.656853 37 34C 37 32.343147 35.656853 31 34 31C 32.343147 31 31 32.343147 31 34M 36.122002 31.879999L 46.02 21.98M 14.888 33L 18.888 33M 16.444 41.27L 20.142 39.739998M 51.551998 41.271999L 47.858002 39.739998M 52.998001 33L 49 32.998001M 51.551998 26.73L 47.858002 28.26M 42.532001 16.448L 41 20.139999M 35 15.37L 35 19.369999M 26.73 16.445999L 28.26 20.139999M 20.566 20.563999L 23.392 23.392M 16.448 26.728001L 20.142 28.26M 26 43L 42 43C 42 43 43 43 43 44L 43 48C 43 48 43 49 42 49L 26 49C 26 49 25 49 25 48L 25 44C 25 44 25 43 26 43"></path></g></g></g><g id="g-root-tx_increase_1hhlbqa1rkqt50-stroke" data-item-order="0" data-item-id="tx_increase_1hhlbqa1rkqt50" data-item-class="Label Stroke SceneTarget Indexed" data-item-index="3" data-renderer-id="0" transform="translate(63.00050354003906, 315)"></g><g id="g-root-2_dbq3ky1rktlov-stroke" data-item-order="0" data-item-id="2_dbq3ky1rktlov" data-item-class="Icon Stroke SceneTarget Indexed" data-item-index="103" data-renderer-id="0" transform="translate(303.00048828125, 315)"><g id="2_dbq3ky1rktlov-stroke" fill="none" stroke-linecap="round" stroke-linejoin="round" stroke-miterlimit="4" stroke="#484848" stroke-width="2"><g><path d="M 19 42C 19 50.284271 25.715729 57 34 57C 42.284271 57 49 50.284271 49 42C 49 33.715729 42.284271 27.000002 34 27.000002C 25.715729 27.000002 19 33.715729 19 42ZM 45 31.834L 45 21C 45 15.477153 40.52285 11 35 11C 29.477154 11 25 15.477153 25 21M 32 42C 32 43.104568 32.895432 44 34 44C 35.104568 44 36 43.104568 36 42C 36 40.895432 35.104568 40 34 40C 32.895432 40 32 40.895432 32 42ZM 34 44L 34 50"></path></g></g></g><g id="g-root-tx_potentia_1hfpwgy1rkqu4o-stroke" data-item-order="0" data-item-id="tx_potentia_1hfpwgy1rkqu4o" data-item-class="Label Stroke SceneTarget Indexed" data-item-index="103" data-renderer-id="0" transform="translate(363.00048828125, 315)"></g></g></g></svg>