<?xml version="1.0" encoding="utf-8" standalone="yes"?>
<!DOCTYPE svg PUBLIC "-//W3C//DTD SVG 1.1//EN" "http://www.w3.org/Graphics/SVG/1.1/DTD/svg11.dtd">
<svg width="582" height="583" viewBox="0 0 582 583" style="fill:none;stroke:none;fill-rule:evenodd;clip-rule:evenodd;stroke-linecap:round;stroke-linejoin:round;stroke-miterlimit:1.5;" version="1.1" xmlns="http://www.w3.org/2000/svg" xmlns:xlink="http://www.w3.org/1999/xlink"><style id="fontImports">@import url("https://fonts.googleapis.com/css2?family=Roboto:wght@400;700&amp;display=block");</style><rect id="" x="0" y="0" width="582" height="582" style="fill: #ffffff;"></rect><g id="items" style="isolation: isolate"><g id="blend" style="mix-blend-mode:multiply"><g id="g-root-ro_hzn8r81syq7lz-fill" data-item-order="-18432" data-item-id="ro_hzn8r81syq7lz" data-item-class="Shape Stroke Fill" data-item-index="none" data-renderer-id="0" transform="translate(367, 95.00003051757812)"><g id="ro_hzn8r81syq7lz-fill" stroke="none" fill="#e6f9ff"><g><path d="M 22 10L 190 10C 190 10 202 10 202 22L 202 94C 202 94 202 106 190 106L 22 106C 22 106 10 106 10 94L 10 22C 10 22 10 10 22 10"></path></g></g></g><g id="g-root-ro_18nt4ic1sz2ux7-fill" data-item-order="-16128" data-item-id="ro_18nt4ic1sz2ux7" data-item-class="Shape Stroke Fill" data-item-index="none" data-renderer-id="0" transform="translate(143, 95.00003051757812)"><g id="ro_18nt4ic1sz2ux7-fill" stroke="none" fill="#e6f9ff"><g><path d="M 22 10L 166 10C 166 10 178 10 178 22L 178 94C 178 94 178 106 166 106L 22 106C 22 106 10 106 10 94L 10 22C 10 22 10 10 22 10"></path></g></g></g><g id="g-root-ro_1448v101syt0xt-fill" data-item-order="-13824" data-item-id="ro_1448v101syt0xt" data-item-class="Shape Stroke Fill" data-item-index="none" data-renderer-id="0" transform="translate(367, 395.0000305175781)"><g id="ro_1448v101syt0xt-fill" stroke="none" fill="#e6f9ff"><g><path d="M 22 10L 190 10C 190 10 202 10 202 22L 202 70C 202 70 202 82 190 82L 22 82C 22 82 10 82 10 70L 10 22C 10 22 10 10 22 10"></path></g></g></g><g id="g-root-ro_1q7lj4k1syosg6-fill" data-item-order="-13824" data-item-id="ro_1q7lj4k1syosg6" data-item-class="Shape Stroke Fill" data-item-index="none" data-renderer-id="0" transform="translate(367, 3)"><g id="ro_1q7lj4k1syosg6-fill" stroke="none" fill="#e6f9ff"><g><path d="M 22 10L 190 10C 190 10 202 10 202 22L 202 70C 202 70 202 82 190 82L 22 82C 22 82 10 82 10 70L 10 22C 10 22 10 10 22 10"></path></g></g></g><g id="g-root-ro_4g2k9g1syt05n-fill" data-item-order="-13824" data-item-id="ro_4g2k9g1syt05n" data-item-class="Shape Stroke Fill" data-item-index="none" data-renderer-id="0" transform="translate(367, 303.0000305175781)"><g id="ro_4g2k9g1syt05n-fill" stroke="none" fill="#e6f9ff"><g><path d="M 22 10L 190 10C 190 10 202 10 202 22L 202 70C 202 70 202 82 190 82L 22 82C 22 82 10 82 10 70L 10 22C 10 22 10 10 22 10"></path></g></g></g><g id="g-root-ro_hss0t01syue4v-fill" data-item-order="-13824" data-item-id="ro_hss0t01syue4v" data-item-class="Shape Stroke Fill" data-item-index="none" data-renderer-id="0" transform="translate(367, 487.0000305175781)"><g id="ro_hss0t01syue4v-fill" stroke="none" fill="#e6f9ff"><g><path d="M 22 10L 190 10C 190 10 202 10 202 22L 202 70C 202 70 202 82 190 82L 22 82C 22 82 10 82 10 70L 10 22C 10 22 10 10 22 10"></path></g></g></g><g id="g-root-ro_1ltng9g1syrm6d-fill" data-item-order="-13824" data-item-id="ro_1ltng9g1syrm6d" data-item-class="Shape Stroke Fill" data-item-index="none" data-renderer-id="0" transform="translate(367, 211.00003051757812)"><g id="ro_1ltng9g1syrm6d-fill" stroke="none" fill="#e6f9ff"><g><path d="M 22 10L 190 10C 190 10 202 10 202 22L 202 70C 202 70 202 82 190 82L 22 82C 22 82 10 82 10 70L 10 22C 10 22 10 10 22 10"></path></g></g></g><g id="g-root-ro_1lxe7mc1sz01zb-fill" data-item-order="-12096" data-item-id="ro_1lxe7mc1sz01zb" data-item-class="Shape Stroke Fill" data-item-index="none" data-renderer-id="0" transform="translate(143, 3)"><g id="ro_1lxe7mc1sz01zb-fill" stroke="none" fill="#e6f9ff"><g><path d="M 22 10L 166 10C 166 10 178 10 178 22L 178 70C 178 70 178 82 166 82L 22 82C 22 82 10 82 10 70L 10 22C 10 22 10 10 22 10"></path></g></g></g><g id="g-root-ro_m8lixg1synegy-fill" data-item-order="-12096" data-item-id="ro_m8lixg1synegy" data-item-class="Shape Stroke Fill" data-item-index="none" data-renderer-id="0" transform="translate(143, 487.0000305175781)"><g id="ro_m8lixg1synegy-fill" stroke="none" fill="#e6f9ff"><g><path d="M 22 10L 166 10C 166 10 178 10 178 22L 178 70C 178 70 178 82 166 82L 22 82C 22 82 10 82 10 70L 10 22C 10 22 10 10 22 10"></path></g></g></g><g id="g-root-ro_m7chlg1sz71ts-fill" data-item-order="-12096" data-item-id="ro_m7chlg1sz71ts" data-item-class="Shape Stroke Fill" data-item-index="none" data-renderer-id="0" transform="translate(143, 257.0000305175781)"><g id="ro_m7chlg1sz71ts-fill" stroke="none" fill="#e6f9ff"><g><path d="M 22 10L 166 10C 166 10 178 10 178 22L 178 70C 178 70 178 82 166 82L 22 82C 22 82 10 82 10 70L 10 22C 10 22 10 10 22 10"></path></g></g></g><g id="g-root-ro_hzn5lg1sz72fg-fill" data-item-order="-9072" data-item-id="ro_hzn5lg1sz72fg" data-item-class="Shape Stroke Fill" data-item-index="none" data-renderer-id="0" transform="translate(143, 404.0000305175781)"><g id="ro_hzn5lg1sz72fg-fill" stroke="none" fill="#e6f9ff"><g><path d="M 22 10L 166 10C 166 10 178 10 178 22L 178 52C 178 52 178 64 166 64L 22 64C 22 64 10 64 10 52L 10 22C 10 22 10 10 22 10"></path></g></g></g><g id="g-root-ro_1lu9u6s1syx98i-fill" data-item-order="-4536" data-item-id="ro_1lu9u6s1syx98i" data-item-class="Shape Stroke Fill" data-item-index="none" data-renderer-id="0" transform="translate(3, 266.0000305175781)"><g id="ro_1lu9u6s1syx98i-fill" stroke="none" fill="#f0f0f0"><g><path d="M 13 13L 91 13L 91 61L 13 61L 13 13"></path></g></g></g><g id="g-root-tx_naturall_1uuwn4k1sz2sjl-fill" data-item-order="0" data-item-id="tx_naturall_1uuwn4k1sz2sjl" data-item-class="Label Stroke" data-item-index="none" data-renderer-id="0" transform="translate(191, 107.00003051757812)"><g id="tx_naturall_1uuwn4k1sz2sjl-fill" stroke="none" fill="#17b0e3"><g><text style="font: 20px Roboto, sans-serif; white-space: pre;"><tspan x="12" y="33.75" dominant-baseline="ideographic">Natural </tspan><tspan x="12" y="57.75" dominant-baseline="ideographic">Language </tspan><tspan x="12" y="81.75" dominant-baseline="ideographic">Processing</tspan></text></g></g></g><g id="g-root-tx_chatbots_vb3r4k1syq611-fill" data-item-order="0" data-item-id="tx_chatbots_vb3r4k1syq611" data-item-class="Label Stroke" data-item-index="none" data-renderer-id="0" transform="translate(415, 107.00003051757812)"><g id="tx_chatbots_vb3r4k1syq611-fill" stroke="none" fill="#17b0e3"><g><text style="font: 20px Roboto, sans-serif; white-space: pre;"><tspan x="12" y="33.75" dominant-baseline="ideographic">Chatbots </tspan><tspan x="12" y="57.75" dominant-baseline="ideographic">and Voice </tspan><tspan x="12" y="81.75" dominant-baseline="ideographic">Assistants</tspan></text></g></g></g><g id="g-root-text_1hjg4r81sz2u4i-fill" data-item-order="0" data-item-id="text_1hjg4r81sz2u4i" data-item-class="Icon Stroke" data-item-index="none" data-renderer-id="0" transform="translate(155, 128.00003051757812)"></g><g id="g-root-info_mfgqvo1syq6tq-fill" data-item-order="0" data-item-id="info_mfgqvo1syq6tq" data-item-class="Icon Stroke" data-item-index="none" data-renderer-id="0" transform="translate(379, 128.00003051757812)"></g><g id="g-root-tx_speciali_18f2kgk1syue4t-fill" data-item-order="0" data-item-id="tx_speciali_18f2kgk1syue4t" data-item-class="Label Stroke" data-item-index="none" data-renderer-id="0" transform="translate(415, 499.0000305175781)"><g id="tx_speciali_18f2kgk1syue4t-fill" stroke="none" fill="#17b0e3"><g><text style="font: 20px Roboto, sans-serif; white-space: pre;"><tspan x="12" y="33.75" dominant-baseline="ideographic">Specialized </tspan><tspan x="12" y="57.75" dominant-baseline="ideographic">Fields</tspan></text></g></g></g><g id="g-root-smar_1q9gydw1syrle4-fill" data-item-order="0" data-item-id="smar_1q9gydw1syrle4" data-item-class="Icon Stroke" data-item-index="none" data-renderer-id="0" transform="translate(379, 232.00003051757812)"></g><g id="g-root-tx_facialre_4jtes41syrk0b-fill" data-item-order="0" data-item-id="tx_facialre_4jtes41syrk0b" data-item-class="Label Stroke" data-item-index="none" data-renderer-id="0" transform="translate(415, 223.00003051757812)"><g id="tx_facialre_4jtes41syrk0b-fill" stroke="none" fill="#17b0e3"><g><text style="font: 20px Roboto, sans-serif; white-space: pre;"><tspan x="12" y="33.75" dominant-baseline="ideographic">Facial </tspan><tspan x="12" y="57.75" dominant-baseline="ideographic">Recognition</tspan></text></g></g></g><g id="g-root-sear_qof11w1syudc6-fill" data-item-order="0" data-item-id="sear_qof11w1syudc6" data-item-class="Icon Stroke" data-item-index="none" data-renderer-id="0" transform="translate(379, 508.0000305175781)"></g><g id="g-root-codi_4mal01syx7up-fill" data-item-order="0" data-item-id="codi_4mal01syx7up" data-item-class="Icon Stroke" data-item-index="none" data-renderer-id="0" transform="translate(15, 278.0000305175781)"></g><g id="g-root-tx_ai_4kfspg1syx72g-fill" data-item-order="0" data-item-id="tx_ai_4kfspg1syx72g" data-item-class="Label Stroke" data-item-index="none" data-renderer-id="0" transform="translate(51, 281.0000305175781)"><g id="tx_ai_4kfspg1syx72g-fill" stroke="none" fill="#e15e5a"><g><text style="font: 20px Roboto, sans-serif; white-space: pre;"><tspan x="12" y="33.75" dominant-baseline="ideographic">AI</tspan></text></g></g></g><g id="g-root-eye_qn5zpw1sz711j-fill" data-item-order="0" data-item-id="eye_qn5zpw1sz711j" data-item-class="Icon Stroke" data-item-index="none" data-renderer-id="0" transform="translate(155, 278.0000305175781)"></g><g id="g-root-tx_computer_v2zhuc1sz709a-fill" data-item-order="0" data-item-id="tx_computer_v2zhuc1sz709a" data-item-class="Label Stroke" data-item-index="none" data-renderer-id="0" transform="translate(191, 269.0000305175781)"><g id="tx_computer_v2zhuc1sz709a-fill" stroke="none" fill="#17b0e3"><g><text style="font: 20px Roboto, sans-serif; white-space: pre;"><tspan x="12" y="33.75" dominant-baseline="ideographic">Computer </tspan><tspan x="12" y="57.75" dominant-baseline="ideographic">Vision</tspan></text></g></g></g><g id="g-root-tx_expertsy_1cuw2l01synegw-fill" data-item-order="0" data-item-id="tx_expertsy_1cuw2l01synegw" data-item-class="Label Stroke" data-item-index="none" data-renderer-id="0" transform="translate(191, 499.0000305175781)"><g id="tx_expertsy_1cuw2l01synegw-fill" stroke="none" fill="#17b0e3"><g><text style="font: 20px Roboto, sans-serif; white-space: pre;"><tspan x="12" y="33.75" dominant-baseline="ideographic">Expert </tspan><tspan x="12" y="57.75" dominant-baseline="ideographic">Systems</tspan></text></g></g></g><g id="g-root-chem_qof11w1syndop-fill" data-item-order="0" data-item-id="chem_qof11w1syndop" data-item-class="Icon Stroke" data-item-index="none" data-renderer-id="0" transform="translate(155, 508.0000305175781)"></g><g id="g-root-tx_predicti_zjfk7o1syotfw-fill" data-item-order="0" data-item-id="tx_predicti_zjfk7o1syotfw" data-item-class="Label Stroke" data-item-index="none" data-renderer-id="0" transform="translate(415, 15)"><g id="tx_predicti_zjfk7o1syotfw-fill" stroke="none" fill="#17b0e3"><g><text style="font: 20px Roboto, sans-serif; white-space: pre;"><tspan x="12" y="33.75" dominant-baseline="ideographic">Predictions/</tspan><tspan x="12" y="57.75" dominant-baseline="ideographic">Decisions</tspan></text></g></g></g><g id="g-root-driv_dbpkic1syszcy-fill" data-item-order="0" data-item-id="driv_dbpkic1syszcy" data-item-class="Icon Stroke" data-item-index="none" data-renderer-id="0" transform="translate(379, 324.0000305175781)"></g><g id="g-root-tx_autonomo_qwj76c1syrmdd-fill" data-item-order="0" data-item-id="tx_autonomo_qwj76c1syrmdd" data-item-class="Label Stroke" data-item-index="none" data-renderer-id="0" transform="translate(415, 315.0000305175781)"><g id="tx_autonomo_qwj76c1syrmdd-fill" stroke="none" fill="#17b0e3"><g><text style="font: 20px Roboto, sans-serif; white-space: pre;"><tspan x="12" y="33.75" dominant-baseline="ideographic">Autonomous </tspan><tspan x="12" y="57.75" dominant-baseline="ideographic">Driving</tspan></text></g></g></g><g id="g-root-1_8x50k41syotfx-fill" data-item-order="0" data-item-id="1_8x50k41syotfx" data-item-class="Icon Stroke" data-item-index="none" data-renderer-id="0" transform="translate(379, 24)"></g><g id="g-root-tx_machinel_7qo0k1sz00lh-fill" data-item-order="0" data-item-id="tx_machinel_7qo0k1sz00lh" data-item-class="Label Stroke" data-item-index="none" data-renderer-id="0" transform="translate(191, 15)"><g id="tx_machinel_7qo0k1sz00lh-fill" stroke="none" fill="#17b0e3"><g><text style="font: 20px Roboto, sans-serif; white-space: pre;"><tspan x="12" y="33.75" dominant-baseline="ideographic">Machine </tspan><tspan x="12" y="57.75" dominant-baseline="ideographic">Learning</tspan></text></g></g></g><g id="g-root-tx_robotics_146474k1sz737m-fill" data-item-order="0" data-item-id="tx_robotics_146474k1sz737m" data-item-class="Label Stroke" data-item-index="none" data-renderer-id="0" transform="translate(191, 419.0000305175781)"><g id="tx_robotics_146474k1sz737m-fill" stroke="none" fill="#17b0e3"><g><text style="font: 20px Roboto, sans-serif; white-space: pre;"><tspan x="12" y="33.75" dominant-baseline="ideographic">Robotics</tspan></text></g></g></g><g id="g-root-robo_1lvivis1sysyko-fill" data-item-order="0" data-item-id="robo_1lvivis1sysyko" data-item-class="Icon Stroke" data-item-index="none" data-renderer-id="0" transform="translate(379, 416.0000305175781)"></g><g id="g-root-tx_autonomo_4l2cyc1syszkf-fill" data-item-order="0" data-item-id="tx_autonomo_4l2cyc1syszkf" data-item-class="Label Stroke" data-item-index="none" data-renderer-id="0" transform="translate(415, 407.0000305175781)"><g id="tx_autonomo_4l2cyc1syszkf-fill" stroke="none" fill="#17b0e3"><g><text style="font: 20px Roboto, sans-serif; white-space: pre;"><tspan x="12" y="33.75" dominant-baseline="ideographic">Autonomous </tspan><tspan x="12" y="57.75" dominant-baseline="ideographic">Tasks</tspan></text></g></g></g><g id="g-root-char_1qd7pqs1sz0172-fill" data-item-order="0" data-item-id="char_1qd7pqs1sz0172" data-item-class="Icon Stroke" data-item-index="none" data-renderer-id="0" transform="translate(155, 24)"></g><g id="g-root-1_qva5uc1sz71mr-fill" data-item-order="0" data-item-id="1_qva5uc1sz71mr" data-item-class="Icon Stroke" data-item-index="none" data-renderer-id="0" transform="translate(155, 416.0000305175781)"></g><g id="g-root-cu_18gxzpw1syud57-fill" data-item-order="2" data-item-id="cu_18gxzpw1syud57" data-item-class="Curve Stroke" data-item-index="none" data-renderer-id="0" transform="translate(311, 431.0000305175781)"></g><g id="g-root-cu_18gxzpw1syud5a-fill" data-item-order="2" data-item-id="cu_18gxzpw1syud5a" data-item-class="Curve Stroke" data-item-index="none" data-renderer-id="0" transform="translate(311, 293.0000305175781)"></g><g id="g-root-cu_18gxzpw1syudxi-fill" data-item-order="2" data-item-id="cu_18gxzpw1syudxi" data-item-class="Curve Stroke" data-item-index="none" data-renderer-id="0" transform="translate(87, 293.0000305175781)"></g><g id="g-root-cu_18gxzpw1syudxg-fill" data-item-order="2" data-item-id="cu_18gxzpw1syudxg" data-item-class="Curve Stroke" data-item-index="none" data-renderer-id="0" transform="translate(87, 293.0000305175781)"></g><g id="g-root-cu_18gxzpw1syudxd-fill" data-item-order="2" data-item-id="cu_18gxzpw1syudxd" data-item-class="Curve Stroke" data-item-index="none" data-renderer-id="0" transform="translate(87, 293.0000305175781)"></g><g id="g-root-cu_1cwrhuc1syud4x-fill" data-item-order="2" data-item-id="cu_1cwrhuc1syud4x" data-item-class="Curve Stroke" data-item-index="none" data-renderer-id="0" transform="translate(311, 247.00003051757812)"></g><g id="g-root-cu_1cwrhuc1syud4z-fill" data-item-order="2" data-item-id="cu_1cwrhuc1syud4z" data-item-class="Curve Stroke" data-item-index="none" data-renderer-id="0" transform="translate(311, 143.00003051757812)"></g><g id="g-root-cu_18gxzpw1syudxk-fill" data-item-order="2" data-item-id="cu_18gxzpw1syudxk" data-item-class="Curve Stroke" data-item-index="none" data-renderer-id="0" transform="translate(87, 143.00003051757812)"></g><g id="g-root-cu_1cwrhuc1syud52-fill" data-item-order="2" data-item-id="cu_1cwrhuc1syud52" data-item-class="Curve Stroke" data-item-index="none" data-renderer-id="0" transform="translate(311, 39)"></g><g id="g-root-cu_18gxzpw1syudxm-fill" data-item-order="2" data-item-id="cu_18gxzpw1syudxm" data-item-class="Curve Stroke" data-item-index="none" data-renderer-id="0" transform="translate(87, 39)"></g><g id="g-root-cu_1hbyivo1syufi8-fill" data-item-order="2" data-item-id="cu_1hbyivo1syufi8" data-item-class="Curve Stroke" data-item-index="none" data-renderer-id="0" transform="translate(311, 523)"></g><g id="g-root-ro_hzn8r81syq7lz-stroke" data-item-order="-18432" data-item-id="ro_hzn8r81syq7lz" data-item-class="Shape Stroke Fill" data-item-index="none" data-renderer-id="0" transform="translate(367, 95.00003051757812)"><g id="ro_hzn8r81syq7lz-stroke" fill="none" stroke-linecap="round" stroke-linejoin="round" stroke-miterlimit="4" stroke="#17b0e3" stroke-width="2"><g><path d="M 22 10L 190 10C 190 10 202 10 202 22L 202 94C 202 94 202 106 190 106L 22 106C 22 106 10 106 10 94L 10 22C 10 22 10 10 22 10"></path></g></g></g><g id="g-root-ro_18nt4ic1sz2ux7-stroke" data-item-order="-16128" data-item-id="ro_18nt4ic1sz2ux7" data-item-class="Shape Stroke Fill" data-item-index="none" data-renderer-id="0" transform="translate(143, 95.00003051757812)"><g id="ro_18nt4ic1sz2ux7-stroke" fill="none" stroke-linecap="round" stroke-linejoin="round" stroke-miterlimit="4" stroke="#17b0e3" stroke-width="2"><g><path d="M 22 10L 166 10C 166 10 178 10 178 22L 178 94C 178 94 178 106 166 106L 22 106C 22 106 10 106 10 94L 10 22C 10 22 10 10 22 10"></path></g></g></g><g id="g-root-ro_1448v101syt0xt-stroke" data-item-order="-13824" data-item-id="ro_1448v101syt0xt" data-item-class="Shape Stroke Fill" data-item-index="none" data-renderer-id="0" transform="translate(367, 395.0000305175781)"><g id="ro_1448v101syt0xt-stroke" fill="none" stroke-linecap="round" stroke-linejoin="round" stroke-miterlimit="4" stroke="#17b0e3" stroke-width="2"><g><path d="M 22 10L 190 10C 190 10 202 10 202 22L 202 70C 202 70 202 82 190 82L 22 82C 22 82 10 82 10 70L 10 22C 10 22 10 10 22 10"></path></g></g></g><g id="g-root-ro_1q7lj4k1syosg6-stroke" data-item-order="-13824" data-item-id="ro_1q7lj4k1syosg6" data-item-class="Shape Stroke Fill" data-item-index="none" data-renderer-id="0" transform="translate(367, 3)"><g id="ro_1q7lj4k1syosg6-stroke" fill="none" stroke-linecap="round" stroke-linejoin="round" stroke-miterlimit="4" stroke="#17b0e3" stroke-width="2"><g><path d="M 22 10L 190 10C 190 10 202 10 202 22L 202 70C 202 70 202 82 190 82L 22 82C 22 82 10 82 10 70L 10 22C 10 22 10 10 22 10"></path></g></g></g><g id="g-root-ro_4g2k9g1syt05n-stroke" data-item-order="-13824" data-item-id="ro_4g2k9g1syt05n" data-item-class="Shape Stroke Fill" data-item-index="none" data-renderer-id="0" transform="translate(367, 303.0000305175781)"><g id="ro_4g2k9g1syt05n-stroke" fill="none" stroke-linecap="round" stroke-linejoin="round" stroke-miterlimit="4" stroke="#17b0e3" stroke-width="2"><g><path d="M 22 10L 190 10C 190 10 202 10 202 22L 202 70C 202 70 202 82 190 82L 22 82C 22 82 10 82 10 70L 10 22C 10 22 10 10 22 10"></path></g></g></g><g id="g-root-ro_hss0t01syue4v-stroke" data-item-order="-13824" data-item-id="ro_hss0t01syue4v" data-item-class="Shape Stroke Fill" data-item-index="none" data-renderer-id="0" transform="translate(367, 487.0000305175781)"><g id="ro_hss0t01syue4v-stroke" fill="none" stroke-linecap="round" stroke-linejoin="round" stroke-miterlimit="4" stroke="#17b0e3" stroke-width="2"><g><path d="M 22 10L 190 10C 190 10 202 10 202 22L 202 70C 202 70 202 82 190 82L 22 82C 22 82 10 82 10 70L 10 22C 10 22 10 10 22 10"></path></g></g></g><g id="g-root-ro_1ltng9g1syrm6d-stroke" data-item-order="-13824" data-item-id="ro_1ltng9g1syrm6d" data-item-class="Shape Stroke Fill" data-item-index="none" data-renderer-id="0" transform="translate(367, 211.00003051757812)"><g id="ro_1ltng9g1syrm6d-stroke" fill="none" stroke-linecap="round" stroke-linejoin="round" stroke-miterlimit="4" stroke="#17b0e3" stroke-width="2"><g><path d="M 22 10L 190 10C 190 10 202 10 202 22L 202 70C 202 70 202 82 190 82L 22 82C 22 82 10 82 10 70L 10 22C 10 22 10 10 22 10"></path></g></g></g><g id="g-root-ro_1lxe7mc1sz01zb-stroke" data-item-order="-12096" data-item-id="ro_1lxe7mc1sz01zb" data-item-class="Shape Stroke Fill" data-item-index="none" data-renderer-id="0" transform="translate(143, 3)"><g id="ro_1lxe7mc1sz01zb-stroke" fill="none" stroke-linecap="round" stroke-linejoin="round" stroke-miterlimit="4" stroke="#17b0e3" stroke-width="2"><g><path d="M 22 10L 166 10C 166 10 178 10 178 22L 178 70C 178 70 178 82 166 82L 22 82C 22 82 10 82 10 70L 10 22C 10 22 10 10 22 10"></path></g></g></g><g id="g-root-ro_m8lixg1synegy-stroke" data-item-order="-12096" data-item-id="ro_m8lixg1synegy" data-item-class="Shape Stroke Fill" data-item-index="none" data-renderer-id="0" transform="translate(143, 487.0000305175781)"><g id="ro_m8lixg1synegy-stroke" fill="none" stroke-linecap="round" stroke-linejoin="round" stroke-miterlimit="4" stroke="#17b0e3" stroke-width="2"><g><path d="M 22 10L 166 10C 166 10 178 10 178 22L 178 70C 178 70 178 82 166 82L 22 82C 22 82 10 82 10 70L 10 22C 10 22 10 10 22 10"></path></g></g></g><g id="g-root-ro_m7chlg1sz71ts-stroke" data-item-order="-12096" data-item-id="ro_m7chlg1sz71ts" data-item-class="Shape Stroke Fill" data-item-index="none" data-renderer-id="0" transform="translate(143, 257.0000305175781)"><g id="ro_m7chlg1sz71ts-stroke" fill="none" stroke-linecap="round" stroke-linejoin="round" stroke-miterlimit="4" stroke="#17b0e3" stroke-width="2"><g><path d="M 22 10L 166 10C 166 10 178 10 178 22L 178 70C 178 70 178 82 166 82L 22 82C 22 82 10 82 10 70L 10 22C 10 22 10 10 22 10"></path></g></g></g><g id="g-root-ro_hzn5lg1sz72fg-stroke" data-item-order="-9072" data-item-id="ro_hzn5lg1sz72fg" data-item-class="Shape Stroke Fill" data-item-index="none" data-renderer-id="0" transform="translate(143, 404.0000305175781)"><g id="ro_hzn5lg1sz72fg-stroke" fill="none" stroke-linecap="round" stroke-linejoin="round" stroke-miterlimit="4" stroke="#17b0e3" stroke-width="2"><g><path d="M 22 10L 166 10C 166 10 178 10 178 22L 178 52C 178 52 178 64 166 64L 22 64C 22 64 10 64 10 52L 10 22C 10 22 10 10 22 10"></path></g></g></g><g id="g-root-ro_1lu9u6s1syx98i-stroke" data-item-order="-4536" data-item-id="ro_1lu9u6s1syx98i" data-item-class="Shape Stroke Fill" data-item-index="none" data-renderer-id="0" transform="translate(3, 266.0000305175781)"><g id="ro_1lu9u6s1syx98i-stroke" fill="none" stroke-linecap="round" stroke-linejoin="round" stroke-miterlimit="4" stroke="#e15e5a" stroke-width="2"><g><path d="M 26 10L 28.5 15.29M 41.53 10L 41.94 16.55M 57.07 10L 57.87 16.14M 72.6 10L 70.56 16.38M 87.47 13.1L 83.58 17.91M 94 26.53L 88 29.23M 94 42.07L 88.68 40.83M 91.21 57.03L 87.26 52.9M 78 64L 76.06 57.64M 62.47 64L 62.64 57.69M 46.93 64L 46.81 57.25M 31.4 64L 31.87 57.95M 16.53 60.9L 20 56.41M 10 47.47L 15.06 45.84M 10 31.93L 15.48 32.75M 12.79 16.97L 17.27 20.88"></path></g></g></g><g id="g-root-tx_naturall_1uuwn4k1sz2sjl-stroke" data-item-order="0" data-item-id="tx_naturall_1uuwn4k1sz2sjl" data-item-class="Label Stroke" data-item-index="none" data-renderer-id="0" transform="translate(191, 107.00003051757812)"></g><g id="g-root-tx_chatbots_vb3r4k1syq611-stroke" data-item-order="0" data-item-id="tx_chatbots_vb3r4k1syq611" data-item-class="Label Stroke" data-item-index="none" data-renderer-id="0" transform="translate(415, 107.00003051757812)"></g><g id="g-root-text_1hjg4r81sz2u4i-stroke" data-item-order="0" data-item-id="text_1hjg4r81sz2u4i" data-item-class="Icon Stroke" data-item-index="none" data-renderer-id="0" transform="translate(155, 128.00003051757812)"><g id="text_1hjg4r81sz2u4i-stroke" fill="none" stroke-linecap="round" stroke-linejoin="round" stroke-miterlimit="4" stroke="#17b0e3" stroke-width="2"><g><path d="M 18.125 16.875L 31.875 16.875M 18.125 20.625L 26.25 20.625M 26.875 28.125L 34.375 28.125M 26.875 31.875L 34.375 31.875M 18.125 24.375L 21.25 24.375M 20 33.337502L 11.7 37.1875L 15 30.725C 12.327184 28.758238 10.712513 25.667297 10.625 22.350002C 10.625 15.875 17.0625 10.625 25 10.625C 32.9375 10.625 39.375 15.875 39.375 22.35M 22.125 30.474998C 22.125 34.362499 25.987499 37.512501 30.75 37.512501C 31.766674 37.510658 32.777527 37.359032 33.75 37.0625L 38.75 39.375L 36.8125 35.5C 38.395237 34.31757 39.348774 32.474987 39.400002 30.5C 39.400002 26.612499 35.537498 23.462502 30.775002 23.462502C 26.012501 23.462502 22.125 26.587502 22.125 30.474998Z"></path></g></g></g><g id="g-root-info_mfgqvo1syq6tq-stroke" data-item-order="0" data-item-id="info_mfgqvo1syq6tq" data-item-class="Icon Stroke" data-item-index="none" data-renderer-id="0" transform="translate(379, 128.00003051757812)"><g id="info_mfgqvo1syq6tq-stroke" fill="none" stroke-linecap="round" stroke-linejoin="round" stroke-miterlimit="4" stroke="#17b0e3" stroke-width="2"><g><path d="M 25.10375 11.25C 17.164999 11.25 10.72875 16.56625 10.72875 23.125C 10.796284 26.432423 12.359146 29.531029 14.97875 31.551249L 11.97875 38.75L 19.94375 34.19875C 21.612259 34.729824 23.352762 35.000092 25.10375 35C 33.043751 35 39.478752 29.68375 39.478752 23.125C 39.478752 16.56625 33.043751 11.25 25.10375 11.25ZM 25.72875 28.75L 25.72875 21.25C 25.72875 20.559643 25.169106 20 24.47875 20L 23.22875 20M 23.22875 28.75L 28.22875 28.75M 25.41625 16.875C 25.588839 16.875 25.72875 17.014912 25.72875 17.1875C 25.72875 17.360088 25.588839 17.5 25.41625 17.5C 25.243662 17.5 25.10375 17.360088 25.10375 17.1875C 25.10375 17.014912 25.243662 16.875 25.41625 16.875"></path></g></g></g><g id="g-root-tx_speciali_18f2kgk1syue4t-stroke" data-item-order="0" data-item-id="tx_speciali_18f2kgk1syue4t" data-item-class="Label Stroke" data-item-index="none" data-renderer-id="0" transform="translate(415, 499.0000305175781)"></g><g id="g-root-smar_1q9gydw1syrle4-stroke" data-item-order="0" data-item-id="smar_1q9gydw1syrle4" data-item-class="Icon Stroke" data-item-index="none" data-renderer-id="0" transform="translate(379, 232.00003051757812)"><g id="smar_1q9gydw1syrle4-stroke" fill="none" stroke-linecap="round" stroke-linejoin="round" stroke-miterlimit="4" stroke="#17b0e3" stroke-width="2"><g><path d="M 19.375 10.625L 30.625 10.625C 30.625 10.625 33.125 10.625 33.125 13.125L 33.125 36.875C 33.125 36.875 33.125 39.375 30.625 39.375L 19.375 39.375C 19.375 39.375 16.875 39.375 16.875 36.875L 16.875 13.125C 16.875 13.125 16.875 10.625 19.375 10.625M 25 21.875L 25 25.543751C 25 26.218918 24.452669 26.766251 23.7775 26.766251L 23.375 26.766251M 20.625 21.875L 20.625 23.9125M 29.375 21.875L 29.375 23.9125M 21.52125 29.2125C 23.244263 30.842703 25.940739 30.842703 27.66375 29.2125M 28.125 10.625L 28.125 11.875C 28.125 12.565356 27.565357 13.125 26.875 13.125L 23.125 13.125C 22.434643 13.125 21.875 12.565356 21.875 11.875L 21.875 10.625"></path></g></g></g><g id="g-root-tx_facialre_4jtes41syrk0b-stroke" data-item-order="0" data-item-id="tx_facialre_4jtes41syrk0b" data-item-class="Label Stroke" data-item-index="none" data-renderer-id="0" transform="translate(415, 223.00003051757812)"></g><g id="g-root-sear_qof11w1syudc6-stroke" data-item-order="0" data-item-id="sear_qof11w1syudc6" data-item-class="Icon Stroke" data-item-index="none" data-renderer-id="0" transform="translate(379, 508.0000305175781)"><g id="sear_qof11w1syudc6-stroke" fill="none" stroke-linecap="round" stroke-linejoin="round" stroke-miterlimit="4" stroke="#17b0e3" stroke-width="2"><g><path d="M 10.625 23.126251C 10.625 30.02981 16.221441 35.626251 23.125 35.626251C 30.028561 35.626251 35.625 30.02981 35.625 23.126251C 35.625 16.222691 30.028561 10.62625 23.125 10.62625C 16.221441 10.62625 10.625 16.222691 10.625 23.126251ZM 31.965 31.967499L 39.375 39.376251M 29.20125 21.782499L 30.016251 21.3125C 30.614086 20.967312 30.818911 20.20285 30.473749 19.605L 29.848749 18.522499C 29.503563 17.924665 28.739101 17.719839 28.141249 18.065001L 27.334999 18.530001C 26.666849 17.908089 25.869499 17.441544 25 17.16375L 25 16.25C 25 15.559644 24.440357 15 23.75 15L 22.5 15C 21.809643 15 21.25 15.559644 21.25 16.25L 21.25 17.172501C 20.384699 17.452032 19.590816 17.917015 18.92375 18.535L 18.1075 18.063751C 17.509323 17.718798 16.744759 17.924212 16.4 18.522499L 15.775 19.605C 15.429838 20.20285 15.634665 20.967312 16.2325 21.3125L 17.0525 21.786249C 16.855627 22.67 16.855627 23.586246 17.0525 24.469999L 16.237499 24.939999C 15.639211 25.28476 15.433798 26.049322 15.77875 26.647499L 16.403749 27.73C 16.748938 28.327835 17.513399 28.532661 18.11125 28.1875L 18.9175 27.7225C 19.585094 28.343578 20.381535 28.809664 21.249998 29.087498L 21.25 30C 21.25 30.690355 21.809643 31.25 22.5 31.25L 23.75 31.25C 24.440357 31.25 25 30.690355 25 30L 25 29.078749C 25.865929 28.799789 26.660336 28.334749 27.327499 27.716249L 28.141249 28.186249C 28.739101 28.531412 29.503563 28.326586 29.848749 27.72875L 30.473749 26.64625C 30.818911 26.048399 30.614086 25.283937 30.016251 24.938751L 29.1975 24.466249C 29.396059 23.582823 29.397339 22.666477 29.20125 21.782501ZM 20.625 23.126251C 20.625 24.506962 21.744287 25.626251 23.125 25.626251C 24.505713 25.626251 25.625 24.506962 25.625 23.126251C 25.625 21.745539 24.505713 20.626251 23.125 20.626251C 21.744287 20.626251 20.625 21.745539 20.625 23.126251Z"></path></g></g></g><g id="g-root-codi_4mal01syx7up-stroke" data-item-order="0" data-item-id="codi_4mal01syx7up" data-item-class="Icon Stroke" data-item-index="none" data-renderer-id="0" transform="translate(15, 278.0000305175781)"><g id="codi_4mal01syx7up-stroke" fill="none" stroke-linecap="round" stroke-linejoin="round" stroke-miterlimit="4" stroke="#e15e5a" stroke-width="2"><g><path d="M 29.391249 18.48L 30.0425 18.48C 30.402176 18.48 30.69375 18.771576 30.69375 19.13125L 30.69375 23.689999M 29.391249 23.689999L 31.99625 23.689999M 36.348751 10.61125L 37 10.61125C 37.359676 10.61125 37.651249 10.902824 37.651249 11.2625L 37.651249 15.82125M 36.348751 15.82125L 38.953751 15.82125M 36.348751 26.3475L 37 26.3475C 37.359676 26.347502 37.651249 26.639076 37.651249 26.998751L 37.651249 31.557501M 36.348751 31.557501L 38.953751 31.557501M 39.279999 22.061251C 39.280067 22.960487 38.551113 23.689501 37.651875 23.689501C 36.752636 23.689501 36.023682 22.960487 36.02375 22.061251L 36.02375 20.1075C 36.023819 19.208361 36.752735 18.479502 37.651875 18.479502C 38.551014 18.479502 39.27993 19.208361 39.279999 20.1075ZM 32.321251 29.93C 32.321251 30.827463 31.593712 31.555 30.696249 31.555C 29.798786 31.555 29.071251 30.827463 29.071251 29.929998L 29.071251 27.97625C 29.071251 27.078787 29.798786 26.35125 30.696249 26.35125C 31.593712 26.35125 32.321251 27.078787 32.321251 27.97625ZM 36.348751 34.151249L 37 34.151249C 37.359676 34.151253 37.651249 34.442825 37.651249 34.802502L 37.651249 39.361252M 36.348751 39.361252L 38.953751 39.361252M 32.321251 37.733749C 32.321251 38.631214 31.593712 39.358749 30.696249 39.358749C 29.798786 39.358749 29.071251 38.631214 29.071251 37.733749L 29.071251 35.779999C 29.071251 34.882538 29.798786 34.154999 30.696249 34.154999C 31.593712 34.154999 32.321251 34.882538 32.321251 35.779999ZM 32.321251 14.31375C 32.321251 15.211212 31.593712 15.93875 30.696249 15.93875C 29.798786 15.93875 29.071251 15.211212 29.071251 14.31375L 29.071251 12.35875C 29.071251 11.461287 29.798786 10.73375 30.696249 10.73375C 31.593712 10.73375 32.321251 11.461287 32.321251 12.35875ZM 21.94125 31.57625C 21.94125 29.332594 20.122408 27.51375 17.87875 27.51375C 17.813749 27.51375 17.75375 27.530001 17.6875 27.532499M 21.518749 15.5C 22.728825 15.09199 23.436888 13.837584 23.160908 12.590754C 22.88493 11.343922 21.713631 10.505504 20.444403 10.646275C 19.175175 10.787045 18.216061 11.861747 18.220001 13.13875C 18.223526 13.364385 18.257586 13.588504 18.321251 13.805C 18.182501 13.7925 18.04875 13.76375 17.907501 13.76375C 16.12203 13.755033 14.488207 14.766202 13.699514 16.368057C 12.910823 17.969913 13.10563 19.88143 14.20125 21.29125C 12.244255 21.42551 10.725382 23.052155 10.725382 25.01375C 10.725382 26.975344 12.244255 28.601992 14.20125 28.73625C 13.10563 30.146069 12.910823 32.057587 13.699514 33.659443C 14.488207 35.261299 16.12203 36.272465 17.907499 36.263748C 18.04875 36.263748 18.182501 36.233749 18.321251 36.221249C 17.949144 37.535206 18.700275 38.904629 20.008314 39.297024C 21.316353 39.689415 22.697237 38.959568 23.109825 37.657757C 23.522413 36.355946 22.81402 34.963936 21.518749 34.53125M 17.6875 22.5C 17.752501 22.5 17.8125 22.518751 17.87875 22.518751C 20.122408 22.518751 21.94125 20.699907 21.94125 18.456251M 23.217501 13.0175C 23.787304 12.687995 24.434286 12.515466 25.092501 12.5175M 23.106249 37.634998C 23.717001 37.965157 24.400726 38.137051 25.094999 38.134998M 25.095001 18.76375L 25.095001 31.88875"></path></g></g></g><g id="g-root-tx_ai_4kfspg1syx72g-stroke" data-item-order="0" data-item-id="tx_ai_4kfspg1syx72g" data-item-class="Label Stroke" data-item-index="none" data-renderer-id="0" transform="translate(51, 281.0000305175781)"></g><g id="g-root-eye_qn5zpw1sz711j-stroke" data-item-order="0" data-item-id="eye_qn5zpw1sz711j" data-item-class="Icon Stroke" data-item-index="none" data-renderer-id="0" transform="translate(155, 278.0000305175781)"><g id="eye_qn5zpw1sz711j-stroke" fill="none" stroke-linecap="round" stroke-linejoin="round" stroke-miterlimit="4" stroke="#17b0e3" stroke-width="2"><g><path d="M 12.5 13.75L 37.5 13.75C 37.5 13.75 38.75 13.75 38.75 15L 38.75 35C 38.75 35 38.75 36.25 37.5 36.25L 12.5 36.25C 12.5 36.25 11.25 36.25 11.25 35L 11.25 15C 11.25 15 11.25 13.75 12.5 13.75M 15 21.25L 15 18.75C 15 18.059645 15.559644 17.5 16.25 17.5L 18.75 17.5M 35 21.25L 35 18.75C 35 18.059645 34.440353 17.5 33.75 17.5L 31.25 17.5M 15 28.75L 15 31.25C 15 31.940355 15.559644 32.5 16.25 32.5L 18.75 32.5M 35 28.75L 35 31.25C 35 31.940355 34.440353 32.5 33.75 32.5L 31.25 32.5M 21.875 25C 21.875 26.725891 23.274111 28.125 25 28.125C 26.725891 28.125 28.125 26.725891 28.125 25C 28.125 23.274111 26.725891 21.875 25 21.875C 23.274111 21.875 21.875 23.274111 21.875 25M 32.28125 24.440001C 31.4725 23.557499 28.518749 20.625 25 20.625C 21.481251 20.625 18.5275 23.557499 17.71875 24.440001C 17.424034 24.757095 17.424034 25.247906 17.71875 25.565001C 18.5275 26.442501 21.481251 29.375 25 29.375C 28.518749 29.375 31.4725 26.442501 32.28125 25.559999C 32.575966 25.242905 32.575966 24.752096 32.28125 24.435001Z"></path></g></g></g><g id="g-root-tx_computer_v2zhuc1sz709a-stroke" data-item-order="0" data-item-id="tx_computer_v2zhuc1sz709a" data-item-class="Label Stroke" data-item-index="none" data-renderer-id="0" transform="translate(191, 269.0000305175781)"></g><g id="g-root-tx_expertsy_1cuw2l01synegw-stroke" data-item-order="0" data-item-id="tx_expertsy_1cuw2l01synegw" data-item-class="Label Stroke" data-item-index="none" data-renderer-id="0" transform="translate(191, 499.0000305175781)"></g><g id="g-root-chem_qof11w1syndop-stroke" data-item-order="0" data-item-id="chem_qof11w1syndop" data-item-class="Icon Stroke" data-item-index="none" data-renderer-id="0" transform="translate(155, 508.0000305175781)"><g id="chem_qof11w1syndop-stroke" fill="none" stroke-linecap="round" stroke-linejoin="round" stroke-miterlimit="4" stroke="#17b0e3" stroke-width="2"><g><path d="M 27.012499 22.33375L 34.959999 22.33375M 33.825001 28.01L 33.825001 22.33375L 28.147499 22.33375L 28.147499 28.01L 23.04875 35.856251C 22.595963 36.554638 22.561197 37.444679 22.95813 38.176254C 23.355062 38.907829 24.12018 39.363876 24.952499 39.365002L 37.021252 39.365002C 37.853573 39.363876 38.618687 38.907829 39.015621 38.176254C 39.412552 37.444679 39.377789 36.554638 38.925003 35.856251ZM 25.93375 31.416248L 36.03875 31.416248M 16.956249 31.884998L 21.956249 31.884998M 10.70625 24.385L 24.456249 24.385M 20.706249 28.135L 20.706249 30.009998C 20.706251 31.045534 19.866785 31.885002 18.831249 31.885002M 35.706249 19.385L 35.706249 11.885C 35.706249 11.194644 35.146606 10.635 34.456249 10.635L 11.95625 10.635C 11.265894 10.635 10.70625 11.194644 10.70625 11.885L 10.70625 26.885C 10.70625 27.575356 11.265894 28.135 11.95625 28.135L 24.456249 28.135"></path></g></g></g><g id="g-root-tx_predicti_zjfk7o1syotfw-stroke" data-item-order="0" data-item-id="tx_predicti_zjfk7o1syotfw" data-item-class="Label Stroke" data-item-index="none" data-renderer-id="0" transform="translate(415, 15)"></g><g id="g-root-driv_dbpkic1syszcy-stroke" data-item-order="0" data-item-id="driv_dbpkic1syszcy" data-item-class="Icon Stroke" data-item-index="none" data-renderer-id="0" transform="translate(379, 324.0000305175781)"><g id="driv_dbpkic1syszcy-stroke" fill="none" stroke-linecap="round" stroke-linejoin="round" stroke-miterlimit="4" stroke="#17b0e3" stroke-width="2"><g><path d="M 34.471249 22.299999C 36.716396 27.691847 34.789593 33.917889 29.891327 37.09903C 24.993059 40.28017 18.521545 39.508347 14.508828 35.264435C 10.49611 31.020525 10.087625 24.515963 13.537876 19.803379C 16.988129 15.090795 23.312237 13.515407 28.570002 16.05875M 15.32625 24.35125C 17.966658 23.987127 20.627289 23.788822 23.292501 23.7575C 25.95813 23.788784 28.619177 23.987091 31.259998 24.35125M 14.9875 27.93375C 18.88125 27.16375 21.346249 31.2575 21.346249 35.108749M 31.602499 27.93375C 27.70875 27.16375 25.24 31.2575 25.24 35.108749M 31.983749 18.764999L 34.07375 11.8C 34.305687 11.275462 34.825222 10.937127 35.39875 10.937127C 35.972279 10.937127 36.491817 11.275462 36.723751 11.8L 38.8125 18.764999M 32.837502 15.91875L 37.959999 15.91875M 14.91125 26.956249C 14.910533 31.585594 18.663157 35.338799 23.2925 35.338799C 27.921844 35.338799 31.674465 31.585594 31.673748 26.956249C 31.674465 22.326906 27.921844 18.573702 23.2925 18.573702C 18.663157 18.573702 14.910533 22.326906 14.91125 26.956249"></path></g></g></g><g id="g-root-tx_autonomo_qwj76c1syrmdd-stroke" data-item-order="0" data-item-id="tx_autonomo_qwj76c1syrmdd" data-item-class="Label Stroke" data-item-index="none" data-renderer-id="0" transform="translate(415, 315.0000305175781)"></g><g id="g-root-1_8x50k41syotfx-stroke" data-item-order="0" data-item-id="1_8x50k41syotfx" data-item-class="Icon Stroke" data-item-index="none" data-renderer-id="0" transform="translate(379, 24)"><g id="1_8x50k41syotfx-stroke" fill="none" stroke-linecap="round" stroke-linejoin="round" stroke-miterlimit="4" stroke="#17b0e3" stroke-width="2"><g><path d="M 24.2575 39.375L 23.467501 32.098751C 23.361099 31.041378 22.52487 30.205147 21.467499 30.098747L 17.2675 29.678749L 17.852501 25.766251L 19.327499 27.120001C 19.740341 27.497471 20.279356 27.707012 20.838749 27.707499C 21.066917 27.707682 21.293747 27.672688 21.511251 27.603752L 26.059999 26.1675C 26.830568 25.934643 27.416386 25.305399 27.593634 24.520172C 27.770884 23.734947 27.512177 22.915068 26.916355 22.373777C 26.320534 21.832487 25.479662 21.653425 24.715 21.904999L 21.397499 22.952501L 17.512501 19.385C 16.880005 18.820683 15.984035 18.659721 15.194672 18.968603C 14.405307 19.277485 13.856524 20.003784 13.775 20.8475L 12.945 30.875C 12.844721 32.088268 13.733912 33.15863 14.945 33.282501L 19.51125 33.73875L 20.08 39.375M 19.55875 11.78875C 18.52125 14.934999 13.455 14.18375 13.455 14.18375L 11.341249 19.395M 13.455 14.18375C 13.417741 13.242929 13.769578 12.328289 14.427749 11.654983C 15.08592 10.981676 15.992326 10.609138 16.93375 10.625C 17.874313 10.610527 18.779398 10.983677 19.436468 11.656824C 20.093538 12.329971 20.444702 13.243812 20.407501 14.18375L 20.407501 14.455C 20.40819 16.337601 18.882601 17.864309 17 17.865C 16.049294 17.856236 15.144343 17.455526 14.498841 16.757494C 13.853339 16.059464 13.524509 15.125989 13.59 14.1775M 10.71625 39.355L 11.355 33.608749L 18.25625 33.608749M 33.395 34.112503L 33.796249 33.818748C 34.467548 33.325668 35.390144 33.360374 36.022499 33.9025L 36.022499 33.9025C 36.689045 34.475235 37.672905 34.478943 38.34375 33.911251L 39.283749 33.125L 38.828751 30.19875C 38.73444 29.589603 38.210155 29.140141 37.59375 29.139999L 27.077499 29.139999C 26.461094 29.140141 25.93681 29.589603 25.842499 30.19875L 25.387501 33.125L 26.32625 33.911251C 26.997688 34.478603 27.981604 34.474899 28.64875 33.9025L 28.64875 33.9025C 29.281105 33.360374 30.203701 33.325668 30.874998 33.818748L 31.275002 34.112503C 31.906843 34.572392 32.763157 34.572392 33.395 34.112499ZM 32.334999 39.355L 32.334999 34.459999M 29.81625 22.43C 29.815678 24.546345 31.531155 26.262283 33.647499 26.262283C 35.763844 26.262283 37.479321 24.546345 37.478748 22.43C 37.479321 20.313656 35.763844 18.597717 33.647499 18.597717C 31.531155 18.597717 29.815678 20.313656 29.81625 22.43M 29.1775 15.40625L 30.455 16.045M 33.647499 13.49125L 33.647499 14.76875M 38.116249 15.40625L 36.838753 16.045M 31.77375 25.77125L 30.637501 29.139999M 35.518753 25.77125L 36.65625 29.139999M 30.39625 29.139999L 29.9025 33.47625M 34.465 29.139999L 34.958748 33.47625"></path></g></g></g><g id="g-root-tx_machinel_7qo0k1sz00lh-stroke" data-item-order="0" data-item-id="tx_machinel_7qo0k1sz00lh" data-item-class="Label Stroke" data-item-index="none" data-renderer-id="0" transform="translate(191, 15)"></g><g id="g-root-tx_robotics_146474k1sz737m-stroke" data-item-order="0" data-item-id="tx_robotics_146474k1sz737m" data-item-class="Label Stroke" data-item-index="none" data-renderer-id="0" transform="translate(191, 419.0000305175781)"></g><g id="g-root-robo_1lvivis1sysyko-stroke" data-item-order="0" data-item-id="robo_1lvivis1sysyko" data-item-class="Icon Stroke" data-item-index="none" data-renderer-id="0" transform="translate(379, 416.0000305175781)"><g id="robo_1lvivis1sysyko-stroke" fill="none" stroke-linecap="round" stroke-linejoin="round" stroke-miterlimit="4" stroke="#17b0e3" stroke-width="2"><g><path d="M 10.625 21.875C 10.625 26.707493 17.060907 30.625 25 30.625C 32.939095 30.625 39.375 26.707493 39.375 21.875C 39.375 17.042509 32.939095 13.125001 25 13.125001C 17.060907 13.125001 10.625 17.042509 10.625 21.875ZM 39.375 21.875L 39.375 28.125C 39.375 32.9575 32.938751 36.875 25 36.875C 17.061251 36.875 10.625 32.9575 10.625 28.125L 10.625 21.875M 18.125 21.875C 18.125 23.600889 21.203043 25 25 25C 28.796957 25 31.875 23.600889 31.875 21.875C 31.875 20.149111 28.796957 18.75 25 18.75C 21.203043 18.75 18.125 20.149111 18.125 21.875ZM 25 21.5625C 25.172588 21.5625 25.3125 21.702412 25.3125 21.875C 25.3125 22.047588 25.172588 22.1875 25 22.1875C 24.827412 22.1875 24.6875 22.047588 24.6875 21.875C 24.6875 21.702412 24.827412 21.5625 25 21.5625M 18.088751 16.977499C 20.273169 16.05027 22.627199 15.589598 25 15.625C 27.343193 15.591342 29.668324 16.039349 31.831249 16.94125M 21.918751 30.423752C 21.5975 28.856251 23.099998 27.5 25 27.5C 26.900002 27.5 28.4025 28.856251 28.081249 30.423752"></path></g></g></g><g id="g-root-tx_autonomo_4l2cyc1syszkf-stroke" data-item-order="0" data-item-id="tx_autonomo_4l2cyc1syszkf" data-item-class="Label Stroke" data-item-index="none" data-renderer-id="0" transform="translate(415, 407.0000305175781)"></g><g id="g-root-char_1qd7pqs1sz0172-stroke" data-item-order="0" data-item-id="char_1qd7pqs1sz0172" data-item-class="Icon Stroke" data-item-index="none" data-renderer-id="0" transform="translate(155, 24)"><g id="char_1qd7pqs1sz0172-stroke" fill="none" stroke-linecap="round" stroke-linejoin="round" stroke-miterlimit="4" stroke="#17b0e3" stroke-width="2"><g><path d="M 16.25 37.505001L 33.75 37.505001M 24.375 35.005001L 24.375 37.505001M 10.625 30.004999L 39.375 30.004999M 14.375 21.254999C 14.375 24.706779 17.17322 27.504999 20.625 27.504999C 24.07678 27.504999 26.875 24.706779 26.875 21.254999C 26.875 17.803221 24.07678 15.005 20.625 15.005C 17.17322 15.005 14.375 17.803221 14.375 21.254999M 24.158749 16.1L 20.625 21.254999L 24.63125 26.049999M 20.625 21.254999L 14.375 21.254999M 30.625 16.255001L 35.625 16.255001M 30.625 20.004999L 35.625 20.004999M 30.625 23.754999L 35.625 23.754999M 12.5 12.505L 37.5 12.505C 37.5 12.505 39.375 12.505 39.375 14.38L 39.375 33.130001C 39.375 33.130001 39.375 35.005001 37.5 35.005001L 12.5 35.005001C 12.5 35.005001 10.625 35.005001 10.625 33.130001L 10.625 14.38C 10.625 14.38 10.625 12.505 12.5 12.505"></path></g></g></g><g id="g-root-1_qva5uc1sz71mr-stroke" data-item-order="0" data-item-id="1_qva5uc1sz71mr" data-item-class="Icon Stroke" data-item-index="none" data-renderer-id="0" transform="translate(155, 416.0000305175781)"><g id="1_qva5uc1sz71mr-stroke" fill="none" stroke-linecap="round" stroke-linejoin="round" stroke-miterlimit="4" stroke="#17b0e3" stroke-width="2"><g><path d="M 22.20125 33.49625L 15.66375 28.796249M 18.807501 25.216251L 24.18125 29.199999M 11.02625 24.855C 11.02625 27.008221 12.77178 28.75375 14.925 28.75375C 17.07822 28.75375 18.82375 27.008221 18.82375 24.855C 18.82375 22.70178 17.07822 20.956251 14.925 20.956251C 12.77178 20.956251 11.02625 22.70178 11.02625 24.855M 18.49625 23.29125L 24.331249 17.608749M 22.539999 13.51125L 14.690001 20.963749M 22.424999 14.54625C 22.424675 16.431843 23.953157 17.960588 25.838749 17.960588C 27.72434 17.960588 29.252825 16.431843 29.252499 14.546249C 29.252825 12.660658 27.72434 11.13191 25.838749 11.13191C 23.953157 11.13191 22.424675 12.660658 22.424999 14.546249M 29 15.83625L 32.092499 19C 32.736763 19.658016 32.751064 20.705896 32.125 21.38125L 32.125 21.381248C 31.803484 21.72744 31.354124 21.92672 30.881699 21.932625C 30.409271 21.93853 29.955072 21.750544 29.625 21.412502L 26.224998 17.938749M 11.3525 38.868748L 38.852501 38.868748M 22.20125 35.83625L 22.20125 32.43375C 22.238005 30.450748 23.856033 28.862432 25.839375 28.862432C 27.822718 28.862432 29.440746 30.450748 29.477501 32.43375L 29.477499 35.783752M 14.3 24.647501C 14.3 24.992678 14.579823 25.272501 14.925 25.272501C 15.270178 25.272501 15.55 24.992678 15.55 24.647501C 15.55 24.302322 15.270178 24.022501 14.925 24.022501C 14.579823 24.022501 14.3 24.302322 14.3 24.647501M 25.213749 32.40625C 25.213749 32.751431 25.493572 33.03125 25.838749 33.03125C 26.183928 33.03125 26.463749 32.751431 26.463749 32.40625C 26.463749 32.061073 26.183928 31.78125 25.838749 31.78125C 25.493572 31.78125 25.213749 32.061073 25.213749 32.40625M 21.473749 35.83625L 30.144999 35.83625C 30.835358 35.83625 31.394999 36.395893 31.394999 37.08625L 31.394999 38.868748L 31.394999 38.868748L 20.223749 38.868748L 20.223749 38.868748L 20.223749 37.08625C 20.223749 36.395893 20.783394 35.83625 21.473749 35.83625ZM 31.75 18.63625C 31.986919 18.339533 32.3237 18.139153 32.697502 18.0725C 34.249176 17.788521 35.846855 18.20796 37.058941 19.21751C 38.27103 20.227058 38.972458 21.722553 38.973751 23.300001C 38.973751 24.162945 38.274197 24.862501 37.411251 24.862501C 36.548306 24.862501 35.848751 24.162945 35.848751 23.300001C 35.847851 22.648012 35.556664 22.030287 35.054306 21.614679C 34.551952 21.199072 33.890617 21.028751 33.25 21.15C 33.01144 21.192165 32.766373 21.178907 32.533752 21.111252M 31.4025 21.782499C 31.455261 22.077248 31.422289 22.380945 31.307503 22.657501C 31.050968 23.257044 31.074965 23.939726 31.372967 24.519775C 31.670969 25.099827 32.211967 25.516899 32.848751 25.657499C 33.691673 25.843204 34.224457 26.677076 34.03875 27.52C 33.853043 28.362925 33.019176 28.895706 32.17625 28.709999C 30.637434 28.36875 29.32938 27.362255 28.60524 25.962246C 27.881096 24.562239 27.815535 22.913076 28.426249 21.459999C 28.51322 21.24922 28.645517 21.060163 28.813751 20.90625"></path></g></g></g><g id="g-root-cu_18gxzpw1syud57-stroke" data-item-order="2" data-item-id="cu_18gxzpw1syud57" data-item-class="Curve Stroke" data-item-index="none" data-renderer-id="0" transform="translate(311, 431.0000305175781)"><g id="cu_18gxzpw1syud57-stroke" fill="none" stroke-linecap="round" stroke-linejoin="round" stroke-miterlimit="4" stroke="#484848" stroke-width="2"><g><path d="M 10 10L 38 10L 64 10"></path><path d="M 58 16.5L 64.5 10L 58 3.5" stroke-dasharray="none"></path></g></g></g><g id="g-root-cu_18gxzpw1syud5a-stroke" data-item-order="2" data-item-id="cu_18gxzpw1syud5a" data-item-class="Curve Stroke" data-item-index="none" data-renderer-id="0" transform="translate(311, 293.0000305175781)"><g id="cu_18gxzpw1syud5a-stroke" fill="none" stroke-linecap="round" stroke-linejoin="round" stroke-miterlimit="4" stroke="#484848" stroke-width="2"><g><path d="M 10 10L 24 10L 38 10L 38 33L 38 56L 52 56L 64 56"></path><path d="M 58 62.5L 64.5 56L 58 49.5" stroke-dasharray="none"></path></g></g></g><g id="g-root-cu_18gxzpw1syudxi-stroke" data-item-order="2" data-item-id="cu_18gxzpw1syudxi" data-item-class="Curve Stroke" data-item-index="none" data-renderer-id="0" transform="translate(87, 293.0000305175781)"><g id="cu_18gxzpw1syudxi-stroke" fill="none" stroke-linecap="round" stroke-linejoin="round" stroke-miterlimit="4" stroke="#484848" stroke-width="2"><g><path d="M 10 10L 38 10L 64 10"></path><path d="M 58 16.5L 64.5 10L 58 3.5" stroke-dasharray="none"></path></g></g></g><g id="g-root-cu_18gxzpw1syudxg-stroke" data-item-order="2" data-item-id="cu_18gxzpw1syudxg" data-item-class="Curve Stroke" data-item-index="none" data-renderer-id="0" transform="translate(87, 293.0000305175781)"><g id="cu_18gxzpw1syudxg-stroke" fill="none" stroke-linecap="round" stroke-linejoin="round" stroke-miterlimit="4" stroke="#484848" stroke-width="2"><g><path d="M 10 10L 24 10L 38 10L 38 79L 38 148L 52 148L 64 148"></path><path d="M 58 154.5L 64.5 148L 58 141.5" stroke-dasharray="none"></path></g></g></g><g id="g-root-cu_18gxzpw1syudxd-stroke" data-item-order="2" data-item-id="cu_18gxzpw1syudxd" data-item-class="Curve Stroke" data-item-index="none" data-renderer-id="0" transform="translate(87, 293.0000305175781)"><g id="cu_18gxzpw1syudxd-stroke" fill="none" stroke-linecap="round" stroke-linejoin="round" stroke-miterlimit="4" stroke="#484848" stroke-width="2"><g><path d="M 10 10L 24 10L 38 10L 38 125L 38 240L 52 240L 64 240"></path><path d="M 58 246.5L 64.5 240L 58 233.5" stroke-dasharray="none"></path></g></g></g><g id="g-root-cu_1cwrhuc1syud4x-stroke" data-item-order="2" data-item-id="cu_1cwrhuc1syud4x" data-item-class="Curve Stroke" data-item-index="none" data-renderer-id="0" transform="translate(311, 247.00003051757812)"><g id="cu_1cwrhuc1syud4x-stroke" fill="none" stroke-linecap="round" stroke-linejoin="round" stroke-miterlimit="4" stroke="#484848" stroke-width="2"><g><path d="M 10 56L 24 56L 38 56L 38 33L 38 10L 52 10L 64 10"></path><path d="M 58 16.5L 64.5 10L 58 3.5" stroke-dasharray="none"></path></g></g></g><g id="g-root-cu_1cwrhuc1syud4z-stroke" data-item-order="2" data-item-id="cu_1cwrhuc1syud4z" data-item-class="Curve Stroke" data-item-index="none" data-renderer-id="0" transform="translate(311, 143.00003051757812)"><g id="cu_1cwrhuc1syud4z-stroke" fill="none" stroke-linecap="round" stroke-linejoin="round" stroke-miterlimit="4" stroke="#484848" stroke-width="2"><g><path d="M 10 10L 38 10L 64 10"></path><path d="M 58 16.5L 64.5 10L 58 3.5" stroke-dasharray="none"></path></g></g></g><g id="g-root-cu_18gxzpw1syudxk-stroke" data-item-order="2" data-item-id="cu_18gxzpw1syudxk" data-item-class="Curve Stroke" data-item-index="none" data-renderer-id="0" transform="translate(87, 143.00003051757812)"><g id="cu_18gxzpw1syudxk-stroke" fill="none" stroke-linecap="round" stroke-linejoin="round" stroke-miterlimit="4" stroke="#484848" stroke-width="2"><g><path d="M 10 160L 24 160L 38 160L 38 85L 38 10L 52 10L 64 10"></path><path d="M 58 16.5L 64.5 10L 58 3.5" stroke-dasharray="none"></path></g></g></g><g id="g-root-cu_1cwrhuc1syud52-stroke" data-item-order="2" data-item-id="cu_1cwrhuc1syud52" data-item-class="Curve Stroke" data-item-index="none" data-renderer-id="0" transform="translate(311, 39)"><g id="cu_1cwrhuc1syud52-stroke" fill="none" stroke-linecap="round" stroke-linejoin="round" stroke-miterlimit="4" stroke="#484848" stroke-width="2"><g><path d="M 10 10.000031L 38 10.000031L 64 10.000031"></path><path d="M 58 16.500031L 64.5 10.000031L 58 3.500031" stroke-dasharray="none"></path></g></g></g><g id="g-root-cu_18gxzpw1syudxm-stroke" data-item-order="2" data-item-id="cu_18gxzpw1syudxm" data-item-class="Curve Stroke" data-item-index="none" data-renderer-id="0" transform="translate(87, 39)"><g id="cu_18gxzpw1syudxm-stroke" fill="none" stroke-linecap="round" stroke-linejoin="round" stroke-miterlimit="4" stroke="#484848" stroke-width="2"><g><path d="M 10 264.000031L 24 264.000031L 38 264.000031L 38 137.000031L 38 10.000031L 52 10.000031L 64 10.000031"></path><path d="M 58 16.500031L 64.5 10.000031L 58 3.500031" stroke-dasharray="none"></path></g></g></g><g id="g-root-cu_1hbyivo1syufi8-stroke" data-item-order="2" data-item-id="cu_1hbyivo1syufi8" data-item-class="Curve Stroke" data-item-index="none" data-renderer-id="0" transform="translate(311, 523)"><g id="cu_1hbyivo1syufi8-stroke" fill="none" stroke-linecap="round" stroke-linejoin="round" stroke-miterlimit="4" stroke="#484848" stroke-width="2"><g><path d="M 10 10L 38 10L 64 10"></path><path d="M 58 16.5L 64.5 10L 58 3.5" stroke-dasharray="none"></path></g></g></g></g></g></svg>