<?xml version="1.0" encoding="utf-8" standalone="yes"?>
<!DOCTYPE svg PUBLIC "-//W3C//DTD SVG 1.1//EN" "http://www.w3.org/Graphics/SVG/1.1/DTD/svg11.dtd">
<svg width="543" height="484" viewBox="0 0 543 484" style="fill:none;stroke:none;fill-rule:evenodd;clip-rule:evenodd;stroke-linecap:round;stroke-linejoin:round;stroke-miterlimit:1.5;" version="1.1" xmlns="http://www.w3.org/2000/svg" xmlns:xlink="http://www.w3.org/1999/xlink"><style id="fontImports">@import url("https://fonts.googleapis.com/css2?family=Shantell+Sans:wght@300..800&amp;display=block");</style><rect id="" x="0" y="0" width="542.001" height="484" style="fill: #ffffff;"></rect><g id="items" style="isolation: isolate"><g id="blend" style="mix-blend-mode:multiply"><g id="g-root-3.cu_sy_mfgu1g1ucld73-fill" data-item-order="-229819" data-item-id="3.cu_sy_mfgu1g1ucld73" data-item-class="ScenePart Part Indexed Stroke ColorStrokeBlack" data-item-index="3" data-renderer-id="0" transform="translate(4, 111.9990234375)"></g><g id="g-root-2.cu_sy_vb3uac1uclcee-fill" data-item-order="-229817" data-item-id="2.cu_sy_vb3uac1uclcee" data-item-class="ScenePart Part Indexed Stroke ColorStrokeBlack" data-item-index="2" data-renderer-id="0" transform="translate(256.0010070800781, 4)"></g><g id="g-root-1.cu_sy_1d1rdp01ucld71-fill" data-item-order="-229816" data-item-id="1.cu_sy_1d1rdp01ucld71" data-item-class="ScenePart Part Indexed Indexed_1 Fill Stroke ColorStrokeBlack" data-item-index="1" data-renderer-id="0" transform="translate(226.00100708007812, 28)"><g id="1.cu_sy_1d1rdp01ucld71-fill" stroke="none" fill="none"><g><path d="M 10 34L 28 10L 28 18L 52 18L 52 10L 70 34L 52 58L 52 50L 28 50L 28 58L 10 34Z"></path></g></g></g><g id="g-root-tx_pros_18iti501ucmqz0-fill" data-item-order="0" data-item-id="tx_pros_18iti501ucmqz0" data-item-class="Label Stroke SceneTarget ColorStrokeBlack" data-item-index="none" data-renderer-id="0" transform="translate(64.00100708007812, 40)"><g id="tx_pros_18iti501ucmqz0-fill" stroke="none" fill="#484848"><g><text style="font: 20px &quot;Shantell Sans&quot;, cursive; white-space: pre;"><tspan x="12" y="35" dominant-baseline="ideographic">Pros</tspan></text></g></g></g><g id="g-root-tx_cons_1hegidw1ucmq6b-fill" data-item-order="0" data-item-id="tx_cons_1hegidw1ucmq6b" data-item-class="Label Stroke SceneTarget ColorStrokeBlack" data-item-index="none" data-renderer-id="0" transform="translate(364.0010070800781, 40)"><g id="tx_cons_1hegidw1ucmq6b-fill" stroke="none" fill="#484848"><g><text style="font: 20px &quot;Shantell Sans&quot;, cursive; white-space: pre;"><tspan x="12" y="35" dominant-baseline="ideographic">Cons</tspan></text></g></g></g><g id="g-root-robo_1q883dg1uczeh2-fill" data-item-order="0" data-item-id="robo_1q883dg1uczeh2" data-item-class="Icon Stroke SceneTarget Indexed Indexed_1 ColorStrokeBlack" data-item-index="1" data-renderer-id="0" transform="translate(4.001007080078125, 148)"></g><g id="g-root-tx_automate_1ltnjf81ucmsju-fill" data-item-order="0" data-item-id="tx_automate_1ltnjf81ucmsju" data-item-class="Label Stroke SceneTarget Indexed Indexed_1 ColorStrokeBlack" data-item-index="1" data-renderer-id="0" transform="translate(64.00100708007812, 148)"><g id="tx_automate_1ltnjf81ucmsju-fill" stroke="none" fill="#484848"><g><text style="font: 20px &quot;Shantell Sans&quot;, cursive; white-space: pre;"><tspan x="12" y="35" dominant-baseline="ideographic">Automates </tspan><tspan x="12" y="59" dominant-baseline="ideographic">tasks</tspan></text></g></g></g><g id="g-root-fold_1lr5n2s1uczd35-fill" data-item-order="0" data-item-id="fold_1lr5n2s1uczd35" data-item-class="Icon Stroke SceneTarget Indexed ColorStrokeBlack" data-item-index="101" data-renderer-id="0" transform="translate(304.0010070800781, 148)"></g><g id="g-root-tx_requires_v641lg1ucmqdp-fill" data-item-order="0" data-item-id="tx_requires_v641lg1ucmqdp" data-item-class="Label Stroke SceneTarget Indexed ColorStrokeBlack" data-item-index="101" data-renderer-id="0" transform="translate(364.0010070800781, 148)"><g id="tx_requires_v641lg1ucmqdp-fill" stroke="none" fill="#484848"><g><text style="font: 20px &quot;Shantell Sans&quot;, cursive; white-space: pre;"><tspan x="12" y="35" dominant-baseline="ideographic">Requires large </tspan><tspan x="12" y="59" dominant-baseline="ideographic">data</tspan></text></g></g></g><g id="g-root-sett_4ikjro1uczd39-fill" data-item-order="0" data-item-id="sett_4ikjro1uczd39" data-item-class="Icon Stroke SceneTarget Indexed ColorStrokeBlack" data-item-index="2" data-renderer-id="0" transform="translate(4.001007080078125, 232)"></g><g id="g-root-tx_improves_1upajo41ucmrr5-fill" data-item-order="0" data-item-id="tx_improves_1upajo41ucmrr5" data-item-class="Label Stroke SceneTarget Indexed ColorStrokeBlack" data-item-index="2" data-renderer-id="0" transform="translate(64.00100708007812, 232)"><g id="tx_improves_1upajo41ucmrr5-fill" stroke="none" fill="#484848"><g><text style="font: 20px &quot;Shantell Sans&quot;, cursive; white-space: pre;"><tspan x="12" y="35" dominant-baseline="ideographic">Improves </tspan><tspan x="12" y="59" dominant-baseline="ideographic">decisions</tspan></text></g></g></g><g id="g-root-uneq_vmdw1uczev4-fill" data-item-order="0" data-item-id="uneq_vmdw1uczev4" data-item-class="Icon Stroke SceneTarget Indexed ColorStrokeBlack" data-item-index="102" data-renderer-id="0" transform="translate(304.0010070800781, 232)"></g><g id="g-root-tx_potentia_1hcl34k1ucmr5w-fill" data-item-order="0" data-item-id="tx_potentia_1hcl34k1ucmr5w" data-item-class="Label Stroke SceneTarget Indexed ColorStrokeBlack" data-item-index="102" data-renderer-id="0" transform="translate(364.0010070800781, 232)"><g id="tx_potentia_1hcl34k1ucmr5w-fill" stroke="none" fill="#484848"><g><text style="font: 20px &quot;Shantell Sans&quot;, cursive; white-space: pre;"><tspan x="12" y="35" dominant-baseline="ideographic">Potential </tspan><tspan x="12" y="59" dominant-baseline="ideographic">biases</tspan></text></g></g></g><g id="g-root-3_v4v3f81uczd37-fill" data-item-order="0" data-item-id="3_v4v3f81uczd37" data-item-class="Icon Stroke SceneTarget Indexed ColorStrokeBlack" data-item-index="3" data-renderer-id="0" transform="translate(4.001007080078125, 316)"></g><g id="g-root-tx_enhances_4jthxw1ucmqdr-fill" data-item-order="0" data-item-id="tx_enhances_4jthxw1ucmqdr" data-item-class="Label Stroke SceneTarget Indexed ColorStrokeBlack" data-item-index="3" data-renderer-id="0" transform="translate(64.00100708007812, 316)"><g id="tx_enhances_4jthxw1ucmqdr-fill" stroke="none" fill="#484848"><g><text style="font: 20px &quot;Shantell Sans&quot;, cursive; white-space: pre;"><tspan x="12" y="35" dominant-baseline="ideographic">Enhances </tspan><tspan x="12" y="59" dominant-baseline="ideographic">productivity</tspan></text></g></g></g><g id="g-root-lock_hrj5sk1uczfnq-fill" data-item-order="0" data-item-id="lock_hrj5sk1uczfnq" data-item-class="Icon Stroke SceneTarget Indexed ColorStrokeBlack" data-item-index="103" data-renderer-id="0" transform="translate(304.0010070800781, 316)"></g><g id="g-root-tx_ethicalc_zk24gk1ucmrcy-fill" data-item-order="0" data-item-id="tx_ethicalc_zk24gk1ucmrcy" data-item-class="Label Stroke SceneTarget Indexed ColorStrokeBlack" data-item-index="103" data-renderer-id="0" transform="translate(364.0010070800781, 316)"><g id="tx_ethicalc_zk24gk1ucmrcy-fill" stroke="none" fill="#484848"><g><text style="font: 20px &quot;Shantell Sans&quot;, cursive; white-space: pre;"><tspan x="12" y="35" dominant-baseline="ideographic">Ethical </tspan><tspan x="12" y="59" dominant-baseline="ideographic">concerns</tspan></text></g></g></g><g id="g-root-2_18fp4pg1uczeo2-fill" data-item-order="0" data-item-id="2_18fp4pg1uczeo2" data-item-class="Icon Stroke SceneTarget Indexed ColorStrokeBlack" data-item-index="4" data-renderer-id="0" transform="translate(4.001007080078125, 400)"></g><g id="g-root-tx_operates_deu13o1ucmsqu-fill" data-item-order="0" data-item-id="tx_operates_deu13o1ucmsqu" data-item-class="Label Stroke SceneTarget Indexed ColorStrokeBlack" data-item-index="4" data-renderer-id="0" transform="translate(64.00100708007812, 400)"><g id="tx_operates_deu13o1ucmsqu-fill" stroke="none" fill="#484848"><g><text style="font: 20px &quot;Shantell Sans&quot;, cursive; white-space: pre;"><tspan x="12" y="35" dominant-baseline="ideographic">Operates </tspan><tspan x="12" y="59" dominant-baseline="ideographic">24/7</tspan></text></g></g></g><g id="g-root-sear_v2zo5w1ucze2t-fill" data-item-order="0" data-item-id="sear_v2zo5w1ucze2t" data-item-class="Icon Stroke SceneTarget Indexed ColorStrokeBlack" data-item-index="104" data-renderer-id="0" transform="translate(304.0010070800781, 400)"></g><g id="g-root-tx_jobdispl_4gp4ic1ucmpz5-fill" data-item-order="0" data-item-id="tx_jobdispl_4gp4ic1ucmpz5" data-item-class="Label Stroke SceneTarget Indexed ColorStrokeBlack" data-item-index="104" data-renderer-id="0" transform="translate(364.0010070800781, 388)"><g id="tx_jobdispl_4gp4ic1ucmpz5-fill" stroke="none" fill="#484848"><g><text style="font: 20px &quot;Shantell Sans&quot;, cursive; white-space: pre;"><tspan x="12" y="35" dominant-baseline="ideographic">Job </tspan><tspan x="12" y="59" dominant-baseline="ideographic">displacement </tspan><tspan x="12" y="83" dominant-baseline="ideographic">concerns</tspan></text></g></g></g><g id="g-root-3.cu_sy_mfgu1g1ucld73-stroke" data-item-order="-229819" data-item-id="3.cu_sy_mfgu1g1ucld73" data-item-class="ScenePart Part Indexed Stroke ColorStrokeBlack" data-item-index="3" data-renderer-id="0" transform="translate(4, 111.9990234375)"><g id="3.cu_sy_mfgu1g1ucld73-stroke" fill="none" stroke-linecap="round" stroke-linejoin="round" stroke-miterlimit="4" stroke="#484848" stroke-width="4"><g><path d="M 514 10C 496 11.9 477.7 9.4 459.6 10C 439.2 10.6 418.7 10.7 398.3 10C 381.6 9.4 364.8 11.3 348.2 10C 329.8 8.6 311.3 8.4 292.9 10C 273.5 11.7 253.9 10.2 234.3 10C 215.5 9.8 196.6 11 177.8 10C 158 9 138.1 9.9 118.3 10C 100.9 10.1 83.3 8.3 66 10C 47.4 11.8 28.6 11.1 10 10"></path><path d="M 514.000007 9.999976L 10.000007 10.000976"></path></g></g></g><g id="g-root-2.cu_sy_vb3uac1uclcee-stroke" data-item-order="-229817" data-item-id="2.cu_sy_vb3uac1uclcee" data-item-class="ScenePart Part Indexed Stroke ColorStrokeBlack" data-item-index="2" data-renderer-id="0" transform="translate(256.0010070800781, 4)"><g id="2.cu_sy_vb3uac1uclcee-stroke" fill="none" stroke-linecap="round" stroke-linejoin="round" stroke-miterlimit="4" stroke="#484848" stroke-width="4"><g><path d="M 10 298C 11 284.9 10 271.8 10 258.7C 9.9 243.8 10.8 228.9 10 214M 10 382C 9.2 354 9 326 10 298M 10 466C 10.4 438 10.5 410 10 382M 10 214C 9.7 182 9 150 10 118M 10 118C 11.7 105.4 8.6 92.6 10 80M 10 36C 9.6 27.3 10 18.7 10 10"></path><path d="M 10 298L 10 214M 10 382L 10 298M 10 466L 10 382M 10 214L 10 118M 10 118L 10 80M 10 36L 10 10"></path></g></g></g><g id="g-root-1.cu_sy_1d1rdp01ucld71-stroke" data-item-order="-229816" data-item-id="1.cu_sy_1d1rdp01ucld71" data-item-class="ScenePart Part Indexed Indexed_1 Fill Stroke ColorStrokeBlack" data-item-index="1" data-renderer-id="0" transform="translate(226.00100708007812, 28)"><g id="1.cu_sy_1d1rdp01ucld71-stroke" fill="none" stroke-linecap="round" stroke-linejoin="round" stroke-miterlimit="4" stroke="#484848" stroke-width="4"><g><path d="M 10 34C 15.5 25.7 21.9 17.9 28 10C 28.2 12.7 28.6 15.4 28 18C 36 17.9 44 18.3 52 18C 52.8 15.5 51.8 12.7 52 10C 56.8 18.8 63.4 26.5 70 34C 63.3 41.4 58.6 50.5 52 58C 51.5 55.4 52 52.7 52 50C 44.1 48.5 36 49.7 28 50C 28.4 52.6 28.1 55.3 28 58C 23.2 49.2 16.3 41.8 10 34"></path><path d="M 10 34L 28 10L 28 18L 52 18L 52 10L 70 34L 52 58L 52 50L 28 50L 28 58L 10 34Z"></path></g></g><g id="1.cu_sy_1d1rdp01ucld71-stroke" fill="none" stroke-linecap="round" stroke-linejoin="round" stroke-miterlimit="4" stroke="#484848" stroke-width="4"><g><path d="M 30.6 28.4C 32.6 31.8 33.6 35.8 35 39.5M 35.2 39.1C 36.4 35.5 37.4 31.7 39.6 28.7M 49.4 30.2C 49.1 29.9 48.7 29.7 48.4 29.4C 48 28.7 46.8 28.8 45.5 28.8C 44.2 28.8 43 29.6 43.4 30.7C 43.2 31.8 44.5 32.6 46.3 33.9C 48.5 34.9 49.6 36 49.4 37.3C 49.7 38.5 48.6 39.1 47.1 39.6C 45.5 39.7 44 39.6 43.9 38.5C 43.5 38.2 43.3 37.6 43 37.2"></path><path d="M 30.599 28.373L 34.999 39.48M 35.199 39.097L 39.599 28.66M 49.399 30.192C 49.065 29.937 48.732 29.682 48.399 29.426C 47.799 28.852 46.832 28.628 45.499 28.756C 44.165 28.884 43.465 29.522 43.399 30.671C 43.265 31.82 44.232 32.905 46.299 33.927C 48.432 34.884 49.465 36.001 49.399 37.278C 49.399 38.555 48.632 39.321 47.099 39.576C 45.499 39.767 44.432 39.416 43.899 38.523C 43.565 38.076 43.265 37.629 42.999 37.182"></path></g></g></g><g id="g-root-tx_pros_18iti501ucmqz0-stroke" data-item-order="0" data-item-id="tx_pros_18iti501ucmqz0" data-item-class="Label Stroke SceneTarget ColorStrokeBlack" data-item-index="none" data-renderer-id="0" transform="translate(64.00100708007812, 40)"></g><g id="g-root-tx_cons_1hegidw1ucmq6b-stroke" data-item-order="0" data-item-id="tx_cons_1hegidw1ucmq6b" data-item-class="Label Stroke SceneTarget ColorStrokeBlack" data-item-index="none" data-renderer-id="0" transform="translate(364.0010070800781, 40)"></g><g id="g-root-robo_1q883dg1uczeh2-stroke" data-item-order="0" data-item-id="robo_1q883dg1uczeh2" data-item-class="Icon Stroke SceneTarget Indexed Indexed_1 ColorStrokeBlack" data-item-index="1" data-renderer-id="0" transform="translate(4.001007080078125, 148)"><g id="robo_1q883dg1uczeh2-stroke" fill="none" stroke-linecap="round" stroke-linejoin="round" stroke-miterlimit="4" stroke="#484848" stroke-width="2"><g><path d="M 11 29C 12.2 36.599998 21.6 45.400002 34 43C 46.400002 40.599998 59.400002 36.400002 57 29C 54.599998 21.6 46.400002 17.4 34 15C 21.6 12.6 11.4 21.200001 11 29M 57 29C 56.599998 32.200001 56.200001 35.799999 57 39C 58.799999 46.599998 46.799999 52.799999 34 53C 21.200001 53.200001 11.8 46.599998 11 39C 10.6 35.599998 11.8 32.200001 11 29M 23 29C 22.799999 31.799999 28 32.799999 34 34C 40 35.200001 45.200001 31.799999 45 29C 44.799999 26.200001 39.799999 22 34 24C 28.200001 26 23.200001 26.200001 23 29M 34 28.6C 34.200001 28.4 34.400002 28.799999 34.599998 29C 34.599998 29.200001 34.200001 29.6 34 29.6C 33.799999 29.4 33.599998 29.200001 33.599998 29C 33.400002 28.799999 33.799999 28.6 34 28.6M 23 21.200001C 26.799999 20.799999 30.200001 18.200001 34 19C 37.799999 18.6 41.200001 20.200001 45 21.200001M 29 42.599998C 28.200001 40.200001 31 38.400002 34 38C 37 37.599998 39 40.200001 39 42.599998M 11 29C 11 36.731987 21.297451 43 34 43C 46.702549 43 57 36.731987 57 29C 57 21.268013 46.702549 15.000001 34 15.000001C 21.297451 15.000001 11 21.268013 11 29ZM 57 29L 57 39C 57 46.731998 46.702 53 34 53C 21.298 53 11 46.731998 11 39L 11 29M 23 29C 23 31.761423 27.924868 34 34 34C 40.075134 34 45 31.761423 45 29C 45 26.238577 40.075134 24 34 24C 27.924868 24 23 26.238577 23 29ZM 34 28.5C 34.276142 28.5 34.5 28.723858 34.5 29C 34.5 29.276142 34.276142 29.5 34 29.5C 33.723858 29.5 33.5 29.276142 33.5 29C 33.5 28.723858 33.723858 28.5 34 28.5M 22.942001 21.164C 26.437071 19.680431 30.203518 18.943356 34 19C 37.749107 18.946148 41.469315 19.66296 44.93 21.105999M 29.07 42.678001C 28.556 40.169998 30.959999 38 34 38C 37.040001 38 39.444 40.169998 38.93 42.678001"></path></g></g></g><g id="g-root-tx_automate_1ltnjf81ucmsju-stroke" data-item-order="0" data-item-id="tx_automate_1ltnjf81ucmsju" data-item-class="Label Stroke SceneTarget Indexed Indexed_1 ColorStrokeBlack" data-item-index="1" data-renderer-id="0" transform="translate(64.00100708007812, 148)"></g><g id="g-root-fold_1lr5n2s1uczd35-stroke" data-item-order="0" data-item-id="fold_1lr5n2s1uczd35" data-item-class="Icon Stroke SceneTarget Indexed ColorStrokeBlack" data-item-index="101" data-renderer-id="0" transform="translate(304.0010070800781, 148)"><g id="fold_1lr5n2s1uczd35-stroke" fill="none" stroke-linecap="round" stroke-linejoin="round" stroke-miterlimit="4" stroke="#484848" stroke-width="2"><g><path d="M 44 36C 44.599998 34.400002 42.599998 33.200001 41 33C 35 32.400002 29 33.200001 23 33C 22.4 32.200001 21.799999 31.4 20.799999 30.799999C 20.200001 30.6 19.6 29.799999 18.799999 30C 17.200001 30.200001 15.4 30.6 14 30C 12.4 29.4 10.6 31.4 11 33C 12.2 39.799999 9.2 47.200001 11 54C 11.4 55.599998 12.4 57.200001 14 57C 22.799999 55.400002 32 56.799999 41 57C 42.599998 57 43.799999 55.599998 44 54C 45 48 46.200001 41.599998 44 36M 47.400002 47.599998C 49.200001 47.599998 50.200001 46.200001 50.400002 44.599998C 51.200001 38.599998 50.799999 32.599998 50.400002 26.6C 50.400002 24.799999 49.200001 23.4 47.400002 23.6C 41.599998 24.200001 35.400002 23.799999 29.4 23.6C 28.799999 22.799999 28.200001 22 27.4 21.4C 26.799999 21 26 20.6 25.200001 20.6C 23.6 20.4 22 20.799999 20.4 20.6C 18.799999 20.200001 17.200001 21.799999 17.4 23.6C 17.6 24.200001 17.4 24.799999 17.4 25.4M 54 38C 55.599998 38 57.400002 36.599998 57 35C 55.400002 29.200001 59 22.6 57 17C 56.400002 15.4 55.599998 14 54 14C 48 13.8 41.799999 12.6 36 14C 35.400002 13.2 34.200001 12.8 34 11.8C 33.599998 11.2 32.599998 11 31.799999 11C 30.200001 11 28.6 11 27 11C 25.4 11 24.200001 12.4 24 14C 24 14.6 24 15.4 24 16M 43.978001 36C 43.978001 34.343147 42.634853 33 40.978001 33L 22.978001 33L 20.858 30.878C 20.295113 30.315474 19.531788 29.99964 18.736 30L 13.978 30C 12.321146 30 10.978 31.343147 10.978 33L 10.978 54C 10.978 55.656857 12.321146 57 13.978001 57L 40.978001 57C 42.634853 57 43.978001 55.656857 43.978001 54ZM 47.478001 47.5C 49.134857 47.5 50.478001 46.156857 50.478001 44.5L 50.478001 26.5C 50.478001 24.843147 49.134857 23.5 47.478001 23.5L 29.478001 23.5L 27.358 21.378C 26.795115 20.815474 26.031788 20.49964 25.236 20.5L 20.478001 20.5C 18.821146 20.5 17.478001 21.843147 17.478001 23.5L 17.478001 25.476M 54.021999 38C 55.678856 38 57.022003 36.656853 57.022003 35L 57.021999 17C 57.022003 15.343145 55.678856 14 54.022003 14L 36.021999 14L 33.902 11.878C 33.339111 11.315474 32.57579 10.99964 31.780001 11L 27.021999 11C 25.365147 11 24.021999 12.343145 24.021999 14L 24.021999 15.976"></path></g></g></g><g id="g-root-tx_requires_v641lg1ucmqdp-stroke" data-item-order="0" data-item-id="tx_requires_v641lg1ucmqdp" data-item-class="Label Stroke SceneTarget Indexed ColorStrokeBlack" data-item-index="101" data-renderer-id="0" transform="translate(364.0010070800781, 148)"></g><g id="g-root-sett_4ikjro1uczd39-stroke" data-item-order="0" data-item-id="sett_4ikjro1uczd39" data-item-class="Icon Stroke SceneTarget Indexed ColorStrokeBlack" data-item-index="2" data-renderer-id="0" transform="translate(4.001007080078125, 232)"><g id="sett_4ikjro1uczd39-stroke" fill="none" stroke-linecap="round" stroke-linejoin="round" stroke-miterlimit="4" stroke="#484848" stroke-width="2"><g><path d="M 42.799999 48.599998C 43.799999 49.599998 45.200001 50.400002 46 51.599998C 46.599998 52.599998 47.799999 52.200001 48.799999 51.599998C 50 51.200001 51 50 51.599998 48.799999C 52.200001 48 52.599998 46.799999 51.599998 46C 50.599998 45 49.799999 43.599998 48.400002 42.799999C 48.799999 40.799999 49.599998 38.799999 50.400002 37C 52 37.200001 53.599998 37.599998 55 37C 56 36.599998 56.799999 36 57 35C 57.200001 34.400002 57 33.599998 57 33C 56.799999 32 56 31 55 31C 53.599998 31 52 30.799999 50.599998 31C 49.799999 29 49.599998 26.799999 48.599998 25.200001C 49.799999 24.4 50.400002 22.6 51.599998 22C 52.599998 21.6 52.400002 20 51.599998 19.200001C 50.799999 18.200001 49.799999 17.200001 48.799999 16.4C 48 15.6 46.599998 15.4 46 16.4C 45.200001 17.6 44 18.4 42.799999 19.6C 41.200001 18.200001 39 17.6 37 17.6C 37.200001 16 37.200001 14.6 37 13C 36.799999 12 36 11.2 35 11C 34.400002 10.8 33.599998 11 33 11C 31.799999 11.2 31.200001 11.8 31 13C 30.799999 14.4 31.6 16 31 17.6C 29 17.4 26.6 18 25.200001 19.6C 24 18.6 23.200001 17.200001 22 16.4C 21.200001 15.6 20 15.6 19.200001 16.4C 18 17 17.6 18.6 16.4 19.200001C 15.8 19.4 15.8 20 15.8 20.6C 15.6 21.200001 16 21.6 16.4 22C 17.200001 23.200001 18.4 24.200001 19.6 25.200001C 18.6 27 18.4 29.200001 17.6 31C 16 31.4 14.6 31 13 31C 11.8 31 10.8 32 11 33C 11.2 33.599998 11.2 34.400002 11 35C 10.8 36 12 37.200001 13 37C 14.4 36.599998 16 37 17.6 37C 18 39 18.4 41 19.6 42.799999C 18.200001 43.599998 17.6 45.400002 16.4 46C 15.4 46.400002 15.6 48 16.4 48.799999C 17.200001 49.799999 18.4 50.599998 19.200001 51.599998C 19.4 52.200001 20 52.400002 20.6 52.200001C 21 52 21.6 52 22 51.599998C 22.799999 50.400002 24.4 49.799999 25.200001 48.400002M 31 51C 33 50.599998 35 51 37 51M 31 55C 33 54.799999 35.200001 54.200001 37 55M 34 55C 34.200001 55.599998 33.799999 56.400002 34 57M 45.799999 34C 45.599998 27.799999 40.200001 22.6 34 23C 27.799999 23.799999 22.799999 27.799999 22.200001 34C 23.200001 39 26 43.200001 31 44.599998C 30.799999 45.400002 31.200001 46.200001 31 47C 33 47.400002 35 46.799999 37 47C 37.200001 46.200001 36.799999 45.400002 37 44.799999C 41.599998 42.599998 45.799999 39.200001 45.799999 34M 42.84 48.5L 46 51.68C 46.780075 52.455448 48.039925 52.455448 48.82 51.68L 51.66 48.84C 52.435448 48.059925 52.435448 46.800076 51.66 46.02L 48.48 42.84C 49.398418 40.988853 50.070789 39.025536 50.480003 37L 55 37C 56.104568 37 57 36.104568 57 35L 57 33C 57 31.89543 56.104568 31 55 31L 50.5 31C 50.09079 28.974466 49.418419 27.01115 48.500004 25.16L 51.68 22C 52.455448 21.219925 52.455448 19.960075 51.68 19.18L 48.84 16.32C 48.059925 15.544553 46.800076 15.544553 46.02 16.32L 42.84 19.5C 40.988853 18.581583 39.025536 17.909214 37 17.5L 37 13C 37 11.895431 36.104568 11 35 11L 33 11C 31.89543 11 31 11.895431 31 13L 31 17.5C 28.974466 17.909214 27.01115 18.581583 25.16 19.5L 22 16.32C 21.219925 15.544553 19.960075 15.544553 19.18 16.32L 16.32 19.16C 15.941375 19.535534 15.728403 20.046726 15.728403 20.58C 15.728403 21.113276 15.941375 21.624466 16.32 22L 19.5 25.16C 18.581583 27.01115 17.909214 28.974466 17.5 31.000002L 13 31C 11.895431 31 11 31.89543 11 33L 11 35C 11 36.104568 11.895431 37 13 37L 17.5 37C 17.909214 39.025536 18.581583 40.988853 19.5 42.840004L 16.32 46C 15.544553 46.780075 15.544553 48.039925 16.32 48.82L 19.139999 51.66C 19.515533 52.038624 20.026726 52.251598 20.560001 52.251598C 21.093275 52.251598 21.604465 52.038624 21.98 51.66L 25.16 48.48M 31 51L 37 51M 31 55L 37 55M 34 55L 34 57M 45.740002 34C 45.511883 27.731316 40.270252 22.82008 34 23C 27.729748 22.82008 22.488119 27.731316 22.26 34C 22.471712 39.104187 26.036333 43.451885 31 44.66L 31 47L 37 47L 37 44.740002C 41.99131 43.523701 45.563293 39.134331 45.740002 34Z"></path></g></g></g><g id="g-root-tx_improves_1upajo41ucmrr5-stroke" data-item-order="0" data-item-id="tx_improves_1upajo41ucmrr5" data-item-class="Label Stroke SceneTarget Indexed ColorStrokeBlack" data-item-index="2" data-renderer-id="0" transform="translate(64.00100708007812, 232)"></g><g id="g-root-uneq_vmdw1uczev4-stroke" data-item-order="0" data-item-id="uneq_vmdw1uczev4" data-item-class="Icon Stroke SceneTarget Indexed ColorStrokeBlack" data-item-index="102" data-renderer-id="0" transform="translate(304.0010070800781, 232)"><g id="uneq_vmdw1uczev4-stroke" fill="none" stroke-linecap="round" stroke-linejoin="round" stroke-miterlimit="4" stroke="#484848" stroke-width="2"><g><path d="M 34 23.4C 32.599998 33.599998 35.200001 44 34 54.400002M 29 54.400002C 32.400002 54.599998 35.799999 53.799999 39 54.400002M 12 42.400002C 14 37.200001 15.2 31.4 19 27.4C 22.4 31.799999 23.6 37.400002 26 42.400002M 31 20.4C 30.799999 22 32.400002 23.6 34 23.4C 35.599998 23 37 22 37 20.4C 37 18.799999 35.599998 17.6 34 17.4C 32.400002 17 30.4 18.799999 31 20.4M 19 49.400002C 20.799999 49 23 49 24 47.400002C 25 45.799999 26.4 44.200001 26 42.400002C 21.4 43.400002 16.6 41.400002 12 42.400002C 12 44.200001 12.8 45.799999 14 47.400002C 15.2 48.799999 17.200001 49 19 49.400002M 56 30.4C 53 25.6 49.799999 20.799999 49 15.2C 47.599998 20.6 45.400002 26 42 30.4M 49 37.400002C 47.200001 37.599998 45.400002 36.799999 44 35.400002C 42.599998 34 42.200001 32.200001 42 30.4C 46.599998 29.200001 51.400002 29.4 56 30.4C 56.200001 32.200001 55.200001 34 54 35.400002C 52.799999 36.799999 50.799999 37 49 37.400002M 37 20.200001C 42.599998 18.799999 48.599998 17.200001 53.200001 13.6M 14.8 29C 20.6 27 26.4 25.200001 31.799999 22.200001M 34 23.364L 34 54.363998M 29 54.363998L 39 54.363998M 12 42.363998L 19 27.436001L 26 42.363998M 31 20.364C 31 22.020855 32.343147 23.364 34 23.364C 35.656853 23.364 37 22.020855 37 20.364C 37 18.707146 35.656853 17.364 34 17.364C 32.343147 17.364 31 18.707146 31 20.364ZM 19 49.363998C 20.870407 49.410587 22.678082 48.688061 24.001072 47.36507C 25.32406 46.042084 26.046587 44.234409 26 42.363998L 12 42.363998C 11.953412 44.234409 12.67594 46.042084 13.998928 47.36507C 15.321917 48.688061 17.129591 49.410587 19 49.363998ZM 56 30.364L 49 15.298L 42 30.364M 49 37.363998C 47.129589 37.410587 45.321915 36.688061 43.998928 35.36507C 42.675938 34.042084 41.953411 32.234406 42 30.363998L 56 30.364C 56.046585 32.234406 55.324059 34.042084 54.001072 35.36507C 52.678082 36.688061 50.870407 37.410587 49 37.363998ZM 36.987999 20.156L 53.110001 13.636M 14.892 29.094L 31.73 22.282"></path></g></g></g><g id="g-root-tx_potentia_1hcl34k1ucmr5w-stroke" data-item-order="0" data-item-id="tx_potentia_1hcl34k1ucmr5w" data-item-class="Label Stroke SceneTarget Indexed ColorStrokeBlack" data-item-index="102" data-renderer-id="0" transform="translate(364.0010070800781, 232)"></g><g id="g-root-3_v4v3f81uczd37-stroke" data-item-order="0" data-item-id="3_v4v3f81uczd37" data-item-class="Icon Stroke SceneTarget Indexed ColorStrokeBlack" data-item-index="3" data-renderer-id="0" transform="translate(4.001007080078125, 316)"><g id="3_v4v3f81uczd37-stroke" fill="none" stroke-linecap="round" stroke-linejoin="round" stroke-miterlimit="4" stroke="#484848" stroke-width="2"><g><path d="M 26.6 44.599998C 25.799999 42.599998 26 40.400002 26.6 38.599998C 26.799999 37.400002 25.6 36.799999 24.6 36.599998C 21 35.200001 17 37.799999 13.6 36.599998C 12.4 36 11.2 37.400002 11.6 38.599998C 12.6 44.400002 10.4 50.599998 11.6 56.599998C 26.4 54.799999 41.599998 55.599998 56.599998 56.599998C 57.400002 52.599998 57.400002 48.400002 56.599998 44.599998C 46.599998 45.400002 36.400002 44 26.6 44.599998M 23.6 36.599998C 20.6 37 17.6 36.400002 14.6 36.599998C 18 28.799999 16.4 19.799999 16 11.6C 18 12 20 11.4 22 11.6C 23.799999 19.6 24.799999 28.200001 23.6 36.599998M 29.6 50.599998C 30.4 50.799999 31.6 50.599998 32.599998 50.599998M 38.599998 50.599998C 39.400002 50.200001 40.599998 50.200001 41.599998 50.599998M 47.599998 50.599998C 48.599998 50.599998 49.599998 50.799999 50.599998 50.599998M 15.6 18.6C 17.799999 19 20.200001 18.200001 22.4 18.6M 40.400002 35.599998C 40.599998 37.200001 41.599998 38.200001 43.200001 38.599998C 44.799999 38.799999 46.400002 37.200001 46.200001 35.599998C 46 34 44.799999 32 43.200001 32.599998C 41.799999 33.200001 40.400002 34 40.400002 35.599998M 53.599998 38.400002C 53.200001 37.799999 52.599998 37.400002 52.400002 36.799999C 51.799999 36 51.400002 34.799999 52.400002 34.200001C 53.200001 33.799999 53.400002 32.400002 54.400002 32C 55.400002 31.6 55.200001 30 54.599998 29C 54.200001 27.799999 53 27.200001 51.799999 27.6C 51 28 50 28.200001 49 28.4C 48 28.4 47 28 46.599998 27C 46.400002 26 45.799999 25.200001 45.799999 24.200001C 45.799999 23 44.400002 22.4 43.200001 22.4C 42.200001 22.200001 40.799999 23 40.799999 24.200001C 40.799999 25.200001 40 26 40 27C 39.799999 28 38.599998 28.200001 37.599998 28.4C 36.599998 28.4 35.599998 28 34.799999 27.6C 33.599998 27.4 32.799999 28.200001 31.799999 29C 31 29.6 31.799999 31 32.200001 32C 32.599998 33 33.799999 33.400002 34.200001 34.200001C 34.599998 35.200001 35 36.200001 34.200001 36.799999C 33.799999 37.400002 33.200001 37.799999 33 38.400002M 26.5 44.5L 26.5 38.5C 26.5 37.395432 25.604568 36.5 24.5 36.5L 13.5 36.5C 12.395431 36.5 11.5 37.395432 11.5 38.5L 11.5 56.5L 56.5 56.5L 56.5 44.5ZM 23.5 36.5L 14.5 36.5L 16 11.5L 22 11.5L 23.5 36.5ZM 29.5 50.5L 32.5 50.5M 38.5 50.5L 41.5 50.5M 47.5 50.5L 50.5 50.5M 15.572001 18.5L 22.428001 18.5M 40.330002 35.556C 40.329681 37.182152 41.64785 38.500572 43.273998 38.500572C 44.90015 38.500572 46.218315 37.182152 46.217999 35.556C 46.218315 33.929848 44.90015 32.611427 43.273998 32.611427C 41.64785 32.611427 40.329681 33.929848 40.330002 35.556M 53.627998 38.312L 52.312 36.891998C 51.61375 36.138184 51.61375 34.973816 52.312 34.220001L 54.334 32.040001C 55.119774 31.19714 55.264259 29.940475 54.690269 28.941278C 54.116283 27.942081 52.957943 27.433823 51.834 27.688L 48.944 28.356001C 47.944466 28.58707 46.937218 28.002499 46.641998 27.019999L 45.773998 24.17C 45.440533 23.068239 44.425117 22.314667 43.273998 22.314667C 42.122879 22.314667 41.107468 23.068239 40.773998 24.169998L 39.905998 27.02C 39.609085 28.002129 38.601883 28.586166 37.602005 28.356001L 34.714001 27.688C 33.589699 27.432571 32.43029 27.940376 31.855644 28.939917C 31.281 29.939459 31.425545 31.196917 32.211998 32.040001L 34.234001 34.220001C 34.932251 34.973816 34.932251 36.138184 34.234001 36.891998L 32.919998 38.312"></path></g></g></g><g id="g-root-tx_enhances_4jthxw1ucmqdr-stroke" data-item-order="0" data-item-id="tx_enhances_4jthxw1ucmqdr" data-item-class="Label Stroke SceneTarget Indexed ColorStrokeBlack" data-item-index="3" data-renderer-id="0" transform="translate(64.00100708007812, 316)"></g><g id="g-root-lock_hrj5sk1uczfnq-stroke" data-item-order="0" data-item-id="lock_hrj5sk1uczfnq" data-item-class="Icon Stroke SceneTarget Indexed ColorStrokeBlack" data-item-index="103" data-renderer-id="0" transform="translate(304.0010070800781, 316)"><g id="lock_hrj5sk1uczfnq-stroke" fill="none" stroke-linecap="round" stroke-linejoin="round" stroke-miterlimit="4" stroke="#484848" stroke-width="2"><g><path d="M 11 57C 9 50.599998 12.2 43.599998 11 37M 11 41C 15.4 39.400002 20.4 39.799999 25 41C 28.200001 41.799999 31 43.599998 31 47C 35 47 39 46.599998 43 47C 46.400002 47.200001 48.200001 49.799999 49 53C 36.599998 51 23.4 55.200001 11 53C 12.4 49.200001 9.6 44.799999 11 41M 31 47C 29.200001 47.599998 27 46.799999 25 47M 39 21C 44.200001 22.6 49.799999 22 55 21C 55 21 56.799999 21 57 23C 57.400002 27.6 57 32.400002 57 37C 57 37 57 38.799999 55 39C 49.799999 39.599998 44.400002 39.200001 39 39C 39 39 36.799999 39 37 37C 37.200001 32.400002 36.799999 27.6 37 23C 37 23 37.200001 20.4 39 21M 41 21C 41.400002 19.6 41 18.4 41 17C 41 13.6 43.799999 10 47 11C 50.200001 12 52.599998 13.8 53 17C 53.200001 18.4 53 19.6 53 21M 44 30C 44.599998 31.6 45.400002 33.200001 47 33C 48.599998 32.799999 50.599998 31.6 50 30C 49.400002 28.4 48.599998 26.6 47 27C 45.400002 27.4 44.200001 28.4 44 30M 11 57L 11 37M 11 41L 25 41C 28.313709 41 31 43.686291 31 47L 43 47C 46.313709 47 49 49.686291 49 53L 11 53ZM 31 47L 25 47M 39 21L 55 21C 55 21 57 21 57 23L 57 37C 57 37 57 39 55 39L 39 39C 39 39 37 39 37 37L 37 23C 37 23 37 21 39 21M 41 21L 41 17C 41 13.686292 43.686291 11 47 11C 50.313709 11 53 13.686292 53 17L 53 21M 44 30C 44 31.656855 45.343147 33 47 33C 48.656857 33 50 31.656855 50 30C 50 28.343147 48.656857 27 47 27C 45.343147 27 44 28.343147 44 30"></path></g></g></g><g id="g-root-tx_ethicalc_zk24gk1ucmrcy-stroke" data-item-order="0" data-item-id="tx_ethicalc_zk24gk1ucmrcy" data-item-class="Label Stroke SceneTarget Indexed ColorStrokeBlack" data-item-index="103" data-renderer-id="0" transform="translate(364.0010070800781, 316)"></g><g id="g-root-2_18fp4pg1uczeo2-stroke" data-item-order="0" data-item-id="2_18fp4pg1uczeo2" data-item-class="Icon Stroke SceneTarget Indexed ColorStrokeBlack" data-item-index="4" data-renderer-id="0" transform="translate(4.001007080078125, 400)"><g id="2_18fp4pg1uczeo2-stroke" fill="none" stroke-linecap="round" stroke-linejoin="round" stroke-miterlimit="4" stroke="#484848" stroke-width="2"><g><path d="M 21 31C 24.200001 30 27.6 30.6 31 31C 30.200001 27 31.4 23 31 19M 29 51C 21 48.400002 12.8 44.200001 11.6 35.799999C 10.4 27.6 12.2 18 20 14.4C 27.6 10.8 36.200001 9.8 43 15C 49.599998 20.200001 55 30 50.200001 36.799999M 57 57C 58.799999 52 57.400002 46.400002 57 41C 51.599998 39.599998 47 45.400002 47 51C 47 51.599998 47 52.400002 47 53C 50.200001 53.799999 53.799999 52.599998 57 53M 44 57C 40.400002 56.799999 36.599998 56.400002 33 57C 35.400002 55 38.599998 53.599998 40 50.799999C 41.200001 48.400002 43.400002 47.799999 42.799999 45C 42.400002 42.400002 40 40.799999 37.400002 41C 35 41.200001 33.200001 43.400002 33 46M 21 31L 30.997999 31L 31 19M 29.062 50.908001C 20.661427 50.081673 13.686234 44.065712 11.635039 35.877605C 9.583846 27.689499 12.899158 19.095676 19.918079 14.406626C 26.937002 9.717575 36.145336 9.944871 42.924366 14.974506C 49.703396 20.004141 52.590675 28.751066 50.138 36.827999M 57 57L 57 41C 51.477154 41 47 45.477154 47 51L 47 53L 57 53M 44 57L 33 57L 40 50.821999C 41.972 49.082001 43.48 47.863998 42.897999 45C 42.382557 42.487347 40.049393 40.77227 37.497406 41.030098C 34.945419 41.287926 33.002449 43.435024 33 46"></path></g></g></g><g id="g-root-tx_operates_deu13o1ucmsqu-stroke" data-item-order="0" data-item-id="tx_operates_deu13o1ucmsqu" data-item-class="Label Stroke SceneTarget Indexed ColorStrokeBlack" data-item-index="4" data-renderer-id="0" transform="translate(64.00100708007812, 400)"></g><g id="g-root-sear_v2zo5w1ucze2t-stroke" data-item-order="0" data-item-id="sear_v2zo5w1ucze2t" data-item-class="Icon Stroke SceneTarget Indexed ColorStrokeBlack" data-item-index="104" data-renderer-id="0" transform="translate(304.0010070800781, 400)"><g id="sear_v2zo5w1ucze2t-stroke" fill="none" stroke-linecap="round" stroke-linejoin="round" stroke-miterlimit="4" stroke="#484848" stroke-width="2"><g><path d="M 11 31C 7.6 41.599998 20 51.400002 31 51C 42 50.599998 48.200001 41.599998 51 31C 53.799999 20.4 41.799999 13.6 31 11C 20.200001 8.4 12.6 20 11 31M 45.200001 45.200001C 49.599998 48.400002 53.200001 53 57 57M 37 29C 36.599998 30 36 30.6 35 31C 34.400002 31.200001 33.599998 31.200001 33 31C 33.400002 29.799999 32.799999 28.4 33 27C 33.599998 27.200001 34.400002 26.799999 35 27C 36 27.200001 37.200001 28 37 29M 37 33C 37.200001 34 36.200001 35 35 35C 34.400002 35 33.599998 34.799999 33 35C 33 33.599998 32.599998 32.200001 33 31C 33.599998 30.799999 34.400002 31 35 31C 36.200001 31.200001 37.200001 32 37 33M 29 33C 28.799999 34.200001 28.200001 35 27 35C 25.799999 35 25.200001 34.200001 25 33C 24.799999 31.6 24.6 30.200001 25 29C 25.4 28 25.799999 27 27 27C 28.200001 27 28.799999 27.799999 29 29C 29.200001 30.4 29 31.6 29 33M 21 27C 21.4 29 21 31 21 33C 21 34.200001 20.200001 35 19 35C 17.799999 35 16.6 34 17 33M 45 27C 44.400002 27.200001 43.599998 27 43 27C 41.799999 27 41.400002 28 41 29C 40.599998 30 41.799999 31.200001 43 31C 44 30.799999 44.799999 32 45 33C 45.200001 34 44 34.599998 43 35C 42.400002 35.200001 41.599998 35.200001 41 35M 11 31C 11 42.045696 19.954306 51 31 51C 42.045696 51 51 42.045696 51 31C 51 19.954306 42.045696 11 31 11C 19.954306 11 11 19.954306 11 31ZM 45.144001 45.147999L 57 57M 37 29C 37 30.10457 36.104568 31 35 31L 33 31L 33 27L 35 27C 36.104568 27 37 27.89543 37 29ZM 37 33C 37 34.104568 36.104568 35 35 35L 33 35L 33 31L 35 31C 36.104568 31 37 31.89543 37 33ZM 29 33C 29 34.104568 28.10457 35 27 35C 25.895432 35 25 34.104568 25 33L 25 29C 25 27.89543 25.895432 27 27 27C 28.10457 27 29 27.89543 29 29ZM 21 27L 21 33C 21 34.104568 20.104568 35 19 35C 17.895432 35 17 34.104568 17 33M 45 27L 43 27C 41.895432 27 41 27.89543 41 29C 41 30.10457 41.895432 31 43 31C 44.104568 31 45 31.89543 45 33C 45 34.104568 44.104568 35 43 35L 41 35"></path></g></g></g><g id="g-root-tx_jobdispl_4gp4ic1ucmpz5-stroke" data-item-order="0" data-item-id="tx_jobdispl_4gp4ic1ucmpz5" data-item-class="Label Stroke SceneTarget Indexed ColorStrokeBlack" data-item-index="104" data-renderer-id="0" transform="translate(364.0010070800781, 388)"></g></g></g></svg>