<?xml version="1.0" encoding="utf-8" standalone="yes"?>
<!DOCTYPE svg PUBLIC "-//W3C//DTD SVG 1.1//EN" "http://www.w3.org/Graphics/SVG/1.1/DTD/svg11.dtd">
<svg width="544" height="429" viewBox="0 0 544 429" style="fill:none;stroke:none;fill-rule:evenodd;clip-rule:evenodd;stroke-linecap:round;stroke-linejoin:round;stroke-miterlimit:1.5;" version="1.1" xmlns="http://www.w3.org/2000/svg" xmlns:xlink="http://www.w3.org/1999/xlink"><style id="fontImports">@import url("https://fonts.googleapis.com/css2?family=Roboto:wght@400;700&amp;display=block");</style><rect id="" x="0" y="0" width="544" height="428.171" style="fill: #ffffff;"></rect><g id="items" style="isolation: isolate"><g id="blend" style="mix-blend-mode:multiply"><g id="g-root-ro_dj7j681qqs0ei-fill" data-item-order="-17280" data-item-id="ro_dj7j681qqs0ei" data-item-class="Shape Stroke Fill" data-item-index="none" data-renderer-id="0" transform="translate(341, 309.1709289550781)"><g id="ro_dj7j681qqs0ei-fill" stroke="none" fill="#e6f9ff"><g><path d="M 22 10L 178 10C 178 10 190 10 190 22L 190 94C 190 94 190 106 178 106L 22 106C 22 106 10 106 10 94L 10 22C 10 22 10 10 22 10"></path></g></g></g><g id="g-root-ro_1umstsg1qqs07i-fill" data-item-order="-14976" data-item-id="ro_1umstsg1qqs07i" data-item-class="Shape Stroke Fill" data-item-index="none" data-renderer-id="0" transform="translate(165, 309.1709289550781)"><g id="ro_1umstsg1qqs07i-fill" stroke="none" fill="#e6f9ff"><g><path d="M 22 10L 154 10C 154 10 166 10 166 22L 166 94C 166 94 166 106 154 106L 22 106C 22 106 10 106 10 94L 10 22C 10 22 10 10 22 10"></path></g></g></g><g id="g-root-ro_1luwkwg1qrab5y-fill" data-item-order="-11864" data-item-id="ro_1luwkwg1qrab5y" data-item-class="Shape Stroke Fill" data-item-index="none" data-renderer-id="0" transform="translate(170.38397216796875, 3)"><g id="ro_1luwkwg1qrab5y-fill" stroke="none" fill="#f0f0f0"><g><path d="M 13.001995 12.998519L 152.231995 12.998519L 152.231995 88.688519L 13.001995 88.688519L 13.001995 12.998519"></path></g></g></g><g id="g-root-ro_hx5m1c1qqqn7k-fill" data-item-order="-10368" data-item-id="ro_hx5m1c1qqqn7k" data-item-class="Shape Stroke Fill" data-item-index="none" data-renderer-id="0" transform="translate(3, 309.1709289550781)"><g id="ro_hx5m1c1qqqn7k-fill" stroke="none" fill="#e6f9ff"><g><path d="M 22 10L 106 10C 106 10 118 10 118 22L 118 94C 118 94 118 106 106 106L 22 106C 22 106 10 106 10 94L 10 22C 10 22 10 10 22 10"></path></g></g></g><g id="g-root-ro_m7zbgw1qqqn0i-fill" data-item-order="-10368" data-item-id="ro_m7zbgw1qqqn0i" data-item-class="Shape Stroke Fill" data-item-index="none" data-renderer-id="0" transform="translate(171, 181.17092895507812)"><g id="ro_m7zbgw1qqqn0i-fill" stroke="none" fill="#e6f9ff"><g><path d="M 22 10L 142 10C 142 10 154 10 154 22L 154 70C 154 70 154 82 142 82L 22 82C 22 82 10 82 10 70L 10 22C 10 22 10 10 22 10"></path></g></g></g><g id="g-root-tx_data_1cz9ntc1qqqmfa-fill" data-item-order="0" data-item-id="tx_data_1cz9ntc1qqqmfa" data-item-class="Label Stroke" data-item-index="none" data-renderer-id="0" transform="translate(51, 345.1709289550781)"><g id="tx_data_1cz9ntc1qqqmfa-fill" stroke="none" fill="#17b0e3"><g><text style="font: 20px Roboto, sans-serif; white-space: pre;"><tspan x="12" y="33.75" dominant-baseline="ideographic">Data</tspan></text></g></g></g><g id="g-root-uplo_qnstlc1qqqm89-fill" data-item-order="0" data-item-id="uplo_qnstlc1qqqm89" data-item-class="Icon Stroke" data-item-index="none" data-renderer-id="0" transform="translate(183, 202.17092895507812)"></g><g id="g-root-tx_external_13ymuvk1qqqnt4-fill" data-item-order="0" data-item-id="tx_external_13ymuvk1qqqnt4" data-item-class="Label Stroke" data-item-index="none" data-renderer-id="0" transform="translate(219, 193.17092895507812)"><g id="tx_external_13ymuvk1qqqnt4-fill" stroke="none" fill="#17b0e3"><g><text style="font: 20px Roboto, sans-serif; white-space: pre;"><tspan x="12" y="33.75" dominant-baseline="ideographic">External </tspan><tspan x="12" y="57.75" dominant-baseline="ideographic">Services</tspan></text></g></g></g><g id="g-root-1_4gpaz41qqs2rp-fill" data-item-order="0" data-item-id="1_4gpaz41qqs2rp" data-item-class="Icon Stroke" data-item-index="none" data-renderer-id="0" transform="translate(177, 342.1709289550781)"></g><g id="g-root-smal_qu1kgg1qqs1zd-fill" data-item-order="0" data-item-id="smal_qu1kgg1qqs1zd" data-item-class="Icon Stroke" data-item-index="none" data-renderer-id="0" transform="translate(353, 342.1709289550781)"></g><g id="g-root-1_1qaq30w1qraadp-fill" data-item-order="0" data-item-id="1_1qaq30w1qraadp" data-item-class="Icon Stroke" data-item-index="none" data-renderer-id="0" transform="translate(191.614990234375, 15.000030517578125)"></g><g id="g-root-tx_machinel_hs5tcg1qqs16s-fill" data-item-order="0" data-item-id="tx_machinel_hs5tcg1qqs16s" data-item-class="Label Stroke" data-item-index="none" data-renderer-id="0" transform="translate(213, 321.1709289550781)"><g id="tx_machinel_hs5tcg1qqs16s-fill" stroke="none" fill="#17b0e3"><g><text style="font: 20px Roboto, sans-serif; white-space: pre;"><tspan x="12" y="33.75" dominant-baseline="ideographic">Machine </tspan><tspan x="12" y="57.75" dominant-baseline="ideographic">Learning </tspan><tspan x="12" y="81.75" dominant-baseline="ideographic">Models</tspan></text></g></g></g><g id="g-root-tx_external_145i2ts1qqs0eg-fill" data-item-order="0" data-item-id="tx_external_145i2ts1qqs0eg" data-item-class="Label Stroke" data-item-index="none" data-renderer-id="0" transform="translate(389, 333.1709289550781)"><g id="tx_external_145i2ts1qqs0eg-fill" stroke="none" fill="#17b0e3"><g><text style="font: 20px Roboto, sans-serif; white-space: pre;"><tspan x="12" y="33.75" dominant-baseline="ideographic">External </tspan><tspan x="12" y="57.75" dominant-baseline="ideographic">Applications</tspan></text></g></g></g><g id="g-root-tx_api_dg32kw1qrabd0-fill" data-item-order="0" data-item-id="tx_api_dg32kw1qrabd0" data-item-class="Label Stroke" data-item-index="none" data-renderer-id="0" transform="translate(243, 25.6925048828125)"><g id="tx_api_dg32kw1qrabd0-fill" stroke="none" fill="#e15e5a"><g><text style="font: 20px Roboto, sans-serif; white-space: pre;"><tspan x="12" y="33.75" dominant-baseline="ideographic">API</tspan></text></g></g></g><g id="g-root-down_mcz45s1qqqmfb-fill" data-item-order="0" data-item-id="down_mcz45s1qqqmfb" data-item-class="Icon Stroke" data-item-index="none" data-renderer-id="0" transform="translate(15, 342.1709289550781)"></g><g id="g-root-cu_18mkj4g1qqs1se-fill" data-item-order="2" data-item-id="cu_18mkj4g1qqs1se" data-item-class="Curve Stroke" data-item-index="none" data-renderer-id="0" transform="translate(243, 125.17092895507812)"></g><g id="g-root-cu_1d2e18w1qqs1s1-fill" data-item-order="2" data-item-id="cu_1d2e18w1qqs1s1" data-item-class="Curve Stroke" data-item-index="none" data-renderer-id="0" transform="translate(57, 253.17092895507812)"></g><g id="g-root-cu_146r1001qqs2ks-fill" data-item-order="2" data-item-id="cu_146r1001qqs2ks" data-item-class="Curve Stroke" data-item-index="none" data-renderer-id="0" transform="translate(243, 253.17092895507812)"></g><g id="g-root-cu_146r1001qqs2ku-fill" data-item-order="2" data-item-id="cu_146r1001qqs2ku" data-item-class="Curve Stroke" data-item-index="none" data-renderer-id="0" transform="translate(243, 253.17092895507812)"></g><g id="g-root-cu_18mkj4g1qqs1sb-fill" data-item-order="2" data-item-id="cu_18mkj4g1qqs1sb" data-item-class="Curve Stroke" data-item-index="none" data-renderer-id="0" transform="translate(243, 90.69302368164062)"></g><g id="g-root-ro_dj7j681qqs0ei-stroke" data-item-order="-17280" data-item-id="ro_dj7j681qqs0ei" data-item-class="Shape Stroke Fill" data-item-index="none" data-renderer-id="0" transform="translate(341, 309.1709289550781)"><g id="ro_dj7j681qqs0ei-stroke" fill="none" stroke-linecap="round" stroke-linejoin="round" stroke-miterlimit="4" stroke="#17b0e3" stroke-width="2"><g><path d="M 22 10L 178 10C 178 10 190 10 190 22L 190 94C 190 94 190 106 178 106L 22 106C 22 106 10 106 10 94L 10 22C 10 22 10 10 22 10"></path></g></g></g><g id="g-root-ro_1umstsg1qqs07i-stroke" data-item-order="-14976" data-item-id="ro_1umstsg1qqs07i" data-item-class="Shape Stroke Fill" data-item-index="none" data-renderer-id="0" transform="translate(165, 309.1709289550781)"><g id="ro_1umstsg1qqs07i-stroke" fill="none" stroke-linecap="round" stroke-linejoin="round" stroke-miterlimit="4" stroke="#17b0e3" stroke-width="2"><g><path d="M 22 10L 154 10C 154 10 166 10 166 22L 166 94C 166 94 166 106 154 106L 22 106C 22 106 10 106 10 94L 10 22C 10 22 10 10 22 10"></path></g></g></g><g id="g-root-ro_1luwkwg1qrab5y-stroke" data-item-order="-11864" data-item-id="ro_1luwkwg1qrab5y" data-item-class="Shape Stroke Fill" data-item-index="none" data-renderer-id="0" transform="translate(170.38397216796875, 3)"><g id="ro_1luwkwg1qrab5y-stroke" fill="none" stroke-linecap="round" stroke-linejoin="round" stroke-miterlimit="4" stroke="#da5da8" stroke-width="2"><g><path d="M 26.001995 9.998519L 29.261995 14.858519M 41.791995 9.998519L 43.551995 16.318519M 57.581995 9.998519L 58.491995 16.128519M 73.371995 9.998519L 72.521995 16.648519M 89.171995 9.998519L 89.891995 16.148519M 104.961995 9.998519L 105.011995 16.578519M 120.751995 9.998519L 119.191995 15.238519M 136.541995 9.998519L 134.081995 15.158519M 150.921995 15.068519L 146.401995 19.948519M 155.231995 29.758519L 149.751995 32.888519M 155.231995 45.558519L 148.491995 46.038519M 155.231995 61.348519L 149.321995 59.958519M 155.161995 77.138519L 150.561995 73.828519M 146.811995 89.788519L 143.381995 85.728519M 131.331995 91.688519L 128.741995 86.798519M 115.541995 91.688519L 115.611995 85.758519M 99.751995 91.688519L 100.561995 85.938519M 83.961995 91.688519L 83.961995 85.098519M 68.171995 91.688519L 67.601995 86.338519M 52.371995 91.688519L 52.771995 86.458519M 36.581995 91.688519L 37.661995 85.988519M 20.881995 90.848519L 25.371995 85.598519M 10.531995 79.778519L 16.331995 76.208519M 10.001995 64.038519L 16.401995 62.398519M 10.001995 48.238519L 15.681995 48.388519M 10.001995 32.448519L 15.931995 35.898519M 12.651995 17.178519L 17.261995 20.598519"></path></g></g></g><g id="g-root-ro_hx5m1c1qqqn7k-stroke" data-item-order="-10368" data-item-id="ro_hx5m1c1qqqn7k" data-item-class="Shape Stroke Fill" data-item-index="none" data-renderer-id="0" transform="translate(3, 309.1709289550781)"><g id="ro_hx5m1c1qqqn7k-stroke" fill="none" stroke-linecap="round" stroke-linejoin="round" stroke-miterlimit="4" stroke="#17b0e3" stroke-width="2"><g><path d="M 22 10L 106 10C 106 10 118 10 118 22L 118 94C 118 94 118 106 106 106L 22 106C 22 106 10 106 10 94L 10 22C 10 22 10 10 22 10"></path></g></g></g><g id="g-root-ro_m7zbgw1qqqn0i-stroke" data-item-order="-10368" data-item-id="ro_m7zbgw1qqqn0i" data-item-class="Shape Stroke Fill" data-item-index="none" data-renderer-id="0" transform="translate(171, 181.17092895507812)"><g id="ro_m7zbgw1qqqn0i-stroke" fill="none" stroke-linecap="round" stroke-linejoin="round" stroke-miterlimit="4" stroke="#17b0e3" stroke-width="2"><g><path d="M 22 10L 142 10C 142 10 154 10 154 22L 154 70C 154 70 154 82 142 82L 22 82C 22 82 10 82 10 70L 10 22C 10 22 10 10 22 10"></path></g></g></g><g id="g-root-tx_data_1cz9ntc1qqqmfa-stroke" data-item-order="0" data-item-id="tx_data_1cz9ntc1qqqmfa" data-item-class="Label Stroke" data-item-index="none" data-renderer-id="0" transform="translate(51, 345.1709289550781)"></g><g id="g-root-uplo_qnstlc1qqqm89-stroke" data-item-order="0" data-item-id="uplo_qnstlc1qqqm89" data-item-class="Icon Stroke" data-item-index="none" data-renderer-id="0" transform="translate(183, 202.17092895507812)"><g id="uplo_qnstlc1qqqm89-stroke" fill="none" stroke-linecap="round" stroke-linejoin="round" stroke-miterlimit="4" stroke="#17b0e3" stroke-width="2"><g><path d="M 30.375 29.86375L 33.375 29.86375C 33.375 29.86375 38.75 29.1625 38.75 23.885C 38.751179 22.262434 38.091461 20.709373 36.922871 19.583708C 35.754284 18.458042 34.177635 17.856878 32.556248 17.918749C 30.92778 14.462387 27.162411 12.550785 23.411076 13.275928C 19.659737 14.001071 16.87804 17.178236 16.655001 20.9925C 15.33392 20.714672 13.957981 21.047035 12.909385 21.897261C 11.860787 22.747488 11.251219 24.025023 11.25 25.375C 11.25 29.93125 16.032501 29.859999 16.032501 29.859999L 19.61125 29.859999M 25 22.98875L 25 36.73875M 28.75 26.73875L 25 22.98875L 21.25 26.73875"></path></g></g></g><g id="g-root-tx_external_13ymuvk1qqqnt4-stroke" data-item-order="0" data-item-id="tx_external_13ymuvk1qqqnt4" data-item-class="Label Stroke" data-item-index="none" data-renderer-id="0" transform="translate(219, 193.17092895507812)"></g><g id="g-root-1_4gpaz41qqs2rp-stroke" data-item-order="0" data-item-id="1_4gpaz41qqs2rp" data-item-class="Icon Stroke" data-item-index="none" data-renderer-id="0" transform="translate(177, 342.1709289550781)"><g id="1_4gpaz41qqs2rp-stroke" fill="none" stroke-linecap="round" stroke-linejoin="round" stroke-miterlimit="4" stroke="#17b0e3" stroke-width="2"><g><path d="M 17.4375 35.451248C 18.762774 35.230663 19.881689 34.344501 20.4 33.105M 13.02625 20.682499C 15.583341 21.130905 17.78021 22.756794 18.956249 25.071251M 17.22875 22.786251L 19.470001 21.105M 22.5 10.84125C 22.475971 12.094332 22.249725 13.335309 21.830002 14.516251M 20 15.625C 20 16.315355 20.559643 16.875 21.25 16.875C 21.940357 16.875 22.5 16.315355 22.5 15.625C 22.5 14.934644 21.940357 14.375 21.25 14.375C 20.559643 14.375 20 14.934644 20 15.625ZM 27.5 18.125C 27.5 18.815355 28.059643 19.375 28.75 19.375C 29.440357 19.375 30 18.815355 30 18.125C 30 17.434645 29.440357 16.875 28.75 16.875C 28.059643 16.875 27.5 17.434645 27.5 18.125ZM 31.875 23.125C 31.875 23.815357 32.434647 24.375 33.125 24.375C 33.815353 24.375 34.375 23.815357 34.375 23.125C 34.375 22.434643 33.815353 21.875 33.125 21.875C 32.434647 21.875 31.875 22.434643 31.875 23.125ZM 27.5 27.5C 27.5 28.190357 28.059643 28.75 28.75 28.75C 29.440357 28.75 30 28.190357 30 27.5C 30 26.809643 29.440357 26.25 28.75 26.25C 28.059643 26.25 27.5 26.809643 27.5 27.5ZM 19.375 20.625C 19.375 21.315357 19.934645 21.875 20.625 21.875C 21.315357 21.875 21.875 21.315357 21.875 20.625C 21.875 19.934645 21.315357 19.375 20.625 19.375C 19.934645 19.375 19.375 19.934645 19.375 20.625ZM 18.125 26.25C 18.125 26.940357 18.684645 27.5 19.375 27.5C 20.065357 27.5 20.625 26.940357 20.625 26.25C 20.625 25.559643 20.065357 25 19.375 25C 18.684645 25 18.125 25.559643 18.125 26.25ZM 39.375 25C 39.380005 23.241142 38.470627 21.60606 36.973751 20.682501C 37.058456 20.313419 37.102474 19.936169 37.105 19.557499C 37.130047 16.958282 35.151798 14.776985 32.5625 14.54875C 32.588318 13.525249 32.203011 12.534068 31.492691 11.796733C 30.782368 11.059398 29.806252 10.637381 28.782499 10.625C 27.163891 10.717669 25.719658 11.672218 25 13.125C 24.280342 11.672218 22.836109 10.717669 21.217501 10.625C 20.193748 10.637381 19.217632 11.059398 18.507309 11.796733C 17.796988 12.534068 17.411678 13.525249 17.4375 14.54875C 14.847234 14.777057 12.868641 16.959826 12.895 19.559999C 12.895476 19.938438 12.937393 20.315687 13.02 20.684999C 11.527056 21.612268 10.619104 23.245028 10.619104 25.002501C 10.619104 26.759972 11.527056 28.392731 13.02 29.32C 12.937393 29.689312 12.895476 30.066563 12.895 30.445C 12.871267 33.043259 14.849168 35.223087 17.4375 35.451248C 17.411678 36.474751 17.796988 37.465931 18.507309 38.203266C 19.217632 38.940601 20.193748 39.362617 21.217501 39.375C 22.710207 39.411186 24.124975 38.709881 24.999998 37.499996C 25.875023 38.709881 27.289793 39.411186 28.782499 39.374996C 29.806252 39.362617 30.782368 38.940601 31.492691 38.203266C 32.203011 37.465931 32.588318 36.474751 32.5625 35.451248C 35.152763 35.222942 37.131359 33.040173 37.105 30.439999C 37.102474 30.061331 37.058456 29.68408 36.973747 29.314999C 38.469868 28.391907 39.379135 26.757969 39.375 25ZM 25 13.125L 25 27.5M 25 32.447502L 25 37.5M 36.466251 17.078751L 33 18.813749C 31.987383 19.320721 30.797626 19.33271 29.775 18.846249M 28.75 26.25C 29.120653 24.703291 30.328293 23.495653 31.875002 23.125002M 32.5625 35.451248C 32.217499 34.25 31.62875 33.326248 30.625 33.125M 19.375 31.875C 19.375 32.565353 19.934645 33.125 20.625 33.125C 21.315357 33.125 21.875 32.565353 21.875 31.875C 21.875 31.184645 21.315357 30.625 20.625 30.625C 19.934645 30.625 19.375 31.184645 19.375 31.875ZM 28.125 33.125C 28.125 33.815353 28.684643 34.375 29.375 34.375C 30.065355 34.375 30.625 33.815353 30.625 33.125C 30.625 32.434647 30.065355 31.875 29.375 31.875C 28.684643 31.875 28.125 32.434647 28.125 33.125Z"></path></g></g></g><g id="g-root-smal_qu1kgg1qqs1zd-stroke" data-item-order="0" data-item-id="smal_qu1kgg1qqs1zd" data-item-class="Icon Stroke" data-item-index="none" data-renderer-id="0" transform="translate(353, 342.1709289550781)"><g id="smal_qu1kgg1qqs1zd-stroke" fill="none" stroke-linecap="round" stroke-linejoin="round" stroke-miterlimit="4" stroke="#17b0e3" stroke-width="2"><g><path d="M 18.75 18.130001L 31.25 18.130001C 31.25 18.130001 33.75 18.130001 33.75 20.629999L 33.75 28.129999C 33.75 28.129999 33.75 30.629999 31.25 30.629999L 18.75 30.629999C 18.75 30.629999 16.25 30.629999 16.25 28.129999L 16.25 20.629999C 16.25 20.629999 16.25 18.130001 18.75 18.130001M 16.25 23.129999L 33.75 23.129999M 20 20.317499L 20 20.317499M 20 20.317499C 19.827412 20.317499 19.6875 20.457411 19.6875 20.629999C 19.6875 20.802589 19.827412 20.942499 20 20.942499C 20.172588 20.942499 20.3125 20.802589 20.3125 20.629999C 20.3125 20.457411 20.172588 20.317499 20 20.317499M 22.5 20.317499L 22.5 20.317499M 22.5 20.317499C 22.327412 20.317499 22.1875 20.457411 22.1875 20.629999C 22.1875 20.802589 22.327412 20.942499 22.5 20.942499C 22.672588 20.942499 22.8125 20.802589 22.8125 20.629999C 22.8125 20.457411 22.672588 20.317499 22.5 20.317499M 25 20.317499L 25 20.317499M 25 20.317499C 24.827412 20.317499 24.6875 20.457411 24.6875 20.629999C 24.6875 20.802589 24.827412 20.942499 25 20.942499C 25.172588 20.942499 25.3125 20.802589 25.3125 20.629999C 25.3125 20.457411 25.172588 20.317499 25 20.317499"></path></g></g></g><g id="g-root-1_1qaq30w1qraadp-stroke" data-item-order="0" data-item-id="1_1qaq30w1qraadp" data-item-class="Icon Stroke" data-item-index="none" data-renderer-id="0" transform="translate(191.614990234375, 15.000030517578125)"><g id="1_1qaq30w1qraadp-stroke" fill="none" stroke-linecap="round" stroke-linejoin="round" stroke-miterlimit="4" stroke="#e15e5a" stroke-width="2"><g><path d="M 23.258902 13.857724C 24.427073 14.998697 25.121698 16.538448 25.203974 18.169298L 31.13644 12.26925C 31.548544 11.80723 32.138229 11.543032 32.757332 11.543032C 33.376438 11.543032 33.966122 11.80723 34.378223 12.26925L 39.176067 17.261599C 38.494629 17.592035 37.870731 18.029858 37.328251 18.558313C 34.929813 21.195921 35.026085 25.25235 37.546944 27.773209C 40.067806 30.294069 44.124233 30.390341 46.761841 27.991905C 47.290298 27.449427 47.728123 26.825529 48.058559 26.144089L 53.115746 31.136438C 53.577763 31.548542 53.841961 32.138226 53.841961 32.757332C 53.841961 33.376434 53.577763 33.966118 53.115746 34.378223L 47.215694 40.181019C 50.775421 40.396275 53.530666 43.382835 53.458878 46.948345C 53.387085 50.513847 50.513851 53.387081 46.948345 53.458874C 43.382839 53.530663 40.396278 50.775421 40.181023 47.215691L 34.248554 53.115742C 33.836449 53.577763 33.246765 53.841957 32.627663 53.841957C 32.008556 53.841957 31.418873 53.577763 31.006769 53.115742L 26.208927 48.123394C 26.890366 47.792957 27.514263 47.355133 28.056746 46.826679C 30.66176 44.203762 30.647247 39.965683 28.024328 37.360668C 25.401407 34.755653 21.16333 34.770168 18.558313 37.393085C 18.02986 37.935566 17.592037 38.55946 17.261599 39.240902L 12.26925 34.24855C 11.807231 33.836449 11.543032 33.246765 11.543032 32.627659C 11.543032 32.008556 11.807231 31.418871 12.26925 31.006767L 18.169298 25.203972C 16.538448 25.121696 14.998698 24.427071 13.857725 23.258902C 11.262428 20.662706 11.262794 16.454283 13.858539 13.858539C 16.454285 11.262794 20.662706 11.262428 23.258902 13.857724Z"></path></g></g></g><g id="g-root-tx_machinel_hs5tcg1qqs16s-stroke" data-item-order="0" data-item-id="tx_machinel_hs5tcg1qqs16s" data-item-class="Label Stroke" data-item-index="none" data-renderer-id="0" transform="translate(213, 321.1709289550781)"></g><g id="g-root-tx_external_145i2ts1qqs0eg-stroke" data-item-order="0" data-item-id="tx_external_145i2ts1qqs0eg" data-item-class="Label Stroke" data-item-index="none" data-renderer-id="0" transform="translate(389, 333.1709289550781)"></g><g id="g-root-tx_api_dg32kw1qrabd0-stroke" data-item-order="0" data-item-id="tx_api_dg32kw1qrabd0" data-item-class="Label Stroke" data-item-index="none" data-renderer-id="0" transform="translate(243, 25.6925048828125)"></g><g id="g-root-down_mcz45s1qqqmfb-stroke" data-item-order="0" data-item-id="down_mcz45s1qqqmfb" data-item-class="Icon Stroke" data-item-index="none" data-renderer-id="0" transform="translate(15, 342.1709289550781)"><g id="down_mcz45s1qqqmfb-stroke" fill="none" stroke-linecap="round" stroke-linejoin="round" stroke-miterlimit="4" stroke="#17b0e3" stroke-width="2"><g><path d="M 34.375 15.65625C 34.375 18.41375 29.057501 20.65625 22.5 20.65625C 15.9425 20.65625 10.625 18.41375 10.625 15.65625C 10.625 12.89875 15.9425 10.625 22.5 10.625C 29.057501 10.625 34.375 12.89375 34.375 15.65625ZM 22.5 25.65625C 15.9425 25.65625 10.625 23.41375 10.625 20.65625M 20.625 31.21875C 14.95875 30.84375 10.625 28.77125 10.625 26.282499M 21.25 36.865002C 15.28 36.60125 10.625 34.489998 10.625 31.90625L 10.625 15.625M 34.375 15.62625L 34.375 21.251251M 24.375 31.876249C 24.375002 36.018387 27.732864 39.376251 31.875 39.376251C 36.017136 39.376251 39.375 36.018387 39.375 31.876251C 39.375 27.734116 36.017136 24.376251 31.875 24.376251C 27.732864 24.376251 24.375002 27.734116 24.375002 31.876251ZM 31.875 28.126251L 31.875 35.626251M 31.875 35.626251L 29.0625 32.813751M 31.875 35.626251L 34.6875 32.813751"></path></g></g></g><g id="g-root-cu_18mkj4g1qqs1se-stroke" data-item-order="2" data-item-id="cu_18mkj4g1qqs1se" data-item-class="Curve Stroke" data-item-index="none" data-renderer-id="0" transform="translate(243, 125.17092895507812)"><g id="cu_18mkj4g1qqs1se-stroke" fill="none" stroke-linecap="round" stroke-linejoin="round" stroke-miterlimit="4" stroke="#484848" stroke-width="2"><g><path d="M 10 10L 10 38L 10 64"></path><path d="M 3.5 58L 10 64.5L 16.5 58" stroke-dasharray="none"></path></g></g></g><g id="g-root-cu_1d2e18w1qqs1s1-stroke" data-item-order="2" data-item-id="cu_1d2e18w1qqs1s1" data-item-class="Curve Stroke" data-item-index="none" data-renderer-id="0" transform="translate(57, 253.17092895507812)"><g id="cu_1d2e18w1qqs1s1-stroke" fill="none" stroke-linecap="round" stroke-linejoin="round" stroke-miterlimit="4" stroke="#484848" stroke-width="2"><g><path d="M 196 10L 196 24L 196 38L 103 38L 10 38L 10 52L 10 64"></path><path d="M 3.5 58L 10 64.5L 16.5 58" stroke-dasharray="none"></path></g></g></g><g id="g-root-cu_146r1001qqs2ks-stroke" data-item-order="2" data-item-id="cu_146r1001qqs2ks" data-item-class="Curve Stroke" data-item-index="none" data-renderer-id="0" transform="translate(243, 253.17092895507812)"><g id="cu_146r1001qqs2ks-stroke" fill="none" stroke-linecap="round" stroke-linejoin="round" stroke-miterlimit="4" stroke="#484848" stroke-width="2"><g><path d="M 10 10L 10 38L 10 64"></path><path d="M 3.5 58L 10 64.5L 16.5 58" stroke-dasharray="none"></path></g></g></g><g id="g-root-cu_146r1001qqs2ku-stroke" data-item-order="2" data-item-id="cu_146r1001qqs2ku" data-item-class="Curve Stroke" data-item-index="none" data-renderer-id="0" transform="translate(243, 253.17092895507812)"><g id="cu_146r1001qqs2ku-stroke" fill="none" stroke-linecap="round" stroke-linejoin="round" stroke-miterlimit="4" stroke="#484848" stroke-width="2"><g><path d="M 10 10L 10 24L 10 38L 104 38L 198 38L 198 52L 198 64"></path><path d="M 191.5 58L 198 64.5L 204.5 58" stroke-dasharray="none"></path></g></g></g><g id="g-root-cu_18mkj4g1qqs1sb-stroke" data-item-order="2" data-item-id="cu_18mkj4g1qqs1sb" data-item-class="Curve Stroke" data-item-index="none" data-renderer-id="0" transform="translate(243, 90.69302368164062)"><g id="cu_18mkj4g1qqs1sb-stroke" fill="none" stroke-linecap="round" stroke-linejoin="round" stroke-miterlimit="4" stroke="#484848" stroke-width="2"><g><path d="M 10 10L 10 55.2L 10 98.5"></path><path d="M 3.5 92.5L 10 99L 16.5 92.5" stroke-dasharray="none"></path></g></g></g></g></g></svg>