<?xml version="1.0" encoding="utf-8" standalone="yes"?>
<!DOCTYPE svg PUBLIC "-//W3C//DTD SVG 1.1//EN" "http://www.w3.org/Graphics/SVG/1.1/DTD/svg11.dtd">
<svg width="672" height="432" viewBox="0 0 672 432" style="fill:none;stroke:none;fill-rule:evenodd;clip-rule:evenodd;stroke-linecap:round;stroke-linejoin:round;stroke-miterlimit:1.5;" version="1.1" xmlns="http://www.w3.org/2000/svg" xmlns:xlink="http://www.w3.org/1999/xlink"><style id="fontImports">@import url("https://fonts.googleapis.com/css2?family=Shantell+Sans:wght@300..800&amp;display=block");</style><rect id="" x="0" y="0" width="672" height="432" style="fill: #ffffff;"></rect><g id="items" style="isolation: isolate"><g id="blend" style="mix-blend-mode:multiply"><g id="g-root-10.Vector_sy_hz14gw1rkxvr8-fill" data-item-order="-163326" data-item-id="10.Vector_sy_hz14gw1rkxvr8" data-item-class="ScenePart Part Indexed Fill Stroke" data-item-index="10" data-renderer-id="0" transform="translate(185.7030029296875, 5.841033935546875)"><g id="10.Vector_sy_hz14gw1rkxvr8-fill" stroke="none" fill="#cef3ff"><g><path d="M 70.796997 122.058997L 72.996997 120.558997L 75.196997 94.458997L 59.196997 105.758997ZM 75.196997 94.458997L 61.896997 81.258997L 53.596997 101.158997L 72.996997 120.558997ZM 53.596997 101.158997L 68.496997 101.258997L 73.196997 81.358997L 61.896997 81.258997ZM 73.196997 81.358997L 39.896997 65.258997L 37.296997 86.258997L 68.496997 101.258997ZM 37.296997 86.258997L 81.796997 76.758997L 80.996997 56.558997L 39.896997 65.258997ZM 80.996997 56.558997L 22.496997 48.958997L 23.896997 69.258997L 81.796997 76.758997ZM 23.896997 69.258997L 87.896997 52.158997L 86.596997 31.858997L 22.496997 48.958997ZM 86.596997 31.858997L 19.496997 22.858997L 20.696997 43.158997L 87.896997 52.158997ZM 20.696997 43.158997L 66.696997 31.658997L 61.896997 12.258997L 19.496997 22.858997Z" fill-rule="nonzero"></path></g></g></g><g id="g-root-9.Vector_sy_meumlc1rkxuyz-fill" data-item-order="-163324" data-item-id="9.Vector_sy_meumlc1rkxuyz" data-item-class="ScenePart Part Indexed Fill Stroke" data-item-index="9" data-renderer-id="0" transform="translate(101.27398681640625, 66.4410400390625)"><g id="9.Vector_sy_meumlc1rkxuyz-fill" stroke="none" fill="#f0cffd"><g><path d="M 105.525998 96.259006L 108.025998 94.759006L 106.025998 72.659006L 95.225998 79.159006ZM 106.025998 72.659006L 92.725998 67.759006L 95.325998 74.659006L 76.525998 69.059006L 49.725998 75.959006L 63.425998 92.459006L 81.625998 86.159006L 75.425998 78.059006L 88.025998 87.359006L 108.025998 94.759006ZM 63.425998 92.459006L 86.925998 50.459006L 71.925998 36.359006L 49.725998 75.959006ZM 71.925998 36.359006L 23.525998 67.759006L 37.325998 82.659006L 86.925998 50.459006ZM 37.325998 82.659006L 76.725998 30.459006L 63.125998 15.259006L 23.525998 67.759006ZM 63.125998 15.259006L 8.725998 47.759006L 22.725998 62.759006L 76.725998 30.459006ZM 22.725998 62.759006L 51.925998 20.159006L 35.425998 8.859006L 8.725998 47.759006Z" fill-rule="nonzero"></path></g></g></g><g id="g-root-8.Vector_sy_meumlc1rkxuyy-fill" data-item-order="-163322" data-item-id="8.Vector_sy_meumlc1rkxuyy" data-item-class="ScenePart Part Indexed Fill Stroke" data-item-index="8" data-renderer-id="0" transform="translate(74, 170)"><g id="8.Vector_sy_meumlc1rkxuyy-fill" stroke="none" fill="#fff9ce"><g><path d="M 121.4 47.1L 120.8 42.6L 99.5 33.8L 101.5 49.7ZM 99.5 33.8L 78.8 49.9L 101.3 57.8L 120.8 42.6ZM 101.3 57.8L 97.1 40.2L 75.6 36.4L 78.8 49.9ZM 75.6 36.4L 56 66L 75.5 72.8L 97.1 40.2ZM 75.5 72.8L 79.4 25.5L 59.8 20.4L 56 66ZM 59.8 20.4L 32.6 80.5L 52.5 85.1L 79.4 25.5ZM 52.5 85.1L 54.3 14.6L 34.4 9.9L 32.6 80.5ZM 34.4 9.9L 10.5 62L 30.3 66.7L 54.3 14.6ZM 30.3 66.7L 31.9 24.8L 12 24L 10.5 62Z" fill-rule="nonzero"></path></g></g></g><g id="g-root-7.Vector_sy_meumlc1rkxuyx-fill" data-item-order="-163320" data-item-id="7.Vector_sy_meumlc1rkxuyx" data-item-class="ScenePart Part Indexed Fill Stroke" data-item-index="7" data-renderer-id="0" transform="translate(101.27398681640625, 258.031005859375)"><g id="7.Vector_sy_meumlc1rkxuyx-fill" stroke="none" fill="#ffd0ce"><g><path d="M 111.025998 21.568994L 112.125998 19.468994L 95.525998 7.968994L 93.225998 12.368994ZM 95.525998 7.968994L 73.825998 31.968994L 98.725998 34.268994L 112.125998 19.468994ZM 98.725998 34.268994L 95.225998 28.568994L 74.125998 32.568994L 73.825998 31.968994ZM 74.125998 32.568994L 68.625998 63.668994L 89.725998 58.968994L 95.225998 28.568994ZM 89.725998 58.968994L 60.825998 18.168994L 42.725998 27.268994L 68.625998 63.668994ZM 42.725998 27.268994L 64.125998 91.968994L 81.925998 82.268994L 60.825998 18.168994ZM 81.925998 82.268994L 35.925998 24.868994L 18.425998 35.068994L 64.125998 91.968994ZM 18.425998 35.068994L 40.925998 92.468994L 58.025998 81.268994L 35.925998 24.868994ZM 58.025998 81.268994L 24.125998 47.568994L 10.025998 61.768994L 40.925998 92.468994Z" fill-rule="nonzero"></path></g></g></g><g id="g-root-6.Vector_sy_meumlc1rkxuyw-fill" data-item-order="-163318" data-item-id="6.Vector_sy_meumlc1rkxuyw" data-item-class="ScenePart Part Indexed Fill Stroke" data-item-index="6" data-renderer-id="0" transform="translate(185.7030029296875, 293.78204345703125)"><g id="6.Vector_sy_meumlc1rkxuyw-fill" stroke="none" fill="#fdd0eb"><g><path d="M 77.496997 8.217987L 78.196997 8.617987L 58.296997 20.117987L 67.396997 25.517987ZM 58.296997 20.117987L 58.396997 30.017987L 63.896997 27.117987L 57.196997 53.217987L 65.196997 49.017987L 78.396997 27.117987L 78.196997 8.617987ZM 57.196997 53.217987L 73.296997 77.717987L 85.796997 60.217987L 63.896997 27.117987ZM 85.796997 60.217987L 33.396997 46.717987L 25.696997 65.317987L 73.296997 77.717987ZM 25.696997 65.317987L 82.296997 98.417987L 89.796997 79.617987L 33.396997 46.717987ZM 89.796997 79.617987L 25.096997 64.617987L 15.596997 83.017987L 82.296997 98.417987ZM 15.596997 83.017987L 56.096997 118.717987L 65.196997 100.117987L 25.096997 64.617987ZM 65.196997 100.117987L 20.496997 91.617987L 16.796997 111.317987L 56.096997 118.717987Z" fill-rule="nonzero"></path></g></g></g><g id="g-root-5.Vector_sy_quo4ps1rkxu6n-fill" data-item-order="-163316" data-item-id="5.Vector_sy_quo4ps1rkxu6n" data-item-class="ScenePart Part Indexed Fill Stroke" data-item-index="5" data-renderer-id="0" transform="translate(290.134033203125, 293.78204345703125)"><g id="5.Vector_sy_quo4ps1rkxu6n-fill" stroke="none" fill="#fde6cf"><g><path d="M 20.765997 8.617987L 18.765997 10.917987L 21.965997 37.617987L 35.865997 21.817987ZM 21.965997 37.617987L 38.465997 49.117987L 37.165997 23.817987L 18.765997 10.917987ZM 37.165997 23.817987L 26.565997 33.017987L 31.265997 55.517987L 38.465997 49.117987ZM 31.265997 55.517987L 68.765997 67.117987L 69.165997 46.317987L 26.565997 33.017987ZM 69.165997 46.317987L 18.665997 59.617987L 20.565997 79.817987L 68.765997 67.117987ZM 20.565997 79.817987L 85.165997 84.417987L 83.065997 64.217987L 18.665997 59.617987ZM 83.065997 64.217987L 18.865997 81.917987L 21.565997 101.917987L 85.165997 84.417987ZM 21.565997 101.917987L 79.065997 102.417987L 75.665997 82.417987L 18.865997 81.917987ZM 75.665997 82.417987L 28.265997 99.217987L 34.965997 118.117987L 79.065997 102.417987Z" fill-rule="nonzero"></path></g></g></g><g id="g-root-4.Vector_sy_quo4ps1rkxu6m-fill" data-item-order="-163314" data-item-id="4.Vector_sy_quo4ps1rkxu6m" data-item-class="ScenePart Part Indexed Fill Stroke" data-item-index="4" data-renderer-id="0" transform="translate(352.6719970703125, 258.031005859375)"><g id="4.Vector_sy_quo4ps1rkxu6m-fill" stroke="none" fill="#d8ceff"><g><path d="M 16.728003 9.068994L 9.028003 14.768994L 15.128003 35.068994L 28.628003 25.168994ZM 15.128003 35.068994L 45.728003 36.668994L 35.328003 16.168994L 9.028003 14.768994ZM 35.328003 16.168994L 27.928003 27.368994L 40.528003 44.568994L 45.728003 36.668994ZM 40.528003 44.568994L 74.428003 35.168994L 62.828003 17.668994L 27.928003 27.368994ZM 62.828003 17.668994L 30.428003 58.268994L 43.928003 73.368994L 74.428003 35.168994ZM 43.928003 73.368994L 101.128003 37.468994L 87.128003 22.668994L 30.428003 58.268994ZM 87.128003 22.668994L 45.228003 82.768994L 60.328003 95.968994L 101.128003 37.468994ZM 60.328003 95.968994L 109.428003 50.368994L 94.028003 37.368994L 45.228003 82.768994ZM 94.028003 37.368994L 64.328003 83.068994L 81.128003 93.968994L 109.428003 50.368994Z" fill-rule="nonzero"></path></g></g></g><g id="g-root-3.Vector_sy_quo4ps1rkxu6l-fill" data-item-order="-163312" data-item-id="3.Vector_sy_quo4ps1rkxu6l" data-item-class="ScenePart Part Indexed Fill Stroke" data-item-index="3" data-renderer-id="0" transform="translate(370.29901123046875, 170)"><g id="3.Vector_sy_quo4ps1rkxu6l-fill" stroke="none" fill="#ecf7d5"><g><path d="M 15.700989 43.2L 15.300989 45.9L 33.600989 57.8L 35.400989 46.3ZM 33.600989 57.8L 50.900989 46.4L 26.500989 38.5L 15.300989 45.9ZM 26.500989 38.5L 32.100989 53.2L 54.600989 56.1L 50.900989 46.4ZM 54.600989 56.1L 75.400989 26.8L 55.300989 20.6L 32.100989 53.2ZM 55.300989 20.6L 56.200989 71.8L 76.300989 74.1L 75.400989 26.8ZM 76.300989 74.1L 92.800989 9.9L 72.700989 7.9L 56.200989 71.8ZM 72.700989 7.9L 75.900989 77L 96.000989 79.5L 92.800989 9.9ZM 96.000989 79.5L 114.200989 21L 93.900989 18.8L 75.900989 77ZM 93.900989 18.8L 98.000989 66.5L 117.900989 64.8L 114.200989 21Z" fill-rule="nonzero"></path></g></g></g><g id="g-root-2.Vector_sy_zqb4yo1rkxtdw-fill" data-item-order="-163310" data-item-id="2.Vector_sy_zqb4yo1rkxtdw" data-item-class="ScenePart Part Indexed Fill Stroke" data-item-index="2" data-renderer-id="0" transform="translate(352.6719970703125, 66.4410400390625)"><g id="2.Vector_sy_zqb4yo1rkxtdw-fill" stroke="none" fill="#d5f7e8"><g><path d="M 14.028003 101.259006L 18.228003 98.859006L 31.128003 91.759006L 46.828003 70.859006L 20.928003 74.759006L 16.928003 81.359006L 14.228003 81.259006ZM 20.928003 74.759006L 30.828003 83.459006L 51.228003 74.659006L 46.828003 70.859006ZM 51.228003 74.659006L 52.528003 43.059006L 32.228003 49.459006L 30.828003 83.459006ZM 32.228003 49.459006L 63.428003 90.759006L 81.228003 81.159006L 52.528003 43.059006ZM 81.228003 81.159006L 57.528003 15.559006L 39.828003 25.559006L 63.428003 90.759006ZM 39.828003 25.559006L 84.728003 80.759006L 103.028003 71.659006L 57.528003 15.559006ZM 103.028003 71.659006L 87.928003 11.059006L 69.228003 18.559006L 84.728003 80.759006ZM 69.228003 18.559006L 94.028003 62.259006L 111.428003 52.359006L 87.928003 11.059006Z" fill-rule="nonzero"></path></g></g></g><g id="g-root-1.Vector_sy_zqb4yo1rkxtdv-fill" data-item-order="-163308" data-item-id="1.Vector_sy_zqb4yo1rkxtdv" data-item-class="ScenePart Part Indexed Indexed_1 Fill Stroke" data-item-index="1" data-renderer-id="0" transform="translate(290.1419677734375, 5.841033935546875)"><g id="1.Vector_sy_zqb4yo1rkxtdv-fill" stroke="none" fill="#cef3ff"><g><path d="M 22.258002 119.758997L 29.458002 124.658997L 47.958002 113.058997L 33.458002 103.258997ZM 47.958002 113.058997L 43.158002 78.458997L 24.958002 92.958997L 29.458002 124.658997ZM 24.958002 92.958997L 32.358002 95.758997L 42.858002 78.258997L 43.158002 78.458997ZM 42.858002 78.258997L 20.858002 58.758997L 12.058002 77.658997L 32.358002 95.758997ZM 12.058002 77.658997L 66.758002 85.858997L 74.558002 66.758997L 20.858002 58.758997ZM 74.558002 66.758997L 25.758002 31.658997L 16.258002 49.458997L 66.758002 85.858997ZM 16.258002 49.458997L 77.158002 72.058997L 87.958002 54.758997L 25.758002 31.658997ZM 87.958002 54.758997L 44.058002 12.458997L 34.058002 30.558997L 77.158002 72.058997ZM 34.058002 30.558997L 76.858002 41.458997L 81.758002 22.058997L 44.058002 12.458997Z" fill-rule="nonzero"></path></g></g></g><g id="g-root-0.cr-big_cr_145i6001rkxvre-fill" data-item-order="-163306" data-item-id="0.cr-big_cr_145i6001rkxvre" data-item-class="Shape Stroke Fill ScenePart Part Indexed_0 ColorFillGray" data-item-index="0" data-renderer-id="0" transform="translate(206, 133.99603271484375)"><g id="0.cr-big_cr_145i6001rkxvre-fill" stroke="none" fill="#eaeaea"><g><path d="M 114.4 14L 108.4 9.8L 95.6 25.2L 102.9 30.3ZM 95.6 25.2L 144.4 71.8L 155.4 54.7L 108.4 9.8ZM 155.4 54.7L 52.4 13.4L 43.2 31.2L 144.4 71.8ZM 43.2 31.2L 147.1 97.8L 156.5 80.1L 52.4 13.4ZM 156.5 80.1L 34.5 28.5L 25.6 46.5L 147.1 97.8ZM 25.6 46.5L 144.6 114.7L 153.2 96.6L 34.5 28.5ZM 153.2 96.6L 21.7 47.7L 12.8 65.7L 144.6 114.7ZM 12.8 65.7L 129.1 140.3L 138.7 122.7L 21.7 47.7ZM 138.7 122.7L 14.2 65.6L 4.6 83.2L 129.1 140.3ZM 4.6 83.2L 109.7 149.5L 118.8 131.5L 14.2 65.6ZM 118.8 131.5L 25.3 95L 15.1 112.5L 109.7 149.5ZM 15.1 112.5L 70.8 157.6L 80.6 139.8L 25.3 95ZM 80.6 139.8L 45 128L 38.7 146.9L 70.8 157.6Z" fill-rule="nonzero"></path></g></g></g><g id="g-root-tx_restfula_18gbvfk1rkz9qm-fill" data-item-order="0" data-item-id="tx_restfula_18gbvfk1rkz9qm" data-item-class="Label Stroke SceneTarget Indexed" data-item-index="2" data-renderer-id="0" transform="translate(458, 98)"><g id="tx_restfula_18gbvfk1rkz9qm-fill" stroke="none" fill="#484848"><g><text style="font: 20px &quot;Shantell Sans&quot;, cursive; white-space: pre;"><tspan x="12" y="35" dominant-baseline="ideographic">RESTful APIs</tspan></text></g></g></g><g id="g-root-tx_fastapi_1hiu3mo1rkxt73-fill" data-item-order="0" data-item-id="tx_fastapi_1hiu3mo1rkxt73" data-item-class="Label Stroke SceneTarget Indexed" data-item-index="9" data-renderer-id="0" transform="translate(14, 98)"><g id="tx_fastapi_1hiu3mo1rkxt73-fill" stroke="none" fill="#484848"><g><text style="font: 20px &quot;Shantell Sans&quot;, cursive; white-space: pre;"><tspan x="15.09" y="35" dominant-baseline="ideographic">FastAPI</tspan></text></g></g></g><g id="g-root-6_qwjjz41rl22v5-fill" data-item-order="0" data-item-id="6_qwjjz41rl22v5" data-item-class="Icon Stroke SceneTarget Indexed InsideFill" data-item-index="2" data-renderer-id="0" transform="translate(389.9150390625, 83.25201416015625)"></g><g id="g-root-micr_mdlof41rl22gw-fill" data-item-order="0" data-item-id="micr_mdlof41rl22gw" data-item-class="Icon Stroke SceneTarget SceneEnd InsideFill InsideGrayFill ColorFillGray" data-item-index="none" data-renderer-id="0" transform="translate(242, 169.99603271484375)"></g><g id="g-root-tx_flask_zrk34w1rkxvk8-fill" data-item-order="0" data-item-id="tx_flask_zrk34w1rkxvk8" data-item-class="Label Stroke SceneTarget Indexed" data-item-index="8" data-renderer-id="0" transform="translate(2, 194)"><g id="tx_flask_zrk34w1rkxvk8-fill" stroke="none" fill="#484848"><g><text style="font: 20px &quot;Shantell Sans&quot;, cursive; white-space: pre;"><tspan x="17.69" y="35" dominant-baseline="ideographic">Flask</tspan></text></g></g></g><g id="g-root-elix_9025c1rl20oz-fill" data-item-order="0" data-item-id="elix_9025c1rl20oz" data-item-class="Icon Stroke SceneTarget Indexed InsideFill" data-item-index="8" data-renderer-id="0" transform="translate(86, 182)"></g><g id="g-root-3_4o736o1rl232i-fill" data-item-order="0" data-item-id="3_4o736o1rl232i" data-item-class="Icon Stroke SceneTarget Indexed InsideFill" data-item-index="9" data-renderer-id="0" transform="translate(118.08502197265625, 83.25201416015625)"></g><g id="g-root-http_vcd23k1rl222w-fill" data-item-order="0" data-item-id="http_vcd23k1rl222w" data-item-class="Icon Stroke SceneTarget Indexed InsideFill" data-item-index="3" data-renderer-id="0" transform="translate(422, 182)"></g><g id="g-root-tx_httprequ_1id401rkz9xp-fill" data-item-order="0" data-item-id="tx_httprequ_1id401rkz9xp" data-item-class="Label Stroke SceneTarget Indexed" data-item-index="3" data-renderer-id="0" transform="translate(494, 194)"><g id="tx_httprequ_1id401rkz9xp-fill" stroke="none" fill="#484848"><g><text style="font: 20px &quot;Shantell Sans&quot;, cursive; white-space: pre;"><tspan x="12" y="35" dominant-baseline="ideographic">HTTP Requests</tspan></text></g></g></g><g id="g-root-tx_pythonsr_959jhc1rkxvk9-fill" data-item-order="0" data-item-id="tx_pythonsr_959jhc1rkxvk9" data-item-class="Label Stroke SceneTarget Indexed" data-item-index="7" data-renderer-id="0" transform="translate(2, 266)"><g id="tx_pythonsr_959jhc1rkxvk9-fill" stroke="none" fill="#484848"><g><text style="font: 20px &quot;Shantell Sans&quot;, cursive; white-space: pre;"><tspan x="23.75" y="35" dominant-baseline="ideographic">Python's </tspan><tspan x="17.16" y="59" dominant-baseline="ideographic">Requests </tspan><tspan x="35.8" y="83" dominant-baseline="ideographic">Library</tspan></text></g></g></g><g id="g-root-hori_dbpxb41rl3fuq-fill" data-item-order="0" data-item-id="hori_dbpxb41rl3fuq" data-item-class="Icon Stroke SceneTarget Indexed Indexed_1 InsideFill" data-item-index="1" data-renderer-id="0" transform="translate(305.9150390625, 22.2230224609375)"></g><g id="g-root-fold_qvalsw1rl20ox-fill" data-item-order="0" data-item-id="fold_qvalsw1rl20ox" data-item-class="Icon Stroke SceneTarget Indexed InsideFill" data-item-index="10" data-renderer-id="0" transform="translate(202.08499145507812, 22.2230224609375)"></g><g id="g-root-pych_1qeh3vk1rl21ak-fill" data-item-order="0" data-item-id="pych_1qeh3vk1rl21ak" data-item-class="Icon Stroke SceneTarget Indexed InsideFill" data-item-index="7" data-renderer-id="0" transform="translate(118.08502197265625, 280.748046875)"></g><g id="g-root-serv_zs6k801rl21an-fill" data-item-order="0" data-item-id="serv_zs6k801rl21an" data-item-class="Icon Stroke SceneTarget Indexed InsideFill" data-item-index="4" data-renderer-id="0" transform="translate(389.9150390625, 280.748046875)"></g><g id="g-root-tx_cloudbas_m8lvq81rkz7k4-fill" data-item-order="0" data-item-id="tx_cloudbas_m8lvq81rkz7k4" data-item-class="Label Stroke SceneTarget Indexed" data-item-index="4" data-renderer-id="0" transform="translate(458, 278)"><g id="tx_cloudbas_m8lvq81rkz7k4-fill" stroke="none" fill="#484848"><g><text style="font: 20px &quot;Shantell Sans&quot;, cursive; white-space: pre;"><tspan x="12" y="35" dominant-baseline="ideographic">Cloud-based </tspan><tspan x="12" y="59" dominant-baseline="ideographic">APIs</tspan></text></g></g></g><g id="g-root-tx_standard_hu1bs01rkz9qn-fill" data-item-order="0" data-item-id="tx_standard_hu1bs01rkz9qn" data-item-class="Label Stroke SceneTarget Indexed Indexed_1" data-item-index="1" data-renderer-id="0" transform="translate(374, 2)"><g id="tx_standard_hu1bs01rkz9qn-fill" stroke="none" fill="#484848"><g><text style="font: 20px &quot;Shantell Sans&quot;, cursive; white-space: pre;"><tspan x="12" y="35" dominant-baseline="ideographic">Standardized </tspan><tspan x="12" y="59" dominant-baseline="ideographic">Protocols</tspan></text></g></g></g><g id="g-root-tx_realtime_zjfx0g1rkz94z-fill" data-item-order="0" data-item-id="tx_realtime_zjfx0g1rkz94z" data-item-class="Label Stroke SceneTarget Indexed" data-item-index="5" data-renderer-id="0" transform="translate(374, 362)"><g id="tx_realtime_zjfx0g1rkz94z-fill" stroke="none" fill="#484848"><g><text style="font: 20px &quot;Shantell Sans&quot;, cursive; white-space: pre;"><tspan x="12" y="35" dominant-baseline="ideographic">Real-time Data</tspan></text></g></g></g><g id="g-root-neur_1lynlr41rl222t-fill" data-item-order="0" data-item-id="neur_1lynlr41rl222t" data-item-class="Icon Stroke SceneTarget Indexed InsideFill" data-item-index="6" data-renderer-id="0" transform="translate(202.08499145507812, 341.778076171875)"></g><g id="g-root-cloc_18ntkgw1rl20hy-fill" data-item-order="0" data-item-id="cloc_18ntkgw1rl20hy" data-item-class="Icon Stroke SceneTarget Indexed InsideFill" data-item-index="5" data-renderer-id="0" transform="translate(305.9150390625, 341.778076171875)"></g><g id="g-root-tx_cloudinf_1uto4ww1rkxury-fill" data-item-order="0" data-item-id="tx_cloudinf_1uto4ww1rkxury" data-item-class="Label Stroke SceneTarget Indexed" data-item-index="10" data-renderer-id="0" transform="translate(38, 2)"><g id="tx_cloudinf_1uto4ww1rkxury-fill" stroke="none" fill="#484848"><g><text style="font: 20px &quot;Shantell Sans&quot;, cursive; white-space: pre;"><tspan x="97.82" y="35" dominant-baseline="ideographic">Cloud </tspan><tspan x="14.52" y="59" dominant-baseline="ideographic">Infrastructure</tspan></text></g></g></g><g id="g-root-tx_external_1q5qgo01rkz94y-fill" data-item-order="0" data-item-id="tx_external_1q5qgo01rkz94y" data-item-class="Label Stroke SceneTarget Indexed" data-item-index="6" data-renderer-id="0" transform="translate(50, 362)"><g id="tx_external_1q5qgo01rkz94y-fill" stroke="none" fill="#484848"><g><text style="font: 20px &quot;Shantell Sans&quot;, cursive; white-space: pre;"><tspan x="21.62" y="35" dominant-baseline="ideographic">External ML </tspan><tspan x="69.2" y="59" dominant-baseline="ideographic">Models</tspan></text></g></g></g><g id="g-root-10.Vector_sy_hz14gw1rkxvr8-stroke" data-item-order="-163326" data-item-id="10.Vector_sy_hz14gw1rkxvr8" data-item-class="ScenePart Part Indexed Fill Stroke" data-item-index="10" data-renderer-id="0" transform="translate(185.7030029296875, 5.841033935546875)"><g id="10.Vector_sy_hz14gw1rkxvr8-stroke" fill="none" stroke-linecap="round" stroke-linejoin="round" stroke-miterlimit="4" stroke="#484848" stroke-width="4"><g><path d="M 57.196997 113.058997C 62.996997 115.758997 68.396997 118.958997 73.796997 122.358997C 75.396997 116.258997 80.496997 111.358997 81.696997 105.158997C 79.396997 105.558997 77.096997 106.458997 74.896997 107.358997C 72.396997 98.958997 68.296997 91.058997 66.796997 82.458997C 82.396997 74.858997 88.296997 56.858997 84.596997 39.258997C 80.596997 19.758997 57.896997 9.258997 39.296997 16.158997C 20.596997 23.058997 10.396997 42.458997 16.096997 61.458997C 21.296997 78.658997 38.596997 87.458997 55.896997 85.958997C 58.996997 94.058997 62.596997 102.258997 63.996997 110.858997C 61.696997 111.658997 59.596997 112.758997 57.196997 113.058997"></path><path d="M 57.196997 113.078997L 73.774997 122.376997L 81.719997 105.110997L 74.894997 107.328997L 66.802997 82.423997C 82.282997 74.514997 90.162997 56.315997 84.619997 39.256997C 78.475997 20.347997 58.165997 9.999997 39.256997 16.143997C 20.347997 22.286997 9.999997 42.596997 16.143997 61.505997C 21.678997 78.541997 38.710997 88.628997 55.858997 85.967997L 63.954997 110.882997L 57.196997 113.078997Z"></path></g></g></g><g id="g-root-9.Vector_sy_meumlc1rkxuyz-stroke" data-item-order="-163324" data-item-id="9.Vector_sy_meumlc1rkxuyz" data-item-class="ScenePart Part Indexed Fill Stroke" data-item-index="9" data-renderer-id="0" transform="translate(101.27398681640625, 66.4410400390625)"><g id="9.Vector_sy_meumlc1rkxuyz-stroke" fill="none" stroke-linecap="round" stroke-linejoin="round" stroke-miterlimit="4" stroke="#484848" stroke-width="4"><g><path d="M 93.225998 97.559006C 99.525998 96.959006 105.825998 96.459006 112.025998 95.259006C 110.625998 89.159006 110.425998 82.659006 108.325998 76.659006C 106.925998 78.659006 105.825998 80.859006 104.125998 82.459006C 96.225998 78.759006 90.125998 72.059006 82.925998 67.059006C 91.325998 51.859006 86.325998 32.459006 71.925998 21.659006C 56.125998 9.759006 32.225998 12.759006 21.725998 29.659006C 11.125998 46.459006 13.225998 68.659006 29.625998 79.959006C 44.425998 90.059006 63.825998 88.659006 76.125998 76.359006C 83.125998 81.659006 89.425998 88.159006 97.325998 91.759006C 96.025998 93.759006 94.825998 95.859006 93.225998 97.559006"></path><path d="M 93.177998 97.528006L 112.053998 95.307006L 108.333998 76.668006L 104.115998 82.474006L 82.930998 67.082006C 90.804998 51.585006 86.482998 32.230006 71.970998 21.687006C 55.885998 10.000006 33.372998 13.566006 21.686998 29.651006C 9.999998 45.736006 13.565998 68.249006 29.650998 79.936006C 44.141998 90.464006 63.850998 88.613006 76.159998 76.382006L 97.353998 91.780006L 93.177998 97.528006Z"></path></g></g></g><g id="g-root-8.Vector_sy_meumlc1rkxuyy-stroke" data-item-order="-163322" data-item-id="8.Vector_sy_meumlc1rkxuyy" data-item-class="ScenePart Part Indexed Fill Stroke" data-item-index="8" data-renderer-id="0" transform="translate(74, 170)"><g id="8.Vector_sy_meumlc1rkxuyy-stroke" fill="none" stroke-linecap="round" stroke-linejoin="round" stroke-miterlimit="4" stroke="#484848" stroke-width="4"><g><path d="M 107.7 58.9C 113.1 55.6 117.2 50.5 121.7 46C 116.7 42.1 112.4 37.4 107.7 33.1C 108.6 35.4 107.8 37.9 107.7 40.3C 99.1 39.1 90.3 39.8 81.5 40.3C 79.2 23.1 63.9 8.9 46 10C 26.2 11.2 8.9 26.1 10 46C 11.1 65.9 26.1 82 46 82C 63.9 82 78.7 68.9 81.5 51.8C 90.2 53.1 99.1 53.1 107.7 51.8C 107.3 54.1 108.4 56.6 107.7 58.9"></path><path d="M 107.735 58.893L 121.7 46L 107.735 33.108L 107.735 40.284L 81.548 40.284C 78.81 23.118 63.937 10 46 10C 26.118 10 10 26.118 10 46C 10 65.882 26.118 82 46 82C 63.912 82 78.769 68.918 81.537 51.788L 107.735 51.788L 107.735 58.893Z"></path></g></g></g><g id="g-root-7.Vector_sy_meumlc1rkxuyx-stroke" data-item-order="-163320" data-item-id="7.Vector_sy_meumlc1rkxuyx" data-item-class="ScenePart Part Indexed Fill Stroke" data-item-index="7" data-renderer-id="0" transform="translate(101.27398681640625, 258.031005859375)"><g id="7.Vector_sy_meumlc1rkxuyx-stroke" fill="none" stroke-linecap="round" stroke-linejoin="round" stroke-miterlimit="4" stroke="#484848" stroke-width="4"><g><path d="M 108.325998 30.868994C 108.825998 24.568994 110.625998 18.368994 112.025998 12.268994C 105.825998 11.168994 99.525998 9.668994 93.225998 9.968994C 94.325998 12.068994 95.625998 14.268994 97.425998 15.768994C 90.425998 21.068994 82.225998 24.968994 76.225998 31.168994C 62.925998 19.968994 44.525998 17.468994 29.625998 27.568994C 13.225998 38.768994 10.525998 61.468994 21.725998 77.868994C 32.825998 94.268994 56.325998 98.068994 71.925998 85.868994C 86.125998 74.768994 89.025998 56.768994 82.925998 40.468994C 89.025998 34.168994 96.625998 29.568994 104.125998 25.068994C 105.525998 27.068994 106.825998 29.068994 108.325998 30.868994"></path><path d="M 108.333998 30.859994L 112.053998 12.220994L 93.177998 9.999994L 97.395998 15.805994L 76.210998 31.197994C 63.904998 18.919994 44.161998 17.048994 29.650998 27.591994C 13.565998 39.278994 9.999998 61.791994 21.686998 77.876994C 33.372998 93.961994 55.885998 97.527994 71.970998 85.841994C 86.462998 75.312994 90.792998 55.996994 82.962998 40.510994L 104.157998 25.111994L 108.333998 30.859994Z"></path></g></g></g><g id="g-root-6.Vector_sy_meumlc1rkxuyw-stroke" data-item-order="-163318" data-item-id="6.Vector_sy_meumlc1rkxuyw" data-item-class="ScenePart Part Indexed Fill Stroke" data-item-index="6" data-renderer-id="0" transform="translate(185.7030029296875, 293.78204345703125)"><g id="6.Vector_sy_meumlc1rkxuyw-stroke" fill="none" stroke-linecap="round" stroke-linejoin="round" stroke-miterlimit="4" stroke="#484848" stroke-width="4"><g><path d="M 81.696997 27.217987C 77.896997 22.217987 76.496997 15.717987 73.796997 10.017987C 68.096997 12.917987 62.596997 16.017987 57.196997 19.317987C 59.496997 20.017987 61.696997 20.817987 63.996997 21.517987C 62.896997 30.217987 58.396997 38.017987 55.896997 46.417987C 38.896997 42.717987 22.896997 54.217987 16.096997 70.917987C 8.696997 89.317987 19.896997 111.717987 39.296997 116.217987C 58.596997 120.817987 80.296997 112.517987 84.596997 93.117987C 88.496997 75.617987 81.696997 59.017987 66.896997 50.017987C 69.396997 41.617987 73.996997 33.717987 74.996997 25.117987C 76.896997 26.417987 79.796997 25.917987 81.696997 27.217987"></path><path d="M 81.720997 27.265987L 73.774997 9.999987L 57.197997 19.297987L 64.022997 21.515987L 55.930997 46.419987C 38.758997 43.719987 21.686997 53.811987 16.143997 70.870987C 9.999997 89.779987 20.347997 110.089987 39.256997 116.233987C 58.165997 122.377987 78.475997 112.028987 84.619997 93.119987C 90.154997 76.084987 82.303997 57.912987 66.867997 49.985987L 74.962997 25.070987L 81.720997 27.265987Z"></path></g></g></g><g id="g-root-5.Vector_sy_quo4ps1rkxu6n-stroke" data-item-order="-163316" data-item-id="5.Vector_sy_quo4ps1rkxu6n" data-item-class="ScenePart Part Indexed Fill Stroke" data-item-index="5" data-renderer-id="0" transform="translate(290.134033203125, 293.78204345703125)"><g id="5.Vector_sy_quo4ps1rkxu6n-stroke" fill="none" stroke-linecap="round" stroke-linejoin="round" stroke-miterlimit="4" stroke="#484848" stroke-width="4"><g><path d="M 42.965997 19.317987C 37.365997 16.217987 31.865997 13.217987 26.365997 10.017987C 23.965997 15.817987 21.065997 21.517987 18.465997 27.217987C 20.765997 26.517987 23.365997 26.417987 25.265997 25.017987C 28.065997 33.317987 32.265997 41.317987 33.365997 49.917987C 17.365997 56.717987 10.765997 75.817987 15.565997 93.117987C 20.865997 112.317987 42.565997 124.017987 60.865997 116.217987C 79.265997 108.517987 90.165997 89.817987 84.065997 70.917987C 78.465997 53.817987 61.365997 43.417987 44.265997 46.417987C 42.365997 37.917987 38.565997 29.917987 36.165997 21.517987C 38.465997 20.717987 40.665997 20.017987 42.965997 19.317987"></path><path d="M 42.964997 19.297987L 26.387997 9.999987L 18.441997 27.265987L 25.266997 25.048987L 33.358997 49.952987C 17.879997 57.861987 9.999997 76.060987 15.542997 93.119987C 21.686997 112.028987 41.995997 122.377987 60.905997 116.233987C 79.814997 110.089987 90.162997 89.779987 84.018997 70.870987C 78.483997 53.835987 61.450997 43.748987 44.303997 46.408987L 36.207997 21.493987L 42.964997 19.297987Z"></path></g></g></g><g id="g-root-4.Vector_sy_quo4ps1rkxu6m-stroke" data-item-order="-163314" data-item-id="4.Vector_sy_quo4ps1rkxu6m" data-item-class="ScenePart Part Indexed Fill Stroke" data-item-index="4" data-renderer-id="0" transform="translate(352.6719970703125, 258.031005859375)"><g id="4.Vector_sy_quo4ps1rkxu6m-stroke" fill="none" stroke-linecap="round" stroke-linejoin="round" stroke-miterlimit="4" stroke="#484848" stroke-width="4"><g><path d="M 28.828003 9.968994C 22.528003 10.068994 16.328003 11.568994 10.028003 12.268994C 12.328003 18.068994 12.728003 24.568994 13.728003 30.868994C 15.428003 29.168994 16.128003 26.568994 17.928003 25.068994C 25.628003 29.268994 32.428003 34.868994 39.128003 40.468994C 31.228003 55.968994 36.228003 74.468994 50.128003 85.868994C 65.428003 98.468994 89.128003 94.268994 100.328003 77.868994C 111.628003 61.468994 108.628003 39.068994 92.428003 27.568994C 77.728003 17.268994 58.128003 18.868994 45.928003 31.168994C 39.128003 25.568994 31.328003 21.368994 24.728003 15.768994C 26.128003 13.868994 27.828003 12.068994 28.828003 9.968994"></path><path d="M 28.876003 9.999994L 10.000003 12.220994L 13.720003 30.859994L 17.938003 25.053994L 39.123003 40.445994C 31.249003 55.942994 35.571003 75.297994 50.082003 85.841994C 66.167003 97.527994 88.681003 93.961994 100.367003 77.876994C 112.054003 61.791994 108.488003 39.278994 92.403003 27.591994C 77.912003 17.063994 58.203003 18.914994 45.894003 31.145994L 24.700003 15.747994L 28.876003 9.999994Z"></path></g></g></g><g id="g-root-3.Vector_sy_quo4ps1rkxu6l-stroke" data-item-order="-163312" data-item-id="3.Vector_sy_quo4ps1rkxu6l" data-item-class="ScenePart Part Indexed Fill Stroke" data-item-index="3" data-renderer-id="0" transform="translate(370.29901123046875, 170)"><g id="3.Vector_sy_quo4ps1rkxu6l-stroke" fill="none" stroke-linecap="round" stroke-linejoin="round" stroke-miterlimit="4" stroke="#484848" stroke-width="4"><g><path d="M 24.000989 33.1C 19.500989 37.6 14.200989 41.3 10.000989 46C 13.900989 51 20.100989 53.9 24.000989 58.9C 24.500989 56.6 24.400989 54.1 24.000989 51.7C 32.600989 53.2 41.600989 50.3 50.200989 51.7C 53.100989 68.8 67.800989 83.1 85.700989 82C 105.500989 80.8 123.200989 65.8 121.700989 46C 120.200989 26.2 105.600989 9.9 85.700989 10C 67.800989 10.1 53.200989 23.1 50.200989 40.2C 41.500989 40.8 32.700989 40.5 24.000989 40.2C 23.500989 37.9 24.600989 35.4 24.000989 33.1"></path><path d="M 23.965989 33.107L 9.999989 46L 23.965989 58.892L 23.965989 51.716L 50.151989 51.716C 52.890989 68.882 67.763989 82 85.700989 82C 105.582989 82 121.700989 65.882 121.700989 46C 121.700989 26.118 105.582989 10 85.700989 10C 67.788989 10 52.931989 23.082 50.163989 40.212L 23.965989 40.212L 23.965989 33.107Z"></path></g></g></g><g id="g-root-2.Vector_sy_zqb4yo1rkxtdw-stroke" data-item-order="-163310" data-item-id="2.Vector_sy_zqb4yo1rkxtdw" data-item-class="ScenePart Part Indexed Fill Stroke" data-item-index="2" data-renderer-id="0" transform="translate(352.6719970703125, 66.4410400390625)"><g id="2.Vector_sy_zqb4yo1rkxtdw-stroke" fill="none" stroke-linecap="round" stroke-linejoin="round" stroke-miterlimit="4" stroke="#484848" stroke-width="4"><g><path d="M 13.728003 76.659006C 10.928003 82.359006 11.928003 89.259006 10.028003 95.259006C 16.328003 96.059006 22.528003 98.159006 28.828003 97.559006C 27.928003 95.359006 26.128003 93.659006 24.628003 91.759006C 32.328003 87.559006 38.128003 80.359006 45.828003 76.359006C 58.028003 88.659006 79.028003 91.859006 92.428003 79.959006C 107.228003 66.759006 111.528003 46.159006 100.328003 29.659006C 89.228003 13.159006 66.128003 9.859006 50.128003 21.659006C 35.628003 32.359006 32.428003 50.959006 39.128003 67.059006C 32.128003 72.359006 24.828003 77.159006 17.928003 82.459006C 16.828003 80.359006 14.828003 78.759006 13.728003 76.659006"></path><path d="M 13.720003 76.668006L 10.000003 95.307006L 28.876003 97.528006L 24.658003 91.722006L 45.843003 76.330006C 58.148003 88.608006 77.891003 90.479006 92.403003 79.936006C 108.488003 68.249006 112.054003 45.736006 100.367003 29.651006C 88.681003 13.566006 66.167003 10.000006 50.082003 21.686006C 35.591003 32.215006 31.261003 51.531006 39.091003 67.017006L 17.896003 82.416006L 13.720003 76.668006Z"></path></g></g></g><g id="g-root-1.Vector_sy_zqb4yo1rkxtdv-stroke" data-item-order="-163308" data-item-id="1.Vector_sy_zqb4yo1rkxtdv" data-item-class="ScenePart Part Indexed Indexed_1 Fill Stroke" data-item-index="1" data-renderer-id="0" transform="translate(290.1419677734375, 5.841033935546875)"><g id="1.Vector_sy_zqb4yo1rkxtdv-stroke" fill="none" stroke-linecap="round" stroke-linejoin="round" stroke-miterlimit="4" stroke="#484848" stroke-width="4"><g><path d="M 18.458002 105.158997C 20.358002 111.158997 24.558002 116.258997 26.358002 122.358997C 32.358002 120.258997 37.258002 115.958997 42.958002 113.058997C 40.658002 112.458997 38.158002 112.158997 36.158002 110.858997C 40.458002 103.258997 41.658002 94.258997 44.258002 85.958997C 61.358002 88.558997 76.858002 77.958997 84.058002 61.458997C 91.958002 43.258997 79.258002 23.658997 60.858002 16.158997C 42.458002 8.558997 22.458002 20.658997 15.558002 39.258997C 9.258002 56.058997 18.758002 72.958997 33.258002 82.358997C 29.058002 90.058997 28.258002 99.158997 25.158002 107.258997C 23.058002 106.258997 20.758002 105.558997 18.458002 105.158997"></path><path d="M 18.434002 105.110997L 26.380002 122.376997L 42.957002 113.078997L 36.132002 110.860997L 44.224002 85.956997C 61.396002 88.656997 78.468002 78.564997 84.011002 61.505997C 90.155002 42.596997 79.806002 22.287997 60.897002 16.143997C 41.988002 9.999997 21.679002 20.347997 15.535002 39.256997C 10.000002 56.291997 17.850002 74.463997 33.287002 82.390997L 25.191002 107.306997L 18.434002 105.110997Z"></path></g></g></g><g id="g-root-0.cr-big_cr_145i6001rkxvre-stroke" data-item-order="-163306" data-item-id="0.cr-big_cr_145i6001rkxvre" data-item-class="Shape Stroke Fill ScenePart Part Indexed_0 ColorFillGray" data-item-index="0" data-renderer-id="0" transform="translate(206, 133.99603271484375)"><g id="0.cr-big_cr_145i6001rkxvre-stroke" fill="none" stroke-linecap="round" stroke-linejoin="round" stroke-miterlimit="4" stroke="#484848" stroke-width="4"><g><path d="M 10 82C 10.1 102.5 19 120.6 32.3 134.1C 44.8 146.9 62.8 152.2 82 154C 95.1 155.3 108 151.2 118.2 144.3C 128.1 137.6 137.5 129.9 143.5 119.5C 149.9 108.4 153.3 95.7 154 82C 155.9 42.3 121.8 9.3 82 10C 69.9 10.2 58.6 12.9 48.6 18.2C 37.5 24.1 27.8 32.6 21.3 43.3C 14.4 54.6 10.9 67.8 10 82"></path><path d="M 10 82C 10.000001 121.764503 42.235499 154.000001 82.000001 154.000001C 121.764503 154.000001 154.000001 121.764503 154.000001 82.000001C 154.000001 42.235499 121.764503 10.000001 82.000001 10.000001C 42.235499 10.000001 10.000001 42.235499 10.000001 82.000001"></path></g></g></g><g id="g-root-tx_restfula_18gbvfk1rkz9qm-stroke" data-item-order="0" data-item-id="tx_restfula_18gbvfk1rkz9qm" data-item-class="Label Stroke SceneTarget Indexed" data-item-index="2" data-renderer-id="0" transform="translate(458, 98)"></g><g id="g-root-tx_fastapi_1hiu3mo1rkxt73-stroke" data-item-order="0" data-item-id="tx_fastapi_1hiu3mo1rkxt73" data-item-class="Label Stroke SceneTarget Indexed" data-item-index="9" data-renderer-id="0" transform="translate(14, 98)"></g><g id="g-root-6_qwjjz41rl22v5-stroke" data-item-order="0" data-item-id="6_qwjjz41rl22v5" data-item-class="Icon Stroke SceneTarget Indexed InsideFill" data-item-index="2" data-renderer-id="0" transform="translate(389.9150390625, 83.25201416015625)"><g id="6_qwjjz41rl22v5-stroke" fill="none" stroke-linecap="round" stroke-linejoin="round" stroke-miterlimit="4" stroke="#484848" stroke-width="2"><g><path d="M 15.142854 11.714285C 27.82856 11.371428 40.514267 10 52.857117 11.714285C 52.857117 11.714285 55.257114 11.714285 56.285686 15.142854C 59.371395 27.142847 55.942829 40.17141 56.285686 52.857117C 56.285686 52.857117 56.285686 56.971397 52.857117 56.285686C 40.514267 54.228542 26.79999 61.085682 15.142854 56.285686C 15.142854 56.285686 11.371428 56.285686 11.714285 52.857117C 12.742855 40.17141 11.371428 27.82856 11.714285 15.142854C 11.714285 15.142854 11.714285 10.685714 15.142854 11.714285M 11.714285 21.999992C 26.457134 21.999992 41.885696 26.114275 56.285686 21.999992M 25.428562 21.999992C 21.657137 32.971413 26.79999 44.971405 25.428562 56.285686M 42.571407 21.999992C 41.199982 33.314274 44.971405 45.314266 42.571407 56.285686"></path><path d="M 15.142854 11.714285L 52.857117 11.714285C 52.857117 11.714285 56.285686 11.714285 56.285686 15.142854L 56.285686 52.857117C 56.285686 52.857117 56.285686 56.285686 52.857117 56.285686L 15.142854 56.285686C 15.142854 56.285686 11.714285 56.285686 11.714285 52.857117L 11.714285 15.142854C 11.714285 15.142854 11.714285 11.714285 15.142854 11.714285M 11.714285 21.999992L 56.285686 21.999992M 25.428562 21.999992L 25.428562 56.285686M 42.571407 21.999992L 42.571407 56.285686"></path></g></g></g><g id="g-root-micr_mdlof41rl22gw-stroke" data-item-order="0" data-item-id="micr_mdlof41rl22gw" data-item-class="Icon Stroke SceneTarget SceneEnd InsideFill InsideGrayFill ColorFillGray" data-item-index="none" data-renderer-id="0" transform="translate(242, 169.99603271484375)"><g id="micr_mdlof41rl22gw-stroke" fill="none" stroke-linecap="round" stroke-linejoin="round" stroke-miterlimit="4" stroke="#484848" stroke-width="2"><g><path d="M 63.100002 33.400002C 63.699997 31 61 28.299999 58.600002 28.900002M 71.800003 33.400002C 71.5 26.200001 65.199997 23.200001 58.600002 20.200001M 71.800003 33.400002C 72.399994 26.200001 65.5 19 58.600002 20.200001M 80.5 33.700001C 80.199997 21.700001 70.300003 11.5 58.300003 11.5M 80.5 33.700001C 79.300003 21.700001 70.300003 12.1 58.300003 11.5M 23.5 35.5C 33.400002 34 43.599998 36.099998 53.5 35.5C 53.5 35.5 56.800003 35.5 56.5 38.5C 55 48.400002 55.300003 58.600002 56.5 68.5C 56.5 68.5 56.5 71.800003 53.5 71.5C 43.599998 70.600006 33.400002 72.100006 23.5 71.5C 23.5 71.5 20.5 71.5 20.5 68.5C 20.200001 58.600002 22 48.400002 20.5 38.5C 20.5 38.5 20.5 34.599998 23.5 35.5M 38.5 71.5C 38.800003 74.5 38.800003 77.5 38.5 80.5M 50.5 71.5C 49.900002 74.5 50.5 77.5 50.5 80.5M 50.5 26.5C 49.599998 29.200001 50.199997 32.5 50.5 35.5M 38.5 26.5C 38.5 29.5 38.199997 32.5 38.5 35.5M 26.5 71.5C 25.599998 74.5 27.700001 77.800003 26.5 80.5M 26.5 26.5C 26.200001 29.5 25.900002 32.5 26.5 35.5M 56.5 65.5C 59.5 65.5 62.5 65.5 65.5 65.5M 20.5 53.5C 17.5 53.199997 14.5 52.599998 11.5 53.5M 65.5 53.5C 62.5 53.199997 59.5 53.800003 56.5 53.5M 20.5 41.5C 17.799999 42.699997 14.5 42.400002 11.5 41.5M 20.5 65.5C 17.5 65.800003 14.5 66.399994 11.5 65.5M 32.5 41.5C 36.400002 41.5 40.599998 40.300003 44.5 41.5C 44.5 41.5 48.699997 41.800003 50.5 47.5C 51.699997 51.400002 51.400002 55.599998 50.5 59.5C 50.5 59.5 50.5 65.800003 44.5 65.5C 40.599998 65.199997 36.400002 65.199997 32.5 65.5C 32.5 65.5 28.299999 65.199997 26.5 59.5C 25.299999 55.599998 27.400002 51.400002 26.5 47.5C 26.5 47.5 26.5 41.800003 32.5 41.5"></path><path d="M 63.100002 33.357998C 63.032486 30.932716 61.082291 28.982517 58.656998 28.915001M 71.800003 33.528999C 71.59745 26.258114 65.750885 20.411543 58.48 20.209M 71.800003 33.528999C 71.59745 26.258114 65.750885 20.411543 58.48 20.209M 80.5 33.700001C 80.159454 21.583141 70.416855 11.840548 58.300003 11.5M 80.5 33.700001C 80.159454 21.583141 70.416855 11.840548 58.300003 11.5M 23.5 35.5L 53.5 35.5C 53.5 35.5 56.5 35.5 56.5 38.5L 56.5 68.5C 56.5 68.5 56.5 71.5 53.5 71.5L 23.5 71.5C 23.5 71.5 20.5 71.5 20.5 68.5L 20.5 38.5C 20.5 38.5 20.5 35.5 23.5 35.5M 38.5 71.5L 38.5 80.5M 50.5 71.5L 50.5 80.5M 50.5 26.5L 50.5 35.5M 38.5 26.5L 38.5 35.5M 26.5 71.5L 26.5 80.5M 26.5 26.5L 26.5 35.5M 56.5 65.5L 65.5 65.5M 20.5 53.5L 11.5 53.5M 65.5 53.5L 56.5 53.5M 20.5 41.5L 11.5 41.5M 20.5 65.5L 11.5 65.5M 32.5 41.5L 44.5 41.5C 44.5 41.5 50.5 41.5 50.5 47.5L 50.5 59.5C 50.5 59.5 50.5 65.5 44.5 65.5L 32.5 65.5C 32.5 65.5 26.5 65.5 26.5 59.5L 26.5 47.5C 26.5 47.5 26.5 41.5 32.5 41.5"></path></g></g></g><g id="g-root-tx_flask_zrk34w1rkxvk8-stroke" data-item-order="0" data-item-id="tx_flask_zrk34w1rkxvk8" data-item-class="Label Stroke SceneTarget Indexed" data-item-index="8" data-renderer-id="0" transform="translate(2, 194)"></g><g id="g-root-elix_9025c1rl20oz-stroke" data-item-order="0" data-item-id="elix_9025c1rl20oz" data-item-class="Icon Stroke SceneTarget Indexed InsideFill" data-item-index="8" data-renderer-id="0" transform="translate(86, 182)"><g id="elix_9025c1rl20oz-stroke" fill="none" stroke-linecap="round" stroke-linejoin="round" stroke-miterlimit="4" stroke="#484848" stroke-width="2"><g><path d="M 18.799999 40.599998C 19.200001 29.4 27.200001 14.4 34.200001 11.4C 34.599998 11.2 34.799999 11 35.400002 11C 35.599998 11 35.799999 11.2 36.200001 11.4C 36.400002 11.6 36.400002 12 36.400002 12.4C 35.599998 16.200001 37.200001 19.799999 38.599998 23.4C 41 30.4 46.799999 35 49.200001 42.200001C 50.200001 46 47.200001 49.400002 45.200001 52.599998C 43 56 38.599998 56.599998 34.799999 57C 25.799999 57.799999 16.799999 51.200001 18.799999 40.599998M 24.4 46.200001C 23.4 37.599998 26.200001 25.200001 30.4 21C 30.6 20.799999 30.799999 20.6 31.200001 20.6C 31.4 20.6 31.799999 20.4 31.799999 20.6C 32 20.799999 32.200001 21 32.200001 21.4C 32.400002 24.4 33.799999 27.200001 36 29.4C 40.400002 33.200001 45 36.200001 47.799999 41.400002C 48.200001 44.400002 48.599998 47.599998 46.799999 50C 44.799999 52.400002 42.400002 54 39.799999 55.400002C 32.799999 57 23.799999 54.599998 24.4 46.200001M 30.6 46.400002C 32.200001 48.599998 33.799999 50.799999 36.400002 50.400002C 36.599998 50.400002 36.799999 50.400002 37 50.400002C 37.799999 50.400002 38.599998 49.799999 38.799999 49C 39 48.200001 38.799999 47.200001 38.200001 47C 35.599998 45.799999 33.400002 46 30.6 46.400002"></path><path d="M 18.720001 40.5C 18.720001 29.440001 27.74 15.3 34.139999 11.34C 34.493088 11.116962 34.902367 10.999035 35.32 11C 35.645382 11.002531 35.952946 11.14899 36.160004 11.4C 36.362259 11.65298 36.442749 11.982242 36.380001 12.3C 35.618237 16.161943 36.400902 20.168617 38.559998 23.459999C 42.560001 29.66 49.279999 34.639999 49.279999 42.18C 49.37759 46.094433 47.883507 49.881088 45.139339 52.674263C 42.395168 55.467434 38.635544 57.028297 34.720001 57.000004C 25.720001 57 18.720001 51.34 18.720001 40.5ZM 24.34 46.16C 22.18 37.779999 26.219999 25.299999 30.34 21.040001C 30.562841 20.806179 30.847019 20.639832 31.16 20.559999C 31.405552 20.485085 31.672018 20.529497 31.880001 20.68C 32.08007 20.837196 32.209553 21.067389 32.239998 21.32C 32.424072 24.386353 33.802658 27.258415 36.080002 29.32C 40.379997 33.220001 46.400002 35.68 47.880001 41.32C 48.701172 44.251915 48.304428 47.391151 46.779644 50.026581C 45.25486 52.66201 42.731075 54.570599 39.779999 55.32C 32.900002 57.279999 26.48 54.380001 24.34 46.16ZM 30.66 46.439999C 31.419762 48.930206 33.780289 50.580921 36.379997 50.439999L 37.059998 50.439999C 37.858047 50.366177 38.534958 49.823074 38.779999 49.060001C 39.017685 48.292946 38.773533 47.458115 38.16 46.939999C 36.019379 45.20348 33.019783 44.995506 30.66 46.419998Z"></path></g></g></g><g id="g-root-3_4o736o1rl232i-stroke" data-item-order="0" data-item-id="3_4o736o1rl232i" data-item-class="Icon Stroke SceneTarget Indexed InsideFill" data-item-index="9" data-renderer-id="0" transform="translate(118.08502197265625, 83.25201416015625)"><g id="3_4o736o1rl232i-stroke" fill="none" stroke-linecap="round" stroke-linejoin="round" stroke-miterlimit="4" stroke="#484848" stroke-width="2"><g><path d="M 53.999989 11C 54.599987 11 54.999985 11.4 54.999985 11.999999C 53.799988 19.599997 55.599983 27.399994 54.999985 34.999992C 53.999989 47.199989 44.799988 60.199986 32.999992 56.999985C 21.199997 53.799988 12.999999 46.999989 11 34.999992C 9.8 27.399994 11.2 19.599997 11 11.999999C 11 11.4 11.4 11.2 11.999999 11C 16.999998 9 22.799995 11.799999 27.999994 11C 28.599995 11 28.999994 11.4 28.999994 11.999999C 29.599995 17.399998 27.199995 22.999996 28.999994 27.999994C 29.199995 28.599995 28.799994 28.599995 28.199995 28.199995C 26.799994 27.399994 25.399996 26.199995 24.799995 24.799995C 24.599997 24.399996 24.199995 24.399996 23.999996 24.399996C 23.799995 24.399996 23.599997 24.599997 23.199995 24.799995C 22.199997 25.399996 21.399996 26.199995 20.799997 27.199995C 20.399996 27.799994 20.199997 28.399994 20.799997 28.599995C 24.999996 32.199993 28.999994 35.999992 32.199993 40.199993C 32.599995 40.599991 33.399994 40.599991 33.599995 40.199993C 37.199993 36.199993 41.39999 32.599995 45.199989 28.599995C 45.599987 28.399994 45.599987 27.799994 45.199989 27.199995C 44.799988 26.199995 43.39999 25.799995 42.799988 24.799995C 42.599987 24.399996 42.199989 24.599997 41.999992 24.399996C 41.799992 24.399996 41.39999 24.599997 41.199993 24.799995C 40.199993 25.799995 38.999992 27.199995 37.799992 28.199995C 37.199993 28.599995 36.799992 28.599995 36.999992 27.999994C 38.999992 22.999996 37.599991 17.399998 36.999992 11.999999C 36.999992 11.4 37.39999 11 37.999992 11C 43.39999 11.2 48.599987 11 53.999989 11"></path><path d="M 53.999989 11C 54.552273 11 54.999985 11.447715 54.999985 11.999999L 54.999985 34.999992C 54.999985 47.150253 45.150253 56.999985 32.999992 56.999985L 32.999992 56.999985C 20.849731 56.999985 10.999999 47.150253 11 34.999992L 11 11.999999C 11 11.447715 11.447715 11 11.999999 11L 27.999994 11C 28.552279 11 28.999994 11.447715 28.999994 11.999999L 28.999994 27.999994C 28.999994 28.549994 28.681993 28.681993 28.291994 28.291994L 24.699995 24.701996C 24.512386 24.513912 24.25765 24.408209 23.991995 24.408209C 23.726341 24.408209 23.471603 24.513912 23.283997 24.701996L 20.707996 27.279995C 20.317616 27.670494 20.317616 28.303493 20.707996 28.693995L 32.267994 40.257992C 32.658493 40.648373 33.291492 40.648373 33.681992 40.257992L 45.293987 28.691994C 45.684372 28.301495 45.684372 27.668493 45.293987 27.277994L 42.713989 24.701996C 42.526379 24.513912 42.271645 24.408209 42.005989 24.408209C 41.740337 24.408209 41.4856 24.513912 41.297993 24.701996L 37.707993 28.287994C 37.317993 28.687994 36.999992 28.545994 36.999992 27.995995L 36.999992 11.999999C 36.999992 11.447715 37.447708 11 37.999992 11Z"></path></g></g></g><g id="g-root-http_vcd23k1rl222w-stroke" data-item-order="0" data-item-id="http_vcd23k1rl222w" data-item-class="Icon Stroke SceneTarget Indexed InsideFill" data-item-index="3" data-renderer-id="0" transform="translate(422, 182)"><g id="http_vcd23k1rl222w-stroke" fill="none" stroke-linecap="round" stroke-linejoin="round" stroke-miterlimit="4" stroke="#484848" stroke-width="2"><g><path d="M 15 16C 27.4 13.6 40.400002 16.200001 53 16C 53 16 56.599998 16 57 20C 58 29.200001 56.400002 38.599998 57 48C 57 48 56.799999 50.799999 53 52C 40.799999 55.799999 27.6 51 15 52C 15 52 9.8 51.799999 11 48C 13.8 39 11.4 29.4 11 20C 11 20 11 16 15 16M 11 26C 26.4 25.200001 41.799999 28.4 57 26M 18 20.6C 18.200001 20.4 18.4 20.799999 18.6 21C 18.6 21.200001 18.200001 21.6 18 21.6C 17.799999 21.4 17.4 21.200001 17.6 21C 17.6 20.799999 17.799999 20.6 18 20.6M 24 20.6C 24.200001 20.4 24.6 20.799999 24.6 21C 24.6 21.200001 24.200001 21.6 24 21.6C 23.799999 21.6 23.6 21.200001 23.6 21C 23.4 20.799999 23.799999 20.6 24 20.6M 30 20.6C 30.200001 20.4 30.6 20.799999 30.6 21C 30.4 21.200001 30.200001 21.6 30 21.6C 29.799999 21.6 29.4 21.200001 29.6 21C 29.6 20.799999 29.799999 20.4 30 20.6M 29 44C 28.799999 40.599998 28.6 37.400002 29 34M 27 34C 28.4 34.200001 29.799999 34.400002 31 34M 37 44C 36.400002 40.799999 36.200001 37.200001 37 34M 35 34C 36.200001 34.599998 37.799999 34.400002 39 34M 19 44C 18.6 40.599998 19.200001 37.400002 19 34M 23 44C 23 40.599998 23.6 37.200001 23 34M 19 40C 20.4 39.799999 21.799999 40.400002 23 40M 43 44C 44 40.799999 42.799999 37.400002 43 34M 43 34C 43.400002 34 43.799999 34.200001 44 34C 45.599998 33.400002 46.599998 35.400002 47 37C 47.400002 38.599998 45.599998 40.200001 44 40C 43.599998 40 43.400002 40 43 40"></path><path d="M 15 16L 53 16C 53 16 57 16 57 20L 57 48C 57 48 57 52 53 52L 15 52C 15 52 11 52 11 48L 11 20C 11 20 11 16 15 16M 11 26L 57 26M 18 20.5C 18.276142 20.5 18.5 20.723858 18.5 21C 18.5 21.276142 18.276142 21.5 18 21.5C 17.723858 21.5 17.5 21.276142 17.5 21C 17.5 20.723858 17.723858 20.5 18 20.5M 24 20.5C 24.276142 20.5 24.5 20.723858 24.5 21C 24.5 21.276142 24.276142 21.5 24 21.5C 23.723858 21.5 23.5 21.276142 23.5 21C 23.5 20.723858 23.723858 20.5 24 20.5M 30 20.5C 30.276142 20.5 30.5 20.723858 30.5 21C 30.5 21.276142 30.276142 21.5 30 21.5C 29.723858 21.5 29.5 21.276142 29.5 21C 29.5 20.723858 29.723858 20.5 30 20.5M 29 44L 29 34M 27 34L 31 34M 37 44L 37 34M 35 34L 39 34M 19 44L 19 34M 23 44L 23 34M 19 40L 23 40M 43 44L 43 34M 43 34L 44 34C 45.656857 34 47 35.343147 47 37C 47 38.656853 45.656857 40 44 40L 43 40"></path></g></g></g><g id="g-root-tx_httprequ_1id401rkz9xp-stroke" data-item-order="0" data-item-id="tx_httprequ_1id401rkz9xp" data-item-class="Label Stroke SceneTarget Indexed" data-item-index="3" data-renderer-id="0" transform="translate(494, 194)"></g><g id="g-root-tx_pythonsr_959jhc1rkxvk9-stroke" data-item-order="0" data-item-id="tx_pythonsr_959jhc1rkxvk9" data-item-class="Label Stroke SceneTarget Indexed" data-item-index="7" data-renderer-id="0" transform="translate(2, 266)"></g><g id="g-root-hori_dbpxb41rl3fuq-stroke" data-item-order="0" data-item-id="hori_dbpxb41rl3fuq" data-item-class="Icon Stroke SceneTarget Indexed Indexed_1 InsideFill" data-item-index="1" data-renderer-id="0" transform="translate(305.9150390625, 22.2230224609375)"><g id="hori_dbpxb41rl3fuq-stroke" fill="none" stroke-linecap="round" stroke-linejoin="round" stroke-miterlimit="4" stroke="#484848" stroke-width="2"><g><path d="M 49 17.6C 48.599998 17.4 48 17.200001 47.599998 17C 39.200001 14 29.799999 17.799999 21 17C 20 16.799999 19.200001 18 19 19C 17.799999 27 18.4 35 19 43C 19 44.200001 20 44.599998 21 45C 31.200001 48 42.400002 45.400002 53 45C 54.200001 45 55.200001 44 55 43C 53.599998 37 54.200001 30.6 55 24.4C 55 23.799999 54.599998 23.4 54.400002 23C 53.200001 20.799999 50.200001 19.799999 49 17.6M 19 23C 17.6 22.6 16.200001 23.4 15 23C 14 22.799999 12.8 24 13 25C 14.4 32.799999 11.6 41.200001 13 49C 13.2 50 14 51 15 51C 25.6 51.599998 36.599998 49 47 51C 48 51.200001 48.599998 50 49 49C 49.400002 47.799999 48.599998 46.200001 49 45"></path><path d="M 49 17.586C 48.625015 17.210901 48.11639 17.000114 47.585999 17L 21 17C 19.895432 17 19 17.895432 19 19L 19 43C 19 44.104568 19.895432 45 21 45L 53 45C 54.104568 45 55 44.104568 55 43L 55 24.414C 54.999886 23.88361 54.789101 23.374985 54.414001 23ZM 19 23L 15 23C 13.895431 23 13 23.895432 13 25L 13 49C 13 50.104568 13.895431 51 15 51L 47 51C 48.104568 51 49 50.104568 49 49L 49 45"></path></g></g></g><g id="g-root-fold_qvalsw1rl20ox-stroke" data-item-order="0" data-item-id="fold_qvalsw1rl20ox" data-item-class="Icon Stroke SceneTarget Indexed InsideFill" data-item-index="10" data-renderer-id="0" transform="translate(202.08499145507812, 22.2230224609375)"><g id="fold_qvalsw1rl20ox-stroke" fill="none" stroke-linecap="round" stroke-linejoin="round" stroke-miterlimit="4" stroke="#484848" stroke-width="2"><g><path d="M 51 37.799999C 54.200001 36.400002 56 33.200001 56 29.799999C 55 27.4 54.599998 25 53 23C 51.400002 21 48.400002 19.4 46 20.4C 43.599998 16 39 12 34 13C 27 13.6 21 18.200001 20.6 25.200001C 18.6 25.4 16.6 25.6 14.8 26.6C 12.8 27.6 12.4 30 12 32C 12 35.200001 14.4 37 17 38.599998M 44 39C 40.799999 40.200001 37.400002 39.200001 34 39C 33.400002 39 32.799999 38.599998 32.400002 38.200001C 31.6 37.599998 31.4 36.400002 30.6 35.799999C 30 35.400002 29.6 35 29 35C 27.4 34.799999 25.6 35.599998 24 35C 23 34.599998 22.4 36 22 37C 20 42 20.6 47.799999 22 53C 22.200001 54 23 54.799999 24 55C 30.6 56.400002 37.599998 56.599998 44 55C 45 54.799999 45.599998 54 46 53C 47.400002 49.200001 46 45 46 41C 46 39.799999 45 39 44 39"></path><path d="M 51 37.812C 54.14045 36.360321 56.10902 33.17202 55.999996 29.713999C 55.962135 27.155087 54.884983 24.721664 53.01619 22.973211C 51.1474 21.224758 48.64777 20.311714 46.091999 20.444C 43.813187 15.857494 39.121334 12.969126 34 13C 27.021046 12.90637 21.1735 18.258078 20.65 25.217999C 18.566479 24.759911 16.387331 25.259914 14.711922 26.580486C 13.036512 27.901056 12.041294 29.903114 12 32.035999C 11.833682 35.153412 13.95041 37.932251 17 38.600002M 44 39L 34 39C 33.370483 39 32.77771 38.703613 32.400002 38.200001L 30.6 35.799999C 30.222292 35.296387 29.629515 35 29 35L 24 35C 22.895432 35 22 35.895432 22 37L 22 53C 22 54.104568 22.895432 55 24 55L 44 55C 45.104568 55 46 54.104568 46 53L 46 41C 46 39.895432 45.104568 39 44 39Z"></path></g></g></g><g id="g-root-pych_1qeh3vk1rl21ak-stroke" data-item-order="0" data-item-id="pych_1qeh3vk1rl21ak" data-item-class="Icon Stroke SceneTarget Indexed InsideFill" data-item-index="7" data-renderer-id="0" transform="translate(118.08502197265625, 280.748046875)"><g id="pych_1qeh3vk1rl21ak-stroke" fill="none" stroke-linecap="round" stroke-linejoin="round" stroke-miterlimit="4" stroke="#484848" stroke-width="2"><g><path d="M 11 11C 26.199995 12.2 41.799992 9 56.999985 11C 57.399986 26.399994 57.599983 41.599991 56.999985 56.999985C 41.599991 56.999985 25.999996 60.199986 11 56.999985C 10.2 41.599991 9.8 26.199995 11 11M 15.999998 49.999989C 21.199997 49.199989 26.799994 50.599987 31.999994 49.999989M 16.999998 34.999992C 17.399998 29.399994 16.599998 23.599997 16.999998 17.999998M 27.999994 22.999996C 27.599995 25.799995 25.599997 28.999994 22.999996 27.999994C 21.199997 27.199995 18.999998 27.999994 16.999998 27.999994C 17.599998 24.799995 15.999998 21.199997 16.999998 17.999998C 18.999998 18.599998 20.999996 17.799997 22.999996 17.999998C 25.799995 18.199997 28.799994 20.399996 27.999994 22.999996M 48.599987 20.399996C 47.599987 18.399998 44.799988 17.999998 42.599987 17.999998C 37.799992 17.999998 32.599995 21.999996 33.999992 26.599995C 35.399994 30.999994 37.799992 34.599995 42.599987 34.999992C 44.799988 35.199993 46.599987 33.599995 48.599987 32.599995"></path><path d="M 11 11L 56.999985 11L 56.999985 56.999985L 11 56.999985ZM 15.999998 49.999989L 31.999994 49.999989M 16.999998 34.999992L 16.999998 17.999998M 27.999994 22.999996C 27.999994 25.761419 25.761419 27.999994 22.999996 27.999994L 16.999998 27.999994L 16.999998 17.999998L 22.999996 17.999998C 25.761419 17.999998 27.999994 20.238573 27.999994 22.999996ZM 48.519989 20.479996C 46.922028 18.899351 44.76762 18.008862 42.519989 17.999998C 37.825573 17.999998 34.019993 21.805576 34.019993 26.499994C 34.019993 31.194414 37.825573 34.999992 42.519989 34.999992C 44.76762 34.991127 46.922028 34.100639 48.519989 32.519993"></path></g></g></g><g id="g-root-serv_zs6k801rl21an-stroke" data-item-order="0" data-item-id="serv_zs6k801rl21an" data-item-class="Icon Stroke SceneTarget Indexed InsideFill" data-item-index="4" data-renderer-id="0" transform="translate(389.9150390625, 280.748046875)"><g id="serv_zs6k801rl21an-stroke" fill="none" stroke-linecap="round" stroke-linejoin="round" stroke-miterlimit="4" stroke="#484848" stroke-width="2"><g><path d="M 50.999973 23.799992C 50.799973 21.799992 50.399975 19.599995 48.599972 18.599995C 46.999977 17.599995 45.199978 16.199995 43.399979 16.799995C 41.599979 13.199998 37.79998 10 33.999985 10.999999C 28.799988 10.2 22.399992 15.199996 23.599991 20.399992C 22.199991 19.599995 20.399992 20.399992 19.199993 21.399992C 17.799995 22.399992 16.599995 23.99999 16.999996 25.599991C 17.599995 30.999987 22.999992 30.999987 22.999992 30.999987C 29.799986 32.799984 37.199982 30.399986 44.399979 30.999987C 44.399979 30.999987 51.999973 29.999987 50.999973 23.799992M 23.599991 51.399975C 23.199991 51.599972 22.999992 51.799973 22.999992 51.999973C 22.999992 52.199974 23.199991 52.599972 23.39999 52.399975C 23.799992 52.399975 23.99999 52.199974 23.99999 51.999973M 28.599989 51.399975C 28.199989 51.399975 27.999989 51.799973 27.999989 51.999973C 27.999989 52.199974 28.199989 52.599972 28.399988 52.399975C 28.799988 52.399975 28.999987 52.199974 28.999987 51.999973M 50.999973 53.999969C 50.799973 55.599968 49.599972 57.19997 47.999973 56.999969C 38.79998 55.599968 29.399986 57.599968 19.999994 56.999969C 18.399994 56.999969 16.999996 55.599968 16.999996 53.999969C 16.999996 52.599972 16.999996 51.399975 16.999996 49.999973C 17.199995 48.399975 18.399994 46.799976 19.999994 46.999977C 29.199987 48.199974 38.79998 48.399975 47.999973 46.999977C 49.599972 46.799976 50.799973 48.399975 50.999973 49.999973C 51.199974 51.399975 51.199974 52.599972 50.999973 53.999969M 23.599991 41.399979C 23.199991 41.399979 22.999992 41.79998 22.999992 41.999977C 22.999992 42.199978 23.199991 42.599976 23.39999 42.399979C 23.799992 42.399979 24.199991 42.199978 23.99999 41.999977M 28.599989 41.399979C 28.199989 41.599979 27.999989 41.79998 27.999989 41.999977C 27.999989 42.199978 28.199989 42.599976 28.399988 42.399979C 28.799988 42.399979 28.999987 42.199978 28.999987 41.999977M 50.999973 43.999977C 51.399975 45.599976 49.599972 46.999977 47.999973 46.999977C 38.599983 46.799976 29.199987 45.399979 19.999994 46.999977C 18.399994 47.199978 16.999996 45.599976 16.999996 43.999977C 16.999996 42.599976 17.399996 41.199982 16.999996 39.999981C 16.599995 38.399982 18.399994 37.599983 19.999994 36.999981C 28.599989 33.599983 38.999981 34.199986 47.999973 36.999981C 49.599972 37.399982 51.399975 38.399982 50.999973 39.999981C 50.599972 41.199982 50.799973 42.599976 50.999973 43.999977"></path><path d="M 50.999973 23.853991C 50.966484 21.881104 50.13163 20.006783 48.687481 18.662228C 47.243332 17.317673 45.314224 16.618656 43.343975 16.725996C 41.574932 13.192696 37.951309 10.972141 33.999985 10.999999C 28.620373 10.922283 24.105404 15.03635 23.68399 20.399992C 22.078545 20.044855 20.398417 20.426905 19.104406 21.44136C 17.810396 22.455814 17.038343 23.99618 16.999996 25.63999C 16.999996 31.083986 22.911991 30.999987 22.911991 30.999987L 44.347977 30.999987C 44.347977 30.999987 50.999973 30.157988 50.999973 23.853991ZM 23.49999 51.497974C 23.22411 51.497974 23.000362 51.721428 22.999996 51.997311C 22.99963 52.27319 23.222782 52.497238 23.498663 52.497971C 23.774544 52.498707 23.998888 52.275852 23.99999 51.999973C 24.000525 51.867199 23.948017 51.739712 23.854134 51.645828C 23.76025 51.551945 23.632761 51.499439 23.49999 51.499973L 23.49999 51.499973M 28.499989 51.497974C 28.224108 51.497974 28.000359 51.721428 27.999992 51.997311C 27.999626 52.27319 28.22278 52.497238 28.498661 52.497971C 28.774542 52.498707 28.998882 52.275852 28.999987 51.999973C 29.000521 51.867199 28.948013 51.739712 28.854132 51.645828C 28.760246 51.551945 28.632759 51.499439 28.499989 51.499973L 28.499989 51.499973M 50.999973 53.999969C 50.999973 55.656826 49.65683 56.999969 47.999973 56.999969L 19.999994 56.999969C 18.343142 56.999969 16.999996 55.656826 16.999996 53.999969L 16.999996 49.999973C 16.999996 48.343121 18.343142 46.999977 19.999994 46.999977L 47.999973 46.999977C 49.65683 46.999977 50.999973 48.343121 50.999973 49.999973ZM 23.49999 41.497978C 23.22411 41.497982 23.000362 41.721436 22.999996 41.997314C 22.99963 42.273193 23.222782 42.497242 23.498663 42.497974C 23.774544 42.498711 23.998888 42.275856 23.99999 41.999977C 24.000525 41.867207 23.948017 41.739719 23.854134 41.645836C 23.76025 41.551952 23.632761 41.499443 23.49999 41.499977L 23.49999 41.499981M 28.499989 41.497978C 28.224108 41.497982 28.000359 41.721436 27.999992 41.997314C 27.999626 42.273193 28.22278 42.497242 28.498661 42.497974C 28.774542 42.498711 28.998882 42.275856 28.999987 41.999977C 29.000521 41.867207 28.948013 41.739719 28.854132 41.645836C 28.760246 41.551952 28.632759 41.499443 28.499989 41.499977L 28.499989 41.499981M 50.999973 43.999977C 50.999973 45.656834 49.65683 46.999977 47.999973 46.999977L 19.999994 46.999977C 18.343142 46.999977 16.999996 45.656834 16.999996 43.999977L 16.999996 39.999981C 16.999996 38.343128 18.343142 36.999981 19.999994 36.999981L 47.999973 36.999981C 49.65683 36.999981 50.999973 38.343128 50.999973 39.999981Z"></path></g></g></g><g id="g-root-tx_cloudbas_m8lvq81rkz7k4-stroke" data-item-order="0" data-item-id="tx_cloudbas_m8lvq81rkz7k4" data-item-class="Label Stroke SceneTarget Indexed" data-item-index="4" data-renderer-id="0" transform="translate(458, 278)"></g><g id="g-root-tx_standard_hu1bs01rkz9qn-stroke" data-item-order="0" data-item-id="tx_standard_hu1bs01rkz9qn" data-item-class="Label Stroke SceneTarget Indexed Indexed_1" data-item-index="1" data-renderer-id="0" transform="translate(374, 2)"></g><g id="g-root-tx_realtime_zjfx0g1rkz94z-stroke" data-item-order="0" data-item-id="tx_realtime_zjfx0g1rkz94z" data-item-class="Label Stroke SceneTarget Indexed" data-item-index="5" data-renderer-id="0" transform="translate(374, 362)"></g><g id="g-root-neur_1lynlr41rl222t-stroke" data-item-order="0" data-item-id="neur_1lynlr41rl222t" data-item-class="Icon Stroke SceneTarget Indexed InsideFill" data-item-index="6" data-renderer-id="0" transform="translate(202.08499145507812, 341.778076171875)"><g id="neur_1lynlr41rl222t-stroke" fill="none" stroke-linecap="round" stroke-linejoin="round" stroke-miterlimit="4" stroke="#484848" stroke-width="2"><g><path d="M 10 10M 43.599998 43.799999C 41.400002 45 39.400002 46.799999 37 47.400002M 47 28.799999C 47.799999 32.200001 47.200001 35.799999 47 39.200001M 37 20.6C 39.200001 21.6 42 22.200001 43.599998 24.200001M 31 20C 31.6 21.6 32.400002 22.4 34 23C 35.599998 23.6 36.599998 21.6 37 20C 37.400002 18.4 35.599998 16.6 34 17C 32.400002 17.4 30.799999 18.4 31 20M 43 42C 43.400002 43.599998 44.400002 44.400002 46 45C 47.599998 45.599998 49 43.599998 49 42C 49 40.400002 47.599998 38.799999 46 39C 44.400002 39.200001 42.599998 40.400002 43 42M 43 26C 43 27.6 44.400002 28.6 46 29C 47.599998 29.4 49 27.6 49 26C 49 24.4 47.599998 23.200001 46 23C 44.400002 22.799999 43 24.4 43 26M 10 10M 24.4 43.799999C 26.799999 44.599998 28.6 47 31 47.400002M 21 28.799999C 21.6 32.200001 20.200001 35.799999 21 39.200001M 19 42C 18.6 43.599998 20.4 45.599998 22 45C 23.6 44.400002 25.200001 43.599998 25 42C 25 40.400002 23.6 39.200001 22 39C 20.4 38.799999 19 40.400002 19 42M 19 26C 19 27.6 20.4 29 22 29C 23.6 29 25.6 27.6 25 26C 24.4 24.4 23.6 22.6 22 23C 20.4 23.4 18.6 24.4 19 26M 31 48C 31.4 49.599998 32.400002 50.599998 34 51C 35.599998 51.400002 37.599998 49.599998 37 48C 36.400002 46.400002 35.599998 44.599998 34 45C 32.400002 45.400002 31.6 46.400002 31 48M 31.6 21.799999C 29.200001 22.4 27 24 25 25.4M 35 11C 34.400002 13 35.400002 15.2 35 17.200001M 33 50.799999C 33 52.799999 33.799999 55 33 57M 12.4 21.799999C 14.6 22.799999 17.4 23.4 19 25.4M 11 22.799999C 12.2 22.799999 12.6 21.200001 13 20C 13.4 18.799999 12 18 11 17.200001M 55.599998 21.799999C 53.200001 22.4 51.200001 24.200001 49 25.4M 57 22.799999C 56 22.200001 54.799999 21.200001 55 20C 55.200001 18.799999 56 18 57 17.200001M 12.4 46.599998C 15 46.200001 16.799999 44 19.200001 43M 11 45.599998C 12.2 45.599998 12.8 47.200001 13 48.400002C 13.2 49.599998 12.2 50.599998 11 51.200001M 55.599998 46.599998C 53.200001 45.599998 51.400002 43.599998 48.799999 43M 57 45.599998C 55.799999 45.799999 55.200001 47.200001 55 48.400002C 54.599998 49.599998 56 50.599998 57 51.200001M 19 26C 18.799999 27.6 20.4 29.200001 22 29C 23.6 29 24.6 27.6 25 26C 25.4 24.4 23.6 22.4 22 23C 20.4 23.6 19.200001 24.4 19 26"></path><path d="M 10 10M 43.622002 43.82L 36.942001 47.416M 47 28.83L 47 39.172001M 36.942001 20.586L 43.616001 24.178001M 31 20C 31 21.656855 32.343147 23 34 23C 35.656853 23 37 21.656855 37 20C 37 18.343147 35.656853 17 34 17C 32.343147 17 31 18.343147 31 20M 43 42C 43 43.656857 44.343147 45 46 45C 47.656857 45 49 43.656857 49 42C 49 40.343147 47.656857 39 46 39C 44.343147 39 43 40.343147 43 42M 43 26C 43 27.656855 44.343147 29 46 29C 47.656857 29 49 27.656855 49 26C 49 24.343147 47.656857 23 46 23C 44.343147 23 43 24.343147 43 26M 10 10M 24.378 43.82L 31.058001 47.416M 21 28.83L 21 39.166M 19 42C 19 43.656857 20.343147 45 22 45C 23.656855 45 25 43.656857 25 42C 25 40.343147 23.656855 39 22 39C 20.343147 39 19 40.343147 19 42M 19 26C 19 27.656855 20.343147 29 22 29C 23.656855 29 25 27.656855 25 26C 25 24.343147 23.656855 23 22 23C 20.343147 23 19 24.343147 19 26M 31 48C 31 49.656857 32.343147 51 34 51C 35.656853 51 37 49.656857 37 48C 37 46.343147 35.656853 45 34 45C 32.343147 45 31 46.343147 31 48M 31.615999 21.821999L 24.942001 25.416M 35 11L 35 17.172001M 33 50.824001L 33 57M 12.382 21.821999L 19.057999 25.416M 11 22.83C 12.199184 22.406025 13.000667 21.271927 13 20C 13.000667 18.728073 12.199184 17.593975 11 17.17M 55.616001 21.821999L 48.942001 25.416M 57 22.83C 55.799057 22.407532 54.995541 21.273087 54.995541 20C 54.995541 18.726915 55.799057 17.592468 57 17.17M 12.382 46.563999L 19.147999 42.919998M 11 45.556C 12.198492 45.979733 12.999819 47.112808 13 48.384003C 13.001515 49.656662 12.199877 50.791782 11 51.216M 55.618 46.563999L 48.852001 42.919998M 57 45.556C 55.799057 45.97847 54.995541 47.112915 54.995541 48.386002C 54.995541 49.659084 55.799057 50.793533 57 51.216M 19 26C 19 27.656855 20.343147 29 22 29C 23.656855 29 25 27.656855 25 26C 25 24.343147 23.656855 23 22 23C 20.343147 23 19 24.343147 19 26"></path></g></g></g><g id="g-root-cloc_18ntkgw1rl20hy-stroke" data-item-order="0" data-item-id="cloc_18ntkgw1rl20hy" data-item-class="Icon Stroke SceneTarget Indexed InsideFill" data-item-index="5" data-renderer-id="0" transform="translate(305.9150390625, 341.778076171875)"><g id="cloc_18ntkgw1rl20hy-stroke" fill="none" stroke-linecap="round" stroke-linejoin="round" stroke-miterlimit="4" stroke="#484848" stroke-width="2"><g><path d="M 31 57C 25.200001 55.200001 19 57 13 57C 11.8 57 11 56.200001 11 55C 11 41 8.2 26.799999 11 13C 11.2 12 11.8 11.2 13 11C 21.6 9.4 31 13.4 39.599998 11C 40 10.8 40.799999 11.2 41 11.6C 42.799999 14.6 46.400002 16.200001 48.400002 19C 48.599998 19.4 48.799999 20 49 20.4C 49.599998 22.6 48.200001 25 49 27M 17 41C 21 41.200001 25 41.599998 29 41M 20 31C 20.6 30.799999 21.4 31 22 31C 22.6 31.200001 23 31.4 23 32C 23 35 22 38.200001 23 41C 21.6 41.200001 20.4 41 19 41C 18.200001 38.200001 19.799999 34.799999 19 32C 18.799999 31.4 19.4 31.200001 20 31M 31 35C 31.6 32.200001 30.6 29 31 26C 31 25.4 30.6 24.799999 30 25C 29.4 25.200001 28.6 25.200001 28 25C 27.4 25 27.200001 25.6 27 26C 25.4 30.799999 26.6 36 27 41M 33 45C 32.599998 51.599998 38.400002 56.200001 45 57C 51.599998 57.799999 56 51.599998 57 45C 58 38.400002 51.599998 33.200001 45 33C 38.400002 33 34.200001 38.599998 33 45M 49 45C 47.599998 44.799999 46.200001 45.599998 45 45C 44.599998 43 45.799999 40.799999 45 39"></path><path d="M 30.98 57.028L 12.98 57.028C 11.87543 57.028 10.98 56.132568 10.98 55.028L 10.98 13.028C 10.98 11.92343 11.87543 11.028 12.98 11.028L 39.566002 11.028C 40.09639 11.028113 40.605015 11.238901 40.98 11.614L 48.400002 19.028C 48.775097 19.402985 48.985886 19.91161 48.986 20.442001L 48.986 27.028M 16.98 41.028L 28.98 41.028M 19.98 31.028L 21.98 31.028C 22.532284 31.028 22.98 31.475716 22.98 32.028L 22.98 41.028L 22.98 41.028L 18.98 41.028L 18.98 41.028L 18.98 32.028C 18.98 31.475716 19.427715 31.028 19.98 31.028ZM 30.98 35.028L 30.98 26.028C 30.98 25.475716 30.532286 25.028 29.98 25.028L 27.98 25.028C 27.427715 25.028 26.98 25.475716 26.98 26.028L 26.98 41.028M 32.98 45.028C 32.980003 51.655418 38.352585 57.028 44.98 57.028C 51.607418 57.028 56.98 51.655418 56.98 45.028C 56.98 38.400581 51.607418 33.028 44.98 33.028C 38.352585 33.028 32.980003 38.400581 32.980003 45.028ZM 48.98 45.028L 44.98 45.028L 44.98 39.028"></path></g></g></g><g id="g-root-tx_cloudinf_1uto4ww1rkxury-stroke" data-item-order="0" data-item-id="tx_cloudinf_1uto4ww1rkxury" data-item-class="Label Stroke SceneTarget Indexed" data-item-index="10" data-renderer-id="0" transform="translate(38, 2)"></g><g id="g-root-tx_external_1q5qgo01rkz94y-stroke" data-item-order="0" data-item-id="tx_external_1q5qgo01rkz94y" data-item-class="Label Stroke SceneTarget Indexed" data-item-index="6" data-renderer-id="0" transform="translate(50, 362)"></g></g></g></svg>