<?xml version="1.0" encoding="utf-8" standalone="yes"?>
<!DOCTYPE svg PUBLIC "-//W3C//DTD SVG 1.1//EN" "http://www.w3.org/Graphics/SVG/1.1/DTD/svg11.dtd">
<svg width="533" height="484" viewBox="0 0 533 484" style="fill:none;stroke:none;fill-rule:evenodd;clip-rule:evenodd;stroke-linecap:round;stroke-linejoin:round;stroke-miterlimit:1.5;" version="1.1" xmlns="http://www.w3.org/2000/svg" xmlns:xlink="http://www.w3.org/1999/xlink"><style id="fontImports">@import url("https://fonts.googleapis.com/css2?family=Shantell+Sans:wght@300..800&amp;display=block");</style><rect id="" x="0" y="0" width="532" height="484" style="fill: #ffffff;"></rect><g id="items" style="isolation: isolate"><g id="blend" style="mix-blend-mode:multiply"><g id="g-root-3.cu_sy_8wj8vm1tipclf-fill" data-item-order="-229819" data-item-id="3.cu_sy_8wj8vm1tipclf" data-item-class="ScenePart Part Indexed Stroke ColorStrokeBlack" data-item-index="3" data-renderer-id="0" transform="translate(4, 111.99899291992188)"></g><g id="g-root-2.cu_sy_dbq9wy1tipeyy-fill" data-item-order="-229817" data-item-id="2.cu_sy_dbq9wy1tipeyy" data-item-class="ScenePart Part Indexed Stroke ColorStrokeBlack" data-item-index="2" data-renderer-id="0" transform="translate(256.0010070800781, 4)"></g><g id="g-root-1.cu_sy_dbq9wy1tipeyx-fill" data-item-order="-229816" data-item-id="1.cu_sy_dbq9wy1tipeyx" data-item-class="ScenePart Part Indexed Indexed_1 Fill Stroke ColorStrokeBlack" data-item-index="1" data-renderer-id="0" transform="translate(226.00100708007812, 28)"><g id="1.cu_sy_dbq9wy1tipeyx-fill" stroke="none" fill="none"><g><path d="M 10 34L 28 10L 28 18L 52 18L 52 10L 70 34L 52 58L 52 50L 28 50L 28 58L 10 34Z"></path></g></g></g><g id="g-root-tx_pros_dgq2lu1tipf5s-fill" data-item-order="0" data-item-id="tx_pros_dgq2lu1tipf5s" data-item-class="Label Stroke SceneTarget ColorStrokeBlack" data-item-index="none" data-renderer-id="0" transform="translate(64.00100708007812, 39.999969482421875)"><g id="tx_pros_dgq2lu1tipf5s-fill" stroke="none" fill="#484848"><g><text style="font: 20px &quot;Shantell Sans&quot;, cursive; white-space: pre;"><tspan x="12" y="35" dominant-baseline="ideographic">Pros</tspan></text></g></g></g><g id="g-root-tx_cons_hwjkqa1tipedj-fill" data-item-order="0" data-item-id="tx_cons_hwjkqa1tipedj" data-item-class="Label Stroke SceneTarget ColorStrokeBlack" data-item-index="none" data-renderer-id="0" transform="translate(364.0010070800781, 39.999969482421875)"><g id="tx_cons_hwjkqa1tipedj-fill" stroke="none" fill="#484848"><g><text style="font: 20px &quot;Shantell Sans&quot;, cursive; white-space: pre;"><tspan x="12" y="35" dominant-baseline="ideographic">Cons</tspan></text></g></g></g><g id="g-root-on_1cuwrzm1tiz6rs-fill" data-item-order="0" data-item-id="on_1cuwrzm1tiz6rs" data-item-class="Icon Stroke SceneTarget Indexed Indexed_1 ColorStrokeBlack" data-item-index="1" data-renderer-id="0" transform="translate(4.001007080078125, 147.99996948242188)"></g><g id="g-root-tx_actionab_v8033m1tipcsm-fill" data-item-order="0" data-item-id="tx_actionab_v8033m1tipcsm" data-item-class="Label Stroke SceneTarget Indexed Indexed_1 ColorStrokeBlack" data-item-index="1" data-renderer-id="0" transform="translate(64.00100708007812, 147.99996948242188)"><g id="tx_actionab_v8033m1tipcsm-fill" stroke="none" fill="#484848"><g><text style="font: 20px &quot;Shantell Sans&quot;, cursive; white-space: pre;"><tspan x="12" y="35" dominant-baseline="ideographic">Actionable </tspan><tspan x="12" y="59" dominant-baseline="ideographic">insights</tspan></text></g></g></g><g id="g-root-bin_1lynycy1tixseb-fill" data-item-order="0" data-item-id="bin_1lynycy1tixseb" data-item-class="Icon Stroke SceneTarget Indexed ColorStrokeBlack" data-item-index="101" data-renderer-id="0" transform="translate(304.0010070800781, 147.99996948242188)"></g><g id="g-root-tx_storagei_4ju46q1tipds9-fill" data-item-order="0" data-item-id="tx_storagei_4ju46q1tipds9" data-item-class="Label Stroke SceneTarget Indexed ColorStrokeBlack" data-item-index="101" data-renderer-id="0" transform="translate(364.0010070800781, 159.99996948242188)"><g id="tx_storagei_4ju46q1tipds9-fill" stroke="none" fill="#484848"><g><text style="font: 20px &quot;Shantell Sans&quot;, cursive; white-space: pre;"><tspan x="12" y="35" dominant-baseline="ideographic">Storage issues</tspan></text></g></g></g><g id="g-root-cloc_4g39o21tiz6yv-fill" data-item-order="0" data-item-id="cloc_4g39o21tiz6yv" data-item-class="Icon Stroke SceneTarget Indexed ColorStrokeBlack" data-item-index="2" data-renderer-id="0" transform="translate(4.001007080078125, 231.99996948242188)"></g><g id="g-root-tx_realtime_1cynmia1tipdl9-fill" data-item-order="0" data-item-id="tx_realtime_1cynmia1tipdl9" data-item-class="Label Stroke SceneTarget Indexed ColorStrokeBlack" data-item-index="2" data-renderer-id="0" transform="translate(64.00100708007812, 231.99996948242188)"><g id="tx_realtime_1cynmia1tipdl9-fill" stroke="none" fill="#484848"><g><text style="font: 20px &quot;Shantell Sans&quot;, cursive; white-space: pre;"><tspan x="12" y="35" dominant-baseline="ideographic">Real-time </tspan><tspan x="12" y="59" dominant-baseline="ideographic">decisions</tspan></text></g></g></g><g id="g-root-plur_1qehghe1tixrm2-fill" data-item-order="0" data-item-id="plur_1qehghe1tixrm2" data-item-class="Icon Stroke SceneTarget Indexed ColorStrokeBlack" data-item-index="102" data-renderer-id="0" transform="translate(304.0010070800781, 231.99996948242188)"></g><g id="g-root-tx_processi_qqb5pu1tipekg-fill" data-item-order="0" data-item-id="tx_processi_qqb5pu1tipekg" data-item-class="Label Stroke SceneTarget Indexed ColorStrokeBlack" data-item-index="102" data-renderer-id="0" transform="translate(364.0010070800781, 231.99996948242188)"><g id="tx_processi_qqb5pu1tipekg-fill" stroke="none" fill="#484848"><g><text style="font: 20px &quot;Shantell Sans&quot;, cursive; white-space: pre;"><tspan x="12" y="35" dominant-baseline="ideographic">Processing </tspan><tspan x="12" y="59" dominant-baseline="ideographic">challenges</tspan></text></g></g></g><g id="g-root-1_i0wwc21tixtza-fill" data-item-order="0" data-item-id="1_i0wwc21tixtza" data-item-class="Icon Stroke SceneTarget Indexed ColorStrokeBlack" data-item-index="3" data-renderer-id="0" transform="translate(4.001007080078125, 315.9999694824219)"></g><g id="g-root-tx_predicti_1luamr61tipcsk-fill" data-item-order="0" data-item-id="tx_predicti_1luamr61tipcsk" data-item-class="Label Stroke SceneTarget Indexed ColorStrokeBlack" data-item-index="3" data-renderer-id="0" transform="translate(64.00100708007812, 315.9999694824219)"><g id="tx_predicti_1luamr61tipcsk-fill" stroke="none" fill="#484848"><g><text style="font: 20px &quot;Shantell Sans&quot;, cursive; white-space: pre;"><tspan x="12" y="35" dominant-baseline="ideographic">Predictive </tspan><tspan x="12" y="59" dominant-baseline="ideographic">analytics</tspan></text></g></g></g><g id="g-root-doll_djug1e1tixsld-fill" data-item-order="0" data-item-id="doll_djug1e1tixsld" data-item-class="Icon Stroke SceneTarget Indexed ColorStrokeBlack" data-item-index="103" data-renderer-id="0" transform="translate(304.0010070800781, 315.9999694824219)"></g><g id="g-root-tx_expensiv_1cws78y1tipekv-fill" data-item-order="0" data-item-id="tx_expensiv_1cws78y1tipekv" data-item-class="Label Stroke SceneTarget Indexed ColorStrokeBlack" data-item-index="103" data-renderer-id="0" transform="translate(364.0010070800781, 315.9999694824219)"><g id="tx_expensiv_1cws78y1tipekv-fill" stroke="none" fill="#484848"><g><text style="font: 20px &quot;Shantell Sans&quot;, cursive; white-space: pre;"><tspan x="12" y="35" dominant-baseline="ideographic">Expensive </tspan><tspan x="12" y="59" dominant-baseline="ideographic">infrastructure</tspan></text></g></g></g><g id="g-root-fema_mgqegi1tixt71-fill" data-item-order="0" data-item-id="fema_mgqegi1tixt71" data-item-class="Icon Stroke SceneTarget Indexed ColorStrokeBlack" data-item-index="4" data-renderer-id="0" transform="translate(4.001007080078125, 399.9999694824219)"></g><g id="g-root-tx_personal_1q9hnsi1tipf63-fill" data-item-order="0" data-item-id="tx_personal_1q9hnsi1tipf63" data-item-class="Label Stroke SceneTarget Indexed ColorStrokeBlack" data-item-index="4" data-renderer-id="0" transform="translate(64.00100708007812, 399.9999694824219)"><g id="tx_personal_1q9hnsi1tipf63-fill" stroke="none" fill="#484848"><g><text style="font: 20px &quot;Shantell Sans&quot;, cursive; white-space: pre;"><tspan x="12" y="35" dominant-baseline="ideographic">Personalized </tspan><tspan x="12" y="59" dominant-baseline="ideographic">services</tspan></text></g></g></g><g id="g-root-brok_quohbm1tixu68-fill" data-item-order="0" data-item-id="brok_quohbm1tixu68" data-item-class="Icon Stroke SceneTarget Indexed ColorStrokeBlack" data-item-index="104" data-renderer-id="0" transform="translate(304.0010070800781, 399.9999694824219)"></g><g id="g-root-tx_datapriv_ddlp6a1tipdza-fill" data-item-order="0" data-item-id="tx_datapriv_ddlp6a1tipdza" data-item-class="Label Stroke SceneTarget Indexed ColorStrokeBlack" data-item-index="104" data-renderer-id="0" transform="translate(364.0010070800781, 399.9999694824219)"><g id="tx_datapriv_ddlp6a1tipdza-fill" stroke="none" fill="#484848"><g><text style="font: 20px &quot;Shantell Sans&quot;, cursive; white-space: pre;"><tspan x="12" y="35" dominant-baseline="ideographic">Data privacy </tspan><tspan x="12" y="59" dominant-baseline="ideographic">risks</tspan></text></g></g></g><g id="g-root-3.cu_sy_8wj8vm1tipclf-stroke" data-item-order="-229819" data-item-id="3.cu_sy_8wj8vm1tipclf" data-item-class="ScenePart Part Indexed Stroke ColorStrokeBlack" data-item-index="3" data-renderer-id="0" transform="translate(4, 111.99899291992188)"><g id="3.cu_sy_8wj8vm1tipclf-stroke" fill="none" stroke-linecap="round" stroke-linejoin="round" stroke-miterlimit="4" stroke="#484848" stroke-width="4"><g><path d="M 514 10C 489.7 11.3 465.3 10.3 441 10C 417.5 9.7 394 10.8 370.5 10C 348 9.2 325.5 9.7 302.9 10C 280.3 10.3 257.6 10.8 234.9 10C 209 9.1 182.9 11.9 156.9 10C 131.1 8.1 105 11.9 79.1 10C 56.1 8.3 33 8.7 10 10"></path><path d="M 514.000007 10.000007L 10.000007 10.001007"></path></g></g></g><g id="g-root-2.cu_sy_dbq9wy1tipeyy-stroke" data-item-order="-229817" data-item-id="2.cu_sy_dbq9wy1tipeyy" data-item-class="ScenePart Part Indexed Stroke ColorStrokeBlack" data-item-index="2" data-renderer-id="0" transform="translate(256.0010070800781, 4)"><g id="2.cu_sy_dbq9wy1tipeyy-stroke" fill="none" stroke-linecap="round" stroke-linejoin="round" stroke-miterlimit="4" stroke="#484848" stroke-width="4"><g><path d="M 10 298C 9 270 11 242 10 214M 10 382C 9.2 367.5 10.3 352.9 10 338.3C 9.7 324.9 11.3 311.4 10 298M 10 466C 10.4 453.2 10.7 440.3 10 427.6C 9.1 412.4 11.3 397.1 10 382M 10 214C 8.4 197.4 8.7 180.7 10 164.1C 11.2 148.8 10.3 133.4 10 118M 10 118C 11.7 105.4 10.9 92.6 10 80M 10 36C 11.7 27.5 8.8 18.6 10 10"></path><path d="M 10 298L 10 214M 10 382L 10 298M 10 466L 10 382M 10 214L 10 118M 10 118L 10 80M 10 36L 10 10"></path></g></g></g><g id="g-root-1.cu_sy_dbq9wy1tipeyx-stroke" data-item-order="-229816" data-item-id="1.cu_sy_dbq9wy1tipeyx" data-item-class="ScenePart Part Indexed Indexed_1 Fill Stroke ColorStrokeBlack" data-item-index="1" data-renderer-id="0" transform="translate(226.00100708007812, 28)"><g id="1.cu_sy_dbq9wy1tipeyx-stroke" fill="none" stroke-linecap="round" stroke-linejoin="round" stroke-miterlimit="4" stroke="#484848" stroke-width="4"><g><path d="M 10 34C 14.5 25.1 22.9 18.6 28 10C 27.3 12.6 27.3 15.4 28 18C 35.8 16.3 44 18.1 52 18C 52.1 15.3 52.5 12.6 52 10C 58.2 17.8 64.2 25.8 70 34C 65 42.6 58.2 50.1 52 58C 52.1 55.3 51.3 52.6 52 50C 44.2 51.8 35.9 48.9 28 50C 27.8 52.7 28.7 55.4 28 58C 21.4 50.5 15.7 42.2 10 34"></path><path d="M 10 34L 28 10L 28 18L 52 18L 52 10L 70 34L 52 58L 52 50L 28 50L 28 58L 10 34Z"></path></g></g><g id="1.cu_sy_dbq9wy1tipeyx-stroke" fill="none" stroke-linecap="round" stroke-linejoin="round" stroke-miterlimit="4" stroke="#484848" stroke-width="4"><g><path d="M 30.6 28.4C 33.1 31.5 32.9 36.1 35 39.5M 35.2 39.1C 37.6 36.2 39 32.4 39.6 28.7M 49.4 30.2C 49 30.1 48.8 29.6 48.4 29.4C 47.9 28.8 46.8 28.4 45.5 28.8C 44.2 29.1 43.7 29.6 43.4 30.7C 43.1 31.8 44.2 33 46.3 33.9C 48.1 35.4 49.3 36 49.4 37.3C 49.6 38.5 48.6 39.4 47.1 39.6C 45.5 39.3 44.7 39.2 43.9 38.5C 43.7 38 43.2 37.6 43 37.2"></path><path d="M 30.599 28.373L 34.999 39.48M 35.199 39.097L 39.599 28.66M 49.399 30.192C 49.065 29.937 48.732 29.682 48.399 29.426C 47.799 28.852 46.832 28.628 45.499 28.756C 44.165 28.884 43.465 29.522 43.399 30.671C 43.265 31.82 44.232 32.905 46.299 33.927C 48.432 34.884 49.465 36.001 49.399 37.278C 49.399 38.555 48.632 39.321 47.099 39.576C 45.499 39.767 44.432 39.416 43.899 38.523C 43.565 38.076 43.265 37.629 42.999 37.182"></path></g></g></g><g id="g-root-tx_pros_dgq2lu1tipf5s-stroke" data-item-order="0" data-item-id="tx_pros_dgq2lu1tipf5s" data-item-class="Label Stroke SceneTarget ColorStrokeBlack" data-item-index="none" data-renderer-id="0" transform="translate(64.00100708007812, 39.999969482421875)"></g><g id="g-root-tx_cons_hwjkqa1tipedj-stroke" data-item-order="0" data-item-id="tx_cons_hwjkqa1tipedj" data-item-class="Label Stroke SceneTarget ColorStrokeBlack" data-item-index="none" data-renderer-id="0" transform="translate(364.0010070800781, 39.999969482421875)"></g><g id="g-root-on_1cuwrzm1tiz6rs-stroke" data-item-order="0" data-item-id="on_1cuwrzm1tiz6rs" data-item-class="Icon Stroke SceneTarget Indexed Indexed_1 ColorStrokeBlack" data-item-index="1" data-renderer-id="0" transform="translate(4.001007080078125, 147.99996948242188)"><g id="on_1cuwrzm1tiz6rs-stroke" fill="none" stroke-linecap="round" stroke-linejoin="round" stroke-miterlimit="4" stroke="#484848" stroke-width="2"><g><path d="M 46 37.428574C 47.714287 31.6 41.885715 26.457144 35.714287 25.428572C 29.885715 24.742859 24.4 28.171429 22.685715 33.657143C 20.628571 39.485718 23.714287 44.971428 28.514286 48.057144C 28.514286 50.114285 28.171429 52.171429 28.514286 53.885715C 28.857143 54.57143 29.200001 55.257141 29.885715 55.257141C 32.628571 55.257141 35.371429 54.57143 38.114285 55.257141C 38.799999 55.600002 39.485718 54.914288 39.485718 53.885715C 39.485718 52.171429 39.485718 50.114285 39.485718 48.057144C 43.257141 46 44.285713 41.542858 46 37.428574M 34 12.742857C 33.314285 14.457143 33.657143 16.171429 34 17.885714M 47.714287 17.542858C 46.342857 18.571428 45.657143 20.628571 43.942856 21.314285M 55.600002 28.171429C 53.885715 28.171429 52.171429 28.514286 50.457146 28.171429M 20.285715 17.542858C 21.657143 18.571428 22.342857 20.285715 24.057142 21.314285M 12.4 28.171429C 14.114285 28.171429 15.828571 27.828571 17.542858 28.171429"></path><path d="M 46 37.428574C 46.022171 31.506199 41.720341 26.453302 35.870296 25.530289C 30.020248 24.607275 24.371649 28.090206 22.569283 33.731705C 20.766918 39.373199 23.34985 45.48597 28.651428 48.125717L 28.651428 54.022858C 28.670025 54.747917 29.263273 55.325954 29.988571 55.325714L 38.011429 55.325714C 38.736725 55.325954 39.329975 54.747917 39.348572 54.022858L 39.348572 48.022858C 43.376583 46.017712 45.944405 41.927727 46 37.428574ZM 34 12.777143L 34 17.92M 47.714287 17.68L 44.079998 21.348572M 55.531429 28.308573L 50.388573 28.308573M 20.285715 17.68L 23.92 21.348572M 12.468572 28.308573L 17.611429 28.308573"></path></g></g></g><g id="g-root-tx_actionab_v8033m1tipcsm-stroke" data-item-order="0" data-item-id="tx_actionab_v8033m1tipcsm" data-item-class="Label Stroke SceneTarget Indexed Indexed_1 ColorStrokeBlack" data-item-index="1" data-renderer-id="0" transform="translate(64.00100708007812, 147.99996948242188)"></g><g id="g-root-bin_1lynycy1tixseb-stroke" data-item-order="0" data-item-id="bin_1lynycy1tixseb" data-item-class="Icon Stroke SceneTarget Indexed ColorStrokeBlack" data-item-index="101" data-renderer-id="0" transform="translate(304.0010070800781, 147.99996948242188)"><g id="bin_1lynycy1tixseb-stroke" fill="none" stroke-linecap="round" stroke-linejoin="round" stroke-miterlimit="4" stroke="#484848" stroke-width="2"><g><path d="M 51 57C 52 57 53 56 53 55C 53.799999 44.400002 51.799999 33.599998 53 23C 53.799999 16.4 47.599998 9.6 41 11C 33.200001 12.6 24.799999 12.8 17 11C 16 10.8 15.4 12 15 13C 11.2 26.4 16 41 15 55C 15 56.200001 16 57 17 57C 28.4 56.200001 39.799999 54.799999 51 57M 43 11.2C 43 13.8 43.400002 16.4 43 19C 42.799999 20 44 20.799999 45 21C 47.599998 21.6 50.400002 20.200001 52.799999 21M 35 35C 35.799999 38.799999 35.200001 43 35 47M 33 47C 34.200001 47.400002 35.599998 46.799999 37 47M 33 35C 34.200001 34.599998 35.599998 34.799999 37 35M 29 38C 28.4 39.599998 27.6 41 26 41C 25 41 24 41.200001 23 41C 23.200001 39 23 37 23 35C 24 34.599998 25 35.200001 26 35C 27.6 34.599998 29.200001 36.400002 29 38M 29 44C 29.200001 45.599998 27.6 47 26 47C 25 47 24 46.799999 23 47C 23.200001 45 22.799999 43 23 41C 24 41.200001 25 40.799999 26 41C 27.6 41.400002 28.799999 42.400002 29 44M 41 47C 39.599998 43.200001 40.400002 39 41 35C 44 38.400002 44.599998 43.200001 47 47C 47 43 46.799999 39 47 35"></path><path d="M 51 57C 52.104568 57 53 56.104568 53 55L 53 22.956001C 53.003315 16.353855 47.652145 10.999999 41.049999 11L 17 11C 15.895431 11 15 11.895431 15 13L 15 55C 15 56.104568 15.895431 57 17 57ZM 43 11.168L 43 19C 43 20.104568 43.895432 21 45 21L 52.84 21M 35 35.007999L 35 47.007999M 33 47.007999L 37 47.007999M 33 35.007999L 37 35.007999M 29 38C 29 39.656853 27.656855 41 26 41L 23 41L 23 35L 26 35C 27.656855 35 29 36.343147 29 38ZM 29 44C 29 45.656857 27.656855 47 26 47L 23 47L 23 41L 26 41C 27.656855 41 29 42.343147 29 44ZM 41 47.007999L 41 35.007999L 47 47.007999L 47 35.007999"></path></g></g></g><g id="g-root-tx_storagei_4ju46q1tipds9-stroke" data-item-order="0" data-item-id="tx_storagei_4ju46q1tipds9" data-item-class="Label Stroke SceneTarget Indexed ColorStrokeBlack" data-item-index="101" data-renderer-id="0" transform="translate(364.0010070800781, 159.99996948242188)"></g><g id="g-root-cloc_4g39o21tiz6yv-stroke" data-item-order="0" data-item-id="cloc_4g39o21tiz6yv" data-item-class="Icon Stroke SceneTarget Indexed ColorStrokeBlack" data-item-index="2" data-renderer-id="0" transform="translate(4.001007080078125, 231.99996948242188)"><g id="cloc_4g39o21tiz6yv-stroke" fill="none" stroke-linecap="round" stroke-linejoin="round" stroke-miterlimit="4" stroke="#484848" stroke-width="2"><g><path d="M 31 57C 25.200001 55.400002 19 56.799999 13 57C 11.8 57 10.6 56 11 55C 14.6 41.400002 10.8 27 11 13C 11 12 12 10.6 13 11C 21.200001 14.4 30.799999 11.6 39.599998 11C 40 11 40.799999 11.2 41 11.6C 42.799999 14.6 46.200001 16.4 48.400002 19C 48.799999 19.4 49 20 49 20.4C 49 22.6 48.200001 25 49 27M 17 41C 21 41.400002 25.200001 39.799999 29 41M 20 31C 20.6 30.799999 21.4 31 22 31C 22.6 31 22.799999 31.6 23 32C 24 34.799999 24.200001 38.200001 23 41C 21.6 41 20.4 41.200001 19 41C 18.200001 38.200001 19 35 19 32C 19 31.4 19.4 31 20 31M 31 35C 29.799999 32.200001 30.6 29 31 26C 31 25.4 30.6 24.799999 30 25C 29.4 25.200001 28.6 25.200001 28 25C 27.4 25 27.200001 25.6 27 26C 25.6 30.799999 26.200001 36.200001 27 41M 33 45C 33.599998 51.599998 38.400002 57.599998 45 57C 51.599998 56.400002 55.400002 51.400002 57 45C 58.400002 38.599998 51.599998 33.799999 45 33C 38.400002 32.200001 30.6 38.799999 33 45M 49 45C 47.799999 45.400002 46.200001 44.599998 45 45C 44.599998 43 45 41 45 39"></path><path d="M 30.98 57.028L 12.98 57.028C 11.87543 57.028 10.98 56.132568 10.98 55.028L 10.98 13.028C 10.98 11.92343 11.87543 11.028 12.98 11.028L 39.566002 11.028C 40.09639 11.028113 40.605015 11.238901 40.98 11.614L 48.400002 19.028C 48.775097 19.402985 48.985886 19.91161 48.986 20.442001L 48.986 27.028M 16.98 41.028L 28.98 41.028M 19.98 31.028L 21.98 31.028C 22.532284 31.028 22.98 31.475716 22.98 32.028L 22.98 41.028L 22.98 41.028L 18.98 41.028L 18.98 41.028L 18.98 32.028C 18.98 31.475716 19.427715 31.028 19.98 31.028ZM 30.98 35.028L 30.98 26.028C 30.98 25.475716 30.532286 25.028 29.98 25.028L 27.98 25.028C 27.427715 25.028 26.98 25.475716 26.98 26.028L 26.98 41.028M 32.98 45.028C 32.980003 51.655418 38.352585 57.028 44.98 57.028C 51.607418 57.028 56.98 51.655418 56.98 45.028C 56.98 38.400581 51.607418 33.028 44.98 33.028C 38.352585 33.028 32.980003 38.400581 32.980003 45.028ZM 48.98 45.028L 44.98 45.028L 44.98 39.028"></path></g></g></g><g id="g-root-tx_realtime_1cynmia1tipdl9-stroke" data-item-order="0" data-item-id="tx_realtime_1cynmia1tipdl9" data-item-class="Label Stroke SceneTarget Indexed ColorStrokeBlack" data-item-index="2" data-renderer-id="0" transform="translate(64.00100708007812, 231.99996948242188)"></g><g id="g-root-plur_1qehghe1tixrm2-stroke" data-item-order="0" data-item-id="plur_1qehghe1tixrm2" data-item-class="Icon Stroke SceneTarget Indexed ColorStrokeBlack" data-item-index="102" data-renderer-id="0" transform="translate(304.0010070800781, 231.99996948242188)"><g id="plur_1qehghe1tixrm2-stroke" fill="none" stroke-linecap="round" stroke-linejoin="round" stroke-miterlimit="4" stroke="#484848" stroke-width="2"><g><path d="M 33.599998 57C 33.799999 48 34.799999 39 33.599998 30M 27.6 37C 28.200001 42.599998 28.200001 48.400002 27.6 54C 25.799999 54 24.200001 54.400002 22.6 54C 22.4 55 22.200001 56 22.6 57M 15.6 57C 16.4 54 16 51 15.6 48C 17.6 47.799999 19.6 47.799999 21.6 48C 21.6 45.400002 21.6 42.599998 21.6 40M 39.599998 37C 40.400002 42.599998 38.599998 48.400002 39.599998 54C 41.200001 54 42.799999 54 44.599998 54C 44.400002 55 44.799999 56 44.599998 57M 51.599998 57C 51.799999 54 51.799999 51 51.599998 48C 49.599998 47.799999 47.599998 48.200001 45.599998 48C 45.599998 45.400002 44.799999 42.599998 45.599998 40M 49 37.400002C 53 36 54.799999 32.400002 56 28.200001C 56.200001 25.6 54.200001 23.6 53 21.4C 52 19 48.599998 19.4 46 18.6C 43.599998 13 37.200001 9.2 31.4 11.2C 25.799999 13.4 21.4 17.6 20.6 23.6C 18.6 23.200001 16.6 24.200001 14.6 25C 12.6 25.799999 12 28.4 12 30.6C 11.8 34 14.4 36.200001 17.4 37.400002"></path><path d="M 33.529999 57L 33.529999 30.018M 27.534 37.012001L 27.534 54.001999L 22.538 54.001999L 22.538 57M 15.542 57L 15.542 48.006001L 21.538 48.006001L 21.538 40.010002M 39.526001 37.012001L 39.526001 54.001999L 44.523998 54.001999L 44.523998 57M 51.52 57L 51.52 48.006001L 45.523998 48.006001L 45.523998 40.010002M 49 37.400002C 53.181938 36.334152 56.08078 32.530869 56 28.216C 56.001884 25.619896 54.946335 23.134996 53.076595 21.333933C 51.206856 19.532869 48.684216 18.571007 46.089996 18.669998C 43.484447 13.139819 37.459858 10.081257 31.45772 11.241485C 25.45558 12.401712 21.004866 17.485176 20.647999 23.587999C 18.534271 23.143478 16.332771 23.675255 14.655016 25.035618C 12.977261 26.395981 12.00195 28.440035 12 30.6C 11.812469 33.933861 14.140068 36.884327 17.426001 37.478001"></path></g></g></g><g id="g-root-tx_processi_qqb5pu1tipekg-stroke" data-item-order="0" data-item-id="tx_processi_qqb5pu1tipekg" data-item-class="Label Stroke SceneTarget Indexed ColorStrokeBlack" data-item-index="102" data-renderer-id="0" transform="translate(364.0010070800781, 231.99996948242188)"></g><g id="g-root-1_i0wwc21tixtza-stroke" data-item-order="0" data-item-id="1_i0wwc21tixtza" data-item-class="Icon Stroke SceneTarget Indexed ColorStrokeBlack" data-item-index="3" data-renderer-id="0" transform="translate(4.001007080078125, 315.9999694824219)"><g id="1_i0wwc21tixtza-stroke" fill="none" stroke-linecap="round" stroke-linejoin="round" stroke-miterlimit="4" stroke="#484848" stroke-width="2"><g><path d="M 53.200001 11C 52.599998 13.6 52.599998 16.200001 53.200001 18.6M 49.400002 14.8C 51.799999 15.6 54.599998 14.2 57 14.8M 46.799999 21.6C 46.599998 23.6 46.200001 25.6 46.799999 27.6M 43.799999 24.6C 45.799999 24.799999 47.799999 24.6 49.799999 24.6M 54.599998 23.4C 56.599998 29.200001 51.400002 34 46.599998 38C 41.799999 41.799999 33.400002 39.599998 30.4 34.200001C 27.200001 29 27.200001 23.4 29.4 17.6C 31.799999 12 39.200001 12.2 45.200001 12.2M 33.200001 21.4C 35 18.799999 37.799999 17.799999 41 16.799999M 12 39C 13.8 38.400002 16 39.400002 18 39C 18 39 19.4 39.200001 19 40C 17.4 44.400002 19.799999 49.400002 19 54C 19 54 19 55.200001 18 55C 16 54.799999 14 54.799999 12 55C 12 55 11 55 11 54C 11.2 49.400002 9.8 44.599998 11 40C 11 40 11 39.400002 12 39M 19 52.200001C 39 61.799999 34 60.799999 57 47.200001C 55.599998 45.200001 53.200001 44.400002 51 45.200001C 48.200001 46.599998 45.200001 47 42.400002 48M 19 41C 21 40.799999 23 40.599998 25 41C 29.6 42.200001 33 44.599998 34 45C 36.200001 45.799999 38.599998 45 41 45C 43 45 43 49.599998 41 49C 37.599998 48 33.599998 49.200001 30 49"></path><path d="M 53.223999 11.08L 53.223999 18.639999M 49.444 14.860001L 57.004002 14.860001M 46.723999 21.58L 46.723999 27.58M 43.723999 24.58L 49.723999 24.58M 54.563999 23.302C 55.495628 29.411274 52.252071 35.395073 46.624538 37.948906C 40.997009 40.502739 34.357738 39.003883 30.37319 34.280052C 26.388639 29.556227 26.030415 22.759304 29.496338 17.642807C 32.962265 12.526309 39.407196 10.337858 45.271999 12.286M 33.285999 21.452C 34.761662 18.610027 37.697754 16.826933 40.900002 16.827999M 11.996 39.045998L 17.996 39.045998C 17.996 39.045998 18.996 39.045998 18.996 40.045998L 18.996 54.045998C 18.996 54.045998 18.996 55.045998 17.996 55.045998L 11.996 55.045998C 11.996 55.045998 10.996 55.045998 10.996 54.045998L 10.996 40.045998C 10.996 40.045998 10.996 39.045998 11.996 39.045998M 19 52.169998C 40 59.169998 33 59.169998 57 47.169998C 55.617645 45.310593 53.221527 44.511887 51 45.169998L 42.368 47.903999M 19 41.045998L 25 41.045998C 29.705999 41.045998 33 45.046001 34 45.046001L 41 45.046001C 43 45.046001 43 49.046001 41 49.046001L 30 49.046001"></path></g></g></g><g id="g-root-tx_predicti_1luamr61tipcsk-stroke" data-item-order="0" data-item-id="tx_predicti_1luamr61tipcsk" data-item-class="Label Stroke SceneTarget Indexed ColorStrokeBlack" data-item-index="3" data-renderer-id="0" transform="translate(64.00100708007812, 315.9999694824219)"></g><g id="g-root-doll_djug1e1tixsld-stroke" data-item-order="0" data-item-id="doll_djug1e1tixsld" data-item-class="Icon Stroke SceneTarget Indexed ColorStrokeBlack" data-item-index="103" data-renderer-id="0" transform="translate(304.0010070800781, 315.9999694824219)"><g id="doll_djug1e1tixsld-stroke" fill="none" stroke-linecap="round" stroke-linejoin="round" stroke-miterlimit="4" stroke="#484848" stroke-width="2"><g><path d="M 25.428572 46C 29.885715 45.657143 34.342857 46 38.799999 46C 41.542858 46 44.628574 43.942856 44.285713 40.857143C 43.600002 38.114285 42.57143 35.028572 39.828571 34.685715C 36.057144 34 31.942858 34.685715 28.171429 33.314285C 25.771429 31.6 22.685715 29.885715 23.714287 27.142857C 24.742859 24.4 26.457144 22.342857 29.542856 22C 33.657143 21.657143 38.457146 23.371429 42.57143 22M 34 56.285713C 35.371429 41.542858 35.028572 26.457144 34 11.714286"></path><path d="M 25.428572 46L 38.628574 46C 41.548523 46.01215 43.997971 43.799973 44.282356 40.893879C 44.566746 37.987785 42.592628 35.34272 39.725716 34.78857L 28.274286 33.21143C 25.407375 32.65728 23.433254 30.012215 23.717644 27.106121C 24.002031 24.200029 26.451479 21.987852 29.371429 22L 42.57143 22M 34 56.285713L 34 11.714286"></path></g></g></g><g id="g-root-tx_expensiv_1cws78y1tipekv-stroke" data-item-order="0" data-item-id="tx_expensiv_1cws78y1tipekv" data-item-class="Label Stroke SceneTarget Indexed ColorStrokeBlack" data-item-index="103" data-renderer-id="0" transform="translate(364.0010070800781, 315.9999694824219)"></g><g id="g-root-fema_mgqegi1tixt71-stroke" data-item-order="0" data-item-id="fema_mgqegi1tixt71" data-item-class="Icon Stroke SceneTarget Indexed ColorStrokeBlack" data-item-index="4" data-renderer-id="0" transform="translate(4.001007080078125, 399.9999694824219)"><g id="fema_mgqegi1tixt71-stroke" fill="none" stroke-linecap="round" stroke-linejoin="round" stroke-miterlimit="4" stroke="#484848" stroke-width="2"><g><path d="M 29.6 47.799999C 29.200001 46 28.4 44.400002 28.200001 42.599998C 28.200001 41.799999 28.4 41.200001 28.200001 40.400002C 27 36.599998 24.799999 31.799999 21 33C 17.200001 34.200001 13.2 36 13.4 40.200001C 13 41 13.2 41.799999 13.4 42.599998C 13.6 44.400002 12.6 46 12 47.799999M 13.4 41.599998C 16 42.400002 18.799999 40.400002 20.799999 38.200001C 23.200001 39.799999 25.4 42.200001 28.200001 41.599998M 27.4 41.599998C 27 45.200001 24 49 20.6 47.799999C 17.4 46.599998 14.4 45 14.4 41.599998M 30.6 57C 28 51.400002 21.799999 51 15.8 52.200001C 13.8 53.400002 12.2 55.200001 11 57M 56 47.799999C 54.400002 46.599998 54.799999 44.400002 54.599998 42.599998C 54.599998 41.799999 54.400002 41 54.599998 40.400002C 56.200001 36.799999 51.400002 33.200001 47.400002 33C 43.400002 32.799999 40.200001 36.200001 40 40.200001C 40 41.200001 40 41.799999 40 42.599998C 40 44.400002 39.799999 46.200001 38.599998 47.799999M 39.799999 41.599998C 42.400002 40.599998 45.599998 40.599998 47.200001 38.200001C 48.799999 40.599998 52 42.400002 54.599998 41.599998M 53.599998 41.599998C 53 45.200001 50.400002 48.400002 46.799999 47.799999C 43.400002 47.200001 41.599998 44.799999 40.599998 41.599998M 57 57C 54.200001 51.599998 46.799999 48 42.200001 52.200001C 40.200001 53.200001 37.599998 54.799999 37.400002 57M 40.799999 29.4C 37.799999 25.4 31.799999 27.200001 27.200001 29.4M 28.4 14.2C 30.200001 16.6 33.200001 17.4 36.200001 17.6C 37.599998 17.799999 39.200001 17.200001 40.400002 16.799999M 27.6 17.6C 26.4 21 30.6 25 34 24C 37.400002 23 40.799999 21.200001 40.400002 17.6C 40 14 37.599998 11.6 34 11.2C 30.4 10.8 27.4 14 27.6 17.6"></path><path d="M 29.6 47.799999C 28.6 46.200001 28.200001 44.400002 28.200001 42.599998L 28.200001 40.400002C 28.200001 36.400002 25 33 21 33C 17 33 13.6 36 13.4 40.200001C 13.4 40.200001 13.4 40.400002 13.4 40.400002L 13.4 42.599998C 13.4 44.400002 13 46.200001 12 47.799999M 13.4 41.599998C 16.200001 41.599998 19 40.400002 20.799999 38.200001C 22.6 40.400002 25.4 41.599998 28.200001 41.599998M 27.4 41.599998C 27.200001 45.200001 24.200001 48 20.6 47.799999C 17.200001 47.599998 14.6 45 14.4 41.599998M 30.6 57C 27.799999 51.599998 21.200001 49.400002 15.8 52.200001C 13.8 53.200001 12 55 11 57M 56 47.799999C 55 46.200001 54.599998 44.400002 54.599998 42.599998L 54.599998 40.400002C 54.599998 36.400002 51.400002 33 47.400002 33C 43.400002 33 40 36.200001 40 40.200001C 40 40.200001 40 40.400002 40 40.400002L 40 42.599998C 40 44.400002 39.599998 46.200001 38.599998 47.799999M 39.799999 41.599998C 42.599998 41.599998 45.400002 40.400002 47.200001 38.200001C 49 40.400002 51.799999 41.599998 54.599998 41.599998M 53.599998 41.599998C 53.400002 45.200001 50.400002 48 46.799999 47.799999C 43.400002 47.599998 40.799999 45 40.599998 41.599998M 57 57C 54.200001 51.599998 47.599998 49.400002 42.200001 52.200001C 40.200001 53.200001 38.400002 55 37.400002 57M 40.799999 29.4C 36.799999 26.200001 31.200001 26.200001 27.200001 29.4M 28.4 14.2C 30.4 16.4 33.200001 17.6 36.200001 17.6C 37.599998 17.6 39.200001 17.4 40.400002 16.799999M 27.6 17.6C 27.6 21.134623 30.465378 24 34 24C 37.534622 24 40.400002 21.134623 40.400002 17.6C 40.400002 14.065378 37.534622 11.2 34 11.2C 30.465378 11.2 27.6 14.065378 27.6 17.6"></path></g></g></g><g id="g-root-tx_personal_1q9hnsi1tipf63-stroke" data-item-order="0" data-item-id="tx_personal_1q9hnsi1tipf63" data-item-class="Label Stroke SceneTarget Indexed ColorStrokeBlack" data-item-index="4" data-renderer-id="0" transform="translate(64.00100708007812, 399.9999694824219)"></g><g id="g-root-brok_quohbm1tixu68-stroke" data-item-order="0" data-item-id="brok_quohbm1tixu68" data-item-class="Icon Stroke SceneTarget Indexed ColorStrokeBlack" data-item-index="104" data-renderer-id="0" transform="translate(304.0010070800781, 399.9999694824219)"><g id="brok_quohbm1tixu68-stroke" fill="none" stroke-linecap="round" stroke-linejoin="round" stroke-miterlimit="4" stroke="#484848" stroke-width="2"><g><path d="M 53 39C 52.799999 43.400002 44.400002 48 34 47C 23.6 46 14.4 43.400002 15 39M 15 19C 17.799999 28.6 18.6 39.599998 15 49C 13.4 53.200001 23.799999 59 34 57C 44.200001 55 52.799999 53.400002 53 49C 53.599998 39 50.799999 28.799999 53 19M 32 16C 31 17.4 29.799999 18.6 29 20C 34 20.799999 38.599998 23.6 43 26C 41.200001 29.200001 39.799999 33 39.799999 36.599998C 41 39.799999 42.599998 43 45 45.599998M 15 19C 15 23.4 23.6 26.6 34 27C 44.400002 27.4 53.400002 23.4 53 19C 52.599998 14.6 44.400002 9.4 34 11C 23.6 12.6 15.8 14.6 15 19M 53 29C 51.799999 33.200001 44.400002 36.599998 34 37C 23.6 37.400002 16.4 33.200001 15 29"></path><path d="M 53 39C 53 43.419998 44.492001 47 34 47C 23.507999 47 15 43.419998 15 39M 15 19L 15 49C 15 53.419998 23.507999 57 34 57C 44.492001 57 53 53.419998 53 49L 53 19M 32 16L 29 20L 42.938 26.059999L 39.851997 36.613998L 45.014 45.518002M 15 19C 15 23.418278 23.50659 27 34 27C 44.493412 27 53 23.418278 53 19C 53 14.581722 44.493412 11 34 11C 23.50659 11 15 14.581722 15 19M 53 29C 53 33.419998 44.492001 37 34 37C 23.507999 37 15 33.419998 15 29"></path></g></g></g><g id="g-root-tx_datapriv_ddlp6a1tipdza-stroke" data-item-order="0" data-item-id="tx_datapriv_ddlp6a1tipdza" data-item-class="Label Stroke SceneTarget Indexed ColorStrokeBlack" data-item-index="104" data-renderer-id="0" transform="translate(364.0010070800781, 399.9999694824219)"></g></g></g></svg>