<?xml version="1.0" encoding="utf-8" standalone="yes"?>
<!DOCTYPE svg PUBLIC "-//W3C//DTD SVG 1.1//EN" "http://www.w3.org/Graphics/SVG/1.1/DTD/svg11.dtd">
<svg width="732" height="352" viewBox="0 0 732 352" style="fill:none;stroke:none;fill-rule:evenodd;clip-rule:evenodd;stroke-linecap:round;stroke-linejoin:round;stroke-miterlimit:1.5;" version="1.1" xmlns="http://www.w3.org/2000/svg" xmlns:xlink="http://www.w3.org/1999/xlink"><style id="fontImports">@import url("https://fonts.googleapis.com/css2?family=Roboto:wght@400;700&amp;display=block");</style><rect id="" x="0" y="0" width="732" height="352" style="fill: #ffffff;"></rect><g id="items" style="isolation: isolate"><g id="blend" style="mix-blend-mode:multiply"><g id="g-root-0.cu_sy_v47x371y8pgy6-fill" data-item-order="-105836" data-item-id="0.cu_sy_v47x371y8pgy6" data-item-class="ScenePart Part Indexed_0 Fill Stroke ColorFillBlack ColorStrokeBlack" data-item-index="0" data-renderer-id="0" transform="translate(295.893798828125, 263.410888671875)"><g id="0.cu_sy_v47x371y8pgy6-fill" stroke="none" fill="#666666"><g><path d="M 39.435547 68.531982C 41.182947 72.624482 46.395047 75.588982 52.565747 75.588982C 58.736447 75.588982 63.948447 72.624482 65.695847 68.531982C 61.851647 69.560082 57.358447 70.158982 52.565747 70.158982C 47.772947 70.158982 43.279747 69.560082 39.435547 68.531982ZM 26.854553 59.329101C 27.803153 65.387901 38.946253 70.159201 52.565753 70.159201C 66.185153 70.159201 77.338253 65.378001 78.276853 59.329101C 72.235953 61.045901 62.969953 62.143901 52.565753 62.143901C 42.161453 62.143901 32.885453 61.045901 26.854553 59.329101ZM 14.8427 10C 11.7473 13.5834 10 16.7176 10 18.3446C 10 19.4925 10.8787 20.5905 12.4762 21.6186C 14.5731 22.9561 15.272 25.6612 14.0338 27.8172C 13.275 29.1348 12.8757 30.2327 12.8757 30.9814C 12.8757 32.1392 13.8342 33.2472 15.5715 34.2653C 17.7283 35.523 18.577 38.258 17.3389 40.434C 16.6599 41.6218 16.3004 42.6199 16.3004 43.2987C 16.3004 44.3467 17.1592 45.3449 18.7168 46.2732C 20.8436 47.5309 21.4527 50.2858 20.3144 52.4718C 19.8551 53.3601 19.6055 54.0988 19.6055 54.6278C 19.6055 58.7802 34.3632 62.144 52.5557 62.144C 70.7482 62.144 85.5059 58.7802 85.5059 54.6278C 85.5059 54.0988 85.2662 53.3601 84.7969 52.4718C 83.6586 50.2858 84.2778 47.5309 86.3946 46.2732C 87.9522 45.3549 88.8109 44.3467 88.8109 43.2987C 88.8109 42.6199 88.4515 41.6317 87.7725 40.434C 86.5344 38.2679 87.383 35.533 89.5397 34.2653C 91.2871 33.2472 92.2357 32.1392 92.2357 30.9814C 92.2357 30.2327 91.8363 29.1348 91.0775 27.8172C 89.8393 25.6612 90.5383 22.9461 92.6352 21.6186C 94.2427 20.6005 95.1114 19.4925 95.1114 18.3446C 95.1114 16.7176 93.3441 13.5834 90.2487 10C 83.1395 13.0943 68.9309 15.2104 52.5457 15.2104C 36.1605 15.2104 21.9519 13.0943 14.8427 10Z"></path></g></g></g><g id="g-root-5.cu_sy_8xqvk31y8pgy0-fill" data-item-order="-105834" data-item-id="5.cu_sy_8xqvk31y8pgy0" data-item-class="ScenePart Part Indexed Fill Stroke ColorStrokeBlack" data-item-index="5" data-renderer-id="0" transform="translate(261.75531005859375, 171.5697021484375)"><g id="5.cu_sy_8xqvk31y8pgy0-fill" stroke="none" fill="#dd8433"><g><path d="M 129.27 35.542998C 130.488 37.429498 131.187 39.665398 131.177 42.080898C 131.157 48.698698 125.775 54.038898 119.155 54.018898C 112.535 53.998998 107.1932 48.618898 107.2132 42.001098C 107.2132 39.625398 107.9221 37.409498 109.1203 35.552898C 109.929 34.305198 109.1003 32.019398 107.6125 32.019398L 86.6143 32.019398L 65.616 32.019398C 64.1282 32.019398 63.2995 29.733698 64.1083 28.485998C 65.3064 26.629398 66.0154 24.413398 66.0154 22.037798C 66.0354 15.419998 60.6934 10.039898 54.0734 10.019953C 47.4534 9.999998 42.0716 15.340198 42.0516 21.957998C 42.0516 24.363498 42.7505 26.609398 43.9587 28.495898C 44.7675 29.743598 43.9387 32.029398 42.451 32.029398L 10 32.029398C 12.4064 34.524798 14.9326 36.900498 17.5786 39.156298C 33.6543 52.831098 43.3396 72.504898 44.0086 93.516198C 44.0785 95.662198 44.6876 97.778398 45.9557 99.505198C 46.5847 100.373598 47.3736 101.162098 48.2822 101.591298C 55.1718 104.835398 69.7498 107.071198 86.6043 107.071198C 103.4588 107.071198 118.097 104.825398 124.976 101.571398C 126.354 100.922598 127.423 99.265598 128.142 97.808298C 128.83 96.410898 129.16 94.873698 129.2 93.306598C 129.729 72.544798 138.815 52.761198 154.701 39.315998C 157.417 37.020198 160.013 34.584698 162.48 32.029398L 130.758 32.029398C 129.27 32.029398 128.441 34.315198 129.25 35.562898L 129.27 35.542998Z"></path></g></g></g><g id="g-root-5.line_sy_8xqvk31y8pgy1-fill" data-item-order="-105831" data-item-id="5.line_sy_8xqvk31y8pgy1" data-item-class="ScenePart Part Indexed Stroke ColorStrokeBlack" data-item-index="5" data-renderer-id="0" transform="translate(170, 230)"></g><g id="g-root-4.cu_sy_dcxwlf1y8pjbi-fill" data-item-order="-105830" data-item-id="4.cu_sy_dcxwlf1y8pjbi" data-item-class="ScenePart Part Indexed Fill Stroke ColorStrokeBlack" data-item-index="4" data-renderer-id="0" transform="translate(316.32293701171875, 103.794677734375)"><g id="4.cu_sy_dcxwlf1y8pjbi-fill" stroke="none" fill="#e3cd09"><g><path d="M 136.458897 10L 86.184797 10C 84.697097 10 83.868297 12.2858 84.677097 13.5335C 85.895297 15.42 86.594197 17.6559 86.584297 20.0715C 86.564297 26.6893 81.182397 32.0294 74.562397 32.0095C 67.942397 31.9895 62.600497 26.6094 62.620497 19.9916C 62.620497 17.616 63.329397 15.4001 64.527597 13.5435C 65.336297 12.2958 64.507597 10.01 63.019797 10.01L 32.036697 10.01L 32.036697 32.4187C 32.036697 33.906 29.750197 34.7344 28.501997 33.9259C 26.614897 32.7082 24.378197 32.0095 21.961897 32.0195C 15.341897 32.0394 9.999997 37.4195 10.019953 44.0373C 10.039897 50.6551 15.421797 55.9953 22.041797 55.9753C 24.418197 55.9753 26.634897 55.2666 28.491997 54.0688C 29.740197 53.2603 32.026697 54.0888 32.026697 55.5761L 32.026697 99.8146L 53.024997 99.8146C 54.512697 99.8146 55.341397 102.1004 54.532697 103.3481C 53.334497 105.2047 52.625597 107.4206 52.625597 109.7962C 52.605597 116.414 57.947497 121.794 64.567497 121.814C 71.187497 121.834 76.569397 116.494 76.589397 109.8761C 76.589397 107.4705 75.890397 105.2247 74.682297 103.3381C 73.873497 102.0904 74.702197 99.8046 76.189897 99.8046L 107.912097 99.8046C 126.333897 80.7397 137.676897 54.7975 137.676897 26.1902C 137.676897 20.6903 137.257897 15.2903 136.448897 10.02L 136.458897 10Z"></path></g></g></g><g id="g-root-4.line_sy_dcxwlf1y8pjbj-fill" data-item-order="-105827" data-item-id="4.line_sy_dcxwlf1y8pjbj" data-item-class="ScenePart Part Indexed Stroke ColorStrokeBlack" data-item-index="4" data-renderer-id="0" transform="translate(458, 134)"></g><g id="g-root-3.cu_sy_m8kwub1y8piis-fill" data-item-order="-105826" data-item-id="3.cu_sy_m8kwub1y8piis" data-item-class="ScenePart Part Indexed Fill Stroke ColorStrokeBlack" data-item-index="3" data-renderer-id="0" transform="translate(231.45111083984375, 81.7552490234375)"><g id="3.cu_sy_m8kwub1y8piis-fill" stroke="none" fill="#93c131"><g><path d="M 74.272889 118.300897C 73.054789 116.413897 72.355789 114.177897 72.365789 111.762897C 72.385789 105.144797 77.767689 99.804597 84.387589 99.824597C 91.007589 99.844597 96.349589 105.224697 96.329589 111.842897C 96.329589 114.217897 95.620689 116.433897 94.422489 118.290897C 93.613689 119.537897 94.442489 121.823897 95.930189 121.823897L 116.928889 121.823897L 116.928889 77.585497C 116.928889 76.098297 114.641889 75.269797 113.393889 76.078297C 111.536889 77.276097 109.319989 77.984797 106.943589 77.984797C 100.323589 78.004797 94.941689 72.664597 94.921689 66.046797C 94.901789 59.428997 100.243689 54.048897 106.863689 54.028897C 109.270089 54.028897 111.516889 54.727597 113.403889 55.935397C 114.651889 56.743897 116.938889 55.915397 116.938889 54.428197L 116.938889 32.019397L 85.955289 32.019397C 84.467489 32.019397 83.638789 29.733697 84.447589 28.485997C 85.645689 26.629397 86.354589 24.413497 86.354589 22.037797C 86.374589 15.419997 81.032689 10.039897 74.412689 10.019953C 67.792689 9.999997 62.410789 15.340197 62.390889 21.957997C 62.390889 24.363497 63.089789 26.609397 64.297989 28.495897C 65.106789 29.743597 64.277989 32.029397 62.790289 32.029397L 11.797289 32.029397C 11.088389 36.630997 10.668989 41.322297 10.569189 46.093497C 9.999989 75.529297 21.442689 102.290097 40.314189 121.823897L 72.765189 121.823897C 74.252889 121.823897 75.081689 119.537897 74.272889 118.290897L 74.272889 118.300897Z"></path></g></g></g><g id="g-root-3.line_sy_m8kwub1y8piit-fill" data-item-order="-105823" data-item-id="3.line_sy_m8kwub1y8piit" data-item-class="ScenePart Part Indexed Stroke ColorStrokeBlack" data-item-index="3" data-renderer-id="0" transform="translate(170, 134)"></g><g id="g-root-2.cu_sy_qoeeyr1y8phqh-fill" data-item-order="-105822" data-item-id="2.cu_sy_qoeeyr1y8phqh" data-item-class="ScenePart Part Indexed Fill Stroke ColorStrokeBlack" data-item-index="2" data-renderer-id="0" transform="translate(338.379638671875, 14)"><g id="2.cu_sy_qoeeyr1y8phqh-fill" stroke="none" fill="#17b0e3"><g><path d="M 13.5246 45.834C 15.4118 44.6163 17.6484 43.9175 20.0647 43.9275C 26.6847 43.9475 32.0267 49.3276 32.0067 55.9454C 31.9868 62.5632 26.6049 67.9034 19.9849 67.8834C 17.6085 67.8834 15.3918 67.1747 13.5346 65.9769C 12.2865 65.1684 10 65.9969 10 67.4842L 10 99.8046L 40.9832 99.8046C 42.4709 99.8046 43.2997 102.0904 42.4909 103.3381C 41.2927 105.1947 40.5837 107.4106 40.5837 109.7863C 40.5638 116.404 45.9057 121.784 52.5257 121.804C 59.1457 121.824 64.5276 116.484 64.5475 109.8661C 64.5475 107.4605 63.8486 105.2147 62.6404 103.3282C 61.8317 102.0805 62.6604 99.7947 64.1482 99.7947L 114.422 99.7947C 106.654 49.0581 62.89 10.1797 10.0099 10L 10.0099 44.3268C 10.0099 45.8141 12.2965 46.6425 13.5446 45.834L 13.5246 45.834Z"></path></g></g></g><g id="g-root-2.line_sy_qoeeyr1y8phqi-fill" data-item-order="-105819" data-item-id="2.line_sy_qoeeyr1y8phqi" data-item-class="ScenePart Part Indexed Stroke ColorStrokeBlack" data-item-index="2" data-renderer-id="0" transform="translate(422, 26)"></g><g id="g-root-1.cu_sy_v47x371y8pgy7-fill" data-item-order="-105816" data-item-id="1.cu_sy_v47x371y8pgy7" data-item-class="ScenePart Part Indexed Indexed_1 Fill Stroke ColorStrokeBlack" data-item-index="1" data-renderer-id="0" transform="translate(233.2384033203125, 14)"><g id="1.cu_sy_v47x371y8pgy7-fill" stroke="none" fill="#3bc482"><g><path d="M 62.5007 96.2612C 61.2825 94.3746 60.5836 92.1388 60.5936 89.7232C 60.6136 83.1054 65.9954 77.7652 72.6154 77.7852C 79.2354 77.8052 84.5774 83.1852 84.5574 89.8031C 84.5574 92.1787 83.8484 94.3946 82.6502 96.2512C 81.8415 97.4989 82.6702 99.7847 84.158 99.7847L 115.141 99.7847L 115.141 67.4642C 115.141 65.9769 117.428 65.1485 118.676 65.957C 120.533 67.1548 122.75 67.8635 125.126 67.8635C 131.746 67.8834 137.128 62.5433 137.148 55.9254C 137.168 49.3076 131.826 43.9275 125.206 43.9076C 122.8 43.9076 120.553 44.6063 118.666 45.8141C 117.418 46.6226 115.131 45.7941 115.131 44.3068L 115.131 10C 114.502 10 113.883 10 113.254 10C 61.1627 10.7287 17.7683 49.5771 10 99.7847L 60.993 99.7847C 62.4807 99.7847 63.3095 97.4989 62.5007 96.2512L 62.5007 96.2612Z"></path></g></g></g><g id="g-root-1.line_sy_qoeeyr1y8phqg-fill" data-item-order="-105813" data-item-id="1.line_sy_qoeeyr1y8phqg" data-item-class="ScenePart Part Indexed Indexed_1 Stroke ColorStrokeBlack" data-item-index="1" data-renderer-id="0" transform="translate(170, 26)"></g><g id="g-root-tx_healthca_1hckdvn1y8pgqz-fill" data-item-order="0" data-item-id="tx_healthca_1hckdvn1y8pgqz" data-item-class="Label Stroke SceneTarget Indexed Indexed_1 ColorStrokeBlack" data-item-index="1" data-renderer-id="0" transform="translate(2, 14)"><g id="tx_healthca_1hckdvn1y8pgqz-fill" stroke="none" fill="#666666"><g><text style="font: 20px Roboto, sans-serif; white-space: pre;"><tspan x="19.33" y="34" dominant-baseline="ideographic">Healthcare</tspan></text></g></g></g><g id="g-root-rate_1d159ab1ysj18l-fill" data-item-order="0" data-item-id="rate_1d159ab1ysj18l" data-item-class="Icon Stroke SceneTarget Indexed Indexed_1 ColorStrokeBlack" data-item-index="1" data-renderer-id="0" transform="translate(122, 8)"></g><g id="g-root-driv_1q7kx1f1y8v4ld-fill" data-item-order="0" data-item-id="driv_1q7kx1f1y8v4ld" data-item-class="Icon Stroke SceneTarget Indexed ColorStrokeBlack" data-item-index="2" data-renderer-id="0" transform="translate(518, 8)"></g><g id="g-root-tx_autonomo_detbur1y8pibz-fill" data-item-order="0" data-item-id="tx_autonomo_detbur1y8pibz" data-item-class="Label Stroke SceneTarget Indexed ColorStrokeBlack" data-item-index="2" data-renderer-id="0" transform="translate(566, 2)"><g id="tx_autonomo_detbur1y8pibz-fill" stroke="none" fill="#666666"><g><text style="font: 20px Roboto, sans-serif; white-space: pre;"><tspan x="12" y="34" dominant-baseline="ideographic">Autonomous </tspan><tspan x="12" y="58" dominant-baseline="ideographic">Vehicles</tspan></text></g></g></g><g id="g-root-tx_retail_1cwqvr71y8phj8-fill" data-item-order="0" data-item-id="tx_retail_1cwqvr71y8phj8" data-item-class="Label Stroke SceneTarget Indexed ColorStrokeBlack" data-item-index="3" data-renderer-id="0" transform="translate(50, 122)"><g id="tx_retail_1cwqvr71y8phj8-fill" stroke="none" fill="#666666"><g><text style="font: 20px Roboto, sans-serif; white-space: pre;"><tspan x="17.96" y="34" dominant-baseline="ideographic">Retail</tspan></text></g></g></g><g id="g-root-cart_detbur1y8whzj-fill" data-item-order="0" data-item-id="cart_detbur1y8whzj" data-item-class="Icon Stroke SceneTarget Indexed ColorStrokeBlack" data-item-index="3" data-renderer-id="0" transform="translate(122, 116)"></g><g id="g-root-plan_4hxdfn1y8v37k-fill" data-item-order="0" data-item-id="plan_4hxdfn1y8v37k" data-item-class="Icon Stroke SceneTarget Indexed ColorStrokeBlack" data-item-index="4" data-renderer-id="0" transform="translate(518, 116)"></g><g id="g-root-tx_manufact_qq9u831y8pgr2-fill" data-item-order="0" data-item-id="tx_manufact_qq9u831y8pgr2" data-item-class="Label Stroke SceneTarget Indexed ColorStrokeBlack" data-item-index="4" data-renderer-id="0" transform="translate(566, 122)"><g id="tx_manufact_qq9u831y8pgr2-fill" stroke="none" fill="#666666"><g><text style="font: 20px Roboto, sans-serif; white-space: pre;"><tspan x="12" y="34" dominant-baseline="ideographic">Manufacturing</tspan></text></g></g></g><g id="g-root-tx_agricult_1413vib1y8pibx-fill" data-item-order="0" data-item-id="tx_agricult_1413vib1y8pibx" data-item-class="Label Stroke SceneTarget Indexed ColorStrokeBlack" data-item-index="5" data-renderer-id="0" transform="translate(2, 230)"><g id="tx_agricult_1413vib1y8pibx-fill" stroke="none" fill="#666666"><g><text style="font: 20px Roboto, sans-serif; white-space: pre;"><tspan x="19.02" y="34" dominant-baseline="ideographic">Agriculture</tspan></text></g></g></g><g id="g-root-3_qoeeyr1y8v37z-fill" data-item-order="0" data-item-id="3_qoeeyr1y8v37z" data-item-class="Icon Stroke SceneTarget Indexed ColorStrokeBlack" data-item-index="5" data-renderer-id="0" transform="translate(122, 224)"></g><g id="g-root-0.cu_sy_v47x371y8pgy6-stroke" data-item-order="-105836" data-item-id="0.cu_sy_v47x371y8pgy6" data-item-class="ScenePart Part Indexed_0 Fill Stroke ColorFillBlack ColorStrokeBlack" data-item-index="0" data-renderer-id="0" transform="translate(295.893798828125, 263.410888671875)"><g id="0.cu_sy_v47x371y8pgy6-stroke" fill="none" stroke-linecap="round" stroke-linejoin="round" stroke-miterlimit="4" stroke="#2c2c2c" stroke-width="2"><g><path d="M 39.435547 68.531982C 41.182947 72.624482 46.395047 75.588982 52.565747 75.588982C 58.736447 75.588982 63.948447 72.624482 65.695847 68.531982C 61.851647 69.560082 57.358447 70.158982 52.565747 70.158982C 47.772947 70.158982 43.279747 69.560082 39.435547 68.531982ZM 26.854553 59.329101C 27.803153 65.387901 38.946253 70.159201 52.565753 70.159201C 66.185153 70.159201 77.338253 65.378001 78.276853 59.329101C 72.235953 61.045901 62.969953 62.143901 52.565753 62.143901C 42.161453 62.143901 32.885453 61.045901 26.854553 59.329101ZM 14.8427 10C 11.7473 13.5834 10 16.7176 10 18.3446C 10 19.4925 10.8787 20.5905 12.4762 21.6186C 14.5731 22.9561 15.272 25.6612 14.0338 27.8172C 13.275 29.1348 12.8757 30.2327 12.8757 30.9814C 12.8757 32.1392 13.8342 33.2472 15.5715 34.2653C 17.7283 35.523 18.577 38.258 17.3389 40.434C 16.6599 41.6218 16.3004 42.6199 16.3004 43.2987C 16.3004 44.3467 17.1592 45.3449 18.7168 46.2732C 20.8436 47.5309 21.4527 50.2858 20.3144 52.4718C 19.8551 53.3602 19.6055 54.0988 19.6055 54.6278C 19.6055 58.7802 34.3632 62.144 52.5557 62.144C 70.7482 62.144 85.5059 58.7802 85.5059 54.6278C 85.5059 54.0988 85.2662 53.3602 84.7969 52.4718C 83.6586 50.2858 84.2778 47.5309 86.3946 46.2732C 87.9522 45.3549 88.8109 44.3467 88.8109 43.2987C 88.8109 42.6199 88.4515 41.6317 87.7725 40.434C 86.5344 38.2679 87.383 35.533 89.5397 34.2653C 91.2871 33.2472 92.2357 32.1392 92.2357 30.9814C 92.2357 30.2327 91.8363 29.1348 91.0775 27.8172C 89.8393 25.6612 90.5383 22.9461 92.6352 21.6186C 94.2427 20.6005 95.1114 19.4925 95.1114 18.3446C 95.1114 16.7176 93.3441 13.5834 90.2487 10C 83.1395 13.0943 68.9309 15.2104 52.5457 15.2104C 36.1605 15.2104 21.9519 13.0943 14.8427 10ZM 16.300415 43.298584C 16.300415 47.870184 32.535915 51.573384 52.565715 51.573384C 72.595415 51.573384 88.830815 47.870184 88.830815 43.298584M 12.875671 30.991455C 12.875671 35.992255 30.648771 40.044755 52.565671 40.044755C 74.482571 40.044755 92.255771 35.992255 92.255771 30.991455M 10 18.344482C 10 23.704582 29.0612 28.056582 52.5657 28.056582C 76.0702 28.056582 95.1314 23.704582 95.1314 18.344482"></path></g></g></g><g id="g-root-5.cu_sy_8xqvk31y8pgy0-stroke" data-item-order="-105834" data-item-id="5.cu_sy_8xqvk31y8pgy0" data-item-class="ScenePart Part Indexed Fill Stroke ColorStrokeBlack" data-item-index="5" data-renderer-id="0" transform="translate(261.75531005859375, 171.5697021484375)"><g id="5.cu_sy_8xqvk31y8pgy0-stroke" fill="none" stroke-linecap="round" stroke-linejoin="round" stroke-miterlimit="4" stroke="#2c2c2c" stroke-width="2"><g><path d="M 129.2698 35.542998C 130.488 37.429498 131.1869 39.665398 131.177 42.080898C 131.157 48.698698 125.7751 54.038898 119.1551 54.018898C 112.5351 53.998998 107.1932 48.618898 107.2132 42.001098C 107.2132 39.625398 107.9221 37.409498 109.1203 35.552898C 109.929 34.305198 109.1003 32.019398 107.6125 32.019398L 86.6143 32.019398L 65.616 32.019398C 64.1282 32.019398 63.2995 29.733698 64.1083 28.485998C 65.3064 26.629398 66.0154 24.413398 66.0154 22.037798C 66.0354 15.419998 60.6934 10.039898 54.0734 10.019998C 47.4534 9.999998 42.0716 15.340198 42.0516 21.957998C 42.0516 24.363498 42.7505 26.609398 43.9587 28.495898C 44.7675 29.743598 43.9387 32.029398 42.451 32.029398L 10 32.029398C 12.4064 34.524798 14.9326 36.900498 17.5786 39.156298C 33.6543 52.831098 43.3396 72.504898 44.0086 93.516198C 44.0785 95.662298 44.6876 97.778398 45.9557 99.505198C 46.5847 100.373598 47.3736 101.162098 48.2822 101.591298C 55.1718 104.835398 69.7498 107.071198 86.6043 107.071198C 103.4588 107.071198 118.0967 104.825398 124.9763 101.571398C 126.3542 100.922598 127.4226 99.265598 128.1415 97.808298C 128.8305 96.410898 129.16 94.873698 129.1999 93.306598C 129.7291 72.544798 138.8154 52.761198 154.7014 39.315998C 157.4173 37.020198 160.0134 34.584698 162.4797 32.029398L 130.7576 32.029398C 129.2698 32.029398 128.4411 34.315198 129.2499 35.562898L 129.2698 35.542998Z"></path></g></g></g><g id="g-root-5.line_sy_8xqvk31y8pgy1-stroke" data-item-order="-105831" data-item-id="5.line_sy_8xqvk31y8pgy1" data-item-class="ScenePart Part Indexed Stroke ColorStrokeBlack" data-item-index="5" data-renderer-id="0" transform="translate(170, 230)"><g id="5.line_sy_8xqvk31y8pgy1-stroke" fill="none" stroke-linecap="round" stroke-linejoin="round" stroke-miterlimit="4" stroke="#666666" stroke-width="2"><g><path d="M 10 22.000034L 100 22.000034L 110.59 11.410034"></path><path d="M 110.9 20.210034L 110.9 11.110034L 101.7 11.110034" stroke-dasharray="none"></path></g></g></g><g id="g-root-4.cu_sy_dcxwlf1y8pjbi-stroke" data-item-order="-105830" data-item-id="4.cu_sy_dcxwlf1y8pjbi" data-item-class="ScenePart Part Indexed Fill Stroke ColorStrokeBlack" data-item-index="4" data-renderer-id="0" transform="translate(316.32293701171875, 103.794677734375)"><g id="4.cu_sy_dcxwlf1y8pjbi-stroke" fill="none" stroke-linecap="round" stroke-linejoin="round" stroke-miterlimit="4" stroke="#2c2c2c" stroke-width="2"><g><path d="M 136.458897 10L 86.184797 10C 84.697097 10 83.868297 12.2858 84.677097 13.5335C 85.895297 15.42 86.594197 17.6559 86.584297 20.0715C 86.564297 26.6893 81.182397 32.0294 74.562397 32.0095C 67.942397 31.9895 62.600497 26.6094 62.620497 19.9916C 62.620497 17.616 63.329397 15.4001 64.527597 13.5435C 65.336297 12.2958 64.507597 10.01 63.019797 10.01L 32.036697 10.01L 32.036697 32.4187C 32.036697 33.906 29.750197 34.7344 28.501997 33.9259C 26.614897 32.7082 24.378197 32.0095 21.961897 32.0195C 15.341897 32.0394 9.999997 37.4195 10.019997 44.0373C 10.039897 50.6551 15.421797 55.9953 22.041797 55.9753C 24.418197 55.9753 26.634897 55.2666 28.491997 54.0688C 29.740197 53.2603 32.026697 54.0888 32.026697 55.5761L 32.026697 99.8146L 53.024997 99.8146C 54.512697 99.8146 55.341397 102.1004 54.532697 103.3481C 53.334497 105.2047 52.625597 107.4206 52.625597 109.7962C 52.605597 116.4141 57.947497 121.7941 64.567497 121.8141C 71.187497 121.8341 76.569397 116.4939 76.589397 109.8761C 76.589397 107.4705 75.890397 105.2247 74.682297 103.3381C 73.873497 102.0904 74.702197 99.8046 76.189897 99.8046L 107.912097 99.8046C 126.334297 80.7397 137.677097 54.7975 137.677097 26.1902C 137.677097 20.6903 137.257697 15.2903 136.448897 10.02L 136.458897 10Z"></path></g></g></g><g id="g-root-4.line_sy_dcxwlf1y8pjbj-stroke" data-item-order="-105827" data-item-id="4.line_sy_dcxwlf1y8pjbj" data-item-class="ScenePart Part Indexed Stroke ColorStrokeBlack" data-item-index="4" data-renderer-id="0" transform="translate(458, 134)"><g id="4.line_sy_dcxwlf1y8pjbj-stroke" fill="none" stroke-linecap="round" stroke-linejoin="round" stroke-miterlimit="4" stroke="#666666" stroke-width="2"><g><path d="M 58 10L 12 10"></path><path d="M 18 3.5L 11.5 10L 18 16.5" stroke-dasharray="none"></path></g></g></g><g id="g-root-3.cu_sy_m8kwub1y8piis-stroke" data-item-order="-105826" data-item-id="3.cu_sy_m8kwub1y8piis" data-item-class="ScenePart Part Indexed Fill Stroke ColorStrokeBlack" data-item-index="3" data-renderer-id="0" transform="translate(231.45111083984375, 81.7552490234375)"><g id="3.cu_sy_m8kwub1y8piis-stroke" fill="none" stroke-linecap="round" stroke-linejoin="round" stroke-miterlimit="4" stroke="#2c2c2c" stroke-width="2"><g><path d="M 74.272889 118.300597C 73.054789 116.414097 72.355789 114.178197 72.365789 111.762597C 72.385789 105.144797 77.767589 99.804597 84.387589 99.824597C 91.007589 99.844597 96.349589 105.224697 96.329589 111.842497C 96.329589 114.218097 95.620689 116.433997 94.422489 118.290597C 93.613689 119.538297 94.442489 121.824097 95.930189 121.824097L 116.928489 121.824097L 116.928489 77.585497C 116.928489 76.098297 114.641889 75.269797 113.393789 76.078297C 111.536589 77.276097 109.319989 77.984797 106.943589 77.984797C 100.323589 78.004797 94.941689 72.664597 94.921689 66.046797C 94.901689 59.428997 100.243689 54.048897 106.863689 54.028897C 109.270089 54.028897 111.516689 54.727597 113.403789 55.935397C 114.651889 56.743897 116.938389 55.915397 116.938389 54.428197L 116.938389 32.019397L 85.955289 32.019397C 84.467489 32.019397 83.638789 29.733697 84.447589 28.485997C 85.645689 26.629397 86.354589 24.413497 86.354589 22.037797C 86.374589 15.419997 81.032689 10.039897 74.412689 10.019997C 67.792689 9.999997 62.410789 15.340197 62.390889 21.957997C 62.390889 24.363497 63.089789 26.609397 64.297989 28.495897C 65.106789 29.743597 64.277989 32.029397 62.790289 32.029397L 11.797289 32.029397C 11.088389 36.630997 10.668989 41.322297 10.569189 46.093497C 9.999989 75.529297 21.442689 102.290097 40.314189 121.824097L 72.765189 121.824097C 74.252889 121.824097 75.081689 119.538297 74.272889 118.290597L 74.272889 118.300597Z"></path></g></g></g><g id="g-root-3.line_sy_m8kwub1y8piit-stroke" data-item-order="-105823" data-item-id="3.line_sy_m8kwub1y8piit" data-item-class="ScenePart Part Indexed Stroke ColorStrokeBlack" data-item-index="3" data-renderer-id="0" transform="translate(170, 134)"><g id="3.line_sy_m8kwub1y8piit-stroke" fill="none" stroke-linecap="round" stroke-linejoin="round" stroke-miterlimit="4" stroke="#666666" stroke-width="2"><g><path d="M 10 10L 56.5 10"></path><path d="M 50.5 16.5L 57 10L 50.5 3.5" stroke-dasharray="none"></path></g></g></g><g id="g-root-2.cu_sy_qoeeyr1y8phqh-stroke" data-item-order="-105822" data-item-id="2.cu_sy_qoeeyr1y8phqh" data-item-class="ScenePart Part Indexed Fill Stroke ColorStrokeBlack" data-item-index="2" data-renderer-id="0" transform="translate(338.379638671875, 14)"><g id="2.cu_sy_qoeeyr1y8phqh-stroke" fill="none" stroke-linecap="round" stroke-linejoin="round" stroke-miterlimit="4" stroke="#2c2c2c" stroke-width="2"><g><path d="M 13.5246 45.834C 15.4118 44.6163 17.6484 43.9175 20.0647 43.9275C 26.6847 43.9475 32.0267 49.3276 32.0067 55.9454C 31.9868 62.5632 26.6049 67.9034 19.9849 67.8834C 17.6085 67.8834 15.3918 67.1747 13.5346 65.9769C 12.2865 65.1684 10 65.9969 10 67.4842L 10 99.8046L 40.9832 99.8046C 42.4709 99.8046 43.2997 102.0904 42.4909 103.3381C 41.2927 105.1947 40.5837 107.4106 40.5837 109.7863C 40.5638 116.4041 45.9057 121.7842 52.5257 121.8041C 59.1457 121.8241 64.5276 116.4839 64.5475 109.8661C 64.5475 107.4605 63.8486 105.2147 62.6404 103.3282C 61.8317 102.0805 62.6604 99.7947 64.1482 99.7947L 114.4222 99.7947C 106.654 49.0581 62.89 10.1797 10.0099 10L 10.0099 44.3268C 10.0099 45.8141 12.2965 46.6425 13.5446 45.834L 13.5246 45.834Z"></path></g></g></g><g id="g-root-2.line_sy_qoeeyr1y8phqi-stroke" data-item-order="-105819" data-item-id="2.line_sy_qoeeyr1y8phqi" data-item-class="ScenePart Part Indexed Stroke ColorStrokeBlack" data-item-index="2" data-renderer-id="0" transform="translate(422, 26)"><g id="2.line_sy_qoeeyr1y8phqi-stroke" fill="none" stroke-linecap="round" stroke-linejoin="round" stroke-miterlimit="4" stroke="#666666" stroke-width="2"><g><path d="M 94.000034 10L 22.000034 10L 11.410034 20.59"></path><path d="M 11.110034 11.7L 11.110034 20.9L 20.210034 20.9" stroke-dasharray="none"></path></g></g></g><g id="g-root-1.cu_sy_v47x371y8pgy7-stroke" data-item-order="-105816" data-item-id="1.cu_sy_v47x371y8pgy7" data-item-class="ScenePart Part Indexed Indexed_1 Fill Stroke ColorStrokeBlack" data-item-index="1" data-renderer-id="0" transform="translate(233.2384033203125, 14)"><g id="1.cu_sy_v47x371y8pgy7-stroke" fill="none" stroke-linecap="round" stroke-linejoin="round" stroke-miterlimit="4" stroke="#2c2c2c" stroke-width="2"><g><path d="M 62.5007 96.2612C 61.2825 94.3746 60.5836 92.1388 60.5936 89.7232C 60.6136 83.1054 65.9954 77.7652 72.6154 77.7852C 79.2354 77.8052 84.5774 83.1852 84.5574 89.8031C 84.5574 92.1787 83.8484 94.3946 82.6502 96.2512C 81.8415 97.4989 82.6702 99.7847 84.158 99.7847L 115.1412 99.7847L 115.1412 67.4642C 115.1412 65.9769 117.4277 65.1485 118.6758 65.957C 120.533 67.1548 122.7497 67.8635 125.1261 67.8635C 131.7461 67.8834 137.1279 62.5433 137.1479 55.9254C 137.1679 49.3076 131.8259 43.9275 125.2059 43.9076C 122.7996 43.9076 120.553 44.6063 118.6658 45.8141C 117.4177 46.6226 115.1312 45.7941 115.1312 44.3068L 115.1312 10C 114.5021 10 113.8831 10 113.254 10C 61.1627 10.7287 17.7683 49.5771 10 99.7847L 60.993 99.7847C 62.4807 99.7847 63.3095 97.4989 62.5007 96.2512L 62.5007 96.2612Z"></path></g></g></g><g id="g-root-1.line_sy_qoeeyr1y8phqg-stroke" data-item-order="-105813" data-item-id="1.line_sy_qoeeyr1y8phqg" data-item-class="ScenePart Part Indexed Indexed_1 Stroke ColorStrokeBlack" data-item-index="1" data-renderer-id="0" transform="translate(170, 26)"><g id="1.line_sy_qoeeyr1y8phqg-stroke" fill="none" stroke-linecap="round" stroke-linejoin="round" stroke-miterlimit="4" stroke="#666666" stroke-width="2"><g><path d="M 10 10L 82 10L 92.59 20.59"></path><path d="M 83.7 20.9L 92.9 20.9L 92.9 11.7" stroke-dasharray="none"></path></g></g></g><g id="g-root-tx_healthca_1hckdvn1y8pgqz-stroke" data-item-order="0" data-item-id="tx_healthca_1hckdvn1y8pgqz" data-item-class="Label Stroke SceneTarget Indexed Indexed_1 ColorStrokeBlack" data-item-index="1" data-renderer-id="0" transform="translate(2, 14)"></g><g id="g-root-rate_1d159ab1ysj18l-stroke" data-item-order="0" data-item-id="rate_1d159ab1ysj18l" data-item-class="Icon Stroke SceneTarget Indexed Indexed_1 ColorStrokeBlack" data-item-index="1" data-renderer-id="0" transform="translate(122, 8)"><g id="rate_1d159ab1ysj18l-stroke" fill="none" stroke-linecap="round" stroke-linejoin="round" stroke-miterlimit="4" stroke="#666666" stroke-width="2"><g><path d="M 11.491428 21.082857C 12.802857 14.757143 20.594286 10 28 18.408571C 38.568569 6.297143 49.857143 21.314285 42.194286 29.054285L 28 42.142857L 19.694286 34.42857M 11.285714 28L 17.714285 28L 21.571428 22.857143L 26.714285 31.857143L 30.571428 26.714285L 34.42857 26.714285"></path></g></g></g><g id="g-root-driv_1q7kx1f1y8v4ld-stroke" data-item-order="0" data-item-id="driv_1q7kx1f1y8v4ld" data-item-class="Icon Stroke SceneTarget Indexed ColorStrokeBlack" data-item-index="2" data-renderer-id="0" transform="translate(518, 8)"><g id="driv_1q7kx1f1y8v4ld-stroke" fill="none" stroke-linecap="round" stroke-linejoin="round" stroke-miterlimit="4" stroke="#666666" stroke-width="2"><g><path d="M 39.365501 24.76C 42.059677 31.230217 39.747513 38.701469 33.869591 42.518837C 27.991671 46.336205 20.225855 45.410015 15.410593 40.317322C 10.595331 35.224628 10.105149 27.419155 14.245452 21.764053C 18.385756 16.108953 25.974684 14.218488 32.284 17.2705M 16.3915 27.2215C 19.55999 26.784554 22.752747 26.546585 25.951 26.509001C 29.149755 26.546541 32.343014 26.784508 35.512001 27.2215M 15.985 31.5205C 20.657499 30.5965 23.615499 35.509003 23.615499 40.130501M 35.923 31.5205C 31.2505 30.5965 28.288 35.509003 28.288 40.130501M 36.380501 20.518L 38.8885 12.16C 39.166824 11.530555 39.790268 11.124552 40.4785 11.124552C 41.166733 11.124552 41.79018 11.530555 42.068501 12.16L 44.574997 20.518M 37.404999 17.102501L 43.552002 17.102501M 15.893499 30.3475C 15.892639 35.90271 20.395786 40.406555 25.951 40.406555C 31.506212 40.406555 36.009361 35.90271 36.008499 30.3475C 36.009361 24.792286 31.506212 20.288441 25.951 20.288441C 20.395786 20.288441 15.892639 24.792286 15.893499 30.3475"></path></g></g></g><g id="g-root-tx_autonomo_detbur1y8pibz-stroke" data-item-order="0" data-item-id="tx_autonomo_detbur1y8pibz" data-item-class="Label Stroke SceneTarget Indexed ColorStrokeBlack" data-item-index="2" data-renderer-id="0" transform="translate(566, 2)"></g><g id="g-root-tx_retail_1cwqvr71y8phj8-stroke" data-item-order="0" data-item-id="tx_retail_1cwqvr71y8phj8" data-item-class="Label Stroke SceneTarget Indexed ColorStrokeBlack" data-item-index="3" data-renderer-id="0" transform="translate(50, 122)"></g><g id="g-root-cart_detbur1y8whzj-stroke" data-item-order="0" data-item-id="cart_detbur1y8whzj" data-item-class="Icon Stroke SceneTarget Indexed ColorStrokeBlack" data-item-index="3" data-renderer-id="0" transform="translate(122, 116)"><g id="cart_detbur1y8whzj-stroke" fill="none" stroke-linecap="round" stroke-linejoin="round" stroke-miterlimit="4" stroke="#666666" stroke-width="2"><g><path d="M 22.555 42.980499C 22.555 44.23391 23.571091 45.250004 24.824501 45.250004C 26.077911 45.250004 27.094002 44.23391 27.094002 42.980503C 27.094002 41.727089 26.077911 40.711002 24.824501 40.711002C 23.571091 40.711002 22.555 41.727089 22.555 42.980503M 31.632999 42.980499C 31.633001 44.23391 32.64909 45.250004 33.9025 45.250004C 35.15591 45.250004 36.172001 44.23391 36.172001 42.980503C 36.172001 41.727089 35.15591 40.711002 33.9025 40.711002C 32.64909 40.711002 31.633001 41.727089 31.633001 42.980503M 32.5 26.186501L 39.197502 26.186501M 45.25 19L 43.993 19C 42.759304 19.000448 41.679932 19.829977 41.362 21.021999L 37.439499 35.732502C 37.228516 36.528542 36.508026 37.082764 35.684502 37.0825L 22.591 37.0825M 16.568501 16.568501C 18.32575 14.811781 21.174252 14.811781 22.931499 16.568501M 13.3855 13.3855C 16.900341 9.870063 22.599659 9.870063 26.1145 13.3855M 28.75 21.25L 28.75 31.75C 28.75 31.75 28.75 33.25 27.25 33.25L 12.25 33.25C 12.25 33.25 10.75 33.25 10.75 31.75L 10.75 21.25C 10.75 21.25 10.75 19.75 12.25 19.75L 27.25 19.75C 27.25 19.75 28.75 19.75 28.75 21.25M 28.75 24.25L 10.75 24.25M 23.5 29.5L 25.75 29.5"></path></g></g></g><g id="g-root-plan_4hxdfn1y8v37k-stroke" data-item-order="0" data-item-id="plan_4hxdfn1y8v37k" data-item-class="Icon Stroke SceneTarget Indexed ColorStrokeBlack" data-item-index="4" data-renderer-id="0" transform="translate(518, 116)"><g id="plan_4hxdfn1y8v37k-stroke" fill="none" stroke-linecap="round" stroke-linejoin="round" stroke-miterlimit="4" stroke="#666666" stroke-width="2"><g><path d="M 18.586 20.683001L 26.0215 20.683001L 26.0215 27.3715L 18.586 27.3715ZM 30.407499 20.683001L 37.843002 20.683001L 37.843002 27.3715L 30.407499 27.3715ZM 15.5815 30.807999C 15.5815 32.706169 17.119831 34.245171 19.018002 34.246002L 37.278999 34.245998C 38.524128 34.272011 39.685966 33.622623 40.316162 32.548439C 40.94635 31.474253 40.94635 30.143248 40.316162 29.069065C 39.685966 27.994879 38.524128 27.345491 37.278999 27.3715L 19.018 27.3715C 17.120073 27.371498 15.5815 28.910072 15.5815 30.807999ZM 34.364502 30.807999C 34.364502 31.18742 34.672081 31.494999 35.051498 31.494999C 35.43092 31.494999 35.738503 31.18742 35.738503 30.807999C 35.738503 30.428581 35.43092 30.121 35.051498 30.121C 34.672081 30.121 34.364502 30.428581 34.364502 30.807999M 27.432999 30.807999C 27.432999 31.18742 27.740582 31.494999 28.119999 31.494999C 28.49942 31.494999 28.806999 31.18742 28.806999 30.807999C 28.806999 30.428581 28.49942 30.121 28.119999 30.121C 27.740582 30.121 27.432999 30.428581 27.432999 30.807999M 20.5585 30.807999C 20.5585 31.18742 20.866081 31.494999 21.245501 31.494999C 21.62492 31.494999 21.932499 31.18742 21.932499 30.807999C 21.932499 30.428581 21.62492 30.121 21.245501 30.121C 20.866081 30.121 20.5585 30.428581 20.5585 30.807999M 45.25 10.75C 44.354431 13.437334 41.839634 15.250019 39.007004 15.25L 13.75 15.25C 12.095198 15.254942 10.754942 16.595198 10.75 18.25L 10.75 42.25C 10.75 40.593143 12.093145 39.25 13.75 39.25L 39.007 39.25C 41.839634 39.250019 44.354431 37.437336 45.25 34.75ZM 10.75 42.25C 10.75 43.906857 12.093145 45.25 13.75 45.25L 25 45.25C 25.828428 45.25 26.5 44.578426 26.5 43.75L 26.5 39.25"></path></g></g></g><g id="g-root-tx_manufact_qq9u831y8pgr2-stroke" data-item-order="0" data-item-id="tx_manufact_qq9u831y8pgr2" data-item-class="Label Stroke SceneTarget Indexed ColorStrokeBlack" data-item-index="4" data-renderer-id="0" transform="translate(566, 122)"></g><g id="g-root-tx_agricult_1413vib1y8pibx-stroke" data-item-order="0" data-item-id="tx_agricult_1413vib1y8pibx" data-item-class="Label Stroke SceneTarget Indexed ColorStrokeBlack" data-item-index="5" data-renderer-id="0" transform="translate(2, 230)"></g><g id="g-root-3_qoeeyr1y8v37z-stroke" data-item-order="0" data-item-id="3_qoeeyr1y8v37z" data-item-class="Icon Stroke SceneTarget Indexed ColorStrokeBlack" data-item-index="5" data-renderer-id="0" transform="translate(122, 224)"><g id="3_qoeeyr1y8v37z-stroke" fill="none" stroke-linecap="round" stroke-linejoin="round" stroke-miterlimit="4" stroke="#666666" stroke-width="2"><g><path d="M 42.526001 17.519501C 42.526001 16.276859 41.518642 15.2695 40.276001 15.2695L 38.050003 15.2695C 36.150093 15.320514 34.321972 14.542508 33.0415 13.138C 31.759054 11.635747 29.882956 10.770592 27.907751 10.770592C 25.932545 10.770592 24.056448 11.635747 22.774 13.138C 21.491802 14.54452 19.6605 15.322715 17.757999 15.2695L 15.526 15.2695C 14.28336 15.269501 13.276 16.276859 13.276 17.519501C 13.276 18.76214 14.28336 19.769501 15.526 19.769501L 17.757999 19.769501C 19.657907 19.718487 21.486029 20.496492 22.766499 21.901001C 24.048946 23.403254 25.925045 24.268408 27.900249 24.268408C 29.875454 24.268408 31.751553 23.403254 33.034 21.901001C 34.3162 20.49448 36.147499 19.716286 38.050003 19.769501L 40.283501 19.769501C 41.523212 19.765368 42.526009 18.759218 42.526001 17.519501ZM 13.276 10.7695L 17.776001 10.7695M 38.026001 10.7695L 42.526001 10.7695M 34.75 20.543499C 37.37014 22.38282 39.22683 25.117174 39.970001 28.231001M 21.046 20.543499C 18.424957 22.381927 16.568007 25.116661 15.826 28.231001M 25.75 29.356001C 25.75 29.563107 25.917892 29.731001 26.125 29.731001C 26.332108 29.731001 26.5 29.563107 26.5 29.356001C 26.5 29.148893 26.332108 28.981001 26.125 28.981001C 25.917892 28.981001 25.75 29.148893 25.75 29.356001M 31.75 32.355999C 31.75 32.563107 31.917892 32.730999 32.125 32.730999C 32.332108 32.730999 32.5 32.563107 32.5 32.355999C 32.5 32.148895 32.332108 31.981001 32.125 31.981001C 31.917892 31.981001 31.75 32.148895 31.75 32.355999M 23.5 35.355999C 23.5 35.563107 23.667892 35.730999 23.875 35.730999C 24.082108 35.730999 24.25 35.563107 24.25 35.355999C 24.25 35.148891 24.082108 34.980999 23.875 34.980999C 23.667892 34.980999 23.5 35.148891 23.5 35.355999M 17.5 39.230499L 11.5 45.230499L 44.5 45.230499L 38.5 39.230499M 28 39.230499L 28 45.230499M 24.901001 17.519501C 24.901001 19.176353 26.244146 20.519501 27.901001 20.519501C 29.557854 20.519501 30.901001 19.176353 30.901001 17.519501C 30.901001 15.862646 29.557854 14.5195 27.901001 14.5195C 26.244146 14.5195 24.901001 15.862646 24.901001 17.519501"></path></g></g></g></g></g></svg>