<?xml version="1.0" encoding="utf-8" standalone="yes"?>
<!DOCTYPE svg PUBLIC "-//W3C//DTD SVG 1.1//EN" "http://www.w3.org/Graphics/SVG/1.1/DTD/svg11.dtd">
<svg width="531" height="482" viewBox="0 0 531 482" style="fill:none;stroke:none;fill-rule:evenodd;clip-rule:evenodd;stroke-linecap:round;stroke-linejoin:round;stroke-miterlimit:1.5;" version="1.1" xmlns="http://www.w3.org/2000/svg" xmlns:xlink="http://www.w3.org/1999/xlink"><style id="fontImports">@import url("https://fonts.googleapis.com/css2?family=Roboto:wght@400;700&amp;display=block");</style><rect id="" x="0" y="0" width="530" height="482" style="fill: #ffffff;"></rect><g id="items" style="isolation: isolate"><g id="blend" style="mix-blend-mode:multiply"><g id="g-root-3.cu_sy_mb2t831xonh1i-fill" data-item-order="-229819" data-item-id="3.cu_sy_mb2t831xonh1i" data-item-class="ScenePart Part Indexed Stroke" data-item-index="3" data-renderer-id="0" transform="translate(3, 110.9990234375)"></g><g id="g-root-2.cu_sy_mb2t831xonh1h-fill" data-item-order="-229817" data-item-id="2.cu_sy_mb2t831xonh1h" data-item-class="ScenePart Part Indexed Stroke" data-item-index="2" data-renderer-id="0" transform="translate(255.00100708007812, 3)"></g><g id="g-root-1.cu_sy_mb2t831xonh1g-fill" data-item-order="-229816" data-item-id="1.cu_sy_mb2t831xonh1g" data-item-class="ScenePart Part Indexed Indexed_1 Fill Stroke" data-item-index="1" data-renderer-id="0" transform="translate(225.00100708007812, 27)"><g id="1.cu_sy_mb2t831xonh1g-fill" stroke="none" fill="#f0f0f0"><g><path d="M 10 34L 28 10L 28 18L 52 18L 52 10L 70 34L 52 58L 52 50L 28 50L 28 58L 10 34Z"></path></g></g></g><g id="g-root-tx_pros_me76nn1xoni81-fill" data-item-order="0" data-item-id="tx_pros_me76nn1xoni81" data-item-class="Label Stroke SceneTarget" data-item-index="none" data-renderer-id="0" transform="translate(63.001007080078125, 39)"><g id="tx_pros_me76nn1xoni81-fill" stroke="none" fill="#484848"><g><text style="font: 20px Roboto, sans-serif; white-space: pre;"><tspan x="12" y="34" dominant-baseline="ideographic">Pros</tspan></text></g></g></g><g id="g-root-tx_cons_me76nn1xoni80-fill" data-item-order="0" data-item-id="tx_cons_me76nn1xoni80" data-item-class="Label Stroke SceneTarget" data-item-index="none" data-renderer-id="0" transform="translate(363.0010070800781, 39)"><g id="tx_cons_me76nn1xoni80-fill" stroke="none" fill="#484848"><g><text style="font: 20px Roboto, sans-serif; white-space: pre;"><tspan x="12" y="34" dominant-baseline="ideographic">Cons</tspan></text></g></g></g><g id="g-root-robo_hwi99v1xovw8x-fill" data-item-order="0" data-item-id="robo_hwi99v1xovw8x" data-item-class="Icon Stroke SceneTarget Indexed Indexed_1" data-item-index="1" data-renderer-id="0" transform="translate(3.001007080078125, 147)"></g><g id="g-root-tx_automate_qu0os31xonhfr-fill" data-item-order="0" data-item-id="tx_automate_qu0os31xonhfr" data-item-class="Label Stroke SceneTarget Indexed Indexed_1" data-item-index="1" data-renderer-id="0" transform="translate(63.001007080078125, 147)"><g id="tx_automate_qu0os31xonhfr-fill" stroke="none" fill="#484848"><g><text style="font: 20px Roboto, sans-serif; white-space: pre;"><tspan x="12" y="34" dominant-baseline="ideographic">Automates </tspan><tspan x="12" y="58" dominant-baseline="ideographic">tasks</tspan></text></g></g></g><g id="g-root-bloc_4j6bn71xovyth-fill" data-item-order="0" data-item-id="bloc_4j6bn71xovyth" data-item-class="Icon Stroke SceneTarget Indexed" data-item-index="101" data-renderer-id="0" transform="translate(303.0010070800781, 147)"></g><g id="g-root-tx_requires_5upv71xoniff-fill" data-item-order="0" data-item-id="tx_requires_5upv71xoniff" data-item-class="Label Stroke SceneTarget Indexed" data-item-index="101" data-renderer-id="0" transform="translate(363.0010070800781, 147)"><g id="tx_requires_5upv71xoniff-fill" stroke="none" fill="#484848"><g><text style="font: 20px Roboto, sans-serif; white-space: pre;"><tspan x="12" y="34" dominant-baseline="ideographic">Requires </tspan><tspan x="12" y="58" dominant-baseline="ideographic">labeled data</tspan></text></g></g></g><g id="g-root-spee_mbpab71xovymg-fill" data-item-order="0" data-item-id="spee_mbpab71xovymg" data-item-class="Icon Stroke SceneTarget Indexed" data-item-index="2" data-renderer-id="0" transform="translate(3.001007080078125, 231)"></g><g id="g-root-tx_improves_v9u6wj1xongni-fill" data-item-order="0" data-item-id="tx_improves_v9u6wj1xongni" data-item-class="Label Stroke SceneTarget Indexed" data-item-index="2" data-renderer-id="0" transform="translate(63.001007080078125, 231)"><g id="tx_improves_v9u6wj1xongni-fill" stroke="none" fill="#484848"><g><text style="font: 20px Roboto, sans-serif; white-space: pre;"><tspan x="12" y="34" dominant-baseline="ideographic">Improves </tspan><tspan x="12" y="58" dominant-baseline="ideographic">efficiency</tspan></text></g></g></g><g id="g-root-sun_8yztrn1xovy18-fill" data-item-order="0" data-item-id="sun_8yztrn1xovy18" data-item-class="Icon Stroke SceneTarget Indexed" data-item-index="102" data-renderer-id="0" transform="translate(303.0010070800781, 231)"></g><g id="g-root-tx_affected_qs59ir1xonife-fill" data-item-order="0" data-item-id="tx_affected_qs59ir1xonife" data-item-class="Label Stroke SceneTarget Indexed" data-item-index="102" data-renderer-id="0" transform="translate(363.0010070800781, 231)"><g id="tx_affected_qs59ir1xonife-fill" stroke="none" fill="#484848"><g><text style="font: 20px Roboto, sans-serif; white-space: pre;"><tspan x="12" y="34" dominant-baseline="ideographic">Affected by </tspan><tspan x="12" y="58" dominant-baseline="ideographic">image quality</tspan></text></g></g></g><g id="g-root-1_zn5soj1xovx1j-fill" data-item-order="0" data-item-id="1_zn5soj1xovx1j" data-item-class="Icon Stroke SceneTarget Indexed" data-item-index="3" data-renderer-id="0" transform="translate(3.001007080078125, 315)"></g><g id="g-root-tx_newcapab_144uq2b1xonj0l-fill" data-item-order="0" data-item-id="tx_newcapab_144uq2b1xonj0l" data-item-class="Label Stroke SceneTarget Indexed" data-item-index="3" data-renderer-id="0" transform="translate(63.001007080078125, 315)"><g id="tx_newcapab_144uq2b1xonj0l-fill" stroke="none" fill="#484848"><g><text style="font: 20px Roboto, sans-serif; white-space: pre;"><tspan x="12" y="34" dominant-baseline="ideographic">New </tspan><tspan x="12" y="58" dominant-baseline="ideographic">capabilities</tspan></text></g></g></g><g id="g-root-1_humu0j1xovx8j-fill" data-item-order="0" data-item-id="1_humu0j1xovx8j" data-item-class="Icon Stroke SceneTarget Indexed" data-item-index="103" data-renderer-id="0" transform="translate(303.0010070800781, 315)"></g><g id="g-root-tx_highcomp_143lrw31xonguh-fill" data-item-order="0" data-item-id="tx_highcomp_143lrw31xonguh" data-item-class="Label Stroke SceneTarget Indexed" data-item-index="103" data-renderer-id="0" transform="translate(363.0010070800781, 303)"><g id="tx_highcomp_143lrw31xonguh-fill" stroke="none" fill="#484848"><g><text style="font: 20px Roboto, sans-serif; white-space: pre;"><tspan x="12" y="34" dominant-baseline="ideographic">High </tspan><tspan x="12" y="58" dominant-baseline="ideographic">computational </tspan><tspan x="12" y="82" dominant-baseline="ideographic">cost</tspan></text></g></g></g><g id="g-root-live_1up9ugj1xovw9a-fill" data-item-order="0" data-item-id="live_1up9ugj1xovw9a" data-item-class="Icon Stroke SceneTarget Indexed" data-item-index="4" data-renderer-id="0" transform="translate(3.001007080078125, 399)"></g><g id="g-root-tx_realtime_1hgb8fn1xonhfo-fill" data-item-order="0" data-item-id="tx_realtime_1hgb8fn1xonhfo" data-item-class="Label Stroke SceneTarget Indexed" data-item-index="4" data-renderer-id="0" transform="translate(63.001007080078125, 399)"><g id="tx_realtime_1hgb8fn1xonhfo-fill" stroke="none" fill="#484848"><g><text style="font: 20px Roboto, sans-serif; white-space: pre;"><tspan x="12" y="34" dominant-baseline="ideographic">Real-time </tspan><tspan x="12" y="58" dominant-baseline="ideographic">analytics</tspan></text></g></g></g><g id="g-root-cryi_magc4z1xovwga-fill" data-item-order="0" data-item-id="cryi_magc4z1xovwga" data-item-class="Icon Stroke SceneTarget Indexed" data-item-index="104" data-renderer-id="0" transform="translate(303.0010070800781, 399)"></g><g id="g-root-tx_sensitiv_1heft6b1xonifc-fill" data-item-order="0" data-item-id="tx_sensitiv_1heft6b1xonifc" data-item-class="Label Stroke SceneTarget Indexed" data-item-index="104" data-renderer-id="0" transform="translate(363.0010070800781, 399)"><g id="tx_sensitiv_1heft6b1xonifc-fill" stroke="none" fill="#484848"><g><text style="font: 20px Roboto, sans-serif; white-space: pre;"><tspan x="12" y="34" dominant-baseline="ideographic">Sensitive to </tspan><tspan x="12" y="58" dominant-baseline="ideographic">variations</tspan></text></g></g></g><g id="g-root-3.cu_sy_mb2t831xonh1i-stroke" data-item-order="-229819" data-item-id="3.cu_sy_mb2t831xonh1i" data-item-class="ScenePart Part Indexed Stroke" data-item-index="3" data-renderer-id="0" transform="translate(3, 110.9990234375)"><g id="3.cu_sy_mb2t831xonh1i-stroke" fill="none" stroke-linecap="round" stroke-linejoin="round" stroke-miterlimit="4" stroke="#484848" stroke-width="2"><g><path d="M 513.999999 10.000007L 9.999999 10.001007"></path></g></g></g><g id="g-root-2.cu_sy_mb2t831xonh1h-stroke" data-item-order="-229817" data-item-id="2.cu_sy_mb2t831xonh1h" data-item-class="ScenePart Part Indexed Stroke" data-item-index="2" data-renderer-id="0" transform="translate(255.00100708007812, 3)"><g id="2.cu_sy_mb2t831xonh1h-stroke" fill="none" stroke-linecap="round" stroke-linejoin="round" stroke-miterlimit="4" stroke="#484848" stroke-width="2"><g><path d="M 10 298L 10 214M 10 382L 10 298M 10 466L 10 382M 10 214L 10 118M 10 118L 10 80M 10 36L 10 10"></path></g></g></g><g id="g-root-1.cu_sy_mb2t831xonh1g-stroke" data-item-order="-229816" data-item-id="1.cu_sy_mb2t831xonh1g" data-item-class="ScenePart Part Indexed Indexed_1 Fill Stroke" data-item-index="1" data-renderer-id="0" transform="translate(225.00100708007812, 27)"><g id="1.cu_sy_mb2t831xonh1g-stroke" fill="none" stroke-linecap="round" stroke-linejoin="round" stroke-miterlimit="4" stroke="#484848" stroke-width="2"><g><path d="M 10 34L 28 10L 28 18L 52 18L 52 10L 70 34L 52 58L 52 50L 28 50L 28 58L 10 34Z"></path></g></g><g id="1.cu_sy_mb2t831xonh1g-stroke" fill="none" stroke-linecap="round" stroke-linejoin="round" stroke-miterlimit="4" stroke="#484848" stroke-width="2"><g><path d="M 30.599 28.373L 34.999 39.48M 35.199 39.097L 39.599 28.66M 49.399 30.192C 49.065 29.937 48.732 29.682 48.399 29.426C 47.799 28.852 46.832 28.628 45.499 28.756C 44.165 28.884 43.465 29.522 43.399 30.671C 43.265 31.82 44.232 32.905 46.299 33.927C 48.432 34.884 49.465 36.001 49.399 37.278C 49.399 38.555 48.632 39.321 47.099 39.576C 45.499 39.767 44.432 39.416 43.899 38.523C 43.565 38.076 43.265 37.629 42.999 37.182"></path></g></g></g><g id="g-root-tx_pros_me76nn1xoni81-stroke" data-item-order="0" data-item-id="tx_pros_me76nn1xoni81" data-item-class="Label Stroke SceneTarget" data-item-index="none" data-renderer-id="0" transform="translate(63.001007080078125, 39)"></g><g id="g-root-tx_cons_me76nn1xoni80-stroke" data-item-order="0" data-item-id="tx_cons_me76nn1xoni80" data-item-class="Label Stroke SceneTarget" data-item-index="none" data-renderer-id="0" transform="translate(363.0010070800781, 39)"></g><g id="g-root-robo_hwi99v1xovw8x-stroke" data-item-order="0" data-item-id="robo_hwi99v1xovw8x" data-item-class="Icon Stroke SceneTarget Indexed Indexed_1" data-item-index="1" data-renderer-id="0" transform="translate(3.001007080078125, 147)"><g id="robo_hwi99v1xovw8x-stroke" fill="none" stroke-linecap="round" stroke-linejoin="round" stroke-miterlimit="4" stroke="#484848" stroke-width="2"><g><path d="M 11 29C 11 36.731987 21.297451 43 34 43C 46.702549 43 57 36.731987 57 29C 57 21.268013 46.702549 15.000001 34 15.000001C 21.297451 15.000001 11 21.268013 11 29ZM 57 29L 57 39C 57 46.731998 46.702 53 34 53C 21.298 53 11 46.731998 11 39L 11 29M 23 29C 23 31.761423 27.924868 34 34 34C 40.075134 34 45 31.761423 45 29C 45 26.238577 40.075134 24 34 24C 27.924868 24 23 26.238577 23 29ZM 34 28.5C 34.276142 28.5 34.5 28.723858 34.5 29C 34.5 29.276142 34.276142 29.5 34 29.5C 33.723858 29.5 33.5 29.276142 33.5 29C 33.5 28.723858 33.723858 28.5 34 28.5M 22.942001 21.164C 26.437071 19.680431 30.203518 18.943356 34 19C 37.749107 18.946148 41.469315 19.66296 44.93 21.105999M 29.07 42.678001C 28.556 40.169998 30.959999 38 34 38C 37.040001 38 39.444 40.169998 38.93 42.678001"></path></g></g></g><g id="g-root-tx_automate_qu0os31xonhfr-stroke" data-item-order="0" data-item-id="tx_automate_qu0os31xonhfr" data-item-class="Label Stroke SceneTarget Indexed Indexed_1" data-item-index="1" data-renderer-id="0" transform="translate(63.001007080078125, 147)"></g><g id="g-root-bloc_4j6bn71xovyth-stroke" data-item-order="0" data-item-id="bloc_4j6bn71xovyth" data-item-class="Icon Stroke SceneTarget Indexed" data-item-index="101" data-renderer-id="0" transform="translate(303.0010070800781, 147)"><g id="bloc_4j6bn71xovyth-stroke" fill="none" stroke-linecap="round" stroke-linejoin="round" stroke-miterlimit="4" stroke="#484848" stroke-width="2"><g><path d="M 43.084 28.098L 46.683998 24.424C 47.522617 23.471119 48.0158 22.263523 48.084 20.995998L 48.084 12.996C 48.084 11.891431 47.188568 10.996 46.084 10.996L 37.568001 11.01C 36.302147 11.080307 35.098015 11.579739 34.153999 12.426L 12.498 34.082001C 11.717237 34.862999 11.717237 36.128998 12.498 36.91L 22.17 46.582001C 22.543736 46.955734 23.051384 47.164532 23.57992 47.1619C 24.108456 47.159271 24.614 46.945435 24.983999 46.567997L 27.084 44.424M 38.084 17.996C 38.084 19.652855 39.427147 20.996 41.084 20.996C 42.740856 20.996 44.084 19.652855 44.084 17.996C 44.084 16.339146 42.740856 14.996 41.084 14.996C 39.427147 14.996 38.084 16.339146 38.084 17.996ZM 32.084 44.995998C 32.084 51.623417 37.456585 56.996002 44.084 56.996002C 50.711418 56.996002 56.084 51.623417 56.084 44.996002C 56.084 38.368584 50.711418 32.996002 44.084 32.996002C 37.456585 32.996002 32.084 38.368584 32.084 44.996002ZM 35.599998 53.48L 52.57 36.510002"></path></g></g></g><g id="g-root-tx_requires_5upv71xoniff-stroke" data-item-order="0" data-item-id="tx_requires_5upv71xoniff" data-item-class="Label Stroke SceneTarget Indexed" data-item-index="101" data-renderer-id="0" transform="translate(363.0010070800781, 147)"></g><g id="g-root-spee_mbpab71xovymg-stroke" data-item-order="0" data-item-id="spee_mbpab71xovymg" data-item-class="Icon Stroke SceneTarget Indexed" data-item-index="2" data-renderer-id="0" transform="translate(3.001007080078125, 231)"><g id="spee_mbpab71xovymg-stroke" fill="none" stroke-linecap="round" stroke-linejoin="round" stroke-miterlimit="4" stroke="#484848" stroke-width="2"><g><path d="M 11 34C 11 46.702549 21.297451 57 34 57C 46.702549 57 57 46.702549 57 34C 57 21.297451 46.702549 11 34 11C 21.297451 11 11 21.297451 11 34M 31 34C 31 35.656853 32.343147 37 34 37C 35.656853 37 37 35.656853 37 34C 37 32.343147 35.656853 31 34 31C 32.343147 31 31 32.343147 31 34M 36.122002 31.879999L 46.02 21.98M 14.888 33L 18.888 33M 16.444 41.27L 20.142 39.739998M 51.551998 41.271999L 47.858002 39.739998M 52.998001 33L 49 32.998001M 51.551998 26.73L 47.858002 28.26M 42.532001 16.448L 41 20.139999M 35 15.37L 35 19.369999M 26.73 16.445999L 28.26 20.139999M 20.566 20.563999L 23.392 23.392M 16.448 26.728001L 20.142 28.26M 26 43L 42 43C 42 43 43 43 43 44L 43 48C 43 48 43 49 42 49L 26 49C 26 49 25 49 25 48L 25 44C 25 44 25 43 26 43"></path></g></g></g><g id="g-root-tx_improves_v9u6wj1xongni-stroke" data-item-order="0" data-item-id="tx_improves_v9u6wj1xongni" data-item-class="Label Stroke SceneTarget Indexed" data-item-index="2" data-renderer-id="0" transform="translate(63.001007080078125, 231)"></g><g id="g-root-sun_8yztrn1xovy18-stroke" data-item-order="0" data-item-id="sun_8yztrn1xovy18" data-item-class="Icon Stroke SceneTarget Indexed" data-item-index="102" data-renderer-id="0" transform="translate(303.0010070800781, 231)"><g id="sun_8yztrn1xovy18-stroke" fill="none" stroke-linecap="round" stroke-linejoin="round" stroke-miterlimit="4" stroke="#484848" stroke-width="2"><g><path d="M 25.428572 34C 25.428572 38.733868 29.266132 42.57143 34 42.57143C 38.733868 42.57143 42.57143 38.733868 42.57143 34C 42.57143 29.266132 38.733868 25.428572 34 25.428572C 29.266132 25.428572 25.428572 29.266132 25.428572 34M 56.285713 34L 48.262856 39.897144L 49.771431 49.771431L 39.897144 48.262856L 34 56.285713L 28.102858 48.262856L 18.228571 49.771431L 19.737143 39.897144L 11.714286 34L 19.737143 28.102858L 18.228571 18.228571L 28.102858 19.737143L 34 11.714286L 39.897144 19.737143L 49.771431 18.228571L 48.262856 28.102858L 56.285713 34Z"></path></g></g></g><g id="g-root-tx_affected_qs59ir1xonife-stroke" data-item-order="0" data-item-id="tx_affected_qs59ir1xonife" data-item-class="Label Stroke SceneTarget Indexed" data-item-index="102" data-renderer-id="0" transform="translate(363.0010070800781, 231)"></g><g id="g-root-1_zn5soj1xovx1j-stroke" data-item-order="0" data-item-id="1_zn5soj1xovx1j" data-item-class="Icon Stroke SceneTarget Indexed" data-item-index="3" data-renderer-id="0" transform="translate(3.001007080078125, 315)"><g id="1_zn5soj1xovx1j-stroke" fill="none" stroke-linecap="round" stroke-linejoin="round" stroke-miterlimit="4" stroke="#484848" stroke-width="2"><g><path d="M 32.021999 46L 32.021999 41L 33.524002 41C 34.661762 41.110458 35.794102 40.741852 36.648811 39.982784C 37.503517 39.223717 38.003296 38.142845 38.028 37L 38.028 33L 42.251999 33C 42.491581 33.001213 42.717083 32.886978 42.857834 32.6931C 42.998585 32.499222 43.037357 32.249424 42.962002 32.022003C 40.148003 23.307999 38.112 12.95 28.818001 11.25C 24.717611 10.454854 20.471367 11.405366 17.10129 13.872758C 13.731211 16.340151 11.542518 20.100958 11.062 24.25C 10.575783 29.544659 12.812399 34.723755 17 38L 17 46M 56.089188 41.581734L 56.089188 41.581734C 56.089188 41.581734 57.766529 42.671013 56.67725 44.348354L 49.052303 56.089741C 49.052303 56.089741 47.963028 57.767082 46.285686 56.677803L 46.285686 56.677803C 46.285686 56.677803 44.608345 55.588524 45.697624 53.911186L 53.322571 42.169796C 53.322571 42.169796 54.411846 40.492455 56.089188 41.581734M 48.299999 41.464001L 48.666 42.568001M 46.466 35.942001L 46.834 37.045998M 42.543999 47.125999L 43.683998 47.349998M 36.834 46L 37.975998 46.226002"></path></g></g></g><g id="g-root-tx_newcapab_144uq2b1xonj0l-stroke" data-item-order="0" data-item-id="tx_newcapab_144uq2b1xonj0l" data-item-class="Label Stroke SceneTarget Indexed" data-item-index="3" data-renderer-id="0" transform="translate(63.001007080078125, 315)"></g><g id="g-root-1_humu0j1xovx8j-stroke" data-item-order="0" data-item-id="1_humu0j1xovx8j" data-item-class="Icon Stroke SceneTarget Indexed" data-item-index="103" data-renderer-id="0" transform="translate(303.0010070800781, 315)"><g id="1_humu0j1xovx8j-stroke" fill="none" stroke-linecap="round" stroke-linejoin="round" stroke-miterlimit="4" stroke="#484848" stroke-width="2"><g><path d="M 21.001999 52L 47.001999 52M 35.001999 40L 35.001999 52M 57 24C 57 26.209139 55.209141 28 53 28L 15 28C 12.790861 28 11 26.209139 11 24L 11 20C 11 17.790861 12.790861 16 15 16L 53 16C 55.209141 16 57 17.790861 57 20ZM 19.5 21.5C 19.223858 21.5 19 21.723858 19 22C 19 22.276142 19.223858 22.5 19.5 22.5C 19.776142 22.5 20 22.276142 20 22C 20 21.723858 19.776142 21.5 19.5 21.5L 19.5 21.5M 26.5 21.5C 26.223858 21.5 26 21.723858 26 22C 26 22.276142 26.223858 22.5 26.5 22.5C 26.776142 22.5 27 22.276142 27 22C 27 21.723858 26.776142 21.5 26.5 21.5L 26.5 21.5M 57 36C 57 38.209137 55.209141 40 53 40L 15 40C 12.790861 40 11 38.209137 11 36L 11 32C 11 29.790861 12.790861 28 15 28L 53 28C 55.209141 28 57 29.790861 57 32ZM 19.5 33.5C 19.223858 33.5 19 33.723858 19 34C 19 34.276142 19.223858 34.5 19.5 34.5C 19.776142 34.5 20 34.276142 20 34C 20 33.723858 19.776142 33.5 19.5 33.5L 19.5 33.5M 26.5 33.5C 26.223858 33.5 26 33.723858 26 34C 26 34.276142 26.223858 34.5 26.5 34.5C 26.776142 34.5 27 34.276142 27 34C 27 33.723858 26.776142 33.5 26.5 33.5L 26.5 33.5M 16.5 51C 16.223858 51 16 51.223858 16 51.5C 16 51.776142 16.223858 52 16.5 52C 16.776142 52 17 51.776142 17 51.5C 17 51.223858 16.776142 51 16.5 51L 16.5 51M 11.5 51C 11.223858 51 11 51.223858 11 51.5C 11 51.776142 11.223858 52 11.5 52C 11.776142 52 12 51.776142 12 51.5C 12 51.223858 11.776142 51 11.5 51L 11.5 51M 56.5 51C 56.223858 51 56 51.223858 56 51.5C 56 51.776142 56.223858 52 56.5 52C 56.776142 52 57 51.776142 57 51.5C 57 51.223858 56.776142 51 56.5 51L 56.5 51M 51.5 51C 51.223858 51 51 51.223858 51 51.5C 51 51.776142 51.223858 52 51.5 52C 51.776142 52 52 51.776142 52 51.5C 52 51.223858 51.776142 51 51.5 51L 51.5 51"></path></g></g></g><g id="g-root-tx_highcomp_143lrw31xonguh-stroke" data-item-order="0" data-item-id="tx_highcomp_143lrw31xonguh" data-item-class="Label Stroke SceneTarget Indexed" data-item-index="103" data-renderer-id="0" transform="translate(363.0010070800781, 303)"></g><g id="g-root-live_1up9ugj1xovw9a-stroke" data-item-order="0" data-item-id="live_1up9ugj1xovw9a" data-item-class="Icon Stroke SceneTarget Indexed" data-item-index="4" data-renderer-id="0" transform="translate(3.001007080078125, 399)"><g id="live_1up9ugj1xovw9a-stroke" fill="none" stroke-linecap="round" stroke-linejoin="round" stroke-miterlimit="4" stroke="#484848" stroke-width="2"><g><path d="M 57 34C 56.997284 45.588974 48.367836 55.363472 36.868576 56.802677C 25.369312 58.241882 14.597092 50.89563 11.738332 39.664787C 8.879572 28.433945 14.828465 16.831408 25.616352 12.597521C 36.404243 8.363635 48.656784 12.822716 54.200001 23C 56.041264 26.373747 57.00415 30.156511 57 34ZM 44.034 23C 42.16589 17.966837 38.622917 13.729682 34 11C 29.377079 13.729682 25.83411 17.966837 23.966 23M 23.964001 45C 25.833622 50.03289 29.377079 54.269787 34 57C 38.841461 54.491585 42.504322 50.182335 44.200001 45M 16.563999 19L 51.436001 19M 16.563999 49L 51.436001 49M 29 39L 29 29M 33 29L 33 32.400002C 33.001076 34.749115 33.69693 37.045429 35 39C 36.30307 37.045429 36.998924 34.749115 37 32.400002L 37 29M 21 29L 21 37C 21 38.104568 21.895432 39 23 39L 25 39M 45 39L 43 39C 41.895432 39 41 38.104568 41 37L 41 31C 41 29.89543 41.895432 29 43 29L 45 29M 41 35L 45 35"></path></g></g></g><g id="g-root-tx_realtime_1hgb8fn1xonhfo-stroke" data-item-order="0" data-item-id="tx_realtime_1hgb8fn1xonhfo" data-item-class="Label Stroke SceneTarget Indexed" data-item-index="4" data-renderer-id="0" transform="translate(63.001007080078125, 399)"></g><g id="g-root-cryi_magc4z1xovwga-stroke" data-item-order="0" data-item-id="cryi_magc4z1xovwga" data-item-class="Icon Stroke SceneTarget Indexed" data-item-index="104" data-renderer-id="0" transform="translate(303.0010070800781, 399)"><g id="cryi_magc4z1xovwga-stroke" fill="none" stroke-linecap="round" stroke-linejoin="round" stroke-miterlimit="4" stroke="#484848" stroke-width="2"><g><path d="M 11 34C 11 46.702549 21.297451 57 34 57C 46.702549 57 57 46.702549 57 34C 57 21.297451 46.702549 11 34 11C 21.297451 11 11 21.297451 11 34ZM 27 25.5C 27.276142 25.5 27.5 25.723858 27.5 26C 27.5 26.276142 27.276142 26.5 27 26.5C 26.723858 26.5 26.5 26.276142 26.5 26C 26.5 25.723858 26.723858 25.5 27 25.5M 41 25.5C 40.723858 25.5 40.5 25.723858 40.5 26C 40.5 26.276142 40.723858 26.5 41 26.5C 41.276142 26.5 41.5 26.276142 41.5 26C 41.5 25.723858 41.276142 25.5 41 25.5M 48 35C 48 36.656853 46.656857 38 45 38C 43.343147 38 42 36.656853 42 35C 42 33.344002 45 29 45 29C 45 29 48 33.344002 48 35ZM 25 48C 25 43.029438 29.029438 39 34 39C 38.970562 39 43 43.029438 43 48"></path></g></g></g><g id="g-root-tx_sensitiv_1heft6b1xonifc-stroke" data-item-order="0" data-item-id="tx_sensitiv_1heft6b1xonifc" data-item-class="Label Stroke SceneTarget Indexed" data-item-index="104" data-renderer-id="0" transform="translate(363.0010070800781, 399)"></g></g></g></svg>