<?xml version="1.0" encoding="utf-8" standalone="yes"?>
<!DOCTYPE svg PUBLIC "-//W3C//DTD SVG 1.1//EN" "http://www.w3.org/Graphics/SVG/1.1/DTD/svg11.dtd">
<svg width="769" height="349" viewBox="0 0 769 349" style="fill:none;stroke:none;fill-rule:evenodd;clip-rule:evenodd;stroke-linecap:round;stroke-linejoin:round;stroke-miterlimit:1.5;" version="1.1" xmlns="http://www.w3.org/2000/svg" xmlns:xlink="http://www.w3.org/1999/xlink"><style id="fontImports">@import url("https://fonts.googleapis.com/css2?family=Roboto:wght@400;700&amp;display=block");</style><rect id="" x="0" y="0" width="769" height="349" style="fill: #ffffff;"></rect><g id="items" style="isolation: isolate"><g id="blend" style="mix-blend-mode:multiply"><g id="g-root-ro_4hy2r71w0vitm-fill" data-item-order="-23400" data-item-id="ro_4hy2r71w0vitm" data-item-class="Shape Stroke Fill" data-item-index="none" data-renderer-id="0" transform="translate(303, 15)"><g id="ro_4hy2r71w0vitm-fill" stroke="none" fill="#f0f0f0"><g><path d="M 34 10L 142 10C 142 10 166 10 166 34L 166 136C 166 136 166 160 142 160L 34 160C 34 160 10 160 10 136L 10 34C 10 34 10 10 34 10"></path></g></g></g><g id="g-root-ro_8vw5mb1w0wx6w-fill" data-item-order="-14256" data-item-id="ro_8vw5mb1w0wx6w" data-item-class="Shape Stroke Fill" data-item-index="none" data-renderer-id="0" transform="translate(249, 201)"><g id="ro_8vw5mb1w0wx6w-fill" stroke="none" fill="#e6efff"><g><path d="M 22 10L 262 10C 262 10 274 10 274 22L 274 52C 274 52 274 64 262 64L 22 64C 22 64 10 64 10 52L 10 22C 10 22 10 10 22 10"></path></g></g></g><g id="g-root-ro_1qf3beb1w0zsw6-fill" data-item-order="-13608" data-item-id="ro_1qf3beb1w0zsw6" data-item-class="Shape Stroke Fill" data-item-index="none" data-renderer-id="0" transform="translate(3, 3)"><g id="ro_1qf3beb1w0zsw6-fill" stroke="none" fill="#e9fbf3"><g><path d="M 22 10L 250 10C 250 10 262 10 262 22L 262 52C 262 52 262 64 250 64L 22 64C 22 64 10 64 10 52L 10 22C 10 22 10 10 22 10"></path></g></g></g><g id="g-root-ro_1qbyxyr1w0yebo-fill" data-item-order="-11016" data-item-id="ro_1qbyxyr1w0yebo" data-item-class="Shape Stroke Fill" data-item-index="none" data-renderer-id="0" transform="translate(507, 3)"><g id="ro_1qbyxyr1w0yebo-fill" stroke="none" fill="#fef2e6"><g><path d="M 22 10L 202 10C 202 10 214 10 214 22L 214 52C 214 52 214 64 202 64L 22 64C 22 64 10 64 10 52L 10 22C 10 22 10 10 22 10"></path></g></g></g><g id="g-root-key_1unf1bn1wuq41y-fill" data-item-order="0" data-item-id="key_1unf1bn1wuq41y" data-item-class="Icon Stroke" data-item-index="none" data-renderer-id="0" transform="translate(519, 15)"></g><g id="g-root-tx_transfer_qunv5f1w0ybym-fill" data-item-order="0" data-item-id="tx_transfer_qunv5f1w0ybym" data-item-class="Label Stroke" data-item-index="none" data-renderer-id="0" transform="translate(297, 303)"><g id="tx_transfer_qunv5f1w0ybym-fill" stroke="none" fill="#484848"><g><text style="font: 20px Roboto, sans-serif; white-space: pre;"><tspan x="16.01" y="34" dominant-baseline="ideographic">Transfer Learning</tspan></text></g></g></g><g id="g-root-cu_zit6cz1w117gt-fill" data-item-order="0" data-item-id="cu_zit6cz1w117gt" data-item-class="Curve Stroke ColorFillGray ColorStrokeGray" data-item-index="none" data-renderer-id="0" transform="translate(459, 30)"></g><g id="g-root-tx_keytechn_hx5fn71w0yeiq-fill" data-item-order="0" data-item-id="tx_keytechn_hx5fn71w0yeiq" data-item-class="Label Stroke" data-item-index="none" data-renderer-id="0" transform="translate(555, 18)"><g id="tx_keytechn_hx5fn71w0yeiq-fill" stroke="none" fill="#dd8433"><g><text style="font: 20px Roboto, sans-serif; white-space: pre;"><tspan x="12.49" y="34" dominant-baseline="ideographic">Key Techniques</tspan></text></g></g></g><g id="g-root-1_m9v04z1wl0e8b-fill" data-item-order="0" data-item-id="1_m9v04z1wl0e8b" data-item-class="Icon Stroke" data-item-index="none" data-renderer-id="0" transform="translate(357, 39)"></g><g id="g-root-tx_normaliz_1hi7cz71w0ye4r-fill" data-item-order="0" data-item-id="tx_normaliz_1hi7cz71w0ye4r" data-item-class="Label Stroke" data-item-index="none" data-renderer-id="0" transform="translate(75, 69)"><g id="tx_normaliz_1hi7cz71w0ye4r-fill" stroke="none" fill="#484848"><g><text style="font: 20px Roboto, sans-serif; white-space: pre;"><tspan x="13.42" y="34" dominant-baseline="ideographic">Normalization</tspan></text></g></g></g><g id="g-root-cu_v3m5bn1w1153h-fill" data-item-order="0" data-item-id="cu_v3m5bn1w1153h" data-item-class="Curve Stroke ColorFillGray ColorStrokeGray" data-item-index="none" data-renderer-id="0" transform="translate(213, 57)"></g><g id="g-root-cu_qnsn771w115vs-fill" data-item-order="0" data-item-id="cu_qnsn771w115vs" data-item-class="Curve Stroke ColorFillGray ColorStrokeGray" data-item-index="none" data-renderer-id="0" transform="translate(213, 57)"></g><g id="g-root-cu_qnsn771w115vu-fill" data-item-order="0" data-item-id="cu_qnsn771w115vu" data-item-class="Curve Stroke ColorFillGray ColorStrokeGray" data-item-index="none" data-renderer-id="0" transform="translate(213, 57)"></g><g id="g-root-cu_m7z52r1w116o4-fill" data-item-order="0" data-item-id="cu_m7z52r1w116o4" data-item-class="Curve Stroke ColorFillGray ColorStrokeGray" data-item-index="none" data-renderer-id="0" transform="translate(531, 57)"></g><g id="g-root-cu_m7z52r1w116o7-fill" data-item-order="0" data-item-id="cu_m7z52r1w116o7" data-item-class="Curve Stroke ColorFillGray ColorStrokeGray" data-item-index="none" data-renderer-id="0" transform="translate(531, 57)"></g><g id="g-root-cu_m7z52r1w116o9-fill" data-item-order="0" data-item-id="cu_m7z52r1w116o9" data-item-class="Curve Stroke ColorFillGray ColorStrokeGray" data-item-index="none" data-renderer-id="0" transform="translate(531, 57)"></g><g id="g-root-tx_objectde_9599wz1w0ydc6-fill" data-item-order="0" data-item-id="tx_objectde_9599wz1w0ydc6" data-item-class="Label Stroke" data-item-index="none" data-renderer-id="0" transform="translate(555, 69)"><g id="tx_objectde_9599wz1w0ydc6-fill" stroke="none" fill="#484848"><g><text style="font: 20px Roboto, sans-serif; white-space: pre;"><tspan x="14.28" y="34" dominant-baseline="ideographic">Object Detection</tspan></text></g></g></g><g id="g-root-tx_augmenta_147dboz1w0ycjw-fill" data-item-order="0" data-item-id="tx_augmenta_147dboz1w0ycjw" data-item-class="Label Stroke" data-item-index="none" data-renderer-id="0" transform="translate(75, 105)"><g id="tx_augmenta_147dboz1w0ycjw-fill" stroke="none" fill="#484848"><g><text style="font: 20px Roboto, sans-serif; white-space: pre;"><tspan x="13.2" y="34" dominant-baseline="ideographic">Augmentation</tspan></text></g></g></g><g id="g-root-tx_computer_1uljp831w0vl6o-fill" data-item-order="0" data-item-id="tx_computer_1uljp831w0vl6o" data-item-class="Label Stroke" data-item-index="none" data-renderer-id="0" transform="translate(327, 93)"><g id="tx_computer_1uljp831w0vl6o-fill" stroke="none" fill="#484848"><g><text style="font: 20px Roboto, sans-serif; white-space: pre;"><tspan x="17.47" y="34" dominant-baseline="ideographic">Computer </tspan><tspan x="33.93" y="58" dominant-baseline="ideographic">Vision</tspan></text></g></g></g><g id="g-root-tx_imageseg_1uuwtir1w0yepz-fill" data-item-order="0" data-item-id="tx_imageseg_1uuwtir1w0yepz" data-item-class="Label Stroke" data-item-index="none" data-renderer-id="0" transform="translate(555, 105)"><g id="tx_imageseg_1uuwtir1w0yepz-fill" stroke="none" fill="#484848"><g><text style="font: 20px Roboto, sans-serif; white-space: pre;"><tspan x="13.65" y="34" dominant-baseline="ideographic">Image Segmentation</tspan></text></g></g></g><g id="g-root-tx_resizing_mgpsab1w0ybr9-fill" data-item-order="0" data-item-id="tx_resizing_mgpsab1w0ybr9" data-item-class="Label Stroke" data-item-index="none" data-renderer-id="0" transform="translate(123, 141)"><g id="tx_resizing_mgpsab1w0ybr9-fill" stroke="none" fill="#484848"><g><text style="font: 20px Roboto, sans-serif; white-space: pre;"><tspan x="14.45" y="34" dominant-baseline="ideographic">Resizing</tspan></text></g></g></g><g id="g-root-tx_facialre_1q5q73n1w0zqww-fill" data-item-order="0" data-item-id="tx_facialre_1q5q73n1w0zqww" data-item-class="Label Stroke" data-item-index="none" data-renderer-id="0" transform="translate(555, 141)"><g id="tx_facialre_1q5q73n1w0zqww-fill" stroke="none" fill="#484848"><g><text style="font: 20px Roboto, sans-serif; white-space: pre;"><tspan x="12.33" y="34" dominant-baseline="ideographic">Facial Recognition</tspan></text></g></g></g><g id="g-root-cu_13ymohf1w116of-fill" data-item-order="0" data-item-id="cu_13ymohf1w116of" data-item-class="Curve Stroke ColorFillGray ColorStrokeGray" data-item-index="none" data-renderer-id="0" transform="translate(381, 165)"></g><g id="g-root-smil_4pfrsj1w0zrid-fill" data-item-order="0" data-item-id="smil_4pfrsj1w0zrid" data-item-class="Icon Stroke" data-item-index="none" data-renderer-id="0" transform="translate(213, 15)"></g><g id="g-root-1_dl2s1f1w0vkzz-fill" data-item-order="0" data-item-id="1_dl2s1f1w0vkzz" data-item-class="Icon Stroke" data-item-index="none" data-renderer-id="0" transform="translate(261, 213)"></g><g id="g-root-tx_deeplear_mgpsab1w0vk7a-fill" data-item-order="0" data-item-id="tx_deeplear_mgpsab1w0vk7a" data-item-class="Label Stroke" data-item-index="none" data-renderer-id="0" transform="translate(297, 216)"><g id="tx_deeplear_mgpsab1w0vk7a-fill" stroke="none" fill="#4682e3"><g><text style="font: 20px Roboto, sans-serif; white-space: pre;"><tspan x="12.75" y="34" dominant-baseline="ideographic">Deep Learning Models</tspan></text></g></g></g><g id="g-root-cu_13ymohf1w117gg-fill" data-item-order="0" data-item-id="cu_13ymohf1w117gg" data-item-class="Curve Stroke ColorFillGray ColorStrokeGray" data-item-index="none" data-renderer-id="0" transform="translate(273, 255)"></g><g id="g-root-cu_v3m5bn1w1153f-fill" data-item-order="0" data-item-id="cu_v3m5bn1w1153f" data-item-class="Curve Stroke ColorFillGray ColorStrokeGray" data-item-index="none" data-renderer-id="0" transform="translate(273, 255)"></g><g id="g-root-tx_cnns_1d14woj1w0ycqt-fill" data-item-order="0" data-item-id="tx_cnns_1d14woj1w0ycqt" data-item-class="Label Stroke" data-item-index="none" data-renderer-id="0" transform="translate(297, 267)"><g id="tx_cnns_1d14woj1w0ycqt-fill" stroke="none" fill="#484848"><g><text style="font: 20px Roboto, sans-serif; white-space: pre;"><tspan x="14.07" y="34" dominant-baseline="ideographic">CNNs</tspan></text></g></g></g><g id="g-root-tx_imagepre_i09t2r1w0zt38-fill" data-item-order="0" data-item-id="tx_imagepre_i09t2r1w0zt38" data-item-class="Label Stroke" data-item-index="none" data-renderer-id="0" transform="translate(15, 18)"><g id="tx_imagepre_i09t2r1w0zt38-fill" stroke="none" fill="#3bc482"><g><text style="font: 20px Roboto, sans-serif; white-space: pre;"><tspan x="11.79" y="34" dominant-baseline="ideographic">Image Preprocessing</tspan></text></g></g></g><g id="g-root-cu_18eg6lv1w116o2-fill" data-item-order="0" data-item-id="cu_18eg6lv1w116o2" data-item-class="Curve Stroke ColorFillGray ColorStrokeGray" data-item-index="none" data-renderer-id="0" transform="translate(255, 30)"></g><g id="g-root-ro_4hy2r71w0vitm-stroke" data-item-order="-23400" data-item-id="ro_4hy2r71w0vitm" data-item-class="Shape Stroke Fill" data-item-index="none" data-renderer-id="0" transform="translate(303, 15)"><g id="ro_4hy2r71w0vitm-stroke" fill="none" stroke-linecap="round" stroke-linejoin="round" stroke-miterlimit="4" stroke="#484848" stroke-width="2"><g><path d="M 34 10L 142 10C 142 10 166 10 166 34L 166 136C 166 136 166 160 142 160L 34 160C 34 160 10 160 10 136L 10 34C 10 34 10 10 34 10"></path></g></g></g><g id="g-root-ro_8vw5mb1w0wx6w-stroke" data-item-order="-14256" data-item-id="ro_8vw5mb1w0wx6w" data-item-class="Shape Stroke Fill" data-item-index="none" data-renderer-id="0" transform="translate(249, 201)"><g id="ro_8vw5mb1w0wx6w-stroke" fill="none" stroke-linecap="round" stroke-linejoin="round" stroke-miterlimit="4" stroke="#4682e3" stroke-width="2"><g><path d="M 22 10L 262 10C 262 10 274 10 274 22L 274 52C 274 52 274 64 262 64L 22 64C 22 64 10 64 10 52L 10 22C 10 22 10 10 22 10"></path></g></g></g><g id="g-root-ro_1qf3beb1w0zsw6-stroke" data-item-order="-13608" data-item-id="ro_1qf3beb1w0zsw6" data-item-class="Shape Stroke Fill" data-item-index="none" data-renderer-id="0" transform="translate(3, 3)"><g id="ro_1qf3beb1w0zsw6-stroke" fill="none" stroke-linecap="round" stroke-linejoin="round" stroke-miterlimit="4" stroke="#3bc482" stroke-width="2"><g><path d="M 22 10L 250 10C 250 10 262 10 262 22L 262 52C 262 52 262 64 250 64L 22 64C 22 64 10 64 10 52L 10 22C 10 22 10 10 22 10"></path></g></g></g><g id="g-root-ro_1qbyxyr1w0yebo-stroke" data-item-order="-11016" data-item-id="ro_1qbyxyr1w0yebo" data-item-class="Shape Stroke Fill" data-item-index="none" data-renderer-id="0" transform="translate(507, 3)"><g id="ro_1qbyxyr1w0yebo-stroke" fill="none" stroke-linecap="round" stroke-linejoin="round" stroke-miterlimit="4" stroke="#dd8433" stroke-width="2"><g><path d="M 22 10L 202 10C 202 10 214 10 214 22L 214 52C 214 52 214 64 202 64L 22 64C 22 64 10 64 10 52L 10 22C 10 22 10 10 22 10"></path></g></g></g><g id="g-root-key_1unf1bn1wuq41y-stroke" data-item-order="0" data-item-id="key_1unf1bn1wuq41y" data-item-class="Icon Stroke" data-item-index="none" data-renderer-id="0" transform="translate(519, 15)"><g id="key_1unf1bn1wuq41y-stroke" fill="none" stroke-linecap="round" stroke-linejoin="round" stroke-miterlimit="4" stroke="#dd8433" stroke-width="2"><g><path d="M 22.042856 25.814285L 34.642857 13.214286L 38.92857 17.5M 29.821428 18.035713L 33.571426 21.785713M 11.071428 30.357141C 11.071429 33.907543 13.949598 36.785713 17.5 36.785713C 21.050402 36.785713 23.928572 33.907543 23.928572 30.357141C 23.928572 26.80674 21.050402 23.928572 17.5 23.928572C 13.949598 23.928572 11.071429 26.80674 11.071429 30.357141"></path></g></g></g><g id="g-root-tx_transfer_qunv5f1w0ybym-stroke" data-item-order="0" data-item-id="tx_transfer_qunv5f1w0ybym" data-item-class="Label Stroke" data-item-index="none" data-renderer-id="0" transform="translate(297, 303)"></g><g id="g-root-cu_zit6cz1w117gt-stroke" data-item-order="0" data-item-id="cu_zit6cz1w117gt" data-item-class="Curve Stroke ColorFillGray ColorStrokeGray" data-item-index="none" data-renderer-id="0" transform="translate(459, 30)"><g id="cu_zit6cz1w117gt-stroke" fill="none" stroke-linecap="round" stroke-linejoin="round" stroke-miterlimit="4" stroke="#888888" stroke-width="2" stroke-dasharray="5.0, 7.0"><g><path d="M 10 45L 13 45L 13.1 45C 17.577866 44.972592 22.360217 43.214375 26.699999 40C 29.320119 38.118536 31.98143 33.561497 33.999999 27.499999C 36.018569 21.438502 38.67988 16.881462 41.299999 15C 45.63978 11.785625 50.422131 10.027407 54.899998 9.999999L 55 10L 58 10"></path></g></g></g><g id="g-root-tx_keytechn_hx5fn71w0yeiq-stroke" data-item-order="0" data-item-id="tx_keytechn_hx5fn71w0yeiq" data-item-class="Label Stroke" data-item-index="none" data-renderer-id="0" transform="translate(555, 18)"></g><g id="g-root-1_m9v04z1wl0e8b-stroke" data-item-order="0" data-item-id="1_m9v04z1wl0e8b" data-item-class="Icon Stroke" data-item-index="none" data-renderer-id="0" transform="translate(357, 39)"><g id="1_m9v04z1wl0e8b-stroke" fill="none" stroke-linecap="round" stroke-linejoin="round" stroke-miterlimit="4" stroke="#484848" stroke-width="2"><g><path d="M 27 34C 27.000002 37.865993 30.134008 41 34 41C 37.865993 41 41 37.865993 41 34C 41 30.134008 37.865993 27.000002 34 27.000002C 30.134008 27.000002 27.000002 30.134008 27.000002 34M 56.759998 33.34C 54.419998 30.700001 45.119999 21 34 21C 22.880001 21 13.58 30.700001 11.24 33.34C 10.924988 33.723618 10.924988 34.276382 11.24 34.659996C 13.58 37.299999 22.880001 47 34 47C 45.119999 47 54.419998 37.299999 56.759998 34.66C 57.075008 34.276382 57.075008 33.723618 56.759998 33.339996Z"></path></g></g></g><g id="g-root-tx_normaliz_1hi7cz71w0ye4r-stroke" data-item-order="0" data-item-id="tx_normaliz_1hi7cz71w0ye4r" data-item-class="Label Stroke" data-item-index="none" data-renderer-id="0" transform="translate(75, 69)"></g><g id="g-root-cu_v3m5bn1w1153h-stroke" data-item-order="0" data-item-id="cu_v3m5bn1w1153h" data-item-class="Curve Stroke ColorFillGray ColorStrokeGray" data-item-index="none" data-renderer-id="0" transform="translate(213, 57)"><g id="cu_v3m5bn1w1153h-stroke" fill="none" stroke-linecap="round" stroke-linejoin="round" stroke-miterlimit="4" stroke="#888888" stroke-width="2" stroke-dasharray="5.0, 7.0"><g><path d="M 28 10L 28 22L 28 34L 19 34L 10 34"></path></g></g></g><g id="g-root-cu_qnsn771w115vs-stroke" data-item-order="0" data-item-id="cu_qnsn771w115vs" data-item-class="Curve Stroke ColorFillGray ColorStrokeGray" data-item-index="none" data-renderer-id="0" transform="translate(213, 57)"><g id="cu_qnsn771w115vs-stroke" fill="none" stroke-linecap="round" stroke-linejoin="round" stroke-miterlimit="4" stroke="#888888" stroke-width="2" stroke-dasharray="5.0, 7.0"><g><path d="M 28 10L 28 40L 28 70L 19 70L 10 70"></path></g></g></g><g id="g-root-cu_qnsn771w115vu-stroke" data-item-order="0" data-item-id="cu_qnsn771w115vu" data-item-class="Curve Stroke ColorFillGray ColorStrokeGray" data-item-index="none" data-renderer-id="0" transform="translate(213, 57)"><g id="cu_qnsn771w115vu-stroke" fill="none" stroke-linecap="round" stroke-linejoin="round" stroke-miterlimit="4" stroke="#888888" stroke-width="2" stroke-dasharray="5.0, 7.0"><g><path d="M 28 10L 28 22L 28 94C 28.000002 100.627415 22.627419 105.999998 16.000002 105.999998L 15.9 106L 10 106"></path></g></g></g><g id="g-root-cu_m7z52r1w116o4-stroke" data-item-order="0" data-item-id="cu_m7z52r1w116o4" data-item-class="Curve Stroke ColorFillGray ColorStrokeGray" data-item-index="none" data-renderer-id="0" transform="translate(531, 57)"><g id="cu_m7z52r1w116o4-stroke" fill="none" stroke-linecap="round" stroke-linejoin="round" stroke-miterlimit="4" stroke="#888888" stroke-width="2" stroke-dasharray="5.0, 7.0"><g><path d="M 10 10L 10 22L 10 34L 19 34L 28 34"></path></g></g></g><g id="g-root-cu_m7z52r1w116o7-stroke" data-item-order="0" data-item-id="cu_m7z52r1w116o7" data-item-class="Curve Stroke ColorFillGray ColorStrokeGray" data-item-index="none" data-renderer-id="0" transform="translate(531, 57)"><g id="cu_m7z52r1w116o7-stroke" fill="none" stroke-linecap="round" stroke-linejoin="round" stroke-miterlimit="4" stroke="#888888" stroke-width="2" stroke-dasharray="5.0, 7.0"><g><path d="M 10 10L 10 40L 10 70L 19 70L 28 70"></path></g></g></g><g id="g-root-cu_m7z52r1w116o9-stroke" data-item-order="0" data-item-id="cu_m7z52r1w116o9" data-item-class="Curve Stroke ColorFillGray ColorStrokeGray" data-item-index="none" data-renderer-id="0" transform="translate(531, 57)"><g id="cu_m7z52r1w116o9-stroke" fill="none" stroke-linecap="round" stroke-linejoin="round" stroke-miterlimit="4" stroke="#888888" stroke-width="2" stroke-dasharray="5.0, 7.0"><g><path d="M 10 10L 10 22L 10 94C 10.000004 100.627423 15.372587 106.000006 22.000005 106.000005L 22.1 106L 28 106"></path></g></g></g><g id="g-root-tx_objectde_9599wz1w0ydc6-stroke" data-item-order="0" data-item-id="tx_objectde_9599wz1w0ydc6" data-item-class="Label Stroke" data-item-index="none" data-renderer-id="0" transform="translate(555, 69)"></g><g id="g-root-tx_augmenta_147dboz1w0ycjw-stroke" data-item-order="0" data-item-id="tx_augmenta_147dboz1w0ycjw" data-item-class="Label Stroke" data-item-index="none" data-renderer-id="0" transform="translate(75, 105)"></g><g id="g-root-tx_computer_1uljp831w0vl6o-stroke" data-item-order="0" data-item-id="tx_computer_1uljp831w0vl6o" data-item-class="Label Stroke" data-item-index="none" data-renderer-id="0" transform="translate(327, 93)"></g><g id="g-root-tx_imageseg_1uuwtir1w0yepz-stroke" data-item-order="0" data-item-id="tx_imageseg_1uuwtir1w0yepz" data-item-class="Label Stroke" data-item-index="none" data-renderer-id="0" transform="translate(555, 105)"></g><g id="g-root-tx_resizing_mgpsab1w0ybr9-stroke" data-item-order="0" data-item-id="tx_resizing_mgpsab1w0ybr9" data-item-class="Label Stroke" data-item-index="none" data-renderer-id="0" transform="translate(123, 141)"></g><g id="g-root-tx_facialre_1q5q73n1w0zqww-stroke" data-item-order="0" data-item-id="tx_facialre_1q5q73n1w0zqww" data-item-class="Label Stroke" data-item-index="none" data-renderer-id="0" transform="translate(555, 141)"></g><g id="g-root-cu_13ymohf1w116of-stroke" data-item-order="0" data-item-id="cu_13ymohf1w116of" data-item-class="Curve Stroke ColorFillGray ColorStrokeGray" data-item-index="none" data-renderer-id="0" transform="translate(381, 165)"><g id="cu_13ymohf1w116of-stroke" fill="none" stroke-linecap="round" stroke-linejoin="round" stroke-miterlimit="4" stroke="#888888" stroke-width="2" stroke-dasharray="5.0, 7.0"><g><path d="M 10 10L 10 28L 10 46"></path></g></g></g><g id="g-root-smil_4pfrsj1w0zrid-stroke" data-item-order="0" data-item-id="smil_4pfrsj1w0zrid" data-item-class="Icon Stroke" data-item-index="none" data-renderer-id="0" transform="translate(213, 15)"><g id="smil_4pfrsj1w0zrid-stroke" fill="none" stroke-linecap="round" stroke-linejoin="round" stroke-miterlimit="4" stroke="#3bc482" stroke-width="2"><g><path d="M 38.032501 29.360001C 37.647282 30.497702 37.119766 31.582134 36.462502 32.587502M 32.977501 36.185001C 32.004066 36.888115 30.938702 37.454231 29.811251 37.8675M 24.875 38.75C 23.674637 38.737225 22.480974 38.569164 21.32375 38.25M 16.83 36.041252C 15.863809 35.329796 14.996244 34.493336 14.25 33.553749M 11.885 29.135C 11.53251 27.987076 11.329174 26.798569 11.28 25.598751M 11.9675 20.639999C 12.352716 19.502298 12.880233 18.417866 13.5375 17.4125M 17.022499 13.815001C 17.995932 13.111887 19.061298 12.545767 20.188749 12.1325M 25.125 11.25C 26.325768 11.262862 27.519833 11.430922 28.677502 11.75M 33.169998 13.95875C 34.136192 14.670207 35.003757 15.506667 35.75 16.446251M 38.115002 20.865C 38.467491 22.012924 38.670826 23.201431 38.720001 24.401249M 16.25 25C 16.25 29.832493 20.167509 33.75 25.000002 33.75C 29.832493 33.75 33.75 29.832493 33.75 25.000002C 33.75 20.167509 29.832493 16.25 25.000002 16.25C 20.167509 16.25 16.25 20.167509 16.25 25.000002ZM 27.422501 28.125C 25.914804 28.957582 24.085194 28.957582 22.577499 28.124998M 22.1875 23.125C 22.360088 23.125 22.5 23.264912 22.5 23.4375C 22.5 23.610088 22.360088 23.75 22.1875 23.75C 22.014912 23.75 21.875 23.610088 21.875 23.4375C 21.875 23.264912 22.014912 23.125 22.1875 23.125M 27.8125 23.125C 27.639912 23.125 27.5 23.264912 27.5 23.4375C 27.5 23.610088 27.639912 23.75 27.8125 23.75C 27.985088 23.75 28.125 23.610088 28.125 23.4375C 28.125 23.264912 27.985088 23.125 27.8125 23.125"></path></g></g></g><g id="g-root-1_dl2s1f1w0vkzz-stroke" data-item-order="0" data-item-id="1_dl2s1f1w0vkzz" data-item-class="Icon Stroke" data-item-index="none" data-renderer-id="0" transform="translate(261, 213)"><g id="1_dl2s1f1w0vkzz-stroke" fill="none" stroke-linecap="round" stroke-linejoin="round" stroke-miterlimit="4" stroke="#4682e3" stroke-width="2"><g><path d="M 17.4375 35.451248C 18.762774 35.230663 19.881689 34.344501 20.4 33.105M 13.02625 20.682499C 15.583341 21.130905 17.78021 22.756794 18.956249 25.071251M 17.22875 22.786251L 19.470001 21.105M 22.5 10.84125C 22.475971 12.094332 22.249725 13.335309 21.830002 14.516251M 20 15.625C 20 16.315355 20.559643 16.875 21.25 16.875C 21.940357 16.875 22.5 16.315355 22.5 15.625C 22.5 14.934644 21.940357 14.375 21.25 14.375C 20.559643 14.375 20 14.934644 20 15.625ZM 27.5 18.125C 27.5 18.815355 28.059643 19.375 28.75 19.375C 29.440357 19.375 30 18.815355 30 18.125C 30 17.434645 29.440357 16.875 28.75 16.875C 28.059643 16.875 27.5 17.434645 27.5 18.125ZM 31.875 23.125C 31.875 23.815357 32.434647 24.375 33.125 24.375C 33.815353 24.375 34.375 23.815357 34.375 23.125C 34.375 22.434643 33.815353 21.875 33.125 21.875C 32.434647 21.875 31.875 22.434643 31.875 23.125ZM 27.5 27.5C 27.5 28.190357 28.059643 28.75 28.75 28.75C 29.440357 28.75 30 28.190357 30 27.5C 30 26.809643 29.440357 26.25 28.75 26.25C 28.059643 26.25 27.5 26.809643 27.5 27.5ZM 19.375 20.625C 19.375 21.315357 19.934645 21.875 20.625 21.875C 21.315357 21.875 21.875 21.315357 21.875 20.625C 21.875 19.934645 21.315357 19.375 20.625 19.375C 19.934645 19.375 19.375 19.934645 19.375 20.625ZM 18.125 26.25C 18.125 26.940357 18.684645 27.5 19.375 27.5C 20.065357 27.5 20.625 26.940357 20.625 26.25C 20.625 25.559643 20.065357 25 19.375 25C 18.684645 25 18.125 25.559643 18.125 26.25ZM 39.375 25C 39.380005 23.241142 38.470627 21.60606 36.973751 20.682501C 37.058456 20.313419 37.102474 19.936169 37.105 19.557499C 37.130047 16.958282 35.151798 14.776985 32.5625 14.54875C 32.588318 13.525249 32.203011 12.534068 31.492691 11.796733C 30.782368 11.059398 29.806252 10.637381 28.782499 10.625C 27.163891 10.717669 25.719658 11.672218 25 13.125C 24.280342 11.672218 22.836109 10.717669 21.217501 10.625C 20.193748 10.637381 19.217632 11.059398 18.507309 11.796733C 17.796988 12.534068 17.411678 13.525249 17.4375 14.54875C 14.847234 14.777057 12.868641 16.959826 12.895 19.559999C 12.895476 19.938438 12.937393 20.315687 13.02 20.684999C 11.527056 21.612268 10.619104 23.245028 10.619104 25.002501C 10.619104 26.759972 11.527056 28.392731 13.02 29.32C 12.937393 29.689312 12.895476 30.066563 12.895 30.445C 12.871267 33.043259 14.849168 35.223087 17.4375 35.451248C 17.411678 36.474751 17.796988 37.465931 18.507309 38.203266C 19.217632 38.940601 20.193748 39.362617 21.217501 39.375C 22.710207 39.411186 24.124975 38.709881 24.999998 37.499996C 25.875023 38.709881 27.289793 39.411186 28.782499 39.374996C 29.806252 39.362617 30.782368 38.940601 31.492691 38.203266C 32.203011 37.465931 32.588318 36.474751 32.5625 35.451248C 35.152763 35.222942 37.131359 33.040173 37.105 30.439999C 37.102474 30.061331 37.058456 29.68408 36.973747 29.314999C 38.469868 28.391907 39.379135 26.757969 39.375 25ZM 25 13.125L 25 27.5M 25 32.447502L 25 37.5M 36.466251 17.078751L 33 18.813749C 31.987383 19.320721 30.797626 19.33271 29.775 18.846249M 28.75 26.25C 29.120653 24.703291 30.328293 23.495653 31.875002 23.125002M 32.5625 35.451248C 32.217499 34.25 31.62875 33.326248 30.625 33.125M 19.375 31.875C 19.375 32.565353 19.934645 33.125 20.625 33.125C 21.315357 33.125 21.875 32.565353 21.875 31.875C 21.875 31.184645 21.315357 30.625 20.625 30.625C 19.934645 30.625 19.375 31.184645 19.375 31.875ZM 28.125 33.125C 28.125 33.815353 28.684643 34.375 29.375 34.375C 30.065355 34.375 30.625 33.815353 30.625 33.125C 30.625 32.434647 30.065355 31.875 29.375 31.875C 28.684643 31.875 28.125 32.434647 28.125 33.125Z"></path></g></g></g><g id="g-root-tx_deeplear_mgpsab1w0vk7a-stroke" data-item-order="0" data-item-id="tx_deeplear_mgpsab1w0vk7a" data-item-class="Label Stroke" data-item-index="none" data-renderer-id="0" transform="translate(297, 216)"></g><g id="g-root-cu_13ymohf1w117gg-stroke" data-item-order="0" data-item-id="cu_13ymohf1w117gg" data-item-class="Curve Stroke ColorFillGray ColorStrokeGray" data-item-index="none" data-renderer-id="0" transform="translate(273, 255)"><g id="cu_13ymohf1w117gg-stroke" fill="none" stroke-linecap="round" stroke-linejoin="round" stroke-miterlimit="4" stroke="#888888" stroke-width="2" stroke-dasharray="5.0, 7.0"><g><path d="M 10 10L 10 22L 10 34L 19 34L 28 34"></path></g></g></g><g id="g-root-cu_v3m5bn1w1153f-stroke" data-item-order="0" data-item-id="cu_v3m5bn1w1153f" data-item-class="Curve Stroke ColorFillGray ColorStrokeGray" data-item-index="none" data-renderer-id="0" transform="translate(273, 255)"><g id="cu_v3m5bn1w1153f-stroke" fill="none" stroke-linecap="round" stroke-linejoin="round" stroke-miterlimit="4" stroke="#888888" stroke-width="2" stroke-dasharray="5.0, 7.0"><g><path d="M 10 10L 10 17.5L 10 58C 10.000002 64.627417 15.372585 70 22.000002 69.999999L 22.1 70L 28 70"></path></g></g></g><g id="g-root-tx_cnns_1d14woj1w0ycqt-stroke" data-item-order="0" data-item-id="tx_cnns_1d14woj1w0ycqt" data-item-class="Label Stroke" data-item-index="none" data-renderer-id="0" transform="translate(297, 267)"></g><g id="g-root-tx_imagepre_i09t2r1w0zt38-stroke" data-item-order="0" data-item-id="tx_imagepre_i09t2r1w0zt38" data-item-class="Label Stroke" data-item-index="none" data-renderer-id="0" transform="translate(15, 18)"></g><g id="g-root-cu_18eg6lv1w116o2-stroke" data-item-order="0" data-item-id="cu_18eg6lv1w116o2" data-item-class="Curve Stroke ColorFillGray ColorStrokeGray" data-item-index="none" data-renderer-id="0" transform="translate(255, 30)"><g id="cu_18eg6lv1w116o2-stroke" fill="none" stroke-linecap="round" stroke-linejoin="round" stroke-miterlimit="4" stroke="#888888" stroke-width="2" stroke-dasharray="5.0, 7.0"><g><path d="M 58 45L 55 45L 54.9 45C 50.422131 44.972593 45.63978 43.214375 41.299999 40C 38.67988 38.118536 36.018569 33.561496 33.999999 27.499999C 31.98143 21.438501 29.320119 16.881461 26.699999 15C 22.360218 11.785625 17.577867 10.027408 13.1 10L 13 10L 10 10"></path></g></g></g></g></g></svg>