<?xml version="1.0" encoding="utf-8" standalone="yes"?>
<!DOCTYPE svg PUBLIC "-//W3C//DTD SVG 1.1//EN" "http://www.w3.org/Graphics/SVG/1.1/DTD/svg11.dtd">
<svg width="720" height="266" viewBox="0 0 720 266" style="fill:none;stroke:none;fill-rule:evenodd;clip-rule:evenodd;stroke-linecap:round;stroke-linejoin:round;stroke-miterlimit:1.5;" version="1.1" xmlns="http://www.w3.org/2000/svg" xmlns:xlink="http://www.w3.org/1999/xlink"><style id="fontImports">@import url("https://fonts.googleapis.com/css2?family=Roboto:wght@400;700&amp;display=block");</style><rect id="" x="0" y="0" width="720" height="266" style="fill: #ffffff;"></rect><g id="items" style="isolation: isolate"><g id="blend" style="mix-blend-mode:multiply"><g id="g-root-5.cr-small_cr_hu0d0y1ucsd1i-fill" data-item-order="-86866" data-item-id="5.cr-small_cr_hu0d0y1ucsd1i" data-item-class="Shape Stroke Fill ScenePart Part Indexed" data-item-index="4" data-renderer-id="0" transform="translate(169.04299926757812, 3)"><g id="5.cr-small_cr_hu0d0y1ucsd1i-fill" stroke="none" fill="#fef2e6"><g><path d="M 9.99697 46.000215C 9.996973 65.882471 26.114722 82.00022 45.996973 82.00022C 65.879224 82.00022 81.996973 65.882471 81.996973 46.00022C 81.996973 26.117969 65.879224 10.00022 45.996973 10.00022C 26.114722 10.00022 9.996973 26.117969 9.996973 46.00022"></path></g></g></g><g id="g-root-4.cr-small_cr_m9tv5e1ucsc99-fill" data-item-order="-86864" data-item-id="4.cr-small_cr_m9tv5e1ucsc99" data-item-class="Shape Stroke Fill ScenePart Part Indexed" data-item-index="3" data-renderer-id="0" transform="translate(169.04299926757812, 171)"><g id="4.cr-small_cr_m9tv5e1ucsc99-fill" stroke="none" fill="#e6f9ff"><g><path d="M 9.99697 46.000215C 9.996973 65.882472 26.114722 82.000221 45.996973 82.000221C 65.879224 82.000221 81.996973 65.882472 81.996973 46.000221C 81.996973 26.11797 65.879224 10.000221 45.996973 10.000221C 26.114722 10.000221 9.996973 26.11797 9.996973 46.000221"></path></g></g></g><g id="g-root-3.cr-small_cr_m9tv5e1ucsc98-fill" data-item-order="-86862" data-item-id="3.cr-small_cr_m9tv5e1ucsc98" data-item-class="Shape Stroke Fill ScenePart Part Indexed" data-item-index="2" data-renderer-id="0" transform="translate(458.9999694824219, 171)"><g id="3.cr-small_cr_m9tv5e1ucsc98-fill" stroke="none" fill="#ffe7e6"><g><path d="M 10 46.000215C 10.000005 65.882472 26.117754 82.000221 46.000005 82.000221C 65.882256 82.000221 82.000005 65.882472 82.000005 46.000221C 82.000005 26.11797 65.882256 10.000221 46.000005 10.000221C 26.117754 10.000221 10.000005 26.11797 10.000005 46.000221"></path></g></g></g><g id="g-root-1.cr-small_cr_zknwfm1ucsdu2-fill" data-item-order="-86860" data-item-id="1.cr-small_cr_zknwfm1ucsdu2" data-item-class="Shape Stroke Fill ScenePart Part Indexed Indexed_1" data-item-index="1" data-renderer-id="0" transform="translate(458.9559631347656, 3)"><g id="1.cr-small_cr_zknwfm1ucsdu2-fill" stroke="none" fill="#fffce6"><g><path d="M 10.004006 46.000215C 10.004012 65.882471 26.121761 82.00022 46.004012 82.00022C 65.886263 82.00022 82.004012 65.882471 82.004012 46.00022C 82.004012 26.117969 65.886263 10.00022 46.004012 10.00022C 26.121761 10.00022 10.004012 26.117969 10.004012 46.00022"></path></g></g></g><g id="g-root-0.Vector_sy_1lr4xyq1ucsem8-fill" data-item-order="-86858" data-item-id="0.Vector_sy_1lr4xyq1ucsem8" data-item-class="ScenePart Part Indexed_0 Fill Stroke ColorFillGray ColorStrokeGray" data-item-index="0" data-renderer-id="0" transform="translate(277.9999694824219, 50.9959716796875)"><g id="0.Vector_sy_1lr4xyq1ucsem8-fill" stroke="none" fill="#f6f6f6"><g><path d="M 154 81.999998C 154 42.235998 121.765 9.999998 82 9.999998L 82 9.999998C 42.236 9.999998 10 42.235998 10 81.999998L 10 81.999998C 10 121.764998 42.236 153.999998 82 153.999998L 82 153.999998C 121.764 153.999998 154 121.764998 154 81.999998L 154 81.999998Z"></path></g></g></g><g id="g-root-0.Union_sy_18gawoi1ucsd1d-fill" data-item-order="-86856" data-item-id="0.Union_sy_18gawoi1ucsd1d" data-item-class="ScenePart Part Indexed_0 Fill Stroke ColorFillGray ColorStrokeGray" data-item-index="0" data-renderer-id="0" transform="translate(252.98495483398438, 51)"><g id="0.Union_sy_18gawoi1ucsd1d-fill" stroke="none" fill="#f6f6f6"><g><path d="M 179.015015 81.999969C 179.015015 70.935969 176.519015 60.453969 172.060015 51.087969L 194.894015 37.904969L 198.483015 44.118969L 204.131015 25.971969L 185.590015 21.788969L 189.142015 27.941969L 166.299015 41.130969C 153.310015 22.323969 131.602015 9.999969 107.015015 9.999969C 82.460015 9.999969 60.775015 22.291969 47.780015 41.058969L 25.006015 27.910969L 28.594015 21.695969L 10.054015 25.877969L 15.702015 44.025969L 19.254015 37.872969L 42.007015 51.009969C 37.525015 60.395969 35.015015 70.904969 35.015015 81.999969C 35.015015 93.050969 37.505015 103.520969 41.954015 112.878969L 19.236015 125.995969L 15.648015 119.780969L 10.000015 137.928969L 28.541015 142.110969L 24.988015 135.957969L 47.710015 122.839969C 60.698015 141.662969 82.416015 153.999969 107.015015 153.999969C 131.620015 153.999969 153.342015 141.657969 166.328015 122.827969L 189.124015 135.988969L 185.536015 142.203969L 204.077015 138.021969L 198.429015 119.873969L 194.876015 126.026969L 172.082015 112.866969C 176.527015 103.511969 179.015015 93.045969 179.015015 81.999969Z"></path></g></g></g><g id="g-root-tx_socialme_8ydcs21ucsdu7-fill" data-item-order="0" data-item-id="tx_socialme_8ydcs21ucsdu7" data-item-class="Label Stroke SceneTarget Indexed" data-item-index="4" data-renderer-id="0" transform="translate(38, 15)"><g id="tx_socialme_8ydcs21ucsdu7-fill" stroke="none" fill="#484848"><g><text style="font: 20px Roboto, sans-serif; white-space: pre;"><tspan x="13.64" y="33.75" dominant-baseline="ideographic">Social Media </tspan><tspan x="17.32" y="57.75" dominant-baseline="ideographic">Applications</tspan></text></g></g></g><g id="g-root-add_13zuxgy1ucwlxh-fill" data-item-order="0" data-item-id="add_13zuxgy1ucwlxh" data-item-class="Icon Stroke SceneTarget Indexed InsideFill InsideColorFill" data-item-index="4" data-renderer-id="0" transform="translate(180, 15)"></g><g id="g-root-webc_18fofle1ucwl58-fill" data-item-order="0" data-item-id="webc_18fofle1ucwl58" data-item-class="Icon Stroke SceneTarget Indexed Indexed_1 InsideFill InsideColorFill" data-item-index="1" data-renderer-id="0" transform="translate(471.9999694824219, 15)"></g><g id="g-root-tx_computer_1lt0d821ucsdmr-fill" data-item-order="0" data-item-id="tx_computer_1lt0d821ucsdmr" data-item-class="Label Stroke SceneTarget Indexed Indexed_1" data-item-index="1" data-renderer-id="0" transform="translate(542, 27)"><g id="tx_computer_1lt0d821ucsdmr-fill" stroke="none" fill="#484848"><g><text style="font: 20px Roboto, sans-serif; white-space: pre;"><tspan x="12" y="33.75" dominant-baseline="ideographic">Computer Vision</tspan></text></g></g></g><g id="g-root-chip_m7bysy1ucwm4h-fill" data-item-order="0" data-item-id="chip_m7bysy1ucwm4h" data-item-class="Icon Stroke SceneTarget SceneStart InsideFill InsideGrayFill ColorFillGray ColorStrokeGray" data-item-index="none" data-renderer-id="0" transform="translate(313.9999694824219, 86.9959716796875)"></g><g id="g-root-tx_largelan_3ctma1ucsc8w-fill" data-item-order="0" data-item-id="tx_largelan_3ctma1ucsc8w" data-item-class="Label Stroke SceneTarget Indexed" data-item-index="3" data-renderer-id="0" transform="translate(2, 183)"><g id="tx_largelan_3ctma1ucsc8w-fill" stroke="none" fill="#484848"><g><text style="font: 20px Roboto, sans-serif; white-space: pre;"><tspan x="21.38" y="33.75" dominant-baseline="ideographic">Large Language </tspan><tspan x="98.08" y="57.75" dominant-baseline="ideographic">Models</tspan></text></g></g></g><g id="g-root-tran_qp0w6q1ucwkcm-fill" data-item-order="0" data-item-id="tran_qp0w6q1ucwkcm" data-item-class="Icon Stroke SceneTarget Indexed InsideFill InsideColorFill" data-item-index="3" data-renderer-id="0" transform="translate(180, 183)"></g><g id="g-root-2_1um5h4i1ucwlxe-fill" data-item-order="0" data-item-id="2_1um5h4i1ucwlxe" data-item-class="Icon Stroke SceneTarget Indexed InsideFill InsideColorFill" data-item-index="2" data-renderer-id="0" transform="translate(471.9999694824219, 183)"></g><g id="g-root-tx_selfdriv_1q8tvci1ucscuh-fill" data-item-order="0" data-item-id="tx_selfdriv_1q8tvci1ucscuh" data-item-class="Label Stroke SceneTarget Indexed" data-item-index="2" data-renderer-id="0" transform="translate(542, 195)"><g id="tx_selfdriv_1q8tvci1ucscuh-fill" stroke="none" fill="#484848"><g><text style="font: 20px Roboto, sans-serif; white-space: pre;"><tspan x="12" y="33.75" dominant-baseline="ideographic">Self-Driving Cars</tspan></text></g></g></g><g id="g-root-5.cr-small_cr_hu0d0y1ucsd1i-stroke" data-item-order="-86866" data-item-id="5.cr-small_cr_hu0d0y1ucsd1i" data-item-class="Shape Stroke Fill ScenePart Part Indexed" data-item-index="4" data-renderer-id="0" transform="translate(169.04299926757812, 3)"><g id="5.cr-small_cr_hu0d0y1ucsd1i-stroke" fill="none" stroke-linecap="round" stroke-linejoin="round" stroke-miterlimit="4" stroke="#dd8433" stroke-width="2"><g><path d="M 9.99697 46.000215C 9.996973 65.882471 26.114722 82.00022 45.996973 82.00022C 65.879224 82.00022 81.996973 65.882471 81.996973 46.00022C 81.996973 26.117969 65.879224 10.00022 45.996973 10.00022C 26.114722 10.00022 9.996973 26.117969 9.996973 46.00022"></path></g></g></g><g id="g-root-4.cr-small_cr_m9tv5e1ucsc99-stroke" data-item-order="-86864" data-item-id="4.cr-small_cr_m9tv5e1ucsc99" data-item-class="Shape Stroke Fill ScenePart Part Indexed" data-item-index="3" data-renderer-id="0" transform="translate(169.04299926757812, 171)"><g id="4.cr-small_cr_m9tv5e1ucsc99-stroke" fill="none" stroke-linecap="round" stroke-linejoin="round" stroke-miterlimit="4" stroke="#17b0e3" stroke-width="2"><g><path d="M 9.99697 46.000215C 9.996973 65.882472 26.114722 82.000221 45.996973 82.000221C 65.879224 82.000221 81.996973 65.882472 81.996973 46.000221C 81.996973 26.11797 65.879224 10.000221 45.996973 10.000221C 26.114722 10.000221 9.996973 26.11797 9.996973 46.000221"></path></g></g></g><g id="g-root-3.cr-small_cr_m9tv5e1ucsc98-stroke" data-item-order="-86862" data-item-id="3.cr-small_cr_m9tv5e1ucsc98" data-item-class="Shape Stroke Fill ScenePart Part Indexed" data-item-index="2" data-renderer-id="0" transform="translate(458.9999694824219, 171)"><g id="3.cr-small_cr_m9tv5e1ucsc98-stroke" fill="none" stroke-linecap="round" stroke-linejoin="round" stroke-miterlimit="4" stroke="#e15e5a" stroke-width="2"><g><path d="M 10 46.000215C 10.000005 65.882472 26.117754 82.000221 46.000005 82.000221C 65.882256 82.000221 82.000005 65.882472 82.000005 46.000221C 82.000005 26.11797 65.882256 10.000221 46.000005 10.000221C 26.117754 10.000221 10.000005 26.11797 10.000005 46.000221"></path></g></g></g><g id="g-root-1.cr-small_cr_zknwfm1ucsdu2-stroke" data-item-order="-86860" data-item-id="1.cr-small_cr_zknwfm1ucsdu2" data-item-class="Shape Stroke Fill ScenePart Part Indexed Indexed_1" data-item-index="1" data-renderer-id="0" transform="translate(458.9559631347656, 3)"><g id="1.cr-small_cr_zknwfm1ucsdu2-stroke" fill="none" stroke-linecap="round" stroke-linejoin="round" stroke-miterlimit="4" stroke="#e3cd09" stroke-width="2"><g><path d="M 10.004006 46.000215C 10.004012 65.882471 26.121761 82.00022 46.004012 82.00022C 65.886263 82.00022 82.004012 65.882471 82.004012 46.00022C 82.004012 26.117969 65.886263 10.00022 46.004012 10.00022C 26.121761 10.00022 10.004012 26.117969 10.004012 46.00022"></path></g></g></g><g id="g-root-0.Vector_sy_1lr4xyq1ucsem8-stroke" data-item-order="-86858" data-item-id="0.Vector_sy_1lr4xyq1ucsem8" data-item-class="ScenePart Part Indexed_0 Fill Stroke ColorFillGray ColorStrokeGray" data-item-index="0" data-renderer-id="0" transform="translate(277.9999694824219, 50.9959716796875)"><g id="0.Vector_sy_1lr4xyq1ucsem8-stroke" fill="none" stroke-linecap="round" stroke-linejoin="round" stroke-miterlimit="4" stroke="#888888" stroke-width="2"><g><path d="M 154 81.999998C 154 42.235998 121.765 9.999998 82 9.999998L 82 9.999998C 42.236 9.999998 10 42.235998 10 81.999998L 10 81.999998C 10 121.764998 42.236 153.999998 82 153.999998L 82 153.999998C 121.764 153.999998 154 121.764998 154 81.999998L 154 81.999998Z"></path></g></g></g><g id="g-root-0.Union_sy_18gawoi1ucsd1d-stroke" data-item-order="-86856" data-item-id="0.Union_sy_18gawoi1ucsd1d" data-item-class="ScenePart Part Indexed_0 Fill Stroke ColorFillGray ColorStrokeGray" data-item-index="0" data-renderer-id="0" transform="translate(252.98495483398438, 51)"><g id="0.Union_sy_18gawoi1ucsd1d-stroke" fill="none" stroke-linecap="round" stroke-linejoin="round" stroke-miterlimit="4" stroke="#888888" stroke-width="2"><g><path d="M 179.015015 81.999969C 179.015015 70.935969 176.519015 60.453969 172.060015 51.087969L 194.894015 37.904969L 198.483015 44.118969L 204.131015 25.971969L 185.590015 21.788969L 189.142015 27.941969L 166.299015 41.130969C 153.310015 22.323969 131.602015 9.999969 107.015015 9.999969C 82.460015 9.999969 60.775015 22.291969 47.780015 41.058969L 25.006015 27.910969L 28.594015 21.695969L 10.054015 25.877969L 15.702015 44.025969L 19.254015 37.872969L 42.007015 51.009969C 37.525015 60.395969 35.015015 70.904969 35.015015 81.999969C 35.015015 93.050969 37.505015 103.520969 41.954015 112.878969L 19.236015 125.995969L 15.648015 119.780969L 10.000015 137.928969L 28.541015 142.110969L 24.988015 135.957969L 47.710015 122.839969C 60.698015 141.662969 82.416015 153.999969 107.015015 153.999969C 131.620015 153.999969 153.342015 141.657969 166.328015 122.827969L 189.124015 135.988969L 185.536015 142.203969L 204.077015 138.021969L 198.429015 119.873969L 194.876015 126.026969L 172.082015 112.866969C 176.527015 103.511969 179.015015 93.045969 179.015015 81.999969Z"></path></g></g></g><g id="g-root-tx_socialme_8ydcs21ucsdu7-stroke" data-item-order="0" data-item-id="tx_socialme_8ydcs21ucsdu7" data-item-class="Label Stroke SceneTarget Indexed" data-item-index="4" data-renderer-id="0" transform="translate(38, 15)"></g><g id="g-root-add_13zuxgy1ucwlxh-stroke" data-item-order="0" data-item-id="add_13zuxgy1ucwlxh" data-item-class="Icon Stroke SceneTarget Indexed InsideFill InsideColorFill" data-item-index="4" data-renderer-id="0" transform="translate(180, 15)"><g id="add_13zuxgy1ucwlxh-stroke" fill="none" stroke-linecap="round" stroke-linejoin="round" stroke-miterlimit="4" stroke="#dd8433" stroke-width="2"><g><path d="M 22 11L 46 11C 46 11 50 11 50 15L 50 53C 50 53 50 57 46 57L 22 57C 22 57 18 57 18 53L 18 15C 18 15 18 11 22 11M 50 19L 18 19M 50 49L 18 49M 30 15L 38 15M 40.753998 42.051998C 39.982002 40.851997 37.417999 39.992001 34.208 38.804001C 33.302002 38.466 33.450001 36.101997 33.851997 35.66C 35.145 34.26017 35.778164 32.374504 35.591999 30.477999C 35.702957 29.296841 35.302357 28.124769 34.491657 27.258619C 33.680954 26.392471 32.53791 25.915318 31.352001 25.948C 30.165945 25.915384 29.022749 26.392483 28.211746 27.258547C 27.400743 28.124611 26.999659 29.296638 27.110001 30.477999C 26.923834 32.374504 27.556999 34.26017 28.85 35.66C 29.25 36.101997 29.4 38.459999 28.493999 38.804001C 25.284 40 22.720001 40.860001 21.948 42.051998M 39 29L 45 29M 42 26L 42 32"></path></g></g></g><g id="g-root-webc_18fofle1ucwl58-stroke" data-item-order="0" data-item-id="webc_18fofle1ucwl58" data-item-class="Icon Stroke SceneTarget Indexed Indexed_1 InsideFill InsideColorFill" data-item-index="1" data-renderer-id="0" transform="translate(471.9999694824219, 15)"><g id="webc_18fofle1ucwl58-stroke" fill="none" stroke-linecap="round" stroke-linejoin="round" stroke-miterlimit="4" stroke="#e3cd09" stroke-width="2"><g><path d="M 13.428572 32.354286C 13.428573 43.715572 22.638714 52.925716 34 52.925716C 45.361286 52.925716 54.57143 43.715572 54.57143 32.354286C 54.57143 20.993 45.361286 11.782858 34 11.782858C 22.638714 11.782858 13.428573 20.993 13.428573 32.354286M 44.525715 50.045715C 47.759556 51.487049 50.655933 53.589256 53.028568 56.21714M 14.971429 56.21714C 17.344067 53.589256 20.240444 51.487049 23.474285 50.045712M 23.714287 32.354286C 23.714287 38.034927 28.319357 42.640003 34 42.640003C 39.680645 42.640003 44.285713 38.034927 44.285713 32.354286C 44.285713 26.673643 39.680645 22.068573 34 22.068573C 28.319357 22.068573 23.714287 26.673643 23.714287 32.354286M 32.285713 32.354286C 32.285713 33.30106 33.053226 34.068573 34 34.068573C 34.946774 34.068573 35.714287 33.30106 35.714287 32.354286C 35.714287 31.407513 34.946774 30.639999 34 30.639999C 33.053226 30.639999 32.285713 31.407513 32.285713 32.354286"></path></g></g></g><g id="g-root-tx_computer_1lt0d821ucsdmr-stroke" data-item-order="0" data-item-id="tx_computer_1lt0d821ucsdmr" data-item-class="Label Stroke SceneTarget Indexed Indexed_1" data-item-index="1" data-renderer-id="0" transform="translate(542, 27)"></g><g id="g-root-chip_m7bysy1ucwm4h-stroke" data-item-order="0" data-item-id="chip_m7bysy1ucwm4h" data-item-class="Icon Stroke SceneTarget SceneStart InsideFill InsideGrayFill ColorFillGray ColorStrokeGray" data-item-index="none" data-renderer-id="0" transform="translate(313.9999694824219, 86.9959716796875)"><g id="chip_m7bysy1ucwm4h-stroke" fill="none" stroke-linecap="round" stroke-linejoin="round" stroke-miterlimit="4" stroke="#888888" stroke-width="2"><g><path d="M 37.417 23.158001C 40.322254 22.178392 42.021595 19.166046 41.357491 16.172871C 40.693386 13.179695 37.879505 11.168711 34.832565 11.509735C 31.785625 11.850759 29.48595 14.434069 29.5 17.5C 29.508129 18.041552 29.589878 18.579483 29.743 19.098999C 29.41 19.069 29.089001 19 28.75 19C 24.464874 18.97908 20.543695 21.405886 18.650835 25.250338C 16.757975 29.094791 17.225513 33.68243 19.855 37.066002C 15.158212 37.388222 11.512916 41.292171 11.512916 46C 11.512916 50.707829 15.158212 54.611778 19.855 54.933998C 17.225513 58.317566 16.757975 62.905205 18.650835 66.749664C 20.543695 70.594116 24.464874 73.02092 28.75 73C 29.089001 73 29.41 72.931 29.743 72.901001C 28.851517 76.054665 30.655428 79.340202 33.794811 80.280739C 36.934189 81.221268 40.247456 79.468788 41.236809 76.344452C 42.226162 73.220108 40.525539 69.879936 37.417 68.842003M 54.583 23.158001C 51.677746 22.178392 49.978405 19.166046 50.642509 16.172871C 51.306614 13.179695 54.120495 11.168711 57.167435 11.509735C 60.214375 11.850759 62.514053 14.434069 62.5 17.5C 62.491867 18.041552 62.410118 18.579483 62.257004 19.098999C 62.590004 19.069 62.910995 19 63.25 19C 67.535126 18.97908 71.456306 21.405886 73.349167 25.250338C 75.24202 29.094791 74.77449 33.68243 72.145004 37.066002C 76.841789 37.388222 80.487083 41.292171 80.487083 46C 80.487083 50.707829 76.841789 54.611778 72.145004 54.933998C 74.77449 58.317566 75.24202 62.905205 73.349167 66.749664C 71.456306 70.594116 67.535126 73.02092 63.25 73C 62.910995 73 62.590004 72.931 62.257004 72.901001C 63.148483 76.054665 61.34457 79.340202 58.205193 80.280739C 55.065811 81.221268 51.752544 79.468788 50.763191 76.344452C 49.773838 73.220108 51.474461 69.879936 54.583 68.842003M 41.5 17.200001C 44.284611 15.592305 47.715393 15.592305 50.5 17.200001M 50.5 74.800003C 47.715393 76.4077 44.284611 76.4077 41.5 74.800003M 37 34L 55 34C 55 34 58 34 58 37L 58 55C 58 55 58 58 55 58L 37 58C 37 58 34 58 34 55L 34 37C 34 37 34 34 37 34M 40 28L 40 34M 52 28L 52 34M 28 52L 34 52M 28 40L 34 40M 52 64L 52 58M 40 64L 40 58M 64 40L 58 40M 64 52L 58 52"></path></g></g></g><g id="g-root-tx_largelan_3ctma1ucsc8w-stroke" data-item-order="0" data-item-id="tx_largelan_3ctma1ucsc8w" data-item-class="Label Stroke SceneTarget Indexed" data-item-index="3" data-renderer-id="0" transform="translate(2, 183)"></g><g id="g-root-tran_qp0w6q1ucwkcm-stroke" data-item-order="0" data-item-id="tran_qp0w6q1ucwkcm" data-item-class="Icon Stroke SceneTarget Indexed InsideFill InsideColorFill" data-item-index="3" data-renderer-id="0" transform="translate(180, 183)"><g id="tran_qp0w6q1ucwkcm-stroke" fill="none" stroke-linecap="round" stroke-linejoin="round" stroke-miterlimit="4" stroke="#17b0e3" stroke-width="2"><g><path d="M 25 33L 21 33L 15 39L 15 33L 13 33C 11.895431 33 11 32.104568 11 31L 11 13C 11 11.895431 11.895431 11 13 11L 37 11C 38.104568 11 39 11.895431 39 13L 39 31M 43 31L 55 31C 56.104568 31 57 31.89543 57 33L 57 49C 57 50.104568 56.104568 51 55 51L 53 51L 53 57L 47 51L 31 51C 29.89543 51 29 50.104568 29 49L 29 33C 29 31.89543 29.89543 31 31 31L 33 31M 21 27L 21 18C 21 16.343145 22.343147 15 24 15C 25.656855 15 27 16.343145 27 18L 27 27M 21 21L 27 21M 45 37L 45 35M 39 37L 51 37M 42 37C 42.269234 41.487095 45.575417 45.206551 50 46M 48 37C 47.730766 41.487095 44.424583 45.206551 40 46"></path></g></g></g><g id="g-root-2_1um5h4i1ucwlxe-stroke" data-item-order="0" data-item-id="2_1um5h4i1ucwlxe" data-item-class="Icon Stroke SceneTarget Indexed InsideFill InsideColorFill" data-item-index="2" data-renderer-id="0" transform="translate(471.9999694824219, 183)"><g id="2_1um5h4i1ucwlxe-stroke" fill="none" stroke-linecap="round" stroke-linejoin="round" stroke-miterlimit="4" stroke="#e15e5a" stroke-width="2"><g><path d="M 21 43.438L 16 43.438C 13.790861 43.438 12 41.647141 12 39.438L 12 15.438C 12 13.228861 13.790861 11.438 16 11.438L 30 11.438C 32.209137 11.438 34 13.228861 34 15.438L 34 30.438M 13 37.174L 22 37.174M 46 53.562L 36 53.562M 30 53.562L 26 53.562L 26 41.562C 26 38.248291 28.686293 35.562 32 35.562L 50 35.562C 53.313709 35.562 56 38.248291 56 41.562L 56 53.562L 52 53.562M 30 53.562C 30 55.218857 31.343147 56.562 33 56.562C 34.656853 56.562 36 55.218857 36 53.562C 36 51.905148 34.656853 50.562 33 50.562C 31.343147 50.562 30 51.905148 30 53.562M 46 53.562C 46 55.218857 47.343147 56.562 49 56.562C 50.656857 56.562 52 55.218857 52 53.562C 52 51.905148 50.656857 50.562 49 50.562C 47.343147 50.562 46 51.905148 46 53.562M 20.172001 27.662001C 21.733999 26.100471 24.266001 26.100471 25.827999 27.662001M 17.586 22.57C 20.575485 19.57852 25.424515 19.57852 28.414 22.57M 26 43.438L 32 43.438C 33.104568 43.438 34 42.542568 34 41.438L 34 35.562M 48.062 35.562L 48.062 41.5C 48.062 42.604568 48.957432 43.5 50.062 43.5L 55.938 43.5M 38.779999 43.438L 43.220001 43.438"></path></g></g></g><g id="g-root-tx_selfdriv_1q8tvci1ucscuh-stroke" data-item-order="0" data-item-id="tx_selfdriv_1q8tvci1ucscuh" data-item-class="Label Stroke SceneTarget Indexed" data-item-index="2" data-renderer-id="0" transform="translate(542, 195)"></g></g></g></svg>