<?xml version="1.0" encoding="utf-8" standalone="yes"?>
<!DOCTYPE svg PUBLIC "-//W3C//DTD SVG 1.1//EN" "http://www.w3.org/Graphics/SVG/1.1/DTD/svg11.dtd">
<svg width="768" height="254" viewBox="0 0 768 254" style="fill:none;stroke:none;fill-rule:evenodd;clip-rule:evenodd;stroke-linecap:round;stroke-linejoin:round;stroke-miterlimit:1.5;" version="1.1" xmlns="http://www.w3.org/2000/svg" xmlns:xlink="http://www.w3.org/1999/xlink"><style id="fontImports">@import url("https://fonts.googleapis.com/css2?family=Roboto:wght@400;700&amp;display=block");</style><rect id="" x="0" y="0" width="768" height="254" style="fill: #ffffff;"></rect><g id="items" style="isolation: isolate"><g id="blend" style="mix-blend-mode:multiply"><g id="g-root--1.cu_sy_znt5d01qqxp1r-fill" data-item-order="-109436" data-item-id="-1.cu_sy_znt5d01qqxp1r" data-item-class="ScenePart Part Fill Stroke ColorFillGray ColorStrokeGray" data-item-index="-1" data-renderer-id="0" transform="translate(205, 14.99993896484375)"><g id="-1.cu_sy_znt5d01qqxp1r-fill" stroke="none" fill="#f6f6f6"><g><path d="M 125 34L 101 10L 10 166L 34 190L 125 34ZM 125 34L 34 190L 216 190L 125 34Z"></path></g></g></g><g id="g-root-0.line-start_sy_v8m4bo1qqxmo8-fill" data-item-order="-109433" data-item-id="0.line-start_sy_v8m4bo1qqxmo8" data-item-class="ScenePart Part Indexed_0 Stroke" data-item-index="0" data-renderer-id="0" transform="translate(182, 116.99993896484375)"></g><g id="g-root-0.cr-small_cr_qssm781qqxngh-fill" data-item-order="-109432" data-item-id="0.cr-small_cr_qssm781qqxngh" data-item-class="Shape Stroke Fill ScenePart Part Indexed_0" data-item-index="0" data-renderer-id="0" transform="translate(110, 80.99993896484375)"><g id="0.cr-small_cr_qssm781qqxngh-fill" stroke="none" fill="#f0f0f0"><g><path d="M 10 46C 10 65.882251 26.117749 82 46 82C 65.882251 82 82 65.882251 82 46C 82 26.117749 65.882251 10 46 10C 26.117749 10 10 26.117749 10 46"></path></g></g></g><g id="g-root-3.line_sy_1d152zo1qqxmha-fill" data-item-order="-109429" data-item-id="3.line_sy_1d152zo1qqxmha" data-item-class="ScenePart Part Indexed Stroke" data-item-index="3" data-renderer-id="0" transform="translate(275, 116.99993896484375)"></g><g id="g-root-3.cr-small_cr_18lbkv81qqxn9j-fill" data-item-order="-109428" data-item-id="3.cr-small_cr_18lbkv81qqxn9j" data-item-class="Shape Stroke Fill ScenePart Part Indexed" data-item-index="3" data-renderer-id="0" transform="translate(530, 170.99993896484375)"><g id="3.cr-small_cr_18lbkv81qqxn9j-fill" stroke="none" fill="#ffe7e6"><g><path d="M 10 40C 10.000002 56.568544 23.431459 70.000002 40.000002 70.000002C 56.568544 70.000002 70.000002 56.568544 70.000002 40.000002C 70.000002 23.431459 56.568544 10.000002 40.000002 10.000002C 23.431459 10.000002 10.000002 23.431459 10.000002 40.000002"></path></g></g></g><g id="g-root-2.line_sy_6i2jo1qqxngk-fill" data-item-order="-109425" data-item-id="2.line_sy_6i2jo1qqxngk" data-item-class="ScenePart Part Indexed Stroke" data-item-index="2" data-renderer-id="0" transform="translate(274.5, 116.99993896484375)"></g><g id="g-root-2.cr-small_cr_1lw5m5g1qqxoud-fill" data-item-order="-109424" data-item-id="2.cr-small_cr_1lw5m5g1qqxoud" data-item-class="Shape Stroke Fill ScenePart Part Indexed" data-item-index="2" data-renderer-id="0" transform="translate(530, 86.99993896484375)"><g id="2.cr-small_cr_1lw5m5g1qqxoud-fill" stroke="none" fill="#fef2e6"><g><path d="M 10 40C 10.000002 56.568544 23.431459 70.000002 40.000002 70.000002C 56.568544 70.000002 70.000002 56.568544 70.000002 40.000002C 70.000002 23.431459 56.568544 10.000002 40.000002 10.000002C 23.431459 10.000002 10.000002 23.431459 10.000002 40.000002"></path></g></g></g><g id="g-root-1.line_sy_dhc3tw1qqxp1e-fill" data-item-order="-109421" data-item-id="1.line_sy_dhc3tw1qqxp1e" data-item-class="ScenePart Part Indexed Indexed_1 Stroke" data-item-index="1" data-renderer-id="0" transform="translate(274.5, 32.99993896484375)"></g><g id="g-root-1.cr-small_cr_4mbko41qqxmob-fill" data-item-order="-109420" data-item-id="1.cr-small_cr_4mbko41qqxmob" data-item-class="Shape Stroke Fill ScenePart Part Indexed Indexed_1" data-item-index="1" data-renderer-id="0" transform="translate(530, 3)"><g id="1.cr-small_cr_4mbko41qqxmob-fill" stroke="none" fill="#fffce6"><g><path d="M 10 40C 10.000002 56.568544 23.431459 70.000002 40.000002 70.000002C 56.568544 70.000002 70.000002 56.568544 70.000002 40.000002C 70.000002 23.431459 56.568544 10.000002 40.000002 10.000002C 23.431459 10.000002 10.000002 23.431459 10.000002 40.000002"></path></g></g></g><g id="g-root-1_145i5wk1qqtgjk-fill" data-item-order="0" data-item-id="1_145i5wk1qqtgjk" data-item-class="Icon Stroke SceneTarget Indexed Indexed_1 InsideFill InsideColorFill" data-item-index="1" data-renderer-id="0" transform="translate(542, 14.99993896484375)"></g><g id="g-root-tx_datapriv_1ha3d5w1qqz1fv-fill" data-item-order="0" data-item-id="tx_datapriv_1ha3d5w1qqz1fv" data-item-class="Label Stroke SceneTarget Indexed Indexed_1" data-item-index="1" data-renderer-id="0" transform="translate(602, 20.99993896484375)"><g id="tx_datapriv_1ha3d5w1qqz1fv-fill" stroke="none" fill="#484848"><g><text style="font: 20px Roboto, sans-serif; white-space: pre;"><tspan x="12" y="33.75" dominant-baseline="ideographic">Data Privacy</tspan></text></g></g></g><g id="g-root-tx_decentra_hz117o1qqxn9k-fill" data-item-order="0" data-item-id="tx_decentra_hz117o1qqxn9k" data-item-class="Label Stroke SceneTarget SceneStart" data-item-index="none" data-renderer-id="0" transform="translate(2, 92.99993896484375)"><g id="tx_decentra_hz117o1qqxn9k-fill" stroke="none" fill="#484848"><g><text style="font: 20px Roboto, sans-serif; white-space: pre;"><tspan x="15.02" y="33.75" dominant-baseline="ideographic">Federated </tspan><tspan x="26.85" y="57.75" dominant-baseline="ideographic">Learning</tspan></text></g></g></g><g id="g-root-lapt_qsspd01qqtfyd-fill" data-item-order="0" data-item-id="lapt_qsspd01qqtfyd" data-item-class="Icon Stroke SceneTarget SceneStart InsideFill" data-item-index="none" data-renderer-id="0" transform="translate(122, 92.99993896484375)"></g><g id="g-root-desk_1d1565g1qqtez3-fill" data-item-order="0" data-item-id="desk_1d1565g1qqtez3" data-item-class="Icon Stroke SceneTarget Indexed InsideFill InsideColorFill" data-item-index="2" data-renderer-id="0" transform="translate(542, 98.99993896484375)"></g><g id="g-root-tx_modelupd_959g841qqxn2i-fill" data-item-order="0" data-item-id="tx_modelupd_959g841qqxn2i" data-item-class="Label Stroke SceneTarget Indexed" data-item-index="2" data-renderer-id="0" transform="translate(602, 104.99993896484375)"><g id="tx_modelupd_959g841qqxn2i-fill" stroke="none" fill="#484848"><g><text style="font: 20px Roboto, sans-serif; white-space: pre;"><tspan x="12" y="33.75" dominant-baseline="ideographic">Model Updates</tspan></text></g></g></g><g id="g-root-boxe_6i5pg1qqtfye-fill" data-item-order="0" data-item-id="boxe_6i5pg1qqtfye" data-item-class="Icon Stroke SceneTarget Indexed InsideFill InsideColorFill" data-item-index="3" data-renderer-id="0" transform="translate(542, 182.99993896484375)"></g><g id="g-root-tx_localtra_1ly11es1qqxnup-fill" data-item-order="0" data-item-id="tx_localtra_1ly11es1qqxnup" data-item-class="Label Stroke SceneTarget Indexed" data-item-index="3" data-renderer-id="0" transform="translate(602, 188.99993896484375)"><g id="tx_localtra_1ly11es1qqxnup-fill" stroke="none" fill="#484848"><g><text style="font: 20px Roboto, sans-serif; white-space: pre;"><tspan x="12" y="33.75" dominant-baseline="ideographic">Local Training</tspan></text></g></g></g><g id="g-root--1.cu_sy_znt5d01qqxp1r-stroke" data-item-order="-109436" data-item-id="-1.cu_sy_znt5d01qqxp1r" data-item-class="ScenePart Part Fill Stroke ColorFillGray ColorStrokeGray" data-item-index="-1" data-renderer-id="0" transform="translate(205, 14.99993896484375)"><g id="-1.cu_sy_znt5d01qqxp1r-stroke" fill="none" stroke-linecap="round" stroke-linejoin="round" stroke-miterlimit="4" stroke="#888888" stroke-width="2"><g><path d="M 125 34L 101 10L 10 166L 34 190L 125 34ZM 125 34L 34 190L 216 190L 125 34Z"></path></g></g></g><g id="g-root-0.line-start_sy_v8m4bo1qqxmo8-stroke" data-item-order="-109433" data-item-id="0.line-start_sy_v8m4bo1qqxmo8" data-item-class="ScenePart Part Indexed_0 Stroke" data-item-index="0" data-renderer-id="0" transform="translate(182, 116.99993896484375)"><g id="0.line-start_sy_v8m4bo1qqxmo8-stroke" fill="none" stroke-linecap="round" stroke-linejoin="round" stroke-miterlimit="4" stroke="#484848" stroke-width="2"><g><path d="M 10 10L 102.5 10"></path></g></g></g><g id="g-root-0.cr-small_cr_qssm781qqxngh-stroke" data-item-order="-109432" data-item-id="0.cr-small_cr_qssm781qqxngh" data-item-class="Shape Stroke Fill ScenePart Part Indexed_0" data-item-index="0" data-renderer-id="0" transform="translate(110, 80.99993896484375)"><g id="0.cr-small_cr_qssm781qqxngh-stroke" fill="none" stroke-linecap="round" stroke-linejoin="round" stroke-miterlimit="4" stroke="#484848" stroke-width="2"><g><path d="M 10 46C 10 65.882251 26.117749 82 46 82C 65.882251 82 82 65.882251 82 46C 82 26.117749 65.882251 10 46 10C 26.117749 10 10 26.117749 10 46"></path></g></g></g><g id="g-root-3.line_sy_1d152zo1qqxmha-stroke" data-item-order="-109429" data-item-id="3.line_sy_1d152zo1qqxmha" data-item-class="ScenePart Part Indexed Stroke" data-item-index="3" data-renderer-id="0" transform="translate(275, 116.99993896484375)"><g id="3.line_sy_1d152zo1qqxmha-stroke" fill="none" stroke-linecap="round" stroke-linejoin="round" stroke-miterlimit="4" stroke="#e15e5a" stroke-width="2"><g><path d="M 257.19 93.14L 107.5 22L 10 10"></path><path d="M 249 96.4L 257.6 93.4L 254.6 84.7" stroke-dasharray="none"></path></g></g></g><g id="g-root-3.cr-small_cr_18lbkv81qqxn9j-stroke" data-item-order="-109428" data-item-id="3.cr-small_cr_18lbkv81qqxn9j" data-item-class="Shape Stroke Fill ScenePart Part Indexed" data-item-index="3" data-renderer-id="0" transform="translate(530, 170.99993896484375)"><g id="3.cr-small_cr_18lbkv81qqxn9j-stroke" fill="none" stroke-linecap="round" stroke-linejoin="round" stroke-miterlimit="4" stroke="#e15e5a" stroke-width="2"><g><path d="M 10 40C 10.000002 56.568544 23.431459 70.000002 40.000002 70.000002C 56.568544 70.000002 70.000002 56.568544 70.000002 40.000002C 70.000002 23.431459 56.568544 10.000002 40.000002 10.000002C 23.431459 10.000002 10.000002 23.431459 10.000002 40.000002"></path></g></g></g><g id="g-root-2.line_sy_6i2jo1qqxngk-stroke" data-item-order="-109425" data-item-id="2.line_sy_6i2jo1qqxngk" data-item-class="ScenePart Part Indexed Stroke" data-item-index="2" data-renderer-id="0" transform="translate(274.5, 116.99993896484375)"><g id="2.line_sy_6i2jo1qqxngk-stroke" fill="none" stroke-linecap="round" stroke-linejoin="round" stroke-miterlimit="4" stroke="#dd8433" stroke-width="2"><g><path d="M 257.5 10.49L 101 10L 10 10"></path><path d="M 251.5 17L 258 10.5L 251.5 4" stroke-dasharray="none"></path></g></g></g><g id="g-root-2.cr-small_cr_1lw5m5g1qqxoud-stroke" data-item-order="-109424" data-item-id="2.cr-small_cr_1lw5m5g1qqxoud" data-item-class="Shape Stroke Fill ScenePart Part Indexed" data-item-index="2" data-renderer-id="0" transform="translate(530, 86.99993896484375)"><g id="2.cr-small_cr_1lw5m5g1qqxoud-stroke" fill="none" stroke-linecap="round" stroke-linejoin="round" stroke-miterlimit="4" stroke="#dd8433" stroke-width="2"><g><path d="M 10 40C 10.000002 56.568544 23.431459 70.000002 40.000002 70.000002C 56.568544 70.000002 70.000002 56.568544 70.000002 40.000002C 70.000002 23.431459 56.568544 10.000002 40.000002 10.000002C 23.431459 10.000002 10.000002 23.431459 10.000002 40.000002"></path></g></g></g><g id="g-root-1.line_sy_dhc3tw1qqxp1e-stroke" data-item-order="-109421" data-item-id="1.line_sy_dhc3tw1qqxp1e" data-item-class="ScenePart Part Indexed Indexed_1 Stroke" data-item-index="1" data-renderer-id="0" transform="translate(274.5, 32.99993896484375)"><g id="1.line_sy_dhc3tw1qqxp1e-stroke" fill="none" stroke-linecap="round" stroke-linejoin="round" stroke-miterlimit="4" stroke="#e3cd09" stroke-width="2"><g><path d="M 10 93.999988L 94 81.999988L 257.67 10.799988"></path><path d="M 254.8 19.199988L 258.1 10.599988L 249.6 7.199988" stroke-dasharray="none"></path></g></g></g><g id="g-root-1.cr-small_cr_4mbko41qqxmob-stroke" data-item-order="-109420" data-item-id="1.cr-small_cr_4mbko41qqxmob" data-item-class="Shape Stroke Fill ScenePart Part Indexed Indexed_1" data-item-index="1" data-renderer-id="0" transform="translate(530, 3)"><g id="1.cr-small_cr_4mbko41qqxmob-stroke" fill="none" stroke-linecap="round" stroke-linejoin="round" stroke-miterlimit="4" stroke="#e3cd09" stroke-width="2"><g><path d="M 10 40C 10.000002 56.568544 23.431459 70.000002 40.000002 70.000002C 56.568544 70.000002 70.000002 56.568544 70.000002 40.000002C 70.000002 23.431459 56.568544 10.000002 40.000002 10.000002C 23.431459 10.000002 10.000002 23.431459 10.000002 40.000002"></path></g></g></g><g id="g-root-1_145i5wk1qqtgjk-stroke" data-item-order="0" data-item-id="1_145i5wk1qqtgjk" data-item-class="Icon Stroke SceneTarget Indexed Indexed_1 InsideFill InsideColorFill" data-item-index="1" data-renderer-id="0" transform="translate(542, 14.99993896484375)"><g id="1_145i5wk1qqtgjk-stroke" fill="none" stroke-linecap="round" stroke-linejoin="round" stroke-miterlimit="4" stroke="#e3cd09" stroke-width="2"><g><path d="M 14.5945 11.125L 25.070499 11.125C 25.898928 11.125 26.570499 11.796573 26.570499 12.625L 26.570499 21.232L 26.570499 21.232L 13.0945 21.232L 13.0945 21.232L 13.0945 12.625C 13.0945 11.796573 13.766073 11.125 14.5945 11.125ZM 27.0415 27.969999L 12.6235 27.969999C 12.071418 27.968899 11.554916 27.697338 11.241054 27.243151C 10.927192 26.788963 10.855811 26.209805 11.05 25.693001L 13.0945 21.232L 26.570499 21.232L 28.618 25.693001C 28.812374 26.2103 28.740658 26.790039 28.42609 27.244383C 28.111523 27.698725 27.594112 27.969883 27.0415 27.970001ZM 19.8325 27.969999L 19.8325 35.5495M 11.3125 35.5495L 26.282499 35.5495M 33.0625 33.625L 42.8125 33.625C 42.8125 33.625 45.0625 33.625 45.0625 35.875L 45.0625 42.625C 45.0625 42.625 45.0625 44.875 42.8125 44.875L 33.0625 44.875C 33.0625 44.875 30.8125 44.875 30.8125 42.625L 30.8125 35.875C 30.8125 35.875 30.8125 33.625 33.0625 33.625M 32.6875 33.656502L 32.6875 31.375C 32.6875 28.475506 35.03801 26.125002 37.9375 26.125002C 40.836994 26.125002 43.1875 28.475506 43.1875 31.375002L 43.1875 33.656502M 35.6875 39.25L 37.1875 40.75L 40.1875 37.75M 18.797501 24.601L 21.040001 24.601"></path></g></g></g><g id="g-root-tx_datapriv_1ha3d5w1qqz1fv-stroke" data-item-order="0" data-item-id="tx_datapriv_1ha3d5w1qqz1fv" data-item-class="Label Stroke SceneTarget Indexed Indexed_1" data-item-index="1" data-renderer-id="0" transform="translate(602, 20.99993896484375)"></g><g id="g-root-tx_decentra_hz117o1qqxn9k-stroke" data-item-order="0" data-item-id="tx_decentra_hz117o1qqxn9k" data-item-class="Label Stroke SceneTarget SceneStart" data-item-index="none" data-renderer-id="0" transform="translate(2, 92.99993896484375)"></g><g id="g-root-lapt_qsspd01qqtfyd-stroke" data-item-order="0" data-item-id="lapt_qsspd01qqtfyd" data-item-class="Icon Stroke SceneTarget SceneStart InsideFill" data-item-index="none" data-renderer-id="0" transform="translate(122, 92.99993896484375)"><g id="lapt_qsspd01qqtfyd-stroke" fill="none" stroke-linecap="round" stroke-linejoin="round" stroke-miterlimit="4" stroke="#484848" stroke-width="2"><g><path d="M 51 39L 51 20.336C 51.001106 18.493902 49.508102 17 47.666 17L 20.334 17C 18.491901 17 16.998896 18.493902 17 20.336L 17 39M 41.834 43C 41.410732 42.991592 41.032341 43.262569 40.903999 43.666C 40.348 45.560001 37.470001 47 34 47C 30.530001 47 27.65 45.557999 27.096001 43.666C 26.967661 43.262569 26.58927 42.991592 26.166 43L 12.384 43C 12.04915 43.001835 11.736887 43.169189 11.549944 43.447002C 11.363 43.724815 11.325583 44.077118 11.45 44.388C 13.061754 48.384979 16.940292 51.001804 21.25 51L 46.754002 51C 51.063705 51.001804 54.942245 48.384979 56.554001 44.388C 56.678417 44.077118 56.640999 43.724815 56.454056 43.447002C 56.267113 43.169189 55.954849 43.001835 55.619999 43ZM 29 26.002001C 29 28.763424 31.238577 31.002001 34 31.002001C 36.761425 31.002001 39 28.763424 39 26.002001C 39 23.240578 36.761425 21.001999 34 21.001999C 31.238577 21.001999 29 23.240578 29 26.002001ZM 27.122 32.882L 30.464001 29.538M 40.877998 32.882L 37.535999 29.538M 22 35.001999C 22 36.658855 23.343147 38.001999 25 38.001999C 26.656855 38.001999 28 36.658855 28 35.001999C 28 33.345146 26.656855 32.001999 25 32.001999C 23.343147 32.001999 22 33.345146 22 35.001999ZM 40 35.001999C 40 36.658855 41.343147 38.001999 43 38.001999C 44.656857 38.001999 46 36.658855 46 35.001999C 46 33.345146 44.656857 32.001999 43 32.001999C 41.343147 32.001999 40 33.345146 40 35.001999Z"></path></g></g></g><g id="g-root-desk_1d1565g1qqtez3-stroke" data-item-order="0" data-item-id="desk_1d1565g1qqtez3" data-item-class="Icon Stroke SceneTarget Indexed InsideFill InsideColorFill" data-item-index="2" data-renderer-id="0" transform="translate(542, 98.99993896484375)"><g id="desk_1d1565g1qqtez3-stroke" fill="none" stroke-linecap="round" stroke-linejoin="round" stroke-miterlimit="4" stroke="#dd8433" stroke-width="2"><g><path d="M 40.857143 17.714285L 43.42857 17.714285C 44.138649 17.714285 44.714287 18.289919 44.714287 19L 44.714287 37C 44.714287 37.710079 44.138649 38.285713 43.42857 38.285713L 12.571428 38.285713C 11.861348 38.285713 11.285714 37.710079 11.285714 37L 11.285714 19C 11.285714 18.289919 11.861348 17.714285 12.571428 17.714285L 15.142857 17.714285M 28 38.285713L 28 44.714287M 22.857143 44.714287L 33.142857 44.714287M 28 26.714285L 28 11.285714M 22.857143 16.428572L 28 11.285714L 33.142857 16.428572"></path></g></g></g><g id="g-root-tx_modelupd_959g841qqxn2i-stroke" data-item-order="0" data-item-id="tx_modelupd_959g841qqxn2i" data-item-class="Label Stroke SceneTarget Indexed" data-item-index="2" data-renderer-id="0" transform="translate(602, 104.99993896484375)"></g><g id="g-root-boxe_6i5pg1qqtfye-stroke" data-item-order="0" data-item-id="boxe_6i5pg1qqtfye" data-item-class="Icon Stroke SceneTarget Indexed InsideFill InsideColorFill" data-item-index="3" data-renderer-id="0" transform="translate(542, 182.99993896484375)"><g id="boxe_6i5pg1qqtfye-stroke" fill="none" stroke-linecap="round" stroke-linejoin="round" stroke-miterlimit="4" stroke="#e15e5a" stroke-width="2"><g><path d="M 25.376501 14.5C 25.376501 16.571068 27.055431 18.25 29.126501 18.25C 31.197567 18.25 32.876499 16.571068 32.876499 14.5C 32.876499 12.428932 31.197567 10.75 29.126501 10.75C 27.055431 10.75 25.376501 12.428932 25.376501 14.5ZM 33.625 25.75L 33.625 21.25L 37.619499 21.25C 39.969749 21.25 41.875 23.155252 41.875 25.505501C 41.878075 27.012941 40.842491 28.323931 39.375301 28.669971C 37.908112 29.016014 36.395855 28.305943 35.725002 26.956001L 35.125 25.756001ZM 35.125 25.75L 38.125 25.75M 33.625 21.25L 24.625 21.25C 23.720669 21.249786 22.904087 21.791023 22.552 22.624001L 14.302 42.124001C 13.818199 43.268887 14.354114 44.589203 15.499001 45.072998C 16.643887 45.556801 17.964199 45.020885 18.448 43.876003L 21.415001 36.863503L 24.646 38.039501C 25.532969 38.363022 26.123623 39.205875 26.125 40.150002L 26.125 43C 26.125 44.242641 27.13236 45.25 28.375 45.25C 29.617641 45.25 30.625 44.242641 30.625 43L 30.625 40.150002C 30.620152 37.31321 28.846308 34.780605 26.182001 33.806503L 23.17 32.713001L 26.116001 25.75L 33.625 25.75"></path></g></g></g><g id="g-root-tx_localtra_1ly11es1qqxnup-stroke" data-item-order="0" data-item-id="tx_localtra_1ly11es1qqxnup" data-item-class="Label Stroke SceneTarget Indexed" data-item-index="3" data-renderer-id="0" transform="translate(602, 188.99993896484375)"></g></g></g></svg>