<?xml version="1.0" encoding="utf-8" standalone="yes"?>
<!DOCTYPE svg PUBLIC "-//W3C//DTD SVG 1.1//EN" "http://www.w3.org/Graphics/SVG/1.1/DTD/svg11.dtd">
<svg width="529" height="349" viewBox="0 0 529 349" style="fill:none;stroke:none;fill-rule:evenodd;clip-rule:evenodd;stroke-linecap:round;stroke-linejoin:round;stroke-miterlimit:1.5;" version="1.1" xmlns="http://www.w3.org/2000/svg" xmlns:xlink="http://www.w3.org/1999/xlink"><style id="fontImports">@import url("https://fonts.googleapis.com/css2?family=Roboto:wght@400;700&amp;display=block");</style><rect id="" x="0" y="0" width="528.014" height="348.966" style="fill: #ffffff;"></rect><g id="items" style="isolation: isolate"><g id="blend" style="mix-blend-mode:multiply"><g id="g-root-0.cr-big_cr_1d3n2hw1t8wuf5-fill" data-item-order="-94989" data-item-id="0.cr-big_cr_1d3n2hw1t8wuf5" data-item-class="Shape Stroke Fill ScenePart Part Indexed_0 ColorFillBlack ColorStrokeBlack" data-item-index="0" data-renderer-id="0" transform="translate(194.0068359375, 87.025146484375)"><g id="0.cr-big_cr_1d3n2hw1t8wuf5-fill" stroke="none" fill="#666666"><g><path d="M 10 70C 10.000003 103.137088 36.862918 130.000003 70.000003 130.000003C 103.137088 130.000003 130.000003 103.137088 130.000003 70.000003C 130.000003 36.862918 103.137088 10.000003 70.000003 10.000003C 36.862918 10.000003 10.000003 36.862918 10.000003 70.000003"></path></g></g></g><g id="g-root-3.cu_sy_zitftw1t8y7es-fill" data-item-order="-94987" data-item-id="3.cu_sy_zitftw1t8y7es" data-item-class="ScenePart Part Indexed Fill Stroke ColorStrokeBlack" data-item-index="3" data-renderer-id="0" transform="translate(89.8355712890625, 3)"><g id="3.cu_sy_zitftw1t8y7es-fill" stroke="none" fill="#e15e5a"><g><path d="M 174.170903 92.492597C 174.170903 93.321597 173.497903 93.991397 172.669903 94.011497C 162.962903 94.246297 153.174903 96.845797 144.173903 102.042397C 115.476603 118.610797 105.644103 155.306797 122.212703 184.003797C 122.217503 184.012797 122.214603 184.022797 122.206303 184.027797L 95.883903 199.224797C 94.597803 199.967797 95.016203 202.338797 96.336803 203.017797C 98.315403 204.035797 100.034303 205.615797 101.229503 207.685797C 104.543203 213.424797 102.576703 220.763797 96.837203 224.077797C 91.097703 227.391797 83.758603 225.424797 80.444903 219.685797C 79.249703 217.615797 78.741403 215.336797 78.849303 213.114797C 78.921303 211.631797 77.076803 210.083797 75.790703 210.825797L 50.763303 225.275797C 50.045903 225.689797 49.124303 225.437797 48.717503 224.716797C 10.000003 156.039797 33.733403 68.830797 102.172003 29.317697C 124.426503 16.469097 148.684903 10.235797 172.670903 10.007865C 173.498903 9.999997 174.168903 10.672197 174.168903 11.499997L 174.169903 40.423897C 174.169903 41.908697 171.907903 42.732097 170.658903 41.928197C 168.787903 40.723797 166.561903 40.025097 164.170903 40.025097C 157.543903 40.025097 152.170903 45.397597 152.170903 52.025097C 152.170903 58.652497 157.543903 64.025097 164.170903 64.025097C 166.561903 64.025097 168.788903 63.326197 170.658903 62.121697C 171.907903 61.317797 174.169903 62.140997 174.169903 63.625897L 174.170903 92.492597Z"></path></g></g></g><g id="g-root-2.cu_sy_13ymxyc1t8y6mj-fill" data-item-order="-94985" data-item-id="2.cu_sy_13ymxyc1t8y6mj" data-item-class="ScenePart Part Indexed Fill Stroke ColorStrokeBlack" data-item-index="2" data-renderer-id="0" transform="translate(129.61465454101562, 175.601318359375)"><g id="2.cu_sy_13ymxyc1t8y6mj-fill" stroke="none" fill="#17b0e3"><g><path d="M 81.104594 12.190992C 81.822494 11.776492 82.738794 12.023892 83.170494 12.731492C 88.227194 21.020392 95.372294 28.197092 104.373194 33.393692C 133.071194 49.962292 169.766194 40.129792 186.335194 11.432192C 186.339194 11.423892 186.350194 11.420992 186.358194 11.425792L 212.650194 26.605192C 213.940194 27.350192 215.800194 25.783692 215.725194 24.295592C 215.613194 22.067292 216.121194 19.781992 217.320194 17.705992C 220.634194 11.966492 227.973194 9.999992 233.712194 13.313692C 239.452194 16.627392 241.418194 23.966492 238.104194 29.705992C 236.906194 31.781992 235.181194 33.364392 233.195194 34.381792C 231.869194 35.061292 231.442194 37.454892 232.732194 38.199892L 257.801194 52.673392C 258.519194 53.087692 258.762194 54.011492 258.340194 54.724592C 218.223194 122.593492 130.831194 145.644492 62.392894 106.131092C 40.138394 93.282392 22.610894 75.390492 10.420694 54.732392C 9.999994 54.019392 10.246794 53.102592 10.963794 52.688592L 36.012294 38.226192C 37.298294 37.483692 39.142394 39.031192 39.070494 40.514292C 38.962694 42.736392 39.470994 45.014292 40.666094 47.084192C 43.979794 52.823692 51.318894 54.790192 57.058394 51.476492C 62.797894 48.162792 64.764394 40.823692 61.450694 35.084192C 60.255594 33.014192 58.536794 31.434892 56.558294 30.417192C 55.237894 29.737892 54.819794 27.367192 56.105694 26.624792L 81.104594 12.190992Z"></path></g></g></g><g id="g-root-1.cu_sy_13ymxyc1t8y6mi-fill" data-item-order="-94983" data-item-id="1.cu_sy_13ymxyc1t8y6mi" data-item-class="ScenePart Part Indexed Indexed_1 Fill Stroke ColorStrokeBlack" data-item-index="1" data-renderer-id="0" transform="translate(231.96484375, 3.0244140625)"><g id="1.cu_sy_13ymxyc1t8y6mi-fill" stroke="none" fill="#3bc482"><g><path d="M 85.3315 184.766407C 84.6136 184.351407 84.3697 183.434407 84.7667 182.706407C 89.4167 174.183407 92.0593 164.406407 92.0593 154.013407C 92.0593 120.876407 65.1964 94.013407 32.0593 94.013407C 32.0497 94.013407 32.0419 94.005607 32.0419 93.996007L 32.0419 63.637207C 32.0419 62.147207 29.7555 61.320007 28.5041 62.128707C 26.6301 63.339607 24.3971 64.042507 22 64.042507C 15.3726 64.042507 10 58.669907 10 52.042507C 10 45.415107 15.3726 40.042507 22 40.042507C 24.3971 40.042507 26.6301 40.745407 28.5041 41.956307C 29.7555 42.764907 32.0419 41.937807 32.0419 40.447807L 32.0419 11.500807C 32.0419 10.672307 32.7205 10.000007 33.5488 10.008487C 112.384 10.816707 176.042 74.974707 176.042 154.000407C 176.042 179.698407 169.311 203.823407 157.515 224.709407C 157.108 225.430407 156.191 225.674407 155.474 225.261407L 130.425 210.799407C 129.139 210.057407 129.557 207.686407 130.878 207.007407C 132.856 205.989407 134.575 204.410407 135.77 202.340407C 139.083 196.600407 137.117 189.261407 131.377 185.947407C 125.638 182.634407 118.299 184.600407 114.985 190.340407C 113.79 192.410407 113.282 194.688407 113.389 196.910407C 113.461 198.393407 111.617 199.941407 110.331 199.199407L 85.3315 184.766407Z"></path></g></g></g><g id="g-root-tx_automoti_vvxg1t8y87i-fill" data-item-order="0" data-item-id="tx_automoti_vvxg1t8y87i" data-item-class="Label Stroke SceneTarget Indexed ColorStrokeBlack" data-item-index="3" data-renderer-id="0" transform="translate(2, 51.0101318359375)"><g id="tx_automoti_vvxg1t8y87i-fill" stroke="none" fill="#666666"><g><text style="font: 20px Roboto, sans-serif; white-space: pre;"><tspan x="13.81" y="33.75" dominant-baseline="ideographic">Automotive</tspan></text></g></g></g><g id="g-root-tx_healthca_1hbcehw1t8y77s-fill" data-item-order="0" data-item-id="tx_healthca_1hbcehw1t8y77s" data-item-class="Label Stroke SceneTarget Indexed Indexed_1 ColorStrokeBlack" data-item-index="1" data-renderer-id="0" transform="translate(398.013671875, 51.037109375)"><g id="tx_healthca_1hbcehw1t8y77s-fill" stroke="none" fill="#666666"><g><text style="font: 20px Roboto, sans-serif; white-space: pre;"><tspan x="12" y="33.75" dominant-baseline="ideographic">Healthcare</tspan></text></g></g></g><g id="g-root-1_142dsh01t96n0l-fill" data-item-order="0" data-item-id="1_142dsh01t96n0l" data-item-class="Icon Stroke SceneTarget Indexed InsideFill InsideColorFill ColorStrokeBlack" data-item-index="3" data-renderer-id="0" transform="translate(141.643310546875, 71.9788818359375)"></g><g id="g-root-2_1qaq99g1t96m1b-fill" data-item-order="0" data-item-id="2_1qaq99g1t96m1b" data-item-class="Icon Stroke SceneTarget Indexed Indexed_1 InsideFill InsideColorFill ColorStrokeBlack" data-item-index="1" data-renderer-id="0" transform="translate(318.37060546875, 71.9783935546875)"></g><g id="g-root-2_1lt1bvo1t96nt8-fill" data-item-order="0" data-item-id="2_1lt1bvo1t96nt8" data-item-class="Icon Stroke SceneTarget InsideFill InsideColorFill InsideBlackFill ColorStrokeBlack" data-item-index="0" data-renderer-id="0" transform="translate(218.0068359375, 111.021240234375)"></g><g id="g-root-medi_dg38tg1t96n0m-fill" data-item-order="0" data-item-id="medi_dg38tg1t96n0m" data-item-class="Icon Stroke SceneTarget Indexed InsideFill InsideColorFill ColorStrokeBlack" data-item-index="2" data-renderer-id="0" transform="translate(230.007080078125, 225.02880859375)"></g><g id="g-root-tx_telecomm_1lr5wmc1t8y6fj-fill" data-item-order="0" data-item-id="tx_telecomm_1lr5wmc1t8y6fj" data-item-class="Label Stroke SceneTarget Indexed ColorStrokeBlack" data-item-index="2" data-renderer-id="0" transform="translate(158.0068359375, 302.9656982421875)"><g id="tx_telecomm_1lr5wmc1t8y6fj-fill" stroke="none" fill="#666666"><g><text style="font: 20px Roboto, sans-serif; white-space: pre;"><tspan x="12.83" y="33.75" dominant-baseline="ideographic">Telecommunications</tspan></text></g></g></g><g id="g-root-0.cr-big_cr_1d3n2hw1t8wuf5-stroke" data-item-order="-94989" data-item-id="0.cr-big_cr_1d3n2hw1t8wuf5" data-item-class="Shape Stroke Fill ScenePart Part Indexed_0 ColorFillBlack ColorStrokeBlack" data-item-index="0" data-renderer-id="0" transform="translate(194.0068359375, 87.025146484375)"><g id="0.cr-big_cr_1d3n2hw1t8wuf5-stroke" fill="none" stroke-linecap="round" stroke-linejoin="round" stroke-miterlimit="4" stroke="#2c2c2c" stroke-width="2"><g><path d="M 10 70C 10.000003 103.137088 36.862918 130.000003 70.000003 130.000003C 103.137088 130.000003 130.000003 103.137088 130.000003 70.000003C 130.000003 36.862918 103.137088 10.000003 70.000003 10.000003C 36.862918 10.000003 10.000003 36.862918 10.000003 70.000003"></path></g></g></g><g id="g-root-3.cu_sy_zitftw1t8y7es-stroke" data-item-order="-94987" data-item-id="3.cu_sy_zitftw1t8y7es" data-item-class="ScenePart Part Indexed Fill Stroke ColorStrokeBlack" data-item-index="3" data-renderer-id="0" transform="translate(89.8355712890625, 3)"><g id="3.cu_sy_zitftw1t8y7es-stroke" fill="none" stroke-linecap="round" stroke-linejoin="round" stroke-miterlimit="4" stroke="#2c2c2c" stroke-width="2"><g><path d="M 174.170603 92.492597C 174.170603 93.321597 173.498203 93.991397 172.669503 94.011497C 162.962803 94.246297 153.175103 96.845797 144.174203 102.042397C 115.476603 118.610997 105.644103 155.306397 122.212703 184.003997C 122.217503 184.012297 122.214603 184.022997 122.206303 184.027797L 95.883903 199.224997C 94.597803 199.967497 95.016203 202.338997 96.336803 203.018297C 98.315403 204.035997 100.034303 205.615397 101.229503 207.685497C 104.543203 213.424997 102.576703 220.764097 96.837203 224.077797C 91.097703 227.391497 83.758603 225.424997 80.444903 219.685497C 79.249703 217.615397 78.741403 215.337097 78.849303 213.114697C 78.921303 211.631397 77.076803 210.083297 75.790703 210.825797L 50.763303 225.275397C 50.045903 225.689597 49.124303 225.438097 48.717503 224.716497C 10.000003 156.039297 33.733403 68.830797 102.172003 29.317697C 124.426503 16.469097 148.685103 10.235797 172.670703 10.007897C 173.498503 9.999997 174.169003 10.672197 174.169003 11.499997L 174.169603 40.423897C 174.169603 41.908697 171.907403 42.732097 170.658903 41.928197C 168.788403 40.723797 166.561503 40.025097 164.171403 40.025097C 157.543903 40.025097 152.171403 45.397597 152.171403 52.025097C 152.171403 58.652497 157.543903 64.025097 164.171403 64.025097C 166.561603 64.025097 168.788703 63.326197 170.659303 62.121697C 171.907803 61.317797 174.170003 62.140997 174.170003 63.625897L 174.170603 92.492597Z"></path></g></g></g><g id="g-root-2.cu_sy_13ymxyc1t8y6mj-stroke" data-item-order="-94985" data-item-id="2.cu_sy_13ymxyc1t8y6mj" data-item-class="ScenePart Part Indexed Fill Stroke ColorStrokeBlack" data-item-index="2" data-renderer-id="0" transform="translate(129.61465454101562, 175.601318359375)"><g id="2.cu_sy_13ymxyc1t8y6mj-stroke" fill="none" stroke-linecap="round" stroke-linejoin="round" stroke-miterlimit="4" stroke="#2c2c2c" stroke-width="2"><g><path d="M 81.104594 12.190992C 81.822494 11.776492 82.738794 12.023892 83.170494 12.731492C 88.227194 21.020392 95.372294 28.197092 104.373194 33.393692C 133.070794 49.962292 169.766194 40.129792 186.334794 11.432192C 186.339594 11.423892 186.350194 11.420992 186.358594 11.425792L 212.650094 26.605192C 213.940394 27.350192 215.799894 25.783692 215.725294 24.295592C 215.613594 22.067292 216.121394 19.781992 217.319994 17.705992C 220.633694 11.966492 227.972794 9.999992 233.712294 13.313692C 239.451794 16.627392 241.418294 23.966492 238.104594 29.705992C 236.905994 31.781992 235.180794 33.364392 233.195194 34.381792C 231.869094 35.061292 231.442294 37.454892 232.732594 38.199892L 257.801494 52.673392C 258.518994 53.087692 258.761994 54.011492 258.340394 54.724592C 218.222994 122.593492 130.831494 145.644092 62.392894 106.131092C 40.138394 93.282392 22.610894 75.390492 10.420694 54.732392C 9.999994 54.019392 10.246794 53.102592 10.963794 52.688592L 36.012294 38.226192C 37.298294 37.483692 39.142394 39.031192 39.070494 40.514292C 38.962694 42.736392 39.470994 45.014292 40.666094 47.084192C 43.979794 52.823692 51.318894 54.790192 57.058394 51.476492C 62.797894 48.162792 64.764394 40.823692 61.450694 35.084192C 60.255594 33.014192 58.536794 31.434892 56.558294 30.417192C 55.237894 29.737892 54.819794 27.367192 56.105694 26.624792L 81.104594 12.190992Z"></path></g></g></g><g id="g-root-1.cu_sy_13ymxyc1t8y6mi-stroke" data-item-order="-94983" data-item-id="1.cu_sy_13ymxyc1t8y6mi" data-item-class="ScenePart Part Indexed Indexed_1 Fill Stroke ColorStrokeBlack" data-item-index="1" data-renderer-id="0" transform="translate(231.96484375, 3.0244140625)"><g id="1.cu_sy_13ymxyc1t8y6mi-stroke" fill="none" stroke-linecap="round" stroke-linejoin="round" stroke-miterlimit="4" stroke="#2c2c2c" stroke-width="2"><g><path d="M 85.3315 184.766007C 84.6136 184.351507 84.3697 183.434307 84.7667 182.706607C 89.4167 174.182907 92.0593 164.406807 92.0593 154.013407C 92.0593 120.876307 65.1964 94.013407 32.0593 94.013407C 32.0497 94.013407 32.0419 94.005607 32.0419 93.996007L 32.0419 63.637207C 32.0419 62.147207 29.7555 61.320007 28.5041 62.128707C 26.6301 63.339607 24.3971 64.042507 22 64.042507C 15.3726 64.042507 10 58.669907 10 52.042507C 10 45.415107 15.3726 40.042507 22 40.042507C 24.3971 40.042507 26.6301 40.745407 28.5041 41.956307C 29.7555 42.764907 32.0419 41.937807 32.0419 40.447807L 32.0419 11.500807C 32.0419 10.672307 32.7205 10.000007 33.5488 10.008507C 112.3837 10.816707 176.0419 74.974707 176.0419 154.000807C 176.0419 179.698107 169.3107 203.823307 157.5154 224.709407C 157.1083 225.430207 156.1909 225.674807 155.474 225.260907L 130.425 210.799607C 129.1391 210.057207 129.5572 207.686307 130.8776 207.007007C 132.8559 205.989207 134.5745 204.410107 135.7696 202.340107C 139.0833 196.600607 137.1168 189.261507 131.3773 185.947807C 125.6377 182.634107 118.2987 184.600607 114.985 190.340107C 113.7898 192.410207 113.2815 194.688307 113.3894 196.910607C 113.4613 198.393807 111.6172 199.941407 110.3313 199.199007L 85.3315 184.766007Z"></path></g></g></g><g id="g-root-tx_automoti_vvxg1t8y87i-stroke" data-item-order="0" data-item-id="tx_automoti_vvxg1t8y87i" data-item-class="Label Stroke SceneTarget Indexed ColorStrokeBlack" data-item-index="3" data-renderer-id="0" transform="translate(2, 51.0101318359375)"></g><g id="g-root-tx_healthca_1hbcehw1t8y77s-stroke" data-item-order="0" data-item-id="tx_healthca_1hbcehw1t8y77s" data-item-class="Label Stroke SceneTarget Indexed Indexed_1 ColorStrokeBlack" data-item-index="1" data-renderer-id="0" transform="translate(398.013671875, 51.037109375)"></g><g id="g-root-1_142dsh01t96n0l-stroke" data-item-order="0" data-item-id="1_142dsh01t96n0l" data-item-class="Icon Stroke SceneTarget Indexed InsideFill InsideColorFill ColorStrokeBlack" data-item-index="3" data-renderer-id="0" transform="translate(141.643310546875, 71.9788818359375)"><g id="1_142dsh01t96n0l-stroke" fill="none" stroke-linecap="round" stroke-linejoin="round" stroke-miterlimit="4" stroke="#2c2c2c" stroke-width="2"><g><path d="M 21 45L 21 48C 21 48.552284 20.552284 49 20 49L 16 49C 15.447716 49 15 48.552284 15 48L 15 45M 53 45L 53 48C 53 48.552284 52.552284 49 52 49L 48 49C 47.447716 49 47 48.552284 47 48L 47 45M 54 45C 54.552284 45 55 44.552284 55 44L 55 37.414001C 54.999943 37.149296 54.894939 36.895409 54.708 36.708L 49 31L 19 31L 13.292 36.708C 13.105062 36.895409 13.000056 37.149296 13 37.414001L 13 44C 13 44.552284 13.447716 45 14 45ZM 49 31L 45.228001 19.684C 45.092045 19.275806 44.710239 19.000328 44.279999 19L 23.720001 19C 23.289761 19.000328 22.907955 19.275806 22.771999 19.684L 19 31M 19 31L 14 31C 13.447716 31 13 30.552284 13 30L 13 28C 13 27.447716 13.447716 27 14 27L 20.334 27M 47.666 27L 54 27C 54.552284 27 55 27.447716 55 28L 55 30C 55 30.552284 54.552284 31 54 31L 49 31M 13.092 37L 20 37C 20.552284 37 21 37.447716 21 38L 21 40C 21 40.552284 20.552284 41 20 41L 13 41M 55 41L 48 41C 47.447716 41 47 40.552284 47 40L 47 38C 47 37.447716 47.447716 37 48 37L 54.908001 37"></path></g></g></g><g id="g-root-2_1qaq99g1t96m1b-stroke" data-item-order="0" data-item-id="2_1qaq99g1t96m1b" data-item-class="Icon Stroke SceneTarget Indexed Indexed_1 InsideFill InsideColorFill ColorStrokeBlack" data-item-index="1" data-renderer-id="0" transform="translate(318.37060546875, 71.9783935546875)"><g id="2_1qaq99g1t96m1b-stroke" fill="none" stroke-linecap="round" stroke-linejoin="round" stroke-miterlimit="4" stroke="#2c2c2c" stroke-width="2"><g><path d="M 48.674286 42.022858C 49.976238 40.786476 50.71344 39.069756 50.71344 37.274284C 50.71344 35.478817 49.976238 33.762096 48.674286 32.525715C 45.935684 29.926512 41.64146 29.926512 38.902859 32.525715L 34 37.428574L 29.097143 32.525715C 26.358541 29.926512 22.064316 29.926512 19.325714 32.525715C 18.023762 33.762096 17.286562 35.478817 17.286562 37.274284C 17.286562 39.069756 18.023762 40.786476 19.325714 42.022858L 34 56.285713ZM 27.142857 18.571428C 27.142857 22.358524 30.212906 25.428572 34 25.428572C 37.787094 25.428572 40.857143 22.358524 40.857143 18.571428C 40.857143 14.784333 37.787094 11.714286 34 11.714286C 30.212906 11.714286 27.142857 14.784333 27.142857 18.571428"></path></g></g></g><g id="g-root-2_1lt1bvo1t96nt8-stroke" data-item-order="0" data-item-id="2_1lt1bvo1t96nt8" data-item-class="Icon Stroke SceneTarget InsideFill InsideColorFill InsideBlackFill ColorStrokeBlack" data-item-index="0" data-renderer-id="0" transform="translate(218.0068359375, 111.021240234375)"><g id="2_1lt1bvo1t96nt8-stroke" fill="none" stroke-linecap="round" stroke-linejoin="round" stroke-miterlimit="4" stroke="#2c2c2c" stroke-width="2"><g><path d="M 50.73143 77.937141L 47.697144 79.119995C 46.602905 79.530258 45.397095 79.530258 44.302856 79.119995L 41.26857 77.937141C 25.541218 71.771309 15.18101 56.618488 15.142857 39.725716L 15.142857 25.428572C 27.007265 27.119453 38.846397 22.186481 46 12.571428C 52.42857 21.931429 63.074284 26.354286 76.85714 25.428572L 76.85714 39.725716C 76.818993 56.618488 66.458786 71.771309 50.73143 77.937141Z"></path></g></g></g><g id="g-root-medi_dg38tg1t96n0m-stroke" data-item-order="0" data-item-id="medi_dg38tg1t96n0m" data-item-class="Icon Stroke SceneTarget Indexed InsideFill InsideColorFill ColorStrokeBlack" data-item-index="2" data-renderer-id="0" transform="translate(230.007080078125, 225.02880859375)"><g id="medi_dg38tg1t96n0m-stroke" fill="none" stroke-linecap="round" stroke-linejoin="round" stroke-miterlimit="4" stroke="#2c2c2c" stroke-width="2"><g><path d="M 12 34L 16 34C 16 34 17 34 17 35L 17 45C 17 45 17 46 16 46L 12 46C 12 46 11 46 11 45L 11 35C 11 35 11 34 12 34M 22 28L 26 28C 26 28 27 28 27 29L 27 45C 27 45 27 46 26 46L 22 46C 22 46 21 46 21 45L 21 29C 21 29 21 28 22 28M 32 22L 36 22C 36 22 37 22 37 23L 37 45C 37 45 37 46 36 46L 32 46C 32 46 31 46 31 45L 31 23C 31 23 31 22 32 22M 41 46L 47 46M 51 46L 57 46"></path></g></g></g><g id="g-root-tx_telecomm_1lr5wmc1t8y6fj-stroke" data-item-order="0" data-item-id="tx_telecomm_1lr5wmc1t8y6fj" data-item-class="Label Stroke SceneTarget Indexed ColorStrokeBlack" data-item-index="2" data-renderer-id="0" transform="translate(158.0068359375, 302.9656982421875)"></g></g></g></svg>