<?xml version="1.0" encoding="utf-8" standalone="yes"?>
<!DOCTYPE svg PUBLIC "-//W3C//DTD SVG 1.1//EN" "http://www.w3.org/Graphics/SVG/1.1/DTD/svg11.dtd">
<svg width="708" height="399" viewBox="0 0 708 399" style="fill:none;stroke:none;fill-rule:evenodd;clip-rule:evenodd;stroke-linecap:round;stroke-linejoin:round;stroke-miterlimit:1.5;" version="1.1" xmlns="http://www.w3.org/2000/svg" xmlns:xlink="http://www.w3.org/1999/xlink"><style id="fontImports">@import url("https://fonts.googleapis.com/css2?family=Roboto:wght@400;700&amp;display=block");</style><rect id="" x="0" y="0" width="708" height="398.907" style="fill: #ffffff;"></rect><g id="items" style="isolation: isolate"><g id="blend" style="mix-blend-mode:multiply"><g id="g-root-6.Vector_sy_1qegbc41ud514x-fill" data-item-order="-152007" data-item-id="6.Vector_sy_1qegbc41ud514x" data-item-class="ScenePart Part Indexed Fill Stroke ColorStrokeBlack" data-item-index="6" data-renderer-id="0" transform="translate(201.06298828125, 3)"><g id="6.Vector_sy_1qegbc41ud514x-fill" stroke="none" fill="#e15e5a"><g><path d="M 93.119996 98.081997L 88.936996 116.622997L 70.788996 110.974997L 77.003996 107.385997L 63.941996 84.762997C 47.706996 90.973997 28.909996 84.651997 19.940996 69.118997C 9.999996 51.899997 15.899996 29.882997 33.117996 19.941997C 50.336996 9.999997 72.353996 15.899997 82.294996 33.118997C 91.250996 48.630997 87.349996 68.037997 73.898996 79.000997L 86.965996 101.634997L 93.119996 98.081997Z"></path></g></g></g><g id="g-root-5.Vector_sy_1uu9tgk1ud50co-fill" data-item-order="-152005" data-item-id="5.Vector_sy_1uu9tgk1ud50co" data-item-class="ScenePart Part Indexed Fill Stroke ColorStrokeBlack" data-item-index="5" data-renderer-id="0" transform="translate(122, 153.29696655273438)"><g id="5.Vector_sy_1uu9tgk1ud50co-fill" stroke="none" fill="#e3cd09"><g><path d="M 107.735 58.893L 121.701 46L 107.735 33.108L 107.735 40.284L 81.549 40.284C 78.81 23.118 63.937 10 46 10C 26.118 10 10 26.118 10 46C 10 65.882 26.118 82 46 82C 63.912 82 78.769 68.918 81.537 51.788L 107.735 51.788L 107.735 58.893Z"></path></g></g></g><g id="g-root-4.Vector_sy_1uu9tgk1ud50cn-fill" data-item-order="-152003" data-item-id="4.Vector_sy_1uu9tgk1ud50cn" data-item-class="ScenePart Part Indexed Fill Stroke ColorStrokeBlack" data-item-index="4" data-renderer-id="0" transform="translate(200.88201904296875, 269.2309875488281)"><g id="4.Vector_sy_1uu9tgk1ud50cn-fill" stroke="none" fill="#dd8433"><g><path d="M 93.150996 28.54101L 88.967996 10.00001L 70.819996 15.64801L 77.034996 19.23601L 63.941996 41.91401C 47.706996 35.70301 28.909996 42.02401 19.940996 57.55801C 9.999996 74.77701 15.898996 96.79401 33.117996 106.73501C 50.336996 116.67601 72.353996 110.77701 82.294996 93.55801C 91.250996 78.04601 87.349996 58.63901 73.898996 47.67601L 86.997996 24.98801L 93.150996 28.54101Z"></path></g></g></g><g id="g-root-3.Vector_sy_1uu9tgk1ud50cm-fill" data-item-order="-152001" data-item-id="3.Vector_sy_1uu9tgk1ud50cm" data-item-class="ScenePart Part Indexed Fill Stroke ColorStrokeBlack" data-item-index="3" data-renderer-id="0" transform="translate(367.967041015625, 269.2309875488281)"><g id="3.Vector_sy_1uu9tgk1ud50cm-fill" stroke="none" fill="#93c131"><g><path d="M 32.33099 15.64801L 14.18299 10.00001L 9.99999 28.54001L 16.21499 24.95201L 29.30799 47.63001C 15.81199 58.58501 11.88799 78.02401 20.85599 93.55801C 30.79699 110.77701 52.81399 116.67601 70.03299 106.73501C 87.25199 96.79401 93.15099 74.77701 83.20999 57.55801C 74.25399 42.04601 55.49599 35.72101 39.27699 41.88801L 26.17799 19.20001L 32.33099 15.64801Z"></path></g></g></g><g id="g-root-2.Vector_sy_1uu9tgk1ud50cl-fill" data-item-order="-151999" data-item-id="2.Vector_sy_1uu9tgk1ud50cl" data-item-class="ScenePart Part Indexed Fill Stroke ColorStrokeBlack" data-item-index="2" data-renderer-id="0" transform="translate(418, 153.29696655273438)"><g id="2.Vector_sy_1uu9tgk1ud50cl-fill" stroke="none" fill="#3bc482"><g><path d="M 23.965 58.893L 10 46L 23.965 33.108L 23.965 40.284L 50.089 40.284C 52.828 23.118 67.701 10 85.638 10C 105.52 10 121.638 26.118 121.638 46C 121.638 65.882 105.52 82 85.638 82C 67.726 82 52.869 68.918 50.1 51.788L 23.965 51.788L 23.965 58.893Z"></path></g></g></g><g id="g-root-1.Vector_sy_8z9lw1ud4zrg-fill" data-item-order="-151997" data-item-id="1.Vector_sy_8z9lw1ud4zrg" data-item-class="ScenePart Part Indexed Indexed_1 Fill Stroke ColorStrokeBlack" data-item-index="1" data-renderer-id="0" transform="translate(367.8170166015625, 3)"><g id="1.Vector_sy_8z9lw1ud4zrg-fill" stroke="none" fill="#17b0e3"><g><path d="M 32.331014 110.974997L 14.183014 116.622997L 10.000014 98.081997L 16.215014 101.669997L 29.277014 79.046997C 15.781014 68.091997 11.856014 48.651997 20.825014 33.118997C 30.766014 15.899997 52.783014 9.999997 70.002014 19.941997C 87.220014 29.882997 93.120014 51.899997 83.179014 69.118997C 74.223014 84.630997 55.465014 90.955997 39.245014 84.787997L 26.178014 107.421997L 32.331014 110.974997Z"></path></g></g></g><g id="g-root-0.cr-big_cr_93zsro1ud524j-fill" data-item-order="-151995" data-item-id="0.cr-big_cr_93zsro1ud524j" data-item-class="Shape Stroke Fill ScenePart Part Indexed_0 ColorFillBlack ColorStrokeBlack" data-item-index="0" data-renderer-id="0" transform="translate(254, 117.29299926757812)"><g id="0.cr-big_cr_93zsro1ud524j-fill" stroke="none" fill="#666666"><g><path d="M 10 82C 10.000001 121.764503 42.235499 154.000001 82.000001 154.000001C 121.764503 154.000001 154.000001 121.764503 154.000001 82.000001C 154.000001 42.235499 121.764503 10.000001 82.000001 10.000001C 42.235499 10.000001 10.000001 42.235499 10.000001 82.000001"></path></g></g></g><g id="g-root-tx_homomorp_1qegbc41ud514y-fill" data-item-order="0" data-item-id="tx_homomorp_1qegbc41ud514y" data-item-class="Label Stroke SceneTarget Indexed ColorStrokeBlack" data-item-index="6" data-renderer-id="0" transform="translate(62, 21.296966552734375)"><g id="tx_homomorp_1qegbc41ud514y-fill" stroke="none" fill="#666666"><g><text style="font: 20px Roboto, sans-serif; white-space: pre;"><tspan x="12.13" y="33.75" dominant-baseline="ideographic">Homomorphic </tspan><tspan x="45.66" y="57.75" dominant-baseline="ideographic">Encryption</tspan></text></g></g></g><g id="g-root-lock_1lwrh441ucle68-fill" data-item-order="0" data-item-id="lock_1lwrh441ucle68" data-item-class="Icon Stroke SceneTarget Indexed InsideFill InsideColorFill ColorStrokeBlack" data-item-index="6" data-renderer-id="0" transform="translate(218, 19.80499267578125)"></g><g id="g-root-3_93zvxg1uclde2-fill" data-item-order="0" data-item-id="3_93zvxg1uclde2" data-item-class="Icon Stroke SceneTarget Indexed Indexed_1 InsideFill InsideColorFill ColorStrokeBlack" data-item-index="1" data-renderer-id="0" transform="translate(386, 19.80499267578125)"></g><g id="g-root-tx_decentra_qwirfo1ud51xr-fill" data-item-order="0" data-item-id="tx_decentra_qwirfo1ud51xr" data-item-class="Label Stroke SceneTarget Indexed Indexed_1 ColorStrokeBlack" data-item-index="1" data-renderer-id="0" transform="translate(458, 21.296966552734375)"><g id="tx_decentra_qwirfo1ud51xr-fill" stroke="none" fill="#666666"><g><text style="font: 20px Roboto, sans-serif; white-space: pre;"><tspan x="12" y="33.75" dominant-baseline="ideographic">Decentralized </tspan><tspan x="12" y="57.75" dominant-baseline="ideographic">Data Processing</tspan></text></g></g></g><g id="g-root-lock_92qxr81uclb7x-fill" data-item-order="0" data-item-id="lock_92qxr81uclb7x" data-item-class="Icon Stroke SceneTarget SceneEnd InsideFill InsideColorFill InsideBlackFill ColorStrokeBlack" data-item-index="none" data-renderer-id="0" transform="translate(290, 153.29299926757812)"></g><g id="g-root-tx_differen_1d3ma1w1ud4zk3-fill" data-item-order="0" data-item-id="tx_differen_1d3ma1w1ud4zk3" data-item-class="Label Stroke SceneTarget Indexed ColorStrokeBlack" data-item-index="5" data-renderer-id="0" transform="translate(2, 165.29696655273438)"><g id="tx_differen_1d3ma1w1ud4zk3-fill" stroke="none" fill="#666666"><g><text style="font: 20px Roboto, sans-serif; white-space: pre;"><tspan x="18.44" y="33.75" dominant-baseline="ideographic">Differential </tspan><tspan x="51.41" y="57.75" dominant-baseline="ideographic">Privacy</tspan></text></g></g></g><g id="g-root-prot_1usehd01uclclq-fill" data-item-order="0" data-item-id="prot_1usehd01uclclq" data-item-class="Icon Stroke SceneTarget Indexed InsideFill InsideColorFill ColorStrokeBlack" data-item-index="5" data-renderer-id="0" transform="translate(134, 165.29696655273438)"></g><g id="g-root-5_4o6dt01ucmscg-fill" data-item-order="0" data-item-id="5_4o6dt01ucmscg" data-item-class="Icon Stroke SceneTarget Indexed InsideFill InsideColorFill ColorStrokeBlack" data-item-index="2" data-renderer-id="0" transform="translate(470, 165.29696655273438)"></g><g id="g-root-tx_locallea_qwirfo1ud51xq-fill" data-item-order="0" data-item-id="tx_locallea_qwirfo1ud51xq" data-item-class="Label Stroke SceneTarget Indexed ColorStrokeBlack" data-item-index="2" data-renderer-id="0" transform="translate(542, 177.29696655273438)"><g id="tx_locallea_qwirfo1ud51xq-fill" stroke="none" fill="#666666"><g><text style="font: 20px Roboto, sans-serif; white-space: pre;"><tspan x="12" y="33.75" dominant-baseline="ideographic">Local Learning</tspan></text></g></g></g><g id="g-root-tx_centrala_147z9t01ud50cs-fill" data-item-order="0" data-item-id="tx_centrala_147z9t01ud50cs" data-item-class="Label Stroke SceneTarget Indexed ColorStrokeBlack" data-item-index="4" data-renderer-id="0" transform="translate(74, 309.2969665527344)"><g id="tx_centrala_147z9t01ud50cs-fill" stroke="none" fill="#666666"><g><text style="font: 20px Roboto, sans-serif; white-space: pre;"><tspan x="64.7" y="33.75" dominant-baseline="ideographic">Central </tspan><tspan x="19.41" y="57.75" dominant-baseline="ideographic">Aggregation</tspan></text></g></g></g><g id="g-root-serv_mfgeas1uclbt5-fill" data-item-order="0" data-item-id="serv_mfgeas1uclbt5" data-item-class="Icon Stroke SceneTarget Indexed InsideFill InsideColorFill ColorStrokeBlack" data-item-index="4" data-renderer-id="0" transform="translate(218, 310.7890319824219)"></g><g id="g-root-hori_1qckz8k1uclddz-fill" data-item-order="0" data-item-id="hori_1qckz8k1uclddz" data-item-class="Icon Stroke SceneTarget Indexed InsideFill InsideColorFill ColorStrokeBlack" data-item-index="3" data-renderer-id="0" transform="translate(386, 310.7890319824219)"></g><g id="g-root-tx_modelupd_zs5rok1ud5151-fill" data-item-order="0" data-item-id="tx_modelupd_zs5rok1ud5151" data-item-class="Label Stroke SceneTarget Indexed ColorStrokeBlack" data-item-index="3" data-renderer-id="0" transform="translate(458, 309.2969665527344)"><g id="tx_modelupd_zs5rok1ud5151-fill" stroke="none" fill="#666666"><g><text style="font: 20px Roboto, sans-serif; white-space: pre;"><tspan x="12" y="33.75" dominant-baseline="ideographic">Model Update </tspan><tspan x="12" y="57.75" dominant-baseline="ideographic">Sharing</tspan></text></g></g></g><g id="g-root-6.Vector_sy_1qegbc41ud514x-stroke" data-item-order="-152007" data-item-id="6.Vector_sy_1qegbc41ud514x" data-item-class="ScenePart Part Indexed Fill Stroke ColorStrokeBlack" data-item-index="6" data-renderer-id="0" transform="translate(201.06298828125, 3)"><g id="6.Vector_sy_1qegbc41ud514x-stroke" fill="none" stroke-linecap="round" stroke-linejoin="round" stroke-miterlimit="4" stroke="#2c2c2c" stroke-width="2"><g><path d="M 93.119996 98.081997L 88.936996 116.622997L 70.788996 110.974997L 77.003996 107.385997L 63.941996 84.762997C 47.706996 90.973997 28.909996 84.651997 19.940996 69.118997C 9.999996 51.899997 15.899996 29.882997 33.117996 19.941997C 50.336996 9.999997 72.353996 15.899997 82.294996 33.118997C 91.250996 48.630997 87.349996 68.037997 73.898996 79.000997L 86.965996 101.634997L 93.119996 98.081997Z"></path></g></g></g><g id="g-root-5.Vector_sy_1uu9tgk1ud50co-stroke" data-item-order="-152005" data-item-id="5.Vector_sy_1uu9tgk1ud50co" data-item-class="ScenePart Part Indexed Fill Stroke ColorStrokeBlack" data-item-index="5" data-renderer-id="0" transform="translate(122, 153.29696655273438)"><g id="5.Vector_sy_1uu9tgk1ud50co-stroke" fill="none" stroke-linecap="round" stroke-linejoin="round" stroke-miterlimit="4" stroke="#2c2c2c" stroke-width="2"><g><path d="M 107.735 58.893L 121.701 46L 107.735 33.108L 107.735 40.284L 81.549 40.284C 78.81 23.118 63.937 10 46 10C 26.118 10 10 26.118 10 46C 10 65.882 26.118 82 46 82C 63.912 82 78.769 68.918 81.537 51.788L 107.735 51.788L 107.735 58.893Z"></path></g></g></g><g id="g-root-4.Vector_sy_1uu9tgk1ud50cn-stroke" data-item-order="-152003" data-item-id="4.Vector_sy_1uu9tgk1ud50cn" data-item-class="ScenePart Part Indexed Fill Stroke ColorStrokeBlack" data-item-index="4" data-renderer-id="0" transform="translate(200.88201904296875, 269.2309875488281)"><g id="4.Vector_sy_1uu9tgk1ud50cn-stroke" fill="none" stroke-linecap="round" stroke-linejoin="round" stroke-miterlimit="4" stroke="#2c2c2c" stroke-width="2"><g><path d="M 93.150996 28.54101L 88.967996 10.00001L 70.819996 15.64801L 77.034996 19.23601L 63.941996 41.91401C 47.706996 35.70301 28.909996 42.02401 19.940996 57.55801C 9.999996 74.77701 15.898996 96.79401 33.117996 106.73501C 50.336996 116.67601 72.353996 110.77701 82.294996 93.55801C 91.250996 78.04601 87.349996 58.63901 73.898996 47.67601L 86.997996 24.98801L 93.150996 28.54101Z"></path></g></g></g><g id="g-root-3.Vector_sy_1uu9tgk1ud50cm-stroke" data-item-order="-152001" data-item-id="3.Vector_sy_1uu9tgk1ud50cm" data-item-class="ScenePart Part Indexed Fill Stroke ColorStrokeBlack" data-item-index="3" data-renderer-id="0" transform="translate(367.967041015625, 269.2309875488281)"><g id="3.Vector_sy_1uu9tgk1ud50cm-stroke" fill="none" stroke-linecap="round" stroke-linejoin="round" stroke-miterlimit="4" stroke="#2c2c2c" stroke-width="2"><g><path d="M 32.33099 15.64801L 14.18299 10.00001L 9.99999 28.54001L 16.21499 24.95201L 29.30799 47.63001C 15.81199 58.58501 11.88799 78.02401 20.85599 93.55801C 30.79699 110.77701 52.81399 116.67601 70.03299 106.73501C 87.25199 96.79401 93.15099 74.77701 83.20999 57.55801C 74.25399 42.04601 55.49599 35.72101 39.27699 41.88801L 26.17799 19.20001L 32.33099 15.64801Z"></path></g></g></g><g id="g-root-2.Vector_sy_1uu9tgk1ud50cl-stroke" data-item-order="-151999" data-item-id="2.Vector_sy_1uu9tgk1ud50cl" data-item-class="ScenePart Part Indexed Fill Stroke ColorStrokeBlack" data-item-index="2" data-renderer-id="0" transform="translate(418, 153.29696655273438)"><g id="2.Vector_sy_1uu9tgk1ud50cl-stroke" fill="none" stroke-linecap="round" stroke-linejoin="round" stroke-miterlimit="4" stroke="#2c2c2c" stroke-width="2"><g><path d="M 23.965 58.893L 10 46L 23.965 33.108L 23.965 40.284L 50.089 40.284C 52.828 23.118 67.701 10 85.638 10C 105.52 10 121.638 26.118 121.638 46C 121.638 65.882 105.52 82 85.638 82C 67.726 82 52.869 68.918 50.1 51.788L 23.965 51.788L 23.965 58.893Z"></path></g></g></g><g id="g-root-1.Vector_sy_8z9lw1ud4zrg-stroke" data-item-order="-151997" data-item-id="1.Vector_sy_8z9lw1ud4zrg" data-item-class="ScenePart Part Indexed Indexed_1 Fill Stroke ColorStrokeBlack" data-item-index="1" data-renderer-id="0" transform="translate(367.8170166015625, 3)"><g id="1.Vector_sy_8z9lw1ud4zrg-stroke" fill="none" stroke-linecap="round" stroke-linejoin="round" stroke-miterlimit="4" stroke="#2c2c2c" stroke-width="2"><g><path d="M 32.331014 110.974997L 14.183014 116.622997L 10.000014 98.081997L 16.215014 101.669997L 29.277014 79.046997C 15.781014 68.091997 11.856014 48.651997 20.825014 33.118997C 30.766014 15.899997 52.783014 9.999997 70.002014 19.941997C 87.220014 29.882997 93.120014 51.899997 83.179014 69.118997C 74.223014 84.630997 55.465014 90.955997 39.245014 84.787997L 26.178014 107.421997L 32.331014 110.974997Z"></path></g></g></g><g id="g-root-0.cr-big_cr_93zsro1ud524j-stroke" data-item-order="-151995" data-item-id="0.cr-big_cr_93zsro1ud524j" data-item-class="Shape Stroke Fill ScenePart Part Indexed_0 ColorFillBlack ColorStrokeBlack" data-item-index="0" data-renderer-id="0" transform="translate(254, 117.29299926757812)"><g id="0.cr-big_cr_93zsro1ud524j-stroke" fill="none" stroke-linecap="round" stroke-linejoin="round" stroke-miterlimit="4" stroke="#2c2c2c" stroke-width="2"><g><path d="M 10 82C 10.000001 121.764503 42.235499 154.000001 82.000001 154.000001C 121.764503 154.000001 154.000001 121.764503 154.000001 82.000001C 154.000001 42.235499 121.764503 10.000001 82.000001 10.000001C 42.235499 10.000001 10.000001 42.235499 10.000001 82.000001"></path></g></g></g><g id="g-root-tx_homomorp_1qegbc41ud514y-stroke" data-item-order="0" data-item-id="tx_homomorp_1qegbc41ud514y" data-item-class="Label Stroke SceneTarget Indexed ColorStrokeBlack" data-item-index="6" data-renderer-id="0" transform="translate(62, 21.296966552734375)"></g><g id="g-root-lock_1lwrh441ucle68-stroke" data-item-order="0" data-item-id="lock_1lwrh441ucle68" data-item-class="Icon Stroke SceneTarget Indexed InsideFill InsideColorFill ColorStrokeBlack" data-item-index="6" data-renderer-id="0" transform="translate(218, 19.80499267578125)"><g id="lock_1lwrh441ucle68-stroke" fill="none" stroke-linecap="round" stroke-linejoin="round" stroke-miterlimit="4" stroke="#2c2c2c" stroke-width="2"><g><path d="M 37.428574 22L 54.57143 22C 54.57143 22 56.285713 22 56.285713 23.714287L 56.285713 35.714287C 56.285713 35.714287 56.285713 37.428574 54.57143 37.428574L 37.428574 37.428574C 37.428574 37.428574 35.714287 37.428574 35.714287 35.714287L 35.714287 23.714287C 35.714287 23.714287 35.714287 22 37.428574 22M 39.142857 22L 39.142857 18.571428C 39.142857 14.784333 42.212906 11.714286 46 11.714286C 49.787094 11.714286 52.857143 14.784333 52.857143 18.571428L 52.857143 22M 11.714286 39.142857L 22 39.142857C 26.73387 39.142857 30.571428 42.980419 30.571428 47.714287L 30.571428 47.714287M 20.285715 47.714287L 37.428574 47.714287C 41.215668 47.714287 44.285713 50.784332 44.285713 54.57143L 44.285713 54.57143C 44.285713 55.518204 43.518204 56.285713 42.57143 56.285713L 11.714286 56.285713"></path></g></g></g><g id="g-root-3_93zvxg1uclde2-stroke" data-item-order="0" data-item-id="3_93zvxg1uclde2" data-item-class="Icon Stroke SceneTarget Indexed Indexed_1 InsideFill InsideColorFill ColorStrokeBlack" data-item-index="1" data-renderer-id="0" transform="translate(386, 19.80499267578125)"><g id="3_93zvxg1uclde2-stroke" fill="none" stroke-linecap="round" stroke-linejoin="round" stroke-miterlimit="4" stroke="#2c2c2c" stroke-width="2"><g><path d="M 15.142858 20.285715L 52.857143 20.285715C 52.857143 20.285715 56.285713 20.285715 56.285713 23.714287L 56.285713 37.428574C 56.285713 37.428574 56.285713 40.857143 52.857143 40.857143L 15.142858 40.857143C 15.142858 40.857143 11.714286 40.857143 11.714286 37.428574L 11.714286 23.714287C 11.714286 23.714287 11.714286 20.285715 15.142858 20.285715M 20.285715 30.571428C 20.285715 31.518204 21.053226 32.285713 22 32.285713C 22.946774 32.285713 23.714287 31.518204 23.714287 30.571428C 23.714287 29.624655 22.946774 28.857143 22 28.857143C 21.053226 28.857143 20.285715 29.624655 20.285715 30.571428M 32.285713 30.571428L 39.142857 30.571428M 34 40.857143L 34 56.285713M 16.857143 56.285713L 51.142857 56.285713"></path></g></g></g><g id="g-root-tx_decentra_qwirfo1ud51xr-stroke" data-item-order="0" data-item-id="tx_decentra_qwirfo1ud51xr" data-item-class="Label Stroke SceneTarget Indexed Indexed_1 ColorStrokeBlack" data-item-index="1" data-renderer-id="0" transform="translate(458, 21.296966552734375)"></g><g id="g-root-lock_92qxr81uclb7x-stroke" data-item-order="0" data-item-id="lock_92qxr81uclb7x" data-item-class="Icon Stroke SceneTarget SceneEnd InsideFill InsideColorFill InsideBlackFill ColorStrokeBlack" data-item-index="none" data-renderer-id="0" transform="translate(290, 153.29299926757812)"><g id="lock_92qxr81uclb7x-stroke" fill="none" stroke-linecap="round" stroke-linejoin="round" stroke-miterlimit="4" stroke="#2c2c2c" stroke-width="2"><g><path d="M 15.694 62.551003L 44.545002 62.551003M 17.535999 26.551001L 74.487999 26.551001M 44.5 44.551003L 11.533 44.551003M 44.134003 80.5C 26.139837 79.504318 11.943628 64.826675 11.548392 46.809319C 11.153156 28.791965 24.69207 13.505913 42.625259 11.722114C 60.558453 9.938314 76.843269 22.257828 80.005005 40M 43.806999 11.629C 25.806999 31.129002 26.133999 56.503002 44.134003 80.502998M 48.189999 11.629C 55.265442 18.979116 59.818134 28.390261 61.188999 38.5M 56.5 56.503002L 77.5 56.503002C 77.5 56.503002 80.5 56.503002 80.5 59.502998L 80.5 77.5C 80.5 77.5 80.5 80.5 77.5 80.5L 56.5 80.5C 56.5 80.5 53.5 80.5 53.5 77.5L 53.5 59.502998C 53.5 59.502998 53.5 56.503002 56.5 56.503002M 63.25 68.688995C 63.25 70.760071 64.928932 72.438995 67 72.438995C 69.071068 72.438995 70.75 70.760071 70.75 68.688995C 70.75 66.617935 69.071068 64.938995 67 64.938995C 64.928932 64.938995 63.25 66.617935 63.25 68.688995M 74.5 52C 74.5 47.857864 71.142136 44.5 67 44.5C 62.857864 44.5 59.5 47.857864 59.5 52L 59.5 56.5L 74.5 56.5Z"></path></g></g></g><g id="g-root-tx_differen_1d3ma1w1ud4zk3-stroke" data-item-order="0" data-item-id="tx_differen_1d3ma1w1ud4zk3" data-item-class="Label Stroke SceneTarget Indexed ColorStrokeBlack" data-item-index="5" data-renderer-id="0" transform="translate(2, 165.29696655273438)"></g><g id="g-root-prot_1usehd01uclclq-stroke" data-item-order="0" data-item-id="prot_1usehd01uclclq" data-item-class="Icon Stroke SceneTarget Indexed InsideFill InsideColorFill ColorStrokeBlack" data-item-index="5" data-renderer-id="0" transform="translate(134, 165.29696655273438)"><g id="prot_1usehd01uclclq-stroke" fill="none" stroke-linecap="round" stroke-linejoin="round" stroke-miterlimit="4" stroke="#2c2c2c" stroke-width="2"><g><path d="M 25.040001 28.226C 25.039368 30.689636 27.036364 32.687141 29.5 32.687141C 31.963636 32.687141 33.960632 30.689636 33.959999 28.226C 33.960632 25.762363 31.963636 23.764858 29.5 23.764858C 27.036364 23.764858 25.039368 25.762363 25.040001 28.226M 22.186001 40C 22.186104 37.197502 23.787571 34.641472 26.309341 33.418915C 28.831112 32.19635 31.829741 32.522247 34.029999 34.257999M 31 45.5L 13.5 45.5C 12.395431 45.5 11.5 44.604568 11.5 43.5L 11.5 18.5L 47.5 18.5L 47.5 28.5M 13.5 11.5L 45.5 11.5C 46.604568 11.5 47.5 12.395431 47.5 13.5L 47.5 18.5L 47.5 18.5L 11.5 18.5L 11.5 18.5L 11.5 13.5C 11.5 12.395431 12.395431 11.5 13.5 11.5ZM 49.818001 55.139999L 46.827999 56.5L 43.84 55.139999C 39.869064 53.463379 37.252747 49.611336 37.157997 45.301998L 37.158001 37.799999L 46.827999 34.5L 56.5 37.799999L 56.5 45.301998C 56.404243 49.611015 53.788261 53.462563 49.818001 55.140003ZM 42.813999 45.419998L 45.716 48.324001L 51.523998 41.066002"></path></g></g></g><g id="g-root-5_4o6dt01ucmscg-stroke" data-item-order="0" data-item-id="5_4o6dt01ucmscg" data-item-class="Icon Stroke SceneTarget Indexed InsideFill InsideColorFill ColorStrokeBlack" data-item-index="2" data-renderer-id="0" transform="translate(470, 165.29696655273438)"><g id="5_4o6dt01ucmscg-stroke" fill="none" stroke-linecap="round" stroke-linejoin="round" stroke-miterlimit="4" stroke="#2c2c2c" stroke-width="2"><g><path d="M 36.93 49L 10.93 49M 23.93 52.5L 23.93 52.5C 24.206142 52.5 24.43 52.723858 24.43 53L 24.43 53C 24.43 53.276142 24.206142 53.5 23.93 53.5L 23.93 53.5C 23.797228 53.500534 23.669741 53.448025 23.575855 53.354141C 23.481972 53.260258 23.429466 53.132771 23.43 53L 23.43 53C 23.429466 52.867226 23.481972 52.739738 23.575855 52.645855C 23.669741 52.551971 23.797228 52.499466 23.93 52.5M 36.93 28.052L 36.93 53C 36.93 55.209141 35.139137 57 32.93 57L 14.93 57C 12.720861 57 10.93 55.209141 10.93 53L 10.93 15C 10.93 12.790861 12.720861 11 14.93 11L 32.93 11M 54.740002 26.132L 54.740002 39L 48.740002 34L 42.740002 39L 42.740002 26.129999M 45.740002 20C 45.740002 21.656855 47.083145 23 48.740002 23C 50.396854 23 51.740002 21.656855 51.740002 20C 51.740002 18.343147 50.396854 17 48.740002 17C 47.083145 17 45.740002 18.343147 45.740002 20M 56.181999 20C 57.220222 18.717987 57.361435 16.928888 56.537189 15.499872C 55.712948 14.070858 54.093582 13.297243 52.464001 13.554C 51.871712 12.015069 50.392971 10.999711 48.743999 10.999711C 47.095028 10.999711 45.616287 12.015069 45.023998 13.554C 43.394062 13.296215 41.773811 14.069443 40.948978 15.498707C 40.124146 16.927971 40.265305 18.717712 41.304001 20C 40.267185 21.283081 40.127365 23.072088 40.952248 24.500671C 41.77713 25.929256 43.396439 26.70252 45.026001 26.446001C 45.618286 27.98493 47.097027 29.000288 48.745998 29.000288C 50.394974 29.000288 51.873714 27.98493 52.466 26.445999C 54.095955 26.704025 55.716267 25.930449 56.540462 24.500751C 57.364658 23.071053 57.222107 21.281216 56.181999 20Z"></path></g></g></g><g id="g-root-tx_locallea_qwirfo1ud51xq-stroke" data-item-order="0" data-item-id="tx_locallea_qwirfo1ud51xq" data-item-class="Label Stroke SceneTarget Indexed ColorStrokeBlack" data-item-index="2" data-renderer-id="0" transform="translate(542, 177.29696655273438)"></g><g id="g-root-tx_centrala_147z9t01ud50cs-stroke" data-item-order="0" data-item-id="tx_centrala_147z9t01ud50cs" data-item-class="Label Stroke SceneTarget Indexed ColorStrokeBlack" data-item-index="4" data-renderer-id="0" transform="translate(74, 309.2969665527344)"></g><g id="g-root-serv_mfgeas1uclbt5-stroke" data-item-order="0" data-item-id="serv_mfgeas1uclbt5" data-item-class="Icon Stroke SceneTarget Indexed InsideFill InsideColorFill ColorStrokeBlack" data-item-index="4" data-renderer-id="0" transform="translate(218, 310.7890319824219)"><g id="serv_mfgeas1uclbt5-stroke" fill="none" stroke-linecap="round" stroke-linejoin="round" stroke-miterlimit="4" stroke="#2c2c2c" stroke-width="2"><g><path d="M 51 23.854C 50.966511 21.881111 50.131657 20.006788 48.687508 18.662231C 47.243355 17.317677 45.314247 16.618662 43.343998 16.726C 41.574951 13.192698 37.951328 10.972141 34 11C 28.620384 10.922284 24.105413 15.036353 23.684 20.4C 22.078552 20.044861 20.398424 20.42691 19.104412 21.441368C 17.810402 22.455822 17.038349 23.996189 17 25.639999C 17 31.084 22.911999 31 22.911999 31L 44.348 31C 44.348 31 51 30.158001 51 23.854ZM 23.5 51.498001C 23.224117 51.498001 23.00037 51.721455 23.000004 51.997337C 22.999638 52.273216 23.222792 52.497265 23.498672 52.497997C 23.774551 52.498734 23.998898 52.275879 24 52C 24.000534 51.867226 23.948027 51.739738 23.854143 51.645855C 23.760258 51.551971 23.632771 51.499466 23.5 51.5L 23.5 51.5M 28.5 51.498001C 28.224119 51.498001 28.00037 51.721455 28.000004 51.997337C 27.999638 52.273216 28.222792 52.497265 28.498672 52.497997C 28.774553 52.498734 28.998896 52.275879 29 52C 29.000534 51.867226 28.948027 51.739738 28.854143 51.645855C 28.760258 51.551971 28.632771 51.499466 28.5 51.5L 28.5 51.5M 51 54C 51 55.656857 49.656857 57 48 57L 20 57C 18.343147 57 17 55.656857 17 54L 17 50C 17 48.343147 18.343147 47 20 47L 48 47C 49.656857 47 51 48.343147 51 50ZM 23.5 41.498001C 23.224117 41.498001 23.00037 41.721455 23.000004 41.997337C 22.999638 42.273216 23.222792 42.497265 23.498672 42.497997C 23.774551 42.498734 23.998898 42.275879 24 42C 24.000534 41.867226 23.948027 41.739738 23.854143 41.645855C 23.760258 41.551971 23.632771 41.499466 23.5 41.5L 23.5 41.5M 28.5 41.498001C 28.224119 41.498001 28.00037 41.721455 28.000004 41.997337C 27.999638 42.273216 28.222792 42.497265 28.498672 42.497997C 28.774553 42.498734 28.998896 42.275879 29 42C 29.000534 41.867226 28.948027 41.739738 28.854143 41.645855C 28.760258 41.551971 28.632771 41.499466 28.5 41.5L 28.5 41.5M 51 44C 51 45.656857 49.656857 47 48 47L 20 47C 18.343147 47 17 45.656857 17 44L 17 40C 17 38.343147 18.343147 37 20 37L 48 37C 49.656857 37 51 38.343147 51 40Z"></path></g></g></g><g id="g-root-hori_1qckz8k1uclddz-stroke" data-item-order="0" data-item-id="hori_1qckz8k1uclddz" data-item-class="Icon Stroke SceneTarget Indexed InsideFill InsideColorFill ColorStrokeBlack" data-item-index="3" data-renderer-id="0" transform="translate(386, 310.7890319824219)"><g id="hori_1qckz8k1uclddz-stroke" fill="none" stroke-linecap="round" stroke-linejoin="round" stroke-miterlimit="4" stroke="#2c2c2c" stroke-width="2"><g><path d="M 11 29L 39 29M 29 39L 57 39M 19 37L 11 29L 19 21M 49 47L 57 39L 49 31"></path></g></g></g><g id="g-root-tx_modelupd_zs5rok1ud5151-stroke" data-item-order="0" data-item-id="tx_modelupd_zs5rok1ud5151" data-item-class="Label Stroke SceneTarget Indexed ColorStrokeBlack" data-item-index="3" data-renderer-id="0" transform="translate(458, 309.2969665527344)"></g></g></g></svg>