<?xml version="1.0" encoding="utf-8" standalone="yes"?>
<!DOCTYPE svg PUBLIC "-//W3C//DTD SVG 1.1//EN" "http://www.w3.org/Graphics/SVG/1.1/DTD/svg11.dtd">
<svg width="542" height="398" viewBox="0 0 542 398" style="fill:none;stroke:none;fill-rule:evenodd;clip-rule:evenodd;stroke-linecap:round;stroke-linejoin:round;stroke-miterlimit:1.5;" version="1.1" xmlns="http://www.w3.org/2000/svg" xmlns:xlink="http://www.w3.org/1999/xlink"><style id="fontImports">@import url("https://fonts.googleapis.com/css2?family=Roboto:wght@400;700&amp;display=block");</style><rect id="" x="0" y="0" width="541" height="398" style="fill: #ffffff;"></rect><g id="items" style="isolation: isolate"><g id="blend" style="mix-blend-mode:multiply"><g id="g-root-3.cu_sy_74mt01rau2h1-fill" data-item-order="-187483" data-item-id="3.cu_sy_74mt01rau2h1" data-item-class="ScenePart Part Indexed Stroke" data-item-index="3" data-renderer-id="0" transform="translate(3, 110.9990234375)"></g><g id="g-root-2.cu_sy_4my4xg1rau1os-fill" data-item-order="-187481" data-item-id="2.cu_sy_4my4xg1rau1os" data-item-class="ScenePart Part Indexed Stroke" data-item-index="2" data-renderer-id="0" transform="translate(255.00048828125, 3)"></g><g id="g-root-1.cu_sy_dil56c1rau0w3-fill" data-item-order="-187480" data-item-id="1.cu_sy_dil56c1rau0w3" data-item-class="ScenePart Part Indexed Indexed_1 Fill Stroke" data-item-index="1" data-renderer-id="0" transform="translate(225.00048828125, 27)"><g id="1.cu_sy_dil56c1rau0w3-fill" stroke="none" fill="#f0f0f0"><g><path d="M 10 34L 28 10L 28 18L 52 18L 52 10L 70 34L 52 58L 52 50L 28 50L 28 58L 10 34Z"></path></g></g></g><g id="g-root-tx_pros_409dg1ravfgm-fill" data-item-order="0" data-item-id="tx_pros_409dg1ravfgm" data-item-class="Label Stroke SceneTarget" data-item-index="none" data-renderer-id="0" transform="translate(63.00048828125, 39)"><g id="tx_pros_409dg1ravfgm-fill" stroke="none" fill="#484848"><g><text style="font: 20px Roboto, sans-serif; white-space: pre;"><tspan x="12" y="33.75" dominant-baseline="ideographic">Pros</tspan></text></g></g></g><g id="g-root-tx_cons_qqat101ravfgl-fill" data-item-order="0" data-item-id="tx_cons_qqat101ravfgl" data-item-class="Label Stroke SceneTarget" data-item-index="none" data-renderer-id="0" transform="translate(363.00048828125, 39)"><g id="tx_cons_qqat101ravfgl-fill" stroke="none" fill="#484848"><g><text style="font: 20px Roboto, sans-serif; white-space: pre;"><tspan x="12" y="33.75" dominant-baseline="ideographic">Cons</tspan></text></g></g></g><g id="g-root-1_hrjfck1rb83y8-fill" data-item-order="0" data-item-id="1_hrjfck1rb83y8" data-item-class="Icon Stroke SceneTarget Indexed Indexed_1" data-item-index="1" data-renderer-id="0" transform="translate(3.00048828125, 147)"></g><g id="g-root-tx_datapriv_1414ub81ravh1g-fill" data-item-order="0" data-item-id="tx_datapriv_1414ub81ravh1g" data-item-class="Label Stroke SceneTarget Indexed Indexed_1" data-item-index="1" data-renderer-id="0" transform="translate(63.00048828125, 159)"><g id="tx_datapriv_1414ub81ravh1g-fill" stroke="none" fill="#484848"><g><text style="font: 20px Roboto, sans-serif; white-space: pre;"><tspan x="12" y="33.75" dominant-baseline="ideographic">Data privacy</tspan></text></g></g></g><g id="g-root-off_1d1rn901rb6pl9-fill" data-item-order="0" data-item-id="off_1d1rn901rb6pl9" data-item-class="Icon Stroke SceneTarget Indexed" data-item-index="101" data-renderer-id="0" transform="translate(303.00048828125, 147)"></g><g id="g-root-tx_communic_1q6cxo41ravfnl-fill" data-item-order="0" data-item-id="tx_communic_1q6cxo41ravfnl" data-item-class="Label Stroke SceneTarget Indexed" data-item-index="101" data-renderer-id="0" transform="translate(363.00048828125, 147)"><g id="tx_communic_1q6cxo41ravfnl-fill" stroke="none" fill="#484848"><g><text style="font: 20px Roboto, sans-serif; white-space: pre;"><tspan x="12" y="33.75" dominant-baseline="ideographic">Communication </tspan><tspan x="12" y="57.75" dominant-baseline="ideographic">overhead</tspan></text></g></g></g><g id="g-root-smar_1uualx01rb6pe7-fill" data-item-order="0" data-item-id="smar_1uualx01rb6pe7" data-item-class="Icon Stroke SceneTarget Indexed" data-item-index="2" data-renderer-id="0" transform="translate(3.00048828125, 231)"></g><g id="g-root-fema_dil56c1rb6ozo-fill" data-item-order="0" data-item-id="fema_dil56c1rb6ozo" data-item-class="Icon Stroke SceneTarget Indexed" data-item-index="102" data-renderer-id="0" transform="translate(303.00048828125, 231)"></g><g id="g-root-tx_modelcon_m7cxh01ravf2g-fill" data-item-order="0" data-item-id="tx_modelcon_m7cxh01ravf2g" data-item-class="Label Stroke SceneTarget Indexed" data-item-index="102" data-renderer-id="0" transform="translate(363.00048828125, 219)"><g id="tx_modelcon_m7cxh01ravf2g-fill" stroke="none" fill="#484848"><g><text style="font: 20px Roboto, sans-serif; white-space: pre;"><tspan x="12" y="33.75" dominant-baseline="ideographic">Model </tspan><tspan x="12" y="57.75" dominant-baseline="ideographic">consistency </tspan><tspan x="12" y="81.75" dominant-baseline="ideographic">issues</tspan></text></g></g></g><g id="g-root-tx_localtra_1lseut01raveob-fill" data-item-order="0" data-item-id="tx_localtra_1lseut01raveob" data-item-class="Label Stroke SceneTarget Indexed" data-item-index="2" data-renderer-id="0" transform="translate(63.00048828125, 243)"><g id="tx_localtra_1lseut01raveob-fill" stroke="none" fill="#484848"><g><text style="font: 20px Roboto, sans-serif; white-space: pre;"><tspan x="12" y="33.75" dominant-baseline="ideographic">Local training</tspan></text></g></g></g><g id="g-root-user_mfh3lg1rb6pla-fill" data-item-order="0" data-item-id="user_mfh3lg1rb6pla" data-item-class="Icon Stroke SceneTarget Indexed" data-item-index="3" data-renderer-id="0" transform="translate(3.00048828125, 315)"></g><g id="g-root-tx_scalabil_8xrud01ravfnm-fill" data-item-order="0" data-item-id="tx_scalabil_8xrud01ravfnm" data-item-class="Label Stroke SceneTarget Indexed" data-item-index="3" data-renderer-id="0" transform="translate(63.00048828125, 327)"><g id="tx_scalabil_8xrud01ravfnm-fill" stroke="none" fill="#484848"><g><text style="font: 20px Roboto, sans-serif; white-space: pre;"><tspan x="12" y="33.75" dominant-baseline="ideographic">Scalability</tspan></text></g></g></g><g id="g-root-subt_144votw1rb6ozn-fill" data-item-order="0" data-item-id="subt_144votw1rb6ozn" data-item-class="Icon Stroke SceneTarget Indexed" data-item-index="103" data-renderer-id="0" transform="translate(303.00048828125, 315)"></g><g id="g-root-tx_aggregat_1uualx01rau1an-fill" data-item-order="0" data-item-id="tx_aggregat_1uualx01rau1an" data-item-class="Label Stroke SceneTarget Indexed" data-item-index="103" data-renderer-id="0" transform="translate(363.00048828125, 315)"><g id="tx_aggregat_1uualx01rau1an-fill" stroke="none" fill="#484848"><g><text style="font: 20px Roboto, sans-serif; white-space: pre;"><tspan x="12" y="33.75" dominant-baseline="ideographic">Aggregation </tspan><tspan x="12" y="57.75" dominant-baseline="ideographic">challenges</tspan></text></g></g></g><g id="g-root-3.cu_sy_74mt01rau2h1-stroke" data-item-order="-187483" data-item-id="3.cu_sy_74mt01rau2h1" data-item-class="ScenePart Part Indexed Stroke" data-item-index="3" data-renderer-id="0" transform="translate(3, 110.9990234375)"><g id="3.cu_sy_74mt01rau2h1-stroke" fill="none" stroke-linecap="round" stroke-linejoin="round" stroke-miterlimit="4" stroke="#484848" stroke-width="2"><g><path d="M 514.0005 10.000007L 10 10.001007"></path></g></g></g><g id="g-root-2.cu_sy_4my4xg1rau1os-stroke" data-item-order="-187481" data-item-id="2.cu_sy_4my4xg1rau1os" data-item-class="ScenePart Part Indexed Stroke" data-item-index="2" data-renderer-id="0" transform="translate(255.00048828125, 3)"><g id="2.cu_sy_4my4xg1rau1os-stroke" fill="none" stroke-linecap="round" stroke-linejoin="round" stroke-miterlimit="4" stroke="#484848" stroke-width="2"><g><path d="M 10 298L 10 214M 10 382L 10 298M 10 214L 10 118M 10 118L 10 80M 10 36L 10 10"></path></g></g></g><g id="g-root-1.cu_sy_dil56c1rau0w3-stroke" data-item-order="-187480" data-item-id="1.cu_sy_dil56c1rau0w3" data-item-class="ScenePart Part Indexed Indexed_1 Fill Stroke" data-item-index="1" data-renderer-id="0" transform="translate(225.00048828125, 27)"><g id="1.cu_sy_dil56c1rau0w3-stroke" fill="none" stroke-linecap="round" stroke-linejoin="round" stroke-miterlimit="4" stroke="#484848" stroke-width="2"><g><path d="M 10 34L 28 10L 28 18L 52 18L 52 10L 70 34L 52 58L 52 50L 28 50L 28 58L 10 34Z"></path></g></g><g id="1.cu_sy_dil56c1rau0w3-stroke" fill="none" stroke-linecap="round" stroke-linejoin="round" stroke-miterlimit="4" stroke="#484848" stroke-width="2"><g><path d="M 30.599 28.373L 34.999 39.48M 35.199 39.097L 39.599 28.66M 49.399 30.192C 49.065 29.937 48.732 29.682 48.399 29.426C 47.799 28.852 46.832 28.628 45.499 28.756C 44.165 28.884 43.465 29.522 43.399 30.671C 43.265 31.82 44.232 32.905 46.299 33.927C 48.432 34.884 49.465 36.001 49.399 37.278C 49.399 38.555 48.632 39.321 47.099 39.576C 45.499 39.767 44.432 39.416 43.899 38.523C 43.565 38.076 43.265 37.629 42.999 37.182"></path></g></g></g><g id="g-root-tx_pros_409dg1ravfgm-stroke" data-item-order="0" data-item-id="tx_pros_409dg1ravfgm" data-item-class="Label Stroke SceneTarget" data-item-index="none" data-renderer-id="0" transform="translate(63.00048828125, 39)"></g><g id="g-root-tx_cons_qqat101ravfgl-stroke" data-item-order="0" data-item-id="tx_cons_qqat101ravfgl" data-item-class="Label Stroke SceneTarget" data-item-index="none" data-renderer-id="0" transform="translate(363.00048828125, 39)"></g><g id="g-root-1_hrjfck1rb83y8-stroke" data-item-order="0" data-item-id="1_hrjfck1rb83y8" data-item-class="Icon Stroke SceneTarget Indexed Indexed_1" data-item-index="1" data-renderer-id="0" transform="translate(3.00048828125, 147)"><g id="1_hrjfck1rb83y8-stroke" fill="none" stroke-linecap="round" stroke-linejoin="round" stroke-miterlimit="4" stroke="#484848" stroke-width="2"><g><path d="M 16.125999 11.5L 30.094 11.5C 31.19857 11.5 32.094002 12.395431 32.094002 13.5L 32.094002 24.976L 32.094002 24.976L 14.125999 24.976L 14.125999 24.976L 14.125999 13.5C 14.125999 12.395431 15.021431 11.5 16.125999 11.5ZM 32.722 33.959999L 13.498 33.959999C 12.76189 33.958534 12.073221 33.596451 11.654738 32.990868C 11.236256 32.385284 11.141082 31.613073 11.4 30.924L 14.125999 24.976L 32.094002 24.976L 34.823997 30.924C 35.083168 31.613733 34.987545 32.386719 34.568123 32.992508C 34.148697 33.598297 33.458817 33.959843 32.722 33.959999ZM 23.110001 33.959999L 23.110001 44.066002M 11.75 44.066002L 31.709999 44.066002M 40.75 41.5L 53.75 41.5C 53.75 41.5 56.75 41.5 56.75 44.5L 56.75 53.5C 56.75 53.5 56.75 56.5 53.75 56.5L 40.75 56.5C 40.75 56.5 37.75 56.5 37.75 53.5L 37.75 44.5C 37.75 44.5 37.75 41.5 40.75 41.5M 40.25 41.542L 40.25 38.5C 40.25 34.63401 43.38401 31.500002 47.25 31.500002C 51.115993 31.500002 54.25 34.63401 54.25 38.5L 54.25 41.542M 44.25 49L 46.25 51L 50.25 47M 21.73 29.468L 24.720001 29.468"></path></g></g></g><g id="g-root-tx_datapriv_1414ub81ravh1g-stroke" data-item-order="0" data-item-id="tx_datapriv_1414ub81ravh1g" data-item-class="Label Stroke SceneTarget Indexed Indexed_1" data-item-index="1" data-renderer-id="0" transform="translate(63.00048828125, 159)"></g><g id="g-root-off_1d1rn901rb6pl9-stroke" data-item-order="0" data-item-id="off_1d1rn901rb6pl9" data-item-class="Icon Stroke SceneTarget Indexed" data-item-index="101" data-renderer-id="0" transform="translate(303.00048828125, 147)"><g id="off_1d1rn901rb6pl9-stroke" fill="none" stroke-linecap="round" stroke-linejoin="round" stroke-miterlimit="4" stroke="#484848" stroke-width="2"><g><path d="M 13.084 13.168L 54.916 55M 21.153999 27.458C 20.513041 28.948149 20.136742 30.53862 20.042 32.158001C 17.830433 31.694893 15.527924 32.252975 13.773828 33.67728C 12.019732 35.101585 11.000813 37.240467 11 39.5C 11 47.119999 19 47 19 47L 40.914001 47M 51.374001 45.925999C 54.905117 44.389149 57.136677 40.848637 56.999996 37C 57.00251 34.285618 55.899284 31.687311 53.944599 29.803944C 51.98991 27.920576 49.352413 26.914644 46.639999 27.018C 44.96563 23.466518 41.874947 20.78286 38.123703 19.623245C 34.372459 18.463633 30.30648 18.934967 26.92 20.922001"></path></g></g></g><g id="g-root-tx_communic_1q6cxo41ravfnl-stroke" data-item-order="0" data-item-id="tx_communic_1q6cxo41ravfnl" data-item-class="Label Stroke SceneTarget Indexed" data-item-index="101" data-renderer-id="0" transform="translate(363.00048828125, 147)"></g><g id="g-root-smar_1uualx01rb6pe7-stroke" data-item-order="0" data-item-id="smar_1uualx01rb6pe7" data-item-class="Icon Stroke SceneTarget Indexed" data-item-index="2" data-renderer-id="0" transform="translate(3.00048828125, 231)"><g id="smar_1uualx01rb6pe7-stroke" fill="none" stroke-linecap="round" stroke-linejoin="round" stroke-miterlimit="4" stroke="#484848" stroke-width="2"><g><path d="M 30.006001 12.998L 32.001999 12.998M 35.998001 12.998L 37.993999 12.998M 41.987999 12.998L 43.986 12.998M 47.98 13L 49.98 13C 51.084568 13 51.98 13.895431 51.98 15L 51.98 17M 51.973999 20.986L 51.973999 22.984001M 51.973999 26.978001L 51.973999 28.976M 13.032 11L 23.015999 11C 23.015999 11 25.014 11 25.014 12.998L 25.014 28.974001C 25.014 28.974001 25.014 30.972 23.015999 30.972L 13.032 30.972C 13.032 30.972 11.034 30.972 11.034 28.974001L 11.034 12.998C 11.034 12.998 11.034 11 13.032 11M 18.024 25.48C 18.299362 25.481102 18.522003 25.704636 18.521999 25.98M 17.524 25.98C 17.524 25.703857 17.747858 25.48 18.024 25.48M 18.024 26.478001C 17.891575 26.478531 17.764393 26.426298 17.670567 26.332848C 17.57674 26.239397 17.523998 26.112425 17.524 25.98M 18.521999 25.98C 18.521999 26.255037 18.299038 26.477999 18.024 26.477999M 46.612 53.495998C 46.612003 55.431206 48.180794 57 50.116001 57C 52.051208 57 53.620003 55.431206 53.620003 53.496002C 53.620003 51.560795 52.051208 49.992001 50.116001 49.992001C 48.180794 49.992001 46.612003 51.560795 46.612003 53.496002M 20.34 53.495998C 20.34 55.431206 21.908794 57 23.844002 57C 25.779205 57 27.348 55.431206 27.348 53.496002C 27.348 51.560795 25.779205 49.992001 23.844002 49.992001C 21.908794 49.992001 20.34 51.560795 20.34 53.496002M 45.905998 45.217999C 44.990002 48.155998 43.490002 50.944 38.992001 50.944L 33.5 50.944C 29.271999 50.944 30.052 37.961998 37.672001 37.961998L 41.5 37.961998C 44.984001 37.961998 47.490002 40.138 45.905998 45.217999ZM 45.981998 44.952L 31.004 44.952M 20.652 54.939999L 20.18 54.939999C 19.253532 54.939941 18.373882 54.532803 17.774281 53.826527C 17.174681 53.120255 16.915699 52.186192 17.066 51.271999C 18.666 41.472 28.554001 33.919998 38.732002 33.919998C 48.835999 33.919998 55.757999 41.362 56.942001 51.062C 57.061604 52.044762 56.754501 53.031681 56.098389 53.773056C 55.442276 54.514431 54.500011 54.93924 53.510002 54.940002L 53.310001 54.939999M 42.987999 54.939999L 31.004 54.939999M 19.380001 44.952C 22.326 44.952 25.362 45.324001 26.233999 43.060001C 27.159487 40.612938 28.641945 38.414925 30.564001 36.639999L 32.826 34.753998M 36 34.099998L 36 31.969999C 36.091736 30.383047 37.405399 29.143131 38.995003 29.143131C 40.584602 29.143131 41.898262 30.383047 41.990002 31.970001L 41.989998 34.200001"></path></g></g></g><g id="g-root-fema_dil56c1rb6ozo-stroke" data-item-order="0" data-item-id="fema_dil56c1rb6ozo" data-item-class="Icon Stroke SceneTarget Indexed" data-item-index="102" data-renderer-id="0" transform="translate(303.00048828125, 231)"><g id="fema_dil56c1rb6ozo-stroke" fill="none" stroke-linecap="round" stroke-linejoin="round" stroke-miterlimit="4" stroke="#484848" stroke-width="2"><g><path d="M 29.6 47.799999C 28.6 46.200001 28.200001 44.400002 28.200001 42.599998L 28.200001 40.400002C 28.200001 36.400002 25 33 21 33C 17 33 13.6 36 13.4 40.200001C 13.4 40.200001 13.4 40.400002 13.4 40.400002L 13.4 42.599998C 13.4 44.400002 13 46.200001 12 47.799999M 13.4 41.599998C 16.200001 41.599998 19 40.400002 20.799999 38.200001C 22.6 40.400002 25.4 41.599998 28.200001 41.599998M 27.4 41.599998C 27.200001 45.200001 24.200001 48 20.6 47.799999C 17.200001 47.599998 14.6 45 14.4 41.599998M 30.6 57C 27.799999 51.599998 21.200001 49.400002 15.8 52.200001C 13.8 53.200001 12 55 11 57M 56 47.799999C 55 46.200001 54.599998 44.400002 54.599998 42.599998L 54.599998 40.400002C 54.599998 36.400002 51.400002 33 47.400002 33C 43.400002 33 40 36.200001 40 40.200001C 40 40.200001 40 40.400002 40 40.400002L 40 42.599998C 40 44.400002 39.599998 46.200001 38.599998 47.799999M 39.799999 41.599998C 42.599998 41.599998 45.400002 40.400002 47.200001 38.200001C 49 40.400002 51.799999 41.599998 54.599998 41.599998M 53.599998 41.599998C 53.400002 45.200001 50.400002 48 46.799999 47.799999C 43.400002 47.599998 40.799999 45 40.599998 41.599998M 57 57C 54.200001 51.599998 47.599998 49.400002 42.200001 52.200001C 40.200001 53.200001 38.400002 55 37.400002 57M 40.799999 29.4C 36.799999 26.200001 31.200001 26.200001 27.200001 29.4M 28.4 14.2C 30.4 16.4 33.200001 17.6 36.200001 17.6C 37.599998 17.6 39.200001 17.4 40.400002 16.799999M 27.6 17.6C 27.6 21.134623 30.465378 24 34 24C 37.534622 24 40.400002 21.134623 40.400002 17.6C 40.400002 14.065378 37.534622 11.2 34 11.2C 30.465378 11.2 27.6 14.065378 27.6 17.6"></path></g></g></g><g id="g-root-tx_modelcon_m7cxh01ravf2g-stroke" data-item-order="0" data-item-id="tx_modelcon_m7cxh01ravf2g" data-item-class="Label Stroke SceneTarget Indexed" data-item-index="102" data-renderer-id="0" transform="translate(363.00048828125, 219)"></g><g id="g-root-tx_localtra_1lseut01raveob-stroke" data-item-order="0" data-item-id="tx_localtra_1lseut01raveob" data-item-class="Label Stroke SceneTarget Indexed" data-item-index="2" data-renderer-id="0" transform="translate(63.00048828125, 243)"></g><g id="g-root-user_mfh3lg1rb6pla-stroke" data-item-order="0" data-item-id="user_mfh3lg1rb6pla" data-item-class="Icon Stroke SceneTarget Indexed" data-item-index="3" data-renderer-id="0" transform="translate(3.00048828125, 315)"><g id="user_mfh3lg1rb6pla-stroke" fill="none" stroke-linecap="round" stroke-linejoin="round" stroke-miterlimit="4" stroke="#484848" stroke-width="2"><g><path d="M 50 36L 50 49.824001C 50.047073 51.528873 48.704788 52.949905 47 53.000004L 21 53C 19.295216 52.949905 17.95293 51.528873 18 49.824001L 18 36M 27 57L 41 57M 34 53L 34 57M 18 47L 50 47M 38 37L 46 29M 40 29L 46 29L 46 35M 30 37L 22 29M 28 29L 22 29L 22 35M 45 15C 45 17.209139 46.790859 19 49 19C 51.209141 19 53 17.209139 53 15C 53 12.790861 51.209141 11 49 11C 46.790859 11 45 12.790861 45 15ZM 49 19C 44 19 42 22 42 25L 56 25C 56 22 54 19 49 19ZM 15 15C 15 17.209139 16.790861 19 19 19C 21.209139 19 23 17.209139 23 15C 23 12.790861 21.209139 11 19 11C 16.790861 11 15 12.790861 15 15ZM 19 19C 14 19 12 22 12 25L 26 25C 26 22 24 19 19 19Z"></path></g></g></g><g id="g-root-tx_scalabil_8xrud01ravfnm-stroke" data-item-order="0" data-item-id="tx_scalabil_8xrud01ravfnm" data-item-class="Label Stroke SceneTarget Indexed" data-item-index="3" data-renderer-id="0" transform="translate(63.00048828125, 327)"></g><g id="g-root-subt_144votw1rb6ozn-stroke" data-item-order="0" data-item-id="subt_144votw1rb6ozn" data-item-class="Icon Stroke SceneTarget Indexed" data-item-index="103" data-renderer-id="0" transform="translate(303.00048828125, 315)"><g id="subt_144votw1rb6ozn-stroke" fill="none" stroke-linecap="round" stroke-linejoin="round" stroke-miterlimit="4" stroke="#484848" stroke-width="2"><g><path d="M 44.841999 56.984001C 51.556679 56.984001 57 51.54068 57 44.826C 57 38.11132 51.556679 32.667999 44.841999 32.667999C 38.127323 32.667999 32.683998 38.11132 32.683998 44.826C 32.683998 51.54068 38.127323 56.984001 44.841999 56.984001ZM 39 44.826L 50.672001 44.826M 11 19.096001L 50.375999 19.096001M 11 36.295998L 30.004 36.295998M 11 27.709999L 50.366001 27.709999M 27.084 19.096001L 27.084 45.195999M 38.613998 19.096001L 38.613998 29.898001M 28.506001 45.200001L 15.153999 45.200001C 14.053903 45.200001 12.998949 44.762581 12.221626 43.984131C 11.444303 43.205681 11.008408 42.150097 11.01 41.050003L 11.01 15.158C 11.011105 12.870113 12.866113 11.016 15.154 11.016L 46.223999 11.016C 48.511562 11.016 50.366001 12.870437 50.366001 15.158L 50.366001 30.034"></path></g></g></g><g id="g-root-tx_aggregat_1uualx01rau1an-stroke" data-item-order="0" data-item-id="tx_aggregat_1uualx01rau1an" data-item-class="Label Stroke SceneTarget Indexed" data-item-index="103" data-renderer-id="0" transform="translate(363.00048828125, 315)"></g></g></g></svg>