<?xml version="1.0" encoding="utf-8" standalone="yes"?>
<!DOCTYPE svg PUBLIC "-//W3C//DTD SVG 1.1//EN" "http://www.w3.org/Graphics/SVG/1.1/DTD/svg11.dtd">
<svg width="576" height="408" viewBox="0 0 576 408" style="fill:none;stroke:none;fill-rule:evenodd;clip-rule:evenodd;stroke-linecap:round;stroke-linejoin:round;stroke-miterlimit:1.5;" version="1.1" xmlns="http://www.w3.org/2000/svg" xmlns:xlink="http://www.w3.org/1999/xlink"><style id="fontImports">@import url("https://fonts.googleapis.com/css2?family=Roboto:wght@400;700&amp;display=block");</style><rect id="" x="0" y="0" width="576" height="408" style="fill: #ffffff;"></rect><g id="items" style="isolation: isolate"><g id="blend" style="mix-blend-mode:multiply"><g id="g-root-5.cu_sy_4kgi0j1rl91xr-fill" data-item-order="-82624" data-item-id="5.cu_sy_4kgi0j1rl91xr" data-item-class="ScenePart Part Indexed Fill Stroke ColorStrokeBlack" data-item-index="5" data-renderer-id="0" transform="translate(219.94583129882812, 208)"><g id="5.cu_sy_4kgi0j1rl91xr-fill" stroke="none" fill="#dd8433"><g><path d="M 51.8142 10C 59.5542 15.5 69.4811 19.1285 80.0543 19.1285C 90.6274 19.1285 100.3644 15.712 108.2943 10L 149.964 68.2767C 147.274 70.2121 144.49 72.0531 141.659 73.7996L 149.068 98.3457C 142.272 102.0748 135.1 105.2847 127.691 107.8809L 114.383 85.931C 108.0599 87.8192 101.5477 89.1881 94.894 90.0378L 91.6852 115.481C 87.8156 115.811 83.899 116 79.9822 116C 76.0655 116 72.1487 115.811 68.2792 115.481L 65.0703 90.0378C 58.3694 89.1881 51.8572 87.8192 45.581 85.931L 32.2735 107.8809C 24.8647 105.2374 17.6919 102.0748 10.8966 98.3457L 18.3054 73.7996C 15.4269 72.1003 10 68.2767 10 68.2767L 51.8142 10Z"></path></g></g></g><g id="g-root-4.cu_sy_dfh16b1rl94au-fill" data-item-order="-82622" data-item-id="4.cu_sy_dfh16b1rl94au" data-item-class="ScenePart Part Indexed Fill Stroke ColorStrokeBlack" data-item-index="4" data-renderer-id="0" transform="translate(318.00006103515625, 133.1146240234375)"><g id="4.cu_sy_dfh16b1rl94au-fill" stroke="none" fill="#e3cd09"><g><path d="M 125.856 43.4676C 125.668 35.5374 124.865 27.7487 123.45 20.1489L 97.8257 19.5824C 97.0706 16.3253 96.1741 13.1155 95.1831 10L 27.461 31.9922C 28.97 36.6322 29.8323 41.5388 29.8323 46.6855C 29.8323 62.4988 21.991 76.4722 10 85.1122L 51.9102 143.162C 54.6 141.18 57.1954 139.15 59.6964 136.979L 80.7429 151.612C 86.4057 146.231 91.691 140.425 96.4571 134.194L 79.7049 114.793C 83.4801 109.3644 86.8305 103.6055 89.6618 97.5634L 114.861 102.3782C 117.834 95.2032 120.241 87.7922 122.081 80.0979L 98.9109 69.1466C 100.1379 62.7268 100.8458 56.1183 100.9402 49.3681L 125.903 43.5148L 125.856 43.4676Z"></path></g></g></g><g id="g-root-3.cu_sy_hvajar1rl93il-fill" data-item-order="-82620" data-item-id="3.cu_sy_hvajar1rl93il" data-item-class="ScenePart Part Indexed Fill Stroke ColorStrokeBlack" data-item-index="3" data-renderer-id="0" transform="translate(146, 133.1151123046875)"><g id="3.cu_sy_hvajar1rl93il-fill" stroke="none" fill="#93c131"><g><path d="M 108.512 31.9937C 106.9761 36.6353 106.1407 41.5702 106.1407 46.6919L 106.1677 46.6653C 106.1677 62.4839 114.009 76.4619 126 85.1047L 83.9932 143.115C 81.3034 141.18 78.708 139.103 76.207 136.931L 55.1603 151.565C 49.4504 146.183 44.2124 140.377 39.4463 134.146L 56.1985 114.746C 52.4233 109.3172 49.0729 103.5583 46.2416 97.5162L 21.0423 102.331C 18.0222 95.2032 15.6156 87.745 13.8223 80.0507L 36.9924 69.0994C 35.8127 62.6796 35.1048 56.0711 34.9632 49.3209L 10 43.4676C 10.1888 35.5374 10.9909 27.7487 12.4066 20.1489L 38.0305 19.5824C 38.7855 16.3253 39.6822 13.1627 40.6732 10L 108.512 31.9937Z"></path></g></g></g><g id="g-root-2.cu_sy_hvajar1rl93ik-fill" data-item-order="-82618" data-item-id="2.cu_sy_hvajar1rl93ik" data-item-class="ScenePart Part Indexed Fill Stroke ColorStrokeBlack" data-item-index="2" data-renderer-id="0" transform="translate(289.880859375, 27)"><g id="2.cu_sy_hvajar1rl93ik-fill" stroke="none" fill="#17b0e3"><g><path d="M 10.1191 105.6758L 10.146 105.6758C 31.3808 105.6758 49.3713 119.66 55.5916 139L 123.302 116.115C 122.264 112.952 121.131 109.8364 119.857 106.7682L 140.243 91.2381C 136.893 84.1575 132.929 77.3601 128.493 70.9403L 104.8511 80.8532C 100.84 75.5663 96.3569 70.6099 91.5436 66.0783L 103.86 43.6092C 97.9613 38.5112 91.638 33.8852 84.9371 29.7785L 67.3825 48.4712C 61.5782 45.2614 55.5379 42.5707 49.2145 40.3994L 51.3381 14.8148C 43.9293 12.5962 36.2846 10.9913 28.4039 10L 19.9569 34.2156C 16.6537 33.9324 13.3505 33.7908 10 33.7908L 10.1191 105.6758Z"></path></g></g></g><g id="g-root-1.cu_sy_qqxjjn1rl92pv-fill" data-item-order="-82616" data-item-id="1.cu_sy_qqxjjn1rl92pv" data-item-class="ScenePart Part Indexed Indexed_1 Fill Stroke ColorStrokeBlack" data-item-index="1" data-renderer-id="0" transform="translate(159.68475341796875, 27)"><g id="1.cu_sy_qqxjjn1rl92pv-fill" stroke="none" fill="#3bc482"><g><path d="M 140.243 33.7908L 140.315 105.6758L 140.288 105.6758C 119.054 105.6758 101.063 119.66 94.8427 139L 26.941 116.115C 27.932 112.952 29.1118 109.8364 30.3859 106.7682L 10 91.2381C 13.3977 84.1103 17.3143 77.3601 21.7502 70.9403L 45.3922 80.8532C 49.4033 75.5663 53.8863 70.6099 58.6997 66.0783L 46.3831 43.6092C 52.2818 38.5112 58.6053 33.8852 65.3062 29.7785L 82.8607 48.4712C 88.6178 45.3086 94.7052 42.6179 101.0286 40.3994L 98.9051 14.8148C 106.3139 12.6434 114.006 10.9913 121.839 10L 130.286 34.2156C 133.589 33.9796 136.893 33.7908 140.243 33.7908Z"></path></g></g></g><g id="g-root-tx_nlpappli_v7zzub1rl943t-fill" data-item-order="0" data-item-id="tx_nlpappli_v7zzub1rl943t" data-item-class="Label Stroke SceneTarget Indexed Indexed_1 ColorStrokeBlack" data-item-index="1" data-renderer-id="0" transform="translate(26, 2)"><g id="tx_nlpappli_v7zzub1rl943t-fill" stroke="none" fill="#666666"><g><text style="font: 20px Roboto, sans-serif; white-space: pre;"><tspan x="22.72" y="33.75" dominant-baseline="ideographic">NLP Applications</tspan></text></g></g></g><g id="g-root-tx_customer_1d0iyib1rl93wt-fill" data-item-order="0" data-item-id="tx_customer_1d0iyib1rl93wt" data-item-class="Label Stroke SceneTarget Indexed ColorStrokeBlack" data-item-index="2" data-renderer-id="0" transform="translate(386, 2)"><g id="tx_customer_1d0iyib1rl93wt-fill" stroke="none" fill="#666666"><g><text style="font: 20px Roboto, sans-serif; white-space: pre;"><tspan x="12" y="33.75" dominant-baseline="ideographic">Customer Service</tspan></text></g></g></g><g id="g-root-hi_8xs6yb1rktn2n-fill" data-item-order="0" data-item-id="hi_8xs6yb1rktn2n" data-item-class="Icon Stroke SceneTarget Indexed Indexed_1 InsideFill InsideColorFill ColorStrokeBlack" data-item-index="1" data-renderer-id="0" transform="translate(224, 80)"></g><g id="g-root-chat_8znm7n1rktm2z-fill" data-item-order="0" data-item-id="chat_8znm7n1rktm2z" data-item-class="Icon Stroke SceneTarget Indexed InsideFill InsideColorFill ColorStrokeBlack" data-item-index="2" data-renderer-id="0" transform="translate(320, 80)"></g><g id="g-root-cart_2rnsj1rktlhc-fill" data-item-order="0" data-item-id="cart_2rnsj1rktlhc" data-item-class="Icon Stroke SceneTarget Indexed InsideFill InsideColorFill ColorStrokeBlack" data-item-index="3" data-renderer-id="0" transform="translate(194, 176)"></g><g id="g-root-bank_mahnhv1rktnnu-fill" data-item-order="0" data-item-id="bank_mahnhv1rktnnu" data-item-class="Icon Stroke SceneTarget Indexed InsideFill InsideColorFill ColorStrokeBlack" data-item-index="4" data-renderer-id="0" transform="translate(350, 176)"></g><g id="g-root-tx_ecommerc_hx5yk31rl92iy-fill" data-item-order="0" data-item-id="tx_ecommerc_hx5yk31rl92iy" data-item-class="Label Stroke SceneTarget Indexed ColorStrokeBlack" data-item-index="3" data-renderer-id="0" transform="translate(2, 206)"><g id="tx_ecommerc_hx5yk31rl92iy-fill" stroke="none" fill="#666666"><g><text style="font: 20px Roboto, sans-serif; white-space: pre;"><tspan x="13.39" y="33.75" dominant-baseline="ideographic">E-Commerce</tspan></text></g></g></g><g id="g-root-tx_finance_6if5f1rl91qc-fill" data-item-order="0" data-item-id="tx_finance_6if5f1rl91qc" data-item-class="Label Stroke SceneTarget Indexed ColorStrokeBlack" data-item-index="4" data-renderer-id="0" transform="translate(458, 206)"><g id="tx_finance_6if5f1rl91qc-fill" stroke="none" fill="#666666"><g><text style="font: 20px Roboto, sans-serif; white-space: pre;"><tspan x="12" y="33.75" dominant-baseline="ideographic">Finance</tspan></text></g></g></g><g id="g-root-2_18hl6431rktla9-fill" data-item-order="0" data-item-id="2_18hl6431rktla9" data-item-class="Icon Stroke SceneTarget Indexed InsideFill InsideColorFill ColorStrokeBlack" data-item-index="5" data-renderer-id="0" transform="translate(272, 236)"></g><g id="g-root-tx_toolsand_4lpg6r1rl943v-fill" data-item-order="0" data-item-id="tx_toolsand_4lpg6r1rl943v" data-item-class="Label Stroke SceneTarget Indexed ColorStrokeBlack" data-item-index="5" data-renderer-id="0" transform="translate(230, 338)"><g id="tx_toolsand_4lpg6r1rl943v-fill" stroke="none" fill="#666666"><g><text style="font: 20px Roboto, sans-serif; white-space: pre;"><tspan x="26.45" y="33.75" dominant-baseline="ideographic">Tools and </tspan><tspan x="15.08" y="57.75" dominant-baseline="ideographic">Frameworks</tspan></text></g></g></g><g id="g-root-5.cu_sy_4kgi0j1rl91xr-stroke" data-item-order="-82624" data-item-id="5.cu_sy_4kgi0j1rl91xr" data-item-class="ScenePart Part Indexed Fill Stroke ColorStrokeBlack" data-item-index="5" data-renderer-id="0" transform="translate(219.94583129882812, 208)"><g id="5.cu_sy_4kgi0j1rl91xr-stroke" fill="none" stroke-linecap="round" stroke-linejoin="round" stroke-miterlimit="4" stroke="#2c2c2c" stroke-width="2"><g><path d="M 51.8142 10C 59.5542 15.5 69.4811 19.1285 80.0543 19.1285C 90.6274 19.1285 100.3644 15.712 108.2943 10L 149.9643 68.2767C 147.2745 70.2121 144.4902 72.0531 141.6589 73.7996L 149.0677 98.3457C 142.2724 102.0748 135.0996 105.2847 127.6908 107.8809L 114.3833 85.931C 108.0599 87.8192 101.5477 89.1881 94.894 90.0378L 91.6852 115.4807C 87.8156 115.8111 83.899 116 79.9822 116C 76.0655 116 72.1487 115.8111 68.2792 115.4807L 65.0703 90.0378C 58.3694 89.1881 51.8572 87.8192 45.581 85.931L 32.2735 107.8809C 24.8647 105.2374 17.6919 102.0748 10.8966 98.3457L 18.3054 73.7996C 15.4268 72.1003 10 68.2767 10 68.2767L 51.8142 10Z"></path></g></g></g><g id="g-root-4.cu_sy_dfh16b1rl94au-stroke" data-item-order="-82622" data-item-id="4.cu_sy_dfh16b1rl94au" data-item-class="ScenePart Part Indexed Fill Stroke ColorStrokeBlack" data-item-index="4" data-renderer-id="0" transform="translate(318.00006103515625, 133.1146240234375)"><g id="4.cu_sy_dfh16b1rl94au-stroke" fill="none" stroke-linecap="round" stroke-linejoin="round" stroke-miterlimit="4" stroke="#2c2c2c" stroke-width="2"><g><path d="M 125.8563 43.4676C 125.6675 35.5374 124.8653 27.7487 123.4496 20.1489L 97.8257 19.5824C 97.0706 16.3253 96.1741 13.1155 95.1831 10L 27.461 31.9922C 28.97 36.6322 29.8323 41.5388 29.8323 46.6855C 29.8323 62.4988 21.991 76.4722 10 85.1122L 51.9102 143.1624C 54.6 141.1799 57.1954 139.1501 59.6964 136.9787L 80.7429 151.6119C 86.4057 146.2307 91.691 140.4246 96.4571 134.1937L 79.7049 114.7928C 83.4801 109.3644 86.8305 103.6055 89.6618 97.5634L 114.861 102.3782C 117.834 95.2032 120.2407 87.7922 122.081 80.0979L 98.9109 69.1466C 100.1379 62.7268 100.8458 56.1183 100.9402 49.3681L 125.9034 43.5148L 125.8563 43.4676Z"></path></g></g></g><g id="g-root-3.cu_sy_hvajar1rl93il-stroke" data-item-order="-82620" data-item-id="3.cu_sy_hvajar1rl93il" data-item-class="ScenePart Part Indexed Fill Stroke ColorStrokeBlack" data-item-index="3" data-renderer-id="0" transform="translate(146, 133.1151123046875)"><g id="3.cu_sy_hvajar1rl93il-stroke" fill="none" stroke-linecap="round" stroke-linejoin="round" stroke-miterlimit="4" stroke="#2c2c2c" stroke-width="2"><g><path d="M 108.512 31.9937C 106.9761 36.6353 106.1407 41.5702 106.1407 46.6919L 106.1677 46.6653C 106.1677 62.4839 114.009 76.4619 126 85.1047L 83.9932 143.1152C 81.3034 141.1798 78.708 139.1029 76.207 136.9315L 55.1603 151.5647C 49.4504 146.1835 44.2124 140.3774 39.4463 134.1465L 56.1985 114.7456C 52.4233 109.3172 49.0729 103.5583 46.2416 97.5162L 21.0423 102.331C 18.0222 95.2032 15.6155 87.745 13.8223 80.0507L 36.9924 69.0994C 35.8127 62.6796 35.1048 56.0711 34.9632 49.3209L 10 43.4676C 10.1888 35.5374 10.9909 27.7487 12.4066 20.1489L 38.0305 19.5824C 38.7855 16.3253 39.6822 13.1627 40.6732 10L 108.512 31.9937Z"></path></g></g></g><g id="g-root-2.cu_sy_hvajar1rl93ik-stroke" data-item-order="-82618" data-item-id="2.cu_sy_hvajar1rl93ik" data-item-class="ScenePart Part Indexed Fill Stroke ColorStrokeBlack" data-item-index="2" data-renderer-id="0" transform="translate(289.880859375, 27)"><g id="2.cu_sy_hvajar1rl93ik-stroke" fill="none" stroke-linecap="round" stroke-linejoin="round" stroke-miterlimit="4" stroke="#2c2c2c" stroke-width="2"><g><path d="M 10.1191 105.6758L 10.146 105.6758C 31.3808 105.6758 49.3713 119.6601 55.5916 139L 123.3022 116.1145C 122.264 112.9519 121.1314 109.8364 119.8573 106.7682L 140.2433 91.2381C 136.8928 84.1575 132.9288 77.3601 128.493 70.9403L 104.8511 80.8532C 100.84 75.5663 96.3569 70.6099 91.5436 66.0783L 103.86 43.6092C 97.9613 38.5112 91.638 33.8852 84.9371 29.7785L 67.3825 48.4712C 61.5782 45.2614 55.5379 42.5707 49.2145 40.3994L 51.3381 14.8148C 43.9293 12.5962 36.2846 10.9913 28.4039 10L 19.9569 34.2156C 16.6537 33.9324 13.3505 33.7908 10 33.7908L 10.1191 105.6758Z"></path></g></g></g><g id="g-root-1.cu_sy_qqxjjn1rl92pv-stroke" data-item-order="-82616" data-item-id="1.cu_sy_qqxjjn1rl92pv" data-item-class="ScenePart Part Indexed Indexed_1 Fill Stroke ColorStrokeBlack" data-item-index="1" data-renderer-id="0" transform="translate(159.68475341796875, 27)"><g id="1.cu_sy_qqxjjn1rl92pv-stroke" fill="none" stroke-linecap="round" stroke-linejoin="round" stroke-miterlimit="4" stroke="#2c2c2c" stroke-width="2"><g><path d="M 140.2433 33.7908L 140.3152 105.6758L 140.2883 105.6758C 119.0536 105.6758 101.063 119.6601 94.8427 139L 26.941 116.1145C 27.932 112.9519 29.1118 109.8364 30.3859 106.7682L 10 91.2381C 13.3976 84.1103 17.3143 77.3601 21.7502 70.9403L 45.3922 80.8532C 49.4033 75.5663 53.8863 70.6099 58.6997 66.0783L 46.3831 43.6092C 52.2818 38.5112 58.6053 33.8852 65.3062 29.7785L 82.8607 48.4712C 88.6178 45.3086 94.7052 42.6179 101.0286 40.3994L 98.9051 14.8148C 106.3139 12.6434 114.0057 10.9913 121.8392 10L 130.2862 34.2156C 133.5894 33.9796 136.8928 33.7908 140.2433 33.7908Z"></path></g></g></g><g id="g-root-tx_nlpappli_v7zzub1rl943t-stroke" data-item-order="0" data-item-id="tx_nlpappli_v7zzub1rl943t" data-item-class="Label Stroke SceneTarget Indexed Indexed_1 ColorStrokeBlack" data-item-index="1" data-renderer-id="0" transform="translate(26, 2)"></g><g id="g-root-tx_customer_1d0iyib1rl93wt-stroke" data-item-order="0" data-item-id="tx_customer_1d0iyib1rl93wt" data-item-class="Label Stroke SceneTarget Indexed ColorStrokeBlack" data-item-index="2" data-renderer-id="0" transform="translate(386, 2)"></g><g id="g-root-hi_8xs6yb1rktn2n-stroke" data-item-order="0" data-item-id="hi_8xs6yb1rktn2n" data-item-class="Icon Stroke SceneTarget Indexed Indexed_1 InsideFill InsideColorFill ColorStrokeBlack" data-item-index="1" data-renderer-id="0" transform="translate(224, 80)"><g id="hi_8xs6yb1rktn2n-stroke" fill="none" stroke-linecap="round" stroke-linejoin="round" stroke-miterlimit="4" stroke="#2c2c2c" stroke-width="2"><g><path d="M 23.5 21.25L 17.755001 21.25C 16.371527 21.25 15.25 22.371527 15.25 23.755001L 15.25 40.75M 40.75 40.75L 40.75 31M 45.25 40.75C 45.25 43.235283 43.235283 45.25 40.75 45.25L 15.25 45.25C 12.764719 45.25 10.75 43.235283 10.75 40.75ZM 36.145 10.75C 31.174294 10.807653 27.191671 14.884301 27.25 19.855C 27.187422 21.527769 27.5926 23.184843 28.420002 24.639999L 25.75 30.25L 31.360001 27.58C 34.638824 29.599216 38.834183 29.333393 41.831932 26.916489C 44.829685 24.49958 45.979313 20.456064 44.701492 16.823555C 43.423676 13.191046 39.995701 10.757807 36.145 10.75ZM 39.25 23.5L 39.25 16M 33.25 23.5L 33.25 16M 36.25 23.5L 36.25 16M 33.25 20.5L 36.25 20.5"></path></g></g></g><g id="g-root-chat_8znm7n1rktm2z-stroke" data-item-order="0" data-item-id="chat_8znm7n1rktm2z" data-item-class="Icon Stroke SceneTarget Indexed InsideFill InsideColorFill ColorStrokeBlack" data-item-index="2" data-renderer-id="0" transform="translate(320, 80)"><g id="chat_8znm7n1rktm2z-stroke" fill="none" stroke-linecap="round" stroke-linejoin="round" stroke-miterlimit="4" stroke="#2c2c2c" stroke-width="2"><g><path d="M 33.099998 23.234501L 33.099998 16.064501C 33.100002 13.464794 30.991203 11.358013 28.391499 11.3605L 15.454 11.3605C 12.856052 11.3605 10.75 13.466553 10.75 16.064499L 10.75 23.1145C 10.749171 25.713032 12.855467 27.82 15.454 27.82L 15.454 27.82L 15.454 33.700001L 21.335501 27.82L 26.785 27.82M 16.042 18.842501L 16.042 18.842501M 16.042 18.85C 15.627787 18.85 15.292 19.185787 15.292 19.6C 15.292 20.014214 15.627787 20.35 16.042 20.35C 16.456213 20.35 16.792 20.014214 16.792 19.6C 16.792 19.185787 16.456213 18.85 16.042 18.85M 21.9235 18.842501L 21.9235 18.842501M 21.9235 18.85C 21.509287 18.85 21.1735 19.185787 21.1735 19.6C 21.1735 20.014214 21.509287 20.35 21.9235 20.35C 22.337713 20.35 22.6735 20.014214 22.6735 19.6C 22.6735 19.185787 22.337713 18.85 21.9235 18.85M 27.803501 18.85C 27.389286 18.85 27.053501 19.185787 27.053501 19.6C 27.053501 20.014214 27.389286 20.35 27.803501 20.35C 28.217714 20.35 28.553501 20.014214 28.553501 19.6C 28.553501 19.185787 28.217714 18.85 27.803501 18.85M 29.070999 41.403999L 28.423 41.403999C 26.993134 41.403999 25.834 40.244865 25.834 38.814999L 25.834 36.225998C 25.834 34.796379 26.993378 33.637672 28.423 33.6385L 29.070999 33.6385C 29.428053 33.6385 29.717501 33.927948 29.717501 34.285L 29.717501 40.7575C 29.717501 41.114552 29.428053 41.403999 29.070999 41.403999ZM 42.660999 41.403999L 42.0145 41.403999C 41.842781 41.4044 41.677952 41.33646 41.556385 41.215176C 41.434822 41.093887 41.366501 40.929222 41.366501 40.7575L 41.366501 34.285C 41.366501 34.113277 41.434822 33.948608 41.556385 33.827324C 41.677952 33.706039 41.842781 33.638103 42.0145 33.6385L 42.660999 33.6385C 44.090622 33.637672 45.25 34.796379 45.25 36.225998L 45.25 38.814999C 45.249996 40.244865 44.090862 41.403999 42.660995 41.403999ZM 28.423 33.6385C 28.423 29.706783 31.610283 26.519499 35.541996 26.519499L 35.542 26.519499C 39.473713 26.519499 42.660995 29.706783 42.660995 33.638496M 38.131001 44.6395L 40.071999 44.6395C 41.501621 44.640327 42.660999 43.481621 42.660999 42.052002L 42.660999 42.052002L 42.660999 41.403999"></path></g></g></g><g id="g-root-cart_2rnsj1rktlhc-stroke" data-item-order="0" data-item-id="cart_2rnsj1rktlhc" data-item-class="Icon Stroke SceneTarget Indexed InsideFill InsideColorFill ColorStrokeBlack" data-item-index="3" data-renderer-id="0" transform="translate(194, 176)"><g id="cart_2rnsj1rktlhc-stroke" fill="none" stroke-linecap="round" stroke-linejoin="round" stroke-miterlimit="4" stroke="#2c2c2c" stroke-width="2"><g><path d="M 45.25 45.25L 38.5 38.5M 35.570503 42.099998C 35.685616 42.37923 35.956989 42.562164 36.25901 42.564133C 36.561031 42.566097 36.834763 42.386707 36.953499 42.109001L 38.5 38.5L 42.109001 36.953499C 42.386707 36.834763 42.566097 36.561031 42.564133 36.25901C 42.562164 35.956989 42.37923 35.685616 42.099998 35.570503L 32.665001 31.685499C 32.384884 31.569815 32.062675 31.634079 31.848377 31.848377C 31.634079 32.062675 31.569815 32.384884 31.685499 32.665001ZM 25 30.25C 25 31.078428 25.671572 31.75 26.5 31.75C 27.328428 31.75 28 31.078428 28 30.25C 28 29.421572 27.328428 28.75 26.5 28.75C 25.671572 28.75 25 29.421572 25 30.25ZM 19 30.25C 19 31.078428 19.671574 31.75 20.5 31.75C 21.328426 31.75 22 31.078428 22 30.25C 22 29.421572 21.328426 28.75 20.5 28.75C 19.671574 28.75 19 29.421572 19 30.25ZM 31 16L 27.25 27.25L 19.75 27.25L 17.5 19.75L 29.7505 19.75M 29.1565 36.830498C 23.155582 39.168423 16.338953 36.938789 12.879565 31.506519C 9.420178 26.074249 10.282793 18.954308 14.939342 14.505322C 19.59589 10.056335 26.747746 9.519051 32.016739 13.222376C 37.285732 16.925701 39.202438 23.836847 36.593502 29.725"></path></g></g></g><g id="g-root-bank_mahnhv1rktnnu-stroke" data-item-order="0" data-item-id="bank_mahnhv1rktnnu" data-item-class="Icon Stroke SceneTarget Indexed InsideFill InsideColorFill ColorStrokeBlack" data-item-index="4" data-renderer-id="0" transform="translate(350, 176)"><g id="bank_mahnhv1rktnnu-stroke" fill="none" stroke-linecap="round" stroke-linejoin="round" stroke-miterlimit="4" stroke="#2c2c2c" stroke-width="2"><g><path d="M 43.197144 24.142857L 12.802857 24.142857C 11.362857 24.142857 10.745714 22.574286 11.877143 21.828571L 27.074286 11.877143C 27.64566 11.541019 28.354338 11.541019 28.925713 11.877143L 44.122856 21.828571C 45.254284 22.574286 44.637142 24.142857 43.197144 24.142857ZM 12.571428 38.285713L 43.42857 38.285713C 43.42857 38.285713 44.714287 38.285713 44.714287 39.571426L 44.714287 43.42857C 44.714287 43.42857 44.714287 44.714287 43.42857 44.714287L 12.571428 44.714287C 12.571428 44.714287 11.285714 44.714287 11.285714 43.42857L 11.285714 39.571426C 11.285714 39.571426 11.285714 38.285713 12.571428 38.285713M 15.142857 24.142857L 15.142857 38.285713M 21.571428 24.142857L 21.571428 38.285713M 28 24.142857L 28 38.285713M 34.42857 24.142857L 34.42857 38.285713M 40.857143 24.142857L 40.857143 38.285713"></path></g></g></g><g id="g-root-tx_ecommerc_hx5yk31rl92iy-stroke" data-item-order="0" data-item-id="tx_ecommerc_hx5yk31rl92iy" data-item-class="Label Stroke SceneTarget Indexed ColorStrokeBlack" data-item-index="3" data-renderer-id="0" transform="translate(2, 206)"></g><g id="g-root-tx_finance_6if5f1rl91qc-stroke" data-item-order="0" data-item-id="tx_finance_6if5f1rl91qc" data-item-class="Label Stroke SceneTarget Indexed ColorStrokeBlack" data-item-index="4" data-renderer-id="0" transform="translate(458, 206)"></g><g id="g-root-2_18hl6431rktla9-stroke" data-item-order="0" data-item-id="2_18hl6431rktla9" data-item-class="Icon Stroke SceneTarget Indexed InsideFill InsideColorFill ColorStrokeBlack" data-item-index="5" data-renderer-id="0" transform="translate(272, 236)"><g id="2_18hl6431rktla9-stroke" fill="none" stroke-linecap="round" stroke-linejoin="round" stroke-miterlimit="4" stroke="#2c2c2c" stroke-width="2"><g><path d="M 24.295 21.480999C 23.76746 22.677765 22.887938 23.685476 21.773499 24.369999L 23.258499 32.110001L 18.6175 32.110001L 17.300501 25.2265C 14.661958 24.767817 12.582741 22.723946 12.07889 20.093653C 11.57504 17.463362 12.751749 14.795795 15.034 13.3945L 15.9535 18.190001L 18.6175 19.997499L 20.424999 17.334999L 19.505501 12.538C 21.457653 12.876608 23.145168 14.095218 24.08057 15.84181C 25.015972 17.588402 25.095064 19.668417 24.295 21.480999ZM 34.788998 13.444C 34.3405 15.4615 31.967501 16.806999 28.7155 16.084L 28.080999 18.935499L 43.291 22.316502L 44.77 15.6625L 34.788998 13.444ZM 31.762001 32.110001L 34.378002 20.341L 38.7085 21.303999L 36.183998 32.1115L 31.762001 32.1115ZM 44.875 41.994999L 44.875 32.110001L 11.125 32.110001L 11.125 41.994999C 11.125 42.805 11.782 43.463501 12.592 43.463501L 43.407997 43.463501C 44.218002 43.463501 44.875 42.805 44.875 41.994999ZM 30.2005 34.312C 30.2005 35.527302 29.215302 36.512501 28 36.512501C 26.784698 36.512501 25.7995 35.527302 25.7995 34.312L 25.7995 32.1115L 30.2005 32.1115L 30.2005 34.312Z"></path></g></g></g><g id="g-root-tx_toolsand_4lpg6r1rl943v-stroke" data-item-order="0" data-item-id="tx_toolsand_4lpg6r1rl943v" data-item-class="Label Stroke SceneTarget Indexed ColorStrokeBlack" data-item-index="5" data-renderer-id="0" transform="translate(230, 338)"></g></g></g></svg>