<?xml version="1.0" encoding="utf-8" standalone="yes"?>
<!DOCTYPE svg PUBLIC "-//W3C//DTD SVG 1.1//EN" "http://www.w3.org/Graphics/SVG/1.1/DTD/svg11.dtd">
<svg width="792" height="552" viewBox="0 0 792 552" style="fill:none;stroke:none;fill-rule:evenodd;clip-rule:evenodd;stroke-linecap:round;stroke-linejoin:round;stroke-miterlimit:1.5;" version="1.1" xmlns="http://www.w3.org/2000/svg" xmlns:xlink="http://www.w3.org/1999/xlink"><style id="fontImports">@import url("https://fonts.googleapis.com/css2?family=Shantell+Sans:wght@300..800&amp;display=block");</style><rect id="" x="0" y="0" width="792" height="552" style="fill: #ffffff;"></rect><g id="items" style="isolation: isolate"><g id="blend" style="mix-blend-mode:multiply"><g id="g-root-4.Vector_sy_dju9mr1tsytql-fill" data-item-order="-207932" data-item-id="4.Vector_sy_dju9mr1tsytql" data-item-class="ScenePart Part Indexed Fill Stroke" data-item-index="4" data-renderer-id="0" transform="translate(399, 278.9999694824219)"><g id="4.Vector_sy_dju9mr1tsytql-fill" stroke="none" fill="#fde6cf"><g><path d="M 21 10L 189 10C 195.075 10 200 14.925 200 21L 200 189C 200 195.075 195.075 200 189 200L 21 200C 14.925 200 10 195.075 10 189L 10 21C 10 14.925 14.925 10 21 10Z"></path></g></g></g><g id="g-root-3.Vector_sy_dju9mr1tsytqk-fill" data-item-order="-207930" data-item-id="3.Vector_sy_dju9mr1tsytqk" data-item-class="ScenePart Part Indexed Fill Stroke" data-item-index="3" data-renderer-id="0" transform="translate(183, 278.9999694824219)"><g id="3.Vector_sy_dju9mr1tsytqk-fill" stroke="none" fill="#ffd0ce"><g><path d="M 21 10L 189 10C 195.075 10 200 14.925 200 21L 200 189C 200 195.075 195.075 200 189 200L 21 200C 14.925 200 10 195.075 10 189L 10 21C 10 14.925 14.925 10 21 10Z"></path></g></g></g><g id="g-root-2.Vector_sy_dju9mr1tsytqj-fill" data-item-order="-207928" data-item-id="2.Vector_sy_dju9mr1tsytqj" data-item-class="ScenePart Part Indexed Fill Stroke" data-item-index="2" data-renderer-id="0" transform="translate(399, 62.999969482421875)"><g id="2.Vector_sy_dju9mr1tsytqj-fill" stroke="none" fill="#d5f7e8"><g><path d="M 21 10L 189 10C 195.075 10 200 14.925 200 21L 200 189C 200 195.075 195.075 200 189 200L 21 200C 14.925 200 10 195.075 10 189L 10 21C 10 14.925 14.925 10 21 10Z"></path></g></g></g><g id="g-root-1.Vector_sy_mfh9vn1tsysxu-fill" data-item-order="-207926" data-item-id="1.Vector_sy_mfh9vn1tsysxu" data-item-class="ScenePart Part Indexed Indexed_1 Fill Stroke" data-item-index="1" data-renderer-id="0" transform="translate(183, 62.999969482421875)"><g id="1.Vector_sy_mfh9vn1tsysxu-fill" stroke="none" fill="#cedfff"><g><path d="M 21 10L 189 10C 195.075 10 200 14.925 200 21L 200 189C 200 195.075 195.075 200 189 200L 21 200C 14.925 200 10 195.075 10 189L 10 21C 10 14.925 14.925 10 21 10Z"></path></g></g></g><g id="g-root-0.line_sy_qvas031tsys5g-fill" data-item-order="-207923" data-item-id="0.line_sy_qvas031tsys5g" data-item-class="ScenePart Part Indexed_0 Stroke ColorFillGray ColorStrokeGray" data-item-index="0" data-renderer-id="0" transform="translate(158, 265.9999694824219)"></g><g id="g-root-0.head_sy_qvas031tsys5h-fill" data-item-order="-207921" data-item-id="0.head_sy_qvas031tsys5h" data-item-class="ScenePart Part Indexed_0 Stroke ColorFillGray ColorStrokeGray" data-item-index="0" data-renderer-id="0" transform="translate(158, 259.4999694824219)"></g><g id="g-root-0.head_1_sy_qvas031tsys5i-fill" data-item-order="-207919" data-item-id="0.head_1_sy_qvas031tsys5i" data-item-class="ScenePart Part Indexed_0 Stroke ColorFillGray ColorStrokeGray" data-item-index="0" data-renderer-id="0" transform="translate(607.5, 259.4999694824219)"></g><g id="g-root-0.line_1_sy_qvas031tsys5j-fill" data-item-order="-207917" data-item-id="0.line_1_sy_qvas031tsys5j" data-item-class="ScenePart Part Indexed_0 Stroke ColorFillGray ColorStrokeGray" data-item-index="0" data-renderer-id="0" transform="translate(386, 37.999969482421875)"></g><g id="g-root-0.head_2_sy_mfh9vn1tsysxs-fill" data-item-order="-207915" data-item-id="0.head_2_sy_mfh9vn1tsysxs" data-item-class="ScenePart Part Indexed_0 Stroke ColorFillGray ColorStrokeGray" data-item-index="0" data-renderer-id="0" transform="translate(379.5, 487.4999694824219)"></g><g id="g-root-0.head_3_sy_mfh9vn1tsysxt-fill" data-item-order="-207913" data-item-id="0.head_3_sy_mfh9vn1tsysxt" data-item-class="ScenePart Part Indexed_0 Stroke ColorFillGray ColorStrokeGray" data-item-index="0" data-renderer-id="0" transform="translate(379.5, 37.999969482421875)"></g><g id="g-root-tx_highgene_4hyiir1tt074e-fill" data-item-order="0" data-item-id="tx_highgene_4hyiir1tt074e" data-item-class="Label Stroke SceneTarget ColorFillGray ColorStrokeGray" data-item-index="none" data-renderer-id="0" transform="translate(308, 2)"><g id="tx_highgene_4hyiir1tt074e-fill" stroke="none" fill="#888888"><g><text style="font: 15px &quot;Shantell Sans&quot;, cursive; white-space: pre;"><tspan x="15.3" y="31.75" dominant-baseline="ideographic">High Generalization</tspan></text></g></g></g><g id="g-root-1_1qclutf1tt1mva-fill" data-item-order="0" data-item-id="1_1qclutf1tt1mva" data-item-class="Icon Stroke SceneTarget Indexed Indexed_1 InsideFill" data-item-index="1" data-renderer-id="0" transform="translate(254, 85.99996948242188)"></g><g id="g-root-opti_4myb7n1tt1lhh-fill" data-item-order="0" data-item-id="opti_4myb7n1tt1lhh" data-item-class="Icon Stroke SceneTarget Indexed InsideFill" data-item-index="2" data-renderer-id="0" transform="translate(470, 85.99996948242188)"></g><g id="g-root-tx_pretrain_1qeha2r1tsytj5-fill" data-item-order="0" data-item-id="tx_pretrain_1qeha2r1tsytj5" data-item-class="Label Stroke SceneTarget Indexed Indexed_1 InsideFill" data-item-index="1" data-renderer-id="0" transform="translate(218, 157.99996948242188)"><g id="tx_pretrain_1qeha2r1tsytj5-fill" stroke="none" fill="#484848"><g><text style="font: 20px &quot;Shantell Sans&quot;, cursive; white-space: pre;"><tspan x="12" y="35" dominant-baseline="ideographic">Pre-trained </tspan><tspan x="36.14" y="59" dominant-baseline="ideographic">Model</tspan></text></g></g></g><g id="g-root-tx_optimalf_1uuas771tsysqw-fill" data-item-order="0" data-item-id="tx_optimalf_1uuas771tsysqw" data-item-class="Label Stroke SceneTarget Indexed InsideFill" data-item-index="2" data-renderer-id="0" transform="translate(422, 157.99996948242188)"><g id="tx_optimalf_1uuas771tsysqw-fill" stroke="none" fill="#484848"><g><text style="font: 20px &quot;Shantell Sans&quot;, cursive; white-space: pre;"><tspan x="16.88" y="35" dominant-baseline="ideographic">Optimal Fine-</tspan><tspan x="50.32" y="59" dominant-baseline="ideographic">Tuning</tspan></text></g></g></g><g id="g-root-tx_lowspeci_m7d3r71tt06ir-fill" data-item-order="0" data-item-id="tx_lowspeci_m7d3r71tt06ir" data-item-class="Label Stroke SceneTarget ColorFillGray ColorStrokeGray" data-item-index="none" data-renderer-id="0" transform="translate(2, 253.99996948242188)"><g id="tx_lowspeci_m7d3r71tt06ir-fill" stroke="none" fill="#888888"><g><text style="font: 15px &quot;Shantell Sans&quot;, cursive; white-space: pre;"><tspan x="17.31" y="31.75" dominant-baseline="ideographic">Low Specialization</tspan></text></g></g></g><g id="g-root-tx_highspec_qofk1v1tt07wl-fill" data-item-order="0" data-item-id="tx_highspec_qofk1v1tt07wl" data-item-class="Label Stroke SceneTarget ColorFillGray ColorStrokeGray" data-item-index="none" data-renderer-id="0" transform="translate(626, 253.99996948242188)"><g id="tx_highspec_qofk1v1tt07wl-fill" stroke="none" fill="#888888"><g><text style="font: 15px &quot;Shantell Sans&quot;, cursive; white-space: pre;"><tspan x="12" y="31.75" dominant-baseline="ideographic">High Specialization</tspan></text></g></g></g><g id="g-root-crac_92rtc31tt1kp8-fill" data-item-order="0" data-item-id="crac_92rtc31tt1kp8" data-item-class="Icon Stroke SceneTarget Indexed InsideFill" data-item-index="3" data-renderer-id="0" transform="translate(254, 301.9999694824219)"></g><g id="g-root-tree_59dtv1tt1n9f-fill" data-item-order="0" data-item-id="tree_59dtv1tt1n9f" data-item-class="Icon Stroke SceneTarget Indexed InsideFill" data-item-index="4" data-renderer-id="0" transform="translate(470, 301.9999694824219)"></g><g id="g-root-tx_ineffect_908cj1tsys5r-fill" data-item-order="0" data-item-id="tx_ineffect_908cj1tsys5r" data-item-class="Label Stroke SceneTarget Indexed InsideFill" data-item-index="3" data-renderer-id="0" transform="translate(194, 373.9999694824219)"><g id="tx_ineffect_908cj1tsys5r-fill" stroke="none" fill="#484848"><g><text style="font: 20px &quot;Shantell Sans&quot;, cursive; white-space: pre;"><tspan x="14.29" y="35" dominant-baseline="ideographic">Ineffective Fine-</tspan><tspan x="62.32" y="59" dominant-baseline="ideographic">Tuning</tspan></text></g></g></g><g id="g-root-tx_overfitt_dju9mr1tsytqm-fill" data-item-order="0" data-item-id="tx_overfitt_dju9mr1tsytqm" data-item-class="Label Stroke SceneTarget Indexed InsideFill" data-item-index="4" data-renderer-id="0" transform="translate(434, 373.9999694824219)"><g id="tx_overfitt_dju9mr1tsytqm-fill" stroke="none" fill="#484848"><g><text style="font: 20px &quot;Shantell Sans&quot;, cursive; white-space: pre;"><tspan x="17.43" y="35" dominant-baseline="ideographic">Overfitted </tspan><tspan x="36.14" y="59" dominant-baseline="ideographic">Model</tspan></text></g></g></g><g id="g-root-tx_lowgener_1haq3pf1tt07wk-fill" data-item-order="0" data-item-id="tx_lowgener_1haq3pf1tt07wk" data-item-class="Label Stroke SceneTarget ColorFillGray ColorStrokeGray" data-item-index="none" data-renderer-id="0" transform="translate(308.08349609375, 505.9999694824219)"><g id="tx_lowgener_1haq3pf1tt07wk-fill" stroke="none" fill="#888888"><g><text style="font: 15px &quot;Shantell Sans&quot;, cursive; white-space: pre;"><tspan x="17.09" y="31.75" dominant-baseline="ideographic">Low Generalization</tspan></text></g></g></g><g id="g-root-4.Vector_sy_dju9mr1tsytql-stroke" data-item-order="-207932" data-item-id="4.Vector_sy_dju9mr1tsytql" data-item-class="ScenePart Part Indexed Fill Stroke" data-item-index="4" data-renderer-id="0" transform="translate(399, 278.9999694824219)"><g id="4.Vector_sy_dju9mr1tsytql-stroke" fill="none" stroke-linecap="round" stroke-linejoin="round" stroke-miterlimit="4" stroke="#dd8433" stroke-width="2"><g><path d="M 21 10L 189 10C 195.075 10 200 14.925 200 21L 200 189C 200 195.075 195.075 200 189 200L 21 200C 14.925 200 10 195.075 10 189L 10 21C 10 14.925 14.925 10 21 10Z"></path></g></g></g><g id="g-root-3.Vector_sy_dju9mr1tsytqk-stroke" data-item-order="-207930" data-item-id="3.Vector_sy_dju9mr1tsytqk" data-item-class="ScenePart Part Indexed Fill Stroke" data-item-index="3" data-renderer-id="0" transform="translate(183, 278.9999694824219)"><g id="3.Vector_sy_dju9mr1tsytqk-stroke" fill="none" stroke-linecap="round" stroke-linejoin="round" stroke-miterlimit="4" stroke="#e15e5a" stroke-width="2"><g><path d="M 21 10L 189 10C 195.075 10 200 14.925 200 21L 200 189C 200 195.075 195.075 200 189 200L 21 200C 14.925 200 10 195.075 10 189L 10 21C 10 14.925 14.925 10 21 10Z"></path></g></g></g><g id="g-root-2.Vector_sy_dju9mr1tsytqj-stroke" data-item-order="-207928" data-item-id="2.Vector_sy_dju9mr1tsytqj" data-item-class="ScenePart Part Indexed Fill Stroke" data-item-index="2" data-renderer-id="0" transform="translate(399, 62.999969482421875)"><g id="2.Vector_sy_dju9mr1tsytqj-stroke" fill="none" stroke-linecap="round" stroke-linejoin="round" stroke-miterlimit="4" stroke="#3bc482" stroke-width="2"><g><path d="M 21 10L 189 10C 195.075 10 200 14.925 200 21L 200 189C 200 195.075 195.075 200 189 200L 21 200C 14.925 200 10 195.075 10 189L 10 21C 10 14.925 14.925 10 21 10Z"></path></g></g></g><g id="g-root-1.Vector_sy_mfh9vn1tsysxu-stroke" data-item-order="-207926" data-item-id="1.Vector_sy_mfh9vn1tsysxu" data-item-class="ScenePart Part Indexed Indexed_1 Fill Stroke" data-item-index="1" data-renderer-id="0" transform="translate(183, 62.999969482421875)"><g id="1.Vector_sy_mfh9vn1tsysxu-stroke" fill="none" stroke-linecap="round" stroke-linejoin="round" stroke-miterlimit="4" stroke="#4682e3" stroke-width="2"><g><path d="M 21 10L 189 10C 195.075 10 200 14.925 200 21L 200 189C 200 195.075 195.075 200 189 200L 21 200C 14.925 200 10 195.075 10 189L 10 21C 10 14.925 14.925 10 21 10Z"></path></g></g></g><g id="g-root-0.line_sy_qvas031tsys5g-stroke" data-item-order="-207923" data-item-id="0.line_sy_qvas031tsys5g" data-item-class="ScenePart Part Indexed_0 Stroke ColorFillGray ColorStrokeGray" data-item-index="0" data-renderer-id="0" transform="translate(158, 265.9999694824219)"><g id="0.line_sy_qvas031tsys5g-stroke" fill="none" stroke-linecap="round" stroke-linejoin="round" stroke-miterlimit="4" stroke="#A3A3A3" stroke-width="2"><g><path d="M 10 10L 238 10L 466 10"></path></g></g></g><g id="g-root-0.head_sy_qvas031tsys5h-stroke" data-item-order="-207921" data-item-id="0.head_sy_qvas031tsys5h" data-item-class="ScenePart Part Indexed_0 Stroke ColorFillGray ColorStrokeGray" data-item-index="0" data-renderer-id="0" transform="translate(158, 259.4999694824219)"><g id="0.head_sy_qvas031tsys5h-stroke" fill="none" stroke-linecap="round" stroke-linejoin="round" stroke-miterlimit="4" stroke="#A3A3A3" stroke-width="2"><g><path d="M 16.5 10C 14.333 12.167 10 16.5 10 16.5L 16.5 23"></path></g></g></g><g id="g-root-0.head_1_sy_qvas031tsys5i-stroke" data-item-order="-207919" data-item-id="0.head_1_sy_qvas031tsys5i" data-item-class="ScenePart Part Indexed_0 Stroke ColorFillGray ColorStrokeGray" data-item-index="0" data-renderer-id="0" transform="translate(607.5, 259.4999694824219)"><g id="0.head_1_sy_qvas031tsys5i-stroke" fill="none" stroke-linecap="round" stroke-linejoin="round" stroke-miterlimit="4" stroke="#A3A3A3" stroke-width="2"><g><path d="M 10 10C 12.166 12.167 16.5 16.5 16.5 16.5L 10 23"></path></g></g></g><g id="g-root-0.line_1_sy_qvas031tsys5j-stroke" data-item-order="-207917" data-item-id="0.line_1_sy_qvas031tsys5j" data-item-class="ScenePart Part Indexed_0 Stroke ColorFillGray ColorStrokeGray" data-item-index="0" data-renderer-id="0" transform="translate(386, 37.999969482421875)"><g id="0.line_1_sy_qvas031tsys5j-stroke" fill="none" stroke-linecap="round" stroke-linejoin="round" stroke-miterlimit="4" stroke="#A3A3A3" stroke-width="2"><g><path d="M 10 466L 10 242L 10 10"></path></g></g></g><g id="g-root-0.head_2_sy_mfh9vn1tsysxs-stroke" data-item-order="-207915" data-item-id="0.head_2_sy_mfh9vn1tsysxs" data-item-class="ScenePart Part Indexed_0 Stroke ColorFillGray ColorStrokeGray" data-item-index="0" data-renderer-id="0" transform="translate(379.5, 487.4999694824219)"><g id="0.head_2_sy_mfh9vn1tsysxs-stroke" fill="none" stroke-linecap="round" stroke-linejoin="round" stroke-miterlimit="4" stroke="#A3A3A3" stroke-width="2"><g><path d="M 10 10C 12.167 12.167 16.5 16.5 16.5 16.5L 23 10"></path></g></g></g><g id="g-root-0.head_3_sy_mfh9vn1tsysxt-stroke" data-item-order="-207913" data-item-id="0.head_3_sy_mfh9vn1tsysxt" data-item-class="ScenePart Part Indexed_0 Stroke ColorFillGray ColorStrokeGray" data-item-index="0" data-renderer-id="0" transform="translate(379.5, 37.999969482421875)"><g id="0.head_3_sy_mfh9vn1tsysxt-stroke" fill="none" stroke-linecap="round" stroke-linejoin="round" stroke-miterlimit="4" stroke="#A3A3A3" stroke-width="2"><g><path d="M 10 16.5C 12.167 14.333 16.5 10 16.5 10L 23 16.5"></path></g></g></g><g id="g-root-tx_highgene_4hyiir1tt074e-stroke" data-item-order="0" data-item-id="tx_highgene_4hyiir1tt074e" data-item-class="Label Stroke SceneTarget ColorFillGray ColorStrokeGray" data-item-index="none" data-renderer-id="0" transform="translate(308, 2)"></g><g id="g-root-1_1qclutf1tt1mva-stroke" data-item-order="0" data-item-id="1_1qclutf1tt1mva" data-item-class="Icon Stroke SceneTarget Indexed Indexed_1 InsideFill" data-item-index="1" data-renderer-id="0" transform="translate(254, 85.99996948242188)"><g id="1_1qclutf1tt1mva-stroke" fill="none" stroke-linecap="round" stroke-linejoin="round" stroke-miterlimit="4" stroke="#4682e3" stroke-width="2"><g><path d="M 21.9 50.722C 24.020437 50.369061 25.810703 48.951202 26.639999 46.967999M 14.842 27.091999C 18.933346 27.809448 22.448338 30.41087 24.33 34.113998M 21.566 30.458L 25.152 27.768M 30 11.346C 29.961555 13.350931 29.599562 15.336494 28.928001 17.226M 26 19C 26 20.104568 26.89543 21 28 21C 29.10457 21 30 20.104568 30 19C 30 17.895432 29.10457 17 28 17C 26.89543 17 26 17.895432 26 19ZM 38 23C 38 24.104568 38.895432 25 40 25C 41.104568 25 42 24.104568 42 23C 42 21.895432 41.104568 21 40 21C 38.895432 21 38 21.895432 38 23ZM 45 31C 45 32.104568 45.895432 33 47 33C 48.104568 33 49 32.104568 49 31C 49 29.89543 48.104568 29 47 29C 45.895432 29 45 29.89543 45 31ZM 38 38C 38 39.104568 38.895432 40 40 40C 41.104568 40 42 39.104568 42 38C 42 36.895432 41.104568 36 40 36C 38.895432 36 38 36.895432 38 38ZM 25 27C 25 28.10457 25.895432 29 27 29C 28.10457 29 29 28.10457 29 27C 29 25.895432 28.10457 25 27 25C 25.895432 25 25 25.895432 25 27ZM 23 36C 23 37.104568 23.895432 38 25 38C 26.10457 38 27 37.104568 27 36C 27 34.895432 26.10457 34 25 34C 23.895432 34 23 34.895432 23 36ZM 57 34C 57.008011 31.185829 55.553005 28.569696 53.158001 27.092001C 53.293533 26.501471 53.363956 25.897869 53.368 25.292C 53.408073 21.133251 50.242878 17.643175 46.099998 17.278C 46.141312 15.640398 45.524818 14.054508 44.388306 12.874773C 43.251789 11.695037 41.690002 11.019809 40.052002 11C 37.462227 11.148269 35.151451 12.67555 34 15C 32.848549 12.67555 30.537773 11.148269 27.948 11C 26.309998 11.019809 24.748211 11.695037 23.611694 12.874773C 22.47518 14.054508 21.858686 15.640398 21.9 17.278C 17.755573 17.643291 14.589825 21.135719 14.632 25.296C 14.632763 25.901501 14.699829 26.505098 14.832 27.095999C 12.44329 28.57963 10.990566 31.192043 10.990566 34.003998C 10.990566 36.815956 12.44329 39.428368 14.832 40.911999C 14.699829 41.502899 14.632763 42.106499 14.632 42.711998C 14.594027 46.869217 17.758669 50.356941 21.9 50.722C 21.858686 52.3596 22.47518 53.945492 23.611694 55.125225C 24.748211 56.304962 26.309998 56.98019 27.948 57C 30.33633 57.057899 32.59996 55.93581 34 53.999996C 35.40004 55.93581 37.663666 57.057899 40.051998 56.999996C 41.690002 56.98019 43.251789 56.304962 44.388306 55.125225C 45.524818 53.945492 46.141312 52.3596 46.099998 50.722C 50.244423 50.356709 53.410175 46.864277 53.368 42.703999C 53.363956 42.098129 53.293533 41.49453 53.157997 40.903999C 55.551788 39.427048 57.006618 36.812752 57 34ZM 34 15L 34 38M 34 45.916L 34 54M 52.346001 21.326L 46.799999 24.102001C 45.179813 24.913155 43.276203 24.932337 41.639999 24.153999M 40 36C 40.593044 33.525269 42.525269 31.593044 45.000004 31.000002M 46.099998 50.722C 45.548 48.799999 44.605999 47.321999 43 47M 25 45C 25 46.104568 25.895432 47 27 47C 28.10457 47 29 46.104568 29 45C 29 43.895432 28.10457 43 27 43C 25.895432 43 25 43.895432 25 45ZM 39 47C 39 48.104568 39.895432 49 41 49C 42.104568 49 43 48.104568 43 47C 43 45.895432 42.104568 45 41 45C 39.895432 45 39 45.895432 39 47Z"></path></g></g></g><g id="g-root-opti_4myb7n1tt1lhh-stroke" data-item-order="0" data-item-id="opti_4myb7n1tt1lhh" data-item-class="Icon Stroke SceneTarget Indexed InsideFill" data-item-index="2" data-renderer-id="0" transform="translate(470, 85.99996948242188)"><g id="opti_4myb7n1tt1lhh-stroke" fill="none" stroke-linecap="round" stroke-linejoin="round" stroke-miterlimit="4" stroke="#3bc482" stroke-width="2"><g><path d="M 34 28.379999L 16.619999 28.379999C 13.516213 28.380075 11.000137 30.896214 11.000137 34C 11.000137 37.103786 13.516213 39.619926 16.619999 39.619999L 28.379999 39.620003L 28.379999 51.380001C 28.380075 54.483788 30.896214 56.999863 34 56.999863C 37.103786 56.999863 39.619926 54.483788 39.619999 51.379997L 39.620003 34C 39.619999 30.89616 37.10384 28.379999 34 28.379999ZM 51.380001 11L 34 11C 30.896214 11.000075 28.380136 13.516213 28.380136 16.619999C 28.380136 19.723785 30.896214 22.239925 34 22.24L 45.759998 22.24L 45.759998 34C 45.759922 37.103893 48.276104 39.620136 51.379997 39.620136C 54.483894 39.620136 57.000076 37.103893 57 34L 57 16.619999C 57 13.516159 54.483841 11 51.379997 11ZM 11 34C 10.999924 37.103893 13.516106 39.620136 16.619999 39.620136C 19.723894 39.620136 22.240074 37.103893 22.24 34C 22.240074 30.896105 19.723894 28.379862 16.619999 28.379862C 13.516106 28.379862 10.999924 30.896105 11 34"></path></g></g></g><g id="g-root-tx_pretrain_1qeha2r1tsytj5-stroke" data-item-order="0" data-item-id="tx_pretrain_1qeha2r1tsytj5" data-item-class="Label Stroke SceneTarget Indexed Indexed_1 InsideFill" data-item-index="1" data-renderer-id="0" transform="translate(218, 157.99996948242188)"></g><g id="g-root-tx_optimalf_1uuas771tsysqw-stroke" data-item-order="0" data-item-id="tx_optimalf_1uuas771tsysqw" data-item-class="Label Stroke SceneTarget Indexed InsideFill" data-item-index="2" data-renderer-id="0" transform="translate(422, 157.99996948242188)"></g><g id="g-root-tx_lowspeci_m7d3r71tt06ir-stroke" data-item-order="0" data-item-id="tx_lowspeci_m7d3r71tt06ir" data-item-class="Label Stroke SceneTarget ColorFillGray ColorStrokeGray" data-item-index="none" data-renderer-id="0" transform="translate(2, 253.99996948242188)"></g><g id="g-root-tx_highspec_qofk1v1tt07wl-stroke" data-item-order="0" data-item-id="tx_highspec_qofk1v1tt07wl" data-item-class="Label Stroke SceneTarget ColorFillGray ColorStrokeGray" data-item-index="none" data-renderer-id="0" transform="translate(626, 253.99996948242188)"></g><g id="g-root-crac_92rtc31tt1kp8-stroke" data-item-order="0" data-item-id="crac_92rtc31tt1kp8" data-item-class="Icon Stroke SceneTarget Indexed InsideFill" data-item-index="3" data-renderer-id="0" transform="translate(254, 301.9999694824219)"><g id="crac_92rtc31tt1kp8-stroke" fill="none" stroke-linecap="round" stroke-linejoin="round" stroke-miterlimit="4" stroke="#e15e5a" stroke-width="2"><g><path d="M 34 41L 34 57M 26 57L 42 57M 21.889999 11.876C 21.952524 11.375663 22.377771 11.000142 22.882 11L 45.118 11C 45.625275 10.996087 46.055111 11.372623 46.118 11.876L 48 27C 48 34.731987 41.731987 41 34 41C 26.268015 41 20 34.731987 20 27ZM 38 11L 29.708 19.292C 29.421505 19.57777 29.335472 20.008036 29.490051 20.382C 29.644629 20.755966 30.009346 20.999914 30.414 21L 35.585999 21C 35.990654 21.000086 36.35537 21.244034 36.509949 21.618C 36.664528 21.991964 36.578495 22.42223 36.292 22.708L 28 31"></path></g></g></g><g id="g-root-tree_59dtv1tt1n9f-stroke" data-item-order="0" data-item-id="tree_59dtv1tt1n9f" data-item-class="Icon Stroke SceneTarget Indexed InsideFill" data-item-index="4" data-renderer-id="0" transform="translate(470, 301.9999694824219)"><g id="tree_59dtv1tt1n9f-stroke" fill="none" stroke-linecap="round" stroke-linejoin="round" stroke-miterlimit="4" stroke="#dd8433" stroke-width="2"><g><path d="M 37.82 33.556C 38.317535 34.038467 39.039787 34.208817 39.700485 33.999527C 40.361176 33.790237 40.853619 33.235107 40.98262 32.554169C 41.111626 31.873232 40.856358 31.176449 40.318001 30.74L 34 23.762001L 27.694 30.761999C 26.920612 31.459494 26.859177 32.651909 27.556787 33.425194C 28.254398 34.198471 29.446823 34.259727 30.219999 33.562L 24.9 39.970001C 24.173565 40.715553 24.189152 41.908867 24.934811 42.635193C 25.680471 43.361519 26.873779 43.345764 27.6 42.599998L 23.557999 47.764C 23.018421 48.302109 22.856144 49.112278 23.146841 49.816692C 23.437538 50.521111 24.123959 50.981037 24.886 50.981998L 43.118 50.981998C 43.880417 50.97876 44.566059 50.517277 44.856064 49.812164C 45.146072 49.107048 44.983517 48.296711 44.444 47.757999L 40.332001 42.630001C 41.07151 43.362331 42.264671 43.35651 42.997002 42.617001C 43.729332 41.877491 43.723511 40.68433 42.984001 39.952ZM 37 50.986L 37 56.986M 31 50.986L 31 56.986M 21.576 17.482C 21.907877 17.781975 22.375267 17.880653 22.800079 17.740437C 23.224895 17.60022 23.541706 17.242701 23.629807 16.804104C 23.717903 16.365509 23.563719 15.913383 23.226 15.62L 19 11.014L 14.738 15.614C 14.390764 15.906986 14.230868 16.365967 14.320899 16.811283C 14.41093 17.256601 14.736567 17.61742 15.170345 17.752508C 15.604126 17.887596 16.077049 17.775461 16.403999 17.459999L 13.046 21.716C 12.716121 22.029743 12.583971 22.498623 12.70146 22.938454C 12.81895 23.378284 13.16731 23.718807 13.6097 23.826262C 14.052091 23.933714 14.517841 23.790932 14.823999 23.453999L 12.158 26.854C 11.802173 27.209536 11.695473 27.744371 11.887632 28.20923C 12.079792 28.674091 12.53299 28.977482 13.035999 28.977999L 24.966 28.978001C 25.46653 28.974285 25.916084 28.670938 26.106863 28.208178C 26.297644 27.745415 26.192488 27.213383 25.84 26.858L 23.24 23.473999C 23.730497 23.943127 24.5065 23.932503 24.983971 23.450123C 25.461439 22.967741 25.464123 22.191669 24.99 21.705999ZM 19 28.986L 19 32.014M 51.576 17.482C 51.907875 17.781975 52.375263 17.880653 52.800079 17.740437C 53.224892 17.60022 53.541706 17.242701 53.629803 16.804104C 53.717903 16.365509 53.563717 15.913383 53.225998 15.62L 49 11.014L 44.737999 15.614C 44.390762 15.906986 44.230865 16.365967 44.320896 16.811283C 44.410927 17.256601 44.736565 17.61742 45.170345 17.752508C 45.604126 17.887596 46.077049 17.775461 46.403999 17.459999L 43.046001 21.716C 42.716122 22.029743 42.583969 22.498623 42.701458 22.938454C 42.818947 23.378284 43.167309 23.718807 43.609699 23.826262C 44.05209 23.933714 44.517841 23.790932 44.823997 23.453999L 42.158001 26.854C 41.80217 27.209536 41.695473 27.744371 41.88763 28.20923C 42.079792 28.674091 42.53299 28.977482 43.035999 28.977999L 54.966 28.978001C 55.470043 28.977489 55.923965 28.672873 56.115463 28.206619C 56.306961 27.740366 56.198181 27.204639 55.84 26.849998L 53.240002 23.466C 53.730495 23.935127 54.506496 23.924503 54.983967 23.442123C 55.461437 22.95974 55.464123 22.18367 54.989998 21.698ZM 49 28.986L 49 32.014"></path></g></g></g><g id="g-root-tx_ineffect_908cj1tsys5r-stroke" data-item-order="0" data-item-id="tx_ineffect_908cj1tsys5r" data-item-class="Label Stroke SceneTarget Indexed InsideFill" data-item-index="3" data-renderer-id="0" transform="translate(194, 373.9999694824219)"></g><g id="g-root-tx_overfitt_dju9mr1tsytqm-stroke" data-item-order="0" data-item-id="tx_overfitt_dju9mr1tsytqm" data-item-class="Label Stroke SceneTarget Indexed InsideFill" data-item-index="4" data-renderer-id="0" transform="translate(434, 373.9999694824219)"></g><g id="g-root-tx_lowgener_1haq3pf1tt07wk-stroke" data-item-order="0" data-item-id="tx_lowgener_1haq3pf1tt07wk" data-item-class="Label Stroke SceneTarget ColorFillGray ColorStrokeGray" data-item-index="none" data-renderer-id="0" transform="translate(308.08349609375, 505.9999694824219)"></g></g></g></svg>