<?xml version="1.0" encoding="utf-8" standalone="yes"?>
<!DOCTYPE svg PUBLIC "-//W3C//DTD SVG 1.1//EN" "http://www.w3.org/Graphics/SVG/1.1/DTD/svg11.dtd">
<svg width="698" height="461" viewBox="0 0 698 461" style="fill:none;stroke:none;fill-rule:evenodd;clip-rule:evenodd;stroke-linecap:round;stroke-linejoin:round;stroke-miterlimit:1.5;" version="1.1" xmlns="http://www.w3.org/2000/svg" xmlns:xlink="http://www.w3.org/1999/xlink"><style id="fontImports">@import url("https://fonts.googleapis.com/css2?family=Shantell+Sans:wght@300..800&amp;display=block");</style><rect id="" x="0" y="0" width="698" height="460.915" style="fill: #ffffff;"></rect><g id="items" style="isolation: isolate"><g id="blend" style="mix-blend-mode:multiply"><g id="g-root-5.cr-small_cr_v8mh041u2pybw-fill" data-item-order="-147187" data-item-id="5.cr-small_cr_v8mh041u2pybw" data-item-class="Shape Stroke Fill ScenePart Part Indexed" data-item-index="5" data-renderer-id="0" transform="translate(235.25201416015625, 3)"><g id="5.cr-small_cr_v8mh041u2pybw-fill" stroke="none" fill="#fde6cf"><g><path d="M 10 46C 10 65.882251 26.117749 82 46 82C 65.882251 82 82 65.882251 82 46C 82 26.117749 65.882251 10 46 10C 26.117749 10 10 26.117749 10 46"></path></g></g></g><g id="g-root-4.cr-small_cr_1449h901u2pxj7-fill" data-item-order="-147185" data-item-id="4.cr-small_cr_1449h901u2pxj7" data-item-class="Shape Stroke Fill ScenePart Part Indexed" data-item-index="4" data-renderer-id="0" transform="translate(174.2230224609375, 190.83001708984375)"><g id="4.cr-small_cr_1449h901u2pxj7-fill" stroke="none" fill="#cef3ff"><g><path d="M 10 46C 10 65.882251 26.117749 82 46 82C 65.882251 82 82 65.882251 82 46C 82 26.117749 65.882251 10 46 10C 26.117749 10 10 26.117749 10 46"></path></g></g></g><g id="g-root-3.cr-small_cr_1449h901u2pxj6-fill" data-item-order="-147183" data-item-id="3.cr-small_cr_1449h901u2pxj6" data-item-class="Shape Stroke Fill ScenePart Part Indexed" data-item-index="3" data-renderer-id="0" transform="translate(334.04998779296875, 306.91497802734375)"><g id="3.cr-small_cr_1449h901u2pxj6-fill" stroke="none" fill="#ffd0ce"><g><path d="M 10 46C 10 65.882251 26.117749 82 46 82C 65.882251 82 82 65.882251 82 46C 82 26.117749 65.882251 10 46 10C 26.117749 10 10 26.117749 10 46"></path></g></g></g><g id="g-root-2.cr-small_cr_1449h901u2pxj5-fill" data-item-order="-147181" data-item-id="2.cr-small_cr_1449h901u2pxj5" data-item-class="Shape Stroke Fill ScenePart Part Indexed" data-item-index="2" data-renderer-id="0" transform="translate(493.7769775390625, 190.83001708984375)"><g id="2.cr-small_cr_1449h901u2pxj5-fill" stroke="none" fill="#d5f7e8"><g><path d="M 10 46C 10 65.882251 26.117749 82 46 82C 65.882251 82 82 65.882251 82 46C 82 26.117749 65.882251 10 46 10C 26.117749 10 10 26.117749 10 46"></path></g></g></g><g id="g-root-1.cr-small_cr_1449h901u2pxj4-fill" data-item-order="-147179" data-item-id="1.cr-small_cr_1449h901u2pxj4" data-item-class="Shape Stroke Fill ScenePart Part Indexed Indexed_1" data-item-index="1" data-renderer-id="0" transform="translate(432.74798583984375, 3)"><g id="1.cr-small_cr_1449h901u2pxj4-fill" stroke="none" fill="#fff9ce"><g><path d="M 10 46C 10 65.882251 26.117749 82 46 82C 65.882251 82 82 65.882251 82 46C 82 26.117749 65.882251 10 46 10C 26.117749 10 10 26.117749 10 46"></path></g></g></g><g id="g-root-0.Vector_sy_1cza0es1u2pz4e-fill" data-item-order="-147177" data-item-id="0.Vector_sy_1cza0es1u2pz4e" data-item-class="ScenePart Part Indexed_0 Fill Stroke ColorFillGray ColorStrokeBlack" data-item-index="0" data-renderer-id="0" transform="translate(298, 102.91094970703125)"><g id="0.Vector_sy_1cza0es1u2pz4e-fill" stroke="none" fill="#eaeaea"><g><path d="M 154 81.999998C 154 42.235998 121.765 9.999998 82 9.999998L 82 9.999998C 42.236 9.999998 10 42.235998 10 81.999998L 10 81.999998C 10 121.764998 42.236 153.999998 82 153.999998L 82 153.999998C 121.764 153.999998 154 121.764998 154 81.999998L 154 81.999998Z"></path></g></g></g><g id="g-root-0.Union_sy_18jgiac1u2pzwn-fill" data-item-order="-147175" data-item-id="0.Union_sy_18jgiac1u2pzwn" data-item-class="ScenePart Part Indexed_0 Fill Stroke ColorFillGray ColorStrokeBlack" data-item-index="0" data-renderer-id="0" transform="translate(263.4670104980469, 84.1829833984375)"><g id="0.Union_sy_18jgiac1u2pzwn-fill" stroke="none" fill="#eaeaea"><g><path d="M 48.54399 28.875995L 50.76499 9.999995L 69.40399 13.719995L 63.59799 17.937995L 79.06999 39.233995C 89.98399 32.570995 102.80999 28.731995 116.53299 28.731995C 130.29799 28.731995 143.16099 32.594995 154.09599 39.294995L 169.59699 17.959995L 163.84899 13.782995L 182.48799 10.062995L 184.70999 28.938995L 178.90399 24.720995L 163.39499 46.067995C 178.78399 59.272995 188.53299 78.863995 188.53299 100.731995C 188.53299 106.469995 187.86199 112.050995 186.59399 117.400995L 211.63899 125.538995L 213.83499 118.781995L 223.13299 135.358995L 205.86699 143.304995L 208.08499 136.479995L 183.04799 128.344995C 172.91999 152.713995 149.78999 170.318995 122.31699 172.502995L 122.31699 198.766995L 129.42199 198.766995L 116.52899 212.731995L 103.63699 198.766995L 110.81299 198.766995L 110.81299 172.507995C 83.30999 170.346995 60.15099 152.729995 50.01599 128.339995L 25.07099 136.444995L 27.26599 143.201995L 9.99999 135.255995L 19.29799 118.678995L 21.51599 125.504995L 46.47099 117.395995C 45.20399 112.046995 44.53299 106.467995 44.53299 100.731995C 44.53299 78.820995 54.31999 59.196995 69.76099 45.990995L 54.29199 24.699995L 48.54399 28.875995Z"></path></g></g></g><g id="g-root-tx_customer_v8mh041u2pybx-fill" data-item-order="0" data-item-id="tx_customer_v8mh041u2pybx" data-item-class="Label Stroke SceneTarget Indexed ColorStrokeBlack" data-item-index="5" data-renderer-id="0" transform="translate(130, 6.91497802734375)"><g id="tx_customer_v8mh041u2pybx-fill" stroke="none" fill="#484848"><g><text style="font: 20px &quot;Shantell Sans&quot;, cursive; white-space: pre;"><tspan x="13.73" y="35" dominant-baseline="ideographic">Customer </tspan><tspan x="35.8" y="59" dominant-baseline="ideographic">Service</tspan></text></g></g></g><g id="g-root-3_1cza0es1u2yeiq-fill" data-item-order="0" data-item-id="3_1cza0es1u2yeiq" data-item-class="Icon Stroke SceneTarget Indexed InsideFill" data-item-index="5" data-renderer-id="0" transform="translate(247.25201416015625, 15)"></g><g id="g-root-squa_1hf3ij81u2ydqh-fill" data-item-order="0" data-item-id="squa_1hf3ij81u2ydqh" data-item-class="Icon Stroke SceneTarget Indexed Indexed_1 InsideFill" data-item-index="1" data-renderer-id="0" transform="translate(444.74798583984375, 15)"></g><g id="g-root-tx_language_925fh01u2pybl-fill" data-item-order="0" data-item-id="tx_language_925fh01u2pybl" data-item-class="Label Stroke SceneTarget Indexed Indexed_1 ColorStrokeBlack" data-item-index="1" data-renderer-id="0" transform="translate(514, 6.91497802734375)"><g id="tx_language_925fh01u2pybl-fill" stroke="none" fill="#484848"><g><text style="font: 20px &quot;Shantell Sans&quot;, cursive; white-space: pre;"><tspan x="12" y="35" dominant-baseline="ideographic">Language </tspan><tspan x="12" y="59" dominant-baseline="ideographic">Generation</tspan></text></g></g></g><g id="g-root-huma_90a07o1u2ydxi-fill" data-item-order="0" data-item-id="huma_90a07o1u2ydxi" data-item-class="Icon Stroke SceneTarget SceneStart InsideFill InsideGrayFill ColorStrokeBlack" data-item-index="none" data-renderer-id="0" transform="translate(334, 138.91094970703125)"></g><g id="g-root-hamm_143n05w1u2yfbf-fill" data-item-order="0" data-item-id="hamm_143n05w1u2yfbf" data-item-class="Icon Stroke SceneTarget Indexed InsideFill" data-item-index="4" data-renderer-id="0" transform="translate(186.2230224609375, 202.83001708984375)"></g><g id="g-root-1_1upxjtg1u2yfbc-fill" data-item-order="0" data-item-id="1_1upxjtg1u2yfbc" data-item-class="Icon Stroke SceneTarget Indexed InsideFill" data-item-index="2" data-renderer-id="0" transform="translate(505.77801513671875, 202.83001708984375)"></g><g id="g-root-tx_legalres_hx5yms1u2pzwu-fill" data-item-order="0" data-item-id="tx_legalres_hx5yms1u2pzwu" data-item-class="Label Stroke SceneTarget Indexed ColorStrokeBlack" data-item-index="4" data-renderer-id="0" transform="translate(2, 222.91497802734375)"><g id="tx_legalres_hx5yms1u2pzwu-fill" stroke="none" fill="#484848"><g><text style="font: 20px &quot;Shantell Sans&quot;, cursive; white-space: pre;"><tspan x="17.13" y="35" dominant-baseline="ideographic">Legal Research</tspan></text></g></g></g><g id="g-root-tx_imagesyn_925fh01u2pybk-fill" data-item-order="0" data-item-id="tx_imagesyn_925fh01u2pybk" data-item-class="Label Stroke SceneTarget Indexed ColorStrokeBlack" data-item-index="2" data-renderer-id="0" transform="translate(580, 210.91497802734375)"><g id="tx_imagesyn_925fh01u2pybk-fill" stroke="none" fill="#484848"><g><text style="font: 20px &quot;Shantell Sans&quot;, cursive; white-space: pre;"><tspan x="12" y="35" dominant-baseline="ideographic">Image </tspan><tspan x="12" y="59" dominant-baseline="ideographic">Synthesis</tspan></text></g></g></g><g id="g-root-rate_1lqj99g1r18gef-fill" data-item-order="0" data-item-id="rate_1lqj99g1r18gef" data-item-class="Icon Stroke SceneTarget Indexed InsideFill" data-item-index="3" data-renderer-id="0" transform="translate(346, 318.91497802734375)"></g><g id="g-root-tx_healthca_dhyxlg1u2pxjb-fill" data-item-order="0" data-item-id="tx_healthca_dhyxlg1u2pxjb" data-item-class="Label Stroke SceneTarget Indexed ColorStrokeBlack" data-item-index="3" data-renderer-id="0" transform="translate(304, 390.91497802734375)"><g id="tx_healthca_dhyxlg1u2pxjb-fill" stroke="none" fill="#484848"><g><text style="font: 20px &quot;Shantell Sans&quot;, cursive; white-space: pre;"><tspan x="22.68" y="35" dominant-baseline="ideographic">Healthcare </tspan><tspan x="16.64" y="59" dominant-baseline="ideographic">Applications</tspan></text></g></g></g><g id="g-root-5.cr-small_cr_v8mh041u2pybw-stroke" data-item-order="-147187" data-item-id="5.cr-small_cr_v8mh041u2pybw" data-item-class="Shape Stroke Fill ScenePart Part Indexed" data-item-index="5" data-renderer-id="0" transform="translate(235.25201416015625, 3)"><g id="5.cr-small_cr_v8mh041u2pybw-stroke" fill="none" stroke-linecap="round" stroke-linejoin="round" stroke-miterlimit="4" stroke="#dd8433" stroke-width="2"><g><path d="M 10 46C 10 65.882251 26.117749 82 46 82C 65.882251 82 82 65.882251 82 46C 82 26.117749 65.882251 10 46 10C 26.117749 10 10 26.117749 10 46"></path></g></g></g><g id="g-root-4.cr-small_cr_1449h901u2pxj7-stroke" data-item-order="-147185" data-item-id="4.cr-small_cr_1449h901u2pxj7" data-item-class="Shape Stroke Fill ScenePart Part Indexed" data-item-index="4" data-renderer-id="0" transform="translate(174.2230224609375, 190.83001708984375)"><g id="4.cr-small_cr_1449h901u2pxj7-stroke" fill="none" stroke-linecap="round" stroke-linejoin="round" stroke-miterlimit="4" stroke="#17b0e3" stroke-width="2"><g><path d="M 10 46C 10 65.882251 26.117749 82 46 82C 65.882251 82 82 65.882251 82 46C 82 26.117749 65.882251 10 46 10C 26.117749 10 10 26.117749 10 46"></path></g></g></g><g id="g-root-3.cr-small_cr_1449h901u2pxj6-stroke" data-item-order="-147183" data-item-id="3.cr-small_cr_1449h901u2pxj6" data-item-class="Shape Stroke Fill ScenePart Part Indexed" data-item-index="3" data-renderer-id="0" transform="translate(334.04998779296875, 306.91497802734375)"><g id="3.cr-small_cr_1449h901u2pxj6-stroke" fill="none" stroke-linecap="round" stroke-linejoin="round" stroke-miterlimit="4" stroke="#e15e5a" stroke-width="2"><g><path d="M 10 46C 10 65.882251 26.117749 82 46 82C 65.882251 82 82 65.882251 82 46C 82 26.117749 65.882251 10 46 10C 26.117749 10 10 26.117749 10 46"></path></g></g></g><g id="g-root-2.cr-small_cr_1449h901u2pxj5-stroke" data-item-order="-147181" data-item-id="2.cr-small_cr_1449h901u2pxj5" data-item-class="Shape Stroke Fill ScenePart Part Indexed" data-item-index="2" data-renderer-id="0" transform="translate(493.7769775390625, 190.83001708984375)"><g id="2.cr-small_cr_1449h901u2pxj5-stroke" fill="none" stroke-linecap="round" stroke-linejoin="round" stroke-miterlimit="4" stroke="#3bc482" stroke-width="2"><g><path d="M 10 46C 10 65.882251 26.117749 82 46 82C 65.882251 82 82 65.882251 82 46C 82 26.117749 65.882251 10 46 10C 26.117749 10 10 26.117749 10 46"></path></g></g></g><g id="g-root-1.cr-small_cr_1449h901u2pxj4-stroke" data-item-order="-147179" data-item-id="1.cr-small_cr_1449h901u2pxj4" data-item-class="Shape Stroke Fill ScenePart Part Indexed Indexed_1" data-item-index="1" data-renderer-id="0" transform="translate(432.74798583984375, 3)"><g id="1.cr-small_cr_1449h901u2pxj4-stroke" fill="none" stroke-linecap="round" stroke-linejoin="round" stroke-miterlimit="4" stroke="#e3cd09" stroke-width="2"><g><path d="M 10 46C 10 65.882251 26.117749 82 46 82C 65.882251 82 82 65.882251 82 46C 82 26.117749 65.882251 10 46 10C 26.117749 10 10 26.117749 10 46"></path></g></g></g><g id="g-root-0.Vector_sy_1cza0es1u2pz4e-stroke" data-item-order="-147177" data-item-id="0.Vector_sy_1cza0es1u2pz4e" data-item-class="ScenePart Part Indexed_0 Fill Stroke ColorFillGray ColorStrokeBlack" data-item-index="0" data-renderer-id="0" transform="translate(298, 102.91094970703125)"><g id="0.Vector_sy_1cza0es1u2pz4e-stroke" fill="none" stroke-linecap="round" stroke-linejoin="round" stroke-miterlimit="4" stroke="#2c2c2c" stroke-width="2"><g><path d="M 154 81.999998C 154 42.235998 121.765 9.999998 82 9.999998L 82 9.999998C 42.236 9.999998 10 42.235998 10 81.999998L 10 81.999998C 10 121.764998 42.236 153.999998 82 153.999998L 82 153.999998C 121.764 153.999998 154 121.764998 154 81.999998L 154 81.999998Z"></path></g></g></g><g id="g-root-0.Union_sy_18jgiac1u2pzwn-stroke" data-item-order="-147175" data-item-id="0.Union_sy_18jgiac1u2pzwn" data-item-class="ScenePart Part Indexed_0 Fill Stroke ColorFillGray ColorStrokeBlack" data-item-index="0" data-renderer-id="0" transform="translate(263.4670104980469, 84.1829833984375)"><g id="0.Union_sy_18jgiac1u2pzwn-stroke" fill="none" stroke-linecap="round" stroke-linejoin="round" stroke-miterlimit="4" stroke="#2c2c2c" stroke-width="2"><g><path d="M 48.54399 28.875995L 50.76499 9.999995L 69.40399 13.719995L 63.59799 17.937995L 79.06999 39.233995C 89.98399 32.570995 102.80999 28.731995 116.53299 28.731995C 130.29799 28.731995 143.16099 32.594995 154.09599 39.294995L 169.59699 17.959995L 163.84899 13.782995L 182.48799 10.062995L 184.70999 28.938995L 178.90399 24.720995L 163.39499 46.067995C 178.78399 59.272995 188.53299 78.863995 188.53299 100.731995C 188.53299 106.469995 187.86199 112.050995 186.59399 117.400995L 211.63899 125.538995L 213.83499 118.781995L 223.13299 135.358995L 205.86699 143.304995L 208.08499 136.479995L 183.04799 128.344995C 172.91999 152.713995 149.78999 170.318995 122.31699 172.502995L 122.31699 198.766995L 129.42199 198.766995L 116.52899 212.731995L 103.63699 198.766995L 110.81299 198.766995L 110.81299 172.507995C 83.30999 170.346995 60.15099 152.729995 50.01599 128.339995L 25.07099 136.444995L 27.26599 143.201995L 9.99999 135.255995L 19.29799 118.678995L 21.51599 125.504995L 46.47099 117.395995C 45.20399 112.046995 44.53299 106.467995 44.53299 100.731995C 44.53299 78.820995 54.31999 59.196995 69.76099 45.990995L 54.29199 24.699995L 48.54399 28.875995Z"></path></g></g></g><g id="g-root-tx_customer_v8mh041u2pybx-stroke" data-item-order="0" data-item-id="tx_customer_v8mh041u2pybx" data-item-class="Label Stroke SceneTarget Indexed ColorStrokeBlack" data-item-index="5" data-renderer-id="0" transform="translate(130, 6.91497802734375)"></g><g id="g-root-3_1cza0es1u2yeiq-stroke" data-item-order="0" data-item-id="3_1cza0es1u2yeiq" data-item-class="Icon Stroke SceneTarget Indexed InsideFill" data-item-index="5" data-renderer-id="0" transform="translate(247.25201416015625, 15)"><g id="3_1cza0es1u2yeiq-stroke" fill="none" stroke-linecap="round" stroke-linejoin="round" stroke-miterlimit="4" stroke="#dd8433" stroke-width="2"><g><path d="M 18.845715 30.571428L 18.845715 26.285715C 19.014477 18.080605 25.794582 11.561272 34 11.714286L 34 11.714286C 42.205421 11.561272 48.985527 18.080605 49.154285 26.285715L 49.154285 30.571428M 15.142858 30.571428L 20.285715 30.571428C 21.232489 30.571428 22 31.33894 22 32.285713L 22 41.714287C 22 42.66106 21.232489 43.428574 20.285715 43.428574L 15.142858 43.428574C 13.24931 43.428574 11.714286 41.893551 11.714286 40L 11.714286 34C 11.714286 32.106453 13.24931 30.571428 15.142858 30.571428ZM 52.857143 43.428574L 47.714287 43.428574C 46.767513 43.428574 46 42.66106 46 41.714287L 46 32.285713C 46 31.338942 46.767513 30.571428 47.714287 30.571428L 52.857143 30.571428C 54.750694 30.571428 56.285713 32.106449 56.285713 34L 56.285713 40C 56.285713 41.893547 54.750694 43.428574 52.857143 43.428574ZM 49.154285 43.428574L 49.154285 45.142857L 49.154285 45.142857C 49.155781 47.010021 48.395805 48.797054 47.049892 50.091202C 45.703979 51.385349 43.888527 52.074688 42.022858 52L 40.857143 52M 40.857143 52C 40.857143 54.366936 38.938366 56.285713 36.57143 56.285713L 31.428572 56.285713C 29.061638 56.285713 27.142857 54.366936 27.142857 52C 27.142857 49.633068 29.061638 47.714287 31.428572 47.714287L 36.57143 47.714287C 38.938366 47.714287 40.857143 49.633068 40.857143 52Z"></path></g></g></g><g id="g-root-squa_1hf3ij81u2ydqh-stroke" data-item-order="0" data-item-id="squa_1hf3ij81u2ydqh" data-item-class="Icon Stroke SceneTarget Indexed Indexed_1 InsideFill" data-item-index="1" data-renderer-id="0" transform="translate(444.74798583984375, 15)"><g id="squa_1hf3ij81u2ydqh-stroke" fill="none" stroke-linecap="round" stroke-linejoin="round" stroke-miterlimit="4" stroke="#e3cd09" stroke-width="2"><g><path d="M 25.428572 52.857143L 11.714286 56.285713L 15.142858 46L 15.142858 15.142858C 15.142858 13.24931 16.677881 11.714286 18.571428 11.714286L 52.857143 11.714286C 54.750694 11.714286 56.285713 13.24931 56.285713 15.142858L 56.285713 49.428574C 56.285713 51.322121 54.750694 52.857143 52.857143 52.857143ZM 42.57143 11.714286L 35.714287 22L 44.285713 27.142857L 39.142857 34"></path></g></g></g><g id="g-root-tx_language_925fh01u2pybl-stroke" data-item-order="0" data-item-id="tx_language_925fh01u2pybl" data-item-class="Label Stroke SceneTarget Indexed Indexed_1 ColorStrokeBlack" data-item-index="1" data-renderer-id="0" transform="translate(514, 6.91497802734375)"></g><g id="g-root-huma_90a07o1u2ydxi-stroke" data-item-order="0" data-item-id="huma_90a07o1u2ydxi" data-item-class="Icon Stroke SceneTarget SceneStart InsideFill InsideGrayFill ColorStrokeBlack" data-item-index="none" data-renderer-id="0" transform="translate(334, 138.91094970703125)"><g id="huma_90a07o1u2ydxi-stroke" fill="none" stroke-linecap="round" stroke-linejoin="round" stroke-miterlimit="4" stroke="#484848" stroke-width="2"><g><path d="M 48.760002 11.5C 61.415981 11.485082 72.642914 19.619431 76.571228 31.65033C 80.499542 43.681229 76.236153 56.873459 66.010002 64.329994L 66.010002 80.5L 36.010002 80.5L 36.010002 71.5L 32.650002 71.5C 27.679438 71.5 23.650002 67.470566 23.650002 62.5L 23.650002 53.5L 13.51 53.5C 20.08 33.760002 23.860001 11.5 48.760002 11.5ZM 45.760002 37.389999C 45.760002 39.461067 47.438931 41.139999 49.510002 41.139999C 51.58107 41.139999 53.260002 39.461067 53.260002 37.389999C 53.260002 35.318932 51.58107 33.639999 49.510002 33.639999C 47.438931 33.639999 45.760002 35.318932 45.760002 37.389999M 52.689999 22.869999L 53.800003 26.5C 54.164726 27.794008 55.500736 28.555536 56.800003 28.210001L 60.489998 27.34C 61.917187 27.03767 63.3764 27.690834 64.101669 28.956638C 64.826935 30.222439 64.652534 31.811623 63.669998 32.889999L 61 35.68C 60.097141 36.629658 60.097141 38.120346 61 39.07L 63.550003 41.860001C 64.532532 42.938377 64.70694 44.527561 63.981674 45.793362C 63.256401 47.059166 61.797188 47.712326 60.369995 47.41L 56.68 46.540001C 55.380737 46.194466 54.044724 46.955994 53.68 48.25L 52.689999 52C 52.273537 53.417725 50.972626 54.391453 49.494999 54.391453C 48.017372 54.391453 46.716465 53.417725 46.300003 52L 45.220001 48.369999C 44.84185 47.086559 43.517014 46.331406 42.220001 46.66L 38.529999 47.529999C 37.10281 47.832329 35.6436 47.179165 34.918327 45.913361C 34.193058 44.64756 34.367466 43.058376 35.349998 41.98L 37.93 39.189999C 38.803635 38.228859 38.803635 36.761139 37.93 35.799999L 35.349998 33.010002C 34.223244 31.944986 33.971512 30.247286 34.740742 28.901138C 35.509968 27.554989 37.100403 26.909958 38.59 27.34L 42.279999 28.210001C 43.577015 28.538597 44.901848 27.783442 45.279999 26.5L 46.360001 22.869999C 46.807739 21.50112 48.084755 20.575218 49.525002 20.575218C 50.965244 20.575218 52.242264 21.50112 52.690002 22.869999Z"></path></g></g></g><g id="g-root-hamm_143n05w1u2yfbf-stroke" data-item-order="0" data-item-id="hamm_143n05w1u2yfbf" data-item-class="Icon Stroke SceneTarget Indexed InsideFill" data-item-index="4" data-renderer-id="0" transform="translate(186.2230224609375, 202.83001708984375)"><g id="hamm_143n05w1u2yfbf-stroke" fill="none" stroke-linecap="round" stroke-linejoin="round" stroke-miterlimit="4" stroke="#17b0e3" stroke-width="2"><g><path d="M 11.714286 55.565716L 37.428574 55.565716M 34 55.565716L 34 46.994286L 15.142858 46.994286L 15.142858 55.565716M 24.405733 25.727448L 36.697269 13.435908C 36.697269 13.435908 39.121635 11.011545 41.545998 13.435908L 46.976582 18.866488C 46.976582 18.866488 49.400948 21.290855 46.976582 23.715223L 34.685043 36.00676C 34.685043 36.00676 32.260674 38.431126 29.836309 36.00676L 24.405733 30.576181C 24.405733 30.576181 21.981365 28.151814 24.405733 25.727448M 40.857143 29.851429L 56.285713 45.279999"></path></g></g></g><g id="g-root-1_1upxjtg1u2yfbc-stroke" data-item-order="0" data-item-id="1_1upxjtg1u2yfbc" data-item-class="Icon Stroke SceneTarget Indexed InsideFill" data-item-index="2" data-renderer-id="0" transform="translate(505.77801513671875, 202.83001708984375)"><g id="1_1upxjtg1u2yfbc-stroke" fill="none" stroke-linecap="round" stroke-linejoin="round" stroke-miterlimit="4" stroke="#3bc482" stroke-width="2"><g><path d="M 11 11L 57 11L 57 57L 11 57ZM 27 33L 22.708 33C 20.988787 33.000622 19.495478 34.182915 19.100515 35.856148C 18.705553 37.529373 19.512537 39.254646 21.049999 40.024002L 24.950001 41.975998C 26.487463 42.745354 27.294447 44.470627 26.899485 46.143856C 26.504522 47.817085 25.011213 48.999382 23.292 49L 19 49M 39 33L 39 37.599998C 38.99976 41.74395 37.589073 45.764412 35 48.999996C 32.410927 45.764412 31.000238 41.74395 30.999998 37.599998L 31 33M 51 37C 51 34.790863 49.209141 33 47 33C 44.790859 33 43 34.790863 43 37L 43 45C 43 47.209141 44.790859 49 47 49C 49.209141 49 51 47.209141 51 45L 51 43L 48 43"></path></g></g></g><g id="g-root-tx_legalres_hx5yms1u2pzwu-stroke" data-item-order="0" data-item-id="tx_legalres_hx5yms1u2pzwu" data-item-class="Label Stroke SceneTarget Indexed ColorStrokeBlack" data-item-index="4" data-renderer-id="0" transform="translate(2, 222.91497802734375)"></g><g id="g-root-tx_imagesyn_925fh01u2pybk-stroke" data-item-order="0" data-item-id="tx_imagesyn_925fh01u2pybk" data-item-class="Label Stroke SceneTarget Indexed ColorStrokeBlack" data-item-index="2" data-renderer-id="0" transform="translate(580, 210.91497802734375)"></g><g id="g-root-rate_1lqj99g1r18gef-stroke" data-item-order="0" data-item-id="rate_1lqj99g1r18gef" data-item-class="Icon Stroke SceneTarget Indexed InsideFill" data-item-index="3" data-renderer-id="0" transform="translate(346, 318.91497802734375)"><g id="rate_1lqj99g1r18gef-stroke" fill="none" stroke-linecap="round" stroke-linejoin="round" stroke-miterlimit="4" stroke="#e15e5a" stroke-width="2"><g><path d="M 11.988571 24.777143C 13.737143 16.342857 24.125713 10 34 21.211428C 48.091427 5.062857 63.142857 25.085714 52.925716 35.405712L 34 52.857143L 22.925714 42.57143M 11.714286 34L 20.285715 34L 25.428572 27.142857L 32.285713 39.142857L 37.428574 32.285713L 42.57143 32.285713"></path></g></g></g><g id="g-root-tx_healthca_dhyxlg1u2pxjb-stroke" data-item-order="0" data-item-id="tx_healthca_dhyxlg1u2pxjb" data-item-class="Label Stroke SceneTarget Indexed ColorStrokeBlack" data-item-index="3" data-renderer-id="0" transform="translate(304, 390.91497802734375)"></g></g></g></svg>