<?xml version="1.0" encoding="utf-8" standalone="yes"?>
<!DOCTYPE svg PUBLIC "-//W3C//DTD SVG 1.1//EN" "http://www.w3.org/Graphics/SVG/1.1/DTD/svg11.dtd">
<svg width="576" height="291" viewBox="0 0 576 291" style="fill:none;stroke:none;fill-rule:evenodd;clip-rule:evenodd;stroke-linecap:round;stroke-linejoin:round;stroke-miterlimit:1.5;" version="1.1" xmlns="http://www.w3.org/2000/svg" xmlns:xlink="http://www.w3.org/1999/xlink"><style id="fontImports">@import url("https://fonts.googleapis.com/css2?family=Roboto:wght@400;700&amp;display=block");</style><rect id="" x="0" y="0" width="576" height="290.005" style="fill: #ffffff;"></rect><g id="items" style="isolation: isolate"><g id="blend" style="mix-blend-mode:multiply"><g id="g-root-5.cu_sy_v4unqs1qgy1vw-fill" data-item-order="-31676" data-item-id="5.cu_sy_v4unqs1qgy1vw" data-item-class="ScenePart Part Indexed Stroke ColorFillGray ColorStrokeBlack" data-item-index="5" data-renderer-id="0" transform="translate(194, 154)"></g><g id="g-root-4.cu_sy_v4unqs1qgy1vv-fill" data-item-order="-31675" data-item-id="4.cu_sy_v4unqs1qgy1vv" data-item-class="ScenePart Part Indexed Fill Stroke ColorFillGray ColorStrokeBlack" data-item-index="4" data-renderer-id="0" transform="translate(266, 165)"><g id="4.cu_sy_v4unqs1qgy1vv-fill" stroke="none" fill="url(#gradient-cccccc-454304273)"><g><path d="M 34.086 22C 34.086 28.627 28.695 34 22.043 34C 15.392 34 10 28.627 10 22C 10 15.373 15.392 10 22.043 10C 28.695 10 34.086 15.373 34.086 22ZM 28 22C 28 25.314 25.314 28 22 28C 18.686 28 16 25.314 16 22C 16 18.686 18.686 16 22 16C 25.314 16 28 18.686 28 22Z"></path></g></g></g><g id="g-root-3.cu_sy_v4unqs1qgy1vu-fill" data-item-order="-31673" data-item-id="3.cu_sy_v4unqs1qgy1vu" data-item-class="ScenePart Part Indexed Fill Stroke ColorFillGray ColorStrokeBlack" data-item-index="3" data-renderer-id="0" transform="translate(230, 186.32595825195312)"><g id="3.cu_sy_v4unqs1qgy1vu-fill" stroke="none" fill="url(#gradient-cccccc-454304273)"><g><path d="M 22 78.674011L 94 78.674011C 94 78.674011 73.992 28.166011 65.959 10.058011C 63.725 11.952011 61.073 12.997011 58.043 12.997011C 54.986 12.997011 52.288 11.933011 50.072 10.000011C 42.047 28.114011 22 78.674011 22 78.674011ZM 18 78.679011C 13.582 78.679011 10 82.260011 10 86.679011L 10 88.679011C 10 89.783011 10.895 90.679011 12 90.679011L 104 90.679011C 105.105 90.679011 106 89.783011 106 88.679011L 106 86.679011C 106 82.260011 102.418 78.679011 98 78.679011L 18 78.679011Z"></path></g></g></g><g id="g-root-2.right-bucket_sy_140hnzo1qgy135-fill" data-item-order="-31671" data-item-id="2.right-bucket_sy_140hnzo1qgy135" data-item-class="ScenePart Part Indexed Fill Stroke ColorStrokeBlack" data-item-index="2" data-renderer-id="0" transform="translate(326, 135)"><g id="2.right-bucket_sy_140hnzo1qgy135-fill" stroke="none" fill="url(#gradient-fd8480-377457365)"><g><path d="M 10 11.8C 10 10.806 10.806 10 11.8 10L 80.2 10C 81.194 10 82 10.806 82 11.8C 82 20.747 74.747 28 65.8 28L 26.2 28C 17.253 28 10 20.747 10 11.8Z"></path></g></g></g><g id="g-root-1.left-bucket_sy_140hnzo1qgy134-fill" data-item-order="-31669" data-item-id="1.left-bucket_sy_140hnzo1qgy134" data-item-class="ScenePart Part Indexed Indexed_1 Fill Stroke ColorStrokeBlack" data-item-index="1" data-renderer-id="0" transform="translate(158, 135)"><defs><linearGradient id="gradient-cccccc-454304273" x2="0" y2="1"><stop offset="0" stop-color="#f5f5f5"></stop><stop offset="1" stop-color="#A3A3A3"></stop></linearGradient><linearGradient id="gradient-fd8480-377457365" x2="0" y2="1"><stop offset="0" stop-color="#fd9e9a"></stop><stop offset="1" stop-color="#FD6A65"></stop></linearGradient><linearGradient id="gradient-65e5a8-188701211" x2="0" y2="1"><stop offset="0" stop-color="#85eaba"></stop><stop offset="1" stop-color="#44E095"></stop></linearGradient></defs><g id="1.left-bucket_sy_140hnzo1qgy134-fill" stroke="none" fill="url(#gradient-65e5a8-188701211)"><g><path d="M 10 11.8C 10 10.806 10.806 10 11.8 10L 80.2 10C 81.194 10 82 10.806 82 11.8C 82 20.747 74.747 28 65.8 28L 26.2 28C 17.253 28 10 20.747 10 11.8Z"></path></g></g></g><g id="g-root-tx_easyfine_8zmkdw1qgy39q-fill" data-item-order="0" data-item-id="tx_easyfine_8zmkdw1qgy39q" data-item-class="Label Stroke SceneTarget Indexed ColorStrokeBlack" data-item-index="2" data-renderer-id="0" transform="translate(2, 15)"><g id="tx_easyfine_8zmkdw1qgy39q-fill" stroke="none" fill="#484848"><g><text style="font: 20px Roboto, sans-serif; white-space: pre;"><tspan x="23.1" y="33.75" dominant-baseline="ideographic">Easy fine-tuning</tspan></text></g></g></g><g id="g-root-1_mfged01qh0wll-fill" data-item-order="0" data-item-id="1_mfged01qh0wll" data-item-class="Icon Stroke SceneTarget Indexed ColorStrokeBlack" data-item-index="2" data-renderer-id="0" transform="translate(170, 3)"></g><g id="g-root-weig_1hjfvec1qh0utn-fill" data-item-order="0" data-item-id="weig_1hjfvec1qh0utn" data-item-class="Icon Stroke SceneTarget Indexed ColorStrokeBlack" data-item-index="5" data-renderer-id="0" transform="translate(338, 3)"></g><g id="g-root-tx_deployme_1lu9ktw1qgy328-fill" data-item-order="0" data-item-id="tx_deployme_1lu9ktw1qgy328" data-item-class="Label Stroke SceneTarget Indexed ColorStrokeBlack" data-item-index="5" data-renderer-id="0" transform="translate(398, 3)"><g id="tx_deployme_1lu9ktw1qgy328-fill" stroke="none" fill="#484848"><g><text style="font: 20px Roboto, sans-serif; white-space: pre;"><tspan x="12" y="33.75" dominant-baseline="ideographic">Deployment </tspan><tspan x="12" y="57.75" dominant-baseline="ideographic">challenges</tspan></text></g></g></g><g id="g-root-tx_highadap_1cxdmes1qgy1ot-fill" data-item-order="0" data-item-id="tx_highadap_1cxdmes1qgy1ot" data-item-class="Label Stroke SceneTarget Indexed ColorStrokeBlack" data-item-index="3" data-renderer-id="0" transform="translate(2, 87)"><g id="tx_highadap_1cxdmes1qgy1ot-fill" stroke="none" fill="#484848"><g><text style="font: 20px Roboto, sans-serif; white-space: pre;"><tspan x="14.25" y="33.75" dominant-baseline="ideographic">High adaptability</tspan></text></g></g></g><g id="g-root-1_1d1qy0k1qh0wlk-fill" data-item-order="0" data-item-id="1_1d1qy0k1qh0wlk" data-item-class="Icon Stroke SceneTarget Indexed ColorStrokeBlack" data-item-index="3" data-renderer-id="0" transform="translate(170, 75)"></g><g id="g-root-1_1uu9wok1qh0wei-fill" data-item-order="0" data-item-id="1_1uu9wok1qh0wei" data-item-class="Icon Stroke SceneTarget Indexed ColorStrokeBlack" data-item-index="6" data-renderer-id="0" transform="translate(338, 75)"></g><g id="g-root-tx_computat_1upwl2s1qgy1hr-fill" data-item-order="0" data-item-id="tx_computat_1upwl2s1qgy1hr" data-item-class="Label Stroke SceneTarget Indexed ColorStrokeBlack" data-item-index="6" data-renderer-id="0" transform="translate(398, 75)"><g id="tx_computat_1upwl2s1qgy1hr-fill" stroke="none" fill="#484848"><g><text style="font: 20px Roboto, sans-serif; white-space: pre;"><tspan x="12" y="33.75" dominant-baseline="ideographic">Computationally </tspan><tspan x="12" y="57.75" dominant-baseline="ideographic">expensive</tspan></text></g></g></g><g id="g-root-tx_advantag_18jfjjo1qgy1hd-fill" data-item-order="0" data-item-id="tx_advantag_18jfjjo1qgy1hd" data-item-class="Label Stroke SceneTarget Indexed ColorStrokeBlack" data-item-index="none" data-renderer-id="0" transform="translate(50, 231.00003051757812)"><g id="tx_advantag_18jfjjo1qgy1hd-fill" stroke="none" fill="#484848"><g><text style="font: 20px Roboto, sans-serif; white-space: pre;"><tspan x="17.33" y="33.75" dominant-baseline="ideographic">Advantages</tspan></text></g></g></g><g id="g-root-tx_limitati_znsjas1qgy2a2-fill" data-item-order="0" data-item-id="tx_limitati_znsjas1qgy2a2" data-item-class="Label Stroke SceneTarget Indexed ColorStrokeBlack" data-item-index="none" data-renderer-id="0" transform="translate(392, 231.00003051757812)"><g id="tx_limitati_znsjas1qgy2a2-fill" stroke="none" fill="#484848"><g><text style="font: 20px Roboto, sans-serif; white-space: pre;"><tspan x="14.22" y="33.75" dominant-baseline="ideographic">Limitations</tspan></text></g></g></g><g id="g-root-5.cu_sy_v4unqs1qgy1vw-stroke" data-item-order="-31676" data-item-id="5.cu_sy_v4unqs1qgy1vw" data-item-class="ScenePart Part Indexed Stroke ColorFillGray ColorStrokeBlack" data-item-index="5" data-renderer-id="0" transform="translate(194, 154)"><g id="5.cu_sy_v4unqs1qgy1vw-stroke" fill="none" stroke-linecap="round" stroke-linejoin="round" stroke-miterlimit="4" stroke="#484848" stroke-width="2"><g><path d="M 178 10L 178 24.978C 178 29.395 174.42 32.976 170.003 32.978L 107 33M 10 10L 10 25.025C 10 29.444 13.582 33.025 18 33.025L 82 33.025"></path></g></g></g><g id="g-root-4.cu_sy_v4unqs1qgy1vv-stroke" data-item-order="-31675" data-item-id="4.cu_sy_v4unqs1qgy1vv" data-item-class="ScenePart Part Indexed Fill Stroke ColorFillGray ColorStrokeBlack" data-item-index="4" data-renderer-id="0" transform="translate(266, 165)"><g id="4.cu_sy_v4unqs1qgy1vv-stroke" fill="none" stroke-linecap="round" stroke-linejoin="round" stroke-miterlimit="4" stroke="#484848" stroke-width="2"><g><path d="M 34.086 22C 34.086 28.627 28.695 34 22.043 34C 15.392 34 10 28.627 10 22C 10 15.373 15.392 10 22.043 10C 28.695 10 34.086 15.373 34.086 22ZM 28 22C 28 25.314 25.314 28 22 28C 18.686 28 16 25.314 16 22C 16 18.686 18.686 16 22 16C 25.314 16 28 18.686 28 22Z"></path></g></g></g><g id="g-root-3.cu_sy_v4unqs1qgy1vu-stroke" data-item-order="-31673" data-item-id="3.cu_sy_v4unqs1qgy1vu" data-item-class="ScenePart Part Indexed Fill Stroke ColorFillGray ColorStrokeBlack" data-item-index="3" data-renderer-id="0" transform="translate(230, 186.32595825195312)"><g id="3.cu_sy_v4unqs1qgy1vu-stroke" fill="none" stroke-linecap="round" stroke-linejoin="round" stroke-miterlimit="4" stroke="#484848" stroke-width="2"><g><path d="M 22 78.674011L 94 78.674011C 94 78.674011 73.992 28.166011 65.959 10.058011C 63.725 11.952011 61.073 12.997011 58.043 12.997011C 54.986 12.997011 52.288 11.933011 50.072 10.000011C 42.047 28.114011 22 78.674011 22 78.674011ZM 18 78.679011C 13.582 78.679011 10 82.260011 10 86.679011L 10 88.679011C 10 89.783011 10.895 90.679011 12 90.679011L 104 90.679011C 105.105 90.679011 106 89.783011 106 88.679011L 106 86.679011C 106 82.260011 102.418 78.679011 98 78.679011L 18 78.679011Z"></path></g></g><g id="3.cu_sy_v4unqs1qgy1vu-stroke" fill="none" stroke-linecap="round" stroke-linejoin="round" stroke-miterlimit="4" stroke="#484848" stroke-width="2"><g><path d="M 58 58.679011L 54 62.679011L 54 71.749011C 55.177 71.068011 56.543 70.679011 58 70.679011C 59.457 70.679011 60.823 71.068011 62 71.749011L 62 62.679011L 58 58.679011ZM 62 71.749011C 60.823 71.068011 59.457 70.679011 58 70.679011C 56.543 70.679011 55.177 71.068011 54 71.749011C 51.609 73.132011 50 75.718011 50 78.679011L 66 78.679011C 66 75.718011 64.391 73.132011 62 71.749011ZM 58 49.679011L 58 55.479011M 78.503 58.176011L 74.404 62.274011M 37.497 58.176011L 41.596 62.274011M 64.747 53.468011L 64.003 56.262011M 44.94 56.078011L 46.4 58.591011M 71.031 56.068011L 69.59 58.572011M 51.224 53.478011L 51.978 56.271011"></path></g></g></g><g id="g-root-2.right-bucket_sy_140hnzo1qgy135-stroke" data-item-order="-31671" data-item-id="2.right-bucket_sy_140hnzo1qgy135" data-item-class="ScenePart Part Indexed Fill Stroke ColorStrokeBlack" data-item-index="2" data-renderer-id="0" transform="translate(326, 135)"><g id="2.right-bucket_sy_140hnzo1qgy135-stroke" fill="none" stroke-linecap="round" stroke-linejoin="round" stroke-miterlimit="4" stroke="#484848" stroke-width="2"><g><path d="M 10 11.8C 10 10.806 10.806 10 11.8 10L 80.2 10C 81.194 10 82 10.806 82 11.8C 82 20.747 74.747 28 65.8 28L 26.2 28C 17.253 28 10 20.747 10 11.8Z"></path></g></g></g><g id="g-root-1.left-bucket_sy_140hnzo1qgy134-stroke" data-item-order="-31669" data-item-id="1.left-bucket_sy_140hnzo1qgy134" data-item-class="ScenePart Part Indexed Indexed_1 Fill Stroke ColorStrokeBlack" data-item-index="1" data-renderer-id="0" transform="translate(158, 135)"><g id="1.left-bucket_sy_140hnzo1qgy134-stroke" fill="none" stroke-linecap="round" stroke-linejoin="round" stroke-miterlimit="4" stroke="#484848" stroke-width="2"><g><path d="M 10 11.8C 10 10.806 10.806 10 11.8 10L 80.2 10C 81.194 10 82 10.806 82 11.8C 82 20.747 74.747 28 65.8 28L 26.2 28C 17.253 28 10 20.747 10 11.8Z"></path></g></g></g><g id="g-root-tx_easyfine_8zmkdw1qgy39q-stroke" data-item-order="0" data-item-id="tx_easyfine_8zmkdw1qgy39q" data-item-class="Label Stroke SceneTarget Indexed ColorStrokeBlack" data-item-index="2" data-renderer-id="0" transform="translate(2, 15)"></g><g id="g-root-1_mfged01qh0wll-stroke" data-item-order="0" data-item-id="1_mfged01qh0wll" data-item-class="Icon Stroke SceneTarget Indexed ColorStrokeBlack" data-item-index="2" data-renderer-id="0" transform="translate(170, 3)"><g id="1_mfged01qh0wll-stroke" fill="none" stroke-linecap="round" stroke-linejoin="round" stroke-miterlimit="4" stroke="#484848" stroke-width="2"><g><path d="M 49.428574 39.142857L 18.571428 39.142857L 15.965714 52.171429C 15.766986 53.17997 16.031256 54.224468 16.685715 55.017143C 17.331726 55.813522 18.300285 56.278934 19.325714 56.285713L 48.674286 56.285713C 49.699715 56.278934 50.668274 55.813522 51.314285 55.017143C 51.968746 54.224468 52.233017 53.17997 52.034286 52.171429ZM 49.428574 28.857143C 51.322121 28.857143 52.857143 30.392166 52.857143 32.285713L 52.857143 39.142857L 15.142858 39.142857L 15.142858 32.285713C 15.142858 30.392166 16.677881 28.857143 18.571428 28.857143L 23.714287 28.857143C 25.607834 28.857143 27.142857 27.322119 27.142857 25.428572L 27.142857 18.571428C 27.142857 14.784333 30.212906 11.714286 34 11.714286C 37.787094 11.714286 40.857143 14.784333 40.857143 18.571428L 40.857143 25.428572C 40.857143 27.322119 42.392166 28.857143 44.285713 28.857143ZM 39.142857 56.285713L 39.142857 47.714287"></path></g></g></g><g id="g-root-weig_1hjfvec1qh0utn-stroke" data-item-order="0" data-item-id="weig_1hjfvec1qh0utn" data-item-class="Icon Stroke SceneTarget Indexed ColorStrokeBlack" data-item-index="5" data-renderer-id="0" transform="translate(338, 3)"><g id="weig_1hjfvec1qh0utn-stroke" fill="none" stroke-linecap="round" stroke-linejoin="round" stroke-miterlimit="4" stroke="#484848" stroke-width="2"><g><path d="M 11.036 20.582001C 11.036 25.873993 15.326008 30.164 20.618 30.164C 25.909992 30.164 30.199999 25.873993 30.199999 20.582001C 30.199999 15.290008 25.909992 11 20.618 11C 15.326008 11 11.036 15.290008 11.036 20.582001M 17.618 54.554001C 17.619102 55.90443 18.71357 56.998898 20.063999 57L 53.905998 57C 55.594593 56.999584 56.963245 55.630592 56.963245 53.942001C 56.963245 52.253407 55.594593 50.884418 53.905998 50.883999L 17.618 50.883999ZM 20.618 20.582001L 24.042 17.844M 34.014 31.666L 50.734001 31.666C 50.734001 31.666 52.734001 31.666 52.734001 33.666L 52.734001 48.886002C 52.734001 48.886002 52.734001 50.886002 50.734001 50.886002L 34.014 50.886002C 34.014 50.886002 32.014 50.886002 32.014 48.886002L 32.014 33.666C 32.014 33.666 32.014 31.666 34.014 31.666M 39.292 17.341999L 50.734001 17.341999C 50.734001 17.341999 52.734001 17.341999 52.734001 19.341999L 52.734001 29.666C 52.734001 29.666 52.734001 31.666 50.734001 31.666L 39.292 31.666C 39.292 31.666 37.292 31.666 37.292 29.666L 37.292 19.341999C 37.292 19.341999 37.292 17.341999 39.292 17.341999M 39.265999 31.666L 39.265999 40.989998L 45.481998 40.989998L 45.481998 31.666M 17.618 50.883999L 17.618 29.686001M 23.316 50.883999L 23.316 29.780001"></path></g></g></g><g id="g-root-tx_deployme_1lu9ktw1qgy328-stroke" data-item-order="0" data-item-id="tx_deployme_1lu9ktw1qgy328" data-item-class="Label Stroke SceneTarget Indexed ColorStrokeBlack" data-item-index="5" data-renderer-id="0" transform="translate(398, 3)"></g><g id="g-root-tx_highadap_1cxdmes1qgy1ot-stroke" data-item-order="0" data-item-id="tx_highadap_1cxdmes1qgy1ot" data-item-class="Label Stroke SceneTarget Indexed ColorStrokeBlack" data-item-index="3" data-renderer-id="0" transform="translate(2, 87)"></g><g id="g-root-1_1d1qy0k1qh0wlk-stroke" data-item-order="0" data-item-id="1_1d1qy0k1qh0wlk" data-item-class="Icon Stroke SceneTarget Indexed ColorStrokeBlack" data-item-index="3" data-renderer-id="0" transform="translate(170, 75)"><g id="1_1d1qy0k1qh0wlk-stroke" fill="none" stroke-linecap="round" stroke-linejoin="round" stroke-miterlimit="4" stroke="#484848" stroke-width="2"><g><path d="M 16 22L 20 19C 20 14.582 22.686001 11 26 11C 29.313999 11 32 14.582 32 19L 37 22M 21 22L 19 26M 31 22L 33 26M 23.5 17C 23.776142 17 24 17.223858 24 17.5M 23 17.5C 23 17.223858 23.223858 17 23.5 17M 23.5 18C 23.223858 18 23 17.776142 23 17.5M 24 17.5C 24 17.776142 23.776142 18 23.5 18M 28.5 17C 28.776142 17 29 17.223858 29 17.5M 28 17.5C 28 17.223858 28.223858 17 28.5 17M 28.5 18C 28.223858 18 28 17.776142 28 17.5M 29 17.5C 29 17.776142 28.776142 18 28.5 18M 46 44C 46 51.179703 40.179703 57.000004 33 57C 27 57 23 54 21 47C 18.957672 41.564323 18.609043 35.637638 20 30M 32.242001 30.886C 32.242001 30.886 36 32 37 29M 31.709999 41.91C 31.709999 41.91 35 43 36 40M 19.734001 31.16C 19.734001 31.16 16 32 15 29M 19.639999 41.877998C 19.639999 41.877998 16 43 15 40M 32 30C 34 37 32.372002 38.136002 31 45C 30 50 32.799999 52 35 52C 36.067966 52.023735 37.099228 51.609936 37.854584 50.854584C 38.609936 50.099232 39.023735 49.067966 39 48L 39 41C 39 37.13401 42.134007 34 46 34C 49.865993 34 53 37.13401 53 41L 53 45C 52.98159 49.964279 50.312176 54.540417 46 57"></path></g></g></g><g id="g-root-1_1uu9wok1qh0wei-stroke" data-item-order="0" data-item-id="1_1uu9wok1qh0wei" data-item-class="Icon Stroke SceneTarget Indexed ColorStrokeBlack" data-item-index="6" data-renderer-id="0" transform="translate(338, 75)"><g id="1_1uu9wok1qh0wei-stroke" fill="none" stroke-linecap="round" stroke-linejoin="round" stroke-miterlimit="4" stroke="#484848" stroke-width="2"><g><path d="M 18.571428 11.714286L 49.428574 11.714286C 49.428574 11.714286 52.857143 11.714286 52.857143 15.142858L 52.857143 52.857143C 52.857143 52.857143 52.857143 56.285713 49.428574 56.285713L 18.571428 56.285713C 18.571428 56.285713 15.142858 56.285713 15.142858 52.857143L 15.142858 15.142858C 15.142858 15.142858 15.142858 11.714286 18.571428 11.714286M 15.142858 28.857143L 52.857143 28.857143M 44.285713 20.285715L 40.857143 20.285715"></path></g></g></g><g id="g-root-tx_computat_1upwl2s1qgy1hr-stroke" data-item-order="0" data-item-id="tx_computat_1upwl2s1qgy1hr" data-item-class="Label Stroke SceneTarget Indexed ColorStrokeBlack" data-item-index="6" data-renderer-id="0" transform="translate(398, 75)"></g><g id="g-root-tx_advantag_18jfjjo1qgy1hd-stroke" data-item-order="0" data-item-id="tx_advantag_18jfjjo1qgy1hd" data-item-class="Label Stroke SceneTarget Indexed ColorStrokeBlack" data-item-index="none" data-renderer-id="0" transform="translate(50, 231.00003051757812)"></g><g id="g-root-tx_limitati_znsjas1qgy2a2-stroke" data-item-order="0" data-item-id="tx_limitati_znsjas1qgy2a2" data-item-class="Label Stroke SceneTarget Indexed ColorStrokeBlack" data-item-index="none" data-renderer-id="0" transform="translate(392, 231.00003051757812)"></g></g></g></svg>