<?xml version="1.0" encoding="utf-8" standalone="yes"?>
<!DOCTYPE svg PUBLIC "-//W3C//DTD SVG 1.1//EN" "http://www.w3.org/Graphics/SVG/1.1/DTD/svg11.dtd">
<svg width="543" height="316" viewBox="0 0 543 316" style="fill:none;stroke:none;fill-rule:evenodd;clip-rule:evenodd;stroke-linecap:round;stroke-linejoin:round;stroke-miterlimit:1.5;" version="1.1" xmlns="http://www.w3.org/2000/svg" xmlns:xlink="http://www.w3.org/1999/xlink"><style id="fontImports">@import url("https://fonts.googleapis.com/css2?family=Shantell+Sans:wght@300..800&amp;display=block");</style><rect id="" x="0" y="0" width="542" height="316" style="fill: #ffffff;"></rect><g id="items" style="isolation: isolate"><g id="blend" style="mix-blend-mode:multiply"><g id="g-root-3.cu_sy_18lyep01q76vbd-fill" data-item-order="-145147" data-item-id="3.cu_sy_18lyep01q76vbd" data-item-class="ScenePart Part Indexed Stroke ColorStrokeBlack" data-item-index="3" data-renderer-id="0" transform="translate(4, 111.99899291992188)"></g><g id="g-root-2.cu_sy_1uo1c5g1tsul8h-fill" data-item-order="-145145" data-item-id="2.cu_sy_1uo1c5g1tsul8h" data-item-class="ScenePart Part Indexed Stroke ColorStrokeBlack" data-item-index="2" data-renderer-id="0" transform="translate(256.00048828125, 4)"></g><g id="g-root-1.cu_sy_2qsas1tsuknc-fill" data-item-order="-145144" data-item-id="1.cu_sy_2qsas1tsuknc" data-item-class="ScenePart Part Indexed Indexed_1 Fill Stroke ColorStrokeBlack" data-item-index="1" data-renderer-id="0" transform="translate(226.00048828125, 28)"><g id="1.cu_sy_2qsas1tsuknc-fill" stroke="none" fill="none"><g><path d="M 10 34L 28 10L 28 18L 52 18L 52 10L 70 34L 52 58L 52 50L 28 50L 28 58L 10 34Z"></path></g></g></g><g id="g-root-tx_pros_hye4ec1tsulmr-fill" data-item-order="0" data-item-id="tx_pros_hye4ec1tsulmr" data-item-class="Label Stroke SceneTarget ColorStrokeBlack" data-item-index="none" data-renderer-id="0" transform="translate(64.00048828125, 39.999969482421875)"><g id="tx_pros_hye4ec1tsulmr-fill" stroke="none" fill="#484848"><g><text style="font: 20px &quot;Shantell Sans&quot;, cursive; white-space: pre;"><tspan x="12" y="35" dominant-baseline="ideographic">Pros</tspan></text></g></g></g><g id="g-root-tx_cons_me7mis1tsukui-fill" data-item-order="0" data-item-id="tx_cons_me7mis1tsukui" data-item-class="Label Stroke SceneTarget ColorStrokeBlack" data-item-index="none" data-renderer-id="0" transform="translate(364.00048828125, 39.999969482421875)"><g id="tx_cons_me7mis1tsukui-fill" stroke="none" fill="#484848"><g><text style="font: 20px &quot;Shantell Sans&quot;, cursive; white-space: pre;"><tspan x="12" y="35" dominant-baseline="ideographic">Cons</tspan></text></g></g></g><g id="g-root-robo_1unev2c1tt093d-fill" data-item-order="0" data-item-id="robo_1unev2c1tt093d" data-item-class="Icon Stroke SceneTarget Indexed Indexed_1 ColorStrokeBlack" data-item-index="1" data-renderer-id="0" transform="translate(4.00048828125, 147.99996948242188)"></g><g id="g-root-tx_humanlev_v9umro1tsuk1t-fill" data-item-order="0" data-item-id="tx_humanlev_v9umro1tsuk1t" data-item-class="Label Stroke SceneTarget Indexed Indexed_1 ColorStrokeBlack" data-item-index="1" data-renderer-id="0" transform="translate(64.00048828125, 147.99996948242188)"><g id="tx_humanlev_v9umro1tsuk1t-fill" stroke="none" fill="#484848"><g><text style="font: 20px &quot;Shantell Sans&quot;, cursive; white-space: pre;"><tspan x="12" y="35" dominant-baseline="ideographic">Human-level </tspan><tspan x="12" y="59" dominant-baseline="ideographic">performance</tspan></text></g></g></g><g id="g-root-plan_1hapeis1tt08i7-fill" data-item-order="0" data-item-id="plan_1hapeis1tt08i7" data-item-class="Icon Stroke SceneTarget Indexed ColorStrokeBlack" data-item-index="101" data-renderer-id="0" transform="translate(304.00048828125, 147.99996948242188)"></g><g id="g-root-tx_resource_1hgboas1tsuk27-fill" data-item-order="0" data-item-id="tx_resource_1hgboas1tsuk27" data-item-class="Label Stroke SceneTarget Indexed ColorStrokeBlack" data-item-index="101" data-renderer-id="0" transform="translate(364.00048828125, 147.99996948242188)"><g id="tx_resource_1hgboas1tsuk27-fill" stroke="none" fill="#484848"><g><text style="font: 20px &quot;Shantell Sans&quot;, cursive; white-space: pre;"><tspan x="12" y="35" dominant-baseline="ideographic">Resource-</tspan><tspan x="12" y="59" dominant-baseline="ideographic">intensive</tspan></text></g></g></g><g id="g-root-flyi_18fovd01tt06ww-fill" data-item-order="0" data-item-id="flyi_18fovd01tt06ww" data-item-class="Icon Stroke SceneTarget Indexed ColorStrokeBlack" data-item-index="2" data-renderer-id="0" transform="translate(4.00048828125, 231.99996948242188)"></g><g id="g-root-tx_highimpa_18koo1w1tsulmo-fill" data-item-order="0" data-item-id="tx_highimpa_18koo1w1tsulmo" data-item-class="Label Stroke SceneTarget Indexed ColorStrokeBlack" data-item-index="2" data-renderer-id="0" transform="translate(64.00048828125, 231.99996948242188)"><g id="tx_highimpa_18koo1w1tsulmo-fill" stroke="none" fill="#484848"><g><text style="font: 20px &quot;Shantell Sans&quot;, cursive; white-space: pre;"><tspan x="12" y="35" dominant-baseline="ideographic">High-impact </tspan><tspan x="12" y="59" dominant-baseline="ideographic">tasks</tspan></text></g></g></g><g id="g-root-1_8zj5w1tsytj9-fill" data-item-order="0" data-item-id="1_8zj5w1tsytj9" data-item-class="Icon Stroke SceneTarget Indexed ColorStrokeBlack" data-item-index="102" data-renderer-id="0" transform="translate(304.00048828125, 231.99996948242188)"></g><g id="g-root-tx_environm_hwip501tsummd-fill" data-item-order="0" data-item-id="tx_environm_hwip501tsummd" data-item-class="Label Stroke SceneTarget Indexed ColorStrokeBlack" data-item-index="102" data-renderer-id="0" transform="translate(364.00048828125, 231.99996948242188)"><g id="tx_environm_hwip501tsummd-fill" stroke="none" fill="#484848"><g><text style="font: 20px &quot;Shantell Sans&quot;, cursive; white-space: pre;"><tspan x="12" y="35" dominant-baseline="ideographic">Environmental </tspan><tspan x="12" y="59" dominant-baseline="ideographic">impact</tspan></text></g></g></g><g id="g-root-3.cu_sy_18lyep01q76vbd-stroke" data-item-order="-145147" data-item-id="3.cu_sy_18lyep01q76vbd" data-item-class="ScenePart Part Indexed Stroke ColorStrokeBlack" data-item-index="3" data-renderer-id="0" transform="translate(4, 111.99899291992188)"><g id="3.cu_sy_18lyep01q76vbd-stroke" fill="none" stroke-linecap="round" stroke-linejoin="round" stroke-miterlimit="4" stroke="#484848" stroke-width="4"><g><path d="M 514 10C 502.3 10.7 490.5 9.6 478.7 10C 465.8 10.4 452.7 11.7 439.9 10C 427.4 8.3 414.6 8.5 402.2 10C 387.9 11.7 373.4 9.1 359.1 10C 345.1 10.9 330.9 8.4 316.9 10C 303.6 11.5 290 10.5 276.6 10C 264.9 9.6 253.1 9.2 241.4 10C 227.8 10.9 214.1 10 200.4 10C 188.2 10 176 8.3 164 10C 151.5 11.8 138.7 10.8 126 10C 114.2 9.3 102.2 8.6 90.4 10C 77.9 11.5 65.1 11.2 52.5 10C 38.4 8.6 24.2 10.1 10 10"></path><path d="M 514.000488 10.000007L 9.999988 10.001007"></path></g></g></g><g id="g-root-2.cu_sy_1uo1c5g1tsul8h-stroke" data-item-order="-145145" data-item-id="2.cu_sy_1uo1c5g1tsul8h" data-item-class="ScenePart Part Indexed Stroke ColorStrokeBlack" data-item-index="2" data-renderer-id="0" transform="translate(256.00048828125, 4)"><g id="2.cu_sy_1uo1c5g1tsul8h-stroke" fill="none" stroke-linecap="round" stroke-linejoin="round" stroke-miterlimit="4" stroke="#484848" stroke-width="4"><g><path d="M 10 298C 10.7 270 8 241.9 10 214M 10 214C 8.2 182 11.5 150 10 118M 10 118C 9.7 105.3 11 92.6 10 80M 10 36C 8.9 27.4 8.8 18.6 10 10"></path><path d="M 10 298L 10 214M 10 214L 10 118M 10 118L 10 80M 10 36L 10 10"></path></g></g></g><g id="g-root-1.cu_sy_2qsas1tsuknc-stroke" data-item-order="-145144" data-item-id="1.cu_sy_2qsas1tsuknc" data-item-class="ScenePart Part Indexed Indexed_1 Fill Stroke ColorStrokeBlack" data-item-index="1" data-renderer-id="0" transform="translate(226.00048828125, 28)"><g id="1.cu_sy_2qsas1tsuknc-stroke" fill="none" stroke-linecap="round" stroke-linejoin="round" stroke-miterlimit="4" stroke="#484848" stroke-width="4"><g><path d="M 10 34C 15.7 25.8 21.9 17.9 28 10C 27.1 12.5 28.5 15.4 28 18C 35.8 16.3 44.1 19 52 18C 52 15.3 52.5 12.6 52 10C 57 18.6 64.3 25.8 70 34C 64.1 42.1 57.5 49.6 52 58C 52.8 55.4 52.4 52.6 52 50C 44 49.2 36 50.9 28 50C 27.8 52.7 27.9 55.3 28 58C 20.8 51.1 15.1 42.6 10 34"></path><path d="M 10 34L 28 10L 28 18L 52 18L 52 10L 70 34L 52 58L 52 50L 28 50L 28 58L 10 34Z"></path></g></g><g id="1.cu_sy_2qsas1tsuknc-stroke" fill="none" stroke-linecap="round" stroke-linejoin="round" stroke-miterlimit="4" stroke="#484848" stroke-width="4"><g><path d="M 30.6 28.4C 32.3 32.1 33.6 36 35 39.8M 35.2 39.4C 37.8 36.6 37.5 31.9 39.6 28.7M 49.4 30.2C 49 30.1 48.8 29.7 48.4 29.5C 47.8 28.9 46.8 28.4 45.5 28.8C 44.2 29.2 43.5 29.6 43.4 30.7C 43.3 31.9 44.4 32.8 46.3 34.1C 48.6 34.7 49.3 36.2 49.4 37.6C 49.2 38.9 48.6 40.1 47.1 39.9C 45.5 40.2 44.3 39.8 43.9 38.8C 43.6 38.4 43.1 38 43 37.5"></path><path d="M 30.599 28.373L 34.999 39.827M 35.199 39.432L 39.599 28.669M 49.399 30.249C 49.065 29.986 48.732 29.723 48.399 29.459C 47.799 28.867 46.832 28.636 45.499 28.768C 44.165 28.9 43.465 29.558 43.399 30.743C 43.265 31.928 44.232 33.047 46.299 34.1C 48.432 35.088 49.465 36.24 49.399 37.556C 49.399 38.873 48.632 39.663 47.099 39.926C 45.499 40.124 44.432 39.762 43.899 38.84C 43.565 38.379 43.265 37.918 42.999 37.457"></path></g></g></g><g id="g-root-tx_pros_hye4ec1tsulmr-stroke" data-item-order="0" data-item-id="tx_pros_hye4ec1tsulmr" data-item-class="Label Stroke SceneTarget ColorStrokeBlack" data-item-index="none" data-renderer-id="0" transform="translate(64.00048828125, 39.999969482421875)"></g><g id="g-root-tx_cons_me7mis1tsukui-stroke" data-item-order="0" data-item-id="tx_cons_me7mis1tsukui" data-item-class="Label Stroke SceneTarget ColorStrokeBlack" data-item-index="none" data-renderer-id="0" transform="translate(364.00048828125, 39.999969482421875)"></g><g id="g-root-robo_1unev2c1tt093d-stroke" data-item-order="0" data-item-id="robo_1unev2c1tt093d" data-item-class="Icon Stroke SceneTarget Indexed Indexed_1 ColorStrokeBlack" data-item-index="1" data-renderer-id="0" transform="translate(4.00048828125, 147.99996948242188)"><g id="robo_1unev2c1tt093d-stroke" fill="none" stroke-linecap="round" stroke-linejoin="round" stroke-miterlimit="4" stroke="#484848" stroke-width="2"><g><path d="M 22 11C 30 11.2 38 10.4 46 11C 46 11 48.799999 11 49 14C 49.400002 18 48.799999 22 49 26C 49 26 48.799999 30 46 29C 38.400002 26.4 29.6 31.4 22 29C 22 29 18.4 29 19 26C 19.799999 22 19.200001 18 19 14C 19 14 19 11.6 22 11M 23 20C 23 21.6 24.4 23.6 26 23C 27.6 22.4 29.200001 21.6 29 20C 28.799999 18.4 27.6 16.799999 26 17C 24.4 17.200001 23.6 18.4 23 20M 39 20C 38.400002 21.6 40.400002 23.6 42 23C 43.599998 22.4 45.400002 21.6 45 20C 44.599998 18.4 43.599998 16.6 42 17C 40.400002 17.4 39.200001 18.4 39 20M 31 33C 32.799999 32.200001 35 33.200001 37 33M 31 37C 33 36.799999 35 37 37 37M 40.599998 41C 36.200001 40.799999 31.799999 41 27.4 41C 25.200001 41 23.4 42.400002 21.6 43.799999C 19.799999 45.200001 19.4 47.799999 20.200001 49.799999C 20.200001 52 20.6 54.200001 21.200001 56.200001C 21.200001 56.599998 21.6 57 22 57C 30 56.599998 38.200001 58.200001 46 57C 46.400002 57 46.799999 56.599998 47 56.200001C 47.400002 54.200001 47.200001 51.799999 48 49.799999C 48.400002 47.599998 47.599998 45.599998 46.400002 43.599998C 45.200001 41.799999 43 41.200001 40.599998 41M 48 47.599998C 49.400002 46.799999 50.400002 45.599998 51.400002 44.400002C 54 43.200001 55.200001 39.599998 54 37M 56 29C 56.799999 30.799999 57.599998 32.799999 56.400002 34.200001C 55.400002 35.799999 53.799999 37.599998 52 37C 50.400002 36.599998 49.200001 35.799999 48 35M 20 47.599998C 18.799999 46.599998 17.799999 45.200001 16.6 44.400002C 14.4 42.599998 13.8 39.799999 14 37C 14 36.799999 14 36.799999 14 36.599998M 12 29C 10.6 30.4 10.6 32.599998 11.6 34.200001C 12.6 35.799999 14.2 37.400002 16 37C 17.6 36.799999 19.200001 36.400002 20 35M 42 57C 42 54 41 50.799999 42 48C 42.200001 47.400002 41.599998 47 41 47C 36.400002 47 31.4 45.599998 27 47C 26.4 47.200001 26 47.400002 26 48C 26.200001 51 26.200001 54 26 57"></path><path d="M 22 11L 46 11C 46 11 49 11 49 14L 49 26C 49 26 49 29 46 29L 22 29C 22 29 19 29 19 26L 19 14C 19 14 19 11 22 11M 23 20C 23 21.656855 24.343147 23 26 23C 27.656855 23 29 21.656855 29 20C 29 18.343147 27.656855 17 26 17C 24.343147 17 23 18.343147 23 20M 39 20C 39 21.656855 40.343147 23 42 23C 43.656857 23 45 21.656855 45 20C 45 18.343147 43.656857 17 42 17C 40.343147 17 39 18.343147 39 20M 31 33L 37 33M 31 37L 37 37M 40.68 41L 27.32 41C 25.107628 40.998844 23.01342 41.998344 21.622852 43.719078C 20.232283 45.439812 19.694555 47.697144 20.16 49.860004L 21.1 56.200001C 21.187756 56.670036 21.60191 57.008121 22.08 57L 46 57C 46.478088 57.008121 46.892246 56.670036 46.98 56.200001L 47.919998 49.860001C 48.388565 47.683365 47.840996 45.411789 46.432152 43.687706C 45.023304 41.963623 42.906357 40.974472 40.68 41ZM 48 47.560001L 51.419998 44.34C 53.624912 42.596592 54.62915 39.739578 54.000004 37L 54 36.620003M 56 29C 57.136318 30.515089 57.319096 32.542149 56.472137 34.236069C 55.625175 35.929989 53.89386 37 52 37C 50.425468 37.003166 48.942188 36.261524 48 35M 20 47.560001L 16.619999 44.34C 14.400293 42.606178 13.379891 39.747494 14 37L 14 36.599998M 12 29C 10.863684 30.515089 10.680904 32.542149 11.527864 34.236069C 12.374825 35.929989 14.10614 37 16 37C 17.574532 37.003166 19.057812 36.261524 20 35M 42 57L 42 48C 42 47.447716 41.552284 47 41 47L 27 47C 26.447716 47 26 47.447716 26 48L 26 57"></path></g></g></g><g id="g-root-tx_humanlev_v9umro1tsuk1t-stroke" data-item-order="0" data-item-id="tx_humanlev_v9umro1tsuk1t" data-item-class="Label Stroke SceneTarget Indexed Indexed_1 ColorStrokeBlack" data-item-index="1" data-renderer-id="0" transform="translate(64.00048828125, 147.99996948242188)"></g><g id="g-root-plan_1hapeis1tt08i7-stroke" data-item-order="0" data-item-id="plan_1hapeis1tt08i7" data-item-class="Icon Stroke SceneTarget Indexed ColorStrokeBlack" data-item-index="101" data-renderer-id="0" transform="translate(304.00048828125, 147.99996948242188)"><g id="plan_1hapeis1tt08i7-stroke" fill="none" stroke-linecap="round" stroke-linejoin="round" stroke-miterlimit="4" stroke="#484848" stroke-width="2"><g><path d="M 24.6 33.599998C 20.799999 33.799999 17.200001 34 13.6 33.599998C 12.4 33.400002 11.4 34.400002 11.6 35.599998C 12.4 41.799999 13 48.400002 11.6 54.599998C 11.2 55.599998 12.4 56.599998 13.6 56.599998C 27.200001 56.599998 40.799999 56.599998 54.599998 56.599998C 55.599998 56.400002 56.599998 55.599998 56.599998 54.599998C 56.599998 48.200001 58 41.599998 56.599998 35.599998C 56.200001 34.400002 55.599998 33.599998 54.599998 33.599998C 50.799999 33.400002 47 32.799999 43.599998 33.599998M 15 26.6C 17.6 26.4 20 25.799999 22.6 26.6C 22.6 28.799999 23.200001 31.200001 22.6 33.599998C 20 32.799999 17.4 32.799999 15 33.599998C 14.6 31.200001 15 28.799999 15 26.6M 24.6 26.6C 20.6 26.200001 16.799999 27.200001 13 26.6M 24.6 22.6C 20.6 23 16.799999 22.799999 13 22.6M 24.6 14.6C 20.6 14.4 16.6 16 13 14.6M 18.4 14.6C 18.200001 13.6 18.4 12.6 18.4 11.6M 44.599998 26.6C 47.400002 26.6 50.200001 26.200001 53 26.6C 53.400002 28.799999 52.799999 31.200001 53 33.599998C 50.200001 34.200001 47.200001 34.200001 44.599998 33.599998C 44.799999 31.200001 45.200001 28.799999 44.599998 26.6M 42.599998 26.6C 46.599998 25.799999 50.799999 26 55 26.6M 42.599998 22.6C 46.599998 23.4 51 24 55 22.6M 24.6 18.6C 20.6 18.799999 16.799999 18.4 13 18.6M 42.599998 18.6C 46.400002 17.200001 50.799999 18.6 55 18.6M 42.599998 14.6C 46.599998 14.8 50.799999 15 55 14.6M 48.799999 14.6C 48.599998 13.6 49 12.4 48.799999 11.6M 31.4 30C 34.200001 30.200001 37.200001 30.4 40.200001 30C 39 32.400002 38.200001 34.799999 36.599998 37.200001C 38.400002 37.599998 40.200001 37.599998 42 37.200001C 38.200001 42.200001 34.799999 47.799999 29.6 51.400002C 29.6 47.799999 31.200001 44.200001 31.4 40.599998C 29.6 40.200001 27.6 41.400002 26 40.599998C 27 36.799999 28.4 32.799999 31.4 30"></path><path d="M 24.5 33.5L 13.5 33.5C 12.395431 33.5 11.5 34.395432 11.5 35.5L 11.5 54.5C 11.5 55.604568 12.395431 56.5 13.5 56.5L 54.5 56.5C 55.604568 56.5 56.5 55.604568 56.5 54.5L 56.5 35.5C 56.5 34.395432 55.604568 33.5 54.5 33.5L 43.5 33.5M 15 26.5L 22.5 26.5L 22.5 33.5L 15 33.5ZM 24.5 26.5L 13 26.5M 24.5 22.5L 13 22.5M 24.5 14.5L 13 14.5M 18.458 14.5L 18.458 11.5M 44.5 26.5L 53 26.5L 53 33.5L 44.5 33.5ZM 42.5 26.5L 55 26.5M 42.5 22.5L 55 22.5M 24.5 18.5L 13 18.5M 42.5 18.5L 55 18.5M 42.5 14.5L 55 14.5M 48.75 14.5L 48.75 11.5M 31.334 30L 40.222 30L 36.666 37.112L 42 37.112L 29.556 51.334L 31.334 40.666L 26 40.666L 31.334 30Z"></path></g></g></g><g id="g-root-tx_resource_1hgboas1tsuk27-stroke" data-item-order="0" data-item-id="tx_resource_1hgboas1tsuk27" data-item-class="Label Stroke SceneTarget Indexed ColorStrokeBlack" data-item-index="101" data-renderer-id="0" transform="translate(364.00048828125, 147.99996948242188)"></g><g id="g-root-flyi_18fovd01tt06ww-stroke" data-item-order="0" data-item-id="flyi_18fovd01tt06ww" data-item-class="Icon Stroke SceneTarget Indexed ColorStrokeBlack" data-item-index="2" data-renderer-id="0" transform="translate(4.00048828125, 231.99996948242188)"><g id="flyi_18fovd01tt06ww-stroke" fill="none" stroke-linecap="round" stroke-linejoin="round" stroke-miterlimit="4" stroke="#484848" stroke-width="2"><g><path d="M 21.6 39.400002C 21.6 39.400002 44 17.799999 44.799999 16C 45.799999 14 51.799999 14 54 12.8C 54.400002 12.6 54.799999 12.8 55 13C 55 13.4 55.400002 13.6 55.200001 14C 54 16.200001 53.799999 21.799999 52 23.200001C 43 29.6 37.200001 39.400002 28.6 46.400002C 27.200001 43.400002 23.6 42 21.6 39.400002M 24.4 36.599998C 27.200001 38.400002 29.4 41 31.4 43.599998M 39.200001 35.799999C 39.200001 39 38.200001 42 38.599998 45C 38.200001 46.799999 36.799999 48 35.599998 49.200001C 34.200001 51.200001 32.599998 53 30.6 54.400002C 30.200001 54.599998 29.799999 54.799999 29.6 54.400002C 29.200001 54.200001 29 54 29 53.400002C 29 50.599998 29.799999 48 30 45.200001M 32.200001 28.799999C 29.200001 28.200001 26 28.799999 23 29.4C 21.4 30.200001 19.6 30.799999 18.799999 32.200001C 17.6 34.400002 15.6 36 13.8 37.400002C 13.4 37.599998 13.4 38 13.6 38.400002C 13.6 38.799999 14.2 39 14.6 39C 17.4 38.599998 20.200001 38.400002 23 38M 24.4 46.400002C 25.6 48 25.4 50 23.6 51.400002C 22 52.599998 16.6 53.799999 14 55.200001C 13.8 55.400002 13.4 55.200001 13 55C 12.8 54.799999 12.6 54.200001 12.8 54C 14.2 51.599998 15.4 46 16.6 44.400002C 18 42.599998 19.799999 42.799999 21.6 43.599998"></path><path d="M 21.582001 39.400002C 21.582001 39.400002 43.472 17.444 44.888 16.030001C 46.458 14.458 51.523998 13.274 54.043999 12.766C 54.37233 12.699766 54.712013 12.802306 54.948853 13.039146C 55.185696 13.275987 55.288235 13.615671 55.222 13.944C 54.714001 16.464001 53.529999 21.528 51.958 23.1L 28.622 46.433998ZM 24.402 36.548L 31.454 43.605999M 39.23 35.830002C 39.321178 38.913017 39.084518 41.996994 38.524002 45.029999C 37.855339 46.610199 36.894535 48.050053 35.692001 49.273998L 30.658001 54.299999C 30.357079 54.602615 29.897272 54.680916 29.513153 54.494949C 29.129036 54.308983 28.905264 53.899742 28.955999 53.476002L 29.934 45.124001M 32.158001 28.757999C 29.060625 28.643494 25.959858 28.858704 22.907999 29.4C 21.343803 30.091291 19.924255 31.071812 18.723999 32.290001L 13.704 37.307999C 13.40167 37.609871 13.324507 38.070465 13.51195 38.454384C 13.699392 38.838303 14.110033 39.060738 14.534 39.007999L 22.934 37.98M 24.380001 46.433998C 25.796 47.848 25.206001 49.852001 23.674 51.386002C 22.24 52.818001 16.804001 54.452 14.021999 55.216C 13.67918 55.305801 13.314437 55.207455 13.063231 54.957485C 12.812027 54.707512 12.711885 54.343258 12.8 54C 13.556 51.209999 15.174 45.757999 16.6 44.321999C 18.153999 42.77 20.138 42.202 21.552 43.616001"></path></g></g></g><g id="g-root-tx_highimpa_18koo1w1tsulmo-stroke" data-item-order="0" data-item-id="tx_highimpa_18koo1w1tsulmo" data-item-class="Label Stroke SceneTarget Indexed ColorStrokeBlack" data-item-index="2" data-renderer-id="0" transform="translate(64.00048828125, 231.99996948242188)"></g><g id="g-root-1_8zj5w1tsytj9-stroke" data-item-order="0" data-item-id="1_8zj5w1tsytj9" data-item-class="Icon Stroke SceneTarget Indexed ColorStrokeBlack" data-item-index="102" data-renderer-id="0" transform="translate(304.00048828125, 231.99996948242188)"><g id="1_8zj5w1tsytj9-stroke" fill="none" stroke-linecap="round" stroke-linejoin="round" stroke-miterlimit="4" stroke="#484848" stroke-width="2"><g><path d="M 11.714286 40.857143C 8.628572 48.742859 18.571428 55.257141 27.142857 56.285713C 35.714287 57.314285 40.857143 49.085712 42.57143 40.857143C 44.285713 32.628571 35.714287 25.771429 27.142857 25.428572C 18.571428 25.085714 12.057143 32.285713 11.714286 40.857143M 12.742857 46.685715C 14.114285 47.028572 15.828571 47.028572 17.199999 46.685715C 19.257143 46.342857 21.314285 44.971428 21.314285 42.57143C 21.314285 41.542858 20.971428 40.514286 21.314285 39.142857C 21.314285 38.114285 22 37.085716 22.342857 36.057144C 23.028572 35.371429 24.4 35.028572 25.428572 35.028572C 27.485714 34.342857 29.542856 32.971428 29.542856 30.914286C 29.542856 29.200001 28.857143 27.142857 29.542856 25.771429M 42.57143 40.514286C 41.885715 39.485718 40.171429 39.485718 38.799999 39.828571C 37.085716 39.828571 35.371429 39.828571 33.657143 39.828571C 31.6 39.828571 30.571428 41.885715 29.885715 43.942856C 29.200001 46 31.6 48.742859 33.657143 48.057144C 34.342857 48.057144 35.028572 48.400002 35.714287 48.742859C 36.399998 49.085712 36.399998 50.114285 36.742859 50.799999C 36.742859 51.485718 36.742859 52.514286 36.742859 52.857143M 36.742859 19.257143C 37.771431 18.571428 38.457146 17.542858 39.485718 16.857143C 40.857143 15.828571 41.200001 14.457143 41.542858 12.742857C 41.542858 12.4 41.885715 12.057143 42.228569 11.714286C 42.57143 11.714286 42.914288 11.714286 43.257141 11.714286C 48.400002 14.8 49.771431 20.971428 50.114285 26.800001C 51.485718 25.771429 52.857143 25.085714 54.228569 24.057142C 54.57143 24.057142 54.914288 23.714287 55.257141 24.057142C 55.600002 24.057142 55.600002 24.4 55.942856 24.742859C 58.685715 28.857143 54.57143 33.657143 52.171429 38.457146"></path><path d="M 11.714286 40.857143C 11.714286 49.378105 18.621893 56.285713 27.142857 56.285713C 35.663822 56.285713 42.57143 49.378105 42.57143 40.857143C 42.57143 32.336178 35.663822 25.428572 27.142857 25.428572C 18.621893 25.428572 11.714286 32.336178 11.714286 40.857143M 12.88 46.78857L 17.062857 46.78857C 19.35405 46.788574 21.21143 44.931194 21.21143 42.640003L 21.211428 39.21143C 21.174257 38.087593 21.594872 36.996811 22.376945 36.188885C 23.159018 35.380959 24.235554 34.925102 25.360001 34.925716C 27.651194 34.925716 29.508572 33.068336 29.508572 30.777145L 29.508572 25.6M 42.57143 40.617146C 41.383408 40.003128 40.068634 39.674431 38.73143 39.657146L 33.657143 39.657143C 31.502474 39.852821 29.852598 41.659321 29.852598 43.822857C 29.852598 45.986397 31.502474 47.792892 33.657143 47.988571C 34.445076 47.979408 35.203896 48.286011 35.764297 48.839973C 36.324699 49.393932 36.640053 50.149158 36.639999 50.937141L 36.639999 53.028572M 36.880001 19.085714C 37.729851 18.280682 38.634914 17.536011 39.588573 16.857143C 40.894585 15.886486 41.638447 14.334636 41.577145 12.708571C 41.576141 12.331438 41.788593 11.986201 42.125713 11.817142C 42.444706 11.593494 42.869583 11.593494 43.188572 11.817143C 47.88895 15.369393 50.470062 21.060753 50.045715 26.937143C 51.541683 26.201958 52.945675 25.292814 54.228569 24.228571C 54.472744 23.965153 54.836643 23.848185 55.188572 23.92C 55.53215 24.027355 55.801216 24.296419 55.908569 24.639999C 57.555542 29.559769 56.049553 34.986759 52.102856 38.354286"></path></g></g></g><g id="g-root-tx_environm_hwip501tsummd-stroke" data-item-order="0" data-item-id="tx_environm_hwip501tsummd" data-item-class="Label Stroke SceneTarget Indexed ColorStrokeBlack" data-item-index="102" data-renderer-id="0" transform="translate(364.00048828125, 231.99996948242188)"></g></g></g></svg>