<?xml version="1.0" encoding="utf-8" standalone="yes"?>
<!DOCTYPE svg PUBLIC "-//W3C//DTD SVG 1.1//EN" "http://www.w3.org/Graphics/SVG/1.1/DTD/svg11.dtd">
<svg width="684" height="170" viewBox="0 0 684 170" style="fill:none;stroke:none;fill-rule:evenodd;clip-rule:evenodd;stroke-linecap:round;stroke-linejoin:round;stroke-miterlimit:1.5;" version="1.1" xmlns="http://www.w3.org/2000/svg" xmlns:xlink="http://www.w3.org/1999/xlink"><style id="fontImports">@import url("https://fonts.googleapis.com/css2?family=Roboto:wght@400;700&amp;display=block");</style><rect id="" x="0" y="0" width="684" height="170" style="fill: #ffffff;"></rect><g id="items" style="isolation: isolate"><g id="blend" style="mix-blend-mode:multiply"><g id="g-root-0.Vector_sy_hvw82s1tj4uf5-fill" data-item-order="-58696" data-item-id="0.Vector_sy_hvw82s1tj4uf5" data-item-class="ScenePart Part Indexed_0 Fill Stroke ColorFillBlack ColorStrokeBlack" data-item-index="0" data-renderer-id="0" transform="translate(278, 3)"><g id="0.Vector_sy_hvw82s1tj4uf5-fill" stroke="none" fill="#666666"><g><path d="M 154 81.999998C 154 42.235998 121.765 9.999998 82 9.999998C 42.236 9.999998 10 42.235998 10 81.999998C 10 121.764998 42.236 153.999998 82 153.999998C 121.764 153.999998 154 121.764998 154 81.999998Z"></path></g></g></g><g id="g-root-2.Vector_sy_1uqj8is1tj4tfv-fill" data-item-order="-58694" data-item-id="2.Vector_sy_1uqj8is1tj4tfv" data-item-class="ScenePart Part Indexed Fill Stroke ColorStrokeBlack" data-item-index="2" data-renderer-id="0" transform="translate(146, 39.00396728515625)"><g id="2.Vector_sy_1uqj8is1tj4tfv-fill" stroke="none" fill="#e15e5a"><g><path d="M 107.735 58.893L 121.701 46L 107.735 33.108L 107.735 40.284L 81.549 40.284C 78.81 23.118 63.937 10 46 10C 26.118 10 10 26.118 10 46C 10 65.882 26.118 82 46 82C 63.912 82 78.769 68.918 81.537 51.788L 107.735 51.788L 107.735 58.893Z"></path></g></g></g><g id="g-root-1.Vector_sy_4l26sk1tj4sua-fill" data-item-order="-58692" data-item-id="1.Vector_sy_4l26sk1tj4sua" data-item-class="ScenePart Part Indexed Indexed_1 Fill Stroke ColorStrokeBlack" data-item-index="1" data-renderer-id="0" transform="translate(442, 39.00396728515625)"><g id="1.Vector_sy_4l26sk1tj4sua-fill" stroke="none" fill="#3bc482"><g><path d="M 23.965 58.893L 10 46L 23.965 33.108L 23.965 40.284L 50.089 40.284C 52.828 23.118 67.701 10 85.638 10C 105.52 10 121.638 26.118 121.638 46C 121.638 65.882 105.52 82 85.638 82C 67.726 82 52.869 68.918 50.1 51.788L 23.965 51.788L 23.965 58.893Z"></path></g></g></g><g id="g-root-netw_18gawit1tiwdts-fill" data-item-order="0" data-item-id="netw_18gawit1tiwdts" data-item-class="Icon Stroke SceneTarget SceneEnd InsideFill InsideColorFill InsideBlackFill ColorStrokeBlack" data-item-index="none" data-renderer-id="0" transform="translate(314, 39)"></g><g id="g-root-tx_discrimi_1czvp441tj4sn8-fill" data-item-order="0" data-item-id="tx_discrimi_1czvp441tj4sn8" data-item-class="Label Stroke SceneTarget Indexed ColorStrokeBlack" data-item-index="2" data-renderer-id="0" transform="translate(2, 63.00396728515625)"><g id="tx_discrimi_1czvp441tj4sn8-fill" stroke="none" fill="#666666"><g><text style="font: 20px Roboto, sans-serif; white-space: pre;"><tspan x="20.82" y="33.75" dominant-baseline="ideographic">Discriminator</tspan></text></g></g></g><g id="g-root-2_qvw7511tt4fet-fill" data-item-order="0" data-item-id="2_qvw7511tt4fet" data-item-class="Icon Stroke SceneTarget Indexed InsideFill InsideColorFill ColorStrokeBlack" data-item-index="2" data-renderer-id="0" transform="translate(158, 51.00396728515625)"></g><g id="g-root-1_1qa3ch01tio07a-fill" data-item-order="0" data-item-id="1_1qa3ch01tio07a" data-item-class="Icon Stroke SceneTarget Indexed Indexed_1 InsideFill InsideColorFill ColorStrokeBlack" data-item-index="1" data-renderer-id="0" transform="translate(494, 51.00396728515625)"></g><g id="g-root-tx_generato_zof6qs1tj4u85-fill" data-item-order="0" data-item-id="tx_generato_zof6qs1tj4u85" data-item-class="Label Stroke SceneTarget Indexed Indexed_1 ColorStrokeBlack" data-item-index="1" data-renderer-id="0" transform="translate(566, 63.00396728515625)"><g id="tx_generato_zof6qs1tj4u85-fill" stroke="none" fill="#666666"><g><text style="font: 20px Roboto, sans-serif; white-space: pre;"><tspan x="12" y="33.75" dominant-baseline="ideographic">Generator</tspan></text></g></g></g><g id="g-root-0.Vector_sy_hvw82s1tj4uf5-stroke" data-item-order="-58696" data-item-id="0.Vector_sy_hvw82s1tj4uf5" data-item-class="ScenePart Part Indexed_0 Fill Stroke ColorFillBlack ColorStrokeBlack" data-item-index="0" data-renderer-id="0" transform="translate(278, 3)"><g id="0.Vector_sy_hvw82s1tj4uf5-stroke" fill="none" stroke-linecap="round" stroke-linejoin="round" stroke-miterlimit="4" stroke="#2c2c2c" stroke-width="2"><g><path d="M 154 81.999998C 154 42.235998 121.765 9.999998 82 9.999998C 42.236 9.999998 10 42.235998 10 81.999998C 10 121.764998 42.236 153.999998 82 153.999998C 121.764 153.999998 154 121.764998 154 81.999998Z"></path></g></g></g><g id="g-root-2.Vector_sy_1uqj8is1tj4tfv-stroke" data-item-order="-58694" data-item-id="2.Vector_sy_1uqj8is1tj4tfv" data-item-class="ScenePart Part Indexed Fill Stroke ColorStrokeBlack" data-item-index="2" data-renderer-id="0" transform="translate(146, 39.00396728515625)"><g id="2.Vector_sy_1uqj8is1tj4tfv-stroke" fill="none" stroke-linecap="round" stroke-linejoin="round" stroke-miterlimit="4" stroke="#2c2c2c" stroke-width="2"><g><path d="M 107.735 58.893L 121.701 46L 107.735 33.108L 107.735 40.284L 81.549 40.284C 78.81 23.118 63.937 10 46 10C 26.118 10 10 26.118 10 46C 10 65.882 26.118 82 46 82C 63.912 82 78.769 68.918 81.537 51.788L 107.735 51.788L 107.735 58.893Z"></path></g></g></g><g id="g-root-1.Vector_sy_4l26sk1tj4sua-stroke" data-item-order="-58692" data-item-id="1.Vector_sy_4l26sk1tj4sua" data-item-class="ScenePart Part Indexed Indexed_1 Fill Stroke ColorStrokeBlack" data-item-index="1" data-renderer-id="0" transform="translate(442, 39.00396728515625)"><g id="1.Vector_sy_4l26sk1tj4sua-stroke" fill="none" stroke-linecap="round" stroke-linejoin="round" stroke-miterlimit="4" stroke="#2c2c2c" stroke-width="2"><g><path d="M 23.965 58.893L 10 46L 23.965 33.108L 23.965 40.284L 50.089 40.284C 52.828 23.118 67.701 10 85.638 10C 105.52 10 121.638 26.118 121.638 46C 121.638 65.882 105.52 82 85.638 82C 67.726 82 52.869 68.918 50.1 51.788L 23.965 51.788L 23.965 58.893Z"></path></g></g></g><g id="g-root-netw_18gawit1tiwdts-stroke" data-item-order="0" data-item-id="netw_18gawit1tiwdts" data-item-class="Icon Stroke SceneTarget SceneEnd InsideFill InsideColorFill InsideBlackFill ColorStrokeBlack" data-item-index="none" data-renderer-id="0" transform="translate(314, 39)"><g id="netw_18gawit1tiwdts-stroke" fill="none" stroke-linecap="round" stroke-linejoin="round" stroke-miterlimit="4" stroke="#2c2c2c" stroke-width="2"><g><path d="M 11.608 45.993999C 11.608001 65.047829 27.054176 80.494003 46.108002 80.494003C 65.161827 80.494003 80.608002 65.047829 80.608002 45.993999C 80.608002 26.940178 65.161827 11.494 46.108002 11.494C 27.054176 11.494 11.608001 26.940178 11.608001 45.993999ZM 29.608 33.243999C 29.608002 36.971924 32.630077 39.993999 36.358002 39.993999C 40.085922 39.993999 43.108002 36.971924 43.108002 33.243999C 43.108002 29.516077 40.085922 26.493999 36.358002 26.493999C 32.630077 26.493999 29.608002 29.516077 29.608002 33.243999ZM 49.108002 63.243996C 49.108002 65.315071 50.786934 66.994003 52.858002 66.994003C 54.92907 66.994003 56.608002 65.315071 56.608002 63.244003C 56.608002 61.172932 54.92907 59.494003 52.858002 59.494003C 50.786934 59.494003 49.108002 61.172932 49.108002 63.244003ZM 61.107998 40.743999C 61.108002 43.643494 63.458504 45.993999 66.358002 45.993999C 69.257492 45.993999 71.608002 43.643494 71.608002 40.743999C 71.608002 37.844505 69.257492 35.493999 66.358002 35.493999C 63.458504 35.493999 61.108002 37.844505 61.108002 40.743999ZM 43.108002 32.5C 49.814377 32.755466 56.204361 35.417957 61.107998 40M 67.404999 45.891998L 68.604996 47.493999C 68.604996 47.493999 73.104996 53.493999 73.104996 66.993996M 60.576996 14.665L 61.107998 16C 63.279533 22.432775 64.295197 29.199165 64.108002 35.986M 62.607998 44.5C 62.232239 50.69566 59.999275 56.634548 56.199997 61.542999M 51.063999 66.538002L 50.608002 67C 50.608002 67 43.108002 74.5 26.608 74.5M 46.108002 11.5C 42.003769 15.889752 38.703506 20.967079 36.357998 26.499998M 32.854 39.015999L 32.607998 40C 30.97344 48.113449 32.026577 56.538551 35.608002 64C 40.708 74.218002 53.608002 79 53.608002 79L 54.727001 79.417M 29.608 33.243999C 29.608 33.243999 18.1 34.069 12.283 39.162998M 12.448 53.596001L 13.108 53.493999C 13.108 53.493999 33.750999 50.32 50.529999 60.304001"></path></g></g></g><g id="g-root-tx_discrimi_1czvp441tj4sn8-stroke" data-item-order="0" data-item-id="tx_discrimi_1czvp441tj4sn8" data-item-class="Label Stroke SceneTarget Indexed ColorStrokeBlack" data-item-index="2" data-renderer-id="0" transform="translate(2, 63.00396728515625)"></g><g id="g-root-2_qvw7511tt4fet-stroke" data-item-order="0" data-item-id="2_qvw7511tt4fet" data-item-class="Icon Stroke SceneTarget Indexed InsideFill InsideColorFill ColorStrokeBlack" data-item-index="2" data-renderer-id="0" transform="translate(158, 51.00396728515625)"><g id="2_qvw7511tt4fet-stroke" fill="none" stroke-linecap="round" stroke-linejoin="round" stroke-miterlimit="4" stroke="#2c2c2c" stroke-width="2"><g><path d="M 56.285713 11.714286L 11.714286 11.714286L 28.857143 35.714287L 28.857143 56.285713L 39.142857 49.428574L 39.142857 35.714287L 56.285713 11.714286Z"></path></g></g></g><g id="g-root-1_1qa3ch01tio07a-stroke" data-item-order="0" data-item-id="1_1qa3ch01tio07a" data-item-class="Icon Stroke SceneTarget Indexed Indexed_1 InsideFill InsideColorFill ColorStrokeBlack" data-item-index="1" data-renderer-id="0" transform="translate(494, 51.00396728515625)"><g id="1_1qa3ch01tio07a-stroke" fill="none" stroke-linecap="round" stroke-linejoin="round" stroke-miterlimit="4" stroke="#2c2c2c" stroke-width="2"><g><path d="M 11.5 52.015999C 11.5 54.777424 13.738576 57.015999 16.5 57.015999L 51.5 57.015999C 54.261425 57.015999 56.5 54.777424 56.5 52.015999C 56.5 49.254578 54.261425 47.015999 51.5 47.015999L 16.5 47.015999C 13.738576 47.015999 11.5 49.254578 11.5 52.015999ZM 49.335999 47.016003L 31.336002 47.016003L 31.336002 32.066002L 49.335999 32.066002ZM 37.335999 32.080002L 43.335999 32.080002L 43.335999 38.080002L 37.335999 38.080002ZM 48 52.015999C 48 52.568283 48.447716 53.015999 49 53.015999C 49.552284 53.015999 50 52.568283 50 52.015999C 50 51.463715 49.552284 51.015999 49 51.015999C 48.447716 51.015999 48 51.463715 48 52.015999M 38 52.015999C 38 52.568283 38.447716 53.015999 39 53.015999C 39.552284 53.015999 40 52.568283 40 52.015999C 40 51.463715 39.552284 51.015999 39 51.015999C 38.447716 51.015999 38 51.463715 38 52.015999M 27.916 52.015999C 27.916 52.568283 28.363716 53.015999 28.916 53.015999C 29.468285 53.015999 29.916 52.568283 29.916 52.015999C 29.916 51.463715 29.468285 51.015999 28.916 51.015999C 28.363716 51.015999 27.916 51.463715 27.916 52.015999M 17.916 52.015999C 17.916 52.568283 18.363716 53.015999 18.916 53.015999C 19.468285 53.015999 19.916 52.568283 19.916 52.015999C 19.916 51.463715 19.468285 51.015999 18.916 51.015999C 18.363716 51.015999 17.916 51.463715 17.916 52.015999M 14.096001 19.695999L 52.034 19.695999M 24.136 10.984L 14.096001 19.695999L 24.136 28.406"></path></g></g></g><g id="g-root-tx_generato_zof6qs1tj4u85-stroke" data-item-order="0" data-item-id="tx_generato_zof6qs1tj4u85" data-item-class="Label Stroke SceneTarget Indexed Indexed_1 ColorStrokeBlack" data-item-index="1" data-renderer-id="0" transform="translate(566, 63.00396728515625)"></g></g></g></svg>