<?xml version="1.0" encoding="utf-8" standalone="yes"?>
<!DOCTYPE svg PUBLIC "-//W3C//DTD SVG 1.1//EN" "http://www.w3.org/Graphics/SVG/1.1/DTD/svg11.dtd">
<svg width="542" height="399" viewBox="0 0 542 399" style="fill:none;stroke:none;fill-rule:evenodd;clip-rule:evenodd;stroke-linecap:round;stroke-linejoin:round;stroke-miterlimit:1.5;" version="1.1" xmlns="http://www.w3.org/2000/svg" xmlns:xlink="http://www.w3.org/1999/xlink"><style id="fontImports">@import url("https://fonts.googleapis.com/css2?family=Roboto:wght@400;700&amp;display=block");</style><rect id="" x="0" y="0" width="541" height="398" style="fill: #ffffff;"></rect><g id="items" style="isolation: isolate"><g id="blend" style="mix-blend-mode:multiply"><g id="g-root-3.cu_sy_vb3kv71u2u6me-fill" data-item-order="-187483" data-item-id="3.cu_sy_vb3kv71u2u6me" data-item-class="ScenePart Part Indexed Stroke" data-item-index="3" data-renderer-id="0" transform="translate(3, 110.99899291992188)"></g><g id="g-root-2.cu_sy_vb3kv71u2u6md-fill" data-item-order="-187481" data-item-id="2.cu_sy_vb3kv71u2u6md" data-item-class="ScenePart Part Indexed Stroke" data-item-index="2" data-renderer-id="0" transform="translate(255.00048828125, 3)"></g><g id="g-root-1.cu_sy_zqx2zn1u2u5u4-fill" data-item-order="-187480" data-item-id="1.cu_sy_zqx2zn1u2u5u4" data-item-class="ScenePart Part Indexed Indexed_1 Fill Stroke" data-item-index="1" data-renderer-id="0" transform="translate(225.00048828125, 27)"><g id="1.cu_sy_zqx2zn1u2u5u4-fill" stroke="none" fill="#f0f0f0"><g><path d="M 10 34L 28 10L 28 18L 52 18L 52 10L 70 34L 52 58L 52 50L 28 50L 28 58L 10 34Z"></path></g></g></g><g id="g-root-tx_pros_1q87tyb1u2vkld-fill" data-item-order="0" data-item-id="tx_pros_1q87tyb1u2vkld" data-item-class="Label Stroke SceneTarget" data-item-index="none" data-renderer-id="0" transform="translate(63.00048828125, 39.000030517578125)"><g id="tx_pros_1q87tyb1u2vkld-fill" stroke="none" fill="#484848"><g><text style="font: 20px Roboto, sans-serif; white-space: pre;"><tspan x="12" y="33.75" dominant-baseline="ideographic">Pros</tspan></text></g></g></g><g id="g-root-tx_cons_1uo1c2r1u2vjt4-fill" data-item-order="0" data-item-id="tx_cons_1uo1c2r1u2vjt4" data-item-class="Label Stroke SceneTarget" data-item-index="none" data-renderer-id="0" transform="translate(363.00048828125, 39.000030517578125)"><g id="tx_cons_1uo1c2r1u2vjt4-fill" stroke="none" fill="#484848"><g><text style="font: 20px Roboto, sans-serif; white-space: pre;"><tspan x="12" y="33.75" dominant-baseline="ideographic">Cons</tspan></text></g></g></g><g id="g-root-pain_djtkdf1u2vmdr-fill" data-item-order="0" data-item-id="pain_djtkdf1u2vmdr" data-item-class="Icon Stroke SceneTarget Indexed Indexed_1" data-item-index="1" data-renderer-id="0" transform="translate(3.00048828125, 147.00003051757812)"></g><g id="g-root-tx_creative_24b4z1u2vmdr-fill" data-item-order="0" data-item-id="tx_creative_24b4z1u2vmdr" data-item-class="Label Stroke SceneTarget Indexed Indexed_1" data-item-index="1" data-renderer-id="0" transform="translate(63.00048828125, 147.00003051757812)"><g id="tx_creative_24b4z1u2vmdr-fill" stroke="none" fill="#484848"><g><text style="font: 20px Roboto, sans-serif; white-space: pre;"><tspan x="12" y="33.75" dominant-baseline="ideographic">Creative </tspan><tspan x="12" y="57.75" dominant-baseline="ideographic">possibilities</tspan></text></g></g></g><g id="g-root-trad_1umsdxf1tt07b7-fill" data-item-order="0" data-item-id="trad_1umsdxf1tt07b7" data-item-class="Icon Stroke SceneTarget Indexed" data-item-index="101" data-renderer-id="0" transform="translate(303.00048828125, 147.00003051757812)"></g><g id="g-root-tx_copyrigh_13zvd5v1u2vkss-fill" data-item-order="0" data-item-id="tx_copyrigh_13zvd5v1u2vkss" data-item-class="Label Stroke SceneTarget Indexed" data-item-index="101" data-renderer-id="0" transform="translate(363.00048828125, 147.00003051757812)"><g id="tx_copyrigh_13zvd5v1u2vkss-fill" stroke="none" fill="#484848"><g><text style="font: 20px Roboto, sans-serif; white-space: pre;"><tspan x="12" y="33.75" dominant-baseline="ideographic">Copyright </tspan><tspan x="12" y="57.75" dominant-baseline="ideographic">infringement</tspan></text></g></g></g><g id="g-root-3_mfgkmb1u2vll2-fill" data-item-order="0" data-item-id="3_mfgkmb1u2vll2" data-item-class="Icon Stroke SceneTarget Indexed" data-item-index="2" data-renderer-id="0" transform="translate(3.00048828125, 231.00003051757812)"></g><g id="g-root-tx_enhanced_ddktib1u2vksu-fill" data-item-order="0" data-item-id="tx_enhanced_ddktib1u2vksu" data-item-class="Label Stroke SceneTarget Indexed" data-item-index="2" data-renderer-id="0" transform="translate(63.00048828125, 231.00003051757812)"><g id="tx_enhanced_ddktib1u2vksu-fill" stroke="none" fill="#484848"><g><text style="font: 20px Roboto, sans-serif; white-space: pre;"><tspan x="12" y="33.75" dominant-baseline="ideographic">Enhanced </tspan><tspan x="12" y="57.75" dominant-baseline="ideographic">productivity</tspan></text></g></g></g><g id="g-root-diam_146440z1u2vmdo-fill" data-item-order="0" data-item-id="diam_146440z1u2vmdo" data-item-class="Icon Stroke SceneTarget Indexed" data-item-index="102" data-renderer-id="0" transform="translate(303.00048828125, 231.00003051757812)"></g><g id="g-root-tx_misusepo_1cvider1u2vk03-fill" data-item-order="0" data-item-id="tx_misusepo_1cvider1u2vk03" data-item-class="Label Stroke SceneTarget Indexed" data-item-index="102" data-renderer-id="0" transform="translate(363.00048828125, 231.00003051757812)"><g id="tx_misusepo_1cvider1u2vk03-fill" stroke="none" fill="#484848"><g><text style="font: 20px Roboto, sans-serif; white-space: pre;"><tspan x="12" y="33.75" dominant-baseline="ideographic">Misuse </tspan><tspan x="12" y="57.75" dominant-baseline="ideographic">potential</tspan></text></g></g></g><g id="g-root-1_magrxf1u2wzk9-fill" data-item-order="0" data-item-id="1_magrxf1u2wzk9" data-item-class="Icon Stroke SceneTarget Indexed" data-item-index="3" data-renderer-id="0" transform="translate(3.00048828125, 315.0000305175781)"></g><g id="g-root-tx_speedinp_qoeusj1u2vmdp-fill" data-item-order="0" data-item-id="tx_speedinp_qoeusj1u2vmdp" data-item-class="Label Stroke SceneTarget Indexed" data-item-index="3" data-renderer-id="0" transform="translate(63.00048828125, 315.0000305175781)"><g id="tx_speedinp_qoeusj1u2vmdp-fill" stroke="none" fill="#484848"><g><text style="font: 20px Roboto, sans-serif; white-space: pre;"><tspan x="12" y="33.75" dominant-baseline="ideographic">Speed in </tspan><tspan x="12" y="57.75" dominant-baseline="ideographic">production</tspan></text></g></g></g><g id="g-root-bull_zlat7n1u2x154-fill" data-item-order="0" data-item-id="bull_zlat7n1u2x154" data-item-class="Icon Stroke SceneTarget Indexed" data-item-index="103" data-renderer-id="0" transform="translate(303.00048828125, 315.0000305175781)"></g><g id="g-root-tx_misinfor_zs615v1u2u808-fill" data-item-order="0" data-item-id="tx_misinfor_zs615v1u2u808" data-item-class="Label Stroke SceneTarget Indexed" data-item-index="103" data-renderer-id="0" transform="translate(363.00048828125, 315.0000305175781)"><g id="tx_misinfor_zs615v1u2u808-fill" stroke="none" fill="#484848"><g><text style="font: 20px Roboto, sans-serif; white-space: pre;"><tspan x="12" y="33.75" dominant-baseline="ideographic">Misinformation </tspan><tspan x="12" y="57.75" dominant-baseline="ideographic">risk</tspan></text></g></g></g><g id="g-root-3.cu_sy_vb3kv71u2u6me-stroke" data-item-order="-187483" data-item-id="3.cu_sy_vb3kv71u2u6me" data-item-class="ScenePart Part Indexed Stroke" data-item-index="3" data-renderer-id="0" transform="translate(3, 110.99899291992188)"><g id="3.cu_sy_vb3kv71u2u6me-stroke" fill="none" stroke-linecap="round" stroke-linejoin="round" stroke-miterlimit="4" stroke="#484848" stroke-width="2"><g><path d="M 514.000488 10.000007L 9.999988 10.001007"></path></g></g></g><g id="g-root-2.cu_sy_vb3kv71u2u6md-stroke" data-item-order="-187481" data-item-id="2.cu_sy_vb3kv71u2u6md" data-item-class="ScenePart Part Indexed Stroke" data-item-index="2" data-renderer-id="0" transform="translate(255.00048828125, 3)"><g id="2.cu_sy_vb3kv71u2u6md-stroke" fill="none" stroke-linecap="round" stroke-linejoin="round" stroke-miterlimit="4" stroke="#484848" stroke-width="2"><g><path d="M 10 298L 10 214M 10 382L 10 298M 10 214L 10 118M 10 118L 10 80M 10 36L 10 10"></path></g></g></g><g id="g-root-1.cu_sy_zqx2zn1u2u5u4-stroke" data-item-order="-187480" data-item-id="1.cu_sy_zqx2zn1u2u5u4" data-item-class="ScenePart Part Indexed Indexed_1 Fill Stroke" data-item-index="1" data-renderer-id="0" transform="translate(225.00048828125, 27)"><g id="1.cu_sy_zqx2zn1u2u5u4-stroke" fill="none" stroke-linecap="round" stroke-linejoin="round" stroke-miterlimit="4" stroke="#484848" stroke-width="2"><g><path d="M 10 34L 28 10L 28 18L 52 18L 52 10L 70 34L 52 58L 52 50L 28 50L 28 58L 10 34Z"></path></g></g><g id="1.cu_sy_zqx2zn1u2u5u4-stroke" fill="none" stroke-linecap="round" stroke-linejoin="round" stroke-miterlimit="4" stroke="#484848" stroke-width="2"><g><path d="M 30.599 28.373L 34.999 39.48M 35.199 39.097L 39.599 28.66M 49.399 30.192C 49.065 29.937 48.732 29.682 48.399 29.426C 47.799 28.852 46.832 28.628 45.499 28.756C 44.165 28.884 43.465 29.522 43.399 30.671C 43.265 31.82 44.232 32.905 46.299 33.927C 48.432 34.884 49.465 36.001 49.399 37.278C 49.399 38.555 48.632 39.321 47.099 39.576C 45.499 39.767 44.432 39.416 43.899 38.523C 43.565 38.076 43.265 37.629 42.999 37.182"></path></g></g></g><g id="g-root-tx_pros_1q87tyb1u2vkld-stroke" data-item-order="0" data-item-id="tx_pros_1q87tyb1u2vkld" data-item-class="Label Stroke SceneTarget" data-item-index="none" data-renderer-id="0" transform="translate(63.00048828125, 39.000030517578125)"></g><g id="g-root-tx_cons_1uo1c2r1u2vjt4-stroke" data-item-order="0" data-item-id="tx_cons_1uo1c2r1u2vjt4" data-item-class="Label Stroke SceneTarget" data-item-index="none" data-renderer-id="0" transform="translate(363.00048828125, 39.000030517578125)"></g><g id="g-root-pain_djtkdf1u2vmdr-stroke" data-item-order="0" data-item-id="pain_djtkdf1u2vmdr" data-item-class="Icon Stroke SceneTarget Indexed Indexed_1" data-item-index="1" data-renderer-id="0" transform="translate(3.00048828125, 147.00003051757812)"><g id="pain_djtkdf1u2vmdr-stroke" fill="none" stroke-linecap="round" stroke-linejoin="round" stroke-miterlimit="4" stroke="#484848" stroke-width="2"><g><path d="M 43.655998 37.110001L 56.568001 17.466C 57.229691 16.426304 56.963017 15.050699 55.960751 14.333577C 54.958481 13.616456 53.570435 13.808111 52.799999 14.77L 38.279999 33.517998M 27.4 41.239998C 22.812 40.146 18.6 38.012001 17.42 34.066002C 16.967094 32.552219 15.58003 31.510704 14 31.498001C 13.135223 31.497265 12.312542 31.871225 11.744496 32.52327C 11.176451 33.175316 10.91876 34.041485 11.038 34.898003C 12.278324 44.548492 19.611338 52.292171 29.18 54.056C 31.59992 54.587639 34.106342 53.647728 35.580002 51.656002M 28.718 45.425999C 28.259686 45.62191 27.973896 46.084663 28.003954 46.582188C 28.034012 47.079708 28.373434 47.504688 28.851999 47.644001C 36.716 49.905998 42.782001 44.810001 43.880001 40.879997C 44.740906 37.794617 42.937946 34.595451 39.852722 33.733994C 36.767494 32.872536 33.568005 34.674927 32.706001 37.759998C 31.695999 41.375999 32.18 43.958 28.718 45.425999Z"></path></g></g></g><g id="g-root-tx_creative_24b4z1u2vmdr-stroke" data-item-order="0" data-item-id="tx_creative_24b4z1u2vmdr" data-item-class="Label Stroke SceneTarget Indexed Indexed_1" data-item-index="1" data-renderer-id="0" transform="translate(63.00048828125, 147.00003051757812)"></g><g id="g-root-trad_1umsdxf1tt07b7-stroke" data-item-order="0" data-item-id="trad_1umsdxf1tt07b7" data-item-class="Icon Stroke SceneTarget Indexed" data-item-index="101" data-renderer-id="0" transform="translate(303.00048828125, 147.00003051757812)"><g id="trad_1umsdxf1tt07b7-stroke" fill="none" stroke-linecap="round" stroke-linejoin="round" stroke-miterlimit="4" stroke="#484848" stroke-width="2"><g><path d="M 11.714286 34C 11.714287 46.308064 21.69194 56.285713 34 56.285713C 46.308064 56.285713 56.285713 46.308064 56.285713 34C 56.285713 21.69194 46.308064 11.714287 34 11.714287C 21.69194 11.714287 11.714287 21.69194 11.714287 34M 20.285715 28.857143L 30.571428 28.857143M 25.428572 28.857143L 25.428572 39.142857M 35.714287 39.142857L 35.714287 28.857143L 40.857143 32.285713L 46 28.857143L 46 39.142857"></path></g></g></g><g id="g-root-tx_copyrigh_13zvd5v1u2vkss-stroke" data-item-order="0" data-item-id="tx_copyrigh_13zvd5v1u2vkss" data-item-class="Label Stroke SceneTarget Indexed" data-item-index="101" data-renderer-id="0" transform="translate(363.00048828125, 147.00003051757812)"></g><g id="g-root-3_mfgkmb1u2vll2-stroke" data-item-order="0" data-item-id="3_mfgkmb1u2vll2" data-item-class="Icon Stroke SceneTarget Indexed" data-item-index="2" data-renderer-id="0" transform="translate(3.00048828125, 231.00003051757812)"><g id="3_mfgkmb1u2vll2-stroke" fill="none" stroke-linecap="round" stroke-linejoin="round" stroke-miterlimit="4" stroke="#484848" stroke-width="2"><g><path d="M 26.5 44.5L 26.5 38.5C 26.5 37.395432 25.604568 36.5 24.5 36.5L 13.5 36.5C 12.395431 36.5 11.5 37.395432 11.5 38.5L 11.5 56.5L 56.5 56.5L 56.5 44.5ZM 23.5 36.5L 14.5 36.5L 16 11.5L 22 11.5L 23.5 36.5ZM 29.5 50.5L 32.5 50.5M 38.5 50.5L 41.5 50.5M 47.5 50.5L 50.5 50.5M 15.572001 18.5L 22.428001 18.5M 40.330002 35.556C 40.329681 37.182152 41.64785 38.500572 43.273998 38.500572C 44.90015 38.500572 46.218315 37.182152 46.217999 35.556C 46.218315 33.929848 44.90015 32.611427 43.273998 32.611427C 41.64785 32.611427 40.329681 33.929848 40.330002 35.556M 53.627998 38.312L 52.312 36.891998C 51.61375 36.138184 51.61375 34.973816 52.312 34.220001L 54.334 32.040001C 55.119774 31.19714 55.264259 29.940475 54.690269 28.941278C 54.116283 27.942081 52.957943 27.433823 51.834 27.688L 48.944 28.356001C 47.944466 28.58707 46.937218 28.002499 46.641998 27.019999L 45.773998 24.17C 45.440533 23.068239 44.425117 22.314667 43.273998 22.314667C 42.122879 22.314667 41.107468 23.068239 40.773998 24.169998L 39.905998 27.02C 39.609085 28.002129 38.601883 28.586166 37.602005 28.356001L 34.714001 27.688C 33.589699 27.432571 32.43029 27.940376 31.855644 28.939917C 31.281 29.939459 31.425545 31.196917 32.211998 32.040001L 34.234001 34.220001C 34.932251 34.973816 34.932251 36.138184 34.234001 36.891998L 32.919998 38.312"></path></g></g></g><g id="g-root-tx_enhanced_ddktib1u2vksu-stroke" data-item-order="0" data-item-id="tx_enhanced_ddktib1u2vksu" data-item-class="Label Stroke SceneTarget Indexed" data-item-index="2" data-renderer-id="0" transform="translate(63.00048828125, 231.00003051757812)"></g><g id="g-root-diam_146440z1u2vmdo-stroke" data-item-order="0" data-item-id="diam_146440z1u2vmdo" data-item-class="Icon Stroke SceneTarget Indexed" data-item-index="102" data-renderer-id="0" transform="translate(303.00048828125, 231.00003051757812)"><g id="diam_146440z1u2vmdo-stroke" fill="none" stroke-linecap="round" stroke-linejoin="round" stroke-miterlimit="4" stroke="#484848" stroke-width="2"><g><path d="M 34 22L 34 32.285713M 32.285713 42.57143C 32.285713 43.518204 33.053226 44.285713 34 44.285713C 34.946774 44.285713 35.714287 43.518204 35.714287 42.57143C 35.714287 41.624657 34.946774 40.857143 34 40.857143C 33.053226 40.857143 32.285713 41.624657 32.285713 42.57143M 12.785063 31.40593L 31.404194 12.786798C 31.404194 12.786798 33.998268 10.192727 36.592339 12.786798L 55.211468 31.405926C 55.211468 31.405926 57.805542 34 55.211468 36.594074L 36.592339 55.213203C 36.592339 55.213203 33.998268 57.807274 31.404194 55.2132L 12.785063 36.59407C 12.785063 36.59407 10.190992 34 12.785063 31.40593"></path></g></g></g><g id="g-root-tx_misusepo_1cvider1u2vk03-stroke" data-item-order="0" data-item-id="tx_misusepo_1cvider1u2vk03" data-item-class="Label Stroke SceneTarget Indexed" data-item-index="102" data-renderer-id="0" transform="translate(363.00048828125, 231.00003051757812)"></g><g id="g-root-1_magrxf1u2wzk9-stroke" data-item-order="0" data-item-id="1_magrxf1u2wzk9" data-item-class="Icon Stroke SceneTarget Indexed" data-item-index="3" data-renderer-id="0" transform="translate(3.00048828125, 315.0000305175781)"><g id="1_magrxf1u2wzk9-stroke" fill="none" stroke-linecap="round" stroke-linejoin="round" stroke-miterlimit="4" stroke="#484848" stroke-width="2"><g><path d="M 11.714286 45.279999C 11.710903 46.168808 12.199005 46.98671 12.982857 47.405716C 13.753256 47.867451 14.715316 47.867451 15.485714 47.405716L 32.902855 36.091431C 33.593399 35.650539 34.01133 34.887856 34.01133 34.068573C 34.01133 33.249287 33.593399 32.486603 32.902855 32.045715L 15.485714 20.662857C 14.715316 20.20112 13.753256 20.20112 12.982857 20.662857C 12.199005 21.081863 11.710903 21.899763 11.714286 22.788572ZM 34 45.279999C 33.996616 46.168808 34.484718 46.98671 35.26857 47.405716C 36.038971 47.867451 37.00103 47.867451 37.771427 47.405716L 55.188572 36.091431C 55.879112 35.650539 56.297043 34.887856 56.297043 34.068573C 56.297043 33.249287 55.879112 32.486603 55.188572 32.045715L 37.771431 20.662857C 37.00103 20.20112 36.038971 20.20112 35.26857 20.662857C 34.506115 21.070089 34.021549 21.855873 34 22.719999Z"></path></g></g></g><g id="g-root-tx_speedinp_qoeusj1u2vmdp-stroke" data-item-order="0" data-item-id="tx_speedinp_qoeusj1u2vmdp" data-item-class="Label Stroke SceneTarget Indexed" data-item-index="3" data-renderer-id="0" transform="translate(63.00048828125, 315.0000305175781)"></g><g id="g-root-bull_zlat7n1u2x154-stroke" data-item-order="0" data-item-id="bull_zlat7n1u2x154" data-item-class="Icon Stroke SceneTarget Indexed" data-item-index="103" data-renderer-id="0" transform="translate(303.00048828125, 315.0000305175781)"><g id="bull_zlat7n1u2x154-stroke" fill="none" stroke-linecap="round" stroke-linejoin="round" stroke-miterlimit="4" stroke="#484848" stroke-width="2"><g><path d="M 15 14L 53 14C 53 14 57 14 57 18L 57 50C 57 50 57 54 53 54L 15 54C 15 54 11 54 11 50L 11 18C 11 18 11 14 15 14M 11 24L 57 24M 18 18.5C 18.276142 18.5 18.5 18.723858 18.5 19C 18.5 19.276142 18.276142 19.5 18 19.5C 17.723858 19.5 17.5 19.276142 17.5 19C 17.5 18.723858 17.723858 18.5 18 18.5M 24 18.5C 24.276142 18.5 24.5 18.723858 24.5 19C 24.5 19.276142 24.276142 19.5 24 19.5C 23.723858 19.5 23.5 19.276142 23.5 19C 23.5 18.723858 23.723858 18.5 24 18.5M 30 18.5C 30.276142 18.5 30.5 18.723858 30.5 19C 30.5 19.276142 30.276142 19.5 30 19.5C 29.723858 19.5 29.5 19.276142 29.5 19C 29.5 18.723858 29.723858 18.5 30 18.5M 25 49C 25 44.029438 29.029438 40 34 40C 38.970562 40 43 44.029438 43 49M 22 30L 29 34M 46 30L 39 34M 24.5 36C 24.776142 36 25 36.223858 25 36.5C 25 36.776142 24.776142 37 24.5 37C 24.223858 37 24 36.776142 24 36.5C 24 36.223858 24.223858 36 24.5 36M 43.5 36C 43.776142 36 44 36.223858 44 36.5C 44 36.776142 43.776142 37 43.5 37C 43.223858 37 43 36.776142 43 36.5C 43 36.223858 43.223858 36 43.5 36"></path></g></g></g><g id="g-root-tx_misinfor_zs615v1u2u808-stroke" data-item-order="0" data-item-id="tx_misinfor_zs615v1u2u808" data-item-class="Label Stroke SceneTarget Indexed" data-item-index="103" data-renderer-id="0" transform="translate(363.00048828125, 315.0000305175781)"></g></g></g></svg>