<?xml version="1.0" encoding="utf-8" standalone="yes"?>
<!DOCTYPE svg PUBLIC "-//W3C//DTD SVG 1.1//EN" "http://www.w3.org/Graphics/SVG/1.1/DTD/svg11.dtd">
<svg width="540" height="396" viewBox="0 0 540 396" style="fill:none;stroke:none;fill-rule:evenodd;clip-rule:evenodd;stroke-linecap:round;stroke-linejoin:round;stroke-miterlimit:1.5;" version="1.1" xmlns="http://www.w3.org/2000/svg" xmlns:xlink="http://www.w3.org/1999/xlink"><style id="fontImports">@import url("https://fonts.googleapis.com/css2?family=Roboto:wght@400;700&amp;display=block");</style><rect id="" x="0" y="0" width="540" height="396" style="fill: #ffffff;"></rect><g id="items" style="isolation: isolate"><g id="blend" style="mix-blend-mode:multiply"><g id="g-root-0.cr-big_cr_4g2atv1u35gqv-fill" data-item-order="-92922" data-item-id="0.cr-big_cr_4g2atv1u35gqv" data-item-class="Shape Stroke Fill ScenePart Part Indexed_0 ColorFillBlack ColorStrokeBlack" data-item-index="0" data-renderer-id="0" transform="translate(170, 122)"><g id="0.cr-big_cr_4g2atv1u35gqv-fill" stroke="none" fill="#666666"><g><path d="M 10 70C 10.000003 103.137088 36.862918 130.000003 70.000003 130.000003C 103.137088 130.000003 130.000003 103.137088 130.000003 70.000003C 130.000003 36.862918 103.137088 10.000003 70.000003 10.000003C 36.862918 10.000003 10.000003 36.862918 10.000003 70.000003"></path></g></g></g><g id="g-root-5.cu_sy_1lqiteb1u35fr8-fill" data-item-order="-92920" data-item-id="5.cu_sy_1lqiteb1u35fr8" data-item-class="ScenePart Part Indexed Fill Stroke ColorStrokeBlack" data-item-index="5" data-renderer-id="0" transform="translate(93.09866333007812, 37.9268798828125)"><g id="5.cu_sy_1lqiteb1u35fr8-fill" stroke="none" fill="#dd8433"><g><path d="M 145.383493 94.042499C 146.211493 94.021799 146.884493 93.352099 146.884493 92.523599L 146.885493 63.725499C 146.885493 62.281599 144.800493 61.482899 143.573493 62.243899C 141.727493 63.388999 139.548493 64.046899 137.215493 64.038699C 130.588493 64.015599 125.234493 58.624299 125.257493 51.996899C 125.280493 45.369499 130.672493 40.015699 137.299493 40.038799C 139.602493 40.046899 141.751493 40.702999 143.574493 41.833899C 144.801493 42.594999 146.886493 41.796499 146.886493 40.352599L 146.887493 11.500699C 146.887493 10.672399 146.213493 9.999999 145.385493 10.008579C 85.434093 10.626399 29.854893 48.938399 10.086693 109.063699C 9.999993 109.327499 10.144493 109.611099 10.408593 109.696899L 38.765493 118.910499C 40.142793 119.358499 40.254693 121.605499 39.146393 122.537499C 37.498393 123.923499 36.203193 125.770499 35.481093 127.966499C 33.411193 134.262499 36.836893 141.044499 43.132793 143.114499C 49.428593 145.184499 56.210493 141.758499 58.280493 135.462499C 59.011893 133.238499 59.057093 130.952499 58.532093 128.836499C 58.183493 127.430499 59.594793 125.678499 60.972193 126.126499L 88.392793 135.035499C 89.180693 135.291499 90.025993 134.857499 90.301293 134.075499C 98.771893 110.032499 121.136493 94.648399 145.383493 94.042499Z"></path></g></g></g><g id="g-root-4.cu_sy_1q6cbir1u35eyz-fill" data-item-order="-92918" data-item-id="4.cu_sy_1q6cbir1u35eyz" data-item-class="ScenePart Part Indexed Fill Stroke ColorStrokeBlack" data-item-index="4" data-renderer-id="0" transform="translate(74.57952880859375, 137.69989013671875)"><g id="4.cu_sy_1q6cbir1u35eyz-fill" stroke="none" fill="#da5da8"><g><path d="M 107.858806 37.193204C 108.095106 36.399004 107.666206 35.551904 106.878206 35.295904L 79.489906 26.395904C 78.116706 25.949704 76.712706 27.685904 77.057306 29.088104C 77.575906 31.197704 77.528106 33.473804 76.799606 35.689604C 74.729606 41.985504 67.947706 45.411304 61.651906 43.341304C 55.356006 41.271304 51.930306 34.489504 54.000206 28.193604C 54.719506 26.006004 56.007606 24.164904 57.646506 22.780504C 58.749606 21.848804 58.634406 19.618804 57.261206 19.172604L 29.821706 10.256004C 29.033906 10.000004 28.186306 10.433104 27.938406 11.223404C 10.000006 68.431404 29.262006 133.129404 80.335906 170.509404C 80.559906 170.673404 80.874306 170.624404 81.037506 170.399404L 98.563106 146.277404C 99.414306 145.105404 101.586106 145.694404 102.130306 147.036404C 102.939406 149.031404 104.295606 150.834404 106.161006 152.199404C 111.509006 156.113404 119.017606 154.951404 122.931306 149.603404C 126.846306 144.255404 125.683306 136.746404 120.335506 132.832404C 118.445906 131.449404 116.286506 130.700404 114.111306 130.545404C 112.666706 130.442404 111.436306 128.559404 112.287606 127.387404L 129.234306 104.062004C 129.721306 103.391804 129.569306 102.453604 128.911306 101.950304C 108.662706 86.464604 100.942306 60.440904 107.858806 37.193204Z"></path></g></g></g><g id="g-root-3.cu_sy_1q6cbir1u35eyy-fill" data-item-order="-92916" data-item-id="3.cu_sy_1q6cbir1u35eyy" data-item-class="ScenePart Part Indexed Fill Stroke ColorStrokeBlack" data-item-index="3" data-renderer-id="0" transform="translate(145.7222900390625, 230.9765625)"><g id="3.cu_sy_1q6cbir1u35eyy-fill" stroke="none" fill="#795ee3"><g><path d="M 60.220411 10.481387C 59.538211 10.011287 58.600011 10.157387 58.113011 10.827687L 41.185111 34.125387C 40.336411 35.293487 41.553811 37.165287 42.993811 37.270787C 45.160511 37.429587 47.310411 38.178387 49.192711 39.555987C 54.540811 43.470187 55.703111 50.978687 51.788911 56.326787C 47.874811 61.674887 40.366211 62.837187 35.018211 58.922987C 33.159911 57.562987 31.807011 55.768987 30.996811 53.782487C 30.451511 52.445487 28.295111 51.865787 27.446311 53.033987L 10.486911 76.375087C 10.000011 77.045187 10.149911 77.985187 10.825011 78.465087C 59.689711 113.203587 127.173111 114.877587 178.507111 77.854387C 178.732111 77.691987 178.782111 77.377587 178.619111 77.152987L 161.093111 53.031087C 160.242111 51.859487 161.472111 49.975687 162.917111 49.872887C 165.065111 49.720087 167.198111 48.987287 169.073111 47.635087C 174.449111 43.758287 175.663111 36.258087 171.787111 30.882787C 167.910111 25.507587 160.410111 24.292787 155.034111 28.169587C 153.135111 29.539387 151.755111 31.361487 150.936111 33.382487C 150.392111 34.724587 148.220111 35.312587 147.369111 34.140887L 130.422111 10.815587C 129.935111 10.145387 128.996111 9.999987 128.314111 10.470387C 107.328711 24.942587 80.193011 24.243387 60.220411 10.481387Z"></path></g></g></g><g id="g-root-2.cu_sy_v9sj1u35edd-fill" data-item-order="-92914" data-item-id="2.cu_sy_v9sj1u35edd" data-item-class="ScenePart Part Indexed Fill Stroke ColorStrokeBlack" data-item-index="2" data-renderer-id="0" transform="translate(265.70416259765625, 127.8463134765625)"><g id="2.cu_sy_v9sj1u35edd-fill" stroke="none" fill="#17b0e3"><g><path d="M 10.808909 111.827303C 10.150909 112.331303 10.000009 113.268303 10.487009 113.938303L 27.413309 137.237303C 28.262009 138.405303 30.418409 137.826303 30.963709 136.489303C 31.784209 134.477303 33.160709 132.664303 35.052609 131.300303C 40.427809 127.423303 47.928109 128.638303 51.804809 134.013303C 55.681609 139.388303 54.466809 146.888303 49.091509 150.765303C 47.223809 152.112303 45.099609 152.845303 42.959909 153.001303C 41.519909 153.107303 40.302309 154.978303 41.151009 156.147303L 58.109009 179.489303C 58.595809 180.159303 59.536109 180.307303 60.201209 179.813303C 108.339609 144.075303 130.785409 80.411303 111.437409 20.149503C 111.352409 19.885203 111.068409 19.740703 110.804409 19.826503L 82.447509 29.040203C 81.070109 29.487703 79.658809 27.735403 80.007409 26.329803C 80.525809 24.239603 80.488209 21.984203 79.781509 19.783203C 77.755609 13.473003 70.997809 10.000003 64.687609 12.026003C 58.377509 14.052003 54.904409 20.809703 56.930409 27.119903C 57.646309 29.349503 58.952809 31.224803 60.621709 32.628603C 61.730009 33.560903 61.618109 35.808003 60.240709 36.255603L 32.820109 45.165003C 32.032209 45.421003 31.603809 46.269403 31.840309 47.063403C 39.119509 71.493503 30.069109 97.085003 10.808909 111.827303Z"></path></g></g></g><g id="g-root-1.cu_sy_4g2atv1u35gqw-fill" data-item-order="-92912" data-item-id="1.cu_sy_4g2atv1u35gqw" data-item-class="ScenePart Part Indexed Indexed_1 Fill Stroke ColorStrokeBlack" data-item-index="1" data-renderer-id="0" transform="translate(208.3330078125, 37.97198486328125)"><g id="1.cu_sy_4g2atv1u35gqw-fill" stroke="none" fill="#3bc482"><g><path d="M 88.290502 134.034007C 88.566202 134.815007 89.411102 135.249007 90.199102 134.993007L 117.588102 126.094007C 118.961102 125.648007 119.076102 123.418007 117.973102 122.487007C 116.314102 121.085007 115.015102 119.215007 114.302102 116.994007C 112.276102 110.684007 115.749102 103.926307 122.059102 101.900307C 128.369102 99.874407 135.127102 103.347407 137.153102 109.657607C 137.857102 111.850007 137.897102 114.097007 137.384102 116.180007C 137.040102 117.582007 138.444102 119.319007 139.817102 118.872007L 167.257102 109.957607C 168.045102 109.701607 168.476102 108.853107 168.212102 108.068007C 149.099102 51.241807 95.486802 10.221907 32.195502 10.00101C 31.917902 10.000007 31.692802 10.225207 31.692802 10.502807L 31.692802 40.319007C 31.692802 41.767307 29.590102 42.568107 28.361002 41.802107C 26.533402 40.663207 24.376602 40.002007 22.065002 39.993907C 15.437602 39.970807 10.046302 45.324607 10.023176 51.951907C 10.000002 58.579307 15.353802 63.970607 21.981202 63.993807C 24.322902 64.001907 26.510302 63.338807 28.361002 62.185407C 29.590102 61.419507 31.692802 62.220307 31.692802 63.668507L 31.692702 92.500307C 31.692702 93.328707 32.367202 93.998407 33.195402 94.018707C 58.679202 94.645107 80.221502 111.161007 88.290502 134.034007Z"></path></g></g></g><g id="g-root-tx_software_8xr87n1u35ez2-fill" data-item-order="0" data-item-id="tx_software_8xr87n1u35ez2" data-item-class="Label Stroke SceneTarget Indexed ColorStrokeBlack" data-item-index="5" data-renderer-id="0" transform="translate(2, 2)"><g id="tx_software_8xr87n1u35ez2-fill" stroke="none" fill="#666666"><g><text style="font: 20px Roboto, sans-serif; white-space: pre;"><tspan x="60.16" y="33.75" dominant-baseline="ideographic">Software </tspan><tspan x="23.09" y="57.75" dominant-baseline="ideographic">Development</tspan></text></g></g></g><g id="g-root-tx_textgene_v63p031u35erm-fill" data-item-order="0" data-item-id="tx_textgene_v63p031u35erm" data-item-class="Label Stroke SceneTarget Indexed Indexed_1 ColorStrokeBlack" data-item-index="1" data-renderer-id="0" transform="translate(326, 26)"><g id="tx_textgene_v63p031u35erm-fill" stroke="none" fill="#666666"><g><text style="font: 20px Roboto, sans-serif; white-space: pre;"><tspan x="12" y="33.75" dominant-baseline="ideographic">Text Generation</tspan></text></g></g></g><g id="g-root-code_i0w0nn1u2rcau-fill" data-item-order="0" data-item-id="code_i0w0nn1u2rcau" data-item-class="Icon Stroke SceneTarget Indexed InsideFill InsideColorFill ColorStrokeBlack" data-item-index="5" data-renderer-id="0" transform="translate(138.80694580078125, 81.2596435546875)"></g><g id="g-root-1_1lpwfgz1u2srgi-fill" data-item-order="0" data-item-id="1_1lpwfgz1u2srgi" data-item-class="Icon Stroke SceneTarget Indexed Indexed_1 InsideFill InsideColorFill ColorStrokeBlack" data-item-index="1" data-renderer-id="0" transform="translate(258.2205810546875, 70.3814697265625)"></g><g id="g-root-1_18n6kb71u2rcat-fill" data-item-order="0" data-item-id="1_18n6kb71u2rcat" data-item-class="Icon Stroke SceneTarget InsideFill InsideColorFill InsideBlackFill ColorStrokeBlack" data-item-index="0" data-renderer-id="0" transform="translate(194, 145.99609375)"></g><g id="g-root-info_9m05v1u2reo1-fill" data-item-order="0" data-item-id="info_9m05v1u2reo1" data-item-class="Icon Stroke SceneTarget Indexed InsideFill InsideColorFill ColorStrokeBlack" data-item-index="2" data-renderer-id="0" transform="translate(305.46728515625, 180.5889892578125)"></g><g id="g-root-tx_music_1hckqj71u35erz-fill" data-item-order="0" data-item-id="tx_music_1hckqj71u35erz" data-item-class="Label Stroke SceneTarget Indexed ColorStrokeBlack" data-item-index="4" data-renderer-id="0" transform="translate(2, 206)"><g id="tx_music_1hckqj71u35erz-fill" stroke="none" fill="#666666"><g><text style="font: 20px Roboto, sans-serif; white-space: pre;"><tspan x="13.88" y="33.75" dominant-baseline="ideographic">Music</tspan></text></g></g></g><g id="g-root-soun_9590er1u2rd3j-fill" data-item-order="0" data-item-id="soun_9590er1u2rd3j" data-item-class="Icon Stroke SceneTarget Indexed InsideFill InsideColorFill ColorStrokeBlack" data-item-index="4" data-renderer-id="0" transform="translate(112.2518310546875, 198.1904296875)"></g><g id="g-root-tx_interact_zlx74j1u35dzd-fill" data-item-order="0" data-item-id="tx_interact_zlx74j1u35dzd" data-item-class="Label Stroke SceneTarget Indexed ColorStrokeBlack" data-item-index="2" data-renderer-id="0" transform="translate(398, 194)"><g id="tx_interact_zlx74j1u35dzd-fill" stroke="none" fill="#666666"><g><text style="font: 20px Roboto, sans-serif; white-space: pre;"><tspan x="12" y="33.75" dominant-baseline="ideographic">Interactive </tspan><tspan x="12" y="57.75" dominant-baseline="ideographic">Applications</tspan></text></g></g></g><g id="g-root-2_4pfiab1u2rdvs-fill" data-item-order="0" data-item-id="2_4pfiab1u2rdvs" data-item-class="Icon Stroke SceneTarget Indexed InsideFill InsideColorFill ColorStrokeBlack" data-item-index="3" data-renderer-id="0" transform="translate(215.2535400390625, 259.579345703125)"></g><g id="g-root-tx_visualar_18gxqab1u35gcg-fill" data-item-order="0" data-item-id="tx_visualar_18gxqab1u35gcg" data-item-class="Label Stroke SceneTarget Indexed ColorStrokeBlack" data-item-index="3" data-renderer-id="0" transform="translate(182, 350)"><g id="tx_visualar_18gxqab1u35gcg-fill" stroke="none" fill="#666666"><g><text style="font: 20px Roboto, sans-serif; white-space: pre;"><tspan x="14.78" y="33.75" dominant-baseline="ideographic">Visual Art</tspan></text></g></g></g><g id="g-root-0.cr-big_cr_4g2atv1u35gqv-stroke" data-item-order="-92922" data-item-id="0.cr-big_cr_4g2atv1u35gqv" data-item-class="Shape Stroke Fill ScenePart Part Indexed_0 ColorFillBlack ColorStrokeBlack" data-item-index="0" data-renderer-id="0" transform="translate(170, 122)"><g id="0.cr-big_cr_4g2atv1u35gqv-stroke" fill="none" stroke-linecap="round" stroke-linejoin="round" stroke-miterlimit="4" stroke="#2c2c2c" stroke-width="2"><g><path d="M 10 70C 10.000003 103.137088 36.862918 130.000003 70.000003 130.000003C 103.137088 130.000003 130.000003 103.137088 130.000003 70.000003C 130.000003 36.862918 103.137088 10.000003 70.000003 10.000003C 36.862918 10.000003 10.000003 36.862918 10.000003 70.000003"></path></g></g></g><g id="g-root-5.cu_sy_1lqiteb1u35fr8-stroke" data-item-order="-92920" data-item-id="5.cu_sy_1lqiteb1u35fr8" data-item-class="ScenePart Part Indexed Fill Stroke ColorStrokeBlack" data-item-index="5" data-renderer-id="0" transform="translate(93.09866333007812, 37.9268798828125)"><g id="5.cu_sy_1lqiteb1u35fr8-stroke" fill="none" stroke-linecap="round" stroke-linejoin="round" stroke-miterlimit="4" stroke="#2c2c2c" stroke-width="2"><g><path d="M 145.383393 94.042499C 146.211693 94.021799 146.884793 93.352099 146.884793 92.523599L 146.885693 63.725499C 146.885793 62.281599 144.800693 61.482899 143.573693 62.243899C 141.727493 63.388999 139.548093 64.046899 137.215593 64.038699C 130.588193 64.015599 125.234393 58.624299 125.257593 51.996899C 125.280693 45.369499 130.671993 40.015699 137.299393 40.038799C 139.602093 40.046899 141.751093 40.702999 143.574193 41.833899C 144.801193 42.594999 146.886393 41.796499 146.886493 40.352599L 146.887393 11.500699C 146.887393 10.672399 146.213593 9.999999 145.385393 10.008599C 85.434093 10.626399 29.854893 48.938399 10.086693 109.063699C 9.999993 109.327499 10.144493 109.611099 10.408593 109.696899L 38.765493 118.910599C 40.142793 119.358199 40.254693 121.605399 39.146393 122.537599C 37.498393 123.923899 36.203193 125.770699 35.481093 127.966699C 33.411193 134.262499 36.836893 141.044399 43.132793 143.114399C 49.428693 145.184299 56.210493 141.758599 58.280493 135.462699C 59.011893 133.238199 59.057093 130.952999 58.532093 128.836399C 58.183493 127.430799 59.594793 125.678499 60.972193 126.125999L 88.392793 135.035599C 89.180693 135.291599 90.025993 134.856999 90.301293 134.075699C 98.771993 110.032699 121.136193 94.648399 145.383393 94.042499Z"></path></g></g></g><g id="g-root-4.cu_sy_1q6cbir1u35eyz-stroke" data-item-order="-92918" data-item-id="4.cu_sy_1q6cbir1u35eyz" data-item-class="ScenePart Part Indexed Fill Stroke ColorStrokeBlack" data-item-index="4" data-renderer-id="0" transform="translate(74.57952880859375, 137.69989013671875)"><g id="4.cu_sy_1q6cbir1u35eyz-stroke" fill="none" stroke-linecap="round" stroke-linejoin="round" stroke-miterlimit="4" stroke="#2c2c2c" stroke-width="2"><g><path d="M 107.858806 37.193204C 108.095106 36.399004 107.666206 35.551904 106.878206 35.295904L 79.489906 26.395904C 78.116706 25.949704 76.712706 27.685904 77.057306 29.088104C 77.575906 31.197704 77.528106 33.473804 76.799606 35.689604C 74.729606 41.985504 67.947706 45.411304 61.651906 43.341304C 55.356006 41.271304 51.930306 34.489504 54.000206 28.193604C 54.719506 26.006004 56.007606 24.164904 57.646506 22.780504C 58.749606 21.848804 58.634406 19.618804 57.261206 19.172604L 29.821706 10.256004C 29.033906 10.000004 28.186306 10.433104 27.938406 11.223404C 10.000006 68.431404 29.262006 133.129404 80.335906 170.509804C 80.559906 170.673804 80.874306 170.624004 81.037506 170.399404L 98.563106 146.277504C 99.414306 145.105904 101.586106 145.693904 102.130306 147.036104C 102.939406 149.031704 104.295606 150.834304 106.161006 152.199604C 111.509006 156.113804 119.017606 154.951404 122.931806 149.603304C 126.846006 144.255304 125.683606 136.746704 120.335506 132.832604C 118.445906 131.449504 116.286506 130.700304 114.111306 130.545604C 112.666706 130.442804 111.436306 128.559004 112.287606 127.387404L 129.234506 104.062004C 129.721406 103.391804 129.569406 102.453604 128.911306 101.950304C 108.662706 86.464604 100.942306 60.440904 107.858806 37.193204Z"></path></g></g></g><g id="g-root-3.cu_sy_1q6cbir1u35eyy-stroke" data-item-order="-92916" data-item-id="3.cu_sy_1q6cbir1u35eyy" data-item-class="ScenePart Part Indexed Fill Stroke ColorStrokeBlack" data-item-index="3" data-renderer-id="0" transform="translate(145.7222900390625, 230.9765625)"><g id="3.cu_sy_1q6cbir1u35eyy-stroke" fill="none" stroke-linecap="round" stroke-linejoin="round" stroke-miterlimit="4" stroke="#2c2c2c" stroke-width="2"><g><path d="M 60.220411 10.481387C 59.538211 10.011287 58.600011 10.157387 58.113011 10.827687L 41.185111 34.125387C 40.336411 35.293487 41.553811 37.165287 42.993811 37.270787C 45.160511 37.429587 47.310411 38.178387 49.192711 39.555987C 54.540811 43.470187 55.703111 50.978687 51.788911 56.326787C 47.874811 61.674887 40.366211 62.837187 35.018211 58.922987C 33.159911 57.562987 31.807011 55.768987 30.996811 53.782487C 30.451511 52.445487 28.295111 51.865787 27.446311 53.033987L 10.486911 76.375087C 10.000011 77.045187 10.149911 77.985187 10.825011 78.465087C 59.689711 113.203787 127.173511 114.877287 178.507111 77.854387C 178.732211 77.691987 178.782011 77.377587 178.618811 77.152987L 161.093311 53.031087C 160.242011 51.859487 161.472411 49.975687 162.917011 49.872887C 165.065111 49.720087 167.198511 48.987287 169.073411 47.635087C 174.448711 43.758287 175.663411 36.258087 171.786711 30.882787C 167.909911 25.507587 160.409711 24.292787 155.034411 28.169587C 153.135211 29.539287 151.755311 31.361487 150.935911 33.382487C 150.391811 34.724587 148.220011 35.312587 147.368811 34.140887L 130.422011 10.815587C 129.935011 10.145387 128.995711 9.999987 128.313711 10.470387C 107.328711 24.942587 80.193011 24.243387 60.220411 10.481387Z"></path></g></g></g><g id="g-root-2.cu_sy_v9sj1u35edd-stroke" data-item-order="-92914" data-item-id="2.cu_sy_v9sj1u35edd" data-item-class="ScenePart Part Indexed Fill Stroke ColorStrokeBlack" data-item-index="2" data-renderer-id="0" transform="translate(265.70416259765625, 127.8463134765625)"><g id="2.cu_sy_v9sj1u35edd-stroke" fill="none" stroke-linecap="round" stroke-linejoin="round" stroke-miterlimit="4" stroke="#2c2c2c" stroke-width="2"><g><path d="M 10.808909 111.827403C 10.150909 112.331003 10.000009 113.268403 10.487009 113.938703L 27.413309 137.237403C 28.262009 138.405503 30.418409 137.826103 30.963709 136.489203C 31.784209 134.477703 33.160709 132.664403 35.052609 131.299903C 40.427809 127.423203 47.928109 128.638003 51.804809 134.013203C 55.681609 139.388503 54.466809 146.888703 49.091509 150.765503C 47.223809 152.112503 45.099609 152.844803 42.959909 153.001503C 41.519909 153.107003 40.302309 154.978703 41.151009 156.146803L 58.109009 179.489103C 58.595809 180.159203 59.536109 180.307103 60.201209 179.813403C 108.339609 144.075103 130.784909 80.411303 111.436909 20.149503C 111.352109 19.885203 111.068409 19.740703 110.804409 19.826503L 82.447509 29.040203C 81.070109 29.487703 79.658809 27.735403 80.007409 26.329803C 80.525809 24.239603 80.488209 21.984203 79.781509 19.783203C 77.755609 13.473003 70.997809 10.000003 64.687609 12.026003C 58.377509 14.051903 54.904409 20.809703 56.930409 27.119903C 57.646309 29.349503 58.952809 31.224803 60.621709 32.628603C 61.730009 33.560903 61.618109 35.808003 60.240709 36.255603L 32.820109 45.165003C 32.032209 45.421003 31.603809 46.269403 31.840309 47.063403C 39.119509 71.493503 30.069109 97.085003 10.808909 111.827403Z"></path></g></g></g><g id="g-root-1.cu_sy_4g2atv1u35gqw-stroke" data-item-order="-92912" data-item-id="1.cu_sy_4g2atv1u35gqw" data-item-class="ScenePart Part Indexed Indexed_1 Fill Stroke ColorStrokeBlack" data-item-index="1" data-renderer-id="0" transform="translate(208.3330078125, 37.97198486328125)"><g id="1.cu_sy_4g2atv1u35gqw-stroke" fill="none" stroke-linecap="round" stroke-linejoin="round" stroke-miterlimit="4" stroke="#2c2c2c" stroke-width="2"><g><path d="M 88.290502 134.034007C 88.566202 134.815407 89.411102 135.248607 90.199102 134.992607L 117.587902 126.094407C 118.961102 125.648207 119.076402 123.418307 117.973402 122.486507C 116.313902 121.084607 115.014702 119.215107 114.301702 116.994207C 112.275702 110.684107 115.748702 103.926307 122.058902 101.900307C 128.369002 99.874407 135.126802 103.347407 137.152802 109.657607C 137.856702 111.850107 137.896802 114.096707 137.384602 116.180107C 137.039902 117.582207 138.443702 119.318607 139.817002 118.872507L 167.257202 109.957607C 168.045002 109.701607 168.476202 108.853107 168.212102 108.068007C 149.098602 51.241807 95.486802 10.221907 32.195502 10.001007C 31.917902 10.000007 31.692802 10.225207 31.692802 10.502807L 31.692802 40.319007C 31.692802 41.767307 29.590102 42.568107 28.361002 41.802107C 26.533402 40.663207 24.376602 40.002007 22.065002 39.993907C 15.437602 39.970807 10.046302 45.324607 10.023202 51.951907C 10.000002 58.579307 15.353802 63.970607 21.981202 63.993807C 24.322902 64.001907 26.510302 63.338807 28.361002 62.185407C 29.590102 61.419507 31.692802 62.220307 31.692802 63.668507L 31.692702 92.500307C 31.692702 93.328707 32.367202 93.998407 33.195402 94.018707C 58.679202 94.645107 80.221502 111.160807 88.290502 134.034007Z"></path></g></g></g><g id="g-root-tx_software_8xr87n1u35ez2-stroke" data-item-order="0" data-item-id="tx_software_8xr87n1u35ez2" data-item-class="Label Stroke SceneTarget Indexed ColorStrokeBlack" data-item-index="5" data-renderer-id="0" transform="translate(2, 2)"></g><g id="g-root-tx_textgene_v63p031u35erm-stroke" data-item-order="0" data-item-id="tx_textgene_v63p031u35erm" data-item-class="Label Stroke SceneTarget Indexed Indexed_1 ColorStrokeBlack" data-item-index="1" data-renderer-id="0" transform="translate(326, 26)"></g><g id="g-root-code_i0w0nn1u2rcau-stroke" data-item-order="0" data-item-id="code_i0w0nn1u2rcau" data-item-class="Icon Stroke SceneTarget Indexed InsideFill InsideColorFill ColorStrokeBlack" data-item-index="5" data-renderer-id="0" transform="translate(138.80694580078125, 81.2596435546875)"><g id="code_i0w0nn1u2rcau-stroke" fill="none" stroke-linecap="round" stroke-linejoin="round" stroke-miterlimit="4" stroke="#2c2c2c" stroke-width="2"><g><path d="M 52.414001 19C 52.789101 19.374985 52.999886 19.88361 53 20.414L 53 55C 53 56.104568 52.104568 57 51 57L 17 57C 15.895431 57 15 56.104568 15 55L 15 13C 15 11.895431 15.895431 11 17 11L 43.585999 11C 44.118408 11.003817 44.627319 11.219762 45 11.6ZM 30 28.007999L 23 35.007999L 30 42.007999M 38 28.007999L 45 35.007999L 38 42.007999"></path></g></g></g><g id="g-root-1_1lpwfgz1u2srgi-stroke" data-item-order="0" data-item-id="1_1lpwfgz1u2srgi" data-item-class="Icon Stroke SceneTarget Indexed Indexed_1 InsideFill InsideColorFill ColorStrokeBlack" data-item-index="1" data-renderer-id="0" transform="translate(258.2205810546875, 70.3814697265625)"><g id="1_1lpwfgz1u2srgi-stroke" fill="none" stroke-linecap="round" stroke-linejoin="round" stroke-miterlimit="4" stroke="#2c2c2c" stroke-width="2"><g><path d="M 43.787998 35C 42.847771 35.001194 42.035328 35.657143 41.835999 36.576C 40.883701 40.04414 37.581337 42.330006 34 42C 30.418665 42.330006 27.116299 40.04414 26.164 36.576C 25.964672 35.657143 25.152229 35.001194 24.212 35L 21 35C 18.790861 35 17 36.790863 17 39L 17 55C 17 56.104568 17.895432 57 19 57L 49 57C 50.104568 57 51 56.104568 51 55L 51 39C 51 36.790863 49.209141 35 47 35ZM 47 27L 51 27C 52.104568 27 53 27.89543 53 29L 53 37C 53 38.104568 52.104568 39 51 39M 17 39C 15.895431 39 15 38.104568 15 37L 15 29C 15 27.89543 15.895431 27 17 27L 21 27M 47 35L 47 21.827999C 46.999886 21.297611 46.789101 20.788986 46.414001 20.414L 37.585999 11.586C 37.211014 11.210901 36.702389 11.000113 36.172001 11L 23 11C 21.895432 11 21 11.895431 21 13L 21 35M 37 11.18L 37 21L 46.82 21M 53 31L 57 31L 57 35M 15 31L 11 31L 11 35M 22 51C 22.276142 51 22.5 51.223858 22.5 51.5C 22.5 51.776142 22.276142 52 22 52C 21.723858 52 21.5 51.776142 21.5 51.5C 21.5 51.223858 21.723858 51 22 51M 28 51C 28.276142 51 28.5 51.223858 28.5 51.5C 28.5 51.776142 28.276142 52 28 52C 27.723858 52 27.5 51.776142 27.5 51.5C 27.5 51.223858 27.723858 51 28 51M 34 51C 34.276142 51 34.5 51.223858 34.5 51.5C 34.5 51.776142 34.276142 52 34 52C 33.723858 52 33.5 51.776142 33.5 51.5C 33.5 51.223858 33.723858 51 34 51M 40 51C 40.276142 51 40.5 51.223858 40.5 51.5C 40.5 51.776142 40.276142 52 40 52C 39.723858 52 39.5 51.776142 39.5 51.5C 39.5 51.223858 39.723858 51 40 51M 46 51C 46.276142 51 46.5 51.223858 46.5 51.5C 46.5 51.776142 46.276142 52 46 52C 45.723858 52 45.5 51.776142 45.5 51.5C 45.5 51.223858 45.723858 51 46 51M 25 46C 25.276142 46 25.5 46.223858 25.5 46.5C 25.5 46.776142 25.276142 47 25 47C 24.723858 47 24.5 46.776142 24.5 46.5C 24.5 46.223858 24.723858 46 25 46M 31 46C 31.276142 46 31.5 46.223858 31.5 46.5C 31.5 46.776142 31.276142 47 31 47C 30.723858 47 30.5 46.776142 30.5 46.5C 30.5 46.223858 30.723858 46 31 46M 37 46C 37.276142 46 37.5 46.223858 37.5 46.5C 37.5 46.776142 37.276142 47 37 47C 36.723858 47 36.5 46.776142 36.5 46.5C 36.5 46.223858 36.723858 46 37 46M 43 46C 43.276142 46 43.5 46.223858 43.5 46.5C 43.5 46.776142 43.276142 47 43 47C 42.723858 47 42.5 46.776142 42.5 46.5C 42.5 46.223858 42.723858 46 43 46"></path></g></g></g><g id="g-root-1_18n6kb71u2rcat-stroke" data-item-order="0" data-item-id="1_18n6kb71u2rcat" data-item-class="Icon Stroke SceneTarget InsideFill InsideColorFill InsideBlackFill ColorStrokeBlack" data-item-index="0" data-renderer-id="0" transform="translate(194, 145.99609375)"><g id="1_18n6kb71u2rcat-stroke" fill="none" stroke-linecap="round" stroke-linejoin="round" stroke-miterlimit="4" stroke="#2c2c2c" stroke-width="2"><g><path d="M 27.849998 71.083C 31.030655 70.553589 33.716057 68.426804 34.959999 65.451996M 17.263 35.638C 23.400017 36.714172 28.672504 40.616302 31.494999 46.171001M 27.348999 40.687L 32.728001 36.652M 40 12.019C 39.942333 15.026397 39.399342 18.004742 38.392002 20.839001M 34 23.5C 34 25.156855 35.343143 26.5 37 26.5C 38.656857 26.5 40 25.156855 40 23.5C 40 21.843145 38.656857 20.5 37 20.5C 35.343143 20.5 34 21.843145 34 23.5ZM 52 29.5C 52 31.156855 53.343143 32.5 55 32.5C 56.656857 32.5 58 31.156855 58 29.5C 58 27.843145 56.656857 26.5 55 26.5C 53.343143 26.5 52 27.843145 52 29.5ZM 62.5 41.5C 62.5 43.156857 63.843147 44.5 65.5 44.5C 67.156853 44.5 68.5 43.156857 68.5 41.5C 68.5 39.843143 67.156853 38.5 65.5 38.5C 63.843147 38.5 62.5 39.843143 62.5 41.5ZM 52 52C 52 53.656857 53.343143 55 55 55C 56.656857 55 58 53.656857 58 52C 58 50.343143 56.656857 49 55 49C 53.343143 49 52 50.343143 52 52ZM 32.5 35.5C 32.5 37.156857 33.843147 38.5 35.5 38.5C 37.156857 38.5 38.5 37.156857 38.5 35.5C 38.5 33.843147 37.156857 32.5 35.5 32.5C 33.843147 32.5 32.5 33.843147 32.5 35.5ZM 29.5 49C 29.5 50.656857 30.843145 52 32.5 52C 34.156857 52 35.5 50.656857 35.5 49C 35.5 47.343143 34.156857 46 32.5 46C 30.843145 46 29.5 47.343143 29.5 49ZM 80.5 46C 80.512016 41.778744 78.329506 37.854546 74.737 35.638C 74.9403 34.752205 75.045937 33.846802 75.052002 32.938C 75.112106 26.699877 70.364319 21.464764 64.149994 20.917C 64.211967 18.460598 63.287228 16.081762 61.582458 14.312159C 59.877686 12.542555 57.535004 11.529713 55.077999 11.5C 51.19334 11.722404 47.727177 14.013325 46 17.5C 44.272823 14.013325 40.80666 11.722404 36.922001 11.5C 34.464996 11.529713 32.122314 12.542555 30.417543 14.312159C 28.712769 16.081762 27.788029 18.460598 27.849998 20.917C 21.633362 21.464937 16.884737 26.703581 16.948 32.944C 16.949144 33.852253 17.049744 34.757648 17.247999 35.643997C 13.664934 37.869446 11.485849 41.788063 11.485849 46.006001C 11.485849 50.223934 13.664934 54.142551 17.247999 56.367996C 17.049744 57.254349 16.949144 58.159748 16.948 59.067997C 16.891041 65.303825 21.638002 70.535416 27.849998 71.083C 27.788029 73.539398 28.712769 75.918236 30.417543 77.687836C 32.122314 79.457443 34.464996 80.470284 36.922001 80.5C 40.504494 80.586853 43.89994 78.903717 45.999996 75.999992C 48.100056 78.903717 51.495502 80.586853 55.077995 80.499992C 57.535004 80.470284 59.877686 79.457443 61.582458 77.687836C 63.287228 75.918236 64.211967 73.539398 64.149994 71.083C 70.366638 70.535065 75.115265 65.296417 75.052002 59.056C 75.045937 58.147194 74.9403 57.241791 74.737 56.355999C 78.327682 54.140575 80.509926 50.219124 80.5 46ZM 46 17.5L 46 52M 46 63.874001L 46 76M 73.518997 26.989L 65.199997 31.153C 62.769722 32.369732 59.914307 32.398506 57.459999 31.230999M 55 49C 55.889565 45.287899 58.787903 42.389565 62.500008 41.500004M 64.149994 71.083C 63.321999 68.199997 61.908997 65.983002 59.5 65.5M 32.5 62.5C 32.5 64.156853 33.843147 65.5 35.5 65.5C 37.156857 65.5 38.5 64.156853 38.5 62.5C 38.5 60.843147 37.156857 59.5 35.5 59.5C 33.843147 59.5 32.5 60.843147 32.5 62.5ZM 53.5 65.5C 53.5 67.156853 54.843143 68.5 56.5 68.5C 58.156853 68.5 59.5 67.156853 59.5 65.5C 59.5 63.843147 58.156853 62.5 56.5 62.5C 54.843143 62.5 53.5 63.843147 53.5 65.5Z"></path></g></g></g><g id="g-root-info_9m05v1u2reo1-stroke" data-item-order="0" data-item-id="info_9m05v1u2reo1" data-item-class="Icon Stroke SceneTarget Indexed InsideFill InsideColorFill ColorStrokeBlack" data-item-index="2" data-renderer-id="0" transform="translate(305.46728515625, 180.5889892578125)"><g id="info_9m05v1u2reo1-stroke" fill="none" stroke-linecap="round" stroke-linejoin="round" stroke-miterlimit="4" stroke="#2c2c2c" stroke-width="2"><g><path d="M 34.166 12C 21.464001 12 11.166 20.506001 11.166 31C 11.274054 36.291878 13.774634 41.249649 17.966 44.481998L 13.166 56L 25.91 48.717999C 28.579613 49.567719 31.36442 50.000145 34.166 50C 46.869999 50 57.166 41.493999 57.166 31C 57.166 20.506001 46.869999 12 34.166 12ZM 35.166 40L 35.166 28C 35.166 26.89543 34.270569 26 33.166 26L 31.166 26M 31.166 40L 39.166 40M 34.666 21C 34.942142 21 35.166 21.223858 35.166 21.5C 35.166 21.776142 34.942142 22 34.666 22C 34.389858 22 34.166 21.776142 34.166 21.5C 34.166 21.223858 34.389858 21 34.666 21"></path></g></g></g><g id="g-root-tx_music_1hckqj71u35erz-stroke" data-item-order="0" data-item-id="tx_music_1hckqj71u35erz" data-item-class="Label Stroke SceneTarget Indexed ColorStrokeBlack" data-item-index="4" data-renderer-id="0" transform="translate(2, 206)"></g><g id="g-root-soun_9590er1u2rd3j-stroke" data-item-order="0" data-item-id="soun_9590er1u2rd3j" data-item-class="Icon Stroke SceneTarget Indexed InsideFill InsideColorFill ColorStrokeBlack" data-item-index="4" data-renderer-id="0" transform="translate(112.2518310546875, 198.1904296875)"><g id="soun_9590er1u2rd3j-stroke" fill="none" stroke-linecap="round" stroke-linejoin="round" stroke-miterlimit="4" stroke="#2c2c2c" stroke-width="2"><g><path d="M 34 12L 34 56M 26 18L 26 54M 18 26L 18 46M 12 34L 12 38M 42 18L 42 54M 50 26L 50 46M 56 34L 56 38"></path></g></g></g><g id="g-root-tx_interact_zlx74j1u35dzd-stroke" data-item-order="0" data-item-id="tx_interact_zlx74j1u35dzd" data-item-class="Label Stroke SceneTarget Indexed ColorStrokeBlack" data-item-index="2" data-renderer-id="0" transform="translate(398, 194)"></g><g id="g-root-2_4pfiab1u2rdvs-stroke" data-item-order="0" data-item-id="2_4pfiab1u2rdvs" data-item-class="Icon Stroke SceneTarget Indexed InsideFill InsideColorFill ColorStrokeBlack" data-item-index="3" data-renderer-id="0" transform="translate(215.2535400390625, 259.579345703125)"><g id="2_4pfiab1u2rdvs-stroke" fill="none" stroke-linecap="round" stroke-linejoin="round" stroke-miterlimit="4" stroke="#2c2c2c" stroke-width="2"><g><path d="M 11 34C 11 46.702549 21.297451 57 34 57C 46.702549 57 57 46.702549 57 34C 57 21.297451 46.702549 11 34 11C 21.297451 11 11 21.297451 11 34ZM 31 34C 31 35.656853 32.343147 37 34 37C 35.656853 37 37 35.656853 37 34C 37 32.343147 35.656853 31 34 31C 32.343147 31 31 32.343147 31 34ZM 35.16 36.765999L 42.888 55.214001M 31.233999 35.16L 12.786 42.888M 32.84 31.233999L 25.112 12.786M 36.765999 32.84L 55.214001 25.112M 32.863998 36.776001L 25.284 55.284M 31.224001 32.863998L 12.716 25.284M 35.136002 31.224001L 42.716 12.716M 36.776001 35.136002L 55.284 42.716"></path></g></g></g><g id="g-root-tx_visualar_18gxqab1u35gcg-stroke" data-item-order="0" data-item-id="tx_visualar_18gxqab1u35gcg" data-item-class="Label Stroke SceneTarget Indexed ColorStrokeBlack" data-item-index="3" data-renderer-id="0" transform="translate(182, 350)"></g></g></g></svg>