<?xml version="1.0" encoding="utf-8" standalone="yes"?>
<!DOCTYPE svg PUBLIC "-//W3C//DTD SVG 1.1//EN" "http://www.w3.org/Graphics/SVG/1.1/DTD/svg11.dtd">
<svg width="648" height="385" viewBox="0 0 648 385" style="fill:none;stroke:none;fill-rule:evenodd;clip-rule:evenodd;stroke-linecap:round;stroke-linejoin:round;stroke-miterlimit:1.5;" version="1.1" xmlns="http://www.w3.org/2000/svg" xmlns:xlink="http://www.w3.org/1999/xlink"><style id="fontImports">@import url("https://fonts.googleapis.com/css2?family=Shantell+Sans:wght@300..800&amp;display=block");</style><rect id="" x="0" y="0" width="648" height="385" style="fill: #ffffff;"></rect><g id="items" style="isolation: isolate"><g id="blend" style="mix-blend-mode:multiply"><g id="g-root-3.cr-small_cr_1lqjp2d1seqyvh-fill" data-item-order="-117284" data-item-id="3.cr-small_cr_1lqjp2d1seqyvh" data-item-class="Shape Stroke Fill ScenePart Part Indexed" data-item-index="3" data-renderer-id="0" transform="translate(121, 3)"><g id="3.cr-small_cr_1lqjp2d1seqyvh-fill" stroke="none" fill="#ffd0ce"><g><path d="M 10 46C 10 65.882251 26.117749 82 46 82C 65.882251 82 82 65.882251 82 46C 82 26.117749 65.882251 10 46 10C 26.117749 10 10 26.117749 10 46"></path></g></g></g><g id="g-root-2.cr-small_cr_1lqjp2d1seqyvg-fill" data-item-order="-117282" data-item-id="2.cr-small_cr_1lqjp2d1seqyvg" data-item-class="Shape Stroke Fill ScenePart Part Indexed" data-item-index="2" data-renderer-id="0" transform="translate(266, 255)"><g id="2.cr-small_cr_1lqjp2d1seqyvg-fill" stroke="none" fill="#d5f7e8"><g><path d="M 10 46C 10 65.882251 26.117749 82 46 82C 65.882251 82 82 65.882251 82 46C 82 26.117749 65.882251 10 46 10C 26.117749 10 10 26.117749 10 46"></path></g></g></g><g id="g-root-1.cr-small_cr_1ulk8851ser18j-fill" data-item-order="-117280" data-item-id="1.cr-small_cr_1ulk8851ser18j" data-item-class="Shape Stroke Fill ScenePart Part Indexed Indexed_1" data-item-index="1" data-renderer-id="0" transform="translate(411, 3)"><g id="1.cr-small_cr_1ulk8851ser18j-fill" stroke="none" fill="#fff9ce"><g><path d="M 10 46C 10 65.882251 26.117749 82 46 82C 65.882251 82 82 65.882251 82 46C 82 26.117749 65.882251 10 46 10C 26.117749 10 10 26.117749 10 46"></path></g></g></g><g id="g-root-0.Vector_sy_dbq6qt1seqz2h-fill" data-item-order="-117278" data-item-id="0.Vector_sy_dbq6qt1seqz2h" data-item-class="ScenePart Part Indexed_0 Fill Stroke ColorFillGray ColorStrokeBlack" data-item-index="0" data-renderer-id="0" transform="translate(230, 50.996002197265625)"><g id="0.Vector_sy_dbq6qt1seqz2h-fill" stroke="none" fill="#eaeaea"><g><path d="M 154 81.999998C 154 42.235998 121.765 9.999998 82 9.999998L 82 9.999998C 42.236 9.999998 10 42.235998 10 81.999998L 10 81.999998C 10 121.764998 42.236 153.999998 82 153.999998L 82 153.999998C 121.764 153.999998 154 121.764998 154 81.999998L 154 81.999998Z"></path></g></g></g><g id="g-root-0.Union_sy_8vwomd1seqzuq-fill" data-item-order="-117276" data-item-id="0.Union_sy_8vwomd1seqzuq" data-item-class="ScenePart Part Indexed_0 Fill Stroke ColorFillGray ColorStrokeBlack" data-item-index="0" data-renderer-id="0" transform="translate(205.03900146484375, 51)"><g id="0.Union_sy_8vwomd1seqzuq-fill" stroke="none" fill="#eaeaea"><g><path d="M 172.005999 51.088C 176.464999 60.454 178.960999 70.936 178.960999 82C 178.960999 119.817 149.804999 150.825 112.744999 153.771L 112.744999 180.035L 119.849999 180.035L 106.957999 194L 94.064999 180.035L 101.241999 180.035L 101.241999 153.776C 64.150999 150.861 34.960999 119.839 34.960999 82C 34.960999 70.905 37.470999 60.396 41.952999 51.01L 19.199999 37.873L 15.647999 44.026L 9.999999 25.878L 28.539999 21.696L 24.951999 27.911L 47.725999 41.059C 60.720999 22.292 82.405999 10 106.960999 10C 131.546999 10 153.255999 22.324 166.244999 41.131L 189.088999 27.942L 185.535999 21.789L 204.076999 25.972L 198.428999 44.119L 194.839999 37.905L 172.005999 51.088Z"></path></g></g></g><g id="g-root-tx_predicti_1lqjp2d1seqyvi-fill" data-item-order="0" data-item-id="tx_predicti_1lqjp2d1seqyvi" data-item-class="Label Stroke SceneTarget Indexed ColorStrokeBlack" data-item-index="3" data-renderer-id="0" transform="translate(2, 15)"><g id="tx_predicti_1lqjp2d1seqyvi-fill" stroke="none" fill="#484848"><g><text style="font: 20px &quot;Shantell Sans&quot;, cursive; white-space: pre;"><tspan x="22.25" y="35.33" dominant-baseline="ideographic">Predictive </tspan><tspan x="35.02" y="59.33" dominant-baseline="ideographic">Patterns</tspan></text></g></g></g><g id="g-root-fore_1imjp1sev9c8-fill" data-item-order="0" data-item-id="fore_1imjp1sev9c8" data-item-class="Icon Stroke SceneTarget Indexed InsideFill" data-item-index="3" data-renderer-id="0" transform="translate(132, 15)"></g><g id="g-root-robo_dcz4x11sev7rb-fill" data-item-order="0" data-item-id="robo_dcz4x11sev7rb" data-item-class="Icon Stroke SceneTarget Indexed Indexed_1 InsideFill" data-item-index="1" data-renderer-id="0" transform="translate(424, 15)"></g><g id="g-root-tx_aimanipu_13z9okl1ser18o-fill" data-item-order="0" data-item-id="tx_aimanipu_13z9okl1ser18o" data-item-class="Label Stroke SceneTarget Indexed Indexed_1 ColorStrokeBlack" data-item-index="1" data-renderer-id="0" transform="translate(494, 15)"><g id="tx_aimanipu_13z9okl1ser18o-fill" stroke="none" fill="#484848"><g><text style="font: 20px &quot;Shantell Sans&quot;, cursive; white-space: pre;"><tspan x="12" y="35.33" dominant-baseline="ideographic">AI </tspan><tspan x="12" y="59.33" dominant-baseline="ideographic">Manipulation</tspan></text></g></g></g><g id="g-root-1_1lpx7z91sev8jx-fill" data-item-order="0" data-item-id="1_1lpx7z91sev8jx" data-item-class="Icon Stroke SceneTarget SceneStart InsideFill InsideGrayFill ColorStrokeBlack" data-item-index="none" data-renderer-id="0" transform="translate(266, 86.9959716796875)"></g><g id="g-root-2_v3mobp1sev8jy-fill" data-item-order="0" data-item-id="2_v3mobp1sev8jy" data-item-class="Icon Stroke SceneTarget Indexed InsideFill" data-item-index="2" data-renderer-id="0" transform="translate(278, 267)"></g><g id="g-root-tx_safetyme_18f36p11ser0gf-fill" data-item-order="0" data-item-id="tx_safetyme_18f36p11ser0gf" data-item-class="Label Stroke SceneTarget Indexed ColorStrokeBlack" data-item-index="2" data-renderer-id="0" transform="translate(218, 339)"><g id="tx_safetyme_18f36p11ser0gf-fill" stroke="none" fill="#484848"><g><text style="font: 20px &quot;Shantell Sans&quot;, cursive; white-space: pre;"><tspan x="13.86" y="35.33" dominant-baseline="ideographic">Safety Measures</tspan></text></g></g></g><g id="g-root-3.cr-small_cr_1lqjp2d1seqyvh-stroke" data-item-order="-117284" data-item-id="3.cr-small_cr_1lqjp2d1seqyvh" data-item-class="Shape Stroke Fill ScenePart Part Indexed" data-item-index="3" data-renderer-id="0" transform="translate(121, 3)"><g id="3.cr-small_cr_1lqjp2d1seqyvh-stroke" fill="none" stroke-linecap="round" stroke-linejoin="round" stroke-miterlimit="4" stroke="#e15e5a" stroke-width="2"><g><path d="M 10 46C 10 65.882251 26.117749 82 46 82C 65.882251 82 82 65.882251 82 46C 82 26.117749 65.882251 10 46 10C 26.117749 10 10 26.117749 10 46"></path></g></g></g><g id="g-root-2.cr-small_cr_1lqjp2d1seqyvg-stroke" data-item-order="-117282" data-item-id="2.cr-small_cr_1lqjp2d1seqyvg" data-item-class="Shape Stroke Fill ScenePart Part Indexed" data-item-index="2" data-renderer-id="0" transform="translate(266, 255)"><g id="2.cr-small_cr_1lqjp2d1seqyvg-stroke" fill="none" stroke-linecap="round" stroke-linejoin="round" stroke-miterlimit="4" stroke="#3bc482" stroke-width="2"><g><path d="M 10 46C 10 65.882251 26.117749 82 46 82C 65.882251 82 82 65.882251 82 46C 82 26.117749 65.882251 10 46 10C 26.117749 10 10 26.117749 10 46"></path></g></g></g><g id="g-root-1.cr-small_cr_1ulk8851ser18j-stroke" data-item-order="-117280" data-item-id="1.cr-small_cr_1ulk8851ser18j" data-item-class="Shape Stroke Fill ScenePart Part Indexed Indexed_1" data-item-index="1" data-renderer-id="0" transform="translate(411, 3)"><g id="1.cr-small_cr_1ulk8851ser18j-stroke" fill="none" stroke-linecap="round" stroke-linejoin="round" stroke-miterlimit="4" stroke="#e3cd09" stroke-width="2"><g><path d="M 10 46C 10 65.882251 26.117749 82 46 82C 65.882251 82 82 65.882251 82 46C 82 26.117749 65.882251 10 46 10C 26.117749 10 10 26.117749 10 46"></path></g></g></g><g id="g-root-0.Vector_sy_dbq6qt1seqz2h-stroke" data-item-order="-117278" data-item-id="0.Vector_sy_dbq6qt1seqz2h" data-item-class="ScenePart Part Indexed_0 Fill Stroke ColorFillGray ColorStrokeBlack" data-item-index="0" data-renderer-id="0" transform="translate(230, 50.996002197265625)"><g id="0.Vector_sy_dbq6qt1seqz2h-stroke" fill="none" stroke-linecap="round" stroke-linejoin="round" stroke-miterlimit="4" stroke="#2c2c2c" stroke-width="2"><g><path d="M 154 81.999998C 154 42.235998 121.765 9.999998 82 9.999998L 82 9.999998C 42.236 9.999998 10 42.235998 10 81.999998L 10 81.999998C 10 121.764998 42.236 153.999998 82 153.999998L 82 153.999998C 121.764 153.999998 154 121.764998 154 81.999998L 154 81.999998Z"></path></g></g></g><g id="g-root-0.Union_sy_8vwomd1seqzuq-stroke" data-item-order="-117276" data-item-id="0.Union_sy_8vwomd1seqzuq" data-item-class="ScenePart Part Indexed_0 Fill Stroke ColorFillGray ColorStrokeBlack" data-item-index="0" data-renderer-id="0" transform="translate(205.03900146484375, 51)"><g id="0.Union_sy_8vwomd1seqzuq-stroke" fill="none" stroke-linecap="round" stroke-linejoin="round" stroke-miterlimit="4" stroke="#2c2c2c" stroke-width="2"><g><path d="M 172.005999 51.088C 176.464999 60.454 178.960999 70.936 178.960999 82C 178.960999 119.817 149.804999 150.825 112.744999 153.771L 112.744999 180.035L 119.849999 180.035L 106.957999 194L 94.064999 180.035L 101.241999 180.035L 101.241999 153.776C 64.150999 150.861 34.960999 119.839 34.960999 82C 34.960999 70.905 37.470999 60.396 41.952999 51.01L 19.199999 37.873L 15.647999 44.026L 9.999999 25.878L 28.539999 21.696L 24.951999 27.911L 47.725999 41.059C 60.720999 22.292 82.405999 10 106.960999 10C 131.546999 10 153.255999 22.324 166.244999 41.131L 189.088999 27.942L 185.535999 21.789L 204.076999 25.972L 198.428999 44.119L 194.839999 37.905L 172.005999 51.088Z"></path></g></g></g><g id="g-root-tx_predicti_1lqjp2d1seqyvi-stroke" data-item-order="0" data-item-id="tx_predicti_1lqjp2d1seqyvi" data-item-class="Label Stroke SceneTarget Indexed ColorStrokeBlack" data-item-index="3" data-renderer-id="0" transform="translate(2, 15)"></g><g id="g-root-fore_1imjp1sev9c8-stroke" data-item-order="0" data-item-id="fore_1imjp1sev9c8" data-item-class="Icon Stroke SceneTarget Indexed InsideFill" data-item-index="3" data-renderer-id="0" transform="translate(132, 15)"><g id="fore_1imjp1sev9c8-stroke" fill="none" stroke-linecap="round" stroke-linejoin="round" stroke-miterlimit="4" stroke="#e15e5a" stroke-width="2"><g><path d="M 11 12.034L 11 55.966L 57 55.966M 51.762001 33.478001C 47.86594 39.362556 41.314705 42.942833 34.258003 43.044003C 27.201662 42.941444 20.651031 39.3615 16.754 33.478001C 16.465897 33.005089 16.465897 32.410912 16.754 31.938002C 20.649847 26.052944 27.20101 22.471962 34.257999 22.369999C 41.315353 22.47057 47.867126 26.051886 51.762001 31.938C 52.051937 32.410393 52.051937 33.005608 51.762001 33.477997ZM 27.908001 32.708C 27.907698 36.215221 30.750778 39.058548 34.257999 39.058548C 37.765221 39.058548 40.608303 36.215221 40.608002 32.708C 40.608303 29.200777 37.765221 26.357452 34.257999 26.357452C 30.750778 26.357452 27.907698 29.200777 27.907999 32.708M 11.516 55.450001L 22.024 44.942001M 45.456001 12.034L 54.931999 12.034L 54.931999 21.51M 47.172001 19.793999L 54.931999 12.034"></path></g></g></g><g id="g-root-robo_dcz4x11sev7rb-stroke" data-item-order="0" data-item-id="robo_dcz4x11sev7rb" data-item-class="Icon Stroke SceneTarget Indexed Indexed_1 InsideFill" data-item-index="1" data-renderer-id="0" transform="translate(424, 15)"><g id="robo_dcz4x11sev7rb-stroke" fill="none" stroke-linecap="round" stroke-linejoin="round" stroke-miterlimit="4" stroke="#e3cd09" stroke-width="2"><g><path d="M 22 11L 46 11C 46 11 49 11 49 14L 49 26C 49 26 49 29 46 29L 22 29C 22 29 19 29 19 26L 19 14C 19 14 19 11 22 11M 23 20C 23 21.656855 24.343147 23 26 23C 27.656855 23 29 21.656855 29 20C 29 18.343147 27.656855 17 26 17C 24.343147 17 23 18.343147 23 20M 39 20C 39 21.656855 40.343147 23 42 23C 43.656857 23 45 21.656855 45 20C 45 18.343147 43.656857 17 42 17C 40.343147 17 39 18.343147 39 20M 31 33L 37 33M 31 37L 37 37M 40.68 41L 27.32 41C 25.107628 40.998844 23.01342 41.998344 21.622852 43.719078C 20.232283 45.439812 19.694555 47.697144 20.16 49.860004L 21.1 56.200001C 21.187756 56.670036 21.60191 57.008121 22.08 57L 46 57C 46.478088 57.008121 46.892246 56.670036 46.98 56.200001L 47.919998 49.860001C 48.388565 47.683365 47.840996 45.411789 46.432152 43.687706C 45.023304 41.963623 42.906357 40.974472 40.68 41ZM 48 47.560001L 51.419998 44.34C 53.624912 42.596592 54.62915 39.739578 54.000004 37L 54 36.620003M 56 29C 57.136318 30.515089 57.319096 32.542149 56.472137 34.236069C 55.625175 35.929989 53.89386 37 52 37C 50.425468 37.003166 48.942188 36.261524 48 35M 20 47.560001L 16.619999 44.34C 14.400293 42.606178 13.379891 39.747494 14 37L 14 36.599998M 12 29C 10.863684 30.515089 10.680904 32.542149 11.527864 34.236069C 12.374825 35.929989 14.10614 37 16 37C 17.574532 37.003166 19.057812 36.261524 20 35M 42 57L 42 48C 42 47.447716 41.552284 47 41 47L 27 47C 26.447716 47 26 47.447716 26 48L 26 57"></path></g></g></g><g id="g-root-tx_aimanipu_13z9okl1ser18o-stroke" data-item-order="0" data-item-id="tx_aimanipu_13z9okl1ser18o" data-item-class="Label Stroke SceneTarget Indexed Indexed_1 ColorStrokeBlack" data-item-index="1" data-renderer-id="0" transform="translate(494, 15)"></g><g id="g-root-1_1lpx7z91sev8jx-stroke" data-item-order="0" data-item-id="1_1lpx7z91sev8jx" data-item-class="Icon Stroke SceneTarget SceneStart InsideFill InsideGrayFill ColorStrokeBlack" data-item-index="none" data-renderer-id="0" transform="translate(266, 86.9959716796875)"><g id="1_1lpx7z91sev8jx-stroke" fill="none" stroke-linecap="round" stroke-linejoin="round" stroke-miterlimit="4" stroke="#484848" stroke-width="2"><g><path d="M 17.5 19.011999L 74.5 19.011999C 74.5 19.011999 80.5 19.011999 80.5 25.011999L 80.5 67.012001C 80.5 67.012001 80.5 73.012001 74.5 73.012001L 17.5 73.012001C 17.5 73.012001 11.5 73.012001 11.5 67.012001L 11.5 25.011999C 11.5 25.011999 11.5 19.011999 17.5 19.011999M 11.5 34.012001L 80.5 34.012001M 22 25.762001C 22.414213 25.762001 22.75 26.097786 22.75 26.512001C 22.75 26.926214 22.414213 27.262001 22 27.262001C 21.585787 27.262001 21.25 26.926214 21.25 26.512001C 21.25 26.097786 21.585787 25.762001 22 25.762001M 31 25.762001C 31.414213 25.762001 31.75 26.097786 31.75 26.512001C 31.75 26.926214 31.414213 27.262001 31 27.262001C 30.585787 27.262001 30.25 26.926214 30.25 26.512001C 30.25 26.097786 30.585787 25.762001 31 25.762001M 40 25.762001C 40.414215 25.762001 40.75 26.097786 40.75 26.512001C 40.75 26.926214 40.414215 27.262001 40 27.262001C 39.585785 27.262001 39.25 26.926214 39.25 26.512001C 39.25 26.097786 39.585785 25.762001 40 25.762001M 38.5 49.012001L 50.5 49.012001C 50.5 49.012001 53.5 49.012001 53.5 52.012001L 53.5 61.012001C 53.5 61.012001 53.5 64.012001 50.5 64.012001L 38.5 64.012001C 38.5 64.012001 35.5 64.012001 35.5 61.012001L 35.5 52.012001C 35.5 52.012001 35.5 49.012001 38.5 49.012001M 44.5 40L 44.5 40C 41.186291 40 38.5 42.686291 38.5 46L 38.5 49L 50.5 49L 50.5 46C 50.5 42.686291 47.813709 40 44.5 40ZM 44.5 55.819C 44.914215 55.819 45.25 56.154785 45.25 56.569C 45.25 56.983212 44.914215 57.319 44.5 57.319C 44.085785 57.319 43.75 56.983212 43.75 56.569C 43.75 56.154785 44.085785 55.819 44.5 55.819"></path></g></g></g><g id="g-root-2_v3mobp1sev8jy-stroke" data-item-order="0" data-item-id="2_v3mobp1sev8jy" data-item-class="Icon Stroke SceneTarget Indexed InsideFill" data-item-index="2" data-renderer-id="0" transform="translate(278, 267)"><g id="2_v3mobp1sev8jy-stroke" fill="none" stroke-linecap="round" stroke-linejoin="round" stroke-miterlimit="4" stroke="#3bc482" stroke-width="2"><g><path d="M 37.154285 55.291428L 35.131428 56.079998C 34.401936 56.353508 33.598064 56.353508 32.868572 56.079998L 30.845715 55.291428C 20.360811 51.18087 13.454007 41.078991 13.428572 29.817144L 13.428572 20.285715C 21.338177 21.41297 29.230934 18.124321 34 11.714286C 38.285713 17.954285 45.382858 20.902857 54.57143 20.285715L 54.57143 29.817144C 54.545994 41.078991 47.639191 51.18087 37.154285 55.291428Z"></path></g></g></g><g id="g-root-tx_safetyme_18f36p11ser0gf-stroke" data-item-order="0" data-item-id="tx_safetyme_18f36p11ser0gf" data-item-class="Label Stroke SceneTarget Indexed ColorStrokeBlack" data-item-index="2" data-renderer-id="0" transform="translate(218, 339)"></g></g></g></svg>