<?xml version="1.0" encoding="utf-8" standalone="yes"?>
<!DOCTYPE svg PUBLIC "-//W3C//DTD SVG 1.1//EN" "http://www.w3.org/Graphics/SVG/1.1/DTD/svg11.dtd">
<svg width="828" height="254" viewBox="0 0 828 254" style="fill:none;stroke:none;fill-rule:evenodd;clip-rule:evenodd;stroke-linecap:round;stroke-linejoin:round;stroke-miterlimit:1.5;" version="1.1" xmlns="http://www.w3.org/2000/svg" xmlns:xlink="http://www.w3.org/1999/xlink"><style id="fontImports">@import url("https://fonts.googleapis.com/css2?family=Roboto:wght@400;700&amp;display=block");</style><rect id="" x="0" y="0" width="828" height="254" style="fill: #ffffff;"></rect><g id="items" style="isolation: isolate"><g id="blend" style="mix-blend-mode:multiply"><g id="g-root--1.cu_sy_1lvjel11somebm-fill" data-item-order="-109436" data-item-id="-1.cu_sy_1lvjel11somebm" data-item-class="ScenePart Part Fill Stroke ColorFillGray ColorStrokeGray" data-item-index="-1" data-renderer-id="0" transform="translate(253, 14.99993896484375)"><g id="-1.cu_sy_1lvjel11somebm-fill" stroke="none" fill="#f6f6f6"><g><path d="M 125 34L 101 10L 10 166L 34 190L 125 34ZM 125 34L 34 190L 216 190L 125 34Z"></path></g></g></g><g id="g-root-0.line-start_sy_1czwec51somf4b-fill" data-item-order="-109433" data-item-id="0.line-start_sy_1czwec51somf4b" data-item-class="ScenePart Part Indexed_0 Stroke" data-item-index="0" data-renderer-id="0" transform="translate(230, 116.99993896484375)"></g><g id="g-root-0.cr-small_cr_18kpdat1somcqs-fill" data-item-order="-109432" data-item-id="0.cr-small_cr_18kpdat1somcqs" data-item-class="Shape Stroke Fill ScenePart Part Indexed_0" data-item-index="0" data-renderer-id="0" transform="translate(158, 80.99993896484375)"><g id="0.cr-small_cr_18kpdat1somcqs-fill" stroke="none" fill="#f0f0f0"><g><path d="M 10 46C 10 65.882251 26.117749 82 46 82C 65.882251 82 82 65.882251 82 46C 82 26.117749 65.882251 10 46 10C 26.117749 10 10 26.117749 10 46"></path></g></g></g><g id="g-root-3.line_sy_vb4a6t1somdc1-fill" data-item-order="-109429" data-item-id="3.line_sy_vb4a6t1somdc1" data-item-class="ScenePart Part Indexed Stroke" data-item-index="3" data-renderer-id="0" transform="translate(323, 116.99993896484375)"></g><g id="g-root-3.cr-small_cr_mfh9xx1some4q-fill" data-item-order="-109428" data-item-id="3.cr-small_cr_mfh9xx1some4q" data-item-class="Shape Stroke Fill ScenePart Part Indexed" data-item-index="3" data-renderer-id="0" transform="translate(578, 170.99993896484375)"><g id="3.cr-small_cr_mfh9xx1some4q-fill" stroke="none" fill="#ffe7e6"><g><path d="M 10 40C 10.000002 56.568544 23.431459 70.000002 40.000002 70.000002C 56.568544 70.000002 70.000002 56.568544 70.000002 40.000002C 70.000002 23.431459 56.568544 10.000002 40.000002 10.000002C 23.431459 10.000002 10.000002 23.431459 10.000002 40.000002"></path></g></g></g><g id="g-root-2.line_sy_92rted1somdjj-fill" data-item-order="-109425" data-item-id="2.line_sy_92rted1somdjj" data-item-class="ScenePart Part Indexed Stroke" data-item-index="2" data-renderer-id="0" transform="translate(322.5, 116.99993896484375)"></g><g id="g-root-2.cr-small_cr_1qd8byt1somcjs-fill" data-item-order="-109424" data-item-id="2.cr-small_cr_1qd8byt1somcjs" data-item-class="Shape Stroke Fill ScenePart Part Indexed" data-item-index="2" data-renderer-id="0" transform="translate(578, 86.99993896484375)"><g id="2.cr-small_cr_1qd8byt1somcjs-fill" stroke="none" fill="#fef2e6"><g><path d="M 10 40C 10.000002 56.568544 23.431459 70.000002 40.000002 70.000002C 56.568544 70.000002 70.000002 56.568544 70.000002 40.000002C 70.000002 23.431459 56.568544 10.000002 40.000002 10.000002C 23.431459 10.000002 10.000002 23.431459 10.000002 40.000002"></path></g></g></g><g id="g-root-1.line_sy_zp2d1x1somdjh-fill" data-item-order="-109421" data-item-id="1.line_sy_zp2d1x1somdjh" data-item-class="ScenePart Part Indexed Indexed_1 Stroke" data-item-index="1" data-renderer-id="0" transform="translate(322.5, 32.99993896484375)"></g><g id="g-root-1.cr-small_cr_v98uxh1somebq-fill" data-item-order="-109420" data-item-id="1.cr-small_cr_v98uxh1somebq" data-item-class="Shape Stroke Fill ScenePart Part Indexed Indexed_1" data-item-index="1" data-renderer-id="0" transform="translate(578, 3)"><g id="1.cr-small_cr_v98uxh1somebq-fill" stroke="none" fill="#fffce6"><g><path d="M 10 40C 10.000002 56.568544 23.431459 70.000002 40.000002 70.000002C 56.568544 70.000002 70.000002 56.568544 70.000002 40.000002C 70.000002 23.431459 56.568544 10.000002 40.000002 10.000002C 23.431459 10.000002 10.000002 23.431459 10.000002 40.000002"></path></g></g></g><g id="g-root-2_hznrth1sop5ov-fill" data-item-order="0" data-item-id="2_hznrth1sop5ov" data-item-class="Icon Stroke SceneTarget Indexed Indexed_1 InsideFill InsideColorFill" data-item-index="1" data-renderer-id="0" transform="translate(590, 14.99993896484375)"></g><g id="g-root-tx_safetypr_mahh911sons3y-fill" data-item-order="0" data-item-id="tx_safetypr_mahh911sons3y" data-item-class="Label Stroke SceneTarget Indexed Indexed_1" data-item-index="1" data-renderer-id="0" transform="translate(650, 20.99993896484375)"><g id="tx_safetypr_mahh911sons3y-fill" stroke="none" fill="#484848"><g><text style="font: 20px Roboto, sans-serif; white-space: pre;"><tspan x="12" y="34" dominant-baseline="ideographic">Safety Protocols</tspan></text></g></g></g><g id="g-root-lock_1uqjxqt1sop7gs-fill" data-item-order="0" data-item-id="lock_1uqjxqt1sop7gs" data-item-class="Icon Stroke SceneTarget SceneStart InsideFill" data-item-index="none" data-renderer-id="0" transform="translate(170, 92.99993896484375)"></g><g id="g-root-tx_jailbrea_14808lx1somdxn-fill" data-item-order="0" data-item-id="tx_jailbrea_14808lx1somdxn" data-item-class="Label Stroke SceneTarget SceneStart" data-item-index="none" data-renderer-id="0" transform="translate(2, 104.99993896484375)"><g id="tx_jailbrea_14808lx1somdxn-fill" stroke="none" fill="#484848"><g><text style="font: 20px Roboto, sans-serif; white-space: pre;"><tspan x="20.42" y="34" dominant-baseline="ideographic">Jailbreaking AI</tspan></text></g></g></g><g id="g-root-scal_1hgyumt1sop81y-fill" data-item-order="0" data-item-id="scal_1hgyumt1sop81y" data-item-class="Icon Stroke SceneTarget Indexed InsideFill InsideColorFill" data-item-index="2" data-renderer-id="0" transform="translate(590, 98.99993896484375)"></g><g id="g-root-tx_ethicalb_ddlitx1sonrid-fill" data-item-order="0" data-item-id="tx_ethicalb_ddlitx1sonrid" data-item-class="Label Stroke SceneTarget Indexed" data-item-index="2" data-renderer-id="0" transform="translate(650, 92.99993896484375)"><g id="tx_ethicalb_ddlitx1sonrid-fill" stroke="none" fill="#484848"><g><text style="font: 20px Roboto, sans-serif; white-space: pre;"><tspan x="12" y="34" dominant-baseline="ideographic">Ethical </tspan><tspan x="12" y="58" dominant-baseline="ideographic">Boundaries</tspan></text></g></g></g><g id="g-root-circ_mdluol1sop6o5-fill" data-item-order="0" data-item-id="circ_mdluol1sop6o5" data-item-class="Icon Stroke SceneTarget Indexed InsideFill InsideColorFill" data-item-index="3" data-renderer-id="0" transform="translate(590, 182.99993896484375)"></g><g id="g-root-tx_usermani_1haq3rp1sont38-fill" data-item-order="0" data-item-id="tx_usermani_1haq3rp1sont38" data-item-class="Label Stroke SceneTarget Indexed" data-item-index="3" data-renderer-id="0" transform="translate(650, 176.99993896484375)"><g id="tx_usermani_1haq3rp1sont38-fill" stroke="none" fill="#484848"><g><text style="font: 20px Roboto, sans-serif; white-space: pre;"><tspan x="12" y="34" dominant-baseline="ideographic">User </tspan><tspan x="12" y="58" dominant-baseline="ideographic">Manipulation</tspan></text></g></g></g><g id="g-root--1.cu_sy_1lvjel11somebm-stroke" data-item-order="-109436" data-item-id="-1.cu_sy_1lvjel11somebm" data-item-class="ScenePart Part Fill Stroke ColorFillGray ColorStrokeGray" data-item-index="-1" data-renderer-id="0" transform="translate(253, 14.99993896484375)"><g id="-1.cu_sy_1lvjel11somebm-stroke" fill="none" stroke-linecap="round" stroke-linejoin="round" stroke-miterlimit="4" stroke="#888888" stroke-width="2"><g><path d="M 125 34L 101 10L 10 166L 34 190L 125 34ZM 125 34L 34 190L 216 190L 125 34Z"></path></g></g></g><g id="g-root-0.line-start_sy_1czwec51somf4b-stroke" data-item-order="-109433" data-item-id="0.line-start_sy_1czwec51somf4b" data-item-class="ScenePart Part Indexed_0 Stroke" data-item-index="0" data-renderer-id="0" transform="translate(230, 116.99993896484375)"><g id="0.line-start_sy_1czwec51somf4b-stroke" fill="none" stroke-linecap="round" stroke-linejoin="round" stroke-miterlimit="4" stroke="#484848" stroke-width="2"><g><path d="M 10 10L 102.5 10"></path></g></g></g><g id="g-root-0.cr-small_cr_18kpdat1somcqs-stroke" data-item-order="-109432" data-item-id="0.cr-small_cr_18kpdat1somcqs" data-item-class="Shape Stroke Fill ScenePart Part Indexed_0" data-item-index="0" data-renderer-id="0" transform="translate(158, 80.99993896484375)"><g id="0.cr-small_cr_18kpdat1somcqs-stroke" fill="none" stroke-linecap="round" stroke-linejoin="round" stroke-miterlimit="4" stroke="#484848" stroke-width="2"><g><path d="M 10 46C 10 65.882251 26.117749 82 46 82C 65.882251 82 82 65.882251 82 46C 82 26.117749 65.882251 10 46 10C 26.117749 10 10 26.117749 10 46"></path></g></g></g><g id="g-root-3.line_sy_vb4a6t1somdc1-stroke" data-item-order="-109429" data-item-id="3.line_sy_vb4a6t1somdc1" data-item-class="ScenePart Part Indexed Stroke" data-item-index="3" data-renderer-id="0" transform="translate(323, 116.99993896484375)"><g id="3.line_sy_vb4a6t1somdc1-stroke" fill="none" stroke-linecap="round" stroke-linejoin="round" stroke-miterlimit="4" stroke="#e15e5a" stroke-width="2"><g><path d="M 257.19 93.14L 107.5 22L 10 10"></path><path d="M 249 96.4L 257.6 93.4L 254.6 84.7" stroke-dasharray="none"></path></g></g></g><g id="g-root-3.cr-small_cr_mfh9xx1some4q-stroke" data-item-order="-109428" data-item-id="3.cr-small_cr_mfh9xx1some4q" data-item-class="Shape Stroke Fill ScenePart Part Indexed" data-item-index="3" data-renderer-id="0" transform="translate(578, 170.99993896484375)"><g id="3.cr-small_cr_mfh9xx1some4q-stroke" fill="none" stroke-linecap="round" stroke-linejoin="round" stroke-miterlimit="4" stroke="#e15e5a" stroke-width="2"><g><path d="M 10 40C 10.000002 56.568544 23.431459 70.000002 40.000002 70.000002C 56.568544 70.000002 70.000002 56.568544 70.000002 40.000002C 70.000002 23.431459 56.568544 10.000002 40.000002 10.000002C 23.431459 10.000002 10.000002 23.431459 10.000002 40.000002"></path></g></g></g><g id="g-root-2.line_sy_92rted1somdjj-stroke" data-item-order="-109425" data-item-id="2.line_sy_92rted1somdjj" data-item-class="ScenePart Part Indexed Stroke" data-item-index="2" data-renderer-id="0" transform="translate(322.5, 116.99993896484375)"><g id="2.line_sy_92rted1somdjj-stroke" fill="none" stroke-linecap="round" stroke-linejoin="round" stroke-miterlimit="4" stroke="#dd8433" stroke-width="2"><g><path d="M 257.5 10.49L 101 10L 10 10"></path><path d="M 251.5 17L 258 10.5L 251.5 4" stroke-dasharray="none"></path></g></g></g><g id="g-root-2.cr-small_cr_1qd8byt1somcjs-stroke" data-item-order="-109424" data-item-id="2.cr-small_cr_1qd8byt1somcjs" data-item-class="Shape Stroke Fill ScenePart Part Indexed" data-item-index="2" data-renderer-id="0" transform="translate(578, 86.99993896484375)"><g id="2.cr-small_cr_1qd8byt1somcjs-stroke" fill="none" stroke-linecap="round" stroke-linejoin="round" stroke-miterlimit="4" stroke="#dd8433" stroke-width="2"><g><path d="M 10 40C 10.000002 56.568544 23.431459 70.000002 40.000002 70.000002C 56.568544 70.000002 70.000002 56.568544 70.000002 40.000002C 70.000002 23.431459 56.568544 10.000002 40.000002 10.000002C 23.431459 10.000002 10.000002 23.431459 10.000002 40.000002"></path></g></g></g><g id="g-root-1.line_sy_zp2d1x1somdjh-stroke" data-item-order="-109421" data-item-id="1.line_sy_zp2d1x1somdjh" data-item-class="ScenePart Part Indexed Indexed_1 Stroke" data-item-index="1" data-renderer-id="0" transform="translate(322.5, 32.99993896484375)"><g id="1.line_sy_zp2d1x1somdjh-stroke" fill="none" stroke-linecap="round" stroke-linejoin="round" stroke-miterlimit="4" stroke="#e3cd09" stroke-width="2"><g><path d="M 10 94.000015L 94 82.000015L 257.67 10.800015"></path><path d="M 254.8 19.200015L 258.1 10.600015L 249.6 7.200015" stroke-dasharray="none"></path></g></g></g><g id="g-root-1.cr-small_cr_v98uxh1somebq-stroke" data-item-order="-109420" data-item-id="1.cr-small_cr_v98uxh1somebq" data-item-class="Shape Stroke Fill ScenePart Part Indexed Indexed_1" data-item-index="1" data-renderer-id="0" transform="translate(578, 3)"><g id="1.cr-small_cr_v98uxh1somebq-stroke" fill="none" stroke-linecap="round" stroke-linejoin="round" stroke-miterlimit="4" stroke="#e3cd09" stroke-width="2"><g><path d="M 10 40C 10.000002 56.568544 23.431459 70.000002 40.000002 70.000002C 56.568544 70.000002 70.000002 56.568544 70.000002 40.000002C 70.000002 23.431459 56.568544 10.000002 40.000002 10.000002C 23.431459 10.000002 10.000002 23.431459 10.000002 40.000002"></path></g></g></g><g id="g-root-2_hznrth1sop5ov-stroke" data-item-order="0" data-item-id="2_hznrth1sop5ov" data-item-class="Icon Stroke SceneTarget Indexed Indexed_1 InsideFill InsideColorFill" data-item-index="1" data-renderer-id="0" transform="translate(590, 14.99993896484375)"><g id="2_hznrth1sop5ov-stroke" fill="none" stroke-linecap="round" stroke-linejoin="round" stroke-miterlimit="4" stroke="#e3cd09" stroke-width="2"><g><path d="M 30.365715 43.968571L 28.848572 44.559998C 28.301453 44.765129 27.698547 44.765129 27.151428 44.559998L 25.634285 43.968571C 17.770609 40.885654 12.590505 33.309242 12.571428 24.862858L 12.571428 17.714285C 18.503632 18.559727 24.423199 16.093241 28 11.285714C 31.214285 15.965714 36.53714 18.177143 43.42857 17.714285L 43.42857 24.862858C 43.409496 33.309242 38.229393 40.885654 30.365715 43.968571Z"></path></g></g></g><g id="g-root-tx_safetypr_mahh911sons3y-stroke" data-item-order="0" data-item-id="tx_safetypr_mahh911sons3y" data-item-class="Label Stroke SceneTarget Indexed Indexed_1" data-item-index="1" data-renderer-id="0" transform="translate(650, 20.99993896484375)"></g><g id="g-root-lock_1uqjxqt1sop7gs-stroke" data-item-order="0" data-item-id="lock_1uqjxqt1sop7gs" data-item-class="Icon Stroke SceneTarget SceneStart InsideFill" data-item-index="none" data-renderer-id="0" transform="translate(170, 92.99993896484375)"><g id="lock_1uqjxqt1sop7gs-stroke" fill="none" stroke-linecap="round" stroke-linejoin="round" stroke-miterlimit="4" stroke="#484848" stroke-width="2"><g><path d="M 23 27L 23 22C 23 15.924868 27.924868 11 34 11C 40.075134 11 45 15.924868 45 22L 45 27M 15 37L 53 37M 15 47L 53 47M 20 27L 48 27C 48 27 53 27 53 32L 53 52C 53 52 53 57 48 57L 20 57C 20 57 15 57 15 52L 15 32C 15 32 15 27 20 27M 20.5 31.5C 20.776142 31.5 21 31.723858 21 32C 21 32.276142 20.776142 32.5 20.5 32.5C 20.223858 32.5 20 32.276142 20 32C 20 31.723858 20.223858 31.5 20.5 31.5M 25.5 31.5C 25.776142 31.5 26 31.723858 26 32C 26 32.276142 25.776142 32.5 25.5 32.5C 25.223858 32.5 25 32.276142 25 32C 25 31.723858 25.223858 31.5 25.5 31.5M 20.5 41.5C 20.776142 41.5 21 41.723858 21 42C 21 42.276142 20.776142 42.5 20.5 42.5C 20.223858 42.5 20 42.276142 20 42C 20 41.723858 20.223858 41.5 20.5 41.5M 25.5 41.5C 25.776142 41.5 26 41.723858 26 42C 26 42.276142 25.776142 42.5 25.5 42.5C 25.223858 42.5 25 42.276142 25 42C 25 41.723858 25.223858 41.5 25.5 41.5M 20.5 51.5C 20.776142 51.5 21 51.723858 21 52C 21 52.276142 20.776142 52.5 20.5 52.5C 20.223858 52.5 20 52.276142 20 52C 20 51.723858 20.223858 51.5 20.5 51.5M 25.5 51.5C 25.776142 51.5 26 51.723858 26 52C 26 52.276142 25.776142 52.5 25.5 52.5C 25.223858 52.5 25 52.276142 25 52C 25 51.723858 25.223858 51.5 25.5 51.5"></path></g></g></g><g id="g-root-tx_jailbrea_14808lx1somdxn-stroke" data-item-order="0" data-item-id="tx_jailbrea_14808lx1somdxn" data-item-class="Label Stroke SceneTarget SceneStart" data-item-index="none" data-renderer-id="0" transform="translate(2, 104.99993896484375)"></g><g id="g-root-scal_1hgyumt1sop81y-stroke" data-item-order="0" data-item-id="scal_1hgyumt1sop81y" data-item-class="Icon Stroke SceneTarget Indexed InsideFill InsideColorFill" data-item-index="2" data-renderer-id="0" transform="translate(590, 98.99993896484375)"><g id="scal_1hgyumt1sop81y-stroke" fill="none" stroke-linecap="round" stroke-linejoin="round" stroke-miterlimit="4" stroke="#dd8433" stroke-width="2"><g><path d="M 35.171501 43.843002C 35.247723 44.071854 35.209221 44.323402 35.068039 44.518982C 34.926849 44.714561 34.700214 44.830299 34.459 44.829998L 21.541 44.829998C 21.299786 44.830299 21.073149 44.714561 20.931963 44.518982C 20.790777 44.323402 20.752275 44.071854 20.828499 43.843002L 21.526001 41.753502C 21.809294 40.903778 22.6043 40.330482 23.5 40.329998L 32.5 40.329998C 33.395699 40.330482 34.190704 40.903778 34.473999 41.753498ZM 31 40.329998L 25 40.329998L 25 38.829998C 25 37.173145 26.343145 35.829998 28 35.829998C 29.656855 35.829998 31 37.173145 31 38.829998ZM 28 35.829998L 28 17.83M 30.25 15.58C 30.25 16.822641 29.242641 17.83 28 17.83C 26.75736 17.83 25.75 16.822641 25.75 15.58C 26.069292 14.171607 26.603552 12.820778 27.334002 11.575C 27.462873 11.326135 27.719746 11.169883 28 11.169883C 28.280254 11.169883 28.537127 11.326135 28.666 11.575C 29.397421 12.820304 29.931744 14.171288 30.25 15.58ZM 14.5 20.83L 41.5 20.83M 17.5 20.83L 17.5 28.33M 22.695999 28.33C 22.91482 28.32778 23.123692 28.42124 23.267853 28.585873C 23.412016 28.750507 23.477085 28.969891 23.445999 29.186501C 23.024672 32.143349 20.492718 34.340096 17.506001 34.340096C 14.519283 34.340096 11.987329 32.143349 11.566 29.186501C 11.534915 28.969891 11.599984 28.750507 11.744145 28.585873C 11.888308 28.42124 12.097181 28.32778 12.316 28.33ZM 38.5 20.83L 38.5 28.33M 32.938 28.33C 32.821377 28.330612 32.710144 28.379181 32.630417 28.464298C 32.550686 28.549416 32.509491 28.663586 32.516499 28.779999C 32.743469 31.835308 35.235855 34.228867 38.297836 34.3321C 41.359825 34.435333 44.007763 32.21508 44.439999 29.181999C 44.471085 28.965389 44.406013 28.746006 44.261856 28.581373C 44.117691 28.41674 43.908817 28.32328 43.689999 28.3255Z"></path></g></g></g><g id="g-root-tx_ethicalb_ddlitx1sonrid-stroke" data-item-order="0" data-item-id="tx_ethicalb_ddlitx1sonrid" data-item-class="Label Stroke SceneTarget Indexed" data-item-index="2" data-renderer-id="0" transform="translate(650, 92.99993896484375)"></g><g id="g-root-circ_mdluol1sop6o5-stroke" data-item-order="0" data-item-id="circ_mdluol1sop6o5" data-item-class="Icon Stroke SceneTarget Indexed InsideFill InsideColorFill" data-item-index="3" data-renderer-id="0" transform="translate(590, 182.99993896484375)"><g id="circ_mdluol1sop6o5-stroke" fill="none" stroke-linecap="round" stroke-linejoin="round" stroke-miterlimit="4" stroke="#e15e5a" stroke-width="2"><g><path d="M 21.571428 24.142857C 21.571428 27.69326 24.449598 30.571428 28 30.571428C 31.550402 30.571428 34.42857 27.69326 34.42857 24.142857C 34.42857 20.592455 31.550402 17.714285 28 17.714285C 24.449598 17.714285 21.571428 20.592455 21.571428 24.142857M 17.02 40.599998C 19.353584 36.769547 23.51469 34.432079 28 34.432079C 32.48531 34.432079 36.646416 36.769547 38.98 40.600002M 11.285714 28C 11.285715 37.231045 18.768955 44.714287 28.000002 44.714287C 37.231045 44.714287 44.714287 37.231045 44.714287 28.000002C 44.714287 18.768955 37.231045 11.285715 28.000002 11.285715C 18.768955 11.285715 11.285715 18.768955 11.285715 28.000002"></path></g></g></g><g id="g-root-tx_usermani_1haq3rp1sont38-stroke" data-item-order="0" data-item-id="tx_usermani_1haq3rp1sont38" data-item-class="Label Stroke SceneTarget Indexed" data-item-index="3" data-renderer-id="0" transform="translate(650, 176.99993896484375)"></g></g></g></svg>