<?xml version="1.0" encoding="utf-8" standalone="yes"?>
<!DOCTYPE svg PUBLIC "-//W3C//DTD SVG 1.1//EN" "http://www.w3.org/Graphics/SVG/1.1/DTD/svg11.dtd">
<svg width="230" height="706" viewBox="0 0 230 706" style="fill:none;stroke:none;fill-rule:evenodd;clip-rule:evenodd;stroke-linecap:round;stroke-linejoin:round;stroke-miterlimit:1.5;" version="1.1" xmlns="http://www.w3.org/2000/svg" xmlns:xlink="http://www.w3.org/1999/xlink"><style id="fontImports">@import url("https://fonts.googleapis.com/css2?family=Roboto:wght@400;700&amp;display=block");</style><rect id="" x="0" y="0" width="230" height="706" style="fill: #ffffff;"></rect><g id="items" style="isolation: isolate"><g id="blend" style="mix-blend-mode:multiply"><g id="g-root-ro_18egplx1ucxzbj-fill" data-item-order="-18720" data-item-id="ro_18egplx1ucxzbj" data-item-class="Shape Stroke Fill" data-item-index="none" data-renderer-id="0" transform="translate(27, 411)"><g id="ro_18egplx1ucxzbj-fill" stroke="none" fill="#e6f9ff"><g><path d="M 22 10L 154 10C 154 10 166 10 166 22L 166 118C 166 118 166 130 154 130L 22 130C 22 130 10 130 10 118L 10 22C 10 22 10 10 22 10"></path></g></g></g><g id="g-root-ro_18kpgh11ucy0wf-fill" data-item-order="-14976" data-item-id="ro_18kpgh11ucy0wf" data-item-class="Shape Stroke Fill" data-item-index="none" data-renderer-id="0" transform="translate(27, 587)"><g id="ro_18kpgh11ucy0wf-fill" stroke="none" fill="#e6f9ff"><g><path d="M 22 10L 154 10C 154 10 166 10 166 22L 166 94C 166 94 166 106 154 106L 22 106C 22 106 10 106 10 94L 10 22C 10 22 10 10 22 10"></path></g></g></g><g id="g-root-ro_qssyw51ucwkjl-fill" data-item-order="-14976" data-item-id="ro_qssyw51ucwkjl" data-item-class="Shape Stroke Fill" data-item-index="none" data-renderer-id="0" transform="translate(27, 259)"><g id="ro_qssyw51ucwkjl-fill" stroke="none" fill="#e6f9ff"><g><path d="M 22 10L 154 10C 154 10 166 10 166 22L 166 94C 166 94 166 106 154 106L 22 106C 22 106 10 106 10 94L 10 22C 10 22 10 10 22 10"></path></g></g></g><g id="g-root-ro_dhcgit1ucv7yl-fill" data-item-order="-14688" data-item-id="ro_dhcgit1ucv7yl" data-item-class="Shape Stroke Fill" data-item-index="none" data-renderer-id="0" transform="translate(3, 3)"><g id="ro_dhcgit1ucv7yl-fill" stroke="none" fill="#f0f0f0"><g><path d="M 22 10L 202 10C 202 10 214 10 214 22L 214 70C 214 70 214 82 202 82L 22 82C 22 82 10 82 10 70L 10 22C 10 22 10 10 22 10"></path></g></g></g><g id="g-root-ro_hs65yd1ucwlxf-fill" data-item-order="-12960" data-item-id="ro_hs65yd1ucwlxf" data-item-class="Shape Stroke Fill" data-item-index="none" data-renderer-id="0" transform="translate(15, 131)"><g id="ro_hs65yd1ucwlxf-fill" stroke="none" fill="#e6f9ff"><g><path d="M 22 10L 178 10C 178 10 190 10 190 22L 190 70C 190 70 190 82 178 82L 22 82C 22 82 10 82 10 70L 10 22C 10 22 10 10 22 10"></path></g></g></g><g id="g-root-hurr_1lw5yud1ucxzbi-fill" data-item-order="0" data-item-id="hurr_1lw5yud1ucxzbi" data-item-class="Icon Stroke" data-item-index="none" data-renderer-id="0" transform="translate(39, 620)"></g><g id="g-root-sear_m7zo2t1ucwl56-fill" data-item-order="0" data-item-id="sear_m7zo2t1ucwl56" data-item-class="Icon Stroke" data-item-index="none" data-renderer-id="0" transform="translate(27, 152)"></g><g id="g-root-tx_identify_18egplx1ucwlxd-fill" data-item-order="0" data-item-id="tx_identify_18egplx1ucwlxd" data-item-class="Label Stroke" data-item-index="none" data-renderer-id="0" transform="translate(63, 143)"><g id="tx_identify_18egplx1ucwlxd-fill" stroke="none" fill="#17b0e3"><g><text style="font: 20px Roboto, sans-serif; white-space: pre;"><tspan x="12" y="34" dominant-baseline="ideographic">Identify </tspan><tspan x="12" y="58" dominant-baseline="ideographic">Weaknesses</tspan></text></g></g></g><g id="g-root-tx_designst_18jgiat1ucwlc7-fill" data-item-order="0" data-item-id="tx_designst_18jgiat1ucwlc7" data-item-class="Label Stroke" data-item-index="none" data-renderer-id="0" transform="translate(75, 271)"><g id="tx_designst_18jgiat1ucwlc7-fill" stroke="none" fill="#17b0e3"><g><text style="font: 20px Roboto, sans-serif; white-space: pre;"><tspan x="12" y="34" dominant-baseline="ideographic">Design </tspan><tspan x="12" y="58" dominant-baseline="ideographic">Stronger </tspan><tspan x="12" y="82" dominant-baseline="ideographic">Models</tspan></text></g></g></g><g id="g-root-prot_v8mh0l1ucwjrc-fill" data-item-order="0" data-item-id="prot_v8mh0l1ucwjrc" data-item-class="Icon Stroke" data-item-index="none" data-renderer-id="0" transform="translate(39, 292)"></g><g id="g-root-tx_highligh_1lzac9x1ucwmbx-fill" data-item-order="0" data-item-id="tx_highligh_1lzac9x1ucwmbx" data-item-class="Label Stroke" data-item-index="none" data-renderer-id="0" transform="translate(75, 423)"><g id="tx_highligh_1lzac9x1ucwmbx-fill" stroke="none" fill="#17b0e3"><g><text style="font: 20px Roboto, sans-serif; white-space: pre;"><tspan x="12" y="34" dominant-baseline="ideographic">Highlight </tspan><tspan x="12" y="58" dominant-baseline="ideographic">Safety </tspan><tspan x="12" y="82" dominant-baseline="ideographic">Protocol </tspan><tspan x="12" y="106" dominant-baseline="ideographic">Areas</tspan></text></g></g></g><g id="g-root-tria_1ha3put1ucxyiu-fill" data-item-order="0" data-item-id="tria_1ha3put1ucxyiu" data-item-class="Icon Stroke" data-item-index="none" data-renderer-id="0" transform="translate(39, 456)"></g><g id="g-root-tx_understa_zofz511ucv5kz-fill" data-item-order="0" data-item-id="tx_understa_zofz511ucv5kz" data-item-class="Label Stroke" data-item-index="none" data-renderer-id="0" transform="translate(51, 15)"><g id="tx_understa_zofz511ucv5kz-fill" stroke="none" fill="#484848"><g><text style="font: 20px Roboto, sans-serif; white-space: pre;"><tspan x="12" y="34" dominant-baseline="ideographic">Understanding </tspan><tspan x="12" y="58" dominant-baseline="ideographic">AI Jailbreaks</tspan></text></g></g></g><g id="g-root-tx_buildres_5vy5h1ucy13h-fill" data-item-order="0" data-item-id="tx_buildres_5vy5h1ucy13h" data-item-class="Label Stroke" data-item-index="none" data-renderer-id="0" transform="translate(75, 599)"><g id="tx_buildres_5vy5h1ucy13h-fill" stroke="none" fill="#17b0e3"><g><text style="font: 20px Roboto, sans-serif; white-space: pre;"><tspan x="12" y="34" dominant-baseline="ideographic">Build </tspan><tspan x="12" y="58" dominant-baseline="ideographic">Resilient </tspan><tspan x="12" y="82" dominant-baseline="ideographic">Systems</tspan></text></g></g></g><g id="g-root-sear_mczgrp1ucv75w-fill" data-item-order="0" data-item-id="sear_mczgrp1ucv75w" data-item-class="Icon Stroke" data-item-index="none" data-renderer-id="0" transform="translate(15, 24)"></g><g id="g-root-cu_v7zzxh1ud0sn5-fill" data-item-order="2" data-item-id="cu_v7zzxh1ud0sn5" data-item-class="Curve Stroke" data-item-index="none" data-renderer-id="0" transform="translate(105, 203)"></g><g id="g-root-cu_v7zzxh1ud0sn8-fill" data-item-order="2" data-item-id="cu_v7zzxh1ud0sn8" data-item-class="Curve Stroke" data-item-index="none" data-renderer-id="0" transform="translate(105, 355)"></g><g id="g-root-cu_znti1x1ud0ruu-fill" data-item-order="2" data-item-id="cu_znti1x1ud0ruu" data-item-class="Curve Stroke" data-item-index="none" data-renderer-id="0" transform="translate(105, 75)"></g><g id="g-root-cu_v7zzxh1ud0snb-fill" data-item-order="2" data-item-id="cu_v7zzxh1ud0snb" data-item-class="Curve Stroke" data-item-index="none" data-renderer-id="0" transform="translate(105, 531)"></g><g id="g-root-ro_18egplx1ucxzbj-stroke" data-item-order="-18720" data-item-id="ro_18egplx1ucxzbj" data-item-class="Shape Stroke Fill" data-item-index="none" data-renderer-id="0" transform="translate(27, 411)"><g id="ro_18egplx1ucxzbj-stroke" fill="none" stroke-linecap="round" stroke-linejoin="round" stroke-miterlimit="4" stroke="#17b0e3" stroke-width="2"><g><path d="M 22 10L 154 10C 154 10 166 10 166 22L 166 118C 166 118 166 130 154 130L 22 130C 22 130 10 130 10 118L 10 22C 10 22 10 10 22 10"></path></g></g></g><g id="g-root-ro_18kpgh11ucy0wf-stroke" data-item-order="-14976" data-item-id="ro_18kpgh11ucy0wf" data-item-class="Shape Stroke Fill" data-item-index="none" data-renderer-id="0" transform="translate(27, 587)"><g id="ro_18kpgh11ucy0wf-stroke" fill="none" stroke-linecap="round" stroke-linejoin="round" stroke-miterlimit="4" stroke="#17b0e3" stroke-width="2"><g><path d="M 22 10L 154 10C 154 10 166 10 166 22L 166 94C 166 94 166 106 154 106L 22 106C 22 106 10 106 10 94L 10 22C 10 22 10 10 22 10"></path></g></g></g><g id="g-root-ro_qssyw51ucwkjl-stroke" data-item-order="-14976" data-item-id="ro_qssyw51ucwkjl" data-item-class="Shape Stroke Fill" data-item-index="none" data-renderer-id="0" transform="translate(27, 259)"><g id="ro_qssyw51ucwkjl-stroke" fill="none" stroke-linecap="round" stroke-linejoin="round" stroke-miterlimit="4" stroke="#17b0e3" stroke-width="2"><g><path d="M 22 10L 154 10C 154 10 166 10 166 22L 166 94C 166 94 166 106 154 106L 22 106C 22 106 10 106 10 94L 10 22C 10 22 10 10 22 10"></path></g></g></g><g id="g-root-ro_dhcgit1ucv7yl-stroke" data-item-order="-14688" data-item-id="ro_dhcgit1ucv7yl" data-item-class="Shape Stroke Fill" data-item-index="none" data-renderer-id="0" transform="translate(3, 3)"><g id="ro_dhcgit1ucv7yl-stroke" fill="none" stroke-linecap="round" stroke-linejoin="round" stroke-miterlimit="4" stroke="#484848" stroke-width="2"><g><path d="M 22 10L 202 10C 202 10 214 10 214 22L 214 70C 214 70 214 82 202 82L 22 82C 22 82 10 82 10 70L 10 22C 10 22 10 10 22 10"></path></g></g></g><g id="g-root-ro_hs65yd1ucwlxf-stroke" data-item-order="-12960" data-item-id="ro_hs65yd1ucwlxf" data-item-class="Shape Stroke Fill" data-item-index="none" data-renderer-id="0" transform="translate(15, 131)"><g id="ro_hs65yd1ucwlxf-stroke" fill="none" stroke-linecap="round" stroke-linejoin="round" stroke-miterlimit="4" stroke="#17b0e3" stroke-width="2"><g><path d="M 22 10L 178 10C 178 10 190 10 190 22L 190 70C 190 70 190 82 178 82L 22 82C 22 82 10 82 10 70L 10 22C 10 22 10 10 22 10"></path></g></g></g><g id="g-root-hurr_1lw5yud1ucxzbi-stroke" data-item-order="0" data-item-id="hurr_1lw5yud1ucxzbi" data-item-class="Icon Stroke" data-item-index="none" data-renderer-id="0" transform="translate(39, 620)"><g id="hurr_1lw5yud1ucxzbi-stroke" fill="none" stroke-linecap="round" stroke-linejoin="round" stroke-miterlimit="4" stroke="#17b0e3" stroke-width="2"><g><path d="M 14.375 33.125L 14.375 38.75C 14.375 39.095177 14.654822 39.375 15 39.375L 27.5 39.375C 27.845177 39.375 28.125 39.095177 28.125 38.75L 28.125 33.125M 10.625 32.5L 21.25 20.625L 31.875 32.5M 20 26.875L 22.5 26.875C 22.5 26.875 23.125 26.875 23.125 27.5L 23.125 30C 23.125 30 23.125 30.625 22.5 30.625L 20 30.625C 20 30.625 19.375 30.625 19.375 30L 19.375 27.5C 19.375 27.5 19.375 26.875 20 26.875M 23.125 10.625L 36.875 10.625M 25.625 13.125L 38.125 13.125M 28.125 15.625L 39.375 15.625M 24.375 18.125L 36.875 18.125M 25.625 20.625L 34.375 20.625M 29.375 23.125L 36.875 23.125M 31.875 25.625L 38.125 25.625M 34.375 28.125L 36.875 28.125M 35 30.625L 36.25 30.625"></path></g></g></g><g id="g-root-sear_m7zo2t1ucwl56-stroke" data-item-order="0" data-item-id="sear_m7zo2t1ucwl56" data-item-class="Icon Stroke" data-item-index="none" data-renderer-id="0" transform="translate(27, 152)"><g id="sear_m7zo2t1ucwl56-stroke" fill="none" stroke-linecap="round" stroke-linejoin="round" stroke-miterlimit="4" stroke="#17b0e3" stroke-width="2"><g><path d="M 31.97875 31.94875L 39.423748 39.393749M 10.625 23.125C 10.625 30.028561 16.221441 35.625 23.125 35.625C 30.028561 35.625 35.625 30.028561 35.625 23.125C 35.625 16.221441 30.028561 10.625 23.125 10.625C 16.221441 10.625 10.625 16.221441 10.625 23.125ZM 26.92375 26.893751C 26.92375 28.964819 25.244818 30.643751 23.17375 30.643751C 21.102682 30.643751 19.42375 28.964819 19.42375 26.893751L 19.42375 20.643751L 26.92375 20.643751ZM 26.92375 20.643751C 26.92375 18.572683 25.244818 16.893751 23.17375 16.893751C 21.102682 16.893751 19.42375 18.572683 19.42375 20.643751ZM 30.04875 27.518751C 28.322861 27.518751 26.92375 26.11964 26.92375 24.393751C 26.92375 22.66786 28.322861 21.268751 30.04875 21.268751M 30.04875 24.393751L 26.92375 24.393751M 16.29875 27.518751C 18.024639 27.518751 19.42375 26.11964 19.42375 24.393751C 19.42375 22.66786 18.024639 21.268751 16.29875 21.268751M 16.29875 24.393751L 19.42375 24.393751M 26.92375 15.01875C 26.924789 16.095308 26.462021 17.120138 25.653751 17.831251M 20.69375 17.831249C 19.885212 17.120337 19.422386 16.095379 19.42375 15.01875"></path></g></g></g><g id="g-root-tx_identify_18egplx1ucwlxd-stroke" data-item-order="0" data-item-id="tx_identify_18egplx1ucwlxd" data-item-class="Label Stroke" data-item-index="none" data-renderer-id="0" transform="translate(63, 143)"></g><g id="g-root-tx_designst_18jgiat1ucwlc7-stroke" data-item-order="0" data-item-id="tx_designst_18jgiat1ucwlc7" data-item-class="Label Stroke" data-item-index="none" data-renderer-id="0" transform="translate(75, 271)"></g><g id="g-root-prot_v8mh0l1ucwjrc-stroke" data-item-order="0" data-item-id="prot_v8mh0l1ucwjrc" data-item-class="Icon Stroke" data-item-index="none" data-renderer-id="0" transform="translate(39, 292)"><g id="prot_v8mh0l1ucwjrc-stroke" fill="none" stroke-linecap="round" stroke-linejoin="round" stroke-miterlimit="4" stroke="#17b0e3" stroke-width="2"><g><path d="M 19.4 21.391251C 19.399605 22.931023 20.647728 24.179462 22.1875 24.179462C 23.727272 24.179462 24.975393 22.931023 24.974998 21.391251C 24.975393 19.851477 23.727272 18.603035 22.1875 18.603035C 20.647728 18.603035 19.399605 19.851477 19.4 21.391251M 17.616249 28.75C 17.616316 26.99844 18.617231 25.400921 20.193338 24.63682C 21.769445 23.872721 23.643587 24.076403 25.018749 25.161249M 23.125 32.1875L 12.1875 32.1875C 11.497144 32.1875 10.9375 31.627855 10.9375 30.9375L 10.9375 15.3125L 33.4375 15.3125L 33.4375 21.5625M 12.1875 10.9375L 32.1875 10.9375C 32.877853 10.9375 33.4375 11.497144 33.4375 12.1875L 33.4375 15.3125L 33.4375 15.3125L 10.9375 15.3125L 10.9375 15.3125L 10.9375 12.1875C 10.9375 11.497144 11.497144 10.9375 12.1875 10.9375ZM 34.88625 38.212502L 33.017498 39.0625L 31.15 38.212502C 28.668165 37.164612 27.032965 34.757084 26.973749 32.063747L 26.973751 27.375L 33.017498 25.3125L 39.0625 27.375L 39.0625 32.063747C 39.002651 34.756886 37.367664 37.164101 34.88625 38.212502ZM 30.508749 32.137497L 32.322498 33.952499L 35.952499 29.41625"></path></g></g></g><g id="g-root-tx_highligh_1lzac9x1ucwmbx-stroke" data-item-order="0" data-item-id="tx_highligh_1lzac9x1ucwmbx" data-item-class="Label Stroke" data-item-index="none" data-renderer-id="0" transform="translate(75, 423)"></g><g id="g-root-tria_1ha3put1ucxyiu-stroke" data-item-order="0" data-item-id="tria_1ha3put1ucxyiu" data-item-class="Icon Stroke" data-item-index="none" data-renderer-id="0" transform="translate(39, 456)"><g id="tria_1ha3put1ucxyiu-stroke" fill="none" stroke-linecap="round" stroke-linejoin="round" stroke-miterlimit="4" stroke="#17b0e3" stroke-width="2"><g><path d="M 38.19125 38.22625C 38.359222 38.459671 38.370102 38.771278 38.218819 39.015846C 38.067535 39.260414 37.783863 39.389816 37.5 39.34375L 12.5 39.34375C 12.216137 39.389816 11.932465 39.260414 11.781182 39.015846C 11.6299 38.771278 11.640779 38.459671 11.80875 38.22625L 24.44125 12.9625C 24.748749 12.3475 25.251251 12.3475 25.55875 12.9625ZM 25 31.223751L 25 22.473751M 24.98875 33.723751C 24.9063 33.725372 24.827953 33.76004 24.771309 33.819977C 24.714664 33.879913 24.684467 33.960091 24.6875 34.042503C 24.694197 34.213158 24.834211 34.348213 25.004999 34.348751L 25.01125 34.348751C 25.093702 34.34713 25.172047 34.312458 25.228693 34.252525C 25.285337 34.192589 25.315533 34.112411 25.3125 34.030003C 25.305906 33.861252 25.168846 33.726933 25 33.723751L 24.99375 33.723751"></path></g></g></g><g id="g-root-tx_understa_zofz511ucv5kz-stroke" data-item-order="0" data-item-id="tx_understa_zofz511ucv5kz" data-item-class="Label Stroke" data-item-index="none" data-renderer-id="0" transform="translate(51, 15)"></g><g id="g-root-tx_buildres_5vy5h1ucy13h-stroke" data-item-order="0" data-item-id="tx_buildres_5vy5h1ucy13h" data-item-class="Label Stroke" data-item-index="none" data-renderer-id="0" transform="translate(75, 599)"></g><g id="g-root-sear_mczgrp1ucv75w-stroke" data-item-order="0" data-item-id="sear_mczgrp1ucv75w" data-item-class="Icon Stroke" data-item-index="none" data-renderer-id="0" transform="translate(15, 24)"><g id="sear_mczgrp1ucv75w-stroke" fill="none" stroke-linecap="round" stroke-linejoin="round" stroke-miterlimit="4" stroke="#484848" stroke-width="2"><g><path d="M 17.5 22.536251C 17.5 25.662872 20.034628 28.1975 23.161249 28.1975C 26.287872 28.1975 28.8225 25.662872 28.8225 22.536249C 28.8225 19.409628 26.287872 16.875 23.161249 16.875C 20.034628 16.875 17.5 19.409628 17.5 22.536249ZM 31.25 30.625L 27.165001 26.540001M 11.875 14.71875L 11.875 24.264999C 11.950234 30.726425 16.054129 36.452606 22.14875 38.599998L 23.549999 39.1175C 24.486103 39.461269 25.513895 39.461269 26.450001 39.1175L 27.85125 38.599998C 33.945869 36.452606 38.049767 30.726425 38.124996 24.264999L 38.125 14.71875C 38.122433 13.952119 37.663193 13.260798 36.9575 12.96125C 33.170994 11.380817 29.102913 10.585999 25 10.625C 20.897087 10.585999 16.829008 11.380817 13.0425 12.96125C 12.336809 13.260798 11.877567 13.952119 11.875 14.71875Z"></path></g></g></g><g id="g-root-cu_v7zzxh1ud0sn5-stroke" data-item-order="2" data-item-id="cu_v7zzxh1ud0sn5" data-item-class="Curve Stroke" data-item-index="none" data-renderer-id="0" transform="translate(105, 203)"><g id="cu_v7zzxh1ud0sn5-stroke" fill="none" stroke-linecap="round" stroke-linejoin="round" stroke-miterlimit="4" stroke="#484848" stroke-width="2"><g><path d="M 10 10L 10 38L 10 64"></path><path d="M 3.5 58L 10 64.5L 16.5 58" stroke-dasharray="none"></path></g></g></g><g id="g-root-cu_v7zzxh1ud0sn8-stroke" data-item-order="2" data-item-id="cu_v7zzxh1ud0sn8" data-item-class="Curve Stroke" data-item-index="none" data-renderer-id="0" transform="translate(105, 355)"><g id="cu_v7zzxh1ud0sn8-stroke" fill="none" stroke-linecap="round" stroke-linejoin="round" stroke-miterlimit="4" stroke="#484848" stroke-width="2"><g><path d="M 10 10L 10 38L 10 64"></path><path d="M 3.5 58L 10 64.5L 16.5 58" stroke-dasharray="none"></path></g></g></g><g id="g-root-cu_znti1x1ud0ruu-stroke" data-item-order="2" data-item-id="cu_znti1x1ud0ruu" data-item-class="Curve Stroke" data-item-index="none" data-renderer-id="0" transform="translate(105, 75)"><g id="cu_znti1x1ud0ruu-stroke" fill="none" stroke-linecap="round" stroke-linejoin="round" stroke-miterlimit="4" stroke="#484848" stroke-width="2"><g><path d="M 10 10L 10 38L 10 64"></path><path d="M 3.5 58L 10 64.5L 16.5 58" stroke-dasharray="none"></path></g></g></g><g id="g-root-cu_v7zzxh1ud0snb-stroke" data-item-order="2" data-item-id="cu_v7zzxh1ud0snb" data-item-class="Curve Stroke" data-item-index="none" data-renderer-id="0" transform="translate(105, 531)"><g id="cu_v7zzxh1ud0snb-stroke" fill="none" stroke-linecap="round" stroke-linejoin="round" stroke-miterlimit="4" stroke="#484848" stroke-width="2"><g><path d="M 10 10L 10 38L 10 64"></path><path d="M 3.5 58L 10 64.5L 16.5 58" stroke-dasharray="none"></path></g></g></g></g></g></svg>