<?xml version="1.0" encoding="utf-8" standalone="yes"?>
<!DOCTYPE svg PUBLIC "-//W3C//DTD SVG 1.1//EN" "http://www.w3.org/Graphics/SVG/1.1/DTD/svg11.dtd">
<svg width="686" height="541" viewBox="0 0 686 541" style="fill:none;stroke:none;fill-rule:evenodd;clip-rule:evenodd;stroke-linecap:round;stroke-linejoin:round;stroke-miterlimit:1.5;" version="1.1" xmlns="http://www.w3.org/2000/svg" xmlns:xlink="http://www.w3.org/1999/xlink"><style id="fontImports">@import url("https://fonts.googleapis.com/css2?family=Shantell+Sans:wght@300..800&amp;display=block");</style><rect id="" x="0" y="0" width="686" height="540" style="fill: #ffffff;"></rect><g id="items" style="isolation: isolate"><g id="blend" style="mix-blend-mode:multiply"><g id="g-root-6.Vector_sy_1hi7z4l1u2wyz3-fill" data-item-order="-152408" data-item-id="6.Vector_sy_1hi7z4l1u2wyz3" data-item-class="ScenePart Part Indexed Fill Stroke ColorStrokeBlack" data-item-index="5" data-renderer-id="0" transform="translate(182.44097900390625, 77.27401733398438)"><g id="6.Vector_sy_1hi7z4l1u2wyz3-fill" stroke="none" fill="none"><g><path d="M 76.668021 108.334013L 95.307021 112.054013L 97.528021 93.178013L 91.723021 97.396013L 76.331021 76.211013C 88.608021 63.906013 90.479021 44.162013 79.936021 29.651013C 68.249021 13.566013 45.736021 10.000013 29.651021 21.687013C 13.566021 33.373013 10.000021 55.887013 21.687021 71.972013C 32.215021 86.463013 51.531021 90.793013 67.017021 82.963013L 82.416021 104.158013L 76.668021 108.334013Z"></path></g></g></g><g id="g-root-5.Vector_sy_1hi7z4l1u2wyz2-fill" data-item-order="-152406" data-item-id="5.Vector_sy_1hi7z4l1u2wyz2" data-item-class="ScenePart Part Indexed Fill Stroke ColorStrokeBlack" data-item-index="4" data-renderer-id="0" transform="translate(121.83999633789062, 266.1340637207031)"><g id="5.Vector_sy_1hi7z4l1u2wyz2-fill" stroke="none" fill="none"><g><path d="M 113.080004 42.964967L 122.378004 26.387967L 105.112004 18.441967L 107.330004 25.267967L 82.425004 33.359967C 74.516004 17.879967 56.317004 9.999967 39.258004 15.542967C 20.349004 21.686967 10.000004 41.996967 16.144004 60.905967C 22.288004 79.814967 42.598004 90.162967 61.507004 84.018967C 78.542004 78.483967 88.630004 61.450967 85.969004 44.303967L 110.884004 36.207967L 113.080004 42.964967Z"></path></g></g></g><g id="g-root-4.Vector_sy_1qd8iad1u2x1c5-fill" data-item-order="-152404" data-item-id="4.Vector_sy_1qd8iad1u2x1c5" data-item-class="ScenePart Part Indexed Fill Stroke ColorStrokeBlack" data-item-index="3" data-renderer-id="0" transform="translate(286, 346.3000183105469)"><g id="4.Vector_sy_1qd8iad1u2x1c5-fill" stroke="none" fill="none"><g><path d="M 58.893 23.965012L 46 10.000012L 33.107 23.965012L 40.284 23.965012L 40.284 50.151012C 23.118 52.890012 10 67.763012 10 85.700012C 10 105.582012 26.118 121.700012 46 121.700012C 65.882 121.700012 82 105.582012 82 85.700012C 82 67.788012 68.918 52.931012 51.787 50.163012L 51.787 23.965012L 58.893 23.965012Z"></path></g></g></g><g id="g-root-3.Vector_sy_1qd8iad1u2x1c4-fill" data-item-order="-152402" data-item-id="3.Vector_sy_1qd8iad1u2x1c4" data-item-class="ScenePart Part Indexed Fill Stroke ColorStrokeBlack" data-item-index="2" data-renderer-id="0" transform="translate(409.781982421875, 266.1419982910156)"><g id="3.Vector_sy_1qd8iad1u2x1c4-fill" stroke="none" fill="none"><g><path d="M 27.266018 18.434032L 10.000018 26.380032L 19.298018 42.957032L 21.516018 36.132032L 46.420018 44.224032C 43.720018 61.396032 53.812018 78.468032 70.871018 84.011032C 89.780018 90.155032 110.089018 79.807032 116.233018 60.898032C 122.377018 41.988032 112.029018 21.679032 93.120018 15.535032C 76.085018 10.000032 57.913018 17.850032 49.986018 33.287032L 25.070018 25.191032L 27.266018 18.434032Z"></path></g></g></g><g id="g-root-2.Vector_sy_1qd8iad1u2x1c3-fill" data-item-order="-152400" data-item-id="2.Vector_sy_1qd8iad1u2x1c3" data-item-class="ScenePart Part Indexed Indexed_1 Fill Stroke ColorStrokeBlack" data-item-index="1" data-renderer-id="0" transform="translate(374.031005859375, 77.27401733398438)"><g id="2.Vector_sy_1qd8iad1u2x1c3-fill" stroke="none" fill="none"><g><path d="M 9.999994 93.178013L 12.220994 112.054013L 30.859994 108.334013L 25.053994 104.116013L 40.445994 82.931013C 55.942994 90.805013 75.297994 86.483013 85.841994 71.972013C 97.527994 55.886013 93.961994 33.373013 77.876994 21.687013C 61.791994 10.000013 39.278994 13.566013 27.591994 29.651013C 17.063994 44.142013 18.914994 63.851013 31.145994 76.160013L 15.747994 97.354013L 9.999994 93.178013Z"></path></g></g></g><g id="g-root-0.cr-big_cr_1ut20et1u2x0jt-fill" data-item-order="-152398" data-item-id="0.cr-big_cr_1ut20et1u2x0jt" data-item-class="Shape Stroke Fill ScenePart Part Indexed_0 ColorStrokeBlack" data-item-index="0" data-renderer-id="0" transform="translate(250, 181.99600219726562)"><g id="0.cr-big_cr_1ut20et1u2x0jt-fill" stroke="none" fill="none"><g><path d="M 10 82.004028C 10.000004 121.768535 42.235502 154.004033 82.000004 154.004033C 121.764506 154.004033 154.000004 121.768535 154.000004 82.004033C 154.000004 42.239531 121.764506 10.004033 82.000004 10.004033C 42.235502 10.004033 10.000004 42.239531 10.000004 82.004033"></path></g></g></g><g id="g-root-tx_risksofa_1uuxfo51u2wzke-fill" data-item-order="0" data-item-id="tx_risksofa_1uuxfo51u2wzke" data-item-class="Label Stroke SceneTarget SceneTitle Title ColorStrokeBlack" data-item-index="none" data-renderer-id="0" transform="translate(160, 2)"><g id="tx_risksofa_1uuxfo51u2wzke-fill" stroke="none" fill="#484848"><g><text style="font: bold 25px &quot;Shantell Sans&quot;, cursive; white-space: pre;"><tspan x="12.74" y="43.67" dominant-baseline="ideographic">Risks of AI Jailbreaking</tspan></text></g></g></g><g id="g-root-tx_unexpect_1ly1h911u2wyyo-fill" data-item-order="0" data-item-id="tx_unexpect_1ly1h911u2wyyo" data-item-class="Label Stroke SceneTarget Indexed ColorStrokeBlack" data-item-index="5" data-renderer-id="0" transform="translate(58, 86.00003051757812)"><g id="tx_unexpect_1ly1h911u2wyyo-fill" stroke="none" fill="#484848"><g><text style="font: 20px &quot;Shantell Sans&quot;, cursive; white-space: pre;"><tspan x="16.69" y="35.33" dominant-baseline="ideographic">Unexpected </tspan><tspan x="34.85" y="59.33" dominant-baseline="ideographic">Behaviors</tspan></text></g></g></g><g id="g-root-came_8wj8ut1u32m89-fill" data-item-order="0" data-item-id="came_8wj8ut1u32m89" data-item-class="Icon Stroke SceneTarget Indexed InsideFill InsideColorFill ColorStrokeBlack" data-item-index="5" data-renderer-id="0" transform="translate(199.25201416015625, 94.08499145507812)"></g><g id="g-root-shie_zitsid1u32m87-fill" data-item-order="0" data-item-id="shie_zitsid1u32m87" data-item-class="Icon Stroke SceneTarget Indexed Indexed_1 InsideFill InsideColorFill ColorStrokeBlack" data-item-index="1" data-renderer-id="0" transform="translate(396.74798583984375, 94.08499145507812)"></g><g id="g-root-tx_safetyfe_94nez91u2x1cc-fill" data-item-order="0" data-item-id="tx_safetyfe_94nez91u2x1cc" data-item-class="Label Stroke SceneTarget Indexed Indexed_1 ColorStrokeBlack" data-item-index="1" data-renderer-id="0" transform="translate(466, 98.00003051757812)"><g id="tx_safetyfe_94nez91u2x1cc-fill" stroke="none" fill="#484848"><g><text style="font: 20px &quot;Shantell Sans&quot;, cursive; white-space: pre;"><tspan x="12" y="35.33" dominant-baseline="ideographic">Safety Features</tspan></text></g></g></g><g id="g-root-haza_zqxymt1u318nh-fill" data-item-order="0" data-item-id="haza_zqxymt1u318nh" data-item-class="Icon Stroke SceneTarget SceneEnd InsideFill InsideColorFill ColorStrokeBlack" data-item-index="none" data-renderer-id="0" transform="translate(286, 217.99600219726562)"></g><g id="g-root-tx_harmfulr_18mkyvp1u2x0jl-fill" data-item-order="0" data-item-id="tx_harmfulr_18mkyvp1u2x0jl" data-item-class="Label Stroke SceneTarget Indexed ColorStrokeBlack" data-item-index="4" data-renderer-id="0" transform="translate(2, 290.0000305175781)"><g id="tx_harmfulr_18mkyvp1u2x0jl-fill" stroke="none" fill="#484848"><g><text style="font: 20px &quot;Shantell Sans&quot;, cursive; white-space: pre;"><tspan x="38.77" y="35.33" dominant-baseline="ideographic">Harmful </tspan><tspan x="16.08" y="59.33" dominant-baseline="ideographic">Responses</tspan></text></g></g></g><g id="g-root-chat_13ynamt1u32lfy-fill" data-item-order="0" data-item-id="chat_13ynamt1u32lfy" data-item-class="Icon Stroke SceneTarget Indexed InsideFill InsideColorFill ColorStrokeBlack" data-item-index="4" data-renderer-id="0" transform="translate(138.2230224609375, 281.9150085449219)"></g><g id="g-root-unli_m7zr851u32knc-fill" data-item-order="0" data-item-id="unli_m7zr851u32knc" data-item-class="Icon Stroke SceneTarget Indexed InsideFill InsideColorFill ColorStrokeBlack" data-item-index="2" data-renderer-id="0" transform="translate(457.77801513671875, 281.9150085449219)"></g><g id="g-root-tx_useracti_i0af851u2x0jn-fill" data-item-order="0" data-item-id="tx_useracti_i0af851u2x0jn" data-item-class="Label Stroke SceneTarget Indexed ColorStrokeBlack" data-item-index="2" data-renderer-id="0" transform="translate(532, 302.0000305175781)"><g id="tx_useracti_i0af851u2x0jn-fill" stroke="none" fill="#484848"><g><text style="font: 20px &quot;Shantell Sans&quot;, cursive; white-space: pre;"><tspan x="12" y="35.33" dominant-baseline="ideographic">User Actions</tspan></text></g></g></g><g id="g-root-lock_4gpqqd1u32n0i-fill" data-item-order="0" data-item-id="lock_4gpqqd1u32n0i" data-item-class="Icon Stroke SceneTarget Indexed InsideFill InsideColorFill ColorStrokeBlack" data-item-index="3" data-renderer-id="0" transform="translate(298, 398.0000305175781)"></g><g id="g-root-tx_restrict_vbqxlh1u2wyyq-fill" data-item-order="0" data-item-id="tx_restrict_vbqxlh1u2wyyq" data-item-class="Label Stroke SceneTarget Indexed ColorStrokeBlack" data-item-index="3" data-renderer-id="0" transform="translate(256, 470.0000305175781)"><g id="tx_restrict_vbqxlh1u2wyyq-fill" stroke="none" fill="#484848"><g><text style="font: 20px &quot;Shantell Sans&quot;, cursive; white-space: pre;"><tspan x="27.02" y="35.33" dominant-baseline="ideographic">Restricted </tspan><tspan x="17.31" y="59.33" dominant-baseline="ideographic">Information</tspan></text></g></g></g><g id="g-root-6.Vector_sy_1hi7z4l1u2wyz3-stroke" data-item-order="-152408" data-item-id="6.Vector_sy_1hi7z4l1u2wyz3" data-item-class="ScenePart Part Indexed Fill Stroke ColorStrokeBlack" data-item-index="5" data-renderer-id="0" transform="translate(182.44097900390625, 77.27401733398438)"><g id="6.Vector_sy_1hi7z4l1u2wyz3-stroke" fill="none" stroke-linecap="round" stroke-linejoin="round" stroke-miterlimit="4" stroke="#484848" stroke-width="4"><g><path d="M 76.659021 108.326013C 82.859021 109.626013 88.959021 111.426013 95.259021 112.026013C 96.059021 105.726013 96.959021 99.526013 97.559021 93.226013C 95.559021 94.526013 93.159021 95.426013 91.759021 97.426013C 86.559021 90.326013 82.259021 82.626013 76.359021 76.226013C 87.859021 63.226013 90.459021 44.126013 79.959021 29.626013C 68.259021 13.526013 45.559021 9.726013 29.659021 21.726013C 13.759021 33.626013 8.859021 56.726013 21.659021 71.926013C 33.259021 85.626013 51.959021 91.626013 67.059021 82.926013C 72.759021 89.526013 76.459021 97.826013 82.459021 104.126013C 80.459021 105.426013 78.559021 106.926013 76.659021 108.326013"></path><path d="M 76.668021 108.334013L 95.307021 112.054013L 97.528021 93.178013L 91.723021 97.396013L 76.331021 76.211013C 88.608021 63.906013 90.479021 44.162013 79.936021 29.651013C 68.249021 13.566013 45.736021 10.000013 29.651021 21.687013C 13.566021 33.373013 10.000021 55.887013 21.687021 71.972013C 32.215021 86.463013 51.531021 90.793013 67.017021 82.963013L 82.416021 104.158013L 76.668021 108.334013Z"></path></g></g></g><g id="g-root-5.Vector_sy_1hi7z4l1u2wyz2-stroke" data-item-order="-152406" data-item-id="5.Vector_sy_1hi7z4l1u2wyz2" data-item-class="ScenePart Part Indexed Fill Stroke ColorStrokeBlack" data-item-index="4" data-renderer-id="0" transform="translate(121.83999633789062, 266.1340637207031)"><g id="5.Vector_sy_1hi7z4l1u2wyz2-stroke" fill="none" stroke-linecap="round" stroke-linejoin="round" stroke-miterlimit="4" stroke="#484848" stroke-width="4"><g><path d="M 113.060004 42.965967C 115.360004 37.065967 119.560004 32.065967 122.360004 26.365967C 116.160004 25.365967 110.560004 21.665967 105.160004 18.465967C 105.160004 20.865967 107.160004 22.865967 107.360004 25.265967C 98.760004 27.065967 90.560004 30.165967 82.460004 33.365967C 73.560004 18.365967 56.560004 10.665967 39.260004 15.565967C 20.160004 20.965967 9.660004 42.065967 16.160004 60.865967C 22.660004 79.665967 42.960004 91.265967 61.460004 84.065967C 78.160004 77.565967 89.860004 61.265967 85.960004 44.265967C 94.560004 42.865967 102.760004 39.565967 110.860004 36.165967C 111.360004 38.565967 111.660004 41.065967 113.060004 42.965967"></path><path d="M 113.080004 42.964967L 122.378004 26.387967L 105.112004 18.441967L 107.330004 25.267967L 82.425004 33.359967C 74.516004 17.879967 56.317004 9.999967 39.258004 15.542967C 20.349004 21.686967 10.000004 41.996967 16.144004 60.905967C 22.288004 79.814967 42.598004 90.162967 61.507004 84.018967C 78.542004 78.483967 88.630004 61.450967 85.969004 44.303967L 110.884004 36.207967L 113.080004 42.964967Z"></path></g></g></g><g id="g-root-4.Vector_sy_1qd8iad1u2x1c5-stroke" data-item-order="-152404" data-item-id="4.Vector_sy_1qd8iad1u2x1c5" data-item-class="ScenePart Part Indexed Fill Stroke ColorStrokeBlack" data-item-index="3" data-renderer-id="0" transform="translate(286, 346.3000183105469)"><g id="4.Vector_sy_1qd8iad1u2x1c5-stroke" fill="none" stroke-linecap="round" stroke-linejoin="round" stroke-miterlimit="4" stroke="#484848" stroke-width="4"><g><path d="M 58.9 24.000012C 55.5 18.600012 49.6 15.200012 46 10.000012C 41.3 14.200012 38.1 20.100012 33.1 24.000012C 35.5 24.100012 37.9 23.700012 40.3 24.000012C 39.3 32.600012 41 41.500012 40.3 50.200012C 23.1 52.500012 9.7 67.800012 10 85.700012C 10.3 105.600012 26.1 122.400012 46 121.700012C 65.9 121.000012 81.6 105.600012 82 85.700012C 82.4 67.800012 68.7 54.100012 51.8 50.200012C 50.7 41.500012 53.4 32.500012 51.8 24.000012C 54.1 24.200012 56.6 24.500012 58.9 24.000012"></path><path d="M 58.893 23.965012L 46 10.000012L 33.107 23.965012L 40.284 23.965012L 40.284 50.151012C 23.118 52.890012 10 67.763012 10 85.700012C 10 105.582012 26.118 121.700012 46 121.700012C 65.882 121.700012 82 105.582012 82 85.700012C 82 67.788012 68.918 52.931012 51.787 50.163012L 51.787 23.965012L 58.893 23.965012Z"></path></g></g></g><g id="g-root-3.Vector_sy_1qd8iad1u2x1c4-stroke" data-item-order="-152402" data-item-id="3.Vector_sy_1qd8iad1u2x1c4" data-item-class="ScenePart Part Indexed Fill Stroke ColorStrokeBlack" data-item-index="2" data-renderer-id="0" transform="translate(409.781982421875, 266.1419982910156)"><g id="3.Vector_sy_1qd8iad1u2x1c4-stroke" fill="none" stroke-linecap="round" stroke-linejoin="round" stroke-miterlimit="4" stroke="#484848" stroke-width="4"><g><path d="M 27.218018 18.458032C 22.418018 22.458032 15.818018 23.958032 10.018018 26.358032C 11.818018 32.458032 17.618018 36.858032 19.318018 42.958032C 20.818018 41.158032 20.018018 37.958032 21.518018 36.158032C 29.618018 39.458032 38.718018 40.058032 46.418018 44.258032C 42.218018 61.058032 53.818018 78.458032 70.918018 84.058032C 89.718018 90.158032 109.718018 79.658032 116.218018 60.858032C 122.718018 42.158032 112.018018 21.758032 93.118018 15.558032C 76.118018 9.958032 58.218018 18.058032 50.018018 33.258032C 41.518018 31.058032 33.218018 28.258032 25.118018 25.158032C 24.918018 22.858032 26.718018 20.758032 27.218018 18.458032"></path><path d="M 27.266018 18.434032L 10.000018 26.380032L 19.298018 42.957032L 21.516018 36.132032L 46.420018 44.224032C 43.720018 61.396032 53.812018 78.468032 70.871018 84.011032C 89.780018 90.155032 110.089018 79.807032 116.233018 60.898032C 122.377018 41.988032 112.029018 21.679032 93.120018 15.535032C 76.085018 10.000032 57.913018 17.850032 49.986018 33.287032L 25.070018 25.191032L 27.266018 18.434032Z"></path></g></g></g><g id="g-root-2.Vector_sy_1qd8iad1u2x1c3-stroke" data-item-order="-152400" data-item-id="2.Vector_sy_1qd8iad1u2x1c3" data-item-class="ScenePart Part Indexed Indexed_1 Fill Stroke ColorStrokeBlack" data-item-index="1" data-renderer-id="0" transform="translate(374.031005859375, 77.27401733398438)"><g id="2.Vector_sy_1qd8iad1u2x1c3-stroke" fill="none" stroke-linecap="round" stroke-linejoin="round" stroke-miterlimit="4" stroke="#484848" stroke-width="4"><g><path d="M 9.968994 93.226013C 9.168994 99.426013 10.168994 106.026013 12.268994 112.026013C 18.268994 110.226013 24.968994 110.626013 30.868994 108.326013C 29.468994 106.426013 27.168994 105.226013 25.068994 104.126013C 29.168994 96.426013 34.468994 89.326013 40.468994 82.926013C 55.268994 92.026013 73.868994 85.326013 85.868994 71.926013C 99.068994 57.126013 93.768994 33.626013 77.868994 21.726013C 61.968994 9.726013 37.768994 12.526013 27.568994 29.626013C 18.468994 45.026013 19.368994 63.426013 31.168994 76.126013C 26.868994 83.826013 21.068994 90.426013 15.768994 97.326013C 13.968994 95.726013 12.268994 93.926013 9.968994 93.226013"></path><path d="M 9.999994 93.178013L 12.220994 112.054013L 30.859994 108.334013L 25.053994 104.116013L 40.445994 82.931013C 55.942994 90.805013 75.297994 86.483013 85.841994 71.972013C 97.527994 55.886013 93.961994 33.373013 77.876994 21.687013C 61.791994 10.000013 39.278994 13.566013 27.591994 29.651013C 17.063994 44.142013 18.914994 63.851013 31.145994 76.160013L 15.747994 97.354013L 9.999994 93.178013Z"></path></g></g></g><g id="g-root-0.cr-big_cr_1ut20et1u2x0jt-stroke" data-item-order="-152398" data-item-id="0.cr-big_cr_1ut20et1u2x0jt" data-item-class="Shape Stroke Fill ScenePart Part Indexed_0 ColorStrokeBlack" data-item-index="0" data-renderer-id="0" transform="translate(250, 181.99600219726562)"><g id="0.cr-big_cr_1ut20et1u2x0jt-stroke" fill="none" stroke-linecap="round" stroke-linejoin="round" stroke-miterlimit="4" stroke="#484848" stroke-width="4"><g><path d="M 10 82.004028C 11.9 102.304028 18.8 120.404028 32 133.804028C 44.7 146.704028 62.6 153.704028 82 154.004028C 100 154.304028 116.8 147.804028 129.1 136.504028C 143.9 122.804028 155.2 103.704028 154 82.004028C 151.8 42.304028 121.8 10.704028 82 10.004028C 60.8 9.604028 43 20.504028 28.5 33.804028C 15.8 45.404028 8.1 63.604028 10 82.004028"></path><path d="M 10 82.004028C 10.000004 121.768535 42.235502 154.004033 82.000004 154.004033C 121.764506 154.004033 154.000004 121.768535 154.000004 82.004033C 154.000004 42.239531 121.764506 10.004033 82.000004 10.004033C 42.235502 10.004033 10.000004 42.239531 10.000004 82.004033"></path></g></g></g><g id="g-root-tx_risksofa_1uuxfo51u2wzke-stroke" data-item-order="0" data-item-id="tx_risksofa_1uuxfo51u2wzke" data-item-class="Label Stroke SceneTarget SceneTitle Title ColorStrokeBlack" data-item-index="none" data-renderer-id="0" transform="translate(160, 2)"></g><g id="g-root-tx_unexpect_1ly1h911u2wyyo-stroke" data-item-order="0" data-item-id="tx_unexpect_1ly1h911u2wyyo" data-item-class="Label Stroke SceneTarget Indexed ColorStrokeBlack" data-item-index="5" data-renderer-id="0" transform="translate(58, 86.00003051757812)"></g><g id="g-root-came_8wj8ut1u32m89-stroke" data-item-order="0" data-item-id="came_8wj8ut1u32m89" data-item-class="Icon Stroke SceneTarget Indexed InsideFill InsideColorFill ColorStrokeBlack" data-item-index="5" data-renderer-id="0" transform="translate(199.25201416015625, 94.08499145507812)"><g id="came_8wj8ut1u32m89-stroke" fill="none" stroke-linecap="round" stroke-linejoin="round" stroke-miterlimit="4" stroke="#484848" stroke-width="2"><g><path d="M 34.799999 54.799999C 35 56 33.799999 57 32.599998 57C 26.200001 56.799999 19.799999 57 13.4 57C 12.2 57 11.6 56 11.2 54.799999C 10.6 53.200001 11.2 51.200001 11.2 49.599998C 11.4 45.200001 14 42 17 39.200001C 20.200001 36.400002 25.6 36.599998 29 39.200001C 32.400002 41.599998 35.799999 45.400002 34.799999 49.599998C 34.400002 51.200001 35 53 34.799999 54.799999M 18.6 45C 18.4 45.200001 18.799999 45.400002 19 45.599998C 19.200001 45.599998 19.6 45.200001 19.6 45C 19.6 44.799999 19.4 44.400002 19 44.599998C 18.799999 44.599998 18.6 44.799999 18.6 45M 26.6 45C 26.6 45.200001 26.799999 45.599998 27 45.400002C 27.4 45.400002 27.6 45.200001 27.6 45C 27.6 44.799999 27.200001 44.400002 27 44.400002C 26.799999 44.599998 26.6 44.799999 26.6 45M 23 37.799999C 23 36.200001 23 34.799999 23 33.400002M 19.799999 30.200001C 19.799999 32 21.4 33.799999 23 33.400002C 24.799999 33 25.799999 32 26.200001 30.200001C 26.799999 28.6 24.6 26.4 23 27C 21.4 27.6 19.6 28.4 19.799999 30.200001M 11.2 51.599998C 19 52 27.200001 49.599998 34.799999 51.599998M 31.4 26.200001C 30.799999 24.4 30.6 22.6 30.200001 20.799999C 30 18.799999 31.4 17.4 33.200001 16.200001C 39.599998 11.8 48.599998 13.4 55.799999 11C 56.200001 10.8 56.599998 11.2 56.400002 11.6C 56.400002 12.2 56 12.8 56 13.4C 56 14 55.599998 14.4 55.200001 14.6C 47.400002 18.799999 38.799999 21.200001 31.4 26.200001M 51.599998 16.4C 51.799999 18.6 52.200001 20.799999 53 22.799999C 53.400002 23.6 52.599998 24.200001 51.799999 24.6C 47.400002 27.200001 41.799999 27.799999 36.799999 28.200001C 36 28.200001 35.200001 28.200001 34.400002 27.799999C 33.799999 27.4 33.400002 26.6 33 26C 33 25.799999 33 25.6 33 25.4M 56 18.200001C 56.200001 19.200001 56.400002 20.200001 56.799999 21.200001M 41.200001 27.200001C 41.599998 28.200001 41.799999 29.4 42 30.4C 42.200001 31.200001 41.799999 31.799999 41.200001 32.200001C 38.400002 33.599998 35.200001 34.400002 33 36.400002"></path><path d="M 34.809998 54.858002C 34.809998 56.040993 33.850994 57 32.667999 57L 13.382 57C 12.199006 57 11.24 56.040993 11.24 54.857998L 11.24 49.501999C 11.184679 45.255043 13.41871 41.306805 17.08774 39.167198C 20.756771 37.027588 25.293232 37.027588 28.962261 39.167198C 32.63129 41.306805 34.865322 45.255043 34.810001 49.502003ZM 18.526001 45.001999C 18.526001 45.278141 18.749859 45.501999 19.026001 45.501999C 19.302143 45.501999 19.526001 45.278141 19.526001 45.001999C 19.526001 44.725857 19.302143 44.501999 19.026001 44.501999C 18.749859 44.501999 18.526001 44.725857 18.526001 45.001999M 26.525999 44.990002C 26.525999 45.266144 26.749857 45.490002 27.025999 45.490002C 27.302143 45.490002 27.525999 45.266144 27.525999 44.990002C 27.525999 44.713856 27.302143 44.490002 27.025999 44.490002C 26.749857 44.490002 26.525999 44.713856 26.525999 44.990002M 23.026001 37.716L 23.026001 33.43M 19.812 30.216C 19.812 31.991043 21.250957 33.43 23.026001 33.43C 24.801044 33.43 26.24 31.991043 26.24 30.216002C 26.24 28.440958 24.801044 27.002001 23.026001 27.002001C 21.250957 27.002001 19.812 28.440958 19.812 30.216002M 11.24 51.632L 34.809998 51.632M 31.486 26.184L 30.27 20.886C 29.789083 18.796082 31.093903 16.712135 33.183998 16.232L 55.888 11.018C 56.304001 10.922 56.562 11.184 56.462002 11.598L 56 13.464C 55.859859 13.930115 55.544407 14.323713 55.119999 14.562ZM 51.529999 16.33L 53.023998 22.83C 53.215809 23.665634 52.693707 24.498495 51.858002 24.690001L 36.722 28.167999C 35.936424 28.374668 35.10067 28.255268 34.404388 27.836895C 33.708107 27.418524 33.210327 26.73665 33.024002 25.946001L 32.917999 25.48M 56.066002 18.147999L 56.759998 21.174M 41.262001 27.124001L 42.034 30.483999C 42.194809 31.17635 41.865383 31.889561 41.234001 32.216L 33.015999 36.400002"></path></g></g></g><g id="g-root-shie_zitsid1u32m87-stroke" data-item-order="0" data-item-id="shie_zitsid1u32m87" data-item-class="Icon Stroke SceneTarget Indexed Indexed_1 InsideFill InsideColorFill ColorStrokeBlack" data-item-index="1" data-renderer-id="0" transform="translate(396.74798583984375, 94.08499145507812)"><g id="shie_zitsid1u32m87-stroke" fill="none" stroke-linecap="round" stroke-linejoin="round" stroke-miterlimit="4" stroke="#484848" stroke-width="2"><g><path d="M 45 24C 39.200001 26.4 36 32.599998 31.4 36.599998C 30.6 37.400002 29.200001 37.599998 28.6 36.599998C 27.799999 35.200001 26.6 33.799999 25 33M 15 13C 15.4 12 16 10.6 17 11C 27.799999 14.4 39.799999 12.8 51 11C 52 10.8 52.799999 12 53 13C 53.799999 17 54.400002 21.6 53 25.6C 48.599998 38 44.799999 49.200001 34 57C 22 51.400002 15.4 38.799999 15 25.6C 14.8 21.4 16 17 15 13"></path><path d="M 45 24L 31.42 36.68C 30.644806 37.429306 29.415194 37.429306 28.639999 36.68L 25 33M 15 13C 15 11.895431 15.895431 11 17 11L 51 11C 52.104568 11 53 11.895431 53 13L 53 25.52C 53.004192 38.727535 45.687969 50.849361 34 57C 22.312033 50.849361 14.99581 38.727535 15 25.52Z"></path></g></g></g><g id="g-root-tx_safetyfe_94nez91u2x1cc-stroke" data-item-order="0" data-item-id="tx_safetyfe_94nez91u2x1cc" data-item-class="Label Stroke SceneTarget Indexed Indexed_1 ColorStrokeBlack" data-item-index="1" data-renderer-id="0" transform="translate(466, 98.00003051757812)"></g><g id="g-root-haza_zqxymt1u318nh-stroke" data-item-order="0" data-item-id="haza_zqxymt1u318nh" data-item-class="Icon Stroke SceneTarget SceneEnd InsideFill InsideColorFill ColorStrokeBlack" data-item-index="none" data-renderer-id="0" transform="translate(286, 217.99600219726562)"><g id="haza_zqxymt1u318nh-stroke" fill="none" stroke-linecap="round" stroke-linejoin="round" stroke-miterlimit="4" stroke="#484848" stroke-width="2"><g><path d="M 67.899994 59.5C 71.5 60.100002 75.100006 59.5 78.699997 59.5C 79.300003 59.5 79.600006 59.199997 79.899994 58.899998C 80.5 58.600002 80.5 58.300003 80.5 57.699997C 79.300003 51.099998 76.300003 45.400002 70.600006 41.800003C 70.300003 41.5 69.699997 41.199997 69.100006 41.5C 68.800003 41.800003 68.5 42.099998 68.199997 42.400002C 65.5 44.800003 63.699997 48.699997 63.399998 52C 66.399994 53.199997 69.100006 56.5 67.899994 59.5M 64.600006 66.100006C 61.600002 68.5 56.5 69.399994 54.400002 66.100006C 52.900002 69.399994 50.199997 71.800003 48.099998 74.800003C 47.800003 75.100006 47.800003 75.699997 47.800003 76C 47.800003 76.600006 48.099998 76.899994 48.400002 77.199997C 55.300003 81.699997 64.300003 82.300003 70.600006 77.199997C 70.899994 76.899994 71.199997 76.600006 71.5 76C 71.5 75.699997 71.199997 75.100006 70.899994 74.800003C 69.100006 71.800003 66.699997 69.100006 64.600006 66.100006M 55.900002 52C 54.099998 49 52.599998 45.699997 51.099998 42.400002C 50.800003 42.099998 50.5 41.800003 49.900002 41.5C 49.300003 41.5 48.699997 41.5 48.400002 41.800003C 44.5 47.199997 40 51.400002 38.5 57.699997C 38.5 58.300003 38.5 58.899998 39.099998 58.899998C 39.400002 59.199997 39.699997 59.5 40.300003 59.5C 43.900002 59.5 47.5 60.100002 51.099998 59.5C 50.800003 56.5 52.900002 53.199997 55.900002 52M 58 59.5C 57.699997 60.399998 58.899998 61.300003 59.5 61C 60.399998 60.699997 61.300003 60.399998 61 59.5C 61 58.600002 60.399998 58 59.5 58C 58.899998 58 58.300003 58.600002 58 59.5M 23.5 26.5C 23.200001 23.200001 20.799999 19.9 17.5 20.5C 14.2 21.1 11.8 23.200001 11.5 26.5C 11.2 29.799999 14.2 31.900002 17.5 32.5C 38.199997 35.800003 59.5 30.099998 80.5 32.5M 44.5 17.5C 44.5 14.2 41.800003 11.2 38.5 11.5C 35.199997 11.8 33.700001 14.5 32.5 17.5C 31.299999 20.5 35.199997 24.400002 38.5 23.5C 50.5 20.200001 64.300003 27.700001 76 23.5M 32.5 47.5C 32.799999 50.800003 29.799999 54.099998 26.5 53.5C 23.200001 52.900002 21.4 50.800003 20.5 47.5C 19.6 44.199997 23.200001 42.099998 26.5 41.5C 29.5 40.900002 32.5 42.099998 35.5 41.5"></path><path d="M 67.954002 59.586998L 78.753998 59.586998C 79.243149 59.590439 79.711159 59.387814 80.043373 59.028767C 80.375595 58.66972 80.541336 58.187416 80.499992 57.699997C 79.881645 51.123875 76.201096 45.223427 70.567001 41.776001C 70.1521 41.518665 69.648056 41.447823 69.178299 41.580818C 68.708534 41.713814 68.316429 42.038364 68.098007 42.474998L 63.279999 52.102001C 66.128616 53.511799 67.937561 56.408661 67.954002 59.586998ZM 64.563995 66.153999C 61.591419 68.43586 57.456581 68.43586 54.484001 66.153999L 48.015999 74.766998C 47.722599 75.155701 47.606174 75.649864 47.695202 76.128662C 47.784225 76.60746 48.070496 77.026749 48.484001 77.284004C 55.222572 81.572418 63.834419 81.572418 70.572998 77.283997C 70.985031 77.025497 71.27005 76.606339 71.358971 76.128128C 71.447884 75.649918 71.332581 75.156319 71.040993 74.766998ZM 55.774002 52.087002L 50.973999 42.459999C 50.755569 42.023365 50.363464 41.698814 49.893707 41.565819C 49.423943 41.432823 48.919899 41.50367 48.505001 41.761002C 42.860733 45.206707 39.175121 51.115475 38.563 57.699997C 38.519268 58.185772 38.681427 58.667591 39.009968 59.028076C 39.338509 59.388557 39.803265 59.594597 40.290997 59.596001L 51.091 59.596001C 51.104282 56.408203 52.917122 53.501385 55.773998 52.086998ZM 58.128998 59.5C 58.128998 60.328426 58.800571 61 59.628998 61C 60.457428 61 61.128998 60.328426 61.128998 59.5L 61.128998 59.5C 61.128998 58.671574 60.457428 58 59.628998 58L 59.628998 58C 58.800571 58 58.128998 58.671574 58.128998 59.5ZM 23.5 26.5C 23.5 23.186291 20.813709 20.5 17.5 20.5C 14.186292 20.5 11.5 23.186291 11.5 26.5C 11.5 29.813709 14.186292 32.5 17.5 32.5L 80.5 32.5M 44.5 17.5C 44.5 14.186292 41.813709 11.5 38.5 11.5C 35.186291 11.5 32.5 14.186292 32.5 17.5C 32.5 20.813709 35.186291 23.5 38.5 23.5L 76 23.5M 32.5 47.5C 32.5 50.813709 29.813709 53.5 26.5 53.5C 23.186291 53.5 20.5 50.813709 20.5 47.5C 20.5 44.186291 23.186291 41.5 26.5 41.5L 35.5 41.5"></path></g></g></g><g id="g-root-tx_harmfulr_18mkyvp1u2x0jl-stroke" data-item-order="0" data-item-id="tx_harmfulr_18mkyvp1u2x0jl" data-item-class="Label Stroke SceneTarget Indexed ColorStrokeBlack" data-item-index="4" data-renderer-id="0" transform="translate(2, 290.0000305175781)"></g><g id="g-root-chat_13ynamt1u32lfy-stroke" data-item-order="0" data-item-id="chat_13ynamt1u32lfy" data-item-class="Icon Stroke SceneTarget Indexed InsideFill InsideColorFill ColorStrokeBlack" data-item-index="4" data-renderer-id="0" transform="translate(138.2230224609375, 281.9150085449219)"><g id="chat_13ynamt1u32lfy-stroke" fill="none" stroke-linecap="round" stroke-linejoin="round" stroke-miterlimit="4" stroke="#484848" stroke-width="2"><g><path d="M 57 45C 56.599998 46 56 47.200001 55 47C 48 45.200001 40 49 33 47C 29.799999 49 27 51.799999 25 55C 25.4 52.400002 25.799999 49.599998 25 47C 21 46.599998 17 47.200001 13 47C 11.8 47 11.2 46 11 45C 8.6 35.200001 12.6 24.799999 11 15C 10.8 14 12 13.2 13 13C 26.4 9.2 41 12.6 55 13C 56.200001 13 57.400002 14 57 15C 53.400002 24.4 57.400002 35 57 45M 34 36C 34 37 33.799999 38 34 39M 31 27.6C 31.200001 27.6 31.6 27.799999 31.6 28C 31.4 28.200001 31.200001 28.6 31 28.6C 30.799999 28.4 30.4 28.200001 30.6 28C 30.6 27.799999 30.799999 27.4 31 27.6M 37 27.6C 37.200001 27.4 37.599998 27.799999 37.599998 28C 37.400002 28.200001 37.200001 28.6 37 28.6C 36.799999 28.4 36.400002 28.200001 36.599998 28C 36.599998 27.799999 36.799999 27.6 37 27.6M 29 39C 29 37.799999 29.4 36.599998 29 35.400002C 25.4 34 24.4 29.200001 25.4 25.4C 26.200001 21.6 30 18.4 34 19C 38 19.6 40.200001 22.200001 42.599998 25.4C 45 28.6 42 33 39 35.400002C 38.799999 36.599998 38.799999 37.799999 39 39"></path><path d="M 57 45C 57 46.104568 56.104568 47 55 47L 33 47L 25 55L 25 47L 13 47C 11.895431 47 11 46.104568 11 45L 11 15C 11 13.895431 11.895431 13 13 13L 55 13C 56.104568 13 57 13.895431 57 15ZM 34 36L 34 39M 31 27.5C 31.276142 27.5 31.5 27.723858 31.5 28C 31.5 28.276142 31.276142 28.5 31 28.5C 30.723858 28.5 30.5 28.276142 30.5 28C 30.5 27.723858 30.723858 27.5 31 27.5M 37 27.5C 37.276142 27.5 37.5 27.723858 37.5 28C 37.5 28.276142 37.276142 28.5 37 28.5C 36.723858 28.5 36.5 28.276142 36.5 28C 36.5 27.723858 36.723858 27.5 37 27.5M 29 39L 29 35.48L 29 35.48C 25.703772 33.277615 24.236774 29.177803 25.387514 25.384199C 26.538254 21.590595 30.035706 18.996685 34 18.996685C 37.964294 18.996685 41.461746 21.590595 42.612488 25.384199C 43.763226 29.177803 42.29623 33.277615 39 35.48L 39 35.48L 39 39"></path></g></g></g><g id="g-root-unli_m7zr851u32knc-stroke" data-item-order="0" data-item-id="unli_m7zr851u32knc" data-item-class="Icon Stroke SceneTarget Indexed InsideFill InsideColorFill ColorStrokeBlack" data-item-index="2" data-renderer-id="0" transform="translate(457.77801513671875, 281.9150085449219)"><g id="unli_m7zr851u32knc-stroke" fill="none" stroke-linecap="round" stroke-linejoin="round" stroke-miterlimit="4" stroke="#484848" stroke-width="2"><g><path d="M 39.142857 43.257141C 41.885715 41.200001 44.285713 39.142857 46 36.399998C 48.057144 33.657143 50.799999 31.257143 53.542858 29.200001C 58 25.771429 57.657143 18.571428 53.542858 14.457143C 49.085712 10.685715 43.257141 11.028571 38.799999 14.457143C 37.085716 16.171429 35.714287 17.885714 34 19.6C 32.285713 21.314285 30.571428 23.028572 28.857143 24.742859M 22 31.6C 19.257143 33.314285 17.199999 36.399998 14.8 38.799999C 10.685715 42.57143 10 50.114285 14.8 53.200001C 19.257143 56.628574 24.057142 55.600002 29.200001 53.200001C 30.571428 52.514286 31.257143 50.799999 32.628571 49.771431M 24.4 17.199999C 30.571428 28.514286 37.771431 39.142857 43.600002 51.142857"></path><path d="M 39.279999 43.257141L 46.137142 36.399998L 53.405716 29.131428C 57.416504 25.115646 57.416504 18.610069 53.405716 14.594286L 53.405716 14.594286C 49.389935 10.583496 42.884357 10.583496 38.868572 14.594286L 34 19.462856L 28.720001 24.742859M 22 31.462858L 14.731428 38.73143C 10.720639 42.747215 10.720639 49.252792 14.731428 53.268574L 14.731428 53.26857C 18.747211 57.279362 25.252789 57.279362 29.268574 53.268574L 32.697144 49.84M 24.297144 17.028572L 43.702858 50.971428"></path></g></g></g><g id="g-root-tx_useracti_i0af851u2x0jn-stroke" data-item-order="0" data-item-id="tx_useracti_i0af851u2x0jn" data-item-class="Label Stroke SceneTarget Indexed ColorStrokeBlack" data-item-index="2" data-renderer-id="0" transform="translate(532, 302.0000305175781)"></g><g id="g-root-lock_4gpqqd1u32n0i-stroke" data-item-order="0" data-item-id="lock_4gpqqd1u32n0i" data-item-class="Icon Stroke SceneTarget Indexed InsideFill InsideColorFill ColorStrokeBlack" data-item-index="3" data-renderer-id="0" transform="translate(298, 398.0000305175781)"><g id="lock_4gpqqd1u32n0i-stroke" fill="none" stroke-linecap="round" stroke-linejoin="round" stroke-miterlimit="4" stroke="#484848" stroke-width="2"><g><path d="M 33 57C 26.4 58 19.6 56.799999 13 57C 12 57 10.6 56 11 55C 15.4 41.799999 11.8 27 11 13C 11 12 12 11.2 13 11C 21.799999 9.2 30.799999 11.8 39.599998 11C 40.200001 11 40.799999 11.2 41 11.6C 43.200001 14.4 46.400002 16.200001 48.400002 19C 48.799999 19.4 49 19.799999 49 20.4C 49.200001 22.6 49.200001 24.799999 49 27M 19 37.799999C 21 35.799999 22.4 33.200001 25 32C 25.6 31.6 26.6 31.200001 27.200001 31.799999C 28 32.400002 28.799999 33.200001 30 33.599998C 30.6 33.799999 31.6 34 32.200001 33.400002C 33.599998 31.200001 36 29.6 37.599998 27.4M 19 23C 18.6 29.6 16.6 36.799999 19 43C 23 44 27 43.599998 31 43M 41 41C 45.599998 41.799999 50.599998 42.599998 55 41C 55 41 56.400002 41.200001 57 43C 58.400002 46.799999 56 51.200001 57 55C 57 55 57 57.200001 55 57C 50.400002 56.599998 45.599998 58.400002 41 57C 41 57 39.799999 57 39 55C 37.799999 51.200001 39.599998 47 39 43C 39 43 39.200001 41.799999 41 41M 45.599998 49.200001C 45.799999 50.599998 46.599998 51.799999 48 51.599998C 49.400002 51.599998 50.200001 50.599998 50.599998 49.200001C 50.799999 47.799999 49.400002 46.599998 48 46.599998C 46.599998 46.799999 45.400002 47.799999 45.599998 49.200001M 53 38C 52.200001 35.400002 50.799999 33.200001 48 33C 45.200001 33 42.400002 35.400002 43 38C 43.200001 39 42.799999 40 43 41C 46.200001 40.200001 49.799999 42 53 41C 52.799999 40 53 39 53 38"></path><path d="M 33.042 57.021999L 13.042 57.021999C 11.93743 57.021999 11.042 56.126568 11.042 55.021999L 11.042 13.022C 11.042 11.917431 11.93743 11.022 13.042 11.022L 39.627998 11.022C 40.157242 11.019989 40.66571 11.227833 41.042 11.6L 48.456001 19.014C 48.8311 19.388985 49.041885 19.89761 49.042 20.428001L 49.042 27.021999M 19.042 37.84L 24.950001 31.931999C 25.532717 31.350485 26.4445 31.260143 27.130001 31.716002L 29.916 33.573997C 30.618618 34.041878 31.556442 33.93364 32.134003 33.318001L 37.610001 27.476M 19.042 23.021999L 19.042 43.021999L 31.042 43.021999M 41.042 41.021999L 55.042 41.021999C 55.042 41.021999 57.042 41.021999 57.042 43.021999L 57.042 55.02C 57.042 55.02 57.042 57.02 55.042 57.02L 41.042 57.02C 41.042 57.02 39.042 57.02 39.042 55.02L 39.042 43.021999C 39.042 43.021999 39.042 41.021999 41.042 41.021999M 45.542 49.147999C 45.542 50.528713 46.661289 51.647999 48.042 51.647999C 49.422714 51.647999 50.542 50.528713 50.542 49.147999C 50.542 47.767288 49.422714 46.647999 48.042 46.647999C 46.661289 46.647999 45.542 47.767288 45.542 49.147999M 53.042 38.021999C 53.042 35.260574 50.803425 33.022003 48.042 33.022003C 45.280579 33.022003 43.042 35.260574 43.042 38.022003L 43.042 41.021999L 53.042 41.021999Z"></path></g></g></g><g id="g-root-tx_restrict_vbqxlh1u2wyyq-stroke" data-item-order="0" data-item-id="tx_restrict_vbqxlh1u2wyyq" data-item-class="Label Stroke SceneTarget Indexed ColorStrokeBlack" data-item-index="3" data-renderer-id="0" transform="translate(256, 470.0000305175781)"></g></g></g></svg>