<?xml version="1.0" encoding="utf-8" standalone="yes"?>
<!DOCTYPE svg PUBLIC "-//W3C//DTD SVG 1.1//EN" "http://www.w3.org/Graphics/SVG/1.1/DTD/svg11.dtd">
<svg width="721" height="385" viewBox="0 0 721 385" style="fill:none;stroke:none;fill-rule:evenodd;clip-rule:evenodd;stroke-linecap:round;stroke-linejoin:round;stroke-miterlimit:1.5;" version="1.1" xmlns="http://www.w3.org/2000/svg" xmlns:xlink="http://www.w3.org/1999/xlink"><style id="fontImports">@import url("https://fonts.googleapis.com/css2?family=Roboto:wght@400;700&amp;display=block");</style><rect id="" x="0" y="0" width="721" height="385" style="fill: #ffffff;"></rect><g id="items" style="isolation: isolate"><g id="blend" style="mix-blend-mode:multiply"><g id="g-root-ro_1uneig31soqm11-fill" data-item-order="-21600" data-item-id="ro_1uneig31soqm11" data-item-class="Shape Stroke Fill" data-item-index="none" data-renderer-id="0" transform="translate(326, 15)"><g id="ro_1uneig31soqm11-fill" stroke="none" fill="#f0f0f0"><g><path d="M 34 10L 130 10C 130 10 154 10 154 34L 154 136C 154 136 154 160 130 160L 34 160C 34 160 10 160 10 136L 10 34C 10 34 10 10 34 10"></path></g></g></g><g id="g-root-ro_1urru1v1sp7hmr-fill" data-item-order="-12312" data-item-id="ro_1urru1v1sp7hmr" data-item-class="Shape Stroke Fill" data-item-index="none" data-renderer-id="0" transform="translate(50, 3)"><g id="ro_1urru1v1sp7hmr-fill" stroke="none" fill="#e6efff"><g><path d="M 22 10L 226 10C 226 10 238 10 238 22L 238 52C 238 52 238 64 226 64L 22 64C 22 64 10 64 10 52L 10 22C 10 22 10 10 22 10"></path></g></g></g><g id="g-root-ro_mdkstf1sp60i4-fill" data-item-order="-11664" data-item-id="ro_mdkstf1sp60i4" data-item-class="Shape Stroke Fill" data-item-index="none" data-renderer-id="0" transform="translate(290, 201)"><g id="ro_mdkstf1sp60i4-fill" stroke="none" fill="#e6f9ff"><g><path d="M 22 10L 214 10C 214 10 226 10 226 22L 226 52C 226 52 226 64 214 64L 22 64C 22 64 10 64 10 52L 10 22C 10 22 10 10 22 10"></path></g></g></g><g id="g-root-ro_13z8jj71sp61vy-fill" data-item-order="-9720" data-item-id="ro_13z8jj71sp61vy" data-item-class="Shape Stroke Fill" data-item-index="none" data-renderer-id="0" transform="translate(518, 3)"><g id="ro_13z8jj71sp61vy-fill" stroke="none" fill="#e9fbf3"><g><path d="M 22 10L 178 10C 178 10 190 10 190 22L 190 52C 190 52 190 64 178 64L 22 64C 22 64 10 64 10 52L 10 22C 10 22 10 10 22 10"></path></g></g></g><g id="g-root-mold_1q5pl2b1sp62o5-fill" data-item-order="0" data-item-id="mold_1q5pl2b1sp62o5" data-item-class="Icon Stroke" data-item-index="none" data-renderer-id="0" transform="translate(530, 15)"></g><g id="g-root-cu_18lasir1sp7guk-fill" data-item-order="0" data-item-id="cu_18lasir1sp7guk" data-item-class="Curve Stroke ColorFillGray ColorStrokeGray" data-item-index="none" data-renderer-id="0" transform="translate(278, 30)"></g><g id="g-root-tx_framewor_8vvjkz1sp60i4-fill" data-item-order="0" data-item-id="tx_framewor_8vvjkz1sp60i4" data-item-class="Label Stroke" data-item-index="none" data-renderer-id="0" transform="translate(566, 18)"><g id="tx_framewor_8vvjkz1sp60i4-fill" stroke="none" fill="#3bc482"><g><text style="font: 20px Roboto, sans-serif; white-space: pre;"><tspan x="15.08" y="33.75" dominant-baseline="ideographic">Frameworks</tspan></text></g></g></g><g id="g-root-lear_m8l04j1soqm84-fill" data-item-order="0" data-item-id="lear_m8l04j1soqm84" data-item-class="Icon Stroke" data-item-index="none" data-renderer-id="0" transform="translate(374, 39)"></g><g id="g-root-cu_vagr8j1sp7f9r-fill" data-item-order="0" data-item-id="cu_vagr8j1sp7f9r" data-item-class="Curve Stroke ColorFillGray ColorStrokeGray" data-item-index="none" data-renderer-id="0" transform="translate(470, 30)"></g><g id="g-root-tx_supervis_924ag31sp6231-fill" data-item-order="0" data-item-id="tx_supervis_924ag31sp6231" data-item-class="Label Stroke" data-item-index="none" data-renderer-id="0" transform="translate(38, 69)"><g id="tx_supervis_924ag31sp6231-fill" stroke="none" fill="#484848"><g><text style="font: 20px Roboto, sans-serif; white-space: pre;"><tspan x="15.76" y="33.75" dominant-baseline="ideographic">Supervised Learning</tspan></text></g></g></g><g id="g-root-tx_microsof_1ulj36r1sp7g1x-fill" data-item-order="0" data-item-id="tx_microsof_1ulj36r1sp7g1x" data-item-class="Label Stroke" data-item-index="none" data-renderer-id="0" transform="translate(338, 339)"><g id="tx_microsof_1ulj36r1sp7g1x-fill" stroke="none" fill="#484848"><g><text style="font: 20px Roboto, sans-serif; white-space: pre;"><tspan x="16.91" y="33.75" dominant-baseline="ideographic">Microsoft Azure</tspan></text></g></g></g><g id="g-root-cu_4o67kz1sp7g1s-fill" data-item-order="0" data-item-id="cu_4o67kz1sp7g1s" data-item-class="Curve Stroke ColorFillGray ColorStrokeGray" data-item-index="none" data-renderer-id="0" transform="translate(236, 57)"></g><g id="g-root-cu_1qdtr6r1sp7hfm-fill" data-item-order="0" data-item-id="cu_1qdtr6r1sp7hfm" data-item-class="Curve Stroke ColorFillGray ColorStrokeGray" data-item-index="none" data-renderer-id="0" transform="translate(236, 57)"></g><g id="g-root-cu_1hit80z1sp7f2k-fill" data-item-order="0" data-item-id="cu_1hit80z1sp7f2k" data-item-class="Curve Stroke ColorFillGray ColorStrokeGray" data-item-index="none" data-renderer-id="0" transform="translate(542, 57)"></g><g id="g-root-cu_147cpnn1sp7gnj-fill" data-item-order="0" data-item-id="cu_147cpnn1sp7gnj" data-item-class="Curve Stroke ColorFillGray ColorStrokeGray" data-item-index="none" data-renderer-id="0" transform="translate(542, 57)"></g><g id="g-root-cu_zrj7j71sp7hft-fill" data-item-order="0" data-item-id="cu_zrj7j71sp7hft" data-item-class="Curve Stroke ColorFillGray ColorStrokeGray" data-item-index="none" data-renderer-id="0" transform="translate(542, 57)"></g><g id="g-root-tx_tensorfl_hzmpyb1sp60ao-fill" data-item-order="0" data-item-id="tx_tensorfl_hzmpyb1sp60ao" data-item-class="Label Stroke" data-item-index="none" data-renderer-id="0" transform="translate(566, 69)"><g id="tx_tensorfl_hzmpyb1sp60ao-fill" stroke="none" fill="#484848"><g><text style="font: 20px Roboto, sans-serif; white-space: pre;"><tspan x="12.28" y="33.75" dominant-baseline="ideographic">TensorFlow</tspan></text></g></g></g><g id="g-root-tx_unsuperv_1hgxsrn1sp61vy-fill" data-item-order="0" data-item-id="tx_unsuperv_1hgxsrn1sp61vy" data-item-class="Label Stroke" data-item-index="none" data-renderer-id="0" transform="translate(14, 105)"><g id="tx_unsuperv_1hgxsrn1sp61vy-fill" stroke="none" fill="#484848"><g><text style="font: 20px Roboto, sans-serif; white-space: pre;"><tspan x="16.54" y="33.75" dominant-baseline="ideographic">Unsupervised Learning</tspan></text></g></g></g><g id="g-root-tx_machinel_13z8jj71soqn0r-fill" data-item-order="0" data-item-id="tx_machinel_13z8jj71soqn0r" data-item-class="Label Stroke" data-item-index="none" data-renderer-id="0" transform="translate(350, 93)"><g id="tx_machinel_13z8jj71soqn0r-fill" stroke="none" fill="#484848"><g><text style="font: 20px Roboto, sans-serif; white-space: pre;"><tspan x="17.58" y="33.75" dominant-baseline="ideographic">Machine </tspan><tspan x="17.15" y="57.75" dominant-baseline="ideographic">Learning</tspan></text></g></g></g><g id="g-root-tx_pytorch_1utn9b71sp62h5-fill" data-item-order="0" data-item-id="tx_pytorch_1utn9b71sp62h5" data-item-class="Label Stroke" data-item-index="none" data-renderer-id="0" transform="translate(566, 105)"><g id="tx_pytorch_1utn9b71sp62h5-fill" stroke="none" fill="#484848"><g><text style="font: 20px Roboto, sans-serif; white-space: pre;"><tspan x="15.66" y="33.75" dominant-baseline="ideographic">PyTorch</tspan></text></g></g></g><g id="g-root-tx_reinforc_zqa9cz1sp613b-fill" data-item-order="0" data-item-id="tx_reinforc_zqa9cz1sp613b" data-item-class="Label Stroke" data-item-index="none" data-renderer-id="0" transform="translate(2, 141)"><g id="tx_reinforc_zqa9cz1sp613b-fill" stroke="none" fill="#484848"><g><text style="font: 20px Roboto, sans-serif; white-space: pre;"><tspan x="17.7" y="33.75" dominant-baseline="ideographic">Reinforcement Learning</tspan></text></g></g></g><g id="g-root-tx_scikitle_1d2zpwj1sp61oi-fill" data-item-order="0" data-item-id="tx_scikitle_1d2zpwj1sp61oi" data-item-class="Label Stroke" data-item-index="none" data-renderer-id="0" transform="translate(566, 141)"><g id="tx_scikitle_1d2zpwj1sp61oi-fill" stroke="none" fill="#484848"><g><text style="font: 20px Roboto, sans-serif; white-space: pre;"><tspan x="14.82" y="33.75" dominant-baseline="ideographic">Scikit-learn</tspan></text></g></g></g><g id="g-root-cu_qun9431sp7g22-fill" data-item-order="0" data-item-id="cu_qun9431sp7g22" data-item-class="Curve Stroke ColorFillGray ColorStrokeGray" data-item-index="none" data-renderer-id="0" transform="translate(398, 165)"></g><g id="g-root-3_dhxskj1sp7fgq-fill" data-item-order="0" data-item-id="3_dhxskj1sp7fgq" data-item-class="Icon Stroke" data-item-index="none" data-renderer-id="0" transform="translate(236, 15)"></g><g id="g-root-clou_zoeu3n1sp622z-fill" data-item-order="0" data-item-id="clou_zoeu3n1sp622z" data-item-class="Icon Stroke" data-item-index="none" data-renderer-id="0" transform="translate(302, 213)"></g><g id="g-root-tx_cloudpla_1luvvmr1sp62v6-fill" data-item-order="0" data-item-id="tx_cloudpla_1luvvmr1sp62v6" data-item-class="Label Stroke" data-item-index="none" data-renderer-id="0" transform="translate(338, 216)"><g id="tx_cloudpla_1luvvmr1sp62v6-fill" stroke="none" fill="#17b0e3"><g><text style="font: 20px Roboto, sans-serif; white-space: pre;"><tspan x="15.81" y="33.75" dominant-baseline="ideographic">Cloud Platforms</tspan></text></g></g></g><g id="g-root-cu_mgp68z1sp7fuz-fill" data-item-order="0" data-item-id="cu_mgp68z1sp7fuz" data-item-class="Curve Stroke ColorFillGray ColorStrokeGray" data-item-index="none" data-renderer-id="0" transform="translate(314, 255)"></g><g id="g-root-cu_958nvn1sp7hfy-fill" data-item-order="0" data-item-id="cu_958nvn1sp7hfy" data-item-class="Curve Stroke ColorFillGray ColorStrokeGray" data-item-index="none" data-renderer-id="0" transform="translate(314, 255)"></g><g id="g-root-cu_8mhv1somdc0-fill" data-item-order="0" data-item-id="cu_8mhv1somdc0" data-item-class="Curve Stroke ColorFillGray ColorStrokeGray" data-item-index="none" data-renderer-id="0" transform="translate(314, 255)"></g><g id="g-root-tx_aws_qwiodf1sp60wb-fill" data-item-order="0" data-item-id="tx_aws_qwiodf1sp60wb" data-item-class="Label Stroke" data-item-index="none" data-renderer-id="0" transform="translate(338, 267)"><g id="tx_aws_qwiodf1sp60wb-fill" stroke="none" fill="#484848"><g><text style="font: 20px Roboto, sans-serif; white-space: pre;"><tspan x="13" y="33.75" dominant-baseline="ideographic">AWS</tspan></text></g></g></g><g id="g-root-tx_googlecl_958nvn1sp639g-fill" data-item-order="0" data-item-id="tx_googlecl_958nvn1sp639g" data-item-class="Label Stroke" data-item-index="none" data-renderer-id="0" transform="translate(338, 303)"><g id="tx_googlecl_958nvn1sp639g-fill" stroke="none" fill="#484848"><g><text style="font: 20px Roboto, sans-serif; white-space: pre;"><tspan x="16.18" y="33.75" dominant-baseline="ideographic">Google Cloud</tspan></text></g></g></g><g id="g-root-tx_typesofl_zoeu3n1sp7g8x-fill" data-item-order="0" data-item-id="tx_typesofl_zoeu3n1sp7g8x" data-item-class="Label Stroke" data-item-index="none" data-renderer-id="0" transform="translate(62, 18)"><g id="tx_typesofl_zoeu3n1sp7g8x-fill" stroke="none" fill="#4682e3"><g><text style="font: 20px Roboto, sans-serif; white-space: pre;"><tspan x="14.89" y="33.75" dominant-baseline="ideographic">Types of Learning</tspan></text></g></g></g><g id="g-root-cu_metqzn1sp7gud-fill" data-item-order="0" data-item-id="cu_metqzn1sp7gud" data-item-class="Curve Stroke ColorFillGray ColorStrokeGray" data-item-index="none" data-renderer-id="0" transform="translate(236, 57)"></g><g id="g-root-ro_1uneig31soqm11-stroke" data-item-order="-21600" data-item-id="ro_1uneig31soqm11" data-item-class="Shape Stroke Fill" data-item-index="none" data-renderer-id="0" transform="translate(326, 15)"><g id="ro_1uneig31soqm11-stroke" fill="none" stroke-linecap="round" stroke-linejoin="round" stroke-miterlimit="4" stroke="#484848" stroke-width="2"><g><path d="M 34 10L 130 10C 130 10 154 10 154 34L 154 136C 154 136 154 160 130 160L 34 160C 34 160 10 160 10 136L 10 34C 10 34 10 10 34 10"></path></g></g></g><g id="g-root-ro_1urru1v1sp7hmr-stroke" data-item-order="-12312" data-item-id="ro_1urru1v1sp7hmr" data-item-class="Shape Stroke Fill" data-item-index="none" data-renderer-id="0" transform="translate(50, 3)"><g id="ro_1urru1v1sp7hmr-stroke" fill="none" stroke-linecap="round" stroke-linejoin="round" stroke-miterlimit="4" stroke="#4682e3" stroke-width="2"><g><path d="M 22 10L 226 10C 226 10 238 10 238 22L 238 52C 238 52 238 64 226 64L 22 64C 22 64 10 64 10 52L 10 22C 10 22 10 10 22 10"></path></g></g></g><g id="g-root-ro_mdkstf1sp60i4-stroke" data-item-order="-11664" data-item-id="ro_mdkstf1sp60i4" data-item-class="Shape Stroke Fill" data-item-index="none" data-renderer-id="0" transform="translate(290, 201)"><g id="ro_mdkstf1sp60i4-stroke" fill="none" stroke-linecap="round" stroke-linejoin="round" stroke-miterlimit="4" stroke="#17b0e3" stroke-width="2"><g><path d="M 22 10L 214 10C 214 10 226 10 226 22L 226 52C 226 52 226 64 214 64L 22 64C 22 64 10 64 10 52L 10 22C 10 22 10 10 22 10"></path></g></g></g><g id="g-root-ro_13z8jj71sp61vy-stroke" data-item-order="-9720" data-item-id="ro_13z8jj71sp61vy" data-item-class="Shape Stroke Fill" data-item-index="none" data-renderer-id="0" transform="translate(518, 3)"><g id="ro_13z8jj71sp61vy-stroke" fill="none" stroke-linecap="round" stroke-linejoin="round" stroke-miterlimit="4" stroke="#3bc482" stroke-width="2"><g><path d="M 22 10L 178 10C 178 10 190 10 190 22L 190 52C 190 52 190 64 178 64L 22 64C 22 64 10 64 10 52L 10 22C 10 22 10 10 22 10"></path></g></g></g><g id="g-root-mold_1q5pl2b1sp62o5-stroke" data-item-order="0" data-item-id="mold_1q5pl2b1sp62o5" data-item-class="Icon Stroke" data-item-index="none" data-renderer-id="0" transform="translate(530, 15)"><g id="mold_1q5pl2b1sp62o5-stroke" fill="none" stroke-linecap="round" stroke-linejoin="round" stroke-miterlimit="4" stroke="#3bc482" stroke-width="2"><g><path d="M 16.875 21.518749C 17.154423 21.516565 17.42905 21.591385 17.668751 21.735001L 19.80625 23C 20.101753 23.176458 20.474005 23.15974 20.752501 22.9575C 21.035034 22.750635 21.175184 22.40099 21.11375 22.056252L 20.651249 19.3825C 20.559299 18.860685 20.726116 18.326683 21.098751 17.950001L 22.858749 16.186251C 23.099865 15.942136 23.185575 15.584372 23.081249 15.2575C 22.981413 14.935676 22.707712 14.698306 22.375 14.645L 19.9375 14.28125C 19.419975 14.204492 18.974691 13.874981 18.75 13.4025L 17.665001 11.125C 17.519897 10.820292 17.212492 10.626198 16.875 10.626198C 16.537508 10.626198 16.230103 10.820292 16.084999 11.125L 15 13.4025C 14.776279 13.870886 14.335512 14.198419 13.8225 14.2775L 11.375 14.645C 11.039428 14.697177 10.76318 14.936526 10.66375 15.26125C 10.559425 15.588121 10.645135 15.945886 10.88625 16.190001L 12.65125 17.953751C 13.023884 18.330433 13.190701 18.864435 13.09875 19.38625L 12.63625 22.059999C 12.574817 22.404739 12.714966 22.754385 12.9975 22.96125C 13.275995 23.16349 13.648246 23.18021 13.94375 23.00375L 16.078751 21.734999C 16.319178 21.59094 16.59473 21.516106 16.875 21.518749ZM 36.25 26.875C 34.524109 26.875 33.125 28.274111 33.125 30C 33.125 28.274111 31.725891 26.875 30 26.875C 28.274111 26.875 26.875 28.274111 26.875 30C 26.875 33.875 31.147499 37.96875 32.625 39.195C 32.914307 39.437286 33.335693 39.437286 33.625 39.195C 35.106247 37.967499 39.375 33.875 39.375 30C 39.375 28.274111 37.975891 26.875 36.25 26.875ZM 26.875 16.875C 26.875 20.32678 29.673222 23.125 33.125 23.125C 36.576778 23.125 39.375 20.32678 39.375 16.875C 39.375 13.423221 36.576778 10.625 33.125 10.625C 29.673222 10.625 26.875 13.423221 26.875 16.875ZM 21.42 33.4375C 22.330667 32.578762 22.702354 31.292765 22.39023 30.080606C 22.078106 28.86845 21.131552 27.921894 19.919394 27.60977C 18.707235 27.297646 17.42124 27.669333 16.5625 28.58C 15.703761 27.669333 14.417765 27.297646 13.205607 27.60977C 11.993449 27.921894 11.046893 28.86845 10.73477 30.080606C 10.422646 31.292765 10.794333 32.578762 11.705 33.4375C 10.794333 34.296238 10.422646 35.582233 10.73477 36.794392C 11.046893 38.00655 11.993449 38.953106 13.205607 39.265228C 14.417765 39.577354 15.703761 39.205669 16.5625 38.294998C 17.42124 39.205669 18.707235 39.577354 19.919394 39.265228C 21.131552 38.953106 22.078106 38.00655 22.39023 36.794392C 22.702354 35.582233 22.330667 34.296238 21.42 33.4375Z"></path></g></g></g><g id="g-root-cu_18lasir1sp7guk-stroke" data-item-order="0" data-item-id="cu_18lasir1sp7guk" data-item-class="Curve Stroke ColorFillGray ColorStrokeGray" data-item-index="none" data-renderer-id="0" transform="translate(278, 30)"><g id="cu_18lasir1sp7guk-stroke" fill="none" stroke-linecap="round" stroke-linejoin="round" stroke-miterlimit="4" stroke="#888888" stroke-width="2" stroke-dasharray="5.0, 7.0"><g><path d="M 58 45L 55 45L 54.9 45C 50.422131 44.972593 45.63978 43.214375 41.299999 40C 38.67988 38.118536 36.018569 33.561496 33.999999 27.499999C 31.98143 21.438501 29.320119 16.881461 26.699999 15C 22.360218 11.785625 17.577867 10.027408 13.1 10L 13 10L 10 10"></path></g></g></g><g id="g-root-tx_framewor_8vvjkz1sp60i4-stroke" data-item-order="0" data-item-id="tx_framewor_8vvjkz1sp60i4" data-item-class="Label Stroke" data-item-index="none" data-renderer-id="0" transform="translate(566, 18)"></g><g id="g-root-lear_m8l04j1soqm84-stroke" data-item-order="0" data-item-id="lear_m8l04j1soqm84" data-item-class="Icon Stroke" data-item-index="none" data-renderer-id="0" transform="translate(374, 39)"><g id="lear_m8l04j1soqm84-stroke" fill="none" stroke-linecap="round" stroke-linejoin="round" stroke-miterlimit="4" stroke="#484848" stroke-width="2"><g><path d="M 11.714286 16.857143C 11.714286 19.697464 14.016822 22 16.857143 22C 19.697464 22 22 19.697464 22 16.857143C 22 14.016822 19.697464 11.714286 16.857143 11.714286C 14.016822 11.714286 11.714286 14.016822 11.714286 16.857143M 28.857143 16.857143C 28.857143 19.697464 31.159679 22 34 22C 36.840321 22 39.142857 19.697464 39.142857 16.857143C 39.142857 14.016822 36.840321 11.714286 34 11.714286C 31.159679 11.714286 28.857143 14.016822 28.857143 16.857143M 46 16.857143C 46 19.697464 48.30254 22 51.142857 22C 53.983181 22 56.285713 19.697464 56.285713 16.857143C 56.285713 14.016822 53.983181 11.714286 51.142857 11.714286C 48.30254 11.714286 46 14.016822 46 16.857143M 11.714286 34C 11.714286 36.840321 14.016822 39.142857 16.857143 39.142857C 19.697464 39.142857 22 36.840321 22 34C 22 31.159679 19.697464 28.857143 16.857143 28.857143C 14.016822 28.857143 11.714286 31.159679 11.714286 34M 28.857143 34C 28.857143 36.840321 31.159679 39.142857 34 39.142857C 36.840321 39.142857 39.142857 36.840321 39.142857 34C 39.142857 31.159679 36.840321 28.857143 34 28.857143C 31.159679 28.857143 28.857143 31.159679 28.857143 34M 46 34C 46 36.840321 48.30254 39.142857 51.142857 39.142857C 53.983181 39.142857 56.285713 36.840321 56.285713 34C 56.285713 31.159679 53.983181 28.857143 51.142857 28.857143C 48.30254 28.857143 46 31.159679 46 34M 11.714286 51.142857C 11.714286 53.983181 14.016822 56.285713 16.857143 56.285713C 19.697464 56.285713 22 53.983181 22 51.142857C 22 48.30254 19.697464 46 16.857143 46C 14.016822 46 11.714286 48.30254 11.714286 51.142857M 28.857143 51.142857C 28.857143 53.983181 31.159679 56.285713 34 56.285713C 36.840321 56.285713 39.142857 53.983181 39.142857 51.142857C 39.142857 48.30254 36.840321 46 34 46C 31.159679 46 28.857143 48.30254 28.857143 51.142857M 46 51.142857C 46 53.983181 48.30254 56.285713 51.142857 56.285713C 53.983181 56.285713 56.285713 53.983181 56.285713 51.142857C 56.285713 48.30254 53.983181 46 51.142857 46C 48.30254 46 46 48.30254 46 51.142857M 20.491428 20.491428L 30.365715 30.365715M 20.491428 47.508572L 30.365715 37.634289M 37.634289 30.365715L 47.508572 20.491428"></path></g></g></g><g id="g-root-cu_vagr8j1sp7f9r-stroke" data-item-order="0" data-item-id="cu_vagr8j1sp7f9r" data-item-class="Curve Stroke ColorFillGray ColorStrokeGray" data-item-index="none" data-renderer-id="0" transform="translate(470, 30)"><g id="cu_vagr8j1sp7f9r-stroke" fill="none" stroke-linecap="round" stroke-linejoin="round" stroke-miterlimit="4" stroke="#888888" stroke-width="2" stroke-dasharray="5.0, 7.0"><g><path d="M 10 45L 13 45L 13.1 45C 17.577866 44.972592 22.360217 43.214375 26.699999 40C 29.320119 38.118536 31.98143 33.561497 33.999999 27.499999C 36.018569 21.438502 38.67988 16.881462 41.299999 15C 45.63978 11.785625 50.422131 10.027407 54.899998 9.999999L 55 10L 58 10"></path></g></g></g><g id="g-root-tx_supervis_924ag31sp6231-stroke" data-item-order="0" data-item-id="tx_supervis_924ag31sp6231" data-item-class="Label Stroke" data-item-index="none" data-renderer-id="0" transform="translate(38, 69)"></g><g id="g-root-tx_microsof_1ulj36r1sp7g1x-stroke" data-item-order="0" data-item-id="tx_microsof_1ulj36r1sp7g1x" data-item-class="Label Stroke" data-item-index="none" data-renderer-id="0" transform="translate(338, 339)"></g><g id="g-root-cu_4o67kz1sp7g1s-stroke" data-item-order="0" data-item-id="cu_4o67kz1sp7g1s" data-item-class="Curve Stroke ColorFillGray ColorStrokeGray" data-item-index="none" data-renderer-id="0" transform="translate(236, 57)"><g id="cu_4o67kz1sp7g1s-stroke" fill="none" stroke-linecap="round" stroke-linejoin="round" stroke-miterlimit="4" stroke="#888888" stroke-width="2" stroke-dasharray="5.0, 7.0"><g><path d="M 28 10L 28 40L 28 70L 19 70L 10 70"></path></g></g></g><g id="g-root-cu_1qdtr6r1sp7hfm-stroke" data-item-order="0" data-item-id="cu_1qdtr6r1sp7hfm" data-item-class="Curve Stroke ColorFillGray ColorStrokeGray" data-item-index="none" data-renderer-id="0" transform="translate(236, 57)"><g id="cu_1qdtr6r1sp7hfm-stroke" fill="none" stroke-linecap="round" stroke-linejoin="round" stroke-miterlimit="4" stroke="#888888" stroke-width="2" stroke-dasharray="5.0, 7.0"><g><path d="M 28 10L 28 22L 28 94C 28.000002 100.627415 22.627419 105.999998 16.000002 105.999998L 15.9 106L 10 106"></path></g></g></g><g id="g-root-cu_1hit80z1sp7f2k-stroke" data-item-order="0" data-item-id="cu_1hit80z1sp7f2k" data-item-class="Curve Stroke ColorFillGray ColorStrokeGray" data-item-index="none" data-renderer-id="0" transform="translate(542, 57)"><g id="cu_1hit80z1sp7f2k-stroke" fill="none" stroke-linecap="round" stroke-linejoin="round" stroke-miterlimit="4" stroke="#888888" stroke-width="2" stroke-dasharray="5.0, 7.0"><g><path d="M 10 10L 10 22L 10 34L 19 34L 28 34"></path></g></g></g><g id="g-root-cu_147cpnn1sp7gnj-stroke" data-item-order="0" data-item-id="cu_147cpnn1sp7gnj" data-item-class="Curve Stroke ColorFillGray ColorStrokeGray" data-item-index="none" data-renderer-id="0" transform="translate(542, 57)"><g id="cu_147cpnn1sp7gnj-stroke" fill="none" stroke-linecap="round" stroke-linejoin="round" stroke-miterlimit="4" stroke="#888888" stroke-width="2" stroke-dasharray="5.0, 7.0"><g><path d="M 10 10L 10 40L 10 70L 19 70L 28 70"></path></g></g></g><g id="g-root-cu_zrj7j71sp7hft-stroke" data-item-order="0" data-item-id="cu_zrj7j71sp7hft" data-item-class="Curve Stroke ColorFillGray ColorStrokeGray" data-item-index="none" data-renderer-id="0" transform="translate(542, 57)"><g id="cu_zrj7j71sp7hft-stroke" fill="none" stroke-linecap="round" stroke-linejoin="round" stroke-miterlimit="4" stroke="#888888" stroke-width="2" stroke-dasharray="5.0, 7.0"><g><path d="M 10 10L 10 22L 10 94C 10.000004 100.627423 15.372587 106.000006 22.000005 106.000005L 22.1 106L 28 106"></path></g></g></g><g id="g-root-tx_tensorfl_hzmpyb1sp60ao-stroke" data-item-order="0" data-item-id="tx_tensorfl_hzmpyb1sp60ao" data-item-class="Label Stroke" data-item-index="none" data-renderer-id="0" transform="translate(566, 69)"></g><g id="g-root-tx_unsuperv_1hgxsrn1sp61vy-stroke" data-item-order="0" data-item-id="tx_unsuperv_1hgxsrn1sp61vy" data-item-class="Label Stroke" data-item-index="none" data-renderer-id="0" transform="translate(14, 105)"></g><g id="g-root-tx_machinel_13z8jj71soqn0r-stroke" data-item-order="0" data-item-id="tx_machinel_13z8jj71soqn0r" data-item-class="Label Stroke" data-item-index="none" data-renderer-id="0" transform="translate(350, 93)"></g><g id="g-root-tx_pytorch_1utn9b71sp62h5-stroke" data-item-order="0" data-item-id="tx_pytorch_1utn9b71sp62h5" data-item-class="Label Stroke" data-item-index="none" data-renderer-id="0" transform="translate(566, 105)"></g><g id="g-root-tx_reinforc_zqa9cz1sp613b-stroke" data-item-order="0" data-item-id="tx_reinforc_zqa9cz1sp613b" data-item-class="Label Stroke" data-item-index="none" data-renderer-id="0" transform="translate(2, 141)"></g><g id="g-root-tx_scikitle_1d2zpwj1sp61oi-stroke" data-item-order="0" data-item-id="tx_scikitle_1d2zpwj1sp61oi" data-item-class="Label Stroke" data-item-index="none" data-renderer-id="0" transform="translate(566, 141)"></g><g id="g-root-cu_qun9431sp7g22-stroke" data-item-order="0" data-item-id="cu_qun9431sp7g22" data-item-class="Curve Stroke ColorFillGray ColorStrokeGray" data-item-index="none" data-renderer-id="0" transform="translate(398, 165)"><g id="cu_qun9431sp7g22-stroke" fill="none" stroke-linecap="round" stroke-linejoin="round" stroke-miterlimit="4" stroke="#888888" stroke-width="2" stroke-dasharray="5.0, 7.0"><g><path d="M 10 10L 10 28L 10 46"></path></g></g></g><g id="g-root-3_dhxskj1sp7fgq-stroke" data-item-order="0" data-item-id="3_dhxskj1sp7fgq" data-item-class="Icon Stroke" data-item-index="none" data-renderer-id="0" transform="translate(236, 15)"><g id="3_dhxskj1sp7fgq-stroke" fill="none" stroke-linecap="round" stroke-linejoin="round" stroke-miterlimit="4" stroke="#4682e3" stroke-width="2"><g><path d="M 17.4175 19.596251L 17.4175 21.48C 17.391495 22.976898 18.175196 24.371355 19.467388 25.127411C 20.759579 25.883469 22.359169 25.883469 23.651363 25.127411C 24.943554 24.371355 25.727255 22.976898 25.70125 21.48L 25.70125 19.596251M 25.70125 15.75875L 25.70125 19.596251L 21.44875 20.967501L 17.4175 19.596251L 17.4175 15.841249M 30.42 13.98875L 21.44875 10.625L 12.47625 13.98875L 21.44875 17.35375L 30.42 13.98875ZM 12.47625 13.98875L 12.47625 18.475M 12.51875 18.50625L 10.64375 22.25625L 14.39375 22.25625L 12.51875 18.50625ZM 31.856251 24.375L 38.106251 24.375C 38.106251 24.375 39.356251 24.375 39.356251 25.625L 39.356251 38.125C 39.356251 38.125 39.356251 39.375 38.106251 39.375L 31.856251 39.375C 31.856251 39.375 30.606251 39.375 30.606251 38.125L 30.606251 25.625C 30.606251 25.625 30.606251 24.375 31.856251 24.375M 39.356251 35.625L 30.606251 35.625M 27.772501 34.375C 27.804287 32.134262 26.627071 30.049994 24.69166 28.920349C 22.756247 27.790703 20.362505 27.790703 18.427092 28.920349C 16.491678 30.049994 15.314464 32.134262 15.34625 34.375"></path></g></g></g><g id="g-root-clou_zoeu3n1sp622z-stroke" data-item-order="0" data-item-id="clou_zoeu3n1sp622z" data-item-class="Icon Stroke" data-item-index="none" data-renderer-id="0" transform="translate(302, 213)"><g id="clou_zoeu3n1sp622z-stroke" fill="none" stroke-linecap="round" stroke-linejoin="round" stroke-miterlimit="4" stroke="#17b0e3" stroke-width="2"><g><path d="M 39.375 27.5C 39.376568 25.803511 38.687054 24.179569 37.465374 23.002464C 36.243694 21.825359 34.595257 21.196653 32.900002 21.26125C 31.197941 17.647127 27.2612 15.64794 23.338898 16.405859C 19.416595 17.163776 16.508066 20.485697 16.275 24.473751C 14.892892 24.184252 13.453917 24.53307 12.357786 25.423313C 11.261656 26.313555 10.625123 27.650398 10.625 29.0625C 10.625 33.825001 15.625 33.75 15.625 33.75L 33.75 33.75C 33.75 33.75 39.375 33.017498 39.375 27.5Z"></path></g></g></g><g id="g-root-tx_cloudpla_1luvvmr1sp62v6-stroke" data-item-order="0" data-item-id="tx_cloudpla_1luvvmr1sp62v6" data-item-class="Label Stroke" data-item-index="none" data-renderer-id="0" transform="translate(338, 216)"></g><g id="g-root-cu_mgp68z1sp7fuz-stroke" data-item-order="0" data-item-id="cu_mgp68z1sp7fuz" data-item-class="Curve Stroke ColorFillGray ColorStrokeGray" data-item-index="none" data-renderer-id="0" transform="translate(314, 255)"><g id="cu_mgp68z1sp7fuz-stroke" fill="none" stroke-linecap="round" stroke-linejoin="round" stroke-miterlimit="4" stroke="#888888" stroke-width="2" stroke-dasharray="5.0, 7.0"><g><path d="M 10 10L 10 22L 10 34L 19 34L 28 34"></path></g></g></g><g id="g-root-cu_958nvn1sp7hfy-stroke" data-item-order="0" data-item-id="cu_958nvn1sp7hfy" data-item-class="Curve Stroke ColorFillGray ColorStrokeGray" data-item-index="none" data-renderer-id="0" transform="translate(314, 255)"><g id="cu_958nvn1sp7hfy-stroke" fill="none" stroke-linecap="round" stroke-linejoin="round" stroke-miterlimit="4" stroke="#888888" stroke-width="2" stroke-dasharray="5.0, 7.0"><g><path d="M 10 10L 10 40L 10 70L 19 70L 28 70"></path></g></g></g><g id="g-root-cu_8mhv1somdc0-stroke" data-item-order="0" data-item-id="cu_8mhv1somdc0" data-item-class="Curve Stroke ColorFillGray ColorStrokeGray" data-item-index="none" data-renderer-id="0" transform="translate(314, 255)"><g id="cu_8mhv1somdc0-stroke" fill="none" stroke-linecap="round" stroke-linejoin="round" stroke-miterlimit="4" stroke="#888888" stroke-width="2" stroke-dasharray="5.0, 7.0"><g><path d="M 10 10L 10 22L 10 94C 10.000004 100.627423 15.372587 106.000006 22.000005 106.000005L 22.1 106L 28 106"></path></g></g></g><g id="g-root-tx_aws_qwiodf1sp60wb-stroke" data-item-order="0" data-item-id="tx_aws_qwiodf1sp60wb" data-item-class="Label Stroke" data-item-index="none" data-renderer-id="0" transform="translate(338, 267)"></g><g id="g-root-tx_googlecl_958nvn1sp639g-stroke" data-item-order="0" data-item-id="tx_googlecl_958nvn1sp639g" data-item-class="Label Stroke" data-item-index="none" data-renderer-id="0" transform="translate(338, 303)"></g><g id="g-root-tx_typesofl_zoeu3n1sp7g8x-stroke" data-item-order="0" data-item-id="tx_typesofl_zoeu3n1sp7g8x" data-item-class="Label Stroke" data-item-index="none" data-renderer-id="0" transform="translate(62, 18)"></g><g id="g-root-cu_metqzn1sp7gud-stroke" data-item-order="0" data-item-id="cu_metqzn1sp7gud" data-item-class="Curve Stroke ColorFillGray ColorStrokeGray" data-item-index="none" data-renderer-id="0" transform="translate(236, 57)"><g id="cu_metqzn1sp7gud-stroke" fill="none" stroke-linecap="round" stroke-linejoin="round" stroke-miterlimit="4" stroke="#888888" stroke-width="2" stroke-dasharray="5.0, 7.0"><g><path d="M 28 10L 28 22L 28 34L 19 34L 10 34"></path></g></g></g></g></g></svg>