<?xml version="1.0" encoding="utf-8" standalone="yes"?>
<!DOCTYPE svg PUBLIC "-//W3C//DTD SVG 1.1//EN" "http://www.w3.org/Graphics/SVG/1.1/DTD/svg11.dtd">
<svg width="768" height="338" viewBox="0 0 768 338" style="fill:none;stroke:none;fill-rule:evenodd;clip-rule:evenodd;stroke-linecap:round;stroke-linejoin:round;stroke-miterlimit:1.5;" version="1.1" xmlns="http://www.w3.org/2000/svg" xmlns:xlink="http://www.w3.org/1999/xlink"><style id="fontImports">@import url("https://fonts.googleapis.com/css2?family=Roboto:wght@400;700&amp;display=block");</style><rect id="" x="0" y="0" width="768" height="338" style="fill: #ffffff;"></rect><g id="items" style="isolation: isolate"><g id="blend" style="mix-blend-mode:multiply"><g id="g-root--1.cu_sy_1cvj5xv1u2vm6k-fill" data-item-order="-149756" data-item-id="-1.cu_sy_1cvj5xv1u2vm6k" data-item-class="ScenePart Part Fill Stroke ColorFillGray ColorStrokeGray" data-item-index="-1" data-renderer-id="0" transform="translate(193, 57)"><g id="-1.cu_sy_1cvj5xv1u2vm6k-fill" stroke="none" fill="#f6f6f6"><g><path d="M 125 34L 101 10L 10 166L 34 190L 125 34ZM 125 34L 34 190L 216 190L 125 34Z"></path></g></g></g><g id="g-root-0.line-start_sy_zkp4nn1u2vklp-fill" data-item-order="-149753" data-item-id="0.line-start_sy_zkp4nn1u2vklp" data-item-class="ScenePart Part Indexed_0 Stroke" data-item-index="0" data-renderer-id="0" transform="translate(170, 159)"></g><g id="g-root-0.cr-small_cr_v4vmj71u2vldy-fill" data-item-order="-149752" data-item-id="0.cr-small_cr_v4vmj71u2vldy" data-item-class="Shape Stroke Fill ScenePart Part Indexed_0" data-item-index="0" data-renderer-id="0" transform="translate(98, 123)"><g id="0.cr-small_cr_v4vmj71u2vldy-fill" stroke="none" fill="#f0f0f0"><g><path d="M 10 46C 10 65.882251 26.117749 82 46 82C 65.882251 82 82 65.882251 82 46C 82 26.117749 65.882251 10 46 10C 26.117749 10 10 26.117749 10 46"></path></g></g></g><g id="g-root-4.line_sy_v6r1sj1u2vked-fill" data-item-order="-149749" data-item-id="4.line_sy_v6r1sj1u2vked" data-item-class="ScenePart Part Indexed Stroke" data-item-index="4" data-renderer-id="0" transform="translate(262.5, 159)"></g><g id="g-root-4.cr-small_cr_mb41jn1u2vl72-fill" data-item-order="-149748" data-item-id="4.cr-small_cr_mb41jn1u2vl72" data-item-class="Shape Stroke Fill ScenePart Part Indexed" data-item-index="4" data-renderer-id="0" transform="translate(518, 255)"><g id="4.cr-small_cr_mb41jn1u2vl72-fill" stroke="none" fill="#fee7f5"><g><path d="M 10 40C 10.000002 56.568544 23.431459 70.000002 40.000002 70.000002C 56.568544 70.000002 70.000002 56.568544 70.000002 40.000002C 70.000002 23.431459 56.568544 10.000002 40.000002 10.000002C 23.431459 10.000002 10.000002 23.431459 10.000002 40.000002"></path></g></g></g><g id="g-root-3.line_sy_18hl32r1u2vlz7-fill" data-item-order="-149745" data-item-id="3.line_sy_18hl32r1u2vlz7" data-item-class="ScenePart Part Indexed Stroke" data-item-index="3" data-renderer-id="0" transform="translate(263, 159)"></g><g id="g-root-3.cr-small_cr_zly2tv1u2vmrw-fill" data-item-order="-149744" data-item-id="3.cr-small_cr_zly2tv1u2vmrw" data-item-class="Shape Stroke Fill ScenePart Part Indexed" data-item-index="3" data-renderer-id="0" transform="translate(518, 171)"><g id="3.cr-small_cr_zly2tv1u2vmrw-fill" stroke="none" fill="#ffe7e6"><g><path d="M 10 40C 10.000002 56.568544 23.431459 70.000002 40.000002 70.000002C 56.568544 70.000002 70.000002 56.568544 70.000002 40.000002C 70.000002 23.431459 56.568544 10.000002 40.000002 10.000002C 23.431459 10.000002 10.000002 23.431459 10.000002 40.000002"></path></g></g></g><g id="g-root-2.line_sy_2rkr71u2vm69-fill" data-item-order="-149741" data-item-id="2.line_sy_2rkr71u2vm69" data-item-class="ScenePart Part Indexed Stroke" data-item-index="2" data-renderer-id="0" transform="translate(262.5, 117)"></g><g id="g-root-2.cr-small_cr_1lt1lg31u2vkea-fill" data-item-order="-149740" data-item-id="2.cr-small_cr_1lt1lg31u2vkea" data-item-class="Shape Stroke Fill ScenePart Part Indexed" data-item-index="2" data-renderer-id="0" transform="translate(518, 87)"><g id="2.cr-small_cr_1lt1lg31u2vkea-fill" stroke="none" fill="#fef2e6"><g><path d="M 10 40C 10.000002 56.568544 23.431459 70.000002 40.000002 70.000002C 56.568544 70.000002 70.000002 56.568544 70.000002 40.000002C 70.000002 23.431459 56.568544 10.000002 40.000002 10.000002C 23.431459 10.000002 10.000002 23.431459 10.000002 40.000002"></path></g></g></g><g id="g-root-1.line_sy_hu1l8z1u2vjt3-fill" data-item-order="-149737" data-item-id="1.line_sy_hu1l8z1u2vjt3" data-item-class="ScenePart Part Indexed Indexed_1 Stroke" data-item-index="1" data-renderer-id="0" transform="translate(262.5, 33)"></g><g id="g-root-1.cr-small_cr_de834j1u2vklc-fill" data-item-order="-149736" data-item-id="1.cr-small_cr_de834j1u2vklc" data-item-class="Shape Stroke Fill ScenePart Part Indexed Indexed_1" data-item-index="1" data-renderer-id="0" transform="translate(518, 3)"><g id="1.cr-small_cr_de834j1u2vklc-fill" stroke="none" fill="#fffce6"><g><path d="M 10 40C 10.000002 56.568544 23.431459 70.000002 40.000002 70.000002C 56.568544 70.000002 70.000002 56.568544 70.000002 40.000002C 70.000002 23.431459 56.568544 10.000002 40.000002 10.000002C 23.431459 10.000002 10.000002 23.431459 10.000002 40.000002"></path></g></g></g><g id="g-root-alte_1uo24lv1u2ydji-fill" data-item-order="0" data-item-id="alte_1uo24lv1u2ydji" data-item-class="Icon Stroke SceneTarget Indexed Indexed_1 InsideFill InsideColorFill" data-item-index="1" data-renderer-id="0" transform="translate(530, 15)"></g><g id="g-root-tx_healthca_93edoz1u2vksj-fill" data-item-order="0" data-item-id="tx_healthca_93edoz1u2vksj" data-item-class="Label Stroke SceneTarget Indexed Indexed_1" data-item-index="1" data-renderer-id="0" transform="translate(590, 9)"><g id="tx_healthca_93edoz1u2vksj-fill" stroke="none" fill="#484848"><g><text style="font: 20px Roboto, sans-serif; white-space: pre;"><tspan x="12" y="32.5" dominant-baseline="ideographic">Healthcare </tspan><tspan x="12" y="56.5" dominant-baseline="ideographic">Applications</tspan></text></g></g></g><g id="g-root-3_v4vmj71u2ycxx-fill" data-item-order="0" data-item-id="3_v4vmj71u2ycxx" data-item-class="Icon Stroke SceneTarget Indexed InsideFill InsideColorFill" data-item-index="2" data-renderer-id="0" transform="translate(530, 99)"></g><g id="g-root-tx_customer_qu1x3n1u2vll6-fill" data-item-order="0" data-item-id="tx_customer_qu1x3n1u2vll6" data-item-class="Label Stroke SceneTarget Indexed" data-item-index="2" data-renderer-id="0" transform="translate(590, 93)"><g id="tx_customer_qu1x3n1u2vll6-fill" stroke="none" fill="#484848"><g><text style="font: 20px Roboto, sans-serif; white-space: pre;"><tspan x="12" y="32.5" dominant-baseline="ideographic">Customer </tspan><tspan x="12" y="56.5" dominant-baseline="ideographic">Service</tspan></text></g></g></g><g id="g-root-tx_machinel_143n07n1u2vkzz-fill" data-item-order="0" data-item-id="tx_machinel_143n07n1u2vkzz" data-item-class="Label Stroke SceneTarget SceneStart" data-item-index="none" data-renderer-id="0" transform="translate(2, 135)"><g id="tx_machinel_143n07n1u2vkzz-fill" stroke="none" fill="#484848"><g><text style="font: 20px Roboto, sans-serif; white-space: pre;"><tspan x="16.39" y="32.5" dominant-baseline="ideographic">Machine </tspan><tspan x="14.15" y="56.5" dominant-baseline="ideographic">Learning</tspan></text></g></g></g><g id="g-root-chip_hrjowj1u2yfii-fill" data-item-order="0" data-item-id="chip_hrjowj1u2yfii" data-item-class="Icon Stroke SceneTarget SceneStart InsideFill" data-item-index="none" data-renderer-id="0" transform="translate(110, 135)"></g><g id="g-root-net_1cvj5xv1u2ydqk-fill" data-item-order="0" data-item-id="net_1cvj5xv1u2ydqk" data-item-class="Icon Stroke SceneTarget Indexed InsideFill InsideColorFill" data-item-index="3" data-renderer-id="0" transform="translate(530, 183)"></g><g id="g-root-tx_business_1hgcgr71u2vll5-fill" data-item-order="0" data-item-id="tx_business_1hgcgr71u2vll5" data-item-class="Label Stroke SceneTarget Indexed" data-item-index="3" data-renderer-id="0" transform="translate(590, 177)"><g id="tx_business_1hgcgr71u2vll5-fill" stroke="none" fill="#484848"><g><text style="font: 20px Roboto, sans-serif; white-space: pre;"><tspan x="12" y="32.5" dominant-baseline="ideographic">Business </tspan><tspan x="12" y="56.5" dominant-baseline="ideographic">Intelligence</tspan></text></g></g></g><g id="g-root-assi_w5hv1u2yepv-fill" data-item-order="0" data-item-id="assi_w5hv1u2yepv" data-item-class="Icon Stroke SceneTarget Indexed InsideFill InsideColorFill" data-item-index="4" data-renderer-id="0" transform="translate(530, 267)"></g><g id="g-root-tx_virtuala_hx5yoj1u2vkzk-fill" data-item-order="0" data-item-id="tx_virtuala_hx5yoj1u2vkzk" data-item-class="Label Stroke SceneTarget Indexed" data-item-index="4" data-renderer-id="0" transform="translate(590, 273)"><g id="tx_virtuala_hx5yoj1u2vkzk-fill" stroke="none" fill="#484848"><g><text style="font: 20px Roboto, sans-serif; white-space: pre;"><tspan x="12" y="32.5" dominant-baseline="ideographic">Virtual Assistants</tspan></text></g></g></g><g id="g-root--1.cu_sy_1cvj5xv1u2vm6k-stroke" data-item-order="-149756" data-item-id="-1.cu_sy_1cvj5xv1u2vm6k" data-item-class="ScenePart Part Fill Stroke ColorFillGray ColorStrokeGray" data-item-index="-1" data-renderer-id="0" transform="translate(193, 57)"><g id="-1.cu_sy_1cvj5xv1u2vm6k-stroke" fill="none" stroke-linecap="round" stroke-linejoin="round" stroke-miterlimit="4" stroke="#888888" stroke-width="2"><g><path d="M 125 34L 101 10L 10 166L 34 190L 125 34ZM 125 34L 34 190L 216 190L 125 34Z"></path></g></g></g><g id="g-root-0.line-start_sy_zkp4nn1u2vklp-stroke" data-item-order="-149753" data-item-id="0.line-start_sy_zkp4nn1u2vklp" data-item-class="ScenePart Part Indexed_0 Stroke" data-item-index="0" data-renderer-id="0" transform="translate(170, 159)"><g id="0.line-start_sy_zkp4nn1u2vklp-stroke" fill="none" stroke-linecap="round" stroke-linejoin="round" stroke-miterlimit="4" stroke="#484848" stroke-width="2"><g><path d="M 10 10.000031L 102.5 10.000031"></path></g></g></g><g id="g-root-0.cr-small_cr_v4vmj71u2vldy-stroke" data-item-order="-149752" data-item-id="0.cr-small_cr_v4vmj71u2vldy" data-item-class="Shape Stroke Fill ScenePart Part Indexed_0" data-item-index="0" data-renderer-id="0" transform="translate(98, 123)"><g id="0.cr-small_cr_v4vmj71u2vldy-stroke" fill="none" stroke-linecap="round" stroke-linejoin="round" stroke-miterlimit="4" stroke="#484848" stroke-width="2"><g><path d="M 10 46C 10 65.882251 26.117749 82 46 82C 65.882251 82 82 65.882251 82 46C 82 26.117749 65.882251 10 46 10C 26.117749 10 10 26.117749 10 46"></path></g></g></g><g id="g-root-4.line_sy_v6r1sj1u2vked-stroke" data-item-order="-149749" data-item-id="4.line_sy_v6r1sj1u2vked" data-item-class="ScenePart Part Indexed Stroke" data-item-index="4" data-renderer-id="0" transform="translate(262.5, 159)"><g id="4.line_sy_v6r1sj1u2vked-stroke" fill="none" stroke-linecap="round" stroke-linejoin="round" stroke-miterlimit="4" stroke="#da5da8" stroke-width="2"><g><path d="M 257.88 134.82L 111.5 28L 10 10"></path><path d="M 249.2 136.5L 258.3 135.1L 256.9 126" stroke-dasharray="none"></path></g></g></g><g id="g-root-4.cr-small_cr_mb41jn1u2vl72-stroke" data-item-order="-149748" data-item-id="4.cr-small_cr_mb41jn1u2vl72" data-item-class="Shape Stroke Fill ScenePart Part Indexed" data-item-index="4" data-renderer-id="0" transform="translate(518, 255)"><g id="4.cr-small_cr_mb41jn1u2vl72-stroke" fill="none" stroke-linecap="round" stroke-linejoin="round" stroke-miterlimit="4" stroke="#da5da8" stroke-width="2"><g><path d="M 10 40C 10.000002 56.568544 23.431459 70.000002 40.000002 70.000002C 56.568544 70.000002 70.000002 56.568544 70.000002 40.000002C 70.000002 23.431459 56.568544 10.000002 40.000002 10.000002C 23.431459 10.000002 10.000002 23.431459 10.000002 40.000002"></path></g></g></g><g id="g-root-3.line_sy_18hl32r1u2vlz7-stroke" data-item-order="-149745" data-item-id="3.line_sy_18hl32r1u2vlz7" data-item-class="ScenePart Part Indexed Stroke" data-item-index="3" data-renderer-id="0" transform="translate(263, 159)"><g id="3.line_sy_18hl32r1u2vlz7-stroke" fill="none" stroke-linecap="round" stroke-linejoin="round" stroke-miterlimit="4" stroke="#e15e5a" stroke-width="2"><g><path d="M 257.05 51.55L 104 16L 10 10"></path><path d="M 249.7 56.5L 257.5 51.7L 252.7 43.9" stroke-dasharray="none"></path></g></g></g><g id="g-root-3.cr-small_cr_zly2tv1u2vmrw-stroke" data-item-order="-149744" data-item-id="3.cr-small_cr_zly2tv1u2vmrw" data-item-class="Shape Stroke Fill ScenePart Part Indexed" data-item-index="3" data-renderer-id="0" transform="translate(518, 171)"><g id="3.cr-small_cr_zly2tv1u2vmrw-stroke" fill="none" stroke-linecap="round" stroke-linejoin="round" stroke-miterlimit="4" stroke="#e15e5a" stroke-width="2"><g><path d="M 10 40C 10.000002 56.568544 23.431459 70.000002 40.000002 70.000002C 56.568544 70.000002 70.000002 56.568544 70.000002 40.000002C 70.000002 23.431459 56.568544 10.000002 40.000002 10.000002C 23.431459 10.000002 10.000002 23.431459 10.000002 40.000002"></path></g></g></g><g id="g-root-2.line_sy_2rkr71u2vm69-stroke" data-item-order="-149741" data-item-id="2.line_sy_2rkr71u2vm69" data-item-class="ScenePart Part Indexed Stroke" data-item-index="2" data-renderer-id="0" transform="translate(262.5, 117)"><g id="2.line_sy_2rkr71u2vm69-stroke" fill="none" stroke-linecap="round" stroke-linejoin="round" stroke-miterlimit="4" stroke="#dd8433" stroke-width="2"><g><path d="M 257.55 10.43L 97.5 46L 10 52"></path><path d="M 253.1 18.1L 258 10.3L 250.3 5.4" stroke-dasharray="none"></path></g></g></g><g id="g-root-2.cr-small_cr_1lt1lg31u2vkea-stroke" data-item-order="-149740" data-item-id="2.cr-small_cr_1lt1lg31u2vkea" data-item-class="Shape Stroke Fill ScenePart Part Indexed" data-item-index="2" data-renderer-id="0" transform="translate(518, 87)"><g id="2.cr-small_cr_1lt1lg31u2vkea-stroke" fill="none" stroke-linecap="round" stroke-linejoin="round" stroke-miterlimit="4" stroke="#dd8433" stroke-width="2"><g><path d="M 10 40C 10.000002 56.568544 23.431459 70.000002 40.000002 70.000002C 56.568544 70.000002 70.000002 56.568544 70.000002 40.000002C 70.000002 23.431459 56.568544 10.000002 40.000002 10.000002C 23.431459 10.000002 10.000002 23.431459 10.000002 40.000002"></path></g></g></g><g id="g-root-1.line_sy_hu1l8z1u2vjt3-stroke" data-item-order="-149737" data-item-id="1.line_sy_hu1l8z1u2vjt3" data-item-class="ScenePart Part Indexed Indexed_1 Stroke" data-item-index="1" data-renderer-id="0" transform="translate(262.5, 33)"><g id="1.line_sy_hu1l8z1u2vjt3-stroke" fill="none" stroke-linecap="round" stroke-linejoin="round" stroke-miterlimit="4" stroke="#e3cd09" stroke-width="2"><g><path d="M 10 136L 90.5 118L 257.81 11.08"></path><path d="M 256.3 19.8L 258.2 10.8L 249.3 8.8" stroke-dasharray="none"></path></g></g></g><g id="g-root-1.cr-small_cr_de834j1u2vklc-stroke" data-item-order="-149736" data-item-id="1.cr-small_cr_de834j1u2vklc" data-item-class="Shape Stroke Fill ScenePart Part Indexed Indexed_1" data-item-index="1" data-renderer-id="0" transform="translate(518, 3)"><g id="1.cr-small_cr_de834j1u2vklc-stroke" fill="none" stroke-linecap="round" stroke-linejoin="round" stroke-miterlimit="4" stroke="#e3cd09" stroke-width="2"><g><path d="M 10 40C 10.000002 56.568544 23.431459 70.000002 40.000002 70.000002C 56.568544 70.000002 70.000002 56.568544 70.000002 40.000002C 70.000002 23.431459 56.568544 10.000002 40.000002 10.000002C 23.431459 10.000002 10.000002 23.431459 10.000002 40.000002"></path></g></g></g><g id="g-root-alte_1uo24lv1u2ydji-stroke" data-item-order="0" data-item-id="alte_1uo24lv1u2ydji" data-item-class="Icon Stroke SceneTarget Indexed Indexed_1 InsideFill InsideColorFill" data-item-index="1" data-renderer-id="0" transform="translate(530, 15)"><g id="alte_1uo24lv1u2ydji-stroke" fill="none" stroke-linecap="round" stroke-linejoin="round" stroke-miterlimit="4" stroke="#e3cd09" stroke-width="2"><g><path d="M 24.631428 28C 22.380953 27.997723 20.478184 26.333258 20.17658 24.103083C 19.874975 21.872906 21.267284 19.762823 23.436316 19.162861C 25.605345 18.562901 27.884096 19.657555 28.771429 21.725716C 29.781418 20.360481 31.553411 19.797379 33.166225 20.32914C 34.779041 20.860901 35.868633 22.367496 35.868572 24.065714C 35.868572 26.23856 34.107132 28 31.934284 28ZM 34.42857 44.714287L 34.42857 38.285713L 39.571426 38.285713C 40.991589 38.285713 42.142857 37.134449 42.142857 35.714287L 42.142857 25.428572C 42.141567 18.473248 37.083202 12.551276 30.213604 11.462647C 23.344002 10.374019 16.702541 14.441914 14.550891 21.056059C 12.39924 27.670206 15.376159 34.867062 21.571428 38.028572L 21.571428 44.714287"></path></g></g></g><g id="g-root-tx_healthca_93edoz1u2vksj-stroke" data-item-order="0" data-item-id="tx_healthca_93edoz1u2vksj" data-item-class="Label Stroke SceneTarget Indexed Indexed_1" data-item-index="1" data-renderer-id="0" transform="translate(590, 9)"></g><g id="g-root-3_v4vmj71u2ycxx-stroke" data-item-order="0" data-item-id="3_v4vmj71u2ycxx" data-item-class="Icon Stroke SceneTarget Indexed InsideFill InsideColorFill" data-item-index="2" data-renderer-id="0" transform="translate(530, 99)"><g id="3_v4vmj71u2ycxx-stroke" fill="none" stroke-linecap="round" stroke-linejoin="round" stroke-miterlimit="4" stroke="#dd8433" stroke-width="2"><g><path d="M 16.634285 25.428572L 16.634285 22.214285C 16.760857 16.060453 21.845936 11.170954 28.000002 11.285714L 28 11.285714C 34.154064 11.170954 39.239143 16.060453 39.365715 22.214285L 39.365715 25.428572M 13.857142 25.428572L 17.714285 25.428572C 18.424366 25.428572 19 26.004204 19 26.714285L 19 33.785713C 19 34.495792 18.424366 35.071426 17.714285 35.071426L 13.857142 35.071426C 12.436982 35.071426 11.285714 33.920162 11.285714 32.5L 11.285714 28C 11.285714 26.57984 12.436982 25.428572 13.857142 25.428572ZM 42.142857 35.071426L 38.285713 35.071426C 37.575634 35.071426 37 34.495792 37 33.785713L 37 26.714285C 37 26.004206 37.575634 25.428572 38.285713 25.428572L 42.142857 25.428572C 43.563019 25.428572 44.714287 26.579838 44.714287 28L 44.714287 32.5C 44.714287 33.920158 43.563019 35.071426 42.142857 35.071426ZM 39.365715 35.071426L 39.365715 36.357143L 39.365715 36.357143C 39.366837 37.757515 38.796852 39.09779 37.787418 40.068401C 36.777981 41.039009 35.416393 41.556015 34.017143 41.5L 33.142857 41.5M 33.142857 41.5C 33.142857 43.2752 31.703773 44.714287 29.928572 44.714287L 26.071428 44.714287C 24.296228 44.714287 22.857143 43.2752 22.857143 41.5C 22.857143 39.7248 24.296228 38.285713 26.071428 38.285713L 29.928572 38.285713C 31.703773 38.285713 33.142857 39.7248 33.142857 41.5Z"></path></g></g></g><g id="g-root-tx_customer_qu1x3n1u2vll6-stroke" data-item-order="0" data-item-id="tx_customer_qu1x3n1u2vll6" data-item-class="Label Stroke SceneTarget Indexed" data-item-index="2" data-renderer-id="0" transform="translate(590, 93)"></g><g id="g-root-tx_machinel_143n07n1u2vkzz-stroke" data-item-order="0" data-item-id="tx_machinel_143n07n1u2vkzz" data-item-class="Label Stroke SceneTarget SceneStart" data-item-index="none" data-renderer-id="0" transform="translate(2, 135)"></g><g id="g-root-chip_hrjowj1u2yfii-stroke" data-item-order="0" data-item-id="chip_hrjowj1u2yfii" data-item-class="Icon Stroke SceneTarget SceneStart InsideFill" data-item-index="none" data-renderer-id="0" transform="translate(110, 135)"><g id="chip_hrjowj1u2yfii-stroke" fill="none" stroke-linecap="round" stroke-linejoin="round" stroke-miterlimit="4" stroke="#484848" stroke-width="2"><g><path d="M 28.278 18.771999C 30.214836 18.118927 31.347731 16.110697 30.904995 14.115247C 30.462257 12.119797 28.586336 10.77914 26.555042 11.00649C 24.52375 11.233839 22.990633 12.956045 23 15C 23.005421 15.361034 23.059917 15.719655 23.161999 16.066C 22.939999 16.046 22.726 16 22.5 16C 19.64325 15.986053 17.029131 17.603924 15.767223 20.166893C 14.505317 22.729862 14.817009 25.788288 16.57 28.044001C 13.438807 28.258814 11.008611 30.861448 11.008611 34C 11.008611 37.13855 13.438807 39.741184 16.57 39.956001C 14.817009 42.211712 14.505317 45.270138 15.767223 47.833107C 17.029131 50.396076 19.64325 52.013947 22.5 52C 22.726 52 22.939999 51.953999 23.161999 51.933998C 22.567677 54.036442 23.770287 56.226803 25.863207 56.853825C 27.956127 57.480846 30.16497 56.312527 30.824539 54.229633C 31.484108 52.14674 30.350359 49.919956 28.278 49.228001M 39.722 18.771999C 37.785164 18.118927 36.652267 16.110697 37.095005 14.115247C 37.537743 12.119797 39.413666 10.77914 41.444958 11.00649C 43.47625 11.233839 45.009369 12.956045 45 15C 44.994579 15.361034 44.940079 15.719655 44.838001 16.066C 45.060001 16.046 45.273998 16 45.5 16C 48.35675 15.986053 50.970871 17.603924 52.232777 20.166893C 53.494682 22.729862 53.182991 25.788288 51.43 28.044001C 54.561192 28.258814 56.99139 30.861448 56.99139 34C 56.99139 37.13855 54.561192 39.741184 51.43 39.956001C 53.182991 42.211712 53.494682 45.270138 52.232777 47.833107C 50.970871 50.396076 48.35675 52.013947 45.5 52C 45.273998 52 45.060001 51.953999 44.838001 51.933998C 45.432323 54.036442 44.229713 56.226803 42.136795 56.853825C 40.043873 57.480846 37.83503 56.312527 37.175461 54.229633C 36.515892 52.14674 37.649643 49.919956 39.722 49.228001M 31 14.8C 32.856407 13.728203 35.143593 13.728203 37 14.8M 37 53.200001C 35.143593 54.271797 32.856407 54.271797 31 53.200001M 28 26L 40 26C 40 26 42 26 42 28L 42 40C 42 40 42 42 40 42L 28 42C 28 42 26 42 26 40L 26 28C 26 28 26 26 28 26M 30 22L 30 26M 38 22L 38 26M 22 38L 26 38M 22 30L 26 30M 38 46L 38 42M 30 46L 30 42M 46 30L 42 30M 46 38L 42 38"></path></g></g></g><g id="g-root-net_1cvj5xv1u2ydqk-stroke" data-item-order="0" data-item-id="net_1cvj5xv1u2ydqk" data-item-class="Icon Stroke SceneTarget Indexed InsideFill InsideColorFill" data-item-index="3" data-renderer-id="0" transform="translate(530, 183)"><g id="net_1cvj5xv1u2ydqk-stroke" fill="none" stroke-linecap="round" stroke-linejoin="round" stroke-miterlimit="4" stroke="#e15e5a" stroke-width="2"><g><path d="M 16.006001 12.25L 40.006001 12.25C 40.006001 12.25 43.006001 12.25 43.006001 15.25L 43.006001 40.75C 43.006001 40.75 43.006001 43.75 40.006001 43.75L 16.006001 43.75C 16.006001 43.75 13.006 43.75 13.006 40.75L 13.006 15.25C 13.006 15.25 13.006 12.25 16.006001 12.25M 13 31.75L 18.4825 25.719999C 19.719452 24.474209 21.590794 24.108143 23.205999 24.796001L 25.294001 25.796501C 26.963875 26.488291 28.872459 26.269989 30.342999 25.219L 33.156998 22.969C 34.740463 21.788666 36.511158 20.883036 38.394997 20.289999L 43 19M 20.506001 24.577L 20.506001 43.75M 28.006001 26.149L 28.006001 43.75M 35.506001 21.494499L 35.506001 43.75M 13.006 31.75L 43.006001 31.75M 29.458 25.75L 43.006001 25.75M 13.006 37.75L 43.006001 37.75"></path></g></g></g><g id="g-root-tx_business_1hgcgr71u2vll5-stroke" data-item-order="0" data-item-id="tx_business_1hgcgr71u2vll5" data-item-class="Label Stroke SceneTarget Indexed" data-item-index="3" data-renderer-id="0" transform="translate(590, 177)"></g><g id="g-root-assi_w5hv1u2yepv-stroke" data-item-order="0" data-item-id="assi_w5hv1u2yepv" data-item-class="Icon Stroke SceneTarget Indexed InsideFill InsideColorFill" data-item-index="4" data-renderer-id="0" transform="translate(530, 267)"><g id="assi_w5hv1u2yepv-stroke" fill="none" stroke-linecap="round" stroke-linejoin="round" stroke-miterlimit="4" stroke="#da5da8" stroke-width="2"><g><path d="M 28.486 43.643501C 28.486 44.530746 27.766745 45.25 26.879501 45.25L 12.415 45.25C 11.527755 45.25 10.8085 44.530746 10.8085 43.643497L 10.8085 39.625C 10.767009 36.439781 12.442533 33.478603 15.194304 31.873898C 17.946077 30.26919 21.348423 30.26919 24.100195 31.873898C 26.851969 33.478603 28.527491 36.439781 28.486 39.625ZM 16.273001 36.25C 16.273001 36.457108 16.440893 36.625 16.648001 36.625C 16.855106 36.625 17.023001 36.457108 17.023001 36.25C 17.023001 36.042892 16.855106 35.875 16.648001 35.875C 16.440893 35.875 16.273001 36.042892 16.273001 36.25M 22.273001 36.240997C 22.273001 36.448105 22.440893 36.615997 22.648001 36.615997C 22.855106 36.615997 23.023001 36.448105 23.023001 36.240997C 23.023001 36.033894 22.855106 35.865997 22.648001 35.865997C 22.440893 35.865997 22.273001 36.033894 22.273001 36.240997M 19.648001 30.7855L 19.648001 27.570999M 17.237499 25.1605C 17.237501 26.491783 18.316717 27.571001 19.648001 27.571001C 20.979282 27.571001 22.0585 26.491783 22.0585 25.1605C 22.0585 23.829218 20.979282 22.75 19.648001 22.75C 18.316717 22.75 17.237501 23.829218 17.237501 25.1605M 10.8085 41.2225L 28.486 41.2225M 22.822001 16.450001C 22.822001 19.598022 25.373978 22.150002 28.522001 22.150002C 31.670023 22.150002 34.222 19.598022 34.222 16.450001C 34.222 13.301977 31.670023 10.75 28.522001 10.75C 25.373978 10.75 22.822001 13.301977 22.822001 16.450001M 35.946999 25.658501C 35.946999 27.495125 37.435875 28.984001 39.272499 28.984001C 41.109123 28.984001 42.598 27.495125 42.598 25.658501C 42.598 23.821878 41.109123 22.333 39.272499 22.333C 37.435875 22.333 35.946999 23.821878 35.946999 25.658501M 35.946999 37.496498C 35.946999 39.333122 37.435875 40.821999 39.272499 40.821999C 41.109123 40.821999 42.598 39.333122 42.598 37.496498C 42.598 35.659878 41.109123 34.171001 39.272499 34.171001C 37.435875 34.171001 35.946999 35.659878 35.946999 37.496498M 40.748501 16.809999C 40.748135 18.037157 41.74284 19.032158 42.969997 19.032158C 44.197155 19.032158 45.19186 18.037157 45.191498 16.809999C 45.19186 15.582842 44.197155 14.587841 42.969997 14.587841C 41.74284 14.587841 40.748135 15.582842 40.748497 16.809999"></path></g></g></g><g id="g-root-tx_virtuala_hx5yoj1u2vkzk-stroke" data-item-order="0" data-item-id="tx_virtuala_hx5yoj1u2vkzk" data-item-class="Label Stroke SceneTarget Indexed" data-item-index="4" data-renderer-id="0" transform="translate(590, 273)"></g></g></g></svg>