<?xml version="1.0" encoding="utf-8" standalone="yes"?>
<!DOCTYPE svg PUBLIC "-//W3C//DTD SVG 1.1//EN" "http://www.w3.org/Graphics/SVG/1.1/DTD/svg11.dtd">
<svg width="543" height="484" viewBox="0 0 543 484" style="fill:none;stroke:none;fill-rule:evenodd;clip-rule:evenodd;stroke-linecap:round;stroke-linejoin:round;stroke-miterlimit:1.5;" version="1.1" xmlns="http://www.w3.org/2000/svg" xmlns:xlink="http://www.w3.org/1999/xlink"><style id="fontImports">@import url("https://fonts.googleapis.com/css2?family=Shantell+Sans:wght@300..800&amp;display=block");</style><rect id="" x="0" y="0" width="542.001" height="484" style="fill: #ffffff;"></rect><g id="items" style="isolation: isolate"><g id="blend" style="mix-blend-mode:multiply"><g id="g-root-3.cu_sy_qoey2b1qqwa2x-fill" data-item-order="-229819" data-item-id="3.cu_sy_qoey2b1qqwa2x" data-item-class="ScenePart Part Indexed Stroke ColorStrokeBlack" data-item-index="3" data-renderer-id="0" transform="translate(4, 111.99899291992188)"></g><g id="g-root-2.cu_sy_qoey2b1qqwa2w-fill" data-item-order="-229817" data-item-id="2.cu_sy_qoey2b1qqwa2w" data-item-class="ScenePart Part Indexed Stroke ColorStrokeBlack" data-item-index="2" data-renderer-id="0" transform="translate(256.0010070800781, 4)"></g><g id="g-root-1.cu_sy_qoey2b1qqwa2v-fill" data-item-order="-229816" data-item-id="1.cu_sy_qoey2b1qqwa2v" data-item-class="ScenePart Part Indexed Indexed_1 Fill Stroke ColorStrokeBlack" data-item-index="1" data-renderer-id="0" transform="translate(226.00100708007812, 28)"><g id="1.cu_sy_qoey2b1qqwa2v-fill" stroke="none" fill="none"><g><path d="M 10 34L 28 10L 28 18L 52 18L 52 10L 70 34L 52 58L 52 50L 28 50L 28 58L 10 34Z"></path></g></g></g><g id="g-root-tx_pros_1qbcann1qqw8pa-fill" data-item-order="0" data-item-id="tx_pros_1qbcann1qqw8pa" data-item-class="Label Stroke SceneTarget ColorStrokeBlack" data-item-index="none" data-renderer-id="0" transform="translate(64.00100708007812, 39.999969482421875)"><g id="tx_pros_1qbcann1qqw8pa-fill" stroke="none" fill="#484848"><g><text style="font: 20px &quot;Shantell Sans&quot;, cursive; white-space: pre;"><tspan x="12" y="35" dominant-baseline="ideographic">Pros</tspan></text></g></g></g><g id="g-root-tx_cons_5v8xf1qqw83p-fill" data-item-order="0" data-item-id="tx_cons_5v8xf1qqw83p" data-item-class="Label Stroke SceneTarget ColorStrokeBlack" data-item-index="none" data-renderer-id="0" transform="translate(364.0010070800781, 39.999969482421875)"><g id="tx_cons_5v8xf1qqw83p-fill" stroke="none" fill="#484848"><g><text style="font: 20px &quot;Shantell Sans&quot;, cursive; white-space: pre;"><tspan x="12" y="35" dominant-baseline="ideographic">Cons</tspan></text></g></g></g><g id="g-root-1_3dckz1qr3b4d-fill" data-item-order="0" data-item-id="1_3dckz1qr3b4d" data-item-class="Icon Stroke SceneTarget Indexed Indexed_1 ColorStrokeBlack" data-item-index="1" data-renderer-id="0" transform="translate(4.001007080078125, 147.99996948242188)"></g><g id="g-root-tx_automati_qs5skz1qqw83n-fill" data-item-order="0" data-item-id="tx_automati_qs5skz1qqw83n" data-item-class="Label Stroke SceneTarget Indexed Indexed_1 ColorStrokeBlack" data-item-index="1" data-renderer-id="0" transform="translate(64.00100708007812, 159.99996948242188)"><g id="tx_automati_qs5skz1qqw83n-fill" stroke="none" fill="#484848"><g><text style="font: 20px &quot;Shantell Sans&quot;, cursive; white-space: pre;"><tspan x="12" y="35" dominant-baseline="ideographic">Automation</tspan></text></g></g></g><g id="g-root-stac_1414elv1qr39jd-fill" data-item-order="0" data-item-id="stac_1414elv1qr39jd" data-item-class="Icon Stroke SceneTarget Indexed ColorStrokeBlack" data-item-index="101" data-renderer-id="0" transform="translate(304.0010070800781, 147.99996948242188)"></g><g id="g-root-tx_datarequ_1cymu431qqw83z-fill" data-item-order="0" data-item-id="tx_datarequ_1cymu431qqw83z" data-item-class="Label Stroke SceneTarget Indexed ColorStrokeBlack" data-item-index="101" data-renderer-id="0" transform="translate(364.0010070800781, 147.99996948242188)"><g id="tx_datarequ_1cymu431qqw83z-fill" stroke="none" fill="#484848"><g><text style="font: 20px &quot;Shantell Sans&quot;, cursive; white-space: pre;"><tspan x="12" y="35" dominant-baseline="ideographic">Data </tspan><tspan x="12" y="59" dominant-baseline="ideographic">requirements</tspan></text></g></g></g><g id="g-root-on_detuyb1qr39jg-fill" data-item-order="0" data-item-id="on_detuyb1qr39jg" data-item-class="Icon Stroke SceneTarget Indexed ColorStrokeBlack" data-item-index="2" data-renderer-id="0" transform="translate(4.001007080078125, 231.99996948242188)"></g><g id="g-root-tx_actionab_qs5skz1qqw83m-fill" data-item-order="0" data-item-id="tx_actionab_qs5skz1qqw83m" data-item-class="Label Stroke SceneTarget Indexed ColorStrokeBlack" data-item-index="2" data-renderer-id="0" transform="translate(64.00100708007812, 231.99996948242188)"><g id="tx_actionab_qs5skz1qqw83m-fill" stroke="none" fill="#484848"><g><text style="font: 20px &quot;Shantell Sans&quot;, cursive; white-space: pre;"><tspan x="12" y="35" dominant-baseline="ideographic">Actionable </tspan><tspan x="12" y="59" dominant-baseline="ideographic">insights</tspan></text></g></g></g><g id="g-root-grow_1hbyfw31qr3b48-fill" data-item-order="0" data-item-id="grow_1hbyfw31qr3b48" data-item-class="Icon Stroke SceneTarget Indexed ColorStrokeBlack" data-item-index="102" data-renderer-id="0" transform="translate(304.0010070800781, 231.99996948242188)"></g><g id="g-root-tx_overfitt_1ltnd9v1qqwah2-fill" data-item-order="0" data-item-id="tx_overfitt_1ltnd9v1qqwah2" data-item-class="Label Stroke SceneTarget Indexed ColorStrokeBlack" data-item-index="102" data-renderer-id="0" transform="translate(364.0010070800781, 243.99996948242188)"><g id="tx_overfitt_1ltnd9v1qqwah2-fill" stroke="none" fill="#484848"><g><text style="font: 20px &quot;Shantell Sans&quot;, cursive; white-space: pre;"><tspan x="12" y="35" dominant-baseline="ideographic">Overfitting</tspan></text></g></g></g><g id="g-root-1_magv771qr38qr-fill" data-item-order="0" data-item-id="1_magv771qr38qr" data-item-class="Icon Stroke SceneTarget Indexed ColorStrokeBlack" data-item-index="3" data-renderer-id="0" transform="translate(4.001007080078125, 315.9999694824219)"></g><g id="g-root-tx_adaptabi_v7ctmb1qqwah5-fill" data-item-order="0" data-item-id="tx_adaptabi_v7ctmb1qqwah5" data-item-class="Label Stroke SceneTarget Indexed ColorStrokeBlack" data-item-index="3" data-renderer-id="0" transform="translate(64.00100708007812, 327.9999694824219)"><g id="tx_adaptabi_v7ctmb1qqwah5-fill" stroke="none" fill="#484848"><g><text style="font: 20px &quot;Shantell Sans&quot;, cursive; white-space: pre;"><tspan x="12" y="35" dominant-baseline="ideographic">Adaptability</tspan></text></g></g></g><g id="g-root-1_1lrry0j1qr3abz-fill" data-item-order="0" data-item-id="1_1lrry0j1qr3abz" data-item-class="Icon Stroke SceneTarget Indexed ColorStrokeBlack" data-item-index="103" data-renderer-id="0" transform="translate(304.0010070800781, 315.9999694824219)"></g><g id="g-root-tx_interpre_hund2r1qqw9vw-fill" data-item-order="0" data-item-id="tx_interpre_hund2r1qqw9vw" data-item-class="Label Stroke SceneTarget Indexed ColorStrokeBlack" data-item-index="103" data-renderer-id="0" transform="translate(364.0010070800781, 315.9999694824219)"><g id="tx_interpre_hund2r1qqw9vw-fill" stroke="none" fill="#484848"><g><text style="font: 20px &quot;Shantell Sans&quot;, cursive; white-space: pre;"><tspan x="12" y="35" dominant-baseline="ideographic">Interpretation </tspan><tspan x="12" y="59" dominant-baseline="ideographic">difficulty</tspan></text></g></g></g><g id="g-root-2_zlawhf1qr3abm-fill" data-item-order="0" data-item-id="2_zlawhf1qr3abm" data-item-class="Icon Stroke SceneTarget Indexed ColorStrokeBlack" data-item-index="4" data-renderer-id="0" transform="translate(4.001007080078125, 399.9999694824219)"></g><g id="g-root-tx_accurate_142ztv71qqw9og-fill" data-item-order="0" data-item-id="tx_accurate_142ztv71qqw9og" data-item-class="Label Stroke SceneTarget Indexed ColorStrokeBlack" data-item-index="4" data-renderer-id="0" transform="translate(64.00100708007812, 399.9999694824219)"><g id="tx_accurate_142ztv71qqw9og-fill" stroke="none" fill="#484848"><g><text style="font: 20px &quot;Shantell Sans&quot;, cursive; white-space: pre;"><tspan x="12" y="35" dominant-baseline="ideographic">Accurate </tspan><tspan x="12" y="59" dominant-baseline="ideographic">predictions</tspan></text></g></g></g><g id="g-root-box_24eer1qr38y6-fill" data-item-order="0" data-item-id="box_24eer1qr38y6" data-item-class="Icon Stroke SceneTarget Indexed ColorStrokeBlack" data-item-index="104" data-renderer-id="0" transform="translate(304.0010070800781, 399.9999694824219)"></g><g id="g-root-tx_blackbox_v63vg31qqw8az-fill" data-item-order="0" data-item-id="tx_blackbox_v63vg31qqw8az" data-item-class="Label Stroke SceneTarget Indexed ColorStrokeBlack" data-item-index="104" data-renderer-id="0" transform="translate(364.0010070800781, 399.9999694824219)"><g id="tx_blackbox_v63vg31qqw8az-fill" stroke="none" fill="#484848"><g><text style="font: 20px &quot;Shantell Sans&quot;, cursive; white-space: pre;"><tspan x="12" y="35" dominant-baseline="ideographic">Black box </tspan><tspan x="12" y="59" dominant-baseline="ideographic">issue</tspan></text></g></g></g><g id="g-root-3.cu_sy_qoey2b1qqwa2x-stroke" data-item-order="-229819" data-item-id="3.cu_sy_qoey2b1qqwa2x" data-item-class="ScenePart Part Indexed Stroke ColorStrokeBlack" data-item-index="3" data-renderer-id="0" transform="translate(4, 111.99899291992188)"><g id="3.cu_sy_qoey2b1qqwa2x-stroke" fill="none" stroke-linecap="round" stroke-linejoin="round" stroke-miterlimit="4" stroke="#484848" stroke-width="4"><g><path d="M 514 10C 490.9 11.6 467.8 9.3 444.6 10C 421.5 10.7 398.3 11.4 375.1 10C 352.8 8.6 330.3 9.1 307.9 10C 282.3 11 256.5 8.4 230.8 10C 204.6 11.6 178.3 10.1 152 10C 128.3 9.9 104.6 10.2 80.9 10C 57.2 9.8 33.5 8 10 10"></path><path d="M 514.000007 10.000007L 10.000007 10.001007"></path></g></g></g><g id="g-root-2.cu_sy_qoey2b1qqwa2w-stroke" data-item-order="-229817" data-item-id="2.cu_sy_qoey2b1qqwa2w" data-item-class="ScenePart Part Indexed Stroke ColorStrokeBlack" data-item-index="2" data-renderer-id="0" transform="translate(256.0010070800781, 4)"><g id="2.cu_sy_qoey2b1qqwa2w-stroke" fill="none" stroke-linecap="round" stroke-linejoin="round" stroke-miterlimit="4" stroke="#484848" stroke-width="4"><g><path d="M 10 298C 10.9 270 11.7 242 10 214M 10 382C 9.4 368.5 11.6 354.9 10 341.5C 8.3 327.1 8.7 312.5 10 298M 10 466C 11.7 438 8 409.9 10 382M 10 214C 8.9 182 8.4 150 10 118M 10 118C 8.9 105.4 9.6 92.7 10 80M 10 36C 11.9 27.5 10 18.7 10 10"></path><path d="M 10 298L 10 214M 10 382L 10 298M 10 466L 10 382M 10 214L 10 118M 10 118L 10 80M 10 36L 10 10"></path></g></g></g><g id="g-root-1.cu_sy_qoey2b1qqwa2v-stroke" data-item-order="-229816" data-item-id="1.cu_sy_qoey2b1qqwa2v" data-item-class="ScenePart Part Indexed Indexed_1 Fill Stroke ColorStrokeBlack" data-item-index="1" data-renderer-id="0" transform="translate(226.00100708007812, 28)"><g id="1.cu_sy_qoey2b1qqwa2v-stroke" fill="none" stroke-linecap="round" stroke-linejoin="round" stroke-miterlimit="4" stroke="#484848" stroke-width="4"><g><path d="M 10 34C 15.8 25.8 21.9 17.9 28 10C 28.5 12.6 27 15.5 28 18C 35.9 16.6 44 18.6 52 18C 52 15.3 52.9 12.5 52 10C 59 17.1 64.7 25.5 70 34C 63.7 41.8 58.8 50.7 52 58C 52.2 55.3 52.1 52.7 52 50C 44 50.2 36 49.6 28 50C 27.1 52.5 28.1 55.3 28 58C 22 50 16.6 41.6 10 34"></path><path d="M 10 34L 28 10L 28 18L 52 18L 52 10L 70 34L 52 58L 52 50L 28 50L 28 58L 10 34Z"></path></g></g><g id="1.cu_sy_qoey2b1qqwa2v-stroke" fill="none" stroke-linecap="round" stroke-linejoin="round" stroke-miterlimit="4" stroke="#484848" stroke-width="4"><g><path d="M 30.6 28.4C 32.3 32 33.6 35.8 35 39.5M 35.2 39.1C 36 35.4 39.5 32.4 39.6 28.7M 49.4 30.2C 49 30 48.8 29.7 48.4 29.4C 47.8 28.9 46.7 28.2 45.5 28.8C 44.3 29.3 43.9 29.6 43.4 30.7C 42.9 31.7 44 33.6 46.3 33.9C 48.5 34.8 49.5 36 49.4 37.3C 49.5 38.6 48.6 39.5 47.1 39.6C 45.5 39.7 44.5 39.4 43.9 38.5C 43.4 38.2 43.1 37.7 43 37.2"></path><path d="M 30.599 28.373L 34.999 39.48M 35.199 39.097L 39.599 28.66M 49.399 30.192C 49.065 29.937 48.732 29.682 48.399 29.426C 47.799 28.852 46.832 28.628 45.499 28.756C 44.165 28.884 43.465 29.522 43.399 30.671C 43.265 31.82 44.232 32.905 46.299 33.927C 48.432 34.884 49.465 36.001 49.399 37.278C 49.399 38.555 48.632 39.321 47.099 39.576C 45.499 39.767 44.432 39.416 43.899 38.523C 43.565 38.076 43.265 37.629 42.999 37.182"></path></g></g></g><g id="g-root-tx_pros_1qbcann1qqw8pa-stroke" data-item-order="0" data-item-id="tx_pros_1qbcann1qqw8pa" data-item-class="Label Stroke SceneTarget ColorStrokeBlack" data-item-index="none" data-renderer-id="0" transform="translate(64.00100708007812, 39.999969482421875)"></g><g id="g-root-tx_cons_5v8xf1qqw83p-stroke" data-item-order="0" data-item-id="tx_cons_5v8xf1qqw83p" data-item-class="Label Stroke SceneTarget ColorStrokeBlack" data-item-index="none" data-renderer-id="0" transform="translate(364.0010070800781, 39.999969482421875)"></g><g id="g-root-1_3dckz1qr3b4d-stroke" data-item-order="0" data-item-id="1_3dckz1qr3b4d" data-item-class="Icon Stroke SceneTarget Indexed Indexed_1 ColorStrokeBlack" data-item-index="1" data-renderer-id="0" transform="translate(4.001007080078125, 147.99996948242188)"><g id="1_3dckz1qr3b4d-stroke" fill="none" stroke-linecap="round" stroke-linejoin="round" stroke-miterlimit="4" stroke="#484848" stroke-width="2"><g><path d="M 29.6 47.599998C 26.200001 44.799999 22.799999 42.200001 19 40M 24 34.400002C 26.4 37 30 38.400002 32.599998 40.799999M 11.6 33.799999C 10.4 37 14.6 41.200001 17.799999 40C 21.200001 39 23.799999 37.200001 24.200001 33.799999C 24.4 30.4 21 28.799999 17.799999 27.6C 14.6 26.200001 10.4 30.6 11.6 33.799999M 23.6 31.200001C 25.6 27.4 30.4 25.6 33 22.200001M 30 15.6C 24.799999 17.799999 21.6 23.4 17.6 27.6M 29.799999 17.200001C 29.200001 20.200001 32.400002 22.6 35.400002 22.799999C 38.400002 22.799999 40.599998 20.200001 40.799999 17.200001C 41.200001 14.2 38.200001 10.8 35.400002 11.8C 32.400002 12.8 30.200001 14.2 29.799999 17.200001M 40.400002 19.4C 42.400002 20.6 43.799999 22.6 45.400002 24.4C 46.400002 25.6 46 26.799999 45.400002 28.200001C 45 29 44.200001 29.4 43.400002 29C 42.799999 28.799999 41.799999 28.799999 41.400002 28.200001C 39.799999 26.200001 38 24.4 36 22.799999M 12.2 56.200001C 26.799999 55.799999 41.599998 56.599998 56.200001 56.200001M 29.6 51.400002C 29.6 49.599998 29.6 47.799999 29.6 45.799999C 29.200001 42.799999 32.200001 39.799999 35.400002 40.200001C 38.400002 40.599998 40.200001 43 41.200001 45.799999C 41.200001 47.599998 40.799999 49.599998 41.200001 51.200001M 16.799999 33.400002C 16.799999 34 17.4 34.599998 17.799999 34.400002C 18.4 34.400002 18.799999 34 18.799999 33.400002C 19 32.799999 18.4 32.400002 17.799999 32.400002C 17.4 32.400002 17 32.799999 16.799999 33.400002M 34.400002 45.799999C 34.200001 46.400002 34.799999 47 35.400002 46.799999C 35.799999 46.799999 36.599998 46.400002 36.400002 45.799999C 36.200001 45.400002 35.799999 45 35.400002 44.799999C 34.799999 44.799999 34.400002 45.200001 34.400002 45.799999M 28.4 51.400002C 32.799999 52.599998 37.799999 52.200001 42.200001 51.400002C 43.400002 51.200001 44 52.200001 44.200001 53.400002C 44.400002 54.200001 44.200001 55.200001 44.200001 56.200001C 38.599998 54.599998 32.200001 57.200001 26.4 56.200001C 26.200001 55.200001 26.6 54.200001 26.4 53.400002C 26 52.200001 27.200001 51.400002 28.4 51.400002M 44.799999 23.799999C 45.200001 23.4 45.799999 23.200001 46.400002 23C 48.400002 21.6 52 22.6 53.200001 24.799999C 54.599998 27 56.200001 28.799999 56.400002 31.200001C 56.400002 32.599998 55.200001 33.799999 53.799999 33.799999C 52.400002 33.799999 51.400002 32.599998 51.400002 31.200001C 51.400002 30.200001 51 29 50 28.6C 49.200001 28.200001 48.200001 27.6 47.200001 27.799999C 46.799999 27.799999 46.400002 27.799999 46 27.799999M 44.200001 28.799999C 44.400002 29.200001 44.200001 29.799999 44 30.200001C 43.599998 31.200001 44 32.200001 44.200001 33.200001C 44.400002 34.200001 45.599998 34.799999 46.599998 35C 47.799999 35.400002 48.400002 36.599998 48.400002 38C 48.599998 39.400002 46.799999 40.200001 45.400002 40C 43 39.400002 41 37.799999 39.799999 35.599998C 38.599998 33.400002 38.400002 30.6 39.400002 28.4C 39.599998 28 39.799999 27.799999 40.200001 27.4M 29.521999 47.594002L 19.062 40.073997M 24.091999 34.346001L 32.690002 40.720001M 11.642 33.767998C 11.642 37.21315 14.434848 40.006001 17.880001 40.006001C 21.325153 40.006001 24.118 37.21315 24.118 33.767998C 24.118 30.322847 21.325153 27.530001 17.880001 27.530001C 14.434848 27.530001 11.642 30.322847 11.642 33.767998M 23.594 31.266001L 32.93 22.174M 30.063999 15.618L 17.504 27.542M 29.879999 17.274C 29.879478 20.290947 32.32505 22.736942 35.341999 22.736942C 38.358948 22.736942 40.80452 20.290947 40.804001 17.274C 40.80452 14.257052 38.358948 11.811057 35.341999 11.811057C 32.32505 11.811057 29.879478 14.257052 29.879999 17.274M 40.400002 19.338001L 45.348 24.4C 46.378819 25.452827 46.401703 27.129435 45.400002 28.210001L 45.400002 28.209999C 44.885574 28.763903 44.166599 29.08275 43.410717 29.092199C 42.654835 29.101646 41.928116 28.800871 41.400002 28.260002L 35.959999 22.702M 12.164 56.189999L 56.164001 56.189999M 29.521999 51.338001L 29.521999 45.894001C 29.580809 42.721199 32.169655 40.179893 35.343002 40.179893C 38.51635 40.179893 41.105194 42.721199 41.164001 45.894001L 41.164001 51.254002M 16.880001 33.436001C 16.880001 33.988285 17.327715 34.436001 17.880001 34.436001C 18.432285 34.436001 18.880001 33.988285 18.880001 33.436001C 18.880001 32.883713 18.432285 32.436001 17.880001 32.436001C 17.327715 32.436001 16.880001 32.883713 16.880001 33.436001M 34.341999 45.849998C 34.341999 46.402287 34.789715 46.849998 35.341999 46.849998C 35.894287 46.849998 36.341999 46.402287 36.341999 45.849998C 36.341999 45.297714 35.894287 44.849998 35.341999 44.849998C 34.789715 44.849998 34.341999 45.297714 34.341999 45.849998M 28.358 51.338001L 42.231998 51.338001C 43.336571 51.338001 44.231998 52.233429 44.231998 53.338001L 44.231998 56.189999L 44.231998 56.189999L 26.358 56.189999L 26.358 56.189999L 26.358 53.338001C 26.358 52.233429 27.253431 51.338001 28.358 51.338001ZM 44.799999 23.818001C 45.17907 23.343254 45.717918 23.022644 46.316002 22.916C 48.798683 22.461636 51.354969 23.132736 53.294308 24.748016C 55.233646 26.363295 56.355934 28.756084 56.358002 31.280001C 56.358002 32.660713 55.238712 33.779999 53.858002 33.779999C 52.477287 33.779999 51.358002 32.660713 51.358002 31.280001C 51.35656 30.23682 50.890659 29.248459 50.086891 28.583487C 49.283123 27.918514 48.224987 27.646002 47.200001 27.84C 46.818302 27.907465 46.426197 27.886251 46.054001 27.778002M 44.243999 28.851999C 44.328419 29.323595 44.275661 29.809511 44.092003 30.252001C 43.681549 31.211271 43.719944 32.303558 44.196747 33.231644C 44.67355 34.159721 45.539146 34.827038 46.558002 35.052002C 47.906677 35.349129 48.759129 36.683319 48.461998 38.031998C 48.164871 39.38068 46.830681 40.233131 45.481998 39.935997C 43.019894 39.389999 40.92701 37.77961 39.768383 35.539597C 38.609756 33.299583 38.504852 30.660921 39.481998 28.335999C 39.621155 27.998751 39.832825 27.696262 40.102001 27.450001"></path></g></g></g><g id="g-root-tx_automati_qs5skz1qqw83n-stroke" data-item-order="0" data-item-id="tx_automati_qs5skz1qqw83n" data-item-class="Label Stroke SceneTarget Indexed Indexed_1 ColorStrokeBlack" data-item-index="1" data-renderer-id="0" transform="translate(64.00100708007812, 159.99996948242188)"></g><g id="g-root-stac_1414elv1qr39jd-stroke" data-item-order="0" data-item-id="stac_1414elv1qr39jd" data-item-class="Icon Stroke SceneTarget Indexed ColorStrokeBlack" data-item-index="101" data-renderer-id="0" transform="translate(304.0010070800781, 147.99996948242188)"><g id="stac_1414elv1qr39jd-stroke" fill="none" stroke-linecap="round" stroke-linejoin="round" stroke-miterlimit="4" stroke="#484848" stroke-width="2"><g><path d="M 13 26.6C 22.799999 28 32.799999 28 42.400002 26.6C 42.400002 26.6 44 26.799999 44.400002 28.799999C 45.799999 36.400002 45.200001 44.200001 44.400002 51.799999C 44.400002 51.799999 44.400002 53.200001 42.400002 53.799999C 33 56.599998 22.200001 50.400002 13 53.799999C 13 53.799999 11.4 53.799999 11 51.799999C 9.2 44.400002 13.4 36 11 28.799999C 11 28.799999 11.2 27.4 13 26.6M 11 33C 22 35.200001 33.799999 36.400002 44.400002 33M 11 46.799999C 22.200001 47.400002 33.400002 45.799999 44.400002 46.799999M 11 40C 22.200001 39.200001 33.200001 40 44.400002 40M 26.6 33C 26.6 40 27 47 26.6 53.799999M 35.599998 33C 35 40 37 47 35.599998 53.799999M 19.4 20.4C 29.200001 19.799999 38.799999 21.200001 48.599998 20.4C 49.200001 20.4 49.599998 20.799999 50.200001 21C 50.599998 21.4 50.599998 22 50.799999 22.4C 52.200001 31.4 53.400002 41 50.799999 49.599998M 25.6 14.2C 35 11.2 45.400002 16.4 55 14.2C 56 13.8 56.599998 15.2 57 16.200001C 60 24.799999 56 34.400002 57 43.400002M 13.09 26.681999L 42.363998 26.681999C 42.363998 26.681999 44.453999 26.681999 44.453999 28.771999L 44.453999 51.773998C 44.453999 51.773998 44.453999 53.863998 42.363998 53.863998L 13.09 53.863998C 13.09 53.863998 11 53.863998 11 51.773998L 11 28.771999C 11 28.771999 11 26.681999 13.09 26.681999M 11 33.02L 44.453999 33.02M 11 46.751999L 44.453999 46.751999M 11 40.066002L 44.453999 40.066002M 26.681999 33.02L 26.681999 53.863998M 35.568001 33.02L 35.568001 53.863998M 19.364 20.4L 48.636002 20.4C 49.192223 20.399996 49.725544 20.6215 50.118103 21.015558C 50.510658 21.409616 50.730125 21.943783 50.728001 22.5L 50.728001 49.681999M 25.636 14.136L 54.91 14.136C 56.065056 14.136 57.001102 15.072944 56.999996 16.228001L 57 43.400002"></path></g></g></g><g id="g-root-tx_datarequ_1cymu431qqw83z-stroke" data-item-order="0" data-item-id="tx_datarequ_1cymu431qqw83z" data-item-class="Label Stroke SceneTarget Indexed ColorStrokeBlack" data-item-index="101" data-renderer-id="0" transform="translate(364.0010070800781, 147.99996948242188)"></g><g id="g-root-on_detuyb1qr39jg-stroke" data-item-order="0" data-item-id="on_detuyb1qr39jg" data-item-class="Icon Stroke SceneTarget Indexed ColorStrokeBlack" data-item-index="2" data-renderer-id="0" transform="translate(4.001007080078125, 231.99996948242188)"><g id="on_detuyb1qr39jg-stroke" fill="none" stroke-linecap="round" stroke-linejoin="round" stroke-miterlimit="4" stroke="#484848" stroke-width="2"><g><path d="M 46 37.428574C 46.685715 31.6 41.542858 26.800001 35.714287 25.428572C 30.228573 24.4 25.771429 28.514286 22.685715 33.657143C 19.6 38.799999 23.714287 44.628574 28.514286 48.057144C 28.171429 50.114285 28.514286 52.171429 28.514286 53.885715C 28.857143 54.914288 29.200001 55.257141 29.885715 55.257141C 32.628571 55.600002 35.371429 54.914288 38.114285 55.257141C 38.799999 55.600002 39.485718 54.57143 39.485718 53.885715C 38.799999 52.171429 39.142857 50.114285 39.485718 48.057144C 43.257141 45.657143 45.657143 41.885715 46 37.428574M 34 12.742857C 34 14.457143 34 16.171429 34 17.885714M 47.714287 17.542858C 47.028572 19.257143 45.314285 20.285715 43.942856 21.314285M 55.600002 28.171429C 53.885715 27.828571 52.171429 27.828571 50.457146 28.171429M 20.285715 17.542858C 21.314285 19.257143 23.371429 19.6 24.057142 21.314285M 12.4 28.171429C 14.114285 28.171429 15.828571 27.828571 17.542858 28.171429M 46 37.428574C 46.022171 31.506199 41.720341 26.453302 35.870296 25.530289C 30.020248 24.607275 24.371649 28.090206 22.569283 33.731705C 20.766918 39.373199 23.34985 45.48597 28.651428 48.125717L 28.651428 54.022858C 28.670025 54.747917 29.263273 55.325954 29.988571 55.325714L 38.011429 55.325714C 38.736725 55.325954 39.329975 54.747917 39.348572 54.022858L 39.348572 48.022858C 43.376583 46.017712 45.944405 41.927727 46 37.428574ZM 34 12.777143L 34 17.92M 47.714287 17.68L 44.079998 21.348572M 55.531429 28.308573L 50.388573 28.308573M 20.285715 17.68L 23.92 21.348572M 12.468572 28.308573L 17.611429 28.308573"></path></g></g></g><g id="g-root-tx_actionab_qs5skz1qqw83m-stroke" data-item-order="0" data-item-id="tx_actionab_qs5skz1qqw83m" data-item-class="Label Stroke SceneTarget Indexed ColorStrokeBlack" data-item-index="2" data-renderer-id="0" transform="translate(64.00100708007812, 231.99996948242188)"></g><g id="g-root-grow_1hbyfw31qr3b48-stroke" data-item-order="0" data-item-id="grow_1hbyfw31qr3b48" data-item-class="Icon Stroke SceneTarget Indexed ColorStrokeBlack" data-item-index="102" data-renderer-id="0" transform="translate(304.0010070800781, 231.99996948242188)"><g id="grow_1hbyfw31qr3b48-stroke" fill="none" stroke-linecap="round" stroke-linejoin="round" stroke-miterlimit="4" stroke="#484848" stroke-width="2"><g><path d="M 37 25C 37.400002 28.200001 39.799999 30.799999 43 31C 46.400002 31.4 48.400002 28.200001 49 25C 49.599998 21.799999 46.200001 18.6 43 19C 39.799999 19.4 35.799999 22 37 25M 43 15C 43 13.6 43 12.4 43 11M 50 18C 50.799999 16.799999 52 16 53 15.2M 53 25C 54.200001 24.6 55.799999 25.6 57 25M 50 32C 50.599998 33.200001 52 33.799999 53 35M 43 35C 42.599998 36.200001 43.400002 37.799999 43 39M 36 32C 34.799999 32.599998 34.200001 34.200001 33.200001 35M 33 25C 31.6 25 30.4 25 29 25M 36 18C 34.799999 17.200001 34.200001 15.8 33.200001 15.2M 11 57C 26.200001 54.799999 41.799999 59 57 57M 13 51C 14.4 52.799999 15.4 54.799999 16 57M 19 51C 17 52.200001 16 54.799999 16 57M 25 51C 27 52.200001 28.6 54.799999 28 57M 31 51C 29.4 52.799999 28.6 54.799999 28 57M 37 51C 39.200001 52 38.799999 55 40 57M 43 51C 41.400002 52.599998 40.799999 54.799999 40 57M 49 51C 50.799999 52.599998 51 55 52 57M 55 51C 53.799999 53 52 54.799999 52 57M 37 25C 37 28.313709 39.686295 31 43 31C 46.313709 31 49 28.313709 49 25C 49 21.686291 46.313709 19 43 19C 39.686295 19 37 21.686291 37 25ZM 43 15L 43 11M 50.071999 17.927999L 52.900002 15.1M 53 25L 57 25M 50.071999 32.071999L 52.900002 34.900002M 43 35L 43 39M 35.928001 32.071999L 33.099998 34.900002M 33 25L 29 25M 35.928001 17.927999L 33.099998 15.1M 11 57L 57 57M 13 51C 14.630739 52.617027 15.684824 54.725197 16 57M 19 51C 17.369261 52.617027 16.315176 54.725197 16 57M 25 51C 26.630741 52.617027 27.684826 54.725197 28 57M 31 51C 29.369261 52.617027 28.315176 54.725197 28 57M 37 51C 38.630741 52.617027 39.684826 54.725197 40 57M 43 51C 41.369263 52.617027 40.315178 54.725197 40 57M 49 51C 50.630741 52.617027 51.684826 54.725197 52 57M 55 51C 53.369263 52.617027 52.315178 54.725197 52 57"></path></g></g></g><g id="g-root-tx_overfitt_1ltnd9v1qqwah2-stroke" data-item-order="0" data-item-id="tx_overfitt_1ltnd9v1qqwah2" data-item-class="Label Stroke SceneTarget Indexed ColorStrokeBlack" data-item-index="102" data-renderer-id="0" transform="translate(364.0010070800781, 243.99996948242188)"></g><g id="g-root-1_magv771qr38qr-stroke" data-item-order="0" data-item-id="1_magv771qr38qr" data-item-class="Icon Stroke SceneTarget Indexed ColorStrokeBlack" data-item-index="3" data-renderer-id="0" transform="translate(4.001007080078125, 315.9999694824219)"><g id="1_magv771qr38qr-stroke" fill="none" stroke-linecap="round" stroke-linejoin="round" stroke-miterlimit="4" stroke="#484848" stroke-width="2"><g><path d="M 16 22C 17 20.799999 18.4 19.6 20 19C 20.6 14.6 22.799999 10 26 11C 29.200001 12 31.6 14.6 32 19C 33.200001 20.6 35.599998 20.6 37 22M 21 22C 19.799999 23 19.799999 24.799999 19 26M 31 22C 31.6 23.4 32.200001 24.6 33 26M 23.6 17C 23.799999 17 24 17.200001 24 17.6M 23 17.6C 23 17.200001 23.200001 17 23.6 17M 23.6 18C 23.200001 18 23 17.799999 23 17.6M 24 17.6C 23.799999 17.799999 23.799999 18 23.6 18M 28.6 17C 28.799999 17 29 17.200001 29 17.6M 28 17.6C 28 17.200001 28.200001 17 28.6 17M 28.6 18C 28.200001 18 28 17.799999 28 17.6M 29 17.6C 29.200001 17.799999 28.799999 18 28.6 18M 46 44C 45 51 40 55.599998 33 57C 27.200001 58.200001 22.200001 54.200001 21 47C 21 41.200001 17.6 35.200001 20 30M 32.200001 30.799999C 32.200001 30.799999 35.200001 31.6 37 29M 31.799999 42C 31.799999 41.799999 34.400002 42.799999 36 40M 19.799999 31.200001C 19.799999 31.200001 16 32 15 29M 19.6 41.799999C 19.6 41.799999 16.200001 43 15 40M 32 30C 33.599998 37.200001 33.799999 38.599998 31 45C 29 49.599998 32.799999 52.200001 35 52C 36 51.799999 37.400002 51.799999 37.799999 50.799999C 38.200001 49.799999 39.400002 49 39 48C 38 45.799999 39.200001 43.400002 39 41C 38.599998 37.200001 42.200001 34.599998 46 34C 49.799999 33.599998 52.599998 37.200001 53 41C 53.200001 42.400002 52.799999 43.599998 53 45C 53.799999 49.799999 50 54 46 57"></path><path d="M 16 22L 20 19C 20 14.582 22.686001 11 26 11C 29.313999 11 32 14.582 32 19L 37 22M 21 22L 19 26M 31 22L 33 26M 23.5 17C 23.776142 17 24 17.223858 24 17.5M 23 17.5C 23 17.223858 23.223858 17 23.5 17M 23.5 18C 23.223858 18 23 17.776142 23 17.5M 24 17.5C 24 17.776142 23.776142 18 23.5 18M 28.5 17C 28.776142 17 29 17.223858 29 17.5M 28 17.5C 28 17.223858 28.223858 17 28.5 17M 28.5 18C 28.223858 18 28 17.776142 28 17.5M 29 17.5C 29 17.776142 28.776142 18 28.5 18M 46 44C 46 51.179703 40.179703 57.000004 33 57C 27 57 23 54 21 47C 18.957672 41.564323 18.609043 35.637638 20 30M 32.242001 30.886C 32.242001 30.886 36 32 37 29M 31.709999 41.91C 31.709999 41.91 35 43 36 40M 19.734001 31.16C 19.734001 31.16 16 32 15 29M 19.639999 41.877998C 19.639999 41.877998 16 43 15 40M 32 30C 34 37 32.372002 38.136002 31 45C 30 50 32.799999 52 35 52C 36.067966 52.023735 37.099228 51.609936 37.854584 50.854584C 38.609936 50.099232 39.023735 49.067966 39 48L 39 41C 39 37.13401 42.134007 34 46 34C 49.865993 34 53 37.13401 53 41L 53 45C 52.98159 49.964279 50.312176 54.540417 46 57"></path></g></g></g><g id="g-root-tx_adaptabi_v7ctmb1qqwah5-stroke" data-item-order="0" data-item-id="tx_adaptabi_v7ctmb1qqwah5" data-item-class="Label Stroke SceneTarget Indexed ColorStrokeBlack" data-item-index="3" data-renderer-id="0" transform="translate(64.00100708007812, 327.9999694824219)"></g><g id="g-root-1_1lrry0j1qr3abz-stroke" data-item-order="0" data-item-id="1_1lrry0j1qr3abz" data-item-class="Icon Stroke SceneTarget Indexed ColorStrokeBlack" data-item-index="103" data-renderer-id="0" transform="translate(304.0010070800781, 315.9999694824219)"><g id="1_1lrry0j1qr3abz-stroke" fill="none" stroke-linecap="round" stroke-linejoin="round" stroke-miterlimit="4" stroke="#484848" stroke-width="2"><g><path d="M 24.057142 14.114285C 25.085714 15.485714 26.114285 16.857143 26.114285 18.571428C 27.828571 16.171429 29.885715 13.771429 32.285713 12.4C 32.971428 12.057143 33.314285 11.714286 34 11.714286C 34.685715 11.371428 35.371429 11.714286 35.714287 12.4C 36.742859 14.8 39.142857 15.828571 40.857143 17.542858C 40.171429 17.885714 39.485718 18.571428 38.799999 18.914286C 36.742859 22 36.057144 26.800001 39.142857 28.857143C 42.228569 30.571428 46.342857 31.942858 48.742859 28.857143C 49.085712 28.171429 50.114285 27.828571 50.114285 27.142857C 52.171429 28.857143 54.228569 30.228573 55.600002 32.285713C 55.942856 32.971428 56.285713 33.314285 56.285713 34C 56.285713 34.685715 56.285713 35.714287 55.600002 35.714287C 52.857143 36.742859 51.485718 39.828571 49.428574 41.885715C 52.857143 40.857143 55.942856 45.314285 55.942856 49.085712C 55.942856 52.857143 52.857143 56.628574 49.085712 55.942856C 45.314285 55.257141 42.914288 53.200001 41.885715 49.428574C 39.485718 50.799999 38.457146 54.57143 35.714287 55.600002C 35.028572 55.942856 34.685715 56.285713 34 56.285713C 33.314285 56.285713 32.285713 56.285713 32.285713 55.600002C 31.6 53.200001 28.514286 52.171429 27.142857 50.457146C 27.828571 50.114285 28.514286 49.428574 29.200001 49.085712C 32.285713 47.028572 32.628571 40.514286 29.200001 38.799999C 25.428572 37.428574 22.342857 36.742859 18.914286 39.142857C 18.228571 39.485718 17.885714 40.171429 17.542858 40.857143C 15.828571 39.142857 13.771429 37.771431 12.4 35.714287C 12.057143 35.028572 11.371428 34.685715 11.714286 34C 11.714286 33.314285 11.714286 32.628571 12.4 32.285713C 14.8 30.571428 16.857143 28.514286 18.571428 26.114285C 16.857143 26.114285 15.485714 24.742859 14.114285 24.057142C 10.685715 22.342857 10.685715 15.828571 14.114285 14.114285C 17.542858 12.4 20.628571 12.4 24.057142 14.114285M 24.022858 14.08C 25.258335 15.286715 25.992985 16.915182 26.08 18.639999L 32.354286 12.4C 32.790134 11.91136 33.413795 11.631939 34.068573 11.631939C 34.723347 11.631939 35.347008 11.91136 35.782856 12.4L 40.857143 17.68C 40.13644 18.029476 39.476597 18.492525 38.902859 19.05143C 36.366226 21.841013 36.468044 26.131165 39.134155 28.797272C 41.800262 31.463381 46.090416 31.565199 48.879997 29.02857C 49.438904 28.454834 49.901951 27.794989 50.251427 27.074286L 55.600002 32.354286C 56.088642 32.790134 56.368061 33.413795 56.368061 34.068573C 56.368061 34.723347 56.088642 35.347008 55.600002 35.782856L 49.360001 41.920002C 53.124832 42.147659 56.03883 45.306301 55.962902 49.077248C 55.886978 52.84819 52.84819 55.886978 49.077248 55.962902C 45.306301 56.03883 42.147659 53.124832 41.920002 49.360001L 35.645714 55.600002C 35.209866 56.088642 34.586205 56.368061 33.931427 56.368061C 33.276653 56.368061 32.652992 56.088642 32.217144 55.600002L 27.142857 50.32C 27.86356 49.970524 28.523405 49.507477 29.097143 48.948574C 31.852257 46.174526 31.836906 41.692257 29.062859 38.937145C 26.288811 36.182034 21.806541 36.197384 19.05143 38.971432C 18.492525 39.545166 18.029476 40.205009 17.68 40.925716L 12.4 35.645714C 11.91136 35.209866 11.631939 34.586205 11.631939 33.931427C 11.631939 33.276653 11.91136 32.652992 12.4 32.217144L 18.639999 26.08C 16.915182 25.992985 15.286715 25.258335 14.08 24.022858C 11.335168 21.277073 11.335553 16.826168 14.080861 14.080861C 16.826168 11.335553 21.277073 11.335168 24.022856 14.08Z"></path></g></g></g><g id="g-root-tx_interpre_hund2r1qqw9vw-stroke" data-item-order="0" data-item-id="tx_interpre_hund2r1qqw9vw" data-item-class="Label Stroke SceneTarget Indexed ColorStrokeBlack" data-item-index="103" data-renderer-id="0" transform="translate(364.0010070800781, 315.9999694824219)"></g><g id="g-root-2_zlawhf1qr3abm-stroke" data-item-order="0" data-item-id="2_zlawhf1qr3abm" data-item-class="Icon Stroke SceneTarget Indexed ColorStrokeBlack" data-item-index="4" data-renderer-id="0" transform="translate(4.001007080078125, 399.9999694824219)"><g id="2_zlawhf1qr3abm-stroke" fill="none" stroke-linecap="round" stroke-linejoin="round" stroke-miterlimit="4" stroke="#484848" stroke-width="2"><g><path d="M 36.400002 37C 36.599998 38 37.200001 39 37 40C 36 44.200001 33.799999 47.400002 29.799999 48.799999C 25.6 50.200001 21.6 47.200001 19.6 43.400002C 17.6 39.599998 18.799999 33.400002 23 32.599998C 27.200001 31.6 30.6 31.6 34.400002 33.599998M 42.599998 31.4C 47.200001 39.200001 45 49 37.599998 54.200001C 30.200001 59.400002 21.799999 56.200001 14.6 50.599998C 7.6 45.200001 10.6 34.200001 16.6 27.4C 22.799999 20.799999 35.200001 20.4 40 28M 11 57C 12.2 55 14.2 53.400002 16 52M 40 52C 41.799999 53.599998 43.799999 55 45 57M 42.799999 25.200001C 43.200001 22.6 41.799999 20 42.200001 17.4C 44.599998 15.6 46.400002 13 48.599998 11C 49.599998 13 50 15.2 50.599998 17.4C 52.799999 17.4 55 18.6 57 19.6C 54.599998 21.4 53 24 50.599998 25.799999C 48 26.200001 45.400002 25.799999 42.799999 25.200001M 48 20C 39.799999 24.799999 35.200001 34 28 40M 36.48 36.98C 36.827034 37.948929 37.002987 38.970806 37 40C 37.007744 44.304981 33.972198 48.015411 29.751007 48.860653C 25.529816 49.705898 21.299652 47.450336 19.649218 43.474289C 17.998783 39.498238 19.388142 34.910049 22.96706 32.517509C 26.545979 30.124971 31.316814 30.595018 34.360001 33.639999M 42.68 31.42C 47.276806 39.143959 45.083679 49.110222 37.669128 54.191025C 30.254576 59.271824 20.168573 57.719795 14.624529 50.644932C 9.080484 43.570068 9.985079 33.405525 16.691357 27.420881C 23.397633 21.436237 33.599201 21.689701 40 28M 11 57L 15.98 52.02M 40.02 52.02L 45 57M 42.860001 25.139999L 42.139999 17.360001L 48.5 11L 50.639999 17.360001L 57 19.5L 50.639999 25.860001L 42.860001 25.139999ZM 48 20L 28 40"></path></g></g></g><g id="g-root-tx_accurate_142ztv71qqw9og-stroke" data-item-order="0" data-item-id="tx_accurate_142ztv71qqw9og" data-item-class="Label Stroke SceneTarget Indexed ColorStrokeBlack" data-item-index="4" data-renderer-id="0" transform="translate(64.00100708007812, 399.9999694824219)"></g><g id="g-root-box_24eer1qr38y6-stroke" data-item-order="0" data-item-id="box_24eer1qr38y6" data-item-class="Icon Stroke SceneTarget Indexed ColorStrokeBlack" data-item-index="104" data-renderer-id="0" transform="translate(304.0010070800781, 399.9999694824219)"><g id="box_24eer1qr38y6-stroke" fill="none" stroke-linecap="round" stroke-linejoin="round" stroke-miterlimit="4" stroke="#484848" stroke-width="2"><g><path d="M 47.599998 11.8C 47.200001 11.4 46.599998 11.2 46 11C 38.400002 8.6 29.799999 9.6 22 11C 21.4 11.2 20.6 11.2 20.4 11.8C 18.200001 16.4 14.6 20.4 11.4 24.4C 11.2 24.799999 11.2 25.200001 11 25.6C 7.8 34.799999 12 45.200001 11 55C 10.8 56 11.8 56.799999 13 57C 26.799999 58.799999 41.200001 59.200001 55 57C 56 56.799999 57 56 57 55C 57.599998 45.200001 60.200001 34.799999 57 25.6C 56.799999 25.200001 56.799999 24.799999 56.599998 24.4C 54.799999 19.6 50 16.4 47.599998 11.8M 34 11C 34.799999 15.6 34.799999 20.4 34 25M 11.2 25C 26.4 26.200001 41.599998 23.6 56.799999 25M 34 42C 34 40.400002 34.200001 38.599998 34 37M 43.799999 48C 41.200001 42.599998 39 37 35.799999 32C 35.599998 31.4 34.799999 31 34 31C 33.200001 31 32.599998 31.4 32.200001 32C 29.4 37.400002 27.200001 43 24.200001 48C 24 48.599998 24 49.400002 24.200001 50C 24.6 50.599998 25.4 51 26 51C 31.4 50.599998 36.799999 50 42 51C 42.599998 51.200001 43.400002 50.599998 43.799999 50C 44 49.400002 44.200001 48.599998 43.799999 48M 34 45.599998C 34.200001 45.400002 34.400002 45.799999 34.599998 46C 34.599998 46.200001 34.200001 46.599998 34 46.599998C 33.799999 46.599998 33.400002 46.200001 33.599998 46C 33.599998 45.799999 33.799999 45.400002 34 45.599998M 47.599998 11.838C 47.224163 11.3115 46.616882 10.999291 45.970001 11L 22.029999 11C 21.383118 10.999291 20.775839 11.3115 20.4 11.838L 11.372 24.478001C 11.129997 24.817133 10.999944 25.223375 11 25.639999L 11 55C 11 56.104568 11.895431 57 13 57L 55 57C 56.104568 57 57 56.104568 57 55L 57 25.639999C 57.000057 25.223375 56.870003 24.817133 56.627998 24.478001ZM 34 11L 34 25M 11.106 25L 56.894001 25M 34 42L 34 37M 43.751999 48.042L 35.751999 32.042C 35.4016 31.399265 34.728043 30.999321 33.996002 30.999321C 33.263954 30.999321 32.590401 31.399265 32.239998 32.042L 24.24 48.042C 23.901482 48.662365 23.915493 49.415325 24.276859 50.022667C 24.638224 50.630005 25.293287 51.001545 26 51L 42 51C 42.705288 50.998722 43.357761 50.626057 43.717182 50.019226C 44.076603 49.412392 44.089832 48.66111 43.751999 48.042ZM 34 45.5C 34.276142 45.5 34.5 45.723858 34.5 46C 34.5 46.276142 34.276142 46.5 34 46.5C 33.723858 46.5 33.5 46.276142 33.5 46C 33.5 45.723858 33.723858 45.5 34 45.5"></path></g></g></g><g id="g-root-tx_blackbox_v63vg31qqw8az-stroke" data-item-order="0" data-item-id="tx_blackbox_v63vg31qqw8az" data-item-class="Label Stroke SceneTarget Indexed ColorStrokeBlack" data-item-index="104" data-renderer-id="0" transform="translate(364.0010070800781, 399.9999694824219)"></g></g></g></svg>