<?xml version="1.0" encoding="utf-8" standalone="yes"?>
<!DOCTYPE svg PUBLIC "-//W3C//DTD SVG 1.1//EN" "http://www.w3.org/Graphics/SVG/1.1/DTD/svg11.dtd">
<svg width="552" height="205" viewBox="0 0 552 205" style="fill:none;stroke:none;fill-rule:evenodd;clip-rule:evenodd;stroke-linecap:round;stroke-linejoin:round;stroke-miterlimit:1.5;" version="1.1" xmlns="http://www.w3.org/2000/svg" xmlns:xlink="http://www.w3.org/1999/xlink"><style id="fontImports">@import url("https://fonts.googleapis.com/css2?family=Roboto:wght@400;700&amp;display=block");</style><rect id="" x="0" y="0" width="552" height="205" style="fill: #ffffff;"></rect><g id="items" style="isolation: isolate"><g id="blend" style="mix-blend-mode:multiply"><g id="g-root-2.cr-2_cr_1480brn1qqqo02-fill" data-item-order="-46652" data-item-id="2.cr-2_cr_1480brn1qqqo02" data-item-class="Shape Stroke Fill ScenePart Part Indexed" data-item-index="2" data-renderer-id="0" transform="translate(368, 3)"><g id="2.cr-2_cr_1480brn1qqqo02-fill" stroke="none" fill="#e6f9ff"><g><path d="M 10 64C 10 93.823377 34.176624 118 64 118C 93.823377 118 118 93.823377 118 64C 118 34.176624 93.823377 10 64 10C 34.176624 10 10 34.176624 10 64"></path></g></g></g><g id="g-root-1.cr-1_cr_1480brn1qqqo01-fill" data-item-order="-46650" data-item-id="1.cr-1_cr_1480brn1qqqo01" data-item-class="Shape Stroke Fill ScenePart Part Indexed Indexed_1" data-item-index="1" data-renderer-id="0" transform="translate(44, 3)"><g id="1.cr-1_cr_1480brn1qqqo01-fill" stroke="none" fill="#ffe7e6"><g><path d="M 10 64C 10 93.823377 34.176624 118 64 118C 93.823377 118 118 93.823377 118 64C 118 34.176624 93.823377 10 64 10C 34.176624 10 10 34.176624 10 64"></path></g></g></g><g id="g-root-lear_1um6par1qqteyq-fill" data-item-order="0" data-item-id="lear_1um6par1qqteyq" data-item-class="Icon Stroke SceneTarget Indexed Indexed_1 InsideFill InsideColorFill" data-item-index="1" data-renderer-id="0" transform="translate(62, 21)"></g><g id="g-root-ligh_1upb2qb1qqs1zd-fill" data-item-order="0" data-item-id="ligh_1upb2qb1qqs1zd" data-item-class="Icon Stroke SceneTarget" data-item-index="0" data-renderer-id="0" transform="translate(224, 21)"></g><g id="g-root-1_mahker1qqs26g-fill" data-item-order="0" data-item-id="1_mahker1qqs26g" data-item-class="Icon Stroke SceneTarget Indexed InsideFill InsideColorFill" data-item-index="2" data-renderer-id="0" transform="translate(386, 21)"></g><g id="g-root-tx_supervis_4gpnkj1qqs07i-fill" data-item-order="0" data-item-id="tx_supervis_4gpnkj1qqs07i" data-item-class="Label Stroke SceneTarget Indexed Indexed_1 ColorFillBlack ColorStrokeBlack" data-item-index="1" data-renderer-id="0" transform="translate(2, 123)"><g id="tx_supervis_4gpnkj1qqs07i-fill" stroke="none" fill="#484848"><g><text style="font: bold 20px Roboto, sans-serif; white-space: pre;"><tspan x="13.71" y="33.75" dominant-baseline="ideographic">Supervised Learning</tspan></text></g></g></g><g id="g-root-tx_unsuperv_hrjour1qqs1sc-fill" data-item-order="0" data-item-id="tx_unsuperv_hrjour1qqs1sc" data-item-class="Label Stroke SceneTarget Indexed ColorFillBlack ColorStrokeBlack" data-item-index="2" data-renderer-id="0" transform="translate(314, 123)"><g id="tx_unsuperv_hrjour1qqs1sc-fill" stroke="none" fill="#484848"><g><text style="font: bold 20px Roboto, sans-serif; white-space: pre;"><tspan x="14.54" y="33.75" dominant-baseline="ideographic">Unsupervised Learning</tspan></text></g></g></g><g id="g-root-tx_predicts_dbq6qb1qqs2kl-fill" data-item-order="0" data-item-id="tx_predicts_dbq6qb1qqs2kl" data-item-class="Label Stroke SceneTarget Indexed Indexed_1" data-item-index="1" data-renderer-id="0" transform="translate(8, 159)"><g id="tx_predicts_dbq6qb1qqs2kl-fill" stroke="none" fill="#484848"><g><text style="font: 20px Roboto, sans-serif; white-space: pre;"><tspan x="13.35" y="33.75" dominant-baseline="ideographic">Predicts with labels</tspan></text></g></g></g><g id="g-root-tx_discover_v307831qqs07f-fill" data-item-order="0" data-item-id="tx_discover_v307831qqs07f" data-item-class="Label Stroke SceneTarget Indexed" data-item-index="2" data-renderer-id="0" transform="translate(332, 159)"><g id="tx_discover_v307831qqs07f-fill" stroke="none" fill="#484848"><g><text style="font: 20px Roboto, sans-serif; white-space: pre;"><tspan x="16.96" y="33.75" dominant-baseline="ideographic">Discovers patterns</tspan></text></g></g></g><g id="g-root-2.cr-2_cr_1480brn1qqqo02-stroke" data-item-order="-46652" data-item-id="2.cr-2_cr_1480brn1qqqo02" data-item-class="Shape Stroke Fill ScenePart Part Indexed" data-item-index="2" data-renderer-id="0" transform="translate(368, 3)"><g id="2.cr-2_cr_1480brn1qqqo02-stroke" fill="none" stroke-linecap="round" stroke-linejoin="round" stroke-miterlimit="4" stroke="#17b0e3" stroke-width="2"><g><path d="M 10 64C 10 93.823377 34.176624 118 64 118C 93.823377 118 118 93.823377 118 64C 118 34.176624 93.823377 10 64 10C 34.176624 10 10 34.176624 10 64"></path></g></g></g><g id="g-root-1.cr-1_cr_1480brn1qqqo01-stroke" data-item-order="-46650" data-item-id="1.cr-1_cr_1480brn1qqqo01" data-item-class="Shape Stroke Fill ScenePart Part Indexed Indexed_1" data-item-index="1" data-renderer-id="0" transform="translate(44, 3)"><g id="1.cr-1_cr_1480brn1qqqo01-stroke" fill="none" stroke-linecap="round" stroke-linejoin="round" stroke-miterlimit="4" stroke="#e15e5a" stroke-width="2"><g><path d="M 10 64C 10 93.823377 34.176624 118 64 118C 93.823377 118 118 93.823377 118 64C 118 34.176624 93.823377 10 64 10C 34.176624 10 10 34.176624 10 64"></path></g></g></g><g id="g-root-lear_1um6par1qqteyq-stroke" data-item-order="0" data-item-id="lear_1um6par1qqteyq" data-item-class="Icon Stroke SceneTarget Indexed Indexed_1 InsideFill InsideColorFill" data-item-index="1" data-renderer-id="0" transform="translate(62, 21)"><g id="lear_1um6par1qqteyq-stroke" fill="none" stroke-linecap="round" stroke-linejoin="round" stroke-miterlimit="4" stroke="#e15e5a" stroke-width="2"><g><path d="M 59.397999 11.5L 77.397995 11.5C 77.397995 11.5 80.397995 11.5 80.397995 14.5L 80.397995 17.5C 80.397995 17.5 80.397995 20.5 77.397995 20.5L 59.397999 20.5C 59.397999 20.5 56.397999 20.5 56.397999 17.5L 56.397999 14.5C 56.397999 14.5 56.397999 11.5 59.397999 11.5M 24.351999 21.25C 24.352001 25.806349 28.045652 29.5 32.602001 29.5C 37.158348 29.5 40.852001 25.806349 40.852001 21.25C 40.852001 16.693651 37.158348 13 32.602001 13C 28.045652 13 24.352001 16.693651 24.352001 21.25M 52.614998 31.189001C 51.062969 29.255024 48.238869 28.941088 46.300003 30.487L 44.139999 32.215C 41.478012 34.343674 38.170433 35.502281 34.762001 35.5L 27.285999 35.5C 23.878601 35.502583 20.57387 36.666595 17.917 38.799999L 13.3 42.487C 11.359824 44.040302 11.046199 46.872326 12.599501 48.812504C 14.152802 50.752678 16.984825 51.066303 18.925001 49.513L 25.182999 44.5L 28.101999 44.5L 28.101999 55.438L 22.900002 65.833L 16.15 72.589005C 14.391915 74.257965 14.183181 76.987076 15.667 78.903999C 16.479343 79.865433 17.657219 80.442711 18.914778 80.495728C 20.172337 80.548744 21.394619 80.072655 22.285 79.182999L 29.785 71.682999C 30.125959 71.342857 30.409626 70.949776 30.625002 70.518997L 34.612 62.544998L 40.399002 65.436996L 41.625999 76.503998C 41.882439 78.779205 43.806389 80.499146 46.096001 80.5C 46.368336 80.499916 46.640221 80.477844 46.909 80.434006C 49.245644 80.022461 50.854435 77.858093 50.575001 75.502007L 49.074997 62.001999C 48.904129 60.484154 47.977417 59.155609 46.612 58.471001L 37.102001 53.719002L 37.102001 44.5L 37.917999 44.5C 41.32618 44.496662 44.631618 43.332775 47.290001 41.200001L 51.916 37.500999C 53.847099 35.948303 54.159576 33.126602 52.615002 31.189001ZM 56.737 49.216C 64.076996 52.885193 72.716011 52.885193 80.056 49.216003M 60.334 39.472C 65.37886 42.136215 71.414146 42.136215 76.459 39.472M 63.886002 29.820999C 66.655853 31.509912 70.137154 31.509912 72.906998 29.821001"></path></g></g></g><g id="g-root-ligh_1upb2qb1qqs1zd-stroke" data-item-order="0" data-item-id="ligh_1upb2qb1qqs1zd" data-item-class="Icon Stroke SceneTarget" data-item-index="0" data-renderer-id="0" transform="translate(224, 21)"><g id="ligh_1upb2qb1qqs1zd-stroke" fill="none" stroke-linecap="round" stroke-linejoin="round" stroke-miterlimit="4" stroke="#484848" stroke-width="2"><g><path d="M 43.7155 60.25L 41.78965 75.448456C 41.6017 76.932404 43.444153 77.732651 44.395 76.57795C 47.01955 73.3909 50.811699 68.769402 54.856899 63.833954M 69.831848 45.546398C 71.379852 43.654751 72.706451 42.033249 73.705299 40.812103C 74.506447 39.832748 73.809097 38.36335 72.543854 38.36335L 69.158348 38.36335M 25.079649 52.911999L 19.49548 52.911999C 18.223511 52.911999 17.52829 51.428951 18.342926 50.452148L 22.779266 45.132549M 35.112999 30.346449C 39.87685 24.636566 44.504349 19.091724 47.564949 15.428576C 48.525852 14.278646 50.384201 15.095304 50.190849 16.581249L 48.589302 28.888599M 40.897453 54.801849L 46.692249 35.308601C 46.978149 34.346951 46.257702 33.3811 45.254501 33.3811L 42.439301 33.3811C 41.771049 33.3811 41.18335 33.823151 40.9981 34.465149L 36.3946 50.412849C 36.289299 50.77795 35.77 50.772701 35.67205 50.405647L 31.4233 34.494099C 31.2481 33.8377 30.6535 33.3811 29.97415 33.3811L 26.994999 33.3811C 25.99645 33.3811 25.276749 34.338249 25.553949 35.297501L 31.17985 54.7687C 31.7362 56.694099 33.498852 58.019501 35.503002 58.019501L 36.584049 58.019501C 38.575451 58.019501 40.329998 56.710602 40.897453 54.801849ZM 55.995251 52.8979C 54.671501 52.8979 53.315948 52.649349 52.157799 52.296249C 51.212952 52.008099 50.137451 52.530552 49.935249 53.497299L 49.494553 55.60405C 49.356548 56.263451 49.675148 56.93755 50.312199 57.156551C 51.677353 57.6259 53.664398 58.020248 55.7164 58.020248C 62.197296 58.020248 65.500153 54.6562 65.500153 50.398453C 65.500153 47.324951 63.797348 44.9491 59.738503 43.285149C 56.776901 42.0355 55.727348 41.490551 55.727348 40.328049C 55.727348 39.259899 56.758598 38.467899 58.703651 38.467899C 59.83075 38.467899 60.802898 38.636799 61.608551 38.862099C 62.52655 39.118752 63.545498 38.638149 63.765404 37.710701L 64.243744 35.694248C 64.408752 34.998253 64.061646 34.273598 63.381096 34.053402C 62.162048 33.658901 60.618248 33.381851 58.743996 33.381851C 52.776852 33.381851 49.470402 36.687851 49.470402 40.843899C 49.470402 43.873749 51.5695 46.227848 55.602547 47.924351C 58.15675 48.945248 59.221001 49.66465 59.221001 50.874397C 59.221001 52.084152 58.112801 52.8979 55.995251 52.8979Z"></path></g></g></g><g id="g-root-1_mahker1qqs26g-stroke" data-item-order="0" data-item-id="1_mahker1qqs26g" data-item-class="Icon Stroke SceneTarget Indexed InsideFill InsideColorFill" data-item-index="2" data-renderer-id="0" transform="translate(386, 21)"><g id="1_mahker1qqs26g-stroke" fill="none" stroke-linecap="round" stroke-linejoin="round" stroke-miterlimit="4" stroke="#17b0e3" stroke-width="2"><g><path d="M 11.5 70L 40.795002 70M 15.882999 31.450001L 36.411999 31.450001C 36.411999 31.450001 40.795002 31.450001 40.795002 35.833L 40.795002 76.116997C 40.795002 76.116997 40.795002 80.5 36.411999 80.5L 15.882999 80.5C 15.882999 80.5 11.5 80.5 11.5 76.116997L 11.5 35.833C 11.5 35.833 11.5 31.450001 15.882999 31.450001M 11.5 52.75L 19.209999 52.75L 22.294001 43.75L 28.459 61.75L 33.084999 51.25L 40.795002 51.25M 47.422001 42.306999C 57.321999 44.139999 58.656998 48.288998 58.656998 48.288998M 58.656998 18.285999C 58.656998 18.285999 60.639999 12.136 77.632004 11.5C 78.331696 11.432612 79.02919 11.648669 79.568275 12.099786C 80.107361 12.550901 80.442993 13.199382 80.500008 13.900001L 80.5 39.133003C 80.365639 40.523163 79.165176 41.564007 77.770004 41.500004C 60.669998 42.099998 58.656998 48.288998 58.656998 48.288998L 58.656998 18.289C 58.656998 18.289 56.671001 12.136 39.681999 11.5C 38.982132 11.431775 38.284187 11.647528 37.744911 12.098806C 37.205635 12.550084 36.87022 13.199064 36.814003 13.900001L 36.813999 23.74M 26.5 74.5C 26.914213 74.5 27.25 74.835785 27.25 75.25L 27.25 75.25C 27.25 75.664215 26.914213 76 26.5 76L 26.5 76C 26.085787 76 25.75 75.664215 25.75 75.25L 25.75 75.25C 25.75 74.835785 26.085787 74.5 26.5 74.5M 26.5 74.5L 26.5 74.5"></path></g></g></g><g id="g-root-tx_supervis_4gpnkj1qqs07i-stroke" data-item-order="0" data-item-id="tx_supervis_4gpnkj1qqs07i" data-item-class="Label Stroke SceneTarget Indexed Indexed_1 ColorFillBlack ColorStrokeBlack" data-item-index="1" data-renderer-id="0" transform="translate(2, 123)"></g><g id="g-root-tx_unsuperv_hrjour1qqs1sc-stroke" data-item-order="0" data-item-id="tx_unsuperv_hrjour1qqs1sc" data-item-class="Label Stroke SceneTarget Indexed ColorFillBlack ColorStrokeBlack" data-item-index="2" data-renderer-id="0" transform="translate(314, 123)"></g><g id="g-root-tx_predicts_dbq6qb1qqs2kl-stroke" data-item-order="0" data-item-id="tx_predicts_dbq6qb1qqs2kl" data-item-class="Label Stroke SceneTarget Indexed Indexed_1" data-item-index="1" data-renderer-id="0" transform="translate(8, 159)"></g><g id="g-root-tx_discover_v307831qqs07f-stroke" data-item-order="0" data-item-id="tx_discover_v307831qqs07f" data-item-class="Label Stroke SceneTarget Indexed" data-item-index="2" data-renderer-id="0" transform="translate(332, 159)"></g></g></g></svg>