<?xml version="1.0" encoding="utf-8" standalone="yes"?>
<!DOCTYPE svg PUBLIC "-//W3C//DTD SVG 1.1//EN" "http://www.w3.org/Graphics/SVG/1.1/DTD/svg11.dtd">
<svg width="576" height="291" viewBox="0 0 576 291" style="fill:none;stroke:none;fill-rule:evenodd;clip-rule:evenodd;stroke-linecap:round;stroke-linejoin:round;stroke-miterlimit:1.5;" version="1.1" xmlns="http://www.w3.org/2000/svg" xmlns:xlink="http://www.w3.org/1999/xlink"><style id="fontImports">@import url("https://fonts.googleapis.com/css2?family=Roboto:wght@400;700&amp;display=block");</style><rect id="" x="0" y="0" width="576" height="290.005" style="fill: #ffffff;"></rect><g id="items" style="isolation: isolate"><g id="blend" style="mix-blend-mode:multiply"><g id="g-root-5.cu_sy_quncad1rv08au-fill" data-item-order="-31676" data-item-id="5.cu_sy_quncad1rv08au" data-item-class="ScenePart Part Indexed Stroke ColorFillGray ColorStrokeBlack" data-item-index="5" data-renderer-id="0" transform="translate(194, 154)"></g><g id="g-root-4.cu_sy_quncad1rv08at-fill" data-item-order="-31675" data-item-id="4.cu_sy_quncad1rv08at" data-item-class="ScenePart Part Indexed Fill Stroke ColorFillGray ColorStrokeBlack" data-item-index="4" data-renderer-id="0" transform="translate(266, 165)"><g id="4.cu_sy_quncad1rv08at-fill" stroke="none" fill="#888888"><g><path d="M 34.086 22C 34.086 28.627 28.695 34 22.043 34C 15.392 34 10 28.627 10 22C 10 15.373 15.392 10 22.043 10C 28.695 10 34.086 15.373 34.086 22ZM 28 22C 28 25.314 25.314 28 22 28C 18.686 28 16 25.314 16 22C 16 18.686 18.686 16 22 16C 25.314 16 28 18.686 28 22Z"></path></g></g></g><g id="g-root-3.cu_sy_quncad1rv08as-fill" data-item-order="-31673" data-item-id="3.cu_sy_quncad1rv08as" data-item-class="ScenePart Part Indexed Fill Stroke ColorFillGray ColorStrokeBlack" data-item-index="3" data-renderer-id="0" transform="translate(230, 186.32598876953125)"><g id="3.cu_sy_quncad1rv08as-fill" stroke="none" fill="#888888"><g><path d="M 22 78.674011L 94 78.674011C 94 78.674011 73.992 28.166011 65.959 10.058011C 63.725 11.952011 61.073 12.997011 58.043 12.997011C 54.986 12.997011 52.288 11.933011 50.072 10.000011C 42.047 28.114011 22 78.674011 22 78.674011ZM 18 78.679011C 13.582 78.679011 10 82.260011 10 86.679011L 10 88.679011C 10 89.783011 10.895 90.679011 12 90.679011L 104 90.679011C 105.105 90.679011 106 89.783011 106 88.679011L 106 86.679011C 106 82.260011 102.418 78.679011 98 78.679011L 18 78.679011Z"></path></g></g></g><g id="g-root-2.right-bucket_sy_vaguet1rv07ij-fill" data-item-order="-31671" data-item-id="2.right-bucket_sy_vaguet1rv07ij" data-item-class="ScenePart Part Indexed Fill Stroke ColorStrokeBlack" data-item-index="2" data-renderer-id="0" transform="translate(326, 135)"><g id="2.right-bucket_sy_vaguet1rv07ij-fill" stroke="none" fill="#e15e5a"><g><path d="M 10 11.8C 10 10.806 10.806 10 11.8 10L 80.2 10C 81.194 10 82 10.806 82 11.8C 82 20.747 74.747 28 65.8 28L 26.2 28C 17.253 28 10 20.747 10 11.8Z"></path></g></g></g><g id="g-root-1.left-bucket_sy_vaguet1rv07ii-fill" data-item-order="-31669" data-item-id="1.left-bucket_sy_vaguet1rv07ii" data-item-class="ScenePart Part Indexed Indexed_1 Fill Stroke ColorStrokeBlack" data-item-index="1" data-renderer-id="0" transform="translate(158, 135)"><g id="1.left-bucket_sy_vaguet1rv07ii-fill" stroke="none" fill="#3bc482"><g><path d="M 10 11.8C 10 10.806 10.806 10 11.8 10L 80.2 10C 81.194 10 82 10.806 82 11.8C 82 20.747 74.747 28 65.8 28L 26.2 28C 17.253 28 10 20.747 10 11.8Z"></path></g></g></g><g id="g-root-tx_adaptsto_i0vrat1rv083s-fill" data-item-order="0" data-item-id="tx_adaptsto_i0vrat1rv083s" data-item-class="Label Stroke SceneTarget Indexed ColorStrokeBlack" data-item-index="2" data-renderer-id="0" transform="translate(26, 3)"><g id="tx_adaptsto_i0vrat1rv083s-fill" stroke="none" fill="#666666"><g><text style="font: 20px Roboto, sans-serif; white-space: pre;"><tspan x="12.42" y="34" dominant-baseline="ideographic">Adapts to new </tspan><tspan x="91.81" y="58" dominant-baseline="ideographic">tasks</tspan></text></g></g></g><g id="g-root-1_v486ph1ruru9s-fill" data-item-order="0" data-item-id="1_v486ph1ruru9s" data-item-class="Icon Stroke SceneTarget Indexed ColorStrokeBlack" data-item-index="2" data-renderer-id="0" transform="translate(170, 3)"></g><g id="g-root-fire_1q87nqt1rurshu-fill" data-item-order="0" data-item-id="fire_1q87nqt1rurshu" data-item-class="Icon Stroke SceneTarget Indexed ColorStrokeBlack" data-item-index="5" data-renderer-id="0" transform="translate(338, 3)"></g><g id="g-root-tx_computat_1q5po8l1rv1mh6-fill" data-item-order="0" data-item-id="tx_computat_1q5po8l1rv1mh6" data-item-class="Label Stroke SceneTarget Indexed ColorStrokeBlack" data-item-index="5" data-renderer-id="0" transform="translate(398, 3)"><g id="tx_computat_1q5po8l1rv1mh6-fill" stroke="none" fill="#666666"><g><text style="font: 20px Roboto, sans-serif; white-space: pre;"><tspan x="12" y="34" dominant-baseline="ideographic">Computationally </tspan><tspan x="12" y="58" dominant-baseline="ideographic">expensive</tspan></text></g></g></g><g id="g-root-tx_learnsco_1ly0c8l1rv09on-fill" data-item-order="0" data-item-id="tx_learnsco_1ly0c8l1rv09on" data-item-class="Label Stroke SceneTarget Indexed ColorStrokeBlack" data-item-index="3" data-renderer-id="0" transform="translate(2, 75)"><g id="tx_learnsco_1ly0c8l1rv09on-fill" stroke="none" fill="#666666"><g><text style="font: 20px Roboto, sans-serif; white-space: pre;"><tspan x="22.71" y="34" dominant-baseline="ideographic">Learns complex </tspan><tspan x="90.1" y="58" dominant-baseline="ideographic">patterns</tspan></text></g></g></g><g id="g-root-1_13zv6yd1rurspb-fill" data-item-order="0" data-item-id="1_13zv6yd1rurspb" data-item-class="Icon Stroke SceneTarget Indexed ColorStrokeBlack" data-item-index="3" data-renderer-id="0" transform="translate(170, 75)"></g><g id="g-root-1_4hxn1x1ruru9t-fill" data-item-order="0" data-item-id="1_4hxn1x1ruru9t" data-item-class="Icon Stroke SceneTarget Indexed ColorStrokeBlack" data-item-index="6" data-renderer-id="0" transform="translate(338, 75)"></g><g id="g-root-tx_needslab_8mid1rv1lvl-fill" data-item-order="0" data-item-id="tx_needslab_8mid1rv1lvl" data-item-class="Label Stroke SceneTarget Indexed ColorStrokeBlack" data-item-index="6" data-renderer-id="0" transform="translate(398, 75)"><g id="tx_needslab_8mid1rv1lvl-fill" stroke="none" fill="#666666"><g><text style="font: 20px Roboto, sans-serif; white-space: pre;"><tspan x="12" y="34" dominant-baseline="ideographic">Needs labeled </tspan><tspan x="12" y="58" dominant-baseline="ideographic">data</tspan></text></g></g></g><g id="g-root-tx_advantag_1cu95v91rv1o23-fill" data-item-order="0" data-item-id="tx_advantag_1cu95v91rv1o23" data-item-class="Label Stroke SceneTarget Indexed ColorStrokeBlack" data-item-index="none" data-renderer-id="0" transform="translate(50, 231)"><g id="tx_advantag_1cu95v91rv1o23-fill" stroke="none" fill="#666666"><g><text style="font: 20px Roboto, sans-serif; white-space: pre;"><tspan x="17.33" y="34" dominant-baseline="ideographic">Advantages</tspan></text></g></g></g><g id="g-root-tx_disadvan_18efnqt1rv1ouc-fill" data-item-order="0" data-item-id="tx_disadvan_18efnqt1rv1ouc" data-item-class="Label Stroke SceneTarget Indexed ColorStrokeBlack" data-item-index="none" data-renderer-id="0" transform="translate(374, 231)"><g id="tx_disadvan_18efnqt1rv1ouc-fill" stroke="none" fill="#666666"><g><text style="font: 20px Roboto, sans-serif; white-space: pre;"><tspan x="16.28" y="34" dominant-baseline="ideographic">Disadvantages</tspan></text></g></g></g><g id="g-root-5.cu_sy_quncad1rv08au-stroke" data-item-order="-31676" data-item-id="5.cu_sy_quncad1rv08au" data-item-class="ScenePart Part Indexed Stroke ColorFillGray ColorStrokeBlack" data-item-index="5" data-renderer-id="0" transform="translate(194, 154)"><g id="5.cu_sy_quncad1rv08au-stroke" fill="none" stroke-linecap="round" stroke-linejoin="round" stroke-miterlimit="4" stroke="#666666" stroke-width="2"><g><path d="M 178 10L 178 24.978C 178 29.395 174.42 32.976 170.003 32.978L 107 33M 10 10L 10 25.025C 10 29.444 13.582 33.025 18 33.025L 82 33.025"></path></g></g></g><g id="g-root-4.cu_sy_quncad1rv08at-stroke" data-item-order="-31675" data-item-id="4.cu_sy_quncad1rv08at" data-item-class="ScenePart Part Indexed Fill Stroke ColorFillGray ColorStrokeBlack" data-item-index="4" data-renderer-id="0" transform="translate(266, 165)"><g id="4.cu_sy_quncad1rv08at-stroke" fill="none" stroke-linecap="round" stroke-linejoin="round" stroke-miterlimit="4" stroke="#2c2c2c" stroke-width="2"><g><path d="M 34.086 22C 34.086 28.627 28.695 34 22.043 34C 15.392 34 10 28.627 10 22C 10 15.373 15.392 10 22.043 10C 28.695 10 34.086 15.373 34.086 22ZM 28 22C 28 25.314 25.314 28 22 28C 18.686 28 16 25.314 16 22C 16 18.686 18.686 16 22 16C 25.314 16 28 18.686 28 22Z"></path></g></g></g><g id="g-root-3.cu_sy_quncad1rv08as-stroke" data-item-order="-31673" data-item-id="3.cu_sy_quncad1rv08as" data-item-class="ScenePart Part Indexed Fill Stroke ColorFillGray ColorStrokeBlack" data-item-index="3" data-renderer-id="0" transform="translate(230, 186.32598876953125)"><g id="3.cu_sy_quncad1rv08as-stroke" fill="none" stroke-linecap="round" stroke-linejoin="round" stroke-miterlimit="4" stroke="#2c2c2c" stroke-width="2"><g><path d="M 22 78.674011L 94 78.674011C 94 78.674011 73.992 28.166011 65.959 10.058011C 63.725 11.952011 61.073 12.997011 58.043 12.997011C 54.986 12.997011 52.288 11.933011 50.072 10.000011C 42.047 28.114011 22 78.674011 22 78.674011ZM 18 78.679011C 13.582 78.679011 10 82.260011 10 86.679011L 10 88.679011C 10 89.783011 10.895 90.679011 12 90.679011L 104 90.679011C 105.105 90.679011 106 89.783011 106 88.679011L 106 86.679011C 106 82.260011 102.418 78.679011 98 78.679011L 18 78.679011Z"></path></g></g><g id="3.cu_sy_quncad1rv08as-stroke" fill="none" stroke-linecap="round" stroke-linejoin="round" stroke-miterlimit="4" stroke="#2c2c2c" stroke-width="2"><g><path d="M 58 58.679011L 54 62.679011L 54 71.749011C 55.177 71.068011 56.543 70.679011 58 70.679011C 59.457 70.679011 60.823 71.068011 62 71.749011L 62 62.679011L 58 58.679011ZM 62 71.749011C 60.823 71.068011 59.457 70.679011 58 70.679011C 56.543 70.679011 55.177 71.068011 54 71.749011C 51.609 73.132011 50 75.718011 50 78.679011L 66 78.679011C 66 75.718011 64.391 73.132011 62 71.749011ZM 58 49.679011L 58 55.479011M 78.503 58.176011L 74.404 62.274011M 37.497 58.176011L 41.596 62.274011M 64.747 53.468011L 64.003 56.262011M 44.94 56.078011L 46.4 58.591011M 71.031 56.068011L 69.59 58.572011M 51.224 53.478011L 51.978 56.271011"></path></g></g></g><g id="g-root-2.right-bucket_sy_vaguet1rv07ij-stroke" data-item-order="-31671" data-item-id="2.right-bucket_sy_vaguet1rv07ij" data-item-class="ScenePart Part Indexed Fill Stroke ColorStrokeBlack" data-item-index="2" data-renderer-id="0" transform="translate(326, 135)"><g id="2.right-bucket_sy_vaguet1rv07ij-stroke" fill="none" stroke-linecap="round" stroke-linejoin="round" stroke-miterlimit="4" stroke="#2c2c2c" stroke-width="2"><g><path d="M 10 11.8C 10 10.806 10.806 10 11.8 10L 80.2 10C 81.194 10 82 10.806 82 11.8C 82 20.747 74.747 28 65.8 28L 26.2 28C 17.253 28 10 20.747 10 11.8Z"></path></g></g></g><g id="g-root-1.left-bucket_sy_vaguet1rv07ii-stroke" data-item-order="-31669" data-item-id="1.left-bucket_sy_vaguet1rv07ii" data-item-class="ScenePart Part Indexed Indexed_1 Fill Stroke ColorStrokeBlack" data-item-index="1" data-renderer-id="0" transform="translate(158, 135)"><g id="1.left-bucket_sy_vaguet1rv07ii-stroke" fill="none" stroke-linecap="round" stroke-linejoin="round" stroke-miterlimit="4" stroke="#2c2c2c" stroke-width="2"><g><path d="M 10 11.8C 10 10.806 10.806 10 11.8 10L 80.2 10C 81.194 10 82 10.806 82 11.8C 82 20.747 74.747 28 65.8 28L 26.2 28C 17.253 28 10 20.747 10 11.8Z"></path></g></g></g><g id="g-root-tx_adaptsto_i0vrat1rv083s-stroke" data-item-order="0" data-item-id="tx_adaptsto_i0vrat1rv083s" data-item-class="Label Stroke SceneTarget Indexed ColorStrokeBlack" data-item-index="2" data-renderer-id="0" transform="translate(26, 3)"></g><g id="g-root-1_v486ph1ruru9s-stroke" data-item-order="0" data-item-id="1_v486ph1ruru9s" data-item-class="Icon Stroke SceneTarget Indexed ColorStrokeBlack" data-item-index="2" data-renderer-id="0" transform="translate(170, 3)"><g id="1_v486ph1ruru9s-stroke" fill="none" stroke-linecap="round" stroke-linejoin="round" stroke-miterlimit="4" stroke="#666666" stroke-width="2"><g><path d="M 14.146 47.689999C 11.94774 47.169472 10.587785 44.965324 11.108595 42.767132C 11.629406 40.568939 13.833726 39.209263 16.031853 39.730354C 18.22998 40.25145 19.589373 42.45594 19.068001 44.653999C 15.724 42.400002 13.856 42.978001 14.146 47.689999ZM 23.689999 11L 44.310001 11C 46.519138 11 48.310001 12.790861 48.310001 15L 48.310001 24.290001L 48.310001 24.290001L 19.689999 24.290001L 19.689999 24.290001L 19.689999 15C 19.689999 12.790861 21.480862 11 23.689999 11ZM 48.310001 30.422001C 48.308556 38.324173 41.902176 44.729385 34 44.729385C 26.097826 44.729385 19.691444 38.324173 19.690001 30.422001L 19.689999 24.290001L 48.310001 24.290001ZM 29 18C 29 18.276142 29.223858 18.5 29.5 18.5C 29.776142 18.5 30 18.276142 30 18C 30 17.723858 29.776142 17.5 29.5 17.5C 29.223858 17.5 29 17.723858 29 18M 38 18C 38 18.276142 38.223858 18.5 38.5 18.5C 38.776142 18.5 39 18.276142 39 18C 39 17.723858 38.776142 17.5 38.5 17.5C 38.223858 17.5 38 17.723858 38 18M 29.714001 29.716L 38.288002 29.716C 38.288002 29.716 40.288002 29.716 40.288002 31.716L 40.288002 35.260002C 40.288002 35.260002 40.288002 37.260002 38.288002 37.260002L 29.714001 37.260002C 29.714001 37.260002 27.714001 37.260002 27.714001 35.260002L 27.714001 31.716C 27.714001 31.716 27.714001 29.716 29.714001 29.716M 29.646 44.057999L 27.822001 54.953999C 27.823105 56.083649 26.907652 57 25.778 57L 17.92 57C 17.211699 57.00066 16.555878 56.626637 16.19582 56.016678C 15.835764 55.406719 15.825182 54.651814 16.167999 54.032001C 17.247704 52.078285 19.303789 50.865623 21.535999 50.866001L 23.164 50.866001L 24.9 41.466M 14.578 39.622002C 13.138431 37.701649 12.693361 35.212994 13.378119 32.912727C 14.062876 30.612465 15.796548 28.772392 18.052 27.952L 19.689999 27.351999M 53.854 47.689999C 56.052261 47.169472 57.412216 44.965324 56.891407 42.767132C 56.370594 40.568939 54.166275 39.209263 51.968147 39.730354C 49.77002 40.25145 48.410629 42.45594 48.931999 44.653999C 52.523998 42.330002 54.217999 43.248001 53.854 47.689999ZM 53.422001 39.622002C 54.861568 37.701649 55.306637 35.212994 54.62188 32.912727C 53.937122 30.612465 52.203449 28.772392 49.947998 27.952L 48.310001 27.351999M 23.164 50.866001C 23.164 50.866001 27.822001 51.512001 27.822001 54.953999M 24.164 46.658001L 28.912001 48.438M 38.354 44.057999L 40.178001 54.953999C 40.176895 56.083649 41.092346 57 42.222 57L 50.080002 57C 50.788303 57.00066 51.444122 56.626637 51.80418 56.016678C 52.164238 55.406719 52.17482 54.651814 51.832001 54.032001C 50.752296 52.078285 48.696213 50.865623 46.464001 50.866001L 44.835999 50.866001L 43.099998 41.466M 44.835999 50.866001C 44.835999 50.866001 40.178001 51.512001 40.178001 54.953999M 43.835999 46.658001L 39.087997 48.438M 19.689999 18L 24.987999 18M 48.310001 18L 43.012001 18"></path></g></g></g><g id="g-root-fire_1q87nqt1rurshu-stroke" data-item-order="0" data-item-id="fire_1q87nqt1rurshu" data-item-class="Icon Stroke SceneTarget Indexed ColorStrokeBlack" data-item-index="5" data-renderer-id="0" transform="translate(338, 3)"><g id="fire_1q87nqt1rurshu-stroke" fill="none" stroke-linecap="round" stroke-linejoin="round" stroke-miterlimit="4" stroke="#666666" stroke-width="2"><g><path d="M 41 35L 41 49C 41 50.104568 40.104568 51 39 51L 19 51C 17.895432 51 17 50.104568 17 49L 17 29C 17 27.89543 17.895432 27 19 27L 37 27M 29 51L 29 57M 37 51L 37 57M 29 21L 29 27M 21 51L 21 57M 21 21L 21 27M 41 47L 47 47M 17 39L 11 39M 47 39L 41 39M 17 31L 11 31M 17 47L 11 47M 21 31L 37 31L 37 47L 21 47ZM 46 11C 48.984539 13.418755 49.824669 17.619404 48 21C 46.954201 20.312485 46.232399 19.229782 46 18C 42.990715 19.000843 40.970757 21.828781 41 25C 41 29.418278 44.581722 33 49 33C 53.418278 33 57 29.418278 57 25C 56.932243 18.378864 52.417122 12.632347 46 11Z"></path></g></g></g><g id="g-root-tx_computat_1q5po8l1rv1mh6-stroke" data-item-order="0" data-item-id="tx_computat_1q5po8l1rv1mh6" data-item-class="Label Stroke SceneTarget Indexed ColorStrokeBlack" data-item-index="5" data-renderer-id="0" transform="translate(398, 3)"></g><g id="g-root-tx_learnsco_1ly0c8l1rv09on-stroke" data-item-order="0" data-item-id="tx_learnsco_1ly0c8l1rv09on" data-item-class="Label Stroke SceneTarget Indexed ColorStrokeBlack" data-item-index="3" data-renderer-id="0" transform="translate(2, 75)"></g><g id="g-root-1_13zv6yd1rurspb-stroke" data-item-order="0" data-item-id="1_13zv6yd1rurspb" data-item-class="Icon Stroke SceneTarget Indexed ColorStrokeBlack" data-item-index="3" data-renderer-id="0" transform="translate(170, 75)"><g id="1_13zv6yd1rurspb-stroke" fill="none" stroke-linecap="round" stroke-linejoin="round" stroke-miterlimit="4" stroke="#666666" stroke-width="2"><g><path d="M 21.9 50.722C 24.020437 50.369061 25.810703 48.951202 26.639999 46.967999M 14.842 27.091999C 18.933346 27.809448 22.448338 30.41087 24.33 34.113998M 21.566 30.458L 25.152 27.768M 30 11.346C 29.961555 13.350931 29.599562 15.336494 28.928001 17.226M 26 19C 26 20.104568 26.89543 21 28 21C 29.10457 21 30 20.104568 30 19C 30 17.895432 29.10457 17 28 17C 26.89543 17 26 17.895432 26 19ZM 38 23C 38 24.104568 38.895432 25 40 25C 41.104568 25 42 24.104568 42 23C 42 21.895432 41.104568 21 40 21C 38.895432 21 38 21.895432 38 23ZM 45 31C 45 32.104568 45.895432 33 47 33C 48.104568 33 49 32.104568 49 31C 49 29.89543 48.104568 29 47 29C 45.895432 29 45 29.89543 45 31ZM 38 38C 38 39.104568 38.895432 40 40 40C 41.104568 40 42 39.104568 42 38C 42 36.895432 41.104568 36 40 36C 38.895432 36 38 36.895432 38 38ZM 25 27C 25 28.10457 25.895432 29 27 29C 28.10457 29 29 28.10457 29 27C 29 25.895432 28.10457 25 27 25C 25.895432 25 25 25.895432 25 27ZM 23 36C 23 37.104568 23.895432 38 25 38C 26.10457 38 27 37.104568 27 36C 27 34.895432 26.10457 34 25 34C 23.895432 34 23 34.895432 23 36ZM 57 34C 57.008011 31.185829 55.553005 28.569696 53.158001 27.092001C 53.293533 26.501471 53.363956 25.897869 53.368 25.292C 53.408073 21.133251 50.242878 17.643175 46.099998 17.278C 46.141312 15.640398 45.524818 14.054508 44.388306 12.874773C 43.251789 11.695037 41.690002 11.019809 40.052002 11C 37.462227 11.148269 35.151451 12.67555 34 15C 32.848549 12.67555 30.537773 11.148269 27.948 11C 26.309998 11.019809 24.748211 11.695037 23.611694 12.874773C 22.47518 14.054508 21.858686 15.640398 21.9 17.278C 17.755573 17.643291 14.589825 21.135719 14.632 25.296C 14.632763 25.901501 14.699829 26.505098 14.832 27.095999C 12.44329 28.57963 10.990566 31.192043 10.990566 34.003998C 10.990566 36.815956 12.44329 39.428368 14.832 40.911999C 14.699829 41.502899 14.632763 42.106499 14.632 42.711998C 14.594027 46.869217 17.758669 50.356941 21.9 50.722C 21.858686 52.3596 22.47518 53.945492 23.611694 55.125225C 24.748211 56.304962 26.309998 56.98019 27.948 57C 30.33633 57.057899 32.59996 55.93581 34 53.999996C 35.40004 55.93581 37.663666 57.057899 40.051998 56.999996C 41.690002 56.98019 43.251789 56.304962 44.388306 55.125225C 45.524818 53.945492 46.141312 52.3596 46.099998 50.722C 50.244423 50.356709 53.410175 46.864277 53.368 42.703999C 53.363956 42.098129 53.293533 41.49453 53.157997 40.903999C 55.551788 39.427048 57.006618 36.812752 57 34ZM 34 15L 34 38M 34 45.916L 34 54M 52.346001 21.326L 46.799999 24.102001C 45.179813 24.913155 43.276203 24.932337 41.639999 24.153999M 40 36C 40.593044 33.525269 42.525269 31.593044 45.000004 31.000002M 46.099998 50.722C 45.548 48.799999 44.605999 47.321999 43 47M 25 45C 25 46.104568 25.895432 47 27 47C 28.10457 47 29 46.104568 29 45C 29 43.895432 28.10457 43 27 43C 25.895432 43 25 43.895432 25 45ZM 39 47C 39 48.104568 39.895432 49 41 49C 42.104568 49 43 48.104568 43 47C 43 45.895432 42.104568 45 41 45C 39.895432 45 39 45.895432 39 47Z"></path></g></g></g><g id="g-root-1_4hxn1x1ruru9t-stroke" data-item-order="0" data-item-id="1_4hxn1x1ruru9t" data-item-class="Icon Stroke SceneTarget Indexed ColorStrokeBlack" data-item-index="6" data-renderer-id="0" transform="translate(338, 75)"><g id="1_4hxn1x1ruru9t-stroke" fill="none" stroke-linecap="round" stroke-linejoin="round" stroke-miterlimit="4" stroke="#666666" stroke-width="2"><g><path d="M 13 11.008L 55 11.008C 55 11.008 57 11.008 57 13.007999L 57 55.007999C 57 55.007999 57 57.007999 55 57.007999L 13 57.007999C 13 57.007999 11 57.007999 11 55.007999L 11 13.007999C 11 13.007999 11 11.008 13 11.008M 22 33.007999L 22 49.007999M 18 49.007999L 26 49.007999M 18 33.007999L 26 33.007999M 38 33L 33.708 33C 31.988787 33.000622 30.495478 34.182915 30.100515 35.856148C 29.705553 37.529373 30.512537 39.254646 32.050003 40.024002L 35.950001 41.973999C 37.489807 42.742203 38.298763 44.46883 37.903542 46.143627C 37.508324 47.818424 36.012798 49.00124 34.292 49L 30 49M 50 45C 50 47.209141 48.209141 49 46 49C 43.790859 49 42 47.209141 42 45L 42 37C 42 34.790863 43.790859 33 46 33C 48.209141 33 50 34.790863 50 37Z"></path></g></g></g><g id="g-root-tx_needslab_8mid1rv1lvl-stroke" data-item-order="0" data-item-id="tx_needslab_8mid1rv1lvl" data-item-class="Label Stroke SceneTarget Indexed ColorStrokeBlack" data-item-index="6" data-renderer-id="0" transform="translate(398, 75)"></g><g id="g-root-tx_advantag_1cu95v91rv1o23-stroke" data-item-order="0" data-item-id="tx_advantag_1cu95v91rv1o23" data-item-class="Label Stroke SceneTarget Indexed ColorStrokeBlack" data-item-index="none" data-renderer-id="0" transform="translate(50, 231)"></g><g id="g-root-tx_disadvan_18efnqt1rv1ouc-stroke" data-item-order="0" data-item-id="tx_disadvan_18efnqt1rv1ouc" data-item-class="Label Stroke SceneTarget Indexed ColorStrokeBlack" data-item-index="none" data-renderer-id="0" transform="translate(374, 231)"></g></g></g></svg>