<?xml version="1.0" encoding="utf-8" standalone="yes"?>
<!DOCTYPE svg PUBLIC "-//W3C//DTD SVG 1.1//EN" "http://www.w3.org/Graphics/SVG/1.1/DTD/svg11.dtd">
<svg width="768" height="343" viewBox="0 0 768 343" style="fill:none;stroke:none;fill-rule:evenodd;clip-rule:evenodd;stroke-linecap:round;stroke-linejoin:round;stroke-miterlimit:1.5;" version="1.1" xmlns="http://www.w3.org/2000/svg" xmlns:xlink="http://www.w3.org/1999/xlink"><style id="fontImports">@import url("https://fonts.googleapis.com/css2?family=Shantell+Sans:wght@300..800&amp;display=block");</style><rect id="" x="0" y="0" width="768" height="343" style="fill: #ffffff;"></rect><g id="items" style="isolation: isolate"><g id="blend" style="mix-blend-mode:multiply"><g id="g-root--1.cu_sy_4kgezp1sym0hu-fill" data-item-order="-149756" data-item-id="-1.cu_sy_4kgezp1sym0hu" data-item-class="ScenePart Part Fill Stroke ColorFillGray ColorStrokeGray" data-item-index="-1" data-renderer-id="0" transform="translate(217, 57.000030517578125)"><g id="-1.cu_sy_4kgezp1sym0hu-fill" stroke="none" fill="#eaeaea"><g><path d="M 125 34L 101 10L 10 166L 34 190L 125 34ZM 125 34L 34 190L 216 190L 125 34Z"></path></g></g></g><g id="g-root-0.line-start_sy_1uqjxt11sylxxn-fill" data-item-order="-149753" data-item-id="0.line-start_sy_1uqjxt11sylxxn" data-item-class="ScenePart Part Indexed_0 Stroke ColorStrokeBlack" data-item-index="0" data-renderer-id="0" transform="translate(194, 159)"></g><g id="g-root-0.cr-small_cr_1uqjxt11sylxxo-fill" data-item-order="-149752" data-item-id="0.cr-small_cr_1uqjxt11sylxxo" data-item-class="Shape Stroke Fill ScenePart Part Indexed_0 ColorFillGray ColorStrokeBlack" data-item-index="0" data-renderer-id="0" transform="translate(122, 123)"><g id="0.cr-small_cr_1uqjxt11sylxxo-fill" stroke="none" fill="#eaeaea"><g><path d="M 10 46C 10 65.882251 26.117749 82 46 82C 65.882251 82 82 65.882251 82 46C 82 26.117749 65.882251 10 46 10C 26.117749 10 10 26.117749 10 46"></path></g></g></g><g id="g-root-4.line_sy_1cz9xb91sym0az-fill" data-item-order="-149749" data-item-id="4.line_sy_1cz9xb91sym0az" data-item-class="ScenePart Part Indexed Stroke" data-item-index="4" data-renderer-id="0" transform="translate(286.5, 159)"></g><g id="g-root-4.cr-small_cr_1cz9xb91sym0b0-fill" data-item-order="-149748" data-item-id="4.cr-small_cr_1cz9xb91sym0b0" data-item-class="Shape Stroke Fill ScenePart Part Indexed" data-item-index="4" data-renderer-id="0" transform="translate(542, 255)"><g id="4.cr-small_cr_1cz9xb91sym0b0-fill" stroke="none" fill="#fdd0eb"><g><path d="M 10 40C 10.000002 56.568544 23.431459 70.000002 40.000002 70.000002C 56.568544 70.000002 70.000002 56.568544 70.000002 40.000002C 70.000002 23.431459 56.568544 10.000002 40.000002 10.000002C 23.431459 10.000002 10.000002 23.431459 10.000002 40.000002"></path></g></g></g><g id="g-root-3.line_sy_1luwxk51sylzi9-fill" data-item-order="-149745" data-item-id="3.line_sy_1luwxk51sylzi9" data-item-class="ScenePart Part Indexed Stroke" data-item-index="3" data-renderer-id="0" transform="translate(287, 159)"></g><g id="g-root-3.cr-small_cr_1luwxk51sylzia-fill" data-item-order="-149744" data-item-id="3.cr-small_cr_1luwxk51sylzia" data-item-class="Shape Stroke Fill ScenePart Part Indexed" data-item-index="3" data-renderer-id="0" transform="translate(542, 171)"><g id="3.cr-small_cr_1luwxk51sylzia-fill" stroke="none" fill="#ffd0ce"><g><path d="M 10 40C 10.000002 56.568544 23.431459 70.000002 40.000002 70.000002C 56.568544 70.000002 70.000002 56.568544 70.000002 40.000002C 70.000002 23.431459 56.568544 10.000002 40.000002 10.000002C 23.431459 10.000002 10.000002 23.431459 10.000002 40.000002"></path></g></g></g><g id="g-root-2.line_sy_1qaqfol1sylypz-fill" data-item-order="-149741" data-item-id="2.line_sy_1qaqfol1sylypz" data-item-class="ScenePart Part Indexed Stroke" data-item-index="2" data-renderer-id="0" transform="translate(286.5, 117)"></g><g id="g-root-2.cr-small_cr_1luwxk51sylzi8-fill" data-item-order="-149740" data-item-id="2.cr-small_cr_1luwxk51sylzi8" data-item-class="Shape Stroke Fill ScenePart Part Indexed" data-item-index="2" data-renderer-id="0" transform="translate(542, 87)"><g id="2.cr-small_cr_1luwxk51sylzi8-fill" stroke="none" fill="#fde6cf"><g><path d="M 10 40C 10.000002 56.568544 23.431459 70.000002 40.000002 70.000002C 56.568544 70.000002 70.000002 56.568544 70.000002 40.000002C 70.000002 23.431459 56.568544 10.000002 40.000002 10.000002C 23.431459 10.000002 10.000002 23.431459 10.000002 40.000002"></path></g></g></g><g id="g-root-1.line_sy_1qaqfol1sylypx-fill" data-item-order="-149737" data-item-id="1.line_sy_1qaqfol1sylypx" data-item-class="ScenePart Part Indexed Indexed_1 Stroke" data-item-index="1" data-renderer-id="0" transform="translate(286.5, 33.000030517578125)"></g><g id="g-root-1.cr-small_cr_1qaqfol1sylypy-fill" data-item-order="-149736" data-item-id="1.cr-small_cr_1qaqfol1sylypy" data-item-class="Shape Stroke Fill ScenePart Part Indexed Indexed_1" data-item-index="1" data-renderer-id="0" transform="translate(542, 3)"><g id="1.cr-small_cr_1qaqfol1sylypy-fill" stroke="none" fill="#fff9ce"><g><path d="M 10 40C 10.000002 56.568544 23.431459 70.000002 40.000002 70.000002C 56.568544 70.000002 70.000002 56.568544 70.000002 40.000002C 70.000002 23.431459 56.568544 10.000002 40.000002 10.000002C 23.431459 10.000002 10.000002 23.431459 10.000002 40.000002"></path></g></g></g><g id="g-root-sear_de7zz91syrklc-fill" data-item-order="0" data-item-id="sear_de7zz91syrklc" data-item-class="Icon Stroke SceneTarget Indexed Indexed_1 InsideFill" data-item-index="1" data-renderer-id="0" transform="translate(554, 15)"></g><g id="g-root-tx_patternr_18lbug51sym03l-fill" data-item-order="0" data-item-id="tx_patternr_18lbug51sym03l" data-item-class="Label Stroke SceneTarget Indexed Indexed_1 ColorStrokeBlack" data-item-index="1" data-renderer-id="0" transform="translate(614, 9)"><g id="tx_patternr_18lbug51sym03l-fill" stroke="none" fill="#484848"><g><text style="font: 20px &quot;Shantell Sans&quot;, cursive; white-space: pre;"><tspan x="12" y="35.33" dominant-baseline="ideographic">Pattern </tspan><tspan x="12" y="59.33" dominant-baseline="ideographic">Recognition</tspan></text></g></g></g><g id="g-root-home_4kgezp1syrkeb-fill" data-item-order="0" data-item-id="home_4kgezp1syrkeb" data-item-class="Icon Stroke SceneTarget Indexed InsideFill" data-item-index="2" data-renderer-id="0" transform="translate(554, 99)"></g><g id="g-root-tx_imagepro_1lwscth1sylyio-fill" data-item-order="0" data-item-id="tx_imagepro_1lwscth1sylyio" data-item-class="Label Stroke SceneTarget Indexed ColorStrokeBlack" data-item-index="2" data-renderer-id="0" transform="translate(614, 93)"><g id="tx_imagepro_1lwscth1sylyio-fill" stroke="none" fill="#484848"><g><text style="font: 20px &quot;Shantell Sans&quot;, cursive; white-space: pre;"><tspan x="12" y="35.33" dominant-baseline="ideographic">Image </tspan><tspan x="12" y="59.33" dominant-baseline="ideographic">Processing</tspan></text></g></g></g><g id="g-root-tx_neuralne_mczdnp1sym0b1-fill" data-item-order="0" data-item-id="tx_neuralne_mczdnp1sym0b1" data-item-class="Label Stroke SceneTarget SceneStart ColorStrokeBlack" data-item-index="none" data-renderer-id="0" transform="translate(2, 135)"><g id="tx_neuralne_mczdnp1sym0b1-fill" stroke="none" fill="#484848"><g><text style="font: 20px &quot;Shantell Sans&quot;, cursive; white-space: pre;"><tspan x="51.9" y="35.33" dominant-baseline="ideographic">Neural </tspan><tspan x="22.33" y="59.33" dominant-baseline="ideographic">Networks</tspan></text></g></g></g><g id="g-root-1_1cvj2sl1syrm6l-fill" data-item-order="0" data-item-id="1_1cvj2sl1syrm6l" data-item-class="Icon Stroke SceneTarget SceneStart InsideFill InsideGrayFill ColorStrokeBlack" data-item-index="none" data-renderer-id="0" transform="translate(134, 135)"></g><g id="g-root-web_htf10l1syrmyv-fill" data-item-order="0" data-item-id="web_htf10l1syrmyv" data-item-class="Icon Stroke SceneTarget Indexed InsideFill" data-item-index="3" data-renderer-id="0" transform="translate(554, 183)"></g><g id="g-root-tx_language_1qcluxx1sylxqf-fill" data-item-order="0" data-item-id="tx_language_1qcluxx1sylxqf" data-item-class="Label Stroke SceneTarget Indexed ColorStrokeBlack" data-item-index="3" data-renderer-id="0" transform="translate(614, 177)"><g id="tx_language_1qcluxx1sylxqf-fill" stroke="none" fill="#484848"><g><text style="font: 20px &quot;Shantell Sans&quot;, cursive; white-space: pre;"><tspan x="12" y="35.33" dominant-baseline="ideographic">Language </tspan><tspan x="12" y="59.33" dominant-baseline="ideographic">Translation</tspan></text></g></g></g><g id="g-root-tx_autonomo_4mbu911sylzie-fill" data-item-order="0" data-item-id="tx_autonomo_4mbu911sylzie" data-item-class="Label Stroke SceneTarget Indexed ColorStrokeBlack" data-item-index="4" data-renderer-id="0" transform="translate(614, 249)"><g id="tx_autonomo_4mbu911sylzie-fill" stroke="none" fill="#484848"><g><text style="font: 20px &quot;Shantell Sans&quot;, cursive; white-space: pre;"><tspan x="12" y="35.33" dominant-baseline="ideographic">Autonomous </tspan><tspan x="12" y="59.33" dominant-baseline="ideographic">Decision-</tspan><tspan x="12" y="83.33" dominant-baseline="ideographic">Making</tspan></text></g></g></g><g id="g-root-dron_v4vjdx1syrldy-fill" data-item-order="0" data-item-id="dron_v4vjdx1syrldy" data-item-class="Icon Stroke SceneTarget Indexed InsideFill" data-item-index="4" data-renderer-id="0" transform="translate(554, 267)"></g><g id="g-root--1.cu_sy_4kgezp1sym0hu-stroke" data-item-order="-149756" data-item-id="-1.cu_sy_4kgezp1sym0hu" data-item-class="ScenePart Part Fill Stroke ColorFillGray ColorStrokeGray" data-item-index="-1" data-renderer-id="0" transform="translate(217, 57.000030517578125)"><g id="-1.cu_sy_4kgezp1sym0hu-stroke" fill="none" stroke-linecap="round" stroke-linejoin="round" stroke-miterlimit="4" stroke="#A3A3A3" stroke-width="2"><g><path d="M 125 34L 101 10L 10 166L 34 190L 125 34ZM 125 34L 34 190L 216 190L 125 34Z"></path></g></g></g><g id="g-root-0.line-start_sy_1uqjxt11sylxxn-stroke" data-item-order="-149753" data-item-id="0.line-start_sy_1uqjxt11sylxxn" data-item-class="ScenePart Part Indexed_0 Stroke ColorStrokeBlack" data-item-index="0" data-renderer-id="0" transform="translate(194, 159)"><g id="0.line-start_sy_1uqjxt11sylxxn-stroke" fill="none" stroke-linecap="round" stroke-linejoin="round" stroke-miterlimit="4" stroke="#666666" stroke-width="2"><g><path d="M 10 10.000031L 102.5 10.000031"></path></g></g></g><g id="g-root-0.cr-small_cr_1uqjxt11sylxxo-stroke" data-item-order="-149752" data-item-id="0.cr-small_cr_1uqjxt11sylxxo" data-item-class="Shape Stroke Fill ScenePart Part Indexed_0 ColorFillGray ColorStrokeBlack" data-item-index="0" data-renderer-id="0" transform="translate(122, 123)"><g id="0.cr-small_cr_1uqjxt11sylxxo-stroke" fill="none" stroke-linecap="round" stroke-linejoin="round" stroke-miterlimit="4" stroke="#2c2c2c" stroke-width="2"><g><path d="M 10 46C 10 65.882251 26.117749 82 46 82C 65.882251 82 82 65.882251 82 46C 82 26.117749 65.882251 10 46 10C 26.117749 10 10 26.117749 10 46"></path></g></g></g><g id="g-root-4.line_sy_1cz9xb91sym0az-stroke" data-item-order="-149749" data-item-id="4.line_sy_1cz9xb91sym0az" data-item-class="ScenePart Part Indexed Stroke" data-item-index="4" data-renderer-id="0" transform="translate(286.5, 159)"><g id="4.line_sy_1cz9xb91sym0az-stroke" fill="none" stroke-linecap="round" stroke-linejoin="round" stroke-miterlimit="4" stroke="#F669BE" stroke-width="2"><g><path d="M 257.88 134.82L 111.5 28L 10 10"></path><path d="M 249.2 136.5L 258.3 135.1L 256.9 126" stroke-dasharray="none"></path></g></g></g><g id="g-root-4.cr-small_cr_1cz9xb91sym0b0-stroke" data-item-order="-149748" data-item-id="4.cr-small_cr_1cz9xb91sym0b0" data-item-class="Shape Stroke Fill ScenePart Part Indexed" data-item-index="4" data-renderer-id="0" transform="translate(542, 255)"><g id="4.cr-small_cr_1cz9xb91sym0b0-stroke" fill="none" stroke-linecap="round" stroke-linejoin="round" stroke-miterlimit="4" stroke="#da5da8" stroke-width="2"><g><path d="M 10 40C 10.000002 56.568544 23.431459 70.000002 40.000002 70.000002C 56.568544 70.000002 70.000002 56.568544 70.000002 40.000002C 70.000002 23.431459 56.568544 10.000002 40.000002 10.000002C 23.431459 10.000002 10.000002 23.431459 10.000002 40.000002"></path></g></g></g><g id="g-root-3.line_sy_1luwxk51sylzi9-stroke" data-item-order="-149745" data-item-id="3.line_sy_1luwxk51sylzi9" data-item-class="ScenePart Part Indexed Stroke" data-item-index="3" data-renderer-id="0" transform="translate(287, 159)"><g id="3.line_sy_1luwxk51sylzi9-stroke" fill="none" stroke-linecap="round" stroke-linejoin="round" stroke-miterlimit="4" stroke="#FD6A65" stroke-width="2"><g><path d="M 257.05 51.55L 104 16L 10 10"></path><path d="M 249.7 56.5L 257.5 51.7L 252.7 43.9" stroke-dasharray="none"></path></g></g></g><g id="g-root-3.cr-small_cr_1luwxk51sylzia-stroke" data-item-order="-149744" data-item-id="3.cr-small_cr_1luwxk51sylzia" data-item-class="Shape Stroke Fill ScenePart Part Indexed" data-item-index="3" data-renderer-id="0" transform="translate(542, 171)"><g id="3.cr-small_cr_1luwxk51sylzia-stroke" fill="none" stroke-linecap="round" stroke-linejoin="round" stroke-miterlimit="4" stroke="#e15e5a" stroke-width="2"><g><path d="M 10 40C 10.000002 56.568544 23.431459 70.000002 40.000002 70.000002C 56.568544 70.000002 70.000002 56.568544 70.000002 40.000002C 70.000002 23.431459 56.568544 10.000002 40.000002 10.000002C 23.431459 10.000002 10.000002 23.431459 10.000002 40.000002"></path></g></g></g><g id="g-root-2.line_sy_1qaqfol1sylypz-stroke" data-item-order="-149741" data-item-id="2.line_sy_1qaqfol1sylypz" data-item-class="ScenePart Part Indexed Stroke" data-item-index="2" data-renderer-id="0" transform="translate(286.5, 117)"><g id="2.line_sy_1qaqfol1sylypz-stroke" fill="none" stroke-linecap="round" stroke-linejoin="round" stroke-miterlimit="4" stroke="#F99539" stroke-width="2"><g><path d="M 257.55 10.43L 97.5 46L 10 52"></path><path d="M 253.1 18.1L 258 10.3L 250.3 5.4" stroke-dasharray="none"></path></g></g></g><g id="g-root-2.cr-small_cr_1luwxk51sylzi8-stroke" data-item-order="-149740" data-item-id="2.cr-small_cr_1luwxk51sylzi8" data-item-class="Shape Stroke Fill ScenePart Part Indexed" data-item-index="2" data-renderer-id="0" transform="translate(542, 87)"><g id="2.cr-small_cr_1luwxk51sylzi8-stroke" fill="none" stroke-linecap="round" stroke-linejoin="round" stroke-miterlimit="4" stroke="#dd8433" stroke-width="2"><g><path d="M 10 40C 10.000002 56.568544 23.431459 70.000002 40.000002 70.000002C 56.568544 70.000002 70.000002 56.568544 70.000002 40.000002C 70.000002 23.431459 56.568544 10.000002 40.000002 10.000002C 23.431459 10.000002 10.000002 23.431459 10.000002 40.000002"></path></g></g></g><g id="g-root-1.line_sy_1qaqfol1sylypx-stroke" data-item-order="-149737" data-item-id="1.line_sy_1qaqfol1sylypx" data-item-class="ScenePart Part Indexed Indexed_1 Stroke" data-item-index="1" data-renderer-id="0" transform="translate(286.5, 33.000030517578125)"><g id="1.line_sy_1qaqfol1sylypx-stroke" fill="none" stroke-linecap="round" stroke-linejoin="round" stroke-miterlimit="4" stroke="#FFE60A" stroke-width="2"><g><path d="M 10 135.999969L 90.5 117.999969L 257.81 11.079969"></path><path d="M 256.3 19.799969L 258.2 10.799969L 249.3 8.799969" stroke-dasharray="none"></path></g></g></g><g id="g-root-1.cr-small_cr_1qaqfol1sylypy-stroke" data-item-order="-149736" data-item-id="1.cr-small_cr_1qaqfol1sylypy" data-item-class="Shape Stroke Fill ScenePart Part Indexed Indexed_1" data-item-index="1" data-renderer-id="0" transform="translate(542, 3)"><g id="1.cr-small_cr_1qaqfol1sylypy-stroke" fill="none" stroke-linecap="round" stroke-linejoin="round" stroke-miterlimit="4" stroke="#e3cd09" stroke-width="2"><g><path d="M 10 40C 10.000002 56.568544 23.431459 70.000002 40.000002 70.000002C 56.568544 70.000002 70.000002 56.568544 70.000002 40.000002C 70.000002 23.431459 56.568544 10.000002 40.000002 10.000002C 23.431459 10.000002 10.000002 23.431459 10.000002 40.000002"></path></g></g></g><g id="g-root-sear_de7zz91syrklc-stroke" data-item-order="0" data-item-id="sear_de7zz91syrklc" data-item-class="Icon Stroke SceneTarget Indexed Indexed_1 InsideFill" data-item-index="1" data-renderer-id="0" transform="translate(554, 15)"><g id="sear_de7zz91syrklc-stroke" fill="none" stroke-linecap="round" stroke-linejoin="round" stroke-miterlimit="4" stroke="#e3cd09" stroke-width="2"><g><path d="M 11.285714 25.222857C 11.284246 32.921165 17.524548 39.162659 25.222857 39.162659C 32.921165 39.162659 39.161465 32.921165 39.16 25.222857C 39.161465 17.524548 32.921165 11.283056 25.222857 11.283056C 17.524548 11.283056 11.284246 17.524548 11.285714 25.222857M 44.714287 44.714287L 35.071426 35.071426"></path></g></g></g><g id="g-root-tx_patternr_18lbug51sym03l-stroke" data-item-order="0" data-item-id="tx_patternr_18lbug51sym03l" data-item-class="Label Stroke SceneTarget Indexed Indexed_1 ColorStrokeBlack" data-item-index="1" data-renderer-id="0" transform="translate(614, 9)"></g><g id="g-root-home_4kgezp1syrkeb-stroke" data-item-order="0" data-item-id="home_4kgezp1syrkeb" data-item-class="Icon Stroke SceneTarget Indexed InsideFill" data-item-index="2" data-renderer-id="0" transform="translate(554, 99)"><g id="home_4kgezp1syrkeb-stroke" fill="none" stroke-linecap="round" stroke-linejoin="round" stroke-miterlimit="4" stroke="#dd8433" stroke-width="2"><g><path d="M 16.75 21.25C 16.75 22.906855 18.093145 24.25 19.75 24.25C 21.406855 24.25 22.75 22.906855 22.75 21.25C 22.75 19.593145 21.406855 18.25 19.75 18.25C 18.093145 18.25 16.75 19.593145 16.75 21.25ZM 30.25 29.049999L 27.889 25.2715C 27.751945 25.052212 27.511593 24.918997 27.253 24.918997C 26.994406 24.918997 26.754053 25.052212 26.617001 25.2715L 22.657 31.599998L 21.042999 29.017C 20.905947 28.797714 20.665592 28.664497 20.407 28.664497C 20.148407 28.664497 19.908054 28.797714 19.771 29.017L 15.25 36.25L 21.25 36.25M 24.25 45.25L 12.25 45.25C 11.421573 45.25 10.75 44.578426 10.75 43.75L 10.75 12.25C 10.75 11.421573 11.421573 10.75 12.25 10.75L 32.189499 10.75C 32.587292 10.750085 32.968761 10.908176 33.25 11.1895L 38.810501 16.75C 39.091827 17.031239 39.249916 17.412708 39.25 17.810499L 39.25 25.75M 28.75 34.462002L 28.75 43.75C 28.75 44.578426 29.421572 45.25 30.25 45.25L 40.75 45.25C 41.578426 45.25 42.25 44.578426 42.25 43.75L 42.25 34.462002M 10 10M 25.75 37L 34.530998 29.570499C 35.090298 29.097176 35.909702 29.097176 36.469002 29.570499L 45.25 37M 37.75 45.25L 33.25 45.25L 33.25 40.75C 33.25 39.507362 34.257362 38.5 35.5 38.5C 36.742641 38.5 37.75 39.507362 37.75 40.75Z"></path></g></g></g><g id="g-root-tx_imagepro_1lwscth1sylyio-stroke" data-item-order="0" data-item-id="tx_imagepro_1lwscth1sylyio" data-item-class="Label Stroke SceneTarget Indexed ColorStrokeBlack" data-item-index="2" data-renderer-id="0" transform="translate(614, 93)"></g><g id="g-root-tx_neuralne_mczdnp1sym0b1-stroke" data-item-order="0" data-item-id="tx_neuralne_mczdnp1sym0b1" data-item-class="Label Stroke SceneTarget SceneStart ColorStrokeBlack" data-item-index="none" data-renderer-id="0" transform="translate(2, 135)"></g><g id="g-root-1_1cvj2sl1syrm6l-stroke" data-item-order="0" data-item-id="1_1cvj2sl1syrm6l" data-item-class="Icon Stroke SceneTarget SceneStart InsideFill InsideGrayFill ColorStrokeBlack" data-item-index="none" data-renderer-id="0" transform="translate(134, 135)"><g id="1_1cvj2sl1syrm6l-stroke" fill="none" stroke-linecap="round" stroke-linejoin="round" stroke-miterlimit="4" stroke="#484848" stroke-width="2"><g><path d="M 21.9 50.722C 24.020437 50.369061 25.810703 48.951202 26.639999 46.967999M 14.842 27.091999C 18.933346 27.809448 22.448338 30.41087 24.33 34.113998M 21.566 30.458L 25.152 27.768M 30 11.346C 29.961555 13.350931 29.599562 15.336494 28.928001 17.226M 26 19C 26 20.104568 26.89543 21 28 21C 29.10457 21 30 20.104568 30 19C 30 17.895432 29.10457 17 28 17C 26.89543 17 26 17.895432 26 19ZM 38 23C 38 24.104568 38.895432 25 40 25C 41.104568 25 42 24.104568 42 23C 42 21.895432 41.104568 21 40 21C 38.895432 21 38 21.895432 38 23ZM 45 31C 45 32.104568 45.895432 33 47 33C 48.104568 33 49 32.104568 49 31C 49 29.89543 48.104568 29 47 29C 45.895432 29 45 29.89543 45 31ZM 38 38C 38 39.104568 38.895432 40 40 40C 41.104568 40 42 39.104568 42 38C 42 36.895432 41.104568 36 40 36C 38.895432 36 38 36.895432 38 38ZM 25 27C 25 28.10457 25.895432 29 27 29C 28.10457 29 29 28.10457 29 27C 29 25.895432 28.10457 25 27 25C 25.895432 25 25 25.895432 25 27ZM 23 36C 23 37.104568 23.895432 38 25 38C 26.10457 38 27 37.104568 27 36C 27 34.895432 26.10457 34 25 34C 23.895432 34 23 34.895432 23 36ZM 57 34C 57.008011 31.185829 55.553005 28.569696 53.158001 27.092001C 53.293533 26.501471 53.363956 25.897869 53.368 25.292C 53.408073 21.133251 50.242878 17.643175 46.099998 17.278C 46.141312 15.640398 45.524818 14.054508 44.388306 12.874773C 43.251789 11.695037 41.690002 11.019809 40.052002 11C 37.462227 11.148269 35.151451 12.67555 34 15C 32.848549 12.67555 30.537773 11.148269 27.948 11C 26.309998 11.019809 24.748211 11.695037 23.611694 12.874773C 22.47518 14.054508 21.858686 15.640398 21.9 17.278C 17.755573 17.643291 14.589825 21.135719 14.632 25.296C 14.632763 25.901501 14.699829 26.505098 14.832 27.095999C 12.44329 28.57963 10.990566 31.192043 10.990566 34.003998C 10.990566 36.815956 12.44329 39.428368 14.832 40.911999C 14.699829 41.502899 14.632763 42.106499 14.632 42.711998C 14.594027 46.869217 17.758669 50.356941 21.9 50.722C 21.858686 52.3596 22.47518 53.945492 23.611694 55.125225C 24.748211 56.304962 26.309998 56.98019 27.948 57C 30.33633 57.057899 32.59996 55.93581 34 53.999996C 35.40004 55.93581 37.663666 57.057899 40.051998 56.999996C 41.690002 56.98019 43.251789 56.304962 44.388306 55.125225C 45.524818 53.945492 46.141312 52.3596 46.099998 50.722C 50.244423 50.356709 53.410175 46.864277 53.368 42.703999C 53.363956 42.098129 53.293533 41.49453 53.157997 40.903999C 55.551788 39.427048 57.006618 36.812752 57 34ZM 34 15L 34 38M 34 45.916L 34 54M 52.346001 21.326L 46.799999 24.102001C 45.179813 24.913155 43.276203 24.932337 41.639999 24.153999M 40 36C 40.593044 33.525269 42.525269 31.593044 45.000004 31.000002M 46.099998 50.722C 45.548 48.799999 44.605999 47.321999 43 47M 25 45C 25 46.104568 25.895432 47 27 47C 28.10457 47 29 46.104568 29 45C 29 43.895432 28.10457 43 27 43C 25.895432 43 25 43.895432 25 45ZM 39 47C 39 48.104568 39.895432 49 41 49C 42.104568 49 43 48.104568 43 47C 43 45.895432 42.104568 45 41 45C 39.895432 45 39 45.895432 39 47Z"></path></g></g></g><g id="g-root-web_htf10l1syrmyv-stroke" data-item-order="0" data-item-id="web_htf10l1syrmyv" data-item-class="Icon Stroke SceneTarget Indexed InsideFill" data-item-index="3" data-renderer-id="0" transform="translate(554, 183)"><g id="web_htf10l1syrmyv-stroke" fill="none" stroke-linecap="round" stroke-linejoin="round" stroke-miterlimit="4" stroke="#e15e5a" stroke-width="2"><g><path d="M 11.285714 28C 11.285715 37.231045 18.768955 44.714287 28.000002 44.714287C 37.231045 44.714287 44.714287 37.231045 44.714287 28.000002C 44.714287 18.768955 37.231045 11.285715 28.000002 11.285715C 18.768955 11.285715 11.285715 18.768955 11.285715 28.000002M 11.285714 28L 44.714287 28M 34.42857 28C 34.112801 34.112259 31.861462 39.965752 28 44.714287C 24.138538 39.965752 21.887196 34.112259 21.571428 28C 21.887196 21.887739 24.138538 16.034246 28 11.285714C 31.861462 16.034246 34.112801 21.887739 34.42857 28Z"></path></g></g></g><g id="g-root-tx_language_1qcluxx1sylxqf-stroke" data-item-order="0" data-item-id="tx_language_1qcluxx1sylxqf" data-item-class="Label Stroke SceneTarget Indexed ColorStrokeBlack" data-item-index="3" data-renderer-id="0" transform="translate(614, 177)"></g><g id="g-root-tx_autonomo_4mbu911sylzie-stroke" data-item-order="0" data-item-id="tx_autonomo_4mbu911sylzie" data-item-class="Label Stroke SceneTarget Indexed ColorStrokeBlack" data-item-index="4" data-renderer-id="0" transform="translate(614, 249)"></g><g id="g-root-dron_v4vjdx1syrldy-stroke" data-item-order="0" data-item-id="dron_v4vjdx1syrldy" data-item-class="Icon Stroke SceneTarget Indexed InsideFill" data-item-index="4" data-renderer-id="0" transform="translate(554, 267)"><g id="dron_v4vjdx1syrldy-stroke" fill="none" stroke-linecap="round" stroke-linejoin="round" stroke-miterlimit="4" stroke="#da5da8" stroke-width="2"><g><path d="M 10.75 16.883501C 10.75 20.270939 13.496061 23.017 16.883501 23.017C 20.270939 23.017 23.017 20.270939 23.017 16.883501C 23.017 13.496061 20.270939 10.75 16.883501 10.75C 13.496061 10.75 10.75 13.496061 10.75 16.883501M 14.4355 18.8395C 13.992072 18.28627 13.750298 17.598507 13.75 16.8895M 16.883501 13.75C 18.614084 13.75 20.017 15.152916 20.017 16.883501M 32.982998 16.883501C 32.983002 20.270939 35.729061 23.017 39.116501 23.017C 42.503941 23.017 45.250004 20.270939 45.250004 16.883501C 45.250004 13.496061 42.503941 10.75 39.116501 10.75C 35.729061 10.75 32.983002 13.496061 32.983002 16.883501M 10.75 39.116501C 10.75 42.503941 13.496061 45.250004 16.883501 45.250004C 20.270939 45.250004 23.017 42.503941 23.017 39.116501C 23.017 35.729061 20.270939 32.983002 16.883501 32.983002C 13.496061 32.983002 10.75 35.729061 10.75 39.116501M 32.982998 39.116501C 32.983002 42.503941 35.729061 45.250004 39.116501 45.250004C 42.503941 45.250004 45.250004 42.503941 45.250004 39.116501C 45.250004 35.729061 42.503941 32.983002 39.116501 32.983002C 35.729061 32.983002 32.983002 35.729061 32.983002 39.116501M 34.243 20.608C 32.297546 21.552549 30.162626 22.04191 28 22.039C 25.837374 22.04191 23.702454 21.552549 21.757 20.608M 21.757 35.391998C 25.70034 33.484055 30.29966 33.484055 34.242996 35.391998M 35.391998 21.757C 33.484055 25.70034 33.484055 30.29966 35.391998 34.242996M 20.608 34.243C 21.552549 32.297546 22.04191 30.162626 22.039 28C 22.04191 25.837374 21.552549 23.702454 20.608 21.757M 16.4995 16.883501C 16.4995 17.095577 16.671423 17.2675 16.883501 17.2675C 17.095577 17.2675 17.2675 17.095577 17.2675 16.883501C 17.2675 16.671423 17.095577 16.4995 16.883501 16.4995C 16.671423 16.4995 16.4995 16.671423 16.4995 16.883501M 37.1605 14.4355C 37.71373 13.992072 38.401493 13.750298 39.1105 13.75M 42.25 16.883501C 42.25 18.614084 40.847084 20.017 39.116501 20.017M 38.732502 16.883501C 38.732502 17.095577 38.904423 17.2675 39.116501 17.2675C 39.328579 17.2675 39.500504 17.095577 39.500504 16.883501C 39.500504 16.671423 39.328579 16.4995 39.116501 16.4995C 38.904423 16.4995 38.732502 16.671423 38.732502 16.883501M 38.732502 16.883501C 38.732502 17.095577 38.904423 17.2675 39.116501 17.2675C 39.328579 17.2675 39.500504 17.095577 39.500504 16.883501C 39.500504 16.671423 39.328579 16.4995 39.116501 16.4995C 38.904423 16.4995 38.732502 16.671423 38.732502 16.883501M 14.4355 37.1605C 13.992072 37.71373 13.750298 38.401493 13.75 39.1105M 16.883501 42.25C 18.614084 42.25 20.017 40.847084 20.017 39.116501M 16.4995 39.116501C 16.4995 39.328579 16.671423 39.500504 16.883501 39.500504C 17.095577 39.500504 17.2675 39.328579 17.2675 39.116501C 17.2675 38.904423 17.095577 38.732502 16.883501 38.732502C 16.671423 38.732502 16.4995 38.904423 16.4995 39.116501M 41.072502 36.668499C 40.519444 36.224751 39.831566 35.982937 39.122498 35.982998M 35.983002 39.116501C 35.983002 40.847084 37.385918 42.25 39.116501 42.25M 38.732502 39.116501C 38.732502 39.328579 38.904423 39.500504 39.116501 39.500504C 39.328579 39.500504 39.500504 39.328579 39.500504 39.116501C 39.500504 38.904423 39.328579 38.732502 39.116501 38.732502C 38.904423 38.732502 38.732502 38.904423 38.732502 39.116501M 38.732502 39.116501C 38.732502 39.328579 38.904423 39.500504 39.116501 39.500504C 39.328579 39.500504 39.500504 39.328579 39.500504 39.116501C 39.500504 38.904423 39.328579 38.732502 39.116501 38.732502C 38.904423 38.732502 38.732502 38.904423 38.732502 39.116501M 16.4995 39.116501C 16.4995 39.328579 16.671423 39.500504 16.883501 39.500504C 17.095577 39.500504 17.2675 39.328579 17.2675 39.116501C 17.2675 38.904423 17.095577 38.732502 16.883501 38.732502C 16.671423 38.732502 16.4995 38.904423 16.4995 39.116501M 38.732502 39.116501C 38.732502 39.328579 38.904423 39.500504 39.116501 39.500504C 39.328579 39.500504 39.500504 39.328579 39.500504 39.116501C 39.500504 38.904423 39.328579 38.732502 39.116501 38.732502C 38.904423 38.732502 38.732502 38.904423 38.732502 39.116501M 25.075001 28C 25.075001 29.615433 26.384569 30.925001 28.000002 30.925001C 29.615433 30.925001 30.925001 29.615433 30.925001 28.000002C 30.925001 26.384569 29.615433 25.075001 28.000002 25.075001C 26.384569 25.075001 25.075001 26.384569 25.075001 28.000002"></path></g></g></g></g></g></svg>