<?xml version="1.0" encoding="utf-8" standalone="yes"?>
<!DOCTYPE svg PUBLIC "-//W3C//DTD SVG 1.1//EN" "http://www.w3.org/Graphics/SVG/1.1/DTD/svg11.dtd">
<svg width="769" height="212" viewBox="0 0 769 212" style="fill:none;stroke:none;fill-rule:evenodd;clip-rule:evenodd;stroke-linecap:round;stroke-linejoin:round;stroke-miterlimit:1.5;" version="1.1" xmlns="http://www.w3.org/2000/svg" xmlns:xlink="http://www.w3.org/1999/xlink"><style id="fontImports">@import url("https://fonts.googleapis.com/css2?family=Roboto:wght@400;700&amp;display=block");</style><rect id="" x="0" y="0" width="769" height="212" style="fill: #ffffff;"></rect><g id="items" style="isolation: isolate"><g id="blend" style="mix-blend-mode:multiply"><g id="g-root-ro_1lz97851tsytxm-fill" data-item-order="-27144" data-item-id="ro_1lz97851tsytxm" data-item-class="Shape Stroke Fill" data-item-index="none" data-renderer-id="0" transform="translate(267, 15)"><g id="ro_1lz97851tsytxm-fill" stroke="none" fill="#f0f0f0"><g><path d="M 34 10L 142 10C 142 10 166 10 166 34L 166 160C 166 160 166 184 142 184L 34 184C 34 184 10 184 10 160L 10 34C 10 34 10 10 34 10"></path></g></g></g><g id="g-root-ro_1hdtihh1tsnjlu-fill" data-item-order="-11664" data-item-id="ro_1hdtihh1tsnjlu" data-item-class="Shape Stroke Fill" data-item-index="none" data-renderer-id="0" transform="translate(3, 3)"><g id="ro_1hdtihh1tsnjlu-fill" stroke="none" fill="#e6efff"><g><path d="M 22 10L 214 10C 214 10 226 10 226 22L 226 52C 226 52 226 64 214 64L 22 64C 22 64 10 64 10 52L 10 22C 10 22 10 10 22 10"></path></g></g></g><g id="g-root-ro_1hgxvx11tsksg4-fill" data-item-order="-6480" data-item-id="ro_1hgxvx11tsksg4" data-item-class="Shape Stroke Fill" data-item-index="none" data-renderer-id="0" transform="translate(471, 3)"><g id="ro_1hgxvx11tsksg4-fill" stroke="none" fill="#e9fbf3"><g><path d="M 22 10L 118 10C 118 10 130 10 130 22L 130 52C 130 52 130 64 118 64L 22 64C 22 64 10 64 10 52L 10 22C 10 22 10 10 22 10"></path></g></g></g><g id="g-root-tx_keycompo_3czx11tsnklk-fill" data-item-order="0" data-item-id="tx_keycompo_3czx11tsnklk" data-item-class="Label Stroke" data-item-index="none" data-renderer-id="0" transform="translate(15, 18)"><g id="tx_keycompo_3czx11tsnklk-fill" stroke="none" fill="#4682e3"><g><text style="font: 20px Roboto, sans-serif; white-space: pre;"><tspan x="12.36" y="34" dominant-baseline="ideographic">Key Components</tspan></text></g></g></g><g id="g-root-goal_1useead1tskqv7-fill" data-item-order="0" data-item-id="goal_1useead1tskqv7" data-item-class="Icon Stroke" data-item-index="none" data-renderer-id="0" transform="translate(483, 15)"></g><g id="g-root-cu_hvvyl11tsnkej-fill" data-item-order="0" data-item-id="cu_hvvyl11tsnkej" data-item-class="Curve Stroke ColorFillGray ColorStrokeGray" data-item-index="none" data-renderer-id="0" transform="translate(219, 30)"></g><g id="g-root-tx_goals_mdkvyt1tskr2a-fill" data-item-order="0" data-item-id="tx_goals_mdkvyt1tskr2a" data-item-class="Label Stroke" data-item-index="none" data-renderer-id="0" transform="translate(519, 18)"><g id="tx_goals_mdkvyt1tskr2a-fill" stroke="none" fill="#3bc482"><g><text style="font: 20px Roboto, sans-serif; white-space: pre;"><tspan x="14.46" y="34" dominant-baseline="ideographic">Goals</tspan></text></g></g></g><g id="g-root-1_1uuw7h11tsyt4x-fill" data-item-order="0" data-item-id="1_1uuw7h11tsyt4x" data-item-class="Icon Stroke" data-item-index="none" data-renderer-id="0" transform="translate(321, 39)"></g><g id="g-root-cu_dg2ggl1tsnl6u-fill" data-item-order="0" data-item-id="cu_dg2ggl1tsnl6u" data-item-class="Curve Stroke ColorFillGray ColorStrokeGray" data-item-index="none" data-renderer-id="0" transform="translate(423, 30)"></g><g id="g-root-tx_linguist_1cw4l3p1tsm77n-fill" data-item-order="0" data-item-id="tx_linguist_1cw4l3p1tsm77n" data-item-class="Label Stroke" data-item-index="none" data-renderer-id="0" transform="translate(63, 69)"><g id="tx_linguist_1cw4l3p1tsm77n-fill" stroke="none" fill="#484848"><g><text style="font: 20px Roboto, sans-serif; white-space: pre;"><tspan x="15.88" y="34" dominant-baseline="ideographic">Linguistics</tspan></text></g></g></g><g id="g-root-cu_908yc51tsnlz8-fill" data-item-order="0" data-item-id="cu_908yc51tsnlz8" data-item-class="Curve Stroke ColorFillGray ColorStrokeGray" data-item-index="none" data-renderer-id="0" transform="translate(177, 57)"></g><g id="g-root-cu_1uqiz111tsnk7b-fill" data-item-order="0" data-item-id="cu_1uqiz111tsnk7b" data-item-class="Curve Stroke ColorFillGray ColorStrokeGray" data-item-index="none" data-renderer-id="0" transform="translate(177, 57)"></g><g id="g-root-cu_1uqiz111tsnk7d-fill" data-item-order="0" data-item-id="cu_1uqiz111tsnk7d" data-item-class="Curve Stroke ColorFillGray ColorStrokeGray" data-item-index="none" data-renderer-id="0" transform="translate(177, 57)"></g><g id="g-root-cu_1qapgwl1tsnkzn-fill" data-item-order="0" data-item-id="cu_1qapgwl1tsnkzn" data-item-class="Curve Stroke ColorFillGray ColorStrokeGray" data-item-index="none" data-renderer-id="0" transform="translate(495, 57)"></g><g id="g-root-cu_1hf2gnp1tsnlse-fill" data-item-order="0" data-item-id="cu_1hf2gnp1tsnlse" data-item-class="Curve Stroke ColorFillGray ColorStrokeGray" data-item-index="none" data-renderer-id="0" transform="translate(495, 57)"></g><g id="g-root-cu_1luvys51tsnls0-fill" data-item-order="0" data-item-id="cu_1luvys51tsnls0" data-item-class="Curve Stroke ColorFillGray ColorStrokeGray" data-item-index="none" data-renderer-id="0" transform="translate(495, 57)"></g><g id="g-root-tx_understa_3czx11tsm6fi-fill" data-item-order="0" data-item-id="tx_understa_3czx11tsm6fi" data-item-class="Label Stroke" data-item-index="none" data-renderer-id="0" transform="translate(519, 69)"><g id="tx_understa_3czx11tsm6fi-fill" stroke="none" fill="#484848"><g><text style="font: 20px Roboto, sans-serif; white-space: pre;"><tspan x="12.81" y="34" dominant-baseline="ideographic">Understanding Language</tspan></text></g></g></g><g id="g-root-tx_computer_qpnjkl1tsm6fg-fill" data-item-order="0" data-item-id="tx_computer_qpnjkl1tsm6fg" data-item-class="Label Stroke" data-item-index="none" data-renderer-id="0" transform="translate(3, 105)"><g id="tx_computer_qpnjkl1tsm6fg-fill" stroke="none" fill="#484848"><g><text style="font: 20px Roboto, sans-serif; white-space: pre;"><tspan x="12.53" y="34" dominant-baseline="ideographic">Computer Science</tspan></text></g></g></g><g id="g-root-tx_naturall_dkfowl1tsyu4o-fill" data-item-order="0" data-item-id="tx_naturall_dkfowl1tsyu4o" data-item-class="Label Stroke" data-item-index="none" data-renderer-id="0" transform="translate(291, 93)"><g id="tx_naturall_dkfowl1tsyu4o-fill" stroke="none" fill="#484848"><g><text style="font: 20px Roboto, sans-serif; white-space: pre;"><tspan x="31.59" y="34" dominant-baseline="ideographic">Natural </tspan><tspan x="20.2" y="58" dominant-baseline="ideographic">Language </tspan><tspan x="14.3" y="82" dominant-baseline="ideographic">Processing</tspan></text></g></g></g><g id="g-root-tx_interpre_1uonjrp1tsm70n-fill" data-item-order="0" data-item-id="tx_interpre_1uonjrp1tsm70n" data-item-class="Label Stroke" data-item-index="none" data-renderer-id="0" transform="translate(519, 105)"><g id="tx_interpre_1uonjrp1tsm70n-fill" stroke="none" fill="#484848"><g><text style="font: 20px Roboto, sans-serif; white-space: pre;"><tspan x="14.5" y="34" dominant-baseline="ideographic">Interpreting Language</tspan></text></g></g></g><g id="g-root-tx_machinel_detiad1tsm4ul-fill" data-item-order="0" data-item-id="tx_machinel_detiad1tsm4ul" data-item-class="Label Stroke" data-item-index="none" data-renderer-id="0" transform="translate(3, 141)"><g id="tx_machinel_detiad1tsm4ul-fill" stroke="none" fill="#484848"><g><text style="font: 20px Roboto, sans-serif; white-space: pre;"><tspan x="14.79" y="34" dominant-baseline="ideographic">Machine Learning</tspan></text></g></g></g><g id="g-root-tx_generati_1hdtihh1tsm5fs-fill" data-item-order="0" data-item-id="tx_generati_1hdtihh1tsm5fs" data-item-class="Label Stroke" data-item-index="none" data-renderer-id="0" transform="translate(519, 141)"><g id="tx_generati_1hdtihh1tsm5fs-fill" stroke="none" fill="#484848"><g><text style="font: 20px Roboto, sans-serif; white-space: pre;"><tspan x="17.33" y="34" dominant-baseline="ideographic">Generating Language</tspan></text></g></g></g><g id="g-root-cont_1lt0jit1tsnlzd-fill" data-item-order="0" data-item-id="cont_1lt0jit1tsnlzd" data-item-class="Icon Stroke" data-item-index="none" data-renderer-id="0" transform="translate(177, 15)"></g><g id="g-root-ro_1lz97851tsytxm-stroke" data-item-order="-27144" data-item-id="ro_1lz97851tsytxm" data-item-class="Shape Stroke Fill" data-item-index="none" data-renderer-id="0" transform="translate(267, 15)"><g id="ro_1lz97851tsytxm-stroke" fill="none" stroke-linecap="round" stroke-linejoin="round" stroke-miterlimit="4" stroke="#484848" stroke-width="2"><g><path d="M 34 10L 142 10C 142 10 166 10 166 34L 166 160C 166 160 166 184 142 184L 34 184C 34 184 10 184 10 160L 10 34C 10 34 10 10 34 10"></path></g></g></g><g id="g-root-ro_1hdtihh1tsnjlu-stroke" data-item-order="-11664" data-item-id="ro_1hdtihh1tsnjlu" data-item-class="Shape Stroke Fill" data-item-index="none" data-renderer-id="0" transform="translate(3, 3)"><g id="ro_1hdtihh1tsnjlu-stroke" fill="none" stroke-linecap="round" stroke-linejoin="round" stroke-miterlimit="4" stroke="#4682e3" stroke-width="2"><g><path d="M 22 10L 214 10C 214 10 226 10 226 22L 226 52C 226 52 226 64 214 64L 22 64C 22 64 10 64 10 52L 10 22C 10 22 10 10 22 10"></path></g></g></g><g id="g-root-ro_1hgxvx11tsksg4-stroke" data-item-order="-6480" data-item-id="ro_1hgxvx11tsksg4" data-item-class="Shape Stroke Fill" data-item-index="none" data-renderer-id="0" transform="translate(471, 3)"><g id="ro_1hgxvx11tsksg4-stroke" fill="none" stroke-linecap="round" stroke-linejoin="round" stroke-miterlimit="4" stroke="#3bc482" stroke-width="2"><g><path d="M 22 10L 118 10C 118 10 130 10 130 22L 130 52C 130 52 130 64 118 64L 22 64C 22 64 10 64 10 52L 10 22C 10 22 10 10 22 10"></path></g></g></g><g id="g-root-tx_keycompo_3czx11tsnklk-stroke" data-item-order="0" data-item-id="tx_keycompo_3czx11tsnklk" data-item-class="Label Stroke" data-item-index="none" data-renderer-id="0" transform="translate(15, 18)"></g><g id="g-root-goal_1useead1tskqv7-stroke" data-item-order="0" data-item-id="goal_1useead1tskqv7" data-item-class="Icon Stroke" data-item-index="none" data-renderer-id="0" transform="translate(483, 15)"><g id="goal_1useead1tskqv7-stroke" fill="none" stroke-linecap="round" stroke-linejoin="round" stroke-miterlimit="4" stroke="#3bc482" stroke-width="2"><g><path d="M 28.125 36.987499L 28.125 38.75M 34.375 39.375C 34.375 35.923222 31.576778 33.125 28.125 33.125C 24.673222 33.125 21.875 35.923222 21.875 39.375M 23.75 26.875C 23.750002 29.291246 25.708755 31.25 28.125002 31.25C 30.541246 31.25 32.5 29.291246 32.5 26.875002C 32.5 24.458755 30.541246 22.500002 28.125002 22.500002C 25.708755 22.500002 23.750002 24.458755 23.750002 26.875002M 19.4375 37.400002C 18.19207 36.622208 16.680744 36.3932 15.2608 36.76712C 13.840856 37.141041 12.63833 38.084694 11.9375 39.375M 13.3625 29.362499C 15.156505 31.193769 17.886879 31.743809 20.25 30.75M 12.85 31.25C 12.85 33.300358 14.512143 34.962502 16.5625 34.962502C 18.612858 34.962502 20.275 33.300358 20.275 31.25C 20.275 29.199644 18.612858 27.5375 16.5625 27.5375C 14.512143 27.5375 12.85 29.199644 12.85 31.25M 38.125 39.375L 38.125 10.625M 38.125 10.625L 30.625 10.625C 29.934643 10.625 29.375 11.184644 29.375 11.875L 29.375 15.625C 29.375 16.315355 29.934643 16.875 30.625 16.875L 38.125 16.875M 29.375 13.125L 21.25 13.125L 24.375 16.25L 21.25 19.375L 30.625 19.375C 31.315355 19.375 31.875 18.815355 31.875 18.125L 31.875 16.875M 24.625 24.25C 25.923149 25.494215 27.639874 26.207659 29.4375 26.25C 30.433136 26.2551 31.422338 26.090233 32.362503 25.762501"></path></g></g></g><g id="g-root-cu_hvvyl11tsnkej-stroke" data-item-order="0" data-item-id="cu_hvvyl11tsnkej" data-item-class="Curve Stroke ColorFillGray ColorStrokeGray" data-item-index="none" data-renderer-id="0" transform="translate(219, 30)"><g id="cu_hvvyl11tsnkej-stroke" fill="none" stroke-linecap="round" stroke-linejoin="round" stroke-miterlimit="4" stroke="#888888" stroke-width="2" stroke-dasharray="5.0, 7.0"><g><path d="M 58 53L 55 53L 54.9 53C 43.357252 53.000001 34.000002 43.642752 34.000002 32.1L 34 32L 34 30.9C 33.999998 19.357248 24.64275 10 13.1 10L 13 10L 10 10"></path></g></g></g><g id="g-root-tx_goals_mdkvyt1tskr2a-stroke" data-item-order="0" data-item-id="tx_goals_mdkvyt1tskr2a" data-item-class="Label Stroke" data-item-index="none" data-renderer-id="0" transform="translate(519, 18)"></g><g id="g-root-1_1uuw7h11tsyt4x-stroke" data-item-order="0" data-item-id="1_1uuw7h11tsyt4x" data-item-class="Icon Stroke" data-item-index="none" data-renderer-id="0" transform="translate(321, 39)"><g id="1_1uuw7h11tsyt4x-stroke" fill="none" stroke-linecap="round" stroke-linejoin="round" stroke-miterlimit="4" stroke="#484848" stroke-width="2"><g><path d="M 22 56.285713L 32.765713 31.154285C 32.973331 30.656004 33.460194 30.331429 34 30.331429C 34.539806 30.331429 35.026669 30.656004 35.234287 31.154285L 46 56.285713M 26.834286 45.005714L 41.165714 45.005714M 11.714286 23.714287C 11.714286 17.086868 17.086868 11.714286 23.714287 11.714286M 11.714286 23.714287C 11.714286 17.086868 17.086868 11.714286 23.714287 11.714286M 20.285715 23.714287C 20.285715 21.820738 21.820738 20.285715 23.714287 20.285715M 20.285715 23.714287C 20.285715 21.820738 21.820738 20.285715 23.714287 20.285715M 44.285713 11.714286C 50.913132 11.714286 56.285717 17.086868 56.285717 23.714287M 44.285713 11.714286C 50.913132 11.714286 56.285717 17.086868 56.285717 23.714287M 44.285713 20.285715C 46.179264 20.285715 47.714287 21.820738 47.714287 23.714287M 44.285713 20.285715C 46.179264 20.285715 47.714287 21.820738 47.714287 23.714287"></path></g></g></g><g id="g-root-cu_dg2ggl1tsnl6u-stroke" data-item-order="0" data-item-id="cu_dg2ggl1tsnl6u" data-item-class="Curve Stroke ColorFillGray ColorStrokeGray" data-item-index="none" data-renderer-id="0" transform="translate(423, 30)"><g id="cu_dg2ggl1tsnl6u-stroke" fill="none" stroke-linecap="round" stroke-linejoin="round" stroke-miterlimit="4" stroke="#888888" stroke-width="2" stroke-dasharray="5.0, 7.0"><g><path d="M 10 53L 13 53L 13.1 53C 24.642753 52.999998 34.000001 43.642749 34 32.099998L 34 32L 34 30.9C 33.999999 19.357249 43.357248 10.000001 54.899999 10.000002L 55 10L 58 10"></path></g></g></g><g id="g-root-tx_linguist_1cw4l3p1tsm77n-stroke" data-item-order="0" data-item-id="tx_linguist_1cw4l3p1tsm77n" data-item-class="Label Stroke" data-item-index="none" data-renderer-id="0" transform="translate(63, 69)"></g><g id="g-root-cu_908yc51tsnlz8-stroke" data-item-order="0" data-item-id="cu_908yc51tsnlz8" data-item-class="Curve Stroke ColorFillGray ColorStrokeGray" data-item-index="none" data-renderer-id="0" transform="translate(177, 57)"><g id="cu_908yc51tsnlz8-stroke" fill="none" stroke-linecap="round" stroke-linejoin="round" stroke-miterlimit="4" stroke="#888888" stroke-width="2" stroke-dasharray="5.0, 7.0"><g><path d="M 28 10L 28 22L 28 34L 19 34L 10 34"></path></g></g></g><g id="g-root-cu_1uqiz111tsnk7b-stroke" data-item-order="0" data-item-id="cu_1uqiz111tsnk7b" data-item-class="Curve Stroke ColorFillGray ColorStrokeGray" data-item-index="none" data-renderer-id="0" transform="translate(177, 57)"><g id="cu_1uqiz111tsnk7b-stroke" fill="none" stroke-linecap="round" stroke-linejoin="round" stroke-miterlimit="4" stroke="#888888" stroke-width="2" stroke-dasharray="5.0, 7.0"><g><path d="M 28 10L 28 40L 28 70L 19 70L 10 70"></path></g></g></g><g id="g-root-cu_1uqiz111tsnk7d-stroke" data-item-order="0" data-item-id="cu_1uqiz111tsnk7d" data-item-class="Curve Stroke ColorFillGray ColorStrokeGray" data-item-index="none" data-renderer-id="0" transform="translate(177, 57)"><g id="cu_1uqiz111tsnk7d-stroke" fill="none" stroke-linecap="round" stroke-linejoin="round" stroke-miterlimit="4" stroke="#888888" stroke-width="2" stroke-dasharray="5.0, 7.0"><g><path d="M 28 10L 28 22L 28 94C 28.000002 100.627415 22.627419 105.999998 16.000002 105.999998L 15.9 106L 10 106"></path></g></g></g><g id="g-root-cu_1qapgwl1tsnkzn-stroke" data-item-order="0" data-item-id="cu_1qapgwl1tsnkzn" data-item-class="Curve Stroke ColorFillGray ColorStrokeGray" data-item-index="none" data-renderer-id="0" transform="translate(495, 57)"><g id="cu_1qapgwl1tsnkzn-stroke" fill="none" stroke-linecap="round" stroke-linejoin="round" stroke-miterlimit="4" stroke="#888888" stroke-width="2" stroke-dasharray="5.0, 7.0"><g><path d="M 10 10L 10 22L 10 34L 19 34L 28 34"></path></g></g></g><g id="g-root-cu_1hf2gnp1tsnlse-stroke" data-item-order="0" data-item-id="cu_1hf2gnp1tsnlse" data-item-class="Curve Stroke ColorFillGray ColorStrokeGray" data-item-index="none" data-renderer-id="0" transform="translate(495, 57)"><g id="cu_1hf2gnp1tsnlse-stroke" fill="none" stroke-linecap="round" stroke-linejoin="round" stroke-miterlimit="4" stroke="#888888" stroke-width="2" stroke-dasharray="5.0, 7.0"><g><path d="M 10 10L 10 40L 10 70L 19 70L 28 70"></path></g></g></g><g id="g-root-cu_1luvys51tsnls0-stroke" data-item-order="0" data-item-id="cu_1luvys51tsnls0" data-item-class="Curve Stroke ColorFillGray ColorStrokeGray" data-item-index="none" data-renderer-id="0" transform="translate(495, 57)"><g id="cu_1luvys51tsnls0-stroke" fill="none" stroke-linecap="round" stroke-linejoin="round" stroke-miterlimit="4" stroke="#888888" stroke-width="2" stroke-dasharray="5.0, 7.0"><g><path d="M 10 10L 10 22L 10 94C 10.000004 100.627423 15.372587 106.000006 22.000005 106.000005L 22.1 106L 28 106"></path></g></g></g><g id="g-root-tx_understa_3czx11tsm6fi-stroke" data-item-order="0" data-item-id="tx_understa_3czx11tsm6fi" data-item-class="Label Stroke" data-item-index="none" data-renderer-id="0" transform="translate(519, 69)"></g><g id="g-root-tx_computer_qpnjkl1tsm6fg-stroke" data-item-order="0" data-item-id="tx_computer_qpnjkl1tsm6fg" data-item-class="Label Stroke" data-item-index="none" data-renderer-id="0" transform="translate(3, 105)"></g><g id="g-root-tx_naturall_dkfowl1tsyu4o-stroke" data-item-order="0" data-item-id="tx_naturall_dkfowl1tsyu4o" data-item-class="Label Stroke" data-item-index="none" data-renderer-id="0" transform="translate(291, 93)"></g><g id="g-root-tx_interpre_1uonjrp1tsm70n-stroke" data-item-order="0" data-item-id="tx_interpre_1uonjrp1tsm70n" data-item-class="Label Stroke" data-item-index="none" data-renderer-id="0" transform="translate(519, 105)"></g><g id="g-root-tx_machinel_detiad1tsm4ul-stroke" data-item-order="0" data-item-id="tx_machinel_detiad1tsm4ul" data-item-class="Label Stroke" data-item-index="none" data-renderer-id="0" transform="translate(3, 141)"></g><g id="g-root-tx_generati_1hdtihh1tsm5fs-stroke" data-item-order="0" data-item-id="tx_generati_1hdtihh1tsm5fs" data-item-class="Label Stroke" data-item-index="none" data-renderer-id="0" transform="translate(519, 141)"></g><g id="g-root-cont_1lt0jit1tsnlzd-stroke" data-item-order="0" data-item-id="cont_1lt0jit1tsnlzd" data-item-class="Icon Stroke" data-item-index="none" data-renderer-id="0" transform="translate(177, 15)"><g id="cont_1lt0jit1tsnlzd-stroke" fill="none" stroke-linecap="round" stroke-linejoin="round" stroke-miterlimit="4" stroke="#4682e3" stroke-width="2"><g><path d="M 23.125 21.875C 23.125 22.565357 22.565357 23.125 21.875 23.125L 11.875 23.125C 11.184644 23.125 10.625 22.565357 10.625 21.875L 10.625 11.875C 10.625 11.184644 11.184644 10.625 11.875 10.625L 21.875 10.625C 22.565357 10.625 23.125 11.184644 23.125 11.875ZM 23.125 38.125C 23.125 38.815353 22.565357 39.375 21.875 39.375L 11.875 39.375C 11.184644 39.375 10.625 38.815353 10.625 38.125L 10.625 28.125C 10.625 27.434643 11.184644 26.875 11.875 26.875L 21.875 26.875C 22.565357 26.875 23.125 27.434643 23.125 28.125ZM 26.87125 13.12125L 39.37125 13.12125M 26.87125 16.87125L 39.37125 16.87125M 26.87125 20.62125L 39.37125 20.62125M 26.87125 29.37125L 39.37125 29.37125M 26.87125 33.12125L 39.37125 33.12125M 26.87125 36.87125L 39.37125 36.87125"></path></g></g></g></g></g></svg>