<?xml version="1.0" encoding="utf-8" standalone="yes"?>
<!DOCTYPE svg PUBLIC "-//W3C//DTD SVG 1.1//EN" "http://www.w3.org/Graphics/SVG/1.1/DTD/svg11.dtd">
<svg width="533" height="484" viewBox="0 0 533 484" style="fill:none;stroke:none;fill-rule:evenodd;clip-rule:evenodd;stroke-linecap:round;stroke-linejoin:round;stroke-miterlimit:1.5;" version="1.1" xmlns="http://www.w3.org/2000/svg" xmlns:xlink="http://www.w3.org/1999/xlink"><style id="fontImports">@import url("https://fonts.googleapis.com/css2?family=Shantell+Sans:wght@300..800&amp;display=block");</style><rect id="" x="0" y="0" width="532" height="484" style="fill: #ffffff;"></rect><g id="items" style="isolation: isolate"><g id="blend" style="mix-blend-mode:multiply"><g id="g-root-3.cu_sy_qoeokl1ruozyg-fill" data-item-order="-229819" data-item-id="3.cu_sy_qoeokl1ruozyg" data-item-class="ScenePart Part Indexed Stroke ColorStrokeBlack" data-item-index="3" data-renderer-id="0" transform="translate(4, 111.9990234375)"></g><g id="g-root-2.cu_sy_qoeokl1ruozyf-fill" data-item-order="-229817" data-item-id="2.cu_sy_qoeokl1ruozyf" data-item-class="ScenePart Part Indexed Stroke ColorStrokeBlack" data-item-index="2" data-renderer-id="0" transform="translate(256.0010070800781, 4)"></g><g id="g-root-1.cu_sy_v486p11ruoz66-fill" data-item-order="-229816" data-item-id="1.cu_sy_v486p11ruoz66" data-item-class="ScenePart Part Indexed Indexed_1 Fill Stroke ColorStrokeBlack" data-item-index="1" data-renderer-id="0" transform="translate(226.00100708007812, 28)"><g id="1.cu_sy_v486p11ruoz66-fill" stroke="none" fill="none"><g><path d="M 10 34L 28 10L 28 18L 52 18L 52 10L 70 34L 52 58L 52 50L 28 50L 28 58L 10 34Z"></path></g></g></g><g id="g-root-tx_pros_18k20o51rup0xv-fill" data-item-order="0" data-item-id="tx_pros_18k20o51rup0xv" data-item-class="Label Stroke SceneTarget ColorStrokeBlack" data-item-index="none" data-renderer-id="0" transform="translate(64.00100708007812, 40)"><g id="tx_pros_18k20o51rup0xv-fill" stroke="none" fill="#484848"><g><text style="font: 20px &quot;Shantell Sans&quot;, cursive; white-space: pre;"><tspan x="12" y="35.33" dominant-baseline="ideographic">Pros</tspan></text></g></g></g><g id="g-root-tx_cons_1lvij1h1ruozcy-fill" data-item-order="0" data-item-id="tx_cons_1lvij1h1ruozcy" data-item-class="Label Stroke SceneTarget ColorStrokeBlack" data-item-index="none" data-renderer-id="0" transform="translate(364.0010070800781, 40)"><g id="tx_cons_1lvij1h1ruozcy-fill" stroke="none" fill="#484848"><g><text style="font: 20px &quot;Shantell Sans&quot;, cursive; white-space: pre;"><tspan x="12" y="35.33" dominant-baseline="ideographic">Cons</tspan></text></g></g></g><g id="g-root-type_8pnp1rursi3-fill" data-item-order="0" data-item-id="type_8pnp1rursi3" data-item-class="Icon Stroke SceneTarget Indexed Indexed_1 ColorStrokeBlack" data-item-index="1" data-renderer-id="0" transform="translate(4.001007080078125, 148)"></g><g id="g-root-tx_automate_58icl1rup14x-fill" data-item-order="0" data-item-id="tx_automate_58icl1rup14x" data-item-class="Label Stroke SceneTarget Indexed Indexed_1 ColorStrokeBlack" data-item-index="1" data-renderer-id="0" transform="translate(64.00100708007812, 148)"><g id="tx_automate_58icl1rup14x-fill" stroke="none" fill="#484848"><g><text style="font: 20px &quot;Shantell Sans&quot;, cursive; white-space: pre;"><tspan x="12" y="35.33" dominant-baseline="ideographic">Automates text </tspan><tspan x="12" y="59.33" dominant-baseline="ideographic">tasks</tspan></text></g></g></g><g id="g-root-1_4mayn91ruqfwn-fill" data-item-order="0" data-item-id="1_4mayn91ruqfwn" data-item-class="Icon Stroke SceneTarget Indexed ColorStrokeBlack" data-item-index="101" data-renderer-id="0" transform="translate(304.0010070800781, 148)"></g><g id="g-root-tx_struggle_mbpjvp1rup159-fill" data-item-order="0" data-item-id="tx_struggle_mbpjvp1rup159" data-item-class="Label Stroke SceneTarget Indexed ColorStrokeBlack" data-item-index="101" data-renderer-id="0" transform="translate(364.0010070800781, 148)"><g id="tx_struggle_mbpjvp1rup159-fill" stroke="none" fill="#484848"><g><text style="font: 20px &quot;Shantell Sans&quot;, cursive; white-space: pre;"><tspan x="12" y="35.33" dominant-baseline="ideographic">Struggles </tspan><tspan x="12" y="59.33" dominant-baseline="ideographic">with context</tspan></text></g></g></g><g id="g-root-spee_vagxk51ruqewy-fill" data-item-order="0" data-item-id="spee_vagxk51ruqewy" data-item-class="Icon Stroke SceneTarget Indexed ColorStrokeBlack" data-item-index="2" data-renderer-id="0" transform="translate(4.001007080078125, 232)"></g><g id="g-root-tx_improves_4l20h11rup0co-fill" data-item-order="0" data-item-id="tx_improves_4l20h11rup0co" data-item-class="Label Stroke SceneTarget Indexed ColorStrokeBlack" data-item-index="2" data-renderer-id="0" transform="translate(64.00100708007812, 232)"><g id="tx_improves_4l20h11rup0co-fill" stroke="none" fill="#484848"><g><text style="font: 20px &quot;Shantell Sans&quot;, cursive; white-space: pre;"><tspan x="12" y="35.33" dominant-baseline="ideographic">Improves </tspan><tspan x="12" y="59.33" dominant-baseline="ideographic">efficiency</tspan></text></g></g></g><g id="g-root-uneq_hxrh0l1ruqebq-fill" data-item-order="0" data-item-id="uneq_hxrh0l1ruqebq" data-item-class="Icon Stroke SceneTarget Indexed ColorStrokeBlack" data-item-index="102" data-renderer-id="0" transform="translate(304.0010070800781, 232)"></g><g id="g-root-tx_biasinou_v7ck4l1rup0ck-fill" data-item-order="0" data-item-id="tx_biasinou_v7ck4l1rup0ck" data-item-class="Label Stroke SceneTarget Indexed ColorStrokeBlack" data-item-index="102" data-renderer-id="0" transform="translate(364.0010070800781, 232)"><g id="tx_biasinou_v7ck4l1rup0ck-fill" stroke="none" fill="#484848"><g><text style="font: 20px &quot;Shantell Sans&quot;, cursive; white-space: pre;"><tspan x="12" y="35.33" dominant-baseline="ideographic">Bias in </tspan><tspan x="12" y="59.33" dominant-baseline="ideographic">outputs</tspan></text></g></g></g><g id="g-root-serv_1d14gyt1ruqfpl-fill" data-item-order="0" data-item-id="serv_1d14gyt1ruqfpl" data-item-class="Icon Stroke SceneTarget Indexed ColorStrokeBlack" data-item-index="3" data-renderer-id="0" transform="translate(4.001007080078125, 316)"></g><g id="g-root-tx_enhances_90vilh1ruozkf-fill" data-item-order="0" data-item-id="tx_enhances_90vilh1ruozkf" data-item-class="Label Stroke SceneTarget Indexed ColorStrokeBlack" data-item-index="3" data-renderer-id="0" transform="translate(64.00100708007812, 304)"><g id="tx_enhances_90vilh1ruozkf-fill" stroke="none" fill="#484848"><g><text style="font: 20px &quot;Shantell Sans&quot;, cursive; white-space: pre;"><tspan x="12" y="35.33" dominant-baseline="ideographic">Enhances </tspan><tspan x="12" y="59.33" dominant-baseline="ideographic">customer </tspan><tspan x="12" y="83.33" dominant-baseline="ideographic">experience</tspan></text></g></g></g><g id="g-root-1_mdkz511ruqdjh-fill" data-item-order="0" data-item-id="1_mdkz511ruqdjh" data-item-class="Icon Stroke SceneTarget Indexed ColorStrokeBlack" data-item-index="103" data-renderer-id="0" transform="translate(304.0010070800781, 316)"></g><g id="g-root-tx_limitedl_1q9glwl1ruozkb-fill" data-item-order="0" data-item-id="tx_limitedl_1q9glwl1ruozkb" data-item-class="Label Stroke SceneTarget Indexed ColorStrokeBlack" data-item-index="103" data-renderer-id="0" transform="translate(364.0010070800781, 304)"><g id="tx_limitedl_1q9glwl1ruozkb-fill" stroke="none" fill="#484848"><g><text style="font: 20px &quot;Shantell Sans&quot;, cursive; white-space: pre;"><tspan x="12" y="35.33" dominant-baseline="ideographic">Limited </tspan><tspan x="12" y="59.33" dominant-baseline="ideographic">language </tspan><tspan x="12" y="83.33" dominant-baseline="ideographic">support</tspan></text></g></g></g><g id="g-root-pie_1qckzc51ruqe4o-fill" data-item-order="0" data-item-id="pie_1qckzc51ruqe4o" data-item-class="Icon Stroke SceneTarget Indexed ColorStrokeBlack" data-item-index="4" data-renderer-id="0" transform="translate(4.001007080078125, 400)"></g><g id="g-root-tx_analyzes_hwiiud1ruoyrq-fill" data-item-order="0" data-item-id="tx_analyzes_hwiiud1ruoyrq" data-item-class="Label Stroke SceneTarget Indexed ColorStrokeBlack" data-item-index="4" data-renderer-id="0" transform="translate(64.00100708007812, 388)"><g id="tx_analyzes_hwiiud1ruoyrq-fill" stroke="none" fill="#484848"><g><text style="font: 20px &quot;Shantell Sans&quot;, cursive; white-space: pre;"><tspan x="12" y="35.33" dominant-baseline="ideographic">Analyzes </tspan><tspan x="12" y="59.33" dominant-baseline="ideographic">unstructured </tspan><tspan x="12" y="83.33" dominant-baseline="ideographic">data</tspan></text></g></g></g><g id="g-root-ques_1hdtlnp1ruqeis-fill" data-item-order="0" data-item-id="ques_1hdtlnp1ruqeis" data-item-class="Icon Stroke SceneTarget Indexed ColorStrokeBlack" data-item-index="104" data-renderer-id="0" transform="translate(304.0010070800781, 400)"></g><g id="g-root-tx_ambiguit_hun3l11ruozre-fill" data-item-order="0" data-item-id="tx_ambiguit_hun3l11ruozre" data-item-class="Label Stroke SceneTarget Indexed ColorStrokeBlack" data-item-index="104" data-renderer-id="0" transform="translate(364.0010070800781, 400)"><g id="tx_ambiguit_hun3l11ruozre-fill" stroke="none" fill="#484848"><g><text style="font: 20px &quot;Shantell Sans&quot;, cursive; white-space: pre;"><tspan x="12" y="35.33" dominant-baseline="ideographic">Ambiguity </tspan><tspan x="12" y="59.33" dominant-baseline="ideographic">issues</tspan></text></g></g></g><g id="g-root-3.cu_sy_qoeokl1ruozyg-stroke" data-item-order="-229819" data-item-id="3.cu_sy_qoeokl1ruozyg" data-item-class="ScenePart Part Indexed Stroke ColorStrokeBlack" data-item-index="3" data-renderer-id="0" transform="translate(4, 111.9990234375)"><g id="3.cu_sy_qoeokl1ruozyg-stroke" fill="none" stroke-linecap="round" stroke-linejoin="round" stroke-miterlimit="4" stroke="#484848" stroke-width="4"><g><path d="M 514 10C 490.1 10.8 466.2 9.9 442.3 10C 420.2 10.1 398.2 9.1 376.1 10C 352.7 10.9 329.2 9.3 305.7 10C 282.5 10.7 259.3 9.9 236 10C 212 10.1 188.1 10.1 164 10C 136.6 9.9 109.1 11.1 81.6 10C 57.8 9.1 33.9 11.1 10 10"></path><path d="M 513.999999 10.000007L 9.999999 10.001007"></path></g></g></g><g id="g-root-2.cu_sy_qoeokl1ruozyf-stroke" data-item-order="-229817" data-item-id="2.cu_sy_qoeokl1ruozyf" data-item-class="ScenePart Part Indexed Stroke ColorStrokeBlack" data-item-index="2" data-renderer-id="0" transform="translate(256.0010070800781, 4)"><g id="2.cu_sy_qoeokl1ruozyf-stroke" fill="none" stroke-linecap="round" stroke-linejoin="round" stroke-miterlimit="4" stroke="#484848" stroke-width="4"><g><path d="M 10 298C 9.6 270 10.8 242 10 214M 10 382C 8.8 367 10.3 351.8 10 336.7C 9.7 323.8 9.5 310.9 10 298M 10 466C 10.2 450.8 10.8 435.5 10 420.4C 9.3 407.6 11.6 394.7 10 382M 10 214C 11.2 199 11.8 183.8 10 168.9C 8 152.1 10.8 134.9 10 118M 10 118C 10.4 105.3 11.5 92.6 10 80M 10 36C 10.3 27.3 11.3 18.6 10 10"></path><path d="M 10 298L 10 214M 10 382L 10 298M 10 466L 10 382M 10 214L 10 118M 10 118L 10 80M 10 36L 10 10"></path></g></g></g><g id="g-root-1.cu_sy_v486p11ruoz66-stroke" data-item-order="-229816" data-item-id="1.cu_sy_v486p11ruoz66" data-item-class="ScenePart Part Indexed Indexed_1 Fill Stroke ColorStrokeBlack" data-item-index="1" data-renderer-id="0" transform="translate(226.00100708007812, 28)"><g id="1.cu_sy_v486p11ruoz66-stroke" fill="none" stroke-linecap="round" stroke-linejoin="round" stroke-miterlimit="4" stroke="#484848" stroke-width="4"><g><path d="M 10 34C 16.5 26.4 22.6 18.4 28 10C 27.5 12.6 28.3 15.3 28 18C 36 18.5 44 18.8 52 18C 51.5 15.4 51.5 12.6 52 10C 59.3 16.8 63.8 26.2 70 34C 64.6 42.4 56.4 49 52 58C 52.1 55.3 53 52.5 52 50C 44 49.7 35.8 51.9 28 50C 28.5 52.6 28.8 55.5 28 58C 22.5 49.7 17.3 40.8 10 34"></path><path d="M 10 34L 28 10L 28 18L 52 18L 52 10L 70 34L 52 58L 52 50L 28 50L 28 58L 10 34Z"></path></g></g><g id="1.cu_sy_v486p11ruoz66-stroke" fill="none" stroke-linecap="round" stroke-linejoin="round" stroke-miterlimit="4" stroke="#484848" stroke-width="4"><g><path d="M 30.6 28.4C 31.8 32.2 32.9 36.1 35 39.5M 35.2 39.1C 37.4 36 37.8 32 39.6 28.7M 49.4 30.2C 49.1 29.9 48.8 29.6 48.4 29.4C 47.7 29 46.8 28.9 45.5 28.8C 44.2 28.7 43.1 29.6 43.4 30.7C 43.6 31.8 44 33.8 46.3 33.9C 48.6 34.1 49.2 36 49.4 37.3C 49.1 38.5 48.6 39.4 47.1 39.6C 45.5 39.3 44.2 39.5 43.9 38.5C 43.4 38.2 43.4 37.5 43 37.2"></path><path d="M 30.599 28.373L 34.999 39.48M 35.199 39.097L 39.599 28.66M 49.399 30.192C 49.065 29.937 48.732 29.682 48.399 29.426C 47.799 28.852 46.832 28.628 45.499 28.756C 44.165 28.884 43.465 29.522 43.399 30.671C 43.265 31.82 44.232 32.905 46.299 33.927C 48.432 34.884 49.465 36.001 49.399 37.278C 49.399 38.555 48.632 39.321 47.099 39.576C 45.499 39.767 44.432 39.416 43.899 38.523C 43.565 38.076 43.265 37.629 42.999 37.182"></path></g></g></g><g id="g-root-tx_pros_18k20o51rup0xv-stroke" data-item-order="0" data-item-id="tx_pros_18k20o51rup0xv" data-item-class="Label Stroke SceneTarget ColorStrokeBlack" data-item-index="none" data-renderer-id="0" transform="translate(64.00100708007812, 40)"></g><g id="g-root-tx_cons_1lvij1h1ruozcy-stroke" data-item-order="0" data-item-id="tx_cons_1lvij1h1ruozcy" data-item-class="Label Stroke SceneTarget ColorStrokeBlack" data-item-index="none" data-renderer-id="0" transform="translate(364.0010070800781, 40)"></g><g id="g-root-type_8pnp1rursi3-stroke" data-item-order="0" data-item-id="type_8pnp1rursi3" data-item-class="Icon Stroke SceneTarget Indexed Indexed_1 ColorStrokeBlack" data-item-index="1" data-renderer-id="0" transform="translate(4.001007080078125, 148)"><g id="type_8pnp1rursi3-stroke" fill="none" stroke-linecap="round" stroke-linejoin="round" stroke-miterlimit="4" stroke="#484848" stroke-width="2"><g><path d="M 26.6 42C 26.6 41.200001 27.200001 40.599998 27.200001 40C 27.4 39.200001 27 38.400002 26.200001 38C 25.4 37.599998 24.6 38.400002 24.4 39.200001C 24 39.799999 23.799999 40.400002 23.799999 41M 22 47C 22.4 45 23.6 43 23.799999 41C 24 40.400002 23.4 39.799999 22.6 39.200001C 22 38.799999 21 39.400002 20.799999 40.200001C 20.799999 41.200001 20.6 42.400002 20 43.200001M 27.200001 57C 29.6 55.200001 31.6 52.400002 31.6 52.400002C 32.200001 52 32.200001 51.200001 31.799999 50.799999C 31.4 50.200001 30.799999 49.799999 30.4 50.200001C 29 50.799999 28 51.799999 26.799999 52.599998C 27.4 49.200001 27.6 45.599998 29.6 42.799999C 30.200001 42 29.200001 41.400002 28.6 40.799999C 27.799999 40.400002 26.799999 41 26.6 42C 26.6 44 24.799999 45.799999 25 47.799999M 18.6 47.599998C 19 46 19.6 44.599998 20 43.200001C 20.200001 42.400002 19.6 41.599998 18.799999 41.200001C 18.200001 40.799999 17.4 41.599998 17 42.400002C 15.8 45.599998 14.2 48.799999 14.2 52.200001C 14.2 53.799999 13.8 56 15.2 56.799999M 41.400002 42C 41.400002 41.200001 41 40.599998 40.799999 40C 40.599998 39.200001 41.200001 38.400002 42 38.200001C 42.799999 37.799999 43.400002 38.400002 43.799999 39.200001C 44.200001 39.799999 44 40.400002 44.400002 41M 46 47C 45 45.200001 44.599998 43.200001 44.400002 41C 44.200001 40.200001 44.799999 39.599998 45.400002 39.200001C 46.200001 38.799999 46.799999 39.599998 47.400002 40.200001C 47.799999 41 48 42.200001 48.200001 43.200001M 41 57C 38.799999 54.799999 36.599998 52.400002 36.599998 52.400002C 36 52 35.799999 51.200001 36.200001 50.799999C 36.799999 50.400002 37.200001 50 37.799999 50.200001C 39 51 40 52.200001 41.200001 52.599998C 41.400002 49.200001 39 46.200001 38.400002 42.799999C 38.400002 42 38.799999 41.200001 39.599998 40.799999C 40.400002 40.599998 41 41.200001 41.400002 42C 42.400002 43.599998 42.200001 46 43.200001 47.799999M 49.400002 47.599998C 49 46.200001 48.799999 44.599998 48.200001 43.200001C 47.799999 42.400002 48.400002 41.799999 49.200001 41.400002C 50 41 51 41.599998 51.200001 42.400002C 51.599998 45.799999 54 48.799999 54 52.200001C 53.799999 53.799999 53.799999 55.400002 53 56.799999M 23 11C 30.4 11.4 37.799999 10.2 45 11C 46.200001 11.2 47 11.8 47 13C 47.400002 17.4 46.599998 21.6 47 26C 38.599998 27.4 29.799999 25.4 21 26C 20.799999 21.6 21.200001 17.4 21 13C 21 11.8 22 11.2 23 11M 21 26C 20 28.200001 18.799999 30.200001 18.6 32.599998C 18.6 33 18.4 33.200001 18.6 33.599998C 18.799999 33.799999 19.200001 34 19.4 34C 29.200001 34.599998 39 34.599998 48.599998 34C 49 34 49.400002 33.799999 49.400002 33.599998C 49.599998 33.200001 49.799999 33 49.599998 32.599998C 48.400002 30.6 47.599998 28.200001 47 26M 32.599998 30C 33.599998 29.799999 34.599998 30 35.599998 30"></path><path d="M 26.690001 41.917999L 27.254 39.954002C 27.487066 39.139381 27.015621 38.290066 26.201 38.056999C 25.386381 37.823936 24.537066 38.29538 24.304001 39.110001L 23.743999 41.077999M 22.057999 46.978001L 23.743999 41.077999C 23.91781 40.286766 23.446413 39.496773 22.667542 39.27401C 21.888672 39.051247 21.070847 39.472519 20.799999 40.236L 19.959999 43.183998M 27.200001 57C 29.354 54.886002 31.6 52.360001 31.6 52.360001C 32.085701 51.9729 32.2052 51.283749 31.878183 50.755726C 31.551165 50.227699 30.880951 50.027637 30.317999 50.289997L 26.834 52.599998L 29.634001 42.771999C 29.867065 41.957382 29.395622 41.108067 28.581001 40.875C 27.766382 40.641937 26.917065 41.11338 26.684002 41.928001L 25 47.818001M 18.689999 47.599998L 19.952 43.175999C 20.184151 42.361862 19.712263 41.513702 18.898083 41.281708C 18.0839 41.049717 17.235832 41.521774 17.004 42.335999L 14.2 52.172001C 13.728152 53.807381 14.103254 55.570362 15.2 56.872002M 41.419998 41.917999L 40.858002 39.954002C 40.655586 39.15097 41.127098 38.332245 41.923256 38.104309C 42.719418 37.876373 43.552773 38.321518 43.806 39.110001L 44.366001 41.077999M 46.051998 46.978001L 44.366001 41.077999C 44.133488 40.262825 44.605827 39.413513 45.420998 39.181C 46.236172 38.948486 47.085487 39.42083 47.318001 40.236L 48.158001 43.183998M 40.902 57C 38.748001 54.886002 36.514 52.360001 36.514 52.360001C 36.03072 51.972549 35.912354 51.285488 36.238121 50.758659C 36.563889 50.231831 37.231445 50.03075 37.793999 50.289997L 41.278 52.599998L 38.478001 42.771999C 38.244938 41.957382 38.716385 41.108067 39.531002 40.875C 40.345623 40.641937 41.194939 41.11338 41.428001 41.928001L 43.112 47.827999M 49.419998 47.599998L 48.158001 43.175999C 47.947216 42.368973 48.419899 41.54142 49.222111 41.312992C 50.024319 41.084564 50.862041 41.53899 51.107998 42.335999L 53.908001 52.164001C 54.379848 53.799381 54.004745 55.562363 52.908001 56.863998M 23.056 11L 45.056 11C 46.160568 11 47.056 11.895431 47.056 13L 47.056 26L 47.056 26L 21.056 26L 21.056 26L 21.056 13C 21.056 11.895431 21.951431 11 23.056 11ZM 21.056 26L 18.562 32.648003C 18.446493 32.955143 18.489025 33.299412 18.675808 33.56921C 18.862591 33.839008 19.169855 34 19.498001 34L 48.612 34C 48.940144 34 49.24741 33.839008 49.434193 33.56921C 49.620975 33.299412 49.663506 32.955143 49.548 32.648003L 47.056 26M 32.556 30L 35.556 30"></path></g></g></g><g id="g-root-tx_automate_58icl1rup14x-stroke" data-item-order="0" data-item-id="tx_automate_58icl1rup14x" data-item-class="Label Stroke SceneTarget Indexed Indexed_1 ColorStrokeBlack" data-item-index="1" data-renderer-id="0" transform="translate(64.00100708007812, 148)"></g><g id="g-root-1_4mayn91ruqfwn-stroke" data-item-order="0" data-item-id="1_4mayn91ruqfwn" data-item-class="Icon Stroke SceneTarget Indexed ColorStrokeBlack" data-item-index="101" data-renderer-id="0" transform="translate(304.0010070800781, 148)"><g id="1_4mayn91ruqfwn-stroke" fill="none" stroke-linecap="round" stroke-linejoin="round" stroke-miterlimit="4" stroke="#484848" stroke-width="2"><g><path d="M 42.599998 30C 42.799999 30 43 30.200001 43 30.6C 43 30.799999 42.799999 31 42.599998 31C 42.200001 31 42 30.799999 42 30.6C 42 30.200001 42.200001 30 42.599998 30M 25.6 30C 25.799999 30 26 30.200001 26 30.6C 26 30.799999 25.799999 31 25.6 31C 25.200001 31 25 30.799999 25 30.6C 25 30.200001 25.200001 30 25.6 30M 28 21.200001C 26.6 20.6 24.6 20.6 23.4 21.799999C 22 22.6 20.6 23.6 20 25M 40 40.400002C 37.599998 40.200001 35 40 33.599998 42M 40 24.200001C 43.200001 23.4 46 25.4 48 28M 11 34C 10.8 46.799999 21.6 54.599998 34 57C 46.400002 59.400002 59.200001 46.599998 57 34C 54.799999 21.4 46.400002 13.4 34 11C 21.6 8.6 10.8 21.4 11 34"></path><path d="M 42.5 30C 42.776142 30 43 30.223858 43 30.5C 43 30.776142 42.776142 31 42.5 31C 42.223858 31 42 30.776142 42 30.5C 42 30.223858 42.223858 30 42.5 30M 25.5 30C 25.776142 30 26 30.223858 26 30.5C 26 30.776142 25.776142 31 25.5 31C 25.223858 31 25 30.776142 25 30.5C 25 30.223858 25.223858 30 25.5 30M 28 21.161999C 26.422487 20.818314 24.774906 21.023643 23.33 21.743999C 21.866745 22.424362 20.679358 23.58353 19.964001 25.030001M 40 40.358002C 37.712143 39.385818 35.056812 40.057217 33.506001 42M 40 24.132C 43.242992 23.473255 46.527901 25.054392 48.035999 28M 11 34C 11 46.702549 21.297451 57 34 57C 46.702549 57 57 46.702549 57 34C 57 21.297451 46.702549 11 34 11C 21.297451 11 11 21.297451 11 34"></path></g></g></g><g id="g-root-tx_struggle_mbpjvp1rup159-stroke" data-item-order="0" data-item-id="tx_struggle_mbpjvp1rup159" data-item-class="Label Stroke SceneTarget Indexed ColorStrokeBlack" data-item-index="101" data-renderer-id="0" transform="translate(364.0010070800781, 148)"></g><g id="g-root-spee_vagxk51ruqewy-stroke" data-item-order="0" data-item-id="spee_vagxk51ruqewy" data-item-class="Icon Stroke SceneTarget Indexed ColorStrokeBlack" data-item-index="2" data-renderer-id="0" transform="translate(4.001007080078125, 232)"><g id="spee_vagxk51ruqewy-stroke" fill="none" stroke-linecap="round" stroke-linejoin="round" stroke-miterlimit="4" stroke="#484848" stroke-width="2"><g><path d="M 11 34C 11.8 46.599998 21.4 55 34 57C 46.599998 59.200001 54.599998 46.400002 57 34C 59.400002 21.6 46.200001 14.2 34 11C 21.799999 7.8 9.4 21.4 11 34M 31 34C 31.4 35.599998 32.400002 36.400002 34 37C 35.599998 37.599998 37.200001 35.599998 37 34C 36.799999 32.400002 35.599998 31.200001 34 31C 32.400002 30.799999 31.4 32.400002 31 34M 36.200001 31.799999C 38.599998 28 44.200001 26.200001 46 22M 14.8 33C 16.200001 32.599998 17.6 32.599998 18.799999 33M 16.4 41.200001C 17.6 40.799999 18.799999 40 20.200001 39.799999M 51.599998 41.200001C 50.599998 40.400002 49.200001 40 47.799999 39.799999M 53 33C 51.599998 33 50.400002 33 49 33M 51.599998 26.799999C 50.400002 27.6 49 27.799999 47.799999 28.200001M 42.599998 16.4C 42.400002 17.799999 41.200001 18.799999 41 20.200001M 35 15.4C 34.599998 16.6 34.799999 18 35 19.4M 26.799999 16.4C 26.799999 17.799999 27.799999 18.799999 28.200001 20.200001M 20.6 20.6C 21.4 21.6 22.200001 22.799999 23.4 23.4M 16.4 26.799999C 17.799999 26.799999 18.799999 28.200001 20.200001 28.200001M 26 43C 31 44.799999 36.599998 43 42 43C 42 43 42.799999 43 43 44C 43.400002 45.200001 42.799999 46.599998 43 48C 43 48 43 49.400002 42 49C 37 47.200001 31.200001 49.799999 26 49C 26 49 25 49 25 48C 25.200001 46.599998 25.4 45.200001 25 44C 25 44 25 43 26 43"></path><path d="M 11 34C 11 46.702549 21.297451 57 34 57C 46.702549 57 57 46.702549 57 34C 57 21.297451 46.702549 11 34 11C 21.297451 11 11 21.297451 11 34M 31 34C 31 35.656853 32.343147 37 34 37C 35.656853 37 37 35.656853 37 34C 37 32.343147 35.656853 31 34 31C 32.343147 31 31 32.343147 31 34M 36.122002 31.879999L 46.02 21.98M 14.888 33L 18.888 33M 16.444 41.27L 20.142 39.739998M 51.551998 41.271999L 47.858002 39.739998M 52.998001 33L 49 32.998001M 51.551998 26.73L 47.858002 28.26M 42.532001 16.448L 41 20.139999M 35 15.37L 35 19.369999M 26.73 16.445999L 28.26 20.139999M 20.566 20.563999L 23.392 23.392M 16.448 26.728001L 20.142 28.26M 26 43L 42 43C 42 43 43 43 43 44L 43 48C 43 48 43 49 42 49L 26 49C 26 49 25 49 25 48L 25 44C 25 44 25 43 26 43"></path></g></g></g><g id="g-root-tx_improves_4l20h11rup0co-stroke" data-item-order="0" data-item-id="tx_improves_4l20h11rup0co" data-item-class="Label Stroke SceneTarget Indexed ColorStrokeBlack" data-item-index="2" data-renderer-id="0" transform="translate(64.00100708007812, 232)"></g><g id="g-root-uneq_hxrh0l1ruqebq-stroke" data-item-order="0" data-item-id="uneq_hxrh0l1ruqebq" data-item-class="Icon Stroke SceneTarget Indexed ColorStrokeBlack" data-item-index="102" data-renderer-id="0" transform="translate(304.0010070800781, 232)"><g id="uneq_hxrh0l1ruqebq-stroke" fill="none" stroke-linecap="round" stroke-linejoin="round" stroke-miterlimit="4" stroke="#484848" stroke-width="2"><g><path d="M 34 23.4C 33.599998 33.599998 33.799999 44 34 54.400002M 29 54.400002C 32.400002 54.200001 35.599998 54 39 54.400002M 12 42.400002C 14.6 37.400002 17.799999 32.799999 19 27.4C 21 32.599998 24.200001 37.200001 26 42.400002M 31 20.4C 30.799999 22 32.400002 23.799999 34 23.4C 35.599998 22.799999 37 22 37 20.4C 37 18.799999 35.599998 17.4 34 17.4C 32.400002 17.4 31 18.6 31 20.4M 19 49.400002C 20.799999 49.799999 22.6 48.599998 24 47.400002C 25.4 46.200001 25.6 44.200001 26 42.400002C 21.4 42.599998 16.6 41.200001 12 42.400002C 12 44.200001 12.8 46 14 47.400002C 15.2 48.799999 17.200001 48.799999 19 49.400002M 56 30.4C 53.799999 25.4 51.799999 20.200001 49 15.2C 45.799999 19.799999 45.200001 25.799999 42 30.4M 49 37.400002C 47.200001 38 45.599998 36.400002 44 35.400002C 42.400002 34.200001 41.400002 32.200001 42 30.4C 46.599998 30.6 51.400002 30.4 56 30.4C 56.799999 32.200001 55.599998 34.400002 54 35.400002C 52.400002 36.400002 50.799999 37.599998 49 37.400002M 37 20.200001C 42.599998 18.4 47.799999 15.8 53.200001 13.6M 14.8 29C 19.799999 25.6 26.6 25.6 31.799999 22.200001"></path><path d="M 34 23.364L 34 54.363998M 29 54.363998L 39 54.363998M 12 42.363998L 19 27.436001L 26 42.363998M 31 20.364C 31 22.020855 32.343147 23.364 34 23.364C 35.656853 23.364 37 22.020855 37 20.364C 37 18.707146 35.656853 17.364 34 17.364C 32.343147 17.364 31 18.707146 31 20.364ZM 19 49.363998C 20.870407 49.410587 22.678082 48.688061 24.001072 47.36507C 25.32406 46.042084 26.046587 44.234409 26 42.363998L 12 42.363998C 11.953412 44.234409 12.67594 46.042084 13.998928 47.36507C 15.321917 48.688061 17.129591 49.410587 19 49.363998ZM 56 30.364L 49 15.298L 42 30.364M 49 37.363998C 47.129589 37.410587 45.321915 36.688061 43.998928 35.36507C 42.675938 34.042084 41.953411 32.234406 42 30.363998L 56 30.364C 56.046585 32.234406 55.324059 34.042084 54.001072 35.36507C 52.678082 36.688061 50.870407 37.410587 49 37.363998ZM 36.987999 20.156L 53.110001 13.636M 14.892 29.094L 31.73 22.282"></path></g></g></g><g id="g-root-tx_biasinou_v7ck4l1rup0ck-stroke" data-item-order="0" data-item-id="tx_biasinou_v7ck4l1rup0ck" data-item-class="Label Stroke SceneTarget Indexed ColorStrokeBlack" data-item-index="102" data-renderer-id="0" transform="translate(364.0010070800781, 232)"></g><g id="g-root-serv_1d14gyt1ruqfpl-stroke" data-item-order="0" data-item-id="serv_1d14gyt1ruqfpl" data-item-class="Icon Stroke SceneTarget Indexed ColorStrokeBlack" data-item-index="3" data-renderer-id="0" transform="translate(4.001007080078125, 316)"><g id="serv_1d14gyt1ruqfpl-stroke" fill="none" stroke-linecap="round" stroke-linejoin="round" stroke-miterlimit="4" stroke="#484848" stroke-width="2"><g><path d="M 39.799999 16.200001C 39.599998 19 42.200001 21.6 45 21.200001C 47.799999 20.799999 50 19 50.200001 16.200001C 50.200001 13.2 47.799999 11.2 45 11C 42.200001 10.8 40.200001 13.2 39.799999 16.200001M 53.200001 57C 51.400002 56.799999 50 55.599998 50.200001 54C 50.200001 49.400002 50.599998 45 50.200001 40.599998C 50.200001 38 48.400002 35.599998 47.799999 33.200001C 44.400002 35.799999 40.200001 37.799999 35.799999 38C 34.200001 38.400002 32.599998 36.799999 32.799999 35C 32.799999 33.400002 34.200001 32.200001 35.799999 32C 40 30.6 44.799999 29.4 46.400002 25.200001C 47.200001 24.200001 48.400002 23.4 49.400002 23.799999C 50.599998 24.200001 51.799999 24.799999 52 26C 53 30.4 54.200001 35 56.200001 39.200001C 56.200001 39.599998 56.200001 39.799999 56.200001 40.200001C 57.400002 44.599998 55.599998 49.400002 56.200001 54C 56.400002 55.599998 54.799999 56.599998 53.200001 57M 29.200001 57C 23.4 57.200001 17.6 56.200001 11.8 57C 9.6 46 10.8 34.400002 11.8 23.200001C 13.8 23.6 15.8 22.6 17.6 23.200001C 20.799999 29.6 21.799999 37 24 43.799999C 27 44 30.200001 44.200001 33.200001 43.799999C 32 48.200001 30 52.400002 29.200001 57"></path><path d="M 39.879997 16.112C 39.879753 18.935455 42.168545 21.224445 44.992001 21.224445C 47.815453 21.224445 50.104248 18.935455 50.104 16.112C 50.104248 13.288546 47.815453 10.999554 44.992001 10.999554C 42.168545 10.999554 39.879753 13.288546 39.879997 16.112M 53.169998 57C 51.476372 57 50.103104 55.627628 50.102001 53.933998L 50.102001 40.599998L 47.799999 33.110001C 44.489311 36.096504 40.252541 37.854057 35.799999 38.087997C 34.106979 38.093666 32.729809 36.726013 32.723732 35.032997C 32.717659 33.339981 34.084984 31.962479 35.778 31.955999C 40.229652 31.588133 44.222992 29.074663 46.480003 25.220001C 47.116604 24.202778 48.28783 23.65008 49.477741 23.805378C 50.667652 23.960678 51.657795 24.795464 52.012001 25.941999L 56.099998 39.23C 56.189964 39.522911 56.235798 39.827587 56.236 40.134003L 56.236 53.933998C 56.234898 55.626846 54.862846 56.998898 53.169998 57ZM 29.142 57L 11.764 57L 11.764 23.265999L 17.691999 23.265999L 24.029999 43.712002L 33.23 43.712002L 29.142 57Z"></path></g></g></g><g id="g-root-tx_enhances_90vilh1ruozkf-stroke" data-item-order="0" data-item-id="tx_enhances_90vilh1ruozkf" data-item-class="Label Stroke SceneTarget Indexed ColorStrokeBlack" data-item-index="3" data-renderer-id="0" transform="translate(64.00100708007812, 304)"></g><g id="g-root-1_mdkz511ruqdjh-stroke" data-item-order="0" data-item-id="1_mdkz511ruqdjh" data-item-class="Icon Stroke SceneTarget Indexed ColorStrokeBlack" data-item-index="103" data-renderer-id="0" transform="translate(304.0010070800781, 316)"><g id="1_mdkz511ruqdjh-stroke" fill="none" stroke-linecap="round" stroke-linejoin="round" stroke-miterlimit="4" stroke="#484848" stroke-width="2"><g><path d="M 49 33C 39.400002 30.200001 28.799999 30.6 19 33M 34 33C 34.400002 30 34 27 34 24M 42 33C 41.200001 34.799999 37.400002 50.799999 21 57M 26 33C 25.4 35 31.200001 49.400002 47 57M 17 29C 15 22.6 22.4 17.6 29 17M 11 29C 11.8 19.200001 19.200001 13 29 11M 51 29C 49.799999 22.6 45.599998 16.799999 39 17M 57 29C 55.200001 19.200001 48.799999 12.4 39 11"></path><path d="M 49 33L 19 33M 34 33L 34 24M 42 33C 42 35 37.073997 50.112 21 57M 26 33C 26 35 30.926001 50.112 47 57M 17 29C 17 22.372583 22.372583 17 29 17M 11 29C 11 19.058874 19.058874 11 29 11M 51 29C 51 22.372583 45.627419 17 39 17M 57 29C 57 19.058874 48.941124 11 39 11"></path></g></g></g><g id="g-root-tx_limitedl_1q9glwl1ruozkb-stroke" data-item-order="0" data-item-id="tx_limitedl_1q9glwl1ruozkb" data-item-class="Label Stroke SceneTarget Indexed ColorStrokeBlack" data-item-index="103" data-renderer-id="0" transform="translate(364.0010070800781, 304)"></g><g id="g-root-pie_1qckzc51ruqe4o-stroke" data-item-order="0" data-item-id="pie_1qckzc51ruqe4o" data-item-class="Icon Stroke SceneTarget Indexed ColorStrokeBlack" data-item-index="4" data-renderer-id="0" transform="translate(4.001007080078125, 400)"><g id="pie_1qckzc51ruqe4o-stroke" fill="none" stroke-linecap="round" stroke-linejoin="round" stroke-miterlimit="4" stroke="#484848" stroke-width="2"><g><path d="M 11 34C 12.8 46.599998 21.4 56.400002 34 57C 46.599998 57.599998 55.400002 46.599998 57 34C 58.599998 21.4 46.799999 11 34 11C 21.4 11 9.2 21.4 11 34M 21 34C 21.200001 41.200001 26.799999 46 34 47C 41.200001 48 45.599998 41 47 34C 48.400002 27 40.799999 23.4 34 21C 27.200001 18.6 23.4 27.200001 21 34M 27.799999 22.6C 29.6 27 32.400002 31 35 35C 38.799999 34.400002 43 36 47 35M 35 35C 34.599998 39 37.400002 42.799999 36.799999 46.599998"></path><path d="M 11.008 34C 11.008 46.702549 21.30545 57 34.008003 57C 46.710548 57 57.007999 46.702549 57.007999 34C 57.007999 21.297451 46.710548 11 34.008003 11C 21.30545 11 11.008 21.297451 11.008 34ZM 21.007999 34C 21.008001 41.179703 26.828299 47 34.008003 47C 41.187702 47 47.007999 41.179703 47.007999 34C 47.007999 26.820299 41.187702 21 34.008003 21C 26.828299 21 21.008001 26.820299 21.008001 34ZM 27.818001 22.566L 34.926003 35L 46.970001 35M 34.926003 35L 36.827999 46.694"></path></g></g></g><g id="g-root-tx_analyzes_hwiiud1ruoyrq-stroke" data-item-order="0" data-item-id="tx_analyzes_hwiiud1ruoyrq" data-item-class="Label Stroke SceneTarget Indexed ColorStrokeBlack" data-item-index="4" data-renderer-id="0" transform="translate(64.00100708007812, 388)"></g><g id="g-root-ques_1hdtlnp1ruqeis-stroke" data-item-order="0" data-item-id="ques_1hdtlnp1ruqeis" data-item-class="Icon Stroke SceneTarget Indexed ColorStrokeBlack" data-item-index="104" data-renderer-id="0" transform="translate(304.0010070800781, 400)"><g id="ques_1hdtlnp1ruqeis-stroke" fill="none" stroke-linecap="round" stroke-linejoin="round" stroke-miterlimit="4" stroke="#484848" stroke-width="2"><g><path d="M 34 11.714286C 25.771429 12.057143 17.885714 16.171429 14.457143 23.371429C 10.685715 30.914286 9.657143 40.514286 15.485714 46.342857C 14.457143 49.771431 13.771429 53.200001 11.714286 56.285713C 15.142858 53.885715 20.628571 56.285713 24.4 53.885715C 31.6 59.371429 42.57143 56.971428 49.085712 50.457146C 55.600002 43.942856 54.914288 35.028572 54.914288 25.771429C 54.57143 16.857143 42.914288 13.771429 34 11.714286M 28.857143 28.857143C 29.200001 26.114285 31.257143 22.685715 34 23.714287C 36.742859 24.742859 40.171429 26.114285 39.142857 28.857143C 38.114285 31.6 36.742859 33.657143 34 34C 34 35.028572 33.657143 36.399998 34 37.428574"></path><path d="M 34 11.714286C 25.78648 11.716842 18.24015 16.237019 14.361948 23.477287C 10.483745 30.717556 10.902401 39.504124 15.451428 46.342857L 11.714286 56.285713L 24.228573 54.022858C 32.478989 58.054592 42.357716 56.612949 49.111847 50.391537C 55.865974 44.170128 58.112556 34.442822 54.770702 25.889679C 51.428848 17.336535 43.182823 11.708866 34 11.714286ZM 28.857143 28.857143C 28.857143 26.016823 31.159679 23.714287 34 23.714287C 36.840321 23.714287 39.142857 26.016823 39.142857 28.857143C 39.142857 31.697466 36.840321 34 34 34L 34 37.428574"></path></g></g></g><g id="g-root-tx_ambiguit_hun3l11ruozre-stroke" data-item-order="0" data-item-id="tx_ambiguit_hun3l11ruozre" data-item-class="Label Stroke SceneTarget Indexed ColorStrokeBlack" data-item-index="104" data-renderer-id="0" transform="translate(364.0010070800781, 400)"></g></g></g></svg>