<?xml version="1.0" encoding="utf-8" standalone="yes"?>
<!DOCTYPE svg PUBLIC "-//W3C//DTD SVG 1.1//EN" "http://www.w3.org/Graphics/SVG/1.1/DTD/svg11.dtd">
<svg width="542" height="398" viewBox="0 0 542 398" style="fill:none;stroke:none;fill-rule:evenodd;clip-rule:evenodd;stroke-linecap:round;stroke-linejoin:round;stroke-miterlimit:1.5;" version="1.1" xmlns="http://www.w3.org/2000/svg" xmlns:xlink="http://www.w3.org/1999/xlink"><style id="fontImports">@import url("https://fonts.googleapis.com/css2?family=Roboto:wght@400;700&amp;display=block");</style><rect id="" x="0" y="0" width="541" height="398" style="fill: #ffffff;"></rect><g id="items" style="isolation: isolate"><g id="blend" style="mix-blend-mode:multiply"><g id="g-root-3.cu_sy_mb32na1rv1n2a-fill" data-item-order="-187483" data-item-id="3.cu_sy_mb32na1rv1n2a" data-item-class="ScenePart Part Indexed Stroke" data-item-index="3" data-renderer-id="0" transform="translate(3, 110.9990234375)"></g><g id="g-root-2.cu_sy_mb32na1rv1n29-fill" data-item-order="-187481" data-item-id="2.cu_sy_mb32na1rv1n29" data-item-class="ScenePart Part Indexed Stroke" data-item-index="2" data-renderer-id="0" transform="translate(255.00048828125, 3)"></g><g id="g-root-1.cu_sy_zlx3xi1rv1on4-fill" data-item-order="-187480" data-item-id="1.cu_sy_zlx3xi1rv1on4" data-item-class="ScenePart Part Indexed Indexed_1 Fill Stroke" data-item-index="1" data-renderer-id="0" transform="translate(225.00048828125, 27)"><g id="1.cu_sy_zlx3xi1rv1on4-fill" stroke="none" fill="#f0f0f0"><g><path d="M 10 34L 28 10L 28 18L 52 18L 52 10L 70 34L 52 58L 52 50L 28 50L 28 58L 10 34Z"></path></g></g></g><g id="g-root-tx_pros_qu0y7a1rv1ngj-fill" data-item-order="0" data-item-id="tx_pros_qu0y7a1rv1ngj" data-item-class="Label Stroke SceneTarget" data-item-index="none" data-renderer-id="0" transform="translate(63.00048828125, 39)"><g id="tx_pros_qu0y7a1rv1ngj-fill" stroke="none" fill="#484848"><g><text style="font: 20px Roboto, sans-serif; white-space: pre;"><tspan x="12" y="34" dominant-baseline="ideographic">Pros</tspan></text></g></g></g><g id="g-root-tx_cons_v9ugbq1rv1moa-fill" data-item-order="0" data-item-id="tx_cons_v9ugbq1rv1moa" data-item-class="Label Stroke SceneTarget" data-item-index="none" data-renderer-id="0" transform="translate(363.00048828125, 39)"><g id="tx_cons_v9ugbq1rv1moa-fill" stroke="none" fill="#484848"><g><text style="font: 20px Roboto, sans-serif; white-space: pre;"><tspan x="12" y="34" dominant-baseline="ideographic">Cons</tspan></text></g></g></g><g id="g-root-2_1lr57ae1rv8mwz-fill" data-item-order="0" data-item-id="2_1lr57ae1rv8mwz" data-item-class="Icon Stroke SceneTarget Indexed Indexed_1" data-item-index="1" data-renderer-id="0" transform="translate(3.00048828125, 147)"></g><g id="g-root-tx_improved_145hgkm1rv1lvl-fill" data-item-order="0" data-item-id="tx_improved_145hgkm1rv1lvl" data-item-class="Label Stroke SceneTarget Indexed Indexed_1" data-item-index="1" data-renderer-id="0" transform="translate(63.00048828125, 147)"><g id="tx_improved_145hgkm1rv1lvl-fill" stroke="none" fill="#484848"><g><text style="font: 20px Roboto, sans-serif; white-space: pre;"><tspan x="12" y="34" dominant-baseline="ideographic">Improved </tspan><tspan x="12" y="58" dominant-baseline="ideographic">accuracy</tspan></text></g></g></g><g id="g-root-ques_v2z8di1rv8nwo-fill" data-item-order="0" data-item-id="ques_v2z8di1rv8nwo" data-item-class="Icon Stroke SceneTarget Indexed" data-item-index="101" data-renderer-id="0" transform="translate(303.00048828125, 147)"></g><g id="g-root-tx_highcomp_dhbhnq1rv1mva-fill" data-item-order="0" data-item-id="tx_highcomp_dhbhnq1rv1mva" data-item-class="Label Stroke SceneTarget Indexed" data-item-index="101" data-renderer-id="0" transform="translate(363.00048828125, 135)"><g id="tx_highcomp_dhbhnq1rv1mva-fill" stroke="none" fill="#484848"><g><text style="font: 20px Roboto, sans-serif; white-space: pre;"><tspan x="12" y="34" dominant-baseline="ideographic">High </tspan><tspan x="12" y="58" dominant-baseline="ideographic">computational </tspan><tspan x="12" y="82" dominant-baseline="ideographic">cost</tspan></text></g></g></g><g id="g-root-page_v6li1rv8ooy-fill" data-item-order="0" data-item-id="page_v6li1rv8ooy" data-item-class="Icon Stroke SceneTarget Indexed" data-item-index="2" data-renderer-id="0" transform="translate(3.00048828125, 231)"></g><g id="g-root-tx_relevant_18kohly1rv1o94-fill" data-item-order="0" data-item-id="tx_relevant_18kohly1rv1o94" data-item-class="Label Stroke SceneTarget Indexed" data-item-index="2" data-renderer-id="0" transform="translate(63.00048828125, 231)"><g id="tx_relevant_18kohly1rv1o94-fill" stroke="none" fill="#484848"><g><text style="font: 20px Roboto, sans-serif; white-space: pre;"><tspan x="12" y="34" dominant-baseline="ideographic">Relevant </tspan><tspan x="12" y="58" dominant-baseline="ideographic">information</tspan></text></g></g></g><g id="g-root-unli_zisqhy1rv8n4f-fill" data-item-order="0" data-item-id="unli_zisqhy1rv8n4f" data-item-class="Icon Stroke SceneTarget Indexed" data-item-index="102" data-renderer-id="0" transform="translate(303.00048828125, 231)"></g><g id="g-root-tx_dependen_v7z12e1rv1nnx-fill" data-item-order="0" data-item-id="tx_dependen_v7z12e1rv1nnx" data-item-class="Label Stroke SceneTarget Indexed" data-item-index="102" data-renderer-id="0" transform="translate(363.00048828125, 231)"><g id="tx_dependen_v7z12e1rv1nnx-fill" stroke="none" fill="#484848"><g><text style="font: 20px Roboto, sans-serif; white-space: pre;"><tspan x="12" y="34" dominant-baseline="ideographic">Dependency on </tspan><tspan x="12" y="58" dominant-baseline="ideographic">data quality</tspan></text></g></g></g><g id="g-root-1_hriq061rv8phl-fill" data-item-order="0" data-item-id="1_hriq061rv8phl" data-item-class="Icon Stroke SceneTarget Indexed" data-item-index="3" data-renderer-id="0" transform="translate(3.00048828125, 315)"></g><g id="g-root-tx_handlesn_1lw4zza1rv1mo7-fill" data-item-order="0" data-item-id="tx_handlesn_1lw4zza1rv1mo7" data-item-class="Label Stroke SceneTarget Indexed" data-item-index="3" data-renderer-id="0" transform="translate(63.00048828125, 315)"><g id="tx_handlesn_1lw4zza1rv1mo7-fill" stroke="none" fill="#484848"><g><text style="font: 20px Roboto, sans-serif; white-space: pre;"><tspan x="12" y="34" dominant-baseline="ideographic">Handles niche </tspan><tspan x="12" y="58" dominant-baseline="ideographic">queries</tspan></text></g></g></g><g id="g-root-warn_m8l9gm1rup1c8-fill" data-item-order="0" data-item-id="warn_m8l9gm1rup1c8" data-item-class="Icon Stroke SceneTarget Indexed" data-item-index="103" data-renderer-id="0" transform="translate(303.00048828125, 315)"></g><g id="g-root-tx_potentia_1heg2li1rv1og4-fill" data-item-order="0" data-item-id="tx_potentia_1heg2li1rv1og4" data-item-class="Label Stroke SceneTarget Indexed" data-item-index="103" data-renderer-id="0" transform="translate(363.00048828125, 303)"><g id="tx_potentia_1heg2li1rv1og4-fill" stroke="none" fill="#484848"><g><text style="font: 20px Roboto, sans-serif; white-space: pre;"><tspan x="12" y="34" dominant-baseline="ideographic">Potential for </tspan><tspan x="12" y="58" dominant-baseline="ideographic">misleading </tspan><tspan x="12" y="82" dominant-baseline="ideographic">outputs</tspan></text></g></g></g><g id="g-root-3.cu_sy_mb32na1rv1n2a-stroke" data-item-order="-187483" data-item-id="3.cu_sy_mb32na1rv1n2a" data-item-class="ScenePart Part Indexed Stroke" data-item-index="3" data-renderer-id="0" transform="translate(3, 110.9990234375)"><g id="3.cu_sy_mb32na1rv1n2a-stroke" fill="none" stroke-linecap="round" stroke-linejoin="round" stroke-miterlimit="4" stroke="#484848" stroke-width="2"><g><path d="M 514.0005 10.000007L 10 10.001007"></path></g></g></g><g id="g-root-2.cu_sy_mb32na1rv1n29-stroke" data-item-order="-187481" data-item-id="2.cu_sy_mb32na1rv1n29" data-item-class="ScenePart Part Indexed Stroke" data-item-index="2" data-renderer-id="0" transform="translate(255.00048828125, 3)"><g id="2.cu_sy_mb32na1rv1n29-stroke" fill="none" stroke-linecap="round" stroke-linejoin="round" stroke-miterlimit="4" stroke="#484848" stroke-width="2"><g><path d="M 10 298L 10 214M 10 382L 10 298M 10 214L 10 118M 10 118L 10 80M 10 36L 10 10"></path></g></g></g><g id="g-root-1.cu_sy_zlx3xi1rv1on4-stroke" data-item-order="-187480" data-item-id="1.cu_sy_zlx3xi1rv1on4" data-item-class="ScenePart Part Indexed Indexed_1 Fill Stroke" data-item-index="1" data-renderer-id="0" transform="translate(225.00048828125, 27)"><g id="1.cu_sy_zlx3xi1rv1on4-stroke" fill="none" stroke-linecap="round" stroke-linejoin="round" stroke-miterlimit="4" stroke="#484848" stroke-width="2"><g><path d="M 10 34L 28 10L 28 18L 52 18L 52 10L 70 34L 52 58L 52 50L 28 50L 28 58L 10 34Z"></path></g></g><g id="1.cu_sy_zlx3xi1rv1on4-stroke" fill="none" stroke-linecap="round" stroke-linejoin="round" stroke-miterlimit="4" stroke="#484848" stroke-width="2"><g><path d="M 30.599 28.373L 34.999 39.48M 35.199 39.097L 39.599 28.66M 49.399 30.192C 49.065 29.937 48.732 29.682 48.399 29.426C 47.799 28.852 46.832 28.628 45.499 28.756C 44.165 28.884 43.465 29.522 43.399 30.671C 43.265 31.82 44.232 32.905 46.299 33.927C 48.432 34.884 49.465 36.001 49.399 37.278C 49.399 38.555 48.632 39.321 47.099 39.576C 45.499 39.767 44.432 39.416 43.899 38.523C 43.565 38.076 43.265 37.629 42.999 37.182"></path></g></g></g><g id="g-root-tx_pros_qu0y7a1rv1ngj-stroke" data-item-order="0" data-item-id="tx_pros_qu0y7a1rv1ngj" data-item-class="Label Stroke SceneTarget" data-item-index="none" data-renderer-id="0" transform="translate(63.00048828125, 39)"></g><g id="g-root-tx_cons_v9ugbq1rv1moa-stroke" data-item-order="0" data-item-id="tx_cons_v9ugbq1rv1moa" data-item-class="Label Stroke SceneTarget" data-item-index="none" data-renderer-id="0" transform="translate(363.00048828125, 39)"></g><g id="g-root-2_1lr57ae1rv8mwz-stroke" data-item-order="0" data-item-id="2_1lr57ae1rv8mwz" data-item-class="Icon Stroke SceneTarget Indexed Indexed_1" data-item-index="1" data-renderer-id="0" transform="translate(3.00048828125, 147)"><g id="2_1lr57ae1rv8mwz-stroke" fill="none" stroke-linecap="round" stroke-linejoin="round" stroke-miterlimit="4" stroke="#484848" stroke-width="2"><g><path d="M 36.48 36.98C 36.827034 37.948929 37.002987 38.970806 37 40C 37.007744 44.304981 33.972198 48.015411 29.751007 48.860653C 25.529816 49.705898 21.299652 47.450336 19.649218 43.474289C 17.998783 39.498238 19.388142 34.910049 22.96706 32.517509C 26.545979 30.124971 31.316814 30.595018 34.360001 33.639999M 42.68 31.42C 47.276806 39.143959 45.083679 49.110222 37.669128 54.191025C 30.254576 59.271824 20.168573 57.719795 14.624529 50.644932C 9.080484 43.570068 9.985079 33.405525 16.691357 27.420881C 23.397633 21.436237 33.599201 21.689701 40 28M 11 57L 15.98 52.02M 40.02 52.02L 45 57M 42.860001 25.139999L 42.139999 17.360001L 48.5 11L 50.639999 17.360001L 57 19.5L 50.639999 25.860001L 42.860001 25.139999ZM 48 20L 28 40"></path></g></g></g><g id="g-root-tx_improved_145hgkm1rv1lvl-stroke" data-item-order="0" data-item-id="tx_improved_145hgkm1rv1lvl" data-item-class="Label Stroke SceneTarget Indexed Indexed_1" data-item-index="1" data-renderer-id="0" transform="translate(63.00048828125, 147)"></g><g id="g-root-ques_v2z8di1rv8nwo-stroke" data-item-order="0" data-item-id="ques_v2z8di1rv8nwo" data-item-class="Icon Stroke SceneTarget Indexed" data-item-index="101" data-renderer-id="0" transform="translate(303.00048828125, 147)"><g id="ques_v2z8di1rv8nwo-stroke" fill="none" stroke-linecap="round" stroke-linejoin="round" stroke-miterlimit="4" stroke="#484848" stroke-width="2"><g><path d="M 53 19C 53 21.209139 51.209141 23 49 23L 15 23C 12.790861 23 11 21.209139 11 19L 11 15C 11 12.790861 12.790861 11 15 11L 49 11C 51.209141 11 53 12.790861 53 15ZM 15 35C 12.790861 35 11 33.209137 11 31L 11 27C 11 24.790861 12.790861 23 15 23L 49 23C 51.209141 23 53 24.790861 53 27L 53 30M 19.5 16.5C 19.223858 16.5 19 16.723858 19 17C 19 17.276142 19.223858 17.5 19.5 17.5C 19.776142 17.5 20 17.276142 20 17C 20 16.723858 19.776142 16.5 19.5 16.5L 19.5 16.5M 27 17C 27 16.723858 26.776142 16.5 26.5 16.5L 26.5 16.5C 26.223858 16.5 26 16.723858 26 17C 26 17.276142 26.223858 17.5 26.5 17.5C 26.776142 17.5 27 17.276142 27 17M 19.5 28.5C 19.223858 28.5 19 28.723858 19 29C 19 29.276142 19.223858 29.5 19.5 29.5C 19.776142 29.5 20 29.276142 20 29C 20 28.723858 19.776142 28.5 19.5 28.5L 19.5 28.5M 26.5 28.5C 26.223858 28.5 26 28.723858 26 29C 26 29.276142 26.223858 29.5 26.5 29.5C 26.776142 29.5 27 29.276142 27 29C 27 28.723858 26.776142 28.5 26.5 28.5L 26.5 28.5M 28 47L 15 47C 12.790861 47 11 45.209141 11 43L 11 39C 11 36.790863 12.790861 35 15 35L 31 35M 19.5 40.5C 19.223858 40.5 19 40.723858 19 41C 19 41.276142 19.223858 41.5 19.5 41.5C 19.776142 41.5 20 41.276142 20 41C 20 40.723858 19.776142 40.5 19.5 40.5L 19.5 40.5M 26.5 40.5C 26.223858 40.5 26 40.723858 26 41C 26 41.276142 26.223858 41.5 26.5 41.5C 26.776142 41.5 27 41.276142 27 41C 27 40.723858 26.776142 40.5 26.5 40.5L 26.5 40.5M 33 45C 33 51.627419 38.372581 57 45 57C 51.627419 57 57 51.627419 57 45C 57 38.372581 51.627419 33 45 33C 38.372581 33 33 38.372581 33 45ZM 41.25 42.084C 41.25 40.012932 42.928932 38.334 45 38.334C 47.071068 38.334 48.75 40.012932 48.75 42.084003C 48.75 44.155071 47.071068 45.834003 45 45.834003L 45 47.834M 45 51.834C 44.723858 51.834 44.5 52.057858 44.5 52.334C 44.5 52.610142 44.723858 52.834 45 52.834C 45.276142 52.834 45.5 52.610142 45.5 52.334C 45.5 52.057858 45.276142 51.834 45 51.834L 45 51.834"></path></g></g></g><g id="g-root-tx_highcomp_dhbhnq1rv1mva-stroke" data-item-order="0" data-item-id="tx_highcomp_dhbhnq1rv1mva" data-item-class="Label Stroke SceneTarget Indexed" data-item-index="101" data-renderer-id="0" transform="translate(363.00048828125, 135)"></g><g id="g-root-page_v6li1rv8ooy-stroke" data-item-order="0" data-item-id="page_v6li1rv8ooy" data-item-class="Icon Stroke SceneTarget Indexed" data-item-index="2" data-renderer-id="0" transform="translate(3.00048828125, 231)"><g id="page_v6li1rv8ooy-stroke" fill="none" stroke-linecap="round" stroke-linejoin="round" stroke-miterlimit="4" stroke="#484848" stroke-width="2"><g><path d="M 11 17.132L 11 13C 11 11.895431 11.895431 11 13 11L 17.133999 11M 17.133999 57L 13 57C 11.895431 57 11 56.104568 11 55L 11 50.866001M 11 24.798L 11 30.931999M 11 37.066002L 11 43.198002M 57 24.798L 57 30.931999M 24.799999 10.998L 30.934 10.998M 37.066002 10.998L 43.200001 10.998M 50.866001 11L 55 11C 56.104568 11 57 11.895431 57 13L 57 17.132M 30.934 56.998001L 24.799999 56.998001M 26.334 38.598C 26.332422 45.37344 31.824558 50.866856 38.599998 50.866856C 45.375439 50.866856 50.867577 45.37344 50.865997 38.598C 50.867577 31.822559 45.375439 26.329144 38.599998 26.329144C 31.824558 26.329144 26.332422 31.822559 26.334 38.598ZM 34.599998 38.598L 42.599998 38.598M 47.273998 47.271999L 57 56.998001"></path></g></g></g><g id="g-root-tx_relevant_18kohly1rv1o94-stroke" data-item-order="0" data-item-id="tx_relevant_18kohly1rv1o94" data-item-class="Label Stroke SceneTarget Indexed" data-item-index="2" data-renderer-id="0" transform="translate(63.00048828125, 231)"></g><g id="g-root-unli_zisqhy1rv8n4f-stroke" data-item-order="0" data-item-id="unli_zisqhy1rv8n4f" data-item-class="Icon Stroke SceneTarget Indexed" data-item-index="102" data-renderer-id="0" transform="translate(303.00048828125, 231)"><g id="unli_zisqhy1rv8n4f-stroke" fill="none" stroke-linecap="round" stroke-linejoin="round" stroke-miterlimit="4" stroke="#484848" stroke-width="2"><g><path d="M 39.279999 43.257141L 46.137142 36.399998L 53.405716 29.131428C 57.416504 25.115646 57.416504 18.610069 53.405716 14.594286L 53.405716 14.594286C 49.389935 10.583496 42.884357 10.583496 38.868572 14.594286L 34 19.462856L 28.720001 24.742859M 22 31.462858L 14.731428 38.73143C 10.720639 42.747215 10.720639 49.252792 14.731428 53.268574L 14.731428 53.26857C 18.747211 57.279362 25.252789 57.279362 29.268574 53.268574L 32.697144 49.84M 24.297144 17.028572L 43.702858 50.971428"></path></g></g></g><g id="g-root-tx_dependen_v7z12e1rv1nnx-stroke" data-item-order="0" data-item-id="tx_dependen_v7z12e1rv1nnx" data-item-class="Label Stroke SceneTarget Indexed" data-item-index="102" data-renderer-id="0" transform="translate(363.00048828125, 231)"></g><g id="g-root-1_hriq061rv8phl-stroke" data-item-order="0" data-item-id="1_hriq061rv8phl" data-item-class="Icon Stroke SceneTarget Indexed" data-item-index="3" data-renderer-id="0" transform="translate(3.00048828125, 315)"><g id="1_hriq061rv8phl-stroke" fill="none" stroke-linecap="round" stroke-linejoin="round" stroke-miterlimit="4" stroke="#484848" stroke-width="2"><g><path d="M 24.022858 14.08C 25.258335 15.286715 25.992985 16.915182 26.08 18.639999L 32.354286 12.4C 32.790134 11.91136 33.413795 11.631939 34.068573 11.631939C 34.723347 11.631939 35.347008 11.91136 35.782856 12.4L 40.857143 17.68C 40.13644 18.029476 39.476597 18.492525 38.902859 19.05143C 36.366226 21.841013 36.468044 26.131165 39.134155 28.797272C 41.800262 31.463381 46.090416 31.565199 48.879997 29.02857C 49.438904 28.454834 49.901951 27.794989 50.251427 27.074286L 55.600002 32.354286C 56.088642 32.790134 56.368061 33.413795 56.368061 34.068573C 56.368061 34.723347 56.088642 35.347008 55.600002 35.782856L 49.360001 41.920002C 53.124832 42.147659 56.03883 45.306301 55.962902 49.077248C 55.886978 52.84819 52.84819 55.886978 49.077248 55.962902C 45.306301 56.03883 42.147659 53.124832 41.920002 49.360001L 35.645714 55.600002C 35.209866 56.088642 34.586205 56.368061 33.931427 56.368061C 33.276653 56.368061 32.652992 56.088642 32.217144 55.600002L 27.142857 50.32C 27.86356 49.970524 28.523405 49.507477 29.097143 48.948574C 31.852257 46.174526 31.836906 41.692257 29.062859 38.937145C 26.288811 36.182034 21.806541 36.197384 19.05143 38.971432C 18.492525 39.545166 18.029476 40.205009 17.68 40.925716L 12.4 35.645714C 11.91136 35.209866 11.631939 34.586205 11.631939 33.931427C 11.631939 33.276653 11.91136 32.652992 12.4 32.217144L 18.639999 26.08C 16.915182 25.992985 15.286715 25.258335 14.08 24.022858C 11.335168 21.277073 11.335553 16.826168 14.080861 14.080861C 16.826168 11.335553 21.277073 11.335168 24.022856 14.08Z"></path></g></g></g><g id="g-root-tx_handlesn_1lw4zza1rv1mo7-stroke" data-item-order="0" data-item-id="tx_handlesn_1lw4zza1rv1mo7" data-item-class="Label Stroke SceneTarget Indexed" data-item-index="3" data-renderer-id="0" transform="translate(63.00048828125, 315)"></g><g id="g-root-warn_m8l9gm1rup1c8-stroke" data-item-order="0" data-item-id="warn_m8l9gm1rup1c8" data-item-class="Icon Stroke SceneTarget Indexed" data-item-index="103" data-renderer-id="0" transform="translate(303.00048828125, 315)"><g id="warn_m8l9gm1rup1c8-stroke" fill="none" stroke-linecap="round" stroke-linejoin="round" stroke-miterlimit="4" stroke="#484848" stroke-width="2"><g><path d="M 27 51L 13 51C 11.895431 51 11 50.104568 11 49L 11 17C 11 15.895431 11.895431 15 13 15L 41 15C 42.104568 15 43 15.895431 43 17L 43 27M 19 19L 19 11M 27 19L 27 11M 35 19L 35 11M 45 51C 45.276142 51 45.5 51.223858 45.5 51.5C 45.5 51.776142 45.276142 52 45 52C 44.723858 52 44.5 51.776142 44.5 51.5C 44.5 51.223858 44.723858 51 45 51M 45 47L 45 41M 46.675999 35C 46.345634 34.381348 45.701336 33.995003 45 33.995003C 44.298668 33.995003 43.654366 34.381348 43.324001 35L 33.211998 54.27C 32.908127 54.847462 32.931698 55.54245 33.274002 56.098C 33.620461 56.656097 34.231113 56.995094 34.888 56.994003L 55.112 56.993999C 55.76889 56.995094 56.379543 56.656097 56.726002 56.098003C 57.068298 55.54245 57.091869 54.847462 56.787998 54.27Z"></path></g></g></g><g id="g-root-tx_potentia_1heg2li1rv1og4-stroke" data-item-order="0" data-item-id="tx_potentia_1heg2li1rv1og4" data-item-class="Label Stroke SceneTarget Indexed" data-item-index="103" data-renderer-id="0" transform="translate(363.00048828125, 303)"></g></g></g></svg>