<?xml version="1.0" encoding="utf-8" standalone="yes"?>
<!DOCTYPE svg PUBLIC "-//W3C//DTD SVG 1.1//EN" "http://www.w3.org/Graphics/SVG/1.1/DTD/svg11.dtd">
<svg width="816" height="451" viewBox="0 0 816 451" style="fill:none;stroke:none;fill-rule:evenodd;clip-rule:evenodd;stroke-linecap:round;stroke-linejoin:round;stroke-miterlimit:1.5;" version="1.1" xmlns="http://www.w3.org/2000/svg" xmlns:xlink="http://www.w3.org/1999/xlink"><style id="fontImports">@import url("https://fonts.googleapis.com/css2?family=Roboto:wght@400;700&amp;display=block");</style><rect id="" x="0" y="0" width="816" height="451" style="fill: #ffffff;"></rect><g id="items" style="isolation: isolate"><g id="blend" style="mix-blend-mode:multiply"><g id="g-root-ro_18jgc0y1xohvyh-fill" data-item-order="-28512" data-item-id="ro_18jgc0y1xohvyh" data-item-class="Shape Stroke Fill" data-item-index="none" data-renderer-id="0" transform="translate(350, 15)"><g id="ro_18jgc0y1xohvyh-fill" stroke="none" fill="#f0f0f0"><g><path d="M 34 10L 130 10C 130 10 154 10 154 34L 154 184C 154 184 154 208 130 208L 34 208C 34 208 10 208 10 184L 10 34C 10 34 10 10 34 10"></path></g></g></g><g id="g-root-ro_v300yq1xokpoj-fill" data-item-order="-25056" data-item-id="ro_v300yq1xokpoj" data-item-class="Shape Stroke Fill" data-item-index="none" data-renderer-id="0" transform="translate(248, 249)"><g id="ro_v300yq1xokpoj-fill" stroke="none" fill="#ffe7e6"><g><path d="M 22 10L 346 10C 346 10 358 10 358 22L 358 70C 358 70 358 82 346 82L 22 82C 22 82 10 82 10 70L 10 22C 10 22 10 10 22 10"></path></g></g></g><g id="g-root-ro_1qd88v61xokphm-fill" data-item-order="-9720" data-item-id="ro_1qd88v61xokphm" data-item-class="Shape Stroke Fill" data-item-index="none" data-renderer-id="0" transform="translate(122, 3)"><g id="ro_1qd88v61xokphm-fill" stroke="none" fill="#e6efff"><g><path d="M 22 10L 178 10C 178 10 190 10 190 22L 190 52C 190 52 190 64 178 64L 22 64C 22 64 10 64 10 52L 10 22C 10 22 10 10 22 10"></path></g></g></g><g id="g-root-ro_mczahu1xoj9c5-fill" data-item-order="-9720" data-item-id="ro_mczahu1xoj9c5" data-item-class="Shape Stroke Fill" data-item-index="none" data-renderer-id="0" transform="translate(542, 3)"><g id="ro_mczahu1xoj9c5-fill" stroke="none" fill="#e9fbf3"><g><path d="M 22 10L 178 10C 178 10 190 10 190 22L 190 52C 190 52 190 64 178 64L 22 64C 22 64 10 64 10 52L 10 22C 10 22 10 10 22 10"></path></g></g></g><g id="g-root-appl_zntbs21xojax0-fill" data-item-order="0" data-item-id="appl_zntbs21xojax0" data-item-class="Icon Stroke" data-item-index="none" data-renderer-id="0" transform="translate(554, 15)"></g><g id="g-root-cu_1lxeqqq1xokq9v-fill" data-item-order="0" data-item-id="cu_1lxeqqq1xokq9v" data-item-class="Curve Stroke ColorFillGray ColorStrokeGray" data-item-index="none" data-renderer-id="0" transform="translate(302, 30)"></g><g id="g-root-cu_1lxeqqq1xokq9y-fill" data-item-order="0" data-item-id="cu_1lxeqqq1xokq9y" data-item-class="Curve Stroke ColorFillGray ColorStrokeGray" data-item-index="none" data-renderer-id="0" transform="translate(494, 30)"></g><g id="g-root-tx_applicat_143mtwi1xoja4r-fill" data-item-order="0" data-item-id="tx_applicat_143mtwi1xoja4r" data-item-class="Label Stroke" data-item-index="none" data-renderer-id="0" transform="translate(590, 18)"><g id="tx_applicat_143mtwi1xoja4r-fill" stroke="none" fill="#3bc482"><g><text style="font: 20px Roboto, sans-serif; white-space: pre;"><tspan x="14.66" y="34" dominant-baseline="ideographic">Applications</tspan></text></g></g></g><g id="g-root-cu_1hi7ppe1xoknwk-fill" data-item-order="0" data-item-id="cu_1hi7ppe1xoknwk" data-item-class="Curve Stroke ColorFillGray ColorStrokeGray" data-item-index="none" data-renderer-id="0" transform="translate(260, 57)"></g><g id="g-root-cu_zqxp7m1xokq9t-fill" data-item-order="0" data-item-id="cu_zqxp7m1xokq9t" data-item-class="Curve Stroke ColorFillGray ColorStrokeGray" data-item-index="none" data-renderer-id="0" transform="translate(260, 57)"></g><g id="g-root-1_1hf3c9u1xohv5s-fill" data-item-order="0" data-item-id="1_1hf3c9u1xohv5s" data-item-class="Icon Stroke" data-item-index="none" data-renderer-id="0" transform="translate(398, 51)"></g><g id="g-root-tx_memory_m7d0pu1xokqh8-fill" data-item-order="0" data-item-id="tx_memory_m7d0pu1xokqh8" data-item-class="Label Stroke" data-item-index="none" data-renderer-id="0" transform="translate(170, 69)"><g id="tx_memory_m7d0pu1xokqh8-fill" stroke="none" fill="#484848"><g><text style="font: 20px Roboto, sans-serif; white-space: pre;"><tspan x="15.29" y="34" dominant-baseline="ideographic">Memory</tspan></text></g></g></g><g id="g-root-cu_18mkpgi1xokopb-fill" data-item-order="0" data-item-id="cu_18mkpgi1xokopb" data-item-class="Curve Stroke ColorFillGray ColorStrokeGray" data-item-index="none" data-renderer-id="0" transform="translate(260, 57)"></g><g id="g-root-tx_sequenti_v4vg821xokop0-fill" data-item-order="0" data-item-id="tx_sequenti_v4vg821xokop0" data-item-class="Label Stroke" data-item-index="none" data-renderer-id="0" transform="translate(296, 405)"><g id="tx_sequenti_v4vg821xokop0-fill" stroke="none" fill="#484848"><g><text style="font: 20px Roboto, sans-serif; white-space: pre;"><tspan x="11.83" y="34" dominant-baseline="ideographic">Sequential Data Handling</tspan></text></g></g></g><g id="g-root-cu_mg3nxe1xokooz-fill" data-item-order="0" data-item-id="cu_mg3nxe1xokooz" data-item-class="Curve Stroke ColorFillGray ColorStrokeGray" data-item-index="none" data-renderer-id="0" transform="translate(566, 57)"></g><g id="g-root-cu_dkgnoi1xokphq-fill" data-item-order="0" data-item-id="cu_dkgnoi1xokphq" data-item-class="Curve Stroke ColorFillGray ColorStrokeGray" data-item-index="none" data-renderer-id="0" transform="translate(566, 57)"></g><g id="g-root-cu_i0a5sy1xokphc-fill" data-item-order="0" data-item-id="cu_i0a5sy1xokphc" data-item-class="Curve Stroke ColorFillGray ColorStrokeGray" data-item-index="none" data-renderer-id="0" transform="translate(566, 57)"></g><g id="g-root-tx_language_4gphb61xokpon-fill" data-item-order="0" data-item-id="tx_language_4gphb61xokpon" data-item-class="Label Stroke" data-item-index="none" data-renderer-id="0" transform="translate(590, 69)"><g id="tx_language_4gphb61xokpon-fill" stroke="none" fill="#484848"><g><text style="font: 20px Roboto, sans-serif; white-space: pre;"><tspan x="12.35" y="34" dominant-baseline="ideographic">Language Modeling</tspan></text></g></g></g><g id="g-root-tx_sequenti_hs5zoi1xoko3p-fill" data-item-order="0" data-item-id="tx_sequenti_hs5zoi1xoko3p" data-item-class="Label Stroke" data-item-index="none" data-renderer-id="0" transform="translate(2, 105)"><g id="tx_sequenti_hs5zoi1xoko3p-fill" stroke="none" fill="#484848"><g><text style="font: 20px Roboto, sans-serif; white-space: pre;"><tspan x="13.84" y="34" dominant-baseline="ideographic">Sequential Data Processing</tspan></text></g></g></g><g id="g-root-tx_recurren_1qa3vfm1xohwr3-fill" data-item-order="0" data-item-id="tx_recurren_1qa3vfm1xohwr3" data-item-class="Label Stroke" data-item-index="none" data-renderer-id="0" transform="translate(374, 105)"><g id="tx_recurren_1qa3vfm1xohwr3-fill" stroke="none" fill="#484848"><g><text style="font: 20px Roboto, sans-serif; white-space: pre;"><tspan x="12.55" y="34" dominant-baseline="ideographic">Recurrent </tspan><tspan x="26.53" y="58" dominant-baseline="ideographic">Neural </tspan><tspan x="13.01" y="82" dominant-baseline="ideographic">Networks</tspan></text></g></g></g><g id="g-root-tx_speechre_1lr5zvm1xokoow-fill" data-item-order="0" data-item-id="tx_speechre_1lr5zvm1xokoow" data-item-class="Label Stroke" data-item-index="none" data-renderer-id="0" transform="translate(590, 105)"><g id="tx_speechre_1lr5zvm1xokoow-fill" stroke="none" fill="#484848"><g><text style="font: 20px Roboto, sans-serif; white-space: pre;"><tspan x="11.78" y="34" dominant-baseline="ideographic">Speech Recognition</tspan></text></g></g></g><g id="g-root-tx_dependen_8wizfm1xokowe-fill" data-item-order="0" data-item-id="tx_dependen_8wizfm1xokowe" data-item-class="Label Stroke" data-item-index="none" data-renderer-id="0" transform="translate(62, 141)"><g id="tx_dependen_8wizfm1xokowe-fill" stroke="none" fill="#484848"><g><text style="font: 20px Roboto, sans-serif; white-space: pre;"><tspan x="13.89" y="34" dominant-baseline="ideographic">Dependency Capture</tspan></text></g></g></g><g id="g-root-tx_timeseri_1cvizmq1xokphl-fill" data-item-order="0" data-item-id="tx_timeseri_1cvizmq1xokphl" data-item-class="Label Stroke" data-item-index="none" data-renderer-id="0" transform="translate(590, 141)"><g id="tx_timeseri_1cvizmq1xokphl-fill" stroke="none" fill="#484848"><g><text style="font: 20px Roboto, sans-serif; white-space: pre;"><tspan x="11.98" y="34" dominant-baseline="ideographic">Time Series Prediction</tspan></text></g></g></g><g id="g-root-cu_1lxeqqq1xokqa1-fill" data-item-order="0" data-item-id="cu_1lxeqqq1xokqa1" data-item-class="Curve Stroke ColorFillGray ColorStrokeGray" data-item-index="none" data-renderer-id="0" transform="translate(422, 213)"></g><g id="g-root-cont_7r74y1xokow1-fill" data-item-order="0" data-item-id="cont_7r74y1xokow1" data-item-class="Icon Stroke" data-item-index="none" data-renderer-id="0" transform="translate(260, 15)"></g><g id="g-root-brai_zitj361xokowa-fill" data-item-order="0" data-item-id="brai_zitj361xokowa" data-item-class="Icon Stroke" data-item-index="none" data-renderer-id="0" transform="translate(260, 270)"></g><g id="g-root-tx_comparis_18egjc21xoko3l-fill" data-item-order="0" data-item-id="tx_comparis_18egjc21xoko3l" data-item-class="Label Stroke" data-item-index="none" data-renderer-id="0" transform="translate(296, 261)"><g id="tx_comparis_18egjc21xoko3l-fill" stroke="none" fill="#e15e5a"><g><text style="font: 20px Roboto, sans-serif; white-space: pre;"><tspan x="17.45" y="34" dominant-baseline="ideographic">Comparison with Feedforward </tspan><tspan x="109.01" y="58" dominant-baseline="ideographic">Networks</tspan></text></g></g></g><g id="g-root-cu_i0a5sy1xokphe-fill" data-item-order="0" data-item-id="cu_i0a5sy1xokphe" data-item-class="Curve Stroke ColorFillGray ColorStrokeGray" data-item-index="none" data-renderer-id="0" transform="translate(272, 321)"></g><g id="g-root-cu_94n5k21xokqa5-fill" data-item-order="0" data-item-id="cu_94n5k21xokqa5" data-item-class="Curve Stroke ColorFillGray ColorStrokeGray" data-item-index="none" data-renderer-id="0" transform="translate(272, 321)"></g><g id="g-root-cu_94n5k21xokqa7-fill" data-item-order="0" data-item-id="cu_94n5k21xokqa7" data-item-class="Curve Stroke ColorFillGray ColorStrokeGray" data-item-index="none" data-renderer-id="0" transform="translate(272, 321)"></g><g id="g-root-tx_memory_18fphia1xokq9u-fill" data-item-order="0" data-item-id="tx_memory_18fphia1xokq9u" data-item-class="Label Stroke" data-item-index="none" data-renderer-id="0" transform="translate(296, 333)"><g id="tx_memory_18fphia1xokq9u-fill" stroke="none" fill="#484848"><g><text style="font: 20px Roboto, sans-serif; white-space: pre;"><tspan x="15.29" y="34" dominant-baseline="ideographic">Memory</tspan></text></g></g></g><g id="g-root-tx_contextr_zkoyci1xoknwr-fill" data-item-order="0" data-item-id="tx_contextr_zkoyci1xoknwr" data-item-class="Label Stroke" data-item-index="none" data-renderer-id="0" transform="translate(296, 369)"><g id="tx_contextr_zkoyci1xoknwr-fill" stroke="none" fill="#484848"><g><text style="font: 20px Roboto, sans-serif; white-space: pre;"><tspan x="14.55" y="34" dominant-baseline="ideographic">Context Retention</tspan></text></g></g></g><g id="g-root-tx_keyfeatu_4nkp9e1xoko3s-fill" data-item-order="0" data-item-id="tx_keyfeatu_4nkp9e1xoko3s" data-item-class="Label Stroke" data-item-index="none" data-renderer-id="0" transform="translate(134, 18)"><g id="tx_keyfeatu_4nkp9e1xoko3s-fill" stroke="none" fill="#4682e3"><g><text style="font: 20px Roboto, sans-serif; white-space: pre;"><tspan x="12.73" y="34" dominant-baseline="ideographic">Key Features</tspan></text></g></g></g><g id="g-root-ro_18jgc0y1xohvyh-stroke" data-item-order="-28512" data-item-id="ro_18jgc0y1xohvyh" data-item-class="Shape Stroke Fill" data-item-index="none" data-renderer-id="0" transform="translate(350, 15)"><g id="ro_18jgc0y1xohvyh-stroke" fill="none" stroke-linecap="round" stroke-linejoin="round" stroke-miterlimit="4" stroke="#484848" stroke-width="2"><g><path d="M 34 10L 130 10C 130 10 154 10 154 34L 154 184C 154 184 154 208 130 208L 34 208C 34 208 10 208 10 184L 10 34C 10 34 10 10 34 10"></path></g></g></g><g id="g-root-ro_v300yq1xokpoj-stroke" data-item-order="-25056" data-item-id="ro_v300yq1xokpoj" data-item-class="Shape Stroke Fill" data-item-index="none" data-renderer-id="0" transform="translate(248, 249)"><g id="ro_v300yq1xokpoj-stroke" fill="none" stroke-linecap="round" stroke-linejoin="round" stroke-miterlimit="4" stroke="#e15e5a" stroke-width="2"><g><path d="M 22 10L 346 10C 346 10 358 10 358 22L 358 70C 358 70 358 82 346 82L 22 82C 22 82 10 82 10 70L 10 22C 10 22 10 10 22 10"></path></g></g></g><g id="g-root-ro_1qd88v61xokphm-stroke" data-item-order="-9720" data-item-id="ro_1qd88v61xokphm" data-item-class="Shape Stroke Fill" data-item-index="none" data-renderer-id="0" transform="translate(122, 3)"><g id="ro_1qd88v61xokphm-stroke" fill="none" stroke-linecap="round" stroke-linejoin="round" stroke-miterlimit="4" stroke="#4682e3" stroke-width="2"><g><path d="M 22 10L 178 10C 178 10 190 10 190 22L 190 52C 190 52 190 64 178 64L 22 64C 22 64 10 64 10 52L 10 22C 10 22 10 10 22 10"></path></g></g></g><g id="g-root-ro_mczahu1xoj9c5-stroke" data-item-order="-9720" data-item-id="ro_mczahu1xoj9c5" data-item-class="Shape Stroke Fill" data-item-index="none" data-renderer-id="0" transform="translate(542, 3)"><g id="ro_mczahu1xoj9c5-stroke" fill="none" stroke-linecap="round" stroke-linejoin="round" stroke-miterlimit="4" stroke="#3bc482" stroke-width="2"><g><path d="M 22 10L 178 10C 178 10 190 10 190 22L 190 52C 190 52 190 64 178 64L 22 64C 22 64 10 64 10 52L 10 22C 10 22 10 10 22 10"></path></g></g></g><g id="g-root-appl_zntbs21xojax0-stroke" data-item-order="0" data-item-id="appl_zntbs21xojax0" data-item-class="Icon Stroke" data-item-index="none" data-renderer-id="0" transform="translate(554, 15)"><g id="appl_zntbs21xojax0-stroke" fill="none" stroke-linecap="round" stroke-linejoin="round" stroke-miterlimit="4" stroke="#3bc482" stroke-width="2"><g><path d="M 38.92857 28.214285L 38.92857 32.5C 38.92857 33.091732 38.448875 33.571426 37.857143 33.571426L 12.142857 33.571426C 11.551124 33.571426 11.071428 33.091732 11.071428 32.5L 11.071428 28.214285M 11.071428 19.642857L 11.071428 15.357142C 11.071428 14.765409 11.551124 14.285714 12.142857 14.285714L 37.857143 14.285714C 38.448875 14.285714 38.92857 14.765409 38.92857 15.357142L 38.92857 19.642857M 22.857143 33.571426L 20.714285 38.92857M 27.142857 33.571426L 29.285713 38.92857M 18.571428 38.92857L 31.42857 38.92857M 21.785713 19.642857L 28.214285 19.642857L 28.214285 28.214285L 21.785713 28.214285ZM 16.428572 20.714285L 13.214286 23.928572L 16.428572 27.142857M 33.571426 20.714285L 36.785713 23.928572L 33.571426 27.142857"></path></g></g></g><g id="g-root-cu_1lxeqqq1xokq9v-stroke" data-item-order="0" data-item-id="cu_1lxeqqq1xokq9v" data-item-class="Curve Stroke ColorFillGray ColorStrokeGray" data-item-index="none" data-renderer-id="0" transform="translate(302, 30)"><g id="cu_1lxeqqq1xokq9v-stroke" fill="none" stroke-linecap="round" stroke-linejoin="round" stroke-miterlimit="4" stroke="#888888" stroke-width="2" stroke-dasharray="5.0, 7.0"><g><path d="M 58 61L 55 61L 54.9 61C 43.357252 61.000001 34.000002 51.642752 34.000002 40.1L 34 40L 34 30.9C 33.999998 19.357248 24.64275 10 13.1 10L 13 10L 10 10"></path></g></g></g><g id="g-root-cu_1lxeqqq1xokq9y-stroke" data-item-order="0" data-item-id="cu_1lxeqqq1xokq9y" data-item-class="Curve Stroke ColorFillGray ColorStrokeGray" data-item-index="none" data-renderer-id="0" transform="translate(494, 30)"><g id="cu_1lxeqqq1xokq9y-stroke" fill="none" stroke-linecap="round" stroke-linejoin="round" stroke-miterlimit="4" stroke="#888888" stroke-width="2" stroke-dasharray="5.0, 7.0"><g><path d="M 10 61L 13 61L 13.1 61C 24.642753 60.999998 34.000001 51.642749 34.000001 40.099998L 34 40L 34 30.9C 33.999999 19.357249 43.357248 10.000001 54.899999 10.000002L 55 10L 58 10"></path></g></g></g><g id="g-root-tx_applicat_143mtwi1xoja4r-stroke" data-item-order="0" data-item-id="tx_applicat_143mtwi1xoja4r" data-item-class="Label Stroke" data-item-index="none" data-renderer-id="0" transform="translate(590, 18)"></g><g id="g-root-cu_1hi7ppe1xoknwk-stroke" data-item-order="0" data-item-id="cu_1hi7ppe1xoknwk" data-item-class="Curve Stroke ColorFillGray ColorStrokeGray" data-item-index="none" data-renderer-id="0" transform="translate(260, 57)"><g id="cu_1hi7ppe1xoknwk-stroke" fill="none" stroke-linecap="round" stroke-linejoin="round" stroke-miterlimit="4" stroke="#888888" stroke-width="2" stroke-dasharray="5.0, 7.0"><g><path d="M 28 10L 28 22L 28 34L 19 34L 10 34"></path></g></g></g><g id="g-root-cu_zqxp7m1xokq9t-stroke" data-item-order="0" data-item-id="cu_zqxp7m1xokq9t" data-item-class="Curve Stroke ColorFillGray ColorStrokeGray" data-item-index="none" data-renderer-id="0" transform="translate(260, 57)"><g id="cu_zqxp7m1xokq9t-stroke" fill="none" stroke-linecap="round" stroke-linejoin="round" stroke-miterlimit="4" stroke="#888888" stroke-width="2" stroke-dasharray="5.0, 7.0"><g><path d="M 28 10L 28 22L 28 94C 28.000002 100.627415 22.627419 105.999998 16.000002 105.999998L 15.9 106L 10 106"></path></g></g></g><g id="g-root-1_1hf3c9u1xohv5s-stroke" data-item-order="0" data-item-id="1_1hf3c9u1xohv5s" data-item-class="Icon Stroke" data-item-index="none" data-renderer-id="0" transform="translate(398, 51)"><g id="1_1hf3c9u1xohv5s-stroke" fill="none" stroke-linecap="round" stroke-linejoin="round" stroke-miterlimit="4" stroke="#484848" stroke-width="2"><g><path d="M 21.9 50.722C 24.020437 50.369061 25.810703 48.951202 26.639999 46.967999M 14.842 27.091999C 18.933346 27.809448 22.448338 30.41087 24.33 34.113998M 21.566 30.458L 25.152 27.768M 30 11.346C 29.961555 13.350931 29.599562 15.336494 28.928001 17.226M 26 19C 26 20.104568 26.89543 21 28 21C 29.10457 21 30 20.104568 30 19C 30 17.895432 29.10457 17 28 17C 26.89543 17 26 17.895432 26 19ZM 38 23C 38 24.104568 38.895432 25 40 25C 41.104568 25 42 24.104568 42 23C 42 21.895432 41.104568 21 40 21C 38.895432 21 38 21.895432 38 23ZM 45 31C 45 32.104568 45.895432 33 47 33C 48.104568 33 49 32.104568 49 31C 49 29.89543 48.104568 29 47 29C 45.895432 29 45 29.89543 45 31ZM 38 38C 38 39.104568 38.895432 40 40 40C 41.104568 40 42 39.104568 42 38C 42 36.895432 41.104568 36 40 36C 38.895432 36 38 36.895432 38 38ZM 25 27C 25 28.10457 25.895432 29 27 29C 28.10457 29 29 28.10457 29 27C 29 25.895432 28.10457 25 27 25C 25.895432 25 25 25.895432 25 27ZM 23 36C 23 37.104568 23.895432 38 25 38C 26.10457 38 27 37.104568 27 36C 27 34.895432 26.10457 34 25 34C 23.895432 34 23 34.895432 23 36ZM 57 34C 57.008011 31.185829 55.553005 28.569696 53.158001 27.092001C 53.293533 26.501471 53.363956 25.897869 53.368 25.292C 53.408073 21.133251 50.242878 17.643175 46.099998 17.278C 46.141312 15.640398 45.524818 14.054508 44.388306 12.874773C 43.251789 11.695037 41.690002 11.019809 40.052002 11C 37.462227 11.148269 35.151451 12.67555 34 15C 32.848549 12.67555 30.537773 11.148269 27.948 11C 26.309998 11.019809 24.748211 11.695037 23.611694 12.874773C 22.47518 14.054508 21.858686 15.640398 21.9 17.278C 17.755573 17.643291 14.589825 21.135719 14.632 25.296C 14.632763 25.901501 14.699829 26.505098 14.832 27.095999C 12.44329 28.57963 10.990566 31.192043 10.990566 34.003998C 10.990566 36.815956 12.44329 39.428368 14.832 40.911999C 14.699829 41.502899 14.632763 42.106499 14.632 42.711998C 14.594027 46.869217 17.758669 50.356941 21.9 50.722C 21.858686 52.3596 22.47518 53.945492 23.611694 55.125225C 24.748211 56.304962 26.309998 56.98019 27.948 57C 30.33633 57.057899 32.59996 55.93581 34 53.999996C 35.40004 55.93581 37.663666 57.057899 40.051998 56.999996C 41.690002 56.98019 43.251789 56.304962 44.388306 55.125225C 45.524818 53.945492 46.141312 52.3596 46.099998 50.722C 50.244423 50.356709 53.410175 46.864277 53.368 42.703999C 53.363956 42.098129 53.293533 41.49453 53.157997 40.903999C 55.551788 39.427048 57.006618 36.812752 57 34ZM 34 15L 34 38M 34 45.916L 34 54M 52.346001 21.326L 46.799999 24.102001C 45.179813 24.913155 43.276203 24.932337 41.639999 24.153999M 40 36C 40.593044 33.525269 42.525269 31.593044 45.000004 31.000002M 46.099998 50.722C 45.548 48.799999 44.605999 47.321999 43 47M 25 45C 25 46.104568 25.895432 47 27 47C 28.10457 47 29 46.104568 29 45C 29 43.895432 28.10457 43 27 43C 25.895432 43 25 43.895432 25 45ZM 39 47C 39 48.104568 39.895432 49 41 49C 42.104568 49 43 48.104568 43 47C 43 45.895432 42.104568 45 41 45C 39.895432 45 39 45.895432 39 47Z"></path></g></g></g><g id="g-root-tx_memory_m7d0pu1xokqh8-stroke" data-item-order="0" data-item-id="tx_memory_m7d0pu1xokqh8" data-item-class="Label Stroke" data-item-index="none" data-renderer-id="0" transform="translate(170, 69)"></g><g id="g-root-cu_18mkpgi1xokopb-stroke" data-item-order="0" data-item-id="cu_18mkpgi1xokopb" data-item-class="Curve Stroke ColorFillGray ColorStrokeGray" data-item-index="none" data-renderer-id="0" transform="translate(260, 57)"><g id="cu_18mkpgi1xokopb-stroke" fill="none" stroke-linecap="round" stroke-linejoin="round" stroke-miterlimit="4" stroke="#888888" stroke-width="2" stroke-dasharray="5.0, 7.0"><g><path d="M 28 10L 28 40L 28 70L 19 70L 10 70"></path></g></g></g><g id="g-root-tx_sequenti_v4vg821xokop0-stroke" data-item-order="0" data-item-id="tx_sequenti_v4vg821xokop0" data-item-class="Label Stroke" data-item-index="none" data-renderer-id="0" transform="translate(296, 405)"></g><g id="g-root-cu_mg3nxe1xokooz-stroke" data-item-order="0" data-item-id="cu_mg3nxe1xokooz" data-item-class="Curve Stroke ColorFillGray ColorStrokeGray" data-item-index="none" data-renderer-id="0" transform="translate(566, 57)"><g id="cu_mg3nxe1xokooz-stroke" fill="none" stroke-linecap="round" stroke-linejoin="round" stroke-miterlimit="4" stroke="#888888" stroke-width="2" stroke-dasharray="5.0, 7.0"><g><path d="M 10 10L 10 22L 10 34L 19 34L 28 34"></path></g></g></g><g id="g-root-cu_dkgnoi1xokphq-stroke" data-item-order="0" data-item-id="cu_dkgnoi1xokphq" data-item-class="Curve Stroke ColorFillGray ColorStrokeGray" data-item-index="none" data-renderer-id="0" transform="translate(566, 57)"><g id="cu_dkgnoi1xokphq-stroke" fill="none" stroke-linecap="round" stroke-linejoin="round" stroke-miterlimit="4" stroke="#888888" stroke-width="2" stroke-dasharray="5.0, 7.0"><g><path d="M 10 10L 10 40L 10 70L 19 70L 28 70"></path></g></g></g><g id="g-root-cu_i0a5sy1xokphc-stroke" data-item-order="0" data-item-id="cu_i0a5sy1xokphc" data-item-class="Curve Stroke ColorFillGray ColorStrokeGray" data-item-index="none" data-renderer-id="0" transform="translate(566, 57)"><g id="cu_i0a5sy1xokphc-stroke" fill="none" stroke-linecap="round" stroke-linejoin="round" stroke-miterlimit="4" stroke="#888888" stroke-width="2" stroke-dasharray="5.0, 7.0"><g><path d="M 10 10L 10 22L 10 94C 10.000004 100.627423 15.372587 106.000006 22.000005 106.000005L 22.1 106L 28 106"></path></g></g></g><g id="g-root-tx_language_4gphb61xokpon-stroke" data-item-order="0" data-item-id="tx_language_4gphb61xokpon" data-item-class="Label Stroke" data-item-index="none" data-renderer-id="0" transform="translate(590, 69)"></g><g id="g-root-tx_sequenti_hs5zoi1xoko3p-stroke" data-item-order="0" data-item-id="tx_sequenti_hs5zoi1xoko3p" data-item-class="Label Stroke" data-item-index="none" data-renderer-id="0" transform="translate(2, 105)"></g><g id="g-root-tx_recurren_1qa3vfm1xohwr3-stroke" data-item-order="0" data-item-id="tx_recurren_1qa3vfm1xohwr3" data-item-class="Label Stroke" data-item-index="none" data-renderer-id="0" transform="translate(374, 105)"></g><g id="g-root-tx_speechre_1lr5zvm1xokoow-stroke" data-item-order="0" data-item-id="tx_speechre_1lr5zvm1xokoow" data-item-class="Label Stroke" data-item-index="none" data-renderer-id="0" transform="translate(590, 105)"></g><g id="g-root-tx_dependen_8wizfm1xokowe-stroke" data-item-order="0" data-item-id="tx_dependen_8wizfm1xokowe" data-item-class="Label Stroke" data-item-index="none" data-renderer-id="0" transform="translate(62, 141)"></g><g id="g-root-tx_timeseri_1cvizmq1xokphl-stroke" data-item-order="0" data-item-id="tx_timeseri_1cvizmq1xokphl" data-item-class="Label Stroke" data-item-index="none" data-renderer-id="0" transform="translate(590, 141)"></g><g id="g-root-cu_1lxeqqq1xokqa1-stroke" data-item-order="0" data-item-id="cu_1lxeqqq1xokqa1" data-item-class="Curve Stroke ColorFillGray ColorStrokeGray" data-item-index="none" data-renderer-id="0" transform="translate(422, 213)"><g id="cu_1lxeqqq1xokqa1-stroke" fill="none" stroke-linecap="round" stroke-linejoin="round" stroke-miterlimit="4" stroke="#888888" stroke-width="2" stroke-dasharray="5.0, 7.0"><g><path d="M 10 10L 10 28L 10 46"></path></g></g></g><g id="g-root-cont_7r74y1xokow1-stroke" data-item-order="0" data-item-id="cont_7r74y1xokow1" data-item-class="Icon Stroke" data-item-index="none" data-renderer-id="0" transform="translate(260, 15)"><g id="cont_7r74y1xokow1-stroke" fill="none" stroke-linecap="round" stroke-linejoin="round" stroke-miterlimit="4" stroke="#4682e3" stroke-width="2"><g><path d="M 23.125 21.875C 23.125 22.565357 22.565357 23.125 21.875 23.125L 11.875 23.125C 11.184644 23.125 10.625 22.565357 10.625 21.875L 10.625 11.875C 10.625 11.184644 11.184644 10.625 11.875 10.625L 21.875 10.625C 22.565357 10.625 23.125 11.184644 23.125 11.875ZM 23.125 38.125C 23.125 38.815353 22.565357 39.375 21.875 39.375L 11.875 39.375C 11.184644 39.375 10.625 38.815353 10.625 38.125L 10.625 28.125C 10.625 27.434643 11.184644 26.875 11.875 26.875L 21.875 26.875C 22.565357 26.875 23.125 27.434643 23.125 28.125ZM 26.87125 13.12125L 39.37125 13.12125M 26.87125 16.87125L 39.37125 16.87125M 26.87125 20.62125L 39.37125 20.62125M 26.87125 29.37125L 39.37125 29.37125M 26.87125 33.12125L 39.37125 33.12125M 26.87125 36.87125L 39.37125 36.87125"></path></g></g></g><g id="g-root-brai_zitj361xokowa-stroke" data-item-order="0" data-item-id="brai_zitj361xokowa" data-item-class="Icon Stroke" data-item-index="none" data-renderer-id="0" transform="translate(260, 270)"><g id="brai_zitj361xokowa-stroke" fill="none" stroke-linecap="round" stroke-linejoin="round" stroke-miterlimit="4" stroke="#e15e5a" stroke-width="2"><g><path d="M 39.478752 25C 39.475586 26.961422 37.956718 28.586712 36 28.7225C 37.142189 30.189625 37.300915 32.196011 36.40361 33.824478C 35.50631 35.452942 33.725403 36.390575 31.875 36.208752C 32.151989 37.139313 31.865149 38.146091 31.139307 38.790939C 30.413467 39.435783 29.379913 39.602062 28.488447 39.217407C 27.596981 38.832748 27.008846 37.966736 26.98 36.99625C 25.818159 37.66853 24.385592 37.66853 23.223751 36.99625C 23.193115 37.965523 22.604702 38.829636 21.714069 39.213299C 20.823437 39.596962 19.791271 39.430954 19.065859 38.787369C 18.340445 38.143784 18.052662 37.138744 18.327499 36.208748C 16.477098 36.390575 14.696191 35.452942 13.798889 33.824478C 12.901588 32.196011 13.060311 30.189625 14.2025 28.7225C 12.245504 28.58824 10.726631 26.961596 10.726631 25C 10.726631 23.038404 12.245504 21.411758 14.2025 21.2775C 13.060311 19.810375 12.901588 17.803989 13.798889 16.175524C 14.696191 14.547057 16.477098 13.609426 18.327499 13.79125C 18.052662 12.861256 18.340445 11.856216 19.065859 11.212632C 19.791271 10.569049 20.823437 10.403038 21.714069 10.786701C 22.604702 11.170364 23.193115 12.034478 23.223751 13.00375C 24.385592 12.331469 25.818159 12.331469 26.980001 13.00375C 27.008846 12.033265 27.596981 11.167251 28.488447 10.782595C 29.379913 10.397939 30.413467 10.564215 31.139307 11.209061C 31.865149 11.853908 32.151989 12.860686 31.875 13.79125C 33.725403 13.609426 35.50631 14.547057 36.40361 16.175524C 37.300915 17.803989 37.142189 19.810375 36 21.2775C 37.956718 21.413288 39.475586 23.038578 39.478752 25ZM 25.10375 30.625L 25.10375 31.875M 25.10375 26.875L 25.10375 28.125M 29.001251 26.875L 29.001251 28.125M 25.10375 19.375L 25.10375 20.625M 25.10375 15.625L 25.10375 16.875M 25.10375 34.375L 25.10375 35.625M 18.85375 17.5C 18.85375 18.535534 19.693216 19.375 20.72875 19.375C 21.764284 19.375 22.60375 18.535534 22.60375 17.5C 22.60375 16.464466 21.764284 15.625 20.72875 15.625C 19.693216 15.625 18.85375 16.464466 18.85375 17.5ZM 28.22875 20.625C 28.22875 21.660534 29.068218 22.5 30.10375 22.5C 31.139286 22.5 31.97875 21.660534 31.97875 20.625C 31.97875 19.589466 31.139286 18.75 30.10375 18.75C 29.068218 18.75 28.22875 19.589466 28.22875 20.625ZM 16.97875 31.25C 16.97875 32.285534 17.818216 33.125 18.85375 33.125C 19.889284 33.125 20.72875 32.285534 20.72875 31.25C 20.72875 30.214466 19.889284 29.375002 18.85375 29.375002C 17.818216 29.375002 16.97875 30.214466 16.97875 31.25ZM 27.60375 31.875C 27.60375 32.910534 28.443216 33.75 29.47875 33.75C 30.514286 33.75 31.35375 32.910534 31.35375 31.875C 31.35375 30.839466 30.514286 30 29.47875 30C 28.443216 30 27.60375 30.839466 27.60375 31.875ZM 30.72875 26.25C 30.72875 27.285534 31.568218 28.125 32.603752 28.125C 33.639286 28.125 34.478752 27.285534 34.478752 26.25C 34.478752 25.214466 33.639286 24.375 32.603752 24.375C 31.568218 24.375 30.72875 25.214466 30.72875 26.25ZM 31.98 20.625C 32.670357 20.625 33.23 20.065357 33.23 19.375L 33.23 17.5M 13.85375 25.625L 15.72875 25.625C 16.419106 25.625 16.97875 25.065357 16.97875 24.375L 16.97875 23.125C 16.97875 22.434643 17.538395 21.875 18.22875 21.875L 19.47875 21.875C 20.169106 21.875 20.72875 21.315357 20.72875 20.625L 20.72875 19.375M 20.72875 31.25C 21.419106 31.25 21.97875 31.809645 21.97875 32.5L 21.97875 35M 31.35375 31.875L 33.853752 31.875"></path></g></g></g><g id="g-root-tx_comparis_18egjc21xoko3l-stroke" data-item-order="0" data-item-id="tx_comparis_18egjc21xoko3l" data-item-class="Label Stroke" data-item-index="none" data-renderer-id="0" transform="translate(296, 261)"></g><g id="g-root-cu_i0a5sy1xokphe-stroke" data-item-order="0" data-item-id="cu_i0a5sy1xokphe" data-item-class="Curve Stroke ColorFillGray ColorStrokeGray" data-item-index="none" data-renderer-id="0" transform="translate(272, 321)"><g id="cu_i0a5sy1xokphe-stroke" fill="none" stroke-linecap="round" stroke-linejoin="round" stroke-miterlimit="4" stroke="#888888" stroke-width="2" stroke-dasharray="5.0, 7.0"><g><path d="M 10 10L 10 22L 10 34L 19 34L 28 34"></path></g></g></g><g id="g-root-cu_94n5k21xokqa5-stroke" data-item-order="0" data-item-id="cu_94n5k21xokqa5" data-item-class="Curve Stroke ColorFillGray ColorStrokeGray" data-item-index="none" data-renderer-id="0" transform="translate(272, 321)"><g id="cu_94n5k21xokqa5-stroke" fill="none" stroke-linecap="round" stroke-linejoin="round" stroke-miterlimit="4" stroke="#888888" stroke-width="2" stroke-dasharray="5.0, 7.0"><g><path d="M 10 10L 10 40L 10 70L 19 70L 28 70"></path></g></g></g><g id="g-root-cu_94n5k21xokqa7-stroke" data-item-order="0" data-item-id="cu_94n5k21xokqa7" data-item-class="Curve Stroke ColorFillGray ColorStrokeGray" data-item-index="none" data-renderer-id="0" transform="translate(272, 321)"><g id="cu_94n5k21xokqa7-stroke" fill="none" stroke-linecap="round" stroke-linejoin="round" stroke-miterlimit="4" stroke="#888888" stroke-width="2" stroke-dasharray="5.0, 7.0"><g><path d="M 10 10L 10 22L 10 94C 10.000004 100.627423 15.372587 106.000006 22.000005 106.000005L 22.1 106L 28 106"></path></g></g></g><g id="g-root-tx_memory_18fphia1xokq9u-stroke" data-item-order="0" data-item-id="tx_memory_18fphia1xokq9u" data-item-class="Label Stroke" data-item-index="none" data-renderer-id="0" transform="translate(296, 333)"></g><g id="g-root-tx_contextr_zkoyci1xoknwr-stroke" data-item-order="0" data-item-id="tx_contextr_zkoyci1xoknwr" data-item-class="Label Stroke" data-item-index="none" data-renderer-id="0" transform="translate(296, 369)"></g><g id="g-root-tx_keyfeatu_4nkp9e1xoko3s-stroke" data-item-order="0" data-item-id="tx_keyfeatu_4nkp9e1xoko3s" data-item-class="Label Stroke" data-item-index="none" data-renderer-id="0" transform="translate(134, 18)"></g></g></g></svg>