<?xml version="1.0" encoding="utf-8" standalone="yes"?>
<!DOCTYPE svg PUBLIC "-//W3C//DTD SVG 1.1//EN" "http://www.w3.org/Graphics/SVG/1.1/DTD/svg11.dtd">
<svg width="555" height="568" viewBox="0 0 555 568" style="fill:none;stroke:none;fill-rule:evenodd;clip-rule:evenodd;stroke-linecap:round;stroke-linejoin:round;stroke-miterlimit:1.5;" version="1.1" xmlns="http://www.w3.org/2000/svg" xmlns:xlink="http://www.w3.org/1999/xlink"><style id="fontImports">@import url("https://fonts.googleapis.com/css2?family=Shantell+Sans:wght@300..800&amp;display=block");</style><rect id="" x="0" y="0" width="554" height="568" style="fill: #ffffff;"></rect><g id="items" style="isolation: isolate"><g id="blend" style="mix-blend-mode:multiply"><g id="g-root-3.cu_sy_hs53wz1v6mwwa-fill" data-item-order="-272155" data-item-id="3.cu_sy_hs53wz1v6mwwa" data-item-class="ScenePart Part Indexed Stroke ColorStrokeBlack" data-item-index="3" data-renderer-id="0" transform="translate(4, 111.9990234375)"></g><g id="g-root-2.cu_sy_qn5n2r1v6mz9d-fill" data-item-order="-272153" data-item-id="2.cu_sy_qn5n2r1v6mz9d" data-item-class="ScenePart Part Indexed Stroke ColorStrokeBlack" data-item-index="2" data-renderer-id="0" transform="translate(256.00048828125, 4)"></g><g id="g-root-1.cu_sy_13ym5g31v6mxog-fill" data-item-order="-272152" data-item-id="1.cu_sy_13ym5g31v6mxog" data-item-class="ScenePart Part Indexed Indexed_1 Fill Stroke ColorStrokeBlack" data-item-index="1" data-renderer-id="0" transform="translate(226.00048828125, 28)"><g id="1.cu_sy_13ym5g31v6mxog-fill" stroke="none" fill="none"><g><path d="M 10 34L 28 10L 28 18L 52 18L 52 10L 70 34L 52 58L 52 50L 28 50L 28 58L 10 34Z"></path></g></g></g><g id="g-root-tx_cons_1hefzf71v6myoe-fill" data-item-order="0" data-item-id="tx_cons_1hefzf71v6myoe" data-item-class="Label Stroke SceneTarget ColorStrokeBlack" data-item-index="none" data-renderer-id="0" transform="translate(364.00048828125, 40)"><g id="tx_cons_1hefzf71v6myoe-fill" stroke="none" fill="#484848"><g><text style="font: 20px &quot;Shantell Sans&quot;, cursive; white-space: pre;"><tspan x="12" y="35.33" dominant-baseline="ideographic">Cons</tspan></text></g></g></g><g id="g-root-tx_pros_1cymhar1v6mzgn-fill" data-item-order="0" data-item-id="tx_pros_1cymhar1v6mzgn" data-item-class="Label Stroke SceneTarget ColorStrokeBlack" data-item-index="none" data-renderer-id="0" transform="translate(64.00048828125, 40)"><g id="tx_pros_1cymhar1v6mzgn-fill" stroke="none" fill="#484848"><g><text style="font: 20px &quot;Shantell Sans&quot;, cursive; white-space: pre;"><tspan x="12" y="35.33" dominant-baseline="ideographic">Pros</tspan></text></g></g></g><g id="g-root-1_mcbxn71v72eiu-fill" data-item-order="0" data-item-id="1_mcbxn71v72eiu" data-item-class="Icon Stroke SceneTarget Indexed Indexed_1 ColorStrokeBlack" data-item-index="1" data-renderer-id="0" transform="translate(4.00048828125, 148)"></g><g id="g-root-tx_handless_1hefzf71v6myod-fill" data-item-order="0" data-item-id="tx_handless_1hefzf71v6myod" data-item-class="Label Stroke SceneTarget Indexed Indexed_1 ColorStrokeBlack" data-item-index="1" data-renderer-id="0" transform="translate(64.00048828125, 136)"><g id="tx_handless_1hefzf71v6myod-fill" stroke="none" fill="#484848"><g><text style="font: 20px &quot;Shantell Sans&quot;, cursive; white-space: pre;"><tspan x="12" y="35.33" dominant-baseline="ideographic">Handles </tspan><tspan x="12" y="59.33" dominant-baseline="ideographic">sequential </tspan><tspan x="12" y="83.33" dominant-baseline="ideographic">data</tspan></text></g></g></g><g id="g-root-fade_dgoxeb1v72fbj-fill" data-item-order="0" data-item-id="fade_dgoxeb1v72fbj" data-item-class="Icon Stroke SceneTarget Indexed ColorStrokeBlack" data-item-index="101" data-renderer-id="0" transform="translate(304.00048828125, 148)"></g><g id="g-root-tx_vanishin_8zmh3n1v6myvc-fill" data-item-order="0" data-item-id="tx_vanishin_8zmh3n1v6myvc" data-item-class="Label Stroke SceneTarget Indexed ColorStrokeBlack" data-item-index="101" data-renderer-id="0" transform="translate(364.00048828125, 136)"><g id="tx_vanishin_8zmh3n1v6myvc-fill" stroke="none" fill="#484848"><g><text style="font: 20px &quot;Shantell Sans&quot;, cursive; white-space: pre;"><tspan x="12" y="35.33" dominant-baseline="ideographic">Vanishing </tspan><tspan x="12" y="59.33" dominant-baseline="ideographic">gradient </tspan><tspan x="12" y="83.33" dominant-baseline="ideographic">problem</tspan></text></g></g></g><g id="g-root-user_qs5frn1v72dql-fill" data-item-order="0" data-item-id="user_qs5frn1v72dql" data-item-class="Icon Stroke SceneTarget Indexed ColorStrokeBlack" data-item-index="2" data-renderer-id="0" transform="translate(4.00048828125, 232)"></g><g id="g-root-tx_contexta_1qa2zo31v6mxvo-fill" data-item-order="0" data-item-id="tx_contexta_1qa2zo31v6mxvo" data-item-class="Label Stroke SceneTarget Indexed ColorStrokeBlack" data-item-index="2" data-renderer-id="0" transform="translate(64.00048828125, 220)"><g id="tx_contexta_1qa2zo31v6mxvo-fill" stroke="none" fill="#484848"><g><text style="font: 20px &quot;Shantell Sans&quot;, cursive; white-space: pre;"><tspan x="12" y="35.33" dominant-baseline="ideographic">Context-</tspan><tspan x="12" y="59.33" dominant-baseline="ideographic">aware </tspan><tspan x="12" y="83.33" dominant-baseline="ideographic">predictions</tspan></text></g></g></g><g id="g-root-2_1qa2zo31v72cxu-fill" data-item-order="0" data-item-id="2_1qa2zo31v72cxu" data-item-class="Icon Stroke SceneTarget Indexed ColorStrokeBlack" data-item-index="102" data-renderer-id="0" transform="translate(304.00048828125, 232)"></g><g id="g-root-tx_computat_mb2zgz1v6mxaf-fill" data-item-order="0" data-item-id="tx_computat_mb2zgz1v6mxaf" data-item-class="Label Stroke SceneTarget Indexed ColorStrokeBlack" data-item-index="102" data-renderer-id="0" transform="translate(364.00048828125, 232)"><g id="tx_computat_mb2zgz1v6mxaf-fill" stroke="none" fill="#484848"><g><text style="font: 20px &quot;Shantell Sans&quot;, cursive; white-space: pre;"><tspan x="12" y="35.33" dominant-baseline="ideographic">Computationally </tspan><tspan x="12" y="59.33" dominant-baseline="ideographic">expensive</tspan></text></g></g></g><g id="g-root-tran_1ur5fyr1v72ebt-fill" data-item-order="0" data-item-id="tran_1ur5fyr1v72ebt" data-item-class="Icon Stroke SceneTarget Indexed ColorStrokeBlack" data-item-index="3" data-renderer-id="0" transform="translate(4.00048828125, 316)"></g><g id="g-root-tx_usefulfo_1upwhsj1v6mx3f-fill" data-item-order="0" data-item-id="tx_usefulfo_1upwhsj1v6mx3f" data-item-class="Label Stroke SceneTarget Indexed ColorStrokeBlack" data-item-index="3" data-renderer-id="0" transform="translate(64.00048828125, 304)"><g id="tx_usefulfo_1upwhsj1v6mx3f-fill" stroke="none" fill="#484848"><g><text style="font: 20px &quot;Shantell Sans&quot;, cursive; white-space: pre;"><tspan x="12" y="35.33" dominant-baseline="ideographic">Useful for </tspan><tspan x="12" y="59.33" dominant-baseline="ideographic">language </tspan><tspan x="12" y="83.33" dominant-baseline="ideographic">tasks</tspan></text></g></g></g><g id="g-root-1_1upa0pf1v72fbd-fill" data-item-order="0" data-item-id="1_1upa0pf1v72fbd" data-item-class="Icon Stroke SceneTarget Indexed ColorStrokeBlack" data-item-index="103" data-renderer-id="0" transform="translate(304.00048828125, 316)"></g><g id="g-root-tx_struggle_qqwhlf1v6mwi6-fill" data-item-order="0" data-item-id="tx_struggle_qqwhlf1v6mwi6" data-item-class="Label Stroke SceneTarget Indexed ColorStrokeBlack" data-item-index="103" data-renderer-id="0" transform="translate(364.00048828125, 304)"><g id="tx_struggle_qqwhlf1v6mwi6-fill" stroke="none" fill="#484848"><g><text style="font: 20px &quot;Shantell Sans&quot;, cursive; white-space: pre;"><tspan x="12" y="35.33" dominant-baseline="ideographic">Struggles </tspan><tspan x="12" y="59.33" dominant-baseline="ideographic">with long </tspan><tspan x="12" y="83.33" dominant-baseline="ideographic">sequences</tspan></text></g></g></g><g id="g-root-id_142zh1v1v72fbg-fill" data-item-order="0" data-item-id="id_142zh1v1v72fbg" data-item-class="Icon Stroke SceneTarget Indexed ColorStrokeBlack" data-item-index="4" data-renderer-id="0" transform="translate(4.00048828125, 400)"></g><g id="g-root-tx_effectiv_4kfg2b1v6mwhu-fill" data-item-order="0" data-item-id="tx_effectiv_4kfg2b1v6mwhu" data-item-class="Label Stroke SceneTarget Indexed ColorStrokeBlack" data-item-index="4" data-renderer-id="0" transform="translate(64.00048828125, 388)"><g id="tx_effectiv_4kfg2b1v6mwhu-fill" stroke="none" fill="#484848"><g><text style="font: 20px &quot;Shantell Sans&quot;, cursive; white-space: pre;"><tspan x="12" y="35.33" dominant-baseline="ideographic">Effective in </tspan><tspan x="12" y="59.33" dominant-baseline="ideographic">speech </tspan><tspan x="12" y="83.33" dominant-baseline="ideographic">recognition</tspan></text></g></g></g><g id="g-root-tx_lesseffe_1q87ker1v6myv9-fill" data-item-order="0" data-item-id="tx_lesseffe_1q87ker1v6myv9" data-item-class="Label Stroke SceneTarget Indexed ColorStrokeBlack" data-item-index="104" data-renderer-id="0" transform="translate(364.00048828125, 376)"><g id="tx_lesseffe_1q87ker1v6myv9-fill" stroke="none" fill="#484848"><g><text style="font: 20px &quot;Shantell Sans&quot;, cursive; white-space: pre;"><tspan x="12" y="35.33" dominant-baseline="ideographic">Less effective </tspan><tspan x="12" y="59.33" dominant-baseline="ideographic">for non-</tspan><tspan x="12" y="83.33" dominant-baseline="ideographic">sequential </tspan><tspan x="12" y="107.33" dominant-baseline="ideographic">data</tspan></text></g></g></g><g id="g-root-1_8zmh3n1v72dxk-fill" data-item-order="0" data-item-id="1_8zmh3n1v72dxk" data-item-class="Icon Stroke SceneTarget Indexed ColorStrokeBlack" data-item-index="104" data-renderer-id="0" transform="translate(304.00048828125, 400)"></g><g id="g-root-line_1hefzf71v72dqj-fill" data-item-order="0" data-item-id="line_1hefzf71v72dqj" data-item-class="Icon Stroke SceneTarget Indexed ColorStrokeBlack" data-item-index="5" data-renderer-id="0" transform="translate(4.00048828125, 484)"></g><g id="g-root-tx_goodfort_8zmh3n1v6myvd-fill" data-item-order="0" data-item-id="tx_goodfort_8zmh3n1v6myvd" data-item-class="Label Stroke SceneTarget Indexed ColorStrokeBlack" data-item-index="5" data-renderer-id="0" transform="translate(64.00048828125, 472)"><g id="tx_goodfort_8zmh3n1v6myvd-fill" stroke="none" fill="#484848"><g><text style="font: 20px &quot;Shantell Sans&quot;, cursive; white-space: pre;"><tspan x="12" y="35.33" dominant-baseline="ideographic">Good for time </tspan><tspan x="12" y="59.33" dominant-baseline="ideographic">series </tspan><tspan x="12" y="83.33" dominant-baseline="ideographic">forecasting</tspan></text></g></g></g><g id="g-root-tx_challeng_m97k7n1v6mya4-fill" data-item-order="0" data-item-id="tx_challeng_m97k7n1v6mya4" data-item-class="Label Stroke SceneTarget Indexed ColorStrokeBlack" data-item-index="105" data-renderer-id="0" transform="translate(364.00048828125, 472)"><g id="tx_challeng_m97k7n1v6mya4-fill" stroke="none" fill="#484848"><g><text style="font: 20px &quot;Shantell Sans&quot;, cursive; white-space: pre;"><tspan x="12" y="35.33" dominant-baseline="ideographic">Challenging </tspan><tspan x="12" y="59.33" dominant-baseline="ideographic">for real-time </tspan><tspan x="12" y="83.33" dominant-baseline="ideographic">applications</tspan></text></g></g></g><g id="g-root-cloc_4loe8j1v72dq8-fill" data-item-order="0" data-item-id="cloc_4loe8j1v72dq8" data-item-class="Icon Stroke SceneTarget Indexed ColorStrokeBlack" data-item-index="105" data-renderer-id="0" transform="translate(304.00048828125, 484)"></g><g id="g-root-3.cu_sy_hs53wz1v6mwwa-stroke" data-item-order="-272155" data-item-id="3.cu_sy_hs53wz1v6mwwa" data-item-class="ScenePart Part Indexed Stroke ColorStrokeBlack" data-item-index="3" data-renderer-id="0" transform="translate(4, 111.9990234375)"><g id="3.cu_sy_hs53wz1v6mwwa-stroke" fill="none" stroke-linecap="round" stroke-linejoin="round" stroke-miterlimit="4" stroke="#484848" stroke-width="4"><g><path d="M 514 10C 498.9 11.9 483.4 8.2 468.2 10C 450.5 12.1 432.5 9.2 414.7 10C 399.5 10.7 384.2 8.8 369 10C 352.8 11.2 336.6 8.9 320.4 10C 303.9 11.2 287.2 8.1 270.7 10C 252.4 12.1 233.7 11.6 215.3 10C 199.2 8.6 183 9.1 166.9 10C 150 11 132.9 10.3 115.9 10C 99.3 9.8 82.7 9.6 66 10C 47.4 10.4 28.7 10.6 10 10"></path><path d="M 514.0005 10.000007L 10 10.001007"></path></g></g></g><g id="g-root-2.cu_sy_qn5n2r1v6mz9d-stroke" data-item-order="-272153" data-item-id="2.cu_sy_qn5n2r1v6mz9d" data-item-class="ScenePart Part Indexed Stroke ColorStrokeBlack" data-item-index="2" data-renderer-id="0" transform="translate(256.00048828125, 4)"><g id="2.cu_sy_qn5n2r1v6mz9d-stroke" fill="none" stroke-linecap="round" stroke-linejoin="round" stroke-miterlimit="4" stroke="#484848" stroke-width="4"><g><path d="M 10 298C 8.6 270 8.6 242 10 214M 10 382C 10.8 354 10.9 326 10 298M 10 466C 10.3 453 11.6 439.8 10 426.9C 8.2 412 11.7 396.9 10 382M 10 550C 8.8 522 10.9 494 10 466M 10 214C 8.9 199.4 10.9 184.7 10 170.1C 8.9 152.8 10.3 135.4 10 118M 10 118C 8.8 105.4 9.5 92.7 10 80M 10 36C 10.5 27.3 10.8 18.6 10 10"></path><path d="M 10 298L 10 214M 10 382L 10 298M 10 466L 10 382M 10 550L 10 466M 10 214L 10 118M 10 118L 10 80M 10 36L 10 10"></path></g></g></g><g id="g-root-1.cu_sy_13ym5g31v6mxog-stroke" data-item-order="-272152" data-item-id="1.cu_sy_13ym5g31v6mxog" data-item-class="ScenePart Part Indexed Indexed_1 Fill Stroke ColorStrokeBlack" data-item-index="1" data-renderer-id="0" transform="translate(226.00048828125, 28)"><g id="1.cu_sy_13ym5g31v6mxog-stroke" fill="none" stroke-linecap="round" stroke-linejoin="round" stroke-miterlimit="4" stroke="#484848" stroke-width="4"><g><path d="M 10 34C 14.8 25.3 21.5 17.6 28 10C 27.6 12.6 28.7 15.4 28 18C 36 17.3 44 18.5 52 18C 52.5 15.4 52.2 12.7 52 10C 58.2 17.8 64 26 70 34C 64 42 57.3 49.5 52 58C 51.7 55.4 52.6 52.6 52 50C 44 50 36 50.1 28 50C 28 52.7 28.1 55.3 28 58C 21.5 50.4 16.4 41.6 10 34"></path><path d="M 10 34L 28 10L 28 18L 52 18L 52 10L 70 34L 52 58L 52 50L 28 50L 28 58L 10 34Z"></path></g></g><g id="1.cu_sy_13ym5g31v6mxog-stroke" fill="none" stroke-linecap="round" stroke-linejoin="round" stroke-miterlimit="4" stroke="#484848" stroke-width="4"><g><path d="M 30.6 28.4C 33.1 31.5 34.1 35.6 35 39.5M 35.2 39.1C 37.2 35.9 37.3 31.7 39.6 28.7M 49.4 30.2C 49 30 48.8 29.6 48.4 29.4C 47.9 28.7 46.8 28.4 45.5 28.8C 44.2 29.1 43.5 29.5 43.4 30.7C 43.4 31.8 44.1 33.1 46.3 33.9C 48.6 34.3 49.5 36 49.4 37.3C 49.3 38.6 48.6 39.1 47.1 39.6C 45.5 39.7 44.4 39.4 43.9 38.5C 43.4 38.2 43.2 37.6 43 37.2"></path><path d="M 30.599 28.373L 34.999 39.48M 35.199 39.097L 39.599 28.66M 49.399 30.192C 49.065 29.937 48.732 29.682 48.399 29.426C 47.799 28.852 46.832 28.628 45.499 28.756C 44.165 28.884 43.465 29.522 43.399 30.671C 43.265 31.82 44.232 32.905 46.299 33.927C 48.432 34.884 49.465 36.001 49.399 37.278C 49.399 38.555 48.632 39.321 47.099 39.576C 45.499 39.767 44.432 39.416 43.899 38.523C 43.565 38.076 43.265 37.629 42.999 37.182"></path></g></g></g><g id="g-root-tx_cons_1hefzf71v6myoe-stroke" data-item-order="0" data-item-id="tx_cons_1hefzf71v6myoe" data-item-class="Label Stroke SceneTarget ColorStrokeBlack" data-item-index="none" data-renderer-id="0" transform="translate(364.00048828125, 40)"></g><g id="g-root-tx_pros_1cymhar1v6mzgn-stroke" data-item-order="0" data-item-id="tx_pros_1cymhar1v6mzgn" data-item-class="Label Stroke SceneTarget ColorStrokeBlack" data-item-index="none" data-renderer-id="0" transform="translate(64.00048828125, 40)"></g><g id="g-root-1_mcbxn71v72eiu-stroke" data-item-order="0" data-item-id="1_mcbxn71v72eiu" data-item-class="Icon Stroke SceneTarget Indexed Indexed_1 ColorStrokeBlack" data-item-index="1" data-renderer-id="0" transform="translate(4.00048828125, 148)"><g id="1_mcbxn71v72eiu-stroke" fill="none" stroke-linecap="round" stroke-linejoin="round" stroke-miterlimit="4" stroke="#484848" stroke-width="2"><g><path d="M 11 18C 11.6 20.799999 13.2 22.799999 16 23C 18.799999 23.200001 20.200001 20.6 21 18C 21.799999 15.4 18.799999 13.2 16 13C 13.2 12.6 10.2 15.4 11 18M 32 18C 32.799999 20.6 34.200001 22.6 37 23C 39.799999 23.4 43 20.6 42 18C 41 15.4 39.799999 12.8 37 13C 34.200001 13.2 32.200001 15.2 32 18M 32 48C 31 50.599998 34.200001 53.400002 37 53C 39.799999 52.599998 42.799999 50.599998 42 48C 41.200001 45.400002 39.599998 42.200001 37 43C 34.400002 43.799999 32.599998 45.400002 32 48M 21 18C 24.6 18.4 28.4 17 32 18M 16 48C 21.4 47.400002 26.799999 47.200001 32 48M 42 18C 50 20 57.799999 24.799999 57 33C 56.200001 41.200001 50.200001 47 42 48M 22 41C 19.6 43.200001 16.4 45 15 48C 17.200001 50.599998 19.4 53 22 55"></path><path d="M 11 18C 11 20.761425 13.238577 23 16 23C 18.761425 23 21 20.761425 21 18C 21 15.238577 18.761425 13 16 13C 13.238577 13 11 15.238577 11 18M 32 18C 32 20.761425 34.238579 23 37 23C 39.761425 23 42 20.761425 42 18C 42 15.238577 39.761425 13 37 13C 34.238579 13 32 15.238577 32 18M 32 48C 32 50.761425 34.238579 53 37 53C 39.761425 53 42 50.761425 42 48C 42 45.238575 39.761425 43 37 43C 34.238579 43 32 45.238575 32 48M 21 18L 32 18M 16 48L 32 48M 42 18C 50.284271 18 57 24.715729 57 33C 57 41.284271 50.284271 48 42 48M 22 41L 15 48L 22 55"></path></g></g></g><g id="g-root-tx_handless_1hefzf71v6myod-stroke" data-item-order="0" data-item-id="tx_handless_1hefzf71v6myod" data-item-class="Label Stroke SceneTarget Indexed Indexed_1 ColorStrokeBlack" data-item-index="1" data-renderer-id="0" transform="translate(64.00048828125, 136)"></g><g id="g-root-fade_dgoxeb1v72fbj-stroke" data-item-order="0" data-item-id="fade_dgoxeb1v72fbj" data-item-class="Icon Stroke SceneTarget Indexed ColorStrokeBlack" data-item-index="101" data-renderer-id="0" transform="translate(304.00048828125, 148)"><g id="fade_dgoxeb1v72fbj-stroke" fill="none" stroke-linecap="round" stroke-linejoin="round" stroke-miterlimit="4" stroke="#484848" stroke-width="2"><g><path d="M 12.8 11C 15.6 10.8 18.4 10.2 20.799999 11C 20.799999 11 23.4 11 22.799999 13C 19.200001 26.4 23.4 41 22.799999 55C 22.799999 55 22.799999 56.799999 20.799999 57C 18.200001 57 15.6 56.799999 12.8 57C 12.8 57 10.2 56.799999 10.8 55C 16.200001 42 9.8 26.799999 10.8 13C 10.8 13 11 11.6 12.8 11M 29.799999 11C 32.599998 11 35.200001 11.2 37.799999 11C 37.799999 11 40.200001 11 39.799999 13C 37.400002 26.6 37.799999 41 39.799999 55C 39.799999 55 39.799999 57.200001 37.799999 57C 35.200001 56.599998 32.599998 56.799999 29.799999 57C 29.799999 57 28 57 27.799999 55C 26.6 41 27.200001 26.799999 27.799999 13C 27.799999 13 28 11.2 29.799999 11M 46.799999 11C 49.599998 10.8 52.200001 10.2 54.799999 11C 54.799999 11 57 11 56.799999 13C 55.599998 26.799999 56.599998 41 56.799999 55C 56.799999 55 56.799999 57 54.799999 57C 52.200001 56.799999 49.400002 56 46.799999 57C 46.799999 57 45.200001 57 44.799999 55C 43 41 45.599998 26.799999 44.799999 13C 44.799999 13 45 11.2 46.799999 11M 27.799999 40C 31.200001 35.200001 35.400002 31.4 39.799999 28M 10.8 45.400002C 15.2 41.799999 18 36.200001 22.799999 33.400002M 11.2 56C 13.6 51 19.799999 49 22.799999 44.400002M 10.8 34.400002C 14.4 30 18.799999 26.200001 22.799999 22.4M 10.8 23.4C 15 19.799999 20.200001 16.799999 22.6 11.8M 27.799999 54C 31.799999 49.799999 36.599998 46.599998 39.799999 42M 27.799999 26C 31 21.200001 35.799999 17.799999 39.799999 14"></path><path d="M 12.884 10.91L 20.883999 10.91C 20.883999 10.91 22.883999 10.91 22.883999 12.91L 22.883999 54.91C 22.883999 54.91 22.883999 56.91 20.883999 56.91L 12.884 56.91C 12.884 56.91 10.884 56.91 10.884 54.91L 10.884 12.91C 10.884 12.91 10.884 10.91 12.884 10.91M 29.884001 10.91L 37.884003 10.91C 37.884003 10.91 39.884003 10.91 39.884003 12.91L 39.884003 54.91C 39.884003 54.91 39.884003 56.91 37.884003 56.91L 29.884001 56.91C 29.884001 56.91 27.884001 56.91 27.884001 54.91L 27.884001 12.91C 27.884001 12.91 27.884001 10.91 29.884001 10.91M 46.883999 10.91L 54.883999 10.91C 54.883999 10.91 56.883999 10.91 56.883999 12.91L 56.883999 54.91C 56.883999 54.91 56.883999 56.91 54.883999 56.91L 46.883999 56.91C 46.883999 56.91 44.883999 56.91 44.883999 54.91L 44.883999 12.91C 44.883999 12.91 44.883999 10.91 46.883999 10.91M 27.886 39.91L 39.884003 27.91M 10.886 45.41L 22.886 33.41M 11.243999 56.051998L 22.886 44.41M 10.886 34.41L 22.886 22.41M 10.886 23.41L 22.526001 11.77M 27.886 53.91L 39.884003 41.91M 27.886 25.91L 39.884003 13.91"></path></g></g></g><g id="g-root-tx_vanishin_8zmh3n1v6myvc-stroke" data-item-order="0" data-item-id="tx_vanishin_8zmh3n1v6myvc" data-item-class="Label Stroke SceneTarget Indexed ColorStrokeBlack" data-item-index="101" data-renderer-id="0" transform="translate(364.00048828125, 136)"></g><g id="g-root-user_qs5frn1v72dql-stroke" data-item-order="0" data-item-id="user_qs5frn1v72dql" data-item-class="Icon Stroke SceneTarget Indexed ColorStrokeBlack" data-item-index="2" data-renderer-id="0" transform="translate(4.00048828125, 232)"><g id="user_qs5frn1v72dql-stroke" fill="none" stroke-linecap="round" stroke-linejoin="round" stroke-miterlimit="4" stroke="#484848" stroke-width="2"><g><path d="M 32 35C 25.6 33.200001 20.799999 29.6 20 23C 19.200001 16.4 25.4 11.8 32 11C 31 19 33.400002 27.200001 32 35M 13 57C 11.2 46.599998 21.799999 35.400002 32 38C 31.200001 44.200001 31 50.799999 32 57C 25.6 57.599998 19.4 57 13 57M 36 35C 36.599998 35 37.400002 34.799999 38 34.799999C 37.799999 33.799999 38.200001 32.799999 38 31.799999C 39 31.6 40.200001 31.4 40.799999 30.6C 41.599998 31.200001 42.400002 31.799999 43 32.799999C 44 32 44.799999 30.799999 45.799999 30C 45 29.200001 44.400002 28.4 43.599998 27.799999C 44 26.799999 44.599998 26 44.799999 25C 45.799999 25.200001 46.799999 24.799999 47.799999 25C 48 24.4 48.200001 23.6 48 23C 47.799999 22.4 48 21.6 47.799999 21C 46.799999 21 45.799999 20.6 44.799999 21C 44.799999 20 44.400002 18.799999 43.599998 18.200001C 44.400002 17.6 44.799999 16.6 45.799999 16C 45 15 43.599998 14.4 43 13.2C 42.200001 14 41.200001 14.4 40.799999 15.4C 40 14.8 38.799999 14.8 38 14.2C 37.599998 13.2 37.799999 12.2 38 11.2C 37.400002 11.2 36.599998 11.2 36 11M 36 19C 38 19.799999 40.400002 20.799999 40 23C 39.599998 25.200001 38.200001 26.6 36 27M 55 57C 55 56 54.799999 55 54.799999 54C 53.400002 54.400002 52 54 50.599998 54C 50 53 50 51.400002 49.400002 50.200001C 50.599998 49.599998 51 48 52.400002 47.400002C 51.200001 45 49 43.200001 46.799999 41.400002C 45.799999 42.200001 45 43.400002 44 44.400002C 42.599998 43.799999 41.400002 43 40 42.599998C 40 41.200001 39.599998 39.799999 40 38.400002C 38.599998 38.200001 37.400002 38 36 38M 36 49C 40.400002 48.599998 44 52.599998 44 57"></path><path d="M 32 35C 25.372583 35 20 29.627417 20 23C 20 16.372583 25.372583 11 32 11ZM 13 57C 13 46.506592 21.50659 38 32 38L 32 57ZM 36 35C 36.670525 34.995987 37.339535 34.935776 38 34.82L 38 31.76C 38.983719 31.534334 39.921806 31.142733 40.773998 30.601999L 42.945999 32.774002C 44.040051 31.99596 44.99596 31.040052 45.773998 29.945999L 43.599998 27.774C 44.141434 26.92194 44.533714 25.983845 44.759998 25L 47.82 25C 47.935772 24.339535 47.995983 23.670525 48 23C 47.995983 22.329475 47.935772 21.660467 47.82 21L 44.759998 21C 44.533714 20.016151 44.141434 19.07806 43.599998 18.226L 45.771999 16.054001C 44.993961 14.959948 44.038052 14.00404 42.944 13.226L 40.774002 15.4C 39.921936 14.858564 38.983845 14.466283 38 14.24L 38 11.18C 37.339535 11.064227 36.670525 11.004017 36 11M 36 19C 38.209137 19 40 20.790861 40 23C 40 25.209139 38.209137 27 36 27M 55 57C 54.992783 55.994694 54.905846 54.99155 54.739998 53.999996L 50.698002 54C 50.430782 52.702488 49.990864 51.446644 49.390003 50.266003L 52.332001 47.326C 50.955723 45.003922 49.102207 43.000431 46.894001 41.448002L 44.009998 44.334C 42.772068 43.546524 41.424023 42.947319 40.010002 42.556L 40.010002 38.43C 38.692268 38.145462 37.348099 38.001328 36 38M 36 49C 40.418278 49 44 52.581722 44 57"></path></g></g></g><g id="g-root-tx_contexta_1qa2zo31v6mxvo-stroke" data-item-order="0" data-item-id="tx_contexta_1qa2zo31v6mxvo" data-item-class="Label Stroke SceneTarget Indexed ColorStrokeBlack" data-item-index="2" data-renderer-id="0" transform="translate(64.00048828125, 220)"></g><g id="g-root-2_1qa2zo31v72cxu-stroke" data-item-order="0" data-item-id="2_1qa2zo31v72cxu" data-item-class="Icon Stroke SceneTarget Indexed ColorStrokeBlack" data-item-index="102" data-renderer-id="0" transform="translate(304.00048828125, 232)"><g id="2_1qa2zo31v72cxu-stroke" fill="none" stroke-linecap="round" stroke-linejoin="round" stroke-miterlimit="4" stroke="#484848" stroke-width="2"><g><path d="M 23.714287 11.714286C 30.228573 13.771429 37.428574 13.085714 44.285713 11.714286C 44.285713 11.714286 47.371429 11.714286 47.714287 15.142858C 48.742859 27.828571 47.371429 40.171429 47.714287 52.857143C 47.714287 52.857143 47.371429 57.314285 44.285713 56.285713C 37.771431 53.885715 30.571428 56.285713 23.714287 56.285713C 23.714287 56.285713 20.971428 56.285713 20.285715 52.857143C 17.542858 40.514286 23.714287 27.142857 20.285715 15.142858C 20.285715 15.142858 20.285715 11.371428 23.714287 11.714286M 20.285715 22C 17.542858 21.657143 14.457143 21.657143 11.714286 22M 20.285715 34C 17.542858 34.342857 14.457143 34.685715 11.714286 34M 20.285715 46C 17.542858 45.657143 14.457143 46.685715 11.714286 46M 56.285713 22C 53.542858 21.314285 50.457146 21.314285 47.714287 22M 56.285713 34C 53.542858 34.342857 50.457146 34.685715 47.714287 34M 56.285713 46C 53.542858 45.314285 50.457146 46 47.714287 46M 32.285713 46C 34.685715 45.657143 36.742859 45.657143 39.142857 46"></path><path d="M 23.714287 11.714286L 44.285713 11.714286C 44.285713 11.714286 47.714287 11.714286 47.714287 15.142858L 47.714287 52.857143C 47.714287 52.857143 47.714287 56.285713 44.285713 56.285713L 23.714287 56.285713C 23.714287 56.285713 20.285715 56.285713 20.285715 52.857143L 20.285715 15.142858C 20.285715 15.142858 20.285715 11.714286 23.714287 11.714286M 20.285715 22L 11.714286 22M 20.285715 34L 11.714286 34M 20.285715 46L 11.714286 46M 56.285713 22L 47.714287 22M 56.285713 34L 47.714287 34M 56.285713 46L 47.714287 46M 32.285713 46L 39.142857 46"></path></g></g></g><g id="g-root-tx_computat_mb2zgz1v6mxaf-stroke" data-item-order="0" data-item-id="tx_computat_mb2zgz1v6mxaf" data-item-class="Label Stroke SceneTarget Indexed ColorStrokeBlack" data-item-index="102" data-renderer-id="0" transform="translate(364.00048828125, 232)"></g><g id="g-root-tran_1ur5fyr1v72ebt-stroke" data-item-order="0" data-item-id="tran_1ur5fyr1v72ebt" data-item-class="Icon Stroke SceneTarget Indexed ColorStrokeBlack" data-item-index="3" data-renderer-id="0" transform="translate(4.00048828125, 316)"><g id="tran_1ur5fyr1v72ebt-stroke" fill="none" stroke-linecap="round" stroke-linejoin="round" stroke-miterlimit="4" stroke="#484848" stroke-width="2"><g><path d="M 32.285713 56.285713C 35.714287 48.057144 41.200001 40.171429 42.914288 31.257143C 43.257141 30.571428 43.942856 30.228573 44.285713 30.228573C 44.628574 30.571428 45.314285 30.571428 45.657143 31.257143C 48.742859 39.485718 54.228569 47.371429 56.285713 56.285713M 37.085716 44.971428C 41.542858 43.600002 47.028572 43.257141 51.485718 44.971428M 11.714286 18.571428C 21.657143 20.971428 32.285713 18.571428 42.57143 18.571428M 27.142857 11.714286C 27.485714 14.114285 26.800001 16.171429 27.142857 18.571428M 37.428574 18.571428C 30.914286 26.800001 21.657143 33.314285 16.857143 42.57143M 16.857143 18.571428C 21.657143 23.371429 27.142857 28.171429 30.228573 34.342857"></path><path d="M 32.285713 56.285713L 43.05143 31.154285C 43.259045 30.656004 43.745911 30.331429 44.285713 30.331429C 44.82552 30.331429 45.312386 30.656004 45.52 31.154285L 56.285713 56.285713M 37.119999 45.005714L 51.451431 45.005714M 11.714286 18.571428L 42.57143 18.571428M 27.142857 11.714286L 27.142857 18.571428M 37.428574 18.571428L 16.857143 42.57143M 16.857143 18.571428L 30.365715 34.342857"></path></g></g></g><g id="g-root-tx_usefulfo_1upwhsj1v6mx3f-stroke" data-item-order="0" data-item-id="tx_usefulfo_1upwhsj1v6mx3f" data-item-class="Label Stroke SceneTarget Indexed ColorStrokeBlack" data-item-index="3" data-renderer-id="0" transform="translate(64.00048828125, 304)"></g><g id="g-root-1_1upa0pf1v72fbd-stroke" data-item-order="0" data-item-id="1_1upa0pf1v72fbd" data-item-class="Icon Stroke SceneTarget Indexed ColorStrokeBlack" data-item-index="103" data-renderer-id="0" transform="translate(304.00048828125, 316)"><g id="1_1upa0pf1v72fbd-stroke" fill="none" stroke-linecap="round" stroke-linejoin="round" stroke-miterlimit="4" stroke="#484848" stroke-width="2"><g><path d="M 17 36C 18 45.400002 24.799999 55.200001 34 53C 43.200001 50.799999 52.799999 45.200001 51 36C 49.200001 26.799999 43.400002 20.200001 34 19C 24.6 17.799999 20.200001 27.200001 17 36M 24.799999 50.200001C 22.799999 52 21.200001 54.400002 19 56M 43.200001 50.200001C 44.599998 52.599998 47.599998 53.799999 49 56M 34 25C 34.200001 28.6 34.799999 32.400002 34 36C 36.400002 36.200001 38.599998 36.200001 41 36M 12.8 26C 11.8 24.4 10.8 22.6 11 20.799999C 11.2 18.4 11.4 15.6 13.6 14.6C 15.8 13.6 17.6 11.6 19.799999 12C 21.6 12.2 23.4 12.6 25 13.8C 20.799999 17.6 17.6 23 12.8 26M 22.6 23.4C 21.4 22.200001 20.4 20.6 18.799999 20M 55.200001 26C 55.799999 24.200001 56.799999 22.6 57 20.799999C 57.200001 18.4 56.599998 15.4 54.400002 14.6C 52.200001 13.6 50.400002 12.8 48.200001 12C 46.400002 11.4 44.799999 13.2 43 13.8C 47 18 51.200001 22 55.200001 26M 45.400002 23.4C 46.599998 22.200001 47.799999 20.799999 49.200001 20"></path><path d="M 17 36C 17 45.38884 24.61116 53 34 53C 43.38884 53 51 45.38884 51 36C 51 26.61116 43.38884 19 34 19C 24.61116 19 17 26.61116 17 36M 24.74 50.259998L 19 56M 43.259998 50.259998L 49 56M 34 25L 34 36L 41 36M 12.72 26C 11.603301 24.503872 10.999991 22.686928 11 20.82C 10.994674 18.479162 11.922211 16.232664 13.577437 14.577438C 15.232664 12.922211 17.479162 11.994674 19.82 12C 21.686928 11.999991 23.503872 12.603301 25 13.72ZM 22.66 23.34L 18.779999 19.959999M 55.279999 26C 56.396698 24.503872 57.000008 22.686928 57 20.82C 57.005329 18.479162 56.077793 16.232664 54.422565 14.577438C 52.767338 12.922211 50.52084 11.994674 48.18 12C 46.313072 11.999991 44.496128 12.603301 43 13.72ZM 45.34 23.34L 49.220001 19.959999"></path></g></g></g><g id="g-root-tx_struggle_qqwhlf1v6mwi6-stroke" data-item-order="0" data-item-id="tx_struggle_qqwhlf1v6mwi6" data-item-class="Label Stroke SceneTarget Indexed ColorStrokeBlack" data-item-index="103" data-renderer-id="0" transform="translate(364.00048828125, 304)"></g><g id="g-root-id_142zh1v1v72fbg-stroke" data-item-order="0" data-item-id="id_142zh1v1v72fbg" data-item-class="Icon Stroke SceneTarget Indexed ColorStrokeBlack" data-item-index="4" data-renderer-id="0" transform="translate(4.00048828125, 400)"><g id="id_142zh1v1v72fbg-stroke" fill="none" stroke-linecap="round" stroke-linejoin="round" stroke-miterlimit="4" stroke="#484848" stroke-width="2"><g><path d="M 27 57C 22.4 56.599998 17.6 58.200001 13 57C 12 56.799999 11 56 11 55C 10.6 50.400002 11.6 45.599998 11 41M 27 11C 22.4 11.4 17.4 12.6 13 11C 12 10.6 10.8 12 11 13C 11.8 17.6 9.4 22.6 11 27M 41 57C 45.599998 56.799999 50.599998 55.799999 55 57C 56 57.400002 57.400002 56 57 55C 55.599998 50.599998 57.200001 45.599998 57 41M 41 11C 45.599998 11.2 50.400002 11.4 55 11C 56.200001 11 57.400002 12 57 13C 55.400002 17.4 57.599998 22.4 57 27M 19 30C 19.4 32.599998 19.6 35.400002 19 38M 24 28C 24.799999 31.799999 25.200001 36.200001 24 40M 29 26C 28.799999 31.4 29.200001 36.599998 29 42M 49 30C 48.599998 32.599998 48.200001 35.400002 49 38M 44 28C 44 32 42.799999 36.200001 44 40M 39 26C 40.799999 31 39.200001 36.599998 39 42M 34 20C 33.799999 29.4 30.799999 39.200001 34 48"></path><path d="M 27 57L 13 57C 11.895431 57 11 56.104568 11 55L 11 41M 27 11L 13 11C 11.895431 11 11 11.895431 11 13L 11 27M 41 57L 55 57C 56.104568 57 57 56.104568 57 55L 57 41M 41 11L 55 11C 56.104568 11 57 11.895431 57 13L 57 27M 19 30L 19 38M 24 28L 24 40M 29 26L 29 42M 49 30L 49 38M 44 28L 44 40M 39 26L 39 42M 34 20L 34 48"></path></g></g></g><g id="g-root-tx_effectiv_4kfg2b1v6mwhu-stroke" data-item-order="0" data-item-id="tx_effectiv_4kfg2b1v6mwhu" data-item-class="Label Stroke SceneTarget Indexed ColorStrokeBlack" data-item-index="4" data-renderer-id="0" transform="translate(64.00048828125, 388)"></g><g id="g-root-tx_lesseffe_1q87ker1v6myv9-stroke" data-item-order="0" data-item-id="tx_lesseffe_1q87ker1v6myv9" data-item-class="Label Stroke SceneTarget Indexed ColorStrokeBlack" data-item-index="104" data-renderer-id="0" transform="translate(364.00048828125, 376)"></g><g id="g-root-1_8zmh3n1v72dxk-stroke" data-item-order="0" data-item-id="1_8zmh3n1v72dxk" data-item-class="Icon Stroke SceneTarget Indexed ColorStrokeBlack" data-item-index="104" data-renderer-id="0" transform="translate(304.00048828125, 400)"><g id="1_8zmh3n1v72dxk-stroke" fill="none" stroke-linecap="round" stroke-linejoin="round" stroke-miterlimit="4" stroke="#484848" stroke-width="2"><g><path d="M 15 14C 27.6 15.4 40.799999 10.4 53 14C 53 14 56.400002 14 57 18C 58.400002 28.6 55.200001 39.599998 57 50C 57 50 57 53.400002 53 54C 40.400002 55.799999 27.4 56.799999 15 54C 15 54 10.6 54 11 50C 12.4 39.400002 11.2 28.6 11 18C 11 18 11 14.2 15 14M 11 24C 26.4 24 41.599998 24 57 24M 11 34C 26.200001 32.799999 41.799999 36 57 34M 11 44C 26 46.799999 41.799999 41.799999 57 44M 27 24C 26.200001 34 28.799999 44.200001 27 54M 37 24C 35 33.799999 37 44 37 54M 47 24C 45.200001 33.799999 47.599998 44 47 54"></path><path d="M 15 14L 53 14C 53 14 57 14 57 18L 57 50C 57 50 57 54 53 54L 15 54C 15 54 11 54 11 50L 11 18C 11 18 11 14 15 14M 11 24L 57 24M 11 34L 57 34M 11 44L 57 44M 27 24L 27 54M 37 24L 37 54M 47 24L 47 54"></path></g></g></g><g id="g-root-line_1hefzf71v72dqj-stroke" data-item-order="0" data-item-id="line_1hefzf71v72dqj" data-item-class="Icon Stroke SceneTarget Indexed ColorStrokeBlack" data-item-index="5" data-renderer-id="0" transform="translate(4.00048828125, 484)"><g id="line_1hefzf71v72dqj-stroke" fill="none" stroke-linecap="round" stroke-linejoin="round" stroke-miterlimit="4" stroke="#484848" stroke-width="2"><g><path d="M 11 34C 10.8 46.799999 21.4 56 34 57C 46.599998 58 55.799999 46.599998 57 34C 58.200001 21.4 46.799999 10.4 34 11C 21.4 11.6 12.2 21.4 11 34M 47 45C 38.400002 44.799999 29.4 47 21 45C 21.200001 38.400002 21.6 31.6 21 25M 21 35C 22.6 33.599998 24.6 33 26.4 32C 27.200001 31.4 28.200001 31.799999 29 32.599998C 30.799999 34 32.200001 36.200001 32.799999 38.200001C 33 38.799999 33.599998 38.799999 34 39C 34.400002 39.200001 35 38.599998 35 38.200001C 35.599998 35.200001 37.599998 32.400002 39.599998 29.799999C 40 29.4 40.400002 29.200001 41 28.799999C 42.799999 28 45 28 47 28"></path><path d="M 11.008 34C 11.008 46.702549 21.30545 57 34.008003 57C 46.710548 57 57.007999 46.702549 57.007999 34C 57.007999 21.297451 46.710548 11 34.008003 11C 21.30545 11 11.008 21.297451 11.008 34ZM 47.007999 45L 21.007999 45L 21.007999 25M 21 35L 26.378 31.926001C 27.291264 31.403624 28.453098 31.678127 29.035999 32.554001L 32.860001 38.290001C 33.044575 38.730682 33.483971 39.00988 33.961323 38.989807C 34.438675 38.96973 34.853073 38.654621 35 38.199997L 39.528 29.879999C 39.830055 29.326275 40.375626 28.947491 41 28.858L 47 28"></path></g></g></g><g id="g-root-tx_goodfort_8zmh3n1v6myvd-stroke" data-item-order="0" data-item-id="tx_goodfort_8zmh3n1v6myvd" data-item-class="Label Stroke SceneTarget Indexed ColorStrokeBlack" data-item-index="5" data-renderer-id="0" transform="translate(64.00048828125, 472)"></g><g id="g-root-tx_challeng_m97k7n1v6mya4-stroke" data-item-order="0" data-item-id="tx_challeng_m97k7n1v6mya4" data-item-class="Label Stroke SceneTarget Indexed ColorStrokeBlack" data-item-index="105" data-renderer-id="0" transform="translate(364.00048828125, 472)"></g><g id="g-root-cloc_4loe8j1v72dq8-stroke" data-item-order="0" data-item-id="cloc_4loe8j1v72dq8" data-item-class="Icon Stroke SceneTarget Indexed ColorStrokeBlack" data-item-index="105" data-renderer-id="0" transform="translate(304.00048828125, 484)"><g id="cloc_4loe8j1v72dq8-stroke" fill="none" stroke-linecap="round" stroke-linejoin="round" stroke-miterlimit="4" stroke="#484848" stroke-width="2"><g><path d="M 53 19C 53.400002 21.200001 51 23.799999 49 23C 38.599998 18.6 26.4 23.200001 15 23C 12.8 23 11.2 21.200001 11 19C 11 17.6 10.6 16.200001 11 15C 11.6 12.8 12.8 10.6 15 11C 26 13.6 37.599998 11.4 49 11C 51.200001 11 53 12.8 53 15C 53 16.4 53 17.6 53 19M 15 35C 13 34.200001 11.8 33 11 31C 10.6 29.799999 11.4 28.200001 11 27C 10.4 24.799999 12.8 22.6 15 23C 26.200001 24.6 37.599998 23 49 23C 51.200001 23 52.799999 24.799999 53 27C 53.200001 28 52.799999 29 53 30M 19.6 16.6C 19.200001 16.4 19.200001 16.799999 19 17C 19 17.200001 19.200001 17.4 19.6 17.6C 19.799999 17.6 20 17.200001 20 17C 20 16.799999 19.799999 16.6 19.6 16.6M 26.6 16.6C 26.200001 16.6 25.799999 16.799999 26 17C 26 17.200001 26.200001 17.6 26.6 17.6C 26.799999 17.4 27 17.200001 27 17C 27 16.799999 26.799999 16.6 26.6 16.6M 19.6 28.6C 19.200001 28.6 19 28.799999 19 29C 19 29.200001 19.200001 29.4 19.6 29.6C 19.799999 29.6 20 29.200001 20 29C 20 28.799999 19.799999 28.4 19.6 28.6M 26.6 28.6C 26.200001 28.4 26 28.799999 26 29C 26 29.200001 26.200001 29.4 26.6 29.6C 26.799999 29.6 27 29.200001 27 29C 27 28.799999 26.799999 28.6 26.6 28.6M 28 47C 23.6 46.599998 19.4 46.400002 15 47C 12.8 47.200001 10.4 45 11 43C 11.4 41.799999 11 40.400002 11 39C 11 36.799999 12.8 35.200001 15 35C 20.200001 34.200001 25.799999 36 31 35M 19.6 40.599998C 19.200001 40.599998 19 40.799999 19 41C 19 41.200001 19.200001 41.400002 19.6 41.599998C 19.799999 41.599998 20 41.200001 20 41C 20 40.799999 19.799999 40.400002 19.6 40.599998M 26.6 40.599998C 26.200001 40.599998 26 40.799999 26 41C 26 41.200001 26.200001 41.400002 26.6 41.599998C 26.799999 41.599998 27 41.200001 27 41C 27 40.799999 26.799999 40.400002 26.6 40.599998M 33 45C 30.799999 51.200001 38.400002 55.799999 45 57C 51.599998 58.200001 57.799999 51.599998 57 45C 56.200001 38.400002 51.599998 33.400002 45 33C 38.400002 32.599998 31.799999 38.400002 33 45M 49 45C 47.799999 44.799999 46.400002 45.200001 45 45C 44.799999 43 45.400002 41 45 39"></path><path d="M 53 19C 53 21.209139 51.209141 23 49 23L 15 23C 12.790861 23 11 21.209139 11 19L 11 15C 11 12.790861 12.790861 11 15 11L 49 11C 51.209141 11 53 12.790861 53 15ZM 15 35C 12.790861 35 11 33.209137 11 31L 11 27C 11 24.790861 12.790861 23 15 23L 49 23C 51.209141 23 53 24.790861 53 27L 53 30M 19.5 16.5C 19.223858 16.5 19 16.723858 19 17C 19 17.276142 19.223858 17.5 19.5 17.5C 19.776142 17.5 20 17.276142 20 17C 20 16.723858 19.776142 16.5 19.5 16.5L 19.5 16.5M 26.5 16.5C 26.223858 16.5 26 16.723858 26 17C 26 17.276142 26.223858 17.5 26.5 17.5C 26.776142 17.5 27 17.276142 27 17C 27 16.723858 26.776142 16.5 26.5 16.5L 26.5 16.5M 19.5 28.5C 19.223858 28.5 19 28.723858 19 29C 19 29.276142 19.223858 29.5 19.5 29.5C 19.776142 29.5 20 29.276142 20 29C 20 28.723858 19.776142 28.5 19.5 28.5L 19.5 28.5M 26.5 28.5C 26.223858 28.5 26 28.723858 26 29C 26 29.276142 26.223858 29.5 26.5 29.5C 26.776142 29.5 27 29.276142 27 29C 27 28.723858 26.776142 28.5 26.5 28.5L 26.5 28.5M 28 47L 15 47C 12.790861 47 11 45.209141 11 43L 11 39C 11 36.790863 12.790861 35 15 35L 31 35M 19.5 40.5C 19.223858 40.5 19 40.723858 19 41C 19 41.276142 19.223858 41.5 19.5 41.5C 19.776142 41.5 20 41.276142 20 41C 20 40.723858 19.776142 40.5 19.5 40.5L 19.5 40.5M 26.5 40.5C 26.223858 40.5 26 40.723858 26 41C 26 41.276142 26.223858 41.5 26.5 41.5C 26.776142 41.5 27 41.276142 27 41C 27 40.723858 26.776142 40.5 26.5 40.5L 26.5 40.5M 33 45C 33 51.627419 38.372581 57 45 57C 51.627419 57 57 51.627419 57 45C 57 38.372581 51.627419 33 45 33C 38.372581 33 33 38.372581 33 45ZM 49 45L 45 45L 45 39"></path></g></g></g></g></g></svg>