<?xml version="1.0" encoding="utf-8" standalone="yes"?>
<!DOCTYPE svg PUBLIC "-//W3C//DTD SVG 1.1//EN" "http://www.w3.org/Graphics/SVG/1.1/DTD/svg11.dtd">
<svg width="533" height="400" viewBox="0 0 533 400" style="fill:none;stroke:none;fill-rule:evenodd;clip-rule:evenodd;stroke-linecap:round;stroke-linejoin:round;stroke-miterlimit:1.5;" version="1.1" xmlns="http://www.w3.org/2000/svg" xmlns:xlink="http://www.w3.org/1999/xlink"><style id="fontImports">@import url("https://fonts.googleapis.com/css2?family=Shantell+Sans:wght@300..800&amp;display=block");</style><rect id="" x="0" y="0" width="532" height="400" style="fill: #ffffff;"></rect><g id="items" style="isolation: isolate"><g id="blend" style="mix-blend-mode:multiply"><g id="g-root-3.cu_sy_1cy15bq1qr0hzg-fill" data-item-order="-187483" data-item-id="3.cu_sy_1cy15bq1qr0hzg" data-item-class="ScenePart Part Indexed Stroke ColorStrokeBlack" data-item-index="3" data-renderer-id="0" transform="translate(4, 111.9990234375)"></g><g id="g-root-2.cu_sy_1lto5km1qr0h6r-fill" data-item-order="-187481" data-item-id="2.cu_sy_1lto5km1qr0h6r" data-item-class="ScenePart Part Indexed Stroke ColorStrokeBlack" data-item-index="2" data-renderer-id="0" transform="translate(256.00048828125, 4)"></g><g id="g-root-1.cu_sy_40lyu1qr0fsy-fill" data-item-order="-187480" data-item-id="1.cu_sy_40lyu1qr0fsy" data-item-class="ScenePart Part Indexed Indexed_1 Fill Stroke ColorStrokeBlack" data-item-index="1" data-renderer-id="0" transform="translate(226.00048828125, 28)"><g id="1.cu_sy_40lyu1qr0fsy-fill" stroke="none" fill="none"><g><path d="M 10 34L 28 10L 28 18L 52 18L 52 10L 70 34L 52 58L 52 50L 28 50L 28 58L 10 34Z"></path></g></g></g><g id="g-root-tx_pros_mfhg6u1qr0g06-fill" data-item-order="0" data-item-id="tx_pros_mfhg6u1qr0g06" data-item-class="Label Stroke SceneTarget ColorStrokeBlack" data-item-index="none" data-renderer-id="0" transform="translate(64.00048828125, 40)"><g id="tx_pros_mfhg6u1qr0g06-fill" stroke="none" fill="#484848"><g><text style="font: 20px &quot;Shantell Sans&quot;, cursive; white-space: pre;"><tspan x="12" y="35.33" dominant-baseline="ideographic">Pros</tspan></text></g></g></g><g id="g-root-tx_cons_qvayba1qr0f7x-fill" data-item-order="0" data-item-id="tx_cons_qvayba1qr0f7x" data-item-class="Label Stroke SceneTarget ColorStrokeBlack" data-item-index="none" data-renderer-id="0" transform="translate(364.00048828125, 40)"><g id="tx_cons_qvayba1qr0f7x-fill" stroke="none" fill="#484848"><g><text style="font: 20px &quot;Shantell Sans&quot;, cursive; white-space: pre;"><tspan x="12" y="35.33" dominant-baseline="ideographic">Cons</tspan></text></g></g></g><g id="g-root-1_zqbhh21qr1uz1-fill" data-item-order="0" data-item-id="1_zqbhh21qr1uz1" data-item-class="Icon Stroke SceneTarget Indexed Indexed_1 ColorStrokeBlack" data-item-index="1" data-renderer-id="0" transform="translate(4.00048828125, 148)"></g><g id="g-root-tx_accurate_zqbhh21qr0hl0-fill" data-item-order="0" data-item-id="tx_accurate_zqbhh21qr0hl0" data-item-class="Label Stroke SceneTarget Indexed Indexed_1 ColorStrokeBlack" data-item-index="1" data-renderer-id="0" transform="translate(64.00048828125, 148)"><g id="tx_accurate_zqbhh21qr0hl0-fill" stroke="none" fill="#484848"><g><text style="font: 20px &quot;Shantell Sans&quot;, cursive; white-space: pre;"><tspan x="12" y="35.33" dominant-baseline="ideographic">Accurate </tspan><tspan x="12" y="59.33" dominant-baseline="ideographic">predictions</tspan></text></g></g></g><g id="g-root-uneq_59k521qr1vd6-fill" data-item-order="0" data-item-id="uneq_59k521qr1vd6" data-item-class="Icon Stroke SceneTarget Indexed ColorStrokeBlack" data-item-index="101" data-renderer-id="0" transform="translate(304.00048828125, 148)"></g><g id="g-root-tx_potentia_1hhlhyu1qr0f7t-fill" data-item-order="0" data-item-id="tx_potentia_1hhlhyu1qr0f7t" data-item-class="Label Stroke SceneTarget Indexed ColorStrokeBlack" data-item-index="101" data-renderer-id="0" transform="translate(364.00048828125, 160)"><g id="tx_potentia_1hhlhyu1qr0f7t-fill" stroke="none" fill="#484848"><g><text style="font: 20px &quot;Shantell Sans&quot;, cursive; white-space: pre;"><tspan x="12" y="35.33" dominant-baseline="ideographic">Potential bias</tspan></text></g></g></g><g id="g-root-surv_1qcm14m1qr1uz0-fill" data-item-order="0" data-item-id="surv_1qcm14m1qr1uz0" data-item-class="Icon Stroke SceneTarget Indexed ColorStrokeBlack" data-item-index="2" data-renderer-id="0" transform="translate(4.00048828125, 232)"></g><g id="g-root-tx_betterge_1464zli1qr0gsr-fill" data-item-order="0" data-item-id="tx_betterge_1464zli1qr0gsr" data-item-class="Label Stroke SceneTarget Indexed ColorStrokeBlack" data-item-index="2" data-renderer-id="0" transform="translate(64.00048828125, 232)"><g id="tx_betterge_1464zli1qr0gsr-fill" stroke="none" fill="#484848"><g><text style="font: 20px &quot;Shantell Sans&quot;, cursive; white-space: pre;"><tspan x="12" y="35.33" dominant-baseline="ideographic">Better </tspan><tspan x="12" y="59.33" dominant-baseline="ideographic">generalization</tspan></text></g></g></g><g id="g-root-cloc_zn741i1qr1ukg-fill" data-item-order="0" data-item-id="cloc_zn741i1qr1ukg" data-item-class="Icon Stroke SceneTarget Indexed ColorStrokeBlack" data-item-index="102" data-renderer-id="0" transform="translate(304.00048828125, 232)"></g><g id="g-root-tx_timecons_qtfj1y1qr0g7j-fill" data-item-order="0" data-item-id="tx_timecons_qtfj1y1qr0g7j" data-item-class="Label Stroke SceneTarget Indexed ColorStrokeBlack" data-item-index="102" data-renderer-id="0" transform="translate(364.00048828125, 220)"><g id="tx_timecons_qtfj1y1qr0g7j-fill" stroke="none" fill="#484848"><g><text style="font: 20px &quot;Shantell Sans&quot;, cursive; white-space: pre;"><tspan x="12" y="35.33" dominant-baseline="ideographic">Time-</tspan><tspan x="12" y="59.33" dominant-baseline="ideographic">consuming </tspan><tspan x="12" y="83.33" dominant-baseline="ideographic">labeling</tspan></text></g></g></g><g id="g-root-incr_dhz0om1qr1vyb-fill" data-item-order="0" data-item-id="incr_dhz0om1qr1vyb" data-item-class="Icon Stroke SceneTarget Indexed ColorStrokeBlack" data-item-index="3" data-renderer-id="0" transform="translate(4.00048828125, 316)"></g><g id="g-root-tx_improved_1d1rzue1qr0g02-fill" data-item-order="0" data-item-id="tx_improved_1d1rzue1qr0g02" data-item-class="Label Stroke SceneTarget Indexed ColorStrokeBlack" data-item-index="3" data-renderer-id="0" transform="translate(64.00048828125, 304)"><g id="tx_improved_1d1rzue1qr0g02-fill" stroke="none" fill="#484848"><g><text style="font: 20px &quot;Shantell Sans&quot;, cursive; white-space: pre;"><tspan x="12" y="35.33" dominant-baseline="ideographic">Improved </tspan><tspan x="12" y="59.33" dominant-baseline="ideographic">model </tspan><tspan x="12" y="83.33" dominant-baseline="ideographic">performance</tspan></text></g></g></g><g id="g-root-1_1hdung61qr1vd3-fill" data-item-order="0" data-item-id="1_1hdung61qr1vd3" data-item-class="Icon Stroke SceneTarget Indexed ColorStrokeBlack" data-item-index="103" data-renderer-id="0" transform="translate(304.00048828125, 316)"></g><g id="g-root-tx_incomple_1hfq2pi1qr0g7i-fill" data-item-order="0" data-item-id="tx_incomple_1hfq2pi1qr0g7i" data-item-class="Label Stroke SceneTarget Indexed ColorStrokeBlack" data-item-index="103" data-renderer-id="0" transform="translate(364.00048828125, 316)"><g id="tx_incomple_1hfq2pi1qr0g7i-fill" stroke="none" fill="#484848"><g><text style="font: 20px &quot;Shantell Sans&quot;, cursive; white-space: pre;"><tspan x="12" y="35.33" dominant-baseline="ideographic">Incomplete </tspan><tspan x="12" y="59.33" dominant-baseline="ideographic">data</tspan></text></g></g></g><g id="g-root-3.cu_sy_1cy15bq1qr0hzg-stroke" data-item-order="-187483" data-item-id="3.cu_sy_1cy15bq1qr0hzg" data-item-class="ScenePart Part Indexed Stroke ColorStrokeBlack" data-item-index="3" data-renderer-id="0" transform="translate(4, 111.9990234375)"><g id="3.cu_sy_1cy15bq1qr0hzg-stroke" fill="none" stroke-linecap="round" stroke-linejoin="round" stroke-miterlimit="4" stroke="#484848" stroke-width="4"><g><path d="M 514 10C 500.1 8 486 9 472 10C 456.6 11.2 441.1 10.4 425.7 10C 408.7 9.5 391.8 8.7 374.9 10C 358.8 11.2 342.5 11.6 326.4 10C 311.1 8.5 295.6 9 280.2 10C 264.5 11.1 248.7 9.6 233 10C 219.1 10.3 205.1 9.4 191.2 10C 175 10.8 158.6 8.8 142.4 10C 126.5 11.1 110.5 11.9 94.7 10C 80.6 8.3 66.3 9.7 52 10C 38 10.3 23.9 8.1 10 10"></path><path d="M 514.000488 9.999977L 9.999988 10.000977"></path></g></g></g><g id="g-root-2.cu_sy_1lto5km1qr0h6r-stroke" data-item-order="-187481" data-item-id="2.cu_sy_1lto5km1qr0h6r" data-item-class="ScenePart Part Indexed Stroke ColorStrokeBlack" data-item-index="2" data-renderer-id="0" transform="translate(256.00048828125, 4)"><g id="2.cu_sy_1lto5km1qr0h6r-stroke" fill="none" stroke-linecap="round" stroke-linejoin="round" stroke-miterlimit="4" stroke="#484848" stroke-width="4"><g><path d="M 10 298C 10.1 283.1 8.7 268.1 10 253.3C 11.1 240.3 9.4 227.1 10 214M 10 382C 10.5 354 10.8 326 10 298M 10 214C 11.2 199.3 11.8 184.4 10 169.7C 8 152.6 9.2 135.2 10 118M 10 118C 11.3 105.4 9.5 92.7 10 80M 10 36C 11.2 27.4 11.3 18.6 10 10"></path><path d="M 10 298L 10 214M 10 382L 10 298M 10 214L 10 118M 10 118L 10 80M 10 36L 10 10"></path></g></g></g><g id="g-root-1.cu_sy_40lyu1qr0fsy-stroke" data-item-order="-187480" data-item-id="1.cu_sy_40lyu1qr0fsy" data-item-class="ScenePart Part Indexed Indexed_1 Fill Stroke ColorStrokeBlack" data-item-index="1" data-renderer-id="0" transform="translate(226.00048828125, 28)"><g id="1.cu_sy_40lyu1qr0fsy-stroke" fill="none" stroke-linecap="round" stroke-linejoin="round" stroke-miterlimit="4" stroke="#484848" stroke-width="4"><g><path d="M 10 34C 16.2 26.1 23.1 18.7 28 10C 27.9 12.7 28.2 15.3 28 18C 36 17.8 44.1 16.8 52 18C 52.8 15.4 52.9 12.5 52 10C 58.8 17.3 63.4 26.5 70 34C 64 42 58.2 50.2 52 58C 52.7 55.4 51.8 52.7 52 50C 44.2 51.7 36 50 28 50C 28.2 52.7 28.4 55.4 28 58C 21.7 50.2 16.3 41.8 10 34"></path><path d="M 10 34L 28 10L 28 18L 52 18L 52 10L 70 34L 52 58L 52 50L 28 50L 28 58L 10 34Z"></path></g></g><g id="1.cu_sy_40lyu1qr0fsy-stroke" fill="none" stroke-linecap="round" stroke-linejoin="round" stroke-miterlimit="4" stroke="#484848" stroke-width="4"><g><path d="M 30.6 28.4C 31.9 32.1 33 36 35 39.5M 35.2 39.1C 36.8 35.7 38 32.1 39.6 28.7M 49.4 30.2C 49.1 29.9 48.7 29.8 48.4 29.4C 48 28.7 46.7 28.2 45.5 28.8C 44.3 29.3 43.2 29.5 43.4 30.7C 43.2 31.8 44 33.7 46.3 33.9C 48.4 35.1 49.5 36 49.4 37.3C 49.4 38.6 48.6 39.7 47.1 39.6C 45.5 39.4 44.6 39.3 43.9 38.5C 43.5 38.2 43.3 37.6 43 37.2"></path><path d="M 30.599 28.373L 34.999 39.48M 35.199 39.097L 39.599 28.66M 49.399 30.192C 49.065 29.937 48.732 29.682 48.399 29.426C 47.799 28.852 46.832 28.628 45.499 28.756C 44.165 28.884 43.465 29.522 43.399 30.671C 43.265 31.82 44.232 32.905 46.299 33.927C 48.432 34.884 49.465 36.001 49.399 37.278C 49.399 38.555 48.632 39.321 47.099 39.576C 45.499 39.767 44.432 39.416 43.899 38.523C 43.565 38.076 43.265 37.629 42.999 37.182"></path></g></g></g><g id="g-root-tx_pros_mfhg6u1qr0g06-stroke" data-item-order="0" data-item-id="tx_pros_mfhg6u1qr0g06" data-item-class="Label Stroke SceneTarget ColorStrokeBlack" data-item-index="none" data-renderer-id="0" transform="translate(64.00048828125, 40)"></g><g id="g-root-tx_cons_qvayba1qr0f7x-stroke" data-item-order="0" data-item-id="tx_cons_qvayba1qr0f7x" data-item-class="Label Stroke SceneTarget ColorStrokeBlack" data-item-index="none" data-renderer-id="0" transform="translate(364.00048828125, 40)"></g><g id="g-root-1_zqbhh21qr1uz1-stroke" data-item-order="0" data-item-id="1_zqbhh21qr1uz1" data-item-class="Icon Stroke SceneTarget Indexed Indexed_1 ColorStrokeBlack" data-item-index="1" data-renderer-id="0" transform="translate(4.00048828125, 148)"><g id="1_zqbhh21qr1uz1-stroke" fill="none" stroke-linecap="round" stroke-linejoin="round" stroke-miterlimit="4" stroke="#484848" stroke-width="2"><g><path d="M 53.200001 11C 53.599998 13.6 53.400002 16.200001 53.200001 18.6M 49.400002 14.8C 52 15.4 54.599998 14.6 57 14.8M 46.799999 21.6C 46.799999 23.6 46.599998 25.6 46.799999 27.6M 43.799999 24.6C 45.799999 24.799999 47.799999 25.200001 49.799999 24.6M 54.599998 23.4C 55 29.4 51.799999 34.599998 46.599998 38C 41.400002 41.200001 34.400002 38.799999 30.4 34.200001C 26.200001 29.6 24.6 21.4 29.4 17.6C 34.400002 13.8 39.799999 9.4 45.200001 12.2M 33.200001 21.4C 33.599998 18.200001 37.799999 16.6 41 16.799999M 12 39C 13.8 39.799999 16.200001 38.400002 18 39C 18 39 18.799999 39 19 40C 19.6 44.599998 18.200001 49.400002 19 54C 19 54 19 55.200001 18 55C 16 54.799999 14 55 12 55C 12 55 10.8 55 11 54C 11.6 49.400002 9.6 44.599998 11 40C 11 40 11 38.799999 12 39M 19 52.200001C 39.599998 60.400002 31.799999 56.599998 57 47.200001C 55.599998 45.400002 53 44.200001 51 45.200001C 48 46 45 46.400002 42.400002 48M 19 41C 21 40.599998 23.200001 40.400002 25 41C 29.4 42.599998 33 45.200001 34 45C 36.200001 44.599998 38.599998 45 41 45C 43 45.200001 43 48.599998 41 49C 37.400002 50 33.599998 48.599998 30 49"></path><path d="M 53.223999 11.08L 53.223999 18.639999M 49.444 14.860001L 57.004002 14.860001M 46.723999 21.58L 46.723999 27.58M 43.723999 24.58L 49.723999 24.58M 54.563999 23.302C 55.495628 29.411274 52.252071 35.395073 46.624538 37.948906C 40.997009 40.502739 34.357738 39.003883 30.37319 34.280052C 26.388639 29.556227 26.030415 22.759304 29.496338 17.642807C 32.962265 12.526309 39.407196 10.337858 45.271999 12.286M 33.285999 21.452C 34.761662 18.610027 37.697754 16.826933 40.900002 16.827999M 11.996 39.045998L 17.996 39.045998C 17.996 39.045998 18.996 39.045998 18.996 40.045998L 18.996 54.045998C 18.996 54.045998 18.996 55.045998 17.996 55.045998L 11.996 55.045998C 11.996 55.045998 10.996 55.045998 10.996 54.045998L 10.996 40.045998C 10.996 40.045998 10.996 39.045998 11.996 39.045998M 19 52.169998C 40 59.169998 33 59.169998 57 47.169998C 55.617645 45.310593 53.221527 44.511887 51 45.169998L 42.368 47.903999M 19 41.045998L 25 41.045998C 29.705999 41.045998 33 45.046001 34 45.046001L 41 45.046001C 43 45.046001 43 49.046001 41 49.046001L 30 49.046001"></path></g></g></g><g id="g-root-tx_accurate_zqbhh21qr0hl0-stroke" data-item-order="0" data-item-id="tx_accurate_zqbhh21qr0hl0" data-item-class="Label Stroke SceneTarget Indexed Indexed_1 ColorStrokeBlack" data-item-index="1" data-renderer-id="0" transform="translate(64.00048828125, 148)"></g><g id="g-root-uneq_59k521qr1vd6-stroke" data-item-order="0" data-item-id="uneq_59k521qr1vd6" data-item-class="Icon Stroke SceneTarget Indexed ColorStrokeBlack" data-item-index="101" data-renderer-id="0" transform="translate(304.00048828125, 148)"><g id="uneq_59k521qr1vd6-stroke" fill="none" stroke-linecap="round" stroke-linejoin="round" stroke-miterlimit="4" stroke="#484848" stroke-width="2"><g><path d="M 34 23.4C 34.599998 33.599998 35 44 34 54.400002M 29 54.400002C 32.400002 54.599998 35.799999 54.799999 39 54.400002M 12 42.400002C 13.4 37 17.200001 32.599998 19 27.4C 19.6 32.799999 22.6 38 26 42.400002M 31 20.4C 30.4 22 32.400002 24 34 23.4C 35.599998 22.799999 37.400002 22 37 20.4C 36.599998 18.799999 35.599998 17 34 17.4C 32.400002 17.799999 31.200001 18.799999 31 20.4M 19 49.400002C 20.799999 49.400002 22.799999 48.799999 24 47.400002C 25.200001 46 25.4 44.200001 26 42.400002C 21.6 40.599998 16.6 42.200001 12 42.400002C 11.8 44.200001 12.6 46.200001 14 47.400002C 15.4 48.599998 17.200001 48.799999 19 49.400002M 56 30.4C 55.599998 24.799999 51.200001 20.4 49 15.2C 45.200001 19.200001 43.599998 25 42 30.4M 49 37.400002C 47.200001 37 45.200001 36.799999 44 35.400002C 42.799999 33.799999 42.200001 32.200001 42 30.4C 46.599998 31 51.400002 30.799999 56 30.4C 56.200001 32.200001 55.599998 34.400002 54 35.400002C 52.400002 36.400002 50.799999 36.799999 49 37.400002M 37 20.200001C 41.599998 16.6 47.400002 14.8 53.200001 13.6M 14.8 29C 20.4 26.6 25.6 22.6 31.799999 22.200001"></path><path d="M 34 23.364L 34 54.363998M 29 54.363998L 39 54.363998M 12 42.363998L 19 27.436001L 26 42.363998M 31 20.364C 31 22.020855 32.343147 23.364 34 23.364C 35.656853 23.364 37 22.020855 37 20.364C 37 18.707146 35.656853 17.364 34 17.364C 32.343147 17.364 31 18.707146 31 20.364ZM 19 49.363998C 20.870407 49.410587 22.678082 48.688061 24.001072 47.36507C 25.32406 46.042084 26.046587 44.234409 26 42.363998L 12 42.363998C 11.953412 44.234409 12.67594 46.042084 13.998928 47.36507C 15.321917 48.688061 17.129591 49.410587 19 49.363998ZM 56 30.364L 49 15.298L 42 30.364M 49 37.363998C 47.129589 37.410587 45.321915 36.688061 43.998928 35.36507C 42.675938 34.042084 41.953411 32.234406 42 30.363998L 56 30.364C 56.046585 32.234406 55.324059 34.042084 54.001072 35.36507C 52.678082 36.688061 50.870407 37.410587 49 37.363998ZM 36.987999 20.156L 53.110001 13.636M 14.892 29.094L 31.73 22.282"></path></g></g></g><g id="g-root-tx_potentia_1hhlhyu1qr0f7t-stroke" data-item-order="0" data-item-id="tx_potentia_1hhlhyu1qr0f7t" data-item-class="Label Stroke SceneTarget Indexed ColorStrokeBlack" data-item-index="101" data-renderer-id="0" transform="translate(364.00048828125, 160)"></g><g id="g-root-surv_1qcm14m1qr1uz0-stroke" data-item-order="0" data-item-id="surv_1qcm14m1qr1uz0" data-item-class="Icon Stroke SceneTarget Indexed ColorStrokeBlack" data-item-index="2" data-renderer-id="0" transform="translate(4.00048828125, 232)"><g id="surv_1qcm14m1qr1uz0-stroke" fill="none" stroke-linecap="round" stroke-linejoin="round" stroke-miterlimit="4" stroke="#484848" stroke-width="2"><g><path d="M 10 10M 30.6 41.200001C 36.799999 33.400002 39.599998 23.4 45.400002 15.4C 47.599998 12.6 51.400002 11 54 13.2C 56.599998 15.4 58 18.799999 56.200001 21.6C 49.799999 31.6 44 42.200001 38.200001 52.799999M 29.799999 55C 32.200001 57.400002 36.400002 55.400002 38.200001 52.599998C 40.200001 49.799999 38.400002 46.599998 36 44.200001C 30.6 41.599998 26 37.200001 20.200001 35.400002C 17.799999 33 12.6 34.400002 11.8 37.799999C 11 41 11 45 14.2 46.200001C 19.799999 48.200001 24.799999 51.799999 29.799999 55M 11 40.799999C 10.2 44 13.8 46.400002 17.200001 47C 20.6 47.400002 22.799999 44.200001 23.4 40.799999C 24 37.400002 20.4 33.400002 17.200001 34.599998C 14 35.799999 10 37.599998 11 40.799999"></path><path d="M 10 10M 30.6 41.139999L 45.48 15.34C 47.208652 12.3908 51.000801 11.401349 53.950001 13.13C 56.8992 14.858651 57.888653 18.650799 56.16 21.6L 38.16 52.720001M 29.82 54.919998C 32.791389 56.627632 36.584511 55.602627 38.291382 52.630795C 39.998253 49.658958 38.972271 45.866104 36 44.159996L 20.24 35.419998C 17.268707 33.735531 13.494469 34.778709 11.81 37.75C 10.125531 40.721291 11.168708 44.495533 14.139999 46.18ZM 11 40.799999C 10.998982 44.213837 13.766161 46.981838 17.18 46.981838C 20.593838 46.981838 23.361015 44.213837 23.359999 40.799995C 23.361015 37.386162 20.593838 34.618156 17.18 34.618156C 13.766161 34.618156 10.998982 37.386162 11 40.799995"></path></g></g></g><g id="g-root-tx_betterge_1464zli1qr0gsr-stroke" data-item-order="0" data-item-id="tx_betterge_1464zli1qr0gsr" data-item-class="Label Stroke SceneTarget Indexed ColorStrokeBlack" data-item-index="2" data-renderer-id="0" transform="translate(64.00048828125, 232)"></g><g id="g-root-cloc_zn741i1qr1ukg-stroke" data-item-order="0" data-item-id="cloc_zn741i1qr1ukg" data-item-class="Icon Stroke SceneTarget Indexed ColorStrokeBlack" data-item-index="102" data-renderer-id="0" transform="translate(304.00048828125, 232)"><g id="cloc_zn741i1qr1ukg-stroke" fill="none" stroke-linecap="round" stroke-linejoin="round" stroke-miterlimit="4" stroke="#484848" stroke-width="2"><g><path d="M 31 57C 25.200001 55.200001 19 57.200001 13 57C 11.8 57 11.4 56 11 55C 6.6 41.799999 8.6 26.799999 11 13C 11.2 12 12 10.8 13 11C 21.6 13.4 30.799999 11.6 39.599998 11C 40 11 40.599998 11.4 41 11.6C 44 13.4 46.599998 16 48.400002 19C 48.599998 19.4 48.799999 20 49 20.4C 49.400002 22.6 49 24.799999 49 27M 17 41C 21 41 25 41 29 41M 20 31C 20.6 31.200001 21.4 31.200001 22 31C 22.6 31 22.799999 31.6 23 32C 23.799999 35 24 38.200001 23 41C 21.799999 41.599998 20.200001 40.599998 19 41C 18.200001 38.200001 18.6 35 19 32C 19 31.4 19.4 30.799999 20 31M 31 35C 30.799999 32 30.200001 29 31 26C 31.200001 25.4 30.6 25.200001 30 25C 29.4 25 28.6 25.200001 28 25C 27.4 25 27 25.4 27 26C 26.6 31 27.799999 36.200001 27 41M 33 45C 33.799999 51.599998 38.400002 57.200001 45 57C 51.599998 56.799999 57.400002 51.599998 57 45C 56.599998 38.400002 51.599998 34.200001 45 33C 38.400002 31.799999 32.599998 38.400002 33 45M 49 45C 47.599998 44.799999 46.200001 44.799999 45 45C 45.799999 43.200001 44.599998 41 45 39"></path><path d="M 30.98 57.028L 12.98 57.028C 11.87543 57.028 10.98 56.132568 10.98 55.028L 10.98 13.028C 10.98 11.92343 11.87543 11.028 12.98 11.028L 39.566002 11.028C 40.09639 11.028113 40.605015 11.238901 40.98 11.614L 48.400002 19.028C 48.775097 19.402985 48.985886 19.91161 48.986 20.442001L 48.986 27.028M 16.98 41.028L 28.98 41.028M 19.98 31.028L 21.98 31.028C 22.532284 31.028 22.98 31.475716 22.98 32.028L 22.98 41.028L 22.98 41.028L 18.98 41.028L 18.98 41.028L 18.98 32.028C 18.98 31.475716 19.427715 31.028 19.98 31.028ZM 30.98 35.028L 30.98 26.028C 30.98 25.475716 30.532286 25.028 29.98 25.028L 27.98 25.028C 27.427715 25.028 26.98 25.475716 26.98 26.028L 26.98 41.028M 32.98 45.028C 32.980003 51.655418 38.352585 57.028 44.98 57.028C 51.607418 57.028 56.98 51.655418 56.98 45.028C 56.98 38.400581 51.607418 33.028 44.98 33.028C 38.352585 33.028 32.980003 38.400581 32.980003 45.028ZM 48.98 45.028L 44.98 45.028L 44.98 39.028"></path></g></g></g><g id="g-root-tx_timecons_qtfj1y1qr0g7j-stroke" data-item-order="0" data-item-id="tx_timecons_qtfj1y1qr0g7j" data-item-class="Label Stroke SceneTarget Indexed ColorStrokeBlack" data-item-index="102" data-renderer-id="0" transform="translate(364.00048828125, 220)"></g><g id="g-root-incr_dhz0om1qr1vyb-stroke" data-item-order="0" data-item-id="incr_dhz0om1qr1vyb" data-item-class="Icon Stroke SceneTarget Indexed ColorStrokeBlack" data-item-index="3" data-renderer-id="0" transform="translate(4.00048828125, 316)"><g id="incr_dhz0om1qr1vyb-stroke" fill="none" stroke-linecap="round" stroke-linejoin="round" stroke-miterlimit="4" stroke="#484848" stroke-width="2"><g><path d="M 11 56.599998C 26.4 57.400002 41.799999 55.599998 57 56.599998M 19 56.599998C 18.799999 54.799999 19.6 53 19 51.599998C 18.799999 51 18.6 50.400002 18 50.599998C 16.6 50.599998 15.4 50.599998 14 50.599998C 13.4 50.400002 13 51 13 51.599998C 13.4 53.200001 12.4 55 13 56.599998M 31 56.599998C 30.799999 52.200001 32.400002 47.599998 31 43.599998C 30.799999 43 30.6 42.599998 30 42.599998C 28.6 42.200001 27.200001 42.799999 26 42.599998C 25.4 42.400002 25.200001 43 25 43.599998C 23.799999 47.599998 25.4 52.200001 25 56.599998M 43 56.599998C 43.599998 49.599998 42.599998 42.599998 43 35.599998C 43 35 42.599998 34.400002 42 34.599998C 40.799999 35 39.400002 34.200001 38 34.599998C 37.400002 34.599998 37 35 37 35.599998C 37.200001 42.400002 36 49.599998 37 56.599998M 55 56.599998C 54.200001 46.799999 52 36.799999 55 27.6C 55.200001 27 54.599998 26.4 54 26.6C 52.799999 26.799999 51.200001 27 50 26.6C 49.400002 26.4 49 27 49 27.6C 47.599998 37 48.400002 46.799999 49 56.599998M 16 36.599998C 26.6 26.799999 40 20.4 52 12.6M 51 20.6C 51 17.799999 52 15.2 52 12.6C 49.400002 12.6 46.599998 12.2 44 11.6"></path><path d="M 11.008 56.5L 57.007999 56.5M 19 56.5L 19 51.5C 19 50.947716 18.552284 50.5 18 50.5L 14 50.5C 13.447716 50.5 13 50.947716 13 51.5L 13 56.5M 31 56.5L 31 43.5C 31 42.947716 30.552284 42.5 30 42.5L 26 42.5C 25.447716 42.5 25 42.947716 25 43.5L 25 56.5M 43 56.5L 43 35.5C 43 34.947716 42.552284 34.5 42 34.5L 38 34.5C 37.447716 34.5 37 34.947716 37 35.5L 37 56.5M 55 56.5L 55 27.5C 55 26.947716 54.552284 26.5 54 26.5L 50 26.5C 49.447716 26.5 49 26.947716 49 27.5L 49 56.5M 16.007999 36.5L 52.007999 12.5M 51.007999 20.5L 52.007999 12.5L 44.007999 11.5"></path></g></g></g><g id="g-root-tx_improved_1d1rzue1qr0g02-stroke" data-item-order="0" data-item-id="tx_improved_1d1rzue1qr0g02" data-item-class="Label Stroke SceneTarget Indexed ColorStrokeBlack" data-item-index="3" data-renderer-id="0" transform="translate(64.00048828125, 304)"></g><g id="g-root-1_1hdung61qr1vd3-stroke" data-item-order="0" data-item-id="1_1hdung61qr1vd3" data-item-class="Icon Stroke SceneTarget Indexed ColorStrokeBlack" data-item-index="103" data-renderer-id="0" transform="translate(304.00048828125, 316)"><g id="1_1hdung61qr1vd3-stroke" fill="none" stroke-linecap="round" stroke-linejoin="round" stroke-miterlimit="4" stroke="#484848" stroke-width="2"><g><path d="M 24.057142 14.114285C 25.771429 14.8 25.428572 16.857143 26.114285 18.571428C 28.857143 17.542858 30.228573 14.457143 32.285713 12.4C 32.971428 12.057143 33.314285 11.714286 34 11.714286C 34.685715 11.371428 35.371429 12.057143 35.714287 12.4C 37.771431 13.771429 39.142857 15.828571 40.857143 17.542858C 40.171429 17.885714 39.142857 18.228571 38.799999 18.914286C 36.742859 22.342857 36.399998 26.114285 39.142857 28.857143C 41.885715 31.6 45.657143 30.914286 48.742859 28.857143C 49.771431 28.514286 50.114285 27.828571 50.114285 27.142857C 52.171429 28.857143 53.885715 30.571428 55.600002 32.285713C 55.942856 32.971428 56.628574 33.314285 56.285713 34C 56.285713 34.685715 55.942856 35.371429 55.600002 35.714287C 53.885715 38.114285 51.828571 40.514286 49.428574 41.885715C 53.200001 42.228569 55.257141 45.314285 55.942856 49.085712C 56.628574 52.857143 52.857143 55.600002 49.085712 55.942856C 45.314285 56.285713 40.857143 52.857143 41.885715 49.428574C 39.828571 51.485718 37.085716 53.200001 35.714287 55.600002C 35.371429 56.285713 34.685715 56.285713 34 56.285713C 33.314285 56.285713 32.971428 55.942856 32.285713 55.600002C 30.228573 54.57143 29.200001 51.485718 27.142857 50.457146C 27.828571 50.114285 28.514286 49.771431 29.200001 49.085712C 31.257143 45.657143 31.6 41.885715 29.200001 38.799999C 26.457144 36.057144 21.657143 36.057144 18.914286 39.142857C 18.571428 39.485718 18.228571 40.514286 17.542858 40.857143C 15.485714 39.485718 13.771429 37.771431 12.4 35.714287C 12.057143 35.028572 11.714286 34.685715 11.714286 34C 11.714286 33.314285 12.057143 32.971428 12.4 32.285713C 13.771429 29.542856 16.514286 27.828571 18.571428 26.114285C 16.857143 26.457144 15.142858 25.428572 14.114285 24.057142C 12.057143 20.628571 11.714286 17.199999 14.114285 14.114285C 16.514286 11.028571 22 10.685715 24.057142 14.114285"></path><path d="M 24.022858 14.08C 25.258335 15.286715 25.992985 16.915182 26.08 18.639999L 32.354286 12.4C 32.790134 11.91136 33.413795 11.631939 34.068573 11.631939C 34.723347 11.631939 35.347008 11.91136 35.782856 12.4L 40.857143 17.68C 40.13644 18.029476 39.476597 18.492525 38.902859 19.05143C 36.366226 21.841013 36.468044 26.131165 39.134155 28.797272C 41.800262 31.463381 46.090416 31.565199 48.879997 29.02857C 49.438904 28.454834 49.901951 27.794989 50.251427 27.074286L 55.600002 32.354286C 56.088642 32.790134 56.368061 33.413795 56.368061 34.068573C 56.368061 34.723347 56.088642 35.347008 55.600002 35.782856L 49.360001 41.920002C 53.124832 42.147659 56.03883 45.306301 55.962902 49.077248C 55.886978 52.84819 52.84819 55.886978 49.077248 55.962902C 45.306301 56.03883 42.147659 53.124832 41.920002 49.360001L 35.645714 55.600002C 35.209866 56.088642 34.586205 56.368061 33.931427 56.368061C 33.276653 56.368061 32.652992 56.088642 32.217144 55.600002L 27.142857 50.32C 27.86356 49.970524 28.523405 49.507477 29.097143 48.948574C 31.852257 46.174526 31.836906 41.692257 29.062859 38.937145C 26.288811 36.182034 21.806541 36.197384 19.05143 38.971432C 18.492525 39.545166 18.029476 40.205009 17.68 40.925716L 12.4 35.645714C 11.91136 35.209866 11.631939 34.586205 11.631939 33.931427C 11.631939 33.276653 11.91136 32.652992 12.4 32.217144L 18.639999 26.08C 16.915182 25.992985 15.286715 25.258335 14.08 24.022858C 11.335168 21.277073 11.335553 16.826168 14.080861 14.080861C 16.826168 11.335553 21.277073 11.335168 24.022856 14.08Z"></path></g></g></g><g id="g-root-tx_incomple_1hfq2pi1qr0g7i-stroke" data-item-order="0" data-item-id="tx_incomple_1hfq2pi1qr0g7i" data-item-class="Label Stroke SceneTarget Indexed ColorStrokeBlack" data-item-index="103" data-renderer-id="0" transform="translate(364.00048828125, 316)"></g></g></g></svg>