<?xml version="1.0" encoding="utf-8" standalone="yes"?>
<!DOCTYPE svg PUBLIC "-//W3C//DTD SVG 1.1//EN" "http://www.w3.org/Graphics/SVG/1.1/DTD/svg11.dtd">
<svg width="552" height="361" viewBox="0 0 552 361" style="fill:none;stroke:none;fill-rule:evenodd;clip-rule:evenodd;stroke-linecap:round;stroke-linejoin:round;stroke-miterlimit:1.5;" version="1.1" xmlns="http://www.w3.org/2000/svg" xmlns:xlink="http://www.w3.org/1999/xlink"><style id="fontImports">@import url("https://fonts.googleapis.com/css2?family=Roboto:wght@400;700&amp;display=block");</style><rect id="" x="0" y="0" width="552" height="361" style="fill: #ffffff;"></rect><g id="items" style="isolation: isolate"><g id="blend" style="mix-blend-mode:multiply"><g id="g-root-4.cu_sy_qva8zk1t92dxo-fill" data-item-order="-28795" data-item-id="4.cu_sy_qva8zk1t92dxo" data-item-class="ScenePart Part Indexed Stroke ColorFillGray ColorStrokeBlack" data-item-index="4" data-renderer-id="0" transform="translate(182, 237)"></g><g id="g-root-3.cu_sy_qva8zk1t92dxn-fill" data-item-order="-28794" data-item-id="3.cu_sy_qva8zk1t92dxn" data-item-class="ScenePart Part Indexed Fill Stroke ColorFillGray ColorStrokeBlack" data-item-index="3" data-renderer-id="0" transform="translate(230, 254)"><g id="3.cu_sy_qva8zk1t92dxn-fill" stroke="none" fill="#888888"><g><path d="M 46 22C 49.314 22 52 19.314 52 16C 52 12.686 49.314 10 46 10C 42.686 10 40 12.686 40 16C 40 19.314 42.686 22 46 22ZM 43 77.995L 49 77.995L 49 21.533C 49 21.533 47.756 22.333 46.043 22.333C 44.212 22.333 43 21.533 43 21.533L 43 77.995ZM 16.4 86C 12.865 86 10 88.865 10 92.4L 10 92.4C 10 93.284 10.716 94 11.6 94L 80.4 94C 81.284 94 82 93.284 82 92.4L 82 92.4C 82 88.865 79.135 86 75.6 86L 16.4 86ZM 28 78C 24.686 78 22 80.686 22 84L 22 86L 70 86L 70 84C 70 80.686 67.314 78 64 78L 28 78Z"></path></g></g></g><g id="g-root-2.right-bucket_sy_qva8zk1t92dxm-fill" data-item-order="-28792" data-item-id="2.right-bucket_sy_qva8zk1t92dxm" data-item-class="ScenePart Part Indexed Fill Stroke ColorStrokeBlack" data-item-index="2" data-renderer-id="0" transform="translate(314, 218)"><g id="2.right-bucket_sy_qva8zk1t92dxm-fill" stroke="none" fill="#93c131"><g><path d="M 10 11.8C 10 10.806 10.806 10 11.8 10L 80.2 10C 81.194 10 82 10.806 82 11.8C 82 20.747 74.747 28 65.8 28L 26.2 28C 17.253 28 10 20.747 10 11.8Z"></path></g></g></g><g id="g-root-1.left-bucket_sy_zqas5c1t92gap-fill" data-item-order="-28790" data-item-id="1.left-bucket_sy_zqas5c1t92gap" data-item-class="ScenePart Part Indexed Indexed_1 Fill Stroke ColorStrokeBlack" data-item-index="1" data-renderer-id="0" transform="translate(146, 218)"><g id="1.left-bucket_sy_zqas5c1t92gap-fill" stroke="none" fill="#17b0e3"><g><path d="M 10 11.8C 10 10.806 10.806 10 11.8 10L 80.2 10C 81.194 10 82 10.806 82 11.8C 82 20.747 74.747 28 65.8 28L 26.2 28C 17.253 28 10 20.747 10 11.8Z"></path></g></g></g><g id="g-root-tx_requires_1hitqtc1t92g3r-fill" data-item-order="0" data-item-id="tx_requires_1hitqtc1t92g3r" data-item-class="Label Stroke SceneTarget Indexed Indexed_1 ColorStrokeBlack" data-item-index="1" data-renderer-id="0" transform="translate(50, 2)"><g id="tx_requires_1hitqtc1t92g3r-fill" stroke="none" fill="#666666"><g><text style="font: 20px Roboto, sans-serif; white-space: pre;"><tspan x="26.34" y="33.75" dominant-baseline="ideographic">Requires </tspan><tspan x="26.01" y="57.75" dominant-baseline="ideographic">powerful </tspan><tspan x="21.15" y="81.75" dominant-baseline="ideographic">hardware</tspan></text></g></g></g><g id="g-root-mini_1uljlz41t96nlw-fill" data-item-order="0" data-item-id="mini_1uljlz41t96nlw" data-item-class="Icon Stroke SceneTarget Indexed Indexed_1 ColorStrokeBlack" data-item-index="1" data-renderer-id="0" transform="translate(158, 14)"></g><g id="g-root-keyb_v3m22o1t96oen-fill" data-item-order="0" data-item-id="keyb_v3m22o1t96oen" data-item-class="Icon Stroke SceneTarget Indexed ColorStrokeBlack" data-item-index="4" data-renderer-id="0" transform="translate(326, 14)"></g><g id="g-root-tx_lesshard_mgpp1c1t92gw2-fill" data-item-order="0" data-item-id="tx_lesshard_mgpp1c1t92gw2" data-item-class="Label Stroke SceneTarget Indexed ColorStrokeBlack" data-item-index="4" data-renderer-id="0" transform="translate(386, 14)"><g id="tx_lesshard_mgpp1c1t92gw2-fill" stroke="none" fill="#666666"><g><text style="font: 20px Roboto, sans-serif; white-space: pre;"><tspan x="12" y="33.75" dominant-baseline="ideographic">Less hardware </tspan><tspan x="12" y="57.75" dominant-baseline="ideographic">intensive</tspan></text></g></g></g><g id="g-root-tx_handlesc_1uua96o1t92eiu-fill" data-item-order="0" data-item-id="tx_handlesc_1uua96o1t92eiu" data-item-class="Label Stroke SceneTarget Indexed ColorStrokeBlack" data-item-index="2" data-renderer-id="0" transform="translate(2, 86)"><g id="tx_handlesc_1uua96o1t92eiu-fill" stroke="none" fill="#666666"><g><text style="font: 20px Roboto, sans-serif; white-space: pre;"><tspan x="78.78" y="33.75" dominant-baseline="ideographic">Handles </tspan><tspan x="22.88" y="57.75" dominant-baseline="ideographic">complex tasks</tspan></text></g></g></g><g id="g-root-puzz_924g1t96n0r-fill" data-item-order="0" data-item-id="puzz_924g1t96n0r" data-item-class="Icon Stroke SceneTarget Indexed ColorStrokeBlack" data-item-index="2" data-renderer-id="0" transform="translate(158, 86)"></g><g id="g-root-puzz_13z92bk1t96nly-fill" data-item-order="0" data-item-id="puzz_13z92bk1t96nly" data-item-class="Icon Stroke SceneTarget Indexed ColorStrokeBlack" data-item-index="5" data-renderer-id="0" transform="translate(326, 86)"></g><g id="g-root-tx_limitedc_qwj75s1t92g3t-fill" data-item-order="0" data-item-id="tx_limitedc_qwj75s1t92g3t" data-item-class="Label Stroke SceneTarget Indexed ColorStrokeBlack" data-item-index="5" data-renderer-id="0" transform="translate(386, 86)"><g id="tx_limitedc_qwj75s1t92g3t-fill" stroke="none" fill="#666666"><g><text style="font: 20px Roboto, sans-serif; white-space: pre;"><tspan x="12" y="33.75" dominant-baseline="ideographic">Limited </tspan><tspan x="12" y="57.75" dominant-baseline="ideographic">complexity</tspan></text></g></g></g><g id="g-root-tx_parallel_9408hs1t92gat-fill" data-item-order="0" data-item-id="tx_parallel_9408hs1t92gat" data-item-class="Label Stroke SceneTarget Indexed ColorStrokeBlack" data-item-index="3" data-renderer-id="0" transform="translate(38, 158)"><g id="tx_parallel_9408hs1t92gat-fill" stroke="none" fill="#666666"><g><text style="font: 20px Roboto, sans-serif; white-space: pre;"><tspan x="50.2" y="33.75" dominant-baseline="ideographic">Parallel </tspan><tspan x="17.99" y="57.75" dominant-baseline="ideographic">processing</tspan></text></g></g></g><g id="g-root-tran_dl2osg1t95a16-fill" data-item-order="0" data-item-id="tran_dl2osg1t95a16" data-item-class="Icon Stroke SceneTarget Indexed ColorStrokeBlack" data-item-index="3" data-renderer-id="0" transform="translate(158, 158)"></g><g id="g-root-1_1hapkow1t96m11-fill" data-item-order="0" data-item-id="1_1hapkow1t96m11" data-item-class="Icon Stroke SceneTarget Indexed ColorStrokeBlack" data-item-index="6" data-renderer-id="0" transform="translate(326, 158)"></g><g id="g-root-tx_sequenti_147zpj41t92eiw-fill" data-item-order="0" data-item-id="tx_sequenti_147zpj41t92eiw" data-item-class="Label Stroke SceneTarget Indexed ColorStrokeBlack" data-item-index="6" data-renderer-id="0" transform="translate(386, 158)"><g id="tx_sequenti_147zpj41t92eiw-fill" stroke="none" fill="#666666"><g><text style="font: 20px Roboto, sans-serif; white-space: pre;"><tspan x="12" y="33.75" dominant-baseline="ideographic">Sequential </tspan><tspan x="12" y="57.75" dominant-baseline="ideographic">processing</tspan></text></g></g></g><g id="g-root-tx_transfor_dbpkhs1t93t3f-fill" data-item-order="0" data-item-id="tx_transfor_dbpkhs1t93t3f" data-item-class="Label Stroke SceneTarget Indexed ColorStrokeBlack" data-item-index="none" data-renderer-id="0" transform="translate(32, 302)"><g id="tx_transfor_dbpkhs1t93t3f-fill" stroke="none" fill="#666666"><g><text style="font: 20px Roboto, sans-serif; white-space: pre;"><tspan x="15.93" y="33.75" dominant-baseline="ideographic">Transformers</tspan></text></g></g></g><g id="g-root-tx_traditio_8vw2dc1t93tvo-fill" data-item-order="0" data-item-id="tx_traditio_8vw2dc1t93tvo" data-item-class="Label Stroke SceneTarget Indexed ColorStrokeBlack" data-item-index="none" data-renderer-id="0" transform="translate(356, 302)"><g id="tx_traditio_8vw2dc1t93tvo-fill" stroke="none" fill="#666666"><g><text style="font: 20px Roboto, sans-serif; white-space: pre;"><tspan x="12.87" y="33.75" dominant-baseline="ideographic">Traditional RNNs</tspan></text></g></g></g><g id="g-root-4.cu_sy_qva8zk1t92dxo-stroke" data-item-order="-28795" data-item-id="4.cu_sy_qva8zk1t92dxo" data-item-class="ScenePart Part Indexed Stroke ColorFillGray ColorStrokeBlack" data-item-index="4" data-renderer-id="0" transform="translate(182, 237)"><g id="4.cu_sy_qva8zk1t92dxo-stroke" fill="none" stroke-linecap="round" stroke-linejoin="round" stroke-miterlimit="4" stroke="#666666" stroke-width="2"><g><path d="M 178 10L 178 24.975C 178 29.393 174.418 32.975 170 32.975L 100 32.975M 10 10L 10 25.025C 10 29.444 13.582 33.025 18 33.025L 88 33.025"></path></g></g></g><g id="g-root-3.cu_sy_qva8zk1t92dxn-stroke" data-item-order="-28794" data-item-id="3.cu_sy_qva8zk1t92dxn" data-item-class="ScenePart Part Indexed Fill Stroke ColorFillGray ColorStrokeBlack" data-item-index="3" data-renderer-id="0" transform="translate(230, 254)"><g id="3.cu_sy_qva8zk1t92dxn-stroke" fill="none" stroke-linecap="round" stroke-linejoin="round" stroke-miterlimit="4" stroke="#2c2c2c" stroke-width="2"><g><path d="M 46 22C 49.314 22 52 19.314 52 16C 52 12.686 49.314 10 46 10C 42.686 10 40 12.686 40 16C 40 19.314 42.686 22 46 22ZM 43 77.995L 49 77.995L 49 21.533C 49 21.533 47.756 22.333 46.043 22.333C 44.212 22.333 43 21.533 43 21.533L 43 77.995ZM 16.4 86C 12.865 86 10 88.865 10 92.4L 10 92.4C 10 93.284 10.716 94 11.6 94L 80.4 94C 81.284 94 82 93.284 82 92.4L 82 92.4C 82 88.865 79.135 86 75.6 86L 16.4 86ZM 28 78C 24.686 78 22 80.686 22 84L 22 86L 70 86L 70 84C 70 80.686 67.314 78 64 78L 28 78Z"></path></g></g></g><g id="g-root-2.right-bucket_sy_qva8zk1t92dxm-stroke" data-item-order="-28792" data-item-id="2.right-bucket_sy_qva8zk1t92dxm" data-item-class="ScenePart Part Indexed Fill Stroke ColorStrokeBlack" data-item-index="2" data-renderer-id="0" transform="translate(314, 218)"><g id="2.right-bucket_sy_qva8zk1t92dxm-stroke" fill="none" stroke-linecap="round" stroke-linejoin="round" stroke-miterlimit="4" stroke="#2c2c2c" stroke-width="2"><g><path d="M 10 11.8C 10 10.806 10.806 10 11.8 10L 80.2 10C 81.194 10 82 10.806 82 11.8C 82 20.747 74.747 28 65.8 28L 26.2 28C 17.253 28 10 20.747 10 11.8Z"></path></g></g></g><g id="g-root-1.left-bucket_sy_zqas5c1t92gap-stroke" data-item-order="-28790" data-item-id="1.left-bucket_sy_zqas5c1t92gap" data-item-class="ScenePart Part Indexed Indexed_1 Fill Stroke ColorStrokeBlack" data-item-index="1" data-renderer-id="0" transform="translate(146, 218)"><g id="1.left-bucket_sy_zqas5c1t92gap-stroke" fill="none" stroke-linecap="round" stroke-linejoin="round" stroke-miterlimit="4" stroke="#2c2c2c" stroke-width="2"><g><path d="M 10 11.8C 10 10.806 10.806 10 11.8 10L 80.2 10C 81.194 10 82 10.806 82 11.8C 82 20.747 74.747 28 65.8 28L 26.2 28C 17.253 28 10 20.747 10 11.8Z"></path></g></g></g><g id="g-root-tx_requires_1hitqtc1t92g3r-stroke" data-item-order="0" data-item-id="tx_requires_1hitqtc1t92g3r" data-item-class="Label Stroke SceneTarget Indexed Indexed_1 ColorStrokeBlack" data-item-index="1" data-renderer-id="0" transform="translate(50, 2)"></g><g id="g-root-mini_1uljlz41t96nlw-stroke" data-item-order="0" data-item-id="mini_1uljlz41t96nlw" data-item-class="Icon Stroke SceneTarget Indexed Indexed_1 ColorStrokeBlack" data-item-index="1" data-renderer-id="0" transform="translate(158, 14)"><g id="mini_1uljlz41t96nlw-stroke" fill="none" stroke-linecap="round" stroke-linejoin="round" stroke-miterlimit="4" stroke="#666666" stroke-width="2"><g><path d="M 15.826 30.174L 15.826 53.130001M 15.826 32.085999L 31.129999 32.085999M 56 35.912003L 56 51.216L 15.826 51.216M 15.826 33.996002L 12 33.996002L 12 41.652L 15.826 41.652M 21.566 41.652C 21.565308 44.293514 23.706486 46.435253 26.348 46.435253C 28.989515 46.435253 31.130692 44.293514 31.129999 41.652C 31.130692 39.010483 28.989515 36.868744 26.348 36.868744C 23.706486 36.868744 21.565308 39.010483 21.566 41.652M 34.956001 51.216L 34.956001 55.042M 31.129999 51.216L 31.129999 55.042M 38.781998 51.216L 38.781998 55.042M 42.608002 51.216L 42.608002 55.042M 46.433998 51.216L 46.433998 55.042M 23.48 51.216L 23.48 55.042M 19.652 51.216L 19.652 55.042M 27.304001 51.216L 27.304001 55.042M 38.781998 51.216L 38.781998 55.042M 42.608002 51.216L 42.608002 55.042M 44.521999 35.914001C 50.861122 35.914001 56 30.775124 56 24.436001C 56 18.096874 50.861122 12.958 44.521999 12.958C 38.182877 12.958 33.043999 18.096874 33.043999 24.436001C 33.043999 30.775124 38.182877 35.914001 44.521999 35.914001ZM 42.59 16.784L 42.59 18.695999M 46.416 16.784L 46.416 18.695999M 42.59 30.174L 42.59 32.087997M 46.416 30.174L 46.416 32.087997M 49.304001 21.566C 49.304001 23.151058 48.019058 24.436001 46.433998 24.436001L 40.694 24.436001L 40.694 18.695999L 46.433998 18.695999C 48.019058 18.695999 49.304001 19.980942 49.304001 21.566ZM 49.304001 27.304001C 49.304001 28.889057 48.019058 30.174 46.433998 30.174L 40.694 30.174L 40.694 24.434L 46.433998 24.434C 48.019058 24.434 49.304001 25.718943 49.304001 27.303999ZM 36.870003 43.563999L 48.348 43.563999"></path></g></g></g><g id="g-root-keyb_v3m22o1t96oen-stroke" data-item-order="0" data-item-id="keyb_v3m22o1t96oen" data-item-class="Icon Stroke SceneTarget Indexed ColorStrokeBlack" data-item-index="4" data-renderer-id="0" transform="translate(326, 14)"><g id="keyb_v3m22o1t96oen-stroke" fill="none" stroke-linecap="round" stroke-linejoin="round" stroke-miterlimit="4" stroke="#666666" stroke-width="2"><g><path d="M 51.060001 33.099998L 56.959999 54.639999C 57.069675 55.221886 56.915871 55.82246 56.540001 56.279999C 56.159286 56.73708 55.594864 57.000965 55 57L 45 57M 47.060001 41.299999C 45.080257 45.349434 41.207546 48.141388 36.739998 48.739998L 55.16 11C 57.441452 14.884441 57.621735 19.65443 55.639999 23.700001ZM 23 54C 23 55.656857 24.343147 57 26 57C 27.656855 57 29 55.656857 29 54C 29 52.343147 27.656855 51 26 51C 24.343147 51 23 52.343147 23 54M 24.779999 51.259998L 11 57"></path></g></g></g><g id="g-root-tx_lesshard_mgpp1c1t92gw2-stroke" data-item-order="0" data-item-id="tx_lesshard_mgpp1c1t92gw2" data-item-class="Label Stroke SceneTarget Indexed ColorStrokeBlack" data-item-index="4" data-renderer-id="0" transform="translate(386, 14)"></g><g id="g-root-tx_handlesc_1uua96o1t92eiu-stroke" data-item-order="0" data-item-id="tx_handlesc_1uua96o1t92eiu" data-item-class="Label Stroke SceneTarget Indexed ColorStrokeBlack" data-item-index="2" data-renderer-id="0" transform="translate(2, 86)"></g><g id="g-root-puzz_924g1t96n0r-stroke" data-item-order="0" data-item-id="puzz_924g1t96n0r" data-item-class="Icon Stroke SceneTarget Indexed ColorStrokeBlack" data-item-index="2" data-renderer-id="0" transform="translate(158, 86)"><g id="puzz_924g1t96n0r-stroke" fill="none" stroke-linecap="round" stroke-linejoin="round" stroke-miterlimit="4" stroke="#666666" stroke-width="2"><g><path d="M 44.200001 33.98C 42.614426 32.460838 42.513096 29.960123 43.970558 28.317654C 45.42802 26.675184 47.923035 26.478367 49.619999 27.872C 49.740227 27.978226 49.853775 28.091774 49.959999 28.212C 50.365028 28.616631 50.684082 29.098955 50.898003 29.630001C 51.027191 29.955887 51.309685 30.196419 51.652 30.271999C 51.993736 30.349892 52.351547 30.247229 52.599998 30L 55.784 26.799999C 56.166214 26.409758 56.377605 25.883574 56.371605 25.337368C 56.365601 24.791162 56.1427 24.269751 55.752003 23.888L 55.751999 23.888L 52.400002 20.557999C 53.095207 20.380379 53.729542 20.018295 54.236 19.509998C 55.816933 17.876568 55.795708 15.277086 54.188313 13.669689C 52.580914 12.062292 49.98143 12.041066 48.348 13.622C 47.839954 14.128329 47.478493 14.762781 47.301998 15.458L 43.964001 12.12C 43.169083 11.306905 41.865685 11.291686 41.051998 12.086L 41.052002 12.086L 38.087997 15.05C 37.871742 15.268255 37.765862 15.572651 37.800003 15.878C 37.834778 16.187981 38.004566 16.466818 38.264 16.639999C 39.529205 17.410116 40.27858 18.804619 40.222595 20.284716C 40.166603 21.764812 39.314022 23.098717 37.994255 23.771053C 36.674484 24.443386 35.094212 24.348862 33.863998 23.524C 33.601994 23.35815 33.360344 23.162144 33.143997 22.939999C 32.952583 22.741751 32.781715 22.524647 32.634003 22.292C 32.459511 22.0336 32.181519 21.863594 31.872 21.826C 31.566048 21.791826 31.261028 21.897663 31.042 22.113998L 28.068001 25.07C 27.270491 25.882959 27.283026 27.188505 28.096001 27.986L 39.872002 39.762001C 40.66996 40.573875 41.974594 40.586403 42.787998 39.789997L 45.972 36.599998C 46.214401 36.35453 46.315369 36.002655 46.240002 35.666C 46.164482 35.324005 45.926086 35.040771 45.601997 34.907997C 45.076584 34.696915 44.599586 34.381184 44.200001 33.98ZM 11.638 51.75C 32.638 58.75 25.638 58.75 49.638 46.75C 48.255646 44.890594 45.859528 44.091885 43.638 44.75L 35 47.484001M 11.638 40.625999L 17.638 40.625999C 22.344 40.625999 25.638 44.625999 26.638 44.625999L 33.638 44.625999C 35.638 44.625999 35.638 48.625999 33.638 48.625999L 22.638 48.625999M 18.466 40.667999C 18.466 40.667999 20.6 47.540001 11.638 47.540001M 40.393997 45.778L 42.91 50.206001M 32.914001 48.625999L 35.162003 54.273998M 26.841999 44.625999C 26.453981 45.931107 26.453981 47.3209 26.842001 48.626003"></path></g></g></g><g id="g-root-puzz_13z92bk1t96nly-stroke" data-item-order="0" data-item-id="puzz_13z92bk1t96nly" data-item-class="Icon Stroke SceneTarget Indexed ColorStrokeBlack" data-item-index="5" data-renderer-id="0" transform="translate(326, 86)"><g id="puzz_13z92bk1t96nly-stroke" fill="none" stroke-linecap="round" stroke-linejoin="round" stroke-miterlimit="4" stroke="#666666" stroke-width="2"><g><path d="M 50.98 34C 50.98 33.84 50.98 33.66 50.98 33.5C 50.98 31.014719 48.965282 29 46.48 29C 43.99472 29 41.98 31.014719 41.98 33.5C 41.98 33.66 41.98 33.84 41.98 34L 36.5 34L 36.5 40L 37 40C 39.485283 40 41.5 42.014717 41.5 44.5C 41.5 46.985283 39.485283 49 37 49L 36.5 49L 36.5 55L 55 55C 56.104568 55 57 54.104568 57 53L 57 34ZM 37 40L 36.5 40L 36.5 34L 31.48 34C 31.48 34.16 31.48 34.34 31.48 34.5C 31.48 36.985283 29.465282 39 26.98 39C 24.494719 39 22.48 36.985283 22.48 34.5C 22.48 34.34 22.48 34.16 22.48 34L 16 34L 16 40L 15.5 40C 13.014719 40 11 42.014717 11 44.5C 11 46.985283 13.014719 49 15.5 49L 16 49L 16 53C 16 54.104568 16.895432 55 18 55L 36.5 55L 36.5 49L 37 49C 39.485283 49 41.5 46.985283 41.5 44.5C 41.5 42.014717 39.485283 40 37 40ZM 36.5 28L 36 28C 33.514717 28 31.5 25.985283 31.5 23.5C 31.5 21.014719 33.514717 19 36 19L 36.5 19L 36.5 13L 18 13C 16.895432 13 16 13.895431 16 15L 16 19L 16.5 19C 18.985281 19 21 21.014719 21 23.5C 21 25.985283 18.985281 28 16.5 28L 16 28L 16 34L 22.52 34C 22.52 34.16 22.52 34.34 22.52 34.5C 22.52 36.985283 24.534718 39 27.02 39C 29.505281 39 31.52 36.985283 31.52 34.5C 31.52 34.34 31.52 34.16 31.52 34L 36.540001 34ZM 50.98 13C 50.98 13.16 50.98 13.34 50.98 13.5C 50.98 15.985281 48.965282 18 46.48 18C 43.99472 18 41.98 15.985281 41.98 13.5C 41.98 13.34 41.98 13.16 41.98 13L 36.5 13L 36.5 19L 36 19C 33.514717 19 31.5 21.014719 31.5 23.5C 31.5 25.985283 33.514717 28 36 28L 36.5 28L 36.5 34L 42 34C 42 33.84 42 33.66 42 33.5C 42 31.014719 44.014717 29 46.5 29C 48.985283 29 51 31.014719 51 33.5C 51 33.66 51 33.84 51 34L 57 34L 57 15C 57 13.895431 56.104568 13 55 13Z"></path></g></g></g><g id="g-root-tx_limitedc_qwj75s1t92g3t-stroke" data-item-order="0" data-item-id="tx_limitedc_qwj75s1t92g3t" data-item-class="Label Stroke SceneTarget Indexed ColorStrokeBlack" data-item-index="5" data-renderer-id="0" transform="translate(386, 86)"></g><g id="g-root-tx_parallel_9408hs1t92gat-stroke" data-item-order="0" data-item-id="tx_parallel_9408hs1t92gat" data-item-class="Label Stroke SceneTarget Indexed ColorStrokeBlack" data-item-index="3" data-renderer-id="0" transform="translate(38, 158)"></g><g id="g-root-tran_dl2osg1t95a16-stroke" data-item-order="0" data-item-id="tran_dl2osg1t95a16" data-item-class="Icon Stroke SceneTarget Indexed ColorStrokeBlack" data-item-index="3" data-renderer-id="0" transform="translate(158, 158)"><g id="tran_dl2osg1t95a16-stroke" fill="none" stroke-linecap="round" stroke-linejoin="round" stroke-miterlimit="4" stroke="#666666" stroke-width="2"><g><path d="M 21 29L 12.846 29C 11.784322 28.956684 10.958291 28.061743 11 27L 11 13C 10.959408 11.938669 11.784822 11.044396 12.846001 11L 33.153999 11C 34.215179 11.044396 35.040592 11.938669 35 13L 35 25M 15 33L 21 33M 11 25L 35 25M 41 53L 41 56.938M 33 57L 49 57M 57 49.400002C 57.104771 51.275791 55.675137 52.884129 53.799999 53L 28.200001 53C 26.325378 52.883064 24.896343 51.275402 25 49.399998L 25 32.599998C 24.897457 30.724987 26.325895 29.117992 28.199999 29L 53.799999 29C 55.674618 29.116932 57.103653 30.724598 56.999996 32.599998ZM 24.998001 47L 57 47"></path></g></g></g><g id="g-root-1_1hapkow1t96m11-stroke" data-item-order="0" data-item-id="1_1hapkow1t96m11" data-item-class="Icon Stroke SceneTarget Indexed ColorStrokeBlack" data-item-index="6" data-renderer-id="0" transform="translate(326, 158)"><g id="1_1hapkow1t96m11-stroke" fill="none" stroke-linecap="round" stroke-linejoin="round" stroke-miterlimit="4" stroke="#666666" stroke-width="2"><g><path d="M 11 18C 11 20.761425 13.238577 23 16 23C 18.761425 23 21 20.761425 21 18C 21 15.238577 18.761425 13 16 13C 13.238577 13 11 15.238577 11 18M 32 18C 32 20.761425 34.238579 23 37 23C 39.761425 23 42 20.761425 42 18C 42 15.238577 39.761425 13 37 13C 34.238579 13 32 15.238577 32 18M 32 48C 32 50.761425 34.238579 53 37 53C 39.761425 53 42 50.761425 42 48C 42 45.238575 39.761425 43 37 43C 34.238579 43 32 45.238575 32 48M 21 18L 32 18M 16 48L 32 48M 42 18C 50.284271 18 57 24.715729 57 33C 57 41.284271 50.284271 48 42 48M 22 41L 15 48L 22 55"></path></g></g></g><g id="g-root-tx_sequenti_147zpj41t92eiw-stroke" data-item-order="0" data-item-id="tx_sequenti_147zpj41t92eiw" data-item-class="Label Stroke SceneTarget Indexed ColorStrokeBlack" data-item-index="6" data-renderer-id="0" transform="translate(386, 158)"></g><g id="g-root-tx_transfor_dbpkhs1t93t3f-stroke" data-item-order="0" data-item-id="tx_transfor_dbpkhs1t93t3f" data-item-class="Label Stroke SceneTarget Indexed ColorStrokeBlack" data-item-index="none" data-renderer-id="0" transform="translate(32, 302)"></g><g id="g-root-tx_traditio_8vw2dc1t93tvo-stroke" data-item-order="0" data-item-id="tx_traditio_8vw2dc1t93tvo" data-item-class="Label Stroke SceneTarget Indexed ColorStrokeBlack" data-item-index="none" data-renderer-id="0" transform="translate(356, 302)"></g></g></g></svg>