<?xml version="1.0" encoding="utf-8" standalone="yes"?>
<!DOCTYPE svg PUBLIC "-//W3C//DTD SVG 1.1//EN" "http://www.w3.org/Graphics/SVG/1.1/DTD/svg11.dtd">
<svg width="552" height="384" viewBox="0 0 552 384" style="fill:none;stroke:none;fill-rule:evenodd;clip-rule:evenodd;stroke-linecap:round;stroke-linejoin:round;stroke-miterlimit:1.5;" version="1.1" xmlns="http://www.w3.org/2000/svg" xmlns:xlink="http://www.w3.org/1999/xlink"><style id="fontImports">@import url("https://fonts.googleapis.com/css2?family=Shantell+Sans:wght@300..800&amp;display=block");</style><rect id="" x="0" y="0" width="552" height="384" style="fill: #ffffff;"></rect><g id="items" style="isolation: isolate"><g id="blend" style="mix-blend-mode:multiply"><g id="g-root-5.cu_sy_v5hqus1ucmqro-fill" data-item-order="-82624" data-item-id="5.cu_sy_v5hqus1ucmqro" data-item-class="ScenePart Part Indexed Fill Stroke" data-item-index="5" data-renderer-id="0" transform="translate(207.94583129882812, 208.00006103515625)"><g id="5.cu_sy_v5hqus1ucmqro-fill" stroke="none" fill="#fff9ce"><g><path d="M 51.8142 10C 59.5542 15.5 69.4811 19.1285 80.0543 19.1285C 90.6274 19.1285 100.3644 15.712 108.2943 10L 149.964 68.2767C 147.274 70.2121 144.49 72.0531 141.659 73.7996L 149.068 98.3457C 142.272 102.0748 135.1 105.2847 127.691 107.8809L 114.383 85.931C 108.0599 87.8192 101.5477 89.1881 94.894 90.0378L 91.6852 115.481C 87.8156 115.811 83.899 116 79.9822 116C 76.0655 116 72.1487 115.811 68.2792 115.481L 65.0703 90.0378C 58.3694 89.1881 51.8572 87.8192 45.581 85.931L 32.2735 107.8809C 24.8647 105.2374 17.6919 102.0748 10.8966 98.3457L 18.3054 73.7996C 15.4269 72.1003 10 68.2767 10 68.2767L 51.8142 10Z"></path></g></g></g><g id="g-root-4.cu_sy_zlb8z81ucmpzf-fill" data-item-order="-82622" data-item-id="4.cu_sy_zlb8z81ucmpzf" data-item-class="ScenePart Part Indexed Fill Stroke ColorFillGray ColorStrokeGray" data-item-index="4" data-renderer-id="0" transform="translate(306.00006103515625, 133.1146240234375)"><g id="4.cu_sy_zlb8z81ucmpzf-fill" stroke="none" fill="#eaeaea"><g><path d="M 125.856 43.4676C 125.668 35.5374 124.865 27.7487 123.45 20.1489L 97.8257 19.5824C 97.0706 16.3253 96.1741 13.1155 95.1831 10L 27.461 31.9922C 28.97 36.6322 29.8323 41.5388 29.8323 46.6855C 29.8323 62.4988 21.991 76.4722 10 85.1122L 51.9102 143.162C 54.6 141.18 57.1954 139.15 59.6964 136.979L 80.7429 151.612C 86.4057 146.231 91.691 140.425 96.4571 134.194L 79.7049 114.793C 83.4801 109.3644 86.8305 103.6055 89.6618 97.5634L 114.861 102.3782C 117.834 95.2032 120.241 87.7922 122.081 80.0979L 98.9109 69.1466C 100.1379 62.7268 100.8458 56.1183 100.9402 49.3681L 125.903 43.5148L 125.856 43.4676Z"></path></g></g></g><g id="g-root-3.cu_sy_1cw5a9g1ucmrka-fill" data-item-order="-82620" data-item-id="3.cu_sy_1cw5a9g1ucmrka" data-item-class="ScenePart Part Indexed Fill Stroke" data-item-index="3" data-renderer-id="0" transform="translate(134, 133.1151123046875)"><g id="3.cu_sy_1cw5a9g1ucmrka-fill" stroke="none" fill="#fde6cf"><g><path d="M 108.512 31.9937C 106.9761 36.6353 106.1407 41.5702 106.1407 46.6919L 106.1677 46.6653C 106.1677 62.4839 114.009 76.4619 126 85.1047L 83.9932 143.115C 81.3034 141.18 78.708 139.103 76.207 136.931L 55.1603 151.565C 49.4504 146.183 44.2124 140.377 39.4463 134.146L 56.1985 114.746C 52.4233 109.3172 49.0729 103.5583 46.2416 97.5162L 21.0423 102.331C 18.0222 95.2032 15.6156 87.745 13.8223 80.0507L 36.9924 69.0994C 35.8127 62.6796 35.1048 56.0711 34.9632 49.3209L 10 43.4676C 10.1888 35.5374 10.9909 27.7487 12.4066 20.1489L 38.0305 19.5824C 38.7855 16.3253 39.6822 13.1627 40.6732 10L 108.512 31.9937Z"></path></g></g></g><g id="g-root-2.cu_sy_1cw5a9g1ucmrk9-fill" data-item-order="-82618" data-item-id="2.cu_sy_1cw5a9g1ucmrk9" data-item-class="ScenePart Part Indexed Fill Stroke" data-item-index="2" data-renderer-id="0" transform="translate(277.880859375, 27)"><g id="2.cu_sy_1cw5a9g1ucmrk9-fill" stroke="none" fill="#ffd0ce"><g><path d="M 10.1191 105.6758L 10.146 105.6758C 31.3808 105.6758 49.3713 119.66 55.5916 139L 123.302 116.115C 122.264 112.952 121.131 109.8364 119.857 106.7682L 140.243 91.2381C 136.893 84.1575 132.929 77.3601 128.493 70.9403L 104.8511 80.8532C 100.84 75.5663 96.3569 70.6099 91.5436 66.0783L 103.86 43.6092C 97.9613 38.5112 91.638 33.8852 84.9371 29.7785L 67.3825 48.4712C 61.5782 45.2614 55.5379 42.5707 49.2145 40.3994L 51.3381 14.8148C 43.9293 12.5962 36.2846 10.9913 28.4039 10L 19.9569 34.2156C 16.6537 33.9324 13.3505 33.7908 10 33.7908L 10.1191 105.6758Z"></path></g></g></g><g id="g-root-1.cu_sy_1lrsaic1ucmqrk-fill" data-item-order="-82616" data-item-id="1.cu_sy_1lrsaic1ucmqrk" data-item-class="ScenePart Part Indexed Indexed_1 Fill Stroke" data-item-index="1" data-renderer-id="0" transform="translate(147.68475341796875, 27)"><g id="1.cu_sy_1lrsaic1ucmqrk-fill" stroke="none" fill="#d5f7e8"><g><path d="M 140.243 33.7908L 140.315 105.6758L 140.288 105.6758C 119.054 105.6758 101.063 119.66 94.8427 139L 26.941 116.115C 27.932 112.952 29.1118 109.8364 30.3859 106.7682L 10 91.2381C 13.3977 84.1103 17.3143 77.3601 21.7502 70.9403L 45.3922 80.8532C 49.4033 75.5663 53.8863 70.6099 58.6997 66.0783L 46.3831 43.6092C 52.2818 38.5112 58.6053 33.8852 65.3062 29.7785L 82.8607 48.4712C 88.6178 45.3086 94.7052 42.6179 101.0286 40.3994L 98.9051 14.8148C 106.3139 12.6434 114.006 10.9913 121.839 10L 130.286 34.2156C 133.589 33.9796 136.893 33.7908 140.243 33.7908Z"></path></g></g></g><g id="g-root-tx_finance_1uoo8xg1ucmrda-fill" data-item-order="0" data-item-id="tx_finance_1uoo8xg1ucmrda" data-item-class="Label Stroke SceneTarget Indexed Indexed_1 ColorStrokeBlack" data-item-index="1" data-renderer-id="0" transform="translate(98, 2)"><g id="tx_finance_1uoo8xg1ucmrda-fill" stroke="none" fill="#484848"><g><text style="font: 20px &quot;Shantell Sans&quot;, cursive; white-space: pre;"><tspan x="17.78" y="35" dominant-baseline="ideographic">Finance</tspan></text></g></g></g><g id="g-root-tx_legal_1cz9np01ucmsqq-fill" data-item-order="0" data-item-id="tx_legal_1cz9np01ucmsqq" data-item-class="Label Stroke SceneTarget Indexed ColorStrokeBlack" data-item-index="2" data-renderer-id="0" transform="translate(374, 2)"><g id="tx_legal_1cz9np01ucmsqq-fill" stroke="none" fill="#484848"><g><text style="font: 20px &quot;Shantell Sans&quot;, cursive; white-space: pre;"><tspan x="12" y="35" dominant-baseline="ideographic">Legal</tspan></text></g></g></g><g id="g-root-doll_1qa32v81qr7i1b-fill" data-item-order="0" data-item-id="doll_1qa32v81qr7i1b" data-item-class="Icon Stroke SceneTarget Indexed Indexed_1 InsideFill" data-item-index="1" data-renderer-id="0" transform="translate(212, 80)"></g><g id="g-root-1_v7zn781ud27sz-fill" data-item-order="0" data-item-id="1_v7zn781ud27sz" data-item-class="Icon Stroke SceneTarget Indexed InsideFill" data-item-index="2" data-renderer-id="0" transform="translate(308, 80)"></g><g id="g-root-1_1lua6us1ud27sw-fill" data-item-order="0" data-item-id="1_1lua6us1ud27sw" data-item-class="Icon Stroke SceneTarget Indexed InsideFill" data-item-index="3" data-renderer-id="0" transform="translate(182, 176)"></g><g id="g-root-cava_znt5bo1ud270q-fill" data-item-order="0" data-item-id="cava_znt5bo1ud270q" data-item-class="Icon Stroke SceneTarget Indexed InsideFill InsideGrayFill ColorFillGray ColorStrokeGray" data-item-index="4" data-renderer-id="0" transform="translate(338, 176)"></g><g id="g-root-tx_humanres_zmk75g1ucms5j-fill" data-item-order="0" data-item-id="tx_humanres_zmk75g1ucms5j" data-item-class="Label Stroke SceneTarget Indexed ColorStrokeBlack" data-item-index="3" data-renderer-id="0" transform="translate(2, 194)"><g id="tx_humanres_zmk75g1ucms5j-fill" stroke="none" fill="#484848"><g><text style="font: 20px &quot;Shantell Sans&quot;, cursive; white-space: pre;"><tspan x="48.11" y="35" dominant-baseline="ideographic">Human </tspan><tspan x="19.57" y="59" dominant-baseline="ideographic">Resources</tspan></text></g></g></g><g id="g-root-tx_military_1hf35tg1ucmryh-fill" data-item-order="0" data-item-id="tx_military_1hf35tg1ucmryh" data-item-class="Label Stroke SceneTarget Indexed ColorStrokeBlack" data-item-index="4" data-renderer-id="0" transform="translate(446, 206)"><g id="tx_military_1hf35tg1ucmryh-fill" stroke="none" fill="#484848"><g><text style="font: 20px &quot;Shantell Sans&quot;, cursive; white-space: pre;"><tspan x="12" y="35" dominant-baseline="ideographic">Military</tspan></text></g></g></g><g id="g-root-1_1cyn6lw1ud28ll-fill" data-item-order="0" data-item-id="1_1cyn6lw1ud28ll" data-item-class="Icon Stroke SceneTarget Indexed InsideFill" data-item-index="5" data-renderer-id="0" transform="translate(260, 236)"></g><g id="g-root-tx_startups_1uqjo6s1ucmqdk-fill" data-item-order="0" data-item-id="tx_startups_1uqjo6s1ucmqdk" data-item-class="Label Stroke SceneTarget Indexed ColorStrokeBlack" data-item-index="5" data-renderer-id="0" transform="translate(230, 338)"><g id="tx_startups_1uqjo6s1ucmqdk-fill" stroke="none" fill="#484848"><g><text style="font: 20px &quot;Shantell Sans&quot;, cursive; white-space: pre;"><tspan x="17.49" y="35" dominant-baseline="ideographic">Startups</tspan></text></g></g></g><g id="g-root-5.cu_sy_v5hqus1ucmqro-stroke" data-item-order="-82624" data-item-id="5.cu_sy_v5hqus1ucmqro" data-item-class="ScenePart Part Indexed Fill Stroke" data-item-index="5" data-renderer-id="0" transform="translate(207.94583129882812, 208.00006103515625)"><g id="5.cu_sy_v5hqus1ucmqro-stroke" fill="none" stroke-linecap="round" stroke-linejoin="round" stroke-miterlimit="4" stroke="#e3cd09" stroke-width="2"><g><path d="M 51.8142 10C 59.5542 15.5 69.4811 19.1285 80.0543 19.1285C 90.6274 19.1285 100.3644 15.712 108.2943 10L 149.9643 68.2767C 147.2745 70.2121 144.4902 72.0531 141.6589 73.7996L 149.0677 98.3457C 142.2724 102.0748 135.0996 105.2847 127.6908 107.8809L 114.3833 85.931C 108.0599 87.8192 101.5477 89.1881 94.894 90.0378L 91.6852 115.4807C 87.8156 115.8111 83.899 116 79.9822 116C 76.0655 116 72.1487 115.8111 68.2792 115.4807L 65.0703 90.0378C 58.3694 89.1881 51.8572 87.8192 45.581 85.931L 32.2735 107.8809C 24.8647 105.2374 17.6919 102.0748 10.8966 98.3457L 18.3054 73.7996C 15.4268 72.1003 10 68.2767 10 68.2767L 51.8142 10Z"></path></g></g></g><g id="g-root-4.cu_sy_zlb8z81ucmpzf-stroke" data-item-order="-82622" data-item-id="4.cu_sy_zlb8z81ucmpzf" data-item-class="ScenePart Part Indexed Fill Stroke ColorFillGray ColorStrokeGray" data-item-index="4" data-renderer-id="0" transform="translate(306.00006103515625, 133.1146240234375)"><g id="4.cu_sy_zlb8z81ucmpzf-stroke" fill="none" stroke-linecap="round" stroke-linejoin="round" stroke-miterlimit="4" stroke="#888888" stroke-width="2"><g><path d="M 125.8563 43.4676C 125.6675 35.5374 124.8653 27.7487 123.4496 20.1489L 97.8257 19.5824C 97.0706 16.3253 96.1741 13.1155 95.1831 10L 27.461 31.9922C 28.97 36.6322 29.8323 41.5388 29.8323 46.6855C 29.8323 62.4988 21.991 76.4722 10 85.1122L 51.9102 143.1624C 54.6 141.1799 57.1954 139.1501 59.6964 136.9787L 80.7429 151.6119C 86.4057 146.2307 91.691 140.4246 96.4571 134.1937L 79.7049 114.7928C 83.4801 109.3644 86.8305 103.6055 89.6618 97.5634L 114.861 102.3782C 117.834 95.2032 120.2407 87.7922 122.081 80.0979L 98.9109 69.1466C 100.1379 62.7268 100.8458 56.1183 100.9402 49.3681L 125.9034 43.5148L 125.8563 43.4676Z"></path></g></g></g><g id="g-root-3.cu_sy_1cw5a9g1ucmrka-stroke" data-item-order="-82620" data-item-id="3.cu_sy_1cw5a9g1ucmrka" data-item-class="ScenePart Part Indexed Fill Stroke" data-item-index="3" data-renderer-id="0" transform="translate(134, 133.1151123046875)"><g id="3.cu_sy_1cw5a9g1ucmrka-stroke" fill="none" stroke-linecap="round" stroke-linejoin="round" stroke-miterlimit="4" stroke="#dd8433" stroke-width="2"><g><path d="M 108.512 31.9937C 106.9761 36.6353 106.1407 41.5702 106.1407 46.6919L 106.1677 46.6653C 106.1677 62.4839 114.009 76.4619 126 85.1047L 83.9932 143.1152C 81.3034 141.1798 78.708 139.1029 76.207 136.9315L 55.1603 151.5647C 49.4504 146.1835 44.2124 140.3774 39.4463 134.1465L 56.1985 114.7456C 52.4233 109.3172 49.0729 103.5583 46.2416 97.5162L 21.0423 102.331C 18.0222 95.2032 15.6155 87.745 13.8223 80.0507L 36.9924 69.0994C 35.8127 62.6796 35.1048 56.0711 34.9632 49.3209L 10 43.4676C 10.1888 35.5374 10.9909 27.7487 12.4066 20.1489L 38.0305 19.5824C 38.7855 16.3253 39.6822 13.1627 40.6732 10L 108.512 31.9937Z"></path></g></g></g><g id="g-root-2.cu_sy_1cw5a9g1ucmrk9-stroke" data-item-order="-82618" data-item-id="2.cu_sy_1cw5a9g1ucmrk9" data-item-class="ScenePart Part Indexed Fill Stroke" data-item-index="2" data-renderer-id="0" transform="translate(277.880859375, 27)"><g id="2.cu_sy_1cw5a9g1ucmrk9-stroke" fill="none" stroke-linecap="round" stroke-linejoin="round" stroke-miterlimit="4" stroke="#e15e5a" stroke-width="2"><g><path d="M 10.1191 105.6758L 10.146 105.6758C 31.3808 105.6758 49.3713 119.6601 55.5916 139L 123.3022 116.1145C 122.264 112.9519 121.1314 109.8364 119.8573 106.7682L 140.2433 91.2381C 136.8928 84.1575 132.9288 77.3601 128.493 70.9403L 104.8511 80.8532C 100.84 75.5663 96.3569 70.6099 91.5436 66.0783L 103.86 43.6092C 97.9613 38.5112 91.638 33.8852 84.9371 29.7785L 67.3825 48.4712C 61.5782 45.2614 55.5379 42.5707 49.2145 40.3994L 51.3381 14.8148C 43.9293 12.5962 36.2846 10.9913 28.4039 10L 19.9569 34.2156C 16.6537 33.9324 13.3505 33.7908 10 33.7908L 10.1191 105.6758Z"></path></g></g></g><g id="g-root-1.cu_sy_1lrsaic1ucmqrk-stroke" data-item-order="-82616" data-item-id="1.cu_sy_1lrsaic1ucmqrk" data-item-class="ScenePart Part Indexed Indexed_1 Fill Stroke" data-item-index="1" data-renderer-id="0" transform="translate(147.68475341796875, 27)"><g id="1.cu_sy_1lrsaic1ucmqrk-stroke" fill="none" stroke-linecap="round" stroke-linejoin="round" stroke-miterlimit="4" stroke="#3bc482" stroke-width="2"><g><path d="M 140.2433 33.7908L 140.3152 105.6758L 140.2883 105.6758C 119.0536 105.6758 101.063 119.6601 94.8427 139L 26.941 116.1145C 27.932 112.9519 29.1118 109.8364 30.3859 106.7682L 10 91.2381C 13.3976 84.1103 17.3143 77.3601 21.7502 70.9403L 45.3922 80.8532C 49.4033 75.5663 53.8863 70.6099 58.6997 66.0783L 46.3831 43.6092C 52.2818 38.5112 58.6053 33.8852 65.3062 29.7785L 82.8607 48.4712C 88.6178 45.3086 94.7052 42.6179 101.0286 40.3994L 98.9051 14.8148C 106.3139 12.6434 114.0057 10.9913 121.8392 10L 130.2862 34.2156C 133.5894 33.9796 136.8928 33.7908 140.2433 33.7908Z"></path></g></g></g><g id="g-root-tx_finance_1uoo8xg1ucmrda-stroke" data-item-order="0" data-item-id="tx_finance_1uoo8xg1ucmrda" data-item-class="Label Stroke SceneTarget Indexed Indexed_1 ColorStrokeBlack" data-item-index="1" data-renderer-id="0" transform="translate(98, 2)"></g><g id="g-root-tx_legal_1cz9np01ucmsqq-stroke" data-item-order="0" data-item-id="tx_legal_1cz9np01ucmsqq" data-item-class="Label Stroke SceneTarget Indexed ColorStrokeBlack" data-item-index="2" data-renderer-id="0" transform="translate(374, 2)"></g><g id="g-root-doll_1qa32v81qr7i1b-stroke" data-item-order="0" data-item-id="doll_1qa32v81qr7i1b" data-item-class="Icon Stroke SceneTarget Indexed Indexed_1 InsideFill" data-item-index="1" data-renderer-id="0" transform="translate(212, 80)"><g id="doll_1qa32v81qr7i1b-stroke" fill="none" stroke-linecap="round" stroke-linejoin="round" stroke-miterlimit="4" stroke="#3bc482" stroke-width="2"><g><path d="M 28 28.494999L 28 26.244999M 31.75 28.494999L 26.26 28.494999C 25.149908 28.494999 24.25 29.394907 24.25 30.505001C 24.243561 31.326326 24.744869 32.066353 25.51 32.365002L 30.49 33.610001C 31.397802 33.960388 31.924244 34.910732 31.739798 35.866169C 31.555351 36.821602 30.712992 37.507698 29.74 37.494999L 24.25 37.494999M 28 39.744999L 28 37.494999M 22.75 19.494999L 33.25 19.494999M 31 19.494999C 31.375746 19.490196 31.689938 19.208065 31.735001 18.834999C 32.059212 16.871145 32.670769 14.965717 33.550003 13.18C 33.698479 12.901314 33.656502 12.559478 33.445 12.325C 33.230465 12.083727 32.883602 12.010703 32.59 12.145L 29.440001 13.495L 28.705 11.5C 28.591862 11.21374 28.315306 11.02567 28.0075 11.02567C 27.699694 11.02567 27.423138 11.21374 27.309999 11.5L 26.5 13.495L 23.365 12.145C 23.0714 12.010703 22.724533 12.083727 22.51 12.325C 22.2985 12.559478 22.256519 12.901314 22.405001 13.18C 23.284237 14.965717 23.895792 16.871145 24.220001 18.835001C 24.265062 19.208065 24.579254 19.490196 24.955 19.494999M 31 19.494999C 31 19.494999 41.5 27.744999 41.5 34.959999C 41.5 42.459999 35.5 44.994999 28 44.994999C 20.5 44.994999 14.5 42.415001 14.5 34.959999C 14.5 27.744999 25 19.494999 25 19.494999"></path></g></g></g><g id="g-root-1_v7zn781ud27sz-stroke" data-item-order="0" data-item-id="1_v7zn781ud27sz" data-item-class="Icon Stroke SceneTarget Indexed InsideFill" data-item-index="2" data-renderer-id="0" transform="translate(308, 80)"><g id="1_v7zn781ud27sz-stroke" fill="none" stroke-linecap="round" stroke-linejoin="round" stroke-miterlimit="4" stroke="#e15e5a" stroke-width="2"><g><path d="M 12.25 40.75L 22.75 40.75C 23.578428 40.75 24.25 41.421574 24.25 42.25L 24.25 44.5C 24.25 44.914215 23.914213 45.25 23.5 45.25L 11.5 45.25C 11.085787 45.25 10.75 44.914215 10.75 44.5L 10.75 42.25C 10.75 41.421574 11.421573 40.75 12.25 40.75ZM 19.376499 25.088501C 18.644171 24.356171 18.644171 23.168829 19.376499 22.436501C 20.108829 21.70417 21.296171 21.70417 22.0285 22.436501L 28.928501 29.3365C 29.66083 30.06883 29.66083 31.25617 28.928499 31.988499C 28.196171 32.720829 27.008831 32.720829 26.276501 31.988499ZM 30.514 13.951C 29.78167 13.218671 29.78167 12.031329 30.514 11.299C 31.24633 10.56667 32.43367 10.56667 33.166 11.299L 40.066002 18.198999C 40.796417 18.933029 40.79361 20.120163 40.059731 20.850729C 39.325848 21.581297 38.138718 21.578732 37.407997 20.844999ZM 22.294041 22.699945L 30.779322 14.214664L 37.143284 20.578625L 28.658001 29.063904ZM 31.84 25.883499L 41.386002 36.489998C 42.268852 37.34269 43.672195 37.330498 44.540092 36.462593C 45.407997 35.594696 45.420189 34.191353 44.567501 33.308502L 33.960999 23.762501"></path></g></g></g><g id="g-root-1_1lua6us1ud27sw-stroke" data-item-order="0" data-item-id="1_1lua6us1ud27sw" data-item-class="Icon Stroke SceneTarget Indexed InsideFill" data-item-index="3" data-renderer-id="0" transform="translate(182, 176)"><g id="1_1lua6us1ud27sw-stroke" fill="none" stroke-linecap="round" stroke-linejoin="round" stroke-miterlimit="4" stroke="#dd8433" stroke-width="2"><g><path d="M 33.25 40L 29.5 40C 29.085787 40 28.75 39.664215 28.75 39.25L 28.75 16.75C 28.75 16.335787 29.085787 16 29.5 16L 33.25 16M 24.25 28L 28.75 28M 37.375 14.125C 37.375 15.574747 38.550255 16.75 40 16.75C 41.449749 16.75 42.625 15.574747 42.625 14.125C 42.625 12.675253 41.449749 11.5 40 11.5C 38.550255 11.5 37.375 12.675253 37.375 14.125ZM 45.25 22C 44.638042 19.600138 42.476658 17.92074 40 17.92074C 37.523342 17.92074 35.361961 19.600138 34.75 22ZM 37.375 36.625C 37.375 38.074749 38.550255 39.25 40 39.25C 41.449749 39.25 42.625 38.074749 42.625 36.625C 42.625 35.175255 41.449749 34 40 34C 38.550255 34 37.375 35.175255 37.375 36.625ZM 45.25 44.5C 44.638042 42.100136 42.476658 40.420738 40 40.420738C 37.523342 40.420738 35.361961 42.100136 34.75 44.5ZM 10.75 35.5C 10.75 31.772079 13.772079 28.75 17.5 28.75C 21.227922 28.75 24.25 31.772079 24.25 35.5ZM 13.375 23.125C 13.375 25.403175 15.221826 27.25 17.5 27.25C 19.778175 27.25 21.625 25.403175 21.625 23.125C 21.625 20.846827 19.778175 19 17.5 19C 15.221826 19 13.375 20.846827 13.375 23.125Z"></path></g></g></g><g id="g-root-cava_znt5bo1ud270q-stroke" data-item-order="0" data-item-id="cava_znt5bo1ud270q" data-item-class="Icon Stroke SceneTarget Indexed InsideFill InsideGrayFill ColorFillGray ColorStrokeGray" data-item-index="4" data-renderer-id="0" transform="translate(338, 176)"><g id="cava_znt5bo1ud270q-stroke" fill="none" stroke-linecap="round" stroke-linejoin="round" stroke-miterlimit="4" stroke="#888888" stroke-width="2"><g><path d="M 12.25 16.75L 43.75 16.75C 43.75 16.75 45.25 16.75 45.25 18.25L 45.25 37.75C 45.25 37.75 45.25 39.25 43.75 39.25L 12.25 39.25C 12.25 39.25 10.75 39.25 10.75 37.75L 10.75 18.25C 10.75 18.25 10.75 16.75 12.25 16.75M 44.713001 38.900501L 11.287 17.099499M 44.713001 17.099499L 11.287 38.900501M 32.5 34.75C 36.227921 34.75 39.25 31.727921 39.25 28C 39.25 24.272079 36.227921 21.25 32.5 21.25L 23.5 21.25C 19.772078 21.25 16.75 24.272079 16.75 28C 16.75 31.727921 19.772078 34.75 23.5 34.75Z"></path></g></g></g><g id="g-root-tx_humanres_zmk75g1ucms5j-stroke" data-item-order="0" data-item-id="tx_humanres_zmk75g1ucms5j" data-item-class="Label Stroke SceneTarget Indexed ColorStrokeBlack" data-item-index="3" data-renderer-id="0" transform="translate(2, 194)"></g><g id="g-root-tx_military_1hf35tg1ucmryh-stroke" data-item-order="0" data-item-id="tx_military_1hf35tg1ucmryh" data-item-class="Label Stroke SceneTarget Indexed ColorStrokeBlack" data-item-index="4" data-renderer-id="0" transform="translate(446, 206)"></g><g id="g-root-1_1cyn6lw1ud28ll-stroke" data-item-order="0" data-item-id="1_1cyn6lw1ud28ll" data-item-class="Icon Stroke SceneTarget Indexed InsideFill" data-item-index="5" data-renderer-id="0" transform="translate(260, 236)"><g id="1_1cyn6lw1ud28ll-stroke" fill="none" stroke-linecap="round" stroke-linejoin="round" stroke-miterlimit="4" stroke="#e3cd09" stroke-width="2"><g><path d="M 25.75 40.75L 30.25 40.75M 25.75 43.75L 30.25 43.75M 28 43.75L 28 45.25M 36.803497 28.066C 36.664642 23.340479 32.725765 19.619719 28 19.75C 23.273916 19.618883 19.334539 23.340113 19.196499 28.066C 19.357193 31.89069 22.030041 35.147171 25.75 36.050499L 25.75 37.75L 30.25 37.75L 30.25 36.050499C 33.969959 35.147171 36.642807 31.89069 36.803497 28.066ZM 20.818001 39.884499L 19 40.75C 17.924419 41.265686 16.640493 41.046398 15.797047 40.202953C 14.953599 39.359505 14.734312 38.075577 15.25 36.999996L 16.114 35.1805C 16.455843 34.461967 16.477148 33.632221 16.172632 32.897091C 15.868115 32.161961 15.266308 31.590328 14.5165 31.323999L 12.619 30.649C 11.496955 30.250751 10.747248 29.189127 10.747248 27.998501C 10.747248 26.807877 11.496955 25.74625 12.619 25.348L 14.5165 24.673C 15.266177 24.406929 15.868019 23.83568 16.1728 23.100887C 16.477581 22.366096 16.45676 21.536575 16.115499 20.817999L 15.25 19C 14.734312 17.924419 14.953599 16.640493 15.797047 15.797047C 16.640493 14.953599 17.924419 14.734312 19 15.25L 20.8195 16.114C 21.537682 16.455389 22.366858 16.476627 23.101576 16.172447C 23.836292 15.868269 24.407803 15.267138 24.6745 14.518L 25.349499 12.6205C 25.747751 11.498455 26.809376 10.748747 28.000002 10.748747C 29.190626 10.748747 30.252251 11.498455 30.650501 12.620501L 31.3255 14.518C 31.591829 15.267808 32.163464 15.869616 32.89859 16.174131C 33.63372 16.478649 34.463467 16.457342 35.181999 16.115499L 37 15.25C 38.075577 14.734312 39.359505 14.953599 40.202953 15.797047C 41.046398 16.640493 41.265686 17.924419 40.749996 19L 39.886002 20.8195C 39.544155 21.538031 39.52285 22.367779 39.827366 23.102907C 40.131882 23.838037 40.733688 24.409668 41.483498 24.675999L 43.381001 25.351C 44.503048 25.74925 45.252754 26.810875 45.252754 28.001501C 45.252754 29.192127 44.503048 30.25375 43.381004 30.652L 41.483501 31.327C 40.733688 31.59333 40.131882 32.164963 39.827366 32.900089C 39.52285 33.63522 39.544155 34.464966 39.886002 35.183498L 40.75 37C 41.265686 38.075577 41.046398 39.359505 40.202953 40.202953C 39.359505 41.046398 38.075577 41.265686 36.999996 40.749996L 35.1805 39.886002"></path></g></g></g><g id="g-root-tx_startups_1uqjo6s1ucmqdk-stroke" data-item-order="0" data-item-id="tx_startups_1uqjo6s1ucmqdk" data-item-class="Label Stroke SceneTarget Indexed ColorStrokeBlack" data-item-index="5" data-renderer-id="0" transform="translate(230, 338)"></g></g></g></svg>