<?xml version="1.0" encoding="utf-8" standalone="yes"?>
<!DOCTYPE svg PUBLIC "-//W3C//DTD SVG 1.1//EN" "http://www.w3.org/Graphics/SVG/1.1/DTD/svg11.dtd">
<svg width="578" height="326" viewBox="0 0 578 326" style="fill:none;stroke:none;fill-rule:evenodd;clip-rule:evenodd;stroke-linecap:round;stroke-linejoin:round;stroke-miterlimit:1.5;" version="1.1" xmlns="http://www.w3.org/2000/svg" xmlns:xlink="http://www.w3.org/1999/xlink"><style id="fontImports">@import url("https://fonts.googleapis.com/css2?family=Roboto:wght@400;700&amp;display=block");</style><rect id="" x="0" y="0" width="578" height="326" style="fill: #ffffff;"></rect><g id="items" style="isolation: isolate"><g id="blend" style="mix-blend-mode:multiply"><g id="g-root-4.cu_sy_zqaipw1sz5o24-fill" data-item-order="-92731" data-item-id="4.cu_sy_zqaipw1sz5o24" data-item-class="ScenePart Part Indexed Stroke ColorFillGray ColorStrokeGray" data-item-index="4" data-renderer-id="0" transform="translate(110.95700073242188, 171.75)"></g><g id="g-root-3.Exclude_sy_18lxiys1sz5n9f-fill" data-item-order="-92730" data-item-id="3.Exclude_sy_18lxiys1sz5n9f" data-item-class="ScenePart Part Indexed Fill Stroke ColorFillGray ColorStrokeGray" data-item-index="3" data-renderer-id="0" transform="translate(231.5980224609375, 185)"><g id="3.Exclude_sy_18lxiys1sz5n9f-fill" stroke="none" fill="none"><g><path d="M 57.401993 10C 49.928993 10 43.652993 15.122 41.893993 22.047L 10.591993 124.12C 9.999993 126.049 11.441993 128 13.459993 128L 101.343993 128C 103.360993 128 104.803993 126.049 104.211993 124.12L 72.911993 22.054C 71.153993 15.126 64.876993 10 57.401993 10ZM 57.401993 33C 61.267993 33 64.401993 29.866 64.401993 26C 64.401993 22.134 61.267993 19 57.401993 19C 53.535993 19 50.401993 22.134 50.401993 26C 50.401993 29.866 53.535993 33 57.401993 33Z"></path></g></g></g><g id="g-root-2.right-bucket_sy_18lxiys1sz5n9e-fill" data-item-order="-92728" data-item-id="2.right-bucket_sy_18lxiys1sz5n9e" data-item-class="ScenePart Part Indexed Fill Stroke ColorFillGray" data-item-index="2" data-renderer-id="0" transform="translate(327, 135)"><g id="2.right-bucket_sy_18lxiys1sz5n9e-fill" stroke="none" fill="none"><g><path d="M 11.081 15.729C 10.338 14.904 10 13.826 10 12.716L 10 12.716C 10 11.216 11.216 10 12.716 10L 235.284 10C 236.784 10 238 11.216 238 12.716L 238 12.716C 238 13.826 237.662 14.904 236.919 15.729C 231.551 21.692 204.717 46 124 46C 43.283 46 16.449 21.692 11.081 15.729Z"></path></g></g></g><g id="g-root-1.left-bucket_sy_1d1r1381sz5mh5-fill" data-item-order="-92726" data-item-id="1.left-bucket_sy_1d1r1381sz5mh5" data-item-class="ScenePart Part Indexed Indexed_1 Fill Stroke ColorFillGray" data-item-index="1" data-renderer-id="0" transform="translate(3, 135)"><g id="1.left-bucket_sy_1d1r1381sz5mh5-fill" stroke="none" fill="none"><g><path d="M 11.0812 15.729C 10.3384 14.904 10 13.826 10 12.716L 10 12.716C 10 11.216 11.2158 10 12.7157 10L 235.284 10C 236.784 10 238 11.216 238 12.716L 238 12.716C 238 13.826 237.662 14.904 236.919 15.729C 231.551 21.692 204.717 46 124 46C 43.2826 46 16.4488 21.692 11.0812 15.729Z"></path></g></g></g><g id="g-root-netw_djtkck1syszrb-fill" data-item-order="0" data-item-id="netw_djtkck1syszrb" data-item-class="Icon Stroke SceneTarget Indexed ColorStrokeBlack" data-item-index="2" data-renderer-id="0" transform="translate(15, 3)"></g><g id="g-root-tx_complexm_147zg3o1sz5ma6-fill" data-item-order="0" data-item-id="tx_complexm_147zg3o1sz5ma6" data-item-class="Label Stroke SceneTarget Indexed ColorStrokeBlack" data-item-index="2" data-renderer-id="0" transform="translate(75, 15)"><g id="tx_complexm_147zg3o1sz5ma6-fill" stroke="none" fill="#484848"><g><text style="font: 20px Roboto, sans-serif; white-space: pre;"><tspan x="12" y="33.75" dominant-baseline="ideographic">Complex Models</tspan></text></g></g></g><g id="g-root-1_1uua2x01sysyrl-fill" data-item-order="0" data-item-id="1_1uua2x01sysyrl" data-item-class="Icon Stroke SceneTarget Indexed ColorStrokeBlack" data-item-index="5" data-renderer-id="0" transform="translate(339, 3)"></g><g id="g-root-tx_simplerm_mgpflw1sz5onc-fill" data-item-order="0" data-item-id="tx_simplerm_mgpflw1sz5onc" data-item-class="Label Stroke SceneTarget Indexed ColorStrokeBlack" data-item-index="5" data-renderer-id="0" transform="translate(399, 15)"><g id="tx_simplerm_mgpflw1sz5onc-fill" stroke="none" fill="#484848"><g><text style="font: 20px Roboto, sans-serif; white-space: pre;"><tspan x="12" y="33.75" dominant-baseline="ideographic">Simpler Models</tspan></text></g></g></g><g id="g-root-1_hzn2h01sysyz2-fill" data-item-order="0" data-item-id="1_hzn2h01sysyz2" data-item-class="Icon Stroke SceneTarget Indexed ColorStrokeBlack" data-item-index="3" data-renderer-id="0" transform="translate(15, 75)"></g><g id="g-root-tx_highaccu_1uu9zr81sz5ma5-fill" data-item-order="0" data-item-id="tx_highaccu_1uu9zr81sz5ma5" data-item-class="Label Stroke SceneTarget Indexed ColorStrokeBlack" data-item-index="3" data-renderer-id="0" transform="translate(75, 87)"><g id="tx_highaccu_1uu9zr81sz5ma5-fill" stroke="none" fill="#484848"><g><text style="font: 20px Roboto, sans-serif; white-space: pre;"><tspan x="12" y="33.75" dominant-baseline="ideographic">High Accuracy</tspan></text></g></g></g><g id="g-root-imag_8d1z81syt1c8-fill" data-item-order="0" data-item-id="imag_8d1z81syt1c8" data-item-class="Icon Stroke SceneTarget Indexed ColorStrokeBlack" data-item-index="6" data-renderer-id="0" transform="translate(339, 75)"></g><g id="g-root-tx_simplici_zs5xz81sz5n2f-fill" data-item-order="0" data-item-id="tx_simplici_zs5xz81sz5n2f" data-item-class="Label Stroke SceneTarget Indexed ColorStrokeBlack" data-item-index="6" data-renderer-id="0" transform="translate(399, 87)"><g id="tx_simplici_zs5xz81sz5n2f-fill" stroke="none" fill="#484848"><g><text style="font: 20px Roboto, sans-serif; white-space: pre;"><tspan x="12" y="33.75" dominant-baseline="ideographic">Simplicity</tspan></text></g></g></g><g id="g-root-tx_posthocm_hrit6s1sz70u9-fill" data-item-order="0" data-item-id="tx_posthocm_hrit6s1sz70u9" data-item-class="Label Stroke SceneTarget Indexed ColorStrokeBlack" data-item-index="none" data-renderer-id="0" transform="translate(27, 243)"><g id="tx_posthocm_hrit6s1sz70u9-fill" stroke="none" fill="#484848"><g><text style="font: 20px Roboto, sans-serif; white-space: pre;"><tspan x="17.3" y="33.75" dominant-baseline="ideographic">Post Hoc Methods</tspan></text></g></g></g><g id="g-root-tx_inherent_4g2atg1sz72f6-fill" data-item-order="0" data-item-id="tx_inherent_4g2atg1sz72f6" data-item-class="Label Stroke SceneTarget Indexed ColorStrokeBlack" data-item-index="none" data-renderer-id="0" transform="translate(345, 231)"><g id="tx_inherent_4g2atg1sz72f6-fill" stroke="none" fill="#484848"><g><text style="font: 20px Roboto, sans-serif; white-space: pre;"><tspan x="62.43" y="33.75" dominant-baseline="ideographic">Inherently </tspan><tspan x="14.14" y="57.75" dominant-baseline="ideographic">Interpretable Models</tspan></text></g></g></g><g id="g-root-4.cu_sy_zqaipw1sz5o24-stroke" data-item-order="-92731" data-item-id="4.cu_sy_zqaipw1sz5o24" data-item-class="ScenePart Part Indexed Stroke ColorFillGray ColorStrokeGray" data-item-index="4" data-renderer-id="0" transform="translate(110.95700073242188, 171.75)"><g id="4.cu_sy_zqaipw1sz5o24-stroke" fill="none" stroke-linecap="round" stroke-linejoin="round" stroke-miterlimit="4" stroke="#888888" stroke-width="2"><g><path d="M 340.042999 45.25C 343.356999 45.25 346.042999 42.564 346.042999 39.25C 346.042999 35.936 343.356999 33.25 340.042999 33.25C 336.728999 33.25 334.042999 35.936 334.042999 39.25C 334.042999 42.564 336.728999 45.25 340.042999 45.25ZM 16.021999 45.25C 19.346999 45.25 22.042999 42.564 22.042999 39.25C 22.042999 35.936 19.346999 33.25 16.021999 33.25C 12.695999 33.25 9.999999 35.936 9.999999 39.25C 9.999999 42.564 12.695999 45.25 16.021999 45.25ZM 340.042999 33.25L 340.042999 10M 16.042999 10.25L 16.042999 33.25M 334.057999 39.275L 195.042999 39.275M 161.042999 39.275L 22.042999 39.275"></path></g></g></g><g id="g-root-3.Exclude_sy_18lxiys1sz5n9f-stroke" data-item-order="-92730" data-item-id="3.Exclude_sy_18lxiys1sz5n9f" data-item-class="ScenePart Part Indexed Fill Stroke ColorFillGray ColorStrokeGray" data-item-index="3" data-renderer-id="0" transform="translate(231.5980224609375, 185)"><g id="3.Exclude_sy_18lxiys1sz5n9f-stroke" fill="none" stroke-linecap="round" stroke-linejoin="round" stroke-miterlimit="4" stroke="#888888" stroke-width="2"><g><path d="M 57.401993 10C 49.928993 10 43.652993 15.122 41.893993 22.047L 10.591993 124.12C 9.999993 126.049 11.441993 128 13.459993 128L 101.343993 128C 103.360993 128 104.803993 126.049 104.211993 124.12L 72.911993 22.054C 71.153993 15.126 64.876993 10 57.401993 10ZM 57.401993 33C 61.267993 33 64.401993 29.866 64.401993 26C 64.401993 22.134 61.267993 19 57.401993 19C 53.535993 19 50.401993 22.134 50.401993 26C 50.401993 29.866 53.535993 33 57.401993 33Z"></path></g></g></g><g id="g-root-2.right-bucket_sy_18lxiys1sz5n9e-stroke" data-item-order="-92728" data-item-id="2.right-bucket_sy_18lxiys1sz5n9e" data-item-class="ScenePart Part Indexed Fill Stroke ColorFillGray" data-item-index="2" data-renderer-id="0" transform="translate(327, 135)"><g id="2.right-bucket_sy_18lxiys1sz5n9e-stroke" fill="none" stroke-linecap="round" stroke-linejoin="round" stroke-miterlimit="4" stroke="#93c131" stroke-width="2"><g><path d="M 11.081 15.729C 10.338 14.904 10 13.826 10 12.716L 10 12.716C 10 11.216 11.216 10 12.716 10L 235.284 10C 236.784 10 238 11.216 238 12.716L 238 12.716C 238 13.826 237.662 14.904 236.919 15.729C 231.551 21.692 204.717 46 124 46C 43.283 46 16.449 21.692 11.081 15.729Z"></path></g></g></g><g id="g-root-1.left-bucket_sy_1d1r1381sz5mh5-stroke" data-item-order="-92726" data-item-id="1.left-bucket_sy_1d1r1381sz5mh5" data-item-class="ScenePart Part Indexed Indexed_1 Fill Stroke ColorFillGray" data-item-index="1" data-renderer-id="0" transform="translate(3, 135)"><g id="1.left-bucket_sy_1d1r1381sz5mh5-stroke" fill="none" stroke-linecap="round" stroke-linejoin="round" stroke-miterlimit="4" stroke="#17b0e3" stroke-width="2"><g><path d="M 11.0812 15.729C 10.3384 14.904 10 13.826 10 12.716L 10 12.716C 10 11.216 11.2158 10 12.7157 10L 235.284 10C 236.784 10 238 11.216 238 12.716L 238 12.716C 238 13.826 237.662 14.904 236.919 15.729C 231.551 21.692 204.717 46 124 46C 43.2826 46 16.4488 21.692 11.0812 15.729Z"></path></g></g></g><g id="g-root-netw_djtkck1syszrb-stroke" data-item-order="0" data-item-id="netw_djtkck1syszrb" data-item-class="Icon Stroke SceneTarget Indexed ColorStrokeBlack" data-item-index="2" data-renderer-id="0" transform="translate(15, 3)"><g id="netw_djtkck1syszrb-stroke" fill="none" stroke-linecap="round" stroke-linejoin="round" stroke-miterlimit="4" stroke="#484848" stroke-width="2"><g><path d="M 47 23.952C 47.003315 31.154898 41.166897 36.996689 33.963997 37C 26.729639 36.879482 20.944117 30.951151 21 23.716C 21.002792 16.80257 26.53013 11.158839 33.442001 11.012C 33.629997 11 33.816002 11 34 11C 37.445663 10.979729 40.756763 12.336256 43.197762 14.768242C 45.63876 17.200226 47.007526 20.506283 47 23.952ZM 33.442001 11.012C 26.658001 18.360001 26.658001 27.945999 33.442001 36.989998M 34.57 11.012C 41.354 18.360001 41.354 27.944 34.57 36.986M 23.147999 31L 44.936001 31M 22.906 17L 44.992001 17M 21 24L 47 24M 29.472 46.700001C 29.472 49.295738 31.576262 51.399998 34.171997 51.399998C 36.767738 51.399998 38.872002 49.295738 38.872002 46.700001C 38.872002 44.104259 36.767738 42 34.171997 42C 31.576262 42 29.472 44.104259 29.472 46.700001ZM 14.688 46.700001C 14.688 49.295738 16.792261 51.399998 19.388 51.399998C 21.983738 51.399998 24.087999 49.295738 24.087999 46.700001C 24.087999 44.104259 21.983738 42 19.388 42C 16.792261 42 14.688 44.104259 14.688 46.700001ZM 43.928001 46.700001C 43.927998 49.295738 46.032261 51.399998 48.627998 51.399998C 51.223736 51.399998 53.327999 49.295738 53.327999 46.700001C 53.327999 44.104259 51.223736 42 48.627998 42C 46.032261 42 43.927998 44.104259 43.927998 46.700001ZM 56 57C 54.222012 54.794235 51.541138 53.511814 48.708 53.511814C 45.874866 53.511814 43.193989 54.794235 41.416 57C 39.57724 54.804314 36.863907 53.531067 34 53.52M 12 57C 13.777988 54.794235 16.458866 53.511814 19.292 53.511814C 22.125135 53.511814 24.806011 54.794235 26.584002 57C 28.422762 54.804314 31.136093 53.531067 34 53.52"></path></g></g></g><g id="g-root-tx_complexm_147zg3o1sz5ma6-stroke" data-item-order="0" data-item-id="tx_complexm_147zg3o1sz5ma6" data-item-class="Label Stroke SceneTarget Indexed ColorStrokeBlack" data-item-index="2" data-renderer-id="0" transform="translate(75, 15)"></g><g id="g-root-1_1uua2x01sysyrl-stroke" data-item-order="0" data-item-id="1_1uua2x01sysyrl" data-item-class="Icon Stroke SceneTarget Indexed ColorStrokeBlack" data-item-index="5" data-renderer-id="0" transform="translate(339, 3)"><g id="1_1uua2x01sysyrl-stroke" fill="none" stroke-linecap="round" stroke-linejoin="round" stroke-miterlimit="4" stroke="#484848" stroke-width="2"><g><path d="M 57 55C 57 56.104568 56.104568 57 55 57L 13 57C 11.895431 57 11 56.104568 11 55L 11 13C 11 11.895431 11.895431 11 13 11L 55 11C 56.104568 11 57 11.895431 57 13ZM 11 35L 57 35M 25 57L 17 57L 17 40C 17 39.447716 17.447716 39 18 39L 24 39C 24.552284 39 25 39.447716 25 40ZM 37 19L 43 19L 43 35L 37 35ZM 48.568001 35L 42.324001 16.812C 42.145092 16.289541 42.423561 15.720964 42.945999 15.542L 46.73 14.242001C 47.25246 14.063091 47.821037 14.34156 48 14.864L 54.911999 35M 37 35L 29 35L 29 18C 29 17.447716 29.447716 17 30 17L 36 17C 36.552284 17 37 17.447716 37 18ZM 33 57L 25 57L 25 40C 25 39.447716 25.447716 39 26 39L 32 39C 32.552284 39 33 39.447716 33 40ZM 51 57L 45 57L 45 40C 45 39.447716 45.447716 39 46 39L 50 39C 50.552284 39 51 39.447716 51 40ZM 45 57L 39 57L 39 42C 39 41.447716 39.447716 41 40 41L 44 41C 44.552284 41 45 41.447716 45 42ZM 21 45L 21 51M 29 45L 29 51"></path></g></g></g><g id="g-root-tx_simplerm_mgpflw1sz5onc-stroke" data-item-order="0" data-item-id="tx_simplerm_mgpflw1sz5onc" data-item-class="Label Stroke SceneTarget Indexed ColorStrokeBlack" data-item-index="5" data-renderer-id="0" transform="translate(399, 15)"></g><g id="g-root-1_hzn2h01sysyz2-stroke" data-item-order="0" data-item-id="1_hzn2h01sysyz2" data-item-class="Icon Stroke SceneTarget Indexed ColorStrokeBlack" data-item-index="3" data-renderer-id="0" transform="translate(15, 75)"><g id="1_hzn2h01sysyz2-stroke" fill="none" stroke-linecap="round" stroke-linejoin="round" stroke-miterlimit="4" stroke="#484848" stroke-width="2"><g><path d="M 52.700001 31.120001C 44.700001 45.119999 32.32 52.98 22.34 52.98M 56.52 33C 55.624031 31.815838 54.224918 31.119982 52.739998 31.119999L 52.740002 31.120001C 50.462955 28.800011 47.008461 28.08856 44 29.32C 42.088524 30.05793 40.242092 30.954386 38.479996 31.999998C 34.48 21.08 27.48 14 11.48 14C 13.827615 19.055206 16.855682 23.765533 20.48 28C 23.74 31.799999 32.48 36.379997 32.48 36.379997C 26.589869 41.813828 22.712761 49.081638 21.48 57M 40.48 25C 39.48 14 47.48 11 47.48 11C 50.48 16 49.700001 25.799999 45.700001 28.799999"></path></g></g></g><g id="g-root-tx_highaccu_1uu9zr81sz5ma5-stroke" data-item-order="0" data-item-id="tx_highaccu_1uu9zr81sz5ma5" data-item-class="Label Stroke SceneTarget Indexed ColorStrokeBlack" data-item-index="3" data-renderer-id="0" transform="translate(75, 87)"></g><g id="g-root-imag_8d1z81syt1c8-stroke" data-item-order="0" data-item-id="imag_8d1z81syt1c8" data-item-class="Icon Stroke SceneTarget Indexed ColorStrokeBlack" data-item-index="6" data-renderer-id="0" transform="translate(339, 75)"><g id="imag_8d1z81syt1c8-stroke" fill="none" stroke-linecap="round" stroke-linejoin="round" stroke-miterlimit="4" stroke="#484848" stroke-width="2"><g><path d="M 53 11L 19 11C 16.790861 11 15 12.790861 15 15C 15 17.209139 16.790861 19 19 19L 51 19C 52.104568 19 53 19.895432 53 21L 53 55C 53 56.104568 52.104568 57 51 57L 19 57C 16.790861 57 15 55.209141 15 53L 15 15M 19 15L 51 15M 45 51L 25 51C 23.895432 51 23 50.104568 23 49L 23 29C 23 27.89543 23.895432 27 25 27L 45 27C 46.104568 27 47 27.89543 47 29L 47 49C 47 50.104568 46.104568 51 45 51ZM 28.243999 35C 28.244001 36.656853 29.587147 38 31.244001 38C 32.900856 38 34.244003 36.656853 34.244003 35C 34.244003 33.343147 32.900856 32 31.244001 32C 29.587147 32 28.244001 33.343147 28.244001 35ZM 47 46.5L 42.217999 39.326C 41.943199 38.913284 41.482201 38.663033 40.986397 38.657433C 40.490593 38.651829 40.024059 38.891602 39.740002 39.298L 35.739998 45L 33.267998 43.021999C 32.939339 42.759739 32.5158 42.647247 32.100319 42.711868C 31.684845 42.776489 31.315477 43.012306 31.081999 43.362L 26 51"></path></g></g></g><g id="g-root-tx_simplici_zs5xz81sz5n2f-stroke" data-item-order="0" data-item-id="tx_simplici_zs5xz81sz5n2f" data-item-class="Label Stroke SceneTarget Indexed ColorStrokeBlack" data-item-index="6" data-renderer-id="0" transform="translate(399, 87)"></g><g id="g-root-tx_posthocm_hrit6s1sz70u9-stroke" data-item-order="0" data-item-id="tx_posthocm_hrit6s1sz70u9" data-item-class="Label Stroke SceneTarget Indexed ColorStrokeBlack" data-item-index="none" data-renderer-id="0" transform="translate(27, 243)"></g><g id="g-root-tx_inherent_4g2atg1sz72f6-stroke" data-item-order="0" data-item-id="tx_inherent_4g2atg1sz72f6" data-item-class="Label Stroke SceneTarget Indexed ColorStrokeBlack" data-item-index="none" data-renderer-id="0" transform="translate(345, 231)"></g></g></g></svg>