<?xml version="1.0" encoding="utf-8" standalone="yes"?>
<!DOCTYPE svg PUBLIC "-//W3C//DTD SVG 1.1//EN" "http://www.w3.org/Graphics/SVG/1.1/DTD/svg11.dtd">
<svg width="531" height="398" viewBox="0 0 531 398" style="fill:none;stroke:none;fill-rule:evenodd;clip-rule:evenodd;stroke-linecap:round;stroke-linejoin:round;stroke-miterlimit:1.5;" version="1.1" xmlns="http://www.w3.org/2000/svg" xmlns:xlink="http://www.w3.org/1999/xlink"><style id="fontImports">@import url("https://fonts.googleapis.com/css2?family=Roboto:wght@400;700&amp;display=block");</style><rect id="" x="0" y="0" width="530" height="398" style="fill: #ffffff;"></rect><g id="items" style="isolation: isolate"><g id="blend" style="mix-blend-mode:multiply"><g id="g-root-3.cu_sy_1qdu3pw1qr1w5h-fill" data-item-order="-187483" data-item-id="3.cu_sy_1qdu3pw1qr1w5h" data-item-class="ScenePart Part Indexed Stroke" data-item-index="3" data-renderer-id="0" transform="translate(3, 110.9990234375)"></g><g id="g-root-2.cu_sy_1qdu3pw1qr1w5g-fill" data-item-order="-187481" data-item-id="2.cu_sy_1qdu3pw1qr1w5g" data-item-class="ScenePart Part Indexed Stroke" data-item-index="2" data-renderer-id="0" transform="translate(255.00048828125, 3)"></g><g id="g-root-1.cu_sy_1qdu3pw1qr1w5f-fill" data-item-order="-187480" data-item-id="1.cu_sy_1qdu3pw1qr1w5f" data-item-class="ScenePart Part Indexed Indexed_1 Fill Stroke" data-item-index="1" data-renderer-id="0" transform="translate(225.00048828125, 27)"><g id="1.cu_sy_1qdu3pw1qr1w5f-fill" stroke="none" fill="#f0f0f0"><g><path d="M 10 34L 28 10L 28 18L 52 18L 52 10L 70 34L 52 58L 52 50L 28 50L 28 58L 10 34Z"></path></g></g></g><g id="g-root-tx_pros_1cw4uhg1qr3abk-fill" data-item-order="0" data-item-id="tx_pros_1cw4uhg1qr3abk" data-item-class="Label Stroke SceneTarget" data-item-index="none" data-renderer-id="0" transform="translate(63.00048828125, 39)"><g id="tx_pros_1cw4uhg1qr3abk-fill" stroke="none" fill="#484848"><g><text style="font: 20px Roboto, sans-serif; white-space: pre;"><tspan x="12" y="33.75" dominant-baseline="ideographic">Pros</tspan></text></g></g></g><g id="g-root-tx_cons_1hbyclw1qr39jb-fill" data-item-order="0" data-item-id="tx_cons_1hbyclw1qr39jb" data-item-class="Label Stroke SceneTarget" data-item-index="none" data-renderer-id="0" transform="translate(363.00048828125, 39)"><g id="tx_cons_1hbyclw1qr39jb-fill" stroke="none" fill="#484848"><g><text style="font: 20px Roboto, sans-serif; white-space: pre;"><tspan x="12" y="33.75" dominant-baseline="ideographic">Cons</tspan></text></g></g></g><g id="g-root-hand_1hu1g1qr8w03-fill" data-item-order="0" data-item-id="hand_1hu1g1qr8w03" data-item-class="Icon Stroke SceneTarget Indexed Indexed_1" data-item-index="1" data-renderer-id="0" transform="translate(3.00048828125, 147)"></g><g id="g-root-tx_trust_1hbyclw1qr39ja-fill" data-item-order="0" data-item-id="tx_trust_1hbyclw1qr39ja" data-item-class="Label Stroke SceneTarget Indexed Indexed_1" data-item-index="1" data-renderer-id="0" transform="translate(63.00048828125, 159)"><g id="tx_trust_1hbyclw1qr39ja-fill" stroke="none" fill="#484848"><g><text style="font: 20px Roboto, sans-serif; white-space: pre;"><tspan x="12" y="33.75" dominant-baseline="ideographic">Trust</tspan></text></g></g></g><g id="g-root-acro_m7yvkk1qr8w0f-fill" data-item-order="0" data-item-id="acro_m7yvkk1qr8w0f" data-item-class="Icon Stroke SceneTarget Indexed" data-item-index="101" data-renderer-id="0" transform="translate(303.00048828125, 147)"></g><g id="g-root-tx_balancin_13z8w2c1qr38y1-fill" data-item-order="0" data-item-id="tx_balancin_13z8w2c1qr38y1" data-item-class="Label Stroke SceneTarget Indexed" data-item-index="101" data-renderer-id="0" transform="translate(363.00048828125, 159)"><g id="tx_balancin_13z8w2c1qr38y1-fill" stroke="none" fill="#484848"><g><text style="font: 20px Roboto, sans-serif; white-space: pre;"><tspan x="12" y="33.75" dominant-baseline="ideographic">Balancing act</tspan></text></g></g></g><g id="g-root-1_4hbc5w1qr8v7u-fill" data-item-order="0" data-item-id="1_4hbc5w1qr8v7u" data-item-class="Icon Stroke SceneTarget Indexed" data-item-index="2" data-renderer-id="0" transform="translate(3.00048828125, 231)"></g><g id="g-root-tx_accounta_1lrruqc1qr38r1-fill" data-item-order="0" data-item-id="tx_accounta_1lrruqc1qr38r1" data-item-class="Label Stroke SceneTarget Indexed" data-item-index="2" data-renderer-id="0" transform="translate(63.00048828125, 243)"><g id="tx_accounta_1lrruqc1qr38r1-fill" stroke="none" fill="#484848"><g><text style="font: 20px Roboto, sans-serif; white-space: pre;"><tspan x="12" y="33.75" dominant-baseline="ideographic">Accountability</tspan></text></g></g></g><g id="g-root-decr_ziswus1qr8xla-fill" data-item-order="0" data-item-id="decr_ziswus1qr8xla" data-item-class="Icon Stroke SceneTarget Indexed" data-item-index="102" data-renderer-id="0" transform="translate(303.00048828125, 231)"></g><g id="g-root-tx_potentia_1ha2xck1qr3aiw-fill" data-item-order="0" data-item-id="tx_potentia_1ha2xck1qr3aiw" data-item-class="Label Stroke SceneTarget Indexed" data-item-index="102" data-renderer-id="0" transform="translate(363.00048828125, 231)"><g id="tx_potentia_1ha2xck1qr3aiw-fill" stroke="none" fill="#484848"><g><text style="font: 20px Roboto, sans-serif; white-space: pre;"><tspan x="12" y="33.75" dominant-baseline="ideographic">Potential lower </tspan><tspan x="12" y="57.75" dominant-baseline="ideographic">performance</tspan></text></g></g></g><g id="g-root-uneq_dcbvbo1qr8xkx-fill" data-item-order="0" data-item-id="uneq_dcbvbo1qr8xkx" data-item-class="Icon Stroke SceneTarget Indexed" data-item-index="3" data-renderer-id="0" transform="translate(3.00048828125, 315)"></g><g id="g-root-tx_fairness_1umsdw41qr3b44-fill" data-item-order="0" data-item-id="tx_fairness_1umsdw41qr3b44" data-item-class="Label Stroke SceneTarget Indexed" data-item-index="3" data-renderer-id="0" transform="translate(63.00048828125, 327)"><g id="tx_fairness_1umsdw41qr3b44-fill" stroke="none" fill="#484848"><g><text style="font: 20px Roboto, sans-serif; white-space: pre;"><tspan x="12" y="33.75" dominant-baseline="ideographic">Fairness</tspan></text></g></g></g><g id="g-root-puzz_18efx3o1qr8wsl-fill" data-item-order="0" data-item-id="puzz_18efx3o1qr8wsl" data-item-class="Icon Stroke SceneTarget Indexed" data-item-index="103" data-renderer-id="0" transform="translate(303.00048828125, 315)"></g><g id="g-root-tx_complexi_1uljfpw1qr38xz-fill" data-item-order="0" data-item-id="tx_complexi_1uljfpw1qr38xz" data-item-class="Label Stroke SceneTarget Indexed" data-item-index="103" data-renderer-id="0" transform="translate(363.00048828125, 327)"><g id="tx_complexi_1uljfpw1qr38xz-fill" stroke="none" fill="#484848"><g><text style="font: 20px Roboto, sans-serif; white-space: pre;"><tspan x="12" y="33.75" dominant-baseline="ideographic">Complexity</tspan></text></g></g></g><g id="g-root-3.cu_sy_1qdu3pw1qr1w5h-stroke" data-item-order="-187483" data-item-id="3.cu_sy_1qdu3pw1qr1w5h" data-item-class="ScenePart Part Indexed Stroke" data-item-index="3" data-renderer-id="0" transform="translate(3, 110.9990234375)"><g id="3.cu_sy_1qdu3pw1qr1w5h-stroke" fill="none" stroke-linecap="round" stroke-linejoin="round" stroke-miterlimit="4" stroke="#484848" stroke-width="2"><g><path d="M 514.000488 9.999977L 9.999988 10.000977"></path></g></g></g><g id="g-root-2.cu_sy_1qdu3pw1qr1w5g-stroke" data-item-order="-187481" data-item-id="2.cu_sy_1qdu3pw1qr1w5g" data-item-class="ScenePart Part Indexed Stroke" data-item-index="2" data-renderer-id="0" transform="translate(255.00048828125, 3)"><g id="2.cu_sy_1qdu3pw1qr1w5g-stroke" fill="none" stroke-linecap="round" stroke-linejoin="round" stroke-miterlimit="4" stroke="#484848" stroke-width="2"><g><path d="M 10 298L 10 214M 10 382L 10 298M 10 214L 10 118M 10 118L 10 80M 10 36L 10 10"></path></g></g></g><g id="g-root-1.cu_sy_1qdu3pw1qr1w5f-stroke" data-item-order="-187480" data-item-id="1.cu_sy_1qdu3pw1qr1w5f" data-item-class="ScenePart Part Indexed Indexed_1 Fill Stroke" data-item-index="1" data-renderer-id="0" transform="translate(225.00048828125, 27)"><g id="1.cu_sy_1qdu3pw1qr1w5f-stroke" fill="none" stroke-linecap="round" stroke-linejoin="round" stroke-miterlimit="4" stroke="#484848" stroke-width="2"><g><path d="M 10 34L 28 10L 28 18L 52 18L 52 10L 70 34L 52 58L 52 50L 28 50L 28 58L 10 34Z"></path></g></g><g id="1.cu_sy_1qdu3pw1qr1w5f-stroke" fill="none" stroke-linecap="round" stroke-linejoin="round" stroke-miterlimit="4" stroke="#484848" stroke-width="2"><g><path d="M 30.599 28.373L 34.999 39.48M 35.199 39.097L 39.599 28.66M 49.399 30.192C 49.065 29.937 48.732 29.682 48.399 29.426C 47.799 28.852 46.832 28.628 45.499 28.756C 44.165 28.884 43.465 29.522 43.399 30.671C 43.265 31.82 44.232 32.905 46.299 33.927C 48.432 34.884 49.465 36.001 49.399 37.278C 49.399 38.555 48.632 39.321 47.099 39.576C 45.499 39.767 44.432 39.416 43.899 38.523C 43.565 38.076 43.265 37.629 42.999 37.182"></path></g></g></g><g id="g-root-tx_pros_1cw4uhg1qr3abk-stroke" data-item-order="0" data-item-id="tx_pros_1cw4uhg1qr3abk" data-item-class="Label Stroke SceneTarget" data-item-index="none" data-renderer-id="0" transform="translate(63.00048828125, 39)"></g><g id="g-root-tx_cons_1hbyclw1qr39jb-stroke" data-item-order="0" data-item-id="tx_cons_1hbyclw1qr39jb" data-item-class="Label Stroke SceneTarget" data-item-index="none" data-renderer-id="0" transform="translate(363.00048828125, 39)"></g><g id="g-root-hand_1hu1g1qr8w03-stroke" data-item-order="0" data-item-id="hand_1hu1g1qr8w03" data-item-class="Icon Stroke SceneTarget Indexed Indexed_1" data-item-index="1" data-renderer-id="0" transform="translate(3.00048828125, 147)"><g id="hand_1hu1g1qr8w03-stroke" fill="none" stroke-linecap="round" stroke-linejoin="round" stroke-miterlimit="4" stroke="#484848" stroke-width="2"><g><path d="M 40.582859 32.765713L 32.285713 38.285713L 27.142857 33.142857L 35.714287 22.857143L 44.285713 22.857143L 52.857143 19.428572M 43.017143 41.885715L 52.857143 36.57143M 56.285713 40L 52.857143 40L 52.857143 17.714285L 56.285713 17.714285M 37.325714 34.925713L 44.285713 43.428574L 27.142857 50.285713L 15.142858 40M 15.142858 22.857143L 27.142857 22.857143L 31.531429 27.862858M 11.714286 21.142857L 15.142858 21.142857L 15.142858 41.714287L 11.714286 41.714287"></path></g></g></g><g id="g-root-tx_trust_1hbyclw1qr39ja-stroke" data-item-order="0" data-item-id="tx_trust_1hbyclw1qr39ja" data-item-class="Label Stroke SceneTarget Indexed Indexed_1" data-item-index="1" data-renderer-id="0" transform="translate(63.00048828125, 159)"></g><g id="g-root-acro_m7yvkk1qr8w0f-stroke" data-item-order="0" data-item-id="acro_m7yvkk1qr8w0f" data-item-class="Icon Stroke SceneTarget Indexed" data-item-index="101" data-renderer-id="0" transform="translate(303.00048828125, 147)"><g id="acro_m7yvkk1qr8w0f-stroke" fill="none" stroke-linecap="round" stroke-linejoin="round" stroke-miterlimit="4" stroke="#484848" stroke-width="2"><g><path d="M 11 35L 57 35L 57 43L 11 43ZM 15 57L 24 43M 11 57L 19 57M 13 43L 20 49M 53 57L 44 43M 57 57L 49 57M 55 43L 48 49M 23 19L 23 11M 19 23C 19 25.209139 20.790861 27 23 27C 25.209139 27 27 25.209139 27 23C 27 20.790861 25.209139 19 23 19C 20.790861 19 19 20.790861 19 23ZM 45 19L 45 11M 41 23C 41 25.209139 42.790859 27 45 27C 47.209141 27 49 25.209139 49 23C 49 20.790861 47.209141 19 45 19C 42.790859 19 41 20.790861 41 23Z"></path></g></g></g><g id="g-root-tx_balancin_13z8w2c1qr38y1-stroke" data-item-order="0" data-item-id="tx_balancin_13z8w2c1qr38y1" data-item-class="Label Stroke SceneTarget Indexed" data-item-index="101" data-renderer-id="0" transform="translate(363.00048828125, 159)"></g><g id="g-root-1_4hbc5w1qr8v7u-stroke" data-item-order="0" data-item-id="1_4hbc5w1qr8v7u" data-item-class="Icon Stroke SceneTarget Indexed" data-item-index="2" data-renderer-id="0" transform="translate(3.00048828125, 231)"><g id="1_4hbc5w1qr8v7u-stroke" fill="none" stroke-linecap="round" stroke-linejoin="round" stroke-miterlimit="4" stroke="#484848" stroke-width="2"><g><path d="M 28.857143 42.57143L 20.285715 23.714287L 11.714286 42.57143C 11.714286 47.305298 15.551846 51.142857 20.285715 51.142857C 25.019585 51.142857 28.857143 47.305298 28.857143 42.57143ZM 56.285713 42.57143L 47.714287 23.714287L 39.142857 42.57143C 39.142857 47.305298 42.980419 51.142857 47.714287 51.142857C 52.448158 51.142857 56.285713 47.305298 56.285713 42.57143ZM 15.142858 23.714287L 52.857143 23.714287M 34 23.714287L 34 16.857143"></path></g></g></g><g id="g-root-tx_accounta_1lrruqc1qr38r1-stroke" data-item-order="0" data-item-id="tx_accounta_1lrruqc1qr38r1" data-item-class="Label Stroke SceneTarget Indexed" data-item-index="2" data-renderer-id="0" transform="translate(63.00048828125, 243)"></g><g id="g-root-decr_ziswus1qr8xla-stroke" data-item-order="0" data-item-id="decr_ziswus1qr8xla" data-item-class="Icon Stroke SceneTarget Indexed" data-item-index="102" data-renderer-id="0" transform="translate(303.00048828125, 231)"><g id="decr_ziswus1qr8xla-stroke" fill="none" stroke-linecap="round" stroke-linejoin="round" stroke-miterlimit="4" stroke="#484848" stroke-width="2"><g><path d="M 57.007999 56L 11.008 56M 49 56L 49 51C 49 50.447716 49.447716 50 50 50L 54 50C 54.552284 50 55 50.447716 55 51L 55 56M 37 56L 37 43C 37 42.447716 37.447716 42 38 42L 42 42C 42.552284 42 43 42.447716 43 43L 43 56M 25 56L 25 35C 25 34.447716 25.447716 34 26 34L 30 34C 30.552284 34 31 34.447716 31 35L 31 56M 13 56L 13 27C 13 26.447716 13.447716 26 14 26L 18 26C 18.552284 26 19 26.447716 19 27L 19 56M 52.007999 36L 16.007999 12M 51.007999 28L 52.007999 36L 44.007999 37"></path></g></g></g><g id="g-root-tx_potentia_1ha2xck1qr3aiw-stroke" data-item-order="0" data-item-id="tx_potentia_1ha2xck1qr3aiw" data-item-class="Label Stroke SceneTarget Indexed" data-item-index="102" data-renderer-id="0" transform="translate(363.00048828125, 231)"></g><g id="g-root-uneq_dcbvbo1qr8xkx-stroke" data-item-order="0" data-item-id="uneq_dcbvbo1qr8xkx" data-item-class="Icon Stroke SceneTarget Indexed" data-item-index="3" data-renderer-id="0" transform="translate(3.00048828125, 315)"><g id="uneq_dcbvbo1qr8xkx-stroke" fill="none" stroke-linecap="round" stroke-linejoin="round" stroke-miterlimit="4" stroke="#484848" stroke-width="2"><g><path d="M 34 23.364L 34 54.363998M 29 54.363998L 39 54.363998M 12 42.363998L 19 27.436001L 26 42.363998M 31 20.364C 31 22.020855 32.343147 23.364 34 23.364C 35.656853 23.364 37 22.020855 37 20.364C 37 18.707146 35.656853 17.364 34 17.364C 32.343147 17.364 31 18.707146 31 20.364ZM 19 49.363998C 20.870407 49.410587 22.678082 48.688061 24.001072 47.36507C 25.32406 46.042084 26.046587 44.234409 26 42.363998L 12 42.363998C 11.953412 44.234409 12.67594 46.042084 13.998928 47.36507C 15.321917 48.688061 17.129591 49.410587 19 49.363998ZM 56 30.364L 49 15.298L 42 30.364M 49 37.363998C 47.129589 37.410587 45.321915 36.688061 43.998928 35.36507C 42.675938 34.042084 41.953411 32.234406 42 30.363998L 56 30.364C 56.046585 32.234406 55.324059 34.042084 54.001072 35.36507C 52.678082 36.688061 50.870407 37.410587 49 37.363998ZM 36.987999 20.156L 53.110001 13.636M 14.892 29.094L 31.73 22.282"></path></g></g></g><g id="g-root-tx_fairness_1umsdw41qr3b44-stroke" data-item-order="0" data-item-id="tx_fairness_1umsdw41qr3b44" data-item-class="Label Stroke SceneTarget Indexed" data-item-index="3" data-renderer-id="0" transform="translate(63.00048828125, 327)"></g><g id="g-root-puzz_18efx3o1qr8wsl-stroke" data-item-order="0" data-item-id="puzz_18efx3o1qr8wsl" data-item-class="Icon Stroke SceneTarget Indexed" data-item-index="103" data-renderer-id="0" transform="translate(303.00048828125, 315)"><g id="puzz_18efx3o1qr8wsl-stroke" fill="none" stroke-linecap="round" stroke-linejoin="round" stroke-miterlimit="4" stroke="#484848" stroke-width="2"><g><path d="M 50.98 34C 50.98 33.84 50.98 33.66 50.98 33.5C 50.98 31.014719 48.965282 29 46.48 29C 43.99472 29 41.98 31.014719 41.98 33.5C 41.98 33.66 41.98 33.84 41.98 34L 36.5 34L 36.5 40L 37 40C 39.485283 40 41.5 42.014717 41.5 44.5C 41.5 46.985283 39.485283 49 37 49L 36.5 49L 36.5 55L 55 55C 56.104568 55 57 54.104568 57 53L 57 34ZM 37 40L 36.5 40L 36.5 34L 31.48 34C 31.48 34.16 31.48 34.34 31.48 34.5C 31.48 36.985283 29.465282 39 26.98 39C 24.494719 39 22.48 36.985283 22.48 34.5C 22.48 34.34 22.48 34.16 22.48 34L 16 34L 16 40L 15.5 40C 13.014719 40 11 42.014717 11 44.5C 11 46.985283 13.014719 49 15.5 49L 16 49L 16 53C 16 54.104568 16.895432 55 18 55L 36.5 55L 36.5 49L 37 49C 39.485283 49 41.5 46.985283 41.5 44.5C 41.5 42.014717 39.485283 40 37 40ZM 36.5 28L 36 28C 33.514717 28 31.5 25.985283 31.5 23.5C 31.5 21.014719 33.514717 19 36 19L 36.5 19L 36.5 13L 18 13C 16.895432 13 16 13.895431 16 15L 16 19L 16.5 19C 18.985281 19 21 21.014719 21 23.5C 21 25.985283 18.985281 28 16.5 28L 16 28L 16 34L 22.52 34C 22.52 34.16 22.52 34.34 22.52 34.5C 22.52 36.985283 24.534718 39 27.02 39C 29.505281 39 31.52 36.985283 31.52 34.5C 31.52 34.34 31.52 34.16 31.52 34L 36.540001 34ZM 50.98 13C 50.98 13.16 50.98 13.34 50.98 13.5C 50.98 15.985281 48.965282 18 46.48 18C 43.99472 18 41.98 15.985281 41.98 13.5C 41.98 13.34 41.98 13.16 41.98 13L 36.5 13L 36.5 19L 36 19C 33.514717 19 31.5 21.014719 31.5 23.5C 31.5 25.985283 33.514717 28 36 28L 36.5 28L 36.5 34L 42 34C 42 33.84 42 33.66 42 33.5C 42 31.014719 44.014717 29 46.5 29C 48.985283 29 51 31.014719 51 33.5C 51 33.66 51 33.84 51 34L 57 34L 57 15C 57 13.895431 56.104568 13 55 13Z"></path></g></g></g><g id="g-root-tx_complexi_1uljfpw1qr38xz-stroke" data-item-order="0" data-item-id="tx_complexi_1uljfpw1qr38xz" data-item-class="Label Stroke SceneTarget Indexed" data-item-index="103" data-renderer-id="0" transform="translate(363.00048828125, 327)"></g></g></g></svg>